<svg width="634" height="342" viewBox="0 0 634 342" fill="none" xmlns="http://www.w3.org/2000/svg">
<rect width="410" height="156" rx="2.87125" transform="matrix(-1 0 0 1 551 100.8)" fill="#131415"/>
<rect width="401.598" height="125.262" rx="2.15344" transform="matrix(-1 0 0 1 547.62 126.362)" fill="#1F2123"/>
<rect x="207.681" y="126.362" width="52.7169" height="1.62298" transform="rotate(-180 207.681 126.362)" fill="#648FF0"/>
<rect width="56.6522" height="22.4563" rx="2.15344" transform="matrix(-1 0 0 1 538.558 218.254)" fill="#333436"/>
<rect width="56.6522" height="22.4563" rx="2.15344" transform="matrix(-1 0 0 1 538.558 172.622)" fill="#333436"/>
<path d="M146.026 206.756H547.62" stroke="#333436" stroke-width="0.717812"/>
<path d="M146.026 160.662H547.62" stroke="#333436" stroke-width="0.717812"/>
<rect width="22.9477" height="22.9953" rx="7.17812" transform="matrix(-1 0 0 1 179.915 172.622)" fill="black"/>
<rect width="22.9477" height="22.9953" rx="7.17812" transform="matrix(-1 0 0 1 179.915 217.895)" fill="#005851"/>
<path d="M497.324 226.472V232.491" stroke="#648FF0" stroke-width="0.717812" stroke-linecap="round"/>
<path d="M499.206 230.603L497.323 232.489" stroke="#648FF0" stroke-width="0.717812" stroke-linecap="round"/>
<path d="M495.441 230.603L497.323 232.489" stroke="#648FF0" stroke-width="0.717812" stroke-linecap="round"/>
<path d="M497.324 180.841V186.86" stroke="#648FF0" stroke-width="0.717812" stroke-linecap="round"/>
<path d="M499.206 184.972L497.323 186.858" stroke="#648FF0" stroke-width="0.717812" stroke-linecap="round"/>
<path d="M495.441 184.972L497.323 186.858" stroke="#648FF0" stroke-width="0.717812" stroke-linecap="round"/>
<path d="M459.066 143.118L457.184 145.005" stroke="#648FF0" stroke-width="0.717812" stroke-linecap="round"/>
<path d="M455.3 143.118L457.182 145.005" stroke="#648FF0" stroke-width="0.717812" stroke-linecap="round"/>
<path d="M536.31 143.118L534.427 145.005" stroke="#648FF0" stroke-width="0.717812" stroke-linecap="round"/>
<path d="M532.544 143.118L534.425 145.005" stroke="#648FF0" stroke-width="0.717812" stroke-linecap="round"/>
<path d="M171.414 178.459C171.881 178.459 172.26 178.078 172.26 177.609C172.26 177.14 171.881 176.759 171.414 176.759C170.946 176.759 170.567 177.14 170.567 177.609C170.567 178.078 170.946 178.459 171.414 178.459Z" fill="#FEFEFE"/>
<path d="M172.366 190.463C172.834 190.463 173.213 190.082 173.213 189.613C173.213 189.144 172.834 188.763 172.366 188.763C171.899 188.763 171.52 189.144 171.52 189.613C171.52 190.082 171.899 190.463 172.366 190.463Z" fill="#FEFEFE"/>
<path d="M171.656 180.583C172.048 180.583 172.366 180.264 172.366 179.87C172.366 179.476 172.048 179.157 171.656 179.157C171.263 179.157 170.945 179.476 170.945 179.87C170.945 180.264 171.263 180.583 171.656 180.583Z" fill="#FEFEFE"/>
<path d="M173.545 180.857C173.938 180.857 174.256 180.537 174.256 180.143C174.256 179.749 173.938 179.43 173.545 179.43C173.153 179.43 172.835 179.749 172.835 180.143C172.835 180.537 173.153 180.857 173.545 180.857Z" fill="#FEFEFE"/>
<path d="M171.414 182.389C171.748 182.389 172.019 182.117 172.019 181.782C172.019 181.447 171.748 181.175 171.414 181.175C171.08 181.175 170.809 181.447 170.809 181.782C170.809 182.117 171.08 182.389 171.414 182.389Z" fill="#FEFEFE"/>
<path d="M173.303 182.647C173.637 182.647 173.908 182.376 173.908 182.04C173.908 181.705 173.637 181.433 173.303 181.433C172.969 181.433 172.699 181.705 172.699 182.04C172.699 182.376 172.969 182.647 173.303 182.647Z" fill="#FEFEFE"/>
<path d="M174.815 183.239C175.149 183.239 175.42 182.967 175.42 182.632C175.42 182.297 175.149 182.025 174.815 182.025C174.481 182.025 174.21 182.297 174.21 182.632C174.21 182.967 174.481 183.239 174.815 183.239Z" fill="#FEFEFE"/>
<path d="M172.744 184.104C173.036 184.104 173.273 183.866 173.273 183.573C173.273 183.28 173.036 183.042 172.744 183.042C172.452 183.042 172.215 183.28 172.215 183.573C172.215 183.866 172.452 184.104 172.744 184.104Z" fill="#FEFEFE"/>
<path d="M170.855 183.846C171.147 183.846 171.384 183.608 171.384 183.315C171.384 183.021 171.147 182.784 170.855 182.784C170.563 182.784 170.326 183.021 170.326 183.315C170.326 183.608 170.563 183.846 170.855 183.846Z" fill="#FEFEFE"/>
<path d="M174.271 184.696C174.563 184.696 174.8 184.458 174.8 184.165C174.8 183.871 174.563 183.634 174.271 183.634C173.979 183.634 173.742 183.871 173.742 184.165C173.742 184.458 173.979 184.696 174.271 184.696Z" fill="#FEFEFE"/>
<path d="M171.988 185.212C172.239 185.212 172.442 185.008 172.442 184.757C172.442 184.505 172.239 184.301 171.988 184.301C171.738 184.301 171.535 184.505 171.535 184.757C171.535 185.008 171.738 185.212 171.988 185.212Z" fill="#FEFEFE"/>
<path d="M173.515 185.788C173.766 185.788 173.969 185.585 173.969 185.333C173.969 185.082 173.766 184.878 173.515 184.878C173.265 184.878 173.062 185.082 173.062 185.333C173.062 185.585 173.265 185.788 173.515 185.788Z" fill="#FEFEFE"/>
<path d="M170.114 184.938C170.364 184.938 170.567 184.735 170.567 184.483C170.567 184.232 170.364 184.028 170.114 184.028C169.863 184.028 169.66 184.232 169.66 184.483C169.66 184.735 169.863 184.938 170.114 184.938Z" fill="#FEFEFE"/>
<path d="M171.157 185.955C171.366 185.955 171.535 185.786 171.535 185.576C171.535 185.366 171.366 185.197 171.157 185.197C170.948 185.197 170.779 185.366 170.779 185.576C170.779 185.786 170.948 185.955 171.157 185.955Z" fill="#FEFEFE"/>
<path d="M171.807 187.003C171.991 187.003 172.139 186.853 172.139 186.669C172.139 186.484 171.991 186.335 171.807 186.335C171.623 186.335 171.474 186.484 171.474 186.669C171.474 186.853 171.623 187.003 171.807 187.003Z" fill="#FEFEFE"/>
<path d="M171.006 187.215C171.156 187.215 171.278 187.093 171.278 186.942C171.278 186.791 171.156 186.669 171.006 186.669C170.856 186.669 170.734 186.791 170.734 186.942C170.734 187.093 170.856 187.215 171.006 187.215Z" fill="#FEFEFE"/>
<path d="M170.295 186.426C170.479 186.426 170.628 186.276 170.628 186.092C170.628 185.908 170.479 185.758 170.295 185.758C170.112 185.758 169.963 185.908 169.963 186.092C169.963 186.276 170.112 186.426 170.295 186.426Z" fill="#FEFEFE"/>
<path d="M169.268 185.697C169.476 185.697 169.645 185.528 169.645 185.318C169.645 185.108 169.476 184.939 169.268 184.939C169.059 184.939 168.89 185.108 168.89 185.318C168.89 185.528 169.059 185.697 169.268 185.697Z" fill="#FEFEFE"/>
<path d="M169.252 182.844C169.461 182.844 169.63 182.675 169.63 182.465C169.63 182.255 169.461 182.086 169.252 182.086C169.044 182.086 168.874 182.255 168.874 182.465C168.874 182.675 169.044 182.844 169.252 182.844Z" fill="#FEFEFE"/>
<path d="M169.419 181.509C169.602 181.509 169.751 181.36 169.751 181.175C169.751 180.991 169.602 180.841 169.419 180.841C169.235 180.841 169.086 180.991 169.086 181.175C169.086 181.36 169.235 181.509 169.419 181.509Z" fill="#FEFEFE"/>
<path d="M169.781 180.416C169.932 180.416 170.054 180.294 170.054 180.143C170.054 179.992 169.932 179.87 169.781 179.87C169.631 179.87 169.509 179.992 169.509 180.143C169.509 180.294 169.631 180.416 169.781 180.416Z" fill="#FEFEFE"/>
<path d="M169.147 179.9C169.33 179.9 169.479 179.751 169.479 179.567C169.479 179.382 169.33 179.233 169.147 179.233C168.963 179.233 168.814 179.382 168.814 179.567C168.814 179.751 168.963 179.9 169.147 179.9Z" fill="#FEFEFE"/>
<path d="M172.669 186.532C172.877 186.532 173.046 186.362 173.046 186.153C173.046 185.943 172.877 185.773 172.669 185.773C172.46 185.773 172.291 185.943 172.291 186.153C172.291 186.362 172.46 186.532 172.669 186.532Z" fill="#FEFEFE"/>
<path d="M168.285 179.46C168.494 179.46 168.663 179.29 168.663 179.081C168.663 178.871 168.494 178.701 168.285 178.701C168.076 178.701 167.907 178.871 167.907 179.081C167.907 179.29 168.076 179.46 168.285 179.46Z" fill="#FEFEFE"/>
<path d="M168.542 181.069C168.751 181.069 168.92 180.899 168.92 180.69C168.92 180.48 168.751 180.31 168.542 180.31C168.333 180.31 168.164 180.48 168.164 180.69C168.164 180.899 168.333 181.069 168.542 181.069Z" fill="#FEFEFE"/>
<path d="M168.119 182.602C168.369 182.602 168.572 182.398 168.572 182.146C168.572 181.895 168.369 181.691 168.119 181.691C167.868 181.691 167.665 181.895 167.665 182.146C167.665 182.398 167.868 182.602 168.119 182.602Z" fill="#FEFEFE"/>
<path d="M166.743 182.602C167.035 182.602 167.272 182.364 167.272 182.07C167.272 181.777 167.035 181.539 166.743 181.539C166.451 181.539 166.214 181.777 166.214 182.07C166.214 182.364 166.451 182.602 166.743 182.602Z" fill="#FEFEFE"/>
<path d="M165.141 182.966C165.475 182.966 165.746 182.694 165.746 182.359C165.746 182.024 165.475 181.752 165.141 181.752C164.807 181.752 164.536 182.024 164.536 182.359C164.536 182.694 164.807 182.966 165.141 182.966Z" fill="#FEFEFE"/>
<path d="M163.388 183.831C163.78 183.831 164.098 183.512 164.098 183.118C164.098 182.724 163.78 182.404 163.388 182.404C162.995 182.404 162.677 182.724 162.677 183.118C162.677 183.512 162.995 183.831 163.388 183.831Z" fill="#FEFEFE"/>
<path d="M161.574 185.288C162.041 185.288 162.42 184.907 162.42 184.438C162.42 183.969 162.041 183.588 161.574 183.588C161.106 183.588 160.727 183.969 160.727 184.438C160.727 184.907 161.106 185.288 161.574 185.288Z" fill="#FEFEFE"/>
<path d="M162.677 182.055C163.07 182.055 163.388 181.736 163.388 181.342C163.388 180.948 163.07 180.629 162.677 180.629C162.285 180.629 161.967 180.948 161.967 181.342C161.967 181.736 162.285 182.055 162.677 182.055Z" fill="#FEFEFE"/>
<path d="M164.43 181.19C164.764 181.19 165.035 180.919 165.035 180.583C165.035 180.248 164.764 179.976 164.43 179.976C164.097 179.976 163.826 180.248 163.826 180.583C163.826 180.919 164.097 181.19 164.43 181.19Z" fill="#FEFEFE"/>
<path d="M164.173 179.582C164.507 179.582 164.778 179.31 164.778 178.975C164.778 178.639 164.507 178.368 164.173 178.368C163.84 178.368 163.569 178.639 163.569 178.975C163.569 179.31 163.84 179.582 164.173 179.582Z" fill="#FEFEFE"/>
<path d="M165.776 179.217C166.068 179.217 166.305 178.98 166.305 178.686C166.305 178.393 166.068 178.155 165.776 178.155C165.484 178.155 165.247 178.393 165.247 178.686C165.247 178.98 165.484 179.217 165.776 179.217Z" fill="#FEFEFE"/>
<path d="M167.151 179.217C167.402 179.217 167.605 179.014 167.605 178.762C167.605 178.511 167.402 178.307 167.151 178.307C166.901 178.307 166.698 178.511 166.698 178.762C166.698 179.014 166.901 179.217 167.151 179.217Z" fill="#FEFEFE"/>
<path d="M167.408 180.826C167.659 180.826 167.862 180.622 167.862 180.371C167.862 180.119 167.659 179.915 167.408 179.915C167.158 179.915 166.955 180.119 166.955 180.371C166.955 180.622 167.158 180.826 167.408 180.826Z" fill="#FEFEFE"/>
<path d="M166.033 180.841C166.325 180.841 166.562 180.604 166.562 180.31C166.562 180.017 166.325 179.779 166.033 179.779C165.741 179.779 165.504 180.017 165.504 180.31C165.504 180.604 165.741 180.841 166.033 180.841Z" fill="#FEFEFE"/>
<path d="M164.536 184.878C164.687 184.878 164.808 184.756 164.808 184.605C164.808 184.454 164.687 184.332 164.536 184.332C164.386 184.332 164.264 184.454 164.264 184.605C164.264 184.756 164.386 184.878 164.536 184.878Z" fill="#FEFEFE"/>
<path d="M165.625 184.741C165.808 184.741 165.957 184.592 165.957 184.408C165.957 184.223 165.808 184.074 165.625 184.074C165.441 184.074 165.292 184.223 165.292 184.408C165.292 184.592 165.441 184.741 165.625 184.741Z" fill="#FEFEFE"/>
<path d="M166.819 184.286C167.027 184.286 167.197 184.116 167.197 183.907C167.197 183.697 167.027 183.527 166.819 183.527C166.61 183.527 166.441 183.697 166.441 183.907C166.441 184.116 166.61 184.286 166.819 184.286Z" fill="#FEFEFE"/>
<path d="M167.106 185.5C167.356 185.5 167.559 185.296 167.559 185.045C167.559 184.793 167.356 184.59 167.106 184.59C166.855 184.59 166.652 184.793 166.652 185.045C166.652 185.296 166.855 185.5 167.106 185.5Z" fill="#FEFEFE"/>
<path d="M165.655 185.788C165.864 185.788 166.033 185.619 166.033 185.409C166.033 185.2 165.864 185.03 165.655 185.03C165.446 185.03 165.277 185.2 165.277 185.409C165.277 185.619 165.446 185.788 165.655 185.788Z" fill="#FEFEFE"/>
<path d="M164.37 185.773C164.554 185.773 164.703 185.624 164.703 185.439C164.703 185.255 164.554 185.106 164.37 185.106C164.186 185.106 164.037 185.255 164.037 185.439C164.037 185.624 164.186 185.773 164.37 185.773Z" fill="#FEFEFE"/>
<path d="M164.385 186.82C164.594 186.82 164.763 186.65 164.763 186.441C164.763 186.231 164.594 186.062 164.385 186.062C164.176 186.062 164.007 186.231 164.007 186.441C164.007 186.65 164.176 186.82 164.385 186.82Z" fill="#FEFEFE"/>
<path d="M165.927 187.018C166.177 187.018 166.38 186.814 166.38 186.562C166.38 186.311 166.177 186.107 165.927 186.107C165.676 186.107 165.473 186.311 165.473 186.562C165.473 186.814 165.676 187.018 165.927 187.018Z" fill="#FEFEFE"/>
<path d="M167.726 186.82C168.018 186.82 168.255 186.583 168.255 186.289C168.255 185.996 168.018 185.758 167.726 185.758C167.434 185.758 167.197 185.996 167.197 186.289C167.197 186.583 167.434 186.82 167.726 186.82Z" fill="#FEFEFE"/>
<path d="M168.784 188.141C169.118 188.141 169.388 187.869 169.388 187.534C169.388 187.198 169.118 186.927 168.784 186.927C168.45 186.927 168.179 187.198 168.179 187.534C168.179 187.869 168.45 188.141 168.784 188.141Z" fill="#FEFEFE"/>
<path d="M166.562 188.323C166.854 188.323 167.091 188.085 167.091 187.792C167.091 187.498 166.854 187.261 166.562 187.261C166.27 187.261 166.033 187.498 166.033 187.792C166.033 188.085 166.27 188.323 166.562 188.323Z" fill="#FEFEFE"/>
<path d="M165.307 189.355C165.599 189.355 165.836 189.117 165.836 188.823C165.836 188.53 165.599 188.292 165.307 188.292C165.015 188.292 164.778 188.53 164.778 188.823C164.778 189.117 165.015 189.355 165.307 189.355Z" fill="#FEFEFE"/>
<path d="M166.35 190.69C166.684 190.69 166.955 190.418 166.955 190.083C166.955 189.748 166.684 189.476 166.35 189.476C166.016 189.476 165.746 189.748 165.746 190.083C165.746 190.418 166.016 190.69 166.35 190.69Z" fill="#FEFEFE"/>
<path d="M169.132 190.933C169.524 190.933 169.842 190.614 169.842 190.22C169.842 189.826 169.524 189.507 169.132 189.507C168.739 189.507 168.421 189.826 168.421 190.22C168.421 190.614 168.739 190.933 169.132 190.933Z" fill="#FEFEFE"/>
<path d="M167.605 189.658C167.939 189.658 168.209 189.386 168.209 189.051C168.209 188.716 167.939 188.444 167.605 188.444C167.271 188.444 167 188.716 167 189.051C167 189.386 167.271 189.658 167.605 189.658Z" fill="#FEFEFE"/>
<path d="M170.295 189.415C170.688 189.415 171.006 189.096 171.006 188.702C171.006 188.308 170.688 187.989 170.295 187.989C169.903 187.989 169.585 188.308 169.585 188.702C169.585 189.096 169.903 189.415 170.295 189.415Z" fill="#FEFEFE"/>
<path d="M164.672 188.05C164.923 188.05 165.126 187.846 165.126 187.594C165.126 187.343 164.923 187.139 164.672 187.139C164.422 187.139 164.219 187.343 164.219 187.594C164.219 187.846 164.422 188.05 164.672 188.05Z" fill="#FEFEFE"/>
<path d="M171.414 223.73C171.881 223.73 172.26 223.349 172.26 222.88C172.26 222.41 171.881 222.03 171.414 222.03C170.946 222.03 170.567 222.41 170.567 222.88C170.567 223.349 170.946 223.73 171.414 223.73Z" fill="#FEFEFE"/>
<path d="M172.366 235.734C172.834 235.734 173.213 235.353 173.213 234.884C173.213 234.414 172.834 234.034 172.366 234.034C171.899 234.034 171.52 234.414 171.52 234.884C171.52 235.353 171.899 235.734 172.366 235.734Z" fill="#FEFEFE"/>
<path d="M171.656 225.854C172.048 225.854 172.366 225.535 172.366 225.141C172.366 224.747 172.048 224.428 171.656 224.428C171.263 224.428 170.945 224.747 170.945 225.141C170.945 225.535 171.263 225.854 171.656 225.854Z" fill="#FEFEFE"/>
<path d="M173.545 226.127C173.938 226.127 174.256 225.808 174.256 225.414C174.256 225.02 173.938 224.701 173.545 224.701C173.153 224.701 172.835 225.02 172.835 225.414C172.835 225.808 173.153 226.127 173.545 226.127Z" fill="#FEFEFE"/>
<path d="M171.414 227.66C171.748 227.66 172.019 227.388 172.019 227.053C172.019 226.718 171.748 226.446 171.414 226.446C171.08 226.446 170.809 226.718 170.809 227.053C170.809 227.388 171.08 227.66 171.414 227.66Z" fill="#FEFEFE"/>
<path d="M173.303 227.918C173.637 227.918 173.908 227.646 173.908 227.311C173.908 226.976 173.637 226.704 173.303 226.704C172.969 226.704 172.699 226.976 172.699 227.311C172.699 227.646 172.969 227.918 173.303 227.918Z" fill="#FEFEFE"/>
<path d="M174.815 228.51C175.149 228.51 175.42 228.238 175.42 227.903C175.42 227.568 175.149 227.296 174.815 227.296C174.481 227.296 174.21 227.568 174.21 227.903C174.21 228.238 174.481 228.51 174.815 228.51Z" fill="#FEFEFE"/>
<path d="M172.744 229.375C173.036 229.375 173.273 229.137 173.273 228.844C173.273 228.551 173.036 228.313 172.744 228.313C172.452 228.313 172.215 228.551 172.215 228.844C172.215 229.137 172.452 229.375 172.744 229.375Z" fill="#FEFEFE"/>
<path d="M170.855 229.117C171.147 229.117 171.384 228.879 171.384 228.586C171.384 228.292 171.147 228.055 170.855 228.055C170.563 228.055 170.326 228.292 170.326 228.586C170.326 228.879 170.563 229.117 170.855 229.117Z" fill="#FEFEFE"/>
<path d="M174.271 229.967C174.563 229.967 174.8 229.729 174.8 229.436C174.8 229.142 174.563 228.905 174.271 228.905C173.979 228.905 173.742 229.142 173.742 229.436C173.742 229.729 173.979 229.967 174.271 229.967Z" fill="#FEFEFE"/>
<path d="M171.988 230.483C172.239 230.483 172.442 230.279 172.442 230.027C172.442 229.776 172.239 229.572 171.988 229.572C171.738 229.572 171.535 229.776 171.535 230.027C171.535 230.279 171.738 230.483 171.988 230.483Z" fill="#FEFEFE"/>
<path d="M173.515 231.059C173.766 231.059 173.969 230.856 173.969 230.604C173.969 230.353 173.766 230.149 173.515 230.149C173.265 230.149 173.062 230.353 173.062 230.604C173.062 230.856 173.265 231.059 173.515 231.059Z" fill="#FEFEFE"/>
<path d="M170.114 230.209C170.364 230.209 170.567 230.006 170.567 229.754C170.567 229.503 170.364 229.299 170.114 229.299C169.863 229.299 169.66 229.503 169.66 229.754C169.66 230.006 169.863 230.209 170.114 230.209Z" fill="#FEFEFE"/>
<path d="M171.157 231.226C171.366 231.226 171.535 231.056 171.535 230.847C171.535 230.637 171.366 230.467 171.157 230.467C170.948 230.467 170.779 230.637 170.779 230.847C170.779 231.056 170.948 231.226 171.157 231.226Z" fill="#FEFEFE"/>
<path d="M171.807 232.274C171.991 232.274 172.139 232.124 172.139 231.94C172.139 231.755 171.991 231.606 171.807 231.606C171.623 231.606 171.474 231.755 171.474 231.94C171.474 232.124 171.623 232.274 171.807 232.274Z" fill="#FEFEFE"/>
<path d="M171.006 232.486C171.156 232.486 171.278 232.364 171.278 232.213C171.278 232.062 171.156 231.94 171.006 231.94C170.856 231.94 170.734 232.062 170.734 232.213C170.734 232.364 170.856 232.486 171.006 232.486Z" fill="#FEFEFE"/>
<path d="M170.295 231.697C170.479 231.697 170.628 231.547 170.628 231.363C170.628 231.178 170.479 231.029 170.295 231.029C170.112 231.029 169.963 231.178 169.963 231.363C169.963 231.547 170.112 231.697 170.295 231.697Z" fill="#FEFEFE"/>
<path d="M169.268 230.968C169.476 230.968 169.645 230.798 169.645 230.589C169.645 230.379 169.476 230.21 169.268 230.21C169.059 230.21 168.89 230.379 168.89 230.589C168.89 230.798 169.059 230.968 169.268 230.968Z" fill="#FEFEFE"/>
<path d="M169.252 228.115C169.461 228.115 169.63 227.945 169.63 227.736C169.63 227.526 169.461 227.356 169.252 227.356C169.044 227.356 168.874 227.526 168.874 227.736C168.874 227.945 169.044 228.115 169.252 228.115Z" fill="#FEFEFE"/>
<path d="M169.419 226.78C169.602 226.78 169.751 226.63 169.751 226.446C169.751 226.262 169.602 226.112 169.419 226.112C169.235 226.112 169.086 226.262 169.086 226.446C169.086 226.63 169.235 226.78 169.419 226.78Z" fill="#FEFEFE"/>
<path d="M169.781 225.687C169.932 225.687 170.054 225.565 170.054 225.414C170.054 225.263 169.932 225.141 169.781 225.141C169.631 225.141 169.509 225.263 169.509 225.414C169.509 225.565 169.631 225.687 169.781 225.687Z" fill="#FEFEFE"/>
<path d="M169.147 225.171C169.33 225.171 169.479 225.022 169.479 224.838C169.479 224.653 169.33 224.504 169.147 224.504C168.963 224.504 168.814 224.653 168.814 224.838C168.814 225.022 168.963 225.171 169.147 225.171Z" fill="#FEFEFE"/>
<path d="M172.669 231.803C172.877 231.803 173.046 231.633 173.046 231.424C173.046 231.214 172.877 231.044 172.669 231.044C172.46 231.044 172.291 231.214 172.291 231.424C172.291 231.633 172.46 231.803 172.669 231.803Z" fill="#FEFEFE"/>
<path d="M168.285 224.731C168.494 224.731 168.663 224.561 168.663 224.352C168.663 224.142 168.494 223.972 168.285 223.972C168.076 223.972 167.907 224.142 167.907 224.352C167.907 224.561 168.076 224.731 168.285 224.731Z" fill="#FEFEFE"/>
<path d="M168.542 226.34C168.751 226.34 168.92 226.17 168.92 225.96C168.92 225.751 168.751 225.581 168.542 225.581C168.333 225.581 168.164 225.751 168.164 225.96C168.164 226.17 168.333 226.34 168.542 226.34Z" fill="#FEFEFE"/>
<path d="M168.119 227.872C168.369 227.872 168.572 227.669 168.572 227.417C168.572 227.166 168.369 226.962 168.119 226.962C167.868 226.962 167.665 227.166 167.665 227.417C167.665 227.669 167.868 227.872 168.119 227.872Z" fill="#FEFEFE"/>
<path d="M166.743 227.872C167.035 227.872 167.272 227.635 167.272 227.341C167.272 227.048 167.035 226.81 166.743 226.81C166.451 226.81 166.214 227.048 166.214 227.341C166.214 227.635 166.451 227.872 166.743 227.872Z" fill="#FEFEFE"/>
<path d="M165.141 228.237C165.475 228.237 165.746 227.965 165.746 227.63C165.746 227.295 165.475 227.023 165.141 227.023C164.807 227.023 164.536 227.295 164.536 227.63C164.536 227.965 164.807 228.237 165.141 228.237Z" fill="#FEFEFE"/>
<path d="M163.388 229.102C163.78 229.102 164.098 228.783 164.098 228.389C164.098 227.995 163.78 227.675 163.388 227.675C162.995 227.675 162.677 227.995 162.677 228.389C162.677 228.783 162.995 229.102 163.388 229.102Z" fill="#FEFEFE"/>
<path d="M161.574 230.559C162.041 230.559 162.42 230.178 162.42 229.709C162.42 229.239 162.041 228.859 161.574 228.859C161.106 228.859 160.727 229.239 160.727 229.709C160.727 230.178 161.106 230.559 161.574 230.559Z" fill="#FEFEFE"/>
<path d="M162.677 227.326C163.07 227.326 163.388 227.007 163.388 226.613C163.388 226.219 163.07 225.9 162.677 225.9C162.285 225.9 161.967 226.219 161.967 226.613C161.967 227.007 162.285 227.326 162.677 227.326Z" fill="#FEFEFE"/>
<path d="M164.43 226.461C164.764 226.461 165.035 226.189 165.035 225.854C165.035 225.519 164.764 225.247 164.43 225.247C164.097 225.247 163.826 225.519 163.826 225.854C163.826 226.189 164.097 226.461 164.43 226.461Z" fill="#FEFEFE"/>
<path d="M164.173 224.853C164.507 224.853 164.778 224.581 164.778 224.246C164.778 223.91 164.507 223.639 164.173 223.639C163.84 223.639 163.569 223.91 163.569 224.246C163.569 224.581 163.84 224.853 164.173 224.853Z" fill="#FEFEFE"/>
<path d="M165.776 224.488C166.068 224.488 166.305 224.251 166.305 223.957C166.305 223.664 166.068 223.426 165.776 223.426C165.484 223.426 165.247 223.664 165.247 223.957C165.247 224.251 165.484 224.488 165.776 224.488Z" fill="#FEFEFE"/>
<path d="M167.151 224.488C167.402 224.488 167.605 224.285 167.605 224.033C167.605 223.782 167.402 223.578 167.151 223.578C166.901 223.578 166.698 223.782 166.698 224.033C166.698 224.285 166.901 224.488 167.151 224.488Z" fill="#FEFEFE"/>
<path d="M167.408 226.097C167.659 226.097 167.862 225.893 167.862 225.642C167.862 225.39 167.659 225.186 167.408 225.186C167.158 225.186 166.955 225.39 166.955 225.642C166.955 225.893 167.158 226.097 167.408 226.097Z" fill="#FEFEFE"/>
<path d="M166.033 226.112C166.325 226.112 166.562 225.874 166.562 225.581C166.562 225.288 166.325 225.05 166.033 225.05C165.741 225.05 165.504 225.288 165.504 225.581C165.504 225.874 165.741 226.112 166.033 226.112Z" fill="#FEFEFE"/>
<path d="M164.536 230.149C164.687 230.149 164.808 230.027 164.808 229.876C164.808 229.725 164.687 229.603 164.536 229.603C164.386 229.603 164.264 229.725 164.264 229.876C164.264 230.027 164.386 230.149 164.536 230.149Z" fill="#FEFEFE"/>
<path d="M165.625 230.012C165.808 230.012 165.957 229.863 165.957 229.678C165.957 229.494 165.808 229.345 165.625 229.345C165.441 229.345 165.292 229.494 165.292 229.678C165.292 229.863 165.441 230.012 165.625 230.012Z" fill="#FEFEFE"/>
<path d="M166.819 229.557C167.027 229.557 167.197 229.387 167.197 229.178C167.197 228.968 167.027 228.798 166.819 228.798C166.61 228.798 166.441 228.968 166.441 229.178C166.441 229.387 166.61 229.557 166.819 229.557Z" fill="#FEFEFE"/>
<path d="M167.106 230.771C167.356 230.771 167.559 230.567 167.559 230.316C167.559 230.064 167.356 229.861 167.106 229.861C166.855 229.861 166.652 230.064 166.652 230.316C166.652 230.567 166.855 230.771 167.106 230.771Z" fill="#FEFEFE"/>
<path d="M165.655 231.059C165.864 231.059 166.033 230.889 166.033 230.68C166.033 230.47 165.864 230.301 165.655 230.301C165.446 230.301 165.277 230.47 165.277 230.68C165.277 230.889 165.446 231.059 165.655 231.059Z" fill="#FEFEFE"/>
<path d="M164.37 231.044C164.554 231.044 164.703 230.895 164.703 230.71C164.703 230.526 164.554 230.376 164.37 230.376C164.186 230.376 164.037 230.526 164.037 230.71C164.037 230.895 164.186 231.044 164.37 231.044Z" fill="#FEFEFE"/>
<path d="M164.385 232.091C164.594 232.091 164.763 231.921 164.763 231.712C164.763 231.502 164.594 231.332 164.385 231.332C164.176 231.332 164.007 231.502 164.007 231.712C164.007 231.921 164.176 232.091 164.385 232.091Z" fill="#FEFEFE"/>
<path d="M165.927 232.289C166.177 232.289 166.38 232.085 166.38 231.833C166.38 231.582 166.177 231.378 165.927 231.378C165.676 231.378 165.473 231.582 165.473 231.833C165.473 232.085 165.676 232.289 165.927 232.289Z" fill="#FEFEFE"/>
<path d="M167.726 232.091C168.018 232.091 168.255 231.853 168.255 231.56C168.255 231.267 168.018 231.029 167.726 231.029C167.434 231.029 167.197 231.267 167.197 231.56C167.197 231.853 167.434 232.091 167.726 232.091Z" fill="#FEFEFE"/>
<path d="M168.784 233.411C169.118 233.411 169.388 233.14 169.388 232.804C169.388 232.469 169.118 232.197 168.784 232.197C168.45 232.197 168.179 232.469 168.179 232.804C168.179 233.14 168.45 233.411 168.784 233.411Z" fill="#FEFEFE"/>
<path d="M166.562 233.594C166.854 233.594 167.091 233.356 167.091 233.063C167.091 232.769 166.854 232.531 166.562 232.531C166.27 232.531 166.033 232.769 166.033 233.063C166.033 233.356 166.27 233.594 166.562 233.594Z" fill="#FEFEFE"/>
<path d="M165.307 234.625C165.599 234.625 165.836 234.388 165.836 234.094C165.836 233.801 165.599 233.563 165.307 233.563C165.015 233.563 164.778 233.801 164.778 234.094C164.778 234.388 165.015 234.625 165.307 234.625Z" fill="#FEFEFE"/>
<path d="M166.35 235.961C166.684 235.961 166.955 235.689 166.955 235.354C166.955 235.019 166.684 234.747 166.35 234.747C166.016 234.747 165.746 235.019 165.746 235.354C165.746 235.689 166.016 235.961 166.35 235.961Z" fill="#FEFEFE"/>
<path d="M169.132 236.204C169.524 236.204 169.842 235.885 169.842 235.491C169.842 235.097 169.524 234.778 169.132 234.778C168.739 234.778 168.421 235.097 168.421 235.491C168.421 235.885 168.739 236.204 169.132 236.204Z" fill="#FEFEFE"/>
<path d="M167.605 234.929C167.939 234.929 168.209 234.657 168.209 234.322C168.209 233.987 167.939 233.715 167.605 233.715C167.271 233.715 167 233.987 167 234.322C167 234.657 167.271 234.929 167.605 234.929Z" fill="#FEFEFE"/>
<path d="M170.295 234.686C170.688 234.686 171.006 234.367 171.006 233.973C171.006 233.579 170.688 233.26 170.295 233.26C169.903 233.26 169.585 233.579 169.585 233.973C169.585 234.367 169.903 234.686 170.295 234.686Z" fill="#FEFEFE"/>
<path d="M164.672 233.321C164.923 233.321 165.126 233.117 165.126 232.865C165.126 232.614 164.923 232.41 164.672 232.41C164.422 232.41 164.219 232.614 164.219 232.865C164.219 233.117 164.422 233.321 164.672 233.321Z" fill="#FEFEFE"/>
<path d="M505.521 225.896V231.216H506.418V225.896H505.521ZM510.126 227.142C509.442 227.142 508.925 227.385 508.636 227.948V227.173H507.762V231.216H508.636V229.065C508.697 228.434 509.115 227.971 509.784 227.963C510.392 227.963 510.757 228.336 510.757 228.944V231.216H511.631V228.7C511.631 227.735 511.068 227.142 510.126 227.142ZM515.105 228.191L515.425 227.545C515.06 227.287 514.52 227.135 514.011 227.135C513.235 227.135 512.521 227.484 512.521 228.305C512.513 229.765 514.642 229.301 514.642 230.129C514.642 230.434 514.353 230.563 513.98 230.563C513.539 230.563 512.977 230.373 512.627 230.061L512.316 230.684C512.719 231.049 513.349 231.247 513.942 231.247C514.756 231.247 515.493 230.874 515.493 230.046C515.501 228.579 513.349 228.982 513.349 228.237C513.349 227.948 513.6 227.834 513.942 227.834C514.3 227.834 514.748 227.971 515.105 228.191ZM518.44 230.289C518.205 230.403 518.015 230.464 517.832 230.464C517.558 230.464 517.399 230.335 517.399 229.917V227.978H518.592V227.325H517.399V226.215H516.532V227.325H515.962V227.978H516.532V230.076C516.532 230.905 517.057 231.254 517.665 231.254C518.007 231.254 518.341 231.148 518.661 230.958L518.44 230.289ZM522.752 231.216L522.744 228.564C522.737 227.674 522.151 227.142 521.11 227.142C520.342 227.142 519.932 227.317 519.369 227.651L519.727 228.26C520.129 227.986 520.532 227.849 520.92 227.849C521.558 227.849 521.885 228.153 521.885 228.662V228.784H520.661C519.689 228.792 519.134 229.263 519.134 230C519.134 230.715 519.681 231.254 520.555 231.254C521.14 231.254 521.604 231.08 521.893 230.722V231.216H522.752ZM520.738 230.563C520.251 230.563 519.955 230.327 519.955 229.962C519.955 229.575 520.221 229.423 520.791 229.423H521.885V229.795C521.84 230.236 521.361 230.563 520.738 230.563ZM523.96 225.576V231.216H524.834V225.576H523.96ZM526.202 225.576V231.216H527.076V225.576H526.202Z" fill="#648FF0"/>
<path d="M505.521 180.396V185.717H506.418V180.396H505.521ZM510.126 181.642C509.442 181.642 508.925 181.886 508.636 182.448V181.673H507.762V185.717H508.636V183.565C508.697 182.935 509.115 182.471 509.784 182.463C510.392 182.463 510.757 182.836 510.757 183.444V185.717H511.631V183.201C511.631 182.235 511.068 181.642 510.126 181.642ZM515.105 182.691L515.425 182.045C515.06 181.787 514.52 181.635 514.011 181.635C513.235 181.635 512.521 181.984 512.521 182.805C512.513 184.265 514.642 183.801 514.642 184.63C514.642 184.934 514.353 185.063 513.98 185.063C513.539 185.063 512.977 184.873 512.627 184.561L512.316 185.185C512.719 185.549 513.349 185.747 513.942 185.747C514.756 185.747 515.493 185.375 515.493 184.546C515.501 183.079 513.349 183.482 513.349 182.737C513.349 182.448 513.6 182.334 513.942 182.334C514.3 182.334 514.748 182.471 515.105 182.691ZM518.44 184.789C518.205 184.903 518.015 184.964 517.832 184.964C517.558 184.964 517.399 184.835 517.399 184.417V182.478H518.592V181.825H517.399V180.715H516.532V181.825H515.962V182.478H516.532V184.576C516.532 185.405 517.057 185.755 517.665 185.755C518.007 185.755 518.341 185.648 518.661 185.458L518.44 184.789ZM522.752 185.717L522.744 183.064C522.737 182.174 522.151 181.642 521.11 181.642C520.342 181.642 519.932 181.817 519.369 182.152L519.727 182.76C520.129 182.486 520.532 182.349 520.92 182.349C521.558 182.349 521.885 182.653 521.885 183.163V183.284H520.661C519.689 183.292 519.134 183.763 519.134 184.5C519.134 185.215 519.681 185.755 520.555 185.755C521.14 185.755 521.604 185.58 521.893 185.223V185.717H522.752ZM520.738 185.063C520.251 185.063 519.955 184.827 519.955 184.462C519.955 184.075 520.221 183.923 520.791 183.923H521.885V184.295C521.84 184.736 521.361 185.063 520.738 185.063ZM523.96 180.076V185.717H524.834V180.076H523.96ZM526.202 180.076V185.717H527.076V180.076H526.202Z" fill="#648FF0"/>
<path d="M190.066 188.02L191.61 183.563H192.389L190.385 188.967H189.754L187.754 183.563H188.529L190.066 188.02ZM194.436 189.041C193.892 189.041 193.449 188.863 193.108 188.507C192.766 188.148 192.595 187.669 192.595 187.07V186.944C192.595 186.546 192.671 186.19 192.822 185.879C192.975 185.564 193.188 185.32 193.46 185.144C193.735 184.966 194.032 184.877 194.351 184.877C194.873 184.877 195.279 185.049 195.568 185.393C195.858 185.736 196.003 186.229 196.003 186.87V187.155H193.282C193.292 187.551 193.407 187.872 193.627 188.117C193.85 188.359 194.132 188.481 194.473 188.481C194.716 188.481 194.921 188.431 195.09 188.332C195.258 188.233 195.405 188.102 195.531 187.939L195.951 188.265C195.614 188.782 195.109 189.041 194.436 189.041ZM194.351 185.441C194.074 185.441 193.841 185.542 193.653 185.745C193.465 185.946 193.349 186.228 193.304 186.591H195.316V186.539C195.296 186.19 195.202 185.921 195.034 185.73C194.866 185.537 194.638 185.441 194.351 185.441ZM198.666 185.567C198.562 185.55 198.449 185.541 198.328 185.541C197.878 185.541 197.572 185.733 197.411 186.116V188.967H196.725V184.951H197.393L197.404 185.415C197.629 185.056 197.948 184.877 198.361 184.877C198.495 184.877 198.596 184.894 198.666 184.929V185.567ZM201.563 187.902C201.563 187.716 201.492 187.572 201.351 187.471C201.213 187.367 200.969 187.278 200.62 187.204C200.274 187.13 199.998 187.04 199.792 186.937C199.589 186.833 199.438 186.709 199.339 186.565C199.243 186.422 199.195 186.251 199.195 186.053C199.195 185.724 199.333 185.446 199.61 185.218C199.89 184.99 200.246 184.877 200.679 184.877C201.135 184.877 201.503 184.994 201.785 185.229C202.07 185.464 202.212 185.765 202.212 186.131H201.522C201.522 185.943 201.441 185.781 201.281 185.645C201.122 185.509 200.922 185.441 200.679 185.441C200.429 185.441 200.234 185.495 200.093 185.604C199.952 185.713 199.881 185.855 199.881 186.031C199.881 186.197 199.947 186.322 200.078 186.406C200.209 186.49 200.445 186.57 200.787 186.647C201.131 186.724 201.409 186.815 201.622 186.922C201.835 187.028 201.992 187.157 202.093 187.308C202.197 187.456 202.249 187.638 202.249 187.853C202.249 188.212 202.106 188.5 201.819 188.718C201.532 188.933 201.159 189.041 200.702 189.041C200.38 189.041 200.095 188.984 199.848 188.87C199.6 188.756 199.406 188.598 199.265 188.395C199.127 188.19 199.057 187.968 199.057 187.731H199.744C199.756 187.961 199.848 188.144 200.019 188.28C200.192 188.414 200.419 188.481 200.702 188.481C200.961 188.481 201.169 188.429 201.325 188.325C201.483 188.218 201.563 188.077 201.563 187.902ZM203.814 188.967H203.127V184.951H203.814V188.967ZM203.071 183.886C203.071 183.774 203.105 183.68 203.172 183.604C203.241 183.527 203.342 183.488 203.476 183.488C203.61 183.488 203.711 183.527 203.78 183.604C203.85 183.68 203.884 183.774 203.884 183.886C203.884 183.997 203.85 184.09 203.78 184.164C203.711 184.238 203.61 184.275 203.476 184.275C203.342 184.275 203.241 184.238 203.172 184.164C203.105 184.09 203.071 183.997 203.071 183.886ZM204.658 186.922C204.658 186.528 204.735 186.174 204.888 185.86C205.044 185.546 205.26 185.303 205.534 185.133C205.811 184.962 206.127 184.877 206.481 184.877C207.027 184.877 207.469 185.066 207.806 185.444C208.145 185.823 208.314 186.327 208.314 186.955V187.003C208.314 187.394 208.239 187.746 208.088 188.057C207.939 188.367 207.725 188.608 207.446 188.781C207.168 188.954 206.849 189.041 206.488 189.041C205.944 189.041 205.502 188.852 205.163 188.473C204.826 188.095 204.658 187.593 204.658 186.97V186.922ZM205.349 187.003C205.349 187.449 205.451 187.806 205.657 188.076C205.864 188.346 206.142 188.481 206.488 188.481C206.837 188.481 207.114 188.344 207.319 188.072C207.525 187.798 207.627 187.414 207.627 186.922C207.627 186.481 207.522 186.125 207.312 185.853C207.104 185.578 206.827 185.441 206.481 185.441C206.142 185.441 205.868 185.576 205.66 185.845C205.453 186.115 205.349 186.501 205.349 187.003ZM209.749 184.951L209.771 185.456C210.078 185.07 210.479 184.877 210.974 184.877C211.822 184.877 212.25 185.355 212.258 186.313V188.967H211.571V186.309C211.569 186.02 211.502 185.806 211.371 185.667C211.242 185.529 211.04 185.459 210.766 185.459C210.543 185.459 210.348 185.519 210.179 185.637C210.011 185.756 209.88 185.912 209.786 186.105V188.967H209.099V184.951H209.749ZM218.345 186.662C218.345 187.466 218.207 188.064 217.933 188.455C217.658 188.845 217.229 189.041 216.645 189.041C216.068 189.041 215.642 188.85 215.364 188.469C215.087 188.086 214.944 187.514 214.934 186.755V185.838C214.934 185.044 215.071 184.453 215.346 184.067C215.621 183.681 216.051 183.488 216.637 183.488C217.219 183.488 217.647 183.675 217.922 184.049C218.196 184.42 218.337 184.994 218.345 185.771V186.662ZM217.658 185.723C217.658 185.141 217.577 184.718 217.413 184.453C217.25 184.186 216.991 184.053 216.637 184.053C216.286 184.053 216.03 184.185 215.869 184.45C215.708 184.715 215.625 185.122 215.621 185.671V186.769C215.621 187.353 215.705 187.785 215.873 188.065C216.044 188.342 216.301 188.481 216.645 188.481C216.984 188.481 217.235 188.349 217.398 188.087C217.564 187.825 217.651 187.412 217.658 186.847V185.723ZM219.234 188.607C219.234 188.488 219.268 188.389 219.338 188.31C219.409 188.231 219.516 188.191 219.657 188.191C219.798 188.191 219.904 188.231 219.976 188.31C220.05 188.389 220.087 188.488 220.087 188.607C220.087 188.721 220.05 188.816 219.976 188.893C219.904 188.969 219.798 189.008 219.657 189.008C219.516 189.008 219.409 188.969 219.338 188.893C219.268 188.816 219.234 188.721 219.234 188.607ZM224.566 183.949L222.327 188.967H221.607L223.838 184.127H220.913V183.563H224.566V183.949ZM225.354 188.607C225.354 188.488 225.389 188.389 225.458 188.31C225.53 188.231 225.636 188.191 225.777 188.191C225.918 188.191 226.025 188.231 226.097 188.31C226.171 188.389 226.208 188.488 226.208 188.607C226.208 188.721 226.171 188.816 226.097 188.893C226.025 188.969 225.918 189.008 225.777 189.008C225.636 189.008 225.53 188.969 225.458 188.893C225.389 188.816 225.354 188.721 225.354 188.607ZM230.586 186.662C230.586 187.466 230.448 188.064 230.174 188.455C229.899 188.845 229.47 189.041 228.886 189.041C228.309 189.041 227.883 188.85 227.605 188.469C227.328 188.086 227.185 187.514 227.175 186.755V185.838C227.175 185.044 227.312 184.453 227.587 184.067C227.862 183.681 228.292 183.488 228.879 183.488C229.46 183.488 229.888 183.675 230.163 184.049C230.437 184.42 230.578 184.994 230.586 185.771V186.662ZM229.899 185.723C229.899 185.141 229.818 184.718 229.654 184.453C229.491 184.186 229.232 184.053 228.879 184.053C228.527 184.053 228.271 184.185 228.11 184.45C227.949 184.715 227.866 185.122 227.862 185.671V186.769C227.862 187.353 227.946 187.785 228.114 188.065C228.285 188.342 228.542 188.481 228.886 188.481C229.225 188.481 229.476 188.349 229.639 188.087C229.805 187.825 229.892 187.412 229.899 186.847V185.723Z" fill="#898989"/>
<path d="M190.066 234.604L191.61 230.146H192.389L190.385 235.55H189.754L187.754 230.146H188.529L190.066 234.604ZM194.436 235.624C193.892 235.624 193.449 235.446 193.108 235.09C192.766 234.731 192.595 234.252 192.595 233.653V233.527C192.595 233.129 192.671 232.774 192.822 232.462C192.975 232.148 193.188 231.903 193.46 231.727C193.735 231.549 194.032 231.46 194.351 231.46C194.873 231.46 195.279 231.632 195.568 231.976C195.858 232.32 196.003 232.812 196.003 233.453V233.739H193.282C193.292 234.135 193.407 234.455 193.627 234.7C193.85 234.943 194.132 235.064 194.473 235.064C194.716 235.064 194.921 235.014 195.09 234.915C195.258 234.816 195.405 234.685 195.531 234.522L195.951 234.848C195.614 235.366 195.109 235.624 194.436 235.624ZM194.351 232.024C194.074 232.024 193.841 232.125 193.653 232.328C193.465 232.529 193.349 232.811 193.304 233.175H195.316V233.123C195.296 232.774 195.202 232.504 195.034 232.313C194.866 232.12 194.638 232.024 194.351 232.024ZM198.666 232.15C198.562 232.133 198.449 232.124 198.328 232.124C197.878 232.124 197.572 232.316 197.411 232.699V235.55H196.725V231.534H197.393L197.404 231.998C197.629 231.639 197.948 231.46 198.361 231.46C198.495 231.46 198.596 231.477 198.666 231.512V232.15ZM201.563 234.485C201.563 234.299 201.492 234.156 201.351 234.054C201.213 233.95 200.969 233.861 200.62 233.787C200.274 233.713 199.998 233.624 199.792 233.52C199.589 233.416 199.438 233.292 199.339 233.149C199.243 233.005 199.195 232.834 199.195 232.636C199.195 232.307 199.333 232.029 199.61 231.801C199.89 231.574 200.246 231.46 200.679 231.46C201.135 231.46 201.503 231.577 201.785 231.812C202.07 232.047 202.212 232.348 202.212 232.714H201.522C201.522 232.526 201.441 232.364 201.281 232.228C201.122 232.092 200.922 232.024 200.679 232.024C200.429 232.024 200.234 232.078 200.093 232.187C199.952 232.296 199.881 232.438 199.881 232.614C199.881 232.78 199.947 232.905 200.078 232.989C200.209 233.073 200.445 233.154 200.787 233.23C201.131 233.307 201.409 233.399 201.622 233.505C201.835 233.611 201.992 233.74 202.093 233.891C202.197 234.039 202.249 234.221 202.249 234.436C202.249 234.795 202.106 235.084 201.819 235.301C201.532 235.517 201.159 235.624 200.702 235.624C200.38 235.624 200.095 235.567 199.848 235.453C199.6 235.34 199.406 235.181 199.265 234.978C199.127 234.773 199.057 234.552 199.057 234.314H199.744C199.756 234.544 199.848 234.727 200.019 234.863C200.192 234.997 200.419 235.064 200.702 235.064C200.961 235.064 201.169 235.012 201.325 234.908C201.483 234.801 201.563 234.66 201.563 234.485ZM203.814 235.55H203.127V231.534H203.814V235.55ZM203.071 230.469C203.071 230.358 203.105 230.263 203.172 230.187C203.241 230.11 203.342 230.072 203.476 230.072C203.61 230.072 203.711 230.11 203.78 230.187C203.85 230.263 203.884 230.358 203.884 230.469C203.884 230.58 203.85 230.673 203.78 230.747C203.711 230.821 203.61 230.859 203.476 230.859C203.342 230.859 203.241 230.821 203.172 230.747C203.105 230.673 203.071 230.58 203.071 230.469ZM204.658 233.505C204.658 233.111 204.735 232.758 204.888 232.443C205.044 232.129 205.26 231.887 205.534 231.716C205.811 231.545 206.127 231.46 206.481 231.46C207.027 231.46 207.469 231.649 207.806 232.028C208.145 232.406 208.314 232.91 208.314 233.538V233.587C208.314 233.978 208.239 234.329 208.088 234.641C207.939 234.95 207.725 235.191 207.446 235.364C207.168 235.538 206.849 235.624 206.488 235.624C205.944 235.624 205.502 235.435 205.163 235.056C204.826 234.678 204.658 234.177 204.658 233.553V233.505ZM205.349 233.587C205.349 234.032 205.451 234.389 205.657 234.659C205.864 234.929 206.142 235.064 206.488 235.064C206.837 235.064 207.114 234.928 207.319 234.655C207.525 234.381 207.627 233.997 207.627 233.505C207.627 233.064 207.522 232.708 207.312 232.436C207.104 232.161 206.827 232.024 206.481 232.024C206.142 232.024 205.868 232.159 205.66 232.429C205.453 232.698 205.349 233.084 205.349 233.587ZM209.749 231.534L209.771 232.039C210.078 231.653 210.479 231.46 210.974 231.46C211.822 231.46 212.25 231.939 212.258 232.896V235.55H211.571V232.892C211.569 232.603 211.502 232.389 211.371 232.25C211.242 232.112 211.04 232.043 210.766 232.043C210.543 232.043 210.348 232.102 210.179 232.221C210.011 232.339 209.88 232.495 209.786 232.688V235.55H209.099V231.534H209.749ZM218.345 233.245C218.345 234.049 218.207 234.647 217.933 235.038C217.658 235.429 217.229 235.624 216.645 235.624C216.068 235.624 215.642 235.434 215.364 235.053C215.087 234.669 214.944 234.098 214.934 233.338V232.421C214.934 231.627 215.071 231.037 215.346 230.651C215.621 230.265 216.051 230.072 216.637 230.072C217.219 230.072 217.647 230.259 217.922 230.632C218.196 231.003 218.337 231.577 218.345 232.354V233.245ZM217.658 232.306C217.658 231.725 217.577 231.301 217.413 231.037C217.25 230.769 216.991 230.636 216.637 230.636C216.286 230.636 216.03 230.768 215.869 231.033C215.708 231.298 215.625 231.705 215.621 232.254V233.353C215.621 233.937 215.705 234.368 215.873 234.648C216.044 234.925 216.301 235.064 216.645 235.064C216.984 235.064 217.235 234.933 217.398 234.67C217.564 234.408 217.651 233.995 217.658 233.431V232.306ZM219.234 235.19C219.234 235.071 219.268 234.972 219.338 234.893C219.409 234.814 219.516 234.774 219.657 234.774C219.798 234.774 219.904 234.814 219.976 234.893C220.05 234.972 220.087 235.071 220.087 235.19C220.087 235.304 220.05 235.399 219.976 235.476C219.904 235.552 219.798 235.591 219.657 235.591C219.516 235.591 219.409 235.552 219.338 235.476C219.268 235.399 219.234 235.304 219.234 235.19ZM221.392 232.841L221.667 230.146H224.436V230.781H222.25L222.086 232.254C222.351 232.098 222.652 232.02 222.988 232.02C223.481 232.02 223.871 232.184 224.161 232.51C224.45 232.834 224.595 233.274 224.595 233.828C224.595 234.385 224.444 234.824 224.142 235.145C223.843 235.465 223.424 235.624 222.884 235.624C222.407 235.624 222.017 235.492 221.715 235.227C221.413 234.962 221.241 234.596 221.199 234.128H221.849C221.891 234.438 222.001 234.672 222.179 234.83C222.357 234.986 222.592 235.064 222.884 235.064C223.203 235.064 223.453 234.955 223.634 234.737C223.817 234.519 223.909 234.219 223.909 233.835C223.909 233.474 223.81 233.184 223.612 232.967C223.416 232.747 223.155 232.636 222.829 232.636C222.529 232.636 222.294 232.702 222.123 232.833L221.941 232.982L221.392 232.841ZM225.354 235.19C225.354 235.071 225.389 234.972 225.458 234.893C225.53 234.814 225.636 234.774 225.777 234.774C225.918 234.774 226.025 234.814 226.097 234.893C226.171 234.972 226.208 235.071 226.208 235.19C226.208 235.304 226.171 235.399 226.097 235.476C226.025 235.552 225.918 235.591 225.777 235.591C225.636 235.591 225.53 235.552 225.458 235.476C225.389 235.399 225.354 235.304 225.354 235.19ZM230.474 231.556C230.474 231.826 230.403 232.066 230.259 232.276C230.118 232.487 229.926 232.651 229.684 232.77C229.966 232.891 230.189 233.068 230.352 233.301C230.518 233.533 230.601 233.797 230.601 234.091C230.601 234.559 230.442 234.931 230.126 235.209C229.811 235.486 229.397 235.624 228.882 235.624C228.363 235.624 227.946 235.486 227.631 235.209C227.32 234.929 227.164 234.557 227.164 234.091C227.164 233.799 227.243 233.536 227.401 233.301C227.562 233.066 227.784 232.888 228.066 232.766C227.826 232.648 227.636 232.483 227.498 232.273C227.359 232.062 227.29 231.824 227.29 231.556C227.29 231.101 227.436 230.74 227.728 230.473C228.02 230.205 228.405 230.072 228.882 230.072C229.357 230.072 229.741 230.205 230.033 230.473C230.327 230.74 230.474 231.101 230.474 231.556ZM229.914 234.076C229.914 233.775 229.818 233.528 229.625 233.338C229.434 233.147 229.184 233.052 228.875 233.052C228.565 233.052 228.317 233.146 228.129 233.334C227.943 233.522 227.85 233.77 227.85 234.076C227.85 234.383 227.941 234.625 228.121 234.8C228.304 234.976 228.558 235.064 228.882 235.064C229.204 235.064 229.456 234.976 229.639 234.8C229.822 234.622 229.914 234.381 229.914 234.076ZM228.882 230.636C228.613 230.636 228.394 230.72 228.225 230.888C228.059 231.054 227.977 231.28 227.977 231.567C227.977 231.842 228.058 232.065 228.222 232.236C228.387 232.404 228.608 232.488 228.882 232.488C229.157 232.488 229.376 232.404 229.539 232.236C229.705 232.065 229.788 231.842 229.788 231.567C229.788 231.293 229.702 231.069 229.532 230.896C229.361 230.722 229.144 230.636 228.882 230.636Z" fill="#898989"/>
<path d="M271.522 182.681H272.038C272.362 182.676 272.617 182.59 272.802 182.424C272.988 182.259 273.081 182.035 273.081 181.753C273.081 181.119 272.765 180.803 272.134 180.803C271.837 180.803 271.6 180.888 271.422 181.059C271.246 181.227 271.158 181.451 271.158 181.73H270.471C270.471 181.302 270.627 180.947 270.939 180.665C271.253 180.381 271.652 180.238 272.134 180.238C272.644 180.238 273.044 180.373 273.333 180.643C273.623 180.913 273.767 181.287 273.767 181.768C273.767 182.003 273.691 182.23 273.537 182.45C273.386 182.671 273.18 182.835 272.917 182.944C273.214 183.038 273.443 183.194 273.604 183.412C273.767 183.629 273.849 183.895 273.849 184.21C273.849 184.695 273.691 185.079 273.374 185.364C273.057 185.649 272.645 185.791 272.138 185.791C271.631 185.791 271.217 185.654 270.898 185.379C270.582 185.104 270.423 184.742 270.423 184.291H271.114C271.114 184.576 271.206 184.804 271.392 184.974C271.578 185.145 271.826 185.23 272.138 185.23C272.47 185.23 272.723 185.144 272.899 184.971C273.075 184.797 273.162 184.549 273.162 184.225C273.162 183.91 273.066 183.669 272.873 183.501C272.68 183.333 272.401 183.246 272.038 183.241H271.522V182.681ZM278.104 183.412C278.104 184.216 277.967 184.813 277.692 185.204C277.418 185.595 276.988 185.791 276.404 185.791C275.828 185.791 275.401 185.6 275.124 185.219C274.847 184.836 274.703 184.264 274.693 183.505V182.588C274.693 181.793 274.831 181.203 275.105 180.817C275.38 180.431 275.811 180.238 276.397 180.238C276.979 180.238 277.407 180.425 277.681 180.799C277.956 181.17 278.097 181.744 278.104 182.521V183.412ZM277.418 182.473C277.418 181.891 277.336 181.468 277.173 181.203C277.009 180.936 276.751 180.803 276.397 180.803C276.046 180.803 275.79 180.935 275.629 181.2C275.468 181.464 275.385 181.871 275.38 182.421V183.519C275.38 184.103 275.464 184.535 275.632 184.815C275.803 185.092 276.061 185.23 276.404 185.23C276.743 185.23 276.995 185.099 277.158 184.837C277.324 184.575 277.41 184.161 277.418 183.597V182.473ZM282.269 183.204L281.608 183.891V185.717H280.896V180.313H281.608V182.985L284.01 180.313H284.871L282.744 182.699L285.038 185.717H284.184L282.269 183.204ZM288.877 183.753C288.877 184.367 288.736 184.86 288.454 185.234C288.172 185.605 287.794 185.791 287.319 185.791C286.811 185.791 286.419 185.611 286.142 185.253L286.109 185.717H285.478V180.016H286.164V182.142C286.441 181.798 286.824 181.626 287.311 181.626C287.799 181.626 288.181 181.811 288.458 182.179C288.738 182.548 288.877 183.053 288.877 183.694V183.753ZM288.191 183.675C288.191 183.208 288.1 182.846 287.92 182.591C287.739 182.337 287.479 182.209 287.14 182.209C286.688 182.209 286.362 182.42 286.164 182.84V184.577C286.375 184.998 286.702 185.208 287.148 185.208C287.477 185.208 287.733 185.081 287.916 184.826C288.099 184.571 288.191 184.187 288.191 183.675Z" fill="#898989"/>
<path d="M274.064 231.216H270.523V230.723L272.394 228.644C272.671 228.33 272.862 228.075 272.966 227.88C273.072 227.682 273.125 227.478 273.125 227.267C273.125 226.985 273.04 226.754 272.869 226.573C272.698 226.393 272.471 226.302 272.186 226.302C271.845 226.302 271.579 226.4 271.388 226.596C271.2 226.789 271.106 227.058 271.106 227.405H270.42C270.42 226.907 270.579 226.505 270.898 226.198C271.22 225.892 271.649 225.738 272.186 225.738C272.689 225.738 273.086 225.871 273.378 226.135C273.67 226.398 273.816 226.748 273.816 227.186C273.816 227.718 273.477 228.351 272.799 229.086L271.351 230.656H274.064V231.216ZM277.993 227.223C277.993 227.493 277.921 227.733 277.778 227.943C277.637 228.153 277.445 228.318 277.202 228.437C277.485 228.558 277.707 228.735 277.871 228.967C278.036 229.2 278.119 229.463 278.119 229.758C278.119 230.225 277.961 230.598 277.644 230.875C277.33 231.152 276.915 231.291 276.401 231.291C275.881 231.291 275.464 231.152 275.15 230.875C274.838 230.595 274.682 230.223 274.682 229.758C274.682 229.466 274.761 229.202 274.92 228.967C275.081 228.732 275.302 228.554 275.584 228.433C275.344 228.314 275.155 228.149 275.016 227.939C274.878 227.729 274.809 227.49 274.809 227.223C274.809 226.768 274.954 226.406 275.246 226.139C275.538 225.872 275.923 225.738 276.401 225.738C276.876 225.738 277.259 225.872 277.551 226.139C277.846 226.406 277.993 226.768 277.993 227.223ZM277.433 229.743C277.433 229.441 277.336 229.195 277.143 229.004C276.953 228.814 276.703 228.719 276.393 228.719C276.084 228.719 275.835 228.813 275.647 229.001C275.462 229.189 275.369 229.436 275.369 229.743C275.369 230.05 275.459 230.291 275.64 230.467C275.823 230.642 276.077 230.73 276.401 230.73C276.722 230.73 276.975 230.642 277.158 230.467C277.341 230.289 277.433 230.047 277.433 229.743ZM276.401 226.302C276.131 226.302 275.912 226.386 275.744 226.555C275.578 226.721 275.495 226.947 275.495 227.234C275.495 227.509 275.577 227.731 275.74 227.902C275.906 228.07 276.126 228.154 276.401 228.154C276.675 228.154 276.894 228.07 277.058 227.902C277.223 227.731 277.306 227.509 277.306 227.234C277.306 226.959 277.221 226.735 277.05 226.562C276.88 226.389 276.663 226.302 276.401 226.302ZM282.269 228.704L281.608 229.39V231.216H280.896V225.812H281.608V228.485L284.01 225.812H284.871L282.744 228.199L285.038 231.216H284.184L282.269 228.704ZM288.877 229.253C288.877 229.867 288.736 230.36 288.454 230.734C288.172 231.105 287.794 231.291 287.319 231.291C286.811 231.291 286.419 231.111 286.142 230.753L286.109 231.216H285.478V225.516H286.164V227.642C286.441 227.298 286.824 227.126 287.311 227.126C287.799 227.126 288.181 227.311 288.458 227.679C288.738 228.048 288.877 228.553 288.877 229.194V229.253ZM288.191 229.175C288.191 228.707 288.1 228.346 287.92 228.091C287.739 227.836 287.479 227.709 287.14 227.709C286.688 227.709 286.362 227.919 286.164 228.34V230.077C286.375 230.498 286.702 230.708 287.148 230.708C287.477 230.708 287.733 230.581 287.916 230.326C288.099 230.071 288.191 229.687 288.191 229.175Z" fill="#898989"/>
<path d="M422.018 141.833L422.481 140.837C421.949 140.488 421.204 140.26 420.459 140.26C419.228 140.26 418.399 140.868 418.399 141.833C418.399 143.718 421.235 143.133 421.235 144.136C421.235 144.463 420.938 144.645 420.444 144.645C419.882 144.645 419.106 144.334 418.559 143.847L418.08 144.828C418.681 145.337 419.555 145.672 420.429 145.672C421.607 145.672 422.512 145.109 422.512 144.068C422.519 142.152 419.684 142.7 419.684 141.719C419.684 141.43 419.958 141.286 420.361 141.286C420.786 141.286 421.455 141.499 422.018 141.833ZM425.953 141.499C425.314 141.506 424.828 141.757 424.539 142.266V139.993H423.369V145.634H424.539V143.619C424.539 143.019 424.896 142.578 425.482 142.57C425.983 142.57 426.287 142.89 426.287 143.406V145.634H427.458V143.064C427.458 142.107 426.873 141.499 425.953 141.499ZM430.307 141.506C428.992 141.506 428.11 142.335 428.11 143.589C428.11 144.835 428.992 145.679 430.307 145.679C431.614 145.679 432.496 144.835 432.496 143.589C432.496 142.335 431.614 141.506 430.307 141.506ZM430.307 142.479C430.908 142.479 431.326 142.935 431.326 143.604C431.326 144.273 430.908 144.729 430.307 144.729C429.699 144.729 429.288 144.273 429.288 143.604C429.288 142.935 429.699 142.479 430.307 142.479ZM432.551 141.552L434.049 145.634H435.219L436.093 142.935L436.975 145.634H438.146L439.636 141.544H438.48L437.583 144.471L436.686 141.544H435.538L434.657 144.471L433.745 141.544L432.551 141.552Z" fill="#898989"/>
<path d="M445.937 145.634H447.222L444.949 140.313H443.71L441.399 145.634H442.639L443.057 144.6H445.519L445.937 145.634ZM443.452 143.634L444.296 141.567L445.132 143.634H443.452ZM447.791 139.993V145.634H448.961V139.993H447.791ZM450.173 139.993V145.634H451.344V139.993H450.173Z" fill="#648FF0"/>
<path d="M174.981 139.902C174.693 139.902 174.472 140.123 174.472 140.434C174.472 140.738 174.693 140.959 174.981 140.959C175.27 140.959 175.491 140.738 175.491 140.434C175.491 140.123 175.27 139.902 174.981 139.902ZM174.548 141.59V145.634H175.415V141.59H174.548ZM178.441 141.559C177.187 141.559 176.328 142.388 176.328 143.612C176.328 144.828 177.187 145.664 178.441 145.664C179.688 145.664 180.547 144.828 180.547 143.612C180.547 142.388 179.688 141.559 178.441 141.559ZM178.441 142.312C179.163 142.312 179.673 142.844 179.673 143.619C179.673 144.402 179.163 144.934 178.441 144.934C177.712 144.934 177.202 144.402 177.202 143.619C177.202 142.844 177.712 142.312 178.441 142.312ZM183.527 144.706C183.291 144.82 183.101 144.881 182.918 144.881C182.645 144.881 182.485 144.752 182.485 144.334V142.395H183.679V141.742H182.485V140.632H181.619V141.742H181.049V142.395H181.619V144.493C181.619 145.322 182.143 145.672 182.751 145.672C183.093 145.672 183.428 145.565 183.747 145.375L183.527 144.706ZM187.838 145.634L187.831 142.981C187.823 142.091 187.238 141.559 186.196 141.559C185.429 141.559 185.018 141.734 184.456 142.069L184.813 142.677C185.216 142.403 185.619 142.266 186.006 142.266C186.645 142.266 186.972 142.57 186.972 143.08V143.201H185.748C184.775 143.209 184.22 143.68 184.22 144.417C184.22 145.132 184.767 145.672 185.641 145.672C186.227 145.672 186.69 145.497 186.979 145.14V145.634H187.838ZM185.824 144.98C185.337 144.98 185.041 144.744 185.041 144.379C185.041 143.992 185.307 143.84 185.877 143.84H186.972V144.212C186.926 144.653 186.447 144.98 185.824 144.98Z" fill="#FEFEFE"/>
<path d="M159.688 117.383H161.157L158.559 111.302H157.143L154.502 117.383H155.918L156.396 116.202H159.211L159.688 117.383ZM156.848 115.099L157.812 112.736L158.768 115.099H156.848ZM164.621 112.666C163.987 112.666 163.474 112.927 163.144 113.396V112.71H161.806V119.069H163.144V116.706C163.483 117.175 163.995 117.436 164.647 117.436C165.959 117.436 166.819 116.489 166.819 115.073C166.819 113.631 165.933 112.666 164.621 112.666ZM164.308 116.324C163.622 116.324 163.144 115.802 163.144 115.029C163.144 114.273 163.622 113.744 164.308 113.744C164.994 113.744 165.464 114.282 165.464 115.029C165.464 115.794 164.994 116.324 164.308 116.324ZM170.559 112.666C169.925 112.666 169.413 112.927 169.083 113.396V112.71H167.745V119.069H169.083V116.706C169.421 117.175 169.934 117.436 170.585 117.436C171.897 117.436 172.757 116.489 172.757 115.073C172.757 113.631 171.871 112.666 170.559 112.666ZM170.247 116.324C169.56 116.324 169.083 115.802 169.083 115.029C169.083 114.273 169.56 113.744 170.247 113.744C170.933 113.744 171.402 114.282 171.402 115.029C171.402 115.794 170.933 116.324 170.247 116.324ZM178.854 114.299L179.757 113.648C179.34 113.022 178.628 112.666 177.733 112.666C176.3 112.666 175.336 113.631 175.336 115.064C175.336 116.48 176.3 117.436 177.716 117.436C178.671 117.436 179.401 117.053 179.792 116.402L178.871 115.776C178.637 116.141 178.263 116.324 177.785 116.324C177.134 116.324 176.673 115.811 176.673 115.055C176.673 114.308 177.134 113.804 177.785 113.804C178.246 113.796 178.602 113.987 178.854 114.299ZM184.534 117.383L184.525 114.334C184.516 113.283 183.795 112.658 182.544 112.658C181.728 112.658 181.128 112.849 180.433 113.196L180.85 114.117C181.337 113.848 181.823 113.709 182.24 113.709C182.883 113.709 183.213 113.995 183.213 114.491V114.577H181.927C180.781 114.586 180.147 115.107 180.147 115.985C180.147 116.836 180.755 117.444 181.754 117.444C182.405 117.444 182.909 117.227 183.222 116.836V117.383H184.534ZM182.127 116.489C181.676 116.489 181.398 116.254 181.398 115.898C181.398 115.524 181.649 115.368 182.162 115.368H183.213V115.785C183.135 116.185 182.692 116.489 182.127 116.489ZM188.301 116.141C188.058 116.254 187.85 116.315 187.676 116.315C187.389 116.324 187.224 116.167 187.224 115.776V113.848H188.492V112.918H187.224V111.633H185.895V112.918H185.243V113.839H185.895V116.002C185.895 116.966 186.529 117.444 187.363 117.444C187.797 117.444 188.232 117.323 188.579 117.123L188.301 116.141ZM193.407 117.383L193.399 114.334C193.39 113.283 192.669 112.658 191.418 112.658C190.601 112.658 190.002 112.849 189.307 113.196L189.724 114.117C190.211 113.848 190.697 113.709 191.114 113.709C191.757 113.709 192.087 113.995 192.087 114.491V114.577H190.801C189.655 114.586 189.02 115.107 189.02 115.985C189.02 116.836 189.628 117.444 190.627 117.444C191.279 117.444 191.783 117.227 192.096 116.836V117.383H193.407ZM191.001 116.489C190.549 116.489 190.271 116.254 190.271 115.898C190.271 115.524 190.523 115.368 191.036 115.368H192.087V115.785C192.009 116.185 191.566 116.489 191.001 116.489ZM194.604 110.938V117.383H195.941V110.938H194.604ZM199.394 112.666C197.892 112.666 196.884 113.613 196.884 115.047C196.884 116.471 197.892 117.436 199.394 117.436C200.889 117.436 201.896 116.471 201.896 115.047C201.896 113.613 200.889 112.666 199.394 112.666ZM199.394 113.778C200.081 113.778 200.558 114.299 200.558 115.064C200.558 115.828 200.081 116.35 199.394 116.35C198.699 116.35 198.23 115.828 198.23 115.064C198.23 114.299 198.699 113.778 199.394 113.778ZM205.83 112.71V113.344C205.509 112.91 205.022 112.658 204.388 112.666C203.198 112.666 202.381 113.561 202.381 114.882C202.381 116.237 203.215 117.14 204.423 117.14C205.039 117.14 205.517 116.897 205.83 116.463V116.993C205.83 117.627 205.343 118.035 204.579 118.035C204.049 118.035 203.554 117.87 203.128 117.566L202.633 118.504C203.172 118.869 203.875 119.121 204.666 119.121C206.16 119.121 207.159 118.278 207.159 116.949V112.71H205.83ZM204.735 116.124C204.075 116.124 203.641 115.629 203.632 114.916C203.641 114.204 204.084 113.7 204.735 113.7C205.387 113.7 205.83 114.195 205.83 114.916C205.83 115.629 205.387 116.124 204.735 116.124Z" fill="#FEFEFE"/>
<path d="M186.428 173.888V179.216H187.819V173.888H186.428ZM191.242 173.85C189.593 173.85 188.361 174.998 188.361 176.548C188.361 178.107 189.593 179.277 191.242 179.277C192.892 179.277 194.123 178.107 194.123 176.548C194.123 175.005 192.892 173.85 191.242 173.85ZM191.257 175.036C192.056 175.036 192.694 175.689 192.694 176.556C192.694 177.422 192.056 178.091 191.257 178.091C190.467 178.091 189.79 177.422 189.79 176.556C189.79 175.689 190.459 175.036 191.257 175.036ZM194.019 173.888V175.036H195.6V179.216H196.991V175.036H198.587V173.888H194.019ZM202.335 179.216H203.817L201.583 173.888H200.154L197.866 179.216H199.295L199.667 178.274H201.97L202.335 179.216ZM200.085 177.21L200.83 175.309L201.56 177.21H200.085ZM207.876 173.576H206.66C206.029 174.473 205.687 175.636 205.687 176.868C205.687 178.099 206.029 179.262 206.66 180.159H207.876C207.321 179.262 206.956 178.099 206.956 176.868C206.956 175.636 207.321 174.473 207.876 173.576ZM208.238 173.888V179.216H209.477V175.841L210.716 178.684H211.628L212.867 175.841L212.875 179.216H214.106V173.888H212.586L211.172 176.997L209.758 173.888H208.238ZM214.99 173.888V179.216H216.381V173.888H214.99ZM219.804 173.85C218.154 173.85 216.923 174.998 216.923 176.548C216.923 178.107 218.154 179.277 219.804 179.277C221.453 179.277 222.685 178.107 222.685 176.548C222.685 175.005 221.453 173.85 219.804 173.85ZM219.819 175.036C220.617 175.036 221.256 175.689 221.256 176.556C221.256 177.422 220.617 178.091 219.819 178.091C219.028 178.091 218.352 177.422 218.352 176.556C218.352 175.689 219.021 175.036 219.819 175.036ZM222.58 173.888V175.036H224.161V179.216H225.552V175.036H227.149V173.888H222.58ZM230.897 179.216H232.379L230.144 173.888H228.715L226.427 179.216H227.856L228.229 178.274H230.532L230.897 179.216ZM228.647 177.21L229.392 175.309L230.121 177.21H228.647ZM232.527 173.576C233.082 174.473 233.446 175.636 233.446 176.868C233.446 178.099 233.082 179.262 232.527 180.159H233.743C234.374 179.262 234.716 178.099 234.716 176.868C234.716 175.636 234.374 174.473 233.743 173.576H232.527Z" fill="#FEFEFE"/>
<path d="M187.038 219.388V224.716H188.429V219.388H187.038ZM191.852 219.35C190.203 219.35 188.971 220.498 188.971 222.048C188.971 223.606 190.203 224.777 191.852 224.777C193.501 224.777 194.733 223.606 194.733 222.048C194.733 220.505 193.501 219.35 191.852 219.35ZM191.867 220.536C192.665 220.536 193.304 221.189 193.304 222.056C193.304 222.922 192.665 223.591 191.867 223.591C191.077 223.591 190.4 222.922 190.4 222.056C190.4 221.189 191.069 220.536 191.867 220.536ZM194.629 219.388V220.536H196.21V224.716H197.601V220.536H199.197V219.388H194.629ZM202.945 224.716H204.427L202.192 219.388H200.763L198.475 224.716H199.904L200.277 223.774H202.58L202.945 224.716ZM200.695 222.709L201.44 220.809L202.17 222.709H200.695ZM206.357 219.388V224.716H210.006V223.53H207.748V219.388H206.357ZM212.297 220.558C211.013 220.558 210.154 221.402 210.154 222.679C210.154 223.933 210.982 224.762 212.328 224.762C213.088 224.762 213.704 224.503 214.122 224.032L213.415 223.325C213.141 223.599 212.799 223.743 212.449 223.743C211.986 223.743 211.644 223.485 211.514 223.021H214.373C214.464 221.524 213.734 220.558 212.297 220.558ZM211.484 222.299C211.575 221.828 211.864 221.508 212.305 221.508C212.761 221.508 213.065 221.828 213.065 222.299H211.484ZM217.508 220.604V221.106C217.235 220.756 216.824 220.558 216.307 220.558C215.289 220.558 214.582 221.334 214.582 222.504C214.582 223.698 215.312 224.488 216.338 224.488C216.847 224.488 217.242 224.298 217.508 223.948V224.389C217.508 224.868 217.136 225.18 216.52 225.18C216.079 225.18 215.623 225.035 215.251 224.777L214.78 225.712C215.243 226.016 215.897 226.244 216.619 226.244C217.949 226.244 218.854 225.514 218.854 224.351V220.604H217.508ZM216.68 223.5C216.178 223.5 215.844 223.105 215.844 222.542C215.844 221.972 216.178 221.577 216.68 221.577C217.174 221.577 217.508 221.965 217.508 222.542C217.508 223.105 217.174 223.5 216.68 223.5ZM221.548 220.551C220.871 220.551 220.279 220.71 219.632 220.999L220.005 221.911C220.446 221.699 220.894 221.584 221.236 221.584C221.753 221.584 222.019 221.813 222.019 222.2V222.246H220.947C219.929 222.261 219.374 222.709 219.374 223.492C219.374 224.245 219.898 224.777 220.78 224.777C221.335 224.777 221.753 224.595 222.019 224.253V224.716H223.349V222.041C223.342 221.098 222.681 220.551 221.548 220.551ZM221.198 223.857C220.849 223.857 220.643 223.675 220.643 223.394C220.643 223.105 220.833 222.968 221.214 222.968H222.019V223.325C221.936 223.637 221.601 223.857 221.198 223.857ZM226.759 222.101L227.74 221.531C227.383 220.916 226.729 220.558 225.9 220.558C224.623 220.558 223.772 221.402 223.772 222.679C223.772 223.933 224.616 224.762 225.885 224.762C226.759 224.762 227.428 224.405 227.755 223.774L226.759 223.204C226.592 223.523 226.311 223.667 225.954 223.667C225.467 223.667 225.133 223.272 225.133 222.671C225.133 222.079 225.467 221.676 225.954 221.676C226.303 221.676 226.577 221.835 226.759 222.101ZM230.442 225.119L232.206 220.604H230.86L229.986 223.28L229.006 220.604H227.615L229.317 224.617L229.218 224.807C229.112 225.013 228.952 225.119 228.724 225.119C228.527 225.119 228.367 225.051 228.177 224.891L227.615 225.826C227.987 226.115 228.367 226.252 228.831 226.252C229.606 226.252 230.131 225.887 230.442 225.119Z" fill="#FEFEFE"/>
<path d="M233.213 117.383H234.681L232.084 111.302H230.668L228.027 117.383H229.443L229.921 116.202H232.735L233.213 117.383ZM230.372 115.099L231.337 112.736L232.292 115.099H230.372ZM238.146 112.666C237.511 112.666 236.999 112.927 236.669 113.396V112.71H235.331V119.069H236.669V116.706C237.008 117.175 237.52 117.436 238.172 117.436C239.483 117.436 240.343 116.489 240.343 115.073C240.343 113.631 239.457 112.666 238.146 112.666ZM237.833 116.324C237.147 116.324 236.669 115.802 236.669 115.029C236.669 114.273 237.147 113.744 237.833 113.744C238.519 113.744 238.988 114.282 238.988 115.029C238.988 115.794 238.519 116.324 237.833 116.324ZM244.084 112.666C243.45 112.666 242.937 112.927 242.607 113.396V112.71H241.269V119.069H242.607V116.706C242.946 117.175 243.459 117.436 244.11 117.436C245.422 117.436 246.282 116.489 246.282 115.073C246.282 113.631 245.396 112.666 244.084 112.666ZM243.771 116.324C243.085 116.324 242.607 115.802 242.607 115.029C242.607 114.273 243.085 113.744 243.771 113.744C244.458 113.744 244.927 114.282 244.927 115.029C244.927 115.794 244.458 116.324 243.771 116.324ZM250.109 114.082L250.57 113.17C250.049 112.84 249.388 112.649 248.745 112.649C247.729 112.649 246.904 113.144 246.904 114.108C246.904 115.75 249.328 115.351 249.328 116.098C249.328 116.35 249.076 116.463 248.737 116.463C248.224 116.463 247.599 116.254 247.112 115.881L246.678 116.784C247.208 117.21 247.946 117.436 248.702 117.436C249.762 117.436 250.605 116.932 250.605 115.976C250.613 114.326 248.146 114.682 248.146 113.978C248.146 113.735 248.372 113.631 248.685 113.631C249.076 113.631 249.597 113.796 250.109 114.082ZM254.264 110.625C253.838 110.625 253.543 110.938 253.543 111.372C253.543 111.806 253.838 112.119 254.264 112.119C254.69 112.119 254.985 111.806 254.985 111.372C254.985 110.938 254.69 110.625 254.264 110.625ZM253.595 112.71V117.383H254.933V112.71H253.595ZM259.17 112.658C258.44 112.666 257.884 112.944 257.554 113.526V112.71H256.216V117.383H257.554V115.081C257.554 114.395 257.954 113.891 258.623 113.883C259.196 113.883 259.544 114.247 259.544 114.838V117.383H260.881V114.447C260.881 113.353 260.212 112.658 259.17 112.658ZM264.981 114.082L265.441 113.17C264.92 112.84 264.26 112.649 263.617 112.649C262.601 112.649 261.775 113.144 261.775 114.108C261.775 115.75 264.199 115.351 264.199 116.098C264.199 116.35 263.947 116.463 263.608 116.463C263.096 116.463 262.47 116.254 261.984 115.881L261.55 116.784C262.08 117.21 262.818 117.436 263.574 117.436C264.634 117.436 265.476 116.932 265.476 115.976C265.485 114.326 263.018 114.682 263.018 113.978C263.018 113.735 263.244 113.631 263.556 113.631C263.947 113.631 264.468 113.796 264.981 114.082ZM268.986 116.141C268.743 116.254 268.534 116.315 268.361 116.315C268.074 116.324 267.909 116.167 267.909 115.776V113.848H269.177V112.918H267.909V111.633H266.58V112.918H265.928V113.839H266.58V116.002C266.58 116.966 267.214 117.444 268.048 117.444C268.482 117.444 268.917 117.323 269.264 117.123L268.986 116.141ZM274.092 117.383L274.083 114.334C274.075 113.283 273.354 112.658 272.103 112.658C271.286 112.658 270.687 112.849 269.992 113.196L270.409 114.117C270.895 113.848 271.382 113.709 271.799 113.709C272.442 113.709 272.772 113.995 272.772 114.491V114.577H271.486C270.339 114.586 269.705 115.107 269.705 115.985C269.705 116.836 270.313 117.444 271.312 117.444C271.964 117.444 272.468 117.227 272.78 116.836V117.383H274.092ZM271.686 116.489C271.234 116.489 270.956 116.254 270.956 115.898C270.956 115.524 271.208 115.368 271.721 115.368H272.772V115.785C272.694 116.185 272.25 116.489 271.686 116.489ZM275.288 110.938V117.383H276.626V110.938H275.288ZM278.012 110.938V117.383H279.349V110.938H278.012ZM282.698 112.666C281.273 112.666 280.292 113.622 280.292 115.064C280.292 116.48 281.239 117.436 282.733 117.436C283.576 117.436 284.262 117.132 284.731 116.61L284.027 115.898C283.706 116.219 283.289 116.393 282.846 116.393C282.246 116.393 281.795 116.046 281.638 115.455H284.992C285.104 113.752 284.34 112.666 282.698 112.666ZM281.612 114.664C281.716 114.048 282.116 113.648 282.707 113.648C283.324 113.648 283.723 114.048 283.741 114.664H281.612ZM289.159 110.938V113.396C288.82 112.918 288.307 112.658 287.647 112.658C286.344 112.658 285.475 113.605 285.475 115.029C285.475 116.471 286.353 117.436 287.682 117.436C288.325 117.436 288.828 117.175 289.159 116.697V117.383H290.488V110.938H289.159ZM287.995 116.358C287.291 116.358 286.822 115.828 286.813 115.064C286.822 114.308 287.3 113.77 287.995 113.77C288.681 113.77 289.159 114.299 289.159 115.064C289.159 115.828 288.681 116.358 287.995 116.358Z" fill="#898989"/>
<path d="M472.758 141.833L473.222 140.837C472.69 140.488 471.945 140.26 471.2 140.26C469.969 140.26 469.14 140.868 469.14 141.833C469.14 143.718 471.976 143.133 471.976 144.136C471.976 144.463 471.679 144.645 471.185 144.645C470.623 144.645 469.847 144.334 469.3 143.847L468.821 144.828C469.422 145.337 470.296 145.672 471.17 145.672C472.348 145.672 473.253 145.109 473.253 144.068C473.26 142.152 470.425 142.7 470.425 141.719C470.425 141.43 470.699 141.286 471.101 141.286C471.527 141.286 472.196 141.499 472.758 141.833ZM475.918 141.506C474.603 141.506 473.722 142.335 473.722 143.589C473.722 144.835 474.603 145.679 475.918 145.679C477.226 145.679 478.108 144.835 478.108 143.589C478.108 142.335 477.226 141.506 475.918 141.506ZM475.918 142.479C476.519 142.479 476.937 142.935 476.937 143.604C476.937 144.273 476.519 144.729 475.918 144.729C475.31 144.729 474.9 144.273 474.9 143.604C474.9 142.935 475.31 142.479 475.918 142.479ZM480.052 142.281V141.544H478.882V145.634H480.052V143.665C480.052 142.973 480.569 142.525 481.405 142.601V141.499C480.797 141.506 480.333 141.78 480.052 142.281ZM484.332 144.547C484.119 144.645 483.936 144.699 483.784 144.699C483.534 144.706 483.389 144.569 483.389 144.227V142.54H484.499V141.727H483.389V140.602H482.226V141.727H481.656V142.532H482.226V144.425C482.226 145.269 482.781 145.687 483.511 145.687C483.891 145.687 484.271 145.58 484.575 145.406L484.332 144.547Z" fill="#898989"/>
<path d="M487.137 140.313V145.634H488.224V142.046L489.637 145.094H490.42L491.834 142.046V145.634H492.914V140.313H491.576L490.033 143.566L488.482 140.313H487.137ZM497.589 145.634L497.581 142.966C497.573 142.046 496.942 141.499 495.848 141.499C495.133 141.499 494.609 141.666 494.001 141.97L494.366 142.776C494.791 142.54 495.217 142.418 495.582 142.418C496.144 142.418 496.433 142.669 496.433 143.102V143.178H495.308C494.305 143.186 493.75 143.642 493.75 144.41C493.75 145.155 494.282 145.687 495.156 145.687C495.726 145.687 496.167 145.497 496.441 145.155V145.634H497.589ZM495.483 144.851C495.088 144.851 494.845 144.645 494.845 144.334C494.845 144.007 495.065 143.87 495.513 143.87H496.433V144.235C496.365 144.585 495.977 144.851 495.483 144.851ZM499.768 142.281V141.544H498.597V145.634H499.768V143.665C499.768 142.973 500.285 142.525 501.121 142.601V141.499C500.513 141.506 500.049 141.78 499.768 142.281ZM504.481 145.634H505.864L504.298 143.125L505.796 141.552H504.466L502.968 143.095V139.993H501.798V145.634H502.968V144.524L503.493 143.969L504.481 145.634ZM508.014 141.506C506.767 141.506 505.908 142.342 505.908 143.604C505.908 144.843 506.737 145.679 508.044 145.679C508.782 145.679 509.382 145.413 509.793 144.957L509.177 144.334C508.896 144.615 508.531 144.767 508.143 144.767C507.619 144.767 507.223 144.463 507.086 143.946H510.021C510.119 142.456 509.45 141.506 508.014 141.506ZM507.064 143.254C507.155 142.715 507.505 142.365 508.021 142.365C508.561 142.365 508.911 142.715 508.926 143.254H507.064ZM513.081 144.547C512.869 144.645 512.686 144.699 512.534 144.699C512.283 144.706 512.139 144.569 512.139 144.227V142.54H513.249V141.727H512.139V140.602H510.976V141.727H510.406V142.532H510.976V144.425C510.976 145.269 511.531 145.687 512.261 145.687C512.641 145.687 513.021 145.58 513.325 145.406L513.081 144.547ZM518.592 142.935L519.383 142.365C519.018 141.818 518.395 141.506 517.612 141.506C516.358 141.506 515.514 142.35 515.514 143.604C515.514 144.843 516.358 145.679 517.597 145.679C518.433 145.679 519.071 145.345 519.413 144.775L518.608 144.227C518.402 144.547 518.075 144.706 517.657 144.706C517.087 144.706 516.684 144.258 516.684 143.596C516.684 142.943 517.087 142.502 517.657 142.502C518.06 142.494 518.372 142.662 518.592 142.935ZM523.562 145.634L523.554 142.966C523.547 142.046 522.916 141.499 521.821 141.499C521.107 141.499 520.582 141.666 519.974 141.97L520.339 142.776C520.765 142.54 521.19 142.418 521.555 142.418C522.118 142.418 522.407 142.669 522.407 143.102V143.178H521.282C520.278 143.186 519.723 143.642 519.723 144.41C519.723 145.155 520.255 145.687 521.13 145.687C521.7 145.687 522.141 145.497 522.414 145.155V145.634H523.562ZM521.456 144.851C521.061 144.851 520.818 144.645 520.818 144.334C520.818 144.007 521.038 143.87 521.487 143.87H522.407V144.235C522.338 144.585 521.951 144.851 521.456 144.851ZM527.072 141.506C526.517 141.506 526.068 141.734 525.779 142.145V141.544H524.609V147.108H525.779V145.041C526.076 145.451 526.524 145.679 527.094 145.679C528.242 145.679 528.995 144.851 528.995 143.612C528.995 142.35 528.219 141.506 527.072 141.506ZM526.798 144.706C526.197 144.706 525.779 144.25 525.779 143.574C525.779 142.912 526.197 142.449 526.798 142.449C527.398 142.449 527.809 142.92 527.809 143.574C527.809 144.243 527.398 144.706 526.798 144.706Z" fill="#648FF0"/>
<path d="M163.978 145.494L165.86 147.381" stroke="#FEFEFE" stroke-width="0.717812" stroke-linecap="round"/>
<ellipse cx="161.468" cy="143.006" rx="3.58558" ry="3.59301" stroke="#FEFEFE" stroke-width="0.717812"/>
</svg>
