<svg width="48" height="48" viewBox="0 0 48 48" fill="none" xmlns="http://www.w3.org/2000/svg">
    <path d="M33.8608 18.5365C35.7741 20.4498 38.8761 20.4498 40.7895 18.5365C42.7028 16.6232 42.7028 13.5211 40.7895 11.6078C38.8761 9.69453 35.7741 9.69453 33.8608 11.6078C31.9475 13.5211 31.9475 16.6232 33.8608 18.5365Z" fill="#108CFF"/>
    <path d="M23.1258 20.4478C19.7479 19.4643 16.103 20.431 13.6565 22.9593L11.2508 25.4452C7.18647 29.6453 9.25282 36.6733 14.9437 38.0052C17.5133 38.6066 20.2102 37.818 22.051 35.9268L33.1631 24.5103C33.5551 24.1076 33.3771 23.4324 32.8375 23.2753L23.1258 20.4478Z" fill="#FFCA62"/>
    <path d="M23.2625 27.5155C19.9011 28.5543 16.2409 27.6476 13.7532 25.1598L11.3071 22.7136C7.17439 18.5807 9.12515 11.5198 14.7934 10.0947C17.3528 9.45122 20.0623 10.1955 21.9338 12.0562L33.2318 23.2889C33.6303 23.6851 33.4634 24.3631 32.9265 24.5291L23.2625 27.5155Z" fill="#108CFF"/>
    <path d="M13.7536 25.1598C16.2414 27.6476 19.9016 28.5544 23.2629 27.5156L32.9269 24.5292C33.1125 24.4718 33.2538 24.3533 33.343 24.2064C33.4559 23.8304 33.2548 23.3977 32.8368 23.276L23.1251 20.4485C19.7472 19.465 16.1023 20.4317 13.6558 22.96L12.6221 24.0282L13.7536 25.1598Z" fill="#0066FF"/>
</svg>
