<svg width="670" height="720" viewBox="0 0 670 720" fill="none" xmlns="http://www.w3.org/2000/svg">
<g clip-path="url(#clip0)">
<path d="M194.2 534C188 540.7 176.8 536.4 176.8 527.3V493C176.8 487.5 181.3 483 186.8 483H218.1C226.8 483 231.3 493.3 225.5 499.7L194.2 534Z" fill="#628BF2"/>
<path d="M176.8 235.3C176.8 179.3 218.7 134 270.4 134H380.2C431.9 134 473.8 179.4 473.8 235.3V435.5C473.8 491.5 431.9 536.8 380.2 536.8H270.5C218.8 536.8 176.9 491.4 176.9 435.5L176.8 235.3Z" fill="#FFD6A6"/>
<path d="M376.4 224.3C367.3 221.3 357.7 233.2 357.4 252.6C363.3 263.7 374.4 264 380.3 262.1C383 249.9 387.5 227.9 376.4 224.3Z" fill="#FF8374"/>
<path d="M372 229.2C365.7 226.8 359.2 237.4 358.7 253.5C363 257.8 371 262.5 375.1 261C377.1 251.4 379.7 232.1 372 229.2Z" fill="#F46F5F"/>
<path d="M344.3 239.3C337 231.9 326.8 236 331.4 245.6C336 255.2 358.9 261 372 264C381.8 266.2 382.6 260.8 376.1 258.8C360.8 254.2 351.6 246.7 344.3 239.3Z" fill="#DF6B5D"/>
<path d="M344.3 239.3C337 231.9 326.8 236 331.4 245.6C336 255.2 358.9 261 372 264C381.8 266.2 382.6 260.8 376.1 258.8C360.8 254.2 351.6 246.7 344.3 239.3Z" fill="url(#paint0_linear)"/>
<path fill-rule="evenodd" clip-rule="evenodd" d="M330.3 242.2C329.3 235.2 337.9 232.8 344.3 239.3C351.6 246.7 360.8 254.2 376.1 258.9C380.4 260.2 381.5 263 378.9 264.1C379.2 262.8 377.8 261.2 374.9 260.3C360 255.8 351.1 248.5 343.9 241.3C338.4 235.6 331 236.9 330.3 242.2Z" fill="#FF8374"/>
<path d="M218.2 247.7C215.3 242.2 209.6 234.5 203.3 228.8C200.8 226.6 196.5 228.9 199.5 231.6C203.9 235.6 209.8 243.5 213.3 250.9C212.9 251.2 212.6 251.4 212.2 251.7C209.1 246.6 204.1 240.5 198.7 235.7C196.2 233.5 192.1 235.8 194.8 238.6C199.1 242.9 204.4 249.9 207.6 255.6C207.3 255.9 207 256.2 206.8 256.4C204.1 252.1 200.5 247.4 196.4 243.3C194 241 189.8 242.9 192.4 246C196.5 250.7 201.5 257.9 204.6 263.8C210.7 277.6 213.6 294.5 213.6 321C213.6 437.2 256.8 442.2 308.3 437.2C308.8 437.1 309.4 437.1 310 437C318.7 436.1 331.1 434.8 327.8 446.5C364.3 434 356.3 379.5 339.3 367C254.3 432 238 358.5 238 301.7C238.3 297.1 237.8 292.5 238.1 287.9C238.3 284 238.5 280.5 238.6 277.3C239 267.2 239.3 260.2 242.4 251.7C243.6 248.5 239.9 246.2 236.1 251.1C234.4 253.3 233.7 256 233 258.8C232.8 259.5 232.6 260.2 232.4 261C232.4 260.8 232.3 260.7 232.2 260.5C229.9 256.1 224.6 245.1 224.8 241.6C225 238.1 227 237.9 228.6 240.5C228.8 240.9 229 241.4 229.3 241.9C229.9 243.4 230.7 245.2 232.3 245.9C233.5 246.4 234.9 245.6 235.3 244.1C235.9 242.2 235 239.7 234.3 238.4C233.1 235.6 230.9 232.9 227.9 231.9C224.4 230.9 221.2 231.8 219.4 236.8C218.5 239.4 218.5 243.1 219 247.2C218.9 247.4 218.5 247.5 218.2 247.7Z" fill="url(#paint1_linear)"/>
<path d="M351.2 347.9C336.7 360.2 326.3 387.1 331.2 399.9C340.9 437.5 305.4 499 301.4 519.9C300.2 526.2 299.2 531.8 298.5 537H381C432.4 537 474 495.4 474 444V360C468.8 353.9 462.2 348.5 453.9 344C436.4 334.5 432.4 318 428.4 306.5C410.3 292.6 365.6 335.6 351.2 347.9Z" fill="url(#paint2_linear)"/>
<path d="M413.2 369C377.8 400.8 303.6 383.5 293.2 332.2C283.9 286.7 326.1 249.4 373.1 259.7C416.6 271 425.3 297.6 429.4 309.8C431.8 320 433.8 351.1 413.2 369Z" fill="url(#paint3_linear)"/>
<path fill-rule="evenodd" clip-rule="evenodd" d="M377.3 342.9C377.4 342.9 377.4 342.9 377.3 342.9C363.8 348.8 346.7 350.1 334.1 346.4C324.9 343.7 317.8 339.5 312.7 334.5H312.8C296.3 318.4 301 293.9 322.1 283C334.8 276.6 350.8 277.7 363.9 280.8C383 285.4 400 297 398.7 317.3C398.1 329.1 389.2 337.8 377.3 342.9Z" fill="#F9D7D9"/>
<path fill-rule="evenodd" clip-rule="evenodd" d="M376 340.9C376 340.9 376.1 340.9 376 340.9C362.7 346.6 346 347.9 333.5 344.3C324.4 341.6 317.5 337.6 312.4 332.8H312.5C296.3 317.1 300.9 293.4 321.6 282.9C334.1 276.7 349.9 277.8 362.8 280.8C381.6 285.2 398.4 296.6 397.1 316.2C396.4 327.5 387.7 335.9 376 340.9Z" fill="url(#paint4_linear)"/>
<path opacity="0.1" d="M357.1 293.2C356.6 299.5 349 305.3 334.8 308.3C318.1 311.5 313.5 305.4 313.6 300.8C313.7 296.4 320.1 289.1 331.2 286.2C342.3 283.1 357.9 284 357.1 293.2Z" fill="#FFFBFB"/>
<path d="M315.3 297.5C314.7 300.4 316.1 303.4 318.4 304C320.7 304.5 323.3 302.6 324 299.7C324.6 296.8 323.2 293.8 320.9 293.2C318.5 292.6 316 294.5 315.3 297.5Z" fill="#E66252" fill-opacity="0.5"/>
<path d="M323.5 298.4C323.1 301.1 321 303.2 318.7 302.9C316.5 302.6 315 300.2 315.4 297.4C315.8 294.7 317.9 292.6 320.2 292.9C322.3 293.2 323.9 295.7 323.5 298.4Z" fill="#FFE4E4"/>
<path opacity="0.1" d="M320.1 294.7C320.5 295.5 319.9 296.7 318.9 297.5C317.9 298.3 316.8 298.2 316.4 297.4C316 296.6 316.6 295.4 317.6 294.6C318.7 293.7 319.7 293.9 320.1 294.7Z" fill="#364D98"/>
<path d="M318.8 295C318.9 295.3 318.7 295.7 318.3 296C317.9 296.3 317.5 296.3 317.4 296.1C317.3 295.8 317.5 295.4 317.9 295.1C318.2 294.7 318.7 294.7 318.8 295Z" fill="white"/>
<path opacity="0.1" d="M317.5 298.7C316.9 298.8 316.3 299.5 316.6 300.2C317.1 301.1 317.8 301.7 318.8 301.8C320.5 302 322.3 300.4 322.6 298.3C322.7 297.3 322.7 296.5 322.3 295.9C322 295.2 321.1 295.8 320.7 296.4C320.4 297 319.8 297.6 319.2 298C318.7 298.5 318.1 298.8 317.5 298.7Z" fill="#1B244A"/>
<path d="M360 308.4C359.3 311.8 361.4 315.3 364.7 316.1C368 316.8 371.5 314.7 372.4 311.4C373.1 308 371 304.5 367.7 303.7C364.4 302.8 360.9 305 360 308.4Z" fill="#E66252" fill-opacity="0.5"/>
<path d="M371.7 309.8C371.2 312.9 368.3 315.2 365.1 314.8C362 314.3 359.7 311.4 360.1 308.2C360.6 305.1 363.5 302.8 366.7 303.2C369.9 303.7 372.1 306.7 371.7 309.8Z" fill="#FFE4E4"/>
<path opacity="0.1" d="M366.7 305.3C367.3 306.3 366.5 307.6 365.1 308.5C363.7 309.4 362.1 309.3 361.6 308.3C361 307.3 361.8 306 363.2 305.1C364.7 304.2 366.2 304.3 366.7 305.3Z" fill="#364D98"/>
<path d="M364.8 305.6C364.9 305.9 364.6 306.4 364.1 306.8C363.6 307.1 363 307.1 362.8 306.8C362.7 306.4 363 306 363.5 305.6C364 305.3 364.7 305.3 364.8 305.6Z" fill="#F6F9FF"/>
<path opacity="0.1" d="M363.2 309.9C362.4 310 361.5 310.7 361.9 311.6C362.6 312.7 363.7 313.4 365.1 313.6C367.6 314 370 312.2 370.3 309.7C370.4 308.6 370.3 307.6 369.7 306.9C369.3 306.1 368 306.7 367.5 307.4C367.1 308.1 366.3 308.8 365.5 309.2C364.9 309.7 364.1 310 363.2 309.9Z" fill="#1B244A"/>
<path d="M463.3 370.5C442 338 389.7 385.3 419.3 407.5C431.3 416.5 429.7 421 433.8 442C437.9 463 419.6 469.3 392.3 472C365 474.7 323.8 469.8 294.6 475.4C279.1 478.4 268.1 491.7 263.9 505.8C262.8 509.3 267.8 510.6 268.9 507.8C272 498.7 278.1 492.9 282.2 489.9C282.6 489.6 283 490.2 282.6 490.5C277.3 495.9 275.2 499.2 271.4 508.3C271.1 508.9 270.9 509.5 271.1 510.1C271.4 511.7 273.3 512.9 275 512.4C276 512.1 276.6 511 277.1 510C281 501.3 285.1 496.2 289.8 493.6C290.2 493.3 290.6 493.8 290.2 494.1C287.6 496.8 283.6 500.9 279.7 510.4C279.2 511.6 278.6 513.1 279.4 514.1C279.8 514.7 280.4 515.1 281.1 515.3C283.3 515.9 284.6 513.3 285.5 511.2C287.9 505.9 290.9 501.7 296.1 499C296.5 498.7 296.9 499.3 296.4 499.7C292.4 503 289.3 507.1 287.1 513.6C286.7 514.7 286.3 516.1 287.1 517.1C287.7 517.8 288.7 518.2 289.7 518.1C291.2 517.9 291.8 516.2 292.4 514.8C296.1 506.9 302.1 502.1 308.7 501.7C341.5 500.1 424.8 521.5 464.2 485C476.7 462.5 473.9 443 473.9 397C471.9 387.5 468.5 378.4 463.3 370.5Z" fill="url(#paint5_linear)"/>
<path d="M227.9 269.1C223.9 273.2 222.4 277.4 222.2 281.2C221.6 277.2 215.9 267 219.3 263C220.7 261.4 224.4 251.1 227.3 250C228.8 253.5 231.6 259.7 232.6 260.6C232.1 262.5 231.7 265.2 227.9 269.1Z" fill="url(#paint6_linear)"/>
<path d="M240 242.1C241.9 243.1 240.1 250.1 238.4 252.6C236.7 255.1 234.7 255.9 233 255C231.2 254.1 230.7 251.7 231.8 249.2C232.9 246.4 238.1 241.1 240 242.1Z" fill="#F88072"/>
<path d="M218.8 119V78H216.8V119H218.8Z" fill="url(#paint7_linear)"/>
<path d="M223.8 130.5H211.2C209.8 130.5 208.8 129.4 208.8 128.1V126.9C208.8 122 212.7 118.1 217.6 118.1C222.5 118.1 226.4 122.1 226.4 126.9V128.1C226.4 129.4 225.3 130.5 223.8 130.5Z" fill="#FFB185"/>
<path d="M217.5 189.5C253.7 189.5 283 185.4 283 180.3C283 175.2 253.7 171.1 217.5 171.1C181.3 171 152 175.2 152 180.2C152 185.3 181.3 189.5 217.5 189.5Z" fill="#FFC5A4"/>
<path d="M217.5 187.2C251.2 187.2 278.5 184.2 278.5 180.5C278.5 176.8 251.2 173.8 217.5 173.8C183.8 173.8 156.6 176.8 156.6 180.5C156.6 184.3 183.9 187.2 217.5 187.2Z" fill="#FFEED8"/>
<path d="M236.2 174.2C230.4 174 224.1 173.9 217.6 173.9C211.1 173.9 204.8 174 199 174.2C199.1 178.9 201 186 204 189.2C207.4 192.9 212.3 195.2 217.6 195.2C223.1 195.2 227.8 192.8 231.2 189.2C234.2 186.1 236 178.8 236.2 174.2Z" fill="white"/>
<path fill-rule="evenodd" clip-rule="evenodd" d="M216.6 127.9C252.8 127.2 282.6 150.7 283.2 180.1C282.8 175 253.7 171 217.7 171C181.8 171 152.6 175 152.2 180.1C153 151.6 181.3 128.5 216.6 127.9Z" fill="#FFB185"/>
<path d="M164.5 449C162.4 449 160.8 450.7 161.2 452.7C162 455.8 163.5 458.8 165.9 461C169.2 464.2 173.5 466 178.1 466C182.7 466 187.1 464.3 190.3 461C192.7 458.7 194.2 455.8 195 452.7C195.5 450.7 193.8 449 191.7 449.1C189.6 449.1 188.1 450.8 187.3 452.7C186.8 453.9 186.1 455 185.1 455.9C183.2 457.7 180.7 458.7 178.1 458.8C175.5 458.8 172.9 457.8 171.1 455.9C170.1 455 169.4 453.9 168.9 452.7C168.2 450.7 166.5 449 164.5 449Z" fill="#FFAB49"/>
<path d="M239.8 175C239.8 174.7 240 174.5 240.3 174.5C240.6 174.5 240.8 174.7 240.8 175V243H239.8V175Z" fill="url(#paint8_linear)"/>
<path d="M437 139C443.1 132.9 452.9 132.9 459 139L477.3 157.3C483.4 163.4 483.4 173.2 477.3 179.3L459.2 197.5C453.1 203.6 443.3 203.6 437.2 197.5L418.9 179.2C412.8 173.1 412.8 163.3 418.9 157.2L437 139Z" fill="#37E5D7"/>
<path d="M441.9 151.9C445.3 148.5 450.8 148.5 454.2 151.9L464.4 162.1C467.8 165.5 467.8 171 464.4 174.4L454.3 184.5C450.9 187.9 445.4 187.9 442 184.5L431.8 174.3C428.4 170.9 428.4 165.4 431.8 162L441.9 151.9Z" fill="#1DD4C6"/>
</g>
<defs>
<linearGradient id="paint0_linear" x1="332.737" y1="236.278" x2="361.737" y2="258.778" gradientUnits="userSpaceOnUse">
<stop stop-color="#FF6E5C"/>
<stop offset="1" stop-color="#B5554A"/>
</linearGradient>
<linearGradient id="paint1_linear" x1="272.688" y1="227.914" x2="272.688" y2="446.5" gradientUnits="userSpaceOnUse">
<stop stop-color="white"/>
<stop offset="1" stop-color="#FFF6EB"/>
</linearGradient>
<linearGradient id="paint2_linear" x1="386.194" y1="303.777" x2="386.194" y2="537" gradientUnits="userSpaceOnUse">
<stop stop-color="#FFF7ED"/>
<stop offset="0.3" stop-color="#FFF7ED"/>
<stop offset="1" stop-color="#FFF3E4"/>
</linearGradient>
<linearGradient id="paint3_linear" x1="361.348" y1="258" x2="361.348" y2="385" gradientUnits="userSpaceOnUse">
<stop stop-color="white"/>
<stop offset="1" stop-color="#FFF7ED"/>
</linearGradient>
<linearGradient id="paint4_linear" x1="330.156" y1="277.973" x2="368.677" y2="345.529" gradientUnits="userSpaceOnUse">
<stop stop-color="#FF8C7E"/>
<stop offset="1" stop-color="#E05949"/>
</linearGradient>
<linearGradient id="paint5_linear" x1="369.065" y1="518.074" x2="369.065" y2="359.424" gradientUnits="userSpaceOnUse">
<stop stop-color="white"/>
<stop offset="1" stop-color="#FFF7ED"/>
</linearGradient>
<linearGradient id="paint6_linear" x1="232.641" y1="265.623" x2="218.274" y2="265.623" gradientUnits="userSpaceOnUse">
<stop stop-color="#FFB3AA" stop-opacity="0.4"/>
<stop offset="0.6" stop-color="#FFB3AA" stop-opacity="0"/>
<stop offset="1" stop-color="#FFB3AA" stop-opacity="0"/>
</linearGradient>
<linearGradient id="paint7_linear" x1="217.848" y1="78" x2="217.848" y2="119" gradientUnits="userSpaceOnUse">
<stop stop-color="#F46F5F" stop-opacity="0"/>
<stop offset="1" stop-color="#FFB185"/>
</linearGradient>
<linearGradient id="paint8_linear" x1="240.348" y1="174.5" x2="240.348" y2="242.999" gradientUnits="userSpaceOnUse">
<stop stop-color="#FFB185"/>
<stop offset="1" stop-color="#F88072"/>
</linearGradient>
<clipPath id="clip0">
<rect width="329.9" height="459.3" fill="white" transform="translate(152 78)"/>
</clipPath>
</defs>
</svg>
