<svg width="760" height="600" viewBox="0 0 760 600" fill="none" xmlns="http://www.w3.org/2000/svg">
<g clip-path="url(#clip0)">
<path d="M264.2 472C258 478.7 246.8 474.4 246.8 465.3V431C246.8 425.5 251.3 421 256.8 421H288.1C296.8 421 301.3 431.3 295.5 437.7L264.2 472Z" fill="#6E82A4"/>
<path d="M246.8 173.3C246.8 117.3 288.7 72 340.4 72H450.2C501.9 72 543.8 117.4 543.8 173.3V373.5C543.8 429.5 501.9 474.8 450.2 474.8H340.5C288.8 474.8 246.9 429.4 246.9 373.5L246.8 173.3Z" fill="#25395F"/>
<path d="M446.4 162.301C437.3 159.301 427.7 171.201 427.4 190.601C433.3 201.701 444.4 202.001 450.3 200.101C453 187.901 457.5 165.901 446.4 162.301Z" fill="#FF8374"/>
<path d="M442 167.2C435.7 164.8 429.2 175.4 428.7 191.5C433 195.8 441 200.5 445.1 199C447.1 189.4 449.7 170.1 442 167.2Z" fill="#F46F5F"/>
<path d="M414.3 177.3C407 169.9 396.8 174 401.4 183.6C406 193.2 428.9 199 442 202C451.8 204.2 452.6 198.8 446.1 196.8C430.8 192.2 421.6 184.7 414.3 177.3Z" fill="#DF6B5D"/>
<path d="M414.3 177.3C407 169.9 396.8 174 401.4 183.6C406 193.2 428.9 199 442 202C451.8 204.2 452.6 198.8 446.1 196.8C430.8 192.2 421.6 184.7 414.3 177.3Z" fill="url(#paint0_linear)"/>
<path fill-rule="evenodd" clip-rule="evenodd" d="M400.3 180.2C399.3 173.2 407.9 170.8 414.3 177.3C421.6 184.7 430.8 192.2 446.1 196.9C450.4 198.2 451.5 201 448.9 202.1C449.2 200.8 447.8 199.2 444.9 198.3C430 193.8 421.1 186.5 413.9 179.3C408.4 173.6 401 174.9 400.3 180.2Z" fill="#FF8374"/>
<path d="M288.2 185.7C285.3 180.2 279.6 172.5 273.3 166.8C270.8 164.6 266.5 166.9 269.5 169.6C273.9 173.6 279.8 181.5 283.3 188.9C282.9 189.2 282.6 189.4 282.2 189.7C279.1 184.6 274.1 178.5 268.7 173.7C266.2 171.5 262.1 173.8 264.8 176.6C269.1 180.9 274.4 187.9 277.6 193.6C277.3 193.9 277 194.2 276.8 194.4C274.1 190.1 270.5 185.4 266.4 181.3C264 179 259.8 180.9 262.4 184C266.5 188.7 271.5 195.9 274.6 201.8C280.7 215.6 283.6 232.5 283.6 259C283.6 375.2 326.8 380.2 378.3 375.2C378.8 375.1 379.4 375.1 380 375C388.7 374.1 401.1 372.8 397.8 384.5C434.3 372 426.3 317.5 409.3 305C324.3 370 308 296.5 308 239.7C308.3 235.1 307.8 230.5 308.1 225.9C308.3 222 308.5 218.5 308.6 215.3C309 205.2 309.3 198.2 312.4 189.7C313.6 186.5 309.9 184.2 306.1 189.1C304.4 191.3 303.7 194 303 196.8C302.8 197.5 302.6 198.2 302.4 199C302.4 198.8 302.3 198.7 302.2 198.5C299.9 194.1 294.6 183.1 294.8 179.6C295 176.1 297 175.9 298.6 178.5C298.8 178.9 299 179.4 299.3 179.9C299.9 181.4 300.7 183.2 302.3 183.9C303.5 184.4 304.9 183.6 305.3 182.1C305.9 180.2 305 177.7 304.3 176.4C303.1 173.6 300.9 170.9 297.9 169.9C294.4 168.9 291.2 169.8 289.4 174.8C288.5 177.4 288.5 181.1 289 185.2C288.9 185.4 288.5 185.5 288.2 185.7Z" fill="url(#paint1_linear)"/>
<path d="M421.2 285.9C406.7 298.2 396.3 325.1 401.2 337.9C410.9 375.5 375.4 437 371.4 457.9C370.2 464.2 369.2 469.8 368.5 475H451C502.4 475 544 433.4 544 382V298C538.8 291.9 532.2 286.5 523.9 282C506.4 272.5 502.4 256 498.4 244.5C480.3 230.6 435.6 273.6 421.2 285.9Z" fill="url(#paint2_linear)"/>
<path d="M483.2 307C447.8 338.8 373.6 321.5 363.2 270.2C353.9 224.7 396.1 187.4 443.1 197.7C486.6 209 495.3 235.6 499.4 247.8C501.8 258 503.8 289.1 483.2 307Z" fill="url(#paint3_linear)"/>
<path fill-rule="evenodd" clip-rule="evenodd" d="M447.3 280.901C447.4 280.901 447.4 280.901 447.3 280.901C433.8 286.801 416.7 288.101 404.1 284.401C394.9 281.701 387.8 277.501 382.7 272.501H382.8C366.3 256.401 371 231.901 392.1 221.001C404.8 214.601 420.8 215.701 433.9 218.801C453 223.401 470 235.001 468.7 255.301C468.1 267.101 459.2 275.801 447.3 280.901Z" fill="#F9D7D9"/>
<path fill-rule="evenodd" clip-rule="evenodd" d="M446 278.901C446 278.901 446.1 278.901 446 278.901C432.7 284.601 416 285.901 403.5 282.301C394.4 279.601 387.5 275.601 382.4 270.801H382.5C366.3 255.101 370.9 231.401 391.6 220.901C404.1 214.701 419.9 215.801 432.8 218.801C451.6 223.201 468.4 234.601 467.1 254.201C466.4 265.501 457.7 273.901 446 278.901Z" fill="url(#paint4_linear)"/>
<path opacity="0.1" d="M427.1 231.199C426.6 237.499 419 243.299 404.8 246.299C388.1 249.499 383.5 243.399 383.6 238.799C383.7 234.399 390.1 227.099 401.2 224.199C412.3 221.099 427.9 221.999 427.1 231.199Z" fill="#FFFBFB"/>
<path d="M385.3 235.5C384.7 238.4 386.1 241.4 388.4 242C390.7 242.5 393.3 240.6 394 237.7C394.6 234.8 393.2 231.8 390.9 231.2C388.5 230.6 386 232.5 385.3 235.5Z" fill="#E66252" fill-opacity="0.5"/>
<path d="M393.5 236.4C393.1 239.1 391 241.2 388.7 240.9C386.5 240.6 385 238.2 385.4 235.4C385.8 232.7 387.9 230.6 390.2 230.9C392.3 231.2 393.9 233.7 393.5 236.4Z" fill="#FFE4E4"/>
<path opacity="0.1" d="M390.1 232.7C390.5 233.5 389.9 234.7 388.9 235.5C387.9 236.3 386.8 236.2 386.4 235.4C386 234.6 386.6 233.4 387.6 232.6C388.7 231.7 389.7 231.9 390.1 232.7Z" fill="#364D98"/>
<path d="M388.8 233.001C388.9 233.301 388.7 233.701 388.3 234.001C387.9 234.301 387.5 234.301 387.4 234.101C387.3 233.801 387.5 233.401 387.9 233.101C388.2 232.701 388.7 232.701 388.8 233.001Z" fill="white"/>
<path opacity="0.1" d="M387.5 236.699C386.9 236.799 386.3 237.499 386.6 238.199C387.1 239.099 387.8 239.699 388.8 239.799C390.5 239.999 392.3 238.399 392.6 236.299C392.7 235.299 392.7 234.499 392.3 233.899C392 233.199 391.1 233.799 390.7 234.399C390.4 234.999 389.8 235.599 389.2 235.999C388.7 236.499 388.1 236.799 387.5 236.699Z" fill="#1B244A"/>
<path d="M430 246.4C429.3 249.8 431.4 253.3 434.7 254.1C438 254.8 441.5 252.7 442.4 249.4C443.1 246 441 242.5 437.7 241.7C434.4 240.8 430.9 243 430 246.4Z" fill="#E66252" fill-opacity="0.5"/>
<path d="M441.7 247.8C441.2 250.9 438.3 253.2 435.1 252.8C432 252.3 429.7 249.4 430.1 246.2C430.6 243.1 433.5 240.8 436.7 241.2C439.9 241.7 442.1 244.7 441.7 247.8Z" fill="#FFE4E4"/>
<path opacity="0.1" d="M436.7 243.299C437.3 244.299 436.5 245.599 435.1 246.499C433.7 247.399 432.1 247.299 431.6 246.299C431 245.299 431.8 243.999 433.2 243.099C434.7 242.199 436.2 242.299 436.7 243.299Z" fill="#364D98"/>
<path d="M434.8 243.6C434.9 243.9 434.6 244.4 434.1 244.8C433.6 245.1 433 245.1 432.8 244.8C432.7 244.4 433 244 433.5 243.6C434 243.3 434.7 243.3 434.8 243.6Z" fill="#F6F9FF"/>
<path opacity="0.1" d="M433.2 247.899C432.4 247.999 431.5 248.699 431.9 249.599C432.6 250.699 433.7 251.399 435.1 251.599C437.6 251.999 440 250.199 440.3 247.699C440.4 246.599 440.3 245.599 439.7 244.899C439.3 244.099 438 244.699 437.5 245.399C437.1 246.099 436.3 246.799 435.5 247.199C434.9 247.699 434.1 247.999 433.2 247.899Z" fill="#1B244A"/>
<path d="M533.3 308.501C512 276.001 459.7 323.301 489.3 345.501C501.3 354.501 499.7 359.001 503.8 380.001C507.9 401.001 489.6 407.301 462.3 410.001C435 412.701 393.8 407.801 364.6 413.401C349.1 416.401 338.1 429.701 333.9 443.801C332.8 447.301 337.8 448.601 338.9 445.801C342 436.701 348.1 430.901 352.2 427.901C352.6 427.601 353 428.201 352.6 428.501C347.3 433.901 345.2 437.201 341.4 446.301C341.1 446.901 340.9 447.501 341.1 448.101C341.4 449.701 343.3 450.901 345 450.401C346 450.101 346.6 449.001 347.1 448.001C351 439.301 355.1 434.201 359.8 431.601C360.2 431.301 360.6 431.801 360.2 432.101C357.6 434.801 353.6 438.901 349.7 448.401C349.2 449.601 348.6 451.101 349.4 452.101C349.8 452.701 350.4 453.101 351.1 453.301C353.3 453.901 354.6 451.301 355.5 449.201C357.9 443.901 360.9 439.701 366.1 437.001C366.5 436.701 366.9 437.301 366.4 437.701C362.4 441.001 359.3 445.101 357.1 451.601C356.7 452.701 356.3 454.101 357.1 455.101C357.7 455.801 358.7 456.201 359.7 456.101C361.2 455.901 361.8 454.201 362.4 452.801C366.1 444.901 372.1 440.101 378.7 439.701C411.5 438.101 494.8 459.501 534.2 423.001C546.7 400.501 543.9 381.001 543.9 335.001C541.9 325.501 538.5 316.401 533.3 308.501Z" fill="url(#paint5_linear)"/>
<path d="M297.9 207.1C293.9 211.2 292.4 215.4 292.2 219.2C291.6 215.2 285.9 205 289.3 201C290.7 199.4 294.4 189.1 297.3 188C298.8 191.5 301.6 197.7 302.6 198.6C302.1 200.5 301.7 203.2 297.9 207.1Z" fill="url(#paint6_linear)"/>
<path d="M310 180.1C311.9 181.1 310.1 188.1 308.4 190.6C306.7 193.1 304.7 193.9 303 193C301.2 192.1 300.7 189.7 301.8 187.2C302.9 184.4 308.1 179.1 310 180.1Z" fill="#F88072"/>
<path d="M288.8 57V16H286.8V57H288.8Z" fill="url(#paint7_linear)"/>
<path d="M293.8 68.4996H281.2C279.8 68.4996 278.8 67.3996 278.8 66.0996V64.8996C278.8 59.9996 282.7 56.0996 287.6 56.0996C292.5 56.0996 296.4 60.0996 296.4 64.8996V66.0996C296.4 67.3996 295.3 68.4996 293.8 68.4996Z" fill="#FFB185"/>
<path d="M287.5 127.499C323.7 127.499 353 123.399 353 118.299C353 113.199 323.7 109.099 287.5 109.099C251.3 108.999 222 113.199 222 118.199C222 123.299 251.3 127.499 287.5 127.499Z" fill="#FFC5A4"/>
<path d="M287.5 125.201C321.2 125.201 348.5 122.201 348.5 118.501C348.5 114.801 321.2 111.801 287.5 111.801C253.8 111.801 226.6 114.801 226.6 118.501C226.6 122.301 253.9 125.201 287.5 125.201Z" fill="#FFEED8"/>
<path d="M306.2 112.2C300.4 112 294.1 111.9 287.6 111.9C281.1 111.9 274.8 112 269 112.2C269.1 116.9 271 124 274 127.2C277.4 130.9 282.3 133.2 287.6 133.2C293.1 133.2 297.8 130.8 301.2 127.2C304.2 124.1 306 116.8 306.2 112.2Z" fill="white"/>
<path fill-rule="evenodd" clip-rule="evenodd" d="M286.6 65.9C322.8 65.2 352.6 88.7 353.2 118.1C352.8 113 323.7 109 287.7 109C251.8 109 222.6 113 222.2 118.1C223 89.6 251.3 66.5 286.6 65.9Z" fill="#FFB185"/>
<path d="M234.5 387C232.4 387 230.8 388.7 231.2 390.7C232 393.8 233.5 396.8 235.9 399C239.2 402.2 243.5 404 248.1 404C252.7 404 257.1 402.3 260.3 399C262.7 396.7 264.2 393.8 265 390.7C265.5 388.7 263.8 387 261.7 387.1C259.6 387.1 258.1 388.8 257.3 390.7C256.8 391.9 256.1 393 255.1 393.9C253.2 395.7 250.7 396.7 248.1 396.8C245.5 396.8 242.9 395.8 241.1 393.9C240.1 393 239.4 391.9 238.9 390.7C238.2 388.7 236.5 387 234.5 387Z" fill="#9AADCE"/>
<path d="M309.8 113C309.8 112.7 310 112.5 310.3 112.5C310.6 112.5 310.8 112.7 310.8 113V181H309.8V113Z" fill="url(#paint8_linear)"/>
<path d="M507 77.0008C513.1 70.9008 522.9 70.9008 529 77.0008L547.3 95.3008C553.4 101.401 553.4 111.201 547.3 117.301L529.2 135.501C523.1 141.601 513.3 141.601 507.2 135.501L488.9 117.201C482.8 111.101 482.8 101.301 488.9 95.2008L507 77.0008Z" fill="#9AADCE"/>
<path d="M511.9 89.8996C515.3 86.4996 520.8 86.4996 524.2 89.8996L534.4 100.1C537.8 103.5 537.8 109 534.4 112.4L524.3 122.5C520.9 125.9 515.4 125.9 512 122.5L501.8 112.3C498.4 108.9 498.4 103.4 501.8 99.9996L511.9 89.8996Z" fill="#C4D1E8"/>
</g>
<defs>
<linearGradient id="paint0_linear" x1="402.737" y1="174.277" x2="431.737" y2="196.777" gradientUnits="userSpaceOnUse">
<stop stop-color="#FF6E5C"/>
<stop offset="1" stop-color="#B5554A"/>
</linearGradient>
<linearGradient id="paint1_linear" x1="342.688" y1="165.914" x2="342.688" y2="384.5" gradientUnits="userSpaceOnUse">
<stop stop-color="white"/>
<stop offset="1" stop-color="#FFF6EB"/>
</linearGradient>
<linearGradient id="paint2_linear" x1="456.194" y1="241.777" x2="456.194" y2="475" gradientUnits="userSpaceOnUse">
<stop stop-color="#FFF7ED"/>
<stop offset="0.3" stop-color="#FFF7ED"/>
<stop offset="1" stop-color="#FFF3E4"/>
</linearGradient>
<linearGradient id="paint3_linear" x1="431.348" y1="196" x2="431.348" y2="323" gradientUnits="userSpaceOnUse">
<stop stop-color="white"/>
<stop offset="1" stop-color="#FFF7ED"/>
</linearGradient>
<linearGradient id="paint4_linear" x1="400.156" y1="215.974" x2="438.677" y2="283.53" gradientUnits="userSpaceOnUse">
<stop stop-color="#FF8C7E"/>
<stop offset="1" stop-color="#E05949"/>
</linearGradient>
<linearGradient id="paint5_linear" x1="439.065" y1="456.075" x2="439.065" y2="297.425" gradientUnits="userSpaceOnUse">
<stop stop-color="white"/>
<stop offset="1" stop-color="#FFF7ED"/>
</linearGradient>
<linearGradient id="paint6_linear" x1="302.641" y1="203.623" x2="288.274" y2="203.623" gradientUnits="userSpaceOnUse">
<stop stop-color="#FFB3AA" stop-opacity="0.4"/>
<stop offset="0.6" stop-color="#FFB3AA" stop-opacity="0"/>
<stop offset="1" stop-color="#FFB3AA" stop-opacity="0"/>
</linearGradient>
<linearGradient id="paint7_linear" x1="287.848" y1="16" x2="287.848" y2="57" gradientUnits="userSpaceOnUse">
<stop stop-color="#F46F5F" stop-opacity="0"/>
<stop offset="1" stop-color="#FFB185"/>
</linearGradient>
<linearGradient id="paint8_linear" x1="310.348" y1="112.5" x2="310.348" y2="180.999" gradientUnits="userSpaceOnUse">
<stop stop-color="#FFB185"/>
<stop offset="1" stop-color="#F88072"/>
</linearGradient>
<clipPath id="clip0">
<rect width="329.9" height="459.3" fill="white" transform="translate(222 16)"/>
</clipPath>
</defs>
</svg>
