<svg width="330" height="460" viewBox="0 0 330 460" fill="none" xmlns="http://www.w3.org/2000/svg">
<g clip-path="url(#clip0)">
<path d="M42.1998 456C35.9998 462.7 24.7998 458.4 24.7998 449.3V415C24.7998 409.5 29.2998 405 34.7998 405H66.0998C74.7998 405 79.2998 415.3 73.4998 421.7L42.1998 456Z" fill="#628BF2"/>
<path d="M24.7998 157.3C24.7998 101.3 66.6998 56 118.4 56H228.2C279.9 56 321.8 101.4 321.8 157.3V357.5C321.8 413.5 279.9 458.8 228.2 458.8H118.5C66.7998 458.8 24.8998 413.4 24.8998 357.5L24.7998 157.3Z" fill="#FFCE95"/>
<path d="M224.4 146.301C215.3 143.301 205.7 155.201 205.4 174.601C211.3 185.701 222.4 186.001 228.3 184.101C231 171.901 235.5 149.901 224.4 146.301Z" fill="#FF8374"/>
<path d="M220 151.2C213.7 148.8 207.2 159.4 206.7 175.5C211 179.8 219 184.5 223.1 183C225.1 173.4 227.7 154.1 220 151.2Z" fill="#F46F5F"/>
<path d="M192.3 161.3C185 153.9 174.8 158 179.4 167.6C184 177.2 206.9 183 220 186C229.8 188.2 230.6 182.8 224.1 180.8C208.8 176.2 199.6 168.7 192.3 161.3Z" fill="#DF6B5D"/>
<path d="M192.3 161.3C185 153.9 174.8 158 179.4 167.6C184 177.2 206.9 183 220 186C229.8 188.2 230.6 182.8 224.1 180.8C208.8 176.2 199.6 168.7 192.3 161.3Z" fill="url(#paint0_linear)"/>
<path fill-rule="evenodd" clip-rule="evenodd" d="M178.3 164.2C177.3 157.2 185.9 154.8 192.3 161.3C199.6 168.7 208.8 176.2 224.1 180.9C228.4 182.2 229.5 185 226.9 186.1C227.2 184.8 225.8 183.2 222.9 182.3C208 177.8 199.1 170.5 191.9 163.3C186.4 157.6 179 158.9 178.3 164.2Z" fill="#FF8374"/>
<path d="M66.1999 169.7C63.2999 164.2 57.5999 156.5 51.2999 150.8C48.7999 148.6 44.4999 150.9 47.4999 153.6C51.8999 157.6 57.7999 165.5 61.2999 172.9C60.8999 173.2 60.5999 173.4 60.1999 173.7C57.0999 168.6 52.0999 162.5 46.6999 157.7C44.1999 155.5 40.0999 157.8 42.7999 160.6C47.0999 164.9 52.3999 171.9 55.5999 177.6C55.2999 177.9 54.9999 178.2 54.7999 178.4C52.0999 174.1 48.4999 169.4 44.3999 165.3C41.9999 163 37.7999 164.9 40.3999 168C44.4999 172.7 49.4999 179.9 52.5999 185.8C58.6999 199.6 61.5999 216.5 61.5999 243C61.5999 359.2 104.8 364.2 156.3 359.2C156.8 359.1 157.4 359.1 158 359C166.7 358.1 179.1 356.8 175.8 368.5C212.3 356 204.3 301.5 187.3 289C102.3 354 85.9999 280.5 85.9999 223.7C86.2999 219.1 85.7999 214.5 86.0999 209.9C86.2999 206 86.4999 202.5 86.5999 199.3C86.9999 189.2 87.2999 182.2 90.3999 173.7C91.5999 170.5 87.8999 168.2 84.0999 173.1C82.3999 175.3 81.6999 178 80.9999 180.8C80.7999 181.5 80.5999 182.2 80.3999 183C80.3999 182.8 80.2999 182.7 80.1999 182.5C77.8999 178.1 72.5999 167.1 72.7999 163.6C72.9999 160.1 74.9999 159.9 76.5999 162.5C76.7999 162.9 76.9999 163.4 77.2999 163.9C77.8999 165.4 78.6999 167.2 80.2999 167.9C81.4999 168.4 82.8999 167.6 83.2999 166.1C83.8999 164.2 82.9999 161.7 82.2999 160.4C81.0999 157.6 78.8999 154.9 75.8999 153.9C72.3999 152.9 69.1999 153.8 67.3999 158.8C66.4999 161.4 66.4999 165.1 66.9999 169.2C66.8999 169.4 66.4999 169.5 66.1999 169.7Z" fill="url(#paint1_linear)"/>
<path d="M199.2 269.9C184.7 282.2 174.3 309.1 179.2 321.9C188.9 359.5 153.4 421 149.4 441.9C148.2 448.2 147.2 453.8 146.5 459H229C280.4 459 322 417.4 322 366V282C316.8 275.9 310.2 270.5 301.9 266C284.4 256.5 280.4 240 276.4 228.5C258.3 214.6 213.6 257.6 199.2 269.9Z" fill="url(#paint2_linear)"/>
<path d="M261.2 291C225.8 322.8 151.6 305.5 141.2 254.2C131.9 208.7 174.1 171.4 221.1 181.7C264.6 193 273.3 219.6 277.4 231.8C279.8 242 281.8 273.1 261.2 291Z" fill="url(#paint3_linear)"/>
<path fill-rule="evenodd" clip-rule="evenodd" d="M225.3 264.901C225.4 264.901 225.4 264.901 225.3 264.901C211.8 270.801 194.7 272.101 182.1 268.401C172.9 265.701 165.8 261.501 160.7 256.501H160.8C144.3 240.401 149 215.901 170.1 205.001C182.8 198.601 198.8 199.701 211.9 202.801C231 207.401 248 219.001 246.7 239.301C246.1 251.101 237.2 259.801 225.3 264.901Z" fill="#F9D7D9"/>
<path fill-rule="evenodd" clip-rule="evenodd" d="M224 262.901C224 262.901 224.1 262.901 224 262.901C210.7 268.601 194 269.901 181.5 266.301C172.4 263.601 165.5 259.601 160.4 254.801H160.5C144.3 239.101 148.9 215.401 169.6 204.901C182.1 198.701 197.9 199.801 210.8 202.801C229.6 207.201 246.4 218.601 245.1 238.201C244.4 249.501 235.7 257.901 224 262.901Z" fill="url(#paint4_linear)"/>
<path opacity="0.1" d="M205.1 215.199C204.6 221.499 197 227.299 182.8 230.299C166.1 233.499 161.5 227.399 161.6 222.799C161.7 218.399 168.1 211.099 179.2 208.199C190.3 205.099 205.9 205.999 205.1 215.199Z" fill="#FFFBFB"/>
<path d="M163.3 219.5C162.7 222.4 164.1 225.4 166.4 226C168.7 226.5 171.3 224.6 172 221.7C172.6 218.8 171.2 215.8 168.9 215.2C166.5 214.6 164 216.5 163.3 219.5Z" fill="#E66252" fill-opacity="0.5"/>
<path d="M171.5 220.4C171.1 223.1 169 225.2 166.7 224.9C164.5 224.6 163 222.2 163.4 219.4C163.8 216.7 165.9 214.6 168.2 214.9C170.3 215.2 171.9 217.7 171.5 220.4Z" fill="#FFE4E4"/>
<path opacity="0.1" d="M168.1 216.7C168.5 217.5 167.9 218.7 166.9 219.5C165.9 220.3 164.8 220.2 164.4 219.4C164 218.6 164.6 217.4 165.6 216.6C166.7 215.7 167.7 215.9 168.1 216.7Z" fill="#364D98"/>
<path d="M166.8 217.001C166.9 217.301 166.7 217.701 166.3 218.001C165.9 218.301 165.5 218.301 165.4 218.101C165.3 217.801 165.5 217.401 165.9 217.101C166.2 216.701 166.7 216.701 166.8 217.001Z" fill="white"/>
<path opacity="0.1" d="M165.5 220.699C164.9 220.799 164.3 221.499 164.6 222.199C165.1 223.099 165.8 223.699 166.8 223.799C168.5 223.999 170.3 222.399 170.6 220.299C170.7 219.299 170.7 218.499 170.3 217.899C170 217.199 169.1 217.799 168.7 218.399C168.4 218.999 167.8 219.599 167.2 219.999C166.7 220.499 166.1 220.799 165.5 220.699Z" fill="#1B244A"/>
<path d="M208 230.4C207.3 233.8 209.4 237.3 212.7 238.1C216 238.8 219.5 236.7 220.4 233.4C221.1 230 219 226.5 215.7 225.7C212.4 224.8 208.9 227 208 230.4Z" fill="#E66252" fill-opacity="0.5"/>
<path d="M219.7 231.8C219.2 234.9 216.3 237.2 213.1 236.8C210 236.3 207.7 233.4 208.1 230.2C208.6 227.1 211.5 224.8 214.7 225.2C217.9 225.7 220.1 228.7 219.7 231.8Z" fill="#FFE4E4"/>
<path opacity="0.1" d="M214.7 227.299C215.3 228.299 214.5 229.599 213.1 230.499C211.7 231.399 210.1 231.299 209.6 230.299C209 229.299 209.8 227.999 211.2 227.099C212.7 226.199 214.2 226.299 214.7 227.299Z" fill="#364D98"/>
<path d="M212.8 227.6C212.9 227.9 212.6 228.4 212.1 228.8C211.6 229.1 211 229.1 210.8 228.8C210.7 228.4 211 228 211.5 227.6C212 227.3 212.7 227.3 212.8 227.6Z" fill="#F6F9FF"/>
<path opacity="0.1" d="M211.2 231.899C210.4 231.999 209.5 232.699 209.9 233.599C210.6 234.699 211.7 235.399 213.1 235.599C215.6 235.999 218 234.199 218.3 231.699C218.4 230.599 218.3 229.599 217.7 228.899C217.3 228.099 216 228.699 215.5 229.399C215.1 230.099 214.3 230.799 213.5 231.199C212.9 231.699 212.1 231.999 211.2 231.899Z" fill="#1B244A"/>
<path d="M311.3 292.501C290 260.001 237.7 307.301 267.3 329.501C279.3 338.501 277.7 343.001 281.8 364.001C285.9 385.001 267.6 391.301 240.3 394.001C213 396.701 171.8 391.801 142.6 397.401C127.1 400.401 116.1 413.701 111.9 427.801C110.8 431.301 115.8 432.601 116.9 429.801C120 420.701 126.1 414.901 130.2 411.901C130.6 411.601 131 412.201 130.6 412.501C125.3 417.901 123.2 421.201 119.4 430.301C119.1 430.901 118.9 431.501 119.1 432.101C119.4 433.701 121.3 434.901 123 434.401C124 434.101 124.6 433.001 125.1 432.001C129 423.301 133.1 418.201 137.8 415.601C138.2 415.301 138.6 415.801 138.2 416.101C135.6 418.801 131.6 422.901 127.7 432.401C127.2 433.601 126.6 435.101 127.4 436.101C127.8 436.701 128.4 437.101 129.1 437.301C131.3 437.901 132.6 435.301 133.5 433.201C135.9 427.901 138.9 423.701 144.1 421.001C144.5 420.701 144.9 421.301 144.4 421.701C140.4 425.001 137.3 429.101 135.1 435.601C134.7 436.701 134.3 438.101 135.1 439.101C135.7 439.801 136.7 440.201 137.7 440.101C139.2 439.901 139.8 438.201 140.4 436.801C144.1 428.901 150.1 424.101 156.7 423.701C189.5 422.101 272.8 443.501 312.2 407.001C324.7 384.501 321.9 365.001 321.9 319.001C319.9 309.501 316.5 300.401 311.3 292.501Z" fill="url(#paint5_linear)"/>
<path d="M75.8999 191.1C71.8999 195.2 70.3998 199.4 70.1998 203.2C69.5998 199.2 63.8999 189 67.2999 185C68.6999 183.4 72.3999 173.1 75.2999 172C76.7999 175.5 79.5999 181.7 80.5999 182.6C80.0999 184.5 79.6999 187.2 75.8999 191.1Z" fill="url(#paint6_linear)"/>
<path d="M88.0002 164.1C89.9002 165.1 88.1002 172.1 86.4002 174.6C84.7002 177.1 82.7002 177.9 81.0002 177C79.2002 176.1 78.7002 173.7 79.8002 171.2C80.9002 168.4 86.1002 163.1 88.0002 164.1Z" fill="#F88072"/>
<path d="M66.7998 41V0H64.7998V41H66.7998Z" fill="url(#paint7_linear)"/>
<path d="M71.7998 52.4996H59.1998C57.7998 52.4996 56.7998 51.3996 56.7998 50.0996V48.8996C56.7998 43.9996 60.6998 40.0996 65.5998 40.0996C70.4998 40.0996 74.3998 44.0996 74.3998 48.8996V50.0996C74.3998 51.3996 73.2998 52.4996 71.7998 52.4996Z" fill="#FFB185"/>
<path d="M65.5 111.499C101.7 111.499 131 107.399 131 102.299C131 97.1994 101.7 93.0994 65.5 93.0994C29.3 92.9994 0 97.1994 0 102.199C0 107.299 29.3 111.499 65.5 111.499Z" fill="#FFC5A4"/>
<path d="M65.5001 109.201C99.2001 109.201 126.5 106.201 126.5 102.501C126.5 98.8008 99.2001 95.8008 65.5001 95.8008C31.8001 95.8008 4.6001 98.8008 4.6001 102.501C4.6001 106.301 31.9001 109.201 65.5001 109.201Z" fill="#FFEED8"/>
<path d="M84.2 96.2004C78.4 96.0004 72.1 95.9004 65.6 95.9004C59.1 95.9004 52.8 96.0004 47 96.2004C47.1 100.9 49 108 52 111.2C55.4 114.9 60.3 117.2 65.6 117.2C71.1 117.2 75.8 114.8 79.2 111.2C82.2 108.1 84 100.8 84.2 96.2004Z" fill="white"/>
<path fill-rule="evenodd" clip-rule="evenodd" d="M64.6002 49.9C100.8 49.2 130.6 72.7 131.2 102.1C130.8 97 101.7 93 65.7002 93C29.8002 93 0.600195 97 0.200195 102.1C1.0002 73.6 29.3002 50.5 64.6002 49.9Z" fill="#FFB185"/>
<path d="M12.4998 371C10.3998 371 8.79977 372.7 9.19977 374.7C9.99977 377.8 11.4998 380.8 13.8998 383C17.1998 386.2 21.4998 388 26.0998 388C30.6998 388 35.0998 386.3 38.2998 383C40.6998 380.7 42.1998 377.8 42.9998 374.7C43.4998 372.7 41.7998 371 39.6998 371.1C37.5998 371.1 36.0998 372.8 35.2998 374.7C34.7998 375.9 34.0998 377 33.0998 377.9C31.1998 379.7 28.6998 380.7 26.0998 380.8C23.4998 380.8 20.8998 379.8 19.0998 377.9C18.0998 377 17.3998 375.9 16.8998 374.7C16.1998 372.7 14.4998 371 12.4998 371Z" fill="#FFAB49"/>
<path d="M87.7998 97C87.7998 96.7 87.9998 96.5 88.2998 96.5C88.5998 96.5 88.7998 96.7 88.7998 97V165H87.7998V97Z" fill="url(#paint8_linear)"/>
<path d="M285 61.0008C291.1 54.9008 300.9 54.9008 307 61.0008L325.3 79.3008C331.4 85.4008 331.4 95.2008 325.3 101.301L307.2 119.501C301.1 125.601 291.3 125.601 285.2 119.501L266.9 101.201C260.8 95.1008 260.8 85.3008 266.9 79.2008L285 61.0008Z" fill="#37E5D7"/>
<path d="M289.9 73.8996C293.3 70.4996 298.8 70.4996 302.2 73.8996L312.4 84.0996C315.8 87.4996 315.8 92.9996 312.4 96.3996L302.3 106.5C298.9 109.9 293.4 109.9 290 106.5L279.8 96.2996C276.4 92.8996 276.4 87.3996 279.8 83.9996L289.9 73.8996Z" fill="#1DD4C6"/>
</g>
<defs>
<linearGradient id="paint0_linear" x1="180.737" y1="158.277" x2="209.737" y2="180.777" gradientUnits="userSpaceOnUse">
<stop stop-color="#FF6E5C"/>
<stop offset="1" stop-color="#B5554A"/>
</linearGradient>
<linearGradient id="paint1_linear" x1="120.687" y1="149.914" x2="120.687" y2="368.5" gradientUnits="userSpaceOnUse">
<stop stop-color="white"/>
<stop offset="1" stop-color="#FFF6EB"/>
</linearGradient>
<linearGradient id="paint2_linear" x1="234.194" y1="225.777" x2="234.194" y2="459" gradientUnits="userSpaceOnUse">
<stop stop-color="#FFF7ED"/>
<stop offset="0.3" stop-color="#FFF7ED"/>
<stop offset="1" stop-color="#FFF3E4"/>
</linearGradient>
<linearGradient id="paint3_linear" x1="209.349" y1="180" x2="209.349" y2="307" gradientUnits="userSpaceOnUse">
<stop stop-color="white"/>
<stop offset="1" stop-color="#FFF7ED"/>
</linearGradient>
<linearGradient id="paint4_linear" x1="178.156" y1="199.974" x2="216.677" y2="267.53" gradientUnits="userSpaceOnUse">
<stop stop-color="#FF8C7E"/>
<stop offset="1" stop-color="#E05949"/>
</linearGradient>
<linearGradient id="paint5_linear" x1="217.065" y1="440.075" x2="217.065" y2="281.425" gradientUnits="userSpaceOnUse">
<stop stop-color="white"/>
<stop offset="1" stop-color="#FFF7ED"/>
</linearGradient>
<linearGradient id="paint6_linear" x1="80.6408" y1="187.623" x2="66.2738" y2="187.623" gradientUnits="userSpaceOnUse">
<stop stop-color="#FFB3AA" stop-opacity="0.4"/>
<stop offset="0.6" stop-color="#FFB3AA" stop-opacity="0"/>
<stop offset="1" stop-color="#FFB3AA" stop-opacity="0"/>
</linearGradient>
<linearGradient id="paint7_linear" x1="65.8484" y1="0" x2="65.8484" y2="41" gradientUnits="userSpaceOnUse">
<stop stop-color="#F46F5F" stop-opacity="0"/>
<stop offset="1" stop-color="#FFB185"/>
</linearGradient>
<linearGradient id="paint8_linear" x1="88.3484" y1="96.5" x2="88.3484" y2="164.999" gradientUnits="userSpaceOnUse">
<stop stop-color="#FFB185"/>
<stop offset="1" stop-color="#F88072"/>
</linearGradient>
<clipPath id="clip0">
<rect width="329.9" height="459.3" fill="white"/>
</clipPath>
</defs>
</svg>
