<svg width="671" height="720" viewBox="0 0 671 720" fill="none" xmlns="http://www.w3.org/2000/svg">
<path d="M87.3608 515C87.3608 531.569 100.792 545 117.361 545L670.361 545V301L117.361 301C100.792 301 87.3608 314.432 87.3608 331L87.3608 515Z" fill="url(#paint0_linear)"/>
<mask id="mask0" mask-type="alpha" maskUnits="userSpaceOnUse" x="87" y="117" width="569" height="428">
<path d="M87.3608 504.54C87.3608 526.631 105.269 544.54 127.361 544.54L615.361 544.54C637.452 544.54 655.361 526.631 655.361 504.54L655.361 157.063C655.361 134.972 637.452 117.063 615.361 117.063L127.361 117.063C105.269 117.063 87.3608 134.972 87.3608 157.063L87.3608 504.54Z" fill="white"/>
</mask>
<g mask="url(#mask0)">
<mask id="mask1" mask-type="alpha" maskUnits="userSpaceOnUse" x="87" y="301" width="367" height="244">
<path d="M87.3608 514.54C87.3608 531.108 100.792 544.54 117.361 544.54L423.432 544.54C440 544.54 453.432 531.108 453.432 514.54L453.432 331.28C453.432 314.711 440 301.28 423.432 301.28L87.3608 301.28L87.3608 514.54Z" fill="white"/>
</mask>
<g mask="url(#mask1)">
<rect width="133.13" height="143.518" rx="14" transform="matrix(0.858117 -0.513454 -0.486666 -0.873588 305.668 560.703)" fill="white" fill-opacity="0.1"/>
<g opacity="0.35" filter="url(#filter0_f)">
<path d="M328.074 383.94C328.074 383.94 322.961 414.88 335.906 438.343C348.852 461.806 371.414 469.286 396.752 448.852C422.09 428.418 400.566 400.628 390.486 413.978C380.405 427.328 375.492 431.801 367.202 431.498C349.003 430.892 349.609 386.464 349.609 386.464L328.074 383.94Z" fill="#FF6B56"/>
</g>
<g opacity="0.35" filter="url(#filter1_f)">
<path d="M555.143 610.605C558.714 610.174 561.542 607.415 561.996 603.847C568.447 553.058 551.881 498.653 533.725 452.234C510.349 392.348 494.77 324.751 513.475 261.017C515.194 255.16 513.475 252.336 507.539 255.64C499.586 260.107 494.295 264.241 489.124 268.953C488.632 269.449 487.805 269.325 488.012 268.044C489.913 260.521 495.37 229.931 495.535 217.365C495.535 212.735 491.008 213.93 488.177 214.637C475.64 217.565 461.225 223.441 443.947 236.173C443.239 236.678 442.178 236.631 442.583 235.016C444.706 225.827 453.471 195.698 455.19 187.52C455.999 183.784 452.131 181.402 448.576 183.469C432.29 192.811 413.277 204.935 394.673 241.588C376.237 281.602 364.677 335.409 367.71 401.041C370.743 466.673 378.831 524.53 380.045 549.168C381.216 571.212 381.665 583.94 377.527 602.741C376.676 606.611 379.159 610.47 383.089 610.975C427.598 616.698 506.635 616.458 555.143 610.605Z" fill="#FF6755"/>
</g>
<rect width="121.274" height="123.459" rx="16" transform="matrix(0.858117 -0.513454 -0.486666 -0.873588 124.322 607.435)" fill="white" fill-opacity="0.1"/>
<rect width="152.495" height="155.243" rx="16" transform="matrix(0.858117 -0.513454 -0.486665 -0.873588 176.991 403.948)" fill="white" fill-opacity="0.1"/>
<rect width="87.2123" height="88.7837" rx="16" transform="matrix(0.858117 -0.513454 -0.486665 -0.873588 71.8267 461.621)" fill="white" fill-opacity="0.1"/>
</g>
<path d="M297.993 378.5C297.993 378.5 296.36 389.82 311.843 391.801C327.326 393.781 335.714 384.476 335.714 384.476L297.993 378.5Z" fill="#0F7FE6"/>
<path d="M333.521 401.061C333.521 401.061 328.532 431.255 341.165 454.152C353.798 477.049 375.816 484.349 400.543 464.408C425.27 444.466 404.266 417.346 394.428 430.375C384.59 443.403 379.796 447.768 371.705 447.472C353.945 446.881 354.537 403.524 354.537 403.524L333.521 401.061Z" fill="#0F7FE6"/>
<path d="M355.258 416.971L339.704 421.621C339.133 421.791 338.519 421.731 337.992 421.452L332.597 418.596C332.551 416.906 332.538 415.697 332.567 413.841C337.6 410.613 354.64 413.314 354.932 413.314C354.993 414.096 355.08 415.112 355.258 416.971Z" fill="#055DC7"/>
<path opacity="0.67" d="M389.603 471.666C388.209 472.867 382.535 474.523 379.873 475.2C379.776 470.65 375.226 454.724 371.741 447.462C378.566 447.849 383.189 443.638 386.82 439.717C388.305 449.754 390.997 470.466 389.603 471.666Z" fill="#004CB9"/>
<path d="M561.327 564.581C564.812 564.16 567.572 561.468 568.015 557.986C574.311 508.422 558.144 455.329 540.426 410.03C517.613 351.588 502.41 285.622 520.665 223.425C522.342 217.709 520.665 214.953 514.871 218.178C507.11 222.537 501.947 226.571 496.901 231.169C496.42 231.654 495.614 231.533 495.815 230.282C497.671 222.941 502.996 193.089 503.157 180.826C503.157 176.308 498.739 177.474 495.977 178.163C483.742 181.021 469.675 186.756 452.813 199.18C452.122 199.673 451.087 199.627 451.482 198.051C453.554 189.084 462.108 159.682 463.785 151.7C464.575 148.055 460.8 145.73 457.331 147.747C441.437 156.864 422.883 168.696 404.728 204.465C386.737 243.514 375.455 296.022 378.415 360.071C381.375 424.121 389.268 480.583 390.452 504.626C391.595 526.139 392.033 538.56 387.996 556.907C387.165 560.683 389.588 564.449 393.423 564.942C436.858 570.527 513.99 570.293 561.327 564.581Z" fill="url(#paint1_linear)"/>
<path fill-rule="evenodd" clip-rule="evenodd" d="M537.713 411.089L537.714 411.091C555.412 456.336 571.323 508.835 565.126 557.619C564.855 559.751 563.165 561.426 560.979 561.69C513.855 567.377 436.967 567.605 393.794 562.054C391.803 561.798 390.343 559.788 390.839 557.533C394.967 538.774 394.504 526.014 393.36 504.477C392.914 495.417 391.525 481.805 389.815 465.051C389.237 459.395 388.624 453.381 387.997 447.064C385.508 421.955 382.8 391.886 381.324 359.937C378.384 296.323 389.589 244.304 407.349 205.733C416.292 188.127 425.275 176.515 433.898 168.208C442.53 159.893 450.892 154.797 458.78 150.273L458.795 150.264C459.693 149.742 460.352 149.91 460.632 150.082C460.781 150.173 460.869 150.284 460.918 150.4C460.964 150.507 461.019 150.72 460.94 151.084L460.936 151.102C460.121 154.98 457.597 164.208 454.974 173.733C454.795 174.385 454.615 175.039 454.435 175.691C452.02 184.457 449.634 193.121 448.65 197.373C448.494 198.01 448.395 198.809 448.595 199.641C448.821 200.584 449.426 201.493 450.445 201.999C451.362 202.455 452.264 202.41 452.87 202.28C453.496 202.146 454.052 201.873 454.504 201.551C454.516 201.542 454.528 201.533 454.54 201.524C471.101 189.322 484.808 183.762 496.639 180.999C496.649 180.996 496.66 180.994 496.67 180.991L496.682 180.988L496.762 180.968C497.452 180.796 498.104 180.633 498.749 180.524C499.426 180.41 499.909 180.39 500.221 180.428C500.234 180.517 500.245 180.641 500.245 180.809C500.165 186.705 498.83 197.025 497.246 206.94C495.665 216.839 493.887 226.03 492.992 229.569C492.971 229.651 492.954 229.735 492.941 229.819C492.781 230.811 492.787 232.91 494.733 233.946C496.475 234.874 498.107 234.033 498.887 233.298C503.789 228.834 508.77 224.945 516.293 220.719C517.235 220.195 517.916 219.931 518.37 219.809C518.372 220.428 518.237 221.355 517.871 222.605C499.342 285.739 514.827 352.456 537.713 411.089ZM514.871 218.178C508.205 221.922 503.456 225.426 499.051 229.254C498.854 229.425 498.657 229.597 498.462 229.77C498.163 230.033 497.865 230.298 497.568 230.565C497.522 230.607 497.475 230.648 497.429 230.69C497.253 230.849 497.077 231.009 496.901 231.169C496.42 231.654 495.614 231.533 495.815 230.282C495.828 230.233 495.84 230.183 495.853 230.131C495.86 230.102 495.868 230.073 495.875 230.043C495.984 229.602 496.104 229.09 496.233 228.514C496.291 228.253 496.352 227.98 496.414 227.694C498.613 217.559 503.011 191.953 503.157 180.826C503.157 176.368 498.857 177.443 496.089 178.135L495.977 178.163C484.151 180.925 470.614 186.375 454.496 197.956C454.405 198.021 454.313 198.087 454.222 198.153C454.037 198.287 453.852 198.421 453.666 198.556C453.652 198.566 453.638 198.576 453.623 198.587C453.354 198.783 453.084 198.981 452.813 199.18C452.122 199.673 451.087 199.627 451.482 198.051C451.52 197.886 451.56 197.715 451.602 197.537C451.606 197.524 451.609 197.51 451.612 197.497C451.682 197.201 451.758 196.887 451.84 196.556C451.867 196.447 451.894 196.336 451.922 196.224C453.061 191.645 455.137 184.108 457.255 176.419C460.037 166.32 462.89 155.96 463.786 151.7C464.575 148.055 460.8 145.73 457.331 147.747C441.437 156.864 422.883 168.696 404.728 204.465C386.737 243.514 375.455 296.022 378.415 360.071C380.27 400.207 384.062 437.363 386.926 465.43C388.633 482.153 390.01 495.649 390.452 504.626C391.595 526.138 392.033 538.56 387.996 556.907C387.165 560.683 389.588 564.449 393.423 564.942C436.858 570.527 513.99 570.293 561.327 564.581C564.812 564.16 567.572 561.468 568.015 557.986C574.311 508.422 558.144 455.329 540.426 410.03C517.613 351.588 502.41 285.622 520.665 223.425C522.342 217.709 520.665 214.953 514.871 218.178ZM454.297 198.804C454.297 198.804 454.298 198.798 454.3 198.786C454.297 198.799 454.296 198.804 454.297 198.804ZM500.175 180.236C500.174 180.237 500.176 180.241 500.181 180.25C500.177 180.24 500.175 180.236 500.175 180.236ZM500.401 180.464C500.405 180.465 500.408 180.466 500.408 180.466C500.408 180.466 500.406 180.465 500.401 180.464Z" fill="url(#paint2_radial)"/>
<path fill-rule="evenodd" clip-rule="evenodd" d="M537.713 411.089L537.714 411.091C555.412 456.336 571.323 508.835 565.126 557.619C564.855 559.751 563.165 561.426 560.979 561.69C513.855 567.377 436.967 567.605 393.794 562.054C391.803 561.798 390.343 559.788 390.839 557.533C394.967 538.774 394.504 526.014 393.36 504.477C392.914 495.417 391.525 481.805 389.815 465.051C389.237 459.395 388.624 453.381 387.997 447.064C385.508 421.955 382.8 391.886 381.324 359.937C378.384 296.323 389.589 244.304 407.349 205.733C416.292 188.127 425.275 176.515 433.898 168.208C442.53 159.893 450.892 154.797 458.78 150.273L458.795 150.264C459.693 149.742 460.352 149.91 460.632 150.082C460.781 150.173 460.869 150.284 460.918 150.4C460.964 150.507 461.019 150.72 460.94 151.084L460.936 151.102C460.121 154.98 457.597 164.208 454.974 173.733C454.795 174.385 454.615 175.039 454.435 175.691C452.02 184.457 449.634 193.121 448.65 197.373C448.494 198.01 448.395 198.809 448.595 199.641C448.821 200.584 449.426 201.493 450.445 201.999C451.362 202.455 452.264 202.41 452.87 202.28C453.496 202.146 454.052 201.873 454.504 201.551C454.516 201.542 454.528 201.533 454.54 201.524C471.101 189.322 484.808 183.762 496.639 180.999C496.649 180.996 496.66 180.994 496.67 180.991L496.682 180.988L496.762 180.968C497.452 180.796 498.104 180.633 498.749 180.524C499.426 180.41 499.909 180.39 500.221 180.428C500.234 180.517 500.245 180.641 500.245 180.809C500.165 186.705 498.83 197.025 497.246 206.94C495.665 216.839 493.887 226.03 492.992 229.569C492.971 229.651 492.954 229.735 492.941 229.819C492.781 230.811 492.787 232.91 494.733 233.946C496.475 234.874 498.107 234.033 498.887 233.298C503.789 228.834 508.77 224.945 516.293 220.719C517.235 220.195 517.916 219.931 518.37 219.809C518.372 220.428 518.237 221.355 517.871 222.605C499.342 285.739 514.827 352.456 537.713 411.089ZM514.871 218.178C508.205 221.922 503.456 225.426 499.051 229.254C498.854 229.425 498.657 229.597 498.462 229.77C498.163 230.033 497.865 230.298 497.568 230.565C497.522 230.607 497.475 230.648 497.429 230.69C497.253 230.849 497.077 231.009 496.901 231.169C496.42 231.654 495.614 231.533 495.815 230.282C495.828 230.233 495.84 230.183 495.853 230.131C495.86 230.102 495.868 230.073 495.875 230.043C495.984 229.602 496.104 229.09 496.233 228.514C496.291 228.253 496.352 227.98 496.414 227.694C498.613 217.559 503.011 191.953 503.157 180.826C503.157 176.368 498.857 177.443 496.089 178.135L495.977 178.163C484.151 180.925 470.614 186.375 454.496 197.956C454.405 198.021 454.313 198.087 454.222 198.153C454.037 198.287 453.852 198.421 453.666 198.556C453.652 198.566 453.638 198.576 453.623 198.587C453.354 198.783 453.084 198.981 452.813 199.18C452.122 199.673 451.087 199.627 451.482 198.051C451.52 197.886 451.56 197.715 451.602 197.537C451.606 197.524 451.609 197.51 451.612 197.497C451.682 197.201 451.758 196.887 451.84 196.556C451.867 196.447 451.894 196.336 451.922 196.224C453.061 191.645 455.137 184.108 457.255 176.419C460.037 166.32 462.89 155.96 463.786 151.7C464.575 148.055 460.8 145.73 457.331 147.747C441.437 156.864 422.883 168.696 404.728 204.465C386.737 243.514 375.455 296.022 378.415 360.071C380.27 400.207 384.062 437.363 386.926 465.43C388.633 482.153 390.01 495.649 390.452 504.626C391.595 526.138 392.033 538.56 387.996 556.907C387.165 560.683 389.588 564.449 393.423 564.942C436.858 570.527 513.99 570.293 561.327 564.581C564.812 564.16 567.572 561.468 568.015 557.986C574.311 508.422 558.144 455.329 540.426 410.03C517.613 351.588 502.41 285.622 520.665 223.425C522.342 217.709 520.665 214.953 514.871 218.178ZM454.297 198.804C454.297 198.804 454.298 198.798 454.3 198.786C454.297 198.799 454.296 198.804 454.297 198.804ZM500.175 180.236C500.174 180.237 500.176 180.241 500.181 180.25C500.177 180.24 500.175 180.236 500.175 180.236ZM500.401 180.464C500.405 180.465 500.408 180.466 500.408 180.466C500.408 180.466 500.406 180.465 500.401 180.464Z" fill="url(#paint3_radial)"/>
<path d="M393.638 254.302C379.929 315.181 382.531 423.833 411.249 426.21C439.968 428.587 494.799 316.337 494.487 264.378C494.115 202.538 404.51 206.023 393.638 254.302Z" fill="url(#paint4_linear)" fill-opacity="0.18"/>
<path fill-rule="evenodd" clip-rule="evenodd" d="M379.761 301.582C377.991 319.827 377.457 339.345 378.415 360.073C379.205 377.162 380.346 393.712 381.617 409.25L405.726 402.179C406.291 402.013 406.684 401.501 406.697 400.913L408.116 339.018C408.116 339.018 409.342 308.558 387.687 303.828L387.248 303.704C385.553 303.223 382.982 302.494 379.761 301.582Z" fill="#055DC7"/>
<g style="mix-blend-mode:multiply" opacity="0.65">
<path d="M564.126 528.282C564.453 540.594 563.648 550.332 563.111 555.229C562.887 557.276 561.232 558.848 559.184 559.062C496.968 565.576 458.512 566.961 396.668 560.104C394.003 559.808 392.179 557.266 392.669 554.629C396.933 531.686 395.644 512.351 394.553 491.999C470.072 554.413 502.998 359.924 509.767 280.796C512.52 355.267 517.675 364.655 534.211 406.629C556.679 463.543 563.407 500.181 564.126 528.282Z" fill="url(#paint5_linear)" fill-opacity="0.3"/>
</g>
<path d="M405.768 336.908L322.815 308.116L258.643 320.924L338.845 352.891L405.768 336.908Z" fill="url(#paint6_linear)"/>
<path d="M386.934 335.955L322.444 313.567L277.212 322.618L339.268 347.334L386.934 335.955Z" fill="url(#paint7_linear)"/>
<path d="M338.848 352.889L338.694 420.032L403.564 401.007C403.908 400.906 404.147 400.594 404.155 400.236L405.606 336.932L338.848 352.889Z" fill="url(#paint8_linear)"/>
<path fill-rule="evenodd" clip-rule="evenodd" d="M340.618 354.289L403.781 339.191L402.399 399.501L340.472 417.663L340.618 354.289ZM338.848 352.889L405.606 336.932L404.155 400.236C404.147 400.594 403.908 400.906 403.564 401.007L338.694 420.032L338.848 352.889Z" fill="url(#paint9_linear)"/>
<path d="M396.067 394.908C396.239 394.857 396.358 394.701 396.362 394.522L397.435 347.029L347.027 359.056C346.842 359.1 346.711 359.266 346.711 359.456L346.635 408.918C346.634 409.194 346.899 409.392 347.163 409.314L396.067 394.908Z" fill="#3B566B"/>
<path d="M393.832 393.29C394.003 393.24 394.123 393.084 394.127 392.905L395.199 347.57L347.027 359.058C346.842 359.102 346.711 359.267 346.711 359.457L346.634 407.158L393.832 393.29Z" fill="#7C4E3D"/>
<path d="M393.831 393.29C394.003 393.24 394.122 393.084 394.127 392.905L395.199 347.57L347.026 359.058C346.841 359.102 346.711 359.267 346.71 359.457L346.634 407.158L393.831 393.29Z" fill="#6F4435"/>
<path fill-rule="evenodd" clip-rule="evenodd" d="M346.635 406.074L346.655 394.167L394.38 382.189L394.138 392.436L346.635 406.074ZM346.657 392.338L394.424 380.351L394.663 370.243L346.674 382.287L346.657 392.338ZM346.677 380.458L346.693 370.407L394.945 358.297L394.706 368.405L346.677 380.458ZM346.696 368.579L394.989 356.459L395.199 347.57L347.026 359.058C346.841 359.102 346.711 359.267 346.71 359.457L346.696 368.579Z" fill="url(#paint10_linear)"/>
<g style="mix-blend-mode:multiply" opacity="0.12">
<path d="M357.084 372.66C364.696 360.422 378.106 351.646 378.106 351.646L347.026 359.058C346.841 359.103 346.71 359.268 346.71 359.458L346.634 407.159C346.634 407.159 349.471 384.897 357.084 372.66Z" fill="#6C4334"/>
</g>
<path d="M338.848 352.889L338.694 420.032L260.368 381.984C260.229 381.917 260.14 381.777 260.137 381.623L258.831 320.975L338.848 352.889Z" fill="url(#paint11_linear)"/>
<path fill-rule="evenodd" clip-rule="evenodd" d="M338.694 420.032L260.368 381.984C260.229 381.917 260.14 381.777 260.137 381.623L258.831 320.975L338.848 352.889L338.694 420.032ZM260.661 323.614L337.073 354.09L336.928 417.204L261.891 380.753L260.661 323.614Z" fill="url(#paint12_linear)"/>
<path d="M330.648 358.105C330.805 358.167 330.908 358.319 330.907 358.489L330.756 406.735C330.755 407.038 330.438 407.236 330.165 407.104L301.461 393.164C301.319 393.096 301.229 392.952 301.229 392.794V347.02C301.229 346.73 301.523 346.531 301.793 346.638L330.648 358.105Z" fill="#456E81"/>
<path d="M330.648 358.105C330.805 358.168 330.908 358.32 330.907 358.489L330.754 404.769L303.619 391.546C303.478 391.477 303.388 391.333 303.388 391.176V347.262L330.648 358.105Z" fill="#6E4435"/>
<path d="M293.907 388.849C293.907 389.153 293.588 389.352 293.315 389.219L268.154 376.974C268.016 376.907 267.926 376.767 267.923 376.613L267.016 333.391C267.01 333.096 267.306 332.891 267.58 333L293.647 343.382C293.804 343.444 293.907 343.596 293.907 343.764V388.849Z" fill="#456E81"/>
<path d="M293.907 386.498L270.391 375.122C270.252 375.054 270.162 374.914 270.159 374.76L269.316 333.693L293.647 343.38C293.804 343.442 293.907 343.594 293.907 343.762V386.498Z" fill="#6E4435"/>
<path fill-rule="evenodd" clip-rule="evenodd" d="M270.391 375.122L293.907 386.498V376.67L269.973 365.711L270.159 374.76C270.162 374.914 270.252 375.054 270.391 375.122ZM269.943 364.235L293.907 375.208V364.678L269.741 354.429L269.943 364.235ZM293.907 351.789V363.234L269.712 352.972L269.491 342.216L293.907 351.789ZM293.907 350.361V343.762C293.907 343.594 293.804 343.442 293.647 343.38L269.316 333.693L269.461 340.777L293.907 350.361Z" fill="url(#paint13_linear)"/>
<path fill-rule="evenodd" clip-rule="evenodd" d="M303.388 354.08V347.262L330.648 358.105C330.805 358.168 330.908 358.32 330.907 358.489L330.886 364.861L303.388 354.08ZM330.881 366.287L330.84 378.899L303.388 367.257V355.508L330.881 366.287ZM330.835 380.342L303.388 368.701V379.551L330.796 392.101L330.835 380.342ZM330.791 393.562L330.754 404.769L303.619 391.546C303.478 391.477 303.388 391.333 303.388 391.176V381.014L330.791 393.562Z" fill="url(#paint14_linear)"/>
<g style="mix-blend-mode:multiply" opacity="0.12">
<path d="M330.908 358.209L330.77 400.394C330.77 400.394 328.504 385.623 321.108 373.389C313.712 361.156 303.387 356.864 303.387 356.864L303.388 347.262L330.908 358.209Z" fill="#6C4334"/>
</g>
<g style="mix-blend-mode:multiply" opacity="0.12">
<path d="M293.909 354.301C293.909 354.301 286.535 353.596 280.139 356.448C273.744 359.301 269.925 363.12 269.925 363.12L269.315 333.693L293.647 343.38C293.803 343.442 293.906 343.594 293.906 343.762L293.909 354.301Z" fill="#6C4334"/>
</g>
<path d="M333.504 343.303L268.494 317.422C269.649 305.252 277.506 293.698 288.059 286.688C295.068 281.99 305.544 281.066 307.315 281.528C324.646 286.226 349.911 293.313 367.087 298.165C349.68 301.786 337.278 322.968 333.504 343.303Z" fill="url(#paint15_linear)"/>
<path fill-rule="evenodd" clip-rule="evenodd" d="M268.307 305.266L338.294 332.434L338.914 330.837L268.927 303.669L268.307 305.266Z" fill="#663E30"/>
<path fill-rule="evenodd" clip-rule="evenodd" d="M275.773 294.269L346.35 320.773L346.953 319.169L276.375 292.666L275.773 294.269Z" fill="#663E30"/>
<path fill-rule="evenodd" clip-rule="evenodd" d="M282.414 283.572L353.965 306.472L354.488 304.841L282.936 281.94L282.414 283.572Z" fill="#663E30"/>
<path d="M266.93 315.968C266.93 315.968 266.953 302.94 280.664 289.46C291.91 278.445 305.081 279.293 306.391 279.37C307.7 279.447 309.715 280.724 310.023 282.264C309.042 281.994 307.189 281.503 307.189 281.503C305.063 281.255 293.912 281.757 284.823 289.075C275.734 296.392 270.57 306.485 269.106 316.807C268.443 316.55 266.93 315.968 266.93 315.968Z" fill="url(#paint16_linear)"/>
<path d="M299.612 277.599C301.692 278.138 304.423 278.731 306.81 279.424C301.929 279.162 293.989 279.909 286.826 284.685C276.272 291.746 268.412 303.299 267.01 315.431C266.974 315.743 267.154 316.037 267.445 316.153L332.169 341.907C332.581 342.071 333.039 341.819 333.124 341.384C336.996 321.619 348.836 301.335 365.47 296.778C366.471 296.47 367.626 296.547 368.628 296.778C379.257 299.782 386.575 301.862 386.575 301.862C361.695 298.165 346.519 315.23 338.742 353.007L258.788 321.195C258.788 290 285.208 272.746 299.612 277.599Z" fill="url(#paint17_linear)"/>
<path fill-rule="evenodd" clip-rule="evenodd" d="M299.159 279.071L299.198 279.082C309.143 281.859 319.091 284.617 329.036 287.375C344.358 291.623 359.676 295.87 374.976 300.181C367.297 301.259 360.684 304.806 355.113 310.836C347.214 319.388 341.514 332.819 337.612 350.9L260.339 320.154C260.625 305.518 266.92 294.182 274.833 287.021C283.017 279.615 292.654 276.88 299.12 279.059L299.159 279.071ZM258.788 321.195L338.742 353.007C338.847 352.493 338.954 351.983 339.063 351.477C346.115 318.587 358.971 301.876 379.223 301.379C381.573 301.322 384.023 301.483 386.575 301.862C384.191 301.184 381.806 300.509 379.421 299.835C362.778 295.132 346.11 290.51 329.441 285.888C319.497 283.131 309.552 280.373 299.612 277.599C285.208 272.746 258.788 290 258.788 321.195Z" fill="url(#paint18_linear)"/>
<path d="M405.447 337.063L338.742 353.007C338.742 353.007 346.522 300.707 378.642 300.707C406.91 300.707 405.447 337.063 405.447 337.063Z" fill="#5A8A9F"/>
<path fill-rule="evenodd" clip-rule="evenodd" d="M405.447 337.063L338.742 353.007C338.742 353.007 338.822 352.469 339 351.501C340.571 342.932 349.781 300.707 378.642 300.707C406.91 300.707 405.447 337.063 405.447 337.063ZM340.496 351.143C340.503 351.105 340.511 351.065 340.519 351.026C340.79 349.617 341.214 347.6 341.822 345.177C343.04 340.326 344.992 333.876 347.925 327.44C353.846 314.451 363.475 302.112 378.642 302.112C385.377 302.112 390.251 304.266 393.823 307.438C397.423 310.635 399.783 314.942 401.318 319.347C402.852 323.747 403.536 328.17 403.834 331.507C403.983 333.172 404.035 334.557 404.049 335.522C404.052 335.676 404.053 335.819 404.054 335.951L340.496 351.143Z" fill="url(#paint19_linear)"/>
<path d="M397.281 330.901C396.665 325.278 394.816 317.729 390.349 313.108C387.422 310.104 383.648 308.64 378.641 308.64C366.398 308.613 360.463 315.804 353.916 329.899C352.113 333.782 350.747 337.665 349.65 341.21C349.489 341.728 349.954 342.22 350.481 342.094L397.281 330.901Z" fill="url(#paint20_linear)"/>
<path d="M394.802 331.583C394.186 325.96 392.337 318.411 387.869 313.79C384.942 310.786 381.168 309.322 376.161 309.322C366.302 309.322 360.463 315.805 353.916 329.901C352.112 333.784 350.746 337.668 349.649 341.214C349.489 341.731 349.953 342.223 350.479 342.098L394.802 331.583Z" fill="#865442"/>
<path fill-rule="evenodd" clip-rule="evenodd" d="M365.222 338.613C362.209 334.343 360.989 328.428 362.366 322.403C363.526 317.324 366.314 313.117 369.897 310.4C363.585 312.77 358.984 319.101 353.967 329.902C352.164 333.785 350.798 337.669 349.701 341.215C349.541 341.732 350.004 342.224 350.531 342.099L365.222 338.613ZM393.555 331.892L394.854 331.584C394.747 330.61 394.603 329.579 394.415 328.515C394.348 328.9 394.271 329.285 394.183 329.671C394.009 330.432 393.799 331.173 393.555 331.892Z" fill="#6C4334"/>
<path opacity="0.45" d="M340.847 404.069C346.94 404.929 355.426 412.005 356.491 413.539L378.498 407.096C376.557 401.788 371.561 388.467 367.193 378.932C361.734 367.012 349.842 362.689 349.633 366.56C349.449 369.97 355.362 374.131 356.17 377.896C356.675 380.245 354.273 380.205 342.899 378.75C331.525 377.294 320.596 361.555 317.503 364.103C314.409 366.651 329.796 381.934 326.611 380.569C323.427 379.204 314.102 363.231 310.826 367.325C307.551 371.42 327.794 387.485 323.972 385.756C320.151 384.027 309.013 370.471 307.558 374.929C306.393 378.496 316.875 388.213 321.334 391.943C319.089 390.518 312.199 385.72 310.525 383.901C308.432 381.626 302.82 381.226 309.111 388.815C316.181 397.346 328.611 402.342 340.847 404.069Z" fill="#2E416E"/>
<path d="M437.547 293.015C466.451 294.933 488.313 283.929 488.477 271.758C488.641 259.587 469.071 242.081 441.641 239.747C414.211 237.412 398.571 251.575 398.244 264.422C397.918 277.269 408.643 291.098 437.547 293.015Z" fill="#1E2F58"/>
<path d="M436.97 293.023C465.45 294.878 486.991 284.229 487.153 272.449C487.314 260.67 468.032 243.727 441.004 241.468C413.976 239.209 398.566 252.916 398.244 265.349C397.922 277.783 408.49 291.167 436.97 293.023Z" fill="#283D6B"/>
<path d="M422.67 278.115C414.734 277.598 408.244 276.151 403.035 274.065C402.404 273.812 401.776 274.429 402.081 275.036C406.332 283.507 417.154 290.74 437.186 292.045C464.589 293.831 485.315 283.584 485.471 272.25C485.495 270.474 485.06 268.575 484.208 266.628C481.742 260.991 468.616 266.619 463.377 269.843C451.874 276.92 430.667 278.636 422.67 278.115Z" fill="#1E2F58"/>
<path d="M429.7 262.134C443.889 259.944 453.728 253.904 452.934 249.604C452.141 245.303 441.371 241.08 427.868 242.977C414.366 244.873 407.778 251.408 408.541 255.963C409.305 260.518 415.511 264.323 429.7 262.134Z" fill="#31477A"/>
<path fill-rule="evenodd" clip-rule="evenodd" d="M381.991 413.753C383.61 432.943 385.4 450.476 386.926 465.43C387.215 468.263 387.495 471.003 387.762 473.645C400.976 496.289 415.946 514.109 446.692 514.109C485.743 514.198 511.806 456.303 520.433 437.139C521.266 435.288 521.937 433.799 522.44 432.758C533.096 411.277 507.677 399.837 499.587 416.982C499.315 417.559 499.025 418.174 498.719 418.826C489.914 437.559 467.132 486.025 442.055 486.025C420.909 486.025 406.843 459.064 396.433 439.111C394.069 434.579 391.893 430.409 389.866 426.998C387.152 422.482 384.481 417.965 381.991 413.753Z" fill="url(#paint21_linear)" fill-opacity="0.62"/>
<path d="M524.738 429.048C519.015 440.872 489.514 504.823 446.692 504.725C393.807 504.725 389.86 450.628 358.978 411.311C355.327 406.68 355.228 400.078 358.879 395.348C364.503 388.056 375.751 388.648 380.487 396.629C383.94 402.443 387.986 409.341 392.13 416.238C403.082 434.665 416.106 476.641 442.055 476.641C468.004 476.641 491.98 429.935 500.071 412.789C520.09 376.446 535.394 407.567 524.738 429.048Z" fill="url(#paint22_linear)"/>
<path d="M382.855 400.572C374.665 385.003 365.588 370.715 358.385 366.576C354.044 364.015 351.084 364.212 350.097 365.394C349.012 366.675 349.702 368.449 351.873 370.124C354.537 372.39 357.892 374.755 358.287 375.445C358.78 376.135 358.089 376.233 357.695 376.233C334.508 378.105 326.614 368.449 321.681 363.817C319.609 361.65 316.057 363.226 317.34 366.182C319.708 370.518 327.206 376.824 330.265 378.894C330.462 379.091 330.561 379.386 330.364 379.583C330.265 379.78 329.969 379.879 329.772 379.78C325.726 377.711 318.042 370.379 315.378 367.128C312.714 363.876 309.162 366.93 310.938 370.182C312.812 373.532 322.174 381.456 327.404 384.609C327.7 384.806 327.798 385.102 327.601 385.397C327.404 385.594 327.108 385.693 326.91 385.594C320.793 382.934 315.101 376.955 311.845 373.704C309.379 371.339 305.925 374.196 308.195 377.645C311.155 382.178 319.609 388.452 324.246 390.225C324.641 390.324 324.74 390.817 324.542 391.112C324.345 391.309 324.148 391.408 323.852 391.309C320.201 389.93 312.753 384.785 310.292 382.486C307.831 380.186 304.825 382.665 307.135 385.541C309.445 388.416 314.38 394.364 325.43 398.798C340.625 405.006 350.492 400.276 361.148 413.973C370.521 426.093 387.295 408.948 382.855 400.572Z" fill="#2496FF"/>
<path d="M337.916 375.636C344.189 378.079 355.543 377.444 360.437 376.821C356.136 378.25 345.712 380.122 337.506 377.824C327.249 374.952 320.11 368.372 318.587 365.835C317.562 364.125 319.545 362.689 321.14 364.239C322.227 365.295 322.827 365.926 324.423 367.385L324.455 367.415C326.073 368.894 330.129 372.602 337.916 375.636Z" fill="url(#paint23_linear)"/>
<path d="M317.467 370.567C318.904 372.181 323.283 376.548 329.62 380.469C322.144 377.551 315.67 373.676 311.822 368.426C310.643 366.818 313.097 365.395 314.525 367.101C315.498 368.263 316.029 368.952 317.467 370.567Z" fill="url(#paint24_linear)"/>
<path d="M309.402 375.361C308.223 373.753 309.996 372.505 311.425 374.211C315.525 379.108 320.502 382.997 326.337 386.302C318.724 382.814 313.25 380.611 309.402 375.361Z" fill="url(#paint25_linear)"/>
<path d="M308.125 382.782C307.495 381.978 308.879 381.584 309.687 382.372C313.596 386.19 317.174 388.47 323.123 391.592C317.174 389.905 311.294 386.828 308.125 382.782Z" fill="url(#paint26_linear)"/>
<path opacity="0.59" d="M360.131 376.048C359.208 376.108 358.476 376.185 357.797 376.238C359.153 375.69 354.616 372.375 352.704 370.845C350.791 369.315 348.638 367.461 350 365.5C349.589 367.177 353.56 369.736 355.767 371.148C357.974 372.561 361.968 375.929 360.131 376.048Z" fill="#0476DF"/>
<path d="M459.044 273.588C461.403 273.705 463.404 272.016 463.513 269.817C463.622 267.617 461.797 265.74 459.437 265.623C457.077 265.507 455.076 267.195 454.968 269.395C454.859 271.594 456.684 273.472 459.044 273.588Z" fill="#141D42"/>
<path d="M458.602 273.581C460.718 273.686 462.519 272.052 462.624 269.932C462.729 267.812 461.098 266.009 458.981 265.905C456.864 265.8 455.063 267.434 454.958 269.554C454.854 271.673 456.485 273.476 458.602 273.581Z" fill="#40C7CF"/>
<path d="M456.19 269.826C456.727 270.292 457.728 270.018 458.426 269.214C459.123 268.411 459.254 267.381 458.717 266.915C458.18 266.449 457.179 266.723 456.481 267.527C455.784 268.33 455.653 269.36 456.19 269.826Z" fill="#45E4DA"/>
<path d="M456.653 268.635C456.849 268.804 457.229 268.686 457.503 268.37C457.777 268.054 457.841 267.661 457.645 267.492C457.45 267.322 457.07 267.441 456.796 267.756C456.522 268.072 456.458 268.465 456.653 268.635Z" fill="#B4FFFA"/>
<path opacity="0.61" d="M459.762 267.9C459.864 267.467 460.332 267.104 460.679 267.383C461.407 267.969 461.855 268.885 461.805 269.891C461.723 271.558 460.307 272.843 458.642 272.76C457.834 272.72 457.116 272.366 456.6 271.821C456.273 271.475 456.682 270.927 457.136 270.783C457.725 270.597 458.344 270.186 458.861 269.59C459.326 269.055 459.631 268.458 459.762 267.9Z" fill="#398596"/>
<path d="M405.894 267.767C407.952 268.137 409.866 266.675 410.168 264.5C410.471 262.325 409.048 260.261 406.99 259.891C404.932 259.52 403.018 260.983 402.716 263.158C402.413 265.333 403.836 267.396 405.894 267.767Z" fill="#141D42"/>
<path d="M405.508 267.713C407.354 268.046 409.087 266.616 409.378 264.52C409.67 262.424 408.409 260.455 406.563 260.123C404.717 259.79 402.984 261.22 402.693 263.316C402.401 265.412 403.662 267.381 405.508 267.713Z" fill="#40C7CF"/>
<path d="M403.747 263.718C404.174 264.239 405.077 264.075 405.764 263.351C406.452 262.627 406.663 261.618 406.236 261.097C405.809 260.575 404.906 260.74 404.219 261.463C403.531 262.187 403.32 263.196 403.747 263.718Z" fill="#45E4DA"/>
<path d="M404.265 262.584C404.42 262.773 404.765 262.696 405.035 262.412C405.305 262.128 405.398 261.744 405.242 261.555C405.087 261.365 404.743 261.442 404.473 261.726C404.203 262.01 404.11 262.394 404.265 262.584Z" fill="#B4FFFA"/>
<path opacity="0.61" d="M407.06 262.189C407.19 261.77 407.634 261.46 407.912 261.774C408.496 262.435 408.802 263.394 408.664 264.389C408.435 266.037 407.072 267.162 405.62 266.9C404.915 266.773 404.319 266.343 403.918 265.746C403.664 265.366 404.074 264.866 404.486 264.772C405.02 264.65 405.601 264.309 406.11 263.773C406.569 263.29 406.893 262.73 407.06 262.189Z" fill="#398596"/>
</g>
<path d="M197.361 116.999C213.929 116.999 227.361 130.43 227.361 146.999L227.361 226.999C227.361 243.568 213.929 256.999 197.361 256.999L117.361 256.999C100.792 256.999 87.3609 243.568 87.3609 226.999L87.3609 146.999C87.3609 130.43 100.792 116.999 117.361 116.999L197.361 116.999Z" fill="url(#paint27_linear)"/>
<g style="mix-blend-mode:multiply" filter="url(#filter2_f)">
<path d="M211.642 192.794C193.843 184.024 131.524 182.658 111.127 188.264C90.7299 193.871 91.9867 213.584 123.253 227.362C154.519 241.139 218.12 247.38 218.12 227.362C218.12 207.344 229.44 201.564 211.642 192.794Z" fill="#395590" fill-opacity="0.15"/>
</g>
<path d="M163.655 188.926L201.363 179.92L154.113 163.52L117.998 170.728L163.655 188.926Z" fill="white" fill-opacity="0.2" stroke="#2CAEBF" stroke-miterlimit="10" stroke-linecap="round" stroke-linejoin="round"/>
<path d="M163.904 185.641L190.239 179.354L153.895 166.737L128.965 171.725L163.904 185.641Z" fill="white" fill-opacity="0.2" stroke="#2CAEBF" stroke-miterlimit="10" stroke-linecap="round" stroke-linejoin="round"/>
<path d="M202.535 180.663L164.119 189.846L164.03 228.44L201.693 217.394L202.535 180.663Z" fill="#8BF0EA" stroke="#2CAEBF" stroke-miterlimit="10"/>
<path d="M164.165 190.276L164.166 189.883L164.549 189.791L201.855 180.874L202.486 180.723L202.471 181.372L201.655 216.993L201.646 217.358L201.296 217.461L164.72 228.189L164.077 228.377L164.079 227.708L164.165 190.276ZM164.03 228.44L201.693 217.394L202.535 180.663L164.119 189.846L164.03 228.44ZM201.702 217.391C201.702 217.391 201.702 217.391 201.702 217.391L201.702 217.391L201.706 217.404L201.702 217.391Z" fill="white" fill-opacity="0.2" stroke="#2CAEBF" stroke-miterlimit="10"/>
<path d="M197.415 214.268C197.516 214.239 197.587 214.147 197.589 214.041L198.223 185.989L168.45 193.093C168.34 193.119 168.263 193.217 168.263 193.329L168.218 222.544C168.218 222.706 168.374 222.823 168.53 222.777L197.415 214.268Z" fill="white" fill-opacity="0.2" stroke="#2CAEBF" stroke-miterlimit="10"/>
<path d="M196.095 213.311C196.196 213.282 196.267 213.19 196.269 213.084L196.902 186.307L168.45 193.092C168.341 193.118 168.263 193.216 168.263 193.328L168.218 221.502L196.095 213.311Z" fill="white" fill-opacity="0.2" stroke="#2CAEBF" stroke-miterlimit="10"/>
<path d="M196.095 213.311C196.196 213.282 196.267 213.19 196.269 213.084L196.902 186.307L168.45 193.092C168.341 193.118 168.263 193.216 168.263 193.328L168.218 221.502L196.095 213.311Z" fill="white" fill-opacity="0.2" stroke="#2CAEBF" stroke-miterlimit="10"/>
<path fill-rule="evenodd" clip-rule="evenodd" d="M168.219 220.862L168.23 213.829L196.419 206.755L196.276 212.807L168.219 220.862ZM168.232 212.749L196.444 205.669L196.586 199.699L168.242 206.812L168.232 212.749ZM168.243 205.732L168.253 199.796L196.753 192.643L196.611 198.613L168.243 205.732ZM168.255 198.716L196.778 191.557L196.902 186.307L168.45 193.092C168.341 193.118 168.263 193.216 168.263 193.328L168.255 198.716Z" fill="#6EF4EC" stroke="#2CAEBF" stroke-miterlimit="10"/>
<path d="M116.875 171.343L117.626 206.252L163.03 228.308L163.119 189.787L116.875 171.343Z" fill="#A5FFFA" stroke="#2CAEBF" stroke-miterlimit="10"/>
<path d="M116.94 172.168L116.923 171.413L117.625 171.693L162.756 189.693L163.072 189.819L163.071 190.159L162.985 227.436L162.983 228.233L162.267 227.885L117.947 206.356L117.673 206.222L117.666 205.917L116.94 172.168ZM117.626 206.252L163.03 228.308L163.119 189.787L116.875 171.343L117.626 206.252Z" fill="white" fill-opacity="0.2" stroke="#2CAEBF" stroke-miterlimit="10"/>
<path d="M158.776 192.529C158.869 192.566 158.93 192.656 158.93 192.756L158.84 221.252C158.84 221.431 158.652 221.548 158.491 221.47L141.538 213.236C141.454 213.196 141.401 213.111 141.401 213.018V185.982C141.401 185.81 141.574 185.693 141.734 185.756L158.776 192.529Z" fill="white" fill-opacity="0.2" stroke="#2CAEBF" stroke-miterlimit="10"/>
<path d="M158.776 192.529C158.869 192.566 158.93 192.656 158.93 192.756L158.839 220.091L142.812 212.281C142.729 212.24 142.676 212.155 142.676 212.062V186.125L158.776 192.529Z" fill="white" fill-opacity="0.2" stroke="#2CAEBF" stroke-miterlimit="10"/>
<path d="M137.075 210.687C137.075 210.866 136.887 210.984 136.726 210.905L121.865 203.673C121.783 203.634 121.73 203.551 121.728 203.46L121.193 177.932C121.189 177.758 121.364 177.636 121.526 177.701L136.922 183.833C137.015 183.87 137.075 183.959 137.075 184.059V210.687Z" fill="white" fill-opacity="0.2" stroke="#2CAEBF" stroke-miterlimit="10"/>
<path d="M137.075 209.296L123.186 202.577C123.104 202.537 123.051 202.455 123.049 202.363L122.551 178.108L136.922 183.829C137.015 183.866 137.075 183.956 137.075 184.055V209.296Z" fill="white" fill-opacity="0.2" stroke="#2CAEBF" stroke-miterlimit="10"/>
<path fill-rule="evenodd" clip-rule="evenodd" d="M123.186 202.577L137.075 209.296V203.492L122.939 197.019L123.049 202.363C123.051 202.455 123.104 202.537 123.186 202.577ZM122.921 196.147L137.075 202.628V196.409L122.802 190.356L122.921 196.147ZM137.075 188.796V195.556L122.785 189.495L122.654 183.142L137.075 188.796ZM137.075 187.953V184.055C137.075 183.956 137.015 183.866 136.922 183.829L122.551 178.108L122.637 182.292L137.075 187.953Z" fill="#6EF4EC" stroke="#2CAEBF" stroke-miterlimit="10"/>
<path fill-rule="evenodd" clip-rule="evenodd" d="M142.676 190.152V186.125L158.776 192.529C158.869 192.566 158.93 192.656 158.93 192.756L158.917 196.519L142.676 190.152ZM158.914 197.362L158.89 204.811L142.676 197.935V190.995L158.914 197.362ZM158.887 205.663L142.676 198.788V205.196L158.864 212.609L158.887 205.663ZM158.861 213.471L158.839 220.091L142.812 212.281C142.729 212.24 142.676 212.155 142.676 212.062V206.06L158.861 213.471Z" fill="#6EF4EC" stroke="#2CAEBF" stroke-miterlimit="10"/>
<path d="M160.463 183.786L122.066 168.5C122.748 161.311 127.389 154.487 133.621 150.347C137.761 147.572 143.949 147.026 144.995 147.299C155.231 150.074 170.154 154.26 180.299 157.126C170.017 159.264 162.692 171.775 160.463 183.786Z" fill="#B4FFFB" stroke="#2CAEBF" stroke-miterlimit="10"/>
<path fill-rule="evenodd" clip-rule="evenodd" d="M123.861 162.001L161.861 177.001L162.227 176.058L124.227 161.058L123.861 162.001Z" stroke="#2CAEBF"/>
<path fill-rule="evenodd" clip-rule="evenodd" d="M128.005 155.447L165.361 169.5L165.717 168.553L128.361 154.5L128.005 155.447Z" stroke="#2CAEBF"/>
<path fill-rule="evenodd" clip-rule="evenodd" d="M134.861 150.001L171.548 162.036L171.856 161.072L135.169 149.037L134.861 150.001Z" stroke="#2CAEBF"/>
<path d="M121.142 167.64C121.142 167.64 121.155 159.945 129.253 151.983C135.895 145.477 143.675 145.978 144.448 146.023C145.222 146.069 146.412 146.823 146.594 147.733C146.014 147.573 144.92 147.284 144.92 147.284C143.664 147.137 137.078 147.434 131.71 151.756C126.342 156.078 123.291 162.039 122.427 168.135C122.035 167.983 121.142 167.64 121.142 167.64Z" fill="#2CAEBF" stroke="#2CAEBF" stroke-miterlimit="10"/>
<path d="M140.319 145.462L140.302 145.458L140.285 145.452C136.27 144.1 130.427 145.812 125.534 150.24C120.729 154.588 116.929 161.489 116.835 170.39L163.188 188.833C165.49 177.942 168.866 169.934 173.527 164.888C177.272 160.833 181.825 158.717 187.233 158.531C185.548 158.054 183.456 157.461 181.084 156.791C180.542 156.668 179.962 156.639 179.49 156.784L179.482 156.787L179.475 156.789C174.716 158.093 170.599 161.66 167.377 166.393C164.158 171.121 161.861 176.969 160.729 182.749C160.619 183.31 160.026 183.639 159.489 183.426L121.261 168.215C120.883 168.065 120.644 167.679 120.692 167.266C121.54 159.933 126.279 152.987 132.615 148.748L132.615 148.748C135.492 146.83 138.57 145.984 141.177 145.677C140.88 145.605 140.592 145.533 140.319 145.462Z" fill="#A7FFFA" stroke="#2CAEBF" stroke-miterlimit="10"/>
<path d="M187.228 158.531C187.205 158.525 187.183 158.518 187.16 158.512L186.942 158.543C187.037 158.538 187.132 158.534 187.228 158.531Z" fill="white" fill-opacity="0.2" stroke="#2CAEBF" stroke-miterlimit="10"/>
<path d="M164.176 188.854L202.462 179.703C202.463 179.564 202.463 179.39 202.459 179.184C202.451 178.607 202.42 177.781 202.331 176.788C202.153 174.8 201.745 172.16 200.828 169.527C199.91 166.892 198.491 164.293 196.308 162.355C194.136 160.426 191.179 159.125 187.123 159.125C177.955 159.125 172.186 166.586 168.68 174.278C166.937 178.103 165.778 181.934 165.056 184.811C164.695 186.249 164.443 187.447 164.282 188.283C164.241 188.498 164.205 188.689 164.176 188.854Z" fill="#8BF0EA" stroke="#2CAEBF" stroke-miterlimit="10"/>
<mask id="path-99-inside-1" fill="white">
<path fill-rule="evenodd" clip-rule="evenodd" d="M202.955 180.099L163.557 189.516C163.557 189.516 163.604 189.198 163.709 188.627C164.637 183.565 170.076 158.625 187.123 158.625C203.819 158.625 202.955 180.099 202.955 180.099ZM164.593 188.415C164.597 188.393 164.601 188.369 164.606 188.346C164.766 187.514 165.016 186.323 165.376 184.892C166.095 182.026 167.248 178.216 168.981 174.415C172.477 166.744 178.165 159.455 187.123 159.455C191.101 159.455 193.98 160.728 196.089 162.601C198.216 164.49 199.61 167.033 200.516 169.635C201.422 172.234 201.826 174.846 202.002 176.818C202.09 177.801 202.121 178.619 202.13 179.189C202.131 179.28 202.132 179.364 202.132 179.442L164.593 188.415Z"/>
</mask>
<path fill-rule="evenodd" clip-rule="evenodd" d="M202.955 180.099L163.557 189.516C163.557 189.516 163.604 189.198 163.709 188.627C164.637 183.565 170.076 158.625 187.123 158.625C203.819 158.625 202.955 180.099 202.955 180.099ZM164.593 188.415C164.597 188.393 164.601 188.369 164.606 188.346C164.766 187.514 165.016 186.323 165.376 184.892C166.095 182.026 167.248 178.216 168.981 174.415C172.477 166.744 178.165 159.455 187.123 159.455C191.101 159.455 193.98 160.728 196.089 162.601C198.216 164.49 199.61 167.033 200.516 169.635C201.422 172.234 201.826 174.846 202.002 176.818C202.09 177.801 202.121 178.619 202.13 179.189C202.131 179.28 202.132 179.364 202.132 179.442L164.593 188.415Z" fill="white" fill-opacity="0.2"/>
<path d="M202.955 180.099L203.954 180.139L203.924 180.896L203.187 181.071L202.955 180.099ZM163.557 189.516L163.789 190.489L162.35 190.833L162.567 189.369L163.557 189.516ZM163.709 188.627L162.725 188.446V188.446L163.709 188.627ZM164.606 188.346L163.624 188.157L163.624 188.157L164.606 188.346ZM164.593 188.415L164.825 189.388L163.32 189.748L163.61 188.228L164.593 188.415ZM165.376 184.892L164.406 184.648L165.376 184.892ZM168.981 174.415L169.89 174.83V174.83L168.981 174.415ZM196.089 162.601L196.753 161.853V161.853L196.089 162.601ZM200.516 169.635L199.572 169.964L200.516 169.635ZM202.002 176.818L202.998 176.729H202.998L202.002 176.818ZM202.13 179.189L201.13 179.204L202.13 179.189ZM202.132 179.442L203.132 179.437L203.136 180.23L202.365 180.415L202.132 179.442ZM163.557 189.516C162.567 189.369 162.567 189.369 162.567 189.369C162.567 189.369 162.567 189.369 162.567 189.369C162.567 189.369 162.567 189.369 162.567 189.369C162.568 189.369 162.568 189.369 162.568 189.368C162.568 189.368 162.568 189.368 162.568 189.367C162.568 189.366 162.568 189.365 162.568 189.364C162.569 189.36 162.569 189.356 162.57 189.351C162.572 189.339 162.574 189.323 162.578 189.303C162.584 189.261 162.594 189.201 162.607 189.123C162.633 188.966 162.672 188.738 162.725 188.446L164.692 188.807C164.641 189.087 164.604 189.303 164.58 189.449C164.568 189.521 164.559 189.576 164.554 189.612C164.551 189.631 164.549 189.644 164.547 189.652C164.547 189.657 164.546 189.66 164.546 189.662C164.546 189.662 164.546 189.663 164.546 189.663C164.546 189.664 164.546 189.664 164.546 189.664C164.546 189.664 164.546 189.664 164.546 189.664C164.546 189.664 164.546 189.664 164.546 189.663C164.546 189.663 164.546 189.663 164.546 189.663C164.546 189.663 164.546 189.663 163.557 189.516ZM162.725 188.446C163.195 185.882 164.809 178.265 168.486 171.263C172.146 164.294 178.027 157.625 187.123 157.625V159.625C179.172 159.625 173.81 165.427 170.257 172.193C166.72 178.927 165.15 186.31 164.692 188.807L162.725 188.446ZM187.123 157.625C191.533 157.625 194.848 159.052 197.304 161.233C199.74 163.396 201.274 166.25 202.244 169.033C203.215 171.82 203.641 174.591 203.825 176.655C203.917 177.689 203.95 178.553 203.959 179.161C203.964 179.465 203.963 179.706 203.96 179.872C203.959 179.955 203.958 180.02 203.956 180.065C203.956 180.087 203.955 180.105 203.955 180.117C203.955 180.124 203.954 180.129 203.954 180.132C203.954 180.134 203.954 180.135 203.954 180.137C203.954 180.137 203.954 180.138 203.954 180.138C203.954 180.139 203.954 180.139 202.955 180.099C201.956 180.059 201.956 180.059 201.956 180.059C201.956 180.059 201.956 180.059 201.956 180.059C201.956 180.059 201.956 180.059 201.956 180.058C201.956 180.056 201.956 180.053 201.956 180.049C201.956 180.041 201.957 180.028 201.957 180.01C201.958 179.973 201.959 179.917 201.961 179.843C201.963 179.695 201.964 179.475 201.959 179.191C201.951 178.625 201.92 177.811 201.833 176.833C201.658 174.87 201.255 172.273 200.356 169.691C199.455 167.106 198.074 164.591 195.976 162.728C193.899 160.884 191.061 159.625 187.123 159.625V157.625ZM165.588 188.535C165.583 188.558 165.579 188.581 165.575 188.603L163.61 188.228C163.615 188.204 163.619 188.181 163.624 188.157L165.588 188.535ZM166.346 185.135C165.991 186.546 165.745 187.719 165.588 188.535L163.624 188.157C163.787 187.309 164.041 186.1 164.406 184.648L166.346 185.135ZM169.89 174.83C168.191 178.559 167.056 182.307 166.346 185.135L164.406 184.648C165.135 181.746 166.305 177.874 168.071 174L169.89 174.83ZM187.123 160.455C178.8 160.455 173.359 167.221 169.89 174.83L168.071 174C171.596 166.266 177.529 158.455 187.123 158.455V160.455ZM195.425 163.349C193.505 161.644 190.865 160.455 187.123 160.455V158.455C191.337 158.455 194.454 159.812 196.753 161.853L195.425 163.349ZM199.572 169.964C198.7 167.462 197.383 165.087 195.425 163.349L196.753 161.853C199.049 163.892 200.519 166.605 201.461 169.306L199.572 169.964ZM201.006 176.906C200.835 174.986 200.442 172.461 199.572 169.964L201.461 169.306C202.402 172.008 202.818 174.707 202.998 176.729L201.006 176.906ZM201.13 179.204C201.121 178.655 201.092 177.862 201.006 176.906L202.998 176.729C203.089 177.74 203.12 178.583 203.129 179.174L201.13 179.204ZM201.132 179.448C201.132 179.373 201.131 179.292 201.13 179.204L203.129 179.174C203.131 179.268 203.132 179.356 203.132 179.437L201.132 179.448ZM164.36 187.443L201.9 178.47L202.365 180.415L164.825 189.388L164.36 187.443ZM203.187 181.071L163.789 190.489L163.324 188.544L202.722 179.126L203.187 181.071Z" fill="#2CAEBF" mask="url(#path-99-inside-1)"/>
<path d="M198.132 176.461C197.768 173.14 196.676 168.681 194.037 165.952C192.309 164.177 190.079 163.313 187.122 163.313C179.891 163.297 176.385 167.544 172.518 175.87C171.454 178.163 170.647 180.456 169.999 182.55C169.904 182.856 170.179 183.146 170.49 183.072L198.132 176.461Z" fill="white" fill-opacity="0.2" stroke="#2CAEBF" stroke-miterlimit="10"/>
<path d="M196.667 176.862C196.304 173.541 195.212 169.083 192.573 166.353C190.844 164.579 188.615 163.714 185.658 163.714C179.835 163.714 176.386 167.543 172.519 175.869C171.454 178.162 170.647 180.456 169.998 182.551C169.904 182.856 170.178 183.147 170.489 183.073L196.667 176.862Z" fill="#6EF4EC" stroke="#2CAEBF" stroke-miterlimit="10"/>
<rect x="259.361" y="117.423" width="75.5759" height="75.5759" rx="16" fill="#666AF7"/>
<mask id="mask2" mask-type="alpha" maskUnits="userSpaceOnUse" x="259" y="117" width="76" height="76">
<rect width="75.5759" height="75.5759" rx="16" transform="matrix(-1 -1.21085e-09 1.22786e-09 1 334.937 117.422)" fill="white"/>
</mask>
<g mask="url(#mask2)">
<path d="M315.85 197.937L288.951 197.937C288.061 197.937 287.614 196.86 288.244 196.23L299.487 184.987C300.117 184.357 299.671 183.28 298.78 183.28L274.295 183.28C273.404 183.28 272.958 182.203 273.588 181.573L284.83 170.331C285.46 169.701 285.014 168.623 284.123 168.623L259.638 168.623C258.747 168.623 258.301 167.546 258.931 166.916L270.174 155.674C270.804 155.044 270.357 153.967 269.466 153.967L242.567 153.967" stroke="#364AFF" stroke-opacity="0.15" stroke-width="3"/>
<path d="M283.854 117.111L269.467 131.499C268.837 132.129 269.283 133.206 270.174 133.206L289.081 133.206C289.972 133.206 290.418 134.283 289.788 134.913L278.546 146.155C277.916 146.785 278.362 147.862 279.253 147.862L303.738 147.862C304.629 147.862 305.075 148.939 304.445 149.569L293.203 160.812C292.573 161.442 293.019 162.519 293.91 162.519L318.394 162.519C319.285 162.519 319.732 163.596 319.102 164.226L307.859 175.468C307.229 176.098 307.675 177.175 308.566 177.175L325.527 177.175C326.417 177.175 326.864 178.253 326.234 178.883L306.519 198.598" stroke="#364AFF" stroke-opacity="0.15" stroke-width="3"/>
<path d="M355.191 156.303L328.292 156.303C327.401 156.303 326.955 155.226 327.585 154.596L338.827 143.353C339.457 142.723 339.011 141.646 338.12 141.646L313.635 141.646C312.744 141.646 312.298 140.569 312.928 139.939L324.17 128.697C324.8 128.067 324.354 126.99 323.463 126.99L298.979 126.99C298.088 126.99 297.642 125.913 298.272 125.283L309.514 114.04C310.144 113.41 309.698 112.333 308.807 112.333L281.908 112.333" stroke="#364AFF" stroke-opacity="0.15" stroke-width="3"/>
<rect width="75.5759" height="75.5759" rx="16" transform="matrix(-1 -1.21085e-09 1.22786e-09 1 334.937 117.422)" fill="url(#paint28_linear)"/>
</g>
<path fill-rule="evenodd" clip-rule="evenodd" d="M281.782 155.97C280.865 159.252 281.114 162.75 282.487 165.869C283.86 168.988 286.272 171.534 289.312 173.074C292.352 174.614 295.831 175.052 299.158 174.314C302.485 173.576 305.453 171.707 307.556 169.026C307.897 168.592 308.526 168.516 308.96 168.857C309.395 169.198 309.471 169.826 309.13 170.261C306.741 173.306 303.37 175.428 299.591 176.267C295.813 177.105 291.861 176.607 288.408 174.858C284.955 173.109 282.216 170.217 280.657 166.675C279.097 163.132 278.814 159.159 279.856 155.431C280.898 151.704 283.2 148.453 286.37 146.233C289.54 144.012 293.382 142.96 297.241 143.254C301.1 143.549 304.738 145.172 307.534 147.848C308.171 148.458 308.756 149.113 309.284 149.808L310.885 145.528C311.031 145.137 311.405 144.878 311.822 144.878H312.697V158.761C312.697 159.887 311.124 160.154 310.753 159.091L308.486 152.599C308.43 152.44 308.416 152.27 308.444 152.105C307.803 151.084 307.035 150.138 306.151 149.293C303.689 146.937 300.487 145.508 297.089 145.248C293.691 144.989 290.309 145.916 287.518 147.871C284.727 149.826 282.7 152.688 281.782 155.97ZM295.131 148.716H297.149L298.327 158.334L303.644 163.478L302.559 164.749L296.064 160.694C295.875 160.576 295.72 160.428 295.598 160.261C294.872 159.939 294.383 159.187 294.444 158.341L295.131 148.716Z" fill="#4F54E5"/>
<path d="M282.487 165.869L282.029 166.07L282.487 165.869ZM281.782 155.97L281.301 155.835L281.782 155.97ZM289.312 173.074L289.538 172.628L289.312 173.074ZM299.158 174.314L299.05 173.826L299.158 174.314ZM307.556 169.026L307.949 169.335L307.556 169.026ZM308.96 168.857L309.269 168.463L308.96 168.857ZM309.13 170.261L309.523 170.569L309.13 170.261ZM299.591 176.267L299.483 175.778L299.591 176.267ZM288.408 174.858L288.182 175.304L288.408 174.858ZM280.657 166.675L280.199 166.876H280.199L280.657 166.675ZM279.856 155.431L280.338 155.566L279.856 155.431ZM286.37 146.233L286.657 146.642L286.37 146.233ZM297.241 143.254L297.279 142.756V142.756L297.241 143.254ZM307.534 147.848L307.88 147.487V147.487L307.534 147.848ZM309.284 149.808L308.886 150.111L309.434 150.832L309.752 149.983L309.284 149.808ZM310.885 145.528L310.417 145.353V145.353L310.885 145.528ZM312.697 144.878H313.197V144.378H312.697V144.878ZM310.753 159.091L311.225 158.926V158.926L310.753 159.091ZM308.486 152.599L308.014 152.764V152.764L308.486 152.599ZM308.444 152.105L308.937 152.188L308.968 152L308.867 151.84L308.444 152.105ZM306.151 149.293L306.497 148.932V148.932L306.151 149.293ZM297.089 145.248L297.051 145.747L297.089 145.248ZM287.518 147.871L287.231 147.461V147.461L287.518 147.871ZM297.149 148.716L297.645 148.655L297.591 148.216H297.149V148.716ZM295.131 148.716V148.216H294.666L294.632 148.68L295.131 148.716ZM298.327 158.334L297.831 158.395L297.852 158.571L297.98 158.694L298.327 158.334ZM303.644 163.478L304.024 163.802L304.329 163.445L303.991 163.118L303.644 163.478ZM302.559 164.749L302.294 165.173L302.66 165.401L302.939 165.074L302.559 164.749ZM296.064 160.694L295.799 161.118V161.118L296.064 160.694ZM295.598 160.261L296.003 159.967L295.924 159.858L295.801 159.804L295.598 160.261ZM294.444 158.341L294.942 158.376L294.444 158.341ZM282.945 165.667C281.618 162.654 281.378 159.275 282.264 156.104L281.301 155.835C280.352 159.228 280.61 162.846 282.029 166.07L282.945 165.667ZM289.538 172.628C286.601 171.14 284.271 168.68 282.945 165.667L282.029 166.07C283.449 169.295 285.943 171.928 289.086 173.52L289.538 172.628ZM299.05 173.826C295.836 174.539 292.474 174.116 289.538 172.628L289.086 173.52C292.229 175.112 295.827 175.565 299.266 174.802L299.05 173.826ZM307.163 168.718C305.131 171.308 302.264 173.113 299.05 173.826L299.266 174.802C302.706 174.039 305.775 172.107 307.949 169.335L307.163 168.718ZM309.269 168.463C308.617 167.952 307.674 168.066 307.163 168.718L307.949 169.335C308.12 169.118 308.434 169.08 308.652 169.25L309.269 168.463ZM309.523 170.569C310.034 169.917 309.921 168.975 309.269 168.463L308.652 169.25C308.869 169.42 308.907 169.735 308.736 169.952L309.523 170.569ZM299.7 176.755C303.591 175.891 307.063 173.705 309.523 170.569L308.736 169.952C306.419 172.906 303.149 174.965 299.483 175.778L299.7 176.755ZM288.182 175.304C291.738 177.105 295.808 177.618 299.7 176.755L299.483 175.778C295.817 176.592 291.983 176.109 288.634 174.412L288.182 175.304ZM280.199 166.876C281.805 170.524 284.626 173.503 288.182 175.304L288.634 174.412C285.284 172.715 282.627 169.91 281.114 166.473L280.199 166.876ZM279.375 155.297C278.302 159.136 278.593 163.228 280.199 166.876L281.114 166.473C279.602 163.037 279.327 159.182 280.338 155.566L279.375 155.297ZM286.083 145.823C282.819 148.11 280.448 151.458 279.375 155.297L280.338 155.566C281.349 151.95 283.582 148.796 286.657 146.642L286.083 145.823ZM297.279 142.756C293.305 142.452 289.348 143.536 286.083 145.823L286.657 146.642C289.732 144.488 293.459 143.467 297.203 143.753L297.279 142.756ZM307.88 147.487C305 144.731 301.254 143.059 297.279 142.756L297.203 143.753C300.947 144.038 304.476 145.614 307.188 148.21L307.88 147.487ZM309.682 149.505C309.138 148.79 308.536 148.115 307.88 147.487L307.188 148.21C307.806 148.801 308.373 149.437 308.886 150.111L309.682 149.505ZM310.417 145.353L308.815 149.633L309.752 149.983L311.354 145.703L310.417 145.353ZM311.822 144.378C311.196 144.378 310.636 144.767 310.417 145.353L311.354 145.703C311.427 145.508 311.613 145.378 311.822 145.378V144.378ZM312.697 144.378H311.822V145.378H312.697V144.378ZM313.197 158.761V144.878H312.197V158.761H313.197ZM310.281 159.255C310.838 160.85 313.197 160.45 313.197 158.761H312.197C312.197 159.324 311.41 159.457 311.225 158.926L310.281 159.255ZM308.014 152.764L310.281 159.255L311.225 158.926L308.958 152.434L308.014 152.764ZM307.951 152.023C307.909 152.27 307.931 152.525 308.014 152.764L308.958 152.434C308.93 152.355 308.923 152.27 308.937 152.188L307.951 152.023ZM305.806 149.654C306.659 150.471 307.401 151.384 308.02 152.371L308.867 151.84C308.205 150.784 307.41 149.806 306.497 148.932L305.806 149.654ZM297.051 145.747C300.333 145.997 303.427 147.378 305.806 149.654L306.497 148.932C303.952 146.496 300.64 145.018 297.127 144.75L297.051 145.747ZM287.804 148.28C290.501 146.392 293.769 145.496 297.051 145.747L297.127 144.75C293.614 144.482 290.117 145.44 287.231 147.461L287.804 148.28ZM282.264 156.104C283.15 152.934 285.108 150.169 287.804 148.28L287.231 147.461C284.345 149.483 282.249 152.442 281.301 155.835L282.264 156.104ZM297.149 148.216H295.131V149.216H297.149V148.216ZM298.824 158.273L297.645 148.655L296.652 148.777L297.831 158.395L298.824 158.273ZM303.991 163.118L298.675 157.975L297.98 158.694L303.296 163.837L303.991 163.118ZM302.939 165.074L304.024 163.802L303.263 163.153L302.179 164.425L302.939 165.074ZM295.799 161.118L302.294 165.173L302.824 164.325L296.329 160.27L295.799 161.118ZM295.194 160.554C295.352 160.773 295.555 160.966 295.799 161.118L296.329 160.27C296.196 160.187 296.087 160.083 296.003 159.967L295.194 160.554ZM293.945 158.305C293.869 159.37 294.485 160.315 295.396 160.718L295.801 159.804C295.26 159.564 294.898 159.005 294.942 158.376L293.945 158.305ZM294.632 148.68L293.945 158.305L294.942 158.376L295.63 148.752L294.632 148.68Z" fill="#4F54E5"/>
<path fill-rule="evenodd" clip-rule="evenodd" d="M281.782 152.427C280.865 155.709 281.114 159.207 282.487 162.326C283.86 165.445 286.272 167.991 289.312 169.531C292.352 171.071 295.831 171.509 299.158 170.771C302.485 170.033 305.453 168.164 307.556 165.483C307.897 165.049 308.526 164.973 308.96 165.314C309.395 165.655 309.471 166.283 309.13 166.718C306.741 169.763 303.37 171.885 299.591 172.724C295.813 173.562 291.861 173.064 288.408 171.315C284.955 169.566 282.216 166.674 280.657 163.132C279.097 159.589 278.814 155.616 279.856 151.888C280.898 148.161 283.2 144.91 286.37 142.69C289.54 140.469 293.382 139.417 297.241 139.711C301.1 140.006 304.738 141.629 307.534 144.305C308.171 144.915 308.756 145.571 309.284 146.265L310.885 141.985C311.031 141.594 311.405 141.335 311.822 141.335H312.697V155.218C312.697 156.344 311.124 156.611 310.753 155.548L308.486 149.056C308.43 148.897 308.416 148.727 308.444 148.563C307.803 147.541 307.035 146.595 306.151 145.75C303.689 143.394 300.487 141.965 297.089 141.705C293.691 141.446 290.309 142.373 287.518 144.328C284.727 146.283 282.7 149.145 281.782 152.427ZM295.131 146.354H297.149L298.327 155.972L303.644 161.116L302.559 162.387L296.064 158.332C295.875 158.214 295.72 158.066 295.598 157.899C294.872 157.577 294.383 156.825 294.444 155.978L295.131 146.354Z" fill="white"/>
<path d="M282.487 162.326L282.029 162.527L282.487 162.326ZM281.782 152.427L281.301 152.292L281.782 152.427ZM299.158 170.771L299.05 170.283L299.158 170.771ZM307.556 165.483L307.949 165.792L307.556 165.483ZM309.13 166.718L309.523 167.026L309.13 166.718ZM299.591 172.724L299.483 172.235L299.591 172.724ZM288.408 171.315L288.634 170.869L288.408 171.315ZM280.657 163.132L281.114 162.93L280.657 163.132ZM279.856 151.888L279.375 151.754H279.375L279.856 151.888ZM286.37 142.69L286.657 143.099L286.37 142.69ZM297.241 139.711L297.279 139.213V139.213L297.241 139.711ZM307.534 144.305L307.188 144.667L307.534 144.305ZM309.284 146.265L308.886 146.568L309.434 147.289L309.752 146.44L309.284 146.265ZM310.885 141.985L310.417 141.81V141.81L310.885 141.985ZM312.697 141.335H313.197V140.835H312.697V141.335ZM310.753 155.548L311.225 155.383V155.383L310.753 155.548ZM308.486 149.056L308.958 148.892L308.958 148.892L308.486 149.056ZM308.444 148.563L308.937 148.645L308.968 148.457L308.867 148.297L308.444 148.563ZM306.151 145.75L305.806 146.112V146.112L306.151 145.75ZM297.089 141.705L297.051 142.204L297.089 141.705ZM287.518 144.328L287.231 143.918V143.918L287.518 144.328ZM297.149 146.354L297.645 146.293L297.591 145.854H297.149V146.354ZM295.131 146.354V145.854H294.666L294.632 146.318L295.131 146.354ZM298.327 155.972L297.831 156.033L297.852 156.209L297.98 156.332L298.327 155.972ZM303.644 161.116L304.024 161.44L304.329 161.083L303.991 160.756L303.644 161.116ZM302.559 162.387L302.294 162.811L302.66 163.039L302.939 162.712L302.559 162.387ZM296.064 158.332L295.799 158.756V158.756L296.064 158.332ZM295.598 157.899L296.003 157.605L295.924 157.496L295.801 157.441L295.598 157.899ZM294.444 155.978L294.942 156.014L294.444 155.978ZM282.945 162.124C281.618 159.112 281.378 155.732 282.264 152.561L281.301 152.292C280.352 155.686 280.61 159.303 282.029 162.527L282.945 162.124ZM289.538 169.085C286.601 167.597 284.271 165.137 282.945 162.124L282.029 162.527C283.449 165.752 285.943 168.385 289.086 169.977L289.538 169.085ZM299.05 170.283C295.836 170.996 292.474 170.573 289.538 169.085L289.086 169.977C292.229 171.569 295.827 172.022 299.266 171.259L299.05 170.283ZM307.163 165.175C305.131 167.765 302.264 169.57 299.05 170.283L299.266 171.259C302.706 170.496 305.775 168.564 307.949 165.792L307.163 165.175ZM309.269 164.92C308.617 164.409 307.674 164.523 307.163 165.175L307.949 165.792C308.12 165.575 308.434 165.537 308.652 165.707L309.269 164.92ZM309.523 167.026C310.034 166.375 309.921 165.432 309.269 164.92L308.652 165.707C308.869 165.877 308.907 166.192 308.736 166.409L309.523 167.026ZM299.7 173.212C303.591 172.348 307.063 170.162 309.523 167.026L308.736 166.409C306.419 169.363 303.149 171.422 299.483 172.235L299.7 173.212ZM288.182 171.761C291.738 173.562 295.808 174.075 299.7 173.212L299.483 172.235C295.817 173.049 291.983 172.566 288.634 170.869L288.182 171.761ZM280.199 163.333C281.805 166.981 284.626 169.96 288.182 171.761L288.634 170.869C285.284 169.172 282.627 166.367 281.114 162.93L280.199 163.333ZM279.375 151.754C278.302 155.593 278.593 159.685 280.199 163.333L281.114 162.93C279.602 159.494 279.327 155.639 280.338 152.023L279.375 151.754ZM286.083 142.28C282.819 144.567 280.448 147.915 279.375 151.754L280.338 152.023C281.349 148.407 283.582 145.253 286.657 143.099L286.083 142.28ZM297.279 139.213C293.305 138.909 289.348 139.993 286.083 142.28L286.657 143.099C289.732 140.945 293.459 139.924 297.203 140.21L297.279 139.213ZM307.88 143.944C305 141.188 301.254 139.516 297.279 139.213L297.203 140.21C300.947 140.496 304.476 142.071 307.188 144.667L307.88 143.944ZM309.682 145.962C309.138 145.247 308.536 144.572 307.88 143.944L307.188 144.667C307.806 145.258 308.373 145.894 308.886 146.568L309.682 145.962ZM310.417 141.81L308.815 146.09L309.752 146.44L311.354 142.16L310.417 141.81ZM311.822 140.835C311.196 140.835 310.636 141.224 310.417 141.81L311.354 142.16C311.427 141.965 311.613 141.835 311.822 141.835V140.835ZM312.697 140.835H311.822V141.835H312.697V140.835ZM313.197 155.218V141.335H312.197V155.218H313.197ZM310.281 155.712C310.838 157.307 313.197 156.907 313.197 155.218H312.197C312.197 155.781 311.41 155.914 311.225 155.383L310.281 155.712ZM308.014 149.221L310.281 155.712L311.225 155.383L308.958 148.892L308.014 149.221ZM307.951 148.48C307.909 148.727 307.931 148.982 308.014 149.221L308.958 148.892C308.93 148.812 308.923 148.727 308.937 148.645L307.951 148.48ZM305.806 146.112C306.659 146.928 307.401 147.842 308.02 148.828L308.867 148.297C308.205 147.241 307.41 146.263 306.497 145.389L305.806 146.112ZM297.051 142.204C300.333 142.454 303.427 143.835 305.806 146.112L306.497 145.389C303.952 142.953 300.64 141.475 297.127 141.207L297.051 142.204ZM287.804 144.737C290.501 142.849 293.769 141.953 297.051 142.204L297.127 141.207C293.614 140.939 290.117 141.897 287.231 143.918L287.804 144.737ZM282.264 152.561C283.15 149.391 285.108 146.626 287.804 144.737L287.231 143.918C284.345 145.94 282.249 148.899 281.301 152.292L282.264 152.561ZM297.149 145.854H295.131V146.854H297.149V145.854ZM298.824 155.911L297.645 146.293L296.652 146.415L297.831 156.033L298.824 155.911ZM303.991 160.756L298.675 155.613L297.98 156.332L303.296 161.475L303.991 160.756ZM302.939 162.712L304.024 161.44L303.263 160.791L302.179 162.063L302.939 162.712ZM295.799 158.756L302.294 162.811L302.824 161.963L296.329 157.908L295.799 158.756ZM295.194 158.192C295.352 158.411 295.555 158.604 295.799 158.756L296.329 157.908C296.196 157.825 296.087 157.721 296.003 157.605L295.194 158.192ZM293.945 155.943C293.869 157.008 294.485 157.952 295.396 158.356L295.801 157.441C295.26 157.202 294.898 156.643 294.942 156.014L293.945 155.943ZM294.632 146.318L293.945 155.943L294.942 156.014L295.63 146.39L294.632 146.318Z" fill="white"/>
<defs>
<filter id="filter0_f" x="308.078" y="364.94" width="119.56" height="114.798" filterUnits="userSpaceOnUse" color-interpolation-filters="sRGB">
<feFlood flood-opacity="0" result="BackgroundImageFix"/>
<feBlend mode="normal" in="SourceGraphic" in2="BackgroundImageFix" result="shape"/>
<feGaussianBlur stdDeviation="9.5" result="effect1_foregroundBlur"/>
</filter>
<filter id="filter1_f" x="346.228" y="161.704" width="238.19" height="474.43" filterUnits="userSpaceOnUse" color-interpolation-filters="sRGB">
<feFlood flood-opacity="0" result="BackgroundImageFix"/>
<feBlend mode="normal" in="SourceGraphic" in2="BackgroundImageFix" result="shape"/>
<feGaussianBlur stdDeviation="10.5" result="effect1_foregroundBlur"/>
</filter>
<filter id="filter2_f" x="74.3026" y="158.942" width="169.163" height="104.814" filterUnits="userSpaceOnUse" color-interpolation-filters="sRGB">
<feFlood flood-opacity="0" result="BackgroundImageFix"/>
<feBlend mode="normal" in="SourceGraphic" in2="BackgroundImageFix" result="shape"/>
<feGaussianBlur stdDeviation="10.2791" result="effect1_foregroundBlur"/>
</filter>
<linearGradient id="paint0_linear" x1="104.361" y1="311.5" x2="670.361" y2="545.001" gradientUnits="userSpaceOnUse">
<stop stop-color="#FFCA62"/>
<stop offset="1" stop-color="#FFB547"/>
</linearGradient>
<linearGradient id="paint1_linear" x1="391.425" y1="214.762" x2="554.662" y2="582.646" gradientUnits="userSpaceOnUse">
<stop stop-color="#108CFF"/>
<stop offset="0.567215" stop-color="#108CFF"/>
<stop offset="1" stop-color="#005CC8"/>
</linearGradient>
<radialGradient id="paint2_radial" cx="0" cy="0" r="1" gradientUnits="userSpaceOnUse" gradientTransform="translate(376.049 322.423) rotate(62.2115) scale(192.266 82.2714)">
<stop stop-color="#8BF1EB"/>
<stop offset="1" stop-color="#8BF1EB" stop-opacity="0"/>
</radialGradient>
<radialGradient id="paint3_radial" cx="0" cy="0" r="1" gradientUnits="userSpaceOnUse" gradientTransform="translate(399.14 210.095) rotate(72.9225) scale(113.294 48.415)">
<stop stop-color="#3EA2FF"/>
<stop offset="1" stop-color="white" stop-opacity="0"/>
</radialGradient>
<linearGradient id="paint4_linear" x1="456.752" y1="360.098" x2="485.025" y2="232.024" gradientUnits="userSpaceOnUse">
<stop stop-color="#58AFFF"/>
<stop offset="1" stop-color="#58AFFF" stop-opacity="0"/>
</linearGradient>
<linearGradient id="paint5_linear" x1="537.977" y1="597.645" x2="446.121" y2="430.857" gradientUnits="userSpaceOnUse">
<stop stop-color="#1769C1"/>
<stop offset="0.800566" stop-color="#1769C1" stop-opacity="0"/>
</linearGradient>
<linearGradient id="paint6_linear" x1="332.205" y1="315.965" x2="332.205" y2="352.891" gradientUnits="userSpaceOnUse">
<stop stop-color="#A1C7D6"/>
<stop offset="1" stop-color="#C6D7DE"/>
</linearGradient>
<linearGradient id="paint7_linear" x1="332.073" y1="313.567" x2="332.073" y2="336.738" gradientUnits="userSpaceOnUse">
<stop stop-color="#8BB4C4"/>
<stop offset="1" stop-color="#456E81"/>
</linearGradient>
<linearGradient id="paint8_linear" x1="341.135" y1="354.186" x2="401.104" y2="402.18" gradientUnits="userSpaceOnUse">
<stop stop-color="#83AFC3"/>
<stop offset="1" stop-color="#518298"/>
</linearGradient>
<linearGradient id="paint9_linear" x1="338.453" y1="353.447" x2="352.165" y2="361.283" gradientUnits="userSpaceOnUse">
<stop stop-color="#FEFFFF"/>
<stop offset="1" stop-color="#FEFFFF" stop-opacity="0"/>
</linearGradient>
<linearGradient id="paint10_linear" x1="391.307" y1="349.337" x2="350.239" y2="407.326" gradientUnits="userSpaceOnUse">
<stop stop-color="#8F5B48"/>
<stop offset="1" stop-color="#7C4E3D"/>
</linearGradient>
<linearGradient id="paint11_linear" x1="261.176" y1="325.092" x2="338.166" y2="419.103" gradientUnits="userSpaceOnUse">
<stop stop-color="#80ACC0"/>
<stop offset="1" stop-color="#CBD9E0"/>
</linearGradient>
<linearGradient id="paint12_linear" x1="339.677" y1="354.671" x2="310.293" y2="370.587" gradientUnits="userSpaceOnUse">
<stop stop-color="white" stop-opacity="0.77"/>
<stop offset="1" stop-color="white" stop-opacity="0"/>
</linearGradient>
<linearGradient id="paint13_linear" x1="281.611" y1="333.693" x2="281.611" y2="386.498" gradientUnits="userSpaceOnUse">
<stop stop-color="#B57550"/>
<stop offset="1" stop-color="#845543"/>
</linearGradient>
<linearGradient id="paint14_linear" x1="317.148" y1="347.262" x2="317.148" y2="404.769" gradientUnits="userSpaceOnUse">
<stop stop-color="#B57550"/>
<stop offset="1" stop-color="#845543"/>
</linearGradient>
<linearGradient id="paint15_linear" x1="302.135" y1="284.324" x2="330.272" y2="340.108" gradientUnits="userSpaceOnUse">
<stop stop-color="#875743"/>
<stop offset="1" stop-color="#A66B4C"/>
</linearGradient>
<linearGradient id="paint16_linear" x1="288.477" y1="279.325" x2="308.703" y2="298.745" gradientUnits="userSpaceOnUse">
<stop stop-color="#456E81"/>
<stop offset="1" stop-color="#2F3950"/>
</linearGradient>
<linearGradient id="paint17_linear" x1="300.436" y1="277.255" x2="317.594" y2="345.552" gradientUnits="userSpaceOnUse">
<stop stop-color="#80ACC0"/>
<stop offset="1" stop-color="#C6D6DE"/>
</linearGradient>
<linearGradient id="paint18_linear" x1="338.028" y1="353.056" x2="334.731" y2="317.016" gradientUnits="userSpaceOnUse">
<stop stop-color="#FBFCFD"/>
<stop offset="1" stop-color="#FBFCFD" stop-opacity="0"/>
</linearGradient>
<linearGradient id="paint19_linear" x1="340.089" y1="351.514" x2="362.807" y2="344.004" gradientUnits="userSpaceOnUse">
<stop stop-color="white"/>
<stop offset="1" stop-color="#CED7EB" stop-opacity="0"/>
</linearGradient>
<linearGradient id="paint20_linear" x1="373.288" y1="308.64" x2="391.242" y2="329.967" gradientUnits="userSpaceOnUse">
<stop stop-color="#456E81"/>
<stop offset="1" stop-color="#2F3950"/>
</linearGradient>
<linearGradient id="paint21_linear" x1="461.031" y1="468.035" x2="418.246" y2="521.467" gradientUnits="userSpaceOnUse">
<stop stop-color="#004CB9"/>
<stop offset="1" stop-color="#004CB9" stop-opacity="0"/>
</linearGradient>
<linearGradient id="paint22_linear" x1="449.34" y1="494.066" x2="518.619" y2="414.939" gradientUnits="userSpaceOnUse">
<stop stop-color="#2496FF"/>
<stop offset="1" stop-color="#0F8CFF"/>
</linearGradient>
<linearGradient id="paint23_linear" x1="320.821" y1="364.558" x2="327.112" y2="375.454" gradientUnits="userSpaceOnUse">
<stop stop-color="#5FB2FF"/>
<stop offset="1" stop-color="#5FB2FF" stop-opacity="0"/>
</linearGradient>
<linearGradient id="paint24_linear" x1="312.889" y1="367.248" x2="319.591" y2="375.864" gradientUnits="userSpaceOnUse">
<stop stop-color="#5FB2FF"/>
<stop offset="1" stop-color="#5FB2FF" stop-opacity="0"/>
</linearGradient>
<linearGradient id="paint25_linear" x1="309.926" y1="374.54" x2="317.585" y2="382.883" gradientUnits="userSpaceOnUse">
<stop stop-color="#5FB2FF"/>
<stop offset="1" stop-color="#5FB2FF" stop-opacity="0"/>
</linearGradient>
<linearGradient id="paint26_linear" x1="308.377" y1="383.054" x2="314.621" y2="388.72" gradientUnits="userSpaceOnUse">
<stop stop-color="#5FB2FF"/>
<stop offset="1" stop-color="#5FB2FF" stop-opacity="0"/>
</linearGradient>
<linearGradient id="paint27_linear" x1="207.174" y1="187.337" x2="155.65" y2="90.1003" gradientUnits="userSpaceOnUse">
<stop stop-color="#4BE0D7"/>
<stop offset="1" stop-color="#BAF7C8"/>
</linearGradient>
<linearGradient id="paint28_linear" x1="40.1497" y1="48.4158" x2="71.3772" y2="8.39731" gradientUnits="userSpaceOnUse">
<stop stop-color="#4D51D4" stop-opacity="0"/>
<stop offset="1" stop-color="#9699FF"/>
</linearGradient>
</defs>
</svg>
