<svg width="437" height="440" viewBox="0 0 437 440" fill="none" xmlns="http://www.w3.org/2000/svg">
<path d="M343.379 342.2C334.315 333.933 340.268 319 352.579 319L423.471 319C430.912 319 437 325 437 332.333L437 396.599C437 408.199 422.93 414.333 414.271 406.466L343.379 342.2Z" fill="#FFCA62"/>
<path d="M116 101.4C116 45.4 159.7 0 213.7 0H314.3C368.3 0 412 45.4 412 101.4V301.7C412 357.7 368.3 403.1 314.3 403.1H213.7C159.7 403.1 116 357.7 116 301.7V101.4Z" fill="url(#paint0_linear)"/>
<path d="M118.195 36.1164C114.511 39.0789 115.65 44.8994 120.225 46.2518L142.152 52.7491C145.963 53.8664 149.803 51.1168 149.822 47.1919L150 22.9196C150.034 17.9822 144.19 15.1676 140.24 18.3507L118.195 36.1164Z" fill="#108CFF"/>
<path d="M266.163 240.201C205.776 286.94 160.726 298.409 100.229 301.46C87.6276 302.095 75.2918 301.624 66.3522 311.523C62.9619 315.277 59.723 318.863 51.3543 318.483C43.4327 318.124 44.7697 325.531 51.0973 326.232C55.1325 326.68 58.8993 326.212 62.5666 324.096C63.2924 323.678 64.2613 324.2 64.2671 325.038C64.2816 327.116 64.4678 329.02 64.8487 330.839C64.9684 331.41 64.6024 331.98 64.0236 332.056C56.6429 333.035 47.9154 331.438 43.7043 333.742C38.8545 336.396 38.6225 339.481 40.9764 340.186C37.7182 342.935 40.1692 345.625 43.5989 345.029C40.5561 347.794 42.6655 351.178 48.6959 349.016C46.6296 351.184 48.441 353.534 50.5715 353.313C60.6239 352.27 68 351.001 78.5 348.501C86.5 346.596 94.4191 343.424 98.154 336.551C98.968 335.054 99.6541 333.791 100.21 332.95L100.407 332.65C103.297 328.271 106.205 325.7 112.841 326.011C165.703 328.489 237.658 316.413 285.392 272.443C307.705 251.889 285.805 224.998 266.163 240.201Z" fill="url(#paint1_linear)"/>
<path fill-rule="evenodd" clip-rule="evenodd" d="M338.5 116C331.431 127.418 323.174 130.798 315.518 130.498C327.826 149.291 328.46 174.141 307.993 195.555C304.873 210.867 317.502 211.387 323.5 209.5C368 195.501 391 218.358 412 239.501L411.793 306.071C411.629 358.78 369.803 402.143 317.099 402.839C309.414 402.94 302.085 403 295.5 403C290.5 356.501 273.055 295.5 246.353 254.368C247.395 253.682 248.407 253.018 249.388 252.374C265.867 241.562 273.66 236.449 273.055 227.164C272.701 221.719 268.581 219.406 263.898 218.605C230.287 221.766 212.629 207.719 200.751 191.106C195.071 183.162 192.517 170.328 194.305 156.85C183.672 163.23 173.113 159.055 168.535 153.785C164.294 147.552 161.742 133.039 170 124.5C182.639 111.765 198.601 118.743 203.986 130.369C208.703 123.116 215.167 116.603 223.619 111.669C245.601 98.8358 268.414 98.9972 286.744 106.801C285.971 101.241 287.311 95.0058 292.18 88.7038C316.629 57.0614 351.533 94.9508 338.5 116Z" fill="url(#paint2_linear)"/>
<path d="M268.707 154.728C269.386 157.891 267.368 161.007 264.2 161.687C261.033 162.367 257.914 160.354 257.235 157.191C256.556 154.027 258.573 150.912 261.741 150.232C264.909 149.551 268.027 151.565 268.707 154.728Z" fill="#23B0B9"/>
<path d="M267.646 154.455C268.268 157.354 266.419 160.21 263.516 160.833C260.613 161.456 257.755 159.611 257.132 156.712C256.51 153.813 258.359 150.958 261.262 150.334C264.165 149.711 267.023 151.556 267.646 154.455Z" fill="#2B3760"/>
<path d="M261.915 151.975C262.68 152.611 262.528 154.055 261.576 155.2C260.623 156.345 259.232 156.757 258.467 156.121C257.702 155.485 257.854 154.042 258.806 152.897C259.758 151.752 261.15 151.339 261.915 151.975Z" fill="#364D98"/>
<path d="M260.539 152.935C260.817 153.167 260.74 153.718 260.366 154.168C259.992 154.617 259.464 154.794 259.186 154.563C258.908 154.332 258.985 153.78 259.359 153.331C259.733 152.881 260.261 152.704 260.539 152.935Z" fill="#C3D8F8"/>
<path d="M260.403 157.185C259.705 157.544 259.218 158.489 259.846 158.96C260.791 159.669 262.028 159.981 263.275 159.713C265.558 159.223 267.012 156.977 266.522 154.697C266.318 153.742 265.804 152.933 265.109 152.351C264.464 151.811 263.574 152.674 263.368 153.489C263.181 154.225 262.786 155.005 262.195 155.715C261.657 156.363 261.032 156.861 260.403 157.185Z" fill="#1B244A"/>
<path d="M212.272 165.925C212.842 168.863 211.716 171.771 209.756 172.419C207.797 173.068 205.746 171.212 205.176 168.274C204.607 165.336 205.733 162.428 207.692 161.78C209.652 161.131 211.702 162.987 212.272 165.925Z" fill="#23B0B9"/>
<path d="M211.593 165.677C212.116 168.37 211.083 171.034 209.288 171.629C207.492 172.223 205.613 170.522 205.09 167.83C204.568 165.137 205.6 162.472 207.396 161.878C209.192 161.283 211.071 162.984 211.593 165.677Z" fill="#2B3760"/>
<path d="M207.878 163.398C208.388 163.985 208.358 165.329 207.811 166.398C207.265 167.468 206.409 167.858 205.9 167.271C205.39 166.683 205.42 165.34 205.967 164.271C206.513 163.201 207.369 162.81 207.878 163.398Z" fill="#364D98"/>
<path d="M206.953 164.254C207.138 164.467 207.114 164.98 206.899 165.4C206.685 165.819 206.361 165.987 206.176 165.773C205.991 165.56 206.015 165.047 206.229 164.627C206.444 164.207 206.768 164.04 206.953 164.254Z" fill="#C3D8F8"/>
<path d="M207.166 168.251C206.743 168.589 206.48 169.47 206.896 169.905C207.522 170.56 208.313 170.843 209.084 170.587C210.497 170.12 211.309 168.024 210.898 165.907C210.726 165.02 210.367 164.27 209.903 163.732C209.474 163.233 208.954 164.04 208.861 164.799C208.777 165.485 208.564 166.212 208.225 166.876C207.916 167.48 207.546 167.947 207.166 168.251Z" fill="#1B244A"/>
<path d="M315.892 115.825C315.291 117.45 316.494 119.472 318.154 118.88C322.306 117.399 325.928 114.274 327.759 109.322C332.496 96.5069 319.478 84.3262 308.254 88.2534C303.486 89.9214 299.941 93.3246 297.966 97.3389C297.194 98.9058 299.214 100.203 300.887 99.6172C309.522 96.596 319.536 105.967 315.892 115.825Z" fill="#0FC6BB"/>
<path d="M193.098 131.643C194.519 131.568 195.826 130.066 194.967 129.052C192.821 126.516 189.506 124.878 185.177 125.107C173.974 125.698 170.228 136.897 173.21 145.795C174.728 149.074 177.603 151.728 181.228 151.898C182.643 151.965 183.186 150.1 182.33 149.074C177.912 143.783 184.48 132.098 193.098 131.643Z" fill="#0FC6BB"/>
<path d="M368.302 216.394C406.933 233.391 408.509 271.905 411.001 286.5C412.501 303.5 419 365.486 350.501 396C343.258 399.227 335.191 404.107 329.876 410.126C324.438 416.283 322.029 423.779 321.242 432.038C320.619 438.579 314.657 437.867 313.544 433.418C312.446 429.026 313.059 420.086 315.801 412.104C310.403 418.945 306.255 429.653 304.984 435.473C303.785 440.963 296.879 441.837 296.716 434.879C296.586 429.305 298.486 418.823 305.103 409.613C298.5 415 292.883 423.94 292.5 434C292.286 439.615 284.727 439.68 284.632 432.72C284.577 428.641 286.959 418.314 291.834 408.469C288.798 411.87 286.225 415.791 284.292 420.168C282.789 423.571 277.063 424.277 277.001 418.737C276.879 407.921 291.834 392.612 307.501 383.112C323.175 372.112 338.502 367 358.501 350C378.5 333 378.817 307.568 374.001 290.5C369.185 273.432 364.792 262.5 358.501 254.112C348.519 240.804 341.003 204.382 368.302 216.394Z" fill="url(#paint3_linear)"/>
<rect y="259" width="80" height="82" rx="13" fill="#B3F8BF"/>
<rect y="259" width="80" height="82" rx="13" fill="url(#paint4_linear)"/>
<rect x="14" y="277" width="52" height="6" rx="3" fill="#77EAA6"/>
<rect x="14" y="295" width="52" height="6" rx="3" fill="#77EAA6"/>
<rect x="14" y="313" width="36" height="6" rx="3" fill="#77EAA6"/>
<path d="M61 259V246C61 234.402 51.598 225 40 225C28.402 225 19 234.402 19 246V259" stroke="#B3F8BF" stroke-width="12"/>
<path d="M398.362 287C396.262 287 394.662 288.7 395.062 290.7C395.862 293.8 397.362 296.8 399.762 299C403.062 302.2 407.362 304 411.962 304C416.562 304 420.962 302.3 424.162 299C426.562 296.7 428.062 293.8 428.862 290.7C429.362 288.7 427.662 287 425.562 287.1C423.462 287.1 421.962 288.8 421.162 290.7C420.662 291.9 419.962 293 418.962 293.9C417.062 295.7 414.562 296.7 411.962 296.8C409.362 296.8 406.762 295.8 404.962 293.9C403.962 293 403.262 291.9 402.762 290.7C402.062 288.7 400.362 287 398.362 287Z" fill="#FFAB49"/>
<defs>
<linearGradient id="paint0_linear" x1="243" y1="403" x2="243" y2="-1.20075e-06" gradientUnits="userSpaceOnUse">
<stop stop-color="#A6F7C7"/>
<stop offset="1" stop-color="#C5F9B3"/>
</linearGradient>
<linearGradient id="paint1_linear" x1="275" y1="338.012" x2="42.04" y2="332.097" gradientUnits="userSpaceOnUse">
<stop stop-color="#0FC6BB"/>
<stop offset="0.318721" stop-color="#0FC6BB"/>
<stop offset="1" stop-color="#3FF3E9"/>
</linearGradient>
<linearGradient id="paint2_linear" x1="294.151" y1="64.7271" x2="271.826" y2="401.386" gradientUnits="userSpaceOnUse">
<stop stop-color="#3FF3E9"/>
<stop offset="0.5365" stop-color="#0FC6BB"/>
</linearGradient>
<linearGradient id="paint3_linear" x1="278.441" y1="214" x2="257.706" y2="401.883" gradientUnits="userSpaceOnUse">
<stop stop-color="#17CDC3"/>
<stop offset="0.318721" stop-color="#17CDC3"/>
<stop offset="1" stop-color="#3FF3E9"/>
</linearGradient>
<linearGradient id="paint4_linear" x1="36.3871" y1="340.98" x2="36.3871" y2="259" gradientUnits="userSpaceOnUse">
<stop stop-color="#A6F7C7"/>
<stop offset="1" stop-color="#C5F9B3"/>
</linearGradient>
</defs>
</svg>
