<svg width="760" height="600" viewBox="0 0 760 600" fill="none" xmlns="http://www.w3.org/2000/svg">
<g clip-path="url(#clip0)">
<path d="M532.4 71.0008C525.5 59.0008 508.2 59.0008 501.3 70.9008L477.8 111.101C471.1 122.501 478.6 137.001 491.8 138.101L541 142.401C555.5 143.701 565.4 128.101 558.2 115.501L532.4 71.0008Z" fill="#9AADCE"/>
<path d="M543.3 172.499C543.3 116.499 501.4 71.1992 449.7 71.1992H339.9C288.2 71.1992 246.2 116.499 246.2 172.499V372.699C246.2 428.699 288.1 473.999 339.8 473.999H449.6C501.3 473.999 543.2 428.599 543.2 372.699V172.499H543.3Z" fill="#25395F"/>
<path d="M462.8 186.7C463.7 199.6 462.8 240.7 483.7 246.2C497.7 249.9 528.2 264.3 543.3 299.2C543.3 299.2 543.5 345.6 543.5 377.7C543.6 430.9 500.1 474.7 447 474.7L360.5 474.2C360.5 474.2 328.7 389.2 369.2 312.7C362.2 315.7 335.7 340.3 320.7 393.7C302.3 413.7 280.5 398.3 283.2 391.2C307.5 305.7 333.6 277.7 356.8 261.2C390.1 237.5 388.4 264.7 388.4 190.8C389.1 171.2 387.4 149.4 423.6 148.3C455.2 147.2 461 160.8 462.8 186.7Z" fill="url(#paint0_linear)"/>
<path d="M389.5 410.599C389.5 410.599 389.5 408.699 387.1 407.899L316.6 385.699L260.3 397.199L330.7 425.099L389.5 410.599Z" fill="white"/>
<path d="M330.8 424.699V473.699C335 474.699 388.3 474.699 388.3 474.699L389.6 410.699L330.8 424.699Z" fill="#C2C7F2"/>
<path d="M381.4 474.7L382.3 420L338 430.6C337.8 430.6 337.7 430.8 337.7 431L337.6 474.2L381.4 474.7Z" fill="#4252B4"/>
<path d="M330.8 425.7L330.7 473.2C321.6 473.2 271.6 451.7 260.4 426.2V397.6L330.8 425.7Z" fill="#6E95F2"/>
<path d="M291.2 459.2C287 457 273 443.7 268.4 437.7L267.6 408C267.6 407.7 267.9 407.6 268.1 407.7L291 416.8C291.1 416.9 291.2 417 291.2 417.1V459.2Z" fill="#5C69D2"/>
<path d="M323.5 429.7C323.6 429.8 323.7 429.9 323.7 430L323.6 472.6C318.4 471.1 288 465.1 269.4 439.1V408.4L323.5 429.7Z" fill="#4252B4"/>
<path d="M326.1 416.701L268.9 393.901C269.9 383.201 276.8 373.001 286.1 366.801C292.3 362.701 301.5 361.901 303 362.301C318.2 366.401 340.4 374.101 355.5 378.401C340.2 381.601 329.4 398.801 326.1 416.701Z" fill="url(#paint1_linear)"/>
<path d="M267.5 392.601C267.5 392.601 267.5 381.101 279.6 369.301C289.5 359.601 301.1 360.301 302.2 360.401C303.4 360.501 305.1 361.601 305.4 362.901C304.5 362.701 302.9 362.201 302.9 362.201C301 362.001 291.2 362.401 283.2 368.901C275.2 375.301 270.7 384.201 269.4 393.301C268.8 393.201 267.5 392.601 267.5 392.601Z" fill="#6777E1"/>
<path d="M296.2 358.901C298 359.401 300.4 359.901 302.5 360.501C298.2 360.301 291.2 360.901 284.9 365.101C275.6 371.301 268.7 381.401 267.5 392.101C267.5 392.401 267.6 392.701 267.9 392.801L324.7 415.401C325.1 415.601 325.6 415.301 325.7 414.901C328.5 400.501 336.2 385.701 347.1 378.901C353.8 374.701 363.2 377.501 372.7 380.201C350.8 376.901 337.5 392.001 330.6 425.201L260.3 397.201C260.3 369.801 283.6 354.601 296.2 358.901Z" fill="url(#paint2_linear)"/>
<path d="M384.5 399.701L330.7 425.301C330.7 425.301 337.5 379.301 365.8 379.301C381.1 379.301 385.1 393.801 385.9 397.701C386.1 398.901 384.5 399.701 384.5 399.701Z" fill="#C2C7F2"/>
<path d="M378 395.201C377 389.401 372 384.201 364.5 385.701C357 387.201 350 391.001 344.6 402.401C343.1 405.501 342 408.601 341.1 411.401C340.9 411.901 341.4 412.301 341.9 412.201L378 395.201Z" fill="#4252B4"/>
<path fill-rule="evenodd" clip-rule="evenodd" d="M473.7 307.201C469.1 299.201 459.7 289.601 459.7 288.701C461.2 251.301 530.6 251.901 528.7 302.701C526.6 359.201 528.7 391.701 494.7 421.001C465.9 445.801 408.8 454.301 386.5 459.601C376.1 462.201 363.9 463.501 358.1 463.101C352.3 462.801 343.6 462.801 335.4 458.101C327.8 453.801 330.3 449.201 336.1 451.701C340.4 453.501 342.6 454.201 349.6 454.401C350.1 454.401 350.5 454.001 350.5 453.501C350.4 453.201 350.2 453.001 349.9 452.901C343.9 451.901 337.3 450.601 332.4 447.101C325.2 442.001 328.1 436.301 333.3 439.901C333.4 440.001 333.5 440.101 333.6 440.101C337.9 443.101 340.6 444.601 349.7 445.201C350.1 445.201 350.4 445.001 350.4 444.601C350.4 444.201 350.2 443.901 349.8 443.801C343.7 442.801 336.1 440.701 331.6 436.301C326.8 431.601 329.9 426.901 335.3 431.401C339.2 434.601 344 435.801 352.6 436.901C352.9 436.901 353.2 436.801 353.4 436.501C353.7 436.001 353.4 435.301 352.8 435.301C348.7 434.701 344.5 433.601 341.5 431.501C335.2 427.201 338.1 422.401 343.4 425.701C368.4 436.401 378.3 425.001 367 419.201C355.7 413.501 363.8 409.201 370.3 411.201C370.6 411.301 371 411.401 371.5 411.501C376.1 413.301 379.8 415.001 382.6 416.601C386.2 418.701 390.7 420.301 394.7 419.301C432.6 409.901 461.5 396.101 470.1 383.101C483.5 363.201 479.2 316.701 473.7 307.201Z" fill="url(#paint3_linear)"/>
<path d="M409.6 169C409.6 168.4 408.7 168.1 408.4 168.4C403.2 174 393.9 179.7 388.1 173.6C381 165.9 405.1 145.2 424.4 145.4C449.2 145.7 465.8 163.8 462.9 169.7C460.6 174.3 452.3 168.9 449.8 165.1C449.2 164.1 448.9 165.2 449.2 166C450.6 170.1 451.4 175.4 444.9 177C436.8 179 430.6 168.7 428.5 164.7C428.2 164.1 427.2 164 427 164.6C424.7 171.4 420.2 177.8 415.6 176.6C411.3 175.3 409.7 170.8 409.6 169Z" fill="url(#paint4_linear)"/>
<path opacity="0.49" d="M433.8 196.901C434.7 199.201 433.5 201.801 431.2 202.601C428.9 203.401 426.4 202.201 425.6 199.901C424.7 197.601 425.9 195.001 428.2 194.201C430.4 193.401 433 194.601 433.8 196.901Z" fill="#9AA0CA"/>
<path d="M433.8 196.701C434.6 198.801 433.5 201.101 431.4 201.901C429.3 202.701 427 201.601 426.2 199.501C425.4 197.401 426.5 195.101 428.6 194.301C430.8 193.501 433.1 194.601 433.8 196.701Z" fill="#38477D"/>
<path d="M427.2 197.3C427.9 196.9 428.8 197.5 429.3 198.4C429.8 199.4 429.7 200.5 429.1 200.8C428.4 201.2 427.5 200.6 427 199.7C426.5 198.7 426.6 197.6 427.2 197.3Z" fill="#B5BAEF" fill-opacity="0.3"/>
<path d="M427.4 198.6C427.6 198.5 428 198.7 428.2 199.1C428.4 199.5 428.4 199.9 428.1 200C427.9 200.1 427.5 199.9 427.3 199.5C427.2 199.2 427.2 198.7 427.4 198.6Z" fill="#9CB0CD"/>
<path opacity="0.49" d="M398 198C398.7 200.3 397.8 202.9 396 203.7C394.2 204.5 392.2 203.3 391.5 200.9C390.8 198.6 391.7 196 393.5 195.2C395.3 194.4 397.3 195.7 398 198Z" fill="#9AA0CA"/>
<path d="M398 197.701C398.6 199.801 397.8 202.101 396.2 202.801C394.6 203.501 392.7 202.401 392.1 200.301C391.5 198.201 392.3 195.901 393.9 195.201C395.5 194.501 397.4 195.601 398 197.701Z" fill="#38477D"/>
<path d="M392.9 198.201C393.4 197.901 394.1 198.501 394.6 199.501C395.1 200.501 395.1 201.601 394.6 201.801C394.1 202.101 393.4 201.501 393 200.501C392.5 199.501 392.5 198.401 392.9 198.201Z" fill="#B5BAEF" fill-opacity="0.3"/>
<path d="M393.2 199.5C393.4 199.4 393.6 199.6 393.8 200C394 200.4 394 200.8 393.8 200.9C393.6 201 393.4 200.8 393.2 200.4C393 200 393 199.6 393.2 199.5Z" fill="#9CB0CD"/>
<path d="M376.2 279.2C377.4 283.2 376.2 300.7 369.2 312.7C369.2 312.7 356.7 317.7 339.2 347.7C334.3 348.7 330.7 321.7 339.2 306.2C344 297.4 374.7 274.2 376.2 279.2Z" fill="url(#paint5_radial)"/>
<path d="M275.5 493.199C294.002 493.199 309 478.201 309 459.699C309 441.198 294.002 426.199 275.5 426.199C256.998 426.199 242 441.198 242 459.699C242 478.201 256.998 493.199 275.5 493.199Z" fill="#37E5D7"/>
<path d="M275.5 481.199C287.374 481.199 297 471.573 297 459.699C297 447.825 287.374 438.199 275.5 438.199C263.626 438.199 254 447.825 254 459.699C254 471.573 263.626 481.199 275.5 481.199Z" fill="#1DD5C6"/>
<path d="M564.3 100.101C566.3 99.0006 567 96.4006 565.8 94.4006L555.5 76.6006C554.4 74.6006 551.8 73.9006 549.8 75.1006C547.8 76.2006 547.1 78.8006 548.3 80.8006L558.6 98.6006C559.7 100.601 562.3 101.201 564.3 100.101Z" fill="#405985"/>
</g>
<defs>
<linearGradient id="paint0_linear" x1="413.255" y1="148.168" x2="413.255" y2="474.651" gradientUnits="userSpaceOnUse">
<stop stop-color="white"/>
<stop offset="1" stop-color="#7E87DA"/>
</linearGradient>
<linearGradient id="paint1_linear" x1="341.359" y1="403.005" x2="280.539" y2="367.891" gradientUnits="userSpaceOnUse">
<stop stop-color="#6A7BE4"/>
<stop offset="1" stop-color="#4252B4"/>
</linearGradient>
<linearGradient id="paint2_linear" x1="296.212" y1="417.972" x2="331.691" y2="356.52" gradientUnits="userSpaceOnUse">
<stop stop-color="#6E95F2"/>
<stop offset="0.4215" stop-color="#6DACE6"/>
<stop offset="1" stop-color="#C9E5FF"/>
</linearGradient>
<linearGradient id="paint3_linear" x1="428.401" y1="463.148" x2="428.401" y2="262.371" gradientUnits="userSpaceOnUse">
<stop stop-color="#AEB6F0"/>
<stop offset="0.5098" stop-color="#C5CBF9"/>
<stop offset="1" stop-color="#D9DBF4" stop-opacity="0"/>
</linearGradient>
<linearGradient id="paint4_linear" x1="438.175" y1="145.83" x2="413.439" y2="188.674" gradientUnits="userSpaceOnUse">
<stop stop-color="#9AA6FF"/>
<stop offset="0.6375" stop-color="#5266E2"/>
<stop offset="1" stop-color="#475BD5"/>
</linearGradient>
<radialGradient id="paint5_radial" cx="0" cy="0" r="1" gradientUnits="userSpaceOnUse" gradientTransform="translate(375.818 313.169) rotate(-127.451) scale(29.6016 44.7169)">
<stop stop-color="#A1A9F9"/>
<stop offset="1" stop-color="#8A94F0" stop-opacity="0"/>
</radialGradient>
<clipPath id="clip0">
<rect width="324.3" height="431.2" fill="white" transform="translate(242 62)"/>
</clipPath>
</defs>
</svg>
