<svg width="760" height="600" viewBox="0 0 760 600" fill="none" xmlns="http://www.w3.org/2000/svg">
<path d="M476.379 414.2C467.315 405.933 473.268 391 485.579 391L556.471 391C563.912 391 570 397 570 404.333L570 468.599C570 480.199 555.93 486.333 547.271 478.466L476.379 414.2Z" fill="#FFCA62"/>
<path d="M249 173.4C249 117.4 292.7 72 346.7 72H447.3C501.3 72 545 117.4 545 173.4V373.7C545 429.7 501.3 475.1 447.3 475.1H346.7C292.7 475.1 249 429.7 249 373.7V173.4Z" fill="url(#paint0_linear)"/>
<path d="M251.195 108.116C247.511 111.079 248.65 116.899 253.225 118.252L275.152 124.749C278.963 125.866 282.803 123.117 282.822 119.192L283 94.9196C283.034 89.9822 277.19 87.1676 273.24 90.3507L251.195 108.116Z" fill="#108CFF"/>
<path d="M399.163 312.201C338.776 358.94 293.726 370.409 233.229 373.46C220.628 374.095 208.292 373.624 199.352 383.523C195.962 387.277 192.723 390.863 184.354 390.483C176.433 390.124 177.77 397.531 184.097 398.232C188.132 398.68 191.899 398.212 195.567 396.096C196.292 395.678 197.261 396.2 197.267 397.038C197.282 399.116 197.468 401.02 197.849 402.839C197.968 403.41 197.602 403.98 197.024 404.056C189.643 405.035 180.915 403.438 176.704 405.742C171.855 408.396 171.622 411.481 173.976 412.186C170.718 414.935 173.169 417.625 176.599 417.029C173.556 419.794 175.666 423.178 181.696 421.016C179.63 423.184 181.441 425.534 183.571 425.313C193.624 424.27 201 423.001 211.5 420.501C219.5 418.596 227.419 415.424 231.154 408.551C231.968 407.054 232.654 405.791 233.21 404.95L233.407 404.65C236.297 400.271 239.205 397.7 245.841 398.011C298.703 400.489 370.658 388.413 418.392 344.443C440.705 323.889 418.805 296.998 399.163 312.201Z" fill="url(#paint1_linear)"/>
<path fill-rule="evenodd" clip-rule="evenodd" d="M471.5 188C464.431 199.418 456.174 202.798 448.518 202.498C460.826 221.291 461.46 246.141 440.993 267.555C437.873 282.867 450.502 283.387 456.5 281.5C501 267.501 524 290.358 545 311.501L544.793 378.071C544.629 430.78 502.803 474.143 450.099 474.839C442.414 474.94 435.085 475 428.5 475C423.5 428.501 406.055 367.5 379.353 326.368C380.395 325.682 381.407 325.018 382.388 324.374C398.867 313.562 406.66 308.449 406.055 299.164C405.701 293.719 401.581 291.406 396.898 290.605C363.287 293.766 345.629 279.719 333.751 263.106C328.071 255.162 325.517 242.328 327.305 228.85C316.672 235.23 306.113 231.055 301.535 225.785C297.294 219.552 294.742 205.039 303 196.5C315.639 183.765 331.601 190.743 336.986 202.369C341.703 195.116 348.167 188.603 356.619 183.669C378.601 170.836 401.414 170.997 419.744 178.801C418.971 173.241 420.311 167.006 425.18 160.704C449.629 129.061 484.533 166.951 471.5 188Z" fill="url(#paint2_linear)"/>
<path d="M401.706 226.728C402.385 229.891 400.368 233.007 397.2 233.687C394.032 234.367 390.914 232.354 390.235 229.191C389.555 226.027 391.573 222.912 394.741 222.232C397.908 221.551 401.027 223.565 401.706 226.728Z" fill="#23B0B9"/>
<path d="M400.645 226.455C401.268 229.354 399.419 232.21 396.516 232.833C393.612 233.456 390.754 231.611 390.132 228.712C389.509 225.813 391.358 222.958 394.262 222.334C397.165 221.711 400.023 223.556 400.645 226.455Z" fill="#2B3760"/>
<path d="M394.915 223.975C395.68 224.611 395.528 226.055 394.576 227.2C393.623 228.345 392.232 228.757 391.467 228.121C390.702 227.485 390.854 226.042 391.806 224.897C392.758 223.752 394.15 223.339 394.915 223.975Z" fill="#364D98"/>
<path d="M393.539 224.935C393.817 225.167 393.739 225.718 393.365 226.168C392.991 226.617 392.463 226.794 392.185 226.563C391.907 226.332 391.985 225.78 392.359 225.331C392.732 224.881 393.261 224.704 393.539 224.935Z" fill="#C3D8F8"/>
<path d="M393.403 229.185C392.705 229.544 392.218 230.489 392.846 230.96C393.791 231.669 395.028 231.981 396.275 231.713C398.558 231.223 400.012 228.977 399.522 226.697C399.318 225.742 398.804 224.933 398.109 224.351C397.464 223.811 396.574 224.674 396.368 225.489C396.181 226.225 395.786 227.005 395.195 227.715C394.657 228.363 394.032 228.861 393.403 229.185Z" fill="#1B244A"/>
<path d="M345.272 237.925C345.842 240.863 344.716 243.771 342.756 244.419C340.797 245.068 338.746 243.212 338.176 240.274C337.607 237.336 338.733 234.428 340.692 233.78C342.652 233.131 344.702 234.987 345.272 237.925Z" fill="#23B0B9"/>
<path d="M344.593 237.677C345.116 240.37 344.083 243.034 342.288 243.629C340.492 244.223 338.613 242.522 338.09 239.83C337.568 237.137 338.6 234.472 340.396 233.878C342.192 233.283 344.071 234.984 344.593 237.677Z" fill="#2B3760"/>
<path d="M340.878 235.398C341.388 235.985 341.358 237.329 340.811 238.398C340.265 239.468 339.409 239.858 338.9 239.271C338.39 238.683 338.42 237.34 338.967 236.271C339.513 235.201 340.369 234.81 340.878 235.398Z" fill="#364D98"/>
<path d="M339.953 236.254C340.138 236.467 340.114 236.98 339.9 237.4C339.686 237.819 339.362 237.987 339.177 237.773C338.992 237.56 339.016 237.047 339.23 236.627C339.444 236.207 339.768 236.04 339.953 236.254Z" fill="#C3D8F8"/>
<path d="M340.165 240.251C339.743 240.589 339.48 241.47 339.896 241.905C340.522 242.56 341.313 242.843 342.084 242.587C343.496 242.12 344.308 240.024 343.897 237.907C343.725 237.02 343.366 236.27 342.903 235.732C342.474 235.233 341.953 236.04 341.861 236.799C341.777 237.485 341.564 238.212 341.225 238.876C340.916 239.48 340.546 239.947 340.165 240.251Z" fill="#1B244A"/>
<path d="M448.892 187.825C448.291 189.45 449.494 191.472 451.154 190.88C455.306 189.399 458.928 186.274 460.759 181.322C465.496 168.507 452.478 156.326 441.254 160.253C436.486 161.921 432.941 165.325 430.966 169.339C430.194 170.906 432.214 172.203 433.887 171.617C442.522 168.596 452.536 177.967 448.892 187.825Z" fill="#0FC6BB"/>
<path d="M326.099 203.643C327.519 203.568 328.826 202.066 327.968 201.052C325.822 198.516 322.507 196.878 318.177 197.107C306.975 197.698 303.229 208.897 306.211 217.795C307.728 221.074 310.603 223.728 314.229 223.898C315.644 223.965 316.187 222.1 315.331 221.074C310.913 215.783 317.481 204.098 326.099 203.643Z" fill="#0FC6BB"/>
<path d="M501.302 288.394C539.933 305.391 541.509 343.905 544.001 358.5C545.501 375.5 552 437.486 483.501 468C476.258 471.227 468.191 476.107 462.876 482.126C457.438 488.283 455.029 495.779 454.242 504.038C453.619 510.579 447.657 509.867 446.544 505.418C445.446 501.026 446.059 492.086 448.801 484.104C443.403 490.945 439.255 501.653 437.984 507.473C436.785 512.963 429.879 513.837 429.716 506.879C429.586 501.305 431.486 490.823 438.103 481.613C431.5 487 425.883 495.94 425.5 506C425.286 511.615 417.727 511.68 417.632 504.72C417.577 500.641 419.959 490.314 424.834 480.469C421.798 483.87 419.225 487.791 417.292 492.168C415.789 495.571 410.063 496.277 410.001 490.737C409.879 479.921 424.834 464.612 440.501 455.112C456.175 444.112 471.502 439 491.501 422C511.5 405 511.817 379.568 507.001 362.5C502.185 345.432 497.792 334.5 491.501 326.112C481.519 312.804 474.003 276.382 501.302 288.394Z" fill="url(#paint3_linear)"/>
<rect x="133" y="331" width="80" height="82" rx="13" fill="#B3F8BF"/>
<rect x="133" y="331" width="80" height="82" rx="13" fill="url(#paint4_linear)"/>
<rect x="147" y="349" width="52" height="6" rx="3" fill="#77EAA6"/>
<rect x="147" y="367" width="52" height="6" rx="3" fill="#77EAA6"/>
<rect x="147" y="385" width="36" height="6" rx="3" fill="#77EAA6"/>
<path d="M194 331V318C194 306.402 184.598 297 173 297C161.402 297 152 306.402 152 318V331" stroke="#B3F8BF" stroke-width="12"/>
<path d="M531.362 359C529.262 359 527.662 360.7 528.062 362.7C528.862 365.8 530.362 368.8 532.762 371C536.062 374.2 540.362 376 544.962 376C549.562 376 553.962 374.3 557.162 371C559.562 368.7 561.062 365.8 561.862 362.7C562.362 360.7 560.662 359 558.562 359.1C556.462 359.1 554.962 360.8 554.162 362.7C553.662 363.9 552.962 365 551.962 365.9C550.062 367.7 547.562 368.7 544.962 368.8C542.362 368.8 539.762 367.8 537.962 365.9C536.962 365 536.262 363.9 535.762 362.7C535.062 360.7 533.362 359 531.362 359Z" fill="#FFAB49"/>
<defs>
<linearGradient id="paint0_linear" x1="376" y1="475" x2="376" y2="72" gradientUnits="userSpaceOnUse">
<stop stop-color="#A6F7C7"/>
<stop offset="1" stop-color="#C5F9B3"/>
</linearGradient>
<linearGradient id="paint1_linear" x1="408" y1="410.012" x2="175.04" y2="404.097" gradientUnits="userSpaceOnUse">
<stop stop-color="#0FC6BB"/>
<stop offset="0.318721" stop-color="#0FC6BB"/>
<stop offset="1" stop-color="#3FF3E9"/>
</linearGradient>
<linearGradient id="paint2_linear" x1="427.151" y1="136.727" x2="404.826" y2="473.386" gradientUnits="userSpaceOnUse">
<stop stop-color="#3FF3E9"/>
<stop offset="0.5365" stop-color="#0FC6BB"/>
</linearGradient>
<linearGradient id="paint3_linear" x1="411.441" y1="286" x2="390.706" y2="473.883" gradientUnits="userSpaceOnUse">
<stop stop-color="#17CDC3"/>
<stop offset="0.318721" stop-color="#17CDC3"/>
<stop offset="1" stop-color="#3FF3E9"/>
</linearGradient>
<linearGradient id="paint4_linear" x1="169.387" y1="412.98" x2="169.387" y2="331" gradientUnits="userSpaceOnUse">
<stop stop-color="#A6F7C7"/>
<stop offset="1" stop-color="#C5F9B3"/>
</linearGradient>
</defs>
</svg>
