<svg width="402" height="356" viewBox="0 0 402 356" fill="none" xmlns="http://www.w3.org/2000/svg">
<path d="M271.506 29.1058C278.823 30.8233 281.318 40.0122 275.784 45.1392L249.276 69.7322C244.66 73.9897 237.273 72.6875 234.474 67.0377L217.083 32.1392C213.548 25.0387 219.848 16.9217 227.697 18.7729L271.506 29.1058Z" fill="#108CFF"/>
<rect y="43.7861" width="401.581" height="296.791" rx="96" fill="#E3EEFE"/>
<path d="M17.4954 319.264C15.7294 320.323 13.4375 319.693 12.8385 317.73C11.9466 314.675 11.7878 311.35 12.6949 308.179C13.9423 303.818 16.8119 300.048 20.8038 297.734C24.7956 295.42 29.4499 294.758 33.8605 295.919C37.0817 296.74 39.8896 298.476 42.0377 300.756C43.4697 302.275 42.8394 304.567 40.9867 305.576C39.2207 306.635 36.9788 305.918 35.3968 304.658C34.371 303.835 33.1951 303.271 31.8693 302.968C29.3542 302.324 26.6856 302.746 24.3731 303.952C22.0973 305.293 20.4009 307.432 19.7571 309.947C19.3669 311.223 19.2865 312.562 19.4794 313.828C19.8418 316 19.2114 318.292 17.4954 319.264Z" fill="#FFAB49"/>
<path d="M386.107 326.5C396.221 320.685 396.221 306.104 386.191 300.288L352.31 280.482C342.701 274.835 330.481 281.156 329.553 292.281L325.929 333.748C324.834 345.969 337.982 354.313 348.601 348.245L386.107 326.5Z" fill="#FFCA62"/>
<path d="M98.1484 111.406C98.1484 109.398 99.7761 107.771 101.784 107.771H299.796C301.804 107.771 303.432 109.398 303.432 111.406V223.85C303.432 225.857 301.804 227.485 299.796 227.485H101.784C99.7761 227.485 98.1484 225.857 98.1484 223.85V111.406Z" fill="#F2F6FE"/>
<rect x="101.873" y="113.472" width="197.835" height="108.312" rx="0.363557" fill="#57AEFF"/>
<path d="M399.572 250.161H163.334" stroke="white" stroke-width="3.84476" stroke-linecap="square"/>
<path d="M79.6719 265.571C79.6719 268.206 81.8077 270.342 84.4424 270.342H317.138C319.773 270.342 321.909 268.206 321.909 265.571V264.389H79.6719V265.571Z" fill="#D8E3F5"/>
<path d="M176.18 264.448C176.18 266.555 177.888 268.276 179.996 268.276H221.584C223.691 268.276 225.4 266.555 225.4 264.448H176.18Z" fill="#C4D1E8"/>
<path d="M79.6807 264.425H321.9L305.19 231.003C304.113 228.848 301.909 227.486 299.5 227.486H102.081C99.6708 227.486 97.4677 228.848 96.3901 231.003L79.6807 264.425Z" fill="#FCFCFE"/>
<path d="M111.615 233.122C110.961 233.122 110.369 233.512 110.111 234.114L104.354 247.562C103.891 248.641 104.683 249.842 105.857 249.842H295.723C296.874 249.842 297.666 248.683 297.246 247.61L291.989 234.162C291.744 233.535 291.139 233.122 290.466 233.122H111.615Z" fill="#C4D1E8"/>
<path d="M111.615 233.122C110.961 233.122 110.369 233.512 110.111 234.114L104.354 247.562C103.891 248.641 104.683 249.842 105.857 249.842H295.723C296.874 249.842 297.666 248.683 297.246 247.61L291.989 234.162C291.744 233.535 291.139 233.122 290.466 233.122H111.615Z" stroke="#FF0000"/>
<path d="M176.435 156H175V169.403H182.59V168.121H176.435V156ZM187.195 159.549C184.401 159.549 182.438 161.625 182.438 164.607V164.95C182.477 166.233 183.044 167.444 183.986 168.347C184.893 169.18 186.062 169.669 187.309 169.669H187.497C188.818 169.669 190.064 169.177 191.046 168.347L191.084 168.309L190.443 167.253L190.369 167.292C189.575 168.01 188.594 168.425 187.538 168.425C185.803 168.425 184.028 167.292 183.915 164.763H191.165V164.688C191.165 164.688 191.204 164.235 191.204 164.008C191.195 161.288 189.611 159.549 187.195 159.549ZM183.947 163.552C184.249 161.852 185.495 160.757 187.118 160.757C188.326 160.757 189.647 161.476 189.76 163.552H183.947ZM199.504 160.682V161.175C198.899 160.155 197.768 159.513 196.596 159.513H196.483C193.915 159.513 192.14 161.553 192.14 164.536C192.14 167.557 193.84 169.594 196.369 169.594C198.371 169.594 199.277 168.386 199.579 167.858V169.332H200.939V156H199.543V160.682H199.504ZM196.557 168.347C194.783 168.347 193.614 166.838 193.614 164.572C193.614 162.382 194.86 160.835 196.596 160.835C198.069 160.835 199.54 162.004 199.54 164.572C199.54 167.366 197.992 168.347 196.557 168.347ZM209.206 160.87V160.945C208.941 160.492 208.111 159.51 206.11 159.51C203.581 159.51 201.92 161.437 201.92 164.381C201.92 167.324 203.656 169.326 206.223 169.326C207.619 169.326 208.565 168.834 209.206 167.817V169.138C209.206 170.987 208.037 172.046 205.958 172.046C205.09 172.046 204.183 171.819 203.39 171.404L203.316 171.366L202.788 172.535L202.862 172.574C203.843 173.066 204.938 173.328 205.997 173.328C208.225 173.328 210.602 172.195 210.602 169.06V159.776H209.206V160.87ZM206.411 168.082C204.562 168.082 203.354 166.647 203.354 164.42C203.354 162.153 204.41 160.87 206.223 160.87C208.225 160.87 209.167 162.04 209.167 164.42C209.206 166.761 208.225 168.082 206.411 168.082ZM216.304 159.549C213.51 159.549 211.586 161.625 211.586 164.572V164.912C211.625 166.194 212.191 167.405 213.134 168.309C214.041 169.141 215.21 169.63 216.456 169.63H216.644C217.965 169.63 219.212 169.138 220.193 168.309L220.232 168.27L219.552 167.214L219.478 167.253C218.684 167.972 217.703 168.386 216.647 168.386C214.911 168.386 213.137 167.253 213.024 164.724H220.307V164.649C220.307 164.649 220.345 164.196 220.345 163.969C220.345 161.288 218.759 159.549 216.304 159.549ZM213.095 163.552C213.396 161.852 214.643 160.757 216.265 160.757C217.473 160.757 218.795 161.476 218.908 163.552H213.095ZM226.236 159.737C226.048 159.698 225.896 159.698 225.708 159.662C224.387 159.662 223.292 160.495 222.726 161.89V159.737H221.33L221.368 169.29V169.364H222.803V165.326C222.803 164.721 222.878 164.08 223.068 163.513C223.522 162.04 224.542 161.097 225.75 161.097C225.902 161.097 226.051 161.097 226.203 161.136H226.278V159.74L226.236 159.737Z" fill="white"/>
<path fill-rule="evenodd" clip-rule="evenodd" d="M231.463 155.306H233.22V167.426H239.375V169.031H231.463V155.306ZM239.879 155.873H241.674V157.804H239.879V155.873ZM252.731 160.316C253.603 159.39 254.836 158.855 256.275 158.855C257.524 158.855 258.569 159.305 259.301 160.117C260.032 160.928 260.44 162.084 260.444 163.474V163.475C260.444 163.781 260.406 164.084 260.406 164.39H253.165C253.253 165.528 253.695 166.347 254.305 166.888C254.946 167.458 255.784 167.731 256.618 167.731C257.857 167.731 258.699 167.164 259.582 166.507L260.367 167.8C259.397 168.77 257.934 169.297 256.576 169.297H256.388C255.099 169.297 253.891 168.79 252.957 167.933L252.956 167.932L252.954 167.93C251.887 166.907 251.357 165.536 251.357 164.074C251.357 162.547 251.86 161.242 252.731 160.316ZM239.879 159.078H241.674V169.028H239.879V159.078ZM242.178 159.043H243.993L246.791 167L249.588 159.043H251.403L247.905 168.992H245.677L242.178 159.043ZM253.224 162.857H258.667C258.584 161.949 258.253 161.345 257.822 160.963C257.362 160.556 256.771 160.385 256.197 160.385C254.72 160.385 253.568 161.337 253.224 162.857Z" fill="white"/>
<circle cx="150.923" cy="164.212" r="14.923" fill="#D4DBE9" fill-opacity="0.5"/>
<circle cx="150.923" cy="162.923" r="14.923" fill="white"/>
<path d="M143.472 168.697C143.015 168.107 142.627 167.461 142.318 166.771C141.453 164.837 141.265 162.669 141.784 160.615C142.303 158.561 143.498 156.742 145.178 155.45C146.041 154.787 147.006 154.283 148.028 153.953C148.893 153.673 149.799 153.519 150.719 153.499C150.897 153.495 151.039 153.642 151.037 153.82L151.005 156.38C151.003 156.558 150.856 156.7 150.679 156.707C149.399 156.758 148.148 157.209 147.131 157.991C146.023 158.843 145.234 160.044 144.891 161.4C144.549 162.755 144.673 164.186 145.244 165.463C145.508 166.054 145.861 166.596 146.287 167.072L143.472 168.697Z" fill="url(#paint0_linear)"/>
<path d="M158.375 157.156C158.832 157.746 159.221 158.392 159.529 159.082C160.394 161.016 160.582 163.185 160.063 165.239C159.545 167.292 158.349 169.112 156.67 170.403C155.807 171.066 154.842 171.571 153.82 171.9C152.954 172.18 152.048 172.334 151.129 172.354C150.951 172.358 150.808 172.211 150.811 172.033L150.844 169.473C150.846 169.295 150.992 169.153 151.17 169.146C152.454 169.096 153.693 168.648 154.716 167.862C155.825 167.01 156.614 165.809 156.956 164.454C157.299 163.098 157.174 161.667 156.604 160.39C156.339 159.799 155.986 159.257 155.56 158.781L158.375 157.156Z" fill="url(#paint1_linear)"/>
<path d="M149.162 164.769C149.228 164.604 149.148 164.419 148.983 164.352L146.806 163.473C146.64 163.406 146.451 163.487 146.385 163.653C146.067 164.46 145.211 166.624 145.094 166.916C144.949 167.276 144.626 167.603 144.162 167.682C143.698 167.761 143.048 167.753 142.402 166.949C142.924 168.047 144.009 169.769 145.139 170.059C146.27 170.349 147.181 169.716 147.488 168.954C147.741 168.323 148.804 165.665 149.162 164.769Z" fill="#638EEF"/>
<path d="M152.684 161.084C152.618 161.249 152.699 161.434 152.864 161.5L155.041 162.379C155.207 162.446 155.396 162.365 155.461 162.199C155.78 161.393 156.635 159.229 156.753 158.937C156.898 158.576 157.221 158.249 157.685 158.17C158.149 158.092 158.799 158.1 159.445 158.903C158.923 157.806 157.838 156.083 156.707 155.793C155.577 155.503 154.666 156.137 154.359 156.899C154.105 157.53 153.043 160.188 152.684 161.084Z" fill="#638EEF"/>
<defs>
<linearGradient id="paint0_linear" x1="148.675" y1="155.713" x2="144.216" y2="166.474" gradientUnits="userSpaceOnUse">
<stop stop-color="#94B6FE"/>
<stop offset="1" stop-color="#216ADE"/>
</linearGradient>
<linearGradient id="paint1_linear" x1="152.671" y1="170.241" x2="157.975" y2="159.095" gradientUnits="userSpaceOnUse">
<stop stop-color="#94B6FE"/>
<stop offset="1" stop-color="#216ADE"/>
</linearGradient>
</defs>
</svg>
