<svg width="449" height="440" viewBox="0 0 449 440" fill="none" xmlns="http://www.w3.org/2000/svg">
<path d="M123 101.4C123 45.4 166.7 0 220.7 0H335.3C389.3 0 433 45.4 433 101.4V301.7C433 357.7 389.3 403.1 335.3 403.1H220.7C166.7 403.1 123 357.7 123 301.7V101.4Z" fill="url(#paint0_linear)"/>
<path d="M287.163 240.2C226.776 286.939 181.726 298.409 121.229 301.459C108.628 302.095 96.2918 301.624 87.3522 311.522C83.9619 315.276 80.723 318.863 72.3543 318.483C64.4327 318.124 65.7697 325.531 72.0973 326.232C76.1325 326.679 79.8993 326.212 83.5666 324.096C84.2924 323.677 85.2613 324.2 85.2671 325.038C85.2816 327.115 85.4678 329.02 85.8487 330.838C85.9684 331.41 85.6024 331.979 85.0236 332.056C77.6429 333.035 68.9154 331.438 64.7043 333.742C59.8545 336.396 59.6225 339.481 61.9764 340.186C58.7182 342.935 61.1692 345.625 64.5989 345.028C61.5561 347.794 63.6655 351.178 69.6959 349.016C67.6296 351.184 69.441 353.534 71.5715 353.313C81.6239 352.27 89 351.001 99.5 348.501C107.5 346.596 115.419 343.423 119.154 336.551C119.968 335.053 120.654 333.791 121.21 332.95L121.407 332.65C124.297 328.271 127.205 325.7 133.841 326.011C186.703 328.488 258.658 316.413 306.392 272.443C328.705 251.889 306.805 224.998 287.163 240.2Z" fill="url(#paint1_linear)"/>
<path fill-rule="evenodd" clip-rule="evenodd" d="M363.887 107.987C355.17 122.066 346.422 125.573 338.681 124.813C349.042 143.877 348.869 167.555 331.09 188.725C322.44 210.689 337.714 211.635 344.5 209.5C389 195.501 412 218.358 433 239.501L432.793 306.071C432.629 358.78 390.804 402.143 338.099 402.839C330.414 402.94 323.085 403 316.5 403C311.5 356.501 294.055 295.5 267.353 254.368C268.395 253.682 269.407 253.018 270.388 252.374C286.868 241.562 294.66 236.449 294.055 227.164C293.515 218.873 284.244 217.843 277.548 218.358C277.341 218.374 277.218 218.322 277.175 218.208C240.973 221.111 221.779 205.726 208.804 187.58C202.999 179.461 200.139 166.734 201.281 153.089C192.225 156.932 184.017 154.379 180.416 149.086C176.174 142.853 175.311 126.629 183.57 118.089C194.27 107.308 206.681 110.786 213.054 119.248C218.22 111.609 225.176 104.759 234.156 99.5166C261.11 83.7809 289.19 85.6687 310.426 97.1516C309.481 90.9074 310.579 84.2332 315.209 78.2405C339.658 46.5981 378.989 83.5944 363.887 107.987Z" fill="url(#paint2_linear)"/>
<path d="M278.701 151.728C279.38 154.891 277.363 158.007 274.195 158.687C271.027 159.367 267.909 157.354 267.23 154.191C266.551 151.027 268.568 147.912 271.736 147.232C274.904 146.551 278.022 148.565 278.701 151.728Z" fill="#23B0B9"/>
<path d="M277.64 151.455C278.263 154.354 276.414 157.21 273.511 157.833C270.607 158.456 267.749 156.611 267.127 153.712C266.505 150.813 268.354 147.958 271.257 147.334C274.16 146.711 277.018 148.556 277.64 151.455Z" fill="#2B3760"/>
<path d="M271.91 148.975C272.674 149.611 272.522 151.055 271.57 152.2C270.618 153.345 269.226 153.757 268.461 153.121C267.697 152.485 267.849 151.042 268.801 149.897C269.753 148.752 271.145 148.339 271.91 148.975Z" fill="#364D98"/>
<path d="M270.371 149.884C270.649 150.115 270.572 150.667 270.198 151.116C269.824 151.566 269.296 151.743 269.018 151.511C268.74 151.28 268.817 150.728 269.191 150.279C269.565 149.829 270.093 149.652 270.371 149.884Z" fill="#C3D8F8"/>
<path d="M270.397 154.185C269.699 154.544 269.212 155.489 269.841 155.96C270.786 156.669 272.022 156.981 273.269 156.713C275.553 156.223 277.007 153.977 276.517 151.697C276.312 150.742 275.799 149.933 275.104 149.351C274.459 148.811 273.569 149.674 273.362 150.489C273.176 151.225 272.78 152.005 272.19 152.715C271.651 153.363 271.027 153.861 270.397 154.185Z" fill="#1B244A"/>
<path d="M222.267 162.924C222.837 165.863 221.71 168.77 219.751 169.419C217.791 170.067 215.741 168.211 215.171 165.273C214.601 162.335 215.728 159.428 217.687 158.779C219.646 158.13 221.697 159.986 222.267 162.924Z" fill="#23B0B9"/>
<path d="M221.588 162.676C222.11 165.369 221.078 168.034 219.282 168.628C217.486 169.223 215.607 167.522 215.085 164.829C214.563 162.136 215.595 159.472 217.391 158.877C219.186 158.283 221.066 159.984 221.588 162.676Z" fill="#2B3760"/>
<path d="M217.873 160.398C218.382 160.985 218.352 162.329 217.806 163.398C217.259 164.468 216.404 164.858 215.894 164.271C215.385 163.683 215.415 162.34 215.961 161.271C216.508 160.201 217.364 159.81 217.873 160.398Z" fill="#364D98"/>
<path d="M216.947 161.254C217.132 161.467 217.108 161.98 216.894 162.4C216.68 162.819 216.356 162.987 216.171 162.773C215.986 162.56 216.01 162.047 216.224 161.627C216.438 161.207 216.762 161.04 216.947 161.254Z" fill="#C3D8F8"/>
<path d="M217.16 165.252C216.738 165.589 216.475 166.47 216.891 166.905C217.517 167.56 218.308 167.843 219.079 167.588C220.491 167.12 221.303 165.025 220.892 162.907C220.72 162.02 220.361 161.27 219.898 160.732C219.469 160.234 218.948 161.041 218.856 161.8C218.772 162.486 218.559 163.213 218.22 163.876C217.911 164.481 217.541 164.948 217.16 165.252Z" fill="#1B244A"/>
<path d="M87.5536 277.072C98.7065 277.072 104 283.368 104 294.619V324.395C104 335.646 98.7065 341 87.5536 341H15.5095C4.35655 341 -2.7227e-06 334.704 0 323.453L9.74104e-06 277.547C1.24637e-05 266.296 2.43266 260 13.5856 260L36.5405 260C41.4854 260 44.8269 262.803 47.0635 267.253L48.354 269.82C50.5906 274.269 52.2083 277.072 57.1532 277.072H87.5536Z" fill="#FFCA62"/>
<path d="M339.422 107.552C338.821 109.177 340.024 111.199 341.685 110.606C345.836 109.126 349.458 106.001 351.289 101.049C356.026 88.2335 343.008 76.0527 331.784 79.98C327.017 81.6479 323.472 85.0511 321.496 89.0655C320.725 90.6323 322.744 91.9292 324.417 91.3438C333.052 88.3226 343.066 97.6931 339.422 107.552Z" fill="#0FC6BB"/>
<path d="M205.098 126.643C206.519 126.568 207.826 125.066 206.967 124.052C204.821 121.516 201.506 119.878 197.177 120.107C185.974 120.698 182.228 131.897 185.21 140.795C186.728 144.074 189.603 146.728 193.228 146.898C194.643 146.965 195.186 145.1 194.33 144.074C189.912 138.783 196.48 127.098 205.098 126.643Z" fill="#21D7CC"/>
<path d="M389.302 216.394C427.933 233.391 429.509 271.905 432.001 286.5C433.501 303.5 440 365.486 371.501 396C364.258 399.227 356.191 404.107 350.876 410.126C345.438 416.283 343.029 423.779 342.242 432.038C341.619 438.579 335.657 437.867 334.544 433.418C333.446 429.026 334.059 420.086 336.801 412.104C331.403 418.945 327.255 429.653 325.984 435.473C324.785 440.963 317.879 441.837 317.716 434.879C317.586 429.305 319.486 418.823 326.103 409.613C319.5 415 313.883 423.94 313.5 434C313.286 439.615 305.727 439.68 305.632 432.72C305.577 428.641 307.959 418.314 312.834 408.469C309.798 411.87 307.225 415.791 305.292 420.168C303.789 423.571 298.063 424.277 298.001 418.737C297.879 407.921 312.834 392.612 328.501 383.112C344.175 372.112 359.502 367 379.501 350C399.5 333 399.817 307.568 395.001 290.5C390.185 273.432 385.792 262.5 379.501 254.112C369.519 240.804 362.003 204.382 389.302 216.394Z" fill="url(#paint3_linear)"/>
<defs>
<linearGradient id="paint0_linear" x1="264" y1="403" x2="264" y2="-1.33311e-06" gradientUnits="userSpaceOnUse">
<stop stop-color="#A6F7C7"/>
<stop offset="1" stop-color="#C5F9B3"/>
</linearGradient>
<linearGradient id="paint1_linear" x1="296" y1="338.011" x2="63.04" y2="332.097" gradientUnits="userSpaceOnUse">
<stop stop-color="#0FC6BB"/>
<stop offset="0.318721" stop-color="#0FC6BB"/>
<stop offset="1" stop-color="#3FF3E9"/>
</linearGradient>
<linearGradient id="paint2_linear" x1="315.625" y1="64.595" x2="293.289" y2="401.417" gradientUnits="userSpaceOnUse">
<stop stop-color="#3FF3E9"/>
<stop offset="0.5365" stop-color="#0FC6BB"/>
</linearGradient>
<linearGradient id="paint3_linear" x1="299.441" y1="214" x2="278.706" y2="401.883" gradientUnits="userSpaceOnUse">
<stop stop-color="#17CDC3"/>
<stop offset="0.318721" stop-color="#17CDC3"/>
<stop offset="1" stop-color="#3FF3E9"/>
</linearGradient>
</defs>
</svg>
