<svg width="325" height="432" viewBox="0 0 325 432" fill="none" xmlns="http://www.w3.org/2000/svg">
<g clip-path="url(#clip0)">
<path d="M290.4 9.00082C283.5 -2.99918 266.2 -2.99918 259.3 8.90082L235.8 49.1008C229.1 60.5008 236.6 75.0008 249.8 76.1008L299 80.4008C313.5 81.7008 323.4 66.1008 316.2 53.5008L290.4 9.00082Z" fill="#FF9176"/>
<path d="M301.3 110.499C301.3 54.4992 259.4 9.19922 207.7 9.19922H97.9002C46.2002 9.19922 4.2002 54.4992 4.2002 110.499V310.699C4.2002 366.699 46.1002 411.999 97.8002 411.999H207.6C259.3 411.999 301.2 366.599 301.2 310.699V110.499H301.3Z" fill="url(#paint0_linear)"/>
<path d="M220.8 124.7C221.7 137.6 220.8 178.7 241.7 184.2C255.7 187.9 286.2 202.3 301.3 237.2C301.3 237.2 301.5 283.6 301.5 315.7C301.6 368.9 258.1 412.7 205 412.7L118.5 412.2C118.5 412.2 86.7002 327.2 127.2 250.7C120.2 253.7 93.7002 278.3 78.7002 331.7C60.3002 351.7 38.5002 336.3 41.2002 329.2C65.5002 243.7 91.6002 215.7 114.8 199.2C148.1 175.5 146.4 202.7 146.4 128.8C147.1 109.2 145.4 87.4001 181.6 86.3001C213.2 85.2001 219 98.8001 220.8 124.7Z" fill="url(#paint1_linear)"/>
<path d="M147.5 348.599C147.5 348.599 147.5 346.699 145.1 345.899L74.5998 323.699L18.2998 335.199L88.6998 363.099L147.5 348.599Z" fill="white"/>
<path d="M88.7998 362.699V411.699C92.9998 412.699 146.3 412.699 146.3 412.699L147.6 348.699L88.7998 362.699Z" fill="#C2C7F2"/>
<path d="M139.4 412.7L140.3 358L96.0001 368.6C95.8001 368.6 95.7001 368.8 95.7001 369L95.6001 412.2L139.4 412.7Z" fill="#4252B4"/>
<path d="M88.7999 363.7L88.6999 411.2C79.5999 411.2 29.5999 389.7 18.3999 364.2V335.6L88.7999 363.7Z" fill="#6E95F2"/>
<path d="M49.2001 397.2C45.0001 395 31.0001 381.7 26.4001 375.7L25.6001 346C25.6001 345.7 25.9001 345.6 26.1001 345.7L49.0001 354.8C49.1001 354.9 49.2001 355 49.2001 355.1V397.2Z" fill="#5C69D2"/>
<path d="M81.4999 367.7C81.5999 367.8 81.6999 367.9 81.6999 368L81.5999 410.6C76.3999 409.1 45.9999 403.1 27.3999 377.1V346.4L81.4999 367.7Z" fill="#4252B4"/>
<path d="M84.0999 354.701L26.8999 331.901C27.8999 321.201 34.7999 311.001 44.0999 304.801C50.2999 300.701 59.4999 299.901 60.9999 300.301C76.1999 304.401 98.3999 312.101 113.5 316.401C98.1999 319.601 87.3999 336.801 84.0999 354.701Z" fill="url(#paint2_linear)"/>
<path d="M25.5 330.601C25.5 330.601 25.5 319.101 37.6 307.301C47.5 297.601 59.1 298.301 60.2 298.401C61.4 298.501 63.1 299.601 63.4 300.901C62.5 300.701 60.9 300.201 60.9 300.201C59 300.001 49.2 300.401 41.2 306.901C33.2 313.301 28.7 322.201 27.4 331.301C26.8 331.201 25.5 330.601 25.5 330.601Z" fill="#6777E1"/>
<path d="M54.1998 296.901C55.9998 297.401 58.3998 297.901 60.4998 298.501C56.1998 298.301 49.1998 298.901 42.8998 303.101C33.5998 309.301 26.6998 319.401 25.4998 330.101C25.4998 330.401 25.5998 330.701 25.8998 330.801L82.6998 353.401C83.0998 353.601 83.5998 353.301 83.6998 352.901C86.4998 338.501 94.1998 323.701 105.1 316.901C111.8 312.701 121.2 315.501 130.7 318.201C108.8 314.901 95.4998 330.001 88.5998 363.201L18.2998 335.201C18.2998 307.801 41.5998 292.601 54.1998 296.901Z" fill="url(#paint3_linear)"/>
<path d="M142.5 337.701L88.7002 363.301C88.7002 363.301 95.5002 317.301 123.8 317.301C139.1 317.301 143.1 331.801 143.9 335.701C144.1 336.901 142.5 337.701 142.5 337.701Z" fill="#C2C7F2"/>
<path d="M136 333.201C135 327.401 130 322.201 122.5 323.701C115 325.201 108 329.001 102.6 340.401C101.1 343.501 99.9998 346.601 99.0998 349.401C98.8998 349.901 99.3998 350.301 99.8998 350.201L136 333.201Z" fill="#4252B4"/>
<path fill-rule="evenodd" clip-rule="evenodd" d="M231.7 245.201C227.1 237.201 217.7 227.601 217.7 226.701C219.2 189.301 288.6 189.901 286.7 240.701C284.6 297.201 286.7 329.701 252.7 359.001C223.9 383.801 166.8 392.301 144.5 397.601C134.1 400.201 121.9 401.501 116.1 401.101C110.3 400.801 101.6 400.801 93.4001 396.101C85.8001 391.801 88.3001 387.201 94.1001 389.701C98.4001 391.501 100.6 392.201 107.6 392.401C108.1 392.401 108.5 392.001 108.5 391.501C108.4 391.201 108.2 391.001 107.9 390.901C101.9 389.901 95.3001 388.601 90.4001 385.101C83.2001 380.001 86.1001 374.301 91.3001 377.901C91.4001 378.001 91.5001 378.101 91.6001 378.101C95.9001 381.101 98.6001 382.601 107.7 383.201C108.1 383.201 108.4 383.001 108.4 382.601C108.4 382.201 108.2 381.901 107.8 381.801C101.7 380.801 94.1001 378.701 89.6001 374.301C84.8001 369.601 87.9001 364.901 93.3001 369.401C97.2001 372.601 102 373.801 110.6 374.901C110.9 374.901 111.2 374.801 111.4 374.501C111.7 374.001 111.4 373.301 110.8 373.301C106.7 372.701 102.5 371.601 99.5001 369.501C93.2001 365.201 96.1001 360.401 101.4 363.701C126.4 374.401 136.3 363.001 125 357.201C113.7 351.501 121.8 347.201 128.3 349.201C128.6 349.301 129 349.401 129.5 349.501C134.1 351.301 137.8 353.001 140.6 354.601C144.2 356.701 148.7 358.301 152.7 357.301C190.6 347.901 219.5 334.101 228.1 321.101C241.5 301.201 237.2 254.701 231.7 245.201Z" fill="url(#paint4_linear)"/>
<path d="M167.6 107C167.6 106.4 166.7 106.1 166.4 106.4C161.2 112 151.9 117.7 146.1 111.6C139 103.9 163.1 83.1999 182.4 83.3999C207.2 83.6999 223.8 101.8 220.9 107.7C218.6 112.3 210.3 106.9 207.8 103.1C207.2 102.1 206.9 103.2 207.2 104C208.6 108.1 209.4 113.4 202.9 115C194.8 117 188.6 106.7 186.5 102.7C186.2 102.1 185.2 102 185 102.6C182.7 109.4 178.2 115.8 173.6 114.6C169.3 113.3 167.7 108.8 167.6 107Z" fill="url(#paint5_linear)"/>
<path opacity="0.49" d="M191.8 134.901C192.7 137.201 191.5 139.801 189.2 140.601C186.9 141.401 184.4 140.201 183.6 137.901C182.7 135.601 183.9 133.001 186.2 132.201C188.4 131.401 191 132.601 191.8 134.901Z" fill="#9AA0CA"/>
<path d="M191.8 134.701C192.6 136.801 191.5 139.101 189.4 139.901C187.3 140.701 185 139.601 184.2 137.501C183.4 135.401 184.5 133.101 186.6 132.301C188.8 131.501 191.1 132.601 191.8 134.701Z" fill="#38477D"/>
<path d="M185.2 135.3C185.9 134.9 186.8 135.5 187.3 136.4C187.8 137.4 187.7 138.5 187.1 138.8C186.4 139.2 185.5 138.6 185 137.7C184.5 136.7 184.6 135.6 185.2 135.3Z" fill="#B5BAEF" fill-opacity="0.3"/>
<path d="M185.4 136.6C185.6 136.5 186 136.7 186.2 137.1C186.4 137.5 186.4 137.9 186.1 138C185.9 138.1 185.5 137.9 185.3 137.5C185.2 137.2 185.2 136.7 185.4 136.6Z" fill="#9CB0CD"/>
<path opacity="0.49" d="M156 136C156.7 138.3 155.8 140.9 154 141.7C152.2 142.5 150.2 141.3 149.5 138.9C148.8 136.6 149.7 134 151.5 133.2C153.3 132.4 155.3 133.7 156 136Z" fill="#9AA0CA"/>
<path d="M156 135.701C156.6 137.801 155.8 140.101 154.2 140.801C152.6 141.501 150.7 140.401 150.1 138.301C149.5 136.201 150.3 133.901 151.9 133.201C153.5 132.501 155.4 133.601 156 135.701Z" fill="#38477D"/>
<path d="M150.9 136.201C151.4 135.901 152.1 136.501 152.6 137.501C153.1 138.501 153.1 139.601 152.6 139.801C152.1 140.101 151.4 139.501 151 138.501C150.5 137.501 150.5 136.401 150.9 136.201Z" fill="#B5BAEF" fill-opacity="0.3"/>
<path d="M151.2 137.5C151.4 137.4 151.6 137.6 151.8 138C152 138.4 152 138.8 151.8 138.9C151.6 139 151.4 138.8 151.2 138.4C151 138 151 137.6 151.2 137.5Z" fill="#9CB0CD"/>
<path d="M134.2 217.2C135.4 221.2 134.2 238.7 127.2 250.7C127.2 250.7 114.7 255.7 97.2 285.7C92.3 286.7 88.7 259.7 97.2 244.2C102 235.4 132.7 212.2 134.2 217.2Z" fill="url(#paint6_radial)"/>
<path d="M33.5 431.199C52.0015 431.199 67 416.201 67 397.699C67 379.198 52.0015 364.199 33.5 364.199C14.9985 364.199 0 379.198 0 397.699C0 416.201 14.9985 431.199 33.5 431.199Z" fill="#37E5D7"/>
<path d="M33.5 419.199C45.3741 419.199 55 409.573 55 397.699C55 385.825 45.3741 376.199 33.5 376.199C21.6259 376.199 12 385.825 12 397.699C12 409.573 21.6259 419.199 33.5 419.199Z" fill="#1DD5C6"/>
<path d="M322.3 38.1006C324.3 37.0006 325 34.4006 323.8 32.4006L313.5 14.6006C312.4 12.6006 309.8 11.9006 307.8 13.1006C305.8 14.2006 305.1 16.8006 306.3 18.8006L316.6 36.6006C317.7 38.6006 320.3 39.2006 322.3 38.1006Z" fill="url(#paint7_linear)"/>
</g>
<defs>
<linearGradient id="paint0_linear" x1="152.784" y1="9.15152" x2="152.784" y2="412.001" gradientUnits="userSpaceOnUse">
<stop stop-color="#638BF2"/>
<stop offset="1" stop-color="#5A83ED"/>
</linearGradient>
<linearGradient id="paint1_linear" x1="171.256" y1="86.1681" x2="171.256" y2="412.651" gradientUnits="userSpaceOnUse">
<stop stop-color="white"/>
<stop offset="1" stop-color="#7E87DA"/>
</linearGradient>
<linearGradient id="paint2_linear" x1="99.3583" y1="341.005" x2="38.5384" y2="305.891" gradientUnits="userSpaceOnUse">
<stop stop-color="#6A7BE4"/>
<stop offset="1" stop-color="#4252B4"/>
</linearGradient>
<linearGradient id="paint3_linear" x1="54.212" y1="355.972" x2="89.6914" y2="294.52" gradientUnits="userSpaceOnUse">
<stop stop-color="#6E95F2"/>
<stop offset="0.4215" stop-color="#6DACE6"/>
<stop offset="1" stop-color="#C9E5FF"/>
</linearGradient>
<linearGradient id="paint4_linear" x1="186.401" y1="401.148" x2="186.401" y2="200.371" gradientUnits="userSpaceOnUse">
<stop stop-color="#AEB6F0"/>
<stop offset="0.5098" stop-color="#C5CBF9"/>
<stop offset="1" stop-color="#D9DBF4" stop-opacity="0"/>
</linearGradient>
<linearGradient id="paint5_linear" x1="196.175" y1="83.8297" x2="171.439" y2="126.674" gradientUnits="userSpaceOnUse">
<stop stop-color="#9AA6FF"/>
<stop offset="0.6375" stop-color="#5266E2"/>
<stop offset="1" stop-color="#475BD5"/>
</linearGradient>
<radialGradient id="paint6_radial" cx="0" cy="0" r="1" gradientUnits="userSpaceOnUse" gradientTransform="translate(133.818 251.169) rotate(-127.451) scale(29.6016 44.7169)">
<stop stop-color="#A1A9F9"/>
<stop offset="1" stop-color="#8A94F0" stop-opacity="0"/>
</radialGradient>
<linearGradient id="paint7_linear" x1="319.336" y1="22.2215" x2="312.484" y2="27.6277" gradientUnits="userSpaceOnUse">
<stop stop-color="#FFF384"/>
<stop offset="1" stop-color="#FFE485"/>
</linearGradient>
<clipPath id="clip0">
<rect width="324.3" height="431.2" fill="white"/>
</clipPath>
</defs>
</svg>
