<svg width="219" height="373" viewBox="0 0 219 373" fill="none" xmlns="http://www.w3.org/2000/svg">
<path d="M0.0390651 311.727C0.0390637 328.295 13.4705 341.727 30.0391 341.727L188.957 341.727C205.526 341.727 218.957 328.295 218.957 311.727L218.957 200.864C218.957 184.295 205.526 170.864 188.957 170.864L30.0391 170.864C13.4706 170.864 0.0390763 184.295 0.0390748 200.864L0.0390651 311.727Z" fill="#FFCA62"/>
<path d="M0.0390651 88.9941C0.0390637 105.563 13.4705 118.994 30.0391 118.994L188.957 118.994C205.526 118.994 218.957 105.563 218.957 88.9942L218.957 38.3909C218.957 21.8223 205.526 8.39089 188.957 8.39089L30.0391 8.39087C13.4706 8.39087 0.039071 21.8223 0.0390695 38.3909L0.0390651 88.9941Z" fill="#666AF7"/>
<g opacity="0.4">
<mask id="mask0" mask-type="alpha" maskUnits="userSpaceOnUse" x="0" y="170" width="219" height="172">
<rect x="0.0390625" y="170.863" width="218.918" height="170.863" fill="url(#paint0_linear)"/>
</mask>
<g mask="url(#mask0)">
<path d="M98.0593 133.868C111.562 107.791 142.524 99.5374 167.215 115.432C191.906 131.327 200.976 165.351 187.474 191.427L162.138 240.355C161.122 242.317 158.793 242.938 156.935 241.742L118.084 216.732C92.0165 199.951 82.4407 164.03 96.6961 136.5L98.0593 133.868Z" fill="white"/>
<path d="M70.9253 252.84C81.0587 233.271 104.295 227.076 122.825 239.005L149.47 256.157C151.327 257.353 152.01 259.912 150.994 261.874L133.516 295.627C123.918 314.163 101.909 320.031 84.3571 308.732C66.8056 297.433 60.3581 273.248 69.9563 254.712L70.9253 252.84Z" fill="white"/>
<path d="M196.259 207.745C207.704 185.642 233.948 178.646 254.877 192.119C275.805 205.591 283.493 234.43 272.048 256.533L270.893 258.764C258.81 282.099 231.103 289.485 209.007 275.262L175.67 253.802C174.32 252.933 173.824 251.072 174.563 249.646L196.259 207.745Z" fill="white"/>
<path d="M163.003 271.971C164.527 269.028 168.02 268.097 170.807 269.89L189.158 281.703C203.605 291.004 208.912 310.912 201.011 326.169L200.256 327.628C192.773 342.08 175.613 346.655 161.929 337.846C148.244 329.037 143.218 310.18 150.701 295.728L163.003 271.971Z" fill="white"/>
</g>
</g>
<path d="M101.2 369.908C102.624 368.865 102.814 367.442 102.814 365.829C102.529 361.94 102.909 354.067 103.953 349.229C103.288 343.822 96.6432 343.348 94.9345 347.142C93.7953 349.419 92.5612 357.861 92.5612 361.371C92.5612 362.414 92.5612 364.217 91.0423 364.976C87.435 366.493 86.3907 368.106 86.8654 370.193C87.435 372.469 90.4727 373.133 92.9409 372.849C95.4091 372.469 98.5418 371.9 101.2 369.908Z" fill="#FF644E"/>
<path d="M120.281 372.849C122.75 373.133 125.787 372.469 126.357 370.193C126.832 368.106 125.787 366.493 122.18 364.976C120.756 363.932 120.661 362.414 120.661 361.371C120.661 357.861 119.332 349.419 118.288 347.142C116.674 343.348 109.934 343.822 109.27 349.229C110.314 354.067 110.693 361.845 110.409 365.829C110.409 367.442 110.599 368.865 112.023 369.908C114.586 371.9 117.813 372.469 120.281 372.849Z" fill="#FF644E"/>
<path d="M101.959 364.976C101.865 367.347 101.675 368.391 100.251 369.434C97.5927 371.426 94.9346 372.185 92.3715 372.564C90.9475 372.754 89.3337 372.564 88.0996 371.995C89.3337 372.849 91.2323 373.134 92.9411 372.944C95.4093 372.564 98.6369 371.9 101.295 370.003C102.719 368.96 102.909 367.537 102.909 365.924C102.814 363.837 102.771 360.175 102.961 356.855C102.961 356.286 102.054 360.802 101.959 364.976Z" fill="#F4533D"/>
<path d="M97.878 328.55C92.5618 337.372 91.2328 346.193 93.4162 351.221C94.0807 352.834 101.011 357.387 106.707 357.387C112.118 357.387 117.054 355.869 119.807 351.506C123.794 345.34 119.427 337.087 117.149 329.403C114.301 319.823 103.194 319.823 97.878 328.55Z" fill="#FF644E"/>
<path opacity="0.34" d="M98.9818 329.919C94.315 337.663 93.1484 345.407 95.0651 349.821C95.6484 351.236 101.732 355.234 106.732 355.234C111.482 355.234 115.815 353.901 118.232 350.071C121.732 344.658 117.899 337.413 115.899 330.668C113.399 322.258 103.649 322.258 98.9818 329.919Z" fill="url(#paint1_radial)"/>
<path fill-rule="evenodd" clip-rule="evenodd" d="M144.489 327.981C122.56 332.724 98.8273 333.672 73.8605 331.68C69.3038 331.301 65.5066 327.886 64.8421 323.427C62.184 305.309 61.1398 287.097 61.7094 268.884C61.8992 264.141 65.6015 260.157 70.443 259.493C94.6503 256.457 117.908 254.939 139.837 255.509C144.584 255.603 148.666 259.113 149.33 263.761C152.178 282.069 153.223 300.472 152.368 318.874C152.178 323.238 148.951 327.032 144.489 327.981Z" fill="url(#paint2_linear)"/>
<path opacity="0.34" fill-rule="evenodd" clip-rule="evenodd" d="M68.7952 266.195C67.8314 267.232 67.1487 269.05 67.1104 272.385L67.11 272.411L67.1088 272.438C66.9454 275.929 66.8747 282.304 67.1074 286.614C67.1529 287.455 66.5074 288.175 65.6656 288.22C64.8239 288.266 64.1047 287.62 64.0593 286.778C63.8202 282.35 63.8925 275.89 64.0583 272.322C64.1036 268.697 64.8403 265.966 66.5597 264.116C68.298 262.247 70.7549 261.585 73.4895 261.428C74.3311 261.379 75.0525 262.022 75.101 262.864C75.1494 263.705 74.5064 264.427 73.6649 264.475C71.244 264.614 69.7445 265.174 68.7952 266.195Z" fill="url(#paint3_linear)"/>
<path opacity="0.31" d="M96.9279 366.968C95.4091 368.676 89.6183 369.245 88.669 368.581C87.7197 367.917 89.7132 366.683 92.5611 365.355C93.0358 366.209 94.2699 366.683 96.9279 366.968Z" fill="#FFAA91"/>
<path d="M111.262 364.976C111.357 367.347 111.547 368.391 112.971 369.434C115.629 371.426 118.287 372.185 120.85 372.564C122.274 372.754 123.888 372.565 125.122 371.995C123.888 372.849 121.989 373.134 120.28 372.944C117.812 372.565 114.585 371.9 111.926 370.003C110.503 368.96 110.313 367.537 110.313 365.924C110.408 363.837 110.477 360.473 110.287 357.153C110.287 356.584 111.072 360.802 111.262 364.976Z" fill="#F4533D"/>
<path opacity="0.31" d="M120.662 365.262C123.605 366.59 125.598 367.823 124.554 368.487C123.51 369.151 117.814 368.677 116.295 366.874C118.953 366.685 120.092 366.21 120.662 365.262Z" fill="#FFAA91"/>
<path d="M112.781 325.04C130.913 323.617 144.393 310.526 142.874 295.823C141.355 281.12 125.502 270.401 107.37 271.919C89.2382 273.341 75.758 286.432 77.2769 301.135C78.7958 315.838 94.6492 326.557 112.781 325.04Z" fill="#F4533D"/>
<path d="M140.502 293.736C138.888 279.318 122.939 268.978 104.903 270.78C86.8658 272.583 73.5755 285.673 75.1894 300.187C76.8032 314.605 92.7515 324.945 110.788 323.142C128.825 321.34 142.115 308.155 140.502 293.736Z" fill="#D7DBF0"/>
<path d="M118.193 278.179C113.161 271.349 100.346 271.349 89.5237 278.084C78.7016 284.914 74.05 295.918 78.9864 302.653C84.0178 309.483 96.8334 309.483 107.656 302.748C118.478 296.013 123.224 285.009 118.193 278.179Z" fill="#E6E9F6"/>
<path d="M110.694 321.245C127.307 319.632 139.648 307.396 138.129 294.115C136.23 281.404 126.927 281.12 125.218 287.096C121.136 305.973 102.625 314.415 86.9612 313.182C86.1068 313.087 85.6322 314.036 86.2018 314.51C92.2773 319.443 101.201 322.194 110.694 321.245Z" fill="#C1C5E5"/>
<path d="M127.969 301.041C125.026 300.188 123.317 297.152 124.171 294.212C125.026 291.271 128.064 289.564 131.006 290.417C133.949 291.271 135.658 294.306 134.804 297.247C133.854 300.188 130.817 301.895 127.969 301.041Z" fill="#9198BF"/>
<path d="M124.17 294.874C124.454 292.123 126.923 290.131 129.771 290.416C132.524 290.7 134.517 293.167 134.232 296.012C133.948 298.763 131.479 300.755 128.631 300.471C125.878 300.091 123.885 297.625 124.17 294.874Z" fill="#3B4965"/>
<path d="M125.596 294.687C125.121 293.928 125.691 292.6 126.83 291.936C127.969 291.177 129.393 291.272 129.867 292.031C130.342 292.79 129.773 294.118 128.633 294.782C127.399 295.541 126.07 295.446 125.596 294.687Z" fill="#40578C"/>
<path d="M126.545 293.454C126.356 293.17 126.545 292.695 127.02 292.411C127.495 292.126 127.969 292.126 128.159 292.411C128.349 292.695 128.159 293.17 127.685 293.454C127.305 293.739 126.735 293.739 126.545 293.454Z" fill="#9FB1D5"/>
<path d="M129.012 295.539C129.962 294.97 130.816 294.022 131.101 293.168C131.291 292.694 131.86 292.409 132.24 292.694C132.905 293.547 133.379 294.591 133.189 295.824C132.905 298.006 131.006 299.523 128.822 299.334C127.304 299.144 126.164 298.29 125.595 297.057C125.405 296.583 125.785 296.298 126.259 296.203C127.114 296.298 128.063 296.014 129.012 295.539Z" fill="#2B3956"/>
<path d="M86.3905 303.223C83.4476 302.369 81.7389 299.334 82.5932 296.393C83.4476 293.453 86.4854 291.745 89.4282 292.599C92.3711 293.453 94.0798 296.488 93.2255 299.429C92.3711 302.369 89.3333 303.982 86.3905 303.223Z" fill="#9198BF"/>
<path d="M82.6872 296.962C82.972 294.211 85.4402 292.219 88.2881 292.504C91.0411 292.788 93.0347 295.255 92.7499 298.1C92.4651 300.851 89.9969 302.843 87.149 302.559C84.396 302.274 82.4024 299.808 82.6872 296.962Z" fill="#3B4965"/>
<path d="M84.0175 296.867C83.5428 296.108 84.1124 294.78 85.2516 294.116C86.3907 293.357 87.8147 293.452 88.2894 294.211C88.764 294.969 88.1944 296.297 87.0553 296.962C85.9161 297.72 84.5871 297.626 84.0175 296.867Z" fill="#40578C"/>
<path d="M85.063 295.538C84.8731 295.254 85.063 294.779 85.5376 294.495C86.0123 294.21 86.487 294.21 86.6768 294.495C86.8667 294.779 86.6768 295.254 86.2022 295.538C85.8224 295.918 85.2529 295.918 85.063 295.538Z" fill="#9FB1D5"/>
<path d="M87.5299 297.625C88.4792 297.056 89.3336 296.108 89.6184 295.254C89.8083 294.78 90.3779 294.495 90.7576 294.78C91.4221 295.633 91.8967 296.677 91.7069 297.91C91.4221 300.092 89.5235 301.609 87.3401 301.42C85.8212 301.23 84.682 300.376 84.1124 299.143C83.9226 298.669 84.3023 298.384 84.7769 298.289C85.6313 298.384 86.5806 298.1 87.5299 297.625Z" fill="#2B3956"/>
<path d="M97.4024 329.879C97.4024 329.879 84.1121 333.768 83.4476 340.977C82.7831 348.471 91.6082 349.988 97.0192 348.754C104.803 346.926 109.069 338.727 119.373 338.256C118.293 335.763 115.442 333.601 112.31 332.273C106.139 329.807 99.6807 334.148 96.7379 336.519C95.3139 337.847 97.4024 329.879 97.4024 329.879Z" fill="#FF644E"/>
<path d="M117.338 329.879C117.338 329.879 130.628 333.768 131.292 340.977C131.957 348.471 124.363 349.515 118.952 348.282C113.54 347.143 107.655 339.744 102.244 339.46C96.9276 339.175 98.3515 335.855 102.623 333.673C106.895 331.492 116.483 335.286 117.907 336.519C119.331 337.752 117.338 329.879 117.338 329.879Z" fill="#FF644E"/>
<path d="M96.4531 348.754C96.4531 348.754 100.535 349.418 107.085 344.391C113.636 339.363 117.338 338.51 119.711 338.415C117.053 335.948 109.648 339.743 106.706 342.304C103.763 344.77 101.484 347.711 96.4531 348.754Z" fill="#F4533D"/>
<path d="M109.374 342.688C113.639 345.818 117.794 348.781 121.063 348.615C115.301 350.222 108.234 344.3 107.665 343.731C107 343.067 108.045 341.359 109.374 342.688Z" fill="#F4533D"/>
<path opacity="0.31" d="M96.4376 336.87C97.7176 335.05 103.917 331.441 108.376 331.497C112.836 331.552 116.631 334.822 116.631 334.822C116.631 334.822 110.786 338.809 104.692 341.358C98.5982 343.906 95.1576 338.691 96.4376 336.87Z" fill="url(#paint4_linear)"/>
<path d="M142.318 44.7164C140.817 43.8163 139.706 44.4462 138.205 45.0461C134.694 46.8758 127.551 49.6952 122.719 50.6848C118.097 53.4444 120.321 59.6844 124.433 59.6547C126.894 59.7749 135.118 57.6155 138.3 56.1758C139.26 55.6959 140.701 55.276 142.232 56.0861C145.055 58.7262 146.946 59.0564 148.656 57.8265C150.517 56.4467 149.856 54.2267 148.564 52.0967C147.303 49.8766 144.63 46.4865 142.318 44.7164Z" fill="#D8DFF2"/>
<path d="M103.159 20.0743C100.741 19.4155 97.669 19.6175 96.8388 21.8088C96.0436 23.734 96.9553 25.5471 100.146 27.5268C101.412 28.7099 101.334 30.3241 101.136 31.3132C100.68 34.7725 100.715 43.2381 101.482 45.641C102.512 49.6358 109.216 50.1183 110.583 44.8844C110.207 40.0288 111.091 32.2942 111.866 28.471C112.076 26.8744 112.194 25.4685 110.871 24.2102C108.531 21.9371 105.558 20.8662 103.159 20.0743Z" fill="#D8DFF2"/>
<path d="M97.3584 63.1334C97.0539 51.7336 102.153 42.7342 108.218 44.0546C117.434 46.1253 124.97 50.2357 125.453 57.1956C125.815 63.3155 118.612 67.2148 113.271 71.5343C106.549 76.9937 97.5718 71.8032 97.3584 63.1334Z" fill="url(#paint5_radial)"/>
<path d="M115.941 68.9245C131.492 74.5055 147.225 84.6464 158.997 97.967C158.458 101.087 153.027 105.976 149.755 105.886C146.721 98.776 125.582 82.6349 110.841 76.7239C103.846 72.4935 108.976 66.404 115.941 68.9245Z" fill="#D4DCF1"/>
<path d="M151.945 102.917C153.116 104.807 153.928 108.077 153.568 109.457C153.298 110.867 151.437 111.047 151.107 109.637C150.776 108.227 150.055 105.887 148.793 104.267C147.832 102.647 150.833 101.447 151.945 102.917Z" fill="#D4DCF1"/>
<path d="M153.623 97.8771C153.234 99.947 152.484 100.697 150.443 101.717C150.744 104.117 147.803 107.536 146.002 106.336C144.29 105.166 147.892 102.467 146.03 100.546C142.006 96.4062 154.22 90.0773 153.623 97.8771Z" fill="#D4DCF1"/>
<path d="M154.196 101.267C155.787 102.797 157.589 106.097 157.59 107.597C157.59 109.097 155.76 109.787 155.189 108.497C154.618 107.207 153.206 104.837 151.825 103.577C150.474 102.227 152.784 100.097 154.196 101.267Z" fill="#D4DCF1"/>
<path d="M156.446 99.0169C158.097 100.367 159.839 103.547 160.08 104.927C160.321 106.307 158.55 107.117 157.829 105.977C157.138 104.747 155.516 102.407 154.105 101.237C152.784 100.097 155.065 98.0568 156.446 99.0169Z" fill="#D4DCF1"/>
<path d="M158.876 97.7272C160.287 98.5973 161.339 99.6474 161.759 100.487C162.3 101.867 161.189 102.497 160.259 101.987C159.388 101.297 158.727 100.877 157.316 100.307C155.425 99.6769 157.345 96.9171 158.876 97.7272Z" fill="#D4DCF1"/>
<path d="M149.665 104.357C150.235 103.247 150.354 102.587 150.354 101.687C152.395 100.667 153.655 99.287 153.564 96.8571C154.166 99.857 152.305 101.537 151.045 102.017C151.015 103.007 150.535 103.847 149.665 104.357Z" fill="#A5ABD3"/>
<path d="M94.7763 69.0749C80.5453 61.934 54.5182 56.8622 47.1949 59.3216C44.9727 56.9815 45.03 49.6016 46.9502 47.1418C64.7805 47.0832 82.7929 52.1844 97.2643 60.1053C103.779 63.6757 102.582 71.4754 94.7763 69.0749Z" fill="#D4DCF1"/>
<path d="M49.0286 58.9316C47.0476 59.1714 44.7366 60.1012 43.5061 60.7911C42.2757 61.481 41.1645 60.011 42.0645 58.8111C42.9646 57.6112 45.8757 56.0814 48.0969 55.7216C49.7478 55.5717 50.8296 58.6317 49.0286 58.9316Z" fill="#D4DCF1"/>
<path d="M53.6518 58.5726C50.9802 58.4824 51.3721 63.0124 49.3608 62.4422C47.3494 61.8721 47.918 57.4622 49.8986 56.0224C49.2374 53.8024 49.297 52.7225 50.6172 51.1626C56.0482 45.3731 59.3852 58.7831 53.6518 58.5726Z" fill="#D4DCF1"/>
<path d="M47.5245 56.2305C45.6633 56.1104 42.992 56.6201 41.6414 57.07C40.2908 57.5199 39.5396 55.5699 40.7399 54.67C41.8502 53.7401 45.542 52.8704 47.7033 52.9906C49.4444 53.1707 49.3856 56.3506 47.5245 56.2305Z" fill="#D4DCF1"/>
<path d="M47.7057 52.9906C45.9045 52.6905 43.083 53.0502 41.6723 53.3801C40.2916 53.62 39.7806 51.85 40.951 51.0401C42.1214 50.2302 45.6931 49.4205 47.7645 49.8107C49.4756 50.0808 49.5368 53.2007 47.7057 52.9906Z" fill="#D4DCF1"/>
<path d="M46.2908 50.0218C44.9098 49.3617 44.0992 49.0917 43.0485 48.9416C42.0878 48.5215 41.7872 47.3215 43.1678 46.7816C44.0682 46.4817 45.5391 46.5718 47.1602 47.1119C48.8715 47.682 48.0922 50.9219 46.2908 50.0218Z" fill="#D4DCF1"/>
<path d="M49.1752 55.7823C48.6945 54.5223 48.7235 52.0323 51.3345 50.5026C49.534 52.0024 49.2946 53.9223 49.8658 56.1123C49.1756 56.6823 48.7856 57.2522 48.3057 58.3922C48.1552 57.3422 48.4551 56.4422 49.1752 55.7823Z" fill="#A5ABD3"/>
<path opacity="0.8" d="M101.436 23.907C104.87 25.5805 111.063 27.8905 111.707 26.0807C112.352 24.2709 108.149 21.7509 104.778 20.6272C101.54 19.5211 99.5091 19.5227 98.3973 20.2553C97.2856 20.9878 98.7644 22.6053 101.436 23.907Z" fill="#F2F3FA"/>
<path opacity="0.8" d="M144.659 46.6973C147.211 49.5474 151.026 54.9176 149.555 56.0274C148.085 57.1373 144.421 53.7171 142.469 50.867C140.517 48.017 139.946 46.127 140.486 44.807C141.025 43.4871 142.587 44.5072 144.659 46.6973Z" fill="#F2F3FA"/>
<path fill-rule="evenodd" clip-rule="evenodd" d="M103.756 151.453C82.3808 144.431 61.4845 133.27 41.0671 118.869C37.2539 116.199 35.7812 111.309 37.4606 107.169C44.3281 90.1598 52.6368 73.9309 62.5066 58.422C65.0566 54.3722 70.279 52.8127 74.7224 54.793C97.1191 64.4544 117.955 74.8957 136.51 86.4768C140.564 89.027 142.277 94.097 140.537 98.4168C133.67 115.726 125.211 132.105 115.161 147.554C112.731 151.243 107.989 152.863 103.756 151.453Z" fill="url(#paint6_linear)"/>
<path fill-rule="evenodd" clip-rule="evenodd" d="M69.7709 60.021C68.4231 60.4536 66.9379 61.7058 65.2732 64.595L65.2598 64.6183L65.2455 64.6411C63.3952 67.6057 60.2148 73.1309 58.3093 77.0035C57.9371 77.7599 57.0223 78.0713 56.2659 77.6992C55.5096 77.327 55.1981 76.4122 55.5703 75.6558C57.5281 71.677 60.7517 66.0781 62.6418 63.0475C64.4548 59.9081 66.4337 57.8861 68.8381 57.1145C71.2688 56.3343 73.7354 56.9591 76.1974 58.1597C76.955 58.5292 77.2697 59.443 76.9002 60.2006C76.5307 60.9583 75.617 61.2729 74.8593 60.9034C72.6798 59.8406 71.0982 59.595 69.7709 60.021Z" fill="url(#paint7_linear)"/>
<path opacity="0.7" d="M77.6318 130.751C94.2643 138.192 112.453 133.154 118.181 119.564C123.939 105.885 115.108 88.8449 98.4452 81.4938C81.8127 74.0528 63.6241 79.0913 57.8959 92.6806C52.1677 106.27 60.9993 123.31 77.6318 130.751Z" fill="#A5ABD3"/>
<path d="M117.129 116.414C122.617 102.944 113.576 86.234 96.8233 79.1529C80.161 72.1019 62.1225 77.2904 56.6344 90.7597C51.1463 104.229 60.1879 120.939 76.9403 128.02C93.5727 135.161 111.611 129.973 117.129 116.414Z" fill="#FFC478"/>
<path opacity="0.48" d="M104.904 92.1438C103.79 83.7739 92.4413 77.5932 79.6842 78.3422C66.9271 79.0913 57.5644 86.4704 58.6782 94.8403C59.7921 103.21 71.141 109.391 83.8981 108.642C96.6553 107.893 106.138 100.454 104.904 92.1438Z" fill="#FFDCAD"/>
<path opacity="0.44" d="M77.6908 126.372C93.1222 132.913 109.84 128.084 114.878 115.665C118.896 104.505 109.469 100.665 105.929 105.884C95.0692 121.963 73.8147 116.382 60.6339 107.891C59.8832 107.441 59.0129 107.951 59.3734 108.671C62.3479 115.961 68.8342 122.621 77.6908 126.372Z" fill="#FFAA5E"/>
<path opacity="0.44" d="M104.914 117.943C102.722 115.813 102.69 112.303 104.821 110.113C106.951 107.924 110.463 107.894 112.655 110.024C114.847 112.154 114.879 115.664 112.748 117.854C110.528 120.014 107.106 120.073 104.914 117.943Z" fill="#DB8240"/>
<path d="M104.521 110.714C106.081 108.434 109.263 107.894 111.545 109.454C113.826 111.014 114.368 114.194 112.808 116.474C111.248 118.754 108.066 119.294 105.784 117.733C103.502 116.173 102.961 112.993 104.521 110.714Z" fill="#3B4965"/>
<path d="M105.842 111.254C105.751 110.324 106.832 109.484 108.273 109.364C109.683 109.334 110.854 110.024 110.855 110.924C110.945 111.854 109.865 112.694 108.424 112.814C107.103 112.874 105.932 112.184 105.842 111.254Z" fill="#40578C"/>
<path d="M107.342 110.654C107.342 110.354 107.762 109.994 108.273 109.964C108.783 109.934 109.293 110.204 109.294 110.504C109.294 110.804 108.874 111.164 108.363 111.194C107.853 111.224 107.343 110.954 107.342 110.654Z" fill="#9FB1D5"/>
<path d="M108.544 113.654C109.655 113.624 110.795 113.204 111.486 112.635C111.906 112.275 112.506 112.275 112.746 112.755C112.897 113.805 112.807 114.975 112.087 115.935C110.797 117.704 108.336 118.184 106.564 116.894C105.333 116.084 104.702 114.674 104.852 113.324C104.912 112.844 105.362 112.694 105.782 112.934C106.533 113.384 107.464 113.594 108.544 113.654Z" fill="#2B3956"/>
<path opacity="0.44" d="M64.9529 98.83C62.7608 96.6999 62.7295 93.19 64.8599 91.0002C66.9903 88.8104 70.5023 88.7807 72.6944 90.9108C74.8865 93.0409 74.9178 96.5508 72.7874 98.7406C70.657 100.93 67.145 100.96 64.9529 98.83Z" fill="#DB8240"/>
<path d="M64.6498 91.6315C66.2098 89.3517 69.3915 88.8119 71.6734 90.3721C73.9553 91.9322 74.4968 95.1121 72.9368 97.392C71.3768 99.6718 68.1951 100.212 65.9132 98.6514C63.6613 97.0013 63.0898 93.9113 64.6498 91.6315Z" fill="#3B4965"/>
<path d="M66.002 92.0799C65.9116 91.1499 66.9919 90.31 68.4327 90.1901C69.8435 90.1602 71.0144 90.8503 71.0148 91.7503C71.1052 92.6803 70.0249 93.5202 68.5841 93.64C67.1433 93.7599 65.9723 93.0699 66.002 92.0799Z" fill="#40578C"/>
<path d="M67.4108 91.4505C67.4107 91.1505 67.8308 90.7906 68.3411 90.7606C68.8514 90.7306 69.3618 91.0007 69.3619 91.3007C69.362 91.6007 68.9419 91.9606 68.4316 91.9906C67.8914 92.1105 67.471 91.8705 67.4108 91.4505Z" fill="#9FB1D5"/>
<path d="M68.5851 94.541C69.6958 94.5111 70.8363 94.0912 71.5265 93.5212C71.9466 93.1613 72.5469 93.1613 72.7872 93.6413C72.9377 94.6913 72.8481 95.8613 72.1281 96.8212C70.838 98.5911 68.3767 99.0709 66.6052 97.7808C65.3742 96.9707 64.7433 95.5607 64.8929 94.2107C64.9527 93.7307 65.4029 93.5808 65.9133 93.8508C66.5739 94.2708 67.6245 94.4209 68.5851 94.541Z" fill="#2B3956"/>
<path d="M177.719 249.408C179.618 247.89 181.232 245.234 179.998 243.242C178.858 241.44 176.96 241.155 173.352 242.578C171.644 242.863 170.41 241.914 169.65 241.155C167.087 238.689 160.252 233.851 157.784 233.092C153.892 231.669 149.62 236.792 153.037 240.966C157.214 243.527 163.005 248.649 165.663 251.59C166.802 252.728 167.941 253.582 169.745 253.297C173.163 252.728 175.726 250.926 177.719 249.408Z" fill="#0C7ADF"/>
<path d="M143.832 251.731C143.643 250.023 143.353 244.382 144.872 240.682C146.865 234.991 140.125 233.663 136.992 236.603C135.758 237.647 133.86 240.303 133.385 241.062C133.1 241.536 132.72 242.769 132.626 243.433C132.531 244.666 133.575 247.512 130.822 248.366C126.17 249.409 125.031 251.022 125.696 253.678C126.55 256.619 136.134 256.364 139.845 255.81C143.557 255.256 144.117 253.344 143.832 251.731Z" fill="#0C7ADF"/>
<path d="M137.658 229.394C124.463 231.86 102.534 235.275 91.3322 237.931C88.769 236.034 86.7755 229.109 88.1994 226.169C95.9838 226.548 114.495 224.082 135.665 220.287C143.639 218.39 144.398 226.263 137.658 229.394Z" fill="#0C7ADF"/>
<path d="M90.0028 229.395C87.8194 229.679 84.4968 228.92 83.3576 228.067C82.2185 227.213 82.883 225.411 84.212 225.79C85.636 226.169 88.0092 226.454 90.0028 226.075C91.9963 225.885 91.8065 229.11 90.0028 229.395Z" fill="#0C7ADF"/>
<path d="M93.8005 233.093C92.0917 231.86 91.712 230.816 91.807 228.54C89.5286 227.686 87.7249 223.607 89.5286 222.564C91.3323 221.52 92.1867 225.978 94.7498 225.125C100.161 223.417 100.636 237.172 93.8005 233.093Z" fill="#0C7ADF"/>
<path d="M90.5729 232.24C88.4844 232.999 84.7821 233.189 83.3582 232.62C82.0291 232.051 82.1241 229.964 83.548 230.059C84.972 230.059 87.6301 229.869 89.4337 229.205C91.2374 228.446 92.1867 231.481 90.5729 232.24Z" fill="#0C7ADF"/>
<path d="M91.5224 235.274C89.6238 236.128 85.9215 236.412 84.5925 235.938C83.2634 235.464 83.2634 233.567 84.5925 233.472C86.0164 233.377 88.8644 232.903 90.4782 232.144C92.1869 231.48 93.0413 234.42 91.5224 235.274Z" fill="#0C7ADF"/>
<path d="M91.6161 237.931C90.1921 238.785 88.8631 239.354 87.8188 239.259C86.2999 239.164 86.2999 237.836 87.0594 237.267C88.1036 236.793 88.7681 236.319 89.9073 235.37C91.4262 234.042 93.04 236.983 91.6161 237.931Z" fill="#0C7ADF"/>
<path d="M89.7188 226.832C90.4782 227.875 90.9529 228.255 91.8072 228.634C91.8072 230.911 92.5667 232.618 94.7501 233.662C91.8072 232.903 91.0478 230.437 91.2376 229.109C90.2883 228.634 89.8137 227.781 89.7188 226.832Z" fill="#0063BF"/>
<path d="M154.27 217.631C175.629 214.69 194.046 211.37 201.261 208.619C203.539 210.896 203.729 218.2 201.925 220.761C190.534 221.615 168.51 225.125 155.219 226.832C147.91 225.978 146.106 218.2 154.27 217.631Z" fill="#0C7ADF"/>
<path d="M199.457 208.999C201.451 208.714 203.729 207.671 204.963 206.912C206.197 206.153 207.336 207.576 206.482 208.809C205.628 210.042 202.78 211.75 200.596 212.129C198.793 212.509 197.653 209.473 199.457 208.999Z" fill="#0C7ADF"/>
<path d="M194.806 209.567C197.559 209.567 196.894 205.108 198.983 205.488C201.071 205.962 200.597 210.42 198.698 211.938C199.458 214.12 199.363 215.163 198.128 216.871C192.907 222.847 189.015 209.567 194.806 209.567Z" fill="#0C7ADF"/>
<path d="M200.976 211.749C202.875 211.844 205.438 211.18 206.862 210.706C208.191 210.231 208.951 212.129 207.906 213.077C206.767 214.026 203.16 215.069 200.976 214.974C199.173 214.88 199.078 211.654 200.976 211.749Z" fill="#0C7ADF"/>
<path d="M200.976 214.974C202.78 215.164 205.628 214.689 206.957 214.405C208.286 214.12 208.855 215.828 207.716 216.681C206.577 217.535 203.065 218.484 200.881 218.199C199.267 217.914 199.078 214.784 200.976 214.974Z" fill="#0C7ADF"/>
<path d="M202.494 217.914C203.823 218.578 204.677 218.768 205.817 218.863C206.766 219.242 207.146 220.381 205.722 220.95C204.867 221.329 203.348 221.235 201.734 220.855C200.026 220.286 200.69 217.061 202.494 217.914Z" fill="#0C7ADF"/>
<path d="M199.363 212.222C199.932 213.456 199.932 216.017 197.369 217.629C199.078 216.017 199.268 214.12 198.603 211.938C199.268 211.274 199.647 210.8 200.027 209.566C200.312 210.61 200.027 211.558 199.363 212.222Z" fill="#0063BF"/>
<path d="M135.664 220.38C131.392 231.004 133.101 241.249 139.271 242.103C148.669 243.336 157.213 242.103 159.966 235.652C162.434 229.961 157.023 223.89 153.511 218.008C149.144 210.609 138.891 212.412 135.664 220.38Z" fill="#0C7ADF"/>
<path d="M136.832 221.853C132.954 231.04 133.835 238.59 140.502 240.673C147.168 242.757 156.392 240.636 158.89 235.059C161.131 230.137 156.219 224.888 153.031 219.803C149.068 213.405 139.762 214.963 136.832 221.853Z" fill="url(#paint8_radial)"/>
<path d="M188.209 220.019C177.121 220.992 125.663 225.393 105.996 224.894C133.862 220.85 155.88 217.29 183.556 212.928C185.91 214.368 188.209 215.795 190.037 216.972C191.579 217.965 191.367 219.742 188.209 220.019Z" fill="url(#paint9_linear)"/>
<path fill-rule="evenodd" clip-rule="evenodd" d="M177.781 215.134C156.327 221.869 132.879 224.904 107.723 225.189C103.071 225.189 99.0838 222.153 98.0396 217.695C93.7677 199.956 91.0147 181.838 90.0654 163.625C89.7806 158.882 93.1981 154.614 97.9446 153.57C121.772 148.353 144.84 144.748 166.674 143.42C171.421 143.136 175.788 146.266 176.927 150.819C181.389 168.842 184.142 187.055 184.901 205.458C184.996 209.821 182.053 213.806 177.781 215.134Z" fill="url(#paint10_linear)"/>
<path opacity="0.3" fill-rule="evenodd" clip-rule="evenodd" d="M97.3669 160.574C96.4986 161.692 95.9797 163.564 96.2366 166.889L96.2387 166.916L96.2398 166.943C96.3862 170.434 96.8802 176.79 97.4936 181.062C97.6134 181.897 97.0341 182.67 96.1997 182.79C95.3653 182.91 94.5918 182.331 94.472 181.496C93.8418 177.107 93.3418 170.666 93.191 167.097C92.9152 163.482 93.4071 160.696 94.9561 158.702C96.522 156.686 98.9106 155.809 101.621 155.41C102.455 155.287 103.23 155.864 103.353 156.698C103.476 157.532 102.899 158.307 102.065 158.43C99.6661 158.783 98.222 159.473 97.3669 160.574Z" fill="url(#paint11_linear)"/>
<path opacity="0.55" d="M145.886 215.133C163.828 212.098 176.074 197.869 173.321 183.356C170.568 168.842 153.765 159.641 135.823 162.676C117.882 165.712 105.635 179.941 108.388 194.454C111.141 208.967 127.944 218.169 145.886 215.133Z" fill="#1749A1"/>
<path d="M170.662 181.364C167.719 167.136 151.011 158.314 133.164 161.729C115.412 165.144 103.356 179.372 106.204 193.696C109.147 207.925 125.854 216.747 143.701 213.332C161.548 209.917 173.604 195.593 170.662 181.364Z" fill="#4BE0D7"/>
<path d="M147.12 167.989C141.519 161.634 128.703 162.772 118.545 170.455C108.388 178.139 104.686 189.522 110.286 195.783C115.887 202.138 128.703 201 138.861 193.316C149.018 185.633 152.72 174.25 147.12 167.989Z" fill="#74E9E4"/>
<path d="M143.417 211.436C159.84 208.305 171.042 195.12 168.289 181.935C165.251 169.413 156.043 169.982 154.714 176.148C152.34 195.31 134.588 205.365 118.925 205.555C118.07 205.555 117.596 206.503 118.26 206.883C125 211.341 134.019 213.238 143.417 211.436Z" fill="#25CCD7"/>
<path d="M158.796 189.808C155.853 189.238 153.86 186.393 154.429 183.357C154.999 180.417 157.847 178.425 160.885 178.994C163.827 179.563 165.821 182.409 165.251 185.444C164.682 188.48 161.834 190.377 158.796 189.808Z" fill="#00B2BD"/>
<path d="M154.524 184.021C154.619 181.271 156.898 178.994 159.651 179.089C162.404 179.184 164.682 181.46 164.587 184.211C164.492 186.962 162.214 189.239 159.461 189.144C156.708 189.049 154.429 186.772 154.524 184.021Z" fill="#3B4965"/>
<path d="M155.853 183.738C155.283 182.979 155.758 181.651 156.802 180.892C157.942 180.038 159.271 179.943 159.84 180.702C160.41 181.461 159.935 182.789 158.891 183.548C157.847 184.402 156.423 184.496 155.853 183.738Z" fill="#40578C"/>
<path d="M156.803 182.409C156.613 182.124 156.803 181.65 157.183 181.271C157.657 180.986 158.132 180.891 158.322 181.176C158.512 181.46 158.322 181.935 157.942 182.314C157.468 182.599 156.993 182.693 156.803 182.409Z" fill="#9FB1D5"/>
<path d="M159.462 184.212C160.411 183.548 161.076 182.599 161.36 181.745C161.455 181.176 162.025 180.892 162.405 181.176C163.164 181.935 163.734 182.978 163.639 184.212C163.544 186.393 161.835 188.101 159.557 188.101C158.038 188.101 156.804 187.342 156.139 186.109C155.854 185.634 156.234 185.255 156.709 185.255C157.563 185.16 158.512 184.781 159.462 184.212Z" fill="#2B3956"/>
<path d="M117.691 195.688C114.748 195.119 112.754 192.274 113.324 189.238C113.893 186.297 116.741 184.305 119.779 184.875C122.722 185.444 124.716 188.289 124.146 191.325C123.576 194.266 120.634 196.258 117.691 195.688Z" fill="#00B2BD"/>
<path d="M113.417 189.807C113.512 187.056 115.79 184.779 118.543 184.874C121.296 184.969 123.575 187.245 123.48 189.996C123.385 192.747 121.106 195.024 118.353 194.929C115.506 194.929 113.322 192.652 113.417 189.807Z" fill="#3B4965"/>
<path d="M114.748 189.523C114.178 188.764 114.653 187.436 115.697 186.677C116.836 185.823 118.165 185.728 118.735 186.487C119.304 187.246 118.83 188.574 117.785 189.333C116.646 190.187 115.317 190.282 114.748 189.523Z" fill="#40578C"/>
<path d="M115.602 188.194C115.412 187.909 115.602 187.435 115.982 187.056C116.456 186.771 116.931 186.676 117.121 186.961C117.311 187.245 117.121 187.72 116.741 188.099C116.361 188.479 115.887 188.479 115.602 188.194Z" fill="#9FB1D5"/>
<path d="M118.261 190.09C119.21 189.426 119.874 188.478 120.159 187.624C120.254 187.055 120.824 186.77 121.203 187.055C121.963 187.814 122.532 188.857 122.437 190.09C122.343 192.272 120.634 193.98 118.355 193.98C116.837 193.98 115.602 193.221 114.938 191.988C114.653 191.513 115.033 191.134 115.508 191.134C116.457 191.039 117.406 190.565 118.261 190.09Z" fill="#2B3956"/>
<path d="M137.77 250.462C136.251 252.17 128.451 251.779 127.501 251.115C126.33 250.352 129.145 249.302 131.898 248.828C132.372 249.682 135.112 250.178 137.77 250.462Z" fill="#308CFE"/>
<path d="M171.011 247.334C172.993 247.99 177.718 243.999 177.926 243.018C178.215 241.853 175.801 242.337 173.769 243.254C173.976 244.163 172.531 245.853 171.011 247.334Z" fill="#308CFE"/>
<mask id="mask1" mask-type="alpha" maskUnits="userSpaceOnUse" x="41" y="8" width="159" height="111">
<path d="M41.9922 20.3906C41.9922 13.7632 47.3648 8.39062 53.9922 8.39062L187.125 8.39062C193.752 8.39062 199.125 13.7632 199.125 20.3906V106.994C199.125 113.621 193.752 118.994 187.125 118.994L53.9922 118.994C47.3648 118.994 41.9922 113.621 41.9922 106.994L41.9922 20.3906Z" fill="url(#paint12_linear)"/>
</mask>
<g mask="url(#mask1)">
<g opacity="0.3">
<path fill-rule="evenodd" clip-rule="evenodd" d="M129.864 64.0881L67.4922 -9.87801L95.0573 -33.3809L177.248 64.0881L95.0573 161.557L67.4922 138.054L129.864 64.0881Z" fill="white"/>
</g>
</g>
<defs>
<linearGradient id="paint0_linear" x1="109.498" y1="170.863" x2="109.498" y2="341.726" gradientUnits="userSpaceOnUse">
<stop stop-color="white"/>
<stop offset="1" stop-color="white" stop-opacity="0"/>
</linearGradient>
<radialGradient id="paint1_radial" cx="0" cy="0" r="1" gradientUnits="userSpaceOnUse" gradientTransform="translate(106.917 354.821) rotate(180) scale(21.3927 13.0362)">
<stop stop-color="#FFAA91"/>
<stop offset="1" stop-color="#FF7A63" stop-opacity="0"/>
</radialGradient>
<linearGradient id="paint2_linear" x1="107.108" y1="255.391" x2="107.108" y2="332.661" gradientUnits="userSpaceOnUse">
<stop stop-color="#FF856D"/>
<stop offset="1" stop-color="#FF644E"/>
</linearGradient>
<linearGradient id="paint3_linear" x1="65.0699" y1="266.038" x2="72.4508" y2="270.637" gradientUnits="userSpaceOnUse">
<stop stop-color="#FBFBFD"/>
<stop offset="1" stop-color="#FBFBFD" stop-opacity="0"/>
</linearGradient>
<linearGradient id="paint4_linear" x1="106.908" y1="331.497" x2="107.172" y2="336.882" gradientUnits="userSpaceOnUse">
<stop stop-color="#FFAA91"/>
<stop offset="1" stop-color="#FFAA91" stop-opacity="0"/>
</linearGradient>
<radialGradient id="paint5_radial" cx="0" cy="0" r="1" gradientUnits="userSpaceOnUse" gradientTransform="translate(112.648 51.8677) rotate(106.737) scale(15.2002 14.207)">
<stop stop-color="#E5E8F6"/>
<stop offset="1" stop-color="#D4DCF1"/>
</radialGradient>
<linearGradient id="paint6_linear" x1="98.3425" y1="135.64" x2="71.0565" y2="57.0881" gradientUnits="userSpaceOnUse">
<stop stop-color="#D4DCF1"/>
<stop offset="1" stop-color="#EDEFF8"/>
</linearGradient>
<linearGradient id="paint7_linear" x1="66.5988" y1="58.0612" x2="70.7857" y2="65.6838" gradientUnits="userSpaceOnUse">
<stop stop-color="#FBFBFD"/>
<stop offset="1" stop-color="#FBFBFD" stop-opacity="0"/>
</linearGradient>
<radialGradient id="paint8_radial" cx="0" cy="0" r="1" gradientUnits="userSpaceOnUse" gradientTransform="translate(148.71 237.692) rotate(-10.7625) scale(13.6468 9.51613)">
<stop stop-color="#308CFE"/>
<stop offset="1" stop-color="#308CFE" stop-opacity="0"/>
</radialGradient>
<linearGradient id="paint9_linear" x1="170.758" y1="216.196" x2="180.287" y2="222.401" gradientUnits="userSpaceOnUse">
<stop stop-color="#125FBE"/>
<stop offset="1" stop-color="#125FBE" stop-opacity="0"/>
</linearGradient>
<linearGradient id="paint10_linear" x1="147.047" y1="217.304" x2="95.193" y2="159.245" gradientUnits="userSpaceOnUse">
<stop stop-color="#0C7ADF"/>
<stop offset="1" stop-color="#1D94ED"/>
</linearGradient>
<linearGradient id="paint11_linear" x1="93.6422" y1="160.747" x2="101.401" y2="164.676" gradientUnits="userSpaceOnUse">
<stop stop-color="#FBFBFD"/>
<stop offset="1" stop-color="#FBFBFD" stop-opacity="0"/>
</linearGradient>
<linearGradient id="paint12_linear" x1="199.125" y1="8.39063" x2="59.5817" y2="102.082" gradientUnits="userSpaceOnUse">
<stop stop-color="white"/>
<stop offset="1" stop-color="white" stop-opacity="0"/>
</linearGradient>
</defs>
</svg>
