<svg width="287" height="489" viewBox="0 0 287 489" fill="none" xmlns="http://www.w3.org/2000/svg">
<path d="M2.62268e-06 418C1.17422e-06 434.569 13.4315 448 30 448L257 448C273.569 448 287 434.569 287 418L287 254C287 237.431 273.569 224 257 224L30 224C13.4315 224 1.84085e-05 237.431 1.696e-05 254L2.62268e-06 418Z" fill="#FFCA62"/>
<path d="M2.62268e-06 126C1.17422e-06 142.569 13.4315 156 30 156L257 156C273.569 156 287 142.569 287 126L287 41C287 24.4315 273.569 11 257 11L30 11C13.4315 11 1.15021e-05 24.4314 1.00536e-05 41L2.62268e-06 126Z" fill="#666AF7"/>
<g opacity="0.4">
<mask id="mask0" mask-type="alpha" maskUnits="userSpaceOnUse" x="0" y="224" width="287" height="224">
<rect y="224" width="287" height="224" fill="url(#paint0_linear)"/>
</mask>
<g mask="url(#mask0)">
<path d="M128.504 175.499C146.206 141.313 186.797 130.492 219.166 151.33C251.536 172.167 263.427 216.773 245.725 250.958L211.939 316.208C210.923 318.169 208.594 318.79 206.736 317.595L154.757 284.134C120.582 262.134 108.028 215.042 126.717 178.95L128.504 175.499Z" fill="white"/>
<path d="M92.9341 331.47C106.219 305.814 136.682 297.693 160.974 313.332L196.951 336.491C198.809 337.687 199.491 340.246 198.475 342.208L174.99 387.563C162.407 411.864 133.553 419.556 110.543 404.743C87.5331 389.931 79.0805 358.224 91.6637 333.923L92.9341 331.47Z" fill="white"/>
<path d="M257.244 272.353C272.249 243.376 306.654 234.205 334.091 251.867C361.528 269.529 371.607 307.337 356.603 336.313L355.088 339.239C339.247 369.831 302.923 379.514 273.956 360.867L230.252 332.733C228.482 331.593 227.832 329.154 228.8 327.285L257.244 272.353Z" fill="white"/>
<path d="M214.503 354.894C216.027 351.951 219.521 351.02 222.307 352.814L247.934 369.311C266.874 381.503 273.832 407.602 263.474 427.605L262.484 429.518C252.673 448.464 230.177 454.461 212.237 442.913C194.297 431.364 187.707 406.643 197.518 387.697L214.503 354.894Z" fill="white"/>
</g>
</g>
<path d="M132.622 484.946C134.489 483.579 134.738 481.713 134.738 479.599C134.365 474.5 134.863 464.178 136.232 457.836C135.36 450.748 126.649 450.126 124.409 455.1C122.915 458.085 121.297 469.153 121.297 473.754C121.297 475.122 121.297 477.485 119.306 478.48C114.577 480.47 113.208 482.584 113.83 485.32C114.577 488.304 118.559 489.175 121.795 488.802C125.031 488.304 129.138 487.558 132.622 484.946Z" fill="#FF644E"/>
<path d="M157.638 488.802C160.873 489.175 164.856 488.304 165.603 485.32C166.225 482.584 164.856 480.47 160.127 478.48C158.26 477.112 158.135 475.122 158.135 473.754C158.135 469.153 156.393 458.085 155.024 455.1C152.908 450.126 144.072 450.748 143.201 457.836C144.57 464.178 145.068 474.376 144.694 479.599C144.694 481.713 144.943 483.579 146.81 484.946C150.17 487.558 154.402 488.304 157.638 488.802Z" fill="#FF644E"/>
<path d="M133.618 478.48C133.494 481.589 133.245 482.957 131.378 484.325C127.893 486.936 124.409 487.931 121.048 488.429C119.182 488.677 117.066 488.429 115.448 487.682C117.066 488.802 119.555 489.175 121.795 488.926C125.031 488.429 129.262 487.558 132.747 485.071C134.614 483.703 134.863 481.837 134.863 479.723C134.738 476.987 134.683 472.187 134.932 467.834C134.932 467.088 133.743 473.008 133.618 478.48Z" fill="#F4533D"/>
<path d="M128.267 430.726C121.297 442.291 119.555 453.857 122.417 460.448C123.288 462.562 132.373 468.531 139.841 468.531C146.935 468.531 153.406 466.542 157.015 460.821C162.242 452.738 156.517 441.918 153.531 431.845C149.797 419.285 135.236 419.285 128.267 430.726Z" fill="#FF644E"/>
<path opacity="0.34" d="M129.714 432.519C123.596 442.671 122.067 452.824 124.579 458.61C125.344 460.466 133.319 465.706 139.875 465.706C146.102 465.706 151.783 463.959 154.951 458.938C159.54 451.842 154.514 442.344 151.892 433.501C148.615 422.475 135.832 422.475 129.714 432.519Z" fill="url(#paint1_radial)"/>
<path fill-rule="evenodd" clip-rule="evenodd" d="M189.373 429.98C160.625 436.198 129.511 437.441 96.78 434.83C90.8063 434.332 85.8281 429.855 84.957 424.011C81.4723 400.258 80.1033 376.381 80.85 352.504C81.0989 346.286 85.9526 341.063 92.2997 340.192C124.035 336.213 154.526 334.223 183.275 334.969C189.498 335.094 194.849 339.695 195.72 345.789C199.454 369.79 200.823 393.916 199.703 418.041C199.454 423.762 195.223 428.736 189.373 429.98Z" fill="url(#paint2_linear)"/>
<path opacity="0.34" fill-rule="evenodd" clip-rule="evenodd" d="M90.1402 348.977C88.8766 350.336 87.9817 352.721 87.9313 357.092L87.9309 357.127L87.9293 357.162C87.7151 361.739 87.6224 370.096 87.9275 375.746C87.9871 376.85 87.1408 377.793 86.0373 377.852C84.9338 377.912 83.991 377.065 83.9314 375.962C83.618 370.157 83.7127 361.688 83.9301 357.01C83.9894 352.258 84.9553 348.677 87.2094 346.252C89.4884 343.801 92.7093 342.934 96.2944 342.727C97.3976 342.664 98.3435 343.507 98.407 344.61C98.4704 345.713 97.6275 346.659 96.5243 346.723C93.3505 346.905 91.3846 347.639 90.1402 348.977Z" fill="url(#paint3_linear)"/>
<path opacity="0.31" d="M127.022 481.091C125.031 483.33 117.439 484.076 116.195 483.206C114.95 482.335 117.564 480.718 121.297 478.977C121.92 480.097 123.538 480.718 127.022 481.091Z" fill="#FFAA91"/>
<path d="M145.814 478.48C145.939 481.589 146.188 482.956 148.055 484.324C151.539 486.936 155.024 487.931 158.384 488.428C160.251 488.677 162.367 488.428 163.985 487.682C162.367 488.801 159.878 489.174 157.637 488.926C154.402 488.428 150.17 487.558 146.686 485.071C144.819 483.703 144.57 481.837 144.57 479.723C144.694 476.987 144.785 472.577 144.536 468.224C144.536 467.478 145.565 473.008 145.814 478.48Z" fill="#F4533D"/>
<path opacity="0.31" d="M158.136 478.853C161.994 480.594 164.607 482.211 163.238 483.081C161.869 483.952 154.402 483.33 152.411 480.967C155.896 480.718 157.389 480.097 158.136 478.853Z" fill="#FFAA91"/>
<path d="M147.806 426.124C171.576 424.259 189.249 407.097 187.257 387.822C185.266 368.546 164.482 354.493 140.712 356.483C116.941 358.349 99.2687 375.51 101.26 394.786C103.251 414.062 124.035 428.114 147.806 426.124Z" fill="#F4533D"/>
<path d="M184.146 385.086C182.03 366.184 161.122 352.628 137.476 354.991C113.83 357.354 96.4064 374.516 98.5221 393.543C100.638 412.445 121.546 426 145.192 423.638C168.838 421.275 186.262 403.989 184.146 385.086Z" fill="#D7DBF0"/>
<path d="M154.9 364.691C148.304 355.737 131.502 355.737 117.315 364.567C103.127 373.521 97.0288 387.946 103.5 396.776C110.096 405.73 126.898 405.73 141.085 396.9C155.273 388.071 161.496 373.645 154.9 364.691Z" fill="#E6E9F6"/>
<path d="M145.068 421.15C166.847 419.036 183.026 402.994 181.035 385.583C178.546 368.919 166.349 368.546 164.109 376.381C158.758 401.128 134.489 412.196 113.954 410.58C112.834 410.455 112.212 411.699 112.959 412.321C120.924 418.787 132.622 422.394 145.068 421.15Z" fill="#C1C5E5"/>
<path d="M167.718 394.662C163.86 393.543 161.62 389.563 162.74 385.708C163.86 381.853 167.843 379.615 171.701 380.734C175.559 381.853 177.799 385.832 176.679 389.688C175.435 393.543 171.452 395.781 167.718 394.662Z" fill="#9198BF"/>
<path d="M162.74 386.578C163.113 382.971 166.349 380.36 170.082 380.733C173.691 381.106 176.305 384.339 175.932 388.07C175.558 391.677 172.323 394.288 168.589 393.915C164.98 393.418 162.366 390.184 162.74 386.578Z" fill="#3B4965"/>
<path d="M164.607 386.33C163.985 385.335 164.731 383.594 166.225 382.724C167.718 381.729 169.585 381.853 170.207 382.848C170.829 383.843 170.083 385.584 168.589 386.454C166.971 387.449 165.229 387.325 164.607 386.33Z" fill="#40578C"/>
<path d="M165.852 384.713C165.603 384.34 165.852 383.719 166.474 383.345C167.097 382.972 167.719 382.972 167.968 383.345C168.217 383.719 167.968 384.34 167.345 384.713C166.848 385.086 166.101 385.086 165.852 384.713Z" fill="#9FB1D5"/>
<path d="M169.088 387.449C170.332 386.703 171.452 385.459 171.826 384.34C172.074 383.718 172.821 383.345 173.319 383.718C174.19 384.838 174.812 386.206 174.563 387.822C174.19 390.683 171.701 392.672 168.839 392.424C166.847 392.175 165.354 391.056 164.607 389.439C164.358 388.817 164.856 388.444 165.478 388.32C166.598 388.444 167.843 388.071 169.088 387.449Z" fill="#2B3956"/>
<path d="M113.208 397.522C109.35 396.402 107.109 392.423 108.23 388.568C109.35 384.713 113.332 382.474 117.19 383.593C121.048 384.713 123.288 388.692 122.168 392.547C121.048 396.402 117.066 398.517 113.208 397.522Z" fill="#9198BF"/>
<path d="M108.354 389.314C108.728 385.708 111.964 383.096 115.697 383.469C119.306 383.842 121.92 387.076 121.546 390.807C121.173 394.413 117.937 397.024 114.204 396.651C110.595 396.278 107.981 393.045 108.354 389.314Z" fill="#3B4965"/>
<path d="M110.097 389.19C109.475 388.195 110.221 386.454 111.715 385.583C113.208 384.588 115.075 384.713 115.697 385.708C116.319 386.703 115.573 388.444 114.079 389.314C112.586 390.309 110.844 390.185 110.097 389.19Z" fill="#40578C"/>
<path d="M111.465 387.449C111.217 387.075 111.465 386.454 112.088 386.081C112.71 385.708 113.332 385.708 113.581 386.081C113.83 386.454 113.581 387.075 112.959 387.449C112.461 387.946 111.714 387.946 111.465 387.449Z" fill="#9FB1D5"/>
<path d="M114.701 390.185C115.946 389.439 117.066 388.195 117.439 387.076C117.688 386.454 118.435 386.081 118.932 386.454C119.804 387.573 120.426 388.941 120.177 390.558C119.804 393.418 117.315 395.408 114.452 395.159C112.461 394.91 110.967 393.791 110.221 392.175C109.972 391.553 110.47 391.18 111.092 391.055C112.212 391.18 113.457 390.807 114.701 390.185Z" fill="#2B3956"/>
<path d="M127.644 432.467C127.644 432.467 110.221 437.566 109.35 447.017C108.479 456.841 120.048 458.829 127.142 457.212C137.346 454.816 142.939 444.067 156.448 443.449C155.031 440.181 151.294 437.346 147.188 435.605C139.098 432.372 130.631 438.063 126.773 441.172C124.906 442.913 127.644 432.467 127.644 432.467Z" fill="#FF644E"/>
<path d="M153.779 432.467C153.779 432.467 171.203 437.566 172.074 447.017C172.945 456.841 162.989 458.209 155.895 456.593C148.801 455.1 141.085 445.4 133.991 445.027C127.022 444.654 128.889 440.301 134.489 437.441C140.09 434.581 152.659 439.555 154.526 441.172C156.393 442.789 153.779 432.467 153.779 432.467Z" fill="#FF644E"/>
<path d="M126.4 457.215C126.4 457.215 131.751 458.085 140.339 451.494C148.926 444.903 153.78 443.784 156.891 443.66C153.406 440.426 143.699 445.401 139.841 448.758C135.983 451.992 132.996 455.847 126.4 457.215Z" fill="#F4533D"/>
<path d="M143.338 449.26C148.931 453.364 154.378 457.249 158.663 457.031C151.11 459.137 141.845 451.374 141.098 450.628C140.227 449.757 141.596 447.519 143.338 449.26Z" fill="#F4533D"/>
<path opacity="0.31" d="M126.379 441.633C128.057 439.246 136.184 434.516 142.031 434.588C147.877 434.661 152.852 438.948 152.852 438.948C152.852 438.948 145.19 444.175 137.201 447.516C129.212 450.857 124.701 444.021 126.379 441.633Z" fill="url(#paint4_linear)"/>
<path d="M186.528 58.6238C184.56 57.4438 183.104 58.2696 181.137 59.056C176.534 61.4547 167.169 65.1509 160.834 66.4483C154.775 70.0661 157.69 78.2467 163.081 78.2078C166.308 78.3654 177.09 75.5345 181.261 73.647C182.52 73.0178 184.408 72.4674 186.416 73.5294C190.116 76.9906 192.596 77.4234 194.838 75.8111C197.277 74.0022 196.41 71.0918 194.717 68.2993C193.063 65.3888 189.559 60.9444 186.528 58.6238Z" fill="#D8DFF2"/>
<path d="M135.191 26.3171C132.021 25.4533 127.994 25.7181 126.905 28.591C125.863 31.1149 127.058 33.4918 131.241 36.0872C132.9 37.6382 132.799 39.7544 132.539 41.0511C131.942 45.5863 131.988 56.6846 132.992 59.8348C134.343 65.0719 143.132 65.7045 144.924 58.8429C144.432 52.4773 145.59 42.3373 146.606 37.3251C146.882 35.2319 147.036 33.3888 145.301 31.7391C142.233 28.7591 138.337 27.3553 135.191 26.3171Z" fill="#D8DFF2"/>
<path d="M127.587 82.7675C127.188 67.8226 133.873 56.0244 141.823 57.7555C153.906 60.47 163.785 65.8588 164.418 74.9832C164.893 83.0063 155.451 88.1183 148.448 93.7812C139.636 100.938 127.867 94.1336 127.587 82.7675Z" fill="url(#paint5_radial)"/>
<path d="M151.949 90.3602C172.336 97.6769 192.962 110.972 208.395 128.435C207.688 132.525 200.568 138.935 196.278 138.817C192.3 129.495 164.588 108.334 145.263 100.585C136.092 95.0392 142.818 87.0559 151.949 90.3602Z" fill="#D4DCF1"/>
<path d="M199.15 134.923C200.685 137.4 201.749 141.687 201.278 143.496C200.924 145.345 198.485 145.581 198.051 143.732C197.617 141.884 196.672 138.816 195.018 136.692C193.758 134.568 197.693 132.995 199.15 134.923Z" fill="#D4DCF1"/>
<path d="M201.351 128.316C200.84 131.03 199.857 132.013 197.182 133.35C197.576 136.496 193.721 140.979 191.36 139.406C189.116 137.872 193.837 134.333 191.396 131.816C186.121 126.388 202.134 118.091 201.351 128.316Z" fill="#D4DCF1"/>
<path d="M202.1 132.76C204.187 134.766 206.55 139.093 206.55 141.059C206.551 143.026 204.151 143.93 203.403 142.239C202.654 140.548 200.804 137.44 198.993 135.788C197.221 134.019 200.25 131.226 202.1 132.76Z" fill="#D4DCF1"/>
<path d="M205.05 129.811C207.216 131.581 209.5 135.75 209.815 137.559C210.131 139.368 207.809 140.43 206.864 138.935C205.958 137.322 203.832 134.255 201.982 132.721C200.25 131.226 203.24 128.552 205.05 129.811Z" fill="#D4DCF1"/>
<path d="M208.238 128.12C210.088 129.261 211.465 130.637 212.017 131.738C212.726 133.548 211.27 134.373 210.05 133.705C208.908 132.8 208.042 132.249 206.193 131.502C203.713 130.676 206.23 127.058 208.238 128.12Z" fill="#D4DCF1"/>
<path d="M196.159 136.81C196.907 135.355 197.064 134.49 197.063 133.31C199.739 131.973 201.391 130.164 201.272 126.979C202.06 130.912 199.621 133.114 197.968 133.743C197.93 135.041 197.3 136.142 196.159 136.81Z" fill="#A5ABD3"/>
<path d="M124.206 90.5539C105.549 81.1922 71.428 74.5431 61.8272 77.7674C58.9139 74.6995 58.989 65.0246 61.5063 61.7999C84.8817 61.7229 108.496 68.4106 127.468 78.7948C136.009 83.4756 134.439 93.7009 124.206 90.5539Z" fill="#D4DCF1"/>
<path d="M64.2276 77.2568C61.6304 77.5712 58.6007 78.7902 56.9876 79.6946C55.3745 80.5991 53.9177 78.6719 55.0977 77.0988C56.2777 75.5257 60.0941 73.5202 63.006 73.0485C65.1704 72.852 66.5886 76.8637 64.2276 77.2568Z" fill="#D4DCF1"/>
<path d="M70.2874 76.7857C66.785 76.6675 67.2988 82.6062 64.6619 81.8587C62.025 81.1113 62.7705 75.33 65.3671 73.4424C64.5002 70.532 64.5784 69.1162 66.3091 67.0712C73.4291 59.4813 77.8039 77.0616 70.2874 76.7857Z" fill="#D4DCF1"/>
<path d="M62.2584 73.7169C59.8185 73.5594 56.3164 74.2278 54.5457 74.8176C52.7751 75.4074 51.7903 72.8509 53.364 71.6712C54.8195 70.4521 59.6595 69.3119 62.4929 69.4694C64.7755 69.7056 64.6984 73.8744 62.2584 73.7169Z" fill="#D4DCF1"/>
<path d="M62.4933 69.4694C60.132 69.0759 56.433 69.5476 54.5836 69.9801C52.7735 70.2946 52.1036 67.9741 53.638 66.9124C55.1723 65.8506 59.8549 64.7891 62.5704 65.3006C64.8137 65.6547 64.8939 69.7449 62.4933 69.4694Z" fill="#D4DCF1"/>
<path d="M60.6418 65.5758C58.8312 64.7104 57.7686 64.3564 56.3911 64.1596C55.1316 63.6089 54.7375 62.0358 56.5475 61.328C57.7279 60.9348 59.6562 61.0529 61.7815 61.761C64.0249 62.5084 63.0034 66.7558 60.6418 65.5758Z" fill="#D4DCF1"/>
<path d="M64.4226 73.1273C63.7923 71.4755 63.8304 68.2112 67.2534 66.2056C64.8929 68.1719 64.5791 70.6889 65.3279 73.56C64.423 74.3072 63.9117 75.0544 63.2827 76.5488C63.0854 75.1723 63.4785 73.9925 64.4226 73.1273Z" fill="#A5ABD3"/>
<path opacity="0.8" d="M132.931 31.3412C137.434 33.5352 145.553 36.5636 146.398 34.1909C147.243 31.8183 141.733 28.5146 137.313 27.0414C133.068 25.5913 130.406 25.5934 128.948 26.5538C127.491 27.5143 129.43 29.6347 132.931 31.3412Z" fill="#F2F3FA"/>
<path opacity="0.8" d="M189.598 61.2202C192.945 64.9567 197.945 71.9969 196.017 73.452C194.09 74.907 189.287 70.4231 186.728 66.6867C184.168 62.9503 183.42 60.4725 184.127 58.7421C184.835 57.0117 186.882 58.349 189.598 61.2202Z" fill="#F2F3FA"/>
<path fill-rule="evenodd" clip-rule="evenodd" d="M135.974 198.552C107.951 189.347 80.5562 174.715 53.7892 155.835C48.7901 152.334 46.8594 145.923 49.0611 140.496C58.0644 118.197 68.957 96.9213 81.8962 76.5892C85.2392 71.2801 92.0858 69.2355 97.911 71.8316C127.273 84.4977 154.589 98.1862 178.914 113.369C184.228 116.712 186.474 123.359 184.194 129.022C175.191 151.714 164.101 173.187 150.926 193.44C147.74 198.277 141.523 200.401 135.974 198.552Z" fill="url(#paint6_linear)"/>
<path fill-rule="evenodd" clip-rule="evenodd" d="M91.4194 78.6859C89.6525 79.253 87.7054 80.8947 85.523 84.6824L85.5054 84.7129L85.4867 84.7429C83.061 88.6294 78.8915 95.8729 76.3933 100.95C75.9054 101.941 74.7061 102.35 73.7145 101.862C72.723 101.374 72.3147 100.175 72.8026 99.1831C75.3692 93.9669 79.5953 86.6267 82.0733 82.6536C84.45 78.5379 87.0444 75.8871 90.1965 74.8755C93.3832 73.8527 96.6168 74.6718 99.8445 76.2458C100.838 76.7302 101.25 77.9281 100.766 78.9214C100.281 79.9147 99.0836 80.3272 98.0903 79.8428C95.233 78.4494 93.1595 78.1275 91.4194 78.6859Z" fill="url(#paint7_linear)"/>
<path opacity="0.7" d="M101.727 171.412C123.532 181.167 147.377 174.562 154.886 156.746C162.435 138.813 150.857 116.473 129.013 106.836C107.208 97.0808 83.3625 103.686 75.8529 121.502C68.3433 139.317 79.9215 161.657 101.727 171.412Z" fill="#A5ABD3"/>
<path d="M153.507 152.617C160.702 134.959 148.849 113.052 126.886 103.769C105.042 94.5248 81.3939 101.327 74.199 118.985C67.0042 136.643 78.8577 158.55 100.82 167.833C122.625 177.195 146.273 170.393 153.507 152.617Z" fill="#FFC478"/>
<path opacity="0.48" d="M137.479 120.799C136.018 109.826 121.14 101.723 104.416 102.705C87.6911 103.687 75.4167 113.361 76.877 124.334C78.3372 135.307 93.2155 143.41 109.94 142.428C126.665 141.446 139.096 131.693 137.479 120.799Z" fill="#FFDCAD"/>
<path opacity="0.44" d="M101.803 165.67C122.033 174.246 143.951 167.915 150.556 151.634C155.823 137.004 143.465 131.969 138.824 138.811C124.586 159.891 96.7215 152.573 79.4415 141.442C78.4574 140.852 77.3165 141.521 77.7891 142.465C81.6886 152.022 90.1921 160.753 101.803 165.67Z" fill="#FFAA5E"/>
<path opacity="0.44" d="M137.492 154.621C134.618 151.829 134.577 147.227 137.37 144.356C140.163 141.486 144.767 141.447 147.641 144.239C150.515 147.032 150.556 151.633 147.763 154.504C144.852 157.336 140.366 157.414 137.492 154.621Z" fill="#DB8240"/>
<path d="M136.976 145.143C139.022 142.155 143.193 141.447 146.184 143.492C149.176 145.538 149.886 149.707 147.841 152.695C145.795 155.684 141.624 156.392 138.633 154.346C135.641 152.301 134.931 148.132 136.976 145.143Z" fill="#3B4965"/>
<path d="M138.709 145.851C138.59 144.632 140.006 143.531 141.895 143.374C143.745 143.335 145.28 144.239 145.28 145.419C145.399 146.638 143.982 147.739 142.094 147.897C140.362 147.975 138.827 147.071 138.709 145.851Z" fill="#40578C"/>
<path d="M140.676 145.065C140.676 144.672 141.226 144.2 141.895 144.161C142.564 144.122 143.233 144.476 143.234 144.869C143.234 145.262 142.683 145.734 142.014 145.773C141.345 145.813 140.676 145.459 140.676 145.065Z" fill="#9FB1D5"/>
<path d="M142.251 148.998C143.707 148.958 145.202 148.408 146.107 147.661C146.658 147.189 147.445 147.189 147.76 147.818C147.957 149.195 147.84 150.729 146.896 151.987C145.205 154.307 141.978 154.936 139.655 153.245C138.042 152.183 137.215 150.334 137.411 148.565C137.489 147.935 138.079 147.739 138.63 148.054C139.614 148.644 140.834 148.919 142.251 148.998Z" fill="#2B3956"/>
<path opacity="0.44" d="M85.1039 129.565C82.2301 126.773 82.189 122.171 84.9819 119.3C87.7749 116.43 92.3791 116.391 95.2529 119.183C98.1267 121.976 98.1678 126.577 95.3749 129.448C92.5819 132.319 87.9777 132.358 85.1039 129.565Z" fill="#DB8240"/>
<path d="M84.7071 120.126C86.7523 117.138 90.9234 116.43 93.915 118.475C96.9065 120.521 97.6165 124.69 95.5713 127.678C93.5261 130.667 89.355 131.375 86.3634 129.33C83.4111 127.166 82.6619 123.115 84.7071 120.126Z" fill="#3B4965"/>
<path d="M86.4778 120.716C86.3593 119.497 87.7755 118.396 89.6644 118.239C91.514 118.2 93.0491 119.104 93.0495 120.284C93.168 121.503 91.7518 122.604 89.8629 122.762C87.974 122.919 86.4389 122.014 86.4778 120.716Z" fill="#40578C"/>
<path d="M88.3272 119.891C88.327 119.497 88.8778 119.026 89.5468 118.986C90.2157 118.947 90.8849 119.301 90.885 119.694C90.8852 120.088 90.3344 120.559 89.6654 120.599C88.9571 120.756 88.4061 120.441 88.3272 119.891Z" fill="#9FB1D5"/>
<path d="M89.8636 123.942C91.3196 123.902 92.8148 123.352 93.7196 122.605C94.2704 122.133 95.0574 122.133 95.3725 122.762C95.5698 124.139 95.4523 125.672 94.5083 126.931C92.817 129.251 89.5904 129.88 87.2679 128.189C85.654 127.127 84.8269 125.278 85.023 123.509C85.1015 122.879 85.6917 122.683 86.3608 123.037C87.2268 123.587 88.6042 123.784 89.8636 123.942Z" fill="#2B3956"/>
<path d="M232.939 326.971C235.428 324.981 237.544 321.499 235.926 318.887C234.432 316.525 231.943 316.152 227.214 318.017C224.974 318.39 223.356 317.146 222.36 316.152C219 312.918 210.039 306.576 206.804 305.581C201.701 303.716 196.101 310.431 200.581 315.903C206.057 319.261 213.649 325.976 217.133 329.831C218.627 331.323 220.12 332.443 222.485 332.07C226.965 331.323 230.325 328.961 232.939 326.971Z" fill="#0C7ADF"/>
<path d="M188.516 330.015C188.267 327.776 187.887 320.38 189.879 315.53C192.492 308.068 183.656 306.327 179.549 310.183C177.931 311.551 175.442 315.033 174.82 316.027C174.446 316.649 173.949 318.266 173.824 319.136C173.7 320.753 175.069 324.484 171.46 325.603C165.361 326.971 163.868 329.085 164.739 332.567C165.859 336.422 178.423 336.088 183.289 335.362C188.155 334.636 188.89 332.129 188.516 330.015Z" fill="#0C7ADF"/>
<path d="M180.42 300.731C163.121 303.965 134.372 308.441 119.687 311.923C116.326 309.436 113.713 300.358 115.58 296.503C125.785 297 150.053 293.767 177.806 288.793C188.261 286.306 189.256 296.627 180.42 300.731Z" fill="#0C7ADF"/>
<path d="M117.945 300.731C115.082 301.104 110.726 300.109 109.233 298.99C107.739 297.871 108.611 295.508 110.353 296.006C112.22 296.503 115.331 296.876 117.945 296.379C120.558 296.13 120.309 300.358 117.945 300.731Z" fill="#0C7ADF"/>
<path d="M122.923 305.581C120.682 303.965 120.185 302.597 120.309 299.612C117.322 298.493 114.957 293.145 117.322 291.777C119.687 290.409 120.807 296.254 124.167 295.135C131.261 292.897 131.883 310.929 122.923 305.581Z" fill="#0C7ADF"/>
<path d="M118.691 304.462C115.953 305.457 111.099 305.705 109.233 304.959C107.49 304.213 107.615 301.477 109.482 301.602C111.348 301.602 114.833 301.353 117.198 300.482C119.562 299.487 120.807 303.467 118.691 304.462Z" fill="#0C7ADF"/>
<path d="M119.935 308.441C117.446 309.561 112.593 309.934 110.85 309.312C109.108 308.69 109.108 306.203 110.85 306.079C112.717 305.954 116.451 305.332 118.566 304.338C120.806 303.467 121.927 307.322 119.935 308.441Z" fill="#0C7ADF"/>
<path d="M120.06 311.923C118.193 313.043 116.451 313.789 115.082 313.664C113.09 313.54 113.09 311.799 114.086 311.053C115.455 310.431 116.326 309.809 117.82 308.566C119.811 306.825 121.927 310.68 120.06 311.923Z" fill="#0C7ADF"/>
<path d="M117.571 297.373C118.566 298.741 119.189 299.239 120.309 299.736C120.309 302.721 121.304 304.959 124.167 306.327C120.309 305.332 119.313 302.099 119.562 300.358C118.318 299.736 117.695 298.617 117.571 297.373Z" fill="#0063BF"/>
<path d="M202.199 285.311C230.201 281.456 254.345 277.103 263.804 273.497C266.79 276.481 267.039 286.057 264.675 289.415C249.74 290.534 220.867 295.135 203.444 297.374C193.861 296.254 191.496 286.057 202.199 285.311Z" fill="#0C7ADF"/>
<path d="M261.439 273.994C264.053 273.621 267.04 272.253 268.657 271.258C270.275 270.263 271.769 272.129 270.649 273.745C269.529 275.362 265.795 277.601 262.933 278.098C260.568 278.595 259.075 274.616 261.439 273.994Z" fill="#0C7ADF"/>
<path d="M255.341 274.74C258.95 274.74 258.079 268.895 260.817 269.393C263.554 270.015 262.932 275.86 260.443 277.849C261.439 280.71 261.314 282.077 259.696 284.316C252.851 292.151 247.749 274.74 255.341 274.74Z" fill="#0C7ADF"/>
<path d="M263.431 277.601C265.92 277.725 269.28 276.855 271.147 276.233C272.889 275.611 273.885 278.098 272.516 279.342C271.022 280.586 266.293 281.954 263.431 281.829C261.066 281.705 260.941 277.477 263.431 277.601Z" fill="#0C7ADF"/>
<path d="M263.43 281.829C265.795 282.077 269.528 281.456 271.271 281.082C273.013 280.709 273.76 282.948 272.266 284.067C270.773 285.186 266.168 286.43 263.306 286.057C261.19 285.684 260.941 281.58 263.43 281.829Z" fill="#0C7ADF"/>
<path d="M265.421 285.684C267.164 286.554 268.284 286.803 269.777 286.927C271.022 287.425 271.519 288.917 269.653 289.663C268.532 290.161 266.541 290.036 264.426 289.539C262.185 288.793 263.057 284.565 265.421 285.684Z" fill="#0C7ADF"/>
<path d="M261.314 278.223C262.061 279.839 262.061 283.197 258.701 285.311C260.941 283.197 261.19 280.71 260.319 277.849C261.19 276.979 261.688 276.357 262.186 274.74C262.559 276.108 262.186 277.352 261.314 278.223Z" fill="#0063BF"/>
<path d="M177.806 288.917C172.206 302.845 174.446 316.276 182.535 317.395C194.856 319.012 206.057 317.395 209.666 308.939C212.902 301.477 205.808 293.518 201.203 285.808C195.479 276.108 182.038 278.471 177.806 288.917Z" fill="#0C7ADF"/>
<path d="M179.338 290.848C174.255 302.891 175.409 312.789 184.149 315.52C192.889 318.252 204.981 315.472 208.257 308.16C211.194 301.708 204.755 294.826 200.575 288.159C195.379 279.772 183.179 281.815 179.338 290.848Z" fill="url(#paint8_radial)"/>
<path d="M246.694 288.444C232.157 289.719 164.696 295.489 138.913 294.835C175.445 289.533 204.31 284.866 240.593 279.147C243.68 281.036 246.694 282.906 249.09 284.449C251.112 285.751 250.834 288.081 246.694 288.444Z" fill="url(#paint9_linear)"/>
<path fill-rule="evenodd" clip-rule="evenodd" d="M233.023 282.039C204.897 290.869 174.157 294.848 141.176 295.221C135.078 295.221 129.851 291.242 128.482 285.397C122.882 262.142 119.273 238.389 118.028 214.512C117.655 208.294 122.135 202.698 128.358 201.33C159.595 194.49 189.838 189.765 218.462 188.024C224.685 187.65 230.409 191.754 231.903 197.724C237.752 221.352 241.361 245.229 242.357 269.354C242.481 275.075 238.623 280.298 233.023 282.039Z" fill="url(#paint10_linear)"/>
<path opacity="0.3" fill-rule="evenodd" clip-rule="evenodd" d="M127.6 210.513C126.462 211.979 125.781 214.433 126.118 218.792L126.121 218.827L126.122 218.862C126.314 223.439 126.962 231.772 127.766 237.373C127.923 238.467 127.164 239.481 126.07 239.638C124.976 239.795 123.962 239.036 123.805 237.942C122.979 232.187 122.323 223.743 122.125 219.064C121.764 214.326 122.409 210.673 124.439 208.058C126.492 205.415 129.624 204.266 133.177 203.743C134.27 203.582 135.287 204.338 135.448 205.431C135.608 206.525 134.853 207.541 133.759 207.702C130.614 208.165 128.721 209.07 127.6 210.513Z" fill="url(#paint11_linear)"/>
<path opacity="0.55" d="M191.206 282.039C214.727 278.06 230.782 259.406 227.173 240.379C223.564 221.352 201.535 209.289 178.014 213.269C154.492 217.248 138.438 235.902 142.047 254.929C145.656 273.956 167.684 286.019 191.206 282.039Z" fill="#1749A1"/>
<path d="M223.688 237.767C219.83 219.114 197.927 207.548 174.529 212.025C151.256 216.502 135.451 235.156 139.185 253.934C143.043 272.588 164.946 284.153 188.344 279.676C211.741 275.2 227.546 256.421 223.688 237.767Z" fill="#4BE0D7"/>
<path d="M192.824 220.233C185.481 211.901 168.68 213.393 155.363 223.466C142.047 233.539 137.193 248.462 144.536 256.67C151.879 265.002 168.68 263.51 181.996 253.437C195.313 243.363 200.167 228.44 192.824 220.233Z" fill="#74E9E4"/>
<path d="M187.97 277.189C209.501 273.086 224.186 255.8 220.577 238.514C216.595 222.098 204.523 222.844 202.78 230.928C199.669 256.048 176.396 269.23 155.861 269.479C154.741 269.479 154.119 270.723 154.99 271.22C163.826 277.065 175.649 279.552 187.97 277.189Z" fill="#25CCD7"/>
<path d="M208.132 248.835C204.274 248.089 201.66 244.358 202.407 240.379C203.154 236.524 206.887 233.912 210.87 234.658C214.728 235.404 217.341 239.135 216.594 243.115C215.848 247.094 212.114 249.581 208.132 248.835Z" fill="#00B2BD"/>
<path d="M202.531 241.249C202.655 237.642 205.642 234.658 209.251 234.782C212.86 234.907 215.847 237.891 215.723 241.498C215.598 245.104 212.612 248.089 209.002 247.964C205.393 247.84 202.406 244.855 202.531 241.249Z" fill="#3B4965"/>
<path d="M204.274 240.877C203.527 239.882 204.149 238.141 205.518 237.146C207.012 236.026 208.754 235.902 209.501 236.897C210.247 237.892 209.625 239.633 208.256 240.628C206.887 241.747 205.02 241.871 204.274 240.877Z" fill="#40578C"/>
<path d="M205.519 239.135C205.27 238.762 205.519 238.141 206.016 237.643C206.639 237.27 207.261 237.146 207.51 237.519C207.759 237.892 207.51 238.514 207.012 239.011C206.39 239.384 205.767 239.508 205.519 239.135Z" fill="#9FB1D5"/>
<path d="M209.003 241.498C210.248 240.628 211.119 239.384 211.492 238.265C211.617 237.519 212.364 237.145 212.861 237.519C213.857 238.513 214.604 239.881 214.479 241.498C214.355 244.358 212.115 246.597 209.128 246.597C207.136 246.597 205.519 245.602 204.647 243.985C204.274 243.363 204.772 242.866 205.394 242.866C206.514 242.742 207.759 242.244 209.003 241.498Z" fill="#2B3956"/>
<path d="M154.243 256.546C150.385 255.8 147.772 252.069 148.519 248.089C149.265 244.234 152.999 241.623 156.981 242.369C160.84 243.115 163.453 246.846 162.706 250.825C161.96 254.68 158.102 257.292 154.243 256.546Z" fill="#00B2BD"/>
<path d="M148.643 248.835C148.768 245.229 151.754 242.244 155.364 242.368C158.973 242.493 161.96 245.477 161.835 249.084C161.711 252.69 158.724 255.675 155.115 255.55C151.381 255.55 148.519 252.566 148.643 248.835Z" fill="#3B4965"/>
<path d="M150.386 248.462C149.639 247.467 150.261 245.726 151.63 244.731C153.124 243.612 154.866 243.488 155.613 244.483C156.36 245.478 155.737 247.219 154.368 248.213C152.875 249.333 151.133 249.457 150.386 248.462Z" fill="#40578C"/>
<path d="M151.505 246.721C151.256 246.348 151.505 245.726 152.003 245.228C152.625 244.855 153.248 244.731 153.497 245.104C153.746 245.477 153.497 246.099 152.999 246.596C152.501 247.094 151.879 247.094 151.505 246.721Z" fill="#9FB1D5"/>
<path d="M154.991 249.208C156.235 248.337 157.106 247.094 157.48 245.975C157.604 245.229 158.351 244.855 158.849 245.229C159.844 246.223 160.591 247.591 160.467 249.208C160.342 252.068 158.102 254.307 155.115 254.307C153.124 254.307 151.506 253.312 150.635 251.695C150.261 251.073 150.759 250.576 151.381 250.576C152.626 250.452 153.87 249.83 154.991 249.208Z" fill="#2B3956"/>
<path d="M180.565 328.353C178.574 330.591 168.348 330.08 167.103 329.209C165.568 328.208 169.258 326.832 172.867 326.21C173.489 327.33 177.081 327.98 180.565 328.353Z" fill="#308CFE"/>
<path d="M224.145 324.255C226.744 325.114 232.938 319.883 233.21 318.597C233.589 317.069 230.425 317.704 227.761 318.905C228.032 320.098 226.137 322.313 224.145 324.255Z" fill="#308CFE"/>
<mask id="mask1" mask-type="alpha" maskUnits="userSpaceOnUse" x="55" y="11" width="206" height="145">
<path d="M55 23C55 16.3726 60.3726 11 67 11L249 11C255.627 11 261 16.3726 261 23V144C261 150.627 255.627 156 249 156L67 156C60.3726 156 55 150.627 55 144L55 23Z" fill="url(#paint12_linear)"/>
</mask>
<g mask="url(#mask1)">
<g opacity="0.3">
<path fill-rule="evenodd" clip-rule="evenodd" d="M170.2 84.0178L88.4314 -12.9511L124.569 -43.7632L232.32 84.0178L124.569 211.799L88.4314 180.987L170.2 84.0178Z" fill="white"/>
</g>
</g>
<defs>
<linearGradient id="paint0_linear" x1="143.5" y1="224" x2="143.5" y2="448" gradientUnits="userSpaceOnUse">
<stop stop-color="white"/>
<stop offset="1" stop-color="white" stop-opacity="0"/>
</linearGradient>
<radialGradient id="paint1_radial" cx="0" cy="0" r="1" gradientUnits="userSpaceOnUse" gradientTransform="translate(140.117 465.165) rotate(180) scale(28.0457 17.0904)">
<stop stop-color="#FFAA91"/>
<stop offset="1" stop-color="#FF7A63" stop-opacity="0"/>
</radialGradient>
<linearGradient id="paint2_linear" x1="140.367" y1="334.815" x2="140.367" y2="436.116" gradientUnits="userSpaceOnUse">
<stop stop-color="#FF856D"/>
<stop offset="1" stop-color="#FF644E"/>
</linearGradient>
<linearGradient id="paint3_linear" x1="85.2563" y1="348.771" x2="94.9326" y2="354.801" gradientUnits="userSpaceOnUse">
<stop stop-color="#FBFBFD"/>
<stop offset="1" stop-color="#FBFBFD" stop-opacity="0"/>
</linearGradient>
<linearGradient id="paint4_linear" x1="140.106" y1="434.588" x2="140.453" y2="441.648" gradientUnits="userSpaceOnUse">
<stop stop-color="#FFAA91"/>
<stop offset="1" stop-color="#FFAA91" stop-opacity="0"/>
</linearGradient>
<radialGradient id="paint5_radial" cx="0" cy="0" r="1" gradientUnits="userSpaceOnUse" gradientTransform="translate(147.632 67.9984) rotate(106.737) scale(19.9274 18.6253)">
<stop stop-color="#E5E8F6"/>
<stop offset="1" stop-color="#D4DCF1"/>
</radialGradient>
<linearGradient id="paint6_linear" x1="128.877" y1="177.821" x2="93.105" y2="74.8406" gradientUnits="userSpaceOnUse">
<stop stop-color="#D4DCF1"/>
<stop offset="1" stop-color="#EDEFF8"/>
</linearGradient>
<linearGradient id="paint7_linear" x1="87.2608" y1="76.1166" x2="92.7498" y2="86.1098" gradientUnits="userSpaceOnUse">
<stop stop-color="#FBFBFD"/>
<stop offset="1" stop-color="#FBFBFD" stop-opacity="0"/>
</linearGradient>
<radialGradient id="paint8_radial" cx="0" cy="0" r="1" gradientUnits="userSpaceOnUse" gradientTransform="translate(194.91 311.612) rotate(-10.7625) scale(17.8908 12.4756)">
<stop stop-color="#308CFE"/>
<stop offset="1" stop-color="#308CFE" stop-opacity="0"/>
</radialGradient>
<linearGradient id="paint9_linear" x1="223.816" y1="283.433" x2="236.308" y2="291.567" gradientUnits="userSpaceOnUse">
<stop stop-color="#125FBE"/>
<stop offset="1" stop-color="#125FBE" stop-opacity="0"/>
</linearGradient>
<linearGradient id="paint10_linear" x1="192.731" y1="284.885" x2="124.75" y2="208.77" gradientUnits="userSpaceOnUse">
<stop stop-color="#0C7ADF"/>
<stop offset="1" stop-color="#1D94ED"/>
</linearGradient>
<linearGradient id="paint11_linear" x1="122.717" y1="210.74" x2="132.889" y2="215.89" gradientUnits="userSpaceOnUse">
<stop stop-color="#FBFBFD"/>
<stop offset="1" stop-color="#FBFBFD" stop-opacity="0"/>
</linearGradient>
<linearGradient id="paint12_linear" x1="261" y1="11" x2="78.0597" y2="133.829" gradientUnits="userSpaceOnUse">
<stop stop-color="white"/>
<stop offset="1" stop-color="white" stop-opacity="0"/>
</linearGradient>
</defs>
</svg>
