<svg width="297" height="403" viewBox="0 0 297 403" fill="none" xmlns="http://www.w3.org/2000/svg">
<path d="M297 101.35C297 45.4225 255.1 0 203.4 0H93.6C41.9 0 0 45.4225 0 101.35V301.65C0 357.677 41.9 403 93.6 403H203.4C255.1 403 297 357.577 297 301.65V101.35Z" fill="url(#paint0_linear)"/>
<path d="M70.6588 287.596C52.1958 292.051 46.7009 320.597 61.3377 325.062C92.2494 332.934 111.349 330.125 141.978 320.368C160.285 314.126 148.455 296.304 132.86 290.026C111.715 282.643 89.1219 283.14 70.6588 287.596Z" fill="#FFF2DB"/>
<path d="M233.058 277.716C247.067 278.605 251.999 303.275 237.426 307.72L167.486 320.729C159.484 322.225 169.335 294.177 177.14 289.184C198.193 281.835 212.228 277.731 233.058 277.716Z" fill="#FFF2DB"/>
<path d="M122 181.5C112.455 175.175 103 166.683 103 153.5C103.31 147.808 104.96 136.357 111.505 127.522C125.007 109.293 151.911 104.142 172.144 118.621C179.86 124.143 183.915 131.322 186.5 138.5C190.119 148.55 192 170.5 175.5 179C170.868 181.721 166.5 186.939 170.5 190.501C174.5 194.063 181.614 194.727 183.607 202.749C184.555 206.575 187.48 212.635 190.942 219.812C201.163 240.993 212.326 289.612 195 301.501C176.132 317.001 139.5 319.977 111.505 304.262C87.1427 290.586 98.5901 239.012 109.692 217.557C112.933 211.293 115.626 206.087 116.571 202.749C117.839 198.262 119.415 196.621 125.63 194.155C125.738 194.075 125.861 193.994 126 193.911C126 193.911 126.249 193.89 127 193.411C133.112 189.519 126 184.151 122 181.5Z" fill="url(#paint1_linear)"/>
<path d="M177.39 151.39C174.421 165.147 162.481 173.713 142.666 171.712C119.495 168.961 115.622 152.391 117.365 142.136C119.043 132.319 130.08 120.001 145.829 120.001C161.577 120.001 181.779 131.319 177.39 151.39Z" fill="url(#paint2_linear)"/>
<path d="M137.415 138.246C135.1 141.742 132.911 141.332 129.744 139.719C129.266 139.48 128.803 140.092 129.087 140.6C131.686 145.395 137.878 144.191 138.356 138.635C138.401 138.037 137.743 137.768 137.415 138.246Z" fill="#FEDFA4"/>
<path d="M220.829 281.104C206.212 285.925 170.234 311.887 137.256 322.092C134.15 323.151 132.504 323.635 125.868 335.543C118.516 349.468 117.347 357.62 122.01 362.868C126.673 368.115 132.848 362.616 138.95 356.089C145.91 348.643 148.174 348.252 153.444 346.134C166.292 340.623 217.068 334.561 237.016 316.267C256.964 297.973 241.299 274.355 220.829 281.104Z" fill="#FFF2DB"/>
<path d="M166.607 134.84C165.419 139.09 162.942 138.382 160.614 136.69C160.263 136.44 160.016 137.189 160.264 137.767C162.63 142.405 168.445 139.956 167.289 135.236C167.254 134.531 166.768 134.259 166.607 134.84Z" fill="#FEDFA4"/>
<path d="M122.5 195.501C99.5997 201.627 83.321 235.046 73.5001 253.501C66.0603 242.7 61.1541 238.092 56.0678 233.818C54.3961 229.978 50.7625 226.537 49.064 225.714C48.0835 225.24 46.7819 224.892 45.4076 224.525C42.9366 223.865 40.2304 223.142 38.7327 221.504C35.5174 218.022 33.4529 221.359 34.5479 223.493C35.3621 225.133 37.1705 225.959 38.6373 226.629C39.6443 227.089 40.4903 227.475 40.7427 228.001C41.3628 229.293 40.6096 230.578 38.0763 230.448C35.7623 230.337 32.4925 228.41 30.8167 227.234C32.125 226.494 34.0775 224.821 34.02 222.171C33.9989 220.323 31.6216 219.135 30.2138 221.408C29.0215 223.333 27.8104 224.318 26.1768 225.647C25.8815 225.887 25.5723 226.139 25.247 226.409C24.0697 227.602 24.7814 229 25.8998 230.166C21.8592 229.615 17.0164 229.179 14.8089 229.835C11.6842 230.763 11.105 233.593 14.3158 233.658C18.3178 233.773 25.8658 234.509 28.8314 234.969C28.8255 235.037 28.8198 235.106 28.8141 235.176C24.4839 234.656 17.9994 234.085 15.3837 234.98C12.2984 236.035 11.373 238.827 14.5898 238.796C18.4287 238.76 25.6343 239.216 28.8129 239.552C28.8251 239.668 28.8385 239.783 28.8533 239.897C25.5437 239.503 21.5188 239.191 19.8674 239.714C17.4938 240.467 16.7483 243.135 19.1673 243.168C22.469 243.209 29.8871 243.874 31.5985 244.179C31.6202 244.183 31.6418 244.186 31.6634 244.189C31.6814 244.192 31.6995 244.194 31.7178 244.196C33.5835 244.465 35.2931 244.77 36.8625 245.05C39.8244 245.578 43.3177 245.718 46.549 245.323C49.6496 256.459 58.1557 283.959 68.2478 290.869C72.3322 293.209 79.8052 289.082 82.9857 282.388C95.9203 264.495 102.036 247.279 104.5 243.168C112.769 226.242 122.5 195.501 122.5 195.501Z" fill="#FFFBF5"/>
<path d="M173.169 193.502C203.17 200.501 210.074 230.106 220.93 250.937L220.931 250.938C222.088 253.158 223.189 255.271 224.235 257.237C231.675 246.435 238.016 238.092 243.102 233.818C244.774 229.978 248.407 226.537 250.106 225.715C251.086 225.24 252.388 224.892 253.762 224.525C256.233 223.865 258.939 223.142 260.437 221.505C263.652 218.022 265.717 221.359 264.622 223.493C263.808 225.133 261.999 225.959 260.532 226.629C259.525 227.089 258.679 227.475 258.427 228.001C257.807 229.293 258.56 230.578 261.093 230.448C263.407 230.337 266.677 228.41 268.353 227.234C267.045 226.494 265.092 224.821 265.15 222.171C265.171 220.323 267.548 219.135 268.956 221.408C270.148 223.333 271.359 224.318 272.993 225.647C273.288 225.887 273.597 226.139 273.923 226.409C275.1 227.602 274.388 229 273.27 230.166C277.311 229.615 282.153 229.179 284.361 229.835C287.485 230.763 288.065 233.593 284.854 233.659C280.852 233.773 273.304 234.509 270.338 234.969C270.344 235.037 270.35 235.106 270.356 235.176C274.686 234.656 281.17 234.085 283.786 234.98C286.871 236.035 287.797 238.827 284.58 238.796C280.741 238.76 273.535 239.216 270.357 239.552C270.345 239.668 270.331 239.783 270.316 239.897C273.626 239.503 277.651 239.191 279.302 239.714C281.676 240.467 282.421 243.135 280.002 243.168C276.701 243.209 269.283 243.874 267.571 244.179C267.549 244.183 267.528 244.186 267.506 244.189C267.488 244.192 267.47 244.194 267.452 244.196C265.586 244.465 263.877 244.77 262.307 245.05C259.345 245.578 255.852 245.718 252.621 245.323C249.52 256.459 241.014 283.96 230.922 290.869C226.838 293.209 219.365 289.082 216.184 282.388C203.249 264.495 174.399 216.668 171.935 212.557C163.665 195.631 163.822 188.113 173.169 193.502Z" fill="#FFFBF3"/>
<path d="M72.2933 291.069C87.1536 293.351 126.346 305.491 159.227 315.712C168.373 318.549 172.28 319.983 175.14 326.451C178.001 332.919 181.041 350.101 179.611 357.175C178.181 364.25 171.927 368.159 165.843 361.622C159.763 353.941 158.333 342.42 150.287 340.803C142.24 339.185 76.998 341.476 57.3643 324.332C43.9992 312.655 51.9129 289.239 72.2933 291.069Z" fill="url(#paint3_linear)"/>
<path d="M243.252 153.272C251.989 154.927 260.292 149.373 261.772 140.767C263.253 132.16 257.38 123.884 248.599 122.292C239.863 120.636 231.56 126.19 230.08 134.797C228.599 143.403 234.516 151.616 243.252 153.272Z" fill="#FCCC34"/>
<path d="M244.151 148.419C249.625 149.513 256.034 145.398 256.918 139.466C257.842 133.617 252.997 128.238 247.522 127.144C242.048 126.051 235.573 130.194 234.649 136.043C233.682 141.96 238.676 147.325 244.151 148.419Z" fill="#FFE592"/>
<path d="M55.6465 153.374C46.9097 155.03 38.6072 149.476 37.1267 140.869C35.6462 132.263 41.5188 123.986 50.2996 122.394C59.0363 120.739 67.3389 126.293 68.8193 134.899C70.2998 143.506 64.3832 151.719 55.6465 153.374Z" fill="#FCCC34"/>
<path d="M54.7484 148.522C49.2739 149.616 42.8646 145.5 41.9808 139.569C41.0567 133.72 45.9021 128.341 51.3767 127.247C56.8512 126.153 63.3258 130.297 64.2499 136.146C65.2167 142.063 60.2229 147.428 54.7484 148.522Z" fill="#FFE592"/>
<path d="M144.789 71.4712L149.374 71.3745C151.099 71.3745 152.599 65.0917 152.931 57.2128C153.323 48.1327 152.009 39.7342 149.974 38.1956C149.713 37.9972 149.455 38 149.161 38L144.71 38.0654C144.976 38.0654 145.102 38.1275 145.393 38.3083C147.429 39.847 148.738 48.5049 148.346 57.585C148.014 65.4639 146.509 71.0657 144.789 71.4712Z" fill="#EDAC31"/>
<path d="M141.26 51.9515C140.844 61.0478 142.239 69.6921 144.401 71.2335C146.563 72.7749 148.641 66.6606 149.041 57.5184C149.457 48.4221 148.062 39.7778 145.9 38.2364C143.739 36.695 141.676 42.8552 141.26 51.9515Z" fill="#FCCC34"/>
<path d="M143.271 53.203C143.093 58.8457 143.763 65.4519 144.729 66.3628C145.682 67.3153 146.559 62.321 146.737 56.6783C146.915 51.0356 146.24 44.362 145.287 43.4096C144.323 42.4131 143.449 47.5603 143.271 53.203Z" fill="#FFE592"/>
<path d="M205.054 90.9796L207.406 93.188C210.186 95.9673 217.262 93.7251 223.641 88.4167C231.006 82.3135 235.118 73.9682 232.979 69.5473C232.706 68.9805 232.289 68.5672 231.815 68.0931L229.703 66.0788C230.131 66.5066 230.289 66.7564 230.623 67.3591C232.762 71.78 228.449 80.3094 221.084 86.4126C214.706 91.7211 208.127 93.4509 205.054 90.9796Z" fill="#EDAC31"/>
<path d="M213.462 70.4816C206.097 76.5848 201.815 85.1009 203.953 89.5218C206.092 93.9427 213.773 92.5704 221.147 86.409C228.512 80.3058 232.795 71.7896 230.656 67.3688C228.518 62.9479 220.828 64.3785 213.462 70.4816Z" fill="#FCCC34"/>
<path d="M214.757 73.3773C210.146 77.2264 206.627 83.6121 208.009 86.3606C209.333 89.1117 214.95 87.2409 219.561 83.3918C224.172 79.5426 227.732 73.0967 226.409 70.3456C225.095 67.5379 219.368 69.5281 214.757 73.3773Z" fill="#FFE592"/>
<path d="M93.8446 90.9796L91.4926 93.188C88.7133 95.9673 81.6365 93.7251 75.2584 88.4167C67.8933 82.3135 63.7814 73.9682 65.92 69.5473C66.1926 68.9805 66.6101 68.5672 67.0841 68.0931L69.1955 66.0788C68.7677 66.5066 68.61 66.7564 68.2755 67.3591C66.1369 71.78 70.4496 80.3094 77.8146 86.4126C84.1927 91.7211 90.7719 93.4509 93.8446 90.9796Z" fill="#EDAC31"/>
<path d="M85.4365 70.4816C92.8016 76.5848 97.0843 85.1009 94.9457 89.5218C92.8071 93.9427 85.1264 92.5704 77.7517 86.409C70.3866 80.3058 66.1038 71.7896 68.2425 67.3688C70.3811 62.9479 78.0714 64.3785 85.4365 70.4816Z" fill="#FCCC34"/>
<path d="M84.1421 73.3773C88.7531 77.2264 92.2722 83.6121 90.8894 86.3606C89.5664 89.1117 83.9492 87.2409 79.3381 83.3918C74.7271 79.5426 71.1673 73.0967 72.4903 70.3456C73.804 67.5379 79.531 69.5281 84.1421 73.3773Z" fill="#FFE592"/>
<defs>
<linearGradient id="paint0_linear" x1="148.5" y1="0" x2="148.5" y2="402.9" gradientUnits="userSpaceOnUse">
<stop stop-color="#FFF7B1"/>
<stop offset="1" stop-color="#FFE485"/>
</linearGradient>
<linearGradient id="paint1_linear" x1="150.537" y1="111.084" x2="150.537" y2="312.959" gradientUnits="userSpaceOnUse">
<stop stop-color="white"/>
<stop offset="1" stop-color="#FFF2DA"/>
</linearGradient>
<linearGradient id="paint2_linear" x1="167.981" y1="126.898" x2="128.238" y2="167.921" gradientUnits="userSpaceOnUse">
<stop stop-color="#FF971E"/>
<stop offset="1" stop-color="#E36219"/>
</linearGradient>
<linearGradient id="paint3_linear" x1="70.5" y1="291" x2="170.5" y2="336.5" gradientUnits="userSpaceOnUse">
<stop stop-color="#FFF2DB"/>
<stop offset="1" stop-color="white"/>
</linearGradient>
</defs>
</svg>
