<svg width="402" height="356" viewBox="0 0 402 356" fill="none" xmlns="http://www.w3.org/2000/svg">
<path d="M271.506 29.1058C278.823 30.8233 281.318 40.0122 275.784 45.1392L249.276 69.7322C244.66 73.9897 237.273 72.6875 234.474 67.0377L217.083 32.1392C213.548 25.0387 219.848 16.9217 227.697 18.7729L271.506 29.1058Z" fill="#108CFF"/>
<rect y="43.7861" width="401.581" height="296.791" rx="96" fill="#E3EEFE"/>
<path d="M17.4954 319.264C15.7294 320.323 13.4375 319.693 12.8385 317.73C11.9466 314.675 11.7878 311.35 12.6949 308.179C13.9423 303.818 16.8119 300.048 20.8038 297.734C24.7956 295.42 29.4499 294.758 33.8605 295.919C37.0817 296.74 39.8896 298.476 42.0377 300.756C43.4697 302.275 42.8394 304.567 40.9867 305.576C39.2207 306.635 36.9788 305.918 35.3968 304.658C34.371 303.835 33.1951 303.271 31.8693 302.968C29.3542 302.324 26.6856 302.746 24.3731 303.952C22.0973 305.293 20.4009 307.432 19.7571 309.947C19.3669 311.223 19.2865 312.562 19.4794 313.828C19.8418 316 19.2114 318.292 17.4954 319.264Z" fill="#FFAB49"/>
<path d="M386.107 326.5C396.221 320.685 396.221 306.104 386.191 300.288L352.31 280.482C342.701 274.835 330.481 281.156 329.553 292.281L325.929 333.748C324.834 345.969 337.982 354.313 348.601 348.245L386.107 326.5Z" fill="#FFCA62"/>
<rect x="210.676" y="188.999" width="2.64163" height="2.64163" fill="#108CFF"/>
<rect x="206.694" y="188.999" width="2.64163" height="2.64163" fill="#108CFF"/>
<rect x="202.712" y="188.999" width="2.64163" height="2.64163" fill="#108CFF"/>
<rect x="198.73" y="188.999" width="2.64163" height="2.64163" fill="#108CFF"/>
<rect x="194.749" y="188.999" width="2.64163" height="2.64163" fill="#108CFF"/>
<rect x="190.767" y="188.999" width="2.64163" height="2.64163" fill="#108CFF"/>
<rect x="186.785" y="188.999" width="2.64163" height="2.64163" fill="#108CFF"/>
<rect x="206.524" y="184.396" width="2.64163" height="2.64163" fill="#108CFF"/>
<rect width="2.64163" height="2.64163" transform="matrix(1 0 0 -1 206.524 196.168)" fill="#108CFF"/>
<rect x="202.373" y="180.847" width="2.64163" height="2.64163" fill="#108CFF"/>
<rect width="2.64163" height="2.64163" transform="matrix(1 0 0 -1 202.373 199.716)" fill="#108CFF"/>
<rect x="198.223" y="177.073" width="2.64163" height="2.64163" fill="#108CFF"/>
<rect width="2.64163" height="2.64163" transform="matrix(1 0 0 -1 198.223 203.489)" fill="#108CFF"/>
<rect x="34.8438" y="138.438" width="141" height="103" rx="15" fill="url(#paint0_linear)"/>
<path d="M85.5448 185.492H84.415V196.047H90.3925V195.037H85.5448V185.492ZM94.0189 188.287C91.8181 188.287 90.2727 189.922 90.2727 192.271V192.541C90.3032 193.551 90.7495 194.504 91.4917 195.216C92.2057 195.871 93.1264 196.256 94.1081 196.256H94.2561C95.2965 196.256 96.2783 195.869 97.051 195.216L97.0816 195.185L96.5766 194.354L96.5179 194.384C95.8931 194.95 95.1204 195.277 94.289 195.277C92.922 195.277 91.5245 194.384 91.4353 192.393H97.145V192.334C97.145 192.334 97.1755 191.977 97.1755 191.798C97.1685 189.656 95.9213 188.287 94.0189 188.287ZM91.4611 191.439C91.6983 190.1 92.6801 189.238 93.9578 189.238C94.909 189.238 95.9495 189.804 96.0387 191.439H91.4611ZM103.712 189.18V189.567C103.235 188.764 102.345 188.259 101.422 188.259H101.333C99.3105 188.259 97.913 189.865 97.913 192.214C97.913 194.593 99.2518 196.198 101.243 196.198C102.819 196.198 103.533 195.246 103.771 194.831V195.991H104.842V185.492H103.742V189.18H103.712ZM101.391 195.216C99.9939 195.216 99.0732 194.027 99.0732 192.242C99.0732 190.518 100.055 189.299 101.422 189.299C102.582 189.299 103.74 190.22 103.74 192.242C103.74 194.443 102.521 195.216 101.391 195.216ZM111.352 189.328V189.386C111.143 189.029 110.49 188.257 108.914 188.257C106.923 188.257 105.614 189.774 105.614 192.092C105.614 194.41 106.981 195.986 109.004 195.986C110.103 195.986 110.847 195.599 111.352 194.798V195.838C111.352 197.294 110.432 198.128 108.795 198.128C108.111 198.128 107.397 197.95 106.772 197.623L106.714 197.593L106.298 198.513L106.357 198.544C107.129 198.931 107.991 199.138 108.825 199.138C110.58 199.138 112.451 198.246 112.451 195.777V188.466H111.352V189.328ZM109.152 195.007C107.695 195.007 106.744 193.877 106.744 192.123C106.744 190.338 107.576 189.328 109.004 189.328C110.58 189.328 111.322 190.248 111.322 192.123C111.352 193.966 110.58 195.007 109.152 195.007ZM116.942 188.287C114.741 188.287 113.226 189.922 113.226 192.242V192.51C113.257 193.52 113.703 194.474 114.445 195.185C115.159 195.841 116.08 196.226 117.062 196.226H117.21C118.25 196.226 119.232 195.838 120.005 195.185L120.035 195.155L119.5 194.323L119.441 194.354C118.816 194.92 118.044 195.246 117.212 195.246C115.845 195.246 114.448 194.354 114.359 192.362H120.094V192.303C120.094 192.303 120.125 191.946 120.125 191.768C120.125 189.656 118.875 188.287 116.942 188.287ZM114.415 191.439C114.652 190.1 115.634 189.238 116.912 189.238C117.863 189.238 118.903 189.804 118.993 191.439H114.415ZM124.763 188.435C124.615 188.405 124.496 188.405 124.348 188.376C123.307 188.376 122.445 189.032 121.999 190.131V188.435H120.9L120.93 195.958V196.017H122.06V192.837C122.06 192.36 122.119 191.855 122.269 191.409C122.626 190.248 123.429 189.506 124.38 189.506C124.5 189.506 124.618 189.506 124.737 189.537H124.796V188.437L124.763 188.435Z" fill="#1B2D4B"/>
<path fill-rule="evenodd" clip-rule="evenodd" d="M129.021 185.191H130.404V194.737H135.252V196H129.021V185.191ZM135.648 185.638H137.062V187.159H135.648V185.638ZM145.769 189.137C146.456 188.408 147.427 187.986 148.56 187.986C149.543 187.986 150.366 188.341 150.943 188.981C151.519 189.619 151.84 190.529 151.843 191.624V191.625C151.843 191.866 151.813 192.105 151.813 192.346H146.111C146.18 193.242 146.528 193.887 147.008 194.313C147.513 194.762 148.173 194.976 148.83 194.976C149.806 194.976 150.469 194.53 151.165 194.013L151.783 195.031C151.019 195.795 149.867 196.209 148.797 196.209H148.649C147.634 196.209 146.683 195.811 145.947 195.135L145.946 195.134L145.945 195.133C145.105 194.328 144.687 193.248 144.687 192.097C144.687 190.894 145.083 189.866 145.769 189.137ZM135.648 188.163H137.062V195.998H135.648V188.163ZM137.459 188.134H138.888L141.091 194.4L143.294 188.134H144.724L141.969 195.97H140.214L137.459 188.134ZM146.157 191.138H150.443C150.378 190.423 150.118 189.948 149.778 189.647C149.416 189.326 148.95 189.191 148.499 189.191C147.336 189.191 146.428 189.941 146.157 191.138Z" fill="#1B2D4B"/>
<circle cx="65.5956" cy="191.19" r="11.7519" fill="white"/>
<path d="M59.7284 195.736C59.3684 195.272 59.0626 194.763 58.8196 194.22C58.1385 192.697 57.9904 190.989 58.3989 189.372C58.8075 187.754 59.7489 186.322 61.0715 185.305C61.7511 184.782 62.5111 184.385 63.3157 184.125C63.9973 183.905 64.7109 183.784 65.4349 183.768C65.575 183.765 65.6872 183.881 65.6854 184.021L65.6602 186.037C65.6585 186.177 65.5434 186.289 65.4034 186.294C64.3959 186.335 63.4105 186.69 62.6098 187.306C61.7369 187.977 61.1155 188.922 60.8459 189.99C60.5762 191.057 60.674 192.184 61.1235 193.19C61.3317 193.655 61.6097 194.082 61.9451 194.457L59.7284 195.736Z" fill="url(#paint1_linear)"/>
<path d="M71.4641 186.648C71.8241 187.113 72.1299 187.622 72.3729 188.165C73.054 189.688 73.2022 191.396 72.7936 193.013C72.385 194.631 71.4436 196.063 70.121 197.08C69.4414 197.603 68.6814 198 67.8768 198.259C67.1953 198.479 66.4817 198.601 65.7577 198.617C65.6176 198.62 65.5054 198.504 65.5072 198.364L65.5331 196.348C65.5349 196.208 65.6499 196.096 65.7899 196.091C66.801 196.051 67.7773 195.699 68.5827 195.079C69.4556 194.408 70.077 193.463 70.3466 192.395C70.6163 191.328 70.5185 190.2 70.069 189.195C69.8608 188.73 69.5828 188.303 69.2474 187.928L71.4641 186.648Z" fill="url(#paint2_linear)"/>
<path d="M64.2089 192.642C64.2608 192.512 64.1973 192.367 64.0677 192.314L62.3529 191.622C62.2222 191.57 62.0738 191.633 62.022 191.764C61.7711 192.399 61.0975 194.103 61.0049 194.333C60.8907 194.617 60.6363 194.875 60.271 194.937C59.9057 194.999 59.3937 194.992 58.8849 194.359C59.2958 195.224 60.1503 196.581 61.0407 196.809C61.9311 197.037 62.6486 196.538 62.89 195.938C63.0898 195.441 63.9268 193.348 64.2089 192.642Z" fill="#638EEF"/>
<path d="M66.9825 189.742C66.9306 189.871 66.9941 190.017 67.1237 190.07L68.8385 190.762C68.9692 190.814 69.1177 190.751 69.1694 190.62C69.4204 189.985 70.0939 188.281 70.1866 188.05C70.3007 187.767 70.5551 187.509 70.9204 187.447C71.2857 187.385 71.7977 187.392 72.3065 188.024C71.8956 187.16 71.0411 185.803 70.1507 185.575C69.2603 185.347 68.5428 185.846 68.3014 186.446C68.1016 186.943 67.2646 189.036 66.9825 189.742Z" fill="#638EEF"/>
<rect x="224.844" y="138.438" width="141" height="103" rx="15" fill="url(#paint3_linear)"/>
<circle r="7" transform="matrix(-4.37114e-08 1 1 4.37114e-08 313.844 178.438)" fill="#108CFF"/>
<path d="M292.827 186.784C287.951 185.308 282.69 186.759 279.158 190.554L275.686 194.286C269.819 200.591 272.801 211.141 281.016 213.141C284.725 214.043 288.618 212.859 291.275 210.021L307.316 192.882C307.882 192.278 307.625 191.264 306.846 191.028L292.827 186.784Z" fill="#FFCA62"/>
<path d="M292.652 197.264C287.714 198.784 282.337 197.457 278.682 193.816L275.089 190.237C269.018 184.189 271.883 173.856 280.211 171.771C283.971 170.829 287.951 171.919 290.7 174.641L307.298 191.079C307.884 191.658 307.638 192.651 306.85 192.893L292.652 197.264Z" fill="#108CFF"/>
<path fill-rule="evenodd" clip-rule="evenodd" d="M279.045 193.897C282.699 197.55 288.074 198.882 293.011 197.357L307.204 192.971C307.478 192.886 307.686 192.71 307.817 192.493C307.98 191.942 307.685 191.309 307.072 191.13L292.81 186.978C287.849 185.533 282.496 186.953 278.903 190.666L277.384 192.235L279.045 193.897Z" fill="#0066FF"/>
<defs>
<linearGradient id="paint0_linear" x1="105.344" y1="138.438" x2="105.344" y2="242.375" gradientUnits="userSpaceOnUse">
<stop stop-color="white"/>
<stop offset="1" stop-color="#F0F5FE"/>
</linearGradient>
<linearGradient id="paint1_linear" x1="63.8251" y1="185.512" x2="60.3142" y2="193.986" gradientUnits="userSpaceOnUse">
<stop stop-color="#94B6FE"/>
<stop offset="1" stop-color="#216ADE"/>
</linearGradient>
<linearGradient id="paint2_linear" x1="66.972" y1="196.953" x2="71.1487" y2="188.176" gradientUnits="userSpaceOnUse">
<stop stop-color="#94B6FE"/>
<stop offset="1" stop-color="#216ADE"/>
</linearGradient>
<linearGradient id="paint3_linear" x1="295.344" y1="138.438" x2="295.344" y2="242.375" gradientUnits="userSpaceOnUse">
<stop stop-color="white"/>
<stop offset="1" stop-color="#F0F5FE"/>
</linearGradient>
</defs>
</svg>
