<svg width="671" height="720" viewBox="0 0 671 720" fill="none" xmlns="http://www.w3.org/2000/svg">
<path d="M335.361 349C356.348 349 373.361 331.987 373.361 311L373.361 188C373.361 167.013 356.348 150 335.361 150L242.361 150C221.374 150 204.361 167.013 204.361 188L204.361 311C204.361 331.987 221.374 349 242.361 349L335.361 349Z" fill="#8FE6FA"/>
<mask id="mask0" mask-type="alpha" maskUnits="userSpaceOnUse" x="204" y="150" width="170" height="199">
<path d="M335.361 150C356.348 150 373.361 167.013 373.361 188L373.361 319C373.361 335.569 359.929 349 343.361 349L234.361 349C217.792 349 204.361 335.569 204.361 319L204.361 188C204.361 167.013 221.374 150 242.361 150L335.361 150Z" fill="#1F96FF"/>
</mask>
<g mask="url(#mask0)">
<rect width="100.396" height="114.363" rx="14" transform="matrix(-0.555812 0.831308 -0.894944 -0.446178 399.837 286.027)" fill="#1F96FF" fill-opacity="0.1"/>
<rect width="77.832" height="83.7242" rx="16" transform="matrix(-0.555812 0.831308 -0.894944 -0.446178 430.549 188.355)" fill="#1F96FF" fill-opacity="0.1"/>
<rect width="97.869" height="105.278" rx="16" transform="matrix(-0.555812 0.831308 -0.894944 -0.446178 269.976 218.973)" fill="#1F96FF" fill-opacity="0.1"/>
<rect width="95.3858" height="102.607" rx="16" transform="matrix(-0.555812 0.831308 -0.894944 -0.446178 346.205 123.781)" fill="#1F96FF" fill-opacity="0.1"/>
<path d="M335.361 349C356.347 349 373.361 331.987 373.361 311L373.361 188C373.361 167.013 356.347 150 335.361 150L242.361 150C221.374 150 204.361 167.013 204.361 188L204.361 311C204.361 331.987 221.374 349 242.361 349L335.361 349Z" fill="url(#paint0_linear)"/>
</g>
<path d="M48.3608 549C48.3608 571.091 66.2695 589 88.3608 589H452.361C474.452 589 492.361 571.091 492.361 549V420C492.361 397.909 474.452 380 452.361 380L88.3608 380C66.2695 380 48.3608 397.909 48.3608 420L48.3608 549Z" fill="url(#paint1_linear)"/>
<mask id="mask1" mask-type="alpha" maskUnits="userSpaceOnUse" x="48" y="381" width="446" height="208">
<path d="M48.3608 559C48.3608 575.569 61.7923 589 78.3608 589L463.361 589C479.929 589 493.361 575.569 493.361 559L493.361 411C493.361 394.431 479.929 381 463.361 381L78.3609 381C61.7923 381 48.3609 394.431 48.3609 411L48.3608 559Z" fill="#4BE0D7"/>
</mask>
<g mask="url(#mask1)">
<g opacity="0.2">
<path d="M324.086 376.305V426.616C324.086 427.721 324.982 428.616 326.086 428.616H365.134C366.239 428.616 367.134 429.512 367.134 430.616V470.209C367.134 471.314 368.03 472.209 369.134 472.209H405.458C406.562 472.209 407.458 473.105 407.458 474.209V515.437C407.458 516.542 408.353 517.437 409.458 517.437H450.506" stroke="#4ADAD1" stroke-width="20"/>
<path d="M372.039 318.544V368.856C372.039 369.96 372.934 370.856 374.039 370.856H413.087C414.191 370.856 415.087 371.751 415.087 372.856V412.449C415.087 413.553 415.982 414.449 417.087 414.449H453.41C454.515 414.449 455.41 415.344 455.41 416.449V457.676C455.41 458.781 456.306 459.676 457.41 459.676H498.458" stroke="#4ADAD1" stroke-width="20"/>
<path d="M221.642 376.305V426.616C221.642 427.721 222.538 428.616 223.642 428.616H262.69C263.795 428.616 264.69 429.512 264.69 430.616V470.209C264.69 471.314 265.586 472.209 266.69 472.209H303.014C304.119 472.209 305.014 473.105 305.014 474.209V515.437C305.014 516.542 305.909 517.437 307.014 517.437H346.062C347.167 517.437 348.062 518.333 348.062 519.437V553.581C348.062 554.686 348.958 555.581 350.062 555.581H378.757C379.862 555.581 380.757 556.476 380.757 557.581V601.899" stroke="#4ADAD1" stroke-width="20"/>
<path d="M117.019 376.305V426.616C117.019 427.721 117.915 428.616 119.019 428.616H158.067C159.172 428.616 160.067 429.512 160.067 430.616V470.209C160.067 471.314 160.963 472.209 162.067 472.209H198.391C199.496 472.209 200.391 473.105 200.391 474.209V515.437C200.391 516.542 201.286 517.437 202.391 517.437H241.439C242.544 517.437 243.439 518.333 243.439 519.437V556.851C243.439 557.955 244.335 558.851 245.439 558.851H286.122C287.227 558.851 288.122 559.746 288.122 560.851V596.45" stroke="#4ADAD1" stroke-width="20"/>
<path d="M21.1147 385.023V435.335C21.1147 436.439 22.0102 437.335 23.1147 437.335H62.1629C63.2674 437.335 64.1629 438.23 64.1629 439.335V478.928C64.1629 480.032 65.0583 480.928 66.1629 480.928H102.486C103.591 480.928 104.486 481.823 104.486 482.928V524.155C104.486 525.26 105.382 526.155 106.486 526.155H145.535C146.639 526.155 147.535 527.051 147.535 528.155V565.569C147.535 566.673 148.43 567.569 149.535 567.569H190.217C191.322 567.569 192.217 568.464 192.217 569.569V605.168" stroke="#4ADAD1" stroke-width="20"/>
</g>
</g>
<path fill-rule="evenodd" clip-rule="evenodd" d="M237.875 284.84C223.276 294.401 213.439 309.308 207.883 325.092L203.267 323.467C209.084 306.941 219.482 291.035 235.194 280.745C250.962 270.417 271.845 265.905 298.251 271.797C351.437 283.664 367.629 329.638 361.696 361.553L356.884 360.659C362.425 330.852 347.346 287.766 297.186 276.574C271.919 270.936 252.416 275.316 237.875 284.84Z" fill="#2D3963"/>
<path fill-rule="evenodd" clip-rule="evenodd" d="M296.254 280.752C266.208 274.048 242.616 285.478 232.139 294.644C229.342 297.091 225.09 296.808 222.643 294.01C220.196 291.213 220.479 286.962 223.276 284.515C236.486 272.957 264.351 259.844 299.185 267.616C334.023 275.39 351.727 296.669 360.005 314.899C361.541 318.283 360.043 322.272 356.659 323.808C353.275 325.345 349.286 323.847 347.75 320.463C340.915 305.41 326.298 287.456 296.254 280.752Z" fill="#485776"/>
<path d="M211.271 322.467C211.565 321.148 212.873 320.317 214.192 320.612L222.229 322.405C223.548 322.699 224.379 324.007 224.085 325.326L213.714 371.806C213.419 373.125 212.112 373.956 210.793 373.661L202.755 371.868C201.436 371.574 200.605 370.266 200.9 368.947L211.271 322.467Z" fill="url(#paint2_linear)"/>
<path d="M196.783 327.777C197.461 324.736 200.191 322.595 203.306 322.661L211.22 322.827L201.005 368.606L193.771 365.393C190.924 364.128 189.363 361.03 190.042 357.988L196.783 327.777Z" fill="url(#paint3_linear)"/>
<path d="M193.633 330.458C193.932 329.115 195.264 328.269 196.607 328.569L190.221 357.185C188.879 356.886 188.033 355.554 188.333 354.211L193.633 330.458Z" fill="#485776"/>
<g style="mix-blend-mode:multiply">
<path fill-rule="evenodd" clip-rule="evenodd" d="M202.863 359.804C196.744 358.866 193.499 346.904 195.616 333.086C195.63 332.999 195.643 332.912 195.657 332.825L190.042 357.988C189.364 361.03 190.924 364.128 193.772 365.393L201.006 368.606L202.967 359.819C202.932 359.814 202.898 359.809 202.863 359.804Z" fill="#7385A0" fill-opacity="0.3"/>
</g>
<path d="M355.378 354.622C355.673 353.303 354.842 351.995 353.523 351.7L345.485 349.907C344.166 349.613 342.858 350.444 342.564 351.763L332.193 398.242C331.899 399.561 332.73 400.869 334.049 401.164L342.086 402.957C343.405 403.251 344.713 402.421 345.007 401.102L355.378 354.622Z" fill="url(#paint4_linear)"/>
<path d="M366.236 365.584C366.915 362.543 365.354 359.445 362.506 358.18L355.272 354.967L345.058 400.745L352.972 400.912C356.087 400.978 358.816 398.837 359.495 395.796L366.236 365.584Z" fill="url(#paint5_linear)"/>
<path d="M367.945 369.356C368.245 368.013 367.399 366.682 366.057 366.382L359.671 394.999C361.014 395.298 362.346 394.453 362.645 393.11L367.945 369.356Z" fill="#485776"/>
<g style="mix-blend-mode:multiply">
<path fill-rule="evenodd" clip-rule="evenodd" d="M347.118 391.989C353.056 393.742 361.078 384.294 365.036 370.886C365.06 370.803 365.084 370.721 365.108 370.638L359.495 395.796C358.816 398.837 356.087 400.978 352.971 400.912L345.058 400.746L347.018 391.959C347.051 391.969 347.085 391.98 347.118 391.989Z" fill="#7385A0" fill-opacity="0.3"/>
</g>
<path d="M341.769 370.544C333.35 406.324 341.421 438.316 353.207 469.886C364.993 501.457 375.194 526.339 369.861 589H220.361C220.087 576.208 224.398 544.394 216.673 495.876C208.947 447.358 207.008 380.147 214.223 349.917C221.438 319.688 240.742 282.566 287.467 289.301C334.192 296.036 350.188 334.763 341.769 370.544Z" fill="url(#paint6_linear)"/>
<path fill-rule="evenodd" clip-rule="evenodd" d="M350.915 470.742C339.073 439.025 330.801 406.475 339.387 369.983C343.478 352.596 341.603 334.632 333.186 320.268C324.807 305.968 309.808 294.994 287.118 291.723C264.562 288.472 248.842 295.776 237.806 307.43C226.657 319.205 220.164 335.57 216.603 350.486C213.072 365.281 211.744 389.381 212.292 415.988C212.838 442.537 215.246 471.357 219.089 495.491C225.097 533.219 223.768 561.004 222.985 577.358C222.757 582.122 222.576 585.916 222.635 588.704C222.648 589.311 222.992 590.184 224.35 591.311C225.703 592.434 227.788 593.566 230.58 594.659C236.144 596.838 243.926 598.641 252.65 600.083C270.06 602.959 290.68 604.31 303.482 604.53C316.198 604.75 331.015 603.431 343.382 600.859C349.569 599.573 355.066 597.988 359.351 596.164C363.373 594.451 365.988 592.668 367.273 591.005C369.853 560.179 368.68 537.979 365.441 519.644C362.179 501.17 356.807 486.526 350.915 470.742ZM369.656 591.867C374.989 529.206 364.993 501.457 353.207 469.886C341.421 438.316 333.35 406.324 341.769 370.544C350.188 334.763 334.192 296.036 287.467 289.301C240.742 282.566 221.438 319.688 214.223 349.917C207.008 380.147 208.947 447.358 216.673 495.876C222.63 533.292 221.327 560.63 220.545 577.048C220.313 581.919 220.126 585.83 220.189 588.757C220.463 601.549 277.664 606.533 303.439 606.977C329.215 607.421 363.434 601.644 369.656 591.867Z" fill="url(#paint7_linear)"/>
<path fill-rule="evenodd" clip-rule="evenodd" d="M282.363 305.351C264.31 302.086 249.149 312.193 241.492 325.061C239.474 328.45 235.091 329.563 231.702 327.546C228.312 325.529 227.2 321.146 229.217 317.756C239.139 301.083 259.613 286.721 284.905 291.295C288.787 291.997 291.364 295.713 290.662 299.594C289.96 303.476 286.245 306.053 282.363 305.351Z" fill="white"/>
<g style="mix-blend-mode:multiply" opacity="0.5">
<path fill-rule="evenodd" clip-rule="evenodd" d="M221.105 543.081C220.898 535.483 220.424 527.081 219.517 517.893C228.589 515.87 243.275 509.105 262.278 486.813C262.593 486.67 262.937 486.552 263.306 486.458C263.891 482.792 263.54 480.224 262.846 475.572C262.707 474.744 262.503 473.422 262.381 472.578C261.966 469.19 261.326 463.727 263.118 460.616C264.198 459.066 266.889 459.885 266.546 461.623C266.145 463.955 265.946 467.868 266.582 470.617C266.881 471.589 268.214 471.41 268.054 470.456C267.704 466.542 268.623 460.747 270.847 457.977C272.192 456.713 275.376 457.392 274.404 459.975C273.431 462.558 272.531 466.513 272.953 470.969C272.975 471.906 274.458 471.764 274.54 471.107C275.15 466.246 276.309 463.192 277.965 460.928C279.621 458.663 282.646 460.721 281.822 462.404C280.997 464.087 279.138 468.212 279.074 472.073C279.091 472.581 280.435 473.02 280.517 472.363C280.88 469.473 283.282 464.572 284.15 463.544C285.019 462.517 287.417 463.684 286.628 465.227C285.839 466.77 283.559 472.434 283.853 475.674C283.883 476.295 283.995 476.928 284.119 477.623C284.155 477.828 284.193 478.039 284.229 478.256C285.029 483.013 285.265 492.389 282.631 499.734C282.498 500.136 282.324 500.544 282.109 500.956C277.949 508.898 251.76 538.402 221.105 543.081ZM360.945 491.7C364.041 501.349 366.685 511.469 368.503 523.136C346.555 520.161 317.508 505.869 288.623 472.595C283.012 466.957 302.742 452.558 315.403 462.656C331.18 477.294 348.134 486.715 360.945 491.7Z" fill="#9BBFD9"/>
</g>
<path fill-rule="evenodd" clip-rule="evenodd" d="M292.096 470.726C343.452 524.607 391.86 529.237 401.542 509.874C411.224 490.51 393.123 451.784 339.663 424.422C325.055 422.486 332.928 448.416 349.345 459.781C371.234 473.672 385.741 493.982 376.285 493.457C366.83 492.932 339.287 481.023 315.636 455.98C303.668 445.068 286.869 464.731 292.096 470.726Z" fill="#EAEBF5"/>
<path fill-rule="evenodd" clip-rule="evenodd" d="M350.661 457.797C361.797 464.871 371.095 473.591 376.458 480.576C379.081 483.993 381.004 487.3 381.485 489.944C381.728 491.28 381.691 492.973 380.532 494.298C379.367 495.63 377.659 495.917 376.153 495.834C370.869 495.54 361.229 492.21 350.121 485.99C338.928 479.722 325.959 470.362 313.969 457.682C311.526 455.484 308.955 454.884 306.473 455.199C303.88 455.528 301.239 456.882 298.963 458.824C296.687 460.766 294.953 463.144 294.09 465.258C293.188 467.468 293.482 468.658 293.867 469.133C319.314 495.817 343.88 510.147 363.083 515.472C372.698 518.139 380.856 518.519 387.076 517.176C393.277 515.837 397.398 512.838 399.413 508.809C403.707 500.221 402.075 486.646 392.279 471.436C382.601 456.409 365.186 440.23 338.962 426.738C337.67 426.617 336.802 426.8 336.232 427.07C335.642 427.35 335.195 427.805 334.873 428.515C334.163 430.08 334.116 432.819 335.158 436.458C337.205 443.605 342.947 452.441 350.661 457.797ZM339.663 424.422C393.123 451.784 411.224 490.51 401.542 509.874C391.86 529.237 343.452 524.607 292.096 470.726C286.869 464.731 303.668 445.068 315.636 455.98C339.287 481.023 366.83 492.932 376.285 493.457C385.741 493.982 371.234 473.672 349.345 459.781C332.928 448.416 325.055 422.486 339.663 424.422Z" fill="url(#paint8_linear)"/>
<path d="M281.045 405.909C305.817 405.909 325.898 385.119 325.898 359.472C325.898 333.826 305.817 313.035 281.045 313.035C256.273 313.035 236.191 333.826 236.191 359.472C236.191 385.119 256.273 405.909 281.045 405.909Z" fill="#2766E4"/>
<path d="M281.045 405.911C305.817 405.911 325.898 385.635 325.898 360.624C325.898 335.613 305.817 315.337 281.045 315.337C256.273 315.337 236.191 335.613 236.191 360.624C236.191 385.635 256.273 405.911 281.045 405.911Z" fill="#108CFF"/>
<path fill-rule="evenodd" clip-rule="evenodd" d="M328.345 360.623C328.345 386.964 307.19 408.357 281.045 408.357C254.899 408.357 233.744 386.964 233.744 360.623C233.744 334.283 254.899 312.89 281.045 312.89C307.19 312.89 328.345 334.283 328.345 360.623ZM325.898 360.623C325.898 385.634 305.817 405.91 281.045 405.91C256.273 405.91 236.191 385.634 236.191 360.623C236.191 335.612 256.273 315.337 281.045 315.337C305.817 315.337 325.898 335.612 325.898 360.623Z" fill="url(#paint9_radial)"/>
<path d="M276.908 356.364C290.795 351.154 299.757 339.212 296.927 329.69C294.096 320.169 280.544 316.674 266.657 321.884C252.77 327.094 243.808 339.036 246.638 348.558C249.469 358.079 263.021 361.574 276.908 356.364Z" fill="#2997FF"/>
<path d="M321.183 351.598C320.742 349.59 318.13 349.259 316.892 350.9C309.237 361.044 297.211 370.05 282.606 375.53C275.616 378.152 268.666 379.73 262.053 380.341C254.924 380.999 249.931 388.69 255.52 393.164C262.532 398.779 271.4 402.132 281.045 402.132C303.751 402.132 322.157 383.548 322.157 360.623C322.157 357.524 321.821 354.504 321.183 351.598Z" fill="#1381F6"/>
<path d="M248.456 364.89C248.364 367.241 250.223 369.32 252.574 369.412C254.926 369.504 257.005 367.645 257.097 365.294C257.189 362.942 255.33 360.864 252.978 360.772C250.645 360.589 248.566 362.447 248.456 364.89Z" fill="#2968E5"/>
<path d="M248.485 364.382C248.429 366.551 250.051 368.393 252.293 368.558C254.462 368.613 256.304 366.991 256.469 364.749C256.524 362.58 254.903 360.738 252.66 360.573C250.491 360.518 248.631 362.231 248.485 364.382Z" fill="#2B3760"/>
<path d="M252.388 361.941C251.895 362.506 252.168 363.509 253.061 364.257C253.863 364.986 254.975 365.114 255.467 364.549C255.96 363.984 255.687 362.982 254.794 362.234C253.901 361.486 252.88 361.376 252.388 361.941Z" fill="#364D98"/>
<path d="M253.626 362.38C253.499 362.544 253.608 362.945 253.918 363.291C254.246 363.547 254.61 363.62 254.829 363.474C254.975 363.219 254.848 362.909 254.538 362.562C254.21 362.307 253.754 362.216 253.626 362.38Z" fill="#C3D8F8"/>
<path d="M254.136 365.513C254.664 365.714 255.12 366.279 254.737 366.771C254.135 367.409 253.296 367.81 252.367 367.719C250.671 367.663 249.268 366.15 249.415 364.473C249.469 363.725 249.688 363.106 250.163 362.632C250.546 362.14 251.293 362.669 251.548 363.289C251.73 363.799 252.185 364.364 252.677 364.747C253.078 365.112 253.589 365.404 254.136 365.513Z" fill="#1B244A"/>
<path d="M301.053 376.566C300.961 378.917 302.82 380.996 305.171 381.088C307.523 381.18 309.602 379.321 309.694 376.97C309.785 374.618 307.927 372.539 305.575 372.447C303.242 372.264 301.163 374.123 301.053 376.566Z" fill="#2968E5"/>
<path d="M300.919 376.077C300.864 378.246 302.485 380.088 304.727 380.252C306.897 380.308 308.738 378.686 308.903 376.444C308.959 374.275 307.337 372.433 305.095 372.268C302.925 372.213 301.066 373.926 300.919 376.077Z" fill="#2B3760"/>
<path d="M304.82 373.635C304.327 374.2 304.6 375.203 305.493 375.951C306.295 376.68 307.407 376.808 307.9 376.243C308.392 375.678 308.119 374.675 307.226 373.928C306.333 373.18 305.312 373.07 304.82 373.635Z" fill="#364D98"/>
<path d="M306.059 374.073C305.931 374.237 306.041 374.638 306.35 374.985C306.678 375.24 307.043 375.313 307.262 375.167C307.408 374.912 307.28 374.602 306.97 374.256C306.642 374 306.187 373.909 306.059 374.073Z" fill="#C3D8F8"/>
<path d="M306.569 377.207C307.097 377.408 307.553 377.973 307.17 378.465C306.568 379.103 305.729 379.503 304.8 379.412C303.104 379.357 301.701 377.843 301.848 376.166C301.903 375.419 302.122 374.799 302.596 374.325C302.979 373.833 303.726 374.362 303.981 374.982C304.163 375.492 304.619 376.058 305.111 376.441C305.512 376.805 306.022 377.097 306.569 377.207Z" fill="#1B244A"/>
<g opacity="0.74" filter="url(#filter0_f)">
<path d="M340.201 427.835C340.201 447.98 313.327 464.312 280.177 464.312C247.026 464.312 220.153 447.98 220.153 427.835C220.153 407.689 247.026 391.357 280.177 391.357C313.327 391.357 340.201 407.689 340.201 427.835Z" fill="white"/>
</g>
<g filter="url(#filter1_i)">
<path d="M243.873 419.419C243.868 416.04 246.603 413.297 249.981 413.292L321.872 413.182C325.251 413.177 327.994 415.911 327.999 419.29L328.072 466.762C328.077 470.141 325.342 472.884 321.964 472.889L250.073 472.999C246.694 473.004 243.951 470.269 243.946 466.891L243.873 419.419Z" fill="url(#paint10_linear)"/>
</g>
<g filter="url(#filter2_f)">
<path d="M246.172 420.463C246.167 417.76 248.355 415.565 251.058 415.561L320.802 415.454C323.505 415.45 325.7 417.638 325.704 420.341L325.773 465.503C325.777 468.206 323.589 470.401 320.886 470.405L251.142 470.512C248.439 470.516 246.245 468.328 246.241 465.625L246.172 420.463Z" fill="url(#paint11_linear)"/>
</g>
<path fill-rule="evenodd" clip-rule="evenodd" d="M281.513 472.809C281.753 469.791 282.654 466.359 283.062 465.178C283.624 463.547 281.324 462.653 280.638 463.778C279.979 464.857 278.396 469.655 278.234 472.628L281.513 472.809ZM276.855 472.552C276.617 468.771 277.838 464.628 278.403 462.903C278.984 461.129 276.023 459.416 274.745 461.865C273.467 464.314 272.727 466.924 272.662 471.848C272.659 472.036 272.551 472.195 272.395 472.306L276.855 472.552ZM271.344 472.248L261.098 471.683C260.597 468.237 260.314 463.997 261.255 461.633C262.081 459.962 264.613 460.475 264.476 462.251C264.346 464.625 264.52 468.483 265.376 471.156C265.746 472.093 266.941 471.763 266.699 470.828C265.986 466.959 266.355 461.808 268.1 458.789C269.196 457.374 272.162 457.692 271.538 460.382C270.913 463.073 270.37 467.486 271.203 471.89C271.222 472.041 271.272 472.159 271.344 472.248Z" fill="#2D3963" fill-opacity="0.52"/>
<path d="M259.638 460.236C257.846 463.348 258.486 468.811 258.901 472.199C259.023 473.042 259.227 474.364 259.366 475.193C260.28 481.313 260.599 483.824 258.973 489.976C257.348 496.128 277.156 503.823 279.358 496.36C281.469 489.622 281.552 482.648 280.749 477.877C280.589 476.923 280.412 476.1 280.373 475.294C280.079 472.055 282.359 466.39 283.148 464.847C283.937 463.304 281.539 462.137 280.671 463.165C279.802 464.193 277.4 469.093 277.038 471.983C276.955 472.64 275.611 472.202 275.594 471.694C275.659 467.832 277.517 463.708 278.342 462.025C279.166 460.342 276.141 458.284 274.485 460.548C272.83 462.812 271.67 465.867 271.06 470.728C270.978 471.385 269.495 471.527 269.473 470.59C269.051 466.133 269.951 462.179 270.924 459.596C271.896 457.013 268.712 456.333 267.367 457.598C265.143 460.368 264.224 466.162 264.574 470.076C264.734 471.03 263.401 471.209 263.102 470.238C262.467 467.489 262.665 463.575 263.066 461.244C263.409 459.505 260.718 458.686 259.638 460.236Z" fill="#108CFF"/>
<path d="M197.41 541.383C236.149 551.682 273.977 509.936 279.05 500.252C284.123 490.567 265.676 483.188 259.22 486.109C199.268 553.594 180.778 498.045 215.409 472.428C224.187 465.935 218.973 438.778 210.951 444.604C169.299 474.854 158.672 531.083 197.41 541.383Z" fill="#EAEBF5"/>
<path fill-rule="evenodd" clip-rule="evenodd" d="M267.876 510.572C272.691 505.51 275.827 501.275 276.941 499.147C277.812 497.485 277.674 496.059 276.919 494.703C276.094 493.219 274.47 491.753 272.292 490.529C270.142 489.32 267.651 488.46 265.359 488.072C263.289 487.722 261.65 487.802 260.614 488.123C245.686 504.846 233.129 514.207 223.103 518.252C212.966 522.341 204.896 521.13 200.076 515.774C195.426 510.606 194.602 502.399 196.923 494.213C199.273 485.931 204.93 477.219 213.993 470.514C215.482 469.413 216.629 467.206 217.202 464.091C217.764 461.044 217.699 457.512 217.135 454.309C216.561 451.045 215.528 448.453 214.416 447.078C213.872 446.406 213.473 446.225 213.291 446.185C213.195 446.164 212.92 446.116 212.35 446.53C191.969 461.332 179.296 482.421 176.386 500.846C174.933 510.046 175.931 518.435 179.431 525.058C182.9 531.622 188.933 536.665 198.022 539.082C216.396 543.967 234.794 536.555 249.498 526.355C256.812 521.281 263.105 515.588 267.876 510.572ZM259.22 486.109C265.676 483.188 284.123 490.567 279.05 500.252C273.977 509.936 236.149 551.682 197.41 541.383C158.672 531.083 169.299 474.854 210.951 444.604C218.973 438.778 224.187 465.935 215.409 472.428C180.778 498.045 199.268 553.594 259.22 486.109Z" fill="url(#paint12_linear)"/>
<path d="M468.361 351C481.616 351 492.361 340.255 492.361 327L492.361 311C492.361 297.745 481.616 287 468.361 287L421.361 287C408.106 287 397.361 297.745 397.361 311L397.361 327C397.361 340.255 408.106 351 421.361 351L468.361 351Z" fill="#666AF6"/>
<path fill-rule="evenodd" clip-rule="evenodd" d="M464.039 314.265C464.445 314.64 464.47 315.272 464.096 315.678L458.261 322L464.096 328.322C464.47 328.728 464.445 329.36 464.039 329.735C463.633 330.109 463.001 330.084 462.626 329.678L455.54 322L462.626 314.322C463.001 313.916 463.633 313.891 464.039 314.265Z" fill="#4D51D4"/>
<path fill-rule="evenodd" clip-rule="evenodd" d="M447.039 314.265C447.445 314.64 447.47 315.272 447.096 315.678L441.261 322L447.096 328.322C447.47 328.728 447.445 329.36 447.039 329.735C446.633 330.109 446.001 330.084 445.626 329.678L438.54 322L445.626 314.322C446.001 313.916 446.633 313.891 447.039 314.265Z" fill="#4D51D4"/>
<path fill-rule="evenodd" clip-rule="evenodd" d="M430.039 314.265C430.445 314.64 430.47 315.272 430.096 315.678L424.261 322L430.096 328.322C430.47 328.728 430.445 329.36 430.039 329.735C429.633 330.109 429.001 330.084 428.626 329.678L421.54 322L428.626 314.322C429.001 313.916 429.633 313.891 430.039 314.265Z" fill="#4D51D4"/>
<path d="M152.861 195.5C163.354 195.5 171.861 186.993 171.861 176.5C171.861 166.007 163.354 157.5 152.861 157.5C142.367 157.5 133.861 166.007 133.861 176.5C133.861 186.993 142.367 195.5 152.861 195.5Z" stroke="#FFE485" stroke-width="15"/>
<path d="M469.361 262C482.616 262 493.361 251.255 493.361 238L493.361 118C493.361 104.745 482.616 94 469.361 94L422.361 94C409.106 94 398.361 104.745 398.361 118L398.361 238C398.361 251.255 409.106 262 422.361 262L469.361 262Z" fill="#FF6E5D"/>
<path d="M471.361 254C480.197 254 487.361 246.837 487.361 238L487.361 118C487.361 109.163 480.197 102 471.361 102L471.361 254Z" fill="#FF5844"/>
<path d="M470.361 248C476.436 248 481.361 243.075 481.361 237L481.361 119C481.361 112.925 476.436 108 470.361 108L465.361 108L465.361 248L470.361 248Z" fill="#FF6E5D"/>
<path d="M455.761 76C461.063 76 465.361 80.2981 465.361 85.6C465.361 86.9255 464.286 88 462.961 88L428.761 88C427.435 88 426.361 86.9255 426.361 85.6C426.361 80.2981 430.659 76 435.961 76L455.761 76Z" fill="#E4EBFA"/>
<path d="M428.459 186.383L453.486 149.211C454.753 147.33 457.678 148.677 457.072 150.863L446.767 188.034C446.527 188.9 445.739 189.5 444.84 189.5H430.118C428.517 189.5 427.565 187.712 428.459 186.383Z" fill="#FE4D39"/>
<path d="M463.762 182.617L438.736 219.789C437.469 221.67 434.543 220.323 435.15 218.137L445.455 180.966C445.695 180.1 446.483 179.5 447.382 179.5L462.103 179.5C463.705 179.5 464.657 181.288 463.762 182.617Z" fill="#FE4D39"/>
<rect x="179.361" y="349" width="131" height="131" rx="38" transform="rotate(-180 179.361 349)" fill="#1D92FF"/>
<mask id="mask2" mask-type="alpha" maskUnits="userSpaceOnUse" x="48" y="218" width="132" height="131">
<rect x="179.361" y="349" width="131" height="131" rx="38" transform="rotate(-180 179.361 349)" fill="#1D92FF"/>
</mask>
<g mask="url(#mask2)">
<rect x="148.168" y="234.98" width="19.4074" height="113.3" rx="9.7037" transform="rotate(45 148.168 234.98)" fill="#0C81EE"/>
<rect x="65.6895" y="244.684" width="19.4074" height="48.5185" rx="9.7037" transform="rotate(45 65.6895 244.684)" fill="#0C81EE"/>
<rect x="111.781" y="198.592" width="19.4074" height="48.5185" rx="9.7037" transform="rotate(45 111.781 198.592)" fill="#0C81EE"/>
<rect x="138.467" y="322.313" width="19.4074" height="48.5185" rx="9.7037" transform="rotate(45 138.467 322.313)" fill="#0C81EE"/>
<rect x="184.558" y="273.796" width="19.4074" height="48.5185" rx="9.7037" transform="rotate(45 184.558 273.796)" fill="#0C81EE"/>
</g>
<rect x="179.361" y="349" width="131" height="131" rx="38" transform="rotate(-180 179.361 349)" fill="url(#paint13_linear)"/>
<path d="M94.1102 302.488C94.3593 302.747 94.6134 303.002 94.8724 303.251C96.8038 305.108 97.4378 308.095 95.9471 310.322L94.9945 311.745C93.5038 313.971 90.4662 314.589 88.4419 312.833C87.0462 311.623 85.7379 310.315 84.5274 308.919C82.7717 306.895 83.3894 303.857 85.6161 302.366L87.0391 301.414C89.2657 299.923 92.2528 300.557 94.1102 302.488Z" fill="#D2E9FF"/>
<path d="M113.32 310.893C113.5 310.896 113.68 310.898 113.861 310.898C114.043 310.898 114.223 310.896 114.403 310.893C117.082 310.841 119.643 312.507 120.163 315.136L120.495 316.816C121.015 319.445 119.304 322.029 116.631 322.217C115.716 322.281 114.792 322.314 113.861 322.314C112.93 322.314 112.007 322.281 111.092 322.217C108.419 322.029 106.708 319.445 107.228 316.816L107.56 315.136C108.08 312.507 110.641 310.841 113.32 310.893Z" fill="#D2E9FF"/>
<path d="M132.85 303.251C133.109 303.002 133.364 302.747 133.613 302.488C135.47 300.557 138.457 299.923 140.684 301.414L142.107 302.366C144.333 303.857 144.951 306.895 143.195 308.919C141.985 310.315 140.677 311.623 139.281 312.833C137.257 314.589 134.219 313.971 132.728 311.745L131.776 310.322C130.285 308.095 130.919 305.108 132.85 303.251Z" fill="#D2E9FF"/>
<circle cx="113.861" cy="283.5" r="31.537" fill="white"/>
<path fill-rule="evenodd" clip-rule="evenodd" d="M152.274 289.103C152.116 290.196 151.059 290.9 149.975 290.686L142.7 289.247C141.616 289.032 140.919 287.98 141.054 286.884C141.189 285.779 141.26 284.649 141.26 283.499C141.26 282.349 141.189 281.219 141.054 280.114C140.919 279.017 141.616 277.965 142.7 277.751L149.975 276.312C151.059 276.097 152.116 276.802 152.274 277.895C152.539 279.725 152.676 281.596 152.676 283.499C152.676 285.402 152.539 287.273 152.274 289.103ZM144.983 260.3C145.644 261.185 145.394 262.431 144.476 263.045L138.314 267.171C137.396 267.786 136.159 267.535 135.48 266.664C134.088 264.88 132.48 263.272 130.696 261.88C129.825 261.201 129.574 259.964 130.189 259.046L134.314 252.884C134.929 251.966 136.175 251.716 137.06 252.377C140.067 254.622 142.738 257.293 144.983 260.3ZM119.465 245.086C120.558 245.244 121.262 246.301 121.048 247.385L119.609 254.66C119.394 255.744 118.343 256.441 117.246 256.306C116.141 256.17 115.011 256.1 113.861 256.1C112.711 256.1 111.581 256.17 110.476 256.306C109.379 256.441 108.328 255.744 108.113 254.66L106.674 247.385C106.46 246.301 107.164 245.244 108.257 245.086C110.087 244.821 111.958 244.684 113.861 244.684C115.764 244.684 117.635 244.821 119.465 245.086ZM90.6622 252.377C91.5473 251.716 92.793 251.966 93.4075 252.884L97.5332 259.046C98.1477 259.964 97.8966 261.201 97.0258 261.88C95.2421 263.272 93.6342 264.88 92.2424 266.664C91.5629 267.535 90.3263 267.786 89.4084 267.171L83.2458 263.045C82.328 262.431 82.0779 261.185 82.7388 260.3C84.984 257.293 87.6549 254.622 90.6622 252.377ZM77.7469 276.312C76.6634 276.097 75.6058 276.802 75.4477 277.895C75.1831 279.725 75.0461 281.596 75.0461 283.499C75.0461 285.402 75.1831 287.273 75.4477 289.103C75.6058 290.196 76.6634 290.9 77.7469 290.686L85.022 289.247C86.1056 289.032 86.8027 287.98 86.6681 286.884C86.5325 285.779 86.4623 284.649 86.4623 283.499C86.4623 282.349 86.5325 281.219 86.6681 280.114C86.8027 279.017 86.1056 277.965 85.022 277.751L77.7469 276.312Z" fill="white"/>
<circle cx="113.861" cy="283.499" r="16.9815" fill="#1D92FF"/>
<path d="M135.694 283.5C135.694 280.633 135.13 277.794 134.032 275.145C132.935 272.496 131.327 270.089 129.299 268.061C127.272 266.034 124.865 264.426 122.216 263.328C119.567 262.231 116.728 261.667 113.861 261.667C110.994 261.667 108.155 262.231 105.506 263.328C102.857 264.426 100.45 266.034 98.4224 268.061C96.395 270.089 94.7868 272.496 93.6896 275.145C92.5923 277.794 92.0276 280.633 92.0276 283.5L113.861 283.5H135.694Z" fill="#1D92FF" fill-opacity="0.2"/>
<path d="M125.869 295.507C127.445 293.93 128.696 292.058 129.55 289.998C130.403 287.938 130.842 285.729 130.842 283.499C130.842 281.269 130.403 279.061 129.55 277.001C128.696 274.941 127.445 273.068 125.869 271.492C124.292 269.915 122.42 268.664 120.359 267.81C118.299 266.957 116.091 266.518 113.861 266.518C111.631 266.518 109.423 266.957 107.362 267.81C105.302 268.664 103.43 269.915 101.853 271.492L113.861 283.499L125.869 295.507Z" fill="#0C81EE"/>
<path d="M83.0857 290.391C84.6474 297.365 88.5317 303.602 94.1021 308.08C99.6725 312.557 106.599 315.01 113.746 315.036C120.892 315.062 127.836 312.66 133.439 308.223C139.042 303.786 142.972 297.578 144.584 290.615L140.987 289.782C139.563 295.929 136.093 301.411 131.147 305.328C126.2 309.245 120.069 311.366 113.759 311.343C107.449 311.32 101.334 309.155 96.4157 305.201C91.4976 301.248 88.0681 295.741 86.6892 289.584L83.0857 290.391Z" fill="#1D92FF" fill-opacity="0.2"/>
<path d="M427.459 180.383L452.486 143.211C453.753 141.33 456.678 142.677 456.072 144.863L445.767 182.034C445.527 182.9 444.739 183.5 443.84 183.5H429.118C427.517 183.5 426.565 181.712 427.459 180.383Z" fill="#FFE485"/>
<path d="M462.762 176.617L437.736 213.789C436.469 215.67 433.543 214.323 434.15 212.137L444.455 174.966C444.695 174.1 445.483 173.5 446.382 173.5L461.103 173.5C462.705 173.5 463.657 175.288 462.762 176.617Z" fill="#FFE485"/>
<path fill-rule="evenodd" clip-rule="evenodd" d="M464.039 311.265C464.445 311.64 464.47 312.272 464.096 312.678L458.261 319L464.096 325.322C464.47 325.728 464.445 326.36 464.039 326.735C463.633 327.109 463.001 327.084 462.626 326.678L455.54 319L462.626 311.322C463.001 310.916 463.633 310.891 464.039 311.265Z" fill="white"/>
<path fill-rule="evenodd" clip-rule="evenodd" d="M447.039 311.265C447.445 311.64 447.47 312.272 447.096 312.678L441.261 319L447.096 325.322C447.47 325.728 447.445 326.36 447.039 326.735C446.633 327.109 446.001 327.084 445.626 326.678L438.54 319L445.626 311.322C446.001 310.916 446.633 310.891 447.039 311.265Z" fill="white"/>
<path fill-rule="evenodd" clip-rule="evenodd" d="M430.039 311.265C430.445 311.64 430.47 312.272 430.096 312.678L424.261 319L430.096 325.322C430.47 325.728 430.445 326.36 430.039 326.735C429.633 327.109 429.001 327.084 428.626 326.678L421.54 319L428.626 311.322C429.001 310.916 429.633 310.891 430.039 311.265Z" fill="white"/>
<defs>
<filter id="filter0_f" x="204.734" y="375.939" width="150.885" height="103.792" filterUnits="userSpaceOnUse" color-interpolation-filters="sRGB">
<feFlood flood-opacity="0" result="BackgroundImageFix"/>
<feBlend mode="normal" in="SourceGraphic" in2="BackgroundImageFix" result="shape"/>
<feGaussianBlur stdDeviation="7.70935" result="effect1_foregroundBlur"/>
</filter>
<filter id="filter1_i" x="243.864" y="413.172" width="84.2175" height="59.836" filterUnits="userSpaceOnUse" color-interpolation-filters="sRGB">
<feFlood flood-opacity="0" result="BackgroundImageFix"/>
<feBlend mode="normal" in="SourceGraphic" in2="BackgroundImageFix" result="shape"/>
<feColorMatrix in="SourceAlpha" type="matrix" values="0 0 0 0 0 0 0 0 0 0 0 0 0 0 0 0 0 0 127 0" result="hardAlpha"/>
<feOffset/>
<feGaussianBlur stdDeviation="1.02791"/>
<feComposite in2="hardAlpha" operator="arithmetic" k2="-1" k3="1"/>
<feColorMatrix type="matrix" values="0 0 0 0 0.317647 0 0 0 0 0.376471 0 0 0 0 0.494118 0 0 0 1 0"/>
<feBlend mode="normal" in2="shape" result="effect1_innerShadow"/>
</filter>
<filter id="filter2_f" x="245.136" y="414.419" width="81.6721" height="57.1287" filterUnits="userSpaceOnUse" color-interpolation-filters="sRGB">
<feFlood flood-opacity="0" result="BackgroundImageFix"/>
<feBlend mode="normal" in="SourceGraphic" in2="BackgroundImageFix" result="shape"/>
<feGaussianBlur stdDeviation="0.513957" result="effect1_foregroundBlur"/>
</filter>
<linearGradient id="paint0_linear" x1="274.361" y1="307.5" x2="274.361" y2="190.5" gradientUnits="userSpaceOnUse">
<stop stop-color="#28BFEE"/>
<stop offset="1" stop-color="#8FE6FA" stop-opacity="0"/>
</linearGradient>
<linearGradient id="paint1_linear" x1="410.961" y1="589" x2="53.7082" y2="393.078" gradientUnits="userSpaceOnUse">
<stop stop-color="#4BE0D7"/>
<stop offset="1" stop-color="#BAF7C8"/>
</linearGradient>
<linearGradient id="paint2_linear" x1="205.283" y1="347.803" x2="217.699" y2="350.573" gradientUnits="userSpaceOnUse">
<stop stop-color="#485776"/>
<stop offset="1" stop-color="#8493AD"/>
</linearGradient>
<linearGradient id="paint3_linear" x1="192.665" y1="344.748" x2="204.971" y2="347.494" gradientUnits="userSpaceOnUse">
<stop stop-color="#A5B8D4"/>
<stop offset="1" stop-color="#8493AD"/>
</linearGradient>
<linearGradient id="paint4_linear" x1="350.028" y1="380.1" x2="337.611" y2="377.329" gradientUnits="userSpaceOnUse">
<stop stop-color="#485776"/>
<stop offset="1" stop-color="#8493AD"/>
</linearGradient>
<linearGradient id="paint5_linear" x1="362.749" y1="382.696" x2="350.443" y2="379.95" gradientUnits="userSpaceOnUse">
<stop stop-color="#A5B8D4"/>
<stop offset="1" stop-color="#8493AD"/>
</linearGradient>
<linearGradient id="paint6_linear" x1="280.822" y1="292.962" x2="280.822" y2="589" gradientUnits="userSpaceOnUse">
<stop stop-color="#EFEFF7"/>
<stop offset="0.530634" stop-color="#DEDEEF"/>
<stop offset="0.664129" stop-color="#B6DAED"/>
<stop offset="1" stop-color="white"/>
</linearGradient>
<linearGradient id="paint7_linear" x1="251.688" y1="340.236" x2="326.195" y2="433.264" gradientUnits="userSpaceOnUse">
<stop stop-color="white"/>
<stop offset="1" stop-color="#E1E3F8" stop-opacity="0"/>
</linearGradient>
<linearGradient id="paint8_linear" x1="349.345" y1="520.818" x2="345.556" y2="479.987" gradientUnits="userSpaceOnUse">
<stop stop-color="#EEEFFF"/>
<stop offset="1" stop-color="#EEEFFF" stop-opacity="0"/>
</linearGradient>
<radialGradient id="paint9_radial" cx="0" cy="0" r="1" gradientUnits="userSpaceOnUse" gradientTransform="translate(279.717 405.91) rotate(-180) scale(42.0916 30.1303)">
<stop stop-color="#FDFDFE"/>
<stop offset="1" stop-color="#FDFDFE" stop-opacity="0"/>
</radialGradient>
<linearGradient id="paint10_linear" x1="285.927" y1="413.237" x2="286.018" y2="472.944" gradientUnits="userSpaceOnUse">
<stop stop-color="#BDCEE7"/>
<stop offset="1" stop-color="#788AA7"/>
</linearGradient>
<linearGradient id="paint11_linear" x1="285.93" y1="415.507" x2="286.014" y2="470.459" gradientUnits="userSpaceOnUse">
<stop stop-color="#475674"/>
<stop offset="1" stop-color="#596885" stop-opacity="0"/>
</linearGradient>
<linearGradient id="paint12_linear" x1="245.793" y1="529.237" x2="238.637" y2="509.874" gradientUnits="userSpaceOnUse">
<stop stop-color="#EEF0FF"/>
<stop offset="1" stop-color="#EEF0FF" stop-opacity="0"/>
</linearGradient>
<linearGradient id="paint13_linear" x1="304.296" y1="480" x2="185.426" y2="361.13" gradientUnits="userSpaceOnUse">
<stop stop-color="#33B6FF" stop-opacity="0.64"/>
<stop offset="0.484375" stop-color="#33B6FF" stop-opacity="0"/>
</linearGradient>
</defs>
</svg>
