<svg width="760" height="600" viewBox="0 0 760 600" fill="none" xmlns="http://www.w3.org/2000/svg">
<path d="M230.975 421.989C212.375 454.289 239.875 493.789 276.575 487.289C306.975 481.989 322.575 447.689 306.575 421.289C289.375 392.589 247.675 392.989 230.975 421.989Z" fill="#FFCA62"/>
<path d="M248 173.3C248 117.3 289.9 72 341.6 72H451.4C503.1 72 545 117.4 545 173.3V373.5C545 429.5 503.1 474.8 451.4 474.8H341.6C289.9 474.8 248 429.4 248 373.5V173.3Z" fill="url(#paint0_linear)"/>
<path d="M560 166C568.837 166 576 158.837 576 150L576 121C576 112.163 568.837 105 560 105L531 105C522.163 105 515 112.163 515 121L515 150C515 158.837 522.163 166 531 166L560 166Z" fill="#61E884"/>
<path fill-rule="evenodd" clip-rule="evenodd" d="M558.801 126.923C559.489 127.626 559.456 128.734 558.728 129.397L541.112 145.44L532.606 137.237C531.897 136.554 531.897 135.446 532.606 134.763C533.314 134.079 534.464 134.079 535.172 134.763L541.184 140.56L556.236 126.853C556.964 126.189 558.113 126.221 558.801 126.923Z" fill="white"/>
<path d="M462.468 224.977C452.825 265.962 462.069 302.607 475.57 338.77C489.071 374.933 500.755 391.724 494.647 463.5C494.647 463.5 481.5 475 447 475C406 475 356.997 475 346.5 475C329 475 323.4 472.5 323.4 472.5C323.086 457.847 328.024 424.116 319.174 368.54C310.325 312.965 308.104 235.977 316.369 201.35C324.633 166.723 354 121.221 404.5 128.5C455 135.778 472.112 183.992 462.468 224.977Z" fill="url(#paint1_linear)"/>
<path fill-rule="evenodd" clip-rule="evenodd" d="M405.569 339.733C464.395 401.451 503.236 407.056 523.282 387.583C541.79 369.604 524.425 325.537 473.454 294.214C469.219 291.612 460.281 285.637 459.136 275.328C442.403 273.11 452.34 314.177 471.145 327.196C496.218 343.108 503.185 363.558 492.354 362.956C481.524 362.354 459.624 351.527 432.532 322.841C418.824 310.342 399.582 332.865 405.569 339.733Z" fill="url(#paint2_linear)"/>
<path d="M390.378 272.748C418.754 272.748 441.757 248.933 441.757 219.555C441.757 190.178 418.754 166.363 390.378 166.363C362.003 166.363 339 190.178 339 219.555C339 248.933 362.003 272.748 390.378 272.748Z" fill="#C2F4FF"/>
<path d="M390.519 165C362.144 165 339.141 188.225 339.141 216.874C339.141 245.523 362.144 268.748 390.519 268.748C418.895 268.748 441.897 245.523 441.897 216.874C441.897 188.225 418.895 165 390.519 165Z" fill="url(#paint3_linear)"/>
<path d="M359.198 211.744C359.092 214.437 361.221 216.818 363.915 216.924C366.609 217.029 368.99 214.9 369.095 212.206C369.2 209.513 367.071 207.132 364.378 207.026C361.705 206.816 359.324 208.946 359.198 211.744Z" fill="#2968E5"/>
<path d="M359.23 211.161C359.166 213.646 361.024 215.755 363.592 215.944C366.077 216.007 368.187 214.15 368.376 211.581C368.439 209.097 366.581 206.987 364.013 206.798C361.528 206.735 359.398 208.697 359.23 211.161Z" fill="#2B3760"/>
<path d="M363.701 208.366C363.137 209.014 363.45 210.162 364.473 211.019C365.391 211.854 366.665 212.001 367.229 211.354C367.793 210.707 367.48 209.558 366.457 208.702C365.435 207.845 364.265 207.719 363.701 208.366Z" fill="#364D98"/>
<path d="M365.12 208.869C364.974 209.057 365.099 209.516 365.454 209.913C365.83 210.206 366.247 210.289 366.498 210.122C366.665 209.83 366.519 209.475 366.164 209.078C365.788 208.786 365.266 208.681 365.12 208.869Z" fill="#C3D8F8"/>
<path d="M365.703 212.458C366.308 212.688 366.83 213.335 366.391 213.899C365.702 214.629 364.741 215.088 363.677 214.984C361.735 214.92 360.127 213.187 360.295 211.266C360.358 210.41 360.609 209.7 361.152 209.157C361.591 208.593 362.447 209.199 362.739 209.909C362.947 210.494 363.469 211.141 364.033 211.58C364.492 211.998 365.076 212.332 365.703 212.458Z" fill="#1B244A"/>
<path d="M419.445 225.119C419.339 227.812 421.469 230.193 424.162 230.299C426.856 230.404 429.237 228.275 429.342 225.581C429.447 222.888 427.318 220.507 424.625 220.401C421.952 220.191 419.571 222.321 419.445 225.119Z" fill="#2968E5"/>
<path d="M419.291 224.558C419.228 227.043 421.086 229.153 423.654 229.341C426.139 229.405 428.248 227.547 428.437 224.979C428.501 222.494 426.643 220.385 424.075 220.196C421.59 220.132 419.459 222.094 419.291 224.558Z" fill="#2B3760"/>
<path d="M423.76 221.762C423.196 222.409 423.509 223.558 424.532 224.414C425.45 225.25 426.724 225.396 427.288 224.749C427.852 224.102 427.539 222.953 426.516 222.097C425.493 221.241 424.324 221.115 423.76 221.762Z" fill="#364D98"/>
<path d="M425.179 222.263C425.033 222.45 425.158 222.91 425.513 223.307C425.888 223.599 426.306 223.683 426.557 223.516C426.724 223.224 426.578 222.869 426.223 222.472C425.847 222.179 425.325 222.075 425.179 222.263Z" fill="#C3D8F8"/>
<path d="M425.763 225.853C426.369 226.083 426.891 226.731 426.452 227.294C425.763 228.025 424.802 228.484 423.737 228.379C421.795 228.316 420.188 226.582 420.356 224.661C420.419 223.805 420.669 223.095 421.213 222.552C421.651 221.989 422.507 222.595 422.799 223.305C423.008 223.889 423.53 224.537 424.093 224.976C424.552 225.393 425.137 225.728 425.763 225.853Z" fill="#1B244A"/>
<path d="M350.331 280.155C350.325 276.285 353.458 273.143 357.328 273.137L439.676 273.011C443.546 273.005 446.688 276.137 446.694 280.008L446.778 334.385C446.784 338.255 443.651 341.397 439.781 341.403L357.433 341.529C353.562 341.535 350.42 338.403 350.414 334.532L350.331 280.155Z" fill="white"/>
<path d="M350.331 282.962C350.325 279.092 353.458 275.949 357.328 275.943L439.676 275.817C443.546 275.811 446.688 278.944 446.694 282.814L446.778 337.191C446.784 341.062 443.651 344.204 439.781 344.21L357.433 344.336C353.562 344.342 350.42 341.209 350.414 337.339L350.331 282.962Z" fill="#B0D3F3"/>
<path d="M365.643 316.621C363.093 321.047 364.003 328.819 364.594 333.64C364.767 334.84 365.057 336.721 365.256 337.9C366.555 346.606 369.239 350.194 366.926 358.946C364.614 367.698 387.848 378.727 390.981 368.11C397.853 358.946 397.243 349.463 396.101 342.674C395.873 341.317 395.621 340.146 395.566 339C395.148 334.391 398.391 326.332 399.514 324.137C401.374 320.5 397 318.5 395.566 320.788C394.33 322.25 390.913 329.222 390.397 333.334C390.28 334.268 388.368 333.644 388.344 332.922C388.435 327.428 391.079 321.559 392.252 319.165C393.426 316.771 389.121 313.843 386.766 317.064C384.41 320.286 382.761 324.632 381.893 331.547C381.776 332.482 379.667 332.684 379.634 331.351C379.035 325.011 380.315 319.385 381.699 315.709C383.083 312.034 378.552 311.068 376.639 312.867C373.474 316.808 372.168 325.052 372.665 330.62C372.893 331.978 370.996 332.232 370.571 330.85C369.667 326.939 369.949 321.371 370.52 318.054C371.008 315.581 367.178 314.416 365.643 316.621Z" fill="#108CFF"/>
<path d="M295.907 423.093C340.28 434.89 384.814 384.647 390.625 373.553C396.436 362.46 372.08 352.074 366.926 358.374C298.253 435.675 278.057 371.026 317.726 341.682C327.781 334.245 321.133 282.973 311.943 289.646C311.943 299.383 308.381 308.103 300.344 315.992C262.865 352.779 255.579 412.371 295.907 423.093Z" fill="url(#paint4_linear)"/>
<path d="M235.362 316C233.262 316 231.662 317.7 232.062 319.7C232.862 322.8 234.362 325.8 236.762 328C240.062 331.2 244.362 333 248.962 333C253.562 333 257.962 331.3 261.162 328C263.562 325.7 265.062 322.8 265.862 319.7C266.362 317.7 264.662 316 262.562 316.1C260.462 316.1 258.962 317.8 258.162 319.7C257.662 320.9 256.962 322 255.962 322.9C254.062 324.7 251.562 325.7 248.962 325.8C246.362 325.8 243.762 324.8 241.962 322.9C240.962 322 240.262 320.9 239.762 319.7C239.062 317.7 237.362 316 235.362 316Z" fill="#FF8B5C"/>
<defs>
<linearGradient id="paint0_linear" x1="396.515" y1="72.0131" x2="396.515" y2="474.863" gradientUnits="userSpaceOnUse">
<stop stop-color="#95F2FF"/>
<stop offset="1" stop-color="#82E1FE"/>
</linearGradient>
<linearGradient id="paint1_linear" x1="403.764" y1="130.999" x2="403.764" y2="475.21" gradientUnits="userSpaceOnUse">
<stop stop-color="white"/>
<stop offset="1" stop-color="#AFE7FF"/>
</linearGradient>
<linearGradient id="paint2_linear" x1="452.949" y1="286.292" x2="439.458" y2="382.25" gradientUnits="userSpaceOnUse">
<stop stop-color="#D4F2FF"/>
<stop offset="0.348958" stop-color="#D4F2FF"/>
<stop offset="1" stop-color="#E5F7FF"/>
</linearGradient>
<linearGradient id="paint3_linear" x1="417.993" y1="266" x2="412.898" y2="172.531" gradientUnits="userSpaceOnUse">
<stop stop-color="#38A0FF"/>
<stop offset="1" stop-color="#1381E6"/>
</linearGradient>
<linearGradient id="paint4_linear" x1="314.807" y1="304.537" x2="390.98" y2="380.711" gradientUnits="userSpaceOnUse">
<stop stop-color="#D4F2FF"/>
<stop offset="0.348958" stop-color="#D4F2FF"/>
<stop offset="1" stop-color="#E5F7FF"/>
</linearGradient>
</defs>
</svg>
