<svg width="351" height="416" viewBox="0 0 351 416" fill="none" xmlns="http://www.w3.org/2000/svg">
<path d="M5.9754 349.989C-12.6246 382.289 14.8754 421.789 51.5754 415.289C81.9754 409.989 97.5754 375.689 81.5754 349.289C64.3754 320.589 22.6754 320.989 5.9754 349.989Z" fill="#FFCA62"/>
<path d="M23 101.3C23 45.3 64.9 0 116.6 0H226.4C278.1 0 320 45.4 320 101.3V301.5C320 357.5 278.1 402.8 226.4 402.8H116.6C64.9 402.8 23 357.4 23 301.5V101.3Z" fill="url(#paint0_linear)"/>
<path d="M335 94C343.837 94 351 86.8366 351 78L351 49C351 40.1634 343.837 33 335 33L306 33C297.163 33 290 40.1634 290 49L290 78C290 86.8366 297.163 94 306 94L335 94Z" fill="#61E884"/>
<path fill-rule="evenodd" clip-rule="evenodd" d="M333.801 54.9234C334.489 55.6261 334.456 56.7337 333.728 57.3973L316.112 73.44L307.606 65.2374C306.897 64.554 306.897 63.446 307.606 62.7626C308.314 62.0791 309.464 62.0791 310.172 62.7626L316.184 68.56L331.236 54.8527C331.964 54.1891 333.113 54.2208 333.801 54.9234Z" fill="white"/>
<path d="M237.468 152.977C227.824 193.962 237.068 230.607 250.569 266.77C264.07 302.933 275.755 319.724 269.646 391.5C269.646 391.5 256.5 403 222 403C181 403 131.997 403 121.5 403C104 403 98.3992 400.5 98.3992 400.5C98.0854 385.847 103.023 352.116 94.1738 296.54C85.3244 240.965 83.1035 163.977 91.3682 129.35C99.6329 94.7233 129 49.2211 179.5 56.4997C230 63.7783 247.111 111.992 237.468 152.977Z" fill="url(#paint1_linear)"/>
<path fill-rule="evenodd" clip-rule="evenodd" d="M180.569 267.733C239.395 329.451 278.236 335.056 298.282 315.583C316.79 297.604 299.425 253.537 248.454 222.214C244.219 219.612 235.281 213.637 234.136 203.328C217.403 201.11 227.34 242.177 246.145 255.196C271.218 271.108 278.185 291.558 267.354 290.956C256.524 290.354 234.624 279.527 207.532 250.841C193.824 238.342 174.582 260.865 180.569 267.733Z" fill="url(#paint2_linear)"/>
<path d="M165.378 200.748C193.754 200.748 216.757 176.933 216.757 147.555C216.757 118.178 193.754 94.3633 165.378 94.3633C137.003 94.3633 114 118.178 114 147.555C114 176.933 137.003 200.748 165.378 200.748Z" fill="#C2F4FF"/>
<path d="M165.519 92.9997C137.144 92.9997 114.141 116.225 114.141 144.874C114.141 173.523 137.144 196.748 165.519 196.748C193.895 196.748 216.897 173.523 216.897 144.874C216.897 116.225 193.895 92.9997 165.519 92.9997Z" fill="url(#paint3_linear)"/>
<path d="M134.197 139.744C134.092 142.437 136.221 144.818 138.915 144.924C141.608 145.029 143.989 142.9 144.095 140.206C144.2 137.513 142.071 135.132 139.377 135.026C136.705 134.816 134.323 136.946 134.197 139.744Z" fill="#2968E5"/>
<path d="M134.23 139.161C134.166 141.646 136.024 143.755 138.592 143.944C141.077 144.007 143.187 142.15 143.376 139.581C143.439 137.097 141.581 134.987 139.013 134.798C136.528 134.735 134.398 136.697 134.23 139.161Z" fill="#2B3760"/>
<path d="M138.701 136.366C138.137 137.014 138.45 138.162 139.472 139.019C140.391 139.854 141.665 140.001 142.229 139.354C142.793 138.707 142.48 137.558 141.457 136.702C140.434 135.845 139.265 135.719 138.701 136.366Z" fill="#364D98"/>
<path d="M140.12 136.869C139.974 137.057 140.099 137.516 140.454 137.913C140.83 138.206 141.247 138.289 141.498 138.122C141.665 137.83 141.519 137.475 141.164 137.078C140.788 136.786 140.266 136.681 140.12 136.869Z" fill="#C3D8F8"/>
<path d="M140.703 140.458C141.308 140.688 141.83 141.335 141.391 141.899C140.702 142.629 139.741 143.088 138.677 142.984C136.735 142.92 135.127 141.187 135.295 139.266C135.358 138.41 135.609 137.7 136.152 137.157C136.591 136.593 137.447 137.199 137.739 137.909C137.947 138.494 138.469 139.141 139.033 139.58C139.492 139.998 140.076 140.332 140.703 140.458Z" fill="#1B244A"/>
<path d="M194.445 153.119C194.339 155.812 196.469 158.193 199.162 158.299C201.856 158.404 204.237 156.275 204.342 153.581C204.447 150.888 202.318 148.507 199.625 148.401C196.952 148.191 194.571 150.321 194.445 153.119Z" fill="#2968E5"/>
<path d="M194.291 152.558C194.228 155.043 196.086 157.153 198.654 157.341C201.139 157.405 203.248 155.547 203.437 152.979C203.501 150.494 201.643 148.385 199.075 148.196C196.59 148.132 194.459 150.094 194.291 152.558Z" fill="#2B3760"/>
<path d="M198.759 149.762C198.195 150.409 198.508 151.558 199.531 152.414C200.45 153.25 201.723 153.396 202.287 152.749C202.851 152.102 202.538 150.953 201.515 150.097C200.493 149.241 199.323 149.115 198.759 149.762Z" fill="#364D98"/>
<path d="M200.179 150.263C200.033 150.45 200.158 150.91 200.513 151.307C200.889 151.599 201.306 151.683 201.557 151.516C201.724 151.224 201.578 150.869 201.223 150.472C200.848 150.179 200.326 150.075 200.179 150.263Z" fill="#C3D8F8"/>
<path d="M200.763 153.853C201.369 154.083 201.891 154.731 201.452 155.294C200.763 156.025 199.802 156.484 198.737 156.379C196.795 156.316 195.188 154.582 195.356 152.661C195.419 151.805 195.669 151.095 196.213 150.552C196.651 149.989 197.507 150.595 197.799 151.305C198.008 151.889 198.53 152.537 199.093 152.976C199.552 153.393 200.137 153.728 200.763 153.853Z" fill="#1B244A"/>
<path d="M125.331 208.155C125.325 204.285 128.458 201.143 132.328 201.137L214.676 201.011C218.546 201.005 221.688 204.137 221.694 208.008L221.778 262.385C221.784 266.255 218.651 269.397 214.781 269.403L132.433 269.529C128.562 269.535 125.42 266.403 125.414 262.532L125.331 208.155Z" fill="white"/>
<path d="M125.331 210.962C125.325 207.092 128.458 203.949 132.328 203.943L214.676 203.817C218.546 203.811 221.688 206.944 221.694 210.814L221.778 265.191C221.784 269.062 218.651 272.204 214.781 272.21L132.433 272.336C128.562 272.342 125.42 269.209 125.414 265.339L125.331 210.962Z" fill="#B0D3F3"/>
<path d="M140.643 244.621C138.093 249.047 139.003 256.819 139.594 261.64C139.767 262.84 140.057 264.721 140.256 265.9C141.555 274.606 144.239 278.194 141.926 286.946C139.614 295.698 162.848 306.727 165.981 296.11C172.853 286.946 172.243 277.463 171.101 270.674C170.873 269.317 170.621 268.146 170.566 267C170.148 262.391 173.391 254.332 174.514 252.137C176.374 248.5 172 246.5 170.566 248.788C169.33 250.25 165.913 257.222 165.397 261.334C165.28 262.268 163.368 261.644 163.344 260.922C163.435 255.428 166.079 249.559 167.252 247.165C168.426 244.771 164.121 241.843 161.766 245.064C159.41 248.286 157.761 252.632 156.893 259.547C156.776 260.482 154.667 260.684 154.634 259.351C154.035 253.011 155.315 247.385 156.699 243.709C158.083 240.034 153.552 239.068 151.639 240.867C148.474 244.808 147.168 253.052 147.665 258.62C147.893 259.978 145.996 260.232 145.571 258.85C144.667 254.939 144.949 249.371 145.52 246.054C146.008 243.581 142.178 242.416 140.643 244.621Z" fill="#108CFF"/>
<path d="M70.9069 351.093C115.28 362.89 159.814 312.647 165.625 301.553C171.436 290.46 147.08 280.074 141.926 286.374C73.2533 363.675 53.0573 299.026 92.7264 269.682C102.781 262.245 96.1327 210.973 86.9434 217.646C86.9434 227.383 83.3813 236.103 75.3441 243.992C37.8653 280.779 30.5788 340.371 70.9069 351.093Z" fill="url(#paint4_linear)"/>
<path d="M10.3616 244C8.26159 244 6.66159 245.7 7.06159 247.7C7.86159 250.8 9.36159 253.8 11.7616 256C15.0616 259.2 19.3616 261 23.9616 261C28.5616 261 32.9616 259.3 36.1616 256C38.5616 253.7 40.0616 250.8 40.8616 247.7C41.3616 245.7 39.6616 244 37.5616 244.1C35.4616 244.1 33.9616 245.8 33.1616 247.7C32.6616 248.9 31.9616 250 30.9616 250.9C29.0616 252.7 26.5616 253.7 23.9616 253.8C21.3616 253.8 18.7616 252.8 16.9616 250.9C15.9616 250 15.2616 248.9 14.7616 247.7C14.0616 245.7 12.3616 244 10.3616 244Z" fill="#FF8B5C"/>
<defs>
<linearGradient id="paint0_linear" x1="171.515" y1="0.0131" x2="171.515" y2="402.863" gradientUnits="userSpaceOnUse">
<stop stop-color="#95F2FF"/>
<stop offset="1" stop-color="#82E1FE"/>
</linearGradient>
<linearGradient id="paint1_linear" x1="178.764" y1="58.999" x2="178.764" y2="403.21" gradientUnits="userSpaceOnUse">
<stop stop-color="white"/>
<stop offset="1" stop-color="#AFE7FF"/>
</linearGradient>
<linearGradient id="paint2_linear" x1="227.949" y1="214.292" x2="214.458" y2="310.25" gradientUnits="userSpaceOnUse">
<stop stop-color="#D4F2FF"/>
<stop offset="0.348958" stop-color="#D4F2FF"/>
<stop offset="1" stop-color="#E5F7FF"/>
</linearGradient>
<linearGradient id="paint3_linear" x1="192.993" y1="194" x2="187.898" y2="100.531" gradientUnits="userSpaceOnUse">
<stop stop-color="#38A0FF"/>
<stop offset="1" stop-color="#1381E6"/>
</linearGradient>
<linearGradient id="paint4_linear" x1="89.8071" y1="232.537" x2="165.98" y2="308.711" gradientUnits="userSpaceOnUse">
<stop stop-color="#D4F2FF"/>
<stop offset="0.348958" stop-color="#D4F2FF"/>
<stop offset="1" stop-color="#E5F7FF"/>
</linearGradient>
</defs>
</svg>
