<svg width="297" height="404" viewBox="0 0 297 404" fill="none" xmlns="http://www.w3.org/2000/svg">
<path d="M0 101.3C0 45.3 41.9 0 93.6 0H203.4C255.1 0 297 45.4 297 101.3V301.5C297 357.5 255.1 402.8 203.4 402.8H93.6C41.9 402.8 0 357.4 0 301.5V101.3Z" fill="url(#paint0_linear)"/>
<path d="M214.468 152.977C204.825 193.962 214.069 230.607 227.57 266.77C241.071 302.933 252.755 331.435 246.647 403.211H75.3997C75.0858 388.558 80.0237 352.116 71.1743 296.54C62.3249 240.965 60.104 163.977 68.3687 129.35C76.6334 94.7233 106 49.2212 156.5 56.4998C207 63.7784 224.112 111.992 214.468 152.977Z" fill="url(#paint1_linear)"/>
<path fill-rule="evenodd" clip-rule="evenodd" d="M157.569 267.732C216.395 329.451 255.236 335.056 275.282 315.583C293.79 297.604 276.425 253.537 225.454 222.214C221.219 219.612 212.281 213.636 211.136 203.327C194.403 201.11 204.34 242.177 223.145 255.196C248.218 271.107 255.185 291.557 244.354 290.956C233.524 290.354 211.624 279.527 184.532 250.841C170.824 238.342 151.582 260.865 157.569 267.732Z" fill="url(#paint2_linear)"/>
<path d="M142.378 200.748C170.754 200.748 193.757 176.933 193.757 147.555C193.757 118.178 170.754 94.3633 142.378 94.3633C114.003 94.3633 91 118.178 91 147.555C91 176.933 114.003 200.748 142.378 200.748Z" fill="#C2F4FF"/>
<path d="M142.52 92.9999C114.145 92.9999 91.1418 116.225 91.1418 144.874C91.1418 173.523 114.145 196.748 142.52 196.748C170.896 196.748 193.898 173.523 193.898 144.874C193.898 116.225 170.896 92.9999 142.52 92.9999Z" fill="url(#paint3_linear)"/>
<path d="M105.19 149.761C105.085 152.455 107.214 154.836 109.907 154.941C112.601 155.046 114.982 152.917 115.087 150.224C115.193 147.53 113.064 145.149 110.37 145.044C107.697 144.834 105.316 146.963 105.19 149.761Z" fill="#2968E5"/>
<path d="M105.222 149.178C105.159 151.663 107.016 153.773 109.585 153.962C112.069 154.025 114.179 152.167 114.368 149.599C114.431 147.114 112.574 145.005 110.005 144.816C107.52 144.752 105.39 146.714 105.222 149.178Z" fill="#2B3760"/>
<path d="M109.692 146.384C109.128 147.031 109.441 148.179 110.464 149.036C111.383 149.871 112.656 150.018 113.22 149.371C113.784 148.724 113.471 147.575 112.449 146.719C111.426 145.862 110.256 145.737 109.692 146.384Z" fill="#364D98"/>
<path d="M111.112 146.887C110.966 147.074 111.091 147.534 111.446 147.931C111.822 148.223 112.24 148.307 112.49 148.14C112.657 147.848 112.511 147.493 112.156 147.096C111.781 146.803 111.259 146.699 111.112 146.887Z" fill="#C3D8F8"/>
<path d="M111.696 150.475C112.301 150.705 112.823 151.352 112.385 151.916C111.695 152.646 110.735 153.106 109.67 153.001C107.728 152.937 106.121 151.204 106.288 149.283C106.351 148.427 106.602 147.717 107.145 147.174C107.584 146.611 108.44 147.216 108.732 147.926C108.94 148.511 109.462 149.159 110.026 149.597C110.485 150.015 111.07 150.349 111.696 150.475Z" fill="#1B244A"/>
<path d="M165.438 163.136C165.333 165.829 167.462 168.21 170.155 168.316C172.849 168.421 175.23 166.292 175.335 163.598C175.441 160.905 173.312 158.524 170.618 158.418C167.945 158.209 165.564 160.338 165.438 163.136Z" fill="#2968E5"/>
<path d="M165.285 162.576C165.221 165.061 167.079 167.17 169.647 167.359C172.132 167.422 174.241 165.565 174.43 162.996C174.494 160.512 172.636 158.402 170.068 158.213C167.583 158.15 165.452 160.112 165.285 162.576Z" fill="#2B3760"/>
<path d="M169.753 159.779C169.189 160.427 169.502 161.575 170.525 162.432C171.443 163.267 172.717 163.414 173.281 162.767C173.845 162.119 173.532 160.971 172.509 160.114C171.486 159.258 170.317 159.132 169.753 159.779Z" fill="#364D98"/>
<path d="M171.173 160.28C171.027 160.468 171.152 160.928 171.507 161.324C171.882 161.617 172.3 161.7 172.551 161.534C172.718 161.241 172.572 160.886 172.217 160.489C171.841 160.197 171.319 160.092 171.173 160.28Z" fill="#C3D8F8"/>
<path d="M171.757 163.871C172.362 164.101 172.884 164.748 172.445 165.312C171.756 166.042 170.795 166.501 169.73 166.397C167.788 166.333 166.181 164.6 166.349 162.679C166.412 161.822 166.663 161.113 167.206 160.57C167.644 160.006 168.5 160.612 168.792 161.322C169.001 161.907 169.523 162.554 170.086 162.993C170.546 163.411 171.13 163.745 171.757 163.871Z" fill="#1B244A"/>
<path d="M102.331 208.155C102.325 204.285 105.458 201.143 109.328 201.137L191.676 201.011C195.546 201.005 198.688 204.137 198.694 208.008L198.778 262.385C198.784 266.255 195.651 269.397 191.781 269.403L109.433 269.529C105.562 269.535 102.42 266.403 102.414 262.532L102.331 208.155Z" fill="white"/>
<path d="M102.331 210.962C102.325 207.092 105.458 203.949 109.328 203.943L191.676 203.817C195.546 203.811 198.688 206.944 198.694 210.814L198.778 265.191C198.784 269.062 195.651 272.204 191.781 272.21L109.433 272.336C105.562 272.342 102.42 269.209 102.414 265.339L102.331 210.962Z" fill="#B0D3F3"/>
<path d="M117.643 244.621C115.093 249.047 116.003 256.819 116.594 261.64C116.767 262.84 117.057 264.721 117.256 265.9C118.555 274.606 121.239 278.194 118.926 286.946C116.614 295.698 139.848 306.727 142.981 296.11C149.853 286.946 148.82 276.507 147.678 269.718C147.45 268.361 147.198 267.19 147.142 266.044C146.724 261.435 149.968 253.376 151.091 251.181C152.213 248.986 148.802 247.325 147.566 248.788C146.33 250.25 142.913 257.222 142.397 261.334C142.28 262.268 140.368 261.644 140.344 260.922C140.435 255.428 143.079 249.559 144.252 247.165C145.426 244.771 141.121 241.843 138.766 245.064C136.41 248.286 134.761 252.632 133.893 259.547C133.776 260.482 131.667 260.684 131.634 259.351C131.035 253.011 132.315 247.385 133.699 243.709C135.083 240.034 130.552 239.068 128.639 240.867C125.474 244.808 124.168 253.052 124.665 258.62C124.893 259.978 122.996 260.232 122.571 258.85C121.667 254.939 121.949 249.371 122.52 246.054C123.008 243.581 119.178 242.416 117.643 244.621Z" fill="#108CFF"/>
<path d="M47.9069 351.092C92.2803 362.89 136.814 312.646 142.625 301.553C148.436 290.46 124.08 280.073 118.926 286.373C50.2533 363.675 30.0573 299.025 69.7264 269.681C79.7807 262.244 73.1327 210.972 63.9434 217.646C63.9434 227.382 60.3813 236.102 52.3441 243.991C14.8653 280.778 7.57877 340.37 47.9069 351.092Z" fill="url(#paint4_linear)"/>
<defs>
<linearGradient id="paint0_linear" x1="148.515" y1="0.0131" x2="148.515" y2="402.863" gradientUnits="userSpaceOnUse">
<stop stop-color="#95F2FF"/>
<stop offset="1" stop-color="#82E1FE"/>
</linearGradient>
<linearGradient id="paint1_linear" x1="155.764" y1="58.999" x2="155.764" y2="403.21" gradientUnits="userSpaceOnUse">
<stop stop-color="white"/>
<stop offset="1" stop-color="#AFE7FF"/>
</linearGradient>
<linearGradient id="paint2_linear" x1="204.949" y1="214.292" x2="191.458" y2="310.249" gradientUnits="userSpaceOnUse">
<stop stop-color="#D4F2FF"/>
<stop offset="0.348958" stop-color="#D4F2FF"/>
<stop offset="1" stop-color="#E5F7FF"/>
</linearGradient>
<linearGradient id="paint3_linear" x1="169.994" y1="194" x2="164.899" y2="100.531" gradientUnits="userSpaceOnUse">
<stop stop-color="#38A0FF"/>
<stop offset="1" stop-color="#1381E6"/>
</linearGradient>
<linearGradient id="paint4_linear" x1="66.8071" y1="232.537" x2="142.98" y2="308.71" gradientUnits="userSpaceOnUse">
<stop stop-color="#D4F2FF"/>
<stop offset="0.348958" stop-color="#D4F2FF"/>
<stop offset="1" stop-color="#E5F7FF"/>
</linearGradient>
</defs>
</svg>
