<svg width="402" height="356" viewBox="0 0 402 356" fill="none" xmlns="http://www.w3.org/2000/svg">
<path d="M271.507 29.1058C278.824 30.8233 281.319 40.0122 275.785 45.1392L249.277 69.7322C244.661 73.9897 237.274 72.6875 234.475 67.0377L217.084 32.1392C213.549 25.0387 219.849 16.9217 227.698 18.7729L271.507 29.1058Z" fill="#108CFF"/>
<rect x="0.000976562" y="43.7861" width="401.581" height="296.791" rx="96" fill="#E3EEFE"/>
<path d="M17.4964 319.264C15.7303 320.323 13.4385 319.693 12.8394 317.73C11.9476 314.675 11.7887 311.35 12.6959 308.179C13.9433 303.818 16.8129 300.048 20.8047 297.734C24.7966 295.42 29.4509 294.758 33.8614 295.919C37.0827 296.74 39.8906 298.476 42.0387 300.756C43.4707 302.275 42.8403 304.567 40.9877 305.576C39.2217 306.635 36.9798 305.918 35.3978 304.658C34.3719 303.835 33.1961 303.271 31.8703 302.968C29.3552 302.324 26.6866 302.746 24.3741 303.952C22.0983 305.293 20.4019 307.432 19.7581 309.947C19.3679 311.223 19.2875 312.562 19.4803 313.828C19.8428 316 19.2124 318.292 17.4964 319.264Z" fill="#FFAB49"/>
<path d="M386.108 326.5C396.222 320.685 396.222 306.104 386.192 300.288L352.311 280.482C342.702 274.835 330.481 281.156 329.554 292.281L325.93 333.748C324.835 345.969 337.983 354.313 348.602 348.245L386.108 326.5Z" fill="#FFCA62"/>
<path d="M98.1494 111.406C98.1494 109.398 99.7771 107.771 101.785 107.771H299.797C301.805 107.771 303.433 109.398 303.433 111.406V223.85C303.433 225.857 301.805 227.485 299.797 227.485H101.785C99.7771 227.485 98.1494 225.857 98.1494 223.85V111.406Z" fill="#F2F6FE"/>
<rect x="101.874" y="113.472" width="197.835" height="108.312" rx="0.363557" fill="#57AEFF"/>
<path d="M213.788 184.183H174.01C168.702 184.183 164.398 188.486 164.398 193.795V202.131C164.398 207.439 168.702 211.743 174.01 211.743L319.375 211.743C324.684 211.743 328.987 216.046 328.987 221.355V240.549C328.987 245.858 324.684 250.161 319.375 250.161H163.335" stroke="white" stroke-width="3.84476" stroke-linecap="round" stroke-linejoin="round"/>
<path d="M79.6729 265.571C79.6729 268.206 81.8087 270.342 84.4433 270.342H317.139C319.774 270.342 321.91 268.206 321.91 265.571V264.389H79.6729V265.571Z" fill="#D8E3F5"/>
<path d="M176.181 264.448C176.181 266.555 177.889 268.276 179.997 268.276H221.585C223.692 268.276 225.401 266.555 225.401 264.448H176.181Z" fill="#C4D1E8"/>
<path d="M79.6816 264.425H321.901L305.191 231.003C304.113 228.848 301.91 227.486 299.5 227.486H102.082C99.6718 227.486 97.4687 228.848 96.391 231.003L79.6816 264.425Z" fill="#FCFCFE"/>
<path d="M111.616 233.122C110.962 233.122 110.37 233.512 110.112 234.114L104.355 247.562C103.892 248.641 104.684 249.842 105.858 249.842H295.724C296.875 249.842 297.667 248.683 297.247 247.61L291.99 234.162C291.745 233.535 291.14 233.122 290.467 233.122H111.616Z" fill="#C4D1E8"/>
<path d="M111.616 233.122C110.962 233.122 110.37 233.512 110.112 234.114L104.355 247.562C103.892 248.641 104.684 249.842 105.858 249.842H295.724C296.875 249.842 297.667 248.683 297.247 247.61L291.99 234.162C291.745 233.535 291.14 233.122 290.467 233.122H111.616Z" stroke="#FF0000"/>
<path d="M220.275 191.408L220.275 177.077L208.034 177.077C206.617 177.077 205.468 178.226 205.468 179.643L205.468 188.842C205.468 190.259 206.617 191.408 208.034 191.408L220.275 191.408Z" fill="white"/>
<path fill-rule="evenodd" clip-rule="evenodd" d="M222.852 167.694C221.349 167.694 220.132 168.912 220.132 170.414V198.07C220.132 199.572 221.349 200.789 222.852 200.789H326.456C327.959 200.789 329.176 199.572 329.176 198.07V170.414C329.176 168.912 327.959 167.694 326.456 167.694H222.852ZM311.851 193.636C316.811 193.636 320.831 189.616 320.831 184.656C320.831 179.697 316.811 175.676 311.851 175.676C306.892 175.676 302.871 179.697 302.871 184.656C302.871 189.616 306.892 193.636 311.851 193.636Z" fill="#F0F5FE"/>
<path fill-rule="evenodd" clip-rule="evenodd" d="M299.276 172.121C292.525 178.871 292.525 189.816 299.276 196.567C306.026 203.317 316.971 203.317 323.721 196.567L393.938 126.35C394.94 125.348 394.94 123.723 393.938 122.721L373.121 101.905C372.119 100.902 370.494 100.902 369.492 101.905L299.276 172.121ZM318.105 191.023C321.612 187.516 321.612 181.83 318.105 178.323C314.598 174.817 308.912 174.817 305.406 178.323C301.899 181.83 301.899 187.516 305.406 191.023C308.912 194.53 314.598 194.53 318.105 191.023Z" fill="white"/>
<rect x="237.019" y="175.281" width="51.7023" height="17.9203" rx="2.81375" fill="#87C5FF"/>
<path d="M200.794 166.393L198.137 161.636L203.45 161.636L200.794 166.393Z" fill="#17E1D5"/>
<path d="M200.792 162.018C211.734 162.018 220.792 153.147 220.792 142.205C220.792 131.263 211.734 122.393 200.792 122.393C189.85 122.393 180.792 131.263 180.792 142.205C180.792 153.147 189.85 162.018 200.792 162.018Z" fill="#17E1D5"/>
<path fill-rule="evenodd" clip-rule="evenodd" d="M210.529 135.783C211.021 136.28 210.997 137.063 210.477 137.533L197.894 148.885L191.818 143.081C191.312 142.597 191.312 141.813 191.818 141.329C192.324 140.846 193.145 140.846 193.651 141.329L197.946 145.432L208.697 135.733C209.217 135.263 210.037 135.285 210.529 135.783Z" fill="white"/>
</svg>
