<svg width="671" height="721" viewBox="0 0 671 721" fill="none" xmlns="http://www.w3.org/2000/svg">
<rect width="227" height="125" rx="30" transform="matrix(1 -8.74228e-08 -8.74228e-08 -1 64.3608 545)" fill="#FF6D57"/>
<mask id="mask0" mask-type="alpha" maskUnits="userSpaceOnUse" x="64" y="420" width="228" height="125">
<path d="M261.361 420C277.929 420 291.361 433.431 291.361 450L291.361 515C291.361 531.569 277.929 545 261.361 545L94.3609 545C77.7923 545 64.3609 531.569 64.3609 515L64.3609 450C64.3609 433.431 77.7923 420 94.3609 420L261.361 420Z" fill="white"/>
</mask>
<g mask="url(#mask0)">
<rect width="94.3963" height="124.77" rx="14" transform="matrix(-0.677672 0.735365 -0.940373 -0.340144 306.838 552.228)" fill="#FFC5AC" fill-opacity="0.1"/>
<rect width="85.9898" height="107.331" rx="16" transform="matrix(-0.677672 0.735365 -0.940373 -0.340144 369.636 463.044)" fill="#FFC5AC" fill-opacity="0.1"/>
<rect width="108.127" height="134.963" rx="16" transform="matrix(-0.677672 0.735365 -0.940373 -0.340144 154.418 492.15)" fill="#FFC5AC" fill-opacity="0.1"/>
<rect width="61.8381" height="77.1855" rx="16" transform="matrix(-0.677672 0.735365 -0.940373 -0.340144 214.114 410.141)" fill="#FFC5AC" fill-opacity="0.1"/>
</g>
<rect width="158" height="157" rx="78.5" transform="matrix(1 -8.74228e-08 -8.74228e-08 -1 93.3608 230)" fill="#FFDF77"/>
<path opacity="0.3" d="M178.551 454.231C232.668 454.231 276.511 446.194 276.511 436.262C276.511 426.33 232.668 418.293 178.551 418.293C124.434 418.293 80.5909 426.33 80.5909 436.262C80.5909 446.194 124.434 454.231 178.551 454.231Z" fill="url(#paint0_linear)"/>
<path d="M333.361 515C333.361 531.569 346.792 545 363.361 545L670.361 545L670.361 -2.94615e-05L333.361 0L333.361 515Z" fill="url(#paint1_linear)"/>
<mask id="mask1" mask-type="alpha" maskUnits="userSpaceOnUse" x="333" y="0" width="338" height="545">
<path d="M640.361 3.68912e-06C656.929 1.65167e-06 670.361 13.4315 670.361 30L670.361 515C670.361 531.568 656.93 545 640.361 545L363.361 545C346.792 545 333.361 531.569 333.361 515L333.361 30.0001C333.361 13.4315 346.792 3.97894e-05 363.361 3.7752e-05L640.361 3.68912e-06Z" fill="white"/>
</mask>
<g mask="url(#mask1)">
<path d="M326.656 433.077L409.26 433.077C410.365 433.077 411.26 433.972 411.26 435.077L411.26 493.571C411.26 494.676 412.156 495.571 413.26 495.571L479.764 495.571C480.868 495.571 481.764 496.466 481.764 497.571L481.764 552.11C481.764 553.215 482.659 554.11 483.764 554.11L552.911 554.11C554.016 554.11 554.911 555.006 554.911 556.11L554.911 616.604" stroke="#DBE7F9" stroke-opacity="0.5" stroke-width="20"/>
<path d="M233.239 502.69L315.843 502.69C316.948 502.69 317.843 503.586 317.843 504.69L317.843 563.185C317.843 564.289 318.739 565.185 319.843 565.185L386.347 565.185C387.451 565.185 388.347 566.08 388.347 567.185L388.347 621.724C388.347 622.828 389.242 623.724 390.347 623.724L459.494 623.724C460.599 623.724 461.494 624.619 461.494 625.724L461.494 686.218" stroke="#DBE7F9" stroke-opacity="0.5" stroke-width="20"/>
<path d="M326.656 284.355L409.26 284.355C410.365 284.355 411.26 285.25 411.26 286.355L411.26 344.849C411.26 345.954 412.156 346.849 413.26 346.849L479.764 346.849C480.868 346.849 481.764 347.745 481.764 348.849L481.764 403.388C481.764 404.493 482.659 405.388 483.764 405.388L552.911 405.388C554.016 405.388 554.911 406.284 554.911 407.388L554.911 465.883C554.911 466.987 555.807 467.883 556.911 467.883L614.602 467.883C615.707 467.883 616.602 468.778 616.602 469.883L616.602 513.347C616.602 514.451 617.498 515.347 618.602 515.347L691.512 515.347" stroke="#DBE7F9" stroke-opacity="0.5" stroke-width="20"/>
<path d="M326.656 132.471L409.26 132.471C410.365 132.471 411.26 133.367 411.26 134.471L411.26 192.966C411.26 194.07 412.156 194.966 413.26 194.966L479.764 194.966C480.868 194.966 481.764 195.861 481.764 196.966L481.764 251.505C481.764 252.609 482.659 253.505 483.764 253.505L552.911 253.505C554.016 253.505 554.911 254.4 554.911 255.505L554.911 313.999C554.911 315.104 555.807 315.999 556.911 315.999L619.89 315.999C620.995 315.999 621.89 316.894 621.89 317.999L621.89 378.867C621.89 379.971 622.785 380.867 623.89 380.867L682.699 380.867" stroke="#DBE7F9" stroke-opacity="0.5" stroke-width="20"/>
<path d="M340.756 -6.75635L423.361 -6.75635C424.465 -6.75635 425.361 -5.86092 425.361 -4.75635L425.361 53.738C425.361 54.8426 426.256 55.738 427.361 55.738L493.864 55.738C494.969 55.738 495.864 56.6335 495.864 57.738L495.864 112.277C495.864 113.382 496.76 114.277 497.864 114.277L567.012 114.277C568.117 114.277 569.012 115.172 569.012 116.277L569.012 174.771C569.012 175.876 569.907 176.771 571.012 176.771L633.99 176.771C635.095 176.771 635.99 177.667 635.99 178.771L635.99 239.639C635.99 240.744 636.886 241.639 637.99 241.639L696.8 241.639" stroke="#DBE7F9" stroke-opacity="0.5" stroke-width="20"/>
<g filter="url(#filter0_f)">
<path fill-rule="evenodd" clip-rule="evenodd" d="M393.894 299.796C383.61 290.771 367.957 273.838 358.735 248.396C349.668 223.341 335.001 239.528 342.359 256.17C347.717 268.288 363.4 294.979 382.74 313.856C381.934 315.276 381.178 316.754 380.48 318.295C373.474 333.769 376.585 358.432 399.038 374.207C393.37 384.192 389.426 391.39 384.132 405.534C374.134 403.672 366.557 410.364 363.179 419.418C362.247 421.437 359.237 428.168 356.392 436.81C350.665 436.421 345.391 437.777 344.079 445.132C343.364 449.117 346.685 452.768 351.609 455.68C351.272 457.723 351.004 459.77 350.825 461.794C349.022 482.188 354.819 495.745 363.793 496.532C371.488 497.207 383.543 492.654 389.606 484.134C395.016 488.674 401.618 492.15 408.948 494.609C406.469 516.469 408.755 555.002 409.057 559.273C409.248 561.983 406.189 563.858 402.938 565.849C399.071 568.219 394.934 570.753 395.679 575.058C396.862 581.761 413.103 579.242 420.592 576.228C428.082 573.215 426.005 563.903 426.005 563.903C426.005 563.903 425.688 560.84 423.649 530.542C422.629 515.26 423.826 505.457 425.353 498.305C434.113 499.434 443.338 499.416 452.442 498.307C450.218 517.31 453.187 550.472 454.139 561.105C454.269 562.55 454.361 563.579 454.398 564.1C454.589 566.806 451.209 569.088 447.606 571.522C443.307 574.424 438.69 577.542 439.436 581.852C440.626 588.657 457.118 583.96 464.608 580.946C472.097 577.932 471.346 568.73 471.346 568.73C471.346 568.73 471.028 565.667 468.989 535.369C467.478 512.711 469.269 502.212 470.987 494.452C498.116 486.327 520.097 467.87 518.965 440.804C517.98 414.844 503.934 396.237 487.956 383.105C510.611 373.884 517.725 357.27 517.725 357.27C517.725 357.27 535.053 325.666 504.709 297.838C495.871 289.706 488.169 284.714 481.677 280.505C470.971 273.565 463.555 268.758 459.761 255.522C458.227 245.842 442.102 246.865 439.837 254.065C437.573 261.266 433.723 271.425 425.341 277.59C422.735 279.51 419.665 281.443 416.348 283.512L415.681 283.927L415.681 283.927C408.768 288.237 400.866 293.164 393.894 299.796ZM368.285 461.706C371.11 462.243 373.751 462.507 375.918 462.449C376.687 465.594 377.79 468.527 379.19 471.251C376.874 473.722 373.6 476.459 371.033 475.639C368.424 474.829 367.7 469.066 368.285 461.706Z" fill="#BACEED"/>
</g>
</g>
<path d="M421.932 304.417C421.932 304.417 391.201 285.742 376.599 246.047C367.532 221.359 352.865 237.309 360.223 253.707C367.581 270.105 394.414 313.586 423.45 327.011L421.831 304.425L421.932 304.417Z" fill="#2B84FD"/>
<path d="M419.405 303.461C419.405 303.461 392.738 286.163 378.71 253.931C371.693 234.825 367.569 251.993 373.263 264.683C378.957 277.373 392.235 303.133 414.706 313.523L419.405 303.461Z" fill="url(#paint2_linear)"/>
<path opacity="0.35" d="M410.519 295.584C410.519 295.584 402.029 298.574 397.031 306.868C400.394 310.683 407.493 316.869 412.003 320.292L417.535 301.283C414.661 299.278 413.167 297.89 410.519 295.584Z" fill="#1A4FAB"/>
<path d="M366.237 254.19C365.639 255.753 362.78 255.451 360.007 254.94C348.519 253.027 347.029 245.355 349.697 242.605C348.705 242.053 347.054 239.253 349.595 236.937C349.595 236.937 347.677 234.378 350.434 231.675C350.434 231.675 347.812 227.989 351.515 225.55C354.899 223.28 363.125 223.501 363.132 226.44C363.133 229.277 360.555 228.651 360.555 228.651C360.555 228.651 362.327 229.335 361.981 231.59C361.636 233.844 359.281 233.506 359.281 233.506C359.281 233.506 362.53 234.996 362.192 237.351C361.854 239.707 359.65 240.067 359.65 240.067C359.65 240.067 363.893 241.284 365.341 243.105C367.783 246.072 366.43 249.818 362.432 247.773C359.594 246.355 359.018 248.221 359.595 249.193C360.748 251.137 367.525 250.955 366.237 254.19Z" fill="#2B84FD"/>
<path d="M348.127 225.477C348.127 225.477 355.549 223.152 359.787 230.702C361.42 233.934 362.209 237.736 361.617 241.435C360.22 250.153 350.184 265.067 350.184 265.067L347.294 258.852L354.449 245.714C354.449 245.714 358.902 237.864 356.608 231.445C356.472 231.076 356.32 230.749 356.169 230.423C353.622 225.102 348.127 225.477 348.127 225.477Z" fill="#BDCEE7"/>
<path fill-rule="evenodd" clip-rule="evenodd" d="M360.767 230.18L360.778 230.201C362.499 233.607 363.347 237.645 362.713 241.61C361.98 246.184 359.026 252.248 356.346 257.059C354.993 259.49 353.684 261.644 352.714 263.19C352.229 263.963 351.828 264.585 351.548 265.015C351.408 265.23 351.298 265.397 351.223 265.51C351.185 265.567 351.156 265.61 351.136 265.64L351.114 265.674L351.108 265.682L351.106 265.685C351.106 265.685 351.105 265.686 350.185 265.066C350.185 265.066 350.45 264.672 350.9 263.974C353.22 260.38 360.447 248.734 361.617 241.435C362.209 237.735 361.42 233.933 359.788 230.702C357.706 226.994 354.858 225.668 352.497 225.278C350.05 224.874 348.127 225.476 348.127 225.476C347.796 224.417 347.796 224.417 347.797 224.417L347.798 224.417L347.801 224.416L347.81 224.413L347.836 224.405C347.856 224.399 347.884 224.391 347.918 224.382C347.987 224.363 348.084 224.338 348.205 224.31C348.446 224.254 348.788 224.186 349.209 224.131C350.047 224.021 351.216 223.96 352.535 224.161C355.214 224.568 358.448 226.048 360.755 230.159L360.767 230.18ZM352.17 226.35C350.064 225.344 348.127 225.476 348.127 225.476L347.796 224.417L338.843 227.222L348.198 226.584C348.198 226.584 348.198 226.584 348.199 226.584C348.2 226.584 348.2 226.584 348.201 226.584L348.229 226.582C348.257 226.581 348.304 226.58 348.367 226.58C348.494 226.58 348.687 226.585 348.93 226.606C349.417 226.649 350.094 226.754 350.838 227.005C352.309 227.502 354.048 228.565 355.165 230.896C355.317 231.222 355.448 231.506 355.565 231.823C356.592 234.701 356.127 237.99 355.326 240.668C354.93 241.99 354.465 243.124 354.099 243.925C353.917 244.325 353.76 244.641 353.65 244.854C353.595 244.96 353.552 245.041 353.523 245.094C353.509 245.12 353.498 245.139 353.491 245.151L353.484 245.164L353.484 245.165L353.479 245.174L346.053 258.812L350.008 267.317L351.105 265.686L350.185 265.066L347.295 258.852L354.449 245.713C354.449 245.713 358.903 237.864 356.608 231.445C356.472 231.075 356.321 230.748 356.169 230.422C355.134 228.26 353.612 227.038 352.17 226.35Z" fill="#D0DAF2"/>
<path d="M348.194 225.459C352.568 225.589 354.843 228.089 355.838 229.786C356.834 231.482 358.409 229.467 360.126 231.858C358.453 227.138 352.897 224.406 348.194 225.459Z" fill="#7D91BB"/>
<path d="M352.121 249.93L347.295 258.851L350.185 265.065C350.185 265.065 352.203 262.23 355.439 256.346C352.385 256.522 351.873 251.461 352.121 249.93Z" fill="#A4B8DF"/>
<path d="M337.09 235.034C337.09 235.034 339.735 230.17 345.214 226.714C350.693 223.257 357.109 225.725 359.77 230.665C359.77 230.665 349.929 213.801 334.659 229.805L337.09 235.034Z" fill="#D0DAF2"/>
<path fill-rule="evenodd" clip-rule="evenodd" d="M337.081 235.354C336.96 235.35 336.852 235.278 336.801 235.169L334.369 229.94C334.314 229.821 334.337 229.68 334.428 229.585C338.275 225.552 341.807 223.562 344.957 222.876C348.11 222.188 350.847 222.813 353.086 223.949C355.207 225.024 356.882 226.557 358.053 227.865C358.842 228.635 359.52 229.527 360.052 230.514C360.134 230.667 361.026 233.238 360.874 233.323C359.987 231.6 359.031 229.955 357.753 228.491C357.696 228.425 357.638 228.359 357.578 228.293C354.495 225.304 349.644 224.297 345.384 226.985C342.682 228.69 340.676 230.743 339.345 232.373C338.68 233.187 338.185 233.893 337.857 234.395C337.693 234.646 337.571 234.846 337.49 234.982C337.449 235.05 337.419 235.102 337.4 235.137C337.39 235.154 337.383 235.167 337.378 235.175L337.373 235.185L337.372 235.187L337.371 235.187C337.314 235.293 337.201 235.357 337.081 235.354ZM337.287 234.699C337.156 234.914 337.091 235.034 337.091 235.034L334.659 229.805C344.272 219.731 351.733 222.681 355.942 226.25C356.664 226.862 357.291 227.493 357.816 228.079C357.193 227.472 356.499 226.945 355.753 226.509C352.695 224.721 348.758 224.478 345.214 226.714C340.595 229.628 337.991 233.541 337.287 234.699Z" fill="#DCE4F6"/>
<path d="M345.214 226.714C350.693 223.257 357.109 225.724 359.77 230.665C359.77 230.665 352.235 218.032 340.66 224.926C335.172 228.885 339.96 230.028 345.214 226.714Z" fill="url(#paint3_linear)"/>
<path d="M289.361 250.161C288.472 248.249 288.551 245.995 289.59 244.167C291.434 241.021 296.11 236.229 307.793 230.797C319.476 225.364 326.109 224.859 329.747 225.493C331.845 225.862 333.575 227.238 334.478 229.18L354.949 273.2C354.949 273.2 360.865 281.86 336.753 293.073C312.641 304.286 309.832 294.181 309.832 294.181L289.361 250.161Z" fill="url(#paint4_radial)"/>
<path fill-rule="evenodd" clip-rule="evenodd" d="M329.391 269.305C338.349 265.14 338.659 246.815 330.085 228.376C329.952 228.09 329.818 227.806 329.682 227.524C331.248 228.083 332.528 229.279 333.261 230.854L352.579 272.397C352.579 272.397 358.202 280.72 335.843 291.117C313.484 301.514 310.743 291.852 310.743 291.852L291.425 250.309C290.572 248.476 290.619 246.33 291.567 244.6C292.345 243.223 293.685 241.518 295.972 239.584C296.486 240.873 297.045 242.166 297.646 243.46C306.221 261.9 320.434 273.471 329.391 269.305Z" fill="url(#paint5_linear)"/>
<path d="M313.985 244.113C325.118 238.936 332.883 232.031 331.33 228.69C329.776 225.349 319.492 226.837 308.359 232.014C297.226 237.191 289.461 244.096 291.015 247.437C292.568 250.778 302.853 249.29 313.985 244.113Z" fill="url(#paint6_linear)"/>
<path fill-rule="evenodd" clip-rule="evenodd" d="M328.935 237.424C325.588 240.4 320.66 243.533 314.95 246.189C309.24 248.844 303.668 250.594 299.235 251.235C297.034 251.554 294.979 251.619 293.28 251.307C291.652 251.008 289.796 250.244 288.94 248.403C288.084 246.563 288.696 244.651 289.516 243.214C290.372 241.713 291.747 240.184 293.409 238.706C296.756 235.729 301.684 232.596 307.394 229.941C313.104 227.285 318.676 225.536 323.109 224.895C325.31 224.576 327.365 224.51 329.064 224.823C330.692 225.122 332.548 225.886 333.404 227.726C334.26 229.567 333.648 231.478 332.828 232.916C331.972 234.417 330.597 235.946 328.935 237.424ZM331.33 228.691C332.883 232.032 325.118 238.937 313.985 244.114C302.853 249.291 292.568 250.78 291.014 247.439C289.461 244.098 297.226 237.192 308.359 232.015C319.492 226.838 329.776 225.35 331.33 228.691Z" fill="url(#paint7_radial)"/>
<path fill-rule="evenodd" clip-rule="evenodd" d="M328.935 237.424C325.588 240.4 320.66 243.533 314.95 246.189C309.24 248.844 303.668 250.594 299.235 251.235C297.034 251.554 294.979 251.619 293.28 251.307C291.652 251.008 289.796 250.244 288.94 248.403C288.084 246.563 288.696 244.651 289.516 243.214C290.372 241.713 291.747 240.184 293.409 238.706C296.756 235.729 301.684 232.596 307.394 229.941C313.104 227.285 318.676 225.536 323.109 224.895C325.31 224.576 327.365 224.51 329.064 224.823C330.692 225.122 332.548 225.886 333.404 227.726C334.26 229.567 333.648 231.478 332.828 232.916C331.972 234.417 330.597 235.946 328.935 237.424ZM331.33 228.691C332.883 232.032 325.118 238.937 313.985 244.114C302.853 249.291 292.568 250.78 291.014 247.439C289.461 244.098 297.226 237.192 308.359 232.015C319.492 226.838 329.776 225.35 331.33 228.691Z" fill="url(#paint8_radial)"/>
<path d="M308.55 231.926C308.002 233.597 307.993 235.149 308.613 236.483C310.109 239.699 314.933 240.937 321.21 240.243C319.14 241.508 316.836 242.744 314.363 243.894C303.342 249.019 293.153 250.473 291.604 247.142C290.064 243.832 297.639 237.041 308.55 231.926Z" fill="url(#paint9_linear)"/>
<path fill-rule="evenodd" clip-rule="evenodd" d="M308.154 232.11C307.595 233.789 307.582 235.348 308.204 236.686C309.705 239.912 314.568 241.142 320.903 240.428C318.811 241.704 316.483 242.952 313.985 244.114C302.852 249.291 292.568 250.779 291.014 247.438C289.47 244.117 297.131 237.276 308.154 232.11Z" fill="url(#paint10_radial)"/>
<path d="M301.875 269.101C300.071 269.94 301.354 272.904 298.372 273.056C295.434 273.223 263.201 265.645 259.732 264.75C255.503 263.634 255.724 256.409 254.092 252.552C252.46 248.696 244.607 281.645 247.632 279.573C250.657 277.5 255.001 272.002 259.866 273.01C268.074 274.717 307.237 287.259 310.779 288.327C314.321 289.395 313.941 285.09 310.364 277.399C306.787 269.707 303.679 268.262 301.875 269.101Z" fill="#CDD8F0"/>
<path d="M254.244 266.659C256.068 258.619 255.201 251.57 252.308 250.914C249.415 250.258 245.592 256.243 243.768 264.283C241.944 272.322 242.811 279.372 245.704 280.028C248.597 280.684 252.42 274.699 254.244 266.659Z" fill="#BECAE7"/>
<path fill-rule="evenodd" clip-rule="evenodd" d="M253.254 252.956C252.864 252.209 252.452 251.91 252.1 251.831C251.749 251.751 251.248 251.843 250.573 252.348C249.903 252.85 249.168 253.687 248.43 254.843C246.956 257.15 245.579 260.548 244.685 264.491C243.791 268.433 243.567 272.093 243.9 274.809C244.068 276.172 244.37 277.244 244.758 277.986C245.148 278.733 245.56 279.031 245.912 279.111C246.263 279.191 246.764 279.099 247.439 278.594C248.109 278.092 248.844 277.255 249.583 276.098C251.056 273.792 252.433 270.394 253.327 266.451C254.222 262.509 254.446 258.848 254.112 256.132C253.944 254.77 253.643 253.698 253.254 252.956ZM252.308 250.914C255.201 251.57 256.068 258.619 254.244 266.659C252.42 274.699 248.597 280.684 245.704 280.028C242.811 279.372 241.944 272.322 243.768 264.283C245.592 256.243 249.415 250.258 252.308 250.914Z" fill="url(#paint11_radial)"/>
<path d="M250.138 264.07C251.321 258.859 251.167 254.381 249.796 254.07C248.425 253.759 246.355 257.732 245.173 262.944C243.99 268.156 244.144 272.633 245.515 272.944C246.886 273.255 248.956 269.282 250.138 264.07Z" fill="url(#paint12_radial)"/>
<path d="M248.509 262.029C248.699 261.814 248.828 261.935 248.81 262.287C248.793 262.639 248.626 263.097 248.436 263.312C248.246 263.526 248.118 263.405 248.135 263.053C248.152 262.701 248.319 262.244 248.509 262.029Z" fill="#697DA7"/>
<path d="M249.956 262.026C250.146 261.811 250.274 261.932 250.257 262.284C250.24 262.636 250.073 263.094 249.883 263.309C249.693 263.524 249.564 263.402 249.582 263.05C249.614 262.692 249.781 262.234 249.956 262.026Z" fill="#697DA7"/>
<path d="M247.498 267.911C247.687 267.696 247.816 267.817 247.799 268.169C247.781 268.521 247.614 268.979 247.424 269.193C247.235 269.408 247.106 269.287 247.123 268.935C247.156 268.576 247.323 268.119 247.498 267.911Z" fill="#697DA7"/>
<path d="M246.937 271.483C247.126 271.268 247.255 271.389 247.238 271.741C247.22 272.093 247.053 272.551 246.863 272.766C246.674 272.981 246.545 272.859 246.562 272.507C246.595 272.149 246.762 271.691 246.937 271.483Z" fill="#697DA7"/>
<path d="M245.564 268.628C245.754 268.413 245.883 268.535 245.865 268.887C245.848 269.238 245.681 269.696 245.491 269.911C245.301 270.126 245.173 270.005 245.19 269.653C245.222 269.294 245.389 268.836 245.564 268.628Z" fill="#697DA7"/>
<path d="M246.268 262.631C246.458 262.416 246.586 262.537 246.569 262.889C246.552 263.241 246.385 263.699 246.195 263.914C246.005 264.129 245.877 264.008 245.894 263.656C245.926 263.297 246.093 262.839 246.268 262.631Z" fill="#697DA7"/>
<path d="M251.181 259.978C251.37 259.764 251.499 259.885 251.482 260.237C251.464 260.589 251.297 261.046 251.108 261.261C250.918 261.476 250.789 261.355 250.806 261.003C250.839 260.644 251.006 260.186 251.181 259.978Z" fill="#697DA7"/>
<path d="M245.499 265.757C245.688 265.542 245.817 265.663 245.8 266.015C245.782 266.367 245.615 266.825 245.425 267.04C245.236 267.255 245.107 267.133 245.124 266.781C245.157 266.423 245.324 265.965 245.499 265.757Z" fill="#697DA7"/>
<path d="M248.095 259.832C248.285 259.617 248.413 259.738 248.396 260.09C248.379 260.442 248.212 260.9 248.022 261.115C247.832 261.33 247.704 261.209 247.721 260.857C247.753 260.498 247.92 260.04 248.095 259.832Z" fill="#697DA7"/>
<path d="M250.307 257.761C250.496 257.546 250.625 257.667 250.608 258.019C250.59 258.371 250.423 258.829 250.234 259.044C250.044 259.259 249.915 259.138 249.932 258.786C249.965 258.427 250.132 257.969 250.307 257.761Z" fill="#697DA7"/>
<path d="M252.134 262.444C252.324 262.229 252.452 262.35 252.435 262.702C252.418 263.054 252.25 263.512 252.061 263.727C251.871 263.942 251.742 263.821 251.76 263.469C251.792 263.11 251.959 262.652 252.134 262.444Z" fill="#697DA7"/>
<path d="M251.169 266.93C251.358 266.715 251.487 266.836 251.47 267.188C251.452 267.54 251.285 267.998 251.096 268.212C250.906 268.427 250.777 268.306 250.795 267.954C250.827 267.595 250.994 267.138 251.169 266.93Z" fill="#697DA7"/>
<path d="M249.275 270.757C249.465 270.542 249.594 270.663 249.576 271.015C249.559 271.367 249.392 271.825 249.202 272.04C249.012 272.255 248.884 272.134 248.901 271.782C248.933 271.423 249.1 270.965 249.275 270.757Z" fill="#697DA7"/>
<path d="M248.96 267.901C249.149 267.686 249.278 267.807 249.261 268.159C249.243 268.511 249.076 268.969 248.887 269.184C248.697 269.399 248.568 269.277 248.586 268.925C248.603 268.574 248.77 268.116 248.96 267.901Z" fill="#697DA7"/>
<path d="M247.382 264.779C247.571 264.564 247.7 264.685 247.683 265.037C247.665 265.389 247.498 265.847 247.308 266.062C247.119 266.277 246.99 266.156 247.007 265.804C247.04 265.445 247.207 264.987 247.382 264.779Z" fill="#697DA7"/>
<path d="M250.378 264.762C250.567 264.547 250.696 264.668 250.679 265.02C250.661 265.372 250.494 265.83 250.305 266.044C250.115 266.259 249.986 266.138 250.004 265.786C250.036 265.427 250.203 264.97 250.378 264.762Z" fill="#697DA7"/>
<path d="M248.843 264.769C249.032 264.554 249.161 264.675 249.144 265.027C249.126 265.379 248.959 265.837 248.769 266.052C248.58 266.267 248.451 266.146 248.468 265.794C248.486 265.442 248.653 264.984 248.843 264.769Z" fill="#697DA7"/>
<path opacity="0.63" d="M259.134 271.843C260.63 271.906 307.617 286.56 311.445 287.613C313.337 288.2 311.724 282.12 311.133 281.99C309.985 281.739 263.891 270.541 261.082 269.723C257.689 268.734 254.427 270.911 252.721 274.006C252.61 274.209 252.491 274.419 252.363 274.637C255.726 271.859 257.637 271.78 259.134 271.843Z" fill="url(#paint13_linear)"/>
<g style="mix-blend-mode:multiply" opacity="0.5">
<path d="M366.021 247.956C363.807 251.855 359.669 244.856 351.909 247.783C348.382 240.762 354.941 228.113 364.993 233.339C368.516 235.17 367.711 239.049 365.393 239.195C367.024 241.142 366.776 243.387 364.6 244.38C365.03 245.058 366.492 247.126 366.021 247.956Z" fill="#1D67EF"/>
</g>
<path d="M363.338 231.694C367.336 233.738 368.79 229.985 366.247 227.026C364.698 225.211 363.012 224.318 360.556 223.988C358.1 223.657 353.49 222.974 350.589 226.324C347.694 229.775 351.526 232.338 353.687 231.372C358.994 229.066 360.5 230.275 363.338 231.694Z" fill="url(#paint14_linear)"/>
<path fill-rule="evenodd" clip-rule="evenodd" d="M365.47 226.204C366.425 228.182 364.975 230.032 361.935 228.729C361.729 228.642 361.531 228.557 361.338 228.474C359.118 227.519 357.606 226.868 353.128 228.57C352.031 228.999 350.475 228.588 349.76 227.674C349.926 227.244 350.195 226.792 350.589 226.323C353.444 223.027 357.953 223.636 360.437 223.971C360.477 223.976 360.517 223.982 360.556 223.987C362.609 224.263 364.124 224.932 365.47 226.204Z" fill="url(#paint15_linear)"/>
<path d="M362.748 237.595C366.746 239.64 368.2 235.887 365.657 232.927C364.108 231.113 362.422 230.22 359.966 229.89C357.51 229.559 352.9 228.876 349.999 232.226C347.104 235.676 350.937 238.24 353.097 237.274C358.405 234.968 359.91 236.177 362.748 237.595Z" fill="url(#paint16_linear)"/>
<path opacity="0.76" fill-rule="evenodd" clip-rule="evenodd" d="M366.841 235.212C366.053 235.73 364.684 235.769 362.916 234.93C362.684 234.822 362.46 234.715 362.242 234.612C359.737 233.42 358.032 232.608 352.555 233.805C351.525 234.039 350.236 233.753 349.359 233.163C349.518 232.86 349.729 232.547 349.998 232.226C352.854 228.929 357.363 229.538 359.847 229.874C359.887 229.879 359.927 229.884 359.966 229.89C362.422 230.22 364.108 231.113 365.657 232.928C366.298 233.674 366.685 234.47 366.841 235.212Z" fill="url(#paint17_linear)"/>
<path d="M362.058 242.554C366.056 244.599 367.51 240.846 364.967 237.886C363.418 236.072 361.732 235.179 359.276 234.849C356.82 234.518 352.21 233.835 349.308 237.185C346.414 240.635 350.246 243.198 352.407 242.233C357.714 239.927 359.22 241.136 362.058 242.554Z" fill="url(#paint18_linear)"/>
<path fill-rule="evenodd" clip-rule="evenodd" d="M363.673 236.961C365.571 239.065 364.079 241.425 360.902 239.824L360.858 239.802C358.627 238.7 357.363 238.076 352.799 239.228C351.259 239.631 348.955 238.396 349.672 236.795C352.307 234.165 356.112 234.442 358.557 234.753C358.703 234.78 358.842 234.806 358.974 234.831C359.008 234.837 359.04 234.843 359.072 234.849C361.094 235.227 362.518 235.671 363.673 236.961Z" fill="url(#paint19_linear)"/>
<path d="M362.446 247.974C366.444 250.018 367.898 246.266 365.355 243.306C363.806 241.491 362.12 240.599 359.664 240.268C357.208 239.937 352.598 239.254 349.697 242.604C347.167 245.904 349.731 248.839 351.892 247.874C357.199 245.567 359.608 246.556 362.446 247.974Z" fill="url(#paint20_linear)"/>
<path fill-rule="evenodd" clip-rule="evenodd" d="M365.821 243.922C366.222 245.443 364.666 246.571 361.983 245.378C359.52 244.305 357.414 243.533 352.45 244.718C350.869 245.108 349.237 243.951 349.806 242.481C352.666 239.323 357.093 239.921 359.545 240.252C359.586 240.257 359.625 240.263 359.664 240.268C362.12 240.599 363.806 241.491 365.355 243.306C365.529 243.508 365.684 243.715 365.821 243.922Z" fill="url(#paint21_linear)"/>
<g style="mix-blend-mode:multiply" opacity="0.38">
<path d="M367.927 235.968C367.387 235.5 366.8 235.624 366.641 236.244C365.853 240.652 364.522 241.857 362.159 241.419C356.836 240.486 359.122 224.37 365.657 225.27C370.879 226.011 369.962 230.355 372.982 238.551C374.114 241.611 370.312 238.128 367.927 235.968Z" fill="#1D6DDA"/>
</g>
<path d="M367.535 235.043C366.994 234.575 366.209 234.935 366.051 235.554C365.447 238.436 364.511 240.935 362.149 240.496C358.454 239.849 359.698 231.753 359.698 231.753C359.698 231.753 360.848 223.765 366.171 224.499C371.393 225.239 372.519 235.293 375.539 243.489C376.67 246.55 369.919 237.203 367.535 235.043Z" fill="url(#paint22_linear)"/>
<path d="M359.86 230.99C360.539 227.51 362.422 224.554 365.133 224.461C367.844 224.369 368.137 227.478 365.908 228.717C361.899 230.946 361.405 234.312 360.68 238.45C360.472 239.638 358.978 235.507 359.86 230.99Z" fill="url(#paint23_linear)"/>
<path d="M489.528 485.542C487.672 493.58 485.139 503.492 486.853 528.807C488.892 558.661 489.21 561.678 489.21 561.678C489.21 561.678 489.961 570.746 482.471 573.715C474.982 576.685 458.489 581.313 457.299 574.608C455.929 566.801 472.68 562.965 472.261 557.117C471.936 552.579 467.286 508.927 470.81 488.81C473.845 471.768 491.384 477.504 489.528 485.542Z" fill="#4BE0D7"/>
<path d="M446.204 480.641C444.348 488.68 439.799 498.735 441.512 524.051C443.551 553.905 443.869 556.922 443.869 556.922C443.869 556.922 445.946 566.098 438.456 569.067C430.966 572.036 414.725 574.518 413.543 567.914C412.172 560.107 427.34 558.209 426.92 552.36C426.595 547.823 423.962 504.026 427.486 483.909C430.521 466.867 448.06 472.603 446.204 480.641Z" fill="#4BE0D7"/>
<path d="M487.721 494.234C487.721 494.234 479.01 497.131 469.798 498.42C469.99 495.122 470.107 493.421 470.587 489.941L489.377 486.171C488.543 489.773 488.262 490.981 487.721 494.234Z" fill="#25CCD7"/>
<path d="M381.334 413.943C381.334 413.943 370.491 436.217 368.688 456.312C366.886 476.407 372.682 489.765 381.657 490.541C390.631 491.316 405.537 485.084 409.95 473.818L399.948 462.185C399.948 462.185 393.355 471.358 388.897 469.954C382.99 468.148 386.743 441.325 393.481 427.87C396.475 421.574 383.328 407.821 381.334 413.943Z" fill="#4BE0D7"/>
<path d="M371.627 454.763C373.071 436.99 377.549 424.573 381.334 413.942C381.334 413.942 370.49 436.215 368.688 456.311C366.885 476.406 372.682 489.763 381.656 490.539C388.522 491.132 398.859 487.624 405.314 480.898C398.844 486.662 389.529 489.619 383.182 489.07C374.208 488.295 370.182 472.535 371.627 454.763Z" fill="url(#paint24_linear)"/>
<path d="M442.01 499.141C438.526 498.802 432.115 498.011 426.167 496.155C426.382 493.33 426.454 490.862 426.961 487.9L444.124 488.392C443.175 492.358 442.595 494.977 442.01 499.141Z" fill="#25CCD7"/>
<path d="M399.957 462.195C402.276 464.768 406.699 469.996 409.919 473.838C408.68 477.436 405.269 481.532 402.208 483.666C398.84 480.496 394.645 476.062 391.995 469.553C394.528 468.611 398.011 464.828 399.957 462.195Z" fill="#25CCD7"/>
<path d="M523.537 429.895C533.565 441.136 537.855 457.145 538.721 464.989C539.84 474.942 542.108 496.671 526.657 491.799C515.255 488.258 509.109 452.01 507.233 439.983C505.365 428.056 513.501 418.554 523.537 429.895Z" fill="#4BE0D7"/>
<path d="M464.089 354.698C460.229 352.948 455.618 353.076 451.732 355.077C434.973 363.982 390.77 404.143 392.553 448.204C395.364 516.211 539.687 502.925 536.828 435.631C534.891 385.297 482.378 363.015 464.089 354.698Z" fill="#4BE0D7"/>
<path fill-rule="evenodd" clip-rule="evenodd" d="M533.4 435.776L533.399 435.763C532.481 411.909 519.613 394.586 504.408 382.057C490.022 370.202 473.831 362.874 464.311 358.566C463.739 358.308 463.192 358.06 462.671 357.823C459.794 356.519 456.294 356.595 453.322 358.119C445.454 362.305 430.584 374.208 417.901 390.56C405.207 406.926 395.138 427.191 395.982 448.064C396.625 463.607 405.258 474.538 418.276 481.353C431.421 488.234 448.933 490.812 466.511 489.237C484.077 487.663 501.301 481.976 513.859 472.78C526.353 463.63 534.054 451.182 533.4 435.776ZM392.553 448.204C390.77 404.143 434.973 363.982 451.732 355.077C455.618 353.076 460.229 352.948 464.089 354.698C464.618 354.939 465.176 355.191 465.76 355.455C485.373 364.327 534.947 386.753 536.828 435.631C539.687 502.925 395.364 516.211 392.553 448.204Z" fill="url(#paint25_linear)"/>
<path opacity="0.5" d="M422.091 420.186C420.989 441.087 443.982 452.275 472.221 456.347C494.102 459.488 523.837 454.41 525.051 430.796C526.265 407.182 511.418 392.936 483.18 388.865C447.832 383.74 423.084 399.267 422.091 420.186Z" fill="#26F3E7"/>
<path fill-rule="evenodd" clip-rule="evenodd" d="M508.501 399.543C511.362 397.075 515.682 397.394 518.149 400.255C522.957 405.83 525.265 410.657 527.833 416.369C529.382 419.815 527.844 423.864 524.398 425.413C520.952 426.962 516.903 425.424 515.354 421.978C512.914 416.549 511.257 413.213 507.788 409.19C505.321 406.329 505.64 402.01 508.501 399.543Z" fill="url(#paint26_linear)"/>
<path d="M486.406 485.968C501.064 480.455 496.874 456.134 482.459 457.493C452.437 461.766 416.342 471.063 412.379 434.177C411.824 425.217 412.608 413.42 415.191 406.224C419.001 397.961 414.247 388.518 399.571 418.764C395.485 427.951 393.337 438.401 394.568 450.145C398.26 486.764 448.315 497.328 486.406 485.968Z" fill="#25CCD7"/>
<path opacity="0.56" d="M495.118 447.612C494.425 467.805 473.043 475.213 447.355 475.166C427.477 475.122 401.138 465.995 401.854 443.283C402.57 420.571 423.63 411.508 449.318 411.555C481.424 411.561 495.709 427.427 495.118 447.612Z" fill="#17FBEE"/>
<path d="M496.05 446.46C495.32 465.971 474.046 473.172 448.507 473.179C428.743 473.177 402.575 464.411 403.332 442.465C404.09 420.519 425.047 411.72 450.586 411.713C482.507 411.654 496.678 426.956 496.05 446.46Z" fill="#1749A1"/>
<path opacity="0.67" d="M424.839 433.904C416.793 420.621 404.073 430.827 404.702 444.153C406.933 466.169 433.424 471.77 454.78 471.707C465.109 471.674 481.234 467.69 489.992 457.931C491.764 455.358 488.936 455.671 487.894 455.962C453.666 464.123 437.989 454.236 424.839 433.904Z" fill="#173D7E"/>
<path opacity="0.5" d="M428.386 427.452C428.144 436.915 441.233 442.403 457.134 444.757C469.456 446.575 486.032 444.805 486.289 434.114C486.545 423.422 477.968 416.692 462.066 414.338C442.161 411.378 428.567 417.979 428.386 427.452Z" fill="#1C58C0"/>
<path d="M459.948 438.022C458.861 434.569 460.779 430.888 464.233 429.802C467.686 428.715 471.366 430.633 472.453 434.087C473.54 437.54 471.621 441.22 468.168 442.307C464.715 443.394 461.034 441.475 459.948 438.022Z" fill="#03316E"/>
<path d="M465.429 441.475C462.149 440.94 459.924 437.847 460.459 434.566C460.994 431.286 464.087 429.061 467.367 429.596C470.647 430.132 472.872 433.225 472.337 436.505C471.802 439.785 468.709 442.01 465.429 441.475Z" fill="#C1C6E5"/>
<path d="M467.283 435.013C466.159 433.789 465.92 432.179 466.75 431.416C467.58 430.653 469.164 431.025 470.289 432.249C471.414 433.472 471.653 435.082 470.823 435.845C469.993 436.609 468.408 436.236 467.283 435.013Z" fill="#B1B9ED"/>
<path d="M468.778 433.82C468.336 433.339 468.226 432.722 468.532 432.44C468.837 432.159 469.443 432.321 469.885 432.801C470.327 433.282 470.438 433.899 470.132 434.181C469.826 434.462 469.22 434.3 468.778 433.82Z" fill="#F1F3FC"/>
<path d="M469.449 437.481C470 437.657 470.36 438.17 469.962 438.63C468.975 439.886 467.298 440.545 465.553 440.239C462.934 439.78 461.257 437.422 461.608 434.811C461.83 433.395 462.718 432.254 463.743 431.534C464.264 431.281 464.838 431.779 464.885 432.422C464.961 433.494 465.589 434.741 466.524 435.752C467.443 436.548 468.461 437.229 469.449 437.481Z" fill="#ADB1CE"/>
<g style="mix-blend-mode:multiply">
<path fill-rule="evenodd" clip-rule="evenodd" d="M509.538 381.924C494.099 368.275 475.914 360.049 465.76 355.455C465.176 355.191 464.618 354.939 464.089 354.698C460.229 352.948 455.618 353.076 451.732 355.077C434.973 363.982 390.77 404.143 392.553 448.204C392.729 452.456 393.458 456.39 394.669 460.013C395.824 459.958 396.836 459.811 397.661 459.565C397.795 459.507 397.932 459.471 398.059 459.437C398.209 459.397 398.345 459.36 398.45 459.296C401.873 458.041 402.891 454.608 403.942 451.063C404.1 450.531 404.259 449.996 404.426 449.465C404.948 447.84 405.479 446.135 406.057 444.278L406.058 444.277C408.336 436.962 411.349 427.287 417.42 410.844C420.547 402.411 424.51 394.454 429.06 386.764C430.962 383.552 434.886 382.249 438.481 383.252C444.331 384.885 450.839 386.108 458.052 386.828C468.598 387.881 477.786 387.623 485.768 386.481C488 386.161 489.893 388.239 489.273 390.406C483.83 409.433 479.182 428.781 478.162 448.611C478.063 450.535 476.853 452.11 474.95 451.806C474.009 451.656 472.934 451.422 471.775 451.169C464.837 449.656 454.878 447.485 452.527 458.786C452.198 469.755 478.331 477.104 487.516 475.516C493.311 474.139 493.47 466.195 493.441 463.103C493.267 449.839 499.998 421.797 505.946 397.019C507.202 391.785 508.424 386.696 509.538 381.924Z" fill="#25CCD7"/>
</g>
<g style="mix-blend-mode:multiply">
<path d="M385.98 459.226C386.173 452.699 387.673 444.249 389.957 436.89C388.3 437.197 385.64 436.698 382.607 436.13C379.635 435.573 376.304 434.949 373.208 434.95C371.459 440.595 369.888 446.855 369.057 453.035C373.751 455.932 380.19 458.117 385.98 459.226Z" fill="#25CCD7"/>
</g>
<path d="M413.317 439.326C412.231 435.873 414.149 432.192 417.602 431.106C421.056 430.019 424.736 431.937 425.823 435.391C426.91 438.844 424.991 442.525 421.538 443.611C418.085 444.698 414.404 442.78 413.317 439.326Z" fill="#03316E"/>
<path d="M418.841 442.868C415.56 442.333 413.335 439.24 413.87 435.96C414.406 432.68 417.499 430.455 420.779 430.99C424.059 431.525 426.284 434.618 425.749 437.898C425.214 441.178 422.121 443.404 418.841 442.868Z" fill="#C1C6E5"/>
<path d="M420.691 436.413C419.566 435.19 419.327 433.58 420.157 432.817C420.987 432.053 422.572 432.426 423.697 433.649C424.821 434.873 425.06 436.483 424.23 437.246C423.4 438.01 421.816 437.637 420.691 436.413Z" fill="#B1B9ED"/>
<path d="M422.186 435.22C421.744 434.74 421.633 434.122 421.939 433.841C422.245 433.56 422.851 433.722 423.293 434.202C423.735 434.683 423.845 435.3 423.539 435.581C423.234 435.863 422.628 435.701 422.186 435.22Z" fill="#F1F3FC"/>
<path d="M422.862 438.869C423.413 439.045 423.773 439.558 423.375 440.017C422.388 441.273 420.711 441.932 418.965 441.626C416.347 441.168 414.67 438.81 415.021 436.199C415.243 434.783 416.13 433.642 417.156 432.922C417.677 432.669 418.251 433.166 418.297 433.81C418.374 434.881 419.002 436.129 419.937 437.14C420.856 437.936 421.874 438.617 422.862 438.869Z" fill="#ADB1CE"/>
<path d="M442.76 447.463C442.76 447.463 439.15 449.901 436.388 451.36C428.875 455.339 426.264 444.517 432.294 442.25C435.334 441.458 438.593 440.537 438.593 440.537C440.737 440.039 442.953 440.568 443.785 442.573C444.845 444.561 444.178 446.444 442.76 447.463Z" fill="#03316E"/>
<path d="M442.105 447.667C442.105 447.667 437.68 448.998 434.762 449.225C426.583 450.196 427.439 439.981 434.051 439.299C436.007 439.076 438.807 439.382 440.628 439.859C442.449 440.336 444.752 441.399 444.907 443.566C445.055 445.62 443.678 447.21 442.105 447.667Z" fill="#FE896D"/>
<path opacity="0.55" fill-rule="evenodd" clip-rule="evenodd" d="M435.73 448.368C438.945 447.923 443.022 447.259 443.022 447.259C443.023 447.259 443.024 447.259 443.025 447.259C442.721 447.444 442.397 447.587 442.067 447.681C442.067 447.681 438.08 448.93 434.763 449.224C427.704 450.11 427.488 442.619 431.439 440.235C428.375 443.001 429.146 449.279 435.73 448.368Z" fill="#FF644E"/>
<path opacity="0.7" d="M441.718 444.63C438.311 445.286 434.653 445.244 432.41 444.455C430.168 443.666 430.198 440.349 433.398 439.743C436.598 439.137 440.895 440.084 442.604 440.929C444.313 441.774 445.125 443.975 441.718 444.63Z" fill="#FF9D7C"/>
<path d="M532.698 320.085C532.698 320.085 547.975 322.537 561.67 335.44C575.365 348.343 572.913 363.62 559.452 365.294C531.429 368.824 536.097 344.874 545.474 345.621C553.736 346.346 543.01 340.933 529.9 336.197C516.791 331.461 520.734 317.192 532.698 320.085Z" fill="url(#paint27_linear)"/>
<path d="M512.773 376.941C506.421 404.451 495.93 443.88 496.148 460.396C496.176 463.488 496.017 471.433 490.222 472.809C481.037 474.397 454.905 467.048 455.233 456.079C457.977 442.89 471.083 448.051 477.656 449.1C479.559 449.403 480.769 447.829 480.868 445.904C482.258 418.882 489.54 396.15 494.155 380.201C498.948 363.642 514.636 369.003 512.773 376.941Z" fill="#2B84FD"/>
<g style="mix-blend-mode:multiply">
<path d="M481.116 430.379C479.172 431.532 476.766 429.069 479.653 425.518C479.343 425.439 475.288 424.006 480.818 419.151C478.902 419.288 476.568 416.415 479.743 414.059C479.938 413.944 480.5 413.295 480.305 413.41C477.669 414.816 476.408 412.778 476.365 412.173C476.221 411.575 476.466 410.747 477.301 409.673C477.675 409.241 483.094 404.322 493.473 405.668C503.852 407.013 509.876 409.424 522.712 464.849C518.662 473.667 513.021 477.849 508.177 480.469C498.321 454.643 500.193 445.032 498.193 438.906C496.192 432.781 491.328 427.055 481.116 430.379Z" fill="#25CCD7"/>
</g>
<path d="M481.007 430.308C479.063 431.461 476.657 428.998 479.544 425.447C479.234 425.368 475.179 423.936 480.709 419.08C478.793 419.217 476.459 416.344 479.634 413.988C479.829 413.873 480.39 413.224 480.196 413.34C477.56 414.745 476.299 412.707 476.256 412.102C476.112 411.504 476.356 410.676 477.192 409.602C477.566 409.17 478.236 408.615 479.301 407.931C480.274 407.354 481.541 406.655 482.823 406.158C495.455 401.401 508.729 408.846 512.783 421.457C515.955 431.77 501.565 442.326 499.807 436.113C497.762 430.072 489.346 425.048 481.007 430.308Z" fill="#4AF7EF"/>
<path opacity="0.55" d="M479.534 425.443C479.209 425.353 476.21 424.251 478.993 420.822C478.249 422.639 479.566 423.466 482.25 422.044C484.934 420.623 489.592 420.385 493.449 421.337C493.699 421.438 493.793 422.179 493.228 422.015C487.682 421.087 480.322 424.754 479.546 425.433C479.542 425.436 479.538 425.44 479.534 425.443Z" fill="#25CCD7"/>
<path opacity="0.55" d="M480.709 419.079C478.965 419.204 476.873 416.833 478.911 414.629C477.797 416.619 480.288 417.535 482.35 416.302C484.413 415.068 489.538 413.984 492.933 415.338C493.185 415.442 493.133 416.153 492.865 416.101C487.975 415.157 482.492 417.482 480.709 419.079C480.542 419.229 480.648 419.133 480.709 419.079Z" fill="#25CCD7"/>
<path opacity="0.55" d="M480.19 413.343C477.559 414.742 476.299 412.707 476.256 412.102C476.176 411.771 476.216 411.37 476.408 410.896C476.976 412.202 478.663 412.77 480.822 411.557C482.981 410.344 486.939 408.979 493.293 409.861C493.56 409.932 493.46 410.71 493.185 410.684C488.472 410.235 483.879 411.051 480.19 413.343Z" fill="#25CCD7"/>
<path d="M466.089 455.502C456.681 453.075 452.233 456.461 458.287 462.624C464.342 468.787 479.41 473.285 488.402 472.993C494.793 472.785 493.615 468.687 489.745 465.927C485.874 463.167 475.497 457.929 466.089 455.502Z" fill="#2572E1"/>
<path d="M493.199 429.2C493.199 429.2 500.182 431.399 501.093 441.497C502.494 453.964 504.97 463.556 507.176 471.709C509.383 479.861 517.483 499.551 529.827 496.436C542.171 493.321 539.71 471.707 538.829 465.082C537.949 458.456 532.653 476.47 527.22 467.13C521.786 457.79 519.487 434.403 511.634 418.502C503.781 402.601 489.263 418.131 493.199 429.2Z" fill="url(#paint28_linear)"/>
<path d="M433.019 378.121C428.548 385.029 423.719 391.375 417.313 408.05C409.461 428.579 406.539 438.522 403.869 446.517C402.538 450.565 401.732 454.88 397.779 456.278C397.584 456.393 397.282 456.415 396.987 456.538C388.445 458.974 359.979 450.677 361.943 439.895C364.992 423.055 389.428 438.134 391.256 432.53C403.562 393.54 408.171 385.153 417.25 369.408C423.807 353.431 442.861 362.72 433.019 378.121Z" fill="#2B84FD"/>
<path opacity="0.55" fill-rule="evenodd" clip-rule="evenodd" d="M478.879 426.395C477.094 429.42 479.241 431.356 481.007 430.309C487.459 426.24 493.956 428.326 497.514 432.276C492.735 423.708 483.706 426.657 481.577 428.256C479.435 429.865 478.013 428.25 478.981 426.263C478.946 426.307 478.912 426.351 478.879 426.395Z" fill="#25CCD7"/>
<path opacity="0.76" d="M496.531 407.437C497.764 411.991 497.513 419.755 494.395 426.757C494.193 427.211 494.323 427.753 494.721 428.05C507.49 437.612 517.392 437.053 513.072 422.25C511.166 415.721 506.138 408.739 497.947 405.908C497.09 405.612 496.294 406.561 496.531 407.437Z" fill="url(#paint29_linear)"/>
<path d="M372.523 439.723C363.23 437.403 358.891 440.825 364.927 446.905C370.964 452.986 385.856 457.311 394.706 456.926C400.996 456.652 399.787 452.579 395.942 449.867C392.097 447.156 381.816 442.044 372.523 439.723Z" fill="#2572E1"/>
<path d="M457.701 251.633C455.436 258.728 451.586 268.738 443.204 274.812C430.97 283.696 408.483 292.855 398.344 314.92C388.205 336.984 399.252 378.008 459.446 384.018C519.639 390.027 535.588 353.323 535.588 353.323C535.588 353.323 552.916 322.182 522.573 294.764C499.159 273.537 483.719 274.018 477.625 253.068C476.091 243.53 459.965 244.538 457.701 251.633Z" fill="#2B84FD"/>
<path d="M457.701 251.633C455.436 258.728 451.586 268.738 443.204 274.812C430.97 283.696 408.483 292.855 398.344 314.92C388.205 336.984 399.252 378.008 459.446 384.018C519.639 390.027 535.588 353.323 535.588 353.323C535.588 353.323 552.916 322.182 522.573 294.764C499.159 273.537 483.719 274.018 477.625 253.068C476.091 243.53 459.965 244.538 457.701 251.633Z" fill="#2B84FD"/>
<path fill-rule="evenodd" clip-rule="evenodd" d="M535.588 353.323C535.588 353.323 552.916 322.182 522.573 294.764C513.734 286.751 506.032 281.832 499.54 277.685C488.834 270.847 481.419 266.11 477.625 253.068C476.091 243.53 459.965 244.538 457.701 251.633C455.436 258.728 451.586 268.738 443.204 274.812C440.425 276.83 437.117 278.862 433.545 281.057C421.391 288.523 406.18 297.867 398.344 314.92C388.205 336.984 399.252 378.008 459.446 384.018C519.639 390.027 535.588 353.323 535.588 353.323ZM445.219 277.59C442.326 279.691 438.901 281.794 435.358 283.97C434.992 284.195 434.625 284.421 434.257 284.647C430.274 287.097 426.102 289.702 422.014 292.693C413.847 298.667 406.194 306.054 401.462 316.352C396.893 326.295 397.01 340.817 405.391 353.609C413.708 366.303 430.452 377.674 459.786 380.603C489.096 383.529 507.277 376.048 518.063 368.155C523.49 364.182 527.121 360.05 529.381 356.945C530.511 355.392 531.296 354.099 531.789 353.216C532.035 352.774 532.209 352.435 532.315 352.219C532.368 352.111 532.405 352.033 532.426 351.988C532.436 351.966 532.442 351.952 532.445 351.946C532.445 351.946 532.445 351.946 532.445 351.946L532.446 351.944L532.508 351.801L532.585 351.662L532.587 351.659L532.587 351.658L532.588 351.657L532.59 351.654L532.609 351.618C532.631 351.577 532.668 351.507 532.717 351.41C532.817 351.215 532.967 350.909 533.154 350.502C533.527 349.687 534.042 348.469 534.576 346.913C535.647 343.796 536.781 339.371 537.032 334.16C537.527 323.86 534.6 310.257 520.272 297.31L520.268 297.306C511.665 289.507 504.296 284.799 497.84 280.674C495.685 279.298 493.633 277.986 491.67 276.647C483.738 271.234 477.677 265.534 474.33 254.027L474.27 253.823L474.236 253.613C473.855 251.244 471.631 249.589 467.896 249.545C466.134 249.524 464.416 249.917 463.109 250.582C461.786 251.255 461.172 252.042 460.97 252.676C458.693 259.81 454.578 270.806 445.221 277.589" fill="url(#paint30_radial)"/>
<path opacity="0.25" d="M444.378 283.663C432.273 293.196 427.806 321.259 442.674 333.005C486.724 367.801 560.859 330.265 505.459 290.513C480.857 272.86 456.483 274.13 444.378 283.663Z" fill="#3FA3FF"/>
<path d="M401.127 324.894C406.071 309.471 424.066 313.6 432.834 334.381C441.602 355.162 465.184 358.138 481.525 359.748C498.737 362.154 522.218 354.461 531.45 351.265C531.45 351.265 516.461 385.758 459.894 380.111C419.89 376.117 391.072 355.64 401.127 324.894Z" fill="#2572E1"/>
<path fill-rule="evenodd" clip-rule="evenodd" d="M488.243 284.669C490.311 281.507 494.55 280.62 497.712 282.687C504.255 286.965 510.075 291.176 515.409 297.019C517.956 299.809 517.759 304.136 514.969 306.683C512.179 309.23 507.852 309.033 505.305 306.243C501.141 301.682 496.466 298.219 490.225 294.138C487.063 292.07 486.175 287.831 488.243 284.669Z" fill="url(#paint31_linear)"/>
<path d="M500.32 333.569C499.616 353.654 477.271 362.315 450.628 363.706C429.984 364.771 402.704 357.28 403.527 334.591C404.35 311.902 426.279 301.714 452.922 300.323C486.275 298.555 501.016 313.38 500.32 333.569Z" fill="#63A5FF"/>
<path d="M501.249 332.373C500.526 351.985 478.331 360.468 451.877 361.858C431.379 362.922 404.304 355.641 405.148 333.486C405.992 311.331 427.776 301.357 454.23 299.967C487.346 298.201 502.072 312.753 501.249 332.373Z" fill="url(#paint32_linear)"/>
<path opacity="0.25" d="M438.572 309.088C436.093 318.224 444.889 327.845 459.834 333.935C491.171 346.685 514.111 319.232 479.386 305.887C467.722 301.405 440.994 299.927 438.572 309.088Z" fill="white"/>
<path d="M407.453 426.258C409.362 427.439 411.818 424.932 408.929 421.389C410.871 421.097 412.365 417.762 407.891 415.061C410.941 414.943 411.892 411.379 408.464 409.261C411.101 410.693 412.375 408.676 412.433 408.064C412.591 407.444 412.331 406.652 411.546 405.594C411.207 405.111 410.458 404.557 409.5 403.916C408.542 403.275 407.281 402.656 406.021 402.037C393.509 397.157 384.047 405.133 380.564 415.923C374.953 433.991 390.172 435.897 392.269 429.414C393.901 424.197 399.061 420.88 407.453 426.258Z" fill="#4BE0D7"/>
<path fill-rule="evenodd" clip-rule="evenodd" d="M396.774 423.587C399.37 422.547 402.932 422.923 407.416 425.736C409.323 426.891 411.782 424.43 408.898 420.961C410.841 420.672 412.339 417.401 407.869 414.76C410.919 414.639 411.875 411.144 408.451 409.073C411.085 410.473 412.362 408.494 412.421 407.894C412.58 407.287 412.321 406.511 411.538 405.474C411.2 405.002 410.451 404.459 409.494 403.833C408.537 403.206 407.278 402.601 406.018 401.996C403.376 400.989 400.869 400.544 398.525 400.569C394.179 404.873 393.387 412.718 396.774 423.587Z" fill="url(#paint33_linear)"/>
<path opacity="0.72" d="M393.706 426.504C397.25 422.013 402.432 423.164 407.501 426.281C408.362 426.865 409.406 426.458 409.825 425.871C410.552 424.735 410.376 423.582 409.486 422.182C410.138 423.224 409.9 424.848 408.574 424.976C407.248 425.104 406.841 424.029 404.235 423.325C401.629 422.622 396.878 422.122 393.706 426.504Z" fill="#25CCD7"/>
<path opacity="0.72" d="M396.419 406.01C395.948 406.077 395.631 406.738 396.249 406.661C400.1 406.307 405.079 407.652 408.42 409.267C409.971 410.087 411.078 409.809 411.769 409.175C412.459 408.542 412.555 407.841 412.414 407.258C411.83 408.536 410.624 408.796 409.082 408.156C406.213 406.996 402.147 405.6 396.419 406.01Z" fill="#25CCD7"/>
<path opacity="0.72" d="M395.661 411.551C395.126 411.674 395.22 412.39 395.641 412.343C401.021 412.263 404.799 413.638 407.856 415.06C409.662 415.135 411.005 413.492 410.549 411.86C410.183 412.685 409.606 414.119 407.183 413.257C402.953 411.844 400.118 411.164 395.661 411.551Z" fill="#25CCD7"/>
<path opacity="0.72" d="M396.209 417.781C395.815 417.962 395.858 418.571 396.366 418.551C397.716 418.183 405.373 418.755 408.934 421.397C411.124 420.951 411.232 418.429 410.179 417.128C410.809 418.697 408.963 419.602 407.444 419.062C402.655 417.404 398.685 417.468 396.209 417.781Z" fill="#25CCD7"/>
<path opacity="0.71" d="M431.684 340.772C422.866 334.991 422.935 326.44 415.813 321.791C413.167 320.064 409.785 321.749 408.896 324.781C400.899 352.071 429.149 362.523 458.495 359.688C468.921 358.734 482.175 355.953 490.218 349.632C492.327 347.767 490.452 345.527 487.864 346.411C468.343 351.893 442.202 347.667 431.684 340.772Z" fill="#BDC1E3"/>
<path d="M462.276 327.897C461.172 324.776 463.035 321.27 466.438 320.065C469.841 318.86 473.495 320.414 474.6 323.535C475.705 326.656 473.841 330.163 470.438 331.367C467.035 332.572 463.381 331.018 462.276 327.897Z" fill="#BABEE1"/>
<path d="M468.251 331.015C465.068 330.61 462.816 327.702 463.221 324.519C463.625 321.336 466.533 319.084 469.716 319.488C472.899 319.893 475.152 322.801 474.747 325.984C474.343 329.167 471.434 331.419 468.251 331.015Z" fill="#1749A1"/>
<path d="M469.879 324.721C468.753 323.58 468.467 322.034 469.242 321.269C470.017 320.505 471.559 320.811 472.685 321.952C473.812 323.094 474.098 324.64 473.323 325.404C472.548 326.169 471.006 325.863 469.879 324.721Z" fill="#1C58C0"/>
<path d="M471.204 323.469C470.761 323.02 470.634 322.428 470.919 322.146C471.205 321.865 471.795 322 472.238 322.448C472.681 322.897 472.808 323.489 472.522 323.771C472.237 324.053 471.647 323.917 471.204 323.469Z" fill="#618BD7"/>
<path d="M472.041 326.999C472.566 327.065 472.921 327.664 472.64 328.1C471.687 329.312 470.172 329.941 468.494 329.749C465.973 329.41 464.251 327.141 464.487 324.628C464.701 323.261 465.447 322.063 466.437 321.368C466.932 321.021 467.494 321.605 467.531 322.122C467.709 323.149 468.204 324.258 469.21 325.226C470.112 326.201 471.088 326.755 472.041 326.999Z" fill="#173D7E"/>
<path d="M412.779 329.886C411.633 326.649 413.437 323.057 416.809 321.864C420.18 320.671 423.841 322.328 424.987 325.565C426.133 328.802 424.329 332.393 420.958 333.586C417.587 334.78 413.925 333.123 412.779 329.886Z" fill="#A9AED3"/>
<path d="M418.614 333.332C415.308 332.911 412.968 329.89 413.388 326.584C413.809 323.277 416.83 320.938 420.136 321.358C423.443 321.778 425.782 324.799 425.362 328.106C424.942 331.412 421.921 333.752 418.614 333.332Z" fill="#1749A1"/>
<path d="M420.267 326.85C419.096 325.664 418.8 324.059 419.605 323.264C420.409 322.47 422.011 322.788 423.181 323.974C424.352 325.16 424.648 326.765 423.843 327.56C423.038 328.354 421.437 328.036 420.267 326.85Z" fill="#1C58C0"/>
<path d="M421.72 325.472C421.26 325.006 421.127 324.391 421.424 324.099C421.72 323.806 422.334 323.947 422.793 324.413C423.253 324.879 423.386 325.494 423.089 325.786C422.793 326.079 422.179 325.938 421.72 325.472Z" fill="#618BD7"/>
<path d="M422.54 329.173C423.085 329.242 423.454 329.863 423.162 330.317C422.172 331.576 420.599 332.229 418.856 332.03C416.237 331.677 414.448 329.321 414.693 326.71C414.915 325.29 415.69 324.046 416.719 323.324C417.233 322.963 417.817 323.569 417.855 324.107C418.04 325.174 418.555 326.325 419.599 327.331C420.536 328.344 421.557 329.027 422.54 329.173Z" fill="#173D7E"/>
<path opacity="0.5" fill-rule="evenodd" clip-rule="evenodd" d="M538.086 347.24C537.994 347.244 537.901 347.251 537.804 347.261C520.883 343.612 500.183 347.366 495.03 348.958C489.878 350.551 485.254 352.799 482.402 355.436C480.12 357.526 482.101 361.133 484.514 359.44C486.825 357.754 491.664 354.57 494.379 354.274C495.388 354.201 495.43 355.206 494.529 355.372C490.957 356.439 487.625 358.511 485.965 361.04C484.306 363.569 486.683 365.909 488.31 364.337C489.938 362.765 492.998 360.454 497.175 359.343C498.076 359.177 498.22 360.093 497.73 360.33C493.967 362.006 490.85 364.271 489.78 366.461C488.711 368.651 491.65 370.27 492.937 368.64C494.224 367.011 497.442 365.061 500.353 364.082C500.85 363.945 501.179 364.466 500.588 364.711C498.248 365.994 494.701 368.391 494.067 370.869C493.772 372.41 496.113 372.798 496.955 371.825C502.393 365.548 517.703 364.089 526.655 365.338C533.168 358.893 535.588 353.323 535.588 353.323C535.588 353.323 536.843 351.069 538.086 347.24Z" fill="#1A4FAB"/>
<path d="M446.018 336.376C446.018 336.376 442.408 338.814 439.645 340.274C432.132 344.253 429.522 333.43 435.552 331.163C438.592 330.372 441.851 329.45 441.851 329.45C443.994 328.952 446.211 329.482 447.043 331.486C448.103 333.475 447.435 335.357 446.018 336.376Z" fill="#A9AED3"/>
<path d="M445.363 336.58C445.363 336.58 440.938 337.912 438.02 338.139C429.841 339.11 430.697 328.895 437.309 328.212C439.265 327.99 442.065 328.296 443.886 328.773C445.707 329.25 448.01 330.312 448.165 332.48C448.313 334.534 446.936 336.123 445.363 336.58Z" fill="#4BE0D7"/>
<path opacity="0.42" fill-rule="evenodd" clip-rule="evenodd" d="M438.988 337.281C442.203 336.837 446.28 336.173 446.28 336.173C446.281 336.172 446.282 336.172 446.283 336.172C445.979 336.358 445.655 336.501 445.324 336.595C445.324 336.595 441.337 337.844 438.02 338.138C430.962 339.024 430.746 331.533 434.697 329.149C431.633 331.915 432.404 338.192 438.988 337.281Z" fill="#1BB7AE"/>
<path d="M444.976 333.544C441.569 334.2 437.911 334.157 435.668 333.368C433.425 332.579 433.456 329.262 436.656 328.657C439.856 328.051 444.153 328.997 445.862 329.842C447.571 330.687 448.383 332.888 444.976 333.544Z" fill="#5BF0E7"/>
<path d="M480.742 354.519C483.593 351.882 488.217 349.634 493.37 348.041C498.522 346.448 507.439 345.207 512.776 344.723C520.977 343.859 525.459 362.832 519.493 363.056C511.739 363.347 500.751 364.609 495.295 370.908C494.453 371.88 492.112 371.493 492.407 369.951C493.04 367.474 496.587 365.076 498.928 363.794C499.518 363.549 499.189 363.027 498.693 363.164C495.781 364.144 492.564 366.094 491.277 367.723C489.99 369.352 487.051 367.734 488.12 365.544C489.189 363.354 492.307 361.089 496.07 359.413C496.559 359.175 496.415 358.26 495.515 358.426C491.338 359.536 488.278 361.848 486.65 363.42C485.022 364.992 482.646 362.652 484.305 360.123C485.965 357.594 489.297 355.521 492.869 354.454C493.769 354.289 493.727 353.284 492.719 353.356C490.004 353.652 485.165 356.837 482.853 358.523C480.441 360.216 478.459 356.608 480.742 354.519Z" fill="#4E99FF"/>
<path d="M498.069 368.416C496.799 369.124 495.638 369.968 494.626 370.97C494.356 371.237 493.966 371.376 493.561 371.401C494.185 371.518 494.903 371.36 495.295 370.907C496.107 369.969 497.041 369.144 498.069 368.416Z" fill="#3E8DF8"/>
<path d="M495.342 364.641C493.457 365.466 491.761 366.513 490.861 367.489C490.108 368.306 488.954 368.159 488.232 367.524C488.913 368.469 490.442 368.778 491.277 367.722C492.071 366.716 493.602 365.588 495.342 364.641Z" fill="#3E8DF8"/>
<path d="M493.036 359.264C490.142 360.249 487.919 361.734 486.576 362.846C485.328 363.88 483.85 362.884 483.789 361.355C483.419 363.323 485.294 364.728 486.65 363.418C487.937 362.176 490.117 360.473 493.036 359.264Z" fill="#3E8DF8"/>
<path d="M491.602 353.596C488.818 354.39 485.13 356.458 483.163 357.674C481.191 358.845 479.724 356.836 480.316 354.987C478.745 357.097 480.614 360.094 482.853 358.522C484.874 357.048 488.825 354.43 491.602 353.596Z" fill="#3E8DF8"/>
<path d="M493.999 352.753C492.358 352.776 490.383 353.45 487.995 354.618C485.608 355.785 484.617 352.483 485.709 351.633C486.516 351.006 490.932 348.943 493.151 348.708C494.503 348.565 495.085 352.737 493.999 352.753Z" fill="url(#paint34_linear)"/>
<path d="M496.759 357.895C495.118 357.918 493.142 358.592 490.755 359.76C488.368 360.927 487.377 357.625 488.469 356.775C489.276 356.148 493.692 354.085 495.911 353.85C497.263 353.707 497.845 357.879 496.759 357.895Z" fill="url(#paint35_linear)"/>
<path d="M500.623 362.539C498.984 362.621 497.034 363.366 494.691 364.619C492.347 365.871 491.122 362.941 492.111 361.974C493.32 360.791 497.234 359.097 499.443 358.783C500.789 358.591 501.708 362.484 500.623 362.539Z" fill="url(#paint36_linear)"/>
<path d="M502.015 365.886C500.978 366.484 499.528 367.2 497.878 368.216C496.227 369.231 494.953 366.973 495.63 366.225C496.458 365.311 499.232 363.905 500.827 363.578C501.798 363.379 502.772 365.45 502.015 365.886Z" fill="url(#paint37_linear)"/>
<path d="M509.632 345.019C519.132 344.003 531.113 343.205 552.238 346.657C573.263 350.116 572.408 361.605 561.796 364.843C551.183 368.081 532.166 360.54 510.482 363.886C494.714 366.64 500.132 346.034 509.632 345.019Z" fill="#4E99FF"/>
<path d="M180.94 444.545C229.778 444.545 269.343 438.667 269.343 431.404C269.343 424.141 229.778 418.263 180.94 418.263C132.103 418.263 92.5375 424.141 92.5375 431.404C92.5375 438.667 132.103 444.545 180.94 444.545Z" fill="#FC634F"/>
<path d="M268.149 434.648C259.23 440.317 223.877 444.545 181.6 444.545C139.124 444.545 103.636 440.277 94.9269 434.568C96.3057 431.805 102.721 429.255 109.444 428.34C113.73 427.591 117.499 427.591 120.308 428.34C122.229 426.091 125.998 424.649 130.21 423.899C134.94 423.149 139.669 423.496 142.477 424.995C149.572 421.65 164.204 419.458 181.201 419.458C198.641 419.458 213.79 422.054 220.367 425.745C223.693 423.899 228.422 423.149 233.595 423.899C237.807 424.649 241.576 426.495 243.498 428.34C246.38 427.994 250.149 427.591 254.361 428.34C261.429 429.311 265.882 432.007 268.149 434.648Z" fill="#A46A50"/>
<path d="M254.014 349.774C254.014 349.774 255.924 392.446 231.932 416.856C221.666 427.122 208.715 432.493 185.857 432.493L180.545 432.851C180.545 432.851 189.319 413.395 208.715 391.312C221.606 376.452 236.467 360.099 254.014 349.774Z" fill="url(#paint38_linear)"/>
<path d="M204.477 305.968C204.477 305.968 216.652 344.821 210.565 381.406C207.163 400.444 200.657 413.037 180.843 432.493C180.843 432.493 169.802 411.127 173.204 377.646C175.531 355.504 185.439 323.096 204.477 305.968Z" fill="url(#paint39_linear)"/>
<path d="M163.357 316.233C163.357 316.233 190.393 346.731 196.122 380.272C199.166 397.818 195.764 428.256 180.485 432.494C180.485 432.494 159.895 423.72 153.807 391.313C151.122 373.409 148.496 344.463 163.357 316.233Z" fill="url(#paint40_linear)"/>
<path d="M134.438 435.294C133.047 435.156 133.339 433.761 133.923 433.171C134.662 432.424 135.847 431.697 137.685 431.677C140.039 431.657 140.675 433.014 140.675 433.014C140.675 433.014 142.221 429.633 145.313 429.633C148.68 429.633 149.934 431.815 150.381 433.23C150.57 433.82 150.175 435.196 149.093 435.333C146.894 435.648 141.705 436.061 134.438 435.294Z" fill="#B4795F"/>
<path fill-rule="evenodd" clip-rule="evenodd" d="M134.23 435.269C133.078 435.018 133.37 433.737 133.923 433.178C134.661 432.431 135.847 431.704 137.685 431.684C139.589 431.669 140.369 432.553 140.597 432.892C140.21 432.396 139.514 431.824 138.365 431.828C136.527 431.848 135.166 432.671 134.427 433.417C133.978 433.871 133.702 434.801 134.23 435.269ZM140.682 433.005C140.801 432.756 142.344 429.64 145.313 429.64C146.71 429.64 147.743 430.016 148.506 430.556C147.781 430.13 146.845 429.849 145.637 429.849C142.976 429.827 141.007 433.601 141.007 433.601C141.007 433.601 140.914 433.333 140.682 433.005Z" fill="#E3AB96"/>
<path d="M230.797 342.194C230.797 342.194 232.707 381.823 217.488 408.858C210.267 422.167 197.674 432.075 180.545 432.492C180.545 432.492 170.638 414.588 185.141 387.91C192.66 374.183 210.207 352.459 230.797 342.194Z" fill="url(#paint41_linear)"/>
<path d="M112.269 327.692C112.269 327.692 141.632 359.682 156.493 383.316C170.578 405.816 180.903 432.494 180.903 432.494C180.903 432.494 146.586 438.581 126.414 406.174C116.447 390.537 106.957 361.234 112.269 327.692Z" fill="url(#paint42_linear)"/>
<path d="M144.676 360.098C144.676 360.098 139.722 392.088 153.091 414.588C158.821 424.137 169.862 432.134 181.261 432.492C181.261 432.492 188.124 421.451 182.813 403.905C177.799 390.536 165.206 371.915 144.676 360.098Z" fill="url(#paint43_linear)"/>
<path d="M161.587 436.924C161.587 439.386 157.885 440.344 153.317 440.344C148.75 440.344 145.048 439.386 145.048 436.924C145.048 434.461 148.75 431.558 153.317 431.558C157.885 431.558 161.587 434.461 161.587 436.924Z" fill="#E3AB96"/>
<path d="M161.588 437.314C161.588 439.507 160.091 440.345 153.999 440.345C148.019 440.345 146.41 439.507 146.41 437.314C146.41 435.122 149.808 432.538 153.999 432.538C158.19 432.538 161.588 435.122 161.588 437.314Z" fill="#B4795F"/>
<path d="M234.545 432.178C234.545 433.785 232.128 434.41 229.147 434.41C226.165 434.41 223.748 433.785 223.748 432.178C223.748 430.57 226.165 428.675 229.147 428.675C232.128 428.675 234.545 430.57 234.545 432.178Z" fill="#E3AB96"/>
<path d="M234.545 432.433C234.545 433.864 233.568 434.411 229.591 434.411C225.688 434.411 224.637 433.864 224.637 432.433C224.637 431.002 226.855 429.315 229.591 429.315C232.327 429.315 234.545 431.002 234.545 432.433Z" fill="#B4795F"/>
<path fill-rule="evenodd" clip-rule="evenodd" d="M233.861 263.519C233.877 264.624 232.994 265.529 231.892 265.615C231.373 265.656 230.828 265.71 230.258 265.778C229.162 265.91 228.134 265.177 227.955 264.087C227.777 262.996 228.516 261.963 229.612 261.828C230.387 261.732 231.129 261.659 231.835 261.608C232.937 261.529 233.845 262.415 233.861 263.519ZM216.472 267.139C216.848 268.178 216.31 269.322 215.283 269.727C213.049 270.608 210.736 271.649 208.381 272.869C207.4 273.377 206.184 273.028 205.65 272.061C205.117 271.094 205.467 269.875 206.447 269.366C208.996 268.041 211.5 266.915 213.919 265.965C214.948 265.561 216.095 266.101 216.472 267.139ZM195.71 278.572C196.383 279.448 196.216 280.702 195.358 281.397C193.447 282.944 191.55 284.628 189.686 286.46C188.898 287.234 187.634 287.257 186.84 286.488C186.046 285.72 186.024 284.452 186.811 283.677C188.817 281.701 190.861 279.886 192.921 278.223C193.78 277.529 195.037 277.696 195.71 278.572ZM179.198 295.592C180.092 296.242 180.287 297.491 179.658 298.4C179.315 298.895 178.975 299.397 178.638 299.906C178.028 300.827 176.796 301.108 175.861 300.519C174.927 299.93 174.644 298.694 175.253 297.773C175.639 297.188 176.029 296.613 176.423 296.046C177.052 295.139 178.305 294.942 179.198 295.592Z" fill="#79E5FE"/>
<path fill-rule="evenodd" clip-rule="evenodd" d="M232.021 272.453C232.505 273.446 232.091 274.641 231.112 275.153C228.985 276.265 226.796 277.545 224.582 279.008C223.661 279.618 222.415 279.4 221.782 278.495C221.149 277.59 221.368 276.34 222.288 275.73C224.683 274.142 227.054 272.757 229.358 271.556C230.338 271.046 231.536 271.461 232.021 272.453ZM212.587 286.022C213.349 286.822 213.316 288.086 212.536 288.868C210.8 290.609 209.093 292.485 207.433 294.504C206.732 295.357 205.477 295.514 204.606 294.834C203.736 294.154 203.579 292.895 204.28 292.041C206.065 289.863 207.905 287.843 209.777 285.971C210.558 285.19 211.826 285.222 212.587 286.022Z" fill="#79E5FE"/>
<path fill-rule="evenodd" clip-rule="evenodd" d="M233.436 253.489C233.4 254.593 232.475 255.455 231.37 255.45C228.97 255.437 226.436 255.543 223.795 255.801C222.696 255.908 221.697 255.132 221.561 254.036C221.425 252.94 222.203 251.938 223.302 251.83C226.161 251.548 228.905 251.433 231.503 251.45C232.608 251.458 233.473 252.385 233.436 253.489ZM209.912 256.386C210.211 257.449 209.591 258.551 208.535 258.877C206.186 259.603 203.8 260.461 201.388 261.469C200.369 261.895 199.187 261.446 198.736 260.438C198.284 259.43 198.735 258.244 199.754 257.817C202.351 256.728 204.922 255.803 207.453 255.025C208.509 254.7 209.614 255.322 209.912 256.386ZM188.258 266.049C188.845 266.984 188.562 268.217 187.641 268.826C187.139 269.158 186.637 269.498 186.134 269.845C185.226 270.474 183.977 270.277 183.328 269.383C182.679 268.489 182.877 267.236 183.785 266.607C184.36 266.208 184.936 265.819 185.512 265.439C186.434 264.83 187.67 265.114 188.258 266.049Z" fill="#79E5FE"/>
<defs>
<filter id="filter0_f" x="324.361" y="219.457" width="214.29" height="381.894" filterUnits="userSpaceOnUse" color-interpolation-filters="sRGB">
<feFlood flood-opacity="0" result="BackgroundImageFix"/>
<feBlend mode="normal" in="SourceGraphic" in2="BackgroundImageFix" result="shape"/>
<feGaussianBlur stdDeviation="8" result="effect1_foregroundBlur"/>
</filter>
<linearGradient id="paint0_linear" x1="178.551" y1="418.293" x2="178.551" y2="454.231" gradientUnits="userSpaceOnUse">
<stop stop-color="#FF7961"/>
<stop offset="1" stop-color="#FF9E7D"/>
</linearGradient>
<linearGradient id="paint1_linear" x1="501.861" y1="545" x2="501.861" y2="-1.47307e-05" gradientUnits="userSpaceOnUse">
<stop stop-color="#E1EAFF"/>
<stop offset="1" stop-color="#F0F5FF"/>
</linearGradient>
<linearGradient id="paint2_linear" x1="379.527" y1="258.655" x2="399.353" y2="306.174" gradientUnits="userSpaceOnUse">
<stop stop-color="#4192FF"/>
<stop offset="1" stop-color="#4192FF" stop-opacity="0"/>
</linearGradient>
<linearGradient id="paint3_linear" x1="335.147" y1="227.77" x2="357.529" y2="227.692" gradientUnits="userSpaceOnUse">
<stop stop-color="#CFD9EF"/>
<stop offset="1" stop-color="#C3D0E4" stop-opacity="0"/>
</linearGradient>
<radialGradient id="paint4_radial" cx="0" cy="0" r="1" gradientUnits="userSpaceOnUse" gradientTransform="translate(311.488 238.742) rotate(-24.9397) scale(51.7018 44.2377)">
<stop stop-color="#D0DAF2"/>
<stop offset="1" stop-color="#D0DAF2"/>
</radialGradient>
<linearGradient id="paint5_linear" x1="314.754" y1="245.766" x2="335.843" y2="291.117" gradientUnits="userSpaceOnUse">
<stop stop-color="#C7D3EE" stop-opacity="0"/>
<stop offset="1" stop-color="#A4B3D3"/>
</linearGradient>
<linearGradient id="paint6_linear" x1="308.359" y1="232.014" x2="312.961" y2="241.909" gradientUnits="userSpaceOnUse">
<stop stop-color="#5D719B"/>
<stop offset="1" stop-color="#A3B6DF"/>
</linearGradient>
<radialGradient id="paint7_radial" cx="0" cy="0" r="1" gradientUnits="userSpaceOnUse" gradientTransform="translate(303.306 234.425) rotate(-25.7288) scale(19.8092 10.365)">
<stop stop-color="#D9E2F8"/>
<stop offset="1" stop-color="#D9E2F8" stop-opacity="0"/>
</radialGradient>
<radialGradient id="paint8_radial" cx="0" cy="0" r="1" gradientUnits="userSpaceOnUse" gradientTransform="translate(321.331 240.196) rotate(162.825) scale(12.6767 42.2394)">
<stop stop-color="#D4DEF6"/>
<stop offset="1" stop-color="white" stop-opacity="0"/>
</radialGradient>
<linearGradient id="paint9_linear" x1="302.289" y1="234.838" x2="307.898" y2="246.901" gradientUnits="userSpaceOnUse">
<stop stop-color="#CEDAF4"/>
<stop offset="1" stop-color="#9BACD0"/>
</linearGradient>
<radialGradient id="paint10_radial" cx="0" cy="0" r="1" gradientUnits="userSpaceOnUse" gradientTransform="translate(298.899 238.574) rotate(0.742038) scale(33.1235 29.8074)">
<stop stop-color="#D0DAF2"/>
<stop offset="1" stop-color="#A5B9DF"/>
</radialGradient>
<radialGradient id="paint11_radial" cx="0" cy="0" r="1" gradientUnits="userSpaceOnUse" gradientTransform="translate(254.399 266.24) rotate(-176.56) scale(2.87417 7.98773)">
<stop stop-color="#D4DEF6"/>
<stop offset="1" stop-color="#D4DEF6" stop-opacity="0"/>
</radialGradient>
<radialGradient id="paint12_radial" cx="0" cy="0" r="1" gradientUnits="userSpaceOnUse" gradientTransform="translate(245.015 257.999) rotate(59.7482) scale(8.97004 34.0855)">
<stop stop-color="#DDE4F6"/>
<stop offset="1" stop-color="#A2B3D7" stop-opacity="0"/>
</radialGradient>
<linearGradient id="paint13_linear" x1="309.719" y1="285.098" x2="257.46" y2="270.727" gradientUnits="userSpaceOnUse">
<stop stop-color="#ABBAD9"/>
<stop offset="1" stop-color="#A7BCDF" stop-opacity="0"/>
</linearGradient>
<linearGradient id="paint14_linear" x1="356.531" y1="232.015" x2="357.248" y2="225.203" gradientUnits="userSpaceOnUse">
<stop stop-color="#2B84FD"/>
<stop offset="1" stop-color="#4996FF"/>
</linearGradient>
<linearGradient id="paint15_linear" x1="357.709" y1="223.949" x2="351.924" y2="229.983" gradientUnits="userSpaceOnUse">
<stop stop-color="#7AB2FF"/>
<stop offset="1" stop-color="#7AB2FF" stop-opacity="0"/>
</linearGradient>
<linearGradient id="paint16_linear" x1="356.316" y1="236.014" x2="357.361" y2="230.517" gradientUnits="userSpaceOnUse">
<stop stop-color="#2B84FD"/>
<stop offset="1" stop-color="#4996FF"/>
</linearGradient>
<linearGradient id="paint17_linear" x1="359.566" y1="231.46" x2="349.76" y2="233.757" gradientUnits="userSpaceOnUse">
<stop stop-color="#7AB2FF"/>
<stop offset="1" stop-color="#7AB2FF" stop-opacity="0"/>
</linearGradient>
<linearGradient id="paint18_linear" x1="355.209" y1="241.583" x2="356.035" y2="235.365" gradientUnits="userSpaceOnUse">
<stop stop-color="#2B84FD"/>
<stop offset="1" stop-color="#4996FF"/>
</linearGradient>
<linearGradient id="paint19_linear" x1="360.732" y1="236.359" x2="350.204" y2="238.961" gradientUnits="userSpaceOnUse">
<stop stop-color="#7AB2FF"/>
<stop offset="1" stop-color="#7AB2FF" stop-opacity="0"/>
</linearGradient>
<linearGradient id="paint20_linear" x1="354.206" y1="247.211" x2="356.433" y2="240.926" gradientUnits="userSpaceOnUse">
<stop stop-color="#2B84FD"/>
<stop offset="1" stop-color="#4996FF"/>
</linearGradient>
<linearGradient id="paint21_linear" x1="363.077" y1="242.814" x2="351.005" y2="243.72" gradientUnits="userSpaceOnUse">
<stop stop-color="#71ACFF"/>
<stop offset="1" stop-color="#71ACFF" stop-opacity="0"/>
</linearGradient>
<linearGradient id="paint22_linear" x1="366.292" y1="224.784" x2="366.98" y2="238.163" gradientUnits="userSpaceOnUse">
<stop stop-color="#4996FF"/>
<stop offset="1" stop-color="#2B84FD"/>
</linearGradient>
<linearGradient id="paint23_linear" x1="365.997" y1="226.317" x2="361.254" y2="236.263" gradientUnits="userSpaceOnUse">
<stop stop-color="#82B7FF"/>
<stop offset="1" stop-color="#579EFF" stop-opacity="0"/>
</linearGradient>
<linearGradient id="paint24_linear" x1="373.509" y1="486.704" x2="382.145" y2="453.601" gradientUnits="userSpaceOnUse">
<stop stop-color="#25CCD7"/>
<stop offset="1" stop-color="#25CCD7" stop-opacity="0"/>
</linearGradient>
<linearGradient id="paint25_linear" x1="518.769" y1="399.445" x2="517.844" y2="446.136" gradientUnits="userSpaceOnUse">
<stop stop-color="#10FFF1"/>
<stop offset="1" stop-color="#10FFF1" stop-opacity="0"/>
</linearGradient>
<linearGradient id="paint26_linear" x1="518.259" y1="406.127" x2="514.732" y2="418.853" gradientUnits="userSpaceOnUse">
<stop stop-color="#19FAED"/>
<stop offset="1" stop-color="#18FAED" stop-opacity="0"/>
</linearGradient>
<linearGradient id="paint27_linear" x1="543.281" y1="333.291" x2="552.861" y2="340.223" gradientUnits="userSpaceOnUse">
<stop stop-color="#3695FE"/>
<stop offset="1" stop-color="#4E99FF"/>
</linearGradient>
<linearGradient id="paint28_linear" x1="505.941" y1="434.976" x2="525.187" y2="478.383" gradientUnits="userSpaceOnUse">
<stop stop-color="#4AF6EF"/>
<stop offset="1" stop-color="#4BE0D7"/>
</linearGradient>
<linearGradient id="paint29_linear" x1="496.082" y1="417.232" x2="506.685" y2="430.404" gradientUnits="userSpaceOnUse">
<stop stop-color="#92FFF9"/>
<stop offset="1" stop-color="#19FAED" stop-opacity="0"/>
</linearGradient>
<radialGradient id="paint30_radial" cx="0" cy="0" r="1" gradientUnits="userSpaceOnUse" gradientTransform="translate(505.462 284.136) rotate(128.173) scale(12.3671 36.2589)">
<stop stop-color="#3FA3FF"/>
<stop offset="1" stop-color="#3FA3FF" stop-opacity="0"/>
</radialGradient>
<linearGradient id="paint31_linear" x1="500.558" y1="289.216" x2="500.96" y2="302.394" gradientUnits="userSpaceOnUse">
<stop stop-color="#53A7FF"/>
<stop offset="1" stop-color="#3FA3FF" stop-opacity="0"/>
</linearGradient>
<linearGradient id="paint32_linear" x1="474.647" y1="301.687" x2="449.45" y2="358.623" gradientUnits="userSpaceOnUse">
<stop stop-color="#E7EBF7"/>
<stop offset="1" stop-color="#CBCEEB"/>
</linearGradient>
<linearGradient id="paint33_linear" x1="393.409" y1="404.071" x2="402.069" y2="411.473" gradientUnits="userSpaceOnUse">
<stop stop-color="#80FDF6"/>
<stop offset="1" stop-color="#80FDF6" stop-opacity="0"/>
</linearGradient>
<linearGradient id="paint34_linear" x1="486.247" y1="352.91" x2="493.577" y2="350.75" gradientUnits="userSpaceOnUse">
<stop stop-color="#82B7FF"/>
<stop offset="1" stop-color="#4E99FF" stop-opacity="0"/>
</linearGradient>
<linearGradient id="paint35_linear" x1="489.007" y1="358.052" x2="495.515" y2="355.553" gradientUnits="userSpaceOnUse">
<stop stop-color="#82B7FF"/>
<stop offset="1" stop-color="#4E99FF" stop-opacity="0"/>
</linearGradient>
<linearGradient id="paint36_linear" x1="492.694" y1="363.23" x2="498.745" y2="360.582" gradientUnits="userSpaceOnUse">
<stop stop-color="#82B7FF"/>
<stop offset="1" stop-color="#4E99FF" stop-opacity="0"/>
</linearGradient>
<linearGradient id="paint37_linear" x1="496.111" y1="367.114" x2="500.48" y2="364.761" gradientUnits="userSpaceOnUse">
<stop stop-color="#82B7FF"/>
<stop offset="1" stop-color="#4E99FF" stop-opacity="0"/>
</linearGradient>
<linearGradient id="paint38_linear" x1="240.464" y1="355.452" x2="187.654" y2="428.985" gradientUnits="userSpaceOnUse">
<stop stop-color="#25CCD7"/>
<stop offset="1" stop-color="#03B5C1"/>
</linearGradient>
<linearGradient id="paint39_linear" x1="204.366" y1="315.343" x2="193.67" y2="369.49" gradientUnits="userSpaceOnUse">
<stop stop-color="#25CCD7"/>
<stop offset="1" stop-color="#00B1BD"/>
</linearGradient>
<linearGradient id="paint40_linear" x1="174.432" y1="329.381" x2="174.432" y2="426.312" gradientUnits="userSpaceOnUse">
<stop stop-color="#39CFC6"/>
<stop offset="1" stop-color="#0BBBC6"/>
</linearGradient>
<linearGradient id="paint41_linear" x1="207.708" y1="338.07" x2="193.67" y2="427.647" gradientUnits="userSpaceOnUse">
<stop stop-color="#4BE0D7"/>
<stop offset="1" stop-color="#24CCD6"/>
</linearGradient>
<linearGradient id="paint42_linear" x1="145.823" y1="327.692" x2="145.823" y2="432.948" gradientUnits="userSpaceOnUse">
<stop stop-color="#25CCD7"/>
<stop offset="1" stop-color="#00B4BF"/>
</linearGradient>
<linearGradient id="paint43_linear" x1="164.304" y1="360.098" x2="164.304" y2="432.492" gradientUnits="userSpaceOnUse">
<stop stop-color="#74E9E4"/>
<stop offset="1" stop-color="#3AD7D6"/>
</linearGradient>
</defs>
</svg>
