<svg width="671" height="720" viewBox="0 0 671 720" fill="none" xmlns="http://www.w3.org/2000/svg">
<path d="M375.104 187.02C397.196 187.02 415.104 204.928 415.104 227.02L415.105 492.02C415.105 514.111 397.196 532.02 375.105 532.02L249.104 532.02C227.013 532.02 209.104 514.111 209.104 492.02L209.104 193.5C209.104 171.409 227.013 153.5 249.104 153.5L279.138 153.5C288.933 153.5 297.896 159.004 302.326 167.74L304.883 172.78C309.313 181.515 318.276 187.02 328.071 187.02L375.104 187.02Z" fill="#FFCA62"/>
<mask id="mask0" mask-type="alpha" maskUnits="userSpaceOnUse" x="209" y="187" width="206" height="346">
<path d="M384.104 187.02C400.673 187.02 414.104 200.451 414.104 217.02L414.104 502.02C414.104 518.589 400.673 532.02 384.104 532.02L239.104 532.02C222.536 532.02 209.104 518.589 209.104 502.02L209.105 187.02L384.104 187.02Z" fill="#666AF7"/>
</mask>
<g mask="url(#mask0)">
<rect width="110.424" height="120.332" rx="14" transform="matrix(-0.521642 0.853164 -0.877997 -0.478665 420.357 335.599)" fill="white" fill-opacity="0.1"/>
<rect width="100.59" height="103.513" rx="16" transform="matrix(-0.521642 0.853164 -0.877997 -0.478665 467.093 217.48)" fill="white" fill-opacity="0.1"/>
<rect width="126.486" height="130.162" rx="16" transform="matrix(-0.521642 0.853164 -0.877997 -0.478665 295.621 260.914)" fill="white" fill-opacity="0.1"/>
</g>
<mask id="mask1" mask-type="alpha" maskUnits="userSpaceOnUse" x="122" y="187" width="294" height="346">
<path d="M375.104 187.02C397.196 187.02 415.104 204.929 415.104 227.02L415.105 492.02C415.105 514.111 397.196 532.02 375.105 532.02L162.105 532.02C140.013 532.02 122.105 514.111 122.105 492.02L122.104 227.02C122.104 204.929 140.013 187.02 162.104 187.02L375.104 187.02Z" fill="white"/>
</mask>
<g mask="url(#mask1)">
<g style="mix-blend-mode:multiply" opacity="0.3" filter="url(#filter0_f)">
<path d="M191.123 246.016C232.639 264.391 349.552 320.833 410.323 350.368L410.267 350.491C428.983 359.601 442.92 366.211 446.948 368.121L446.949 368.122L446.949 368.122L446.962 368.128C447.679 368.468 448.078 368.657 448.129 368.683C441.191 383.829 434.11 398.964 426.83 413.94L427.021 414.029L426.797 414.008L426.663 414.282L426.525 414.421L426.39 452.174C416.047 461.931 405.461 472.068 394.905 482.176L394.901 482.18C385.899 490.8 376.92 499.399 368.132 507.722C290.77 474.103 221.724 439.731 150.432 403.855L149.217 403.252L149.369 386.836L149.399 386.874L149.617 365.729C152.65 362.927 162.463 353.558 173.233 343.242C173.443 336.757 176.217 330.304 181.028 325.809C182.436 324.552 183.903 323.445 185.681 322.942C186.125 322.834 186.556 322.87 186.825 323.11L188.276 323.903C189.047 322.938 189.846 322.006 190.748 321.195C192.32 319.712 194.154 318.511 196.105 317.526L196.099 317.524C196.17 317.49 196.24 317.456 196.309 317.423L196.379 317.39C196.779 317.193 197.184 317.005 197.593 316.825C199.291 316.058 200.723 315.519 201.917 315.28C202.1 315.242 202.284 315.21 202.467 315.188C204.16 313.561 205.563 312.212 206.591 311.224L203.846 309.945L203.728 309.917C203.767 309.938 203.752 309.935 203.678 309.905L203.728 309.917C203.155 309.6 190.868 303.933 190.868 303.933L190.87 303.933C182.417 300.04 174.877 296.618 168.602 293.842C171.226 288.698 173.833 283.356 176.409 277.938C176.958 276.737 178.841 272.763 179.508 271.357C182.68 264.559 185.793 257.721 188.815 251.082C189.59 249.379 190.36 247.689 191.123 246.016Z" fill="#395590"/>
</g>
<path d="M139.785 359.957L358.441 464.771C380.568 444.828 398.237 427.153 416.831 408.51L198.691 303.595C198.691 303.595 147.469 352.857 139.785 359.957Z" fill="url(#paint0_linear)"/>
<path d="M411.48 405.524C394.022 422.082 374.769 443.596 356.65 459.369C355.254 458.669 203.544 383.768 146.315 358.415C151.97 353.417 194.876 311.705 200.199 306.314L411.48 405.524Z" fill="url(#paint1_linear)"/>
<path d="M165.95 343.623C167.575 335.785 171.498 329.724 175.557 323.454C176.556 321.911 177.562 320.355 178.545 318.757L176.752 317.776L176.702 317.749L176.66 317.711C176.571 317.633 176.347 317.565 175.975 317.654C174.316 318.125 172.923 319.165 171.532 320.406C165.625 325.927 162.853 334.474 164.239 342.305C164.331 342.591 164.462 342.76 164.589 342.839L165.95 343.623Z" fill="url(#paint2_linear)" stroke="url(#paint3_radial)"/>
<path d="M167.107 340.937L167.106 340.939C165.012 348.445 165.003 356.747 168.179 363.794L177.033 368.723L201.44 314L194.49 310.77L194.408 310.732L194.334 310.68C194.003 310.446 193.563 310.347 192.983 310.387C192.397 310.426 191.756 310.601 191.114 310.825L191.114 310.825L191.108 310.826C187.603 312.023 184.206 313.694 181.602 316.15L181.593 316.158L181.584 316.166C180.411 317.221 179.411 318.505 178.347 319.877C173.435 326.283 169.234 333.26 167.107 340.937Z" fill="url(#paint4_linear)" stroke="url(#paint5_radial)" stroke-width="2"/>
<path d="M220.756 387.684L247.378 335.243L244.299 326.627L226.858 319.195L214.657 331.6L202.849 354.935L198.222 377.703L200.427 383.221L210.854 388.176L220.756 387.684Z" fill="url(#paint6_linear)" stroke="url(#paint7_radial)"/>
<path d="M246.141 338.229L243.226 330.074L227.001 323.161L215.712 334.64L204.983 355.841L200.763 376.606L202.872 381.882L212.556 386.484L221.878 386.021L246.141 338.229Z" fill="url(#paint8_linear)"/>
<path d="M173.944 366.792C175.312 359.092 176.822 351.403 178.477 343.727L202.372 354.769L197.702 377.75L173.944 366.792Z" fill="url(#paint9_linear)"/>
<path d="M204.324 308.045C200.15 312.11 195.089 316.39 190.651 320.143L214.218 331.332L226.778 318.55L204.324 308.045Z" fill="url(#paint10_linear)"/>
<path d="M216.179 311.641C213.395 309.454 209.018 309.885 206.335 312.555C203.723 315.23 203.824 319.219 206.536 321.399C209.248 323.579 213.697 323.155 216.381 320.485C219.064 317.815 218.963 313.827 216.179 311.641ZM217.365 310.437C220.891 313.265 221.13 318.205 217.805 321.617C214.487 324.958 208.948 325.435 205.416 322.68C201.89 319.853 201.652 314.913 204.976 311.5C208.228 308.082 213.761 307.676 217.365 310.437Z" fill="#355C6D"/>
<path d="M212.544 315.317C213.22 315.88 213.214 316.82 212.579 317.49C211.944 318.161 210.849 318.286 210.172 317.723C209.496 317.16 209.502 316.22 210.137 315.55C210.766 314.951 211.861 314.826 212.544 315.317Z" fill="#355C6D"/>
<path d="M175.209 371.899L173.953 366.79L197.722 377.744L200.044 383.608L175.209 371.899Z" fill="#C0AF9B"/>
<path d="M201.916 353.457L212.891 331.771L191.096 321.461L179.845 343.258L201.916 353.457Z" fill="url(#paint11_linear)" stroke="url(#paint12_radial)" stroke-width="2"/>
<path d="M360.398 455.288L387.085 402.925L383.937 394.301L366.5 386.799L354.294 399.274L342.485 422.609L337.864 445.306L340.011 450.678L350.492 455.849L360.398 455.288Z" fill="url(#paint13_linear)" stroke="url(#paint14_radial)"/>
<path d="M346.082 438.173C345.99 442.909 346.506 446.764 347.31 448.99C349.342 449.879 351.673 450.853 354.015 451.831L354.02 451.833C356.278 452.777 358.546 453.724 360.547 454.597L362.181 453.149L386.236 403.329C385.099 402.748 383.972 402.157 382.848 401.568C379.359 399.738 375.904 397.927 372.328 396.507C359.274 399.503 352.111 410.245 348.673 421.636C346.945 427.362 346.178 433.198 346.082 438.173Z" fill="url(#paint15_linear)" stroke="url(#paint16_radial)" stroke-width="2"/>
<path d="M289.759 420.874L316.381 368.434L313.297 359.888L295.859 352.386L283.589 364.785L271.852 388.124L267.225 410.893L269.372 416.265L279.789 421.36L289.759 420.874Z" fill="url(#paint17_linear)" stroke="url(#paint18_radial)"/>
<path d="M255.068 403.941L281.692 351.497L278.608 342.952L261.172 335.45L248.965 347.925L237.163 371.189L232.536 393.957L234.76 399.554L245.154 404.571L255.068 403.941Z" fill="url(#paint19_linear)" stroke="url(#paint20_radial)"/>
<path d="M208.252 383.118C209.619 375.418 211.13 367.73 212.785 360.054L236.686 371.024L232.016 394.004L208.252 383.118Z" fill="url(#paint21_linear)"/>
<path d="M279.947 355.314L277.033 347.16L261.046 339.711L249.756 351.19L239.027 372.391L234.807 393.156L236.916 398.432L246.6 403.034L255.922 402.571L279.947 355.314Z" fill="url(#paint22_linear)"/>
<path d="M314.839 371.982L311.925 363.827L295.938 356.379L284.649 367.857L273.919 389.059L269.699 409.824L271.808 415.1L281.492 419.701L290.815 419.238L314.839 371.982Z" fill="url(#paint23_linear)"/>
<path d="M238.637 324.299C234.462 328.364 229.401 332.644 224.963 336.397L248.553 347.631L261.053 334.855L238.637 324.299Z" fill="url(#paint24_linear)"/>
<path d="M209.468 388.061L208.264 383.128L232.018 394.002L234.399 399.939L209.468 388.061Z" fill="#C0AF9B"/>
<path d="M236.229 369.713L247.199 348.092L225.478 337.723L214.155 359.581L236.229 369.713Z" fill="url(#paint25_linear)" stroke="url(#paint26_radial)" stroke-width="2"/>
<path d="M265.588 325.611L258.35 322.184C257.931 322.004 257.272 322.094 256.877 322.495L250.162 329.242C249.851 329.505 249.821 329.865 250.019 330.098C250.216 330.332 250.641 330.44 251.084 330.332L265.037 327.012C265.48 326.905 265.792 326.641 265.888 326.36C266.061 326.012 265.942 325.713 265.588 325.611ZM257.774 323.873L262.439 326.071L253.432 328.213L257.774 323.873Z" fill="#355C6D"/>
<path d="M251.093 323.314C251.027 323.236 250.883 323.224 250.74 323.212C250.309 323.176 249.794 323.278 249.416 323.464L232.503 334.495C232.042 334.818 232.006 335.25 232.425 335.429L246.975 342.289C247.25 342.457 247.759 342.427 248.202 342.319C248.645 342.212 248.957 341.948 248.981 341.661L251.416 323.775C251.428 323.632 251.303 323.404 251.093 323.314ZM234.941 334.771L248.865 325.733L246.837 340.469L234.941 334.771Z" fill="#355C6D"/>
<path d="M242.942 400.054C244.31 392.354 245.82 384.666 247.475 376.99L271.376 387.96L266.706 410.94L242.942 400.054Z" fill="url(#paint27_linear)"/>
<path d="M273.327 341.235C269.153 345.3 264.092 349.58 259.654 353.334L283.178 364.489L295.809 351.71L273.327 341.235Z" fill="url(#paint28_linear)"/>
<path d="M244.198 404.935C244.228 404.576 242.828 400.551 242.87 400.048L266.712 410.944L268.986 416.633L244.198 404.935Z" fill="#C0AF9B"/>
<path d="M284.306 357.059C284.449 357.071 284.521 357.077 284.665 357.089C285.174 357.059 285.641 356.664 285.755 356.167L288.927 338.126C288.951 337.839 288.832 337.539 288.55 337.443C288.269 337.348 287.903 337.389 287.592 337.653L269.451 350.391C268.99 350.714 268.876 351.211 269.068 351.516C269.331 351.828 269.912 351.804 270.367 351.553L286.819 339.976L283.929 356.376C283.905 356.664 284.024 356.963 284.306 357.059Z" fill="#355C6D"/>
<path d="M276.792 354.332C279.462 355.279 283.199 353.855 285.014 351.184C286.901 348.52 286.207 345.568 283.531 344.693C280.86 343.746 277.123 345.171 275.308 347.841C273.422 350.505 274.05 353.379 276.792 354.332ZM282.464 346.196C284.291 346.855 284.775 348.849 283.463 350.693C282.151 352.537 279.612 353.482 277.786 352.823C275.96 352.164 275.475 350.17 276.787 348.326C278.093 346.554 280.632 345.609 282.464 346.196Z" fill="#355C6D"/>
<path d="M270.916 386.648L281.825 364.955L260.1 354.653L248.842 376.517L270.916 386.648Z" fill="url(#paint29_linear)" stroke="url(#paint30_radial)" stroke-width="2"/>
<path d="M361.512 455.11C350.588 437.772 363.623 402.761 384.587 402.125C388.216 401.995 391.108 405.492 392.041 409.043C392.98 412.523 392.452 416.241 391.865 419.81L390.342 426.773C379.492 438.137 373.259 444.4 361.512 455.11Z" fill="url(#paint31_linear)"/>
<path d="M358.44 464.771C378.228 447.033 416.693 408.426 416.693 408.426C416.648 421.085 416.603 433.743 416.557 446.402C397.391 464.481 377.393 483.865 358.299 501.95C358.308 489.722 358.365 476.92 358.44 464.771Z" fill="#845543"/>
<path d="M325.708 438.35L352.33 385.911L349.245 377.365L331.809 369.863L319.609 382.267L307.801 405.601L303.173 428.37L305.32 433.741L315.808 438.842L325.708 438.35Z" fill="url(#paint32_linear)" stroke="url(#paint33_radial)"/>
<path d="M350.668 389.618L347.753 381.463L331.767 374.014L320.477 385.493L309.748 406.695L305.528 427.46L307.637 432.736L317.321 437.337L326.643 436.874L350.668 389.618Z" fill="url(#paint34_linear)"/>
<path d="M278.889 417.53C280.256 409.83 281.767 402.142 283.422 394.465L307.323 405.435L302.653 428.416L278.889 417.53Z" fill="url(#paint35_linear)"/>
<path d="M309.276 358.712C305.101 362.776 300.04 367.057 295.602 370.81L319.196 381.973L331.776 369.203L309.276 358.712Z" fill="url(#paint36_linear)"/>
<path d="M279.942 422.249C279.972 421.89 278.847 418.033 278.889 417.53L302.652 428.417L304.926 434.106L279.942 422.249Z" fill="#C0AF9B"/>
<path d="M303.621 369.237L310.853 372.735C311.272 372.915 311.793 372.742 312.045 372.329L315.801 364.611C315.975 364.264 315.933 363.898 315.664 363.659C315.394 363.419 315.041 363.317 314.742 363.437L303.753 367.656C303.453 367.776 303.208 368.117 303.184 368.404C303.154 368.763 303.339 369.141 303.621 369.237ZM310.866 370.855L306.208 368.585L313.31 365.85L310.866 370.855Z" fill="#355C6D"/>
<path d="M318.079 376.306C318.145 376.384 318.289 376.396 318.361 376.402C318.72 376.432 319.026 376.24 319.199 375.893L326.784 360.464C326.964 360.045 326.79 359.524 326.377 359.272L311.918 352.203C311.642 352.035 311.205 352.071 310.966 352.34C310.732 352.538 310.63 352.891 310.672 353.256L317.547 375.755C317.666 376.054 317.87 376.216 318.079 376.306ZM324.832 360.445L318.631 373.168L313.013 354.682L324.832 360.445Z" fill="#355C6D"/>
<path d="M306.865 404.125L317.841 382.435L296.116 372.133L284.792 393.994L306.865 404.125Z" fill="url(#paint37_linear)" stroke="url(#paint38_radial)" stroke-width="2"/>
<path d="M389.787 419.563C387.572 418.365 382.285 415.825 382.285 415.825C377.165 417.35 373.99 421.571 371.707 426.373C369.497 431.181 368.645 437.043 370.62 441.983L370.943 442.445C371.56 442.858 372.589 443.523 373.2 444.008L393.187 423.899L389.787 419.563Z" fill="url(#paint39_linear)"/>
<path d="M390.014 420.075C388.284 419.618 386.491 420.602 384.865 421.776C378.023 426.723 376.703 434.919 376.804 439.709L392.737 423.591C392.427 421.905 391.451 420.492 390.014 420.075Z" fill="url(#paint40_linear)" stroke="url(#paint41_radial)"/>
<path d="M313.652 434.473C315.019 426.773 316.53 419.085 318.185 411.408L342.086 422.378L337.416 445.359L313.652 434.473Z" fill="url(#paint42_linear)"/>
<path d="M344.01 375.732C339.836 379.797 334.775 384.077 330.337 387.83L353.861 398.986L366.361 386.21L344.01 375.732Z" fill="url(#paint43_linear)"/>
<path d="M314.92 439.209C314.95 438.85 313.61 434.976 313.652 434.473L337.409 445.355L339.618 451.042L314.92 439.209Z" fill="#C0AF9B"/>
<path d="M339.585 387.366L347.871 391.243C348.356 391.5 349.093 391.345 349.56 390.95C349.955 390.548 349.926 390.039 349.441 389.782L342.058 386.343L355.924 372.814L368.252 378.547C368.737 378.805 369.473 378.649 369.94 378.254C370.336 377.853 370.306 377.344 369.821 377.086L356.517 370.909C356.032 370.652 355.296 370.807 354.828 371.202L339.46 386.27C338.998 386.594 339.022 387.175 339.585 387.366Z" fill="#355C6D"/>
<path d="M349.011 384.536L352.214 386.034C354.441 387.088 357.824 386.43 359.789 384.569C361.682 382.701 361.443 380.366 359.143 379.305L355.94 377.807C355.455 377.55 354.719 377.705 354.252 378.1L348.891 383.368C348.49 383.841 348.52 384.35 349.011 384.536ZM357.646 380.772C358.897 381.383 359.077 382.7 357.981 383.694C356.879 384.76 355.04 385.112 353.789 384.501L351.49 383.441L355.353 379.639L357.646 380.772Z" fill="#355C6D"/>
<g style="mix-blend-mode:multiply" opacity="0.36">
<path d="M383.602 405.08L417.188 408.257L196.763 305.452L192.633 309.417C191.023 309.622 188.927 310.471 186.266 311.751L383.602 405.08Z" fill="#4B2D23"/>
</g>
<path d="M438.297 362.911C431.305 378.173 424.17 393.422 416.831 408.51C404.27 402.974 390.133 397.234 377.392 392.117C377.32 392.111 377.117 391.95 376.698 391.77C383.569 377.945 392.772 358.744 399.482 344.255C422.078 355.26 437.95 362.737 438.297 362.911Z" fill="url(#paint44_linear)"/>
<path opacity="0.13" fill-rule="evenodd" clip-rule="evenodd" d="M390.574 365.691C392.094 370.293 396.801 375.846 397.836 380.199C399.362 386.616 396.446 393.414 393.943 398.87C392.756 398.384 392.36 398.207 391.178 397.725C394.143 388.318 392.806 380.271 387.547 372.293C388.178 370.981 389.943 367.008 390.574 365.691Z" fill="#2A1812"/>
<path opacity="0.13" fill-rule="evenodd" clip-rule="evenodd" d="M398.922 347.821C402.362 359.059 411.328 365.712 414.324 377.916C416.73 387.375 415.805 397.231 412.241 406.517C411.076 406.016 410.435 405.841 409.254 405.339C412.29 397.499 413.654 392.567 410.616 378.859C408.517 370.604 401.723 365.575 395.298 355.795C395.865 354.592 398.371 348.994 398.922 347.821Z" fill="#2A1812"/>
<path d="M377.029 390.111C383.668 376.793 392.156 359.082 398.513 345.303C338.031 315.914 224.351 261.042 182.039 242.217C181.479 243.446 180.915 244.684 180.348 245.93C174.143 259.561 167.542 274.062 160.823 287.34C215.44 311.611 358.398 381.019 377.029 390.111Z" fill="url(#paint45_linear)" stroke="url(#paint46_radial)" stroke-width="3"/>
<path opacity="0.06" fill-rule="evenodd" clip-rule="evenodd" d="M390.573 365.691C370.851 362.364 340.941 351.349 292.007 332.578C243.073 313.807 206.139 298.234 181.035 298.162C181.035 298.162 195.027 304.615 193.846 304.133C236.89 314.337 353.039 364.693 387.546 372.294C388.177 370.982 389.942 367.009 390.573 365.691Z" fill="#2A1812"/>
<path opacity="0.06" fill-rule="evenodd" clip-rule="evenodd" d="M398.978 347.901C379.256 344.574 346.63 334.32 297.696 315.549C248.762 296.778 209.019 272.884 169.911 265.087C169.911 265.087 167.247 270.699 166.576 272.167C209.62 282.371 306.642 329.341 395.292 355.781C395.923 354.469 398.347 349.218 398.978 347.901Z" fill="#2A1812"/>
<path d="M139.785 359.958C196.725 385.121 358.441 464.771 358.441 464.771L358.3 501.951C356.462 501.435 195.775 425.923 139.399 397.478L139.785 359.958Z" fill="url(#paint47_linear)"/>
<path opacity="0.47" fill-rule="evenodd" clip-rule="evenodd" d="M358.405 474.739C338.682 471.412 308.174 454.371 259.24 435.6C210.306 416.828 165.935 391.26 149.571 364.339C149.571 364.339 143.477 361.538 142.296 361.056C134.704 395.227 323.831 476.08 358.338 483.681L358.405 474.739Z" fill="#3A2721"/>
<path opacity="0.1" fill-rule="evenodd" clip-rule="evenodd" d="M358.407 474.848C364.924 473.714 384.192 460.316 388.385 455.677C392.577 451.039 401.53 438.187 401.857 423.251C401.857 423.251 408.256 416.778 408.678 416.431C407.299 451.121 369.934 479.933 358.337 483.681L358.407 474.848Z" fill="#3A2721"/>
<path opacity="0.47" fill-rule="evenodd" clip-rule="evenodd" d="M305.468 438.79C270.104 432.513 196.287 409.184 178.795 377.918C178.795 377.918 172.825 375.121 171.757 374.649C171.619 394.113 246.096 430.762 341.183 456.292L305.468 438.79Z" fill="#3A2721"/>
<path opacity="0.47" fill-rule="evenodd" clip-rule="evenodd" d="M240.588 446.547C222.363 422.963 177.7 428.458 139.537 381.064L139.386 397.48C178.754 417.033 200.932 427.863 240.588 446.547Z" fill="#3A2721"/>
<path d="M341.552 421.131L352.527 399.444L330.801 389.141L319.483 410.934L341.552 421.131Z" fill="url(#paint48_linear)" stroke="url(#paint49_radial)" stroke-width="2"/>
<path d="M328.036 421.602C325.204 419.519 322.302 420.874 321.585 424.628C320.869 428.381 322.62 433.047 325.466 435.058C328.312 437.07 331.2 435.786 331.917 432.033C332.633 428.279 330.882 423.613 328.036 421.602ZM328.36 419.902C332.046 422.514 334.29 428.448 333.41 433.052C332.531 437.655 328.841 439.3 325.155 436.687C321.47 434.075 319.226 428.141 320.105 423.537C320.998 418.863 324.675 417.29 328.36 419.902Z" fill="#355C6D"/>
<path d="M327.075 426.63C327.787 427.133 328.164 428.233 327.988 429.154C327.812 430.074 327.094 430.378 326.453 429.888C325.813 429.399 325.365 428.286 325.54 427.365C325.632 426.501 326.35 426.198 327.075 426.63Z" fill="#355C6D"/>
<path d="M323.753 410.572L337.122 416.826C337.542 417.006 338.134 416.839 338.392 416.354C338.65 415.869 338.62 415.36 338.201 415.18L324.831 408.925C324.412 408.745 323.819 408.913 323.562 409.398C323.238 409.805 323.334 410.392 323.753 410.572Z" fill="#355C6D"/>
<path d="M332.938 409.747C335.794 411.071 340.238 408.983 342.736 405.067C345.234 401.152 345.013 396.864 342.086 395.534C339.23 394.21 334.786 396.299 332.288 400.214C329.79 404.13 330.083 408.423 332.938 409.747ZM341.085 397.115C343.175 398.085 343.258 401.421 341.341 404.444C339.346 407.533 336.022 409.209 333.933 408.239C331.843 407.268 331.76 403.933 333.677 400.909C335.594 397.886 338.996 396.144 341.085 397.115Z" fill="#355C6D"/>
<path d="M291.045 390.689L304.977 397.135C305.187 397.225 305.546 397.255 305.774 397.129C306.001 397.004 306.163 396.8 306.187 396.513L307.43 380.77C307.454 380.483 307.329 380.256 307.047 380.16C306.766 380.064 306.479 380.04 306.173 380.231L290.925 389.521C290.698 389.647 290.53 389.922 290.584 390.144C290.638 390.365 290.763 390.593 291.045 390.689ZM304.612 395.44L292.913 389.976L305.718 382.219L304.612 395.44Z" fill="#355C6D"/>
<path d="M298.269 386.517L305.376 389.789C305.723 389.962 306.238 389.861 306.484 389.52C306.729 389.178 306.55 388.729 306.203 388.555L299.096 385.284C298.748 385.11 298.233 385.212 297.988 385.553C297.742 385.895 297.85 386.338 298.269 386.517Z" fill="#355C6D"/>
<path d="M284.614 416.562L296.086 422.151C296.505 422.331 296.876 422.217 296.906 421.858L298.453 411.134C298.483 410.775 298.232 410.319 297.819 410.068L286.347 404.478C285.928 404.298 285.557 404.412 285.527 404.771L283.979 415.496C283.943 415.927 284.195 416.382 284.614 416.562ZM295.577 420.444L285.566 415.556L286.928 406.191L296.939 411.08L295.577 420.444Z" fill="#355C6D"/>
<path d="M284.608 416.634L299.696 423.973C300.115 424.152 300.486 424.039 300.516 423.679C300.546 423.32 300.295 422.865 299.882 422.613L284.794 415.274C284.375 415.095 284.004 415.208 283.974 415.568C283.938 415.999 284.189 416.454 284.608 416.634Z" fill="#355C6D"/>
<path d="M286.655 402.55L298.126 408.139C298.545 408.319 298.917 408.206 298.947 407.846C298.977 407.487 298.725 407.032 298.312 406.78L286.841 401.191C286.421 401.011 286.05 401.125 286.02 401.484C285.918 401.837 286.241 402.298 286.655 402.55Z" fill="#355C6D"/>
<path d="M257.85 405.208C260.479 406.657 262.796 405.766 263.001 403.323C263.211 400.808 261.236 397.604 258.607 396.154C255.979 394.704 253.661 395.596 253.457 398.039C253.319 400.56 255.294 403.764 257.85 405.208ZM258.469 397.807C260.128 398.741 261.402 400.801 261.27 402.382C261.138 403.963 259.641 404.561 257.983 403.627C256.324 402.692 255.049 400.632 255.181 399.051C255.319 397.399 256.811 396.872 258.469 397.807Z" fill="#355C6D"/>
<path d="M250.936 401.373C251.421 401.63 251.798 401.445 251.834 401.014L253.221 384.415C253.257 383.984 252.874 383.373 252.461 383.122C251.976 382.864 251.599 383.05 251.563 383.481L250.176 400.079C250.134 400.582 250.451 401.115 250.936 401.373Z" fill="#355C6D"/>
<path d="M251.554 393.972L258.541 397.812C259.026 398.07 259.404 397.884 259.44 397.453C259.476 397.022 259.093 396.411 258.68 396.16L251.692 392.319C251.208 392.062 250.83 392.247 250.794 392.679C250.758 393.11 251.069 393.715 251.554 393.972Z" fill="#355C6D"/>
<path d="M262.102 403.682C262.587 403.939 262.965 403.754 263.001 403.323C263.493 397.431 259.112 387.514 258.927 387.136C258.682 386.609 258.137 386.202 257.771 386.244C257.334 386.28 257.226 386.705 257.472 387.232C257.538 387.31 261.793 396.999 261.342 402.388C261.306 402.819 261.617 403.424 262.102 403.682Z" fill="#355C6D"/>
<path d="M230.825 364.962C231.245 365.142 231.76 365.04 231.939 364.621L239.691 349.784C239.871 349.365 239.769 348.85 239.35 348.671C238.931 348.491 238.416 348.593 238.236 349.012L230.484 363.848C230.311 364.195 230.484 364.716 230.825 364.962Z" fill="#355C6D"/>
<path d="M229.852 354.967L234.701 357.543C235.12 357.723 235.635 357.621 235.815 357.202C235.995 356.783 235.893 356.268 235.474 356.088L230.624 353.512C230.205 353.333 229.69 353.434 229.511 353.853C229.331 354.273 229.439 354.716 229.852 354.967Z" fill="#355C6D"/>
<path d="M226.066 356.099C227.869 357.045 230.024 356.357 230.971 354.555C231.918 352.753 231.235 350.525 229.433 349.579C227.631 348.632 225.475 349.32 224.529 351.122C223.582 352.924 224.264 355.152 226.066 356.099ZM228.661 351.033C229.63 351.549 230.037 352.74 229.522 353.71C229.007 354.68 227.815 355.087 226.845 354.572C225.875 354.057 225.468 352.865 225.984 351.895C226.499 350.925 227.691 350.518 228.661 351.033Z" fill="#355C6D"/>
<path d="M220.043 358.923C220.114 358.929 220.114 358.929 220.18 359.007C224.407 360.373 228.905 358.506 230.972 354.555C232.955 350.741 231.98 345.956 228.663 343.219C228.328 342.901 227.813 343.003 227.495 343.338C227.178 343.674 227.28 344.189 227.615 344.506C230.321 346.758 231.086 350.585 229.517 353.782C227.869 357.045 224.126 358.541 220.672 357.456C220.247 357.348 219.797 357.528 219.612 358.019C219.51 358.372 219.695 358.749 220.043 358.923Z" fill="#355C6D"/>
<path d="M257.271 375.783L267.055 379.929C267.336 380.025 267.695 380.055 267.929 379.857C268.163 379.66 268.258 379.379 268.211 379.085L264.179 363.264L268.304 364.983C268.723 365.163 269.244 364.99 269.418 364.642C269.592 364.295 269.412 363.846 268.993 363.666L263.401 361.318C263.119 361.222 262.76 361.192 262.526 361.389C262.293 361.587 262.197 361.868 262.245 362.162L266.277 377.983L258.733 374.747L260.141 371.754C260.314 371.407 260.135 370.957 259.716 370.778C259.297 370.598 258.776 370.771 258.602 371.119L256.847 374.807C256.673 375.154 256.852 375.603 257.271 375.783Z" fill="#355C6D"/>
<path d="M189.41 373.077C189.823 373.329 190.206 373.071 190.314 372.646L193.306 355.893C193.414 355.467 193.103 354.863 192.684 354.683C192.271 354.431 191.887 354.689 191.78 355.114L188.787 371.867C188.68 372.293 188.997 372.826 189.41 373.077Z" fill="#355C6D"/>
<path d="M185.529 371.016C185.943 371.268 186.326 371.011 186.434 370.586L189.426 353.832C189.534 353.407 189.223 352.802 188.803 352.622C188.384 352.442 188.007 352.628 187.899 353.053L184.907 369.807C184.799 370.232 185.11 370.837 185.529 371.016Z" fill="#355C6D"/>
<path d="M183.012 356.118L187.514 358.52C187.927 358.772 188.311 358.514 188.418 358.089C188.526 357.664 188.215 357.059 187.796 356.879L183.294 354.477C182.88 354.225 182.497 354.483 182.389 354.908C182.281 355.333 182.593 355.938 183.012 356.118Z" fill="#355C6D"/>
<path d="M181.49 364.818L185.993 367.22C186.406 367.472 186.789 367.214 186.897 366.789C187.005 366.364 186.694 365.759 186.274 365.58L181.772 363.177C181.359 362.926 180.976 363.183 180.868 363.608C180.832 364.039 181.077 364.566 181.49 364.818Z" fill="#355C6D"/>
<path d="M215.701 383.162C216.048 383.335 216.425 383.15 216.533 382.725L218.434 372.971C218.919 370.624 221.039 369.498 223.267 370.553C225.422 371.601 226.859 374.326 226.373 376.673L224.472 386.427C224.365 386.852 224.616 387.308 225.035 387.487C225.382 387.661 225.76 387.476 225.867 387.05L227.768 377.296C228.398 374.093 226.536 370.392 223.543 368.984C220.621 367.582 217.674 369.072 217.045 372.276L215.144 382.03C215.102 382.533 215.354 382.988 215.701 383.162Z" fill="#355C6D"/>
<path d="M221.36 380.378L224.534 378.762L222.481 374.756L219.307 376.372L221.36 380.378ZM222.582 377.876L221.828 378.247L221.331 377.265L222.085 376.894L222.582 377.876Z" fill="#355C6D"/>
<path d="M223.172 387.259L226.657 388.852C227.004 389.026 227.382 388.841 227.489 388.416C227.597 387.99 227.346 387.535 226.927 387.356L223.442 385.762C223.095 385.588 222.718 385.774 222.61 386.199C222.58 386.558 222.831 387.013 223.172 387.259Z" fill="#355C6D"/>
<path d="M213.917 382.868L217.401 384.461C217.748 384.635 218.126 384.45 218.234 384.024C218.341 383.599 218.09 383.144 217.671 382.964L214.186 381.371C213.839 381.197 213.462 381.383 213.354 381.808C213.246 382.233 213.497 382.688 213.917 382.868Z" fill="#355C6D"/>
<path d="M196.69 330.995L202.551 333.583C203.042 333.769 203.707 333.607 203.958 333.194C204.282 332.787 204.114 332.194 203.623 332.009L197.762 329.42C197.271 329.235 196.606 329.396 196.354 329.809C196.031 330.216 196.199 330.809 196.69 330.995Z" fill="#355C6D"/>
<path d="M192.502 336.072L199.549 339.193C200.04 339.379 200.705 339.217 200.956 338.804C201.208 338.391 201.112 337.804 200.621 337.619L193.574 334.497C193.083 334.311 192.418 334.473 192.167 334.886C191.843 335.293 192.017 335.814 192.502 336.072Z" fill="#355C6D"/>
<path d="M187.052 341.55L196.823 345.839C197.314 346.025 197.979 345.864 198.231 345.451C198.554 345.044 198.387 344.451 197.896 344.265L188.124 339.975C187.633 339.789 186.969 339.951 186.717 340.364C186.388 340.843 186.489 341.358 187.052 341.55Z" fill="#355C6D"/>
</g>
<defs>
<filter id="filter0_f" x="119.347" y="223.401" width="357.181" height="309.996" filterUnits="userSpaceOnUse" color-interpolation-filters="sRGB">
<feFlood flood-opacity="0" result="BackgroundImageFix"/>
<feBlend mode="normal" in="SourceGraphic" in2="BackgroundImageFix" result="shape"/>
<feGaussianBlur stdDeviation="10" result="effect1_foregroundBlur"/>
</filter>
<linearGradient id="paint0_linear" x1="299.692" y1="353.154" x2="262.415" y2="415.403" gradientUnits="userSpaceOnUse">
<stop stop-color="#AB6C49"/>
<stop offset="1" stop-color="#CF8A63"/>
</linearGradient>
<linearGradient id="paint1_linear" x1="177.371" y1="350.25" x2="165.944" y2="373.48" gradientUnits="userSpaceOnUse">
<stop stop-color="#39221A"/>
<stop offset="1" stop-color="#5A382B"/>
</linearGradient>
<linearGradient id="paint2_linear" x1="171.862" y1="316.452" x2="169.465" y2="345.133" gradientUnits="userSpaceOnUse">
<stop stop-color="#48788C"/>
<stop offset="0.3802" stop-color="#54899F"/>
<stop offset="1" stop-color="#3E6B7E"/>
</linearGradient>
<radialGradient id="paint3_radial" cx="0" cy="0" r="1" gradientUnits="userSpaceOnUse" gradientTransform="translate(167.522 327.99) rotate(98.7037) scale(15.7202 7.84488)">
<stop stop-color="#B7DFEF"/>
<stop offset="1" stop-color="#85AFC0" stop-opacity="0"/>
</radialGradient>
<linearGradient id="paint4_linear" x1="195.39" y1="312.116" x2="166.398" y2="364.268" gradientUnits="userSpaceOnUse">
<stop offset="0.0248286" stop-color="#51879D"/>
<stop offset="0.394856" stop-color="#8BB4C4"/>
<stop offset="0.760763" stop-color="#51879D"/>
<stop offset="1" stop-color="#406C7E"/>
</linearGradient>
<radialGradient id="paint5_radial" cx="0" cy="0" r="1" gradientUnits="userSpaceOnUse" gradientTransform="translate(172.716 326.785) rotate(113.402) scale(20.2095 10.9334)">
<stop stop-color="#BCDEEC"/>
<stop offset="1" stop-color="#8AB3C3" stop-opacity="0"/>
</radialGradient>
<linearGradient id="paint6_linear" x1="231.289" y1="312.52" x2="199.715" y2="381.451" gradientUnits="userSpaceOnUse">
<stop stop-color="#51879D"/>
<stop offset="1" stop-color="#8BB4C4"/>
</linearGradient>
<radialGradient id="paint7_radial" cx="0" cy="0" r="1" gradientUnits="userSpaceOnUse" gradientTransform="translate(208.776 343.912) rotate(79.6475) scale(31.0997 20.3235)">
<stop stop-color="#B0D4E2"/>
<stop offset="1" stop-color="#B0D4E2" stop-opacity="0"/>
</radialGradient>
<linearGradient id="paint8_linear" x1="231.261" y1="326.89" x2="204.533" y2="383.467" gradientUnits="userSpaceOnUse">
<stop stop-color="#457488"/>
<stop offset="0.315908" stop-color="#51879D"/>
<stop offset="1" stop-color="#457488"/>
</linearGradient>
<linearGradient id="paint9_linear" x1="201.778" y1="361.882" x2="174.545" y2="359.606" gradientUnits="userSpaceOnUse">
<stop stop-color="#D3C2A5"/>
<stop offset="1" stop-color="#C2B19C"/>
</linearGradient>
<linearGradient id="paint10_linear" x1="226.512" y1="321.115" x2="190.872" y2="318.136" gradientUnits="userSpaceOnUse">
<stop stop-color="#D3C2A5"/>
<stop offset="1" stop-color="#C2B19C"/>
</linearGradient>
<linearGradient id="paint11_linear" x1="213.613" y1="338.886" x2="179.123" y2="336.004" gradientUnits="userSpaceOnUse">
<stop stop-color="#ECDCB2"/>
<stop offset="1" stop-color="#ECDCB2"/>
</linearGradient>
<radialGradient id="paint12_radial" cx="0" cy="0" r="1" gradientUnits="userSpaceOnUse" gradientTransform="translate(184.921 332.11) rotate(116.829) scale(12.4571 3.58521)">
<stop stop-color="#FAEECF"/>
<stop offset="1" stop-color="#FAEECF" stop-opacity="0"/>
</radialGradient>
<linearGradient id="paint13_linear" x1="378.71" y1="390.865" x2="345.246" y2="453.472" gradientUnits="userSpaceOnUse">
<stop stop-color="#457488"/>
<stop offset="1" stop-color="#608B9D"/>
</linearGradient>
<radialGradient id="paint14_radial" cx="0" cy="0" r="1" gradientUnits="userSpaceOnUse" gradientTransform="translate(362.697 421.64) rotate(94.7778) scale(35.6198 23.2899)">
<stop stop-color="#B0D4E2"/>
<stop offset="1" stop-color="#B0D4E2" stop-opacity="0"/>
</radialGradient>
<linearGradient id="paint15_linear" x1="380.369" y1="399.16" x2="351.721" y2="452.916" gradientUnits="userSpaceOnUse">
<stop stop-color="#508399"/>
<stop offset="0.416798" stop-color="#89B2C3"/>
<stop offset="1" stop-color="#426E81"/>
</linearGradient>
<radialGradient id="paint16_radial" cx="0" cy="0" r="1" gradientUnits="userSpaceOnUse" gradientTransform="translate(352.601 414.249) rotate(77.7038) scale(22.8909 14.813)">
<stop stop-color="#ACD1DF"/>
<stop offset="1" stop-color="#ACD1DF" stop-opacity="0"/>
</radialGradient>
<linearGradient id="paint17_linear" x1="294.989" y1="351.729" x2="289.061" y2="422.649" gradientUnits="userSpaceOnUse">
<stop stop-color="#51879D"/>
<stop offset="1" stop-color="#8BB4C4"/>
</linearGradient>
<radialGradient id="paint18_radial" cx="0" cy="0" r="1" gradientUnits="userSpaceOnUse" gradientTransform="translate(275.997 378.105) rotate(86.5705) scale(27.0777 17.6952)">
<stop stop-color="#B0D4E2"/>
<stop offset="1" stop-color="#B0D4E2" stop-opacity="0"/>
</radialGradient>
<linearGradient id="paint19_linear" x1="260.3" y1="334.792" x2="254.36" y2="405.856" gradientUnits="userSpaceOnUse">
<stop stop-color="#51879D"/>
<stop offset="1" stop-color="#8BB4C4"/>
</linearGradient>
<radialGradient id="paint20_radial" cx="0" cy="0" r="1" gradientUnits="userSpaceOnUse" gradientTransform="translate(244.181 356.568) rotate(94.7778) scale(29.1197 18.9911)">
<stop stop-color="#B0D4E2"/>
<stop offset="1" stop-color="#B0D4E2" stop-opacity="0"/>
</radialGradient>
<linearGradient id="paint21_linear" x1="236.088" y1="378.173" x2="208.855" y2="375.897" gradientUnits="userSpaceOnUse">
<stop stop-color="#D3C2A5"/>
<stop offset="1" stop-color="#C2B19C"/>
</linearGradient>
<linearGradient id="paint22_linear" x1="265.305" y1="343.44" x2="238.578" y2="400.017" gradientUnits="userSpaceOnUse">
<stop stop-color="#457488"/>
<stop offset="0.315908" stop-color="#51879D"/>
<stop offset="1" stop-color="#457488"/>
</linearGradient>
<linearGradient id="paint23_linear" x1="300.198" y1="360.108" x2="273.47" y2="416.684" gradientUnits="userSpaceOnUse">
<stop stop-color="#457488"/>
<stop offset="0.315908" stop-color="#51879D"/>
<stop offset="1" stop-color="#457488"/>
</linearGradient>
<linearGradient id="paint24_linear" x1="260.84" y1="337.406" x2="225.182" y2="334.426" gradientUnits="userSpaceOnUse">
<stop stop-color="#D3C2A5"/>
<stop offset="1" stop-color="#C2B19C"/>
</linearGradient>
<linearGradient id="paint25_linear" x1="247.926" y1="355.139" x2="213.436" y2="352.256" gradientUnits="userSpaceOnUse">
<stop stop-color="#ECDCB2"/>
<stop offset="1" stop-color="#ECDCB2"/>
</linearGradient>
<radialGradient id="paint26_radial" cx="0" cy="0" r="1" gradientUnits="userSpaceOnUse" gradientTransform="translate(220.066 348.539) rotate(114.476) scale(12.574 12.9796)">
<stop stop-color="#FAEECF"/>
<stop offset="1" stop-color="#FAEECF" stop-opacity="0"/>
</radialGradient>
<linearGradient id="paint27_linear" x1="270.779" y1="395.109" x2="243.546" y2="392.833" gradientUnits="userSpaceOnUse">
<stop stop-color="#D3C2A5"/>
<stop offset="1" stop-color="#C2B19C"/>
</linearGradient>
<linearGradient id="paint28_linear" x1="295.509" y1="354.305" x2="259.869" y2="351.326" gradientUnits="userSpaceOnUse">
<stop stop-color="#D3C2A5"/>
<stop offset="1" stop-color="#C2B19C"/>
</linearGradient>
<linearGradient id="paint29_linear" x1="282.544" y1="372.07" x2="248.063" y2="369.188" gradientUnits="userSpaceOnUse">
<stop stop-color="#ECDCB2"/>
<stop offset="1" stop-color="#ECDCB2"/>
</linearGradient>
<radialGradient id="paint30_radial" cx="0" cy="0" r="1" gradientUnits="userSpaceOnUse" gradientTransform="translate(254.215 364.594) rotate(116.225) scale(13.19 13.5871)">
<stop stop-color="#FAEECF"/>
<stop offset="1" stop-color="#FAEECF" stop-opacity="0"/>
</radialGradient>
<linearGradient id="paint31_linear" x1="377.139" y1="401.464" x2="372.571" y2="456.112" gradientUnits="userSpaceOnUse">
<stop stop-color="#457488"/>
<stop offset="1" stop-color="#84AFBF"/>
</linearGradient>
<linearGradient id="paint32_linear" x1="330.937" y1="369.205" x2="325.01" y2="440.125" gradientUnits="userSpaceOnUse">
<stop stop-color="#51879D"/>
<stop offset="1" stop-color="#8BB4C4"/>
</linearGradient>
<radialGradient id="paint33_radial" cx="0" cy="0" r="1" gradientUnits="userSpaceOnUse" gradientTransform="translate(313.242 393.502) rotate(93.3164) scale(25.2624 16.5089)">
<stop stop-color="#B0D4E2"/>
<stop offset="1" stop-color="#B0D4E2" stop-opacity="0"/>
</radialGradient>
<linearGradient id="paint34_linear" x1="336.026" y1="377.743" x2="309.299" y2="434.32" gradientUnits="userSpaceOnUse">
<stop stop-color="#457488"/>
<stop offset="0.315908" stop-color="#51879D"/>
<stop offset="1" stop-color="#457488"/>
</linearGradient>
<linearGradient id="paint35_linear" x1="306.725" y1="412.585" x2="279.492" y2="410.309" gradientUnits="userSpaceOnUse">
<stop stop-color="#D3C2A5"/>
<stop offset="1" stop-color="#C2B19C"/>
</linearGradient>
<linearGradient id="paint36_linear" x1="331.471" y1="371.782" x2="295.831" y2="368.803" gradientUnits="userSpaceOnUse">
<stop stop-color="#D3C2A5"/>
<stop offset="1" stop-color="#C2B19C"/>
</linearGradient>
<linearGradient id="paint37_linear" x1="318.563" y1="389.552" x2="284.073" y2="386.669" gradientUnits="userSpaceOnUse">
<stop stop-color="#ECDCB2"/>
<stop offset="1" stop-color="#ECDCB2"/>
</linearGradient>
<radialGradient id="paint38_radial" cx="0" cy="0" r="1" gradientUnits="userSpaceOnUse" gradientTransform="translate(290.585 382.152) rotate(116.814) scale(13.2441 13.6713)">
<stop stop-color="#FAEECF"/>
<stop offset="1" stop-color="#FAEECF" stop-opacity="0"/>
</radialGradient>
<linearGradient id="paint39_linear" x1="383.948" y1="414.516" x2="369.547" y2="442.328" gradientUnits="userSpaceOnUse">
<stop stop-color="#4E8196"/>
<stop offset="0.416015" stop-color="#82ACBD"/>
<stop offset="1" stop-color="#50869C"/>
</linearGradient>
<linearGradient id="paint40_linear" x1="385.771" y1="419.166" x2="383.904" y2="441.502" gradientUnits="userSpaceOnUse">
<stop stop-color="#568BA0"/>
<stop offset="1" stop-color="#84AFBF"/>
</linearGradient>
<radialGradient id="paint41_radial" cx="0" cy="0" r="1" gradientUnits="userSpaceOnUse" gradientTransform="translate(381.22 426.522) rotate(117.257) scale(9.81087 3.98909)">
<stop stop-color="#9DC8D9"/>
<stop offset="1" stop-color="#9DC8D9" stop-opacity="0"/>
</radialGradient>
<linearGradient id="paint42_linear" x1="329.214" y1="412.33" x2="326.529" y2="444.449" gradientUnits="userSpaceOnUse">
<stop stop-color="#D3C2A5"/>
<stop offset="1" stop-color="#C2B19C"/>
</linearGradient>
<linearGradient id="paint43_linear" x1="349.256" y1="376.17" x2="347.394" y2="398.445" gradientUnits="userSpaceOnUse">
<stop stop-color="#D3C2A5"/>
<stop offset="1" stop-color="#C2B19C"/>
</linearGradient>
<linearGradient id="paint44_linear" x1="397.522" y1="350.646" x2="417.628" y2="408.702" gradientUnits="userSpaceOnUse">
<stop stop-color="#6C4232"/>
<stop offset="1" stop-color="#845543"/>
</linearGradient>
<linearGradient id="paint45_linear" x1="280.44" y1="283.017" x2="255.715" y2="336.445" gradientUnits="userSpaceOnUse">
<stop stop-color="#AB6C48"/>
<stop offset="1" stop-color="#CF8A63"/>
</linearGradient>
<radialGradient id="paint46_radial" cx="0" cy="0" r="1" gradientUnits="userSpaceOnUse" gradientTransform="translate(272.212 342.815) rotate(-67.8482) scale(49.9742 108.066)">
<stop stop-color="#E3986E"/>
<stop offset="1" stop-color="#D99169" stop-opacity="0"/>
</radialGradient>
<linearGradient id="paint47_linear" x1="256.401" y1="414.023" x2="241.453" y2="450.963" gradientUnits="userSpaceOnUse">
<stop stop-color="#643C32"/>
<stop offset="1" stop-color="#462F28"/>
</linearGradient>
<linearGradient id="paint48_linear" x1="337.4" y1="388.413" x2="334.607" y2="421.825" gradientUnits="userSpaceOnUse">
<stop stop-color="#ECDCB2"/>
<stop offset="1" stop-color="#ECDCB2"/>
</linearGradient>
<radialGradient id="paint49_radial" cx="0" cy="0" r="1" gradientUnits="userSpaceOnUse" gradientTransform="translate(325.112 398.971) rotate(112.618) scale(13.3573 13.7882)">
<stop stop-color="#FAEECF"/>
<stop offset="1" stop-color="#FAEECF" stop-opacity="0"/>
</radialGradient>
</defs>
</svg>
