<svg width="760" height="600" viewBox="0 0 760 600" fill="none" xmlns="http://www.w3.org/2000/svg">
<path d="M513.82 72.575C519.92 66.475 529.72 66.475 535.82 72.575L554.12 90.875C560.22 96.975 560.22 106.775 554.12 112.875L536.02 131.075C529.92 137.175 520.12 137.175 514.02 131.075L495.72 112.775C489.62 106.675 489.62 96.875 495.72 90.775L513.82 72.575Z" fill="#405985"/>
<path d="M544.1 173.3C544.1 117.3 502.2 72 450.5 72H340.7C289 72 247 117.3 247 173.3V373.5C247 429.5 288.9 474.8 340.6 474.8H450.4C502.1 474.8 544 429.4 544 373.5V173.3H544.1Z" fill="#25395F"/>
<path d="M266.207 476.574C260.007 483.274 248.807 478.974 248.807 469.874V435.574C248.807 430.074 253.307 425.574 258.807 425.574H290.107C298.807 425.574 303.307 435.874 297.507 442.274L266.207 476.574Z" fill="#6E82A4"/>
<path d="M236.506 391.574C234.406 391.574 232.806 393.274 233.206 395.274C234.006 398.374 235.506 401.374 237.906 403.574C241.206 406.774 245.506 408.574 250.106 408.574C254.706 408.574 259.106 406.874 262.306 403.574C264.706 401.274 266.206 398.374 267.006 395.274C267.506 393.274 265.806 391.574 263.706 391.674C261.606 391.674 260.106 393.374 259.306 395.274C258.806 396.474 258.106 397.574 257.106 398.474C255.206 400.274 252.706 401.274 250.106 401.374C247.506 401.374 244.906 400.374 243.106 398.474C242.106 397.574 241.406 396.474 240.906 395.274C240.206 393.274 238.506 391.574 236.506 391.574Z" fill="#9AADCE"/>
<path d="M297.074 203.15C297.074 203.15 273.707 211.619 283.863 236.949C293.909 262.586 319.674 250.868 319.674 250.868L297.074 203.15Z" fill="#CAFFFC"/>
<path d="M434.28 221.694C409.356 250.506 413.119 258.61 432.668 274.151C494.976 319.768 518.187 421.865 506.094 455C482.938 472.5 467.75 476.372 411.955 476.372C381.938 476 343.438 475 343.938 475C325.938 428 330.785 352.86 371.707 282.759C375.034 276.03 377.08 265.728 358.206 267.057C339.332 268.386 308.179 258.987 298.032 234.903C286.14 204.32 289.647 153.244 354.813 138.946C419.978 124.648 459.204 192.881 434.28 221.694Z" fill="url(#paint0_linear)"/>
<path d="M347.121 185.183C325.005 194.481 303.717 214.62 310.475 233.236C317.233 251.852 344.436 249.652 369.61 239.159C394.784 228.667 411.68 209.712 403.401 192.281C395.122 174.85 369.238 175.886 347.121 185.183Z" fill="url(#paint1_linear)"/>
<path d="M328.98 228.79C328.837 230.797 330.331 232.658 332.332 232.855C334.336 232.998 336.194 231.502 336.391 229.497C336.534 227.491 335.04 225.629 333.039 225.432C331.04 225.181 329.179 226.731 328.98 228.79Z" fill="#8493AD"/>
<path d="M335.886 228.656C335.859 230.505 334.378 232.072 332.476 232.097C330.63 232.07 329.066 230.587 329.041 228.681C329.068 226.833 330.549 225.266 332.452 225.241C334.297 225.267 335.859 226.805 335.886 228.656Z" fill="#2B3760"/>
<path d="M332.614 226.446C333.026 226.954 332.717 227.811 331.929 228.429C331.196 229.049 330.269 229.117 329.857 228.61C329.445 228.102 329.754 227.245 330.542 226.627C331.332 225.954 332.202 225.938 332.614 226.446Z" fill="#364D98"/>
<path d="M331.514 226.778C331.615 226.945 331.492 227.266 331.209 227.526C330.929 227.731 330.601 227.771 330.443 227.655C330.344 227.433 330.465 227.167 330.748 226.907C331.031 226.647 331.413 226.61 331.514 226.778Z" fill="#C3D8F8"/>
<path d="M330.963 229.421C330.522 229.565 330.067 230.034 330.373 230.483C330.891 231.05 331.582 231.407 332.397 231.388C333.864 231.398 335.114 230.148 335.07 228.677C335.044 228.023 334.906 227.472 334.489 227.073C334.183 226.624 333.51 227.084 333.272 227.564C333.09 227.991 332.689 228.463 332.241 228.77C331.899 229.135 331.453 229.388 330.963 229.421Z" fill="#1B244A"/>
<path d="M376.353 208.569C376.21 210.576 377.704 212.438 379.705 212.635C381.709 212.777 383.567 211.281 383.764 209.277C383.907 207.27 382.413 205.409 380.412 205.212C378.413 204.96 376.553 206.511 376.353 208.569Z" fill="#8493AD"/>
<path d="M383.259 208.436C383.232 210.285 381.751 211.852 379.849 211.877C378.003 211.85 376.439 210.366 376.414 208.461C376.441 206.612 377.922 205.045 379.825 205.02C381.67 205.047 383.232 206.585 383.259 208.436Z" fill="#2B3760"/>
<path d="M379.987 206.225C380.399 206.733 380.09 207.59 379.302 208.208C378.569 208.829 377.642 208.897 377.23 208.389C376.818 207.881 377.127 207.024 377.915 206.406C378.705 205.733 379.575 205.717 379.987 206.225Z" fill="#364D98"/>
<path d="M378.887 206.557C378.988 206.725 378.865 207.046 378.582 207.305C378.302 207.51 377.974 207.55 377.816 207.435C377.717 207.213 377.838 206.946 378.121 206.686C378.404 206.427 378.786 206.389 378.887 206.557Z" fill="#C3D8F8"/>
<path d="M378.336 209.2C377.895 209.344 377.44 209.813 377.746 210.262C378.264 210.829 378.955 211.186 379.77 211.168C381.237 211.178 382.487 209.927 382.443 208.456C382.417 207.802 382.279 207.252 381.862 206.852C381.556 206.404 380.883 206.864 380.645 207.343C380.463 207.77 380.062 208.242 379.614 208.549C379.272 208.915 378.826 209.167 378.336 209.2Z" fill="#1B244A"/>
<path d="M419.127 155.258C418.706 155.456 418.321 155.744 418.057 156.128C411.345 165.874 426.477 198.799 438.226 203.877C439.095 204.253 440.102 204.067 440.897 203.551C471.965 183.379 442.654 144.212 419.127 155.258Z" fill="#CAFFFC"/>
<path d="M358.939 409C341.439 401.344 336.939 381.999 340.439 364.499C343.939 346.999 345.398 340.49 353.438 324.499C366.195 325.995 377.429 288.413 369.939 285C358.439 293.999 328.388 292.279 313.939 358.5C307.939 386 308.939 408.999 344.939 430C357.798 437.501 374.939 416 358.939 409Z" fill="url(#paint2_linear)"/>
<path d="M404.923 385.54V331.705L421.413 328.31V381.067L404.923 385.54Z" fill="#B7F8BC"/>
<path d="M404.923 385.54V331.705L387.463 328.31V381.067L404.923 385.54Z" fill="#90EEB6"/>
<path d="M404.923 331.705L395.223 312.445L404.923 306L414.623 312.445L404.923 331.705Z" fill="white"/>
<path d="M404.923 384.57L414.623 396.199L404.923 403L395.223 396.414L404.923 384.57Z" fill="#61E897"/>
<path d="M404.923 331.705L395.223 312.445L387.463 328.31L404.923 331.705Z" fill="#B7F8BC"/>
<path d="M404.922 384.465L414.622 396.21L421.412 380.69L404.922 384.465Z" fill="#90EEB6"/>
<path d="M421.413 328.31L414.623 312.445L404.923 331.705L421.413 328.31Z" fill="#DFFAEA"/>
<path d="M387.463 380.69L395.223 396.21L404.923 384.669L387.463 380.69Z" fill="#BFF5D5"/>
<path d="M364.545 448.594C367.729 448.351 369.154 442.02 363.575 436.106C365.95 437.43 370.863 439.808 377.444 442.046C384.015 444.282 397.407 444.951 395.439 438.888C394.855 437.088 389.017 438.526 383.363 436.816C379.78 435.731 376.283 434.396 374.273 432.469C375.872 432.4 379.239 434.039 384.784 435.337C391.607 436.934 402.542 436.047 400.411 431.075C399.448 428.827 394.882 430.934 387.625 429.654C383.396 428.908 380.805 427.584 376.68 425.748C386.524 428.944 400.411 429.544 400.411 424.682C400.411 422.266 394.671 422.818 390.075 422.551C385.42 422.279 381.877 421.191 376.847 419.201C379.086 419.027 395.504 423.683 392.206 417.578C391.67 416.586 388.112 417.089 383.363 416.157C374.515 414.422 358.481 409.45 351.314 407.245C342.144 404.424 327.474 404.43 333.959 417.577C338.081 427.54 349.681 432.682 354.07 436.815C358.757 441.227 360.367 448.912 364.545 448.594Z" fill="#3AEFE5"/>
<path d="M461.865 430.223C462.257 430.307 462.619 430.256 462.938 430C514.938 402.5 520.938 374 510.938 343.5C490.938 294 461.469 281.037 447.04 279.149C441.791 278.462 437.506 277.901 434.438 275.5C426.948 278.913 457.14 323.505 469.898 322.009L470.002 322.149C479.99 335.569 487.431 345.568 485.438 365C483.568 383.233 473.565 399.259 452.438 408L452.476 408.201C444.481 410.654 431.264 414.641 423.534 416.157C421.438 416.569 419.573 416.7 418.099 416.804C416.233 416.936 414.99 417.024 414.691 417.578C412.194 422.201 421.002 420.653 426.398 419.705C428.128 419.401 429.507 419.159 430.05 419.201C425.02 421.191 421.477 422.279 416.822 422.551C415.834 422.608 414.794 422.628 413.769 422.647C410.024 422.718 406.486 422.785 406.486 424.682C406.486 429.544 420.373 428.944 430.217 425.748C429.726 425.966 429.257 426.178 428.803 426.382C425.452 427.891 422.997 428.997 419.272 429.654C415.971 430.236 413.227 430.118 411.126 430.027C408.607 429.918 407.011 429.849 406.486 431.075C404.355 436.047 415.29 436.934 422.113 435.337C424.778 434.713 426.94 434.01 428.644 433.456C430.486 432.858 431.794 432.433 432.624 432.469C430.614 434.396 427.117 435.731 423.534 436.816C420.822 437.636 418.067 437.732 415.87 437.809C413.488 437.892 411.762 437.952 411.458 438.888C409.49 444.951 422.882 444.282 429.453 442.046C436.034 439.808 440.947 437.43 443.322 436.106C437.743 442.02 439.168 448.351 442.352 448.594C444.832 448.783 446.408 446.151 448.259 443.057C449.526 440.94 450.923 438.607 452.827 436.815C454.072 435.643 455.897 434.389 457.967 432.968C459.203 432.119 460.526 431.21 461.865 430.223Z" fill="#3AEFE5"/>
<path d="M461.865 430.223C462.257 430.307 462.619 430.256 462.938 430C514.938 402.5 520.938 374 510.938 343.5C490.938 294 461.469 281.037 447.04 279.149C441.791 278.462 437.506 277.901 434.438 275.5C426.948 278.913 457.14 323.505 469.898 322.009L470.002 322.149C479.99 335.569 487.431 345.568 485.438 365C483.568 383.233 473.565 399.259 452.438 408L452.476 408.201C444.481 410.654 431.264 414.641 423.534 416.157C421.438 416.569 419.573 416.7 418.099 416.804C416.233 416.936 414.99 417.024 414.691 417.578C412.194 422.201 421.002 420.653 426.398 419.705C428.128 419.401 429.507 419.159 430.05 419.201C425.02 421.191 421.477 422.279 416.822 422.551C415.834 422.608 414.794 422.628 413.769 422.647C410.024 422.718 406.486 422.785 406.486 424.682C406.486 429.544 420.373 428.944 430.217 425.748C429.726 425.966 429.257 426.178 428.803 426.382C425.452 427.891 422.997 428.997 419.272 429.654C415.971 430.236 413.227 430.118 411.126 430.027C408.607 429.918 407.011 429.849 406.486 431.075C404.355 436.047 415.29 436.934 422.113 435.337C424.778 434.713 426.94 434.01 428.644 433.456C430.486 432.858 431.794 432.433 432.624 432.469C430.614 434.396 427.117 435.731 423.534 436.816C420.822 437.636 418.067 437.732 415.87 437.809C413.488 437.892 411.762 437.952 411.458 438.888C409.49 444.951 422.882 444.282 429.453 442.046C436.034 439.808 440.947 437.43 443.322 436.106C437.743 442.02 439.168 448.351 442.352 448.594C444.832 448.783 446.408 446.151 448.259 443.057C449.526 440.94 450.923 438.607 452.827 436.815C454.072 435.643 455.897 434.389 457.967 432.968C459.203 432.119 460.526 431.21 461.865 430.223Z" fill="url(#paint3_linear)"/>
<defs>
<linearGradient id="paint0_linear" x1="400.802" y1="137.071" x2="400.802" y2="476.327" gradientUnits="userSpaceOnUse">
<stop stop-color="#3FF3E9"/>
<stop offset="0.640412" stop-color="#17D6CA"/>
<stop offset="1" stop-color="#0FC6BB"/>
</linearGradient>
<linearGradient id="paint1_linear" x1="357.363" y1="178.578" x2="357.363" y2="247.158" gradientUnits="userSpaceOnUse">
<stop stop-color="white"/>
<stop offset="0.651042" stop-color="#E2FFFD"/>
<stop offset="1" stop-color="#E2FFFD"/>
</linearGradient>
<linearGradient id="paint2_linear" x1="303.239" y1="297.815" x2="319.804" y2="367.37" gradientUnits="userSpaceOnUse">
<stop stop-color="#22DDD2"/>
<stop offset="0.583083" stop-color="#22DDD2"/>
<stop offset="1" stop-color="#3AEFE5"/>
</linearGradient>
<linearGradient id="paint3_linear" x1="423.354" y1="271.766" x2="423.354" y2="361.162" gradientUnits="userSpaceOnUse">
<stop stop-color="#22DDD2"/>
<stop offset="0.583083" stop-color="#22DDD2"/>
<stop offset="1" stop-color="#3AEFE5"/>
</linearGradient>
</defs>
</svg>
