<svg width="760" height="600" viewBox="0 0 760 600" fill="none" xmlns="http://www.w3.org/2000/svg">
<path d="M568.124 169.478C568.115 156.389 553.888 148.176 542.596 154.631L504.292 176.346C493.4 182.487 492.722 197.905 503.058 205.072L541.487 231.947C552.797 239.894 568.303 231.838 568.331 218.116L568.124 169.478Z" fill="#FF9176"/>
<path d="M247 173.3C247 117.3 288.9 72 340.6 72H450.4C502.1 72 544 117.4 544 173.3V373.5C544 429.5 502.1 474.8 450.4 474.8H340.7C289 474.8 247.1 429.4 247.1 373.5L247 173.3Z" fill="url(#paint0_linear)"/>
<path d="M237.589 417.748C239.589 416.648 240.289 414.048 239.089 412.048L228.789 394.248C227.689 392.248 225.089 391.548 223.089 392.748C221.089 393.848 220.389 396.448 221.589 398.448L231.889 416.248C232.989 418.248 235.589 418.848 237.589 417.748Z" fill="url(#paint1_linear)"/>
<path d="M257.606 419.284C257.798 408.785 270.706 403.9 277.674 411.712L303.938 441.157C308.15 445.878 307.733 453.187 303.011 457.399L276.142 481.366C268.673 488.028 256.923 482.632 257.001 472.696L257.606 419.284Z" fill="#628BF2"/>
<path fill-rule="evenodd" clip-rule="evenodd" d="M441 357L349 357C350.688 367.529 350.519 380.126 355.395 389.912L367.938 415.08C370.314 419.849 373.925 424.006 378.453 427.186L389.401 434.876C393.436 437.71 399.028 437.708 403.06 434.871L413.307 427.662C418.274 424.168 422.126 419.504 424.46 414.16L435.304 389.326C439.583 379.526 439.418 367.368 441 357Z" fill="url(#paint2_linear)"/>
<path d="M396.429 362.283V203.713L445 193.713V349.108L396.429 362.283Z" fill="url(#paint3_linear)"/>
<path d="M396.429 362.283V203.713L345 193.713V349.108L396.429 362.283Z" fill="url(#paint4_linear)"/>
<path d="M396.428 203.714L367.856 146.984L396.428 128L424.999 146.984L396.428 203.714Z" fill="url(#paint5_linear)"/>
<path d="M396.428 359.427L424.999 393.679L396.428 413.713L367.856 394.314L396.428 359.427Z" fill="url(#paint6_linear)"/>
<path d="M396.428 203.714L367.857 146.984L345 193.714L396.428 203.714Z" fill="url(#paint7_linear)"/>
<path d="M396.428 359.118L424.999 393.713L444.999 347.999L396.428 359.118Z" fill="url(#paint8_linear)"/>
<path d="M445 193.714L425 146.984L396.429 203.714L445 193.714Z" fill="#DFFAEA"/>
<path d="M345 347.999L367.857 393.713L396.429 359.72L345 347.999Z" fill="url(#paint9_linear)"/>
<circle cx="478.651" cy="364.597" r="7.5" transform="rotate(42.8416 478.651 364.597)" fill="white"/>
<circle cx="484.145" cy="360.144" r="18.5" transform="rotate(42.8416 484.145 360.144)" fill="white" fill-opacity="0.4"/>
<circle cx="471.032" cy="180.118" r="7.5" transform="rotate(-75 471.032 180.118)" fill="white"/>
<circle cx="480.977" cy="187.44" r="14" transform="rotate(-75 480.977 187.44)" fill="white" fill-opacity="0.4"/>
<circle cx="326.313" cy="142.267" r="5" transform="rotate(-49.883 326.313 142.267)" fill="white"/>
<ellipse cx="322.064" cy="146.534" rx="9" ry="9.5" transform="rotate(-49.883 322.064 146.534)" fill="white" fill-opacity="0.4"/>
<circle cx="301.5" cy="357.5" r="7.5" fill="white"/>
<circle cx="294" cy="350" r="10" fill="white" fill-opacity="0.4"/>
<circle cx="341" cy="271" r="9" fill="white"/>
<circle cx="330" cy="266" r="19" fill="white" fill-opacity="0.4"/>
<defs>
<linearGradient id="paint0_linear" x1="381.5" y1="483.5" x2="381.5" y2="72" gradientUnits="userSpaceOnUse">
<stop stop-color="#A6F7C7"/>
<stop offset="1" stop-color="#C5F9B3"/>
</linearGradient>
<linearGradient id="paint1_linear" x1="234.625" y1="401.869" x2="227.773" y2="407.275" gradientUnits="userSpaceOnUse">
<stop stop-color="#FFF384"/>
<stop offset="1" stop-color="#FFE485"/>
</linearGradient>
<linearGradient id="paint2_linear" x1="395" y1="356.567" x2="395" y2="437.076" gradientUnits="userSpaceOnUse">
<stop stop-color="#87EFAA"/>
<stop offset="0.612928" stop-color="#9DF0B9"/>
<stop offset="1" stop-color="#A8F7C6"/>
</linearGradient>
<linearGradient id="paint3_linear" x1="420.714" y1="193.713" x2="420.714" y2="362.283" gradientUnits="userSpaceOnUse">
<stop stop-color="#AAFFDB"/>
<stop offset="1" stop-color="#42F7E6"/>
</linearGradient>
<linearGradient id="paint4_linear" x1="370.684" y1="193.748" x2="370.684" y2="362.262" gradientUnits="userSpaceOnUse">
<stop stop-color="#0FC6BB"/>
<stop offset="1" stop-color="#20F3DF"/>
</linearGradient>
<linearGradient id="paint5_linear" x1="396.428" y1="128" x2="396.428" y2="203.714" gradientUnits="userSpaceOnUse">
<stop stop-color="#42F7E6"/>
<stop offset="1" stop-color="#11CBBF"/>
</linearGradient>
<linearGradient id="paint6_linear" x1="396.394" y1="413.702" x2="396.394" y2="359.435" gradientUnits="userSpaceOnUse">
<stop stop-color="#A6FFD4"/>
<stop offset="0.369792" stop-color="#A0FFE1"/>
<stop offset="1" stop-color="#1FF1DD"/>
</linearGradient>
<linearGradient id="paint7_linear" x1="396" y1="204" x2="352" y2="179.5" gradientUnits="userSpaceOnUse">
<stop stop-color="#37EACA"/>
<stop offset="1" stop-color="#71F9E2"/>
</linearGradient>
<linearGradient id="paint8_linear" x1="420.685" y1="393.703" x2="390.982" y2="364" gradientUnits="userSpaceOnUse">
<stop stop-color="#54F8E6"/>
<stop offset="1" stop-color="#0FC6BB"/>
</linearGradient>
<linearGradient id="paint9_linear" x1="370.684" y1="393.703" x2="401.388" y2="363" gradientUnits="userSpaceOnUse">
<stop stop-color="#57F8E6"/>
<stop offset="1" stop-color="#0FC6BB"/>
</linearGradient>
</defs>
</svg>
