<svg width="760" height="600" viewBox="0 0 760 600" fill="none" xmlns="http://www.w3.org/2000/svg">
<path d="M529.4 380.087C517.6 370.487 500 378.887 500 393.987L500 456.287C500 472.387 519.6 480.387 530.9 468.887L564.7 434.287C572.1 426.687 571.4 414.487 563.2 407.787L529.4 380.087Z" fill="#FFCA62"/>
<path d="M247 173.3C247 117.3 288.9 72 340.6 72H450.4C502.1 72 544 117.4 544 173.3V373.5C544 429.5 502.1 474.8 450.4 474.8H340.6C288.9 474.8 247 429.4 247 373.5V173.3Z" fill="url(#paint0_linear)"/>
<path d="M247.5 198C259.374 198 269 188.374 269 176.5C269 164.626 259.374 155 247.5 155C235.626 155 226 164.626 226 176.5C226 188.374 235.626 198 247.5 198Z" fill="url(#paint1_linear)"/>
<path d="M530.359 349C528.359 349 526.659 350.7 527.059 352.7C527.759 355.8 529.359 358.7 531.759 361C534.959 364.2 539.359 366 543.959 366C548.559 366 552.959 364.2 556.159 361C558.459 358.7 560.159 355.8 560.859 352.7C561.359 350.7 559.659 349 557.559 349C555.559 349 553.959 350.7 553.159 352.6C552.659 353.8 551.959 354.9 550.959 355.9C549.059 357.7 546.559 358.7 543.959 358.7C541.359 358.7 538.859 357.7 536.959 355.9C535.959 355 535.259 353.9 534.759 352.6C533.959 350.8 532.359 349 530.359 349Z" fill="#FF7A59"/>
<path d="M447.843 200.048C447.774 200.073 447.774 200.073 447.843 200.048L352.877 198.185C351.313 198.128 350.156 198.774 349.673 199.796L318.138 269.663C318.138 269.663 318.138 269.663 318.206 269.638C317.943 270.196 317.865 270.841 318.11 271.525L342.711 348.599C343.329 350.539 345.779 352.207 348.193 352.269L443.09 354.156C444.722 354.189 445.88 353.542 446.27 352.477C446.27 352.477 446.27 352.477 446.226 352.57L477.761 282.703C478.024 282.146 478.033 281.525 477.788 280.841L453.8 205.477C453.8 205.477 452.739 200.146 447.843 200.048ZM319.808 268.293L319.739 268.318L319.808 268.293ZM318.406 269.335C318.338 269.36 318.338 269.36 318.406 269.335C318.338 269.36 318.338 269.36 318.406 269.335ZM319.329 268.465C319.261 268.489 319.261 268.489 319.261 268.489C319.285 268.557 319.329 268.465 319.329 268.465ZM319.036 268.724C318.968 268.748 318.968 268.748 318.924 268.841C318.968 268.748 318.968 268.748 319.036 268.724ZM318.65 268.939C318.65 268.939 318.582 268.964 318.606 269.032C318.606 269.032 318.675 269.008 318.65 268.939ZM320.15 268.171C320.218 268.146 320.218 268.146 320.287 268.122C320.311 268.19 320.243 268.214 320.15 268.171ZM320.677 268.136C320.746 268.111 320.746 268.111 320.814 268.087C320.746 268.111 320.746 268.111 320.677 268.136ZM446.402 352.198C446.402 352.198 446.377 352.13 446.445 352.105L446.402 352.198ZM446.46 351.714L446.435 351.646C446.504 351.621 446.528 351.69 446.46 351.714ZM446.449 351.255C446.425 351.187 446.425 351.187 446.4 351.118C446.425 351.187 446.449 351.255 446.449 351.255Z" fill="#C3D0E4"/>
<path d="M453.027 277.21L388.947 276.475C385.545 276.459 382.509 274.229 381.518 271.034L368.176 229.05C366.568 223.916 370.541 218.634 376.058 218.741L435.105 219.427C438.506 219.443 441.543 221.673 442.533 224.868L457.38 271.483C458.248 274.336 456.062 277.28 453.027 277.21Z" fill="white"/>
<path d="M351.923 324.767L337.056 278.314C336.071 275.349 336.322 272.172 337.546 269.341L355.92 228.651C356.359 227.722 357.693 227.785 358.036 228.742L373.893 278.391C374.388 279.988 374.336 281.782 373.59 283.361L354.777 324.98C354.299 326.231 352.413 326.135 351.923 324.767Z" fill="white"/>
<path d="M364.526 328.508L381.125 291.695C382.047 289.744 383.995 288.506 386.155 288.504L451.443 289.809C454.019 289.89 455.732 292.517 454.659 294.908L437.577 332.743C436.963 334.043 435.649 334.9 434.246 334.862C423.926 334.701 382.73 333.871 367.742 333.607C365.166 333.526 363.429 330.83 364.526 328.508Z" fill="white"/>
<path d="M477.453 284.868C478.307 282.83 478.415 280.591 477.786 278.472L454.932 201.525C454.29 199.517 451.747 197.804 449.265 197.767L416.789 269.746C419.271 269.783 421.814 271.495 422.456 273.503L447.822 352.927C448.067 353.611 448.014 354.325 447.726 354.814C453.387 342.267 472.3 297.172 477.453 284.868ZM448.163 326.954L432.753 278.766C431.811 275.708 431.945 272.419 433.281 269.471L452.357 227.295C452.772 226.297 454.199 226.404 454.566 227.429L470.991 278.881C471.511 280.547 471.391 282.365 470.669 284.012L451.178 327.186C450.564 328.486 448.609 328.415 448.163 326.954Z" fill="#D9E1EF"/>
<path d="M447.813 352.927L422.448 273.503C421.806 271.495 419.263 269.782 416.78 269.745L319.01 267.807C316.527 267.77 315.024 269.389 315.666 271.397L341.031 350.821C341.673 352.829 344.216 354.542 346.699 354.578L444.469 356.517C446.952 356.553 448.455 354.934 447.813 352.927ZM427.849 345.88L356.194 344.463C352.377 344.364 349.012 341.866 347.851 338.192L332.538 290.278C330.661 284.391 335.102 278.479 341.24 278.595L407.285 279.86C411.102 279.959 414.467 282.458 415.628 286.132L432.622 339.385C433.705 342.624 431.25 345.896 427.849 345.88Z" fill="url(#paint2_linear)"/>
<g style="mix-blend-mode:multiply">
<path d="M334.883 252.007L353.866 209.787C354.895 207.489 357.161 206.06 359.599 206.19L434.451 207.696C437.417 207.791 439.346 210.804 438.166 213.542L418.612 256.969C417.909 258.456 416.415 259.454 414.783 259.421C402.967 259.179 355.701 258.208 338.529 257.877C335.562 257.783 333.61 254.701 334.883 252.007Z" fill="#95F2FF"/>
</g>
<g style="mix-blend-mode:multiply">
<path d="M427.928 346.082L356.248 344.598C352.431 344.499 349.067 342 347.905 338.326L332.544 290.275C330.666 284.389 335.108 278.476 341.245 278.592L407.315 279.926C411.132 280.025 414.496 282.524 415.658 286.198L432.701 339.588C433.784 342.827 431.329 346.099 427.928 346.082Z" fill="#95F2FF"/>
</g>
<g style="mix-blend-mode:multiply">
<path d="M448.164 326.95L432.753 278.762C431.812 275.704 431.946 272.415 433.282 269.467L452.358 227.291C452.772 226.294 454.199 226.4 454.567 227.425L470.992 278.877C471.512 280.543 471.391 282.361 470.67 284.008L451.179 327.182C450.565 328.482 448.61 328.411 448.164 326.95Z" fill="#95F2FF"/>
</g>
<path d="M426.832 263.748L453.53 204.72C454.954 201.586 452.805 197.957 449.355 197.804L449.287 197.829L354.051 195.936C350.039 195.764 347.289 197.884 346.257 200.635L315.767 269.505C316.25 268.483 317.408 267.837 319.04 267.869L416.811 269.808L416.879 269.783C421.087 269.896 425.057 267.625 426.832 263.748ZM334.911 252.075L353.919 209.923C354.973 207.693 357.214 206.196 359.653 206.326L434.48 207.763C437.422 207.79 439.374 210.871 438.17 213.541L418.592 256.9C417.889 258.386 416.395 259.385 414.763 259.352C402.946 259.109 355.705 258.207 338.533 257.877C335.591 257.85 333.731 254.812 334.911 252.075Z" fill="url(#paint3_linear)"/>
<path d="M455.494 203.322C455.274 202.707 454.399 202.634 454.16 203.26L425.8 266.048C423.654 270.829 423.361 276.259 424.92 281.256L447.791 352.854C448.036 353.538 447.983 354.252 447.695 354.74C478.426 286.745 478.91 276.473 455.494 203.322ZM448.157 326.949L432.746 278.761C431.805 275.703 431.939 272.414 433.275 269.466L452.351 227.29C452.765 226.293 454.192 226.399 454.56 227.425L470.985 278.876C471.505 280.542 471.384 282.36 470.663 284.007L451.172 327.181C450.558 328.481 448.603 328.41 448.157 326.949Z" fill="#D9E1EF"/>
<path d="M390.528 304.295C390.528 307.553 387.888 310.193 384.63 310.193C381.372 310.193 378.731 307.553 378.731 304.295C378.731 301.037 381.372 298.396 384.63 298.396C387.888 298.396 390.528 301.037 390.528 304.295Z" fill="white" fill-opacity="0.7"/>
<path d="M388.169 304.292C388.169 306.247 386.585 307.831 384.63 307.831C382.675 307.831 381.091 306.247 381.091 304.292C381.091 302.337 382.675 300.753 384.63 300.753C386.585 300.753 388.169 302.337 388.169 304.292Z" fill="white"/>
<g opacity="0.59">
<path d="M410.667 243.443C410.667 248.714 406.394 252.986 401.123 252.986C395.853 252.986 391.58 248.714 391.58 243.443C391.58 238.172 395.853 233.899 401.123 233.899C406.394 233.899 410.667 238.172 410.667 243.443Z" fill="white" fill-opacity="0.7"/>
<path d="M406.849 243.446C406.849 246.608 404.285 249.172 401.123 249.172C397.96 249.172 395.396 246.608 395.396 243.446C395.396 240.283 397.96 237.72 401.123 237.72C404.285 237.72 406.849 240.283 406.849 243.446Z" fill="white"/>
</g>
<g opacity="0.69">
<path d="M492.158 234.468C492.158 237.44 489.749 239.85 486.777 239.85C483.805 239.85 481.396 237.44 481.396 234.468C481.396 231.496 483.805 229.087 486.777 229.087C489.749 229.087 492.158 231.496 492.158 234.468Z" fill="white" fill-opacity="0.7"/>
<path d="M490.004 234.47C490.004 236.253 488.558 237.699 486.775 237.699C484.991 237.699 483.546 236.253 483.546 234.47C483.546 232.687 484.991 231.241 486.775 231.241C488.558 231.241 490.004 232.687 490.004 234.47Z" fill="white"/>
</g>
<g opacity="0.75">
<path d="M403.334 120.297C403.334 124.327 400.067 127.594 396.037 127.594C392.007 127.594 388.74 124.327 388.74 120.297C388.74 116.267 392.007 113 396.037 113C400.067 113 403.334 116.267 403.334 120.297Z" fill="white" fill-opacity="0.7"/>
<path d="M400.416 120.295C400.416 122.713 398.456 124.673 396.038 124.673C393.62 124.673 391.66 122.713 391.66 120.295C391.66 117.877 393.62 115.917 396.038 115.917C398.456 115.917 400.416 117.877 400.416 120.295Z" fill="white"/>
</g>
<path d="M434.562 175.501C434.562 179.481 431.335 182.707 427.355 182.707C423.375 182.707 420.148 179.481 420.148 175.501C420.148 171.52 423.375 168.294 427.355 168.294C431.335 168.294 434.562 171.52 434.562 175.501Z" fill="white" fill-opacity="0.7"/>
<path d="M431.678 175.497C431.678 177.885 429.742 179.821 427.354 179.821C424.966 179.821 423.03 177.885 423.03 175.497C423.03 173.109 424.966 171.173 427.354 171.173C429.742 171.173 431.678 173.109 431.678 175.497Z" fill="white"/>
<g opacity="0.5">
<path d="M371.034 164.449C371.034 167.205 368.8 169.439 366.043 169.439C363.287 169.439 361.053 167.205 361.053 164.449C361.053 161.692 363.287 159.458 366.043 159.458C368.8 159.458 371.034 161.692 371.034 164.449Z" fill="white" fill-opacity="0.7"/>
<path d="M369.036 164.449C369.036 166.103 367.695 167.444 366.041 167.444C364.388 167.444 363.047 166.103 363.047 164.449C363.047 162.796 364.388 161.455 366.041 161.455C367.695 161.455 369.036 162.796 369.036 164.449Z" fill="white"/>
</g>
<g filter="url(#filter0_f)">
<path d="M429.549 375.946C429.549 377.43 428.346 378.633 426.862 378.633C425.378 378.633 424.175 377.43 424.175 375.946C424.175 374.462 425.378 373.259 426.862 373.259C428.346 373.259 429.549 374.462 429.549 375.946Z" fill="white" fill-opacity="0.7"/>
</g>
<path d="M428.476 375.948C428.476 376.839 427.755 377.56 426.864 377.56C425.974 377.56 425.252 376.839 425.252 375.948C425.252 375.058 425.974 374.336 426.864 374.336C427.755 374.336 428.476 375.058 428.476 375.948Z" fill="white"/>
<g opacity="0.8">
<path d="M386.623 388.344C386.623 390.915 384.538 393 381.968 393C379.397 393 377.313 390.915 377.313 388.344C377.313 385.774 379.397 383.689 381.968 383.689C384.538 383.689 386.623 385.774 386.623 388.344Z" fill="white" fill-opacity="0.7"/>
<path d="M384.762 388.343C384.762 389.885 383.511 391.136 381.969 391.136C380.426 391.136 379.176 389.885 379.176 388.343C379.176 386.8 380.426 385.55 381.969 385.55C383.511 385.55 384.762 386.8 384.762 388.343Z" fill="white"/>
</g>
<path d="M453.958 293.344C453.958 298.027 450.161 301.824 445.477 301.824C440.794 301.824 436.997 298.027 436.997 293.344C436.997 288.66 440.794 284.863 445.477 284.863C450.161 284.863 453.958 288.66 453.958 293.344Z" fill="white" fill-opacity="0.7"/>
<path d="M450.563 293.344C450.563 296.154 448.285 298.432 445.475 298.432C442.665 298.432 440.387 296.154 440.387 293.344C440.387 290.534 442.665 288.256 445.475 288.256C448.285 288.256 450.563 290.534 450.563 293.344Z" fill="white"/>
<g opacity="0.51">
<path d="M417.608 324.309C417.608 328.993 413.811 332.79 409.128 332.79C404.444 332.79 400.647 328.993 400.647 324.309C400.647 319.626 404.444 315.829 409.128 315.829C413.811 315.829 417.608 319.626 417.608 324.309Z" fill="white" fill-opacity="0.7"/>
<path d="M414.213 324.304C414.213 327.114 411.935 329.392 409.125 329.392C406.315 329.392 404.037 327.114 404.037 324.304C404.037 321.494 406.315 319.216 409.125 319.216C411.935 319.216 414.213 321.494 414.213 324.304Z" fill="white"/>
</g>
<defs>
<filter id="filter0_f" x="420.175" y="369.259" width="13.374" height="13.374" filterUnits="userSpaceOnUse" color-interpolation-filters="sRGB">
<feFlood flood-opacity="0" result="BackgroundImageFix"/>
<feBlend mode="normal" in="SourceGraphic" in2="BackgroundImageFix" result="shape"/>
<feGaussianBlur stdDeviation="2" result="effect1_foregroundBlur"/>
</filter>
<linearGradient id="paint0_linear" x1="395.515" y1="72.0131" x2="395.515" y2="474.863" gradientUnits="userSpaceOnUse">
<stop stop-color="#95F2FF"/>
<stop offset="1" stop-color="#82E1FE"/>
</linearGradient>
<linearGradient id="paint1_linear" x1="247.5" y1="155" x2="247.5" y2="198" gradientUnits="userSpaceOnUse">
<stop stop-color="#1DD5C6"/>
<stop offset="1" stop-color="#18CBBD"/>
</linearGradient>
<linearGradient id="paint2_linear" x1="433.313" y1="353.436" x2="323.817" y2="269.967" gradientUnits="userSpaceOnUse">
<stop stop-color="#A3C5DC"/>
<stop offset="1" stop-color="#D3D3E7"/>
</linearGradient>
<linearGradient id="paint3_linear" x1="370.493" y1="201.75" x2="420.754" y2="270.859" gradientUnits="userSpaceOnUse">
<stop stop-color="#E5E6F3"/>
<stop offset="1" stop-color="white"/>
</linearGradient>
</defs>
</svg>
