<svg width="760" height="600" viewBox="0 0 760 600" fill="none" xmlns="http://www.w3.org/2000/svg">
<path d="M247 173.3C247 117.4 288.9 72 340.6 72H450.4C502.1 72 544 117.4 544 173.3V373.5C544 429.5 502.1 474.8 450.4 474.8H340.6C288.9 474.8 247 429.4 247 373.5V173.3Z" fill="url(#paint0_linear)"/>
<path d="M280.907 472C287.107 478.7 298.307 474.4 298.307 465.3V431C298.307 425.5 293.807 421 288.307 421H257.007C248.307 421 243.807 431.3 249.607 437.7L280.907 472Z" fill="#628BF2"/>
<path d="M233.362 127C231.262 127 229.662 128.7 230.062 130.7C230.862 133.8 232.362 136.8 234.762 139C238.062 142.2 242.362 144 246.962 144C251.562 144 255.962 142.3 259.162 139C261.562 136.7 263.062 133.8 263.862 130.7C264.362 128.7 262.662 127 260.562 127.1C258.462 127.1 256.962 128.8 256.162 130.7C255.662 131.9 254.962 133 253.962 133.9C252.062 135.7 249.562 136.7 246.962 136.8C244.362 136.8 241.762 135.8 239.962 133.9C238.962 133 238.262 131.9 237.762 130.7C237.062 128.7 235.362 127 233.362 127Z" fill="#FF8B5C"/>
<path d="M363.353 254.983C358.407 254.983 348.419 255.269 339.193 243.283C329.966 231.298 317.6 215.984 297.91 220.169C278.22 224.354 264.903 256.6 293.439 287.515C321.976 318.429 363.353 318.524 363.353 318.524V254.983Z" fill="url(#paint1_linear)"/>
<path opacity="0.35" d="M311.893 256.887C313.224 258.599 313.129 261.357 311.798 263.165C310.466 264.972 308.278 265.067 307.042 263.45C305.71 261.738 303.998 255.555 305.329 253.748C306.566 251.94 310.561 255.269 311.893 256.887Z" fill="#2B3760"/>
<path d="M288.298 263.001C288.639 265.129 290.681 266.661 292.809 266.321C294.937 265.98 296.469 263.938 296.128 261.81C295.788 259.682 293.745 258.15 291.618 258.491C289.49 258.746 287.958 260.789 288.298 263.001Z" fill="#2397AA"/>
<path d="M288.8 262.131C289.173 264.272 291.127 265.761 293.361 265.482C295.502 265.11 296.991 263.155 296.711 260.921C296.339 258.781 294.385 257.292 292.151 257.571C290.01 257.943 288.521 259.991 288.8 262.131Z" fill="#2B3760"/>
<path d="M292.151 258.966C291.778 259.617 292.244 260.548 293.268 261.107C294.198 261.665 295.315 261.572 295.688 260.92C296.06 260.269 295.595 259.338 294.571 258.78C293.547 258.221 292.523 258.314 292.151 258.966Z" fill="#364D98"/>
<path d="M293.454 259.152C293.361 259.338 293.547 259.711 293.92 259.99C294.292 260.176 294.664 260.176 294.85 259.99C294.944 259.711 294.757 259.432 294.385 259.152C294.013 258.966 293.547 258.966 293.454 259.152Z" fill="#C3D8F8"/>
<path d="M294.571 262.131C295.129 262.224 295.688 262.689 295.408 263.247C294.943 263.992 294.198 264.55 293.268 264.643C291.592 264.923 289.917 263.713 289.731 262.037C289.638 261.293 289.731 260.641 290.103 260.083C290.382 259.524 291.22 259.897 291.592 260.455C291.872 260.921 292.43 261.386 292.988 261.665C293.454 261.944 294.012 262.131 294.571 262.131Z" fill="#1B244A"/>
<path d="M306.6 241.977C306.942 244.112 308.991 245.648 311.125 245.307C313.259 244.965 314.796 242.916 314.454 240.782C314.113 238.648 312.064 237.111 309.93 237.453C307.795 237.709 306.259 239.758 306.6 241.977Z" fill="#2397AA"/>
<path d="M307.166 241.251C307.539 243.391 309.493 244.88 311.727 244.601C313.868 244.229 315.357 242.274 315.078 240.041C314.705 237.9 312.751 236.411 310.517 236.69C308.376 237.062 306.887 239.11 307.166 241.251Z" fill="#2B3760"/>
<path d="M310.517 238.086C310.145 238.738 310.61 239.668 311.634 240.227C312.565 240.785 313.681 240.692 314.054 240.041C314.426 239.389 313.961 238.458 312.937 237.9C311.913 237.341 310.889 237.435 310.517 238.086Z" fill="#364D98"/>
<path d="M311.819 238.271C311.726 238.458 311.912 238.83 312.284 239.109C312.656 239.295 313.029 239.295 313.215 239.109C313.308 238.83 313.122 238.551 312.749 238.271C312.377 238.085 311.912 238.085 311.819 238.271Z" fill="#C3D8F8"/>
<path d="M312.936 241.252C313.494 241.345 314.053 241.81 313.774 242.368C313.308 243.113 312.564 243.671 311.633 243.765C309.958 244.044 308.282 242.834 308.096 241.159C308.003 240.414 308.096 239.762 308.468 239.204C308.748 238.646 309.585 239.018 309.958 239.576C310.237 240.042 310.795 240.507 311.354 240.786C311.819 241.065 312.377 241.252 312.936 241.252Z" fill="#1B244A"/>
<path d="M313.319 255.65C315.032 256.887 315.412 259.36 314.176 261.072C312.939 262.784 310.466 263.165 308.754 261.928C307.041 260.691 303.998 255.555 305.234 253.843C306.471 252.035 311.607 254.318 313.319 255.65Z" fill="#FFE37A"/>
<path d="M456.858 245.756L456.478 376.072L395.695 411.362L396.076 281.141L456.858 245.756Z" fill="url(#paint2_linear)"/>
<path d="M455.621 376.833L432.697 389.96L421.948 383.777L444.872 370.65L455.621 376.833Z" fill="white"/>
<path d="M396.075 281.141L395.694 411.362L334.531 376.072L334.912 245.756L396.075 281.141Z" fill="#89D1EF"/>
<path d="M418.999 333.334C418.999 350.5 418.999 350.5 418.999 350.5L441.923 363.678C441.923 363.678 441.923 343.322 441.923 324.488C441.923 305.654 418.999 308.418 418.999 333.334Z" fill="#3374B0"/>
<path d="M345.526 346.202C345.716 346.868 357.702 385.772 360.08 394.524C360.365 395.665 359.985 396.616 358.938 396.997C347.333 401.372 338.202 400.611 329.926 395.57C328.214 394.524 327.643 393.953 328.214 392.336C331.734 382.443 342.768 348.104 343.529 346.107C344.48 343.919 345.336 345.536 345.526 346.202Z" fill="url(#paint3_linear)"/>
<path d="M369.848 343.95C370.12 344.821 389.249 401.439 393.533 414.155C394.07 415.785 393.595 417.143 392.094 418.005C386.291 421.112 369.234 428.86 347.707 420.691C345.441 419.825 345.02 418.298 345.671 416.155C349.937 401.836 366.046 347.162 366.977 344.117C368.103 340.617 369.57 342.969 369.848 343.95Z" fill="url(#paint4_linear)"/>
<path d="M452.672 369.89L429.748 383.017L418.999 376.739L419.009 350.462L452.672 369.89Z" fill="white"/>
<path d="M459.14 384.159L436.216 397.286L425.372 391.008L448.296 377.881L459.14 384.159Z" fill="white"/>
<path d="M452.673 369.891V375.122L429.653 388.249L429.748 383.017L452.673 369.891Z" fill="#A7EAFF"/>
<path d="M455.621 376.834V382.066L432.697 395.192V389.961L455.621 376.834Z" fill="#A7EAFF"/>
<path d="M462.089 391.103L439.165 404.23L428.416 397.952L451.245 384.92L462.089 391.103Z" fill="white"/>
<path d="M459.14 384.158V389.39L436.121 402.517L436.216 397.285L459.14 384.158Z" fill="#A7EAFF"/>
<path d="M462.089 391.103V396.334L439.069 409.461L439.164 404.229L462.089 391.103Z" fill="#A7EAFF"/>
<path d="M463.956 197.324L395.489 157.771L327.396 197.324L395.864 236.878L463.956 197.324Z" fill="#CBD1E2"/>
<path d="M463.956 197.324L395.489 157.771L327.396 197.324L395.864 236.878L463.956 197.324Z" fill="white"/>
<path d="M377.67 154.474V168.202L395.648 178.57V164.842L377.67 154.474Z" fill="#89D1EF"/>
<path d="M428.612 182.854L428.612 196.599L446.59 206.967L446.59 193.222L428.612 182.854Z" fill="#89D1EF"/>
<path d="M363.35 183.125V196.927L345.507 207.295V193.469L363.35 183.125Z" fill="#E4F7FF"/>
<path d="M413.432 154.474L413.49 168.239L395.646 178.565V164.818L413.432 154.474Z" fill="#E4F7FF"/>
<path d="M363.354 183.125L345.471 172.852L327.684 183.125L345.566 193.493L363.354 183.125Z" fill="#DBF4FF"/>
<path d="M413.434 154.472L395.507 144.199L377.675 154.472L395.602 164.841L413.434 154.472Z" fill="#DBF4FF"/>
<path d="M464.376 182.854L446.448 172.581L428.616 182.854L446.544 193.222L464.376 182.854Z" fill="#DBF4FF"/>
<path d="M413.906 212.431L396.118 222.704L378.235 212.431L396.023 202.062L413.906 212.431Z" fill="#DBF4FF"/>
<path d="M327.683 183.125L327.588 249.329L334.96 253.604V253.614L340.241 256.666L345.471 259.698V259.688L378.14 278.567L378.14 278.632L396.023 288.905L396.023 288.901L396.028 288.904L396.123 236.492L396.098 236.478L396.118 222.701L378.235 212.428L378.216 226.16L345.541 207.307L345.566 193.493L327.683 183.125Z" fill="#9ED8F0"/>
<path d="M464.407 182.836L464.502 249.04L457.13 253.315V253.327L450.824 256.971L446.62 259.409V259.4L413.951 278.279L413.952 278.345L396.069 288.618L396.069 288.613L396.062 288.617L395.967 236.205L395.993 236.19L395.974 222.414L413.856 212.141L413.876 225.872L446.549 207.02L446.524 193.204L464.407 182.836Z" fill="url(#paint5_linear)"/>
<path d="M430 238.79C430 252.843 430 257 430 257L438.999 251.418C438.999 251.418 438.999 242.947 438.999 235.108C438.999 227.27 430 228.42 430 238.79Z" fill="#3374B0"/>
<path d="M430.001 238.789C430.001 252.843 430.001 256.999 430.001 256.999L439 251.417C439 251.417 439 242.946 439 235.107C439 227.269 430.001 228.419 430.001 238.789Z" fill="#3374B0"/>
<path d="M362 238.789C362 252.843 362 257 362 257L352 251.418C352 251.418 352 242.946 352 235.108C352 227.269 362 228.419 362 238.789Z" fill="#3374B0"/>
<path d="M362 238.789C362 252.843 362 257 362 257L352 251.418C352 251.418 352 242.946 352 235.108C352 227.269 362 228.419 362 238.789Z" fill="#3374B0"/>
<path d="M439.165 404.229L436.121 402.517L436.216 397.285L432.696 395.193V389.961L429.748 388.249V383.017L418.999 376.739V397.761L429.653 404.039L439.07 409.461L439.165 404.229Z" fill="#89D1EF"/>
<path d="M514.114 381.745C510.369 381.923 505.376 381.299 505.287 375.593C505.198 369.797 504.946 361.036 499.062 357.113C493.177 353.19 481.58 354.325 477.479 363.954C472.372 376.769 473.023 409.343 502 399C516.5 393.825 520.801 381.477 514.114 381.745Z" fill="#17E1D5"/>
<path d="M480.309 370.936C480.548 370.833 480.598 370.415 480.421 370.003C480.244 369.59 479.906 369.338 479.667 369.441C479.428 369.544 479.378 369.962 479.556 370.374C479.733 370.787 480.07 371.039 480.309 370.936Z" fill="#EEF8FA"/>
<path d="M490.444 374.158C490.618 375.246 491.663 376.029 492.751 375.855C493.84 375.681 494.623 374.636 494.449 373.548C494.275 372.46 493.23 371.676 492.142 371.85C491.054 371.981 490.27 373.026 490.444 374.158Z" fill="#C4A547" fill-opacity="0.74"/>
<path d="M490.41 373.921C490.584 374.922 491.499 375.619 492.543 375.488C493.544 375.314 494.241 374.4 494.11 373.355C493.936 372.354 493.022 371.658 491.977 371.788C490.976 371.962 490.28 372.92 490.41 373.921Z" fill="#2B3760"/>
<path d="M491.978 372.441C491.803 372.746 492.021 373.181 492.5 373.442C492.935 373.704 493.458 373.66 493.632 373.355C493.806 373.051 493.588 372.615 493.109 372.354C492.63 372.093 492.152 372.136 491.978 372.441Z" fill="#364D98"/>
<path d="M492.586 372.528C492.543 372.615 492.63 372.789 492.804 372.92C492.978 373.007 493.152 373.007 493.239 372.92C493.283 372.789 493.196 372.659 493.022 372.528C492.847 372.441 492.63 372.441 492.586 372.528Z" fill="#C3D8F8"/>
<path d="M493.108 373.922C493.37 373.965 493.631 374.183 493.5 374.444C493.283 374.792 492.934 375.054 492.499 375.097C491.715 375.228 490.932 374.662 490.845 373.878C490.801 373.53 490.845 373.225 491.019 372.964C491.15 372.703 491.541 372.877 491.715 373.138C491.846 373.356 492.107 373.574 492.368 373.704C492.586 373.835 492.847 373.922 493.108 373.922Z" fill="#1B244A"/>
<path d="M477.46 371.285C477.634 372.373 478.679 373.156 479.767 372.982C480.855 372.808 481.639 371.763 481.465 370.675C481.291 369.587 480.246 368.803 479.158 368.977C478.069 369.108 477.286 370.153 477.46 371.285Z" fill="#C4A547" fill-opacity="0.74"/>
<path d="M477.426 371.046C477.6 372.047 478.514 372.744 479.559 372.613C480.56 372.439 481.257 371.525 481.126 370.48C480.952 369.479 480.038 368.783 478.993 368.913C477.992 369.087 477.295 370.045 477.426 371.046Z" fill="#2B3760"/>
<path d="M478.993 369.567C478.819 369.872 479.037 370.307 479.516 370.568C479.951 370.83 480.473 370.786 480.647 370.481C480.821 370.177 480.604 369.741 480.125 369.48C479.646 369.219 479.167 369.262 478.993 369.567Z" fill="#364D98"/>
<path d="M479.603 369.652C479.559 369.739 479.646 369.913 479.821 370.044C479.995 370.131 480.169 370.131 480.256 370.044C480.299 369.913 480.212 369.783 480.038 369.652C479.864 369.565 479.646 369.565 479.603 369.652Z" fill="#C3D8F8"/>
<path d="M480.125 371.047C480.386 371.09 480.647 371.308 480.517 371.569C480.299 371.917 479.951 372.179 479.516 372.222C478.732 372.353 477.948 371.787 477.861 371.003C477.818 370.655 477.861 370.35 478.036 370.089C478.166 369.828 478.558 370.002 478.732 370.263C478.863 370.481 479.124 370.699 479.385 370.829C479.603 370.96 479.864 371.047 480.125 371.047Z" fill="#1B244A"/>
<defs>
<linearGradient id="paint0_linear" x1="395.516" y1="72.0131" x2="395.516" y2="474.863" gradientUnits="userSpaceOnUse">
<stop stop-color="#95F2FF"/>
<stop offset="1" stop-color="#82E1FE"/>
</linearGradient>
<linearGradient id="paint1_linear" x1="343.188" y1="226.409" x2="292.466" y2="308.751" gradientUnits="userSpaceOnUse">
<stop stop-color="#38A0FF"/>
<stop offset="1" stop-color="#0071D8"/>
</linearGradient>
<linearGradient id="paint2_linear" x1="408.5" y1="405.5" x2="408.5" y2="280.5" gradientUnits="userSpaceOnUse">
<stop stop-color="#93F1FF"/>
<stop offset="1" stop-color="#8DD7F6"/>
</linearGradient>
<linearGradient id="paint3_linear" x1="344.086" y1="345" x2="344.086" y2="400.129" gradientUnits="userSpaceOnUse">
<stop stop-color="#DEF6FF"/>
<stop offset="0.455394" stop-color="#DEF6FF"/>
<stop offset="1" stop-color="#93F1FF"/>
</linearGradient>
<linearGradient id="paint4_linear" x1="365.313" y1="343.213" x2="370.013" y2="424.232" gradientUnits="userSpaceOnUse">
<stop stop-color="white"/>
<stop offset="0.489583" stop-color="white"/>
<stop offset="1" stop-color="#93F1FF"/>
</linearGradient>
<linearGradient id="paint5_linear" x1="430.235" y1="183.833" x2="430.235" y2="288.618" gradientUnits="userSpaceOnUse">
<stop stop-color="white"/>
<stop offset="1" stop-color="#AFE7FF"/>
</linearGradient>
</defs>
</svg>
