<svg width="670" height="720" viewBox="0 0 670 720" fill="none" xmlns="http://www.w3.org/2000/svg">
<rect width="227" height="124.997" rx="30" transform="matrix(1 -8.74204e-08 -8.74251e-08 -1 64 544.985)" fill="#FFDF77"/>
<mask id="mask0" mask-type="alpha" maskUnits="userSpaceOnUse" x="64" y="419" width="227" height="126">
<path d="M261 419.989C277.569 419.989 291 433.42 291 449.989L291 514.985C291 531.554 277.569 544.985 261 544.985L94 544.985C77.4315 544.985 64 531.554 64 514.985L64 449.989C64 433.42 77.4315 419.989 94 419.989L261 419.989Z" fill="white"/>
</mask>
<g mask="url(#mask0)">
<rect width="94.3949" height="124.77" rx="14" transform="matrix(-0.677682 0.735356 -0.940376 -0.340136 306.477 552.213)" fill="#FFE796"/>
<rect width="85.9886" height="107.331" rx="16" transform="matrix(-0.677682 0.735355 -0.940376 -0.340136 369.275 463.032)" fill="#FFE796"/>
<rect width="108.125" height="134.962" rx="16" transform="matrix(-0.677682 0.735355 -0.940376 -0.340136 154.057 492.137)" fill="#FFE796"/>
<rect width="61.8372" height="77.1853" rx="16" transform="matrix(-0.677682 0.735355 -0.940376 -0.340136 213.753 410.13)" fill="#FFE796"/>
</g>
<rect width="158" height="156.996" rx="78.4979" transform="matrix(1 -8.74204e-08 -8.74251e-08 -1 146.31 234.99)" fill="url(#paint0_linear)"/>
<path d="M333 514.985C333 531.554 346.431 544.985 363 544.985L670 544.985L670 -9.04958e-05L333 -6.10352e-05L333 514.985Z" fill="url(#paint1_linear)"/>
<mask id="mask1" mask-type="alpha" maskUnits="userSpaceOnUse" x="333" y="0" width="338" height="545">
<path d="M640 3.68912e-06C656.569 1.65167e-06 670 13.4315 670 30L670 514.985C670 531.554 656.569 544.985 640 544.985L363 544.985C346.432 544.985 333 531.554 333 514.985L333 30.0001C333 13.4315 346.431 3.97894e-05 363 3.7752e-05L640 3.68912e-06Z" fill="white"/>
</mask>
<g mask="url(#mask1)">
<path d="M326.295 433.064L408.899 433.064C410.004 433.064 410.899 433.96 410.899 435.064L410.899 493.557C410.899 494.662 411.795 495.557 412.899 495.557L479.403 495.557C480.508 495.557 481.403 496.453 481.403 497.557L481.403 552.095C481.403 553.199 482.298 554.095 483.403 554.095L552.551 554.095C553.655 554.095 554.551 554.99 554.551 556.095L554.551 616.587" stroke="#DBE7F9" stroke-opacity="0.5" stroke-width="20"/>
<path d="M232.878 502.677L315.482 502.677C316.587 502.677 317.482 503.572 317.482 504.677L317.482 563.169C317.482 564.274 318.378 565.169 319.482 565.169L385.986 565.169C387.091 565.169 387.986 566.065 387.986 567.169L387.986 621.707C387.986 622.811 388.881 623.707 389.986 623.707L459.134 623.707C460.238 623.707 461.134 624.602 461.134 625.707L461.134 686.199" stroke="#DBE7F9" stroke-opacity="0.5" stroke-width="20"/>
<path d="M326.295 284.347L408.899 284.347C410.004 284.347 410.899 285.243 410.899 286.347L410.899 344.84C410.899 345.944 411.795 346.84 412.899 346.84L479.403 346.84C480.508 346.84 481.403 347.735 481.403 348.84L481.403 403.377C481.403 404.482 482.298 405.377 483.403 405.377L552.551 405.377C553.655 405.377 554.551 406.273 554.551 407.377L554.551 465.87C554.551 466.975 555.446 467.87 556.551 467.87L614.241 467.87C615.346 467.87 616.241 468.765 616.241 469.87L616.241 513.333C616.241 514.437 617.137 515.333 618.241 515.333L691.152 515.333" stroke="#DBE7F9" stroke-opacity="0.5" stroke-width="20"/>
<path d="M326.295 132.467L408.899 132.467C410.004 132.467 410.899 133.363 410.899 134.467L410.899 192.96C410.899 194.065 411.795 194.96 412.899 194.96L479.403 194.96C480.508 194.96 481.403 195.855 481.403 196.96L481.403 251.497C481.403 252.602 482.298 253.497 483.403 253.497L552.551 253.497C553.655 253.497 554.551 254.393 554.551 255.497L554.551 313.99C554.551 315.095 555.446 315.99 556.551 315.99L619.529 315.99C620.634 315.99 621.529 316.886 621.529 317.99L621.529 378.856C621.529 379.96 622.425 380.856 623.529 380.856L682.339 380.856" stroke="#DBE7F9" stroke-opacity="0.5" stroke-width="20"/>
<path d="M340.396 -6.75635L423 -6.75635C424.105 -6.75635 425 -5.86092 425 -4.75635L425 53.7363C425 54.8409 425.895 55.7363 427 55.7363L493.504 55.7363C494.608 55.7363 495.504 56.6318 495.504 57.7363L495.504 112.274C495.504 113.378 496.399 114.274 497.504 114.274L566.651 114.274C567.756 114.274 568.651 115.169 568.651 116.274L568.651 174.766C568.651 175.871 569.547 176.766 570.651 176.766L633.63 176.766C634.734 176.766 635.63 177.662 635.63 178.766L635.63 239.632C635.63 240.737 636.525 241.632 637.63 241.632L696.439 241.632" stroke="#DBE7F9" stroke-opacity="0.5" stroke-width="20"/>
<g filter="url(#filter0_f)">
<path fill-rule="evenodd" clip-rule="evenodd" d="M393.534 299.788C383.249 290.763 367.596 273.83 358.374 248.389C349.307 223.334 334.64 239.521 341.998 256.163C347.356 268.28 363.039 294.971 382.38 313.847C381.573 315.267 380.817 316.745 380.12 318.286C373.113 333.76 376.224 358.422 398.678 374.197C393.01 384.181 389.065 391.379 383.772 405.523C373.774 403.661 366.196 410.352 362.818 419.405C361.887 421.424 358.877 428.155 356.031 436.798C350.304 436.409 345.03 437.764 343.718 445.119C343.003 449.105 346.324 452.755 351.248 455.667C350.911 457.711 350.643 459.757 350.464 461.781C348.661 482.175 354.458 495.731 363.432 496.518C371.127 497.193 383.182 492.64 389.245 484.121C394.655 488.66 401.258 492.137 408.588 494.595C406.108 516.454 408.394 554.987 408.696 559.257C408.888 561.968 405.828 563.842 402.577 565.834C398.711 568.203 394.574 570.738 395.318 575.042C396.501 581.745 412.742 579.226 420.231 576.212C427.721 573.199 425.644 563.887 425.644 563.887C425.644 563.887 425.327 560.824 423.288 530.527C422.269 515.245 423.465 505.442 424.993 498.291C433.753 499.42 442.977 499.402 452.081 498.293C449.857 517.295 452.826 550.457 453.779 561.09L453.779 561.09C453.908 562.535 454 563.563 454.037 564.084C454.228 566.791 450.848 569.073 447.245 571.506C442.946 574.408 438.329 577.526 439.075 581.836C440.265 588.641 456.757 583.943 464.247 580.93C471.737 577.916 470.985 568.714 470.985 568.714C470.985 568.714 470.668 565.651 468.629 535.354C467.117 512.697 468.909 502.198 470.626 494.439C497.755 486.313 519.737 467.856 518.604 440.792C517.619 414.832 503.573 396.225 487.595 383.094C510.25 373.874 517.364 357.26 517.364 357.26C517.364 357.26 534.692 325.656 504.348 297.83C496.615 290.714 489.751 286.003 483.807 282.117C482.958 281.562 482.128 281.024 481.317 280.498L481.316 280.497C470.61 273.557 463.194 268.75 459.4 255.515C457.866 245.835 441.741 246.858 439.476 254.058C437.212 261.258 433.362 271.418 424.98 277.582C422.374 279.502 419.304 281.434 415.987 283.504L415.32 283.919C408.407 288.229 400.505 293.156 393.534 299.788ZM367.924 461.693C370.749 462.23 373.39 462.494 375.557 462.436C376.326 465.581 377.429 468.513 378.829 471.238C376.513 473.709 373.239 476.446 370.672 475.626C368.063 474.816 367.339 469.053 367.924 461.693Z" fill="#BACEED"/>
</g>
</g>
<path d="M421.571 304.409C421.571 304.409 390.84 285.735 376.238 246.04C367.171 221.353 352.504 237.303 359.862 253.7C367.22 270.098 394.053 313.578 423.089 327.002L421.47 304.416L421.571 304.409Z" fill="#2B84FD"/>
<path d="M419.044 303.453C419.044 303.453 392.377 286.155 378.349 253.924C371.332 234.819 367.208 251.986 372.902 264.676C378.597 277.366 391.874 303.125 414.345 313.514L419.044 303.453Z" fill="url(#paint2_linear)"/>
<path opacity="0.35" d="M410.158 295.576C410.158 295.576 401.668 298.565 396.67 306.859C400.033 310.674 407.132 316.86 411.642 320.283L417.174 301.275C414.3 299.269 412.806 297.882 410.158 295.576Z" fill="#1A4FAB"/>
<path d="M365.876 254.182C365.279 255.745 362.419 255.444 359.646 254.933C348.158 253.02 346.669 245.348 349.336 242.598C348.344 242.046 346.693 239.247 349.234 236.93C349.234 236.93 347.316 234.372 350.073 231.668C350.073 231.668 347.451 227.982 351.154 225.543C354.539 223.274 362.764 223.495 362.772 226.433C362.772 229.271 360.194 228.645 360.194 228.645C360.194 228.645 361.966 229.329 361.621 231.583C361.276 233.837 358.92 233.5 358.92 233.5C358.92 233.5 362.169 234.99 361.831 237.345C361.493 239.7 359.289 240.061 359.289 240.061C359.289 240.061 363.532 241.277 364.98 243.099C367.422 246.065 366.069 249.811 362.072 247.766C359.233 246.348 358.658 248.214 359.234 249.186C360.387 251.13 367.164 250.948 365.876 254.182Z" fill="#2B84FD"/>
<path d="M347.766 225.47C347.766 225.47 355.189 223.145 359.427 230.695C361.059 233.927 361.848 237.729 361.256 241.428C359.859 250.145 349.824 265.059 349.824 265.059L346.934 258.845L354.088 245.706C354.088 245.706 358.542 237.857 356.247 231.438C356.111 231.069 355.96 230.742 355.808 230.416C353.261 225.096 347.766 225.47 347.766 225.47Z" fill="#BDCEE7"/>
<path fill-rule="evenodd" clip-rule="evenodd" d="M360.406 230.173L360.417 230.194C362.138 233.6 362.987 237.638 362.352 241.603C361.619 246.177 358.665 252.241 355.985 257.052C354.632 259.482 353.324 261.636 352.354 263.182C351.868 263.955 351.467 264.577 351.187 265.007C351.047 265.222 350.937 265.389 350.862 265.502C350.824 265.559 350.795 265.603 350.775 265.632L350.753 265.666L350.747 265.675L350.745 265.677C350.745 265.677 350.744 265.678 349.824 265.059C349.824 265.059 350.089 264.664 350.54 263.966C352.859 260.372 360.086 248.727 361.256 241.427C361.848 237.728 361.059 233.926 359.427 230.695C357.346 226.987 354.497 225.661 352.136 225.271C349.689 224.867 347.766 225.47 347.766 225.47C347.435 224.411 347.435 224.411 347.436 224.41L347.437 224.41L347.441 224.409L347.449 224.406L347.475 224.399C347.495 224.393 347.523 224.385 347.557 224.375C347.626 224.356 347.723 224.331 347.844 224.303C348.085 224.247 348.427 224.179 348.848 224.124C349.687 224.014 350.855 223.953 352.174 224.154C354.853 224.561 358.087 226.041 360.394 230.152L360.406 230.173ZM351.809 226.343C349.703 225.338 347.766 225.47 347.766 225.47L347.435 224.411L338.482 227.215L347.837 226.577C347.837 226.577 347.837 226.577 347.838 226.577C347.839 226.577 347.839 226.577 347.84 226.577L347.868 226.576C347.896 226.575 347.943 226.573 348.006 226.574C348.134 226.574 348.326 226.579 348.569 226.6C349.056 226.642 349.733 226.747 350.477 226.999C351.949 227.495 353.687 228.558 354.805 230.889C354.956 231.215 355.087 231.499 355.204 231.816C356.231 234.694 355.766 237.983 354.965 240.661C354.57 241.983 354.105 243.116 353.739 243.918C353.556 244.318 353.399 244.634 353.289 244.847C353.234 244.953 353.191 245.034 353.162 245.087C353.148 245.113 353.137 245.132 353.131 245.144L353.124 245.157L353.123 245.158L353.118 245.166L345.692 258.805L349.647 267.31L350.744 265.678L349.824 265.059L346.934 258.844L354.088 245.706C354.088 245.706 358.542 237.857 356.247 231.438C356.111 231.068 355.96 230.741 355.808 230.415C354.773 228.253 353.251 227.032 351.809 226.343Z" fill="#D0DAF2"/>
<path d="M347.833 225.453C352.207 225.583 354.482 228.083 355.477 229.779C356.473 231.475 358.048 229.46 359.765 231.851C358.092 227.132 352.536 224.4 347.833 225.453Z" fill="#7D91BB"/>
<path d="M351.76 249.922L346.934 258.843L349.824 265.058C349.824 265.058 351.842 262.222 355.078 256.339C352.024 256.515 351.512 251.454 351.76 249.922Z" fill="#A4B8DF"/>
<path d="M336.73 235.027C336.73 235.027 339.374 230.164 344.853 226.708C350.332 223.251 356.748 225.718 359.409 230.659C359.409 230.659 349.568 213.795 334.298 229.799L336.73 235.027Z" fill="#D0DAF2"/>
<path fill-rule="evenodd" clip-rule="evenodd" d="M336.72 235.347C336.599 235.343 336.491 235.272 336.44 235.162L334.008 229.934C333.953 229.815 333.976 229.673 334.067 229.578C337.915 225.546 341.446 223.556 344.596 222.869C347.749 222.182 350.486 222.807 352.725 223.942C354.846 225.018 356.521 226.551 357.692 227.858C358.481 228.629 359.159 229.52 359.691 230.507C359.774 230.661 360.665 233.231 360.513 233.317C359.626 231.593 358.67 229.948 357.392 228.484C357.335 228.419 357.277 228.353 357.217 228.286C354.134 225.297 349.283 224.291 345.023 226.978C342.321 228.683 340.315 230.737 338.984 232.366C338.319 233.18 337.824 233.887 337.496 234.389C337.332 234.64 337.21 234.839 337.129 234.975C337.088 235.043 337.058 235.095 337.039 235.13C337.029 235.147 337.022 235.16 337.017 235.169L337.012 235.178L337.011 235.18L337.01 235.18C336.953 235.286 336.84 235.351 336.72 235.347ZM336.926 234.692C336.795 234.908 336.73 235.028 336.73 235.028L334.298 229.799C343.911 219.724 351.372 222.675 355.581 226.244C356.303 226.856 356.93 227.486 357.455 228.072C356.832 227.466 356.138 226.938 355.392 226.502C352.334 224.715 348.397 224.472 344.853 226.708C340.234 229.621 337.63 233.535 336.926 234.692Z" fill="#DCE4F6"/>
<path d="M344.853 226.707C350.332 223.251 356.749 225.718 359.409 230.658C359.409 230.658 351.874 218.025 340.299 224.919C334.811 228.879 339.6 230.021 344.853 226.707Z" fill="url(#paint3_linear)"/>
<path d="M289 250.154C288.111 248.242 288.19 245.988 289.229 244.16C291.073 241.014 295.749 236.223 307.432 230.79C319.115 225.358 325.748 224.853 329.386 225.487C331.484 225.856 333.214 227.232 334.117 229.174L354.588 273.193C354.588 273.193 360.504 281.852 336.392 293.065C312.28 304.277 309.471 294.173 309.471 294.173L289 250.154Z" fill="url(#paint4_radial)"/>
<path fill-rule="evenodd" clip-rule="evenodd" d="M329.031 269.298C337.988 265.132 338.299 246.808 329.724 228.369C329.591 228.084 329.457 227.8 329.321 227.518C330.887 228.076 332.167 229.272 332.9 230.848L352.218 272.389C352.218 272.389 357.841 280.712 335.482 291.109C313.123 301.506 310.382 291.844 310.382 291.844L291.064 250.302C290.211 248.469 290.258 246.323 291.206 244.594C291.984 243.217 293.324 241.511 295.611 239.578C296.126 240.866 296.684 242.159 297.285 243.454C305.86 261.892 320.073 273.463 329.031 269.298Z" fill="url(#paint5_linear)"/>
<path d="M313.624 244.106C324.757 238.929 332.523 232.024 330.969 228.683C329.415 225.342 319.131 226.83 307.998 232.007C296.865 237.184 289.1 244.089 290.654 247.43C292.207 250.771 302.492 249.283 313.624 244.106Z" fill="url(#paint6_linear)"/>
<path fill-rule="evenodd" clip-rule="evenodd" d="M328.574 237.417C325.227 240.393 320.299 243.527 314.589 246.182C308.879 248.837 303.307 250.586 298.875 251.228C296.673 251.546 294.618 251.612 292.919 251.3C291.291 251 289.435 250.237 288.579 248.396C287.723 246.556 288.335 244.644 289.155 243.207C290.012 241.706 291.386 240.177 293.048 238.699C296.395 235.723 301.323 232.59 307.033 229.934C312.743 227.279 318.315 225.53 322.748 224.888C324.949 224.57 327.004 224.504 328.703 224.816C330.331 225.116 332.187 225.879 333.043 227.72C333.899 229.56 333.287 231.472 332.467 232.909C331.611 234.41 330.237 235.939 328.574 237.417ZM330.969 228.684C332.523 232.025 324.757 238.931 313.624 244.107C302.492 249.284 292.207 250.773 290.654 247.432C289.1 244.091 296.865 237.186 307.998 232.009C319.131 226.832 329.415 225.343 330.969 228.684Z" fill="url(#paint7_radial)"/>
<path fill-rule="evenodd" clip-rule="evenodd" d="M328.574 237.417C325.227 240.393 320.299 243.527 314.589 246.182C308.879 248.837 303.307 250.586 298.875 251.228C296.673 251.546 294.618 251.612 292.919 251.3C291.291 251 289.435 250.237 288.579 248.396C287.723 246.556 288.335 244.644 289.155 243.207C290.012 241.706 291.386 240.177 293.048 238.699C296.395 235.723 301.323 232.59 307.033 229.934C312.743 227.279 318.315 225.53 322.748 224.888C324.949 224.57 327.004 224.504 328.703 224.816C330.331 225.116 332.187 225.879 333.043 227.72C333.899 229.56 333.287 231.472 332.467 232.909C331.611 234.41 330.237 235.939 328.574 237.417ZM330.969 228.684C332.523 232.025 324.757 238.931 313.624 244.107C302.492 249.284 292.207 250.773 290.654 247.432C289.1 244.091 296.865 237.186 307.998 232.009C319.131 226.832 329.415 225.343 330.969 228.684Z" fill="url(#paint8_radial)"/>
<path d="M308.189 231.92C307.641 233.59 307.632 235.142 308.252 236.476C309.748 239.693 314.572 240.93 320.849 240.236C318.779 241.501 316.475 242.738 314.002 243.887C302.981 249.012 292.792 250.466 291.243 247.135C289.703 243.825 297.278 237.034 308.189 231.92Z" fill="url(#paint9_linear)"/>
<path fill-rule="evenodd" clip-rule="evenodd" d="M307.793 232.104C307.234 233.783 307.221 235.341 307.843 236.679C309.344 239.906 314.207 241.135 320.542 240.421C318.45 241.697 316.122 242.945 313.624 244.107C302.492 249.284 292.207 250.772 290.653 247.431C289.109 244.111 296.77 237.27 307.793 232.104Z" fill="url(#paint10_radial)"/>
<path d="M301.514 269.093C299.71 269.932 300.993 272.897 298.011 273.048C295.073 273.215 262.84 265.637 259.371 264.743C255.142 263.627 255.364 256.401 253.731 252.545C252.099 248.689 244.246 281.637 247.271 279.565C250.296 277.493 254.64 271.994 259.506 273.002C267.713 274.709 306.877 287.251 310.418 288.319C313.96 289.387 313.58 285.082 310.003 277.391C306.426 269.7 303.318 268.254 301.514 269.093Z" fill="#CDD8F0"/>
<path d="M253.883 266.652C255.707 258.612 254.84 251.563 251.947 250.907C249.054 250.251 245.231 256.236 243.407 264.275C241.583 272.315 242.45 279.364 245.343 280.02C248.236 280.676 252.059 274.691 253.883 266.652Z" fill="#BECAE7"/>
<path fill-rule="evenodd" clip-rule="evenodd" d="M252.893 252.949C252.503 252.202 252.091 251.903 251.739 251.824C251.388 251.744 250.887 251.836 250.212 252.341C249.542 252.843 248.807 253.68 248.068 254.836C246.595 257.142 245.218 260.541 244.324 264.483C243.43 268.426 243.205 272.086 243.539 274.802C243.707 276.164 244.009 277.236 244.397 277.978C244.787 278.725 245.199 279.024 245.551 279.103C245.902 279.183 246.403 279.091 247.078 278.586C247.748 278.084 248.483 277.247 249.222 276.091C250.695 273.785 252.072 270.386 252.966 266.444C253.86 262.501 254.085 258.841 253.751 256.125C253.583 254.763 253.282 253.691 252.893 252.949ZM251.947 250.907C254.84 251.563 255.707 258.612 253.883 266.652C252.059 274.691 248.236 280.676 245.343 280.02C242.45 279.364 241.583 272.315 243.407 264.275C245.231 256.236 249.054 250.251 251.947 250.907Z" fill="url(#paint11_radial)"/>
<path d="M249.777 264.063C250.96 258.851 250.806 254.374 249.435 254.063C248.064 253.752 245.994 257.725 244.812 262.936C243.63 268.148 243.783 272.625 245.154 272.936C246.525 273.247 248.595 269.275 249.777 264.063Z" fill="url(#paint12_radial)"/>
<path d="M248.148 262.021C248.338 261.807 248.467 261.928 248.449 262.28C248.432 262.632 248.265 263.089 248.075 263.304C247.886 263.519 247.757 263.398 247.774 263.046C247.791 262.694 247.959 262.236 248.148 262.021Z" fill="#697DA7"/>
<path d="M249.595 262.018C249.785 261.804 249.914 261.925 249.896 262.277C249.879 262.629 249.712 263.086 249.522 263.301C249.332 263.516 249.204 263.395 249.221 263.043C249.253 262.684 249.42 262.226 249.595 262.018Z" fill="#697DA7"/>
<path d="M247.137 267.903C247.326 267.688 247.455 267.809 247.438 268.161C247.42 268.513 247.253 268.971 247.064 269.186C246.874 269.401 246.745 269.28 246.762 268.928C246.795 268.569 246.962 268.111 247.137 267.903Z" fill="#697DA7"/>
<path d="M246.576 271.475C246.765 271.261 246.894 271.382 246.877 271.734C246.86 272.086 246.692 272.543 246.503 272.758C246.313 272.973 246.184 272.852 246.202 272.5C246.234 272.141 246.401 271.683 246.576 271.475Z" fill="#697DA7"/>
<path d="M245.203 268.621C245.393 268.406 245.522 268.527 245.504 268.879C245.487 269.231 245.32 269.689 245.13 269.904C244.94 270.119 244.812 269.998 244.829 269.646C244.861 269.287 245.028 268.829 245.203 268.621Z" fill="#697DA7"/>
<path d="M245.907 262.624C246.097 262.409 246.226 262.53 246.208 262.882C246.191 263.234 246.024 263.692 245.834 263.907C245.644 264.122 245.516 264.001 245.533 263.649C245.565 263.29 245.732 262.832 245.907 262.624Z" fill="#697DA7"/>
<path d="M250.82 259.971C251.009 259.756 251.138 259.877 251.121 260.229C251.103 260.581 250.936 261.039 250.747 261.254C250.557 261.469 250.428 261.348 250.446 260.996C250.478 260.637 250.645 260.179 250.82 259.971Z" fill="#697DA7"/>
<path d="M245.138 265.749C245.327 265.535 245.456 265.656 245.439 266.008C245.421 266.36 245.254 266.817 245.064 267.032C244.875 267.247 244.746 267.126 244.763 266.774C244.796 266.415 244.963 265.957 245.138 265.749Z" fill="#697DA7"/>
<path d="M247.734 259.825C247.924 259.61 248.052 259.731 248.035 260.083C248.018 260.435 247.851 260.893 247.661 261.107C247.471 261.322 247.343 261.201 247.36 260.849C247.392 260.49 247.559 260.033 247.734 259.825Z" fill="#697DA7"/>
<path d="M249.946 257.754C250.135 257.539 250.264 257.661 250.247 258.012C250.229 258.364 250.062 258.822 249.873 259.037C249.683 259.252 249.554 259.131 249.572 258.779C249.604 258.42 249.771 257.962 249.946 257.754Z" fill="#697DA7"/>
<path d="M251.773 262.437C251.963 262.222 252.091 262.343 252.074 262.695C252.057 263.047 251.89 263.505 251.7 263.72C251.51 263.935 251.382 263.814 251.399 263.462C251.431 263.103 251.598 262.645 251.773 262.437Z" fill="#697DA7"/>
<path d="M250.808 266.922C250.998 266.707 251.126 266.829 251.109 267.18C251.092 267.532 250.925 267.99 250.735 268.205C250.545 268.42 250.417 268.299 250.434 267.947C250.466 267.588 250.633 267.13 250.808 266.922Z" fill="#697DA7"/>
<path d="M248.914 270.75C249.104 270.535 249.233 270.656 249.216 271.008C249.198 271.36 249.031 271.818 248.841 272.033C248.652 272.248 248.523 272.127 248.54 271.775C248.572 271.416 248.74 270.958 248.914 270.75Z" fill="#697DA7"/>
<path d="M248.599 267.893C248.788 267.679 248.917 267.8 248.9 268.152C248.883 268.504 248.715 268.961 248.526 269.176C248.336 269.391 248.207 269.27 248.225 268.918C248.242 268.566 248.409 268.108 248.599 267.893Z" fill="#697DA7"/>
<path d="M247.021 264.772C247.21 264.557 247.339 264.678 247.322 265.03C247.304 265.382 247.137 265.84 246.948 266.055C246.758 266.27 246.629 266.148 246.646 265.797C246.679 265.438 246.846 264.98 247.021 264.772Z" fill="#697DA7"/>
<path d="M250.017 264.754C250.206 264.539 250.335 264.661 250.318 265.012C250.3 265.364 250.133 265.822 249.944 266.037C249.754 266.252 249.625 266.131 249.643 265.779C249.675 265.42 249.842 264.962 250.017 264.754Z" fill="#697DA7"/>
<path d="M248.482 264.762C248.671 264.547 248.8 264.668 248.783 265.02C248.765 265.372 248.598 265.83 248.408 266.044C248.219 266.259 248.09 266.138 248.107 265.786C248.125 265.434 248.292 264.977 248.482 264.762Z" fill="#697DA7"/>
<path opacity="0.63" d="M258.773 271.835C260.27 271.898 307.256 286.552 311.084 287.604C312.977 288.192 311.363 282.112 310.772 281.982C309.624 281.731 263.531 270.533 260.721 269.715C257.328 268.726 254.066 270.903 252.361 273.998C252.249 274.201 252.13 274.411 252.003 274.629C255.365 271.851 257.276 271.772 258.773 271.835Z" fill="url(#paint13_linear)"/>
<g style="mix-blend-mode:multiply" opacity="0.5">
<path d="M365.66 247.95C363.446 251.848 359.308 244.85 351.549 247.776C348.021 240.755 354.581 228.107 364.632 233.332C368.156 235.164 367.351 239.042 365.032 239.188C366.663 241.135 366.415 243.38 364.239 244.374C364.669 245.051 366.132 247.119 365.66 247.95Z" fill="#1D67EF"/>
</g>
<path d="M362.977 231.687C366.975 233.731 368.429 229.979 365.886 227.019C364.337 225.205 362.651 224.312 360.195 223.981C357.739 223.651 353.129 222.968 350.228 226.318C347.333 229.768 351.166 232.331 353.326 231.365C358.634 229.059 360.139 230.269 362.977 231.687Z" fill="url(#paint14_linear)"/>
<path fill-rule="evenodd" clip-rule="evenodd" d="M365.109 226.198C366.064 228.175 364.614 230.026 361.575 228.722C361.369 228.636 361.17 228.551 360.977 228.468C358.757 227.512 357.245 226.862 352.767 228.564C351.67 228.992 350.114 228.581 349.4 227.667C349.566 227.238 349.835 226.785 350.228 226.317C353.083 223.02 357.593 223.629 360.076 223.965C360.116 223.97 360.156 223.975 360.195 223.981C362.248 224.257 363.763 224.926 365.109 226.198Z" fill="url(#paint15_linear)"/>
<path d="M362.387 237.589C366.385 239.633 367.839 235.88 365.296 232.921C363.747 231.107 362.061 230.214 359.605 229.883C357.149 229.553 352.539 228.87 349.638 232.219C346.743 235.67 350.576 238.233 352.736 237.267C358.044 234.961 359.549 236.171 362.387 237.589Z" fill="url(#paint16_linear)"/>
<path opacity="0.76" fill-rule="evenodd" clip-rule="evenodd" d="M366.481 235.205C365.692 235.724 364.324 235.763 362.556 234.924C362.323 234.815 362.099 234.709 361.881 234.605C359.377 233.413 357.671 232.602 352.194 233.799C351.164 234.032 349.875 233.747 348.998 233.157C349.158 232.853 349.369 232.54 349.638 232.22C352.493 228.923 357.003 229.532 359.486 229.867C359.526 229.873 359.566 229.878 359.605 229.883C362.061 230.214 363.747 231.107 365.296 232.921C365.937 233.667 366.324 234.464 366.481 235.205Z" fill="url(#paint17_linear)"/>
<path d="M361.697 242.548C365.695 244.592 367.149 240.839 364.606 237.88C363.057 236.066 361.371 235.173 358.915 234.842C356.459 234.512 351.849 233.829 348.948 237.178C346.053 240.629 349.885 243.192 352.046 242.226C357.354 239.92 358.859 241.13 361.697 242.548Z" fill="url(#paint18_linear)"/>
<path fill-rule="evenodd" clip-rule="evenodd" d="M363.312 236.954C365.21 239.058 363.718 241.418 360.541 239.817L360.497 239.796C358.266 238.694 357.002 238.07 352.438 239.222C350.898 239.625 348.594 238.39 349.311 236.788C351.947 234.159 355.751 234.436 358.196 234.747C358.342 234.773 358.481 234.8 358.614 234.824C358.647 234.831 358.679 234.837 358.712 234.843C360.733 235.221 362.157 235.665 363.312 236.954Z" fill="url(#paint19_linear)"/>
<path d="M362.085 247.967C366.083 250.011 367.537 246.259 364.994 243.299C363.445 241.485 361.759 240.592 359.303 240.261C356.847 239.931 352.238 239.248 349.336 242.597C346.807 245.897 349.371 248.832 351.531 247.867C356.839 245.561 359.247 246.549 362.085 247.967Z" fill="url(#paint20_linear)"/>
<path fill-rule="evenodd" clip-rule="evenodd" d="M365.461 243.915C365.861 245.436 364.306 246.564 361.623 245.371C359.159 244.298 357.053 243.527 352.089 244.711C350.508 245.101 348.876 243.944 349.445 242.475C352.305 239.316 356.732 239.914 359.185 240.245C359.225 240.251 359.264 240.256 359.304 240.261C361.76 240.592 363.445 241.484 364.994 243.299C365.168 243.501 365.323 243.708 365.461 243.915Z" fill="url(#paint21_linear)"/>
<g style="mix-blend-mode:multiply" opacity="0.38">
<path d="M367.566 235.961C367.026 235.493 366.439 235.618 366.281 236.237C365.492 240.645 364.161 241.851 361.798 241.412C356.475 240.479 358.761 224.364 365.296 225.264C370.518 226.004 369.601 230.349 372.621 238.544C373.753 241.605 369.951 238.121 367.566 235.961Z" fill="#1D6DDA"/>
</g>
<path d="M367.174 235.036C366.634 234.568 365.849 234.928 365.69 235.548C365.086 238.429 364.15 240.928 361.788 240.489C358.093 239.842 359.337 231.747 359.337 231.747C359.337 231.747 360.487 223.759 365.81 224.492C371.032 225.233 372.158 235.287 375.178 243.482C376.31 246.543 369.558 237.196 367.174 235.036Z" fill="url(#paint22_linear)"/>
<path d="M359.499 230.983C360.178 227.504 362.061 224.547 364.772 224.455C367.483 224.363 367.776 227.471 365.547 228.711C361.539 230.939 361.044 234.305 360.32 238.443C360.111 239.631 358.617 235.501 359.499 230.983Z" fill="url(#paint23_linear)"/>
<path d="M489.167 485.528C487.311 493.567 484.779 503.477 486.492 528.793C488.531 558.645 488.849 561.663 488.849 561.663C488.849 561.663 489.6 570.73 482.11 573.699C474.621 576.669 458.129 581.297 456.938 574.592C455.568 566.785 472.32 562.949 471.9 557.101C471.575 552.564 466.925 508.913 470.449 488.796C473.484 471.755 491.023 477.49 489.167 485.528Z" fill="#4BE0D7"/>
<path d="M445.843 480.628C443.987 488.666 439.438 498.721 441.151 524.036C443.19 553.889 443.508 556.907 443.508 556.907C443.508 556.907 445.585 566.082 438.095 569.051C430.605 572.02 414.365 574.502 413.182 567.898C411.811 560.091 426.979 558.193 426.56 552.345C426.234 547.808 423.601 504.012 427.125 483.895C430.16 466.854 447.699 472.589 445.843 480.628Z" fill="#4BE0D7"/>
<path d="M487.36 494.221C487.36 494.221 478.65 497.117 469.437 498.406C469.629 495.108 469.746 493.407 470.226 489.927L489.016 486.158C488.182 489.759 487.901 490.967 487.36 494.221Z" fill="#25CCD7"/>
<path d="M380.973 413.932C380.973 413.932 370.13 436.205 368.327 456.299C366.525 476.394 372.321 489.751 381.296 490.527C390.27 491.302 405.176 485.071 409.589 473.805L399.588 462.172C399.588 462.172 392.995 471.344 388.536 469.941C382.63 468.135 386.382 441.313 393.12 427.857C396.115 421.562 382.967 407.809 380.973 413.932Z" fill="#4BE0D7"/>
<path d="M371.266 454.75C372.71 436.978 377.188 424.561 380.973 413.93C380.973 413.93 370.13 436.203 368.327 456.298C366.525 476.392 372.321 489.75 381.295 490.525C388.161 491.118 398.499 487.611 404.953 480.885C398.483 486.648 389.168 489.605 382.821 489.057C373.847 488.281 369.821 472.522 371.266 454.75Z" fill="url(#paint24_linear)"/>
<path d="M441.649 499.127C438.165 498.788 431.754 497.997 425.806 496.141C426.021 493.316 426.093 490.849 426.6 487.886L443.763 488.378C442.814 492.345 442.234 494.964 441.649 499.127Z" fill="#25CCD7"/>
<path d="M399.596 462.182C401.915 464.755 406.338 469.983 409.558 473.825C408.32 477.422 404.908 481.519 401.847 483.652C398.479 480.483 394.285 476.048 391.634 469.54C394.167 468.598 397.65 464.815 399.596 462.182Z" fill="#25CCD7"/>
<path d="M523.176 429.883C533.205 441.123 537.494 457.132 538.36 464.975C539.479 474.928 541.747 496.657 526.296 491.785C514.894 488.245 508.748 451.998 506.872 439.97C505.004 428.044 513.14 418.542 523.176 429.883Z" fill="#4BE0D7"/>
<path d="M463.728 354.688C459.868 352.938 455.257 353.066 451.371 355.067C434.612 363.971 390.409 404.132 392.192 448.191C395.004 516.196 539.326 502.91 536.467 435.618C534.53 385.286 482.017 363.005 463.728 354.688Z" fill="#25CCD7"/>
<path fill-rule="evenodd" clip-rule="evenodd" d="M533.039 435.764L533.038 435.75C532.12 411.897 519.252 394.575 504.047 382.046C489.661 370.191 473.47 362.864 463.95 358.556C463.379 358.297 462.831 358.05 462.31 357.813C459.433 356.509 455.933 356.585 452.961 358.108C445.094 362.295 430.223 374.197 417.54 390.549C404.846 406.914 394.777 427.179 395.621 448.051C396.264 463.594 404.897 474.525 417.915 481.339C431.06 488.22 448.572 490.798 466.15 489.223C483.716 487.649 500.94 481.963 513.498 472.766C525.992 463.617 533.693 451.169 533.039 435.764ZM392.192 448.191C390.409 404.132 434.612 363.971 451.371 355.067C455.257 353.066 459.868 352.938 463.728 354.688C464.257 354.929 464.815 355.181 465.399 355.445C485.012 364.317 534.586 386.742 536.467 435.618C539.326 502.91 395.004 516.196 392.192 448.191Z" fill="url(#paint25_linear)"/>
<path opacity="0.5" d="M421.73 420.174C420.628 441.075 443.621 452.262 471.86 456.334C493.742 459.475 523.476 454.397 524.69 430.784C525.904 407.171 511.058 392.925 482.819 388.854C447.472 383.729 422.723 399.255 421.73 420.174Z" fill="#26F3E7"/>
<path fill-rule="evenodd" clip-rule="evenodd" d="M508.14 399.531C511.001 397.064 515.321 397.383 517.788 400.244C522.596 405.819 524.904 410.645 527.472 416.357C529.021 419.803 527.483 423.852 524.037 425.401C520.591 426.95 516.542 425.412 514.993 421.966C512.553 416.537 510.896 413.201 507.427 409.179C504.96 406.318 505.279 401.998 508.14 399.531Z" fill="url(#paint26_linear)"/>
<path d="M486.045 485.954C500.703 480.442 496.514 456.121 482.099 457.48C452.076 461.752 415.981 471.05 412.018 434.165C411.463 425.205 412.248 413.409 414.83 406.212C418.64 397.949 413.886 388.507 399.211 418.752C395.124 427.939 392.976 438.388 394.207 450.132C397.899 486.75 447.954 497.314 486.045 485.954Z" fill="#25CCD7"/>
<path opacity="0.56" d="M494.757 447.6C494.064 467.792 472.682 475.199 446.994 475.153C427.116 475.109 400.778 465.982 401.493 443.271C402.209 420.559 423.269 411.496 448.957 411.543C481.063 411.549 495.348 427.415 494.757 447.6Z" fill="#17FBEE"/>
<path d="M495.689 446.447C494.959 465.958 473.685 473.159 448.146 473.165C428.382 473.163 402.214 464.398 402.971 442.453C403.729 420.508 424.686 411.708 450.225 411.701C482.146 411.643 496.318 426.944 495.689 446.447Z" fill="#1749A1"/>
<path opacity="0.67" d="M424.478 433.891C416.433 420.609 403.712 430.815 404.341 444.14C406.572 466.156 433.063 471.757 454.419 471.693C464.748 471.661 480.873 467.677 489.631 457.918C491.403 455.345 488.575 455.658 487.533 455.949C453.305 464.11 437.628 454.223 424.478 433.891Z" fill="#173D7E"/>
<path opacity="0.5" d="M428.025 427.44C427.783 436.903 440.872 442.391 456.773 444.745C469.095 446.563 485.671 444.793 485.928 434.102C486.184 423.41 477.607 416.681 461.705 414.326C441.8 411.367 428.206 417.967 428.025 427.44Z" fill="#1C58C0"/>
<path d="M459.892 437.775C458.83 434.4 460.705 430.803 464.081 429.74C467.456 428.678 471.054 430.553 472.116 433.929C473.178 437.304 471.303 440.902 467.928 441.964C464.552 443.026 460.955 441.151 459.892 437.775Z" fill="#03316E"/>
<path d="M465.25 441.15C462.044 440.627 459.869 437.604 460.392 434.398C460.915 431.191 463.938 429.016 467.145 429.54C470.351 430.063 472.526 433.086 472.003 436.292C471.48 439.498 468.456 441.673 465.25 441.15Z" fill="#C1C6E5"/>
<path d="M467.063 434.834C465.963 433.638 465.73 432.064 466.541 431.318C467.352 430.572 468.901 430.936 470.001 432.132C471.1 433.328 471.334 434.902 470.523 435.648C469.711 436.394 468.162 436.029 467.063 434.834Z" fill="#B1B9ED"/>
<path d="M468.524 433.668C468.092 433.198 467.984 432.595 468.283 432.32C468.582 432.045 469.174 432.203 469.606 432.672C470.038 433.142 470.146 433.746 469.847 434.021C469.548 434.295 468.956 434.138 468.524 433.668Z" fill="#F1F3FC"/>
<path d="M469.18 437.247C469.719 437.419 470.07 437.92 469.681 438.369C468.716 439.597 467.078 440.241 465.371 439.942C462.812 439.494 461.172 437.189 461.516 434.637C461.732 433.253 462.6 432.137 463.603 431.434C464.112 431.186 464.673 431.673 464.718 432.301C464.793 433.349 465.407 434.569 466.32 435.556C467.219 436.334 468.214 437 469.18 437.247Z" fill="#ADB1CE"/>
<g style="mix-blend-mode:multiply">
<path fill-rule="evenodd" clip-rule="evenodd" d="M509.177 381.913C493.738 368.264 475.553 360.038 465.399 355.445C464.815 355.181 464.257 354.929 463.728 354.688C459.868 352.938 455.257 353.066 451.371 355.067C434.612 363.971 390.409 404.132 392.192 448.191C392.368 452.443 393.097 456.377 394.309 460C395.463 459.945 396.475 459.798 397.3 459.552C397.435 459.494 397.571 459.458 397.698 459.424C397.848 459.384 397.984 459.347 398.089 459.283C401.512 458.028 402.53 454.596 403.581 451.05C403.739 450.518 403.898 449.983 404.065 449.452C404.587 447.828 405.118 446.123 405.696 444.266L405.697 444.265C407.975 436.95 410.988 427.275 417.059 410.832C420.186 402.4 424.149 394.442 428.7 386.753C430.601 383.541 434.525 382.238 438.12 383.241C443.97 384.874 450.478 386.097 457.691 386.817C468.237 387.87 477.425 387.612 485.407 386.47C487.639 386.15 489.532 388.228 488.912 390.395C483.469 409.421 478.821 428.769 477.801 448.598C477.702 450.523 476.492 452.097 474.589 451.794C473.648 451.643 472.573 451.409 471.414 451.156C464.476 449.644 454.517 447.472 452.166 458.773C451.838 469.742 477.97 477.09 487.155 475.503C492.95 474.126 493.109 466.182 493.081 463.09C492.906 449.826 499.637 421.785 505.585 397.008C506.842 391.774 508.063 386.685 509.177 381.913Z" fill="#25CCD7"/>
</g>
<g style="mix-blend-mode:multiply">
<path d="M385.619 459.214C385.812 452.686 387.312 444.237 389.596 436.878C387.939 437.184 385.279 436.686 382.246 436.118C379.274 435.561 375.943 434.937 372.847 434.938C371.098 440.583 369.527 446.843 368.696 453.023C373.39 455.92 379.829 458.104 385.619 459.214Z" fill="#25CCD7"/>
</g>
<path d="M413.606 438.816C412.571 435.528 414.397 432.024 417.685 430.989C420.973 429.954 424.478 431.781 425.512 435.069C426.547 438.357 424.721 441.861 421.433 442.895C418.145 443.93 414.64 442.104 413.606 438.816Z" fill="#03316E"/>
<path d="M418.864 442.188C415.741 441.679 413.622 438.734 414.132 435.611C414.641 432.488 417.586 430.369 420.71 430.879C423.833 431.388 425.951 434.333 425.442 437.456C424.932 440.579 421.987 442.698 418.864 442.188Z" fill="#C1C6E5"/>
<path d="M420.626 436.042C419.555 434.878 419.328 433.345 420.118 432.618C420.908 431.891 422.417 432.246 423.488 433.411C424.559 434.575 424.787 436.109 423.996 436.835C423.206 437.562 421.697 437.207 420.626 436.042Z" fill="#B1B9ED"/>
<path d="M422.049 434.907C421.629 434.449 421.523 433.861 421.815 433.594C422.106 433.326 422.683 433.48 423.104 433.937C423.524 434.395 423.629 434.983 423.338 435.25C423.047 435.518 422.47 435.364 422.049 434.907Z" fill="#F1F3FC"/>
<path d="M422.693 438.381C423.218 438.548 423.561 439.036 423.182 439.474C422.242 440.67 420.645 441.297 418.983 441.006C416.49 440.569 414.893 438.324 415.228 435.839C415.439 434.49 416.284 433.404 417.261 432.718C417.756 432.477 418.303 432.951 418.347 433.563C418.42 434.584 419.018 435.772 419.908 436.734C420.783 437.492 421.753 438.14 422.693 438.381Z" fill="#ADB1CE"/>
<path d="M532.337 320.075C532.337 320.075 547.614 322.527 561.309 335.43C575.004 348.333 572.552 363.609 559.091 365.284C531.068 368.813 535.736 344.864 545.113 345.611C553.375 346.336 542.649 340.923 529.539 336.187C516.43 331.452 520.373 317.183 532.337 320.075Z" fill="url(#paint27_linear)"/>
<path d="M512.412 376.93C506.06 404.439 495.57 443.867 495.787 460.383C495.815 463.475 495.656 471.419 489.861 472.796C480.677 474.383 454.544 467.035 454.872 456.066C457.616 442.878 470.722 448.038 477.295 449.087C479.199 449.39 480.408 447.816 480.507 445.891C481.897 418.87 489.179 396.138 493.795 380.19C498.587 363.631 514.275 368.993 512.412 376.93Z" fill="#2B84FD"/>
<g style="mix-blend-mode:multiply">
<path d="M480.755 430.367C478.811 431.52 476.405 429.058 479.292 425.506C478.982 425.427 474.927 423.995 480.457 419.139C478.541 419.276 476.207 416.403 479.382 414.047C479.577 413.932 480.138 413.284 479.944 413.399C477.308 414.804 476.047 412.766 476.004 412.161C475.86 411.564 476.104 410.735 476.94 409.662C477.314 409.23 482.733 404.31 493.112 405.656C503.491 407.002 509.515 409.413 522.35 464.836C518.301 473.654 512.66 477.835 507.816 480.455C497.96 454.631 499.832 445.019 497.832 438.894C495.831 432.769 490.967 427.044 480.755 430.367Z" fill="#25CCD7"/>
</g>
<path d="M480.646 430.296C478.702 431.449 476.296 428.987 479.183 425.435C478.873 425.356 474.818 423.924 480.348 419.068C478.432 419.205 476.098 416.332 479.273 413.976C479.468 413.861 480.029 413.213 479.835 413.328C477.199 414.733 475.938 412.695 475.895 412.09C475.751 411.493 475.995 410.664 476.831 409.591C477.205 409.159 477.875 408.604 478.94 407.919C479.913 407.343 481.18 406.644 482.462 406.147C495.094 401.39 508.368 408.835 512.422 421.445C515.594 431.758 501.204 442.313 499.446 436.101C497.401 430.06 488.985 425.036 480.646 430.296Z" fill="#4AF7EF"/>
<path opacity="0.55" d="M479.173 425.431C478.848 425.342 475.849 424.239 478.632 420.81C477.888 422.627 479.205 423.454 481.889 422.032C484.573 420.611 489.231 420.373 493.088 421.325C493.338 421.426 493.432 422.168 492.867 422.003C487.321 421.075 479.961 424.743 479.185 425.421C479.181 425.424 479.177 425.428 479.173 425.431Z" fill="#25CCD7"/>
<path opacity="0.55" d="M480.348 419.067C478.604 419.192 476.512 416.821 478.55 414.617C477.436 416.607 479.927 417.524 481.989 416.29C484.052 415.057 489.177 413.972 492.572 415.326C492.825 415.43 492.772 416.141 492.504 416.089C487.614 415.145 482.131 417.471 480.348 419.067C480.181 419.217 480.287 419.121 480.348 419.067Z" fill="#25CCD7"/>
<path opacity="0.55" d="M479.829 413.331C477.198 414.73 475.938 412.695 475.895 412.09C475.815 411.76 475.855 411.358 476.047 410.884C476.615 412.19 478.302 412.758 480.461 411.546C482.62 410.333 486.578 408.968 492.932 409.85C493.199 409.92 493.099 410.699 492.824 410.672C488.111 410.223 483.518 411.04 479.829 413.331Z" fill="#25CCD7"/>
<path d="M465.728 455.489C456.32 453.062 451.872 456.448 457.926 462.611C463.981 468.774 479.05 473.271 488.041 472.979C494.432 472.772 493.255 468.674 489.384 465.914C485.513 463.153 475.136 457.916 465.728 455.489Z" fill="#2572E1"/>
<path d="M492.838 429.188C492.838 429.188 499.821 431.387 500.733 441.485C502.133 453.952 504.61 463.543 506.816 471.695C509.022 479.848 517.122 499.536 529.466 496.422C541.81 493.307 539.349 471.694 538.468 465.068C537.588 458.443 532.292 476.457 526.859 467.117C521.426 457.777 519.126 434.391 511.273 418.49C503.42 402.59 488.902 418.119 492.838 429.188Z" fill="url(#paint28_linear)"/>
<path d="M432.658 378.111C428.187 385.019 423.358 391.364 416.952 408.039C409.1 428.567 406.178 438.51 403.508 446.505C402.177 450.553 401.372 454.867 397.418 456.265C397.223 456.381 396.921 456.402 396.626 456.525C388.084 458.962 359.618 450.665 361.582 439.883C364.631 423.043 389.067 438.121 390.895 432.518C403.201 393.529 407.81 385.142 416.889 369.397C423.446 353.421 442.5 362.71 432.658 378.111Z" fill="#2B84FD"/>
<path opacity="0.55" fill-rule="evenodd" clip-rule="evenodd" d="M478.518 426.383C476.733 429.408 478.88 431.344 480.646 430.297C487.098 426.228 493.595 428.314 497.154 432.264C492.374 423.696 483.345 426.645 481.216 428.244C479.074 429.853 477.652 428.238 478.62 426.251C478.585 426.295 478.551 426.339 478.518 426.383Z" fill="#25CCD7"/>
<path opacity="0.76" d="M496.17 407.426C497.403 411.98 497.152 419.744 494.034 426.745C493.832 427.199 493.962 427.741 494.36 428.039C507.129 437.6 517.031 437.041 512.711 422.238C510.806 415.71 505.777 408.728 497.586 405.897C496.729 405.601 495.933 406.55 496.17 407.426Z" fill="url(#paint29_linear)"/>
<path d="M372.162 439.711C362.869 437.39 358.53 440.813 364.567 446.893C370.603 452.973 385.495 457.298 394.345 456.913C400.636 456.639 399.427 452.566 395.581 449.855C391.736 447.144 381.455 442.032 372.162 439.711Z" fill="#2572E1"/>
<path d="M457.34 251.626C455.076 258.72 451.225 268.731 442.843 274.804C430.609 283.688 408.122 292.847 397.983 314.911C387.844 336.975 398.892 377.997 459.085 384.007C519.278 390.016 535.227 353.313 535.227 353.313C535.227 353.313 552.555 322.173 522.212 294.755C498.798 273.529 483.358 274.01 477.264 253.061C475.73 243.523 459.604 244.531 457.34 251.626Z" fill="#2B84FD"/>
<path d="M457.34 251.626C455.076 258.72 451.225 268.731 442.843 274.804C430.609 283.688 408.122 292.847 397.983 314.911C387.844 336.975 398.892 377.997 459.085 384.007C519.278 390.016 535.227 353.313 535.227 353.313C535.227 353.313 552.555 322.173 522.212 294.755C498.798 273.529 483.358 274.01 477.264 253.061C475.73 243.523 459.604 244.531 457.34 251.626Z" fill="#2B84FD"/>
<path fill-rule="evenodd" clip-rule="evenodd" d="M535.227 353.313C535.227 353.313 552.555 322.173 522.212 294.755C513.374 286.743 505.672 281.823 499.18 277.677C488.473 270.839 481.058 266.102 477.264 253.061C475.73 243.523 459.604 244.531 457.34 251.626C455.076 258.72 451.225 268.731 442.843 274.804C440.064 276.822 436.756 278.854 433.184 281.049C421.03 288.515 405.819 297.859 397.983 314.911C387.844 336.975 398.892 377.997 459.085 384.007C519.278 390.016 535.227 353.313 535.227 353.313ZM444.858 277.582C441.965 279.682 438.54 281.786 434.997 283.962C434.631 284.187 434.264 284.412 433.896 284.639C429.913 287.089 425.742 289.694 421.653 292.684C413.487 298.659 405.833 306.045 401.101 316.343C396.532 326.286 396.649 340.807 405.03 353.599C413.347 366.293 430.091 377.664 459.426 380.592C488.736 383.518 506.916 376.037 517.702 368.144C523.129 364.172 526.76 360.04 529.02 356.935C530.15 355.382 530.935 354.089 531.428 353.205C531.675 352.764 531.848 352.425 531.954 352.209C532.008 352.1 532.044 352.023 532.065 351.978C532.075 351.956 532.081 351.942 532.084 351.936C532.084 351.936 532.084 351.936 532.084 351.936L532.085 351.934L532.147 351.791L532.225 351.652L532.226 351.649L532.227 351.648L532.227 351.647L532.229 351.644L532.248 351.608C532.27 351.567 532.307 351.497 532.356 351.4C532.456 351.204 532.606 350.899 532.793 350.492C533.166 349.677 533.681 348.459 534.215 346.904C535.287 343.786 536.42 339.361 536.671 334.151C537.166 323.851 534.239 310.248 519.911 297.301L519.907 297.297C511.304 289.498 503.935 284.79 497.479 280.666C495.324 279.29 493.272 277.978 491.309 276.639C483.378 271.226 477.316 265.526 473.969 254.02L473.909 253.816L473.876 253.606C473.495 251.237 471.27 249.582 467.535 249.537C465.773 249.517 464.055 249.91 462.748 250.574C461.425 251.248 460.812 252.034 460.609 252.669C458.332 259.802 454.218 270.799 444.86 277.581" fill="url(#paint30_radial)"/>
<path opacity="0.25" d="M444.017 283.655C431.912 293.188 427.445 321.25 442.313 332.995C486.362 367.791 560.498 330.255 505.098 290.505C480.496 272.852 456.122 274.122 444.017 283.655Z" fill="#3FA3FF"/>
<path d="M400.766 324.885C405.711 309.462 423.705 313.591 432.473 334.371C441.241 355.152 464.823 358.128 481.164 359.737C498.376 362.144 521.857 354.451 531.089 351.255C531.089 351.255 516.1 385.747 459.533 380.1C419.529 376.106 390.711 355.63 400.766 324.885Z" fill="#2572E1"/>
<path fill-rule="evenodd" clip-rule="evenodd" d="M487.882 284.66C489.95 281.498 494.189 280.611 497.351 282.679C503.894 286.957 509.714 291.167 515.048 297.01C517.595 299.8 517.398 304.127 514.608 306.674C511.818 309.221 507.491 309.024 504.944 306.234C500.78 301.673 496.105 298.21 489.864 294.129C486.702 292.062 485.815 287.822 487.882 284.66Z" fill="url(#paint31_linear)"/>
<path d="M499.959 333.559C499.255 353.644 476.91 362.305 450.267 363.696C429.623 364.76 402.343 357.27 403.166 334.582C403.989 311.893 425.919 301.705 452.562 300.314C485.914 298.546 500.655 313.371 499.959 333.559Z" fill="#63A5FF"/>
<path d="M500.888 332.363C500.166 351.975 477.97 360.458 451.516 361.848C431.018 362.912 403.943 355.63 404.787 333.476C405.631 311.322 427.415 301.348 453.869 299.959C486.985 298.193 501.711 312.744 500.888 332.363Z" fill="url(#paint32_linear)"/>
<path opacity="0.25" d="M438.211 309.079C435.732 318.216 444.528 327.836 459.473 333.925C490.81 346.676 513.75 319.223 479.025 305.879C467.361 301.397 440.633 299.919 438.211 309.079Z" fill="white"/>
<path d="M407.092 426.247C409.001 427.427 411.457 424.92 408.568 421.377C410.51 421.085 412.004 417.75 407.53 415.05C410.58 414.931 411.531 411.367 408.103 409.249C410.74 410.682 412.014 408.665 412.072 408.053C412.23 407.433 411.97 406.641 411.185 405.582C410.846 405.1 410.097 404.546 409.139 403.905C408.181 403.264 406.92 402.645 405.66 402.026C393.148 397.146 383.686 405.121 380.203 415.911C374.592 433.979 389.811 435.885 391.908 429.402C393.54 424.185 398.7 420.869 407.092 426.247Z" fill="#4BE0D7"/>
<path fill-rule="evenodd" clip-rule="evenodd" d="M396.413 423.576C399.009 422.535 402.572 422.911 407.055 425.724C408.962 426.879 411.421 424.418 408.537 420.949C410.48 420.66 411.978 417.389 407.508 414.748C410.558 414.628 411.514 411.133 408.09 409.061C410.724 410.462 412.001 408.483 412.06 407.883C412.219 407.275 411.96 406.499 411.177 405.463C410.839 404.99 410.09 404.448 409.133 403.821C408.176 403.195 406.917 402.589 405.657 401.984C403.015 400.977 400.508 400.533 398.164 400.558C393.818 404.861 393.026 412.706 396.413 423.576Z" fill="url(#paint33_linear)"/>
<path opacity="0.72" d="M393.345 426.492C396.889 422.001 402.071 423.152 407.14 426.269C408.001 426.854 409.045 426.446 409.464 425.86C410.191 424.724 410.015 423.57 409.126 422.17C409.777 423.212 409.539 424.836 408.213 424.964C406.887 425.092 406.48 424.017 403.874 423.313C401.269 422.61 396.518 422.11 393.345 426.492Z" fill="#25CCD7"/>
<path opacity="0.72" d="M396.058 405.999C395.587 406.065 395.27 406.726 395.888 406.649C399.739 406.296 404.718 407.64 408.059 409.255C409.61 410.075 410.717 409.797 411.408 409.163C412.098 408.53 412.194 407.829 412.053 407.246C411.469 408.524 410.263 408.784 408.722 408.144C405.853 406.984 401.786 405.588 396.058 405.999Z" fill="#25CCD7"/>
<path opacity="0.72" d="M395.3 411.539C394.765 411.663 394.859 412.378 395.28 412.331C400.66 412.251 404.438 413.626 407.495 415.048C409.301 415.123 410.644 413.48 410.188 411.848C409.822 412.673 409.245 414.107 406.822 413.245C402.592 411.832 399.757 411.152 395.3 411.539Z" fill="#25CCD7"/>
<path opacity="0.72" d="M395.849 417.769C395.454 417.951 395.498 418.559 396.006 418.54C397.355 418.171 405.012 418.743 408.574 421.385C410.763 420.939 410.871 418.417 409.818 417.116C410.448 418.685 408.602 419.59 407.083 419.051C402.294 417.392 398.324 417.456 395.849 417.769Z" fill="#25CCD7"/>
<path opacity="0.71" d="M431.323 340.762C422.505 334.981 422.574 326.431 415.452 321.782C412.806 320.055 409.424 321.74 408.536 324.771C400.538 352.061 428.788 362.512 458.134 359.678C468.56 358.723 481.814 355.942 489.858 349.622C491.966 347.756 490.091 345.517 487.503 346.401C467.982 351.883 441.841 347.657 431.323 340.762Z" fill="#BDC1E3"/>
<path d="M461.555 328.161C460.42 324.957 462.333 321.357 465.827 320.12C469.321 318.884 473.073 320.479 474.208 323.683C475.342 326.887 473.429 330.487 469.935 331.724C466.441 332.961 462.689 331.366 461.555 328.161Z" fill="#BABEE1"/>
<path d="M467.689 331.363C464.421 330.947 462.109 327.961 462.524 324.693C462.94 321.425 465.926 319.113 469.194 319.528C472.462 319.944 474.774 322.929 474.359 326.197C473.943 329.465 470.958 331.778 467.689 331.363Z" fill="#1749A1"/>
<path d="M469.361 324.901C468.204 323.728 467.911 322.142 468.707 321.357C469.502 320.572 471.085 320.886 472.242 322.058C473.399 323.23 473.692 324.817 472.896 325.602C472.101 326.387 470.518 326.073 469.361 324.901Z" fill="#1C58C0"/>
<path d="M470.721 323.615C470.267 323.154 470.136 322.546 470.429 322.257C470.722 321.968 471.328 322.107 471.783 322.567C472.237 323.028 472.368 323.636 472.075 323.925C471.782 324.214 471.176 324.075 470.721 323.615Z" fill="#618BD7"/>
<path d="M471.58 327.239C472.119 327.307 472.484 327.922 472.195 328.37C471.217 329.615 469.661 330.26 467.938 330.063C465.351 329.715 463.582 327.385 463.824 324.805C464.044 323.401 464.81 322.172 465.827 321.458C466.335 321.101 466.912 321.701 466.95 322.232C467.132 323.287 467.641 324.425 468.673 325.419C469.599 326.42 470.601 326.989 471.58 327.239Z" fill="#173D7E"/>
<path d="M411.763 331.61C410.646 328.456 412.404 324.957 415.689 323.794C418.973 322.632 422.541 324.246 423.658 327.4C424.774 330.554 423.016 334.053 419.731 335.215C416.447 336.378 412.879 334.764 411.763 331.61Z" fill="#A9AED3"/>
<path d="M417.448 334.967C414.226 334.558 411.947 331.614 412.356 328.392C412.766 325.171 415.709 322.891 418.931 323.301C422.153 323.71 424.432 326.654 424.023 329.875C423.613 333.097 420.67 335.376 417.448 334.967Z" fill="#1749A1"/>
<path d="M419.058 328.652C417.917 327.496 417.628 325.932 418.413 325.158C419.197 324.384 420.757 324.694 421.898 325.849C423.038 327.005 423.327 328.569 422.543 329.343C421.759 330.117 420.198 329.808 419.058 328.652Z" fill="#1C58C0"/>
<path d="M420.474 327.31C420.026 326.855 419.897 326.256 420.186 325.971C420.475 325.686 421.072 325.823 421.52 326.277C421.968 326.731 422.097 327.33 421.808 327.615C421.519 327.9 420.922 327.764 420.474 327.31Z" fill="#618BD7"/>
<path d="M421.273 330.915C421.805 330.982 422.164 331.588 421.88 332.03C420.915 333.257 419.382 333.893 417.683 333.699C415.132 333.355 413.388 331.059 413.627 328.516C413.844 327.132 414.599 325.92 415.601 325.216C416.102 324.864 416.671 325.455 416.709 325.979C416.889 327.019 417.39 328.141 418.408 329.12C419.321 330.108 420.316 330.773 421.273 330.915Z" fill="#173D7E"/>
<path opacity="0.5" fill-rule="evenodd" clip-rule="evenodd" d="M537.725 347.23C537.633 347.234 537.54 347.241 537.443 347.252C520.522 343.603 499.822 347.356 494.669 348.948C489.517 350.541 484.893 352.79 482.041 355.426C479.759 357.516 481.74 361.123 484.153 359.43C486.464 357.744 491.303 354.56 494.018 354.264C495.027 354.191 495.069 355.196 494.169 355.362C490.596 356.429 487.264 358.501 485.605 361.03C483.945 363.559 486.322 365.899 487.95 364.327C489.577 362.755 492.637 360.443 496.814 359.333C497.715 359.167 497.859 360.082 497.369 360.32C493.607 361.996 490.489 364.261 489.419 366.451C488.35 368.641 491.289 370.259 492.576 368.63C493.863 367.001 497.081 365.051 499.992 364.071C500.489 363.934 500.818 364.456 500.227 364.701C497.887 365.983 494.34 368.381 493.706 370.858C493.411 372.4 495.752 372.787 496.594 371.815C502.032 365.537 517.342 364.078 526.294 365.328C532.807 358.883 535.227 353.314 535.227 353.314C535.227 353.314 536.482 351.059 537.725 347.23Z" fill="#1A4FAB"/>
<path d="M480.381 354.509C483.232 351.872 487.856 349.624 493.009 348.031C498.161 346.439 507.078 345.197 512.415 344.713C520.616 343.85 525.098 362.822 519.132 363.046C511.378 363.336 500.39 364.599 494.934 370.897C494.092 371.87 491.751 371.482 492.046 369.941C492.679 367.463 496.226 365.066 498.567 363.784C499.157 363.539 498.829 363.017 498.332 363.154C495.42 364.134 492.203 366.083 490.916 367.713C489.629 369.342 486.69 367.724 487.759 365.534C488.828 363.344 491.946 361.079 495.709 359.403C496.199 359.165 496.054 358.25 495.154 358.416C490.977 359.526 487.917 361.838 486.289 363.409C484.662 364.981 482.285 362.641 483.944 360.113C485.604 357.584 488.936 355.511 492.508 354.445C493.409 354.279 493.367 353.274 492.358 353.346C489.643 353.642 484.804 356.827 482.492 358.513C480.08 360.206 478.098 356.598 480.381 354.509Z" fill="#4E99FF"/>
<path d="M497.708 368.406C496.438 369.114 495.277 369.957 494.265 370.96C493.995 371.226 493.605 371.366 493.2 371.391C493.824 371.507 494.542 371.349 494.934 370.896C495.746 369.959 496.68 369.133 497.708 368.406Z" fill="#3E8DF8"/>
<path d="M494.981 364.631C493.096 365.456 491.4 366.502 490.5 367.478C489.747 368.295 488.592 368.149 487.871 367.513C488.552 368.459 490.081 368.768 490.916 367.711C491.71 366.705 493.241 365.577 494.981 364.631Z" fill="#3E8DF8"/>
<path d="M492.675 359.254C489.781 360.238 487.558 361.723 486.215 362.835C484.967 363.869 483.489 362.873 483.428 361.345C483.058 363.312 484.933 364.717 486.289 363.408C487.576 362.166 489.756 360.462 492.675 359.254Z" fill="#3E8DF8"/>
<path d="M491.241 353.585C488.457 354.38 484.769 356.447 482.802 357.664C480.83 358.835 479.363 356.826 479.955 354.977C478.384 357.086 480.253 360.083 482.492 358.511C484.513 357.038 488.464 354.419 491.241 353.585Z" fill="#3E8DF8"/>
<path d="M493.638 352.743C491.997 352.766 490.022 353.44 487.634 354.608C485.247 355.775 484.256 352.473 485.348 351.623C486.155 350.996 490.571 348.933 492.79 348.699C494.142 348.556 494.724 352.727 493.638 352.743Z" fill="url(#paint34_linear)"/>
<path d="M496.398 357.885C494.757 357.908 492.782 358.582 490.394 359.75C488.007 360.917 487.016 357.615 488.108 356.765C488.915 356.138 493.331 354.075 495.55 353.841C496.902 353.698 497.484 357.869 496.398 357.885Z" fill="url(#paint35_linear)"/>
<path d="M500.263 362.528C498.623 362.611 496.673 363.356 494.33 364.608C491.986 365.861 490.762 362.931 491.75 361.963C492.959 360.781 496.873 359.087 499.082 358.773C500.428 358.581 501.347 362.474 500.263 362.528Z" fill="url(#paint36_linear)"/>
<path d="M501.654 365.876C500.617 366.474 499.167 367.19 497.517 368.205C495.866 369.221 494.592 366.963 495.269 366.215C496.097 365.301 498.872 363.894 500.466 363.568C501.437 363.369 502.411 365.44 501.654 365.876Z" fill="url(#paint37_linear)"/>
<path d="M509.271 345.009C518.771 343.993 530.752 343.195 551.877 346.647C572.902 350.106 572.047 361.595 561.435 364.832C550.822 368.07 531.805 360.53 510.121 363.875C494.353 366.629 499.771 346.025 509.271 345.009Z" fill="#4E99FF"/>
<path opacity="0.3" d="M170.614 340.913C188.266 301.371 214.842 285.628 245.928 276.524C251.943 273.783 253.015 255.054 249.406 253.917C223.598 245.792 144.63 250.245 111.182 303.872C73.1959 364.775 149.882 387.353 170.614 340.913Z" fill="url(#paint38_linear)"/>
<path d="M234.313 253.837C235.977 253.786 237.848 253.872 239.315 254.199C238.248 253.513 236.03 252.742 234.343 252.724C233.273 252.713 233.272 253.869 234.313 253.837Z" fill="#B7DCFF"/>
<path d="M238.411 250.543C240.985 250.911 243.831 251.568 245.976 252.526C244.568 251.066 241.42 249.149 238.833 248.657C237.191 248.345 236.8 250.313 238.411 250.543Z" fill="#D9EDFF"/>
<path d="M238.655 276.944C240.513 276.046 242.154 274.831 245.72 274.172C243.244 273.808 239.783 274.585 238.087 275.512C236.633 276.307 237.337 277.58 238.655 276.944Z" fill="#B7DCFF"/>
<path d="M244.662 266.105C224.878 262.629 168.126 278.717 144.6 315.491" stroke="url(#paint39_linear)" stroke-linecap="round"/>
<path d="M247.172 260.044C227.807 254.707 169.785 265.337 142.875 299.712" stroke="url(#paint40_linear)" stroke-linecap="round"/>
<path d="M246.046 272.199C225.975 271.405 171.891 294.952 153.504 334.547" stroke="url(#paint41_linear)" stroke-linecap="round"/>
<path opacity="0.5" d="M246.839 268.697C223.964 267.729 170.573 285.812 149.038 323.786" stroke="url(#paint42_linear)" stroke-linecap="round"/>
<path opacity="0.5" d="M245.18 262.477C223.411 261.579 177.939 266.14 141.727 309.262" stroke="url(#paint43_linear)" stroke-linecap="round"/>
<path opacity="0.5" d="M249.672 258.123C232.534 252.595 181.671 254.253 140.484 289.774" stroke="url(#paint44_linear)" stroke-linecap="round"/>
<path d="M227.96 562.091H230.536V565.994H230.533C230.445 572.937 206.413 578.559 176.78 578.559C147.093 578.559 123.027 572.916 123.027 565.956C123.027 565.893 123.029 565.83 123.033 565.768V562.091H125.601C132.56 557.021 152.843 553.352 176.78 553.352C200.718 553.352 221.001 557.021 227.96 562.091Z" fill="#F8523F"/>
<ellipse cx="176.78" cy="562.151" rx="53.7533" ry="12.6036" fill="#FF907A"/>
<path d="M144.929 572.305C142.409 570.832 141.006 569.199 141.006 567.479C141.006 560.977 161.048 555.706 185.77 555.706C206.97 555.706 224.727 559.582 229.357 564.786C224.191 570.482 202.614 574.755 176.78 574.755C164.859 574.755 153.843 573.845 144.929 572.305Z" fill="#FFB3AA"/>
<ellipse cx="176.78" cy="561.741" rx="50.6516" ry="9.77283" fill="#CC3725"/>
<path d="M237.796 477.158L115.774 477.157L131.955 566.236C139.675 568.987 152.495 571.499 176.782 571.499C201.07 571.499 215.605 568.691 222.763 565.881L237.796 477.158Z" fill="#F8523F"/>
<path opacity="0.4" d="M233.271 492.7C233.781 490.086 231.605 487.683 228.728 487.683C188.201 488.703 165.485 488.644 124.958 487.683C122.081 487.683 119.905 490.086 120.415 492.7L133.161 562.491C134.299 566.188 153.988 569.628 176.841 569.628C199.693 569.628 219.519 566.055 220.657 562.359L233.271 492.7Z" fill="#FF8576"/>
<path opacity="0.5" d="M230.292 495.531C230.711 493.202 228.921 491.061 226.555 491.061C193.219 491.97 174.534 491.917 141.199 491.061C138.833 491.061 137.043 493.202 137.463 495.532L148.791 560.469C149.727 563.763 165.12 566.383 183.917 566.383C202.714 566.383 218.115 563.763 219.051 560.469L230.292 495.531Z" fill="#FF8576"/>
<ellipse cx="176.78" cy="459.474" rx="64.1565" ry="3.92924" fill="#FFB3AA"/>
<ellipse cx="176.78" cy="459.411" rx="59.47" ry="2.32265" fill="#6F2003"/>
<path d="M157.207 332.124C161.454 321.836 168.816 315.418 175.14 313.247C166.17 314.54 159.368 317.835 153.809 324.384C147.165 332.211 146.715 340.351 147.674 343.828C150.411 342.601 154.246 339.296 157.207 332.124Z" fill="#229E53"/>
<path opacity="0.5" d="M175.14 313.247C166.17 314.54 159.368 317.835 153.809 324.384C147.165 332.211 146.715 340.351 147.674 343.828C150.793 329.466 162.981 315.565 175.14 313.247Z" fill="url(#paint45_linear)"/>
<path fill-rule="evenodd" clip-rule="evenodd" d="M135.806 271.369C136.354 271.435 136.746 271.932 136.68 272.481C133.446 299.538 139.914 322.639 148.235 343.451C151 350.365 153.956 356.999 156.831 363.449C158.292 366.727 159.732 369.958 161.115 373.154C165.207 382.61 168.782 391.728 170.808 400.675C176.037 423.771 177.7 438.253 177.995 448.893C178.142 454.213 177.947 458.56 177.689 462.524C177.616 463.647 177.538 464.734 177.462 465.802C177.267 468.518 177.082 471.107 177.006 473.825C176.99 474.377 176.53 474.812 175.978 474.796C175.426 474.78 174.991 474.32 175.007 473.768C175.084 471.005 175.274 468.351 175.469 465.619C175.545 464.559 175.622 463.488 175.693 462.394C175.949 458.465 176.14 454.184 175.995 448.948C175.706 438.475 174.067 424.128 168.857 401.117C166.874 392.36 163.362 383.383 159.28 373.949C157.914 370.793 156.484 367.583 155.027 364.314C152.142 357.841 149.156 351.141 146.378 344.193C138 323.237 131.404 299.775 134.694 272.243C134.76 271.695 135.257 271.303 135.806 271.369Z" fill="#229E53"/>
<path fill-rule="evenodd" clip-rule="evenodd" d="M140.666 321.244C139.865 320.921 139.08 320.567 138.313 320.182C134.503 305.577 132.604 289.731 134.694 272.244C134.76 271.695 135.257 271.304 135.806 271.369C136.354 271.435 136.746 271.933 136.68 272.481C134.551 290.291 136.626 306.387 140.666 321.244Z" fill="#1D703F"/>
<path d="M187.772 421.85C179.814 432.034 177.435 438.716 176.496 443.876C180.163 436.321 186.677 433.479 195.516 428.548C207.602 421.806 212.159 410.373 224.005 401.884C212.005 405.305 197.367 409.571 187.772 421.85Z" fill="#229E53"/>
<path d="M187.772 421.85C179.814 432.034 177.435 438.716 176.496 443.876C182.213 427.736 204.785 410.932 224.005 401.884C212.005 405.305 197.367 409.571 187.772 421.85Z" fill="url(#paint46_linear)"/>
<path d="M190.352 377.436C181.571 376.304 175.26 378.579 172.797 383.384C177.381 379.15 185.332 380.865 191.576 383.881C198.837 387.389 205.037 389.755 214.255 390.163C206.483 386.603 201.205 378.836 190.352 377.436Z" fill="#229E53"/>
<path d="M190.352 377.436C181.571 376.304 175.26 378.579 172.797 383.384C176.733 377.951 186.168 378.458 192.808 380.459C201.89 383.195 205.386 388.363 214.255 390.163C206.483 386.603 201.205 378.836 190.352 377.436Z" fill="url(#paint47_linear)"/>
<path d="M153.125 418.177C144.308 409.944 139.316 398.765 137.313 391.473C142.718 399.069 148.289 400.565 156.502 406.864C166.392 414.449 172.269 425.9 175.51 435.299C167.829 426.115 162.022 426.487 153.125 418.177Z" fill="#229E53"/>
<path d="M158.332 414.959C148.758 407.621 141.016 398.859 137.313 391.473C142.718 399.069 148.289 400.565 156.502 406.864C166.392 414.449 172.269 425.9 175.51 435.299L175.389 435.091C171.278 428.018 167.992 422.364 158.332 414.959Z" fill="url(#paint48_linear)"/>
<path d="M136.58 362.196C126.238 360.071 112.387 354.956 104.878 356.13C112.583 351.923 124.004 349.432 132.862 350.357C143.192 351.435 151.551 357.108 155.465 362.49C152.04 363.077 143.723 363.664 136.58 362.196Z" fill="#229E53"/>
<path d="M136.457 355.335C126.114 353.209 112.031 353.625 104.878 356.13C112.583 351.923 124.004 349.432 132.862 350.357C143.192 351.435 151.551 357.108 155.465 362.49C153.263 360.889 143.6 356.802 136.457 355.335Z" fill="url(#paint49_linear)"/>
<path fill-rule="evenodd" clip-rule="evenodd" d="M199.566 349.416C199.892 349.862 199.793 350.487 199.347 350.813C176.757 367.271 168.123 389.571 172.58 408.886C172.704 409.424 172.369 409.961 171.831 410.085C171.293 410.209 170.756 409.874 170.631 409.336C165.954 389.068 175.087 366.013 198.169 349.196C198.616 348.871 199.241 348.969 199.566 349.416Z" fill="#229E53"/>
<g clip-path="url(#clip0)">
<path d="M133.563 250.549C135.204 244.35 143.003 236.929 150.097 231.51C150.822 230.94 151.489 231.175 151.45 231.881C151.948 239.117 155.583 246.468 151.885 255.826C144.019 274.347 129.307 270.4 133.563 250.549Z" fill="#2B9FFE"/>
<path d="M111.988 268.789C106.048 270.972 99.7577 276.449 94.2538 283.613C93.7053 284.319 93.9415 285.182 94.7851 285.554C103.319 288.272 110.616 289.52 119.183 286.433C138.65 279.295 130.71 261.809 111.988 268.789Z" fill="#2B9FFE"/>
<path d="M143.02 296.274C147.418 300.82 154.991 304.264 163.858 306.335C164.74 306.51 165.465 305.941 165.327 305.098C164.338 296.234 162.39 289.117 156.049 282.553C141.561 267.741 128.926 282.05 143.02 296.274Z" fill="#2B9FFE"/>
<path d="M155.28 277.71C162.006 277.723 169.748 272.126 176.466 262.961C177.171 261.98 177.111 261.254 176.287 261.294C168.502 261.478 162.125 258.17 153.085 259.532C132.105 263.513 137.196 276.354 155.28 277.71Z" fill="#2B9FFE"/>
<path d="M120.461 289.746C118.937 295.866 120.043 304.141 122.817 312.748C123.151 313.63 124.014 313.904 124.739 313.334C131.755 307.797 136.809 302.379 138.978 293.533C144.097 273.445 125.168 270.188 120.461 289.746Z" fill="#2B9FFE"/>
<path d="M125.561 249.772C120.026 245.306 112.767 242.332 103.726 242.674C102.804 242.695 102.256 243.401 102.531 244.068C105.734 251.027 108.192 257.633 114.69 263.922C130.432 278.577 142.871 263.719 125.561 249.772Z" fill="#2B9FFE"/>
<path d="M128.596 270.313C125.75 267.227 119.81 265.873 111.988 268.789C109.632 269.655 107.22 271.039 104.825 272.841C106.622 273.822 108.574 274.704 110.753 275.452C121.595 278.848 128.078 275.247 128.596 270.313Z" fill="#108CFF"/>
<path d="M120.281 302.248C119.578 297.591 119.575 293.304 120.461 289.746C122.277 282.201 126.209 278.051 130.061 276.954C132.405 277.464 134.198 278.884 135.095 280.925C136.336 280.914 137.667 281.258 138.993 281.94C140.045 284.749 140.224 288.642 138.978 293.532C137.977 297.615 136.362 300.967 134.223 303.938C132.661 301.785 131.155 299.637 130.024 297.15C129.899 296.694 129.785 296.248 129.681 295.811C129.625 295.868 129.569 295.924 129.511 295.981C126.599 298.864 123.558 300.845 120.281 302.248Z" fill="#108CFF"/>
<path d="M153.496 245.862C153.641 248.96 153.3 252.246 151.885 255.826C148.136 264.655 142.831 268.378 138.766 267.707C135.15 264.702 135.869 257.885 143.692 250.303C145.975 248.34 149.491 246.896 153.496 245.862Z" fill="#108CFF"/>
<path d="M132.313 267.817C135.486 264.278 134.415 256.906 125.561 249.772C123.314 247.959 120.782 246.392 117.963 245.192C118.71 249.312 119.505 253.543 122.031 258.039C125.736 264.098 129.34 267.119 132.313 267.817Z" fill="#108CFF"/>
<path d="M161.702 290.628C158.303 290.989 155.134 290.781 152.174 289.78C144.153 286.811 140.158 281.796 139.855 277.605C143.353 275.115 149.513 275.87 156.049 282.553C158.543 285.135 160.358 287.802 161.702 290.628Z" fill="#108CFF"/>
<path d="M146.706 274.678C147.936 268.499 143.929 262.502 137.751 261.272C131.572 260.043 125.574 264.049 124.345 270.228C123.115 276.407 127.122 282.404 133.301 283.634C138.793 284.727 145.496 280.759 146.706 274.678Z" fill="#108CFF"/>
<path d="M113.196 281.163C109.082 285.952 106.305 293.76 104.921 302.763C104.746 303.646 105.433 304.292 106.276 304.154C115.08 302.44 122 299.942 127.956 293.072C141.59 277.331 126.223 265.912 113.196 281.163Z" fill="url(#paint50_radial)"/>
<path d="M117.408 255.899C110.64 254.042 102.678 254.089 94.5429 258.078C93.7393 258.53 93.485 259.295 93.9954 259.804C99.7073 264.918 104.596 270.071 113.032 273.279C133.336 280.378 138.849 261.899 117.408 255.899Z" fill="url(#paint51_radial)"/>
<path d="M149.94 292.247C150.927 299.071 147.913 305.507 142.88 313.886C142.391 314.808 141.744 314.985 141.488 314.22C140.087 305.377 134.611 300.617 132.133 293.598C128.092 271.382 146.882 274.306 149.94 292.247Z" fill="url(#paint52_radial)"/>
<path d="M145.155 252.244C149.818 247.768 160.289 245.365 169.152 244.376C170.093 244.258 170.506 244.747 170.173 245.395C166.845 251.87 166.225 260.108 158.269 266.273C142.061 278.036 131.382 267.142 145.155 252.244Z" fill="url(#paint53_radial)"/>
<path d="M140.484 248.561C138.615 242.072 130.882 236.352 120.21 232.597C119.072 232.167 118.386 232.54 118.642 233.305C121.159 240.637 119.754 247.699 123.723 255.932C133.724 274.847 144.521 266.188 140.484 248.561Z" fill="url(#paint54_radial)"/>
<path d="M155.465 287.535C162.37 288.705 169.682 285.776 178.032 281.218C178.934 280.786 179.051 280.197 178.384 279.963C171.107 278.106 165.963 272.189 158.782 269.332C136.224 264.843 135.654 283.593 155.465 287.535Z" fill="url(#paint55_radial)"/>
<path d="M97.584 259.193C100.31 259.327 102.997 259.658 105.586 259.97C108.254 260.398 110.902 260.925 113.511 261.649C116.12 262.372 118.71 263.193 121.142 264.289C123.575 265.385 126.067 266.696 127.913 268.695C127.383 268.284 126.833 267.97 126.303 267.559L124.557 266.6C123.341 266.052 122.144 265.406 120.888 265.054C118.416 264.154 115.827 263.333 113.198 262.708C110.589 261.985 108.039 261.477 105.411 260.852C104.136 260.599 102.763 260.325 101.488 260.072L97.584 259.193Z" fill="#7AD7FB"/>
<path d="M121.605 235.322C123.842 236.889 125.687 238.888 127.396 241.063C129.006 243.219 130.459 245.649 131.619 248.021C132.759 250.491 133.781 253.039 134.489 255.628C135.198 258.216 135.671 260.961 135.321 263.746C135.28 262.412 135.142 261.059 134.788 259.765C134.709 259.138 134.531 258.491 134.354 257.844C134.177 257.197 134 256.55 133.725 255.883C132.899 253.374 131.876 250.825 130.619 248.434C129.46 246.062 128.104 243.651 126.71 241.436C126.022 240.28 125.217 239.202 124.294 238.203C123.901 237.615 123.372 237.203 122.979 236.615C122.547 236.223 122.017 235.812 121.605 235.322Z" fill="#7AD7FB"/>
<path d="M165.626 248.263C165.155 248.577 164.567 248.97 164.097 249.284L162.568 250.305C161.51 251.012 160.55 251.739 159.589 252.465C157.571 253.899 155.631 255.45 153.691 257.001C151.75 258.552 149.908 260.123 148.047 261.792C147.165 262.636 146.185 263.461 145.402 264.324C144.52 265.168 143.717 266.13 142.914 267.092C144.147 264.992 145.852 263.088 147.537 261.282C149.32 259.496 151.181 257.827 153.121 256.276C155.061 254.725 157.08 253.291 159.196 251.877C161.215 250.444 163.391 249.245 165.626 248.263Z" fill="#7AD7FB"/>
<path d="M175.011 280.515C172.384 280.91 169.736 280.383 167.303 279.797C164.773 279.191 162.281 278.389 159.79 277.588C157.298 276.786 154.886 276.102 152.336 275.594L150.472 275.224L148.57 275.049L146.628 275.07L144.667 275.19C145.314 275.013 145.942 274.934 146.589 274.757L148.55 274.637L150.472 274.714L152.472 274.908C155.061 275.219 157.553 276.021 160.064 276.724L167.44 279.11C168.009 279.325 168.695 279.462 169.264 279.677C169.951 279.814 170.539 279.931 171.128 280.048C172.383 280.4 173.697 280.457 175.011 280.515Z" fill="#7AD7FB"/>
<path d="M143.014 310.139C142.992 307.688 143.068 305.256 142.948 302.785C142.828 300.314 142.689 297.941 142.353 295.529C142.017 293.118 141.583 290.686 140.914 288.412C140.639 287.235 140.147 286.118 139.774 284.922C139.577 284.373 139.282 283.805 139.086 283.256C138.791 282.687 138.496 282.119 138.182 281.648C138.908 282.609 139.615 283.667 140.205 284.804C140.794 285.941 141.286 287.058 141.659 288.254C142.525 290.568 143.056 293.018 143.373 295.528C143.689 298.038 143.809 300.509 143.733 302.941C143.598 305.158 143.404 307.668 143.014 310.139Z" fill="#7AD7FB"/>
<path d="M108.684 300.249C109.095 299.719 109.409 299.17 109.801 298.738L110.819 297.207C111.543 296.128 112.249 295.147 112.875 294.048C114.226 291.87 115.577 289.691 117.007 287.631C118.535 285.59 120.161 283.568 122.14 281.821C122.63 281.408 123.218 281.016 123.688 280.701C124.276 280.309 124.844 280.014 125.315 279.7C125.883 279.405 126.53 279.228 127.099 278.933C127.746 278.756 128.393 278.579 128.922 278.48C126.511 279.326 124.394 280.74 122.532 282.409C120.769 284.097 119.143 286.119 117.714 288.179C116.284 290.24 114.933 292.418 113.405 294.459C112.073 296.539 110.546 298.58 108.684 300.249Z" fill="#7AD7FB"/>
<path d="M138.671 272.412C138.851 273.858 137.392 275.156 135.332 275.277C133.272 275.399 132.074 273.783 132.175 272.148C132.277 270.514 133.535 268.915 135.287 269.063C137.039 269.212 138.491 270.966 138.671 272.412Z" fill="#17E1D5"/>
<path d="M132.695 272.597C133.095 273.154 132.814 274.018 132.027 274.532C131.241 275.047 130.4 274.649 130.068 273.952C129.736 273.255 129.87 272.311 130.596 271.978C131.322 271.644 132.295 272.041 132.695 272.597Z" fill="#17E1D5"/>
<path d="M134.365 269.592C134.002 270.173 133.096 270.241 132.321 269.709C131.546 269.176 131.595 268.247 132.114 267.675C132.633 267.103 133.557 266.869 134.141 267.414C134.725 267.959 134.727 269.01 134.365 269.592Z" fill="#17E1D5"/>
<path d="M136.92 270.071C136.237 270.018 135.758 269.246 135.872 268.313C135.986 267.38 136.832 266.994 137.579 267.19C138.326 267.386 138.961 268.097 138.748 268.867C138.534 269.637 137.603 270.124 136.92 270.071Z" fill="#17E1D5"/>
<path d="M138.508 272.495C138.099 271.946 138.364 271.077 139.142 270.548C139.919 270.02 140.767 270.402 141.111 271.094C141.456 271.785 141.339 272.731 140.619 273.077C139.899 273.424 138.918 273.044 138.508 272.495Z" fill="#17E1D5"/>
<path d="M134.748 274.668C135.433 274.679 135.959 275.42 135.902 276.358C135.846 277.297 135.025 277.735 134.267 277.585C133.51 277.435 132.832 276.765 132.998 275.983C133.164 275.201 134.063 274.657 134.748 274.668Z" fill="#17E1D5"/>
<path d="M137.091 274.75C137.36 274.12 138.246 273.914 139.093 274.322C139.94 274.73 140.034 275.655 139.608 276.3C139.183 276.944 138.306 277.317 137.645 276.868C136.985 276.419 136.821 275.38 137.091 274.75Z" fill="#17E1D5"/>
</g>
<path d="M198.684 336.438C203.709 329.913 208.457 332.398 218.368 326.337C218.986 325.959 219.804 326.315 219.88 327.036C220.75 335.282 217.816 343.099 215.041 347.044C210.295 353.791 204.256 355.903 199.207 351.006C195.172 347.092 195.373 340.738 198.684 336.438Z" fill="#108CFF"/>
<path d="M215.513 342.108C217.497 336.04 216.595 328.431 214.57 323.134C214.283 322.382 213.251 322.323 212.746 322.949C209.08 327.488 201.813 330.929 198.358 335.65C194.675 340.683 193.964 349.521 202.062 352.874C208.537 355.555 213.614 347.918 215.513 342.108Z" fill="url(#paint56_linear)"/>
<path d="M205.242 354.037C199.711 353.418 195.25 348.783 197.555 341.988C200.928 332.042 217.744 331.188 227.968 338.429C228.41 338.742 228.494 339.357 228.171 339.792C222.489 347.447 215.717 355.211 205.242 354.037Z" fill="url(#paint57_linear)"/>
<path d="M199.291 335.782C204.359 329.201 215.212 329.983 224.434 331.951C224.958 332.063 225.298 332.573 225.179 333.096C223.814 339.121 219.835 345.542 216.747 348.834C211.461 354.469 204.072 356.038 199.023 351.141C194.988 347.227 195.98 340.082 199.291 335.782Z" fill="url(#paint58_linear)"/>
<path d="M176.78 463.403C212.213 463.403 240.937 461.644 240.937 459.474C240.937 459.47 240.937 459.467 240.937 459.463H240.941C241.445 463.893 242.005 473.077 240.937 482.083C240.189 487.564 112.947 486.374 112.622 482.083C111.93 473.077 111.957 467.991 112.622 459.463H112.624C112.624 459.467 112.624 459.47 112.624 459.474C112.624 461.644 141.348 463.403 176.78 463.403Z" fill="#F8523F"/>
<path d="M112.631 459.413C112.626 459.433 112.624 459.454 112.624 459.474C112.624 461.644 141.348 463.403 176.78 463.403C212.213 463.403 240.937 461.644 240.937 459.474C240.937 459.454 240.934 459.433 240.929 459.413H236.25C236.233 460.695 209.614 461.734 176.78 461.734C143.946 461.734 117.327 460.695 117.31 459.413H112.631Z" fill="#FFB3AA"/>
<path opacity="0.5" fill-rule="evenodd" clip-rule="evenodd" d="M117.236 463.972C116.224 463.826 115.282 464.564 115.235 465.585C115.057 469.446 115.071 472.846 115.29 476.973C115.387 478.814 116.735 480.337 118.565 480.562C121.971 480.982 126.888 481.354 132.86 481.668C144.784 482.294 160.692 482.673 176.635 482.748C192.58 482.822 208.506 482.591 220.471 482.002C226.466 481.707 231.396 481.326 234.817 480.86C236.811 480.588 238.26 478.935 238.378 476.926C238.618 472.845 238.573 468.912 238.415 465.646C238.363 464.582 237.379 463.82 236.325 463.972C232.956 464.46 228.161 464.889 222.329 465.247C210.641 465.963 194.538 466.403 176.78 466.403C159.023 466.403 142.92 465.963 131.231 465.247C125.399 464.889 120.605 464.46 117.236 463.972Z" fill="#FF8576"/>
<path opacity="0.5" fill-rule="evenodd" clip-rule="evenodd" d="M138.715 468.616C137.62 468.565 136.679 469.404 136.635 470.499C136.532 473.086 136.603 474.691 136.82 477.098C136.909 478.079 137.706 478.844 138.689 478.896C150.579 479.529 164.98 479.792 185.905 479.792C199.046 479.792 222.273 479.417 233.682 478.006C234.62 477.89 235.323 477.114 235.373 476.17C235.517 473.478 235.569 471.468 235.53 469.249C235.509 468.087 234.486 467.209 233.33 467.328C219.494 468.749 200.709 469.347 186.111 469.347C163.786 469.347 152.904 469.272 138.715 468.616Z" fill="#FF8576"/>
<path d="M156.05 461.58C147.229 471.803 137.742 480.437 127.158 483.686C134.108 477.217 139.461 469.446 144.336 461.353C147.872 461.44 152.179 461.565 156.05 461.58Z" fill="#CC3725"/>
<path d="M155.91 459.163C164.035 449.605 172.076 447.02 176.942 449.331C173.742 443.604 162.774 441.818 152.478 448.867C141.737 456.222 142.368 467.882 127.249 483.465C138.472 479.384 146.449 470.294 155.91 459.163Z" fill="#229E53"/>
<path d="M154.018 454C162.142 444.441 173.753 445.335 176.942 449.331C173.742 443.604 162.774 441.818 152.478 448.867C141.737 456.222 142.368 467.882 127.249 483.465C138.494 475.781 144.557 465.13 154.018 454Z" fill="url(#paint59_linear)"/>
<defs>
<filter id="filter0_f" x="324" y="219.45" width="214.29" height="381.885" filterUnits="userSpaceOnUse" color-interpolation-filters="sRGB">
<feFlood flood-opacity="0" result="BackgroundImageFix"/>
<feBlend mode="normal" in="SourceGraphic" in2="BackgroundImageFix" result="shape"/>
<feGaussianBlur stdDeviation="8" result="effect1_foregroundBlur"/>
</filter>
<linearGradient id="paint0_linear" x1="79.3816" y1="22.6373" x2="-30.0492" y2="80.9935" gradientUnits="userSpaceOnUse">
<stop stop-color="#4BE0D7"/>
<stop offset="1" stop-color="#BAF7C8"/>
</linearGradient>
<linearGradient id="paint1_linear" x1="501.5" y1="544.985" x2="501.5" y2="-7.57655e-05" gradientUnits="userSpaceOnUse">
<stop stop-color="#E1EAFF"/>
<stop offset="1" stop-color="#F0F5FF"/>
</linearGradient>
<linearGradient id="paint2_linear" x1="379.166" y1="258.647" x2="398.992" y2="306.166" gradientUnits="userSpaceOnUse">
<stop stop-color="#4192FF"/>
<stop offset="1" stop-color="#4192FF" stop-opacity="0"/>
</linearGradient>
<linearGradient id="paint3_linear" x1="334.786" y1="227.764" x2="357.168" y2="227.686" gradientUnits="userSpaceOnUse">
<stop stop-color="#CFD9EF"/>
<stop offset="1" stop-color="#C3D0E4" stop-opacity="0"/>
</linearGradient>
<radialGradient id="paint4_radial" cx="0" cy="0" r="1" gradientUnits="userSpaceOnUse" gradientTransform="translate(311.127 238.735) rotate(-24.9391) scale(51.7016 44.2368)">
<stop stop-color="#D0DAF2"/>
<stop offset="1" stop-color="#D0DAF2"/>
</radialGradient>
<linearGradient id="paint5_linear" x1="314.393" y1="245.76" x2="335.481" y2="291.109" gradientUnits="userSpaceOnUse">
<stop stop-color="#C7D3EE" stop-opacity="0"/>
<stop offset="1" stop-color="#A4B3D3"/>
</linearGradient>
<linearGradient id="paint6_linear" x1="307.998" y1="232.007" x2="312.599" y2="241.903" gradientUnits="userSpaceOnUse">
<stop stop-color="#5D719B"/>
<stop offset="1" stop-color="#A3B6DF"/>
</linearGradient>
<radialGradient id="paint7_radial" cx="0" cy="0" r="1" gradientUnits="userSpaceOnUse" gradientTransform="translate(302.945 234.418) rotate(-25.7282) scale(19.8091 10.3648)">
<stop stop-color="#D9E2F8"/>
<stop offset="1" stop-color="#D9E2F8" stop-opacity="0"/>
</radialGradient>
<radialGradient id="paint8_radial" cx="0" cy="0" r="1" gradientUnits="userSpaceOnUse" gradientTransform="translate(320.97 240.189) rotate(162.826) scale(12.6767 42.2384)">
<stop stop-color="#D4DEF6"/>
<stop offset="1" stop-color="white" stop-opacity="0"/>
</radialGradient>
<linearGradient id="paint9_linear" x1="301.928" y1="234.831" x2="307.537" y2="246.894" gradientUnits="userSpaceOnUse">
<stop stop-color="#CEDAF4"/>
<stop offset="1" stop-color="#9BACD0"/>
</linearGradient>
<radialGradient id="paint10_radial" cx="0" cy="0" r="1" gradientUnits="userSpaceOnUse" gradientTransform="translate(298.538 238.567) rotate(0.742018) scale(33.1235 29.8066)">
<stop stop-color="#D0DAF2"/>
<stop offset="1" stop-color="#A5B9DF"/>
</radialGradient>
<radialGradient id="paint11_radial" cx="0" cy="0" r="1" gradientUnits="userSpaceOnUse" gradientTransform="translate(254.038 266.232) rotate(-176.561) scale(2.87417 7.98751)">
<stop stop-color="#D4DEF6"/>
<stop offset="1" stop-color="#D4DEF6" stop-opacity="0"/>
</radialGradient>
<radialGradient id="paint12_radial" cx="0" cy="0" r="1" gradientUnits="userSpaceOnUse" gradientTransform="translate(244.654 257.992) rotate(59.7475) scale(8.96986 34.0852)">
<stop stop-color="#DDE4F6"/>
<stop offset="1" stop-color="#A2B3D7" stop-opacity="0"/>
</radialGradient>
<linearGradient id="paint13_linear" x1="309.358" y1="285.09" x2="257.099" y2="270.719" gradientUnits="userSpaceOnUse">
<stop stop-color="#ABBAD9"/>
<stop offset="1" stop-color="#A7BCDF" stop-opacity="0"/>
</linearGradient>
<linearGradient id="paint14_linear" x1="356.17" y1="232.009" x2="356.887" y2="225.196" gradientUnits="userSpaceOnUse">
<stop stop-color="#2B84FD"/>
<stop offset="1" stop-color="#4996FF"/>
</linearGradient>
<linearGradient id="paint15_linear" x1="357.348" y1="223.942" x2="351.564" y2="229.977" gradientUnits="userSpaceOnUse">
<stop stop-color="#7AB2FF"/>
<stop offset="1" stop-color="#7AB2FF" stop-opacity="0"/>
</linearGradient>
<linearGradient id="paint16_linear" x1="355.955" y1="236.008" x2="357" y2="230.51" gradientUnits="userSpaceOnUse">
<stop stop-color="#2B84FD"/>
<stop offset="1" stop-color="#4996FF"/>
</linearGradient>
<linearGradient id="paint17_linear" x1="359.206" y1="231.453" x2="349.399" y2="233.75" gradientUnits="userSpaceOnUse">
<stop stop-color="#7AB2FF"/>
<stop offset="1" stop-color="#7AB2FF" stop-opacity="0"/>
</linearGradient>
<linearGradient id="paint18_linear" x1="354.848" y1="241.577" x2="355.674" y2="235.359" gradientUnits="userSpaceOnUse">
<stop stop-color="#2B84FD"/>
<stop offset="1" stop-color="#4996FF"/>
</linearGradient>
<linearGradient id="paint19_linear" x1="360.372" y1="236.353" x2="349.843" y2="238.954" gradientUnits="userSpaceOnUse">
<stop stop-color="#7AB2FF"/>
<stop offset="1" stop-color="#7AB2FF" stop-opacity="0"/>
</linearGradient>
<linearGradient id="paint20_linear" x1="353.845" y1="247.204" x2="356.072" y2="240.919" gradientUnits="userSpaceOnUse">
<stop stop-color="#2B84FD"/>
<stop offset="1" stop-color="#4996FF"/>
</linearGradient>
<linearGradient id="paint21_linear" x1="362.716" y1="242.807" x2="350.644" y2="243.713" gradientUnits="userSpaceOnUse">
<stop stop-color="#71ACFF"/>
<stop offset="1" stop-color="#71ACFF" stop-opacity="0"/>
</linearGradient>
<linearGradient id="paint22_linear" x1="365.931" y1="224.778" x2="366.619" y2="238.156" gradientUnits="userSpaceOnUse">
<stop stop-color="#4996FF"/>
<stop offset="1" stop-color="#2B84FD"/>
</linearGradient>
<linearGradient id="paint23_linear" x1="365.636" y1="226.31" x2="360.893" y2="236.257" gradientUnits="userSpaceOnUse">
<stop stop-color="#82B7FF"/>
<stop offset="1" stop-color="#579EFF" stop-opacity="0"/>
</linearGradient>
<linearGradient id="paint24_linear" x1="373.148" y1="486.69" x2="381.783" y2="453.588" gradientUnits="userSpaceOnUse">
<stop stop-color="#25CCD7"/>
<stop offset="1" stop-color="#25CCD7" stop-opacity="0"/>
</linearGradient>
<linearGradient id="paint25_linear" x1="518.408" y1="399.434" x2="517.483" y2="446.124" gradientUnits="userSpaceOnUse">
<stop stop-color="#10FFF1"/>
<stop offset="1" stop-color="#10FFF1" stop-opacity="0"/>
</linearGradient>
<linearGradient id="paint26_linear" x1="517.898" y1="406.116" x2="514.371" y2="418.841" gradientUnits="userSpaceOnUse">
<stop stop-color="#19FAED"/>
<stop offset="1" stop-color="#18FAED" stop-opacity="0"/>
</linearGradient>
<linearGradient id="paint27_linear" x1="542.92" y1="333.281" x2="552.5" y2="340.213" gradientUnits="userSpaceOnUse">
<stop stop-color="#3695FE"/>
<stop offset="1" stop-color="#4E99FF"/>
</linearGradient>
<linearGradient id="paint28_linear" x1="505.58" y1="434.964" x2="524.825" y2="478.37" gradientUnits="userSpaceOnUse">
<stop stop-color="#4AF6EF"/>
<stop offset="1" stop-color="#4BE0D7"/>
</linearGradient>
<linearGradient id="paint29_linear" x1="495.721" y1="417.221" x2="506.324" y2="430.392" gradientUnits="userSpaceOnUse">
<stop stop-color="#92FFF9"/>
<stop offset="1" stop-color="#19FAED" stop-opacity="0"/>
</linearGradient>
<radialGradient id="paint30_radial" cx="0" cy="0" r="1" gradientUnits="userSpaceOnUse" gradientTransform="translate(505.101 284.128) rotate(128.174) scale(12.3668 36.2586)">
<stop stop-color="#3FA3FF"/>
<stop offset="1" stop-color="#3FA3FF" stop-opacity="0"/>
</radialGradient>
<linearGradient id="paint31_linear" x1="500.197" y1="289.208" x2="500.599" y2="302.386" gradientUnits="userSpaceOnUse">
<stop stop-color="#53A7FF"/>
<stop offset="1" stop-color="#3FA3FF" stop-opacity="0"/>
</linearGradient>
<linearGradient id="paint32_linear" x1="474.286" y1="301.678" x2="449.09" y2="358.613" gradientUnits="userSpaceOnUse">
<stop stop-color="#E7EBF7"/>
<stop offset="1" stop-color="#CBCEEB"/>
</linearGradient>
<linearGradient id="paint33_linear" x1="393.048" y1="404.06" x2="401.708" y2="411.462" gradientUnits="userSpaceOnUse">
<stop stop-color="#80FDF6"/>
<stop offset="1" stop-color="#80FDF6" stop-opacity="0"/>
</linearGradient>
<linearGradient id="paint34_linear" x1="485.886" y1="352.9" x2="493.216" y2="350.74" gradientUnits="userSpaceOnUse">
<stop stop-color="#82B7FF"/>
<stop offset="1" stop-color="#4E99FF" stop-opacity="0"/>
</linearGradient>
<linearGradient id="paint35_linear" x1="488.646" y1="358.042" x2="495.154" y2="355.543" gradientUnits="userSpaceOnUse">
<stop stop-color="#82B7FF"/>
<stop offset="1" stop-color="#4E99FF" stop-opacity="0"/>
</linearGradient>
<linearGradient id="paint36_linear" x1="492.334" y1="363.22" x2="498.384" y2="360.571" gradientUnits="userSpaceOnUse">
<stop stop-color="#82B7FF"/>
<stop offset="1" stop-color="#4E99FF" stop-opacity="0"/>
</linearGradient>
<linearGradient id="paint37_linear" x1="495.75" y1="367.104" x2="500.119" y2="364.751" gradientUnits="userSpaceOnUse">
<stop stop-color="#82B7FF"/>
<stop offset="1" stop-color="#4E99FF" stop-opacity="0"/>
</linearGradient>
<linearGradient id="paint38_linear" x1="245.66" y1="264.426" x2="156.363" y2="359.07" gradientUnits="userSpaceOnUse">
<stop stop-color="#87C5FF"/>
<stop offset="1" stop-color="#87C5FF" stop-opacity="0"/>
</linearGradient>
<linearGradient id="paint39_linear" x1="244.34" y1="266.342" x2="165.174" y2="292.315" gradientUnits="userSpaceOnUse">
<stop stop-color="#B7DCFF"/>
<stop offset="1" stop-color="#B7DCFF" stop-opacity="0"/>
</linearGradient>
<linearGradient id="paint40_linear" x1="244.49" y1="259.407" x2="172.791" y2="275.083" gradientUnits="userSpaceOnUse">
<stop stop-color="#B7DCFF"/>
<stop offset="1" stop-color="#B7DCFF" stop-opacity="0"/>
</linearGradient>
<linearGradient id="paint41_linear" x1="243.29" y1="272.188" x2="192.086" y2="304.509" gradientUnits="userSpaceOnUse">
<stop stop-color="#B7DCFF"/>
<stop offset="1" stop-color="#B7DCFF" stop-opacity="0"/>
</linearGradient>
<linearGradient id="paint42_linear" x1="243.583" y1="268.909" x2="159.222" y2="322.126" gradientUnits="userSpaceOnUse">
<stop stop-color="#B7DCFF"/>
<stop offset="1" stop-color="#B7DCFF" stop-opacity="0"/>
</linearGradient>
<linearGradient id="paint43_linear" x1="241.924" y1="262.689" x2="157.563" y2="315.907" gradientUnits="userSpaceOnUse">
<stop stop-color="#B7DCFF"/>
<stop offset="1" stop-color="#B7DCFF" stop-opacity="0"/>
</linearGradient>
<linearGradient id="paint44_linear" x1="246.266" y1="257.715" x2="157.345" y2="264.619" gradientUnits="userSpaceOnUse">
<stop stop-color="#B7DCFF"/>
<stop offset="1" stop-color="#B7DCFF" stop-opacity="0"/>
</linearGradient>
<linearGradient id="paint45_linear" x1="158.096" y1="321.083" x2="147.598" y2="342.081" gradientUnits="userSpaceOnUse">
<stop stop-color="#38B86B"/>
<stop offset="1" stop-color="#38B86B" stop-opacity="0"/>
</linearGradient>
<linearGradient id="paint46_linear" x1="215.732" y1="404.002" x2="178.88" y2="439.355" gradientUnits="userSpaceOnUse">
<stop stop-color="#38B86B"/>
<stop offset="1" stop-color="#38B86B" stop-opacity="0"/>
</linearGradient>
<linearGradient id="paint47_linear" x1="210.804" y1="388.576" x2="174.166" y2="381.291" gradientUnits="userSpaceOnUse">
<stop stop-color="#38B86B"/>
<stop offset="1" stop-color="#38B86B" stop-opacity="0"/>
</linearGradient>
<linearGradient id="paint48_linear" x1="140.741" y1="396.074" x2="175.023" y2="431.642" gradientUnits="userSpaceOnUse">
<stop stop-color="#38B86B"/>
<stop offset="1" stop-color="#38B86B" stop-opacity="0"/>
</linearGradient>
<linearGradient id="paint49_linear" x1="155.097" y1="361.793" x2="115.459" y2="354.294" gradientUnits="userSpaceOnUse">
<stop stop-color="#38B86B" stop-opacity="0"/>
<stop offset="1" stop-color="#38B86B"/>
</linearGradient>
<radialGradient id="paint50_radial" cx="0" cy="0" r="1" gradientUnits="userSpaceOnUse" gradientTransform="translate(134.991 273.856) rotate(11.2549) scale(34.0844)">
<stop stop-color="#8FE6FA"/>
<stop offset="1" stop-color="#1B94FF"/>
</radialGradient>
<radialGradient id="paint51_radial" cx="0" cy="0" r="1" gradientUnits="userSpaceOnUse" gradientTransform="translate(134.991 273.856) rotate(11.2549) scale(34.0844)">
<stop stop-color="#8FE6FA"/>
<stop offset="1" stop-color="#1B94FF"/>
</radialGradient>
<radialGradient id="paint52_radial" cx="0" cy="0" r="1" gradientUnits="userSpaceOnUse" gradientTransform="translate(134.991 273.856) rotate(11.2549) scale(34.0844)">
<stop stop-color="#8FE6FA"/>
<stop offset="1" stop-color="#1B94FF"/>
</radialGradient>
<radialGradient id="paint53_radial" cx="0" cy="0" r="1" gradientUnits="userSpaceOnUse" gradientTransform="translate(134.991 273.856) rotate(11.2549) scale(34.0844)">
<stop stop-color="#8FE6FA"/>
<stop offset="1" stop-color="#1B94FF"/>
</radialGradient>
<radialGradient id="paint54_radial" cx="0" cy="0" r="1" gradientUnits="userSpaceOnUse" gradientTransform="translate(134.991 273.856) rotate(11.2549) scale(34.0844)">
<stop stop-color="#8FE6FA"/>
<stop offset="1" stop-color="#1B94FF"/>
</radialGradient>
<radialGradient id="paint55_radial" cx="0" cy="0" r="1" gradientUnits="userSpaceOnUse" gradientTransform="translate(134.991 273.856) rotate(11.2549) scale(34.0844)">
<stop stop-color="#8FE6FA"/>
<stop offset="1" stop-color="#1B94FF"/>
</radialGradient>
<linearGradient id="paint56_linear" x1="213.465" y1="324.476" x2="195.733" y2="343.558" gradientUnits="userSpaceOnUse">
<stop stop-color="#108CFF"/>
<stop offset="1" stop-color="#8FE6FA"/>
</linearGradient>
<linearGradient id="paint57_linear" x1="220.111" y1="329.308" x2="215.206" y2="354.13" gradientUnits="userSpaceOnUse">
<stop stop-color="#108CFF"/>
<stop offset="1" stop-color="#8FE6FA"/>
</linearGradient>
<linearGradient id="paint58_linear" x1="224.149" y1="331.398" x2="197.29" y2="336.09" gradientUnits="userSpaceOnUse">
<stop stop-color="#108CFF"/>
<stop offset="1" stop-color="#8FE6FA"/>
</linearGradient>
<linearGradient id="paint59_linear" x1="132.599" y1="479.422" x2="175.237" y2="447.283" gradientUnits="userSpaceOnUse">
<stop stop-color="#38B86B"/>
<stop offset="1" stop-color="#38B86B" stop-opacity="0"/>
</linearGradient>
<clipPath id="clip0">
<rect width="87.6" height="86.2" fill="white" transform="translate(101.254 221.28) rotate(11.2549)"/>
</clipPath>
</defs>
</svg>
