<svg width="298" height="405" viewBox="0 0 298 405" fill="none" xmlns="http://www.w3.org/2000/svg">
<path d="M297.1 101.3C297.1 45.3 255.2 0 203.5 0H93.7C42 0 0 45.3 0 101.3V301.5C0 357.5 41.9 402.8 93.6 402.8H203.4C255.1 402.8 297 357.4 297 301.5V101.3H297.1Z" fill="url(#paint0_linear)"/>
<path d="M50.0728 131.15C50.0728 131.15 26.706 139.619 36.8613 164.949C46.9071 190.586 72.6724 178.868 72.6724 178.868L50.0728 131.15Z" fill="#CAFFFC"/>
<path d="M187.279 149.694C162.355 178.506 166.118 186.61 185.667 202.151C247.975 247.768 271.186 349.865 259.093 383C235.938 400.5 220.75 404.372 164.954 404.372C134.938 404 96.4375 403 96.9375 403C78.9375 356 83.7843 280.86 124.706 210.759C128.033 204.03 130.079 193.728 111.205 195.057C92.3313 196.386 61.1777 186.987 51.0306 162.903C39.1392 132.32 42.6465 81.2435 107.812 66.9457C172.977 52.6479 212.203 120.881 187.279 149.694Z" fill="url(#paint1_linear)"/>
<path d="M100.12 113.183C78.0039 122.481 56.7155 142.62 63.4737 161.236C70.2319 179.852 97.434 177.652 122.608 167.159C147.783 156.667 164.679 137.712 156.4 120.281C148.121 102.85 122.236 103.886 100.12 113.183Z" fill="url(#paint2_linear)"/>
<path d="M81.9792 156.79C81.8364 158.797 83.3297 160.658 85.3309 160.855C87.3345 160.998 89.193 159.502 89.39 157.497C89.5327 155.491 88.0394 153.629 86.0382 153.432C84.0394 153.181 82.1785 154.731 81.9792 156.79Z" fill="#8493AD"/>
<path d="M88.8849 156.656C88.8578 158.505 87.3764 160.072 85.4741 160.097C83.6283 160.07 82.0641 158.587 82.0394 156.681C82.0665 154.833 83.5479 153.266 85.4502 153.241C87.2959 153.267 88.8578 154.805 88.8849 156.656Z" fill="#2B3760"/>
<path d="M85.6136 154.446C86.0258 154.954 85.7164 155.811 84.9287 156.429C84.1952 157.049 83.2688 157.117 82.8566 156.61C82.4444 156.102 82.7537 155.245 83.5414 154.627C84.3316 153.954 85.2014 153.938 85.6136 154.446Z" fill="#364D98"/>
<path d="M84.5124 154.778C84.6137 154.945 84.4909 155.266 84.2079 155.526C83.9272 155.731 83.5995 155.771 83.4417 155.655C83.3428 155.433 83.4632 155.167 83.7462 154.907C84.0293 154.647 84.4112 154.61 84.5124 154.778Z" fill="#C3D8F8"/>
<path d="M83.9616 157.421C83.5207 157.565 83.0655 158.034 83.3716 158.483C83.8899 159.05 84.5803 159.407 85.3959 159.388C86.8622 159.398 88.1123 158.148 88.0685 156.677C88.043 156.023 87.9042 155.472 87.4873 155.073C87.1811 154.624 86.509 155.084 86.2706 155.564C86.0888 155.991 85.6878 156.463 85.2397 156.77C84.8976 157.135 84.452 157.388 83.9616 157.421Z" fill="#1B244A"/>
<path d="M129.353 136.569C129.21 138.576 130.703 140.438 132.704 140.635C134.708 140.777 136.567 139.281 136.764 137.277C136.906 135.27 135.413 133.409 133.412 133.212C131.413 132.96 129.552 134.511 129.353 136.569Z" fill="#8493AD"/>
<path d="M136.258 136.436C136.231 138.285 134.75 139.852 132.848 139.877C131.002 139.85 129.438 138.366 129.413 136.461C129.44 134.612 130.921 133.045 132.824 133.02C134.669 133.047 136.231 134.585 136.258 136.436Z" fill="#2B3760"/>
<path d="M132.987 134.225C133.399 134.733 133.09 135.59 132.302 136.208C131.569 136.829 130.642 136.897 130.23 136.389C129.818 135.881 130.127 135.024 130.915 134.406C131.705 133.733 132.575 133.717 132.987 134.225Z" fill="#364D98"/>
<path d="M131.886 134.557C131.987 134.725 131.864 135.046 131.581 135.305C131.301 135.51 130.973 135.55 130.815 135.435C130.716 135.213 130.837 134.946 131.12 134.686C131.403 134.427 131.785 134.389 131.886 134.557Z" fill="#C3D8F8"/>
<path d="M131.335 137.2C130.894 137.344 130.439 137.813 130.745 138.262C131.263 138.829 131.954 139.186 132.769 139.168C134.236 139.178 135.486 137.927 135.442 136.456C135.417 135.802 135.278 135.252 134.861 134.852C134.555 134.404 133.883 134.864 133.644 135.343C133.462 135.77 133.061 136.242 132.613 136.549C132.271 136.915 131.825 137.167 131.335 137.2Z" fill="#1B244A"/>
<path d="M172.127 83.2578C171.705 83.4557 171.321 83.7442 171.056 84.128C164.344 93.8736 179.477 126.799 191.225 131.877C192.095 132.253 193.102 132.067 193.896 131.551C224.964 111.379 195.654 72.2122 172.127 83.2578Z" fill="#CAFFFC"/>
<path d="M111.938 337C94.4373 329.344 89.9373 309.999 93.4373 292.499C96.9373 274.999 98.3964 268.49 106.437 252.499C119.194 253.995 130.427 216.413 122.938 213C111.438 221.999 81.3866 220.279 66.9376 286.5C60.9373 314 61.9372 336.999 97.9373 358C110.797 365.501 127.938 344 111.938 337Z" fill="url(#paint3_linear)"/>
<path d="M157.922 313.54V259.705L174.412 256.31V309.067L157.922 313.54Z" fill="#B7F8BC"/>
<path d="M157.922 313.54V259.705L140.462 256.31V309.067L157.922 313.54Z" fill="#90EEB6"/>
<path d="M157.922 259.705L148.222 240.445L157.922 234L167.622 240.445L157.922 259.705Z" fill="white"/>
<path d="M157.922 312.57L167.622 324.199L157.922 331L148.222 324.414L157.922 312.57Z" fill="#61E897"/>
<path d="M157.922 259.705L148.222 240.445L140.462 256.31L157.922 259.705Z" fill="#B7F8BC"/>
<path d="M157.922 312.465L167.622 324.21L174.412 308.69L157.922 312.465Z" fill="#90EEB6"/>
<path d="M174.412 256.31L167.622 240.445L157.922 259.705L174.412 256.31Z" fill="#DFFAEA"/>
<path d="M140.462 308.69L148.222 324.21L157.922 312.669L140.462 308.69Z" fill="#BFF5D5"/>
<path d="M117.546 376.594C120.73 376.351 122.154 370.02 116.575 364.106C118.951 365.43 123.864 367.808 130.444 370.046C137.016 372.282 150.407 372.951 148.439 366.888C147.855 365.088 142.017 366.526 136.364 364.816C132.78 363.731 129.283 362.396 127.273 360.469C128.873 360.4 132.24 362.039 137.784 363.337C144.607 364.934 155.543 364.047 153.412 359.075C152.449 356.827 147.882 358.934 140.626 357.654C136.396 356.908 133.805 355.584 129.68 353.748C139.524 356.944 153.412 357.544 153.412 352.682C153.412 350.266 147.672 350.818 143.076 350.551C138.421 350.279 134.877 349.191 129.847 347.201C132.087 347.027 148.504 351.683 145.207 345.578C144.671 344.586 141.112 345.089 136.364 344.157C127.516 342.422 111.481 337.45 104.315 335.245C95.1443 332.424 80.4748 332.43 86.9591 345.577C91.0813 355.54 102.682 360.682 107.071 364.815C111.758 369.227 113.368 376.912 117.546 376.594Z" fill="#3AEFE5"/>
<path d="M214.865 358.223C215.256 358.307 215.619 358.256 215.938 358C267.938 330.5 273.938 302 263.938 271.5C243.938 222 214.469 209.037 200.04 207.149C194.79 206.462 190.505 205.901 187.437 203.5C179.948 206.913 210.14 251.505 222.897 250.009L223.001 250.149C232.99 263.569 240.431 273.568 238.438 293C236.568 311.233 226.565 327.259 205.438 336L205.476 336.201C197.481 338.654 184.264 342.641 176.533 344.157C174.437 344.569 172.573 344.7 171.098 344.804C169.232 344.936 167.99 345.024 167.69 345.578C165.193 350.201 174.002 348.653 179.398 347.705C181.127 347.401 182.506 347.159 183.05 347.201C178.02 349.191 174.477 350.279 169.821 350.551C168.834 350.608 167.793 350.628 166.769 350.647C163.024 350.718 159.485 350.785 159.485 352.682C159.485 357.544 173.373 356.944 183.217 353.748C182.726 353.966 182.256 354.178 181.803 354.382C178.451 355.891 175.997 356.997 172.271 357.654C168.971 358.236 166.227 358.118 164.125 358.027C161.606 357.918 160.01 357.849 159.485 359.075C157.354 364.047 168.29 364.934 175.113 363.337C177.778 362.713 179.939 362.01 181.644 361.456C183.486 360.858 184.793 360.433 185.624 360.469C183.614 362.396 180.117 363.731 176.533 364.816C173.821 365.636 171.066 365.732 168.87 365.809C166.487 365.892 164.762 365.952 164.458 366.888C162.49 372.951 175.881 372.282 182.453 370.046C189.033 367.808 193.946 365.43 196.322 364.106C190.743 370.02 192.167 376.351 195.351 376.594C197.832 376.783 199.407 374.151 201.259 371.057C202.526 368.94 203.922 366.607 205.826 364.815C207.071 363.643 208.896 362.389 210.966 360.968C212.202 360.119 213.526 359.21 214.865 358.223Z" fill="#3AEFE5"/>
<path d="M214.865 358.223C215.256 358.307 215.619 358.256 215.938 358C267.938 330.5 273.938 302 263.938 271.5C243.938 222 214.469 209.037 200.04 207.149C194.79 206.462 190.505 205.901 187.437 203.5C179.948 206.913 210.14 251.505 222.897 250.009L223.001 250.149C232.99 263.569 240.431 273.568 238.438 293C236.568 311.233 226.565 327.259 205.438 336L205.476 336.201C197.481 338.654 184.264 342.641 176.533 344.157C174.437 344.569 172.573 344.7 171.098 344.804C169.232 344.936 167.99 345.024 167.69 345.578C165.193 350.201 174.002 348.653 179.398 347.705C181.127 347.401 182.506 347.159 183.05 347.201C178.02 349.191 174.477 350.279 169.821 350.551C168.834 350.608 167.793 350.628 166.769 350.647C163.024 350.718 159.485 350.785 159.485 352.682C159.485 357.544 173.373 356.944 183.217 353.748C182.726 353.966 182.256 354.178 181.803 354.382C178.451 355.891 175.997 356.997 172.271 357.654C168.971 358.236 166.227 358.118 164.125 358.027C161.606 357.918 160.01 357.849 159.485 359.075C157.354 364.047 168.29 364.934 175.113 363.337C177.778 362.713 179.939 362.01 181.644 361.456C183.486 360.858 184.793 360.433 185.624 360.469C183.614 362.396 180.117 363.731 176.533 364.816C173.821 365.636 171.066 365.732 168.87 365.809C166.487 365.892 164.762 365.952 164.458 366.888C162.49 372.951 175.881 372.282 182.453 370.046C189.033 367.808 193.946 365.43 196.322 364.106C190.743 370.02 192.167 376.351 195.351 376.594C197.832 376.783 199.407 374.151 201.259 371.057C202.526 368.94 203.922 366.607 205.826 364.815C207.071 363.643 208.896 362.389 210.966 360.968C212.202 360.119 213.526 359.21 214.865 358.223Z" fill="url(#paint4_linear)"/>
<defs>
<linearGradient id="paint0_linear" x1="135.133" y1="402.7" x2="135.133" y2="-1.33212e-06" gradientUnits="userSpaceOnUse">
<stop stop-color="#A6F7C7"/>
<stop offset="1" stop-color="#C5F9B3"/>
</linearGradient>
<linearGradient id="paint1_linear" x1="153.801" y1="65.071" x2="153.801" y2="404.327" gradientUnits="userSpaceOnUse">
<stop stop-color="#3FF3E9"/>
<stop offset="0.640412" stop-color="#17D6CA"/>
<stop offset="1" stop-color="#0FC6BB"/>
</linearGradient>
<linearGradient id="paint2_linear" x1="110.362" y1="106.578" x2="110.362" y2="175.158" gradientUnits="userSpaceOnUse">
<stop stop-color="white"/>
<stop offset="0.651042" stop-color="#E2FFFD"/>
<stop offset="1" stop-color="#E2FFFD"/>
</linearGradient>
<linearGradient id="paint3_linear" x1="56.2375" y1="225.815" x2="72.8023" y2="295.37" gradientUnits="userSpaceOnUse">
<stop stop-color="#22DDD2"/>
<stop offset="0.583083" stop-color="#22DDD2"/>
<stop offset="1" stop-color="#3AEFE5"/>
</linearGradient>
<linearGradient id="paint4_linear" x1="176.353" y1="199.766" x2="176.353" y2="289.162" gradientUnits="userSpaceOnUse">
<stop stop-color="#22DDD2"/>
<stop offset="0.583083" stop-color="#22DDD2"/>
<stop offset="1" stop-color="#3AEFE5"/>
</linearGradient>
</defs>
</svg>
