<svg width="670" height="720" viewBox="0 0 670 720" fill="none" xmlns="http://www.w3.org/2000/svg">
<path d="M124 522C124 551.271 147.729 575 177 575H256C285.271 575 309 551.271 309 522L309 190C309 160.729 285.271 137 256 137H177C147.729 137 124 160.729 124 190L124 522Z" fill="#79E5FE"/>
<mask id="mask0" mask-type="alpha" maskUnits="userSpaceOnUse" x="124" y="140" width="184" height="435">
<path d="M154 140C137.431 140 124 153.431 124 170L124 545C124 561.568 137.431 575 154 575L277 575C293.569 575 307 561.569 307 545L307 170C307 153.431 293.569 140 277 140L154 140Z" fill="white"/>
</mask>
<g mask="url(#mask0)">
<g filter="url(#filter0_f)">
<path d="M124 519.5V486.5L273.77 463L279 483.5L180.104 542L124 519.5Z" fill="#61D5F0"/>
</g>
<g opacity="0.2">
<path d="M311.008 382.629L266.975 382.629C265.871 382.629 264.975 383.524 264.975 384.629L264.975 418.51C264.975 419.614 264.08 420.51 262.975 420.51L228.615 420.51C227.51 420.51 226.615 421.405 226.615 422.51L226.615 453.993C226.615 455.098 225.72 455.993 224.615 455.993L188.816 455.993C187.711 455.993 186.816 456.889 186.816 457.993L186.816 493.874" stroke="#56D8F5" stroke-width="20"/>
<path d="M361.836 424.826L317.803 424.826C316.699 424.826 315.803 425.722 315.803 426.826L315.803 460.707C315.803 461.812 314.908 462.707 313.803 462.707L279.443 462.707C278.339 462.707 277.443 463.602 277.443 464.707L277.443 496.19C277.443 497.295 276.548 498.19 275.443 498.19L239.644 498.19C238.54 498.19 237.644 499.086 237.644 500.19L237.644 572.001" stroke="#56D8F5" stroke-width="20"/>
<path d="M311.008 292.482L266.975 292.482C265.871 292.482 264.975 293.378 264.975 294.482L264.975 328.363C264.975 329.468 264.08 330.363 262.975 330.363L228.615 330.363C227.51 330.363 226.615 331.259 226.615 332.363L226.615 363.847C226.615 364.951 225.72 365.847 224.615 365.847L188.816 365.847C187.711 365.847 186.816 366.742 186.816 367.847L186.816 401.728C186.816 402.832 185.921 403.728 184.816 403.728L155.251 403.728C154.146 403.728 153.251 404.623 153.251 405.728L153.251 430.498C153.251 431.602 152.355 432.498 151.251 432.498L112.493 432.498" stroke="#56D8F5" stroke-width="20"/>
<path d="M311.008 200.418L266.975 200.418C265.871 200.418 264.975 201.313 264.975 202.418L264.975 236.299C264.975 237.403 264.08 238.299 262.975 238.299L228.615 238.299C227.51 238.299 226.615 239.194 226.615 240.299L226.615 271.782C226.615 272.887 225.72 273.782 224.615 273.782L188.816 273.782C187.711 273.782 186.816 274.678 186.816 275.782L186.816 309.663C186.816 310.768 185.921 311.663 184.816 311.663L152.374 311.663C151.269 311.663 150.374 312.559 150.374 313.663L150.374 348.982C150.374 350.087 149.478 350.982 148.374 350.982L117.288 350.982" stroke="#56D8F5" stroke-width="20"/>
<path d="M303.336 116.025L259.303 116.025C258.199 116.025 257.303 116.921 257.303 118.025L257.303 151.906C257.303 153.011 256.408 153.906 255.303 153.906L220.943 153.906C219.839 153.906 218.943 154.802 218.943 155.906L218.943 187.39C218.943 188.494 218.048 189.39 216.943 189.39L181.144 189.39C180.04 189.39 179.144 190.285 179.144 191.39L179.144 225.271C179.144 226.375 178.249 227.271 177.144 227.271L144.702 227.271C143.597 227.271 142.702 228.166 142.702 229.271L142.702 264.59C142.702 265.694 141.806 266.59 140.702 266.59L109.616 266.59" stroke="#56D8F5" stroke-width="20"/>
</g>
</g>
<path d="M69.4863 320.637L98.0493 424.673C96.9765 424.875 95.9037 425.076 94.8309 425.143C93.7581 425.21 92.6853 425.277 91.6126 425.21C90.5398 425.21 89.467 425.076 88.3942 424.942C87.3214 424.808 86.2486 424.606 85.1758 424.338C81.0858 423.332 77.1299 421.588 73.3081 419.106C69.4863 416.624 65.9327 413.539 62.6473 409.849C59.3619 406.16 56.4117 401.934 53.8639 397.172C51.316 392.476 49.2375 387.311 47.6954 381.744C45.7509 374.768 44.8793 367.859 45.0134 361.353C45.0804 354.779 46.1532 348.608 48.0977 343.108C50.0421 337.54 52.8581 332.711 56.4117 328.82C60.0324 324.997 64.4576 322.112 69.4863 320.637Z" fill="#6493A8"/>
<path d="M69.4844 320.636L177.97 294.342L203.113 388.183L98.0473 424.673L69.4844 320.636Z" fill="url(#paint0_linear)"/>
<path d="M77.7969 325.532L173.208 302.391L195.066 383.889L102.605 416.019L77.7969 325.532Z" fill="url(#paint1_linear)"/>
<path d="M81.934 340.62L81.3398 338.453L176.326 314.014L176.908 316.184L81.934 340.62Z" fill="black" fill-opacity="0.39"/>
<path d="M87.6473 361.459L87.0531 359.292L181.119 331.885L181.701 334.056L87.6473 361.459Z" fill="black" fill-opacity="0.39"/>
<path d="M93.1925 381.685L92.5975 379.515L185.528 348.323L186.111 350.498L93.1925 381.685Z" fill="black" fill-opacity="0.39"/>
<path d="M98.1468 399.756L97.5518 397.586L190.383 366.427L190.966 368.601L98.1468 399.756Z" fill="black" fill-opacity="0.39"/>
<path d="M98.0508 424.605L203.184 388.115L284.514 404.348L182.868 444.863L98.0508 424.605Z" fill="url(#paint2_linear)"/>
<path d="M121.922 423.397L203.655 395.023L260.982 406.494L182.333 437.819L121.922 423.397Z" fill="url(#paint3_linear)"/>
<path d="M182.861 444.862L183.057 529.958L100.842 505.846C100.406 505.718 100.103 505.323 100.093 504.869L98.2539 424.639L182.861 444.862Z" fill="url(#paint4_linear)"/>
<path fill-rule="evenodd" clip-rule="evenodd" d="M180.619 446.636L100.567 427.502L102.319 503.937L180.803 526.956L180.619 446.636ZM182.861 444.862L98.2539 424.639L100.093 504.869C100.103 505.323 100.406 505.718 100.842 505.846L183.057 529.958L182.861 444.862Z" fill="url(#paint5_linear)"/>
<path d="M110.343 498.117C110.125 498.052 109.974 497.855 109.969 497.628L108.609 437.436L172.495 452.679C172.73 452.735 172.896 452.944 172.896 453.185L172.992 515.873C172.992 516.222 172.657 516.473 172.323 516.374L110.343 498.117Z" fill="#456E81"/>
<path d="M113.178 496.064C112.961 496 112.809 495.803 112.804 495.576L111.445 438.119L172.498 452.679C172.733 452.735 172.898 452.944 172.899 453.185L172.996 513.64L113.178 496.064Z" fill="#7C4E3D"/>
<path d="M113.178 496.064C112.961 496 112.809 495.803 112.804 495.576L111.445 438.119L172.498 452.679C172.733 452.735 172.898 452.944 172.899 453.185L172.996 513.64L113.178 496.064Z" fill="#6F4435"/>
<path fill-rule="evenodd" clip-rule="evenodd" d="M172.993 512.266L172.969 497.175L112.483 481.995L112.79 494.982L172.993 512.266ZM172.966 494.858L112.428 479.665L112.125 466.855L172.945 482.119L172.966 494.858ZM172.941 479.801L172.921 467.063L111.767 451.715L112.07 464.525L172.941 479.801ZM172.917 464.745L111.712 449.385L111.445 438.119L172.498 452.679C172.733 452.735 172.898 452.944 172.899 453.185L172.917 464.745Z" fill="url(#paint6_linear)"/>
<g style="mix-blend-mode:multiply" opacity="0.12">
<path d="M159.749 469.917C150.101 454.408 133.105 443.285 133.105 443.285L172.495 452.679C172.73 452.735 172.895 452.945 172.896 453.186L172.993 513.641C172.993 513.641 169.397 485.427 159.749 469.917Z" fill="#6C4334"/>
</g>
<path d="M182.859 444.861L183.055 529.957L282.323 481.736C282.499 481.65 282.613 481.473 282.617 481.278L284.271 404.414L182.859 444.861Z" fill="url(#paint7_linear)"/>
<path fill-rule="evenodd" clip-rule="evenodd" d="M183.055 529.957L282.323 481.736C282.499 481.65 282.613 481.473 282.617 481.278L284.271 404.414L182.859 444.861L183.055 529.957ZM281.952 407.758L185.11 446.383L185.293 526.372L280.393 480.175L281.952 407.758Z" fill="url(#paint8_linear)"/>
<path d="M193.255 451.471C193.056 451.55 192.925 451.743 192.926 451.957L193.117 513.104C193.119 513.488 193.521 513.739 193.867 513.571L230.245 495.904C230.425 495.817 230.539 495.635 230.539 495.435V437.422C230.539 437.054 230.167 436.802 229.825 436.938L193.255 451.471Z" fill="#456E81"/>
<path d="M193.255 451.471C193.055 451.55 192.925 451.743 192.926 451.957L193.12 510.612L227.51 493.853C227.689 493.765 227.803 493.583 227.803 493.384V437.729L193.255 451.471Z" fill="#6E4435"/>
<path d="M239.82 490.434C239.82 490.82 240.224 491.072 240.57 490.903L272.458 475.385C272.634 475.299 272.747 475.122 272.752 474.927L273.901 420.148C273.909 419.775 273.533 419.515 273.186 419.653L240.149 432.811C239.95 432.89 239.82 433.082 239.82 433.296V490.434Z" fill="#456E81"/>
<path d="M239.82 487.459L269.624 473.041C269.8 472.956 269.914 472.778 269.918 472.582L270.986 420.535L240.149 432.812C239.951 432.891 239.82 433.083 239.82 433.297V487.459Z" fill="#6E4435"/>
<path fill-rule="evenodd" clip-rule="evenodd" d="M269.624 473.041L239.82 487.459V475.004L270.153 461.114L269.918 472.582C269.914 472.778 269.8 472.956 269.624 473.041ZM270.192 459.243L239.82 473.15V459.805L270.447 446.816L270.192 459.243ZM239.82 443.47V457.975L270.485 444.97L270.765 431.338L239.82 443.47ZM239.82 441.66V433.297C239.82 433.083 239.951 432.891 240.149 432.812L270.986 420.535L270.802 429.513L239.82 441.66Z" fill="url(#paint9_linear)"/>
<path fill-rule="evenodd" clip-rule="evenodd" d="M227.803 446.369V437.729L193.255 451.471C193.055 451.55 192.925 451.743 192.926 451.957L192.953 460.033L227.803 446.369ZM192.959 461.84L193.011 477.825L227.803 463.069V448.179L192.959 461.84ZM193.017 479.653L227.803 464.9V478.651L193.067 494.557L193.017 479.653ZM193.073 496.407L193.12 510.612L227.51 493.853C227.689 493.765 227.803 493.583 227.803 493.384V480.504L193.073 496.407Z" fill="url(#paint10_linear)"/>
<g style="mix-blend-mode:multiply" opacity="0.12">
<path d="M192.926 451.602L193.101 505.066C193.101 505.066 195.973 486.346 205.346 470.842C214.719 455.337 227.805 449.898 227.805 449.898L227.804 437.729L192.926 451.602Z" fill="#6C4334"/>
</g>
<g style="mix-blend-mode:multiply" opacity="0.12">
<path d="M239.816 446.653C239.816 446.653 249.162 445.76 257.268 449.375C265.373 452.991 270.213 457.831 270.213 457.831L270.986 420.535L240.148 432.812C239.95 432.891 239.82 433.083 239.819 433.297L239.816 446.653Z" fill="#6C4334"/>
</g>
<path d="M182.322 437.889L247.56 411.863C225.635 408.04 212.829 389.191 187.417 392.142C162.475 395.027 152.485 419.174 133.711 426.217L182.322 437.889Z" fill="url(#paint11_linear)"/>
<mask id="mask1" mask-type="alpha" maskUnits="userSpaceOnUse" x="126" y="381" width="135" height="57">
<path d="M182.227 437.751L126.203 424.467C132.098 407.665 143.166 381.148 192.863 381.148C240.987 381.148 255.594 398.064 260.329 406.754L182.227 437.751Z" fill="#C4C4C4"/>
</mask>
<g mask="url(#mask1)">
<path d="M205.978 398.514L205.835 401.995C205.715 405.771 201.222 409.357 194.764 410.399C187.321 411.619 180.072 409.053 178.591 404.615C178.4 404.048 178.316 403.427 178.344 402.828L178.487 399.347C178.458 399.946 178.576 400.524 178.733 401.134C180.215 405.572 187.464 408.138 194.906 406.918C201.365 405.876 205.824 402.332 205.978 398.514Z" fill="url(#paint12_linear)"/>
<path d="M189.522 390.985C196.964 389.765 204.213 392.331 205.695 396.768C207.176 401.206 202.351 405.771 194.87 406.96C187.427 408.18 180.178 405.614 178.696 401.177C177.215 396.739 182.079 392.206 189.522 390.985Z" fill="url(#paint13_linear)"/>
<path fill-rule="evenodd" clip-rule="evenodd" d="M194.779 406.405L194.781 406.405C198.44 405.824 201.403 404.423 203.258 402.674C205.109 400.928 205.813 398.895 205.162 396.946C204.498 394.959 202.502 393.299 199.655 392.284C196.824 391.275 193.248 390.943 189.612 391.54C185.973 392.136 183.008 393.537 181.147 395.284C179.29 397.027 178.579 399.052 179.229 400.999C179.893 402.986 181.889 404.646 184.736 405.661C187.567 406.67 191.143 407.002 194.779 406.405ZM205.695 396.768C204.213 392.331 196.964 389.765 189.522 390.985C182.079 392.206 177.215 396.739 178.696 401.177C180.178 405.614 187.427 408.18 194.87 406.96C202.351 405.771 207.176 401.206 205.695 396.768Z" fill="url(#paint14_linear)"/>
<path d="M190.477 393.824C195.295 393.056 201.06 394.812 201.981 397.694C202.935 400.533 198.774 403.383 193.957 404.151C189.139 404.919 183.315 403.152 182.361 400.313C181.368 397.442 185.66 394.592 190.477 393.824Z" fill="#C27025"/>
<path d="M190.571 394.3C195.247 393.555 200.844 395.259 201.737 398.056C202.663 400.812 198.625 403.579 193.949 404.324C189.273 405.07 183.619 403.354 182.693 400.598C181.729 397.812 185.895 395.046 190.571 394.3Z" fill="url(#paint15_linear)"/>
<path d="M215.985 415.401L215.843 418.882C215.723 422.657 211.23 426.244 204.772 427.285C197.329 428.506 190.08 425.94 188.598 421.502C188.408 420.934 188.324 420.314 188.352 419.714L188.494 416.233C188.466 416.833 188.584 417.411 188.741 418.021C190.222 422.459 197.472 425.025 204.914 423.804C211.373 422.763 215.832 419.218 215.985 415.401Z" fill="url(#paint16_linear)"/>
<path d="M199.533 407.872C206.976 406.652 214.225 409.217 215.706 413.655C217.188 418.093 212.363 422.658 204.881 423.846C197.439 425.067 190.19 422.501 188.708 418.063C187.227 413.625 192.091 409.092 199.533 407.872Z" fill="url(#paint17_linear)"/>
<path fill-rule="evenodd" clip-rule="evenodd" d="M204.79 423.292L204.793 423.292C208.451 422.71 211.414 421.31 213.27 419.56C215.121 417.815 215.824 415.782 215.174 413.833C214.51 411.846 212.514 410.186 209.667 409.171C206.836 408.162 203.26 407.83 199.624 408.426C195.984 409.023 193.02 410.424 191.159 412.171C189.302 413.913 188.591 415.938 189.241 417.885C189.904 419.873 191.901 421.533 194.748 422.548C197.578 423.556 201.154 423.888 204.79 423.292ZM215.706 413.655C214.225 409.217 206.976 406.652 199.533 407.872C192.091 409.092 187.227 413.625 188.708 418.063C190.19 422.501 197.439 425.067 204.881 423.846C212.363 422.658 217.188 418.093 215.706 413.655Z" fill="url(#paint18_linear)"/>
<path d="M200.485 410.711C205.302 409.943 211.068 411.699 211.988 414.581C212.942 417.42 208.782 420.27 203.964 421.038C199.147 421.806 193.323 420.039 192.369 417.2C191.376 414.329 195.668 411.479 200.485 410.711Z" fill="#C27025"/>
<path d="M200.579 411.187C205.255 410.441 210.852 412.146 211.745 414.943C212.671 417.699 208.632 420.466 203.956 421.211C199.28 421.957 193.627 420.241 192.701 417.485C191.737 414.698 195.903 411.932 200.579 411.187Z" fill="url(#paint19_linear)"/>
<path d="M245.927 417.592L245.784 421.073C245.664 424.849 241.172 428.435 234.713 429.477C227.271 430.697 220.021 428.131 218.54 423.694C218.349 423.126 218.265 422.505 218.294 421.906L218.436 418.425C218.407 419.024 218.525 419.603 218.682 420.213C220.164 424.65 227.413 427.216 234.855 425.996C241.314 424.954 245.773 421.41 245.927 417.592Z" fill="url(#paint20_linear)"/>
<path d="M229.475 410.063C236.917 408.843 244.166 411.409 245.648 415.847C247.129 420.284 242.304 424.849 234.823 426.038C227.38 427.258 220.131 424.693 218.65 420.255C217.168 415.817 222.032 411.284 229.475 410.063Z" fill="url(#paint21_linear)"/>
<path fill-rule="evenodd" clip-rule="evenodd" d="M234.732 425.484L234.735 425.483C238.393 424.902 241.356 423.501 243.211 421.752C245.062 420.007 245.766 417.974 245.115 416.024C244.452 414.037 242.455 412.377 239.608 411.362C236.778 410.353 233.202 410.021 229.566 410.618C225.926 411.215 222.961 412.616 221.1 414.362C219.243 416.105 218.532 418.13 219.182 420.077C219.846 422.064 221.842 423.724 224.689 424.739C227.52 425.748 231.096 426.08 234.732 425.484ZM245.648 415.847C244.166 411.409 236.917 408.843 229.475 410.063C222.032 411.284 217.168 415.817 218.65 420.255C220.131 424.693 227.38 427.258 234.823 426.038C242.304 424.849 247.129 420.284 245.648 415.847Z" fill="url(#paint22_linear)"/>
<path d="M230.427 412.902C235.244 412.134 241.01 413.891 241.93 416.772C242.884 419.612 238.723 422.462 233.906 423.23C229.089 423.998 223.264 422.23 222.31 419.391C221.317 416.52 225.609 413.671 230.427 412.902Z" fill="#C27025"/>
<path d="M230.52 413.378C235.196 412.633 240.793 414.337 241.686 417.134C242.612 419.891 238.574 422.657 233.898 423.402C229.222 424.148 223.568 422.433 222.642 419.676C221.678 416.89 225.844 414.124 230.52 413.378Z" fill="url(#paint23_linear)"/>
<path d="M199.411 427.049L199.269 430.53C199.149 434.306 194.656 437.892 188.197 438.934C180.755 440.154 173.506 437.588 172.024 433.151C171.833 432.583 171.749 431.962 171.778 431.363L171.92 427.882C171.892 428.481 172.01 429.06 172.167 429.67C173.648 434.107 180.897 436.673 188.34 435.453C194.798 434.411 199.257 430.867 199.411 427.049Z" fill="url(#paint24_linear)"/>
<path d="M182.955 419.52C190.397 418.3 197.647 420.866 199.128 425.304C200.61 429.741 195.785 434.306 188.303 435.495C180.861 436.715 173.612 434.15 172.13 429.712C170.649 425.274 175.513 420.741 182.955 419.52Z" fill="url(#paint25_linear)"/>
<path fill-rule="evenodd" clip-rule="evenodd" d="M188.212 434.941L188.215 434.94C191.873 434.359 194.836 432.958 196.692 431.209C198.543 429.464 199.246 427.431 198.595 425.481C197.932 423.494 195.936 421.834 193.088 420.819C190.258 419.81 186.682 419.479 183.046 420.075C179.406 420.672 176.442 422.073 174.581 423.819C172.724 425.562 172.013 427.587 172.663 429.534C173.326 431.521 175.322 433.181 178.17 434.196C181 435.205 184.576 435.537 188.212 434.941ZM199.128 425.304C197.647 420.866 190.397 418.3 182.955 419.52C175.513 420.741 170.649 425.274 172.13 429.712C173.612 434.15 180.861 436.715 188.303 435.495C195.785 434.306 200.61 429.741 199.128 425.304Z" fill="url(#paint26_linear)"/>
<path d="M183.911 422.36C188.728 421.592 194.494 423.348 195.414 426.229C196.368 429.069 192.208 431.919 187.39 432.687C182.573 433.455 176.749 431.687 175.795 428.848C174.801 425.977 179.094 423.128 183.911 422.36Z" fill="#C27025"/>
<path d="M184.005 422.835C188.681 422.09 194.278 423.794 195.171 426.591C196.097 429.348 192.058 432.114 187.382 432.859C182.706 433.605 177.053 431.89 176.127 429.133C175.162 426.347 179.329 423.581 184.005 422.835Z" fill="url(#paint27_linear)"/>
<path d="M191.435 403.989L191.292 407.47C191.172 411.245 186.679 414.832 180.221 415.873C172.778 417.094 165.529 414.528 164.048 410.09C163.857 409.522 163.773 408.902 163.801 408.302L163.944 404.821C163.915 405.421 164.033 405.999 164.19 406.609C165.672 411.047 172.921 413.613 180.363 412.392C186.822 411.351 191.281 407.806 191.435 403.989Z" fill="url(#paint28_linear)"/>
<path d="M174.982 396.46C182.425 395.24 189.674 397.805 191.156 402.243C192.637 406.681 187.812 411.245 180.331 412.434C172.888 413.655 165.639 411.089 164.157 406.651C162.676 402.213 167.54 397.68 174.982 396.46Z" fill="url(#paint29_linear)"/>
<path fill-rule="evenodd" clip-rule="evenodd" d="M180.24 411.88L180.242 411.88C183.9 411.298 186.864 409.898 188.719 408.148C190.57 406.403 191.273 404.37 190.623 402.421C189.959 400.434 187.963 398.774 185.116 397.759C182.285 396.75 178.709 396.418 175.073 397.014C171.434 397.611 168.469 399.012 166.608 400.759C164.751 402.501 164.04 404.526 164.69 406.473C165.354 408.46 167.35 410.121 170.197 411.136C173.028 412.144 176.604 412.476 180.24 411.88ZM191.156 402.243C189.674 397.805 182.425 395.24 174.982 396.46C167.54 397.68 162.676 402.213 164.157 406.651C165.639 411.089 172.888 413.655 180.331 412.434C187.812 411.245 192.637 406.681 191.156 402.243Z" fill="url(#paint30_linear)"/>
<path d="M175.934 399.299C180.752 398.531 186.517 400.287 187.438 403.169C188.392 406.008 184.231 408.858 179.414 409.626C174.596 410.394 168.772 408.627 167.818 405.787C166.825 402.916 171.117 400.067 175.934 399.299Z" fill="#C27025"/>
<path d="M176.028 399.775C180.704 399.029 186.301 400.734 187.194 403.531C188.12 406.287 184.082 409.053 179.406 409.799C174.73 410.544 169.076 408.829 168.15 406.073C167.186 403.286 171.352 400.52 176.028 399.775Z" fill="url(#paint31_linear)"/>
<path d="M194.173 413.995L194.031 417.476C193.911 421.251 189.418 424.837 182.959 425.879C175.517 427.099 168.268 424.534 166.786 420.096C166.595 419.528 166.511 418.908 166.54 418.308L166.682 414.827C166.654 415.427 166.771 416.005 166.928 416.615C168.41 421.053 175.659 423.618 183.101 422.398C189.56 421.356 194.019 417.812 194.173 413.995Z" fill="url(#paint32_linear)"/>
<path d="M177.717 406.466C185.159 405.245 192.408 407.811 193.89 412.249C195.371 416.687 190.547 421.251 183.065 422.44C175.623 423.661 168.373 421.095 166.892 416.657C165.41 412.219 170.275 407.686 177.717 406.466Z" fill="url(#paint33_linear)"/>
<path fill-rule="evenodd" clip-rule="evenodd" d="M182.974 421.886L182.977 421.885C186.635 421.304 189.598 419.903 191.453 418.154C193.304 416.409 194.008 414.376 193.357 412.427C192.694 410.44 190.698 408.78 187.85 407.765C185.02 406.756 181.444 406.424 177.808 407.02C174.168 407.617 171.203 409.018 169.342 410.764C167.485 412.507 166.775 414.532 167.425 416.479C168.088 418.466 170.084 420.126 172.932 421.141C175.762 422.15 179.338 422.482 182.974 421.886ZM193.89 412.249C192.408 407.811 185.159 405.245 177.717 406.466C170.275 407.686 165.41 412.219 166.892 416.657C168.373 421.095 175.623 423.661 183.065 422.44C190.547 421.251 195.371 416.687 193.89 412.249Z" fill="url(#paint34_linear)"/>
<path d="M178.673 409.305C183.49 408.537 189.256 410.293 190.176 413.174C191.13 416.014 186.969 418.864 182.152 419.632C177.335 420.4 171.51 418.633 170.556 415.793C169.563 412.922 173.855 410.073 178.673 409.305Z" fill="#C27025"/>
<path d="M178.767 409.783C183.443 409.037 189.039 410.742 189.933 413.539C190.859 416.295 186.82 419.061 182.144 419.807C177.468 420.552 171.814 418.837 170.888 416.081C169.924 413.294 174.091 410.528 178.767 409.783Z" fill="url(#paint35_linear)"/>
<path d="M232.56 419.86L232.417 423.341C232.297 427.116 227.804 430.703 221.346 431.744C213.903 432.965 206.654 430.399 205.173 425.961C204.982 425.393 204.898 424.773 204.926 424.173L205.069 420.692C205.04 421.292 205.158 421.87 205.315 422.48C206.797 426.918 214.046 429.484 221.488 428.263C227.947 427.222 232.406 423.677 232.56 419.86Z" fill="url(#paint36_linear)"/>
<path d="M216.107 412.329C223.55 411.109 230.799 413.674 232.281 418.112C233.762 422.55 228.937 427.115 221.456 428.303C214.013 429.524 206.764 426.958 205.282 422.52C203.801 418.082 208.665 413.549 216.107 412.329Z" fill="url(#paint37_linear)"/>
<path fill-rule="evenodd" clip-rule="evenodd" d="M221.365 427.749L221.367 427.749C225.025 427.167 227.989 425.767 229.844 424.018C231.695 422.272 232.398 420.239 231.748 418.29C231.084 416.303 229.088 414.643 226.241 413.628C223.41 412.619 219.834 412.287 216.198 412.883C212.559 413.48 209.594 414.881 207.733 416.628C205.876 418.371 205.165 420.395 205.815 422.342C206.479 424.33 208.475 425.99 211.322 427.005C214.153 428.014 217.729 428.345 221.365 427.749ZM232.281 418.112C230.799 413.674 223.55 411.109 216.107 412.329C208.665 413.549 203.801 418.082 205.282 422.52C206.764 426.958 214.013 429.524 221.456 428.303C228.937 427.115 233.762 422.55 232.281 418.112Z" fill="url(#paint38_linear)"/>
<path d="M217.059 415.17C221.877 414.402 227.642 416.158 228.563 419.04C229.517 421.879 225.356 424.729 220.539 425.497C215.721 426.265 209.897 424.498 208.943 421.659C207.95 418.788 212.242 415.938 217.059 415.17Z" fill="#C27025"/>
<path d="M217.153 415.646C221.829 414.9 227.426 416.605 228.319 419.402C229.245 422.158 225.207 424.925 220.531 425.67C215.855 426.416 210.201 424.7 209.275 421.944C208.311 419.157 212.477 416.391 217.153 415.646Z" fill="url(#paint39_linear)"/>
<path d="M167.981 427.442L167.839 430.923C167.719 434.698 163.226 438.285 156.768 439.326C149.325 440.547 142.076 437.981 140.595 433.543C140.404 432.975 140.32 432.355 140.348 431.755L140.491 428.274C140.462 428.874 140.58 429.452 140.737 430.062C142.218 434.5 149.468 437.066 156.91 435.845C163.369 434.804 167.828 431.259 167.981 427.442Z" fill="url(#paint40_linear)"/>
<path d="M151.529 419.913C158.972 418.693 166.221 421.258 167.702 425.696C169.184 430.134 164.359 434.699 156.877 435.887C149.435 437.108 142.186 434.542 140.704 430.104C139.223 425.666 144.087 421.133 151.529 419.913Z" fill="url(#paint41_linear)"/>
<path fill-rule="evenodd" clip-rule="evenodd" d="M156.787 435.333L156.789 435.333C160.447 434.751 163.411 433.351 165.266 431.602C167.117 429.856 167.82 427.823 167.17 425.874C166.506 423.887 164.51 422.227 161.663 421.212C158.832 420.203 155.256 419.871 151.62 420.467C147.98 421.064 145.016 422.465 143.155 424.212C141.298 425.954 140.587 427.979 141.237 429.926C141.9 431.914 143.897 433.574 146.744 434.589C149.575 435.598 153.151 435.929 156.787 435.333ZM167.702 425.696C166.221 421.258 158.972 418.693 151.529 419.913C144.087 421.133 139.223 425.666 140.704 430.104C142.186 434.542 149.435 437.108 156.877 435.887C164.359 434.699 169.184 430.134 167.702 425.696Z" fill="url(#paint42_linear)"/>
<path d="M152.481 422.752C157.299 421.984 163.064 423.74 163.985 426.622C164.939 429.461 160.778 432.311 155.961 433.079C151.143 433.847 145.319 432.08 144.365 429.241C143.372 426.37 147.664 423.52 152.481 422.752Z" fill="#C27025"/>
<path d="M152.575 423.228C157.251 422.482 162.848 424.187 163.741 426.984C164.667 429.74 160.628 432.507 155.952 433.252C151.276 433.998 145.623 432.282 144.697 429.526C143.733 426.739 147.899 423.973 152.575 423.228Z" fill="url(#paint43_linear)"/>
<path d="M180.724 434.166L180.581 437.647C180.461 441.423 175.969 445.009 169.51 446.051C162.068 447.271 154.818 444.706 153.337 440.268C153.146 439.7 153.062 439.079 153.09 438.48L153.233 434.999C153.204 435.598 153.322 436.177 153.479 436.787C154.961 441.225 162.21 443.79 169.652 442.57C176.111 441.528 180.57 437.984 180.724 434.166Z" fill="url(#paint44_linear)"/>
<path d="M164.272 426.638C171.714 425.417 178.963 427.983 180.445 432.421C181.926 436.859 177.101 441.423 169.62 442.612C162.177 443.832 154.928 441.267 153.446 436.829C151.965 432.391 156.829 427.858 164.272 426.638Z" fill="url(#paint45_linear)"/>
<path fill-rule="evenodd" clip-rule="evenodd" d="M169.529 442.058L169.531 442.057C173.19 441.476 176.153 440.075 178.008 438.326C179.859 436.581 180.563 434.548 179.912 432.599C179.248 430.611 177.252 428.951 174.405 427.936C171.574 426.928 167.998 426.596 164.362 427.192C160.723 427.789 157.758 429.19 155.897 430.936C154.04 432.679 153.329 434.704 153.979 436.651C154.643 438.638 156.639 440.298 159.486 441.313C162.317 442.322 165.893 442.654 169.529 442.058ZM180.445 432.421C178.963 427.983 171.714 425.417 164.272 426.638C156.829 427.858 151.965 432.391 153.446 436.829C154.928 441.267 162.177 443.832 169.62 442.612C177.101 441.423 181.926 436.859 180.445 432.421Z" fill="url(#paint46_linear)"/>
<path d="M165.223 429.477C170.041 428.709 175.807 430.465 176.727 433.346C177.681 436.186 173.52 439.036 168.703 439.804C163.885 440.572 158.061 438.805 157.107 435.965C156.114 433.094 160.406 430.245 165.223 429.477Z" fill="#C27025"/>
<path d="M165.317 429.952C169.993 429.207 175.59 430.912 176.483 433.709C177.409 436.465 173.371 439.231 168.695 439.977C164.019 440.722 158.365 439.007 157.439 436.251C156.475 433.464 160.641 430.698 165.317 429.952Z" fill="url(#paint47_linear)"/>
<path d="M230.464 402.67L229.086 405.869C227.623 409.352 222.144 411.094 215.741 409.756C208.354 408.233 202.502 403.244 202.707 398.57C202.732 397.972 202.875 397.362 203.116 396.813L204.494 393.613C204.253 394.162 204.156 394.745 204.085 395.37C203.881 400.045 209.732 405.034 217.119 406.556C223.523 407.894 228.955 406.18 230.464 402.67Z" fill="url(#paint48_linear)"/>
<path d="M217.794 389.753C225.18 391.276 231.032 396.265 230.828 400.939C230.624 405.613 224.485 408.15 217.073 406.584C209.687 405.061 203.835 400.072 204.039 395.397C204.243 390.723 210.407 388.23 217.794 389.753Z" fill="url(#paint49_linear)"/>
<path fill-rule="evenodd" clip-rule="evenodd" d="M217.187 406.033L217.189 406.034C220.813 406.8 224.082 406.552 226.44 405.582C228.793 404.614 230.177 402.968 230.267 400.915C230.358 398.822 229.088 396.557 226.792 394.591C224.51 392.636 221.289 391.047 217.68 390.303C214.068 389.558 210.798 389.806 208.435 390.771C206.078 391.735 204.69 393.371 204.6 395.422C204.509 397.515 205.779 399.779 208.075 401.746C210.357 403.7 213.578 405.289 217.187 406.033ZM230.828 400.939C231.032 396.265 225.18 391.276 217.794 389.753C210.407 388.23 204.243 390.723 204.039 395.397C203.835 400.072 209.687 405.061 217.073 406.584C224.485 408.15 230.624 405.613 230.828 400.939Z" fill="url(#paint50_linear)"/>
<path d="M217.667 392.745C222.44 393.751 227.196 397.454 227.025 400.474C226.9 403.467 221.995 404.64 217.222 403.634C212.448 402.628 207.642 398.894 207.767 395.901C207.866 392.865 212.894 391.739 217.667 392.745Z" fill="#C27025"/>
<path d="M217.586 393.225C222.219 394.202 226.836 397.796 226.669 400.727C226.548 403.632 221.787 404.771 217.154 403.794C212.521 402.818 207.855 399.193 207.976 396.288C208.073 393.341 212.953 392.249 217.586 393.225Z" fill="url(#paint51_linear)"/>
<path d="M205.816 405.146L205.308 408.593C204.79 412.335 199.945 415.428 193.412 415.783C185.883 416.212 178.944 412.897 177.939 408.327C177.809 407.743 177.791 407.117 177.882 406.524L178.39 403.077C178.299 403.67 178.355 404.258 178.447 404.881C179.453 409.45 186.391 412.765 193.921 412.336C200.453 411.981 205.261 408.926 205.816 405.146Z" fill="url(#paint52_linear)"/>
<path d="M190.247 395.926C197.776 395.496 204.715 398.812 205.72 403.381C206.726 407.95 201.447 411.981 193.882 412.375C186.352 412.804 179.414 409.489 178.408 404.919C177.403 400.35 182.717 396.355 190.247 395.926Z" fill="url(#paint53_linear)"/>
<path fill-rule="evenodd" clip-rule="evenodd" d="M193.85 411.814L193.852 411.814C197.551 411.621 200.646 410.541 202.675 408.997C204.7 407.456 205.614 405.508 205.172 403.502C204.722 401.456 202.912 399.594 200.187 398.285C197.479 396.983 193.957 396.277 190.279 396.486C186.596 396.696 183.501 397.777 181.466 399.318C179.436 400.855 178.515 402.794 178.957 404.799C179.407 406.845 181.217 408.706 183.942 410.015C186.65 411.317 190.171 412.024 193.85 411.814ZM205.72 403.381C204.715 398.812 197.776 395.496 190.247 395.926C182.717 396.355 177.403 400.35 178.408 404.919C179.414 409.489 186.352 412.804 193.882 412.375C201.447 411.981 206.726 407.95 205.72 403.381Z" fill="url(#paint54_linear)"/>
<path d="M190.896 398.848C195.767 398.592 201.316 400.946 201.927 403.909C202.577 406.833 198.139 409.229 193.267 409.485C188.396 409.741 182.79 407.37 182.141 404.445C181.456 401.486 186.024 399.104 190.896 398.848Z" fill="#C27025"/>
<path d="M190.941 399.333C195.669 399.084 201.055 401.369 201.649 404.245C202.279 407.083 197.972 409.409 193.243 409.657C188.515 409.906 183.073 407.604 182.443 404.766C181.778 401.893 186.212 399.582 190.941 399.333Z" fill="url(#paint55_linear)"/>
<path d="M173.645 409.475L174.512 412.849C175.484 416.499 172.215 421.228 166.33 424.086C159.555 427.398 151.874 427.029 149.177 423.206C148.83 422.717 148.571 422.147 148.426 421.565L147.559 418.19C147.705 418.773 147.984 419.293 148.31 419.832C151.007 423.655 158.688 424.023 165.464 420.711C171.348 417.853 174.598 413.175 173.645 409.475Z" fill="url(#paint56_linear)"/>
<path d="M155.722 407.006C162.497 403.693 170.178 404.062 172.875 407.885C175.572 411.708 172.266 417.469 165.444 420.763C158.669 424.075 150.988 423.706 148.291 419.883C145.594 416.06 148.946 410.318 155.722 407.006Z" fill="url(#paint57_linear)"/>
<path fill-rule="evenodd" clip-rule="evenodd" d="M165.198 420.258L165.2 420.257C168.536 418.646 170.97 416.452 172.243 414.242C173.513 412.037 173.601 409.888 172.416 408.209C171.208 406.497 168.819 405.482 165.799 405.331C162.798 405.18 159.278 405.892 155.968 407.51C152.655 409.13 150.219 411.326 148.94 413.534C147.664 415.738 147.567 417.882 148.75 419.559C149.957 421.271 152.347 422.286 155.366 422.438C158.367 422.588 161.887 421.876 165.198 420.258ZM172.875 407.885C170.178 404.062 162.497 403.693 155.722 407.006C148.946 410.318 145.594 416.06 148.291 419.883C150.988 423.706 158.669 424.075 165.444 420.763C172.266 417.469 175.572 411.708 172.875 407.885Z" fill="url(#paint58_linear)"/>
<path d="M157.453 409.449C161.845 407.326 167.872 407.347 169.583 409.841C171.315 412.285 168.151 416.213 163.759 418.336C159.367 420.459 153.281 420.444 151.549 418C149.771 415.537 153.061 411.572 157.453 409.449Z" fill="#C27025"/>
<path d="M157.68 409.878C161.943 407.817 167.794 407.837 169.455 410.258C171.136 412.631 168.065 416.443 163.802 418.504C159.539 420.565 153.631 420.551 151.95 418.178C150.224 415.787 153.417 411.938 157.68 409.878Z" fill="url(#paint59_linear)"/>
</g>
<path d="M84.5716 413.673C69.7537 408.575 59.0929 389.994 56.0087 372.353C54.2654 362.359 54.9359 352.767 57.819 345.254C59.16 341.699 61.0373 338.68 63.317 336.266L84.5716 413.673Z" fill="#456E81"/>
<path d="M83.9076 411.241C70.1935 406.302 61.1205 388.386 58.266 371.294C56.5428 360.952 56.3204 349.99 63.9262 338.355L83.9076 411.241Z" fill="#7C4E3D"/>
<path d="M193.236 381.247C175.987 376.324 164.574 358.467 160.984 341.433C158.816 331.125 164.928 319.291 174.495 307.695L193.236 381.247Z" fill="#2D1B14"/>
<path d="M68.2273 233.621C68.2273 233.621 58.8027 232.316 57.7878 230.648C56.8453 228.981 58.6577 222.746 82.9441 217.237C74.027 208.247 63.5875 197.952 61.9201 196.068C60.2526 194.183 60.6876 191.283 64.095 190.703C67.5023 190.123 90.5562 185.628 101.503 200.997C111.508 214.989 96.6459 230.648 87.7288 237.608C80.0442 243.625 71.9246 248.99 67.7923 245.655C62.2101 241.16 68.2273 233.621 68.2273 233.621Z" fill="#FF9072"/>
<path fill-rule="evenodd" clip-rule="evenodd" d="M69.4882 234.625L69.4888 234.624L71.2535 232.413L68.4485 232.024L68.4476 232.024L68.4253 232.021L68.3507 232.01C68.2843 232.001 68.1858 231.987 68.0593 231.968C67.8063 231.93 67.4421 231.873 67.0012 231.801C66.1175 231.655 64.9351 231.444 63.7274 231.184C62.5101 230.922 61.311 230.619 60.3764 230.294C59.9068 230.131 59.549 229.977 59.3048 229.843C59.2709 229.824 59.2417 229.807 59.2167 229.792C59.2265 229.693 59.2618 229.532 59.3695 229.298C59.6336 228.725 60.305 227.815 61.8541 226.686C64.962 224.422 71.2346 221.546 83.3007 218.808L86.1354 218.165L84.0883 216.102C80.6478 212.633 77.0031 208.992 73.725 205.718C68.4539 200.452 64.1305 196.134 63.1272 195C62.5962 194.399 62.5161 193.778 62.6414 193.381C62.7443 193.055 63.1085 192.506 64.3654 192.292C64.4574 192.276 64.5629 192.258 64.6815 192.237C66.7689 191.874 72.8913 190.809 79.8178 191.473C87.1476 192.177 95.1009 194.787 100.19 201.932L100.192 201.935C104.705 208.246 103.705 214.947 100.298 221.165C96.8679 227.427 91.1133 232.922 86.7372 236.338L86.7352 236.339C82.8995 239.343 79.0678 242.091 75.7333 243.685C74.0666 244.481 72.622 244.941 71.4295 245.045C70.2675 245.147 69.4334 244.909 68.8045 244.401L68.8031 244.4C67.7195 243.527 67.2526 242.568 67.0955 241.616C66.931 240.62 67.093 239.531 67.4471 238.457C67.7989 237.39 68.3117 236.423 68.748 235.712C68.9639 235.36 69.1558 235.08 69.2908 234.891C69.3582 234.796 69.4111 234.725 69.4453 234.68C69.4567 234.665 69.466 234.653 69.4731 234.644C69.4766 234.64 69.4795 234.636 69.4818 234.633L69.487 234.626L69.4882 234.625ZM101.503 200.997C90.8524 186.044 68.7408 189.894 64.414 190.648C64.2937 190.669 64.1871 190.687 64.095 190.703C60.6876 191.283 60.2526 194.183 61.9201 196.068C62.955 197.237 67.3692 201.647 72.7013 206.974C75.5339 209.803 78.6255 212.892 81.6072 215.89C82.0557 216.342 82.5018 216.791 82.9441 217.237C82.3144 217.379 81.6998 217.523 81.1 217.667C58.5656 223.067 56.8697 229.024 57.7878 230.648C58.522 231.855 63.6579 232.871 66.4423 233.341C67.5066 233.521 68.2273 233.621 68.2273 233.621C68.2273 233.621 67.7752 234.187 67.2338 235.102C65.8 237.525 63.7402 242.393 67.7923 245.655C71.9246 248.99 80.0442 243.625 87.7288 237.608C96.6459 230.648 111.508 214.989 101.503 200.997Z" fill="url(#paint60_radial)"/>
<g opacity="0.5">
<path d="M59.8462 231.332C60.8015 232.869 70.4106 233.865 70.4106 233.865C67.0501 237.694 65.9529 241.784 66.3383 244.097C63.4479 239.729 68.2273 233.621 68.2273 233.621C68.2273 233.621 58.8027 232.316 57.7878 230.649C56.8745 229.033 58.5479 223.129 80.7486 217.752C60.1797 224.043 58.8769 229.797 59.8462 231.332Z" fill="#FF644E"/>
<path d="M82.9471 217.238C76.5845 210.825 70.13 204.501 63.8088 198.047C70.4944 204.276 77.5949 210.017 84.3502 216.154C84.5843 216.367 84.4935 216.759 84.1913 216.853C83.7436 216.992 83.2521 217.149 82.9471 217.238Z" fill="#FF644E"/>
</g>
<path opacity="0.5" fill-rule="evenodd" clip-rule="evenodd" d="M67.2458 235.105C66.8776 235.732 66.4665 236.523 66.1267 237.404C65.3394 239.447 64.9353 241.977 66.3383 244.097C66.0927 242.623 66.4493 240.427 67.6106 238.036C68.0369 237.159 68.5717 236.255 69.2249 235.351C69.5838 234.854 69.9785 234.357 70.4106 233.865C70.4106 233.865 70.303 233.853 70.1093 233.832C69.7834 233.795 69.2139 233.728 68.5042 233.634C68.4151 233.622 68.3239 233.61 68.2306 233.597C68.2169 233.596 68.2032 233.594 68.1894 233.592C67.6612 233.52 67.0704 233.434 66.4534 233.336C66.1384 233.286 65.8166 233.232 65.4928 233.176C64.859 233.061 64.1611 232.926 63.4513 232.774C61.6899 232.38 60.1941 231.892 59.8462 231.332C59.661 231.039 59.5587 230.592 59.658 230.016C59.8014 229.184 60.3651 228.085 61.706 226.796C64.296 224.305 69.786 221.105 80.7486 217.752C69.7217 220.423 63.7589 223.224 60.6619 225.564C57.5237 227.936 57.3281 229.836 57.7878 230.649C57.8452 230.743 57.9297 230.837 58.0379 230.929C58.328 231.175 58.7888 231.412 59.3577 231.636C59.3593 231.637 59.3608 231.637 59.3624 231.638C60.47 232.074 61.9861 232.46 63.4513 232.774C64.11 232.921 64.8059 233.056 65.4928 233.176C65.8325 233.237 66.1538 233.293 66.4487 233.343C67.5094 233.522 68.2273 233.621 68.2273 233.621C68.2273 233.621 67.7876 234.183 67.2556 235.088C67.2523 235.094 67.2491 235.099 67.2458 235.105ZM83.5121 215.397C83.5066 215.392 83.5011 215.387 83.4956 215.382C83.1286 215.051 82.7608 214.722 82.3921 214.394C79.9765 212.242 77.5268 210.13 75.0767 208.018L75.0767 208.018L75.0767 208.018L75.0766 208.018C71.2795 204.744 67.4815 201.469 63.8088 198.047C67.5549 201.872 71.3479 205.651 75.1408 209.43L75.1409 209.43L75.141 209.43C77.1912 211.473 79.2414 213.515 81.2841 215.565C81.8391 216.122 82.3934 216.68 82.9471 217.238C82.993 217.224 83.0431 217.209 83.0967 217.193C83.1035 217.191 83.1104 217.189 83.1174 217.187C83.2398 217.15 83.3792 217.107 83.5265 217.061C83.616 217.033 83.7085 217.004 83.8019 216.975C83.9317 216.934 84.0633 216.893 84.1913 216.853C84.4935 216.759 84.5843 216.367 84.3502 216.154C84.1759 215.996 84.0013 215.838 83.8266 215.68C83.7218 215.586 83.617 215.491 83.5121 215.397Z" fill="url(#paint61_radial)"/>
<path d="M143.883 243.838C154.539 265.885 136.226 303.375 112.229 310.045C104.819 312.005 101.236 312.923 95.7041 314.236C80.4074 318.224 82.0748 309.234 84.8297 302.202C88.4545 292.85 72.2153 292.197 65.3281 274.001C48.5814 229.633 120.049 197.587 143.883 243.838Z" fill="url(#paint62_linear)"/>
<path fill-rule="evenodd" clip-rule="evenodd" d="M95.7041 314.236C101.236 312.923 104.819 312.005 112.229 310.045C136.226 303.375 154.539 265.885 143.883 243.838C120.049 197.587 48.5814 229.633 65.3281 274.001C68.7965 283.165 74.6367 287.879 79.1172 291.496C83.5337 295.061 86.629 297.56 84.8297 302.202C82.0748 309.234 80.4074 318.224 95.7041 314.236ZM66.8357 273.431C58.8674 252.319 71.7743 233.986 90.0051 226.426C108.179 218.89 130.997 222.373 142.44 244.557C147.46 254.964 145.728 269.288 139.599 282.008C133.472 294.723 123.197 305.32 111.807 308.489C104.41 310.446 100.843 311.36 95.3319 312.668L95.3147 312.672L95.2976 312.677C91.5714 313.648 89.0844 313.769 87.4816 313.447C85.974 313.144 85.3108 312.474 84.9739 311.705C84.5843 310.815 84.5204 309.529 84.8038 307.883C85.0818 306.269 85.6587 304.504 86.3303 302.79L86.3324 302.784C86.8618 301.419 87.0622 300.12 86.9158 298.865C86.7693 297.609 86.2885 296.504 85.6164 295.508C84.374 293.666 82.34 292.025 80.2561 290.344C80.1819 290.284 80.1076 290.224 80.0333 290.164C75.5956 286.581 70.1164 282.098 66.8357 273.431Z" fill="url(#paint63_radial)"/>
<g style="mix-blend-mode:multiply">
<path fill-rule="evenodd" clip-rule="evenodd" d="M126.078 306.672L146.942 301.615C146.987 301.851 147.024 302.092 147.054 302.339C147.74 308.008 148.566 313.97 149.701 318.923C149.97 320.016 150.588 321.769 153.864 321.108C157.795 320.315 159.302 321.142 160.061 323.115C160.886 325.379 159.1 327.736 156.758 328.851C154.488 329.966 151.35 330.992 147.437 330.843C145.045 330.796 142.83 329.158 142.152 326.751C140.115 319.678 139.444 315.707 138.561 308.946C138.245 306.619 137.534 306.094 135.915 305.76C134.473 305.462 129.909 305.96 126.078 306.672Z" fill="#6493A8"/>
</g>
<g style="mix-blend-mode:multiply">
<path fill-rule="evenodd" clip-rule="evenodd" d="M96.7266 313.785L122.769 307.473C122.822 307.741 122.866 308.016 122.9 308.299C123.587 313.968 124.936 320.563 126.072 325.516C126.34 326.609 126.959 328.361 130.235 327.701C134.166 326.908 135.672 327.735 136.431 329.707C137.257 331.971 136.277 334.191 133.934 335.306C131.665 336.421 127.364 337.562 123.452 337.413C121.06 337.366 118.015 335.605 117.337 333.199C116.13 327.786 115.664 323.885 115.126 319.37C114.953 317.927 114.774 316.422 114.56 314.784C114.243 312.458 113.406 311.771 111.196 311.899C108.987 312.028 102.923 312.516 98.607 313.621C97.8788 313.792 97.2539 313.84 96.7266 313.785Z" fill="#6493A8"/>
</g>
<path opacity="0.37" d="M114.449 284.508C133.464 279.371 145.248 261.764 140.768 245.182C136.288 228.6 117.242 219.322 98.2269 224.459C79.2117 229.595 67.4283 247.202 71.908 263.785C76.3876 280.367 95.4339 289.645 114.449 284.508Z" fill="#FFAC92"/>
<path opacity="0.5" fill-rule="evenodd" clip-rule="evenodd" d="M116.196 227.484C116.79 225.806 118.632 224.927 120.31 225.52C124.986 227.175 128.782 229.35 132.487 232.658C133.815 233.843 133.931 235.881 132.745 237.209C131.56 238.537 129.522 238.652 128.194 237.467C125.156 234.755 122.101 232.992 118.16 231.598C116.482 231.004 115.602 229.162 116.196 227.484Z" fill="url(#paint64_linear)"/>
<path d="M150.313 330.33C147.921 330.283 145.705 328.645 145.027 326.238C142.991 319.165 141.941 313.561 141.058 306.8C140.741 304.474 139.748 303.367 137.926 303.838C133.263 304.98 128.526 306.192 125.54 306.859C119.566 308.264 120.639 301.614 125.416 298.372C128.281 296.471 132.41 292.999 141.527 293.975C146.159 294.429 149.368 297.174 149.929 301.826C150.616 307.495 151.441 313.457 152.577 318.41C152.846 319.503 153.464 321.256 156.74 320.595C160.671 319.802 162.177 320.629 162.936 322.602C163.762 324.866 161.976 327.223 159.633 328.338C157.364 329.453 154.226 330.479 150.313 330.33Z" fill="#FF7D64"/>
<path d="M145.029 326.237C145.707 328.644 147.923 330.282 150.315 330.329C154.227 330.478 157.365 329.452 159.635 328.337C161.557 327.422 163.105 325.671 163.142 323.821C162.557 324.977 161.457 325.991 160.181 326.631C157.936 327.794 154.82 328.887 150.905 328.82C148.513 328.824 146.263 327.232 145.534 324.841C143.348 317.812 142.113 313.494 141.087 306.753C140.915 305.66 140.598 304.841 140.121 304.334C140.601 304.849 140.908 305.684 141.06 306.799C141.942 313.56 142.993 319.164 145.029 326.237Z" fill="#FA6E52"/>
<path d="M110.81 285.613C127.489 281.107 137.85 265.756 133.952 251.325C130.053 236.895 113.372 228.849 96.6926 233.355C80.0134 237.861 69.6524 253.212 73.5508 267.642C77.4492 282.073 94.1306 290.118 110.81 285.613Z" fill="#F4533D"/>
<path fill-rule="evenodd" clip-rule="evenodd" d="M139.517 281.102C141.085 277.847 134.424 275.425 131.626 277.71C127.129 281.383 121.702 284.232 115.59 285.884C94.6003 291.554 73.4781 280.948 68.4118 262.194C67.677 259.474 63.2369 258.461 63.1516 261.277C63.0254 265.439 63.6989 269.742 65.336 274.08C69.2619 283.694 74.6016 287.925 78.9191 291.346C80.9595 292.963 82.7717 294.399 84.0984 296.137C86.2679 299.353 85.2487 302.055 84.2187 304.786C83.2381 307.387 82.2476 310.013 83.9894 313.133C86.7198 316.731 92.5206 315.229 104.442 312.142C106.655 311.569 109.079 310.941 111.733 310.281C123.454 307.25 133.28 294.045 139.517 281.102Z" fill="url(#paint65_linear)"/>
<path d="M87.7417 315.123C84.7194 312.964 85.7561 307.794 87.2474 303.355C88.816 298.63 85.6013 296.287 81.0147 292.943C80.6457 292.674 80.2678 292.399 79.8828 292.115C83.8814 295.363 86.5235 297.833 84.83 302.202C82.6986 307.643 81.2181 314.256 87.7417 315.123Z" fill="#F4533D"/>
<path d="M112.242 282.619C128.244 278.296 138.153 263.449 134.373 249.456C130.593 235.463 114.556 227.625 98.5532 231.948C82.5507 236.271 72.6425 251.119 76.4225 265.111C80.2025 279.104 96.2395 286.942 112.242 282.619Z" fill="#D7DBF0"/>
<path d="M107.655 262.627C119.305 265.325 130.248 261.041 132.097 253.057C133.947 245.074 126.002 236.414 114.352 233.716C102.702 231.018 91.7587 235.302 89.9096 243.285C88.0604 251.269 96.0054 259.928 107.655 262.627Z" fill="#E6E9F6"/>
<path d="M125.19 336.256C122.802 335.999 120.73 334.152 120.262 331.752C118.858 324.551 118.299 318.886 118.122 311.995C118.015 309.673 117.376 308.865 115.556 309.342C110.896 310.498 106.163 311.725 103.179 312.401C97.2101 313.825 98.2623 307.172 103.029 303.915C105.888 302.005 110.006 298.52 119.126 299.468C123.759 299.907 127.259 303.155 127.4 307.797C127.595 313.529 127.858 319.551 128.573 324.566C128.7 325.655 129.178 327.476 132.518 327.168C136.513 326.727 137.948 327.693 138.494 329.732C139.108 332.062 137.115 334.205 134.708 335.108C132.371 336.084 129.097 336.755 125.19 336.256Z" fill="url(#paint66_linear)"/>
<path d="M121.515 330.854C122.145 333.217 124.338 334.919 126.739 335.012C130.533 335.237 135.68 334.567 138.456 331.588C137.982 333.145 136.454 334.452 134.708 335.107C132.371 336.084 129.098 336.755 125.191 336.255C122.802 335.998 120.73 334.151 120.262 331.751C118.875 324.637 118.312 319.023 118.129 312.244C118.772 318.68 119.713 324.097 121.515 330.854Z" fill="#F75E49"/>
<path d="M130.229 266.461C130.581 265.786 129.849 265.105 129.165 265.439C116.168 271.777 95.9697 273.906 87.5632 256.316C85.6064 252.221 79.565 251.146 78.6195 255.585C77.9646 258.659 77.9367 261.663 78.585 264.658C82.0807 277.598 96.9112 284.847 111.71 280.849C120.151 278.569 126.759 273.122 130.229 266.461Z" fill="#C1C5E5"/>
<path d="M87.2036 262.281C86.4098 259.819 87.7625 257.179 90.2251 256.385C92.6876 255.591 95.3274 256.944 96.1212 259.406C96.9151 261.869 95.5623 264.509 93.0998 265.303C90.6372 266.096 87.9974 264.744 87.2036 262.281Z" fill="#A7ABD3"/>
<path d="M92.4723 264.779C90.1211 265.117 87.9416 263.484 87.6043 261.133C87.2669 258.782 88.8995 256.602 91.2506 256.265C93.6018 255.928 95.7813 257.56 96.1186 259.911C96.456 262.263 94.8235 264.442 92.4723 264.779Z" fill="#3B4965"/>
<path d="M92.3395 259.995C91.3107 259.402 90.803 258.355 91.2055 257.657C91.6081 256.959 92.7684 256.874 93.7973 257.467C94.8261 258.06 95.3338 259.107 94.9313 259.805C94.5287 260.503 93.3684 260.588 92.3395 259.995Z" fill="#40578C"/>
<path d="M93.0358 258.824C92.6316 258.591 92.4242 258.193 92.5725 257.936C92.7208 257.679 93.1687 257.659 93.5728 257.892C93.977 258.126 94.1845 258.523 94.0362 258.78C93.8879 259.037 93.44 259.057 93.0358 258.824Z" fill="#9FB1D5"/>
<path d="M94.3591 261.183C94.7727 261.185 95.128 261.458 94.955 261.857C94.5506 262.924 93.5486 263.732 92.2928 263.898C90.4091 264.146 88.7606 262.897 88.4413 261.042C88.2891 260.028 88.6502 259.06 89.1955 258.35C89.4963 258.066 89.9944 258.282 90.1636 258.711C90.4454 259.425 91.1409 260.142 91.9943 260.63C92.7913 260.976 93.6316 261.223 94.3591 261.183Z" fill="#2B3956"/>
<path d="M123.18 253.084C122.386 250.621 123.739 247.981 126.202 247.188C128.664 246.394 131.304 247.747 132.098 250.209C132.892 252.672 131.539 255.311 129.076 256.105C126.614 256.899 123.974 255.546 123.18 253.084Z" fill="#A7ABD3"/>
<path d="M128.449 255.582C126.098 255.92 123.918 254.287 123.581 251.936C123.244 249.585 124.876 247.405 127.227 247.068C129.578 246.731 131.758 248.363 132.095 250.714C132.433 253.065 130.8 255.245 128.449 255.582Z" fill="#3B4965"/>
<path d="M128.316 250.798C127.287 250.205 126.78 249.158 127.182 248.46C127.585 247.761 128.745 247.676 129.774 248.27C130.803 248.863 131.31 249.91 130.908 250.608C130.505 251.306 129.345 251.391 128.316 250.798Z" fill="#40578C"/>
<path d="M129.012 249.627C128.608 249.394 128.401 248.996 128.549 248.739C128.697 248.482 129.145 248.462 129.549 248.695C129.954 248.928 130.161 249.326 130.013 249.583C129.864 249.84 129.417 249.86 129.012 249.627Z" fill="#9FB1D5"/>
<path d="M130.336 251.986C130.749 251.988 131.105 252.261 130.932 252.659C130.527 253.727 129.525 254.535 128.269 254.7C126.386 254.948 124.737 253.7 124.418 251.844C124.266 250.831 124.627 249.863 125.172 249.152C125.473 248.869 125.971 249.085 126.14 249.514C126.422 250.228 127.117 250.944 127.971 251.433C128.768 251.779 129.608 252.026 130.336 251.986Z" fill="#2B3956"/>
<path opacity="0.5" fill-rule="evenodd" clip-rule="evenodd" d="M85.073 195.82C85.7914 194.191 87.6942 193.453 89.3231 194.171C94.6917 196.539 98.7047 199.96 100.907 204.075C103.144 208.253 103.389 212.94 101.518 217.35C100.823 218.989 98.9306 219.754 97.2918 219.058C95.6529 218.363 94.888 216.471 95.5833 214.832C96.6834 212.239 96.5507 209.596 95.2238 207.117C93.863 204.575 91.1263 202.013 86.7216 200.07C85.0928 199.352 84.3547 197.449 85.073 195.82Z" fill="url(#paint67_linear)"/>
<path d="M501.629 340.402C523.72 340.402 541.629 322.494 541.629 300.402L541.629 177.001C541.629 154.909 523.72 137.001 501.629 137.001L394.572 137.001C372.481 137.001 354.572 154.909 354.572 177.001L354.572 300.402C354.572 322.494 372.481 340.402 394.572 340.402L501.629 340.402Z" fill="#666AF7"/>
<g style="mix-blend-mode:multiply" opacity="0.35" filter="url(#filter1_f)">
<path d="M461.984 297.058C471.604 295.576 481.486 293.917 491.217 293.607C502.134 293.259 512.597 291.536 512.597 288.881C512.597 286.344 501.779 284.406 491.453 283.962C481.847 283.549 472 282.737 462.524 281.126C446.681 278.432 427.65 278.686 413.196 281.588C406.268 282.98 399.225 284.039 392.156 284.159C379.917 284.366 370.719 286.348 369.394 288.579C368.004 290.918 378.792 293.342 392.971 293.501C399.31 293.572 405.632 294.405 411.837 295.689C427.717 298.975 447.548 299.282 461.984 297.058Z" fill="#395590"/>
</g>
<path d="M410.528 280.076L410.44 283.89C410.44 288.084 404.743 291.731 397.599 292.538C389.366 293.49 381.751 290.296 380.356 285.348C380.176 284.714 380.178 284.087 380.178 283.372L380.238 279.886C380.238 280.532 380.294 280.839 380.458 281.546C381.853 286.495 389.704 289.676 397.937 288.724C405.081 287.917 410.16 284.259 410.528 280.076Z" fill="url(#paint68_linear)"/>
<path d="M392.859 270.955C401.092 270.002 408.916 273.196 410.312 278.145C411.707 283.094 406.173 287.853 397.898 288.768C389.665 289.72 381.841 286.527 380.446 281.578C379.05 276.629 384.626 271.907 392.859 270.955Z" fill="url(#paint69_linear)"/>
<path fill-rule="evenodd" clip-rule="evenodd" d="M397.827 288.155L397.83 288.155C401.876 287.707 405.202 286.324 407.329 284.501C409.452 282.681 410.33 280.486 409.717 278.313C409.093 276.097 406.988 274.17 403.915 272.908C400.861 271.653 396.952 271.103 392.93 271.568C388.903 272.033 385.576 273.417 383.442 275.237C381.313 277.053 380.428 279.239 381.04 281.41C381.664 283.626 383.769 285.553 386.842 286.815C389.896 288.07 393.805 288.62 397.827 288.155ZM410.312 278.145C408.916 273.196 401.092 270.002 392.859 270.955C384.626 271.907 379.05 276.629 380.446 281.578C381.841 286.527 389.665 289.72 397.898 288.768C406.173 287.853 411.707 283.094 410.312 278.145Z" fill="url(#paint70_linear)"/>
<path d="M393.757 274.121C399.086 273.529 405.323 275.757 406.183 278.968C407.083 282.134 402.367 285.046 397.039 285.638C391.711 286.231 385.41 283.987 384.51 280.821C383.569 277.617 388.429 274.713 393.757 274.121Z" fill="#C27025"/>
<path d="M393.835 274.649C399.006 274.074 405.061 276.236 405.896 279.353C406.769 282.427 402.192 285.253 397.02 285.828C391.848 286.403 385.732 284.226 384.859 281.152C383.945 278.043 388.663 275.223 393.835 274.649Z" fill="url(#paint71_linear)"/>
<path d="M410.528 273.422L410.44 277.236C410.44 281.429 404.743 285.077 397.599 285.884C389.366 286.836 381.751 283.642 380.356 278.693C380.176 278.06 380.178 277.433 380.178 276.718L380.238 273.232C380.238 273.878 380.294 274.185 380.458 274.892C381.853 279.841 389.704 283.022 397.937 282.07C405.081 281.263 410.16 277.605 410.528 273.422Z" fill="url(#paint72_linear)"/>
<path d="M392.859 264.3C401.092 263.348 408.916 266.542 410.312 271.491C411.707 276.44 406.173 281.199 397.898 282.114C389.665 283.066 381.841 279.872 380.446 274.924C379.05 269.975 384.626 265.252 392.859 264.3Z" fill="url(#paint73_linear)"/>
<path fill-rule="evenodd" clip-rule="evenodd" d="M397.827 281.501L397.83 281.501C401.876 281.053 405.202 279.67 407.329 277.846C409.452 276.027 410.33 273.832 409.717 271.658C409.093 269.442 406.988 267.516 403.915 266.254C400.861 264.999 396.952 264.448 392.93 264.913C388.903 265.379 385.576 266.763 383.442 268.583C381.313 270.399 380.428 272.585 381.04 274.756C381.664 276.972 383.769 278.898 386.842 280.161C389.896 281.416 393.805 281.966 397.827 281.501ZM410.312 271.491C408.916 266.542 401.092 263.348 392.859 264.3C384.626 265.252 379.05 269.975 380.446 274.924C381.841 279.872 389.665 283.066 397.898 282.114C406.173 281.199 411.707 276.44 410.312 271.491Z" fill="url(#paint74_linear)"/>
<path d="M393.757 267.467C399.086 266.874 405.323 269.102 406.183 272.313C407.083 275.48 402.367 278.392 397.039 278.984C391.711 279.576 385.41 277.333 384.51 274.166C383.569 270.963 388.429 268.059 393.757 267.467Z" fill="#C27025"/>
<path d="M393.835 267.994C399.006 267.419 405.061 269.582 405.896 272.699C406.769 275.773 402.192 278.599 397.02 279.174C391.848 279.749 385.732 277.571 384.859 274.498C383.945 271.388 388.663 268.569 393.835 267.994Z" fill="url(#paint75_linear)"/>
<path d="M410.528 267.342L410.44 271.156C410.44 275.349 404.743 278.997 397.599 279.804C389.366 280.756 381.751 277.562 380.356 272.613C380.176 271.98 380.178 271.353 380.178 270.638L380.238 267.152C380.238 267.798 380.294 268.105 380.458 268.812C381.853 273.761 389.704 276.942 397.937 275.99C405.081 275.183 410.16 271.524 410.528 267.342Z" fill="url(#paint76_linear)"/>
<path d="M392.859 258.22C401.092 257.268 408.916 260.462 410.312 265.411C411.707 270.359 406.173 275.119 397.898 276.034C389.665 276.986 381.841 273.792 380.446 268.844C379.05 263.895 384.626 259.172 392.859 258.22Z" fill="url(#paint77_linear)"/>
<path fill-rule="evenodd" clip-rule="evenodd" d="M397.827 275.421L397.83 275.421C401.876 274.973 405.202 273.59 407.329 271.766C409.452 269.947 410.33 267.752 409.717 265.578C409.093 263.362 406.988 261.436 403.915 260.174C400.861 258.919 396.952 258.368 392.93 258.833C388.903 259.299 385.576 260.682 383.442 262.503C381.313 264.319 380.428 266.505 381.04 268.676C381.664 270.892 383.769 272.818 386.842 274.081C389.896 275.335 393.805 275.886 397.827 275.421ZM410.312 265.411C408.916 260.462 401.092 257.268 392.859 258.22C384.626 259.172 379.05 263.895 380.446 268.844C381.841 273.792 389.665 276.986 397.898 276.034C406.173 275.119 411.707 270.359 410.312 265.411Z" fill="url(#paint78_linear)"/>
<path d="M393.757 261.387C399.086 260.794 405.323 263.022 406.183 266.233C407.083 269.4 402.367 272.312 397.039 272.904C391.711 273.496 385.41 271.253 384.51 268.086C383.569 264.883 388.429 261.979 393.757 261.387Z" fill="#C27025"/>
<path d="M393.835 261.914C399.006 261.339 405.061 263.502 405.896 266.619C406.769 269.693 402.192 272.519 397.02 273.094C391.848 273.669 385.732 271.491 384.859 268.417C383.945 265.308 388.663 262.489 393.835 261.914Z" fill="url(#paint79_linear)"/>
<path d="M410.528 261.264L410.44 265.078C410.44 269.271 404.743 272.919 397.599 273.726C389.366 274.678 381.751 271.484 380.356 266.535C380.176 265.902 380.178 265.275 380.178 264.56L380.238 261.074C380.238 261.719 380.294 262.027 380.458 262.734C381.853 267.683 389.704 270.864 397.937 269.912C405.081 269.105 410.16 265.446 410.528 261.264Z" fill="url(#paint80_linear)"/>
<path d="M392.859 252.142C401.092 251.19 408.916 254.384 410.312 259.333C411.707 264.281 406.173 269.041 397.898 269.956C389.665 270.908 381.841 267.714 380.446 262.765C379.05 257.817 384.626 253.094 392.859 252.142Z" fill="url(#paint81_linear)"/>
<path fill-rule="evenodd" clip-rule="evenodd" d="M397.827 269.343L397.83 269.342C401.876 268.895 405.202 267.512 407.329 265.688C409.452 263.869 410.33 261.674 409.717 259.5C409.093 257.284 406.988 255.358 403.915 254.095C400.861 252.841 396.952 252.29 392.93 252.755C388.903 253.221 385.576 254.604 383.442 256.425C381.313 258.241 380.428 260.427 381.04 262.598C381.664 264.814 383.769 266.74 386.842 268.002C389.896 269.257 393.805 269.808 397.827 269.343ZM410.312 259.333C408.916 254.384 401.092 251.19 392.859 252.142C384.626 253.094 379.05 257.817 380.446 262.765C381.841 267.714 389.665 270.908 397.898 269.956C406.173 269.041 411.707 264.281 410.312 259.333Z" fill="url(#paint82_linear)"/>
<path d="M393.757 255.308C399.086 254.716 405.323 256.944 406.183 260.155C407.083 263.322 402.367 266.234 397.039 266.826C391.711 267.418 385.41 265.175 384.51 262.008C383.569 258.805 388.429 255.901 393.757 255.308Z" fill="#C27025"/>
<path d="M393.835 255.836C399.006 255.261 405.061 257.424 405.896 260.541C406.769 263.614 402.192 266.441 397.02 267.016C391.848 267.59 385.732 265.413 384.859 262.339C383.945 259.23 388.663 256.411 393.835 255.836Z" fill="url(#paint83_linear)"/>
<path d="M443.809 281.977C444.157 279.371 445.666 274.2 446.7 271.55C449.715 264.268 436.22 259.402 432.978 266.857C431.519 270.131 430.879 276.438 431.426 279.98C432.101 284.083 443.437 285.26 443.809 281.977Z" fill="#D4DCF1"/>
<path d="M463.637 283.497C463.985 280.891 465.494 275.72 466.528 273.07C469.543 265.788 456.048 260.921 452.806 268.377C451.347 271.65 450.707 277.958 451.254 281.5C451.929 285.603 463.265 286.78 463.637 283.497Z" fill="#A6ABD3"/>
<path d="M490.035 287.503C490.384 284.897 491.892 279.726 492.927 277.076C495.942 269.794 482.446 264.927 479.204 272.383C477.746 275.656 477.106 281.964 477.652 285.505C478.327 289.609 489.664 290.786 490.035 287.503Z" fill="#A6ABD3"/>
<path d="M489.277 287.004C489.532 285.094 490.637 281.304 491.396 279.362C493.605 274.025 483.715 270.459 481.339 275.923C480.27 278.322 479.801 282.944 480.201 285.54C480.696 288.547 489.004 289.41 489.277 287.004Z" fill="#C1C5E5"/>
<path fill-rule="evenodd" clip-rule="evenodd" d="M444.351 279.242C444.978 276.629 445.96 273.445 446.7 271.55C449.715 264.268 436.22 259.402 432.978 266.857C432.288 268.404 431.782 270.629 431.497 272.919C435.166 275.495 439.446 277.651 444.351 279.242Z" fill="#C1C5E5"/>
<path d="M471.339 289.742C471.688 287.136 472.982 281.528 474.445 278.732C478.034 271.731 463.817 267.176 460.499 274.689C459.041 277.963 458.401 284.27 458.947 287.812C459.564 291.839 470.977 292.958 471.339 289.742Z" fill="#D4DCF1"/>
<path d="M421.254 236.588C419.579 256.223 433.195 277.973 464.359 280.919C498.948 284.188 521.124 264.847 515.477 232.33C512.594 215.757 496.015 203.948 490.159 189.766C488.153 184.941 484.113 183.108 478.953 186.09C454.303 200.543 424.35 199.731 421.254 236.588Z" fill="#D4DCF1"/>
<path d="M499.783 241.011C507.364 232.213 504.023 216.907 492.322 206.825C480.621 196.743 464.99 195.702 457.41 204.5C449.829 213.298 453.169 228.603 464.87 238.685C476.571 248.767 492.202 249.809 499.783 241.011Z" fill="#E6E9F6"/>
<path fill-rule="evenodd" clip-rule="evenodd" d="M444.109 221.932L444.109 221.93C444.647 214.848 446.704 209.73 449.727 205.837C452.753 201.937 456.838 199.149 461.651 196.852C461.798 196.781 461.719 196.617 461.568 196.678C461.315 196.78 461.062 196.881 460.81 196.982C460.465 197.12 460.12 197.258 459.776 197.396C453.791 199.79 448.159 202.043 443.13 204.894C437.849 207.887 433.346 211.482 429.969 216.446C426.595 221.403 424.243 227.875 423.495 236.776L423.495 236.779C421.929 255.129 434.578 275.846 464.571 278.682C481.443 280.276 494.925 276.324 503.479 268.396C509.107 263.18 501.948 255.932 494.285 256.337C490.645 256.529 486.754 256.431 482.639 256.019C454.973 253.253 442.977 236.529 444.109 221.932Z" fill="#C1C5E5"/>
<path d="M496.936 247.126C499.14 236.816 485.187 225.094 465.773 220.945C446.358 216.797 428.833 221.792 426.63 232.103C424.427 242.413 438.379 254.135 457.794 258.283C477.208 262.432 494.733 257.437 496.936 247.126Z" fill="#A6ABD3"/>
<path d="M497.166 246.059C499.244 236.338 485.373 225.133 466.186 221.033C446.999 216.933 429.76 221.49 427.683 231.211C425.606 240.932 439.476 252.136 458.664 256.236C477.851 260.337 495.089 255.78 497.166 246.059Z" fill="#FF968A"/>
<path d="M493.661 246.398C496.375 240.598 488.952 231.393 477.082 225.84C465.212 220.286 453.39 220.486 450.676 226.286C447.962 232.087 455.384 241.291 467.254 246.845C479.125 252.399 490.947 252.199 493.661 246.398Z" fill="#FFB0A7"/>
<path opacity="0.42" fill-rule="evenodd" clip-rule="evenodd" d="M442.662 221.95C443.674 221.705 444.574 222.598 444.514 223.638C443.747 236.797 456.746 249.94 475.106 253.864C476.654 254.194 476.741 256.252 475.162 256.356C470.203 256.682 464.651 256.286 458.912 255.06C441.008 251.234 428.065 240.778 430.004 231.707C431.006 227.015 435.794 223.612 442.662 221.95Z" fill="#FF644E"/>
<path d="M435.191 234.621C435.275 232.221 437.288 230.344 439.688 230.427C442.088 230.511 443.966 232.524 443.882 234.924C443.798 237.324 441.785 239.202 439.385 239.118C436.985 239.034 435.108 237.021 435.191 234.621Z" fill="#F4533D"/>
<path d="M439.004 238.463C436.845 238.016 435.458 235.904 435.905 233.745C436.352 231.586 438.464 230.199 440.623 230.646C442.781 231.093 444.169 233.205 443.722 235.364C443.275 237.523 441.163 238.91 439.004 238.463Z" fill="#3B4965"/>
<path d="M440.397 234.246C439.686 233.403 439.573 232.329 440.144 231.847C440.716 231.364 441.756 231.656 442.467 232.498C443.178 233.341 443.291 234.415 442.719 234.897C442.148 235.379 441.108 235.088 440.397 234.246Z" fill="#40578C"/>
<path d="M441.376 233.443C441.097 233.112 441.041 232.7 441.252 232.522C441.462 232.344 441.859 232.468 442.139 232.799C442.418 233.13 442.474 233.543 442.263 233.72C442.053 233.898 441.656 233.774 441.376 233.443Z" fill="#9FB1D5"/>
<path d="M441.785 235.92C442.145 236.052 442.369 236.402 442.092 236.695C441.403 237.5 440.273 237.889 439.125 237.637C437.402 237.26 436.357 235.65 436.664 233.93C436.85 232.997 437.471 232.266 438.171 231.818C438.523 231.665 438.89 232.011 438.902 232.438C438.923 233.151 439.304 233.995 439.895 234.691C440.481 235.245 441.137 235.725 441.785 235.92Z" fill="#2B3956"/>
<path d="M476.355 243.684C476.439 241.284 478.452 239.406 480.852 239.49C483.252 239.574 485.13 241.587 485.046 243.987C484.962 246.387 482.949 248.264 480.549 248.181C478.149 248.097 476.272 246.084 476.355 243.684Z" fill="#F4533D"/>
<path d="M480.164 247.526C478.005 247.079 476.618 244.966 477.065 242.808C477.512 240.649 479.624 239.261 481.783 239.708C483.941 240.155 485.329 242.268 484.882 244.426C484.435 246.585 482.323 247.973 480.164 247.526Z" fill="#3B4965"/>
<path d="M481.561 243.308C480.85 242.466 480.737 241.392 481.308 240.909C481.88 240.427 482.92 240.719 483.631 241.561C484.342 242.403 484.455 243.477 483.883 243.96C483.312 244.442 482.272 244.15 481.561 243.308Z" fill="#40578C"/>
<path d="M482.536 242.506C482.257 242.175 482.201 241.762 482.412 241.585C482.622 241.407 483.02 241.531 483.299 241.862C483.578 242.193 483.634 242.605 483.423 242.783C483.213 242.961 482.816 242.836 482.536 242.506Z" fill="#9FB1D5"/>
<path d="M482.949 244.982C483.309 245.114 483.533 245.464 483.256 245.758C482.567 246.562 481.437 246.952 480.289 246.7C478.567 246.322 477.521 244.713 477.828 242.992C478.014 242.06 478.635 241.329 479.335 240.88C479.687 240.727 480.054 241.073 480.066 241.501C480.087 242.213 480.468 243.058 481.059 243.754C481.645 244.307 482.301 244.787 482.949 244.982Z" fill="#2B3956"/>
<path d="M501.629 373.98C523.72 373.98 541.629 391.889 541.629 413.98L541.629 534.658C541.629 556.749 523.72 574.658 501.629 574.658L394.572 574.658C372.481 574.658 354.572 556.749 354.572 534.658L354.572 413.98C354.572 391.889 372.481 373.98 394.572 373.98L501.629 373.98Z" fill="url(#paint84_linear)"/>
<path d="M423.892 514.843C434.688 535.056 466.341 539.124 487.311 520.189C511.514 498.375 505.402 473.944 491.793 459.53C464.262 430.475 395.109 460.8 423.892 514.843Z" fill="#0C7ADF"/>
<path d="M488.974 541.57C488.185 539.818 486.833 538.689 485.129 538.298C481.291 537.499 478.317 536.626 475.303 535.377C474.458 535.02 473.041 534.157 472.423 533.487C468.514 529.138 465.283 521.268 464.7 518.397C463.504 512.06 451.904 515.839 452.942 522.116C453.846 527.688 458.45 534.806 462.974 539.933C464.72 541.938 466.918 543.423 469.352 544.381C472.794 545.648 474.992 545.791 478.722 546.586C479.842 546.792 481.066 547.11 481.679 550.574C482.481 554.691 483.777 555.872 486.091 555.804C488.619 555.744 490.178 553.066 490.393 550.387C490.557 547.653 490.454 544.854 488.974 541.57Z" fill="#0C7ADF"/>
<path fill-rule="evenodd" clip-rule="evenodd" d="M473.186 536.3C472.791 537.854 472.105 539.23 471.141 540.328C470.218 541.379 469.212 541.852 468.147 541.879C468.653 542.147 469.177 542.387 469.714 542.599C471.998 543.438 473.619 543.736 475.717 544.122L475.717 544.122C476.628 544.289 477.628 544.473 478.812 544.725C479.421 544.837 480.459 545.046 481.363 545.978C482.227 546.867 482.769 548.2 483.1 550.061C483.486 552.039 483.941 552.983 484.34 553.431C484.627 553.753 484.982 553.936 485.802 553.912L485.812 553.911C486.42 553.897 486.995 553.584 487.503 552.883C488.019 552.17 488.377 551.153 488.469 550.08C488.574 547.412 488.463 544.924 487.194 542.054C486.607 540.755 485.669 540.009 484.527 539.742C480.672 538.939 477.632 538.206 474.217 536.838L474.203 536.832L474.19 536.827C473.864 536.689 473.522 536.506 473.186 536.3Z" fill="#2069D4"/>
<path d="M485.796 545.438C486.834 546.563 486.038 552.298 484.996 553.259C483.955 554.22 483.542 552.736 482.388 547.55C482.733 548.225 483.358 548.343 483.753 547.739C484.502 546.573 484.758 544.314 485.796 545.438Z" fill="#0C7ADF"/>
<path d="M518.755 524.277C517.966 522.525 516.614 521.396 514.91 521.005C511.072 520.206 508.145 519.497 504.866 518.182C504.02 517.826 502.767 516.915 502.205 516.194C498.295 511.845 495.064 503.976 494.481 501.104C493.285 494.767 481.685 498.546 482.723 504.823C483.627 510.395 488.232 517.513 492.755 522.64C494.502 524.645 496.699 526.13 499.133 527.088C502.575 528.355 504.773 528.498 508.503 529.293C509.624 529.499 510.847 529.817 511.46 533.281C512.262 537.398 513.558 538.579 515.872 538.511C518.4 538.451 519.959 535.773 520.174 533.094C520.287 530.304 520.184 527.505 518.755 524.277Z" fill="#0C7ADF"/>
<path fill-rule="evenodd" clip-rule="evenodd" d="M502.355 518.631C502.183 519.428 501.902 520.198 501.502 520.942C500.275 523.223 498.709 524.16 496.874 524.023C497.766 524.616 498.726 525.113 499.734 525.511C502.018 526.35 503.639 526.648 505.737 527.034L505.737 527.034C506.648 527.201 507.649 527.385 508.833 527.637C509.442 527.75 510.479 527.958 511.384 528.89C512.247 529.779 512.789 531.112 513.12 532.973C513.507 534.951 513.961 535.895 514.36 536.343C514.647 536.666 515.002 536.848 515.822 536.824L515.832 536.823C516.441 536.809 517.016 536.496 517.523 535.795C518.039 535.082 518.397 534.066 518.489 532.992C518.594 530.324 518.483 527.836 517.214 524.966C516.627 523.667 515.69 522.921 514.548 522.655C510.692 521.851 507.652 521.119 504.238 519.75L504.224 519.745L504.21 519.739C503.623 519.491 502.98 519.094 502.424 518.683C502.401 518.665 502.378 518.648 502.355 518.631Z" fill="#2069D4"/>
<path d="M515.786 528.165C516.851 529.263 516.2 535.016 515.183 536.003C514.166 536.99 513.713 536.091 512.375 530.382C512.736 531.048 513.421 531.13 513.801 530.517C514.521 529.331 514.72 527.067 515.786 528.165Z" fill="#0C7ADF"/>
<path d="M432.058 472.54C430.374 482.933 444.503 491.533 461.336 488.659C480.75 485.358 486.191 474.327 484.491 465.611C481.017 448.019 436.602 444.77 432.058 472.54Z" fill="#308CFE"/>
<path d="M498.984 465.977C499.491 450.303 492.972 432.695 487.207 428.532C483.229 425.694 474.211 433.553 477.46 437.106C483.034 442.531 484.827 454.876 485.677 463.519C486.048 472.406 499.185 474.668 498.984 465.977Z" fill="#0C7ADF"/>
<path d="M479.928 434.608C478.415 432.985 475.427 431.377 473.941 431.303C472.455 431.23 471.805 433.015 473.11 433.659C474.415 434.303 476.585 435.815 477.902 437.185C479.219 438.555 481.059 435.983 479.928 434.608Z" fill="#0C7ADF"/>
<path d="M484.959 432.833C482.747 432.659 481.742 433.208 480.205 435.095C477.802 434.173 474.157 435.166 474.83 437.359C475.453 438.988 478.12 437.343 479.641 439.782C482.862 444.963 493.208 434.253 484.959 432.833Z" fill="#0C7ADF"/>
<path d="M481.399 431.362C479.886 429.738 476.549 427.886 475.063 427.813C473.578 427.739 472.776 429.625 474.081 430.269C475.385 430.913 477.707 432.324 479.024 433.694C480.341 435.064 482.531 432.736 481.399 431.362Z" fill="#0C7ADF"/>
<path d="M483.716 429.269C482.487 427.764 479.593 426.135 478.299 425.986C477.005 425.837 476.258 427.352 477.361 427.989C478.464 428.627 480.622 430.116 481.694 431.388C482.766 432.661 484.626 430.535 483.716 429.269Z" fill="#0C7ADF"/>
<path d="M487.494 428.754C486.312 427.738 483.804 425.67 482.47 425.386C481.136 425.102 480.452 426.211 481.243 426.812C482.035 427.414 484.612 428.837 485.64 430.369C486.667 431.9 488.677 429.771 487.494 428.754Z" fill="#0C7ADF"/>
<path d="M475.776 435.326C477.15 434.511 479.228 434.724 480.204 435.091C481.785 433.279 483.581 432.396 485.985 433.07C483.051 431.657 480.803 433.091 480.004 434.285C478.716 434.055 477.079 434.061 475.776 435.326Z" fill="#0063BF"/>
<path d="M422.994 511.884C412.367 511.744 396.199 505.427 392.468 500.405C389.6 496.448 397.391 487.37 400.968 490.593C407.291 496.429 415.58 497.789 420.993 498.039C429.602 498.35 432.793 513.121 422.994 511.884Z" fill="#0C7ADF"/>
<path d="M398.489 493.079C396.854 491.578 395.224 488.603 395.139 487.117C395.054 485.632 396.834 484.969 397.488 486.268C398.142 487.568 399.67 489.727 401.05 491.033C402.43 492.339 399.872 494.2 398.489 493.079Z" fill="#0C7ADF"/>
<path d="M396.752 498.119C396.562 495.908 397.102 494.899 398.978 493.348C398.037 490.952 399.003 487.299 401.201 487.955C402.834 488.567 401.21 491.245 403.66 492.748C408.866 495.93 398.234 506.357 396.752 498.119Z" fill="#0C7ADF"/>
<path d="M395.252 494.571C393.617 493.07 391.74 489.747 391.655 488.262C391.57 486.776 393.45 485.96 394.104 487.26C394.758 488.56 396.186 490.871 397.566 492.177C398.946 493.484 396.635 495.691 395.252 494.571Z" fill="#0C7ADF"/>
<path d="M393.177 496.905C391.663 495.688 390.013 492.806 389.853 491.513C389.694 490.22 391.204 489.461 391.85 490.56C392.495 491.658 394.001 493.804 395.281 494.867C396.562 495.929 394.45 497.805 393.177 496.905Z" fill="#0C7ADF"/>
<path d="M392.691 500.688C391.665 499.513 389.579 497.021 389.285 495.69C388.99 494.358 390.094 493.665 390.701 494.452C391.308 495.239 392.752 497.805 394.291 498.821C395.83 499.837 393.716 501.863 392.691 500.688Z" fill="#0C7ADF"/>
<path d="M399.176 488.917C398.372 490.298 398.601 492.374 398.975 493.347C397.175 494.942 396.306 496.745 396.998 499.144C395.563 496.22 396.979 493.962 398.167 493.154C397.927 491.867 397.921 490.23 399.176 488.917Z" fill="#0063BF"/>
<path fill-rule="evenodd" clip-rule="evenodd" d="M483.03 492.682C465.112 508.891 439.248 506.717 431.109 490.617C427.078 482.617 425.795 475.164 426.518 468.475C418.389 479.462 416.117 494.971 425.937 513.409C436.114 532.463 465.954 536.298 485.723 518.448C503.701 502.245 503.936 484.509 496.951 471.069C495.325 478.062 491.038 485.45 483.03 492.682Z" fill="#2069D5"/>
<path opacity="0.55" d="M477.881 474.797C467.722 462.295 448.865 460.792 435.761 471.44C422.658 482.087 420.271 500.854 430.43 513.356C440.589 525.857 459.447 527.36 472.55 516.713C485.653 506.065 488.04 487.298 477.881 474.797Z" fill="#1749A1"/>
<path d="M472.314 513.874C485.596 503.554 488.337 485.116 478.438 472.691C468.538 460.267 449.747 458.561 436.466 468.881C423.184 479.201 420.443 497.638 430.342 510.063C440.242 522.487 459.033 524.194 472.314 513.874Z" fill="#CAFDFA"/>
<path d="M458.946 495.812C471.248 494.086 479.732 485.714 477.896 477.113C476.06 468.512 464.599 462.939 452.297 464.665C439.996 466.392 431.512 474.763 433.348 483.364C435.184 491.965 446.645 497.538 458.946 495.812Z" fill="#E3FFF5"/>
<path d="M482.151 491.044C482.18 490.261 481.157 489.915 480.649 490.511C471.177 501.621 453.071 511.278 437.222 497.366C432.085 492.786 424.539 498.456 432.192 508.798C441.347 520.288 458.725 521.866 471.007 512.323C478.026 506.869 481.861 498.963 482.151 491.044Z" fill="#A0EBF0"/>
<path d="M429.64 502.948C427.674 501.09 427.587 497.989 429.445 496.023C431.304 494.057 434.404 493.97 436.37 495.828C438.336 497.687 438.423 500.787 436.565 502.753C434.706 504.719 431.606 504.806 429.64 502.948Z" fill="#00B2BD"/>
<path d="M435.724 502.591C433.738 504.083 430.919 503.682 429.427 501.696C427.936 499.71 428.336 496.891 430.322 495.4C432.308 493.908 435.127 494.309 436.619 496.295C438.11 498.281 437.709 501.1 435.724 502.591Z" fill="#3B4965"/>
<path d="M433.199 498.27C431.957 498.244 430.965 497.539 430.983 496.697C431.001 495.855 432.022 495.193 433.264 495.22C434.505 495.246 435.497 495.951 435.479 496.793C435.461 497.635 434.44 498.297 433.199 498.27Z" fill="#40578C"/>
<path d="M433.249 496.845C432.761 496.835 432.371 496.575 432.378 496.264C432.385 495.954 432.785 495.711 433.273 495.721C433.761 495.732 434.151 495.992 434.144 496.302C434.138 496.613 433.737 496.856 433.249 496.845Z" fill="#9FB1D5"/>
<path d="M435.649 498.342C436.029 498.136 436.492 498.207 436.533 498.659C436.7 499.842 436.187 501.086 435.119 501.869C433.517 503.044 431.378 502.728 430.152 501.188C429.503 500.335 429.347 499.266 429.49 498.341C429.623 497.929 430.188 497.877 430.559 498.185C431.177 498.698 432.174 499.005 433.203 499.024C434.107 498.941 435.002 498.744 435.649 498.342Z" fill="#2B3956"/>
<path d="M464.437 484.665C462.471 482.806 462.384 479.706 464.242 477.74C466.101 475.774 469.201 475.687 471.167 477.545C473.133 479.404 473.22 482.504 471.362 484.47C469.503 486.436 466.403 486.523 464.437 484.665Z" fill="#00B2BD"/>
<path d="M470.52 484.306C468.535 485.798 465.716 485.397 464.224 483.411C462.733 481.425 463.133 478.606 465.119 477.115C467.105 475.623 469.924 476.024 471.415 478.01C472.907 479.996 472.506 482.814 470.52 484.306Z" fill="#3B4965"/>
<path d="M467.996 479.987C466.754 479.961 465.762 479.256 465.78 478.414C465.798 477.571 466.819 476.91 468.061 476.936C469.302 476.963 470.294 477.667 470.276 478.51C470.258 479.352 469.237 480.014 467.996 479.987Z" fill="#40578C"/>
<path d="M468.046 478.562C467.558 478.552 467.168 478.292 467.175 477.981C467.182 477.671 467.582 477.428 468.07 477.438C468.558 477.449 468.948 477.709 468.941 478.019C468.935 478.329 468.534 478.573 468.046 478.562Z" fill="#9FB1D5"/>
<path d="M470.446 480.059C470.826 479.853 471.288 479.924 471.33 480.376C471.496 481.558 470.984 482.803 469.916 483.586C468.314 484.761 466.175 484.445 464.949 482.905C464.3 482.052 464.144 480.983 464.287 480.057C464.42 479.646 464.985 479.594 465.356 479.902C465.974 480.415 466.971 480.722 468 480.741C468.904 480.657 469.798 480.461 470.446 480.059Z" fill="#2B3956"/>
<path d="M383.213 419.072L381.188 422.74C378.957 426.697 381.339 433.187 387.331 438.287C394.222 444.184 403.276 446.068 407.568 442.428C408.118 441.963 408.592 441.378 408.936 440.744L410.961 437.076C410.617 437.71 410.135 438.231 409.593 438.76C405.301 442.399 396.247 440.516 389.356 434.618C383.364 429.519 380.99 423.093 383.213 419.072Z" fill="url(#paint85_linear)"/>
<path d="M404.83 421.593C397.939 415.696 388.885 413.812 384.593 417.451C380.302 421.09 382.416 428.793 389.367 434.682C396.258 440.579 405.313 442.463 409.604 438.824C413.896 435.185 411.722 427.49 404.83 421.593Z" fill="url(#paint86_linear)"/>
<path fill-rule="evenodd" clip-rule="evenodd" d="M389.806 434.169L389.804 434.167C386.405 431.287 384.232 427.999 383.415 425.043C382.6 422.094 383.145 419.564 385.03 417.966C386.952 416.337 390.04 415.875 393.601 416.607C397.14 417.335 401.024 419.225 404.391 422.106C407.762 424.99 409.936 428.28 410.76 431.237C411.583 434.187 411.05 436.712 409.167 438.309C407.246 439.938 404.158 440.4 400.597 439.668C397.057 438.94 393.173 437.05 389.806 434.169ZM384.593 417.451C388.885 413.812 397.939 415.696 404.83 421.593C411.722 427.49 413.896 435.185 409.604 438.824C405.313 442.463 396.258 440.579 389.367 434.682C382.416 428.793 380.302 421.09 384.593 417.451Z" fill="url(#paint87_linear)"/>
<path d="M402.076 423.918C397.602 420.123 390.578 418.332 387.834 420.721C385.082 423.046 387.582 428.571 392.057 432.366C396.531 436.161 403.622 437.977 406.374 435.652C409.186 433.32 406.55 427.712 402.076 423.918Z" fill="#C27025"/>
<path d="M401.683 424.349C397.34 420.665 390.522 418.927 387.859 421.246C385.187 423.502 387.615 428.866 391.958 432.549C396.301 436.233 403.184 437.995 405.855 435.739C408.585 433.475 406.026 428.032 401.683 424.349Z" fill="url(#paint88_linear)"/>
<defs>
<filter id="filter0_f" x="112" y="451" width="179" height="103" filterUnits="userSpaceOnUse" color-interpolation-filters="sRGB">
<feFlood flood-opacity="0" result="BackgroundImageFix"/>
<feBlend mode="normal" in="SourceGraphic" in2="BackgroundImageFix" result="shape"/>
<feGaussianBlur stdDeviation="6" result="effect1_foregroundBlur"/>
</filter>
<filter id="filter1_f" x="358.404" y="268.381" width="165.061" height="40.9764" filterUnits="userSpaceOnUse" color-interpolation-filters="sRGB">
<feFlood flood-opacity="0" result="BackgroundImageFix"/>
<feBlend mode="normal" in="SourceGraphic" in2="BackgroundImageFix" result="shape"/>
<feGaussianBlur stdDeviation="5.43459" result="effect1_foregroundBlur"/>
</filter>
<linearGradient id="paint0_linear" x1="142.937" y1="347.625" x2="172.983" y2="434.232" gradientUnits="userSpaceOnUse">
<stop stop-color="#B5CFDA"/>
<stop offset="1" stop-color="#6695AA"/>
</linearGradient>
<linearGradient id="paint1_linear" x1="136.431" y1="302.391" x2="136.431" y2="416.019" gradientUnits="userSpaceOnUse">
<stop stop-color="#39221A"/>
<stop offset="1" stop-color="#4E2F24"/>
</linearGradient>
<linearGradient id="paint2_linear" x1="191.283" y1="398.063" x2="191.283" y2="444.863" gradientUnits="userSpaceOnUse">
<stop stop-color="#A1C7D6"/>
<stop offset="1" stop-color="#C6D7DE"/>
</linearGradient>
<linearGradient id="paint3_linear" x1="191.452" y1="395.023" x2="191.452" y2="424.389" gradientUnits="userSpaceOnUse">
<stop stop-color="#8BB4C4"/>
<stop offset="1" stop-color="#456E81"/>
</linearGradient>
<linearGradient id="paint4_linear" x1="179.963" y1="446.505" x2="103.96" y2="507.333" gradientUnits="userSpaceOnUse">
<stop stop-color="#83AFC3"/>
<stop offset="1" stop-color="#518298"/>
</linearGradient>
<linearGradient id="paint5_linear" x1="183.363" y1="445.569" x2="165.984" y2="455.5" gradientUnits="userSpaceOnUse">
<stop stop-color="#FEFFFF"/>
<stop offset="1" stop-color="#FEFFFF" stop-opacity="0"/>
</linearGradient>
<linearGradient id="paint6_linear" x1="116.378" y1="440.358" x2="168.426" y2="513.853" gradientUnits="userSpaceOnUse">
<stop stop-color="#8F5B48"/>
<stop offset="1" stop-color="#7C4E3D"/>
</linearGradient>
<linearGradient id="paint7_linear" x1="281.299" y1="409.632" x2="183.724" y2="528.779" gradientUnits="userSpaceOnUse">
<stop stop-color="#80ACC0"/>
<stop offset="1" stop-color="#CBD9E0"/>
</linearGradient>
<linearGradient id="paint8_linear" x1="181.809" y1="447.12" x2="219.05" y2="467.292" gradientUnits="userSpaceOnUse">
<stop stop-color="white" stop-opacity="0.77"/>
<stop offset="1" stop-color="white" stop-opacity="0"/>
</linearGradient>
<linearGradient id="paint9_linear" x1="255.403" y1="420.535" x2="255.403" y2="487.459" gradientUnits="userSpaceOnUse">
<stop stop-color="#B57550"/>
<stop offset="1" stop-color="#845543"/>
</linearGradient>
<linearGradient id="paint10_linear" x1="210.364" y1="437.729" x2="210.364" y2="510.612" gradientUnits="userSpaceOnUse">
<stop stop-color="#B57550"/>
<stop offset="1" stop-color="#845543"/>
</linearGradient>
<linearGradient id="paint11_linear" x1="190.636" y1="391.83" x2="190.636" y2="437.889" gradientUnits="userSpaceOnUse">
<stop stop-color="#FCD537"/>
<stop offset="1" stop-color="#FBB02F"/>
</linearGradient>
<linearGradient id="paint12_linear" x1="182.498" y1="394.346" x2="201.296" y2="409.424" gradientUnits="userSpaceOnUse">
<stop stop-color="#E7A222"/>
<stop offset="1" stop-color="#BC4B16"/>
</linearGradient>
<linearGradient id="paint13_linear" x1="179.975" y1="396.674" x2="200.924" y2="406.872" gradientUnits="userSpaceOnUse">
<stop stop-color="#FCD938"/>
<stop offset="1" stop-color="#FBAE2C"/>
</linearGradient>
<linearGradient id="paint14_linear" x1="191.996" y1="406.081" x2="191.492" y2="402.576" gradientUnits="userSpaceOnUse">
<stop stop-color="white" stop-opacity="0.63"/>
<stop offset="1" stop-color="white" stop-opacity="0"/>
</linearGradient>
<linearGradient id="paint15_linear" x1="186.592" y1="394.751" x2="197.926" y2="403.843" gradientUnits="userSpaceOnUse">
<stop stop-color="#FFC564"/>
<stop offset="1" stop-color="#FFED9D"/>
</linearGradient>
<linearGradient id="paint16_linear" x1="192.506" y1="411.232" x2="211.303" y2="426.311" gradientUnits="userSpaceOnUse">
<stop stop-color="#E7A222"/>
<stop offset="1" stop-color="#BC4B16"/>
</linearGradient>
<linearGradient id="paint17_linear" x1="189.987" y1="413.56" x2="210.936" y2="423.759" gradientUnits="userSpaceOnUse">
<stop stop-color="#FCD938"/>
<stop offset="1" stop-color="#FBAE2C"/>
</linearGradient>
<linearGradient id="paint18_linear" x1="202.008" y1="422.968" x2="201.504" y2="419.463" gradientUnits="userSpaceOnUse">
<stop stop-color="white" stop-opacity="0.63"/>
<stop offset="1" stop-color="white" stop-opacity="0"/>
</linearGradient>
<linearGradient id="paint19_linear" x1="196.6" y1="411.638" x2="207.934" y2="420.73" gradientUnits="userSpaceOnUse">
<stop stop-color="#FFC564"/>
<stop offset="1" stop-color="#FFED9D"/>
</linearGradient>
<linearGradient id="paint20_linear" x1="222.447" y1="413.424" x2="241.245" y2="428.503" gradientUnits="userSpaceOnUse">
<stop stop-color="#E7A222"/>
<stop offset="1" stop-color="#BC4B16"/>
</linearGradient>
<linearGradient id="paint21_linear" x1="219.928" y1="415.752" x2="240.877" y2="425.95" gradientUnits="userSpaceOnUse">
<stop stop-color="#FCD938"/>
<stop offset="1" stop-color="#FBAE2C"/>
</linearGradient>
<linearGradient id="paint22_linear" x1="231.949" y1="425.159" x2="231.445" y2="421.654" gradientUnits="userSpaceOnUse">
<stop stop-color="white" stop-opacity="0.63"/>
<stop offset="1" stop-color="white" stop-opacity="0"/>
</linearGradient>
<linearGradient id="paint23_linear" x1="226.541" y1="413.829" x2="237.875" y2="422.921" gradientUnits="userSpaceOnUse">
<stop stop-color="#FFC564"/>
<stop offset="1" stop-color="#FFED9D"/>
</linearGradient>
<linearGradient id="paint24_linear" x1="175.932" y1="422.881" x2="194.729" y2="437.96" gradientUnits="userSpaceOnUse">
<stop stop-color="#E7A222"/>
<stop offset="1" stop-color="#BC4B16"/>
</linearGradient>
<linearGradient id="paint25_linear" x1="173.408" y1="425.209" x2="194.358" y2="435.407" gradientUnits="userSpaceOnUse">
<stop stop-color="#FCD938"/>
<stop offset="1" stop-color="#FBAE2C"/>
</linearGradient>
<linearGradient id="paint26_linear" x1="185.43" y1="434.616" x2="184.925" y2="431.111" gradientUnits="userSpaceOnUse">
<stop stop-color="white" stop-opacity="0.63"/>
<stop offset="1" stop-color="white" stop-opacity="0"/>
</linearGradient>
<linearGradient id="paint27_linear" x1="180.025" y1="423.286" x2="191.359" y2="432.378" gradientUnits="userSpaceOnUse">
<stop stop-color="#FFC564"/>
<stop offset="1" stop-color="#FFED9D"/>
</linearGradient>
<linearGradient id="paint28_linear" x1="167.955" y1="399.82" x2="186.753" y2="414.899" gradientUnits="userSpaceOnUse">
<stop stop-color="#E7A222"/>
<stop offset="1" stop-color="#BC4B16"/>
</linearGradient>
<linearGradient id="paint29_linear" x1="165.436" y1="402.148" x2="186.385" y2="412.347" gradientUnits="userSpaceOnUse">
<stop stop-color="#FCD938"/>
<stop offset="1" stop-color="#FBAE2C"/>
</linearGradient>
<linearGradient id="paint30_linear" x1="177.457" y1="411.556" x2="176.953" y2="408.051" gradientUnits="userSpaceOnUse">
<stop stop-color="white" stop-opacity="0.63"/>
<stop offset="1" stop-color="white" stop-opacity="0"/>
</linearGradient>
<linearGradient id="paint31_linear" x1="172.049" y1="400.226" x2="183.383" y2="409.317" gradientUnits="userSpaceOnUse">
<stop stop-color="#FFC564"/>
<stop offset="1" stop-color="#FFED9D"/>
</linearGradient>
<linearGradient id="paint32_linear" x1="170.694" y1="409.826" x2="189.491" y2="424.905" gradientUnits="userSpaceOnUse">
<stop stop-color="#E7A222"/>
<stop offset="1" stop-color="#BC4B16"/>
</linearGradient>
<linearGradient id="paint33_linear" x1="168.17" y1="412.154" x2="189.12" y2="422.353" gradientUnits="userSpaceOnUse">
<stop stop-color="#FCD938"/>
<stop offset="1" stop-color="#FBAE2C"/>
</linearGradient>
<linearGradient id="paint34_linear" x1="180.191" y1="421.562" x2="179.687" y2="418.057" gradientUnits="userSpaceOnUse">
<stop stop-color="white" stop-opacity="0.63"/>
<stop offset="1" stop-color="white" stop-opacity="0"/>
</linearGradient>
<linearGradient id="paint35_linear" x1="174.787" y1="410.234" x2="186.121" y2="419.325" gradientUnits="userSpaceOnUse">
<stop stop-color="#FFC564"/>
<stop offset="1" stop-color="#FFED9D"/>
</linearGradient>
<linearGradient id="paint36_linear" x1="209.08" y1="415.691" x2="227.878" y2="430.77" gradientUnits="userSpaceOnUse">
<stop stop-color="#E7A222"/>
<stop offset="1" stop-color="#BC4B16"/>
</linearGradient>
<linearGradient id="paint37_linear" x1="206.561" y1="418.017" x2="227.51" y2="428.216" gradientUnits="userSpaceOnUse">
<stop stop-color="#FCD938"/>
<stop offset="1" stop-color="#FBAE2C"/>
</linearGradient>
<linearGradient id="paint38_linear" x1="218.582" y1="427.425" x2="218.078" y2="423.92" gradientUnits="userSpaceOnUse">
<stop stop-color="white" stop-opacity="0.63"/>
<stop offset="1" stop-color="white" stop-opacity="0"/>
</linearGradient>
<linearGradient id="paint39_linear" x1="213.174" y1="416.097" x2="224.508" y2="425.189" gradientUnits="userSpaceOnUse">
<stop stop-color="#FFC564"/>
<stop offset="1" stop-color="#FFED9D"/>
</linearGradient>
<linearGradient id="paint40_linear" x1="144.502" y1="423.273" x2="163.3" y2="438.352" gradientUnits="userSpaceOnUse">
<stop stop-color="#E7A222"/>
<stop offset="1" stop-color="#BC4B16"/>
</linearGradient>
<linearGradient id="paint41_linear" x1="141.983" y1="425.601" x2="162.932" y2="435.8" gradientUnits="userSpaceOnUse">
<stop stop-color="#FCD938"/>
<stop offset="1" stop-color="#FBAE2C"/>
</linearGradient>
<linearGradient id="paint42_linear" x1="154.004" y1="435.009" x2="153.5" y2="431.504" gradientUnits="userSpaceOnUse">
<stop stop-color="white" stop-opacity="0.63"/>
<stop offset="1" stop-color="white" stop-opacity="0"/>
</linearGradient>
<linearGradient id="paint43_linear" x1="148.596" y1="423.679" x2="159.93" y2="432.771" gradientUnits="userSpaceOnUse">
<stop stop-color="#FFC564"/>
<stop offset="1" stop-color="#FFED9D"/>
</linearGradient>
<linearGradient id="paint44_linear" x1="157.244" y1="429.998" x2="176.042" y2="445.077" gradientUnits="userSpaceOnUse">
<stop stop-color="#E7A222"/>
<stop offset="1" stop-color="#BC4B16"/>
</linearGradient>
<linearGradient id="paint45_linear" x1="154.725" y1="432.326" x2="175.674" y2="442.525" gradientUnits="userSpaceOnUse">
<stop stop-color="#FCD938"/>
<stop offset="1" stop-color="#FBAE2C"/>
</linearGradient>
<linearGradient id="paint46_linear" x1="166.746" y1="441.733" x2="166.242" y2="438.229" gradientUnits="userSpaceOnUse">
<stop stop-color="white" stop-opacity="0.63"/>
<stop offset="1" stop-color="white" stop-opacity="0"/>
</linearGradient>
<linearGradient id="paint47_linear" x1="161.338" y1="430.404" x2="172.672" y2="439.495" gradientUnits="userSpaceOnUse">
<stop stop-color="#FFC564"/>
<stop offset="1" stop-color="#FFED9D"/>
</linearGradient>
<linearGradient id="paint48_linear" x1="210.029" y1="390.378" x2="222.189" y2="411.183" gradientUnits="userSpaceOnUse">
<stop stop-color="#E7A222"/>
<stop offset="1" stop-color="#BC4B16"/>
</linearGradient>
<linearGradient id="paint49_linear" x1="206.844" y1="391.65" x2="222.759" y2="408.668" gradientUnits="userSpaceOnUse">
<stop stop-color="#FCD938"/>
<stop offset="1" stop-color="#FBAE2C"/>
</linearGradient>
<linearGradient id="paint50_linear" x1="214.704" y1="404.735" x2="215.487" y2="401.282" gradientUnits="userSpaceOnUse">
<stop stop-color="white" stop-opacity="0.63"/>
<stop offset="1" stop-color="white" stop-opacity="0"/>
</linearGradient>
<linearGradient id="paint51_linear" x1="213.709" y1="392.223" x2="221.04" y2="404.767" gradientUnits="userSpaceOnUse">
<stop stop-color="#FFC564"/>
<stop offset="1" stop-color="#FFED9D"/>
</linearGradient>
<linearGradient id="paint52_linear" x1="182.907" y1="398.527" x2="200.01" y2="415.502" gradientUnits="userSpaceOnUse">
<stop stop-color="#E7A222"/>
<stop offset="1" stop-color="#BC4B16"/>
</linearGradient>
<linearGradient id="paint53_linear" x1="180.154" y1="400.576" x2="199.912" y2="412.926" gradientUnits="userSpaceOnUse">
<stop stop-color="#FCD938"/>
<stop offset="1" stop-color="#FBAE2C"/>
</linearGradient>
<linearGradient id="paint54_linear" x1="191.117" y1="411.198" x2="190.985" y2="407.66" gradientUnits="userSpaceOnUse">
<stop stop-color="white" stop-opacity="0.63"/>
<stop offset="1" stop-color="white" stop-opacity="0"/>
</linearGradient>
<linearGradient id="paint55_linear" x1="186.936" y1="399.362" x2="197.249" y2="409.598" gradientUnits="userSpaceOnUse">
<stop stop-color="#FFC564"/>
<stop offset="1" stop-color="#FFED9D"/>
</linearGradient>
<linearGradient id="paint56_linear" x1="149.96" y1="412.246" x2="172.304" y2="421.271" gradientUnits="userSpaceOnUse">
<stop stop-color="#E7A222"/>
<stop offset="1" stop-color="#BC4B16"/>
</linearGradient>
<linearGradient id="paint57_linear" x1="148.218" y1="415.203" x2="171.217" y2="418.935" gradientUnits="userSpaceOnUse">
<stop stop-color="#FCD938"/>
<stop offset="1" stop-color="#FBAE2C"/>
</linearGradient>
<linearGradient id="paint58_linear" x1="162.44" y1="420.749" x2="160.947" y2="417.538" gradientUnits="userSpaceOnUse">
<stop stop-color="white" stop-opacity="0.63"/>
<stop offset="1" stop-color="white" stop-opacity="0"/>
</linearGradient>
<linearGradient id="paint59_linear" x1="153.999" y1="411.456" x2="167.472" y2="416.898" gradientUnits="userSpaceOnUse">
<stop stop-color="#FFC564"/>
<stop offset="1" stop-color="#FFED9D"/>
</linearGradient>
<radialGradient id="paint60_radial" cx="0" cy="0" r="1" gradientUnits="userSpaceOnUse" gradientTransform="translate(95.5557 196.108) rotate(109.473) scale(17.0633 14.1323)">
<stop stop-color="#FFBCA5"/>
<stop offset="1" stop-color="#FFBCA5" stop-opacity="0"/>
</radialGradient>
<radialGradient id="paint61_radial" cx="0" cy="0" r="1" gradientUnits="userSpaceOnUse" gradientTransform="translate(95.5558 196.109) rotate(109.473) scale(17.0633 14.1323)">
<stop stop-color="#FFBCA5"/>
<stop offset="1" stop-color="#FFBCA5" stop-opacity="0"/>
</radialGradient>
<linearGradient id="paint62_linear" x1="82.0465" y1="232.46" x2="107.91" y2="308.63" gradientUnits="userSpaceOnUse">
<stop stop-color="#FF9274"/>
<stop offset="1" stop-color="#FF765F"/>
</linearGradient>
<radialGradient id="paint63_radial" cx="0" cy="0" r="1" gradientUnits="userSpaceOnUse" gradientTransform="translate(127.02 226.771) rotate(112.834) scale(27.4845 32.8039)">
<stop stop-color="#FFBEA7"/>
<stop offset="1" stop-color="#FFA289" stop-opacity="0"/>
</radialGradient>
<linearGradient id="paint64_linear" x1="115.607" y1="226.555" x2="131.673" y2="236.858" gradientUnits="userSpaceOnUse">
<stop stop-color="#FFD1C1"/>
<stop offset="1" stop-color="#FFBCA6" stop-opacity="0"/>
</linearGradient>
<linearGradient id="paint65_linear" x1="107.067" y1="270.854" x2="95.9951" y2="308.263" gradientUnits="userSpaceOnUse">
<stop stop-color="#FF644E" stop-opacity="0"/>
<stop offset="1" stop-color="#FF644E"/>
</linearGradient>
<linearGradient id="paint66_linear" x1="102.59" y1="307.199" x2="131.263" y2="333.611" gradientUnits="userSpaceOnUse">
<stop stop-color="#FF654F"/>
<stop offset="1" stop-color="#FF765F"/>
</linearGradient>
<linearGradient id="paint67_linear" x1="89.7887" y1="197.72" x2="96.9725" y2="215.842" gradientUnits="userSpaceOnUse">
<stop stop-color="#FFBCA6"/>
<stop offset="1" stop-color="#FFBCA6" stop-opacity="0"/>
</linearGradient>
<linearGradient id="paint68_linear" x1="384.971" y1="274.277" x2="404.82" y2="291.809" gradientUnits="userSpaceOnUse">
<stop stop-color="#E7A222"/>
<stop offset="1" stop-color="#BC4B16"/>
</linearGradient>
<linearGradient id="paint69_linear" x1="382.083" y1="276.701" x2="404.549" y2="288.988" gradientUnits="userSpaceOnUse">
<stop stop-color="#FCD938"/>
<stop offset="1" stop-color="#FBAE2C"/>
</linearGradient>
<linearGradient id="paint70_linear" x1="394.789" y1="287.654" x2="394.418" y2="283.781" gradientUnits="userSpaceOnUse">
<stop stop-color="white" stop-opacity="0.63"/>
<stop offset="1" stop-color="white" stop-opacity="0"/>
</linearGradient>
<linearGradient id="paint71_linear" x1="389.443" y1="274.936" x2="401.411" y2="285.507" gradientUnits="userSpaceOnUse">
<stop stop-color="#FFC564"/>
<stop offset="1" stop-color="#FFED9D"/>
</linearGradient>
<linearGradient id="paint72_linear" x1="384.971" y1="267.623" x2="404.82" y2="285.154" gradientUnits="userSpaceOnUse">
<stop stop-color="#E7A222"/>
<stop offset="1" stop-color="#BC4B16"/>
</linearGradient>
<linearGradient id="paint73_linear" x1="382.083" y1="270.047" x2="404.549" y2="282.333" gradientUnits="userSpaceOnUse">
<stop stop-color="#FCD938"/>
<stop offset="1" stop-color="#FBAE2C"/>
</linearGradient>
<linearGradient id="paint74_linear" x1="394.789" y1="281" x2="394.418" y2="277.126" gradientUnits="userSpaceOnUse">
<stop stop-color="white" stop-opacity="0.63"/>
<stop offset="1" stop-color="white" stop-opacity="0"/>
</linearGradient>
<linearGradient id="paint75_linear" x1="389.443" y1="268.282" x2="401.411" y2="278.852" gradientUnits="userSpaceOnUse">
<stop stop-color="#FFC564"/>
<stop offset="1" stop-color="#FFED9D"/>
</linearGradient>
<linearGradient id="paint76_linear" x1="384.971" y1="261.543" x2="404.82" y2="279.074" gradientUnits="userSpaceOnUse">
<stop stop-color="#E7A222"/>
<stop offset="1" stop-color="#BC4B16"/>
</linearGradient>
<linearGradient id="paint77_linear" x1="382.083" y1="263.967" x2="404.549" y2="276.253" gradientUnits="userSpaceOnUse">
<stop stop-color="#FCD938"/>
<stop offset="1" stop-color="#FBAE2C"/>
</linearGradient>
<linearGradient id="paint78_linear" x1="394.789" y1="274.92" x2="394.418" y2="271.046" gradientUnits="userSpaceOnUse">
<stop stop-color="white" stop-opacity="0.63"/>
<stop offset="1" stop-color="white" stop-opacity="0"/>
</linearGradient>
<linearGradient id="paint79_linear" x1="389.443" y1="262.202" x2="401.411" y2="272.772" gradientUnits="userSpaceOnUse">
<stop stop-color="#FFC564"/>
<stop offset="1" stop-color="#FFED9D"/>
</linearGradient>
<linearGradient id="paint80_linear" x1="384.971" y1="255.465" x2="404.82" y2="272.996" gradientUnits="userSpaceOnUse">
<stop stop-color="#E7A222"/>
<stop offset="1" stop-color="#BC4B16"/>
</linearGradient>
<linearGradient id="paint81_linear" x1="382.083" y1="257.889" x2="404.549" y2="270.175" gradientUnits="userSpaceOnUse">
<stop stop-color="#FCD938"/>
<stop offset="1" stop-color="#FBAE2C"/>
</linearGradient>
<linearGradient id="paint82_linear" x1="394.789" y1="268.842" x2="394.418" y2="264.968" gradientUnits="userSpaceOnUse">
<stop stop-color="white" stop-opacity="0.63"/>
<stop offset="1" stop-color="white" stop-opacity="0"/>
</linearGradient>
<linearGradient id="paint83_linear" x1="389.443" y1="256.124" x2="401.411" y2="266.694" gradientUnits="userSpaceOnUse">
<stop stop-color="#FFC564"/>
<stop offset="1" stop-color="#FFED9D"/>
</linearGradient>
<linearGradient id="paint84_linear" x1="514.657" y1="474.804" x2="437.962" y2="339.888" gradientUnits="userSpaceOnUse">
<stop stop-color="#4BE0D7"/>
<stop offset="1" stop-color="#BAF7C8"/>
</linearGradient>
<linearGradient id="paint85_linear" x1="409.956" y1="429.431" x2="381.222" y2="433.21" gradientUnits="userSpaceOnUse">
<stop stop-color="#E7A222"/>
<stop offset="1" stop-color="#BC4B16"/>
</linearGradient>
<linearGradient id="paint86_linear" x1="411.099" y1="433.397" x2="383.196" y2="430.816" gradientUnits="userSpaceOnUse">
<stop stop-color="#FCD938"/>
<stop offset="1" stop-color="#FBAE2C"/>
</linearGradient>
<linearGradient id="paint87_linear" x1="392.87" y1="435.571" x2="395.574" y2="432.282" gradientUnits="userSpaceOnUse">
<stop stop-color="white" stop-opacity="0.63"/>
<stop offset="1" stop-color="white" stop-opacity="0"/>
</linearGradient>
<linearGradient id="paint88_linear" x1="405.494" y1="427.295" x2="388.168" y2="429.573" gradientUnits="userSpaceOnUse">
<stop stop-color="#FFC564"/>
<stop offset="1" stop-color="#FFED9D"/>
</linearGradient>
</defs>
</svg>
