<svg width="366" height="404" viewBox="0 0 366 404" fill="none" xmlns="http://www.w3.org/2000/svg">
<path d="M333.216 316.51C326.664 305.179 310.237 305.179 303.685 316.416L281.37 354.374C275.008 365.138 282.13 378.829 294.664 379.868L341.383 383.928C355.151 385.156 364.552 370.426 357.715 358.528L333.216 316.51Z" fill="#FF9176"/>
<path d="M363.589 334.589C365.589 333.489 366.289 330.889 365.089 328.889L354.789 311.089C353.689 309.089 351.089 308.389 349.089 309.589C347.089 310.689 346.389 313.289 347.589 315.289L357.889 333.089C358.989 335.089 361.589 335.689 363.589 334.589Z" fill="url(#paint0_linear)"/>
<path d="M330.1 101.3C330.1 45.3 288.2 0 236.5 0H126.7C75 0 33 45.3 33 101.3V301.5C33 357.5 74.9 402.8 126.6 402.8H236.4C288.1 402.8 330 357.4 330 301.5V101.3H330.1Z" fill="#628AF1"/>
<path d="M33.5 150C52.0015 150 67 135.002 67 116.5C67 97.9985 52.0015 83 33.5 83C14.9985 83 0 97.9985 0 116.5C0 135.002 14.9985 150 33.5 150Z" fill="#37E5D7"/>
<path d="M33.5 138C45.3741 138 55 128.374 55 116.5C55 104.626 45.3741 95 33.5 95C21.6259 95 12 104.626 12 116.5C12 128.374 21.6259 138 33.5 138Z" fill="#1DD5C6"/>
<path d="M231.475 228.363C227.723 223.488 230.691 215.55 236.808 214.902C241.405 214.416 245.969 213.845 250.499 213.189C259.064 211.979 265.667 205.223 266.598 196.993C270.625 162.291 271.06 127.341 268.07 92.3332C267.422 83.4529 260.16 76.2784 251.193 75.4771C209.782 71.5278 165.584 71.3524 119.391 73.9238C110.145 74.5458 102.619 81.5978 101.639 90.5456C98.1753 124.926 97.765 159.518 100.42 194.142C101.093 202.663 107.829 209.621 116.4 210.935C122.521 211.853 128.609 212.673 134.662 213.392C140.783 214.119 143.543 222.144 139.635 226.91C135.681 231.732 131.794 237.242 127.999 243.461C91.1663 304.475 94.9999 335.5 95.0002 396.5C111 403.283 130.116 403.87 159.062 403.283C165.862 403.145 172.992 403 180.499 403C187.015 403 193.441 403.09 199.724 403.179C229.592 403.6 256.235 403.976 273.999 394.355C273.999 346 269.804 292.5 241.499 243.46C238.301 237.919 234.951 232.88 231.475 228.363Z" fill="url(#paint1_linear)"/>
<path d="M189.201 202.972C224.935 200.168 251.501 174.369 248.508 145.393C245.514 116.416 214.271 95.2911 178.537 98.2823C142.803 101.086 116.237 126.885 119.23 155.862C122.223 184.838 153.467 205.963 189.201 202.972Z" fill="#CAD9FF"/>
<path d="M247.859 142.572C244.679 114.156 213.248 93.7789 177.701 97.3309C142.155 100.883 115.962 126.681 119.143 155.284C122.323 183.7 153.754 204.077 189.301 200.525C224.848 196.973 251.04 170.988 247.859 142.572Z" fill="url(#paint2_linear)"/>
<path d="M219.112 157.134C215.548 156.1 213.478 152.424 214.513 148.862C215.548 145.301 219.227 143.232 222.792 144.266C226.356 145.301 228.426 148.977 227.391 152.539C226.241 156.1 222.562 158.168 219.112 157.134Z" fill="#9198BF"/>
<path d="M214.513 149.665C214.858 146.333 217.847 143.921 221.297 144.265C224.631 144.61 227.046 147.597 226.701 151.044C226.356 154.376 223.366 156.788 219.917 156.444C216.582 155.984 214.168 152.997 214.513 149.665Z" fill="#3B4965"/>
<path d="M216.238 149.436C215.663 148.517 216.352 146.909 217.732 146.104C219.112 145.185 220.837 145.3 221.412 146.219C221.986 147.138 221.297 148.747 219.917 149.551C218.422 150.47 216.812 150.355 216.238 149.436Z" fill="#40578C"/>
<path d="M217.388 147.943C217.158 147.599 217.388 147.024 217.963 146.679C218.538 146.335 219.113 146.335 219.343 146.679C219.573 147.024 219.343 147.599 218.768 147.943C218.308 148.288 217.618 148.288 217.388 147.943Z" fill="#9FB1D5"/>
<path d="M220.377 150.47C221.527 149.781 222.562 148.632 222.907 147.598C223.136 147.023 223.826 146.679 224.286 147.023C225.091 148.057 225.666 149.321 225.436 150.815C225.091 153.457 222.792 155.296 220.147 155.066C218.307 154.836 216.928 153.802 216.238 152.308C216.008 151.734 216.468 151.389 217.043 151.274C218.077 151.389 219.227 151.045 220.377 150.47Z" fill="#2B3956"/>
<path d="M145.864 157.134C142.3 156.1 140.23 152.424 141.265 148.862C142.3 145.301 145.979 143.232 149.544 144.266C153.108 145.301 155.178 148.977 154.143 152.539C152.993 156.1 149.314 158.168 145.864 157.134Z" fill="#9198BF"/>
<path d="M141.265 149.665C141.61 146.333 144.599 143.921 148.049 144.265C151.383 144.61 153.797 147.597 153.453 151.044C153.108 154.376 150.118 156.788 146.669 156.444C143.334 155.984 140.92 152.997 141.265 149.665Z" fill="#3B4965"/>
<path d="M142.989 149.436C142.415 148.517 143.104 146.909 144.484 146.104C145.864 145.185 147.589 145.3 148.164 146.219C148.738 147.138 148.049 148.747 146.669 149.551C145.174 150.47 143.564 150.355 142.989 149.436Z" fill="#40578C"/>
<path d="M144.14 147.943C143.91 147.599 144.14 147.024 144.715 146.679C145.29 146.335 145.865 146.335 146.095 146.679C146.324 147.024 146.095 147.599 145.52 147.943C145.06 148.288 144.37 148.288 144.14 147.943Z" fill="#9FB1D5"/>
<path d="M147.129 150.47C148.279 149.781 149.314 148.632 149.658 147.598C149.888 147.023 150.578 146.679 151.038 147.023C151.843 148.057 152.418 149.321 152.188 150.815C151.843 153.457 149.544 155.296 146.899 155.066C145.059 154.836 143.68 153.802 142.99 152.308C142.76 151.734 143.22 151.389 143.795 151.274C144.829 151.389 145.979 151.045 147.129 150.47Z" fill="#2B3956"/>
<path d="M242.271 231.594C236.999 231.121 233.009 230.763 229.5 225.5C231.619 229.737 234.39 234.658 237.41 240.022C246.508 256.179 257.871 276.357 260.499 294C259.913 293.493 258.978 292.641 257.749 291.521C248.985 283.536 225.274 261.932 206.61 254.618C204.379 250.795 201.052 249.243 198.381 247.997C196.177 246.968 194.42 246.149 194.094 244.434C193.181 239.627 185.308 245.224 189.91 250.943C190.418 251.574 190.947 252.164 191.483 252.714C190.793 252.917 190.13 253.178 189.498 253.5C170 257.5 166.5 276.5 189.498 270.5C196.684 273.737 207.173 285.221 218.574 297.703C230.443 310.698 243.3 324.775 254.446 331.754C277.999 346.5 296.116 336.5 293.499 307C292.631 297.221 286.216 258.819 270.5 244.5C257.869 232.992 249.019 232.198 242.271 231.594Z" fill="url(#paint3_linear)"/>
<path d="M139.5 227C134.5 232.5 118.5 228.5 101.5 243C84.4998 257.5 78.1194 297.221 77.2518 307C74.6344 336.5 92.7518 346.5 116.304 331.754C138.157 318.071 169.333 310.608 184 304C196.5 298.368 196.5 294 184 287C165.244 277.426 116.504 288.589 110.252 294C113.752 270.5 131 244 139.5 227Z" fill="url(#paint4_linear)"/>
<path d="M171.54 305.269C169.283 302.2 162.595 306.109 156 301.397L161.157 295.17C162.118 295.217 167.324 295.329 172.478 297.798C178.92 300.883 174.361 309.105 171.54 305.269Z" fill="url(#paint5_linear)"/>
<path d="M184.994 267.898L181.443 268.435C177.587 268.983 174.417 273.991 174.076 280.727C173.663 288.491 177.108 295.631 181.822 296.65C182.426 296.782 183.071 296.798 183.682 296.701L187.234 296.164C186.622 296.26 186.016 296.205 185.374 296.113C180.659 295.094 177.214 287.953 177.628 280.189C177.969 273.453 181.099 268.485 184.994 267.898Z" fill="#628AF1"/>
<path d="M194.562 283.912C194.976 276.148 191.531 269.007 186.816 267.988C182.102 266.969 177.967 272.427 177.59 280.228C177.177 287.993 180.621 295.133 185.336 296.152C190.051 297.171 194.149 291.676 194.562 283.912Z" fill="#B7C5FF"/>
<path d="M191.517 283.21C191.755 278.334 189.378 272.791 186.411 272.19C183.483 271.551 181.102 276.001 180.864 280.877C180.626 285.753 183.02 291.353 185.949 291.992C188.913 292.667 191.279 288.086 191.517 283.21Z" fill="#AABBFF"/>
<defs>
<linearGradient id="paint0_linear" x1="360.625" y1="318.71" x2="353.773" y2="324.116" gradientUnits="userSpaceOnUse">
<stop stop-color="#FFF384"/>
<stop offset="1" stop-color="#FFE485"/>
</linearGradient>
<linearGradient id="paint1_linear" x1="182.061" y1="72.1407" x2="182.061" y2="403.479" gradientUnits="userSpaceOnUse">
<stop stop-color="white"/>
<stop offset="0.494792" stop-color="#E8EAF8"/>
<stop offset="0.671875" stop-color="#E3E5F7"/>
<stop offset="1" stop-color="#B1B7E9"/>
</linearGradient>
<linearGradient id="paint2_linear" x1="184.175" y1="97" x2="184.175" y2="201" gradientUnits="userSpaceOnUse">
<stop stop-color="#EAECFF"/>
<stop offset="1" stop-color="#BCC2F4"/>
</linearGradient>
<linearGradient id="paint3_linear" x1="278.499" y1="248" x2="173.999" y2="248" gradientUnits="userSpaceOnUse">
<stop stop-color="#E0E2F6"/>
<stop offset="1" stop-color="white"/>
</linearGradient>
<linearGradient id="paint4_linear" x1="92.252" y1="248" x2="196.752" y2="248" gradientUnits="userSpaceOnUse">
<stop stop-color="#E0E2F6"/>
<stop offset="0.26131" stop-color="#E6E8F8"/>
<stop offset="1" stop-color="white"/>
</linearGradient>
<linearGradient id="paint5_linear" x1="173.411" y1="307.052" x2="160.305" y2="296.199" gradientUnits="userSpaceOnUse">
<stop stop-color="white"/>
<stop offset="0.713542" stop-color="white"/>
<stop offset="1" stop-color="white" stop-opacity="0"/>
</linearGradient>
</defs>
</svg>
