<svg width="298" height="403" viewBox="0 0 298 403" fill="none" xmlns="http://www.w3.org/2000/svg">
<path d="M297.1 101.3C297.1 45.3 255.2 0 203.5 0H93.7C42 0 0 45.3 0 101.3V301.5C0 357.5 41.9 402.8 93.6 402.8H203.4C255.1 402.8 297 357.4 297 301.5V101.3H297.1Z" fill="url(#paint0_linear)"/>
<path d="M32.2889 191.095L208.768 275.692C226.628 259.595 240.888 245.33 255.896 230.283L79.8324 145.605C79.8324 145.605 38.4911 185.365 32.2889 191.095Z" fill="#FFD481"/>
<path d="M251.577 227.874C237.487 241.238 221.947 258.602 207.323 271.333C206.196 270.768 83.7497 210.314 37.5597 189.851C42.1234 185.817 76.7534 152.151 81.05 147.8L251.577 227.874Z" fill="#724B00"/>
<path d="M53.6939 178.543C55.2361 170.316 59.9385 164.587 64.1382 157.691L62.3191 156.696C62.1017 156.503 61.7537 156.474 61.396 156.561C59.9605 156.966 58.7762 157.86 57.6402 158.875C52.7627 163.431 50.4798 170.482 51.6333 176.944C51.725 177.243 51.8796 177.49 52.1019 177.625L53.6939 178.543Z" fill="#CB8600"/>
<path d="M54.5819 194.769C51.8092 188.814 51.8109 181.806 53.562 175.529C55.3179 169.193 58.7749 163.467 62.7731 158.253C63.624 157.156 64.4748 156.059 65.4851 155.151C67.704 153.059 70.5655 151.663 73.451 150.678C74.5337 150.301 75.8435 150.002 76.7809 150.664L83.1118 153.605L62.7291 199.304L54.5819 194.769Z" fill="#FFD481"/>
<path d="M119.567 171.177L116.964 163.893L102.471 157.718L92.387 167.971L82.8034 186.909L79.034 205.457L80.9177 210.169L89.5677 214.28L97.895 213.866L119.567 171.177Z" fill="#9E6800"/>
<path d="M118.129 173.559L115.777 166.978L102.682 161.398L93.5697 170.662L84.9101 187.774L81.5041 204.534L83.2062 208.792L91.0222 212.506L98.5466 212.132L118.129 173.559Z" fill="#FFD481"/>
<path d="M59.8588 196.612C60.9622 190.397 62.1817 184.192 63.5171 177.997L82.8033 186.908L79.0338 205.457L59.8588 196.612Z" fill="#FFDFA0"/>
<path d="M84.3787 149.196C81.0093 152.477 76.9246 155.932 73.3426 158.961L92.3638 167.992L102.501 157.675L84.3787 149.196Z" fill="#FFD481"/>
<path d="M93.947 152.098C91.7001 150.334 88.1671 150.681 86.0014 152.836C83.8937 154.996 83.975 158.214 86.1639 159.974C88.3528 161.734 91.9438 161.392 94.1095 159.237C96.2752 157.082 96.1939 153.863 93.947 152.098ZM94.9041 151.127C97.7502 153.409 97.9425 157.396 95.2596 160.15C92.5814 162.847 88.1108 163.232 85.2599 161.008C82.4139 158.726 82.2215 154.739 84.9045 151.985C87.5295 149.226 91.9952 148.898 94.9041 151.127Z" fill="#CB8600"/>
<path d="M91.0133 155.065C91.5593 155.52 91.5543 156.279 91.0419 156.82C90.5294 157.361 89.645 157.462 89.099 157.008C88.553 156.553 88.558 155.795 89.0704 155.253C89.578 154.77 90.4624 154.669 91.0133 155.065Z" fill="#CB8600"/>
<path d="M60.8797 200.734L59.8653 196.61L79.0497 205.451L80.9238 210.184L60.8797 200.734Z" fill="#FFB526"/>
<path d="M92.3873 167.971L82.8037 186.909L63.5175 177.997L73.3428 158.963L92.3873 167.971Z" fill="#FFF9EF"/>
<path d="M232.327 225.802L229.666 218.513L215.178 212.28L205.089 222.591L195.505 241.529L191.741 260.019L193.576 264.611L202.269 268.9L210.602 268.428L232.327 225.802Z" fill="#CB8600"/>
<path d="M199.153 263.56C202.588 265.073 207.181 266.914 210.617 268.427L212.443 266.809L232.273 225.74C228.238 223.709 224.227 221.388 220.042 219.754C197.852 224.615 196.047 256 199.153 263.56Z" fill="#FFD481"/>
<path d="M175.26 197.965L172.652 190.739L158.165 184.506L148.022 194.754L138.497 213.697L134.727 232.245L136.563 236.837L145.203 241.063L153.588 240.654L175.26 197.965Z" fill="#9E6800"/>
<path d="M147.262 184.295L144.654 177.069L130.166 170.835L120.078 181.146L110.499 200.026L106.729 218.574L108.627 223.349L117.253 227.513L125.59 226.984L147.262 184.295Z" fill="#9E6800"/>
<path d="M87.5492 209.79C88.6526 203.575 89.8721 197.369 91.2075 191.174L110.499 200.028L106.729 218.576L87.5492 209.79Z" fill="#FFDFA0"/>
<path d="M145.415 187.348L143.063 180.767L130.16 174.755L121.048 184.019L112.388 201.131L108.982 217.891L110.684 222.149L118.5 225.863L126.025 225.49L145.415 187.348Z" fill="#FFD481"/>
<path d="M173.576 200.801L171.224 194.219L158.321 188.207L149.209 197.472L140.549 214.584L137.143 231.344L138.845 235.602L146.661 239.316L154.186 238.942L173.576 200.801Z" fill="#FFD481"/>
<path d="M112.073 162.316C108.703 165.596 104.619 169.051 101.037 172.08L120.076 181.147L130.165 170.836L112.073 162.316Z" fill="#FFD481"/>
<path d="M88.5296 213.779L87.5579 209.797L106.731 218.574L108.652 223.366L88.5296 213.779Z" fill="#FFB526"/>
<path d="M120.077 181.147L110.498 200.027L91.207 191.173L101.095 172.085L120.077 181.147Z" fill="#FFF9EF"/>
<path d="M133.825 163.375L127.983 160.609C127.645 160.464 127.113 160.536 126.794 160.86L121.375 166.306C121.124 166.518 121.099 166.808 121.259 166.997C121.418 167.185 121.761 167.272 122.119 167.185L133.381 164.506C133.738 164.419 133.99 164.206 134.067 163.979C134.207 163.699 134.111 163.457 133.825 163.375ZM127.519 161.972L131.283 163.746L124.014 165.475L127.519 161.972Z" fill="#CB8600"/>
<path d="M122.127 161.521C122.074 161.458 121.958 161.449 121.842 161.439C121.494 161.41 121.078 161.492 120.774 161.642L107.123 170.545C106.751 170.806 106.722 171.154 107.06 171.299L118.803 176.836C119.025 176.971 119.436 176.947 119.794 176.86C120.151 176.773 120.403 176.561 120.422 176.329L122.388 161.893C122.398 161.777 122.296 161.594 122.127 161.521ZM109.09 170.768L120.329 163.473L118.692 175.367L109.09 170.768Z" fill="#CB8600"/>
<path d="M115.548 223.458C116.652 217.244 117.871 211.038 119.207 204.843L138.498 213.697L134.728 232.245L115.548 223.458Z" fill="#FFDFA0"/>
<path d="M140.071 175.985C136.702 179.265 132.617 182.72 129.035 185.749L148.022 194.753L158.216 184.439L140.071 175.985Z" fill="#FFD481"/>
<path d="M116.562 227.397C116.586 227.107 115.456 223.859 115.49 223.453L134.733 232.247L136.568 236.839L116.562 227.397Z" fill="#FFB526"/>
<path d="M148.933 188.757C149.049 188.767 149.107 188.771 149.223 188.781C149.633 188.757 150.01 188.438 150.102 188.037L152.663 173.476C152.682 173.244 152.585 173.002 152.358 172.925C152.131 172.848 151.836 172.881 151.585 173.094L136.943 183.375C136.571 183.636 136.479 184.037 136.634 184.283C136.846 184.535 137.315 184.516 137.683 184.313L150.961 174.969L148.628 188.206C148.609 188.438 148.706 188.68 148.933 188.757Z" fill="#CB8600"/>
<path d="M142.868 186.556C145.023 187.32 148.039 186.17 149.504 184.015C151.027 181.865 150.467 179.482 148.307 178.776C146.152 178.012 143.136 179.161 141.671 181.317C140.148 183.467 140.655 185.787 142.868 186.556ZM147.446 179.989C148.92 180.521 149.311 182.13 148.253 183.619C147.194 185.107 145.145 185.87 143.671 185.338C142.197 184.806 141.806 183.197 142.864 181.708C143.918 180.278 145.968 179.515 147.446 179.989Z" fill="#CB8600"/>
<path d="M148.023 194.753L138.497 213.696L119.206 204.842L129.037 185.75L148.023 194.753Z" fill="#FFF9EF"/>
<path d="M211.247 267.895C202.43 253.901 212.951 225.643 229.871 225.13C232.8 225.025 235.134 227.848 235.887 230.714C236.645 233.522 236.219 236.523 235.745 239.404L234.516 245.024C225.759 254.196 220.728 259.251 211.247 267.895Z" fill="#CB8600"/>
<path d="M208.767 275.692C224.739 261.376 255.784 230.216 255.784 230.216C255.752 239.288 255.719 248.36 255.687 257.432C255.679 259.625 254.772 261.718 253.179 263.225C238.475 277.135 223.238 291.887 208.654 305.7C208.661 295.831 208.707 285.498 208.767 275.692Z" fill="#CB8600"/>
<path d="M204.274 212.07L201.666 204.844L187.178 198.611L177.094 208.864L167.51 227.802L163.741 246.35L165.576 250.942L174.275 255.173L182.602 254.759L204.274 212.07Z" fill="#9E6800"/>
<path d="M202.495 215.035L200.143 208.453L187.24 202.441L178.128 211.706L169.468 228.818L166.062 245.578L167.764 249.836L175.58 253.55L183.105 253.176L202.495 215.035Z" fill="#FFD481"/>
<path d="M144.561 237.563C145.664 231.348 146.884 225.143 148.219 218.947L167.51 227.801L163.741 246.349L144.561 237.563Z" fill="#FFDFA0"/>
<path d="M169.087 190.091C165.717 193.371 161.633 196.826 158.051 199.855L177.093 208.865L187.246 198.558L169.087 190.091Z" fill="#FFD481"/>
<path d="M145.41 241.372C145.434 241.082 144.526 237.969 144.56 237.563L163.74 246.35L165.575 250.941L145.41 241.372Z" fill="#FFB526"/>
<path d="M164.522 198.586L170.36 201.41C170.698 201.555 171.119 201.415 171.322 201.082L174.354 194.853C174.494 194.572 174.46 194.278 174.243 194.084C174.025 193.891 173.74 193.809 173.498 193.905L164.629 197.31C164.387 197.407 164.189 197.682 164.17 197.914C164.145 198.204 164.295 198.509 164.522 198.586ZM170.37 199.892L166.61 198.06L172.343 195.853L170.37 199.892Z" fill="#CB8600"/>
<path d="M176.192 204.291C176.245 204.353 176.361 204.363 176.419 204.368C176.709 204.392 176.956 204.238 177.096 203.957L183.218 191.504C183.363 191.166 183.223 190.745 182.889 190.542L171.219 184.837C170.997 184.701 170.644 184.73 170.451 184.948C170.262 185.107 170.18 185.392 170.214 185.687L175.762 203.846C175.859 204.087 176.023 204.218 176.192 204.291ZM181.642 191.489L176.637 201.758L172.103 186.838L181.642 191.489Z" fill="#CB8600"/>
<path d="M177.093 208.863L167.51 227.801L148.219 218.947L158.107 199.86L177.093 208.863Z" fill="#FFF9EF"/>
<path d="M234.068 239.204C232.28 238.237 228.013 236.187 228.013 236.187C223.88 237.418 221.318 240.825 219.476 244.7C217.691 248.581 217.004 253.312 218.598 257.3L218.859 257.672C219.356 258.006 220.188 258.542 220.68 258.934L236.812 242.704L234.068 239.204Z" fill="#FFD481"/>
<path d="M223.229 256.403C222.954 252.701 223.705 245.114 229.859 240.664C231.164 239.722 232.759 238.804 234.359 239.23C235.784 239.641 236.659 241.057 236.881 242.594L223.229 256.403Z" fill="#CB8600"/>
<path d="M172.619 251.238C173.722 245.023 174.941 238.818 176.277 232.623L195.568 241.476L191.798 260.024L172.619 251.238Z" fill="#FFDFA0"/>
<path d="M197.121 203.828C193.752 207.109 189.667 210.564 186.085 213.593L205.072 222.597L215.16 212.286L197.121 203.828Z" fill="#FFD481"/>
<path d="M173.642 255.061C173.666 254.771 172.584 251.644 172.618 251.238L191.793 260.021L193.575 264.611L173.642 255.061Z" fill="#FFB526"/>
<path d="M193.549 213.218L200.237 216.347C200.629 216.554 201.223 216.429 201.6 216.11C201.919 215.786 201.895 215.376 201.504 215.168L195.546 212.392L206.737 201.472L216.687 206.1C217.078 206.308 217.672 206.182 218.05 205.863C218.369 205.54 218.345 205.129 217.953 204.921L207.215 199.935C206.824 199.728 206.23 199.853 205.852 200.172L193.448 212.334C193.076 212.594 193.095 213.063 193.549 213.218Z" fill="#CB8600"/>
<path d="M201.157 210.933L203.742 212.142C205.54 212.993 208.27 212.462 209.856 210.959C211.384 209.452 211.191 207.567 209.335 206.711L206.75 205.502C206.358 205.294 205.764 205.42 205.387 205.739L201.06 209.991C200.736 210.372 200.76 210.783 201.157 210.933ZM208.126 207.895C209.136 208.388 209.281 209.451 208.397 210.253C207.507 211.113 206.023 211.398 205.013 210.905L203.158 210.049L206.276 206.981L208.126 207.895Z" fill="#CB8600"/>
<path d="M269.737 191.825C271.684 192.751 272.51 195.034 271.609 196.993C266.482 208.137 261.256 219.264 255.896 230.284C245.757 225.816 234.348 221.183 224.064 217.053C224.006 217.048 223.842 216.918 223.504 216.773C229.05 205.615 236.477 190.117 241.893 178.423C254.625 184.624 264.712 189.437 269.737 191.825Z" fill="#CB8600"/>
<path d="M64.1474 98.074C65.0555 96.0792 67.3878 95.1822 69.387 96.0804C105.619 112.358 195.314 155.665 242.706 178.699C237.353 190.34 229.926 205.837 224.317 217.049C215.116 212.542 92.0448 152.733 47.6105 133.076C53.3001 121.922 58.895 109.612 64.1474 98.074Z" fill="#FFA800"/>
<path d="M32.289 191.096C78.2455 211.406 208.768 275.692 208.768 275.692L208.655 305.7C207.205 305.294 83.4168 247.128 35.271 223.034C33.2258 222.011 31.9919 219.931 32.0155 217.644L32.289 191.096Z" fill="#FFA800"/>
<path d="M205.089 222.591L195.506 241.529L176.22 232.617L186.103 213.587L205.089 222.591Z" fill="#FFF9EF"/>
<path d="M184.228 240.85C181.942 239.169 179.6 240.262 179.021 243.292C178.443 246.322 179.857 250.087 182.154 251.711C184.451 253.334 186.781 252.298 187.36 249.269C187.938 246.239 186.524 242.473 184.228 240.85ZM184.49 239.478C187.464 241.586 189.275 246.376 188.565 250.091C187.856 253.807 184.877 255.134 181.903 253.026C178.928 250.917 177.117 246.128 177.827 242.412C178.547 238.639 181.515 237.369 184.49 239.478Z" fill="#CB8600"/>
<path d="M183.452 244.908C184.026 245.314 184.331 246.202 184.189 246.945C184.047 247.688 183.467 247.933 182.95 247.538C182.433 247.143 182.071 246.244 182.213 245.501C182.287 244.804 182.867 244.559 183.452 244.908Z" fill="#CB8600"/>
<path d="M180.77 231.947L191.561 236.995C191.899 237.14 192.378 237.005 192.586 236.613C192.794 236.222 192.77 235.811 192.431 235.666L181.641 230.618C181.302 230.473 180.824 230.608 180.616 230.999C180.355 231.328 180.432 231.802 180.77 231.947Z" fill="#CB8600"/>
<path d="M188.184 231.281C190.489 232.35 194.076 230.664 196.092 227.504C198.108 224.344 197.93 220.883 195.567 219.81C193.262 218.741 189.676 220.427 187.659 223.587C185.643 226.747 185.879 230.213 188.184 231.281ZM194.76 221.085C196.446 221.869 196.513 224.561 194.966 227.001C193.356 229.495 190.673 230.847 188.987 230.064C187.3 229.28 187.233 226.588 188.781 224.148C190.328 221.708 193.073 220.302 194.76 221.085Z" fill="#CB8600"/>
<path d="M154.373 215.9L165.618 221.103C165.787 221.175 166.077 221.199 166.26 221.098C166.444 220.997 166.575 220.832 166.594 220.6L167.598 207.895C167.617 207.663 167.516 207.479 167.288 207.402C167.061 207.324 166.829 207.305 166.583 207.459L154.276 214.957C154.093 215.059 153.957 215.281 154.001 215.46C154.044 215.639 154.145 215.822 154.373 215.9ZM165.323 219.735L155.881 215.325L166.215 209.064L165.323 219.735Z" fill="#CB8600"/>
<path d="M160.203 212.533L165.939 215.173C166.219 215.313 166.635 215.231 166.833 214.955C167.031 214.68 166.886 214.318 166.606 214.177L160.87 211.537C160.59 211.397 160.174 211.479 159.976 211.754C159.778 212.03 159.864 212.387 160.203 212.533Z" fill="#CB8600"/>
<path d="M149.182 236.782L158.44 241.293C158.779 241.438 159.078 241.347 159.103 241.057L160.352 232.401C160.376 232.111 160.173 231.744 159.84 231.541L150.581 227.029C150.242 226.884 149.943 226.976 149.918 227.266L148.669 235.921C148.64 236.269 148.843 236.637 149.182 236.782ZM158.03 239.916L149.95 235.97L151.049 228.412L159.129 232.357L158.03 239.916Z" fill="#CB8600"/>
<path d="M149.177 236.84L161.354 242.763C161.692 242.908 161.992 242.817 162.016 242.527C162.041 242.237 161.838 241.869 161.504 241.666L149.327 235.743C148.988 235.598 148.689 235.69 148.664 235.98C148.635 236.328 148.838 236.695 149.177 236.84Z" fill="#CB8600"/>
<path d="M150.828 225.472L160.087 229.984C160.425 230.129 160.725 230.037 160.749 229.747C160.773 229.457 160.57 229.09 160.237 228.887L150.978 224.375C150.64 224.23 150.34 224.322 150.316 224.612C150.234 224.897 150.495 225.269 150.828 225.472Z" fill="#CB8600"/>
<path d="M127.58 227.618C129.701 228.788 131.572 228.068 131.737 226.097C131.906 224.067 130.312 221.481 128.191 220.311C126.069 219.14 124.199 219.86 124.034 221.832C123.922 223.867 125.517 226.453 127.58 227.618ZM128.079 221.644C129.418 222.399 130.447 224.062 130.34 225.337C130.234 226.613 129.025 227.096 127.687 226.342C126.348 225.588 125.319 223.925 125.426 222.649C125.537 221.315 126.741 220.89 128.079 221.644Z" fill="#CB8600"/>
<path d="M122 224.523C122.391 224.731 122.696 224.581 122.725 224.233L123.845 210.836C123.874 210.488 123.564 209.995 123.231 209.792C122.84 209.584 122.535 209.734 122.506 210.082L121.386 223.479C121.352 223.885 121.608 224.315 122 224.523Z" fill="#CB8600"/>
<path d="M122.498 218.55L128.138 221.649C128.529 221.857 128.834 221.707 128.863 221.359C128.892 221.011 128.583 220.518 128.249 220.315L122.61 217.216C122.218 217.008 121.914 217.158 121.885 217.506C121.856 217.854 122.107 218.342 122.498 218.55Z" fill="#CB8600"/>
<path d="M131.012 226.386C131.403 226.594 131.708 226.444 131.737 226.096C132.135 221.341 128.599 213.336 128.449 213.032C128.251 212.606 127.811 212.278 127.516 212.311C127.164 212.34 127.077 212.683 127.275 213.109C127.328 213.172 130.762 220.992 130.399 225.342C130.369 225.69 130.621 226.178 131.012 226.386Z" fill="#CB8600"/>
<path d="M105.768 195.135C106.107 195.28 106.522 195.198 106.667 194.86L112.924 182.885C113.069 182.547 112.987 182.131 112.649 181.986C112.311 181.841 111.895 181.923 111.75 182.262L105.493 194.236C105.353 194.516 105.493 194.937 105.768 195.135Z" fill="#CB8600"/>
<path d="M104.982 187.068L108.896 189.148C109.235 189.293 109.65 189.211 109.795 188.872C109.94 188.534 109.858 188.118 109.52 187.973L105.606 185.894C105.268 185.749 104.852 185.831 104.707 186.169C104.562 186.508 104.649 186.865 104.982 187.068Z" fill="#CB8600"/>
<path d="M101.927 187.981C103.382 188.745 105.122 188.19 105.886 186.735C106.65 185.281 106.099 183.483 104.645 182.719C103.19 181.955 101.45 182.51 100.686 183.965C99.9222 185.419 100.473 187.217 101.927 187.981ZM104.021 183.893C104.804 184.309 105.132 185.271 104.716 186.053C104.301 186.836 103.339 187.165 102.556 186.749C101.773 186.333 101.445 185.371 101.86 184.588C102.276 183.806 103.238 183.477 104.021 183.893Z" fill="#CB8600"/>
<path d="M97.0652 190.261C97.1232 190.266 97.1232 190.266 97.1763 190.329C100.588 191.431 104.218 189.924 105.886 186.735C107.487 183.657 106.7 179.795 104.023 177.586C103.752 177.33 103.337 177.412 103.08 177.682C102.824 177.953 102.906 178.368 103.177 178.625C105.361 180.442 105.979 183.531 104.712 186.111C103.382 188.745 100.361 189.952 97.5729 189.077C97.2298 188.99 96.8673 189.135 96.7174 189.531C96.6352 189.816 96.7849 190.121 97.0652 190.261Z" fill="#CB8600"/>
<path d="M127.113 203.869L135.01 207.215C135.237 207.292 135.527 207.317 135.715 207.157C135.904 206.998 135.981 206.771 135.943 206.534L132.688 193.764L136.018 195.152C136.356 195.297 136.777 195.157 136.917 194.877C137.057 194.597 136.912 194.234 136.574 194.089L132.06 192.193C131.833 192.116 131.543 192.092 131.355 192.251C131.166 192.411 131.089 192.638 131.127 192.875L134.382 205.644L128.293 203.033L129.429 200.617C129.569 200.336 129.424 199.974 129.086 199.829C128.748 199.684 128.327 199.824 128.187 200.104L126.77 203.081C126.63 203.361 126.775 203.724 127.113 203.869Z" fill="#CB8600"/>
<path d="M72.3414 201.685C72.6748 201.888 72.9842 201.681 73.0713 201.338L75.4862 187.816C75.5733 187.472 75.3221 186.984 74.9839 186.839C74.6504 186.636 74.3411 186.844 74.254 187.187L71.839 200.709C71.7519 201.052 72.008 201.482 72.3414 201.685Z" fill="#CB8600"/>
<path d="M69.2096 200.021C69.543 200.224 69.8523 200.017 69.9394 199.674L72.3544 186.152C72.4415 185.808 72.1903 185.32 71.852 185.175C71.5137 185.03 71.2092 185.18 71.1221 185.523L68.7072 199.045C68.6201 199.388 68.8713 199.876 69.2096 200.021Z" fill="#CB8600"/>
<path d="M67.1772 187.998L70.8111 189.937C71.1445 190.14 71.4539 189.932 71.541 189.589C71.628 189.246 71.3768 188.758 71.0386 188.612L67.4046 186.674C67.0712 186.47 66.7618 186.678 66.6748 187.021C66.5877 187.364 66.8389 187.853 67.1772 187.998Z" fill="#CB8600"/>
<path d="M65.9486 195.019L69.5826 196.958C69.916 197.161 70.2254 196.953 70.3124 196.61C70.3995 196.267 70.1483 195.779 69.81 195.634L66.1761 193.695C65.8427 193.492 65.5333 193.7 65.4463 194.043C65.4172 194.391 65.6152 194.816 65.9486 195.019Z" fill="#CB8600"/>
<path d="M93.5612 209.824C93.8415 209.964 94.146 209.814 94.2331 209.471L95.7671 201.599C96.159 199.704 97.8701 198.796 99.6678 199.647C101.407 200.493 102.567 202.693 102.175 204.587L100.641 212.46C100.554 212.803 100.757 213.17 101.095 213.315C101.375 213.455 101.68 213.306 101.767 212.962L103.301 205.09C103.809 202.504 102.307 199.517 99.8904 198.381C97.5322 197.249 95.1541 198.452 94.646 201.038L93.112 208.91C93.078 209.316 93.281 209.684 93.5612 209.824Z" fill="#CB8600"/>
<path d="M98.1286 207.578L100.69 206.273L99.0335 203.04L96.4717 204.344L98.1286 207.578ZM99.115 205.558L98.506 205.857L98.105 205.065L98.714 204.765L99.115 205.558Z" fill="#CB8600"/>
<path d="M99.5909 213.132L102.403 214.418C102.684 214.558 102.988 214.408 103.075 214.065C103.162 213.722 102.959 213.355 102.621 213.21L99.8086 211.923C99.5284 211.783 99.2238 211.933 99.1368 212.276C99.1125 212.566 99.3154 212.933 99.5909 213.132Z" fill="#CB8600"/>
<path d="M92.1211 209.587L94.9336 210.873C95.2139 211.013 95.5184 210.863 95.6055 210.52C95.6926 210.177 95.4897 209.81 95.1514 209.665L92.3389 208.378C92.0586 208.238 91.7541 208.388 91.667 208.731C91.58 209.074 91.7829 209.442 92.1211 209.587Z" fill="#CB8600"/>
<path d="M78.2164 167.72L82.9473 169.809C83.3436 169.959 83.8801 169.829 84.0832 169.495C84.3442 169.167 84.209 168.688 83.8128 168.538L79.0818 166.449C78.6855 166.299 78.149 166.43 77.946 166.763C77.6849 167.092 77.8201 167.57 78.2164 167.72Z" fill="#CB8600"/>
<path d="M74.8372 171.817L80.5249 174.336C80.9212 174.486 81.4577 174.356 81.6608 174.023C81.8638 173.689 81.7866 173.216 81.3904 173.066L75.7026 170.546C75.3063 170.396 74.7698 170.527 74.5667 170.86C74.3057 171.189 74.4457 171.609 74.8372 171.817Z" fill="#CB8600"/>
<path d="M70.4384 176.238L78.325 179.701C78.7212 179.85 79.2577 179.72 79.4608 179.387C79.7219 179.058 79.5867 178.58 79.1904 178.43L71.3038 174.967C70.9076 174.817 70.3711 174.948 70.168 175.281C69.9021 175.668 69.9842 176.083 70.4384 176.238Z" fill="#CB8600"/>
<defs>
<linearGradient id="paint0_linear" x1="148.55" y1="0" x2="148.55" y2="402.7" gradientUnits="userSpaceOnUse">
<stop stop-color="#FFF7B1"/>
<stop offset="1" stop-color="#FFE485"/>
</linearGradient>
</defs>
</svg>
