<svg width="298" height="403" viewBox="0 0 298 403" fill="none" xmlns="http://www.w3.org/2000/svg">
<path d="M297.1 101.3C297.1 45.3 255.2 0 203.5 0H93.7C42 0 0 45.3 0 101.3V301.5C0 357.5 41.9 402.8 93.6 402.8H203.4C255.1 402.8 297 357.4 297 301.5V101.3H297.1Z" fill="url(#paint0_linear)"/>
<g clip-path="url(#clip0)">
<path d="M63.8496 306.954C86.0179 310.032 107.043 309.153 128.859 304.403C130.266 301.853 131.058 300.71 132.466 298.159C132.642 297.895 132.906 297.719 133.082 297.895C133.257 299.654 134.489 301.149 136.248 302.469C153.139 297.455 169.149 290.771 185.335 283.735C211.99 233.075 225.625 177.49 239.612 122.432C235.302 124.895 233.191 126.126 228.88 128.589C228.176 130.7 227.825 131.667 227.033 133.69C226.945 134.042 226.681 134.218 226.593 134.13C225.625 132.986 225.098 132.459 224.13 131.315C203.281 143.54 182.52 155.326 160 164.209C157.361 168.431 156.042 170.454 153.314 174.499C153.139 174.763 152.787 174.851 152.875 174.587C153.314 171.333 153.578 169.75 154.018 166.32C151.291 167.199 149.972 167.727 147.157 168.519C145.221 170.717 144.342 171.773 142.406 173.972C142.054 174.323 141.703 174.411 141.615 174.148C141.175 172.74 140.911 172.037 140.383 170.542C125.516 174.411 110.649 176.786 95.4306 178.369C84.0826 221.026 71.327 263.33 63.8496 306.954Z" fill="url(#paint1_linear)"/>
<path d="M114.784 205.634C118.302 205.106 119.974 204.755 123.405 204.051C124.02 203.875 124.636 203.523 125.076 202.996C125.516 202.468 125.692 201.852 125.516 201.5C124.548 198.246 124.108 196.663 123.053 193.233C122.965 193.057 122.701 192.881 122.437 192.969C122.085 193.057 121.821 193.233 121.557 193.497C118.39 197.719 116.807 199.741 113.64 203.611C113.2 204.139 113.112 204.667 113.288 205.106C113.64 205.458 114.168 205.722 114.784 205.634ZM121.821 195.344C122.701 198.246 123.141 199.566 124.02 202.468C124.02 202.556 124.02 202.556 123.932 202.644C123.844 202.644 123.844 202.732 123.756 202.732C120.326 203.435 118.654 203.699 115.135 204.315C115.047 204.315 115.047 204.315 115.047 204.315C115.047 204.227 115.047 204.227 115.047 204.227C117.775 200.621 119.094 198.862 121.821 195.344Z" fill="#CB8600"/>
<path d="M114.08 204.667C114.344 204.579 114.696 204.491 114.96 204.139C118.39 199.829 121.733 195.432 124.988 190.946C125.252 190.507 125.252 190.155 124.9 190.067C124.548 189.979 124.02 190.243 123.756 190.595C120.502 194.992 117.159 199.39 113.64 203.699C113.288 204.051 113.376 204.491 113.728 204.579C113.816 204.755 113.992 204.755 114.08 204.667Z" fill="#CB8600"/>
<path d="M184.191 180.92C184.367 180.832 184.455 180.744 184.543 180.568C184.895 180.216 185.071 179.6 184.895 179.337C183.399 176.082 182.695 174.499 181.2 171.245C181.112 170.981 180.672 171.069 180.32 171.509C179.968 171.861 179.792 172.476 179.968 172.74C181.464 175.994 182.168 177.666 183.751 180.832C183.839 181.008 183.927 181.008 184.191 180.92Z" fill="#CB8600"/>
<path d="M179.089 178.105C181.024 177.138 181.992 176.698 183.927 175.731C184.279 175.555 184.631 175.115 184.719 174.587C184.807 174.147 184.631 173.884 184.367 174.059C182.52 175.027 181.464 175.555 179.529 176.522C179.177 176.698 178.825 177.138 178.737 177.578C178.561 178.105 178.737 178.281 179.089 178.105Z" fill="#CB8600"/>
<path d="M177.506 184.174C180.145 182.943 181.464 182.239 184.103 180.92C184.455 180.744 184.807 180.304 184.895 179.865C184.983 179.425 184.895 179.249 184.543 179.337C181.904 180.656 180.673 181.36 177.945 182.591C177.594 182.767 177.242 183.207 177.154 183.647C177.066 184.086 177.242 184.35 177.506 184.174Z" fill="#CB8600"/>
<path d="M162.111 184.438C162.639 184.174 162.991 184.526 162.815 185.141C162.639 185.757 162.111 186.461 161.496 186.724C160.968 186.988 160.616 186.637 160.792 186.021C160.968 185.405 161.584 184.614 162.111 184.438Z" fill="#CB8600"/>
<path d="M162.991 180.832C160.792 181.711 158.417 184.614 157.713 187.164C157.009 189.715 158.329 191.034 160.528 190.243C162.727 189.363 165.014 186.549 165.718 183.998C166.422 181.359 165.19 179.952 162.991 180.832ZM163.431 179.337C166.334 178.105 167.917 179.952 167.038 183.47C166.158 186.9 163.079 190.682 160.264 191.826C157.361 192.969 155.602 191.21 156.481 187.78C157.361 184.262 160.528 180.48 163.431 179.337Z" fill="#CB8600"/>
<path d="M200.729 172.916C201.081 172.74 201.433 172.301 201.521 171.773C202.929 166.408 203.545 163.681 204.952 158.14C205.04 157.701 204.864 157.437 204.6 157.613C204.248 157.789 203.896 158.316 203.808 158.844C202.489 164.385 201.785 167.111 200.378 172.476C200.202 172.828 200.378 173.092 200.729 172.916Z" fill="#CB8600"/>
<path d="M199.322 167.903C200.642 167.2 201.258 166.848 202.489 166.144C202.841 165.968 203.193 165.441 203.281 165.001C203.369 164.561 203.193 164.297 202.929 164.473C201.609 165.177 200.994 165.528 199.762 166.232C199.41 166.408 199.058 166.936 198.97 167.375C198.794 167.903 198.97 168.079 199.322 167.903Z" fill="#CB8600"/>
<path d="M197.65 167.815C199.058 167.024 200.553 164.825 201.081 162.802C201.609 160.779 200.817 159.724 199.41 160.515C198.002 161.307 196.419 163.594 195.891 165.616C195.451 167.551 196.243 168.519 197.65 167.815ZM198.97 162.186C199.762 161.747 200.114 162.274 199.85 163.418C199.586 164.473 198.706 165.704 198.002 166.144C197.211 166.584 196.859 166.056 197.123 164.913C197.387 163.857 198.266 162.626 198.97 162.186Z" fill="#CB8600"/>
<path d="M193.78 176.435C193.868 176.435 193.868 176.435 193.868 176.347C196.595 174.412 199.146 170.278 200.114 166.672C200.554 165.089 200.73 164.297 201.081 162.714C201.169 162.274 200.994 162.011 200.73 162.186C200.378 162.362 200.026 162.89 199.938 163.33C199.586 164.913 199.322 165.705 198.97 167.288C198.266 170.102 196.243 173.356 194.132 174.851C193.78 175.115 193.516 175.643 193.428 176.083C193.34 176.435 193.516 176.61 193.78 176.435Z" fill="#CB8600"/>
<path d="M144.077 197.719C144.517 197.631 144.869 197.103 145.045 196.663C145.66 194.377 145.924 193.321 146.54 191.034C147.508 187.692 145.66 185.669 142.405 186.725C140.734 187.253 139.942 187.516 138.183 187.956C137.743 188.044 137.303 188.484 137.215 189.012C137.127 189.451 137.391 189.715 137.743 189.627C139.415 189.187 140.294 188.924 141.966 188.396C144.341 187.692 145.748 189.1 145.045 191.562C144.429 193.849 144.077 194.992 143.461 197.191C143.461 197.543 143.725 197.807 144.077 197.719Z" fill="#CB8600"/>
<path d="M172.14 258.053C172.58 257.877 172.755 258.229 172.492 258.757C172.228 259.372 171.788 259.9 171.348 260.076C170.908 260.252 170.732 259.9 170.996 259.372C171.172 258.845 171.7 258.229 172.14 258.053Z" fill="#CB8600"/>
<path d="M173.283 254.975C171.611 255.678 169.5 258.053 168.62 260.34C167.741 262.539 168.532 263.858 170.116 263.154C171.787 262.451 173.899 260.076 174.69 257.877C175.57 255.59 174.954 254.271 173.283 254.975ZM173.723 253.656C176.01 252.688 176.89 254.359 175.746 257.437C174.602 260.428 171.875 263.594 169.588 264.474C167.389 265.353 166.421 263.77 167.565 260.78C168.708 257.789 171.523 254.535 173.723 253.656Z" fill="#CB8600"/>
<path d="M121.029 280.041C121.469 279.953 121.733 279.689 121.909 279.338C123.14 275.204 123.844 273.181 125.076 268.959C125.164 268.608 124.988 268.432 124.636 268.432C124.196 268.52 123.844 268.871 123.756 269.135C122.525 273.269 121.909 275.292 120.589 279.514C120.413 279.865 120.677 280.129 121.029 280.041Z" fill="#CB8600"/>
<path d="M118.918 275.468C120.413 275.292 121.117 275.116 122.612 274.852C123.052 274.764 123.316 274.5 123.492 274.148C123.668 273.797 123.404 273.621 123.052 273.621C121.557 273.884 120.853 274.06 119.358 274.236C118.918 274.324 118.566 274.676 118.478 274.94C118.302 275.292 118.566 275.556 118.918 275.468Z" fill="#CB8600"/>
<path d="M116.895 274.94C118.566 274.676 120.238 273.269 120.678 271.686C121.118 270.191 120.15 269.223 118.478 269.399C116.807 269.663 115.048 271.07 114.608 272.565C114.168 274.148 115.224 275.116 116.895 274.94ZM118.127 270.718C119.006 270.542 119.534 271.158 119.358 271.95C119.094 272.741 118.215 273.533 117.247 273.709C116.367 273.885 115.839 273.269 116.015 272.477C116.279 271.598 117.247 270.894 118.127 270.718Z" fill="#CB8600"/>
<path d="M112.848 281.184C112.936 281.184 112.936 281.184 112.936 281.096C116.103 280.217 119.006 277.49 119.798 274.676C120.15 273.444 120.326 272.829 120.677 271.685C120.765 271.334 120.59 271.158 120.15 271.158C119.71 271.246 119.358 271.597 119.27 271.861C118.918 273.005 118.742 273.708 118.39 274.852C117.774 276.963 115.487 279.161 113.024 279.865C112.672 279.953 112.232 280.305 112.232 280.656C112.232 281.008 112.496 281.184 112.848 281.184Z" fill="#CB8600"/>
<path d="M99.741 282.504C100.181 282.504 100.533 282.24 100.709 281.888C101.764 277.842 102.38 275.82 103.436 271.774C103.524 271.422 103.26 271.158 102.82 271.246C102.38 271.246 102.028 271.51 101.852 271.862C100.797 275.907 100.269 277.842 99.1253 281.888C99.0373 282.24 99.3012 282.504 99.741 282.504Z" fill="#CB8600"/>
<path d="M96.662 282.68C97.1019 282.68 97.5417 282.416 97.6297 282.064C98.6853 278.018 99.2131 275.995 100.357 272.038C100.445 271.686 100.181 271.422 99.741 271.422C99.3011 271.422 98.9492 271.686 98.7733 272.038C97.7177 275.995 97.1898 278.018 96.1342 282.064C95.9583 282.416 96.2222 282.68 96.662 282.68Z" fill="#CB8600"/>
<path d="M94.8144 275.292C96.3099 275.292 97.0136 275.204 98.5091 275.204C98.949 275.204 99.3008 274.94 99.4768 274.588C99.5648 274.237 99.3008 273.973 98.861 273.973C97.3655 274.061 96.6618 274.061 95.1663 274.061C94.7264 274.061 94.2866 274.324 94.1986 274.676C94.0227 275.028 94.3745 275.292 94.8144 275.292Z" fill="#CB8600"/>
<path d="M93.4066 280.481C94.8142 280.481 95.6059 280.393 97.1014 280.393C97.5412 280.393 97.8931 280.129 98.069 279.777C98.157 279.425 97.8931 279.162 97.5412 279.162C96.1337 279.162 95.342 279.25 93.8465 279.25C93.4066 279.25 93.0548 279.513 92.8788 279.865C92.7029 280.217 93.0548 280.481 93.4066 280.481Z" fill="#CB8600"/>
<path d="M141.966 274.588C142.318 274.5 142.758 274.06 142.846 273.709C143.461 271.774 143.813 270.718 144.517 268.871C145.485 265.969 144.077 264.298 141.262 265.089C139.855 265.441 139.151 265.705 137.655 266.057C137.304 266.145 136.864 266.497 136.776 266.936C136.6 267.288 136.864 267.552 137.216 267.464C138.623 267.112 139.415 266.848 140.822 266.497C142.846 265.881 143.989 267.2 143.285 269.311C142.67 271.246 142.318 272.301 141.614 274.148C141.438 274.412 141.614 274.676 141.966 274.588Z" fill="#CB8600"/>
<path d="M152.434 271.598C152.698 271.51 153.138 271.158 153.226 270.806C154.194 267.992 154.722 266.673 155.689 263.858C156.217 262.187 157.888 260.516 159.208 260.076C160.615 259.549 161.231 260.428 160.615 262.099C159.56 264.914 159.12 266.321 158.064 269.135C157.888 269.487 158.064 269.663 158.416 269.575C158.68 269.487 159.032 269.047 159.208 268.695C160.264 265.881 160.791 264.474 161.759 261.659C162.639 259.285 161.671 257.965 159.648 258.757C157.625 259.549 155.337 262.011 154.546 264.386C153.578 267.2 153.138 268.608 152.082 271.334C151.994 271.422 152.17 271.686 152.434 271.598Z" fill="#CB8600"/>
<path d="M157.977 263.594C158.416 263.418 158.68 263.77 158.416 264.298C158.24 264.825 157.713 265.441 157.185 265.617C156.745 265.793 156.481 265.441 156.745 264.913C156.921 264.298 157.449 263.77 157.977 263.594Z" fill="#CB8600"/>
<path d="M192.548 198.422C193.516 197.983 193.956 197.719 194.923 197.279C195.099 197.191 195.363 196.927 195.539 196.575C195.715 196.224 195.803 195.96 195.715 195.784C194.835 193.321 194.396 192.09 193.516 189.627C193.428 189.363 193.076 189.451 192.812 189.891C192.46 190.243 192.284 190.771 192.372 191.034C193.164 193.145 193.516 194.113 194.308 196.224C193.78 196.487 193.604 196.575 193.076 196.839C189.557 198.598 188.414 197.807 189.381 194.113C189.997 191.826 190.261 190.683 190.877 188.308C193.868 186.725 195.363 186.021 198.354 184.438C198.618 184.262 199.058 183.822 199.146 183.383C199.234 182.943 199.146 182.767 198.794 182.855C195.627 184.526 193.956 185.406 190.701 186.989C190.437 187.077 189.997 187.604 189.909 188.044C189.205 190.683 188.853 192.002 188.15 194.64C186.302 201.501 190.965 199.126 192.548 198.422Z" fill="#CB8600"/>
<path d="M174.339 207.305C176.45 206.338 178.737 203.435 179.441 200.709C179.529 200.269 179.353 200.093 179.089 200.181C178.825 200.357 178.385 200.797 178.297 201.237C177.858 203.084 176.186 205.106 174.779 205.81C173.283 206.426 172.491 205.546 172.931 203.699C173.723 200.533 174.251 198.95 175.043 195.784C175.131 195.344 174.955 195.168 174.691 195.256C174.427 195.344 173.987 195.872 173.899 196.311C173.019 199.478 172.667 201.061 171.788 204.227C171.084 206.953 172.228 208.361 174.339 207.305Z" fill="#CB8600"/>
<path d="M174.867 197.543C175.658 197.191 176.538 196.047 176.802 195.08C177.066 194.025 176.626 193.585 175.834 193.937C175.043 194.288 174.163 195.432 173.899 196.399C173.635 197.367 174.075 197.894 174.867 197.543ZM175.482 195.432C175.658 195.344 175.658 195.432 175.658 195.608C175.57 195.784 175.482 195.96 175.394 196.047C175.307 196.135 175.219 196.047 175.219 195.872C175.131 195.696 175.307 195.432 175.482 195.432Z" fill="#CB8600"/>
<path d="M114.696 220.41C115.135 220.322 115.575 219.97 115.663 219.618C115.751 219.267 115.487 219.003 115.047 219.091C113.552 219.355 112.584 218.475 112.936 217.156C113.288 215.836 114.872 214.605 116.367 214.429C117.863 214.165 118.83 215.045 118.478 216.276C118.39 216.628 118.654 216.892 119.094 216.804C119.534 216.716 119.974 216.364 120.062 216.012C120.59 213.99 119.182 212.67 116.807 213.022C114.344 213.374 111.881 215.309 111.265 217.332C110.737 219.53 112.32 220.762 114.696 220.41Z" fill="#CB8600"/>
<path d="M109.681 225.599C109.769 225.599 109.769 225.599 109.769 225.511C114.52 224.456 118.39 221.642 119.182 218.739C119.534 217.596 119.71 216.892 120.062 215.749C120.15 215.397 119.886 215.133 119.446 215.221C119.006 215.309 118.566 215.661 118.478 216.013C118.126 217.244 117.95 217.86 117.599 219.003C116.983 221.114 113.728 223.489 109.857 224.28C109.417 224.368 108.978 224.72 108.978 225.072C109.066 225.423 109.329 225.687 109.681 225.599Z" fill="#CB8600"/>
<path d="M135.368 220.85C137.215 220.322 139.151 218.475 139.59 216.716C140.118 214.957 139.063 213.902 137.127 214.429C135.28 214.957 133.345 216.716 132.817 218.563C132.377 220.322 133.521 221.377 135.368 220.85ZM136.863 215.837C137.919 215.573 138.535 216.1 138.271 217.156C138.007 218.211 136.863 219.267 135.808 219.53C134.752 219.794 134.048 219.179 134.4 218.123C134.664 217.156 135.72 216.188 136.863 215.837Z" fill="#CB8600"/>
<path d="M128.419 222.521C128.77 222.433 129.21 222.081 129.298 221.729C130.618 217.332 131.146 215.045 132.465 210.472C132.553 210.032 132.289 209.856 131.937 209.944C131.497 210.032 131.146 210.384 130.97 210.823C129.738 215.397 129.034 217.596 127.803 222.081C127.803 222.433 127.979 222.609 128.419 222.521Z" fill="#CB8600"/>
<path d="M129.826 217.595C132.729 216.98 134.048 216.628 136.775 215.836C137.127 215.748 137.567 215.309 137.655 214.957C137.743 214.517 137.479 214.341 137.127 214.429C134.4 215.221 132.993 215.485 130.178 216.188C129.826 216.276 129.386 216.628 129.21 217.068C129.21 217.42 129.474 217.683 129.826 217.595Z" fill="#CB8600"/>
<path d="M138.799 217.684C139.151 217.596 139.591 217.156 139.679 216.804C140.822 212.758 138.887 208.625 138.799 208.449C138.711 208.185 138.183 208.185 137.919 208.537C137.48 208.801 137.304 209.328 137.48 209.592C137.48 209.68 139.415 213.55 138.447 217.244C138.095 217.508 138.359 217.772 138.799 217.684Z" fill="#CB8600"/>
<path d="M149.708 216.364C153.49 215.045 155.426 214.429 159.033 213.022C159.384 212.846 159.736 212.494 159.912 212.055C160 211.615 159.824 211.439 159.472 211.615C155.778 213.022 153.93 213.726 150.148 214.957C149.796 215.045 149.356 215.485 149.268 215.836C149.092 216.188 149.356 216.452 149.708 216.364Z" fill="#CB8600"/>
<path d="M154.194 211.879C156.481 211.087 158.856 208.361 159.56 205.81C160.263 203.259 158.944 201.94 156.657 202.732C154.369 203.611 151.906 206.338 151.203 208.8C150.499 211.263 151.906 212.67 154.194 211.879ZM156.217 204.139C157.8 203.611 158.68 204.491 158.24 206.25C157.8 207.921 156.129 209.856 154.545 210.471C152.962 210.999 151.994 210.12 152.522 208.361C152.962 206.602 154.633 204.755 156.217 204.139Z" fill="#CB8600"/>
<path d="M161.056 205.546C161.583 205.282 161.935 205.634 161.759 206.25C161.583 206.865 161.056 207.569 160.528 207.657C160 207.921 159.648 207.569 159.824 206.953C159.912 206.426 160.528 205.722 161.056 205.546Z" fill="#CB8600"/>
<path d="M161.847 202.468C162.374 202.204 162.726 202.556 162.55 203.172C162.374 203.787 161.847 204.403 161.319 204.667C160.791 204.931 160.439 204.579 160.615 203.963C160.791 203.348 161.407 202.732 161.847 202.468Z" fill="#CB8600"/>
<path d="M183.927 222.609C184.807 222.257 185.159 222.081 186.039 221.642C186.214 221.554 186.478 221.378 186.654 221.114C186.83 220.85 186.918 220.586 186.918 220.41C186.478 216.452 186.214 214.517 185.687 210.56C185.687 210.296 185.423 210.296 185.159 210.472C184.895 210.648 184.631 211.087 184.543 211.439C183.575 214.869 183.136 216.628 182.08 219.97C181.288 222.257 182.168 223.401 183.927 222.609ZM185.511 220.586C185.071 220.762 184.807 220.938 184.279 221.114C183.136 221.642 182.52 220.85 182.96 219.355C183.663 217.156 183.927 216.013 184.543 213.814C185.071 216.628 185.247 217.948 185.511 220.586Z" fill="#CB8600"/>
<path d="M190.085 208.361C190.525 208.185 190.789 208.449 190.613 209.152C190.437 209.768 189.909 210.384 189.47 210.648C189.03 210.824 188.766 210.56 188.942 209.944C189.206 209.24 189.646 208.537 190.085 208.361Z" fill="#CB8600"/>
<path d="M187.71 209.416C188.15 209.24 188.414 209.504 188.238 210.12C188.062 210.736 187.534 211.351 187.095 211.615C186.655 211.791 186.391 211.527 186.567 210.911C186.831 210.296 187.271 209.68 187.71 209.416Z" fill="#CB8600"/>
<path d="M165.982 229.645C166.07 229.645 166.07 229.557 166.158 229.557C170.204 227.094 172.755 224.632 173.371 222.521C173.987 220.41 172.492 219.443 168.973 219.882C168.709 219.97 168.269 220.322 168.093 220.674C167.917 221.026 168.005 221.378 168.269 221.378C171.7 220.938 172.492 221.993 172.14 223.049C171.876 224.104 170.204 226.039 166.246 228.414C165.894 228.59 165.542 229.029 165.542 229.469C165.542 229.645 165.718 229.733 165.982 229.645Z" fill="#CB8600"/>
<path d="M167.917 219.53C170.732 218.387 172.14 217.771 174.867 216.628C175.131 216.54 175.482 216.012 175.658 215.66C175.746 215.221 175.57 215.045 175.306 215.221C172.579 216.364 171.172 216.98 168.357 218.211C168.005 218.387 167.653 218.739 167.565 219.179C167.389 219.442 167.565 219.618 167.917 219.53Z" fill="#CB8600"/>
<path d="M130.706 241.079C131.058 240.991 131.498 240.639 131.586 240.287C132.817 235.977 133.433 233.867 134.752 229.557C134.84 229.205 134.576 228.941 134.225 229.029C133.873 229.117 133.433 229.469 133.345 229.821C132.113 234.13 131.498 236.329 130.266 240.551C130.09 240.991 130.354 241.167 130.706 241.079Z" fill="#CB8600"/>
<path d="M127.715 241.782C128.067 241.694 128.507 241.342 128.594 240.991C129.826 236.769 130.442 234.658 131.673 230.261C131.761 229.909 131.497 229.645 131.146 229.733C130.794 229.821 130.354 230.173 130.266 230.524C129.034 234.834 128.419 236.945 127.187 241.167C127.099 241.606 127.363 241.782 127.715 241.782Z" fill="#CB8600"/>
<path d="M126.396 234.658C127.803 234.306 128.595 234.218 129.914 233.954C130.266 233.867 130.706 233.515 130.794 233.163C130.882 232.811 130.618 232.547 130.266 232.635C128.859 232.987 128.155 233.075 126.747 233.339C126.308 233.427 125.868 233.779 125.868 234.13C125.692 234.482 125.868 234.658 126.396 234.658Z" fill="#CB8600"/>
<path d="M124.724 240.111C126.22 239.847 126.835 239.671 128.243 239.408C128.595 239.32 129.035 238.968 129.123 238.616C129.299 238.264 128.947 238 128.595 238.088C127.187 238.352 126.484 238.528 125.076 238.792C124.636 238.88 124.196 239.232 124.108 239.584C124.108 239.935 124.372 240.111 124.724 240.111Z" fill="#CB8600"/>
<path d="M151.115 235.274C151.467 235.186 151.907 234.658 152.083 234.219C153.93 227.974 151.379 224.104 146.277 225.687C145.837 225.775 145.397 226.215 145.309 226.655C145.221 227.095 145.397 227.358 145.837 227.182C150.059 225.863 152.171 229.205 150.587 234.658C150.499 235.186 150.763 235.45 151.115 235.274Z" fill="#CB8600"/>
<path d="M142.758 237.912C147.068 236.681 149.092 235.978 153.226 234.658C153.578 234.57 154.018 234.043 154.106 233.691C154.194 233.251 154.018 233.075 153.666 233.163C149.531 234.57 147.508 235.186 143.198 236.505C142.758 236.593 142.318 237.033 142.23 237.473C142.142 237.825 142.406 238 142.758 237.912Z" fill="#CB8600"/>
<path d="M145.837 227.27C150.059 225.951 152.083 225.248 156.041 223.84C156.481 223.664 156.833 223.225 157.009 222.785C157.097 222.345 156.921 222.081 156.569 222.257C152.523 223.664 150.499 224.368 146.277 225.687C145.837 225.775 145.397 226.215 145.309 226.655C145.221 227.183 145.485 227.358 145.837 227.27Z" fill="#CB8600"/>
<path d="M155.777 224.807C156.305 224.631 156.657 224.895 156.393 225.511C156.217 226.039 155.689 226.654 155.162 226.918C154.634 227.182 154.282 226.83 154.546 226.215C154.722 225.599 155.162 224.983 155.777 224.807Z" fill="#CB8600"/>
<path d="M103.171 244.861C103.347 244.861 103.611 244.773 103.787 244.685C106.866 242.662 108.713 240.111 109.065 238C109.329 236.241 108.538 234.834 106.69 234.043C106.338 233.867 105.81 234.043 105.547 234.394C105.283 234.658 105.195 235.098 105.547 235.274C107.042 235.978 107.658 237.033 107.482 238.44C107.218 240.199 105.547 242.31 102.995 244.069C102.644 244.333 102.468 244.685 102.732 244.861C102.82 244.861 102.995 244.949 103.171 244.861Z" fill="#CB8600"/>
<path d="M103.171 245.124C108.274 244.685 110.825 244.509 115.663 243.717C116.103 243.629 116.631 243.277 116.719 242.926C116.807 242.486 116.543 242.31 116.015 242.398C111.177 243.102 108.626 243.365 103.523 243.805C103.083 243.805 102.556 244.157 102.468 244.597C102.292 244.861 102.644 245.212 103.171 245.124Z" fill="#CB8600"/>
<path d="M108.097 239.847C111.616 239.496 113.376 239.232 116.806 238.704C117.246 238.616 117.774 238.264 117.862 237.912C117.95 237.473 117.686 237.297 117.158 237.385C113.727 237.912 111.968 238.176 108.449 238.528C108.009 238.528 107.482 238.968 107.306 239.32C107.306 239.584 107.658 239.847 108.097 239.847Z" fill="#CB8600"/>
<path d="M105.459 238.44C106.075 238.44 106.515 238.792 106.427 239.232C106.251 239.759 105.635 240.199 104.931 240.287C104.227 240.375 103.876 239.935 103.963 239.495C104.139 238.968 104.755 238.616 105.459 238.44Z" fill="#CB8600"/>
<path d="M116.103 240.99C116.543 240.903 116.983 240.551 117.071 240.199C117.159 239.847 116.895 239.583 116.455 239.671C115.312 239.847 114.608 239.231 114.872 238.264C115.136 237.297 116.279 236.417 117.423 236.241C117.863 236.153 118.303 235.801 118.391 235.45C118.479 235.098 118.215 234.834 117.775 234.922C115.84 235.274 113.728 236.769 113.288 238.44C112.937 240.111 114.168 241.254 116.103 240.99Z" fill="#CB8600"/>
<path d="M173.195 245.74C173.371 245.652 173.547 245.564 173.635 245.388C176.01 242.486 177.241 241.079 179.529 238.088C179.88 237.736 179.968 237.297 179.792 237.121C179.617 236.945 179.265 237.121 179.001 237.473C176.626 240.375 175.482 241.87 173.107 244.773C172.755 245.124 172.667 245.564 172.843 245.74C172.931 245.828 173.019 245.828 173.195 245.74Z" fill="#CB8600"/>
<path d="M181.113 242.398C181.201 242.398 181.289 242.31 181.289 242.222C181.553 242.046 181.729 241.694 181.817 241.431C183.4 236.945 184.192 234.658 185.687 230.085C185.775 229.645 185.687 229.469 185.335 229.645C182.168 231.052 180.497 231.756 177.154 233.251C176.978 233.339 176.714 233.603 176.538 233.867C176.362 234.219 176.274 234.482 176.45 234.57C178.298 237.649 179.265 239.232 180.761 242.31C180.849 242.398 180.937 242.398 181.113 242.398ZM184.456 231.316C183.312 234.922 182.696 236.681 181.465 240.111C180.233 237.649 179.529 236.417 178.122 234.043C180.673 232.987 181.992 232.459 184.456 231.316Z" fill="#CB8600"/>
<path d="M147.157 255.327C147.244 255.327 147.332 255.239 147.42 255.239C147.772 254.975 148.036 254.535 147.948 254.271C147.244 250.577 146.893 248.73 146.101 245.036C146.101 244.86 145.837 244.772 145.661 244.772C145.397 244.86 145.133 245.036 144.957 245.3C141.614 250.138 139.943 252.6 136.688 257.35C136.424 257.701 136.424 258.053 136.688 258.141C136.952 258.229 137.392 257.965 137.656 257.613C140.647 253.48 142.142 251.281 144.957 246.971C145.661 250.225 146.013 251.897 146.629 255.151C146.805 255.327 146.893 255.327 147.157 255.327Z" fill="#CB8600"/>
<path d="M142.142 256.822C143.989 256.294 146.012 254.271 146.628 252.336C147.244 250.401 146.188 249.346 144.253 249.874C142.405 250.401 140.382 252.424 139.678 254.271C139.151 256.118 140.206 257.262 142.142 256.822ZM143.813 251.105C144.957 250.753 145.66 251.457 145.308 252.688C144.957 253.919 143.637 255.151 142.493 255.503C141.35 255.854 140.646 255.151 140.998 253.919C141.35 252.688 142.669 251.457 143.813 251.105Z" fill="#CB8600"/>
<path d="M129.034 259.373C129.21 259.373 129.298 259.285 129.474 259.197C129.826 258.933 130.002 258.493 129.914 258.317C127.979 255.327 127.011 253.832 124.988 250.841C124.812 250.578 124.372 250.578 124.02 250.929C123.668 251.193 123.492 251.633 123.58 251.809C125.691 254.799 126.659 256.382 128.506 259.285C128.682 259.373 128.77 259.373 129.034 259.373Z" fill="#CB8600"/>
<path d="M122.876 256.03C125.076 255.591 126.219 255.415 128.418 254.975C128.77 254.887 129.21 254.535 129.298 254.183C129.386 253.832 129.21 253.656 128.77 253.656C126.571 254.096 125.515 254.359 123.228 254.711C122.788 254.799 122.437 255.151 122.349 255.415C122.173 255.855 122.524 256.118 122.876 256.03Z" fill="#CB8600"/>
<path d="M121.469 260.78C124.548 260.252 126.043 259.9 129.034 259.285C129.386 259.197 129.826 258.845 129.914 258.493C130.002 258.141 129.826 257.965 129.386 257.965C126.395 258.581 124.9 258.845 121.821 259.461C121.381 259.548 121.029 259.9 120.941 260.164C120.853 260.692 121.029 260.868 121.469 260.78Z" fill="#CB8600"/>
<path d="M165.893 248.906C165.981 248.906 165.981 248.906 165.981 248.818C166.333 248.642 166.597 248.203 166.685 247.851C167.477 243.629 167.917 241.518 168.708 237.297C168.796 236.945 168.532 236.857 168.269 237.033C167.917 237.209 167.653 237.648 167.565 238C166.773 242.222 166.421 244.333 165.629 248.554C165.453 248.906 165.629 249.082 165.893 248.906Z" fill="#CB8600"/>
<path d="M162.287 250.402C162.639 250.226 162.99 250.05 163.342 249.698C164.75 248.379 164.838 246.884 164.926 245.652C164.926 244.861 164.926 243.893 165.454 243.453C165.893 243.014 166.333 243.102 166.509 243.277C166.597 243.365 166.597 243.717 166.597 243.805C166.509 244.157 166.773 244.245 167.037 244.157C167.389 243.981 167.653 243.541 167.741 243.19C167.741 243.102 167.917 242.398 167.653 242.046C167.213 241.431 166.157 241.606 165.102 242.75C163.87 244.069 163.87 245.3 163.87 246.532C163.87 247.587 163.782 248.379 163.342 248.73C163.078 248.994 162.903 249.082 162.727 249.082C162.023 249.082 161.759 247.675 161.759 247.235C161.759 246.971 161.407 246.884 161.143 247.147C160.791 247.411 160.527 247.851 160.527 248.115C160.527 248.379 160.703 250.49 162.023 250.49C161.935 250.49 162.111 250.49 162.287 250.402Z" fill="#CB8600"/>
<path d="M159.56 249.082C160.792 248.642 162.111 247.235 162.463 245.828C162.903 244.509 162.287 243.717 161.055 244.157C159.824 244.597 158.504 246.004 158.152 247.411C157.713 248.906 158.328 249.61 159.56 249.082ZM160.704 245.564C161.231 245.388 161.583 245.652 161.319 246.356C161.143 246.971 160.528 247.675 160 247.851C159.472 248.027 159.12 247.763 159.384 247.059C159.56 246.444 160.088 245.74 160.704 245.564Z" fill="#CB8600"/>
<path d="M165.102 238.352C165.542 238.176 165.806 238.44 165.63 239.056C165.454 239.584 164.926 240.199 164.398 240.463C163.959 240.639 163.695 240.375 163.871 239.76C164.046 239.232 164.574 238.616 165.102 238.352Z" fill="#CB8600"/>
<path d="M105.987 263.506C106.427 263.418 106.778 263.155 106.866 262.803C106.954 262.451 106.69 262.187 106.251 262.275C102.82 262.539 100.445 260.78 100.357 259.109C100.269 258.317 100.797 257.086 103.172 256.031C104.667 255.415 107.482 255.503 108.45 255.591C108.714 255.591 109.066 255.503 109.242 255.327C109.505 255.151 109.593 254.887 109.593 254.711C109.505 253.832 109.418 253.392 109.33 252.425C109.33 252.161 108.89 251.985 108.45 252.161C108.01 252.249 107.658 252.688 107.746 252.952C107.834 253.48 107.834 253.744 107.922 254.271C106.602 254.271 104.315 254.359 102.732 254.975C100.181 256.118 98.6852 257.702 98.7732 259.461C99.0371 261.659 101.764 263.946 105.987 263.506Z" fill="#CB8600"/>
<path d="M85.4019 132.81L79.9478 154.271C79.1561 157.349 82.5869 159.46 84.3463 159.987C86.2816 160.603 90.5041 160.515 91.1199 157.613L96.486 136.329C97.1018 133.074 93.759 131.139 91.9116 130.612C90.1522 129.996 86.1057 130.172 85.4019 132.81Z" fill="#FFA800"/>
<path d="M102.82 159.284C105.107 152.6 99.565 144.596 90.2403 141.342C81.0035 138.176 71.5908 140.99 69.3036 147.674C67.0164 154.359 72.5584 162.362 81.8832 165.616C91.12 168.871 100.533 166.056 102.82 159.284Z" fill="#FFCA62"/>
<path d="M107.834 169.311C111.089 159.812 103.171 148.466 90.0641 143.893C76.9566 139.407 63.6732 143.365 60.4184 152.864C57.1635 162.362 65.0807 173.708 78.1882 178.282C91.2956 182.767 104.579 178.809 107.834 169.311Z" fill="#FFD481"/>
<path d="M64.0248 160.251L30.9483 283.911C28.2213 294.201 39.9212 301.589 46.0791 303.524C52.5888 305.635 67.0158 305.283 69.391 295.169L102.204 172.477C104.403 161.307 92.7029 154.623 86.545 152.6C80.0353 150.401 66.4 151.104 64.0248 160.251Z" fill="#FFA800"/>
<path d="M69.7432 302.205C73.9657 273.269 95.3423 201.325 103.084 177.226C104.667 172.301 102.028 165.089 95.9581 160.251C95.6942 159.987 95.2543 159.987 94.9904 160.163C92.5273 161.571 90.5919 163.681 90.5919 163.681C91.4716 161.219 91.5596 158.756 91.2077 157.173C88.8326 156.557 85.0499 154.183 80.7394 154.095C80.4755 154.095 80.1236 154.183 79.9477 154.446C79.1559 155.59 78.4522 156.469 77.2206 157.701C77.1326 156.381 77.0447 155.414 76.8687 154.271C76.7808 154.007 76.6048 153.831 76.3409 153.743C74.3176 153.655 70.7109 153.919 68.0718 155.59C67.8958 155.678 67.8079 155.854 67.8079 156.03C67.6319 156.645 67.368 157.525 67.0162 158.14C67.0162 157.789 67.0162 157.173 66.7522 156.381C65.9605 157.349 61.2102 159.108 60.1545 164.385C57.9553 175.115 44.32 238.528 27.166 288.924C30.4209 283.031 37.6344 280.481 43.0885 280.569C43.4404 280.569 43.7043 280.481 43.9682 280.217C45.3757 278.37 46.8712 276.523 48.1907 274.5C47.9268 276.699 48.0148 278.37 48.2787 280.217C48.3666 280.745 48.8065 281.184 49.2463 281.36C53.8207 282.592 59.4508 285.582 63.3214 288.572C63.4974 288.748 63.7613 288.748 63.9372 288.572C64.553 287.957 65.5207 286.901 65.7846 286.286C65.2568 287.605 65.0808 288.924 65.0808 289.892C65.0808 290.243 65.1688 290.419 65.3447 290.683C67.8958 294.025 68.8635 297.367 69.7432 302.205Z" fill="url(#paint2_linear)"/>
<path d="M70.0067 311.967C73.2616 302.468 65.3443 291.123 52.2369 286.549C39.1295 282.064 25.8461 286.022 22.5912 295.52C19.3363 305.019 27.2536 316.365 40.361 320.938C53.3805 325.512 66.6639 321.466 70.0067 311.967Z" fill="#FFD481"/>
<path d="M62.2662 312.231C64.5534 305.547 59.0113 297.543 49.6866 294.289C40.3618 291.035 31.0371 293.937 28.7499 300.622C26.4627 307.306 32.0047 315.31 41.3295 318.564C50.5663 321.818 59.891 318.916 62.2662 312.231Z" fill="#FFCA62"/>
<g opacity="0.79">
<path opacity="0.79" fill-rule="evenodd" clip-rule="evenodd" d="M48.5423 322.698L50.3897 309.241C50.3017 306.691 47.0468 305.107 44.1438 305.107C41.4168 305.107 40.2732 305.107 39.1296 307.834L37.2822 320.059C38.5138 320.587 39.7454 321.027 41.0649 321.466C43.616 322.082 46.0792 322.522 48.5423 322.698Z" fill="#FFCA62"/>
</g>
<path d="M39.2176 306.339L34.0274 324.281C33.2357 326.743 35.7868 329.294 38.4259 330.262C40.977 331.141 44.9356 330.789 45.6394 327.887L50.3018 310.121C51.0055 306.866 47.6627 304.932 45.8153 304.316C43.968 303.612 40.0093 303.788 39.2176 306.339Z" fill="#FFA800"/>
<path d="M45.6394 328.238C46.4311 325.952 44.5838 323.137 41.4169 321.994C38.25 320.85 34.9951 321.818 34.2034 324.105C33.4116 326.391 35.259 329.206 38.4259 330.349C41.5928 331.405 44.7597 330.525 45.6394 328.238Z" fill="#FFDFA0"/>
<path d="M250.081 87.5156L244.187 110.471C243.307 113.725 247.002 116.012 248.937 116.54C250.961 117.155 255.447 117.067 256.151 113.989L261.957 91.2095C262.572 87.7794 259.054 85.6686 257.118 85.0529C255.095 84.4373 250.873 84.7011 250.081 87.5156Z" fill="#FFA800"/>
<path d="M268.642 115.748C271.105 108.624 265.123 100.005 255.27 96.5746C245.418 93.1444 235.389 96.2227 232.926 103.347C230.463 110.471 236.445 119.09 246.297 122.52C256.15 125.95 266.178 122.96 268.642 115.748Z" fill="#FFCA62"/>
<path d="M274.008 126.39C277.526 116.276 268.993 104.051 255.006 99.3013C241.019 94.464 226.856 98.7736 223.337 108.888C219.819 119.002 228.352 131.228 242.339 135.977C256.326 140.902 270.489 136.593 274.008 126.39Z" fill="#FFD481"/>
<path d="M226.846 116.437L191.431 251.419C188.524 262.652 201.033 270.741 207.641 272.897C214.6 275.144 230.017 274.785 232.572 263.821L267.722 129.828C270.012 117.696 257.591 110.416 250.984 108.17C244.024 105.743 229.4 106.462 226.846 116.437Z" fill="#FFA800"/>
<path d="M233.366 268.431C237.852 237.472 260.636 160.691 268.993 134.921C270.753 129.644 267.85 121.992 261.428 116.803C261.164 116.539 260.724 116.539 260.46 116.715C257.909 118.21 255.71 120.497 255.71 120.497C256.59 117.859 256.678 115.22 256.414 113.549C253.863 112.845 249.816 110.383 245.242 110.207C244.89 110.207 244.626 110.295 244.45 110.647C243.57 111.878 242.778 112.845 241.547 114.077C241.459 112.669 241.283 111.614 241.195 110.383C241.107 110.119 240.931 109.855 240.667 109.855C238.468 109.767 234.685 110.031 231.87 111.878C231.694 111.966 231.606 112.142 231.518 112.318C231.342 113.021 230.991 113.901 230.639 114.604C230.639 114.165 230.639 113.549 230.375 112.757C229.495 113.725 224.481 115.748 223.337 121.289C221.05 132.722 206.447 200.445 188.062 254.271C191.58 248.027 199.234 245.3 205.128 245.3C205.479 245.3 205.743 245.212 206.007 244.86C207.503 242.925 209.086 240.903 210.582 238.704C210.23 241.078 210.406 242.837 210.67 244.86C210.758 245.476 211.197 245.916 211.725 246.004C216.564 247.323 222.546 250.577 226.768 253.743C226.944 253.919 227.296 253.919 227.384 253.743C228.088 253.128 229.055 251.984 229.407 251.281C228.879 252.688 228.615 254.095 228.615 255.151C228.615 255.502 228.703 255.766 228.879 256.03C231.342 259.636 232.398 263.242 233.366 268.431Z" fill="url(#paint3_linear)"/>
<path d="M233.63 278.81C237.149 268.695 228.616 256.47 214.628 251.633C200.641 246.796 186.478 251.105 182.959 261.22C179.441 271.334 187.974 283.559 201.961 288.309C215.948 293.322 230.111 289.012 233.63 278.81Z" fill="#FFD481"/>
<path d="M225.361 279.162C227.824 272.037 221.843 263.418 211.99 259.988C202.137 256.558 192.109 259.636 189.646 266.76C187.183 273.884 193.164 282.504 203.017 285.934C212.87 289.364 222.81 286.286 225.361 279.162Z" fill="#FFCA62"/>
<path d="M200.817 272.829L195.275 292.003C194.395 294.641 197.123 297.368 200.026 298.423C202.753 299.391 206.975 299.039 207.679 295.873L212.693 276.875C213.397 273.445 209.878 271.334 207.943 270.631C205.832 269.839 201.609 270.015 200.817 272.829Z" fill="#FFA800"/>
<path d="M207.591 296.136C208.47 293.673 206.447 290.683 203.104 289.452C199.762 288.22 196.243 289.188 195.363 291.65C194.483 294.113 196.507 297.103 199.849 298.335C203.192 299.566 206.711 298.599 207.591 296.136Z" fill="#FFDFA0"/>
</g>
<defs>
<linearGradient id="paint0_linear" x1="148.55" y1="0" x2="148.55" y2="402.7" gradientUnits="userSpaceOnUse">
<stop stop-color="#FFF7B1"/>
<stop offset="1" stop-color="#FFE485"/>
</linearGradient>
<linearGradient id="paint1_linear" x1="240" y1="236" x2="78.0005" y2="236" gradientUnits="userSpaceOnUse">
<stop stop-color="#FFEAC5"/>
<stop offset="1" stop-color="white"/>
</linearGradient>
<linearGradient id="paint2_linear" x1="36.353" y1="160.5" x2="104.041" y2="210.661" gradientUnits="userSpaceOnUse">
<stop stop-color="white"/>
<stop offset="1" stop-color="#FFF2DA"/>
</linearGradient>
<linearGradient id="paint3_linear" x1="197.858" y1="113.5" x2="273.637" y2="169.55" gradientUnits="userSpaceOnUse">
<stop stop-color="white"/>
<stop offset="1" stop-color="#FFF2DA"/>
</linearGradient>
<clipPath id="clip0">
<rect width="253" height="246" fill="white" transform="translate(21.7998 84.7891)"/>
</clipPath>
</defs>
</svg>
