<svg width="760" height="600" viewBox="0 0 760 600" fill="none" xmlns="http://www.w3.org/2000/svg">
<path d="M547.216 388.51C540.664 377.179 524.237 377.179 517.685 388.416L495.37 426.374C489.008 437.138 496.13 450.829 508.664 451.868L555.383 455.928C569.151 457.156 578.552 442.426 571.715 430.528L547.216 388.51Z" fill="#FF9176"/>
<path d="M577.589 406.589C579.589 405.489 580.289 402.889 579.089 400.889L568.789 383.089C567.689 381.089 565.089 380.389 563.089 381.589C561.089 382.689 560.389 385.289 561.589 387.289L571.889 405.089C572.989 407.089 575.589 407.689 577.589 406.589Z" fill="url(#paint0_linear)"/>
<path d="M544.1 173.3C544.1 117.3 502.2 72 450.5 72H340.7C289 72 247 117.3 247 173.3V373.5C247 429.5 288.9 474.8 340.6 474.8H450.4C502.1 474.8 544 429.4 544 373.5V173.3H544.1Z" fill="#628AF1"/>
<path d="M247.5 222C266.002 222 281 207.002 281 188.5C281 169.998 266.002 155 247.5 155C228.998 155 214 169.998 214 188.5C214 207.002 228.998 222 247.5 222Z" fill="#37E5D7"/>
<path d="M247.5 210C259.374 210 269 200.374 269 188.5C269 176.626 259.374 167 247.5 167C235.626 167 226 176.626 226 188.5C226 200.374 235.626 210 247.5 210Z" fill="#1DD5C6"/>
<path d="M445.474 300.363C441.723 295.488 444.69 287.55 450.808 286.902C455.404 286.416 459.968 285.845 464.498 285.189C473.063 283.979 479.666 277.223 480.597 268.993C484.624 234.291 485.059 199.341 482.07 164.333C481.422 155.453 474.159 148.278 465.192 147.477C423.782 143.528 379.583 143.352 333.391 145.924C324.145 146.546 316.619 153.598 315.638 162.546C312.175 196.926 311.764 231.518 314.42 266.142C315.093 274.663 321.829 281.621 330.399 282.935C336.521 283.853 342.609 284.673 348.662 285.392C354.783 286.119 357.542 294.144 353.634 298.91C349.68 303.732 345.793 309.242 341.998 315.461C305.166 376.475 308.999 407.5 309 468.5C325 475.283 344.116 475.87 373.062 475.283C379.862 475.145 386.991 475 394.499 475C401.014 475 407.44 475.09 413.723 475.179C443.591 475.6 470.235 475.976 487.999 466.355C487.999 418 483.803 364.5 455.499 315.46C452.3 309.919 448.951 304.88 445.474 300.363Z" fill="url(#paint1_linear)"/>
<path d="M403.201 274.972C438.935 272.168 465.501 246.369 462.508 217.393C459.514 188.416 428.271 167.291 392.537 170.282C356.803 173.086 330.237 198.885 333.23 227.862C336.223 256.838 367.467 277.963 403.201 274.972Z" fill="#CAD9FF"/>
<path d="M461.86 214.572C458.679 186.156 427.249 165.779 391.702 169.331C356.155 172.883 329.963 198.681 333.143 227.284C336.324 255.7 367.755 276.077 403.301 272.525C438.848 268.973 465.04 242.988 461.86 214.572Z" fill="url(#paint2_linear)"/>
<path d="M433.113 229.134C429.549 228.1 427.479 224.424 428.514 220.862C429.549 217.301 433.228 215.232 436.792 216.266C440.357 217.301 442.426 220.977 441.391 224.539C440.242 228.1 436.562 230.168 433.113 229.134Z" fill="#9198BF"/>
<path d="M428.513 221.665C428.858 218.333 431.848 215.921 435.297 216.265C438.631 216.61 441.046 219.597 440.701 223.044C440.356 226.376 437.367 228.788 433.917 228.444C430.583 227.984 428.168 224.997 428.513 221.665Z" fill="#3B4965"/>
<path d="M430.238 221.436C429.664 220.517 430.353 218.909 431.733 218.104C433.113 217.185 434.838 217.3 435.413 218.219C435.987 219.138 435.298 220.747 433.918 221.551C432.423 222.47 430.813 222.355 430.238 221.436Z" fill="#40578C"/>
<path d="M431.388 219.943C431.158 219.599 431.388 219.024 431.963 218.679C432.538 218.335 433.113 218.335 433.343 218.679C433.573 219.024 433.343 219.599 432.768 219.943C432.308 220.288 431.618 220.288 431.388 219.943Z" fill="#9FB1D5"/>
<path d="M434.377 222.47C435.527 221.781 436.562 220.632 436.907 219.598C437.137 219.023 437.827 218.679 438.287 219.023C439.092 220.057 439.667 221.321 439.437 222.815C439.092 225.457 436.792 227.296 434.148 227.066C432.308 226.836 430.928 225.802 430.238 224.308C430.008 223.734 430.468 223.389 431.043 223.274C432.078 223.389 433.228 223.045 434.377 222.47Z" fill="#2B3956"/>
<path d="M359.865 229.134C356.301 228.1 354.231 224.424 355.266 220.862C356.301 217.301 359.98 215.232 363.544 216.266C367.109 217.301 369.178 220.977 368.143 224.539C366.994 228.1 363.314 230.168 359.865 229.134Z" fill="#9198BF"/>
<path d="M355.265 221.665C355.61 218.333 358.6 215.921 362.049 216.265C365.383 216.61 367.798 219.597 367.453 223.044C367.108 226.376 364.119 228.788 360.669 228.444C357.335 227.984 354.92 224.997 355.265 221.665Z" fill="#3B4965"/>
<path d="M356.99 221.436C356.416 220.517 357.105 218.909 358.485 218.104C359.865 217.185 361.59 217.3 362.165 218.219C362.739 219.138 362.05 220.747 360.67 221.551C359.175 222.47 357.565 222.355 356.99 221.436Z" fill="#40578C"/>
<path d="M358.14 219.943C357.91 219.599 358.14 219.024 358.715 218.679C359.29 218.335 359.865 218.335 360.095 218.679C360.324 219.024 360.095 219.599 359.52 219.943C359.06 220.288 358.37 220.288 358.14 219.943Z" fill="#9FB1D5"/>
<path d="M361.129 222.47C362.279 221.781 363.314 220.632 363.659 219.598C363.889 219.023 364.579 218.679 365.039 219.023C365.844 220.057 366.418 221.321 366.189 222.815C365.844 225.457 363.544 227.296 360.899 227.066C359.06 226.836 357.68 225.802 356.99 224.308C356.76 223.734 357.22 223.389 357.795 223.274C358.83 223.389 359.98 223.045 361.129 222.47Z" fill="#2B3956"/>
<path d="M456.271 303.594C450.999 303.121 447.009 302.763 443.5 297.5C445.619 301.737 448.39 306.658 451.41 312.022C460.508 328.179 471.871 348.357 474.499 366C473.913 365.493 472.978 364.641 471.749 363.521C462.985 355.536 439.274 333.932 420.61 326.618C418.379 322.795 415.052 321.243 412.381 319.997C410.177 318.968 408.42 318.149 408.094 316.434C407.181 311.627 399.308 317.224 403.91 322.943C404.418 323.574 404.947 324.164 405.483 324.714C404.793 324.917 404.13 325.178 403.498 325.5C384 329.5 380.5 348.5 403.498 342.5C410.684 345.737 421.173 357.221 432.574 369.703C444.443 382.698 457.3 396.775 468.446 403.754C491.999 418.5 510.116 408.5 507.499 379C506.631 369.221 500.216 330.819 484.5 316.5C471.869 304.992 463.019 304.198 456.271 303.594Z" fill="url(#paint3_linear)"/>
<path d="M353.5 299C348.5 304.5 332.5 300.5 315.5 315C298.5 329.5 292.119 369.221 291.252 379C288.634 408.5 306.752 418.5 330.304 403.754C352.157 390.071 383.333 382.608 398 376C410.5 370.368 410.5 366 398 359C379.244 349.426 330.504 360.589 324.252 366C327.752 342.5 345 316 353.5 299Z" fill="url(#paint4_linear)"/>
<path d="M385.54 377.269C383.283 374.2 376.595 378.109 370 373.397L375.157 367.17C376.118 367.217 381.324 367.329 386.478 369.798C392.92 372.883 388.361 381.105 385.54 377.269Z" fill="url(#paint5_linear)"/>
<path d="M398.994 339.898L395.443 340.435C391.587 340.983 388.417 345.991 388.076 352.727C387.663 360.491 391.108 367.631 395.822 368.65C396.426 368.782 397.071 368.798 397.682 368.701L401.234 368.164C400.622 368.26 400.016 368.205 399.374 368.113C394.659 367.094 391.214 359.953 391.628 352.189C391.969 345.453 395.099 340.485 398.994 339.898Z" fill="#628AF1"/>
<path d="M408.562 355.912C408.976 348.148 405.531 341.007 400.816 339.988C396.102 338.969 391.967 344.427 391.59 352.228C391.177 359.993 394.621 367.133 399.336 368.152C404.051 369.171 408.149 363.676 408.562 355.912Z" fill="#B7C5FF"/>
<path d="M405.517 355.21C405.755 350.334 403.378 344.791 400.411 344.19C397.483 343.551 395.102 348.001 394.864 352.877C394.626 357.753 397.02 363.353 399.949 363.992C402.913 364.667 405.279 360.086 405.517 355.21Z" fill="#AABBFF"/>
<defs>
<linearGradient id="paint0_linear" x1="574.625" y1="390.71" x2="567.773" y2="396.116" gradientUnits="userSpaceOnUse">
<stop stop-color="#FFF384"/>
<stop offset="1" stop-color="#FFE485"/>
</linearGradient>
<linearGradient id="paint1_linear" x1="396.061" y1="144.141" x2="396.061" y2="475.479" gradientUnits="userSpaceOnUse">
<stop stop-color="white"/>
<stop offset="0.494792" stop-color="#E8EAF8"/>
<stop offset="0.671875" stop-color="#E3E5F7"/>
<stop offset="1" stop-color="#B1B7E9"/>
</linearGradient>
<linearGradient id="paint2_linear" x1="398.176" y1="169" x2="398.176" y2="273" gradientUnits="userSpaceOnUse">
<stop stop-color="#EAECFF"/>
<stop offset="1" stop-color="#BCC2F4"/>
</linearGradient>
<linearGradient id="paint3_linear" x1="492.499" y1="320" x2="387.999" y2="320" gradientUnits="userSpaceOnUse">
<stop stop-color="#E0E2F6"/>
<stop offset="1" stop-color="white"/>
</linearGradient>
<linearGradient id="paint4_linear" x1="306.252" y1="320" x2="410.752" y2="320" gradientUnits="userSpaceOnUse">
<stop stop-color="#E0E2F6"/>
<stop offset="0.26131" stop-color="#E6E8F8"/>
<stop offset="1" stop-color="white"/>
</linearGradient>
<linearGradient id="paint5_linear" x1="387.411" y1="379.052" x2="374.305" y2="368.199" gradientUnits="userSpaceOnUse">
<stop stop-color="white"/>
<stop offset="0.713542" stop-color="white"/>
<stop offset="1" stop-color="white" stop-opacity="0"/>
</linearGradient>
</defs>
</svg>
