<svg width="670" height="720" viewBox="0 0 670 720" fill="none" xmlns="http://www.w3.org/2000/svg">
<path d="M406 177C428.091 177 446 194.909 446 217L446 482C446 504.091 428.091 522 406 522L280 522C257.909 522 240 504.091 240 482L240 217C240 194.909 257.909 177 280 177L406 177Z" fill="url(#paint0_linear)"/>
<mask id="mask0" mask-type="alpha" maskUnits="userSpaceOnUse" x="240" y="177" width="205" height="345">
<path d="M405 177C427.091 177 445 194.909 445 217L445 482C445 504.091 427.091 522 405 522L280 522C257.909 522 240 504.091 240 482L240 217C240 194.909 257.909 177 280 177L405 177Z" fill="white"/>
</mask>
<g mask="url(#mask0)">
<rect width="110.424" height="120.332" rx="14" transform="matrix(-0.521642 0.853164 -0.877997 -0.478665 451.254 325.578)" fill="white" fill-opacity="0.1"/>
<rect width="100.59" height="103.513" rx="16" transform="matrix(-0.521642 0.853164 -0.877997 -0.478665 497.988 207.459)" fill="white" fill-opacity="0.1"/>
<rect width="126.486" height="130.162" rx="16" transform="matrix(-0.521642 0.853164 -0.877997 -0.478665 326.516 250.895)" fill="white" fill-opacity="0.1"/>
<rect width="72.3379" height="74.44" rx="16" transform="matrix(-0.521642 0.853164 -0.877997 -0.478665 375.113 164.168)" fill="white" fill-opacity="0.1"/>
<g filter="url(#filter0_f)">
<path d="M198.815 358.716L192.179 363.966C188.322 361.426 184.097 360.007 180.239 359.918C172.938 357.226 165.551 357.331 160.231 360.857C156.965 363.02 154.902 366.192 154.019 369.912C153.503 370.224 152.995 370.589 152.505 371.015C143.302 379.095 88.1031 426.364 37.7921 459.998C39.0866 459.432 40.4411 459.04 41.8242 458.797L41.7397 458.853C40.4966 459.102 39.3096 459.485 38.198 460.007C34.7016 460.111 31.4568 461.019 28.748 462.814C20.4238 468.33 19.9124 480.395 26.8489 491.403L21.7934 495.131C20.4736 496.029 20.1452 497.592 20.4683 499.234C20.6704 500.498 21.2921 501.851 22.3275 503.089C24.8062 506.053 28.7173 507.238 31.063 505.736C31.4211 505.506 31.7221 505.228 31.9662 504.909L36.1444 501.649C46.1098 509.463 58.57 511.77 66.471 506.534C69.6556 504.424 71.6967 501.355 72.6148 497.754C73.4417 496.942 74.3259 496.096 75.2631 495.218C76.9575 496.268 78.657 497.326 80.3623 498.387L80.3734 498.394L80.3744 498.395L80.4163 498.421L80.4197 498.423C97.7881 509.234 115.755 520.417 134.892 527.786C136.894 526.933 138.286 526.35 139.793 525.72L139.796 525.719L139.808 525.713C140.774 525.309 141.789 524.884 143.043 524.356C143.42 524.182 143.754 524.243 143.711 524.478C142.298 526.164 141.777 528.256 141.935 530.411C160.014 535.999 177.857 539.887 196.541 542.421C195.722 547.892 197.276 554.349 201.138 560.478L196.082 564.206C194.763 565.104 194.434 566.667 194.757 568.308C194.959 569.573 195.581 570.926 196.616 572.164C199.095 575.128 203.006 576.313 205.352 574.811C205.71 574.581 206.011 574.303 206.255 573.984L210.433 570.724C220.399 578.538 232.859 580.845 240.76 575.609C243.945 573.499 245.986 570.43 246.904 566.829C270.16 543.997 338.603 494.083 362.2 477.722C362.751 477.341 363.264 476.902 363.736 476.411C366.872 476.183 369.779 475.284 372.243 473.651C378.253 469.668 380.19 462.271 378.191 454.323C378.698 450.833 377.841 446.781 375.653 442.847L382.12 437.71C384.825 435.216 382.7 431.43 381.191 429.858C379.745 428.195 375.532 425.908 373.104 427.791L366.468 433.041C362.611 430.501 358.386 429.082 354.528 428.993C347.227 426.301 339.84 426.406 334.519 429.932C331.254 432.095 329.191 435.267 328.308 438.987C327.791 439.299 327.284 439.664 326.794 440.09C326.497 440.351 326.152 440.653 325.761 440.994C316.665 439.674 307.509 438.688 298.353 437.702C282.167 435.959 265.981 434.216 250.132 430.631C245.938 432.051 243.74 432.743 239.29 434.055C239.001 434.124 238.678 434.004 238.844 433.852C239.66 433.012 240.311 432.354 240.929 431.728C241.791 430.856 242.589 430.049 243.683 428.905C242.709 428.626 241.891 428.396 241.119 428.179L241.118 428.178C239.553 427.738 238.179 427.352 236.076 426.723C233.232 427.175 231.677 427.376 228.71 427.745C228.288 427.789 227.831 427.645 227.874 427.409L228.434 424.352C214.959 419.978 202.2 415.237 189.653 409.488L189.334 409.311L187.889 408.662L187.911 408.647C188.462 408.266 188.975 407.827 189.447 407.336C192.583 407.108 195.49 406.209 197.954 404.576C203.964 400.593 205.901 393.196 203.903 385.248C204.409 381.758 203.552 377.706 201.364 373.772L207.831 368.635C210.536 366.141 208.411 362.355 206.902 360.783C205.456 359.12 201.243 356.833 198.815 358.716Z" fill="#395590" fill-opacity="0.34"/>
</g>
</g>
<path d="M153.802 485.739C153.802 485.739 194.908 500.963 228.317 502.739C250.307 503.923 274.92 501.302 295.557 489.883C313.573 479.903 355.186 455.629 366.519 448.947C373.455 444.887 377.938 440.743 377.938 435.33C377.938 431.862 377.938 430.255 377.938 424.673C377.938 404.966 286.592 358.024 264.094 352.273C241.596 346.521 226.794 348.721 214.023 356.079C201.251 363.437 123.016 410.633 123.016 425.518C123.016 430.001 123.016 433.215 123.016 437.444C123.016 440.658 123.692 443.957 125.046 447.34C133.081 466.878 153.802 485.739 153.802 485.739Z" fill="#C3D0E4"/>
<path d="M228.371 491.507L228.37 491.507C211.775 490.625 193.229 486.397 178.8 482.376C171.593 480.367 165.427 478.414 161.063 476.963C158.882 476.237 157.151 475.638 155.967 475.22C155.375 475.011 154.92 474.847 154.613 474.736C154.498 474.695 154.405 474.661 154.332 474.634C154.306 474.611 154.278 474.584 154.245 474.554C154.094 474.415 153.869 474.206 153.58 473.933C153.001 473.387 152.164 472.583 151.134 471.556C149.072 469.503 146.24 466.56 143.162 463.009C136.991 455.891 129.886 446.39 125.973 436.731C122.15 427.296 124.28 418.565 128.978 411.158C133.692 403.725 140.96 397.69 147.223 393.807C156.395 388.182 181.756 373.533 199.925 363.039C206.871 359.027 212.766 355.622 216.303 353.56C222.622 349.878 228.15 347.559 234.831 346.839C241.533 346.118 249.478 346.997 260.632 349.859C271.71 352.701 293.904 362.566 316.103 374.812C338.312 387.063 360.315 401.584 371.102 413.667L371.104 413.668C376.48 419.67 377.69 424.061 376.572 427.619C375.417 431.294 371.676 434.512 366.012 437.852C354.678 444.534 313.076 468.802 295.073 478.775C274.664 490.067 250.264 492.686 228.371 491.507Z" fill="url(#paint1_linear)" stroke="url(#paint2_radial)" stroke-width="2"/>
<path d="M161.921 470.767L161.25 471.508L161.393 471.638L161.574 471.705L161.921 470.767ZM161.921 470.767C161.25 471.508 161.25 471.508 161.249 471.507L161.248 471.507L161.245 471.504L161.234 471.494L161.191 471.455C161.154 471.42 161.099 471.37 161.027 471.304C160.884 471.171 160.674 470.975 160.405 470.72C159.867 470.21 159.092 469.463 158.139 468.511C156.235 466.608 153.62 463.884 150.773 460.595C145.092 454.033 138.433 445.161 134.692 436.046C130.854 426.694 133.132 418.14 137.785 411.085C142.419 404.058 149.443 398.447 155.304 394.811L155.309 394.808C162.745 390.249 180.981 379.871 196.198 371.211C204.709 366.367 212.276 362.061 216.479 359.612C222.411 356.155 227.848 353.695 234.439 352.792C241.02 351.891 248.665 352.553 259.012 355.193C269.42 357.849 289.685 366.931 309.797 378.114C329.901 389.292 350.057 402.681 360.159 414.024C365.215 419.68 366.828 424.235 365.378 428.305C364.671 430.29 363.272 432.031 361.442 433.64C359.611 435.249 357.295 436.772 354.675 438.306C344.275 444.393 306.119 466.645 289.613 475.786L289.613 475.786C270.443 486.398 250.357 488.518 230.122 487.413L230.121 487.413C214.747 486.561 197.601 482.626 184.33 478.919C177.688 477.064 172.003 475.262 167.977 473.923C165.964 473.253 164.365 472.7 163.269 472.313C162.721 472.12 162.298 471.968 162.012 471.864C161.92 471.831 161.842 471.803 161.778 471.779C161.743 471.767 161.713 471.756 161.687 471.746L161.603 471.716L161.582 471.708L161.576 471.706L161.575 471.705C161.575 471.705 161.574 471.705 161.921 470.767Z" fill="url(#paint3_linear)" stroke="url(#paint4_radial)" stroke-width="2"/>
<path d="M161.924 470.768L313.997 381.621C292.43 369.188 269.762 358.954 258.683 356.078C238.13 350.834 228.657 353.541 216.9 360.392C205.144 367.242 167.337 388.472 155.75 395.577C144.162 402.766 128.177 417.652 135.535 435.583C142.894 453.513 161.924 470.768 161.924 470.768Z" fill="#0C7ADF" fill-opacity="0.3"/>
<path d="M310.051 370.396C306.305 374.227 301.77 378.762 297.586 382.946C292.609 387.924 288.127 392.405 286.059 394.616C285.628 396.033 285.907 397.043 287.406 397.616C301.644 403.02 312.927 397.895 316.766 395.84C317.759 395.269 318.073 394.371 317.717 393.293C317.909 390.671 318.229 386.604 318.572 382.239C318.751 379.966 318.937 377.611 319.114 375.339C316.092 373.647 313.062 371.996 310.051 370.396Z" fill="#2D3963" fill-opacity="0.3"/>
<path d="M302.052 346.857C302.232 347.433 314.886 384.884 317.719 393.294C318.075 394.373 317.76 395.271 316.767 395.841C312.929 397.896 301.646 403.022 287.407 397.618C285.908 397.045 285.63 396.035 286.06 394.618C288.882 385.146 299.537 348.982 300.153 346.967C300.898 344.652 301.868 346.208 302.052 346.857Z" fill="url(#paint5_linear)"/>
<path d="M190.338 302.694C194.617 308.253 199.134 311.034 203.22 312.4C206.448 313.479 209.356 313.653 211.51 313.679V367.129C211.493 367.128 211.476 367.127 211.459 367.126C210.431 367.072 208.924 366.963 207.034 366.748C203.252 366.318 197.94 365.462 191.846 363.758C179.648 360.349 164.386 353.568 151.946 340.091C139.523 326.633 136.346 313.052 138.228 302.519C140.12 291.923 147.091 284.403 155.131 282.694C163.386 280.939 170.089 283.248 175.788 287.33C181.547 291.455 186.224 297.35 190.338 302.694Z" fill="url(#paint6_linear)" stroke="url(#paint7_linear)" stroke-width="3" stroke-miterlimit="10"/>
<path fill-rule="evenodd" clip-rule="evenodd" d="M172.006 340.923C184.949 336.965 191.508 320.895 186.657 305.03C183.736 295.478 177.345 288.178 169.896 284.744C171.827 285.58 173.65 286.651 175.384 287.893C181.047 291.95 185.668 297.765 189.788 303.116C194.149 308.781 198.779 311.646 202.999 313.057C205.988 314.056 208.71 314.3 210.815 314.358V366.392C209.855 366.33 208.605 366.228 207.112 366.058C203.359 365.631 198.084 364.781 192.032 363.089C179.913 359.702 164.781 352.973 152.455 339.62C149.57 336.494 147.192 333.366 145.266 330.276C151.985 339.303 162.403 343.859 172.006 340.923Z" fill="url(#paint8_linear)"/>
<path d="M190.338 302.694C194.617 308.253 199.134 311.034 203.22 312.4C206.448 313.479 209.356 313.653 211.51 313.679V367.129C211.493 367.128 211.476 367.127 211.459 367.126C210.431 367.072 208.924 366.963 207.034 366.748C203.252 366.318 197.94 365.462 191.846 363.758C179.648 360.349 164.386 353.568 151.946 340.091C139.523 326.633 136.346 313.052 138.228 302.519C140.12 291.923 147.091 284.403 155.131 282.694C163.386 280.939 170.089 283.248 175.788 287.33C181.547 291.455 186.224 297.35 190.338 302.694Z" stroke="url(#paint9_radial)" stroke-width="3" stroke-miterlimit="10"/>
<path opacity="0.35" d="M167.253 313.873C168.437 315.396 168.352 317.849 167.168 319.456C165.984 321.063 164.039 321.147 162.939 319.709C161.755 318.187 160.233 312.689 161.417 311.082C162.516 309.475 166.068 312.435 167.253 313.873Z" fill="#2B3760"/>
<path d="M146.273 319.309C146.575 321.201 148.392 322.563 150.283 322.26C152.175 321.957 153.537 320.141 153.235 318.249C152.932 316.357 151.116 314.995 149.224 315.298C147.332 315.525 145.97 317.341 146.273 319.309Z" fill="#2397AA"/>
<path d="M146.721 318.536C147.052 320.44 148.79 321.764 150.776 321.516C152.68 321.185 154.004 319.447 153.756 317.46C153.425 315.557 151.687 314.233 149.701 314.481C147.797 314.812 146.473 316.633 146.721 318.536Z" fill="#2B3760"/>
<path d="M149.699 315.722C149.368 316.301 149.782 317.129 150.692 317.625C151.52 318.122 152.513 318.039 152.844 317.46C153.175 316.881 152.761 316.053 151.851 315.557C150.941 315.06 150.03 315.143 149.699 315.722Z" fill="#364D98"/>
<path d="M150.857 315.886C150.774 316.051 150.94 316.382 151.271 316.631C151.602 316.796 151.933 316.796 152.098 316.631C152.181 316.382 152.016 316.134 151.685 315.886C151.354 315.72 150.94 315.72 150.857 315.886Z" fill="#C3D8F8"/>
<path d="M151.849 318.537C152.345 318.62 152.842 319.034 152.594 319.53C152.18 320.192 151.518 320.689 150.69 320.771C149.201 321.02 147.711 319.944 147.545 318.454C147.463 317.792 147.545 317.213 147.877 316.716C148.125 316.22 148.87 316.551 149.201 317.047C149.449 317.461 149.945 317.875 150.442 318.123C150.856 318.372 151.352 318.537 151.849 318.537Z" fill="#1B244A"/>
<path d="M162.546 300.616C162.85 302.514 164.672 303.88 166.569 303.577C168.467 303.273 169.833 301.451 169.53 299.553C169.226 297.656 167.404 296.289 165.507 296.593C163.609 296.821 162.243 298.643 162.546 300.616Z" fill="#2397AA"/>
<path d="M163.049 299.97C163.38 301.873 165.118 303.197 167.105 302.949C169.008 302.618 170.332 300.88 170.084 298.894C169.753 296.991 168.015 295.666 166.029 295.915C164.125 296.246 162.801 298.066 163.049 299.97Z" fill="#2B3760"/>
<path d="M166.027 297.156C165.696 297.735 166.11 298.563 167.02 299.059C167.848 299.556 168.841 299.473 169.172 298.894C169.503 298.314 169.089 297.487 168.179 296.99C167.269 296.494 166.358 296.576 166.027 297.156Z" fill="#364D98"/>
<path d="M167.185 297.321C167.102 297.487 167.268 297.818 167.599 298.066C167.93 298.232 168.261 298.232 168.427 298.066C168.509 297.818 168.344 297.57 168.013 297.321C167.682 297.156 167.268 297.156 167.185 297.321Z" fill="#C3D8F8"/>
<path d="M168.181 299.971C168.677 300.053 169.174 300.467 168.926 300.964C168.512 301.626 167.85 302.122 167.022 302.205C165.533 302.453 164.043 301.378 163.878 299.888C163.795 299.226 163.878 298.646 164.209 298.15C164.457 297.653 165.202 297.984 165.533 298.481C165.781 298.895 166.278 299.309 166.774 299.557C167.188 299.805 167.684 299.971 168.181 299.971Z" fill="#1B244A"/>
<path d="M168.519 312.774C170.042 313.874 170.38 316.073 169.281 317.595C168.181 319.118 165.982 319.456 164.46 318.356C162.937 317.257 160.231 312.689 161.33 311.167C162.43 309.56 166.997 311.59 168.519 312.774Z" fill="#FFE37A"/>
<path d="M296.15 303.979L295.812 419.852L241.766 451.231L242.104 335.442L296.15 303.979Z" fill="url(#paint10_linear)"/>
<path d="M295.05 420.529L274.667 432.201L265.109 426.703L285.493 415.031L295.05 420.529Z" fill="#EBEFF8"/>
<path d="M242.106 335.442L241.767 451.231L187.383 419.852L187.721 303.979L242.106 335.442Z" fill="url(#paint11_linear)"/>
<path d="M262.488 381.85C262.488 411.876 262.488 420.757 262.488 420.757L282.872 408.831C282.872 408.831 282.872 390.731 282.872 373.984C282.872 357.238 262.488 359.695 262.488 381.85Z" fill="url(#paint12_linear)"/>
<path fill-rule="evenodd" clip-rule="evenodd" d="M281.534 409.614L282.872 408.831V373.984C282.872 363.15 274.34 360.354 268.316 365.728C274.188 361.833 281.534 364.966 281.534 375.019V409.614Z" fill="#131F37"/>
<path d="M209.288 398.661C209.396 399.199 217.249 434.289 219.005 442.169C219.224 443.179 218.871 443.966 217.953 444.398C214.414 445.93 204.092 449.603 192.089 443.462C190.826 442.813 190.669 441.872 191.168 440.623C194.456 432.271 206.902 400.371 207.615 398.596C208.467 396.559 209.182 398.056 209.288 398.661Z" fill="#2D3963" fill-opacity="0.3"/>
<path d="M204.342 399.401C204.511 399.993 215.168 434.586 217.282 442.367C217.536 443.382 217.198 444.228 216.267 444.566C205.949 448.457 197.829 447.78 190.471 443.297C188.948 442.367 188.441 441.86 188.948 440.422C192.078 431.626 201.889 401.092 202.565 399.316C203.411 397.371 204.172 398.809 204.342 399.401Z" fill="url(#paint13_linear)"/>
<path d="M225.687 389.636C225.846 390.429 237.424 442.161 240.013 453.777C240.335 455.266 239.815 456.427 238.461 457.064C233.244 459.323 218.027 464.737 200.331 455.685C198.469 454.727 198.238 453.34 198.974 451.498C203.82 439.185 222.17 392.157 223.221 389.54C224.477 386.537 225.531 388.744 225.687 389.636Z" fill="#2D3963" fill-opacity="0.3"/>
<path d="M218.787 391.289C219.029 392.063 236.038 442.407 239.846 453.713C240.325 455.163 239.902 456.37 238.567 457.137C233.407 459.899 218.24 466.789 199.1 459.525C197.085 458.755 196.71 457.398 197.289 455.492C201.083 442.76 215.406 394.145 216.234 391.437C217.235 388.325 218.539 390.417 218.787 391.289Z" fill="url(#paint14_linear)"/>
<path d="M292.429 414.353L272.046 426.025L262.488 420.443L262.497 397.078L292.429 414.353Z" fill="url(#paint15_linear)"/>
<path d="M298.182 427.041L277.798 438.713L268.156 433.131L288.54 421.459L298.182 427.041Z" fill="#EBEFF8"/>
<path d="M292.429 414.354V419.005L271.961 430.677L272.046 426.025L292.429 414.354Z" fill="#A6B0C9"/>
<path d="M295.052 420.529V425.181L274.668 436.853V432.201L295.052 420.529Z" fill="#A6B0C9"/>
<path d="M300.804 433.216L280.421 444.888L270.863 439.306L291.162 427.719L300.804 433.216Z" fill="#EBEFF8"/>
<path d="M298.179 427.041V431.693L277.711 443.365L277.796 438.713L298.179 427.041Z" fill="#A6B0C9"/>
<path d="M300.804 433.215V437.867L280.336 449.539L280.421 444.887L300.804 433.215Z" fill="#A6B0C9"/>
<path d="M302.465 260.914L241.585 225.744L181.039 260.914L241.919 296.084L302.465 260.914Z" fill="#CBD1E2"/>
<path d="M225.738 222.811V235.017L241.724 244.236V232.03L225.738 222.811Z" fill="#516B97"/>
<path d="M271.035 248.047L271.035 260.269L287.021 269.488L287.021 257.266L271.035 248.047Z" fill="#516B97"/>
<path d="M213.007 248.287V260.56L197.141 269.779V257.485L213.007 248.287Z" fill="#B7C2D9"/>
<path d="M257.537 222.812L257.589 235.052L241.723 244.234V232.01L257.537 222.812Z" fill="#B7C2D9"/>
<path d="M213.01 248.287L197.109 239.152L181.293 248.287L197.194 257.506L213.01 248.287Z" fill="#E1E8F5"/>
<path d="M257.543 222.81L241.602 213.676L225.746 222.81L241.687 232.029L257.543 222.81Z" fill="#E1E8F5"/>
<path d="M302.836 248.047L286.895 238.912L271.039 248.047L286.98 257.266L302.836 248.047Z" fill="#E1E8F5"/>
<path d="M257.959 274.344L242.143 283.479L226.242 274.344L242.059 265.125L257.959 274.344Z" fill="#E1E8F5"/>
<path fill-rule="evenodd" clip-rule="evenodd" d="M181.292 248.287L181.207 307.154L187.763 310.955V310.964L192.187 313.521L197.108 316.373V316.364L226.156 333.15L226.156 333.21L242.057 342.345L242.057 342.339L242.063 342.343L242.147 295.739L242.124 295.726L242.141 283.477L226.241 274.343L226.223 286.551L197.17 269.788L197.193 257.506L181.292 248.287Z" fill="url(#paint16_linear)"/>
<path fill-rule="evenodd" clip-rule="evenodd" d="M302.865 248.031L302.949 306.898L296.394 310.699V310.709L291.282 313.663L287.048 316.118V316.109L258 332.896L258 332.955L242.099 342.09L242.099 342.085L242.094 342.088L242.009 295.485L242.032 295.471L242.015 283.222L257.916 274.088L257.933 286.297L286.986 269.534L286.964 257.25L302.865 248.031Z" fill="#B7C2D9"/>
<path d="M271.34 297.145C271.34 311.534 271.34 315.79 271.34 315.79L281.108 310.075C281.108 310.075 281.108 301.401 281.108 293.376C281.108 285.35 271.34 286.528 271.34 297.145Z" fill="url(#paint17_linear)"/>
<path fill-rule="evenodd" clip-rule="evenodd" d="M280.468 310.45L281.109 310.075V293.376C281.109 288.183 277.02 286.844 274.133 289.42C276.947 287.553 280.468 289.054 280.468 293.872V310.45Z" fill="#131F37"/>
<path d="M212.059 297.145C212.059 311.534 212.059 315.79 212.059 315.79L202.29 310.075C202.29 310.075 202.29 301.401 202.29 293.376C202.29 285.35 212.059 286.528 212.059 297.145Z" fill="url(#paint18_linear)"/>
<path fill-rule="evenodd" clip-rule="evenodd" d="M202.931 310.45L202.29 310.075V293.376C202.29 288.183 206.379 286.844 209.266 289.42C206.451 287.553 202.931 289.054 202.931 293.872V310.45Z" fill="#131F37"/>
<path d="M280.419 444.887L277.713 443.364L277.797 438.712L274.668 436.852V432.2L272.046 430.677V426.026L262.488 420.443V439.135L271.961 444.718L280.335 449.539L280.419 444.887Z" fill="url(#paint19_linear)"/>
<g opacity="0.16" filter="url(#filter1_f)">
<path d="M345.273 421.881C352.572 405.252 334.294 398.241 320.411 425.69C317.371 434.406 319.654 443.779 334.126 438.054C348.597 432.33 347.158 426.182 345.3 425.367C343.443 424.553 344.641 423.355 345.273 421.881Z" fill="url(#paint20_linear)"/>
</g>
<g opacity="0.76" filter="url(#filter2_f)">
<path d="M336.987 437.239C330.423 440.037 323.708 442.569 317.713 441.071C311.719 439.572 321.061 434.979 325.903 432.827C330.746 430.674 342.822 427.327 345.889 428.995C348.956 430.663 343.551 434.441 336.987 437.239Z" fill="#003F7E"/>
</g>
<path d="M336.375 425.82C338.146 426.688 340.3 426.775 342.002 426.694C343.331 426.641 344.351 426.98 344.903 427.456C345.168 427.684 345.32 427.936 345.383 428.205C345.446 428.476 345.436 428.838 345.25 429.312C344.864 430.293 343.757 431.643 341.401 433.226C339.068 434.793 335.607 436.524 330.68 438.311C324.374 440.561 319.786 440.526 316.5 439.215C313.232 437.911 311.074 435.272 309.768 431.922C308.456 428.558 308.031 424.531 308.224 420.615C308.417 416.708 309.222 412.988 310.308 410.257C311.992 406.313 315.198 404.11 318.618 403.288C322.076 402.457 325.668 403.058 328.02 404.625C330.339 406.172 331.611 408.71 332.302 411.616C332.993 414.523 333.07 417.656 333.11 420.24L333.11 420.24C333.132 421.657 333.461 422.829 334.055 423.774C334.649 424.72 335.469 425.376 336.375 425.82Z" fill="url(#paint21_radial)" stroke="url(#paint22_linear)" stroke-width="2" stroke-miterlimit="10"/>
<path d="M311.901 416.086C312.114 415.995 312.158 415.623 312 415.256C311.843 414.889 311.543 414.665 311.33 414.757C311.118 414.848 311.073 415.219 311.231 415.587C311.389 415.954 311.689 416.177 311.901 416.086Z" fill="#EEF8FA"/>
<path d="M320.912 418.948C321.067 419.916 321.996 420.612 322.964 420.458C323.931 420.303 324.628 419.374 324.473 418.406C324.318 417.438 323.389 416.742 322.422 416.897C321.454 417.013 320.757 417.942 320.912 418.948Z" fill="#C4A547" fill-opacity="0.74"/>
<path d="M320.881 418.739C321.036 419.629 321.849 420.248 322.778 420.132C323.668 419.977 324.287 419.165 324.171 418.236C324.016 417.345 323.204 416.726 322.275 416.842C321.384 416.997 320.765 417.848 320.881 418.739Z" fill="#2B3760"/>
<path d="M322.276 417.421C322.121 417.692 322.314 418.079 322.74 418.312C323.127 418.544 323.592 418.505 323.746 418.234C323.901 417.963 323.708 417.576 323.282 417.344C322.856 417.112 322.43 417.15 322.276 417.421Z" fill="#364D98"/>
<path d="M322.815 417.499C322.776 417.577 322.853 417.732 323.008 417.848C323.163 417.925 323.318 417.925 323.395 417.848C323.434 417.732 323.356 417.616 323.202 417.499C323.047 417.422 322.853 417.422 322.815 417.499Z" fill="#C3D8F8"/>
<path d="M323.281 418.74C323.513 418.779 323.745 418.972 323.629 419.204C323.435 419.514 323.126 419.746 322.739 419.785C322.042 419.901 321.345 419.398 321.268 418.701C321.229 418.392 321.268 418.121 321.423 417.888C321.539 417.656 321.887 417.811 322.042 418.043C322.158 418.237 322.39 418.43 322.623 418.546C322.816 418.662 323.048 418.74 323.281 418.74Z" fill="#1B244A"/>
<path d="M309.369 416.393C309.524 417.361 310.453 418.058 311.421 417.903C312.388 417.748 313.085 416.819 312.93 415.851C312.775 414.884 311.846 414.187 310.879 414.342C309.911 414.458 309.214 415.387 309.369 416.393Z" fill="#C4A547" fill-opacity="0.74"/>
<path d="M309.338 416.182C309.493 417.072 310.306 417.692 311.235 417.576C312.125 417.421 312.744 416.608 312.628 415.679C312.473 414.789 311.661 414.169 310.732 414.285C309.841 414.44 309.222 415.292 309.338 416.182Z" fill="#2B3760"/>
<path d="M310.733 414.867C310.578 415.138 310.771 415.525 311.197 415.757C311.584 415.989 312.049 415.95 312.203 415.679C312.358 415.409 312.165 415.021 311.739 414.789C311.313 414.557 310.887 414.596 310.733 414.867Z" fill="#364D98"/>
<path d="M311.272 414.943C311.233 415.02 311.31 415.175 311.465 415.291C311.62 415.369 311.775 415.369 311.852 415.291C311.891 415.175 311.813 415.059 311.659 414.943C311.504 414.865 311.31 414.865 311.272 414.943Z" fill="#C3D8F8"/>
<path d="M311.738 416.181C311.97 416.22 312.202 416.414 312.086 416.646C311.892 416.955 311.583 417.188 311.196 417.226C310.499 417.342 309.802 416.839 309.725 416.143C309.686 415.833 309.725 415.562 309.88 415.33C309.996 415.097 310.344 415.252 310.499 415.485C310.615 415.678 310.847 415.872 311.08 415.988C311.273 416.104 311.505 416.181 311.738 416.181Z" fill="#1B244A"/>
<defs>
<filter id="filter0_f" x="-19.6484" y="318.008" width="443.066" height="300.418" filterUnits="userSpaceOnUse" color-interpolation-filters="sRGB">
<feFlood flood-opacity="0" result="BackgroundImageFix"/>
<feBlend mode="normal" in="SourceGraphic" in2="BackgroundImageFix" result="shape"/>
<feGaussianBlur stdDeviation="20" result="effect1_foregroundBlur"/>
</filter>
<filter id="filter1_f" x="318.234" y="406.234" width="29.6994" height="34.5752" filterUnits="userSpaceOnUse" color-interpolation-filters="sRGB">
<feFlood flood-opacity="0" result="BackgroundImageFix"/>
<feBlend mode="normal" in="SourceGraphic" in2="BackgroundImageFix" result="shape"/>
<feGaussianBlur stdDeviation="0.5" result="effect1_foregroundBlur"/>
</filter>
<filter id="filter2_f" x="309.77" y="422.545" width="43.0019" height="24.9716" filterUnits="userSpaceOnUse" color-interpolation-filters="sRGB">
<feFlood flood-opacity="0" result="BackgroundImageFix"/>
<feBlend mode="normal" in="SourceGraphic" in2="BackgroundImageFix" result="shape"/>
<feGaussianBlur stdDeviation="3" result="effect1_foregroundBlur"/>
</filter>
<linearGradient id="paint0_linear" x1="416.297" y1="350.333" x2="263.936" y2="178.644" gradientUnits="userSpaceOnUse">
<stop stop-color="#4BE0D7"/>
<stop offset="1" stop-color="#BAF7C8"/>
</linearGradient>
<linearGradient id="paint1_linear" x1="250.477" y1="345.6" x2="250.477" y2="492.766" gradientUnits="userSpaceOnUse">
<stop offset="0.181167" stop-color="#D9E1EF"/>
<stop offset="1" stop-color="#EEF2FA"/>
</linearGradient>
<radialGradient id="paint2_radial" cx="0" cy="0" r="1" gradientUnits="userSpaceOnUse" gradientTransform="translate(242.18 491.041) rotate(-90) scale(81.2219 189.086)">
<stop stop-color="#EFFCFB"/>
<stop offset="1" stop-color="#EFFCFB" stop-opacity="0"/>
</radialGradient>
<linearGradient id="paint3_linear" x1="249.318" y1="353.412" x2="249.318" y2="486.675" gradientUnits="userSpaceOnUse">
<stop offset="0.427454" stop-color="#108CFF"/>
<stop offset="1" stop-color="#8FE6FA"/>
</linearGradient>
<radialGradient id="paint4_radial" cx="0" cy="0" r="1" gradientUnits="userSpaceOnUse" gradientTransform="translate(307.256 376.393) rotate(88.1817) scale(53.2773 92.4063)">
<stop stop-color="white"/>
<stop offset="1" stop-color="white" stop-opacity="0"/>
</radialGradient>
<linearGradient id="paint5_linear" x1="307.541" y1="351.32" x2="289.509" y2="396.681" gradientUnits="userSpaceOnUse">
<stop stop-color="#96A5CB"/>
<stop offset="1" stop-color="#5A6A92"/>
</linearGradient>
<linearGradient id="paint6_linear" x1="174.618" y1="280.6" x2="174.618" y2="368.681" gradientUnits="userSpaceOnUse">
<stop stop-color="#17E1D5"/>
<stop offset="1" stop-color="#29AFCC"/>
</linearGradient>
<linearGradient id="paint7_linear" x1="152.483" y1="280.688" x2="169.754" y2="347.611" gradientUnits="userSpaceOnUse">
<stop stop-color="#BAFFFA"/>
<stop offset="1" stop-color="#BAFFFA" stop-opacity="0"/>
</linearGradient>
<linearGradient id="paint8_linear" x1="158.968" y1="306.631" x2="192.555" y2="359.603" gradientUnits="userSpaceOnUse">
<stop stop-color="#21A1B9" stop-opacity="0"/>
<stop offset="1" stop-color="#21A1B9"/>
</linearGradient>
<radialGradient id="paint9_radial" cx="0" cy="0" r="1" gradientUnits="userSpaceOnUse" gradientTransform="translate(144.768 288.149) rotate(39.1816) scale(46.3823 40.4326)">
<stop stop-color="#20E7DE"/>
<stop offset="1" stop-color="#20E7DE" stop-opacity="0"/>
</radialGradient>
<linearGradient id="paint10_linear" x1="268.958" y1="330.94" x2="268.958" y2="435.004" gradientUnits="userSpaceOnUse">
<stop stop-color="#A5B3D2"/>
<stop offset="1" stop-color="#C3D0E4"/>
</linearGradient>
<linearGradient id="paint11_linear" x1="214.744" y1="328.069" x2="214.744" y2="451.231" gradientUnits="userSpaceOnUse">
<stop stop-color="#48618F"/>
<stop offset="1" stop-color="#526D99"/>
</linearGradient>
<linearGradient id="paint12_linear" x1="272.68" y1="356.906" x2="272.68" y2="414.607" gradientUnits="userSpaceOnUse">
<stop stop-color="#162144"/>
<stop offset="1" stop-color="#3D4769"/>
</linearGradient>
<linearGradient id="paint13_linear" x1="204.143" y1="399.91" x2="204.143" y2="446.846" gradientUnits="userSpaceOnUse">
<stop stop-color="#EEF2FA"/>
<stop offset="1" stop-color="#C3D0E4"/>
</linearGradient>
<linearGradient id="paint14_linear" x1="225.646" y1="390.82" x2="209.172" y2="455.239" gradientUnits="userSpaceOnUse">
<stop stop-color="#9FADD2"/>
<stop offset="1" stop-color="#5A6A93"/>
</linearGradient>
<linearGradient id="paint15_linear" x1="256.327" y1="398.541" x2="279.543" y2="421.025" gradientUnits="userSpaceOnUse">
<stop stop-color="#8692B2"/>
<stop offset="1" stop-color="#EBEFF8"/>
</linearGradient>
<linearGradient id="paint16_linear" x1="188.488" y1="256.118" x2="238.812" y2="339.726" gradientUnits="userSpaceOnUse">
<stop stop-color="#516B97"/>
<stop offset="1" stop-color="#5C78A8"/>
</linearGradient>
<linearGradient id="paint17_linear" x1="276.224" y1="285.192" x2="276.224" y2="312.843" gradientUnits="userSpaceOnUse">
<stop stop-color="#162144"/>
<stop offset="1" stop-color="#3D4769"/>
</linearGradient>
<linearGradient id="paint18_linear" x1="207.174" y1="285.192" x2="207.174" y2="312.843" gradientUnits="userSpaceOnUse">
<stop stop-color="#162144"/>
<stop offset="1" stop-color="#3D4769"/>
</linearGradient>
<linearGradient id="paint19_linear" x1="271.454" y1="420.443" x2="271.454" y2="449.539" gradientUnits="userSpaceOnUse">
<stop stop-color="#95A0BC"/>
<stop offset="1" stop-color="#556085"/>
</linearGradient>
<linearGradient id="paint20_linear" x1="342.565" y1="427.274" x2="324.435" y2="424.993" gradientUnits="userSpaceOnUse">
<stop stop-color="#2D3963"/>
<stop offset="1" stop-color="#2D3963" stop-opacity="0.57"/>
</linearGradient>
<radialGradient id="paint21_radial" cx="0" cy="0" r="1" gradientUnits="userSpaceOnUse" gradientTransform="translate(313.69 414.773) rotate(31.7872) scale(37.8703 34.3679)">
<stop stop-color="#FFEA7A"/>
<stop offset="0.49279" stop-color="#FFCF7A"/>
<stop offset="1" stop-color="#E48E3F"/>
</radialGradient>
<linearGradient id="paint22_linear" x1="332.404" y1="402.831" x2="331.691" y2="428.674" gradientUnits="userSpaceOnUse">
<stop stop-color="#FFE47A"/>
<stop offset="1" stop-color="#FFE47A" stop-opacity="0"/>
</linearGradient>
</defs>
</svg>
