<svg width="760" height="600" viewBox="0 0 760 600" fill="none" xmlns="http://www.w3.org/2000/svg">
<path d="M255.433 147C266.25 147 275 156.778 275 168.867L275 205.133C275 217.222 266.25 227 255.433 227L243.567 227C232.749 227 224 217.222 224 205.133L224 168.867C224 156.778 232.749 147 243.567 147L255.433 147Z" fill="#FFCA62"/>
<path d="M246.779 173.35C246.779 117.423 288.679 72 340.379 72H450.179C501.879 72 543.779 117.423 543.779 173.35V373.65C543.779 429.677 501.879 475 450.179 475H340.379C288.679 475 246.779 429.577 246.779 373.65V173.35Z" fill="url(#paint0_linear)"/>
<path d="M314.045 406.259C321.518 425.616 361.19 438.739 374.045 406.259C361.547 401.246 323.141 397.495 314.045 406.259Z" fill="#D0F1FF"/>
<path d="M530.141 365C528.041 365 526.441 366.7 526.841 368.7C527.641 371.8 529.141 374.8 531.541 377C534.841 380.2 539.141 382 543.741 382C548.341 382 552.741 380.3 555.941 377C558.341 374.7 559.841 371.8 560.641 368.7C561.141 366.7 559.441 365 557.341 365.1C555.241 365.1 553.741 366.8 552.941 368.7C552.441 369.9 551.741 371 550.741 371.9C548.841 373.7 546.341 374.7 543.741 374.8C541.141 374.8 538.541 373.8 536.741 371.9C535.741 371 535.041 369.9 534.541 368.7C533.841 366.7 532.141 365 530.141 365Z" fill="#FFAB49"/>
<path d="M472.193 272.84C466.151 280.788 472.524 289.818 479.693 294C489.255 299.577 493.265 299.07 504.106 309.402C514.947 319.733 506.688 407.172 518.045 457.796C517.362 457.812 505.139 475.025 451.797 475.025H381.656C373.848 475.025 359.045 475 359.045 475C359.368 464.273 359.766 450.519 360.167 439.786C361.633 400.456 363.122 379.488 360.989 334.759C360.055 315.176 370.669 308.519 378.387 303.677L378.408 303.665C391.679 295.735 404.475 293.244 412.295 287.668C420.115 282.093 421.3 276.043 413.48 272.84C405.66 269.637 397.011 267.739 384.926 252.199C372.84 236.659 364.723 201.438 390.551 168.694C406.613 148.33 442.158 133.468 472.1 150.298C494.698 163.001 511.825 185.426 506.273 217.453C500.721 249.479 487.686 254.453 472.193 272.84Z" fill="url(#paint1_linear)"/>
<path d="M334.834 273.341C348.542 275.105 369.768 284.312 376.337 304.132C382.907 323.953 372.655 352.911 327.033 351.58C264.699 349.76 271.836 304.966 285.392 291.297C299.07 277.506 314.148 270.681 334.834 273.341Z" fill="#17E1D5"/>
<path d="M303.107 306.861C303.591 306.74 304.342 307.153 304.54 308.07C307.562 322.092 315.92 336.537 322.75 341.674C323.778 342.46 325.12 343.57 325.18 342.241L325.712 293.564C325.712 293.08 326.135 292.657 326.618 292.657H327.827C328.311 292.657 328.734 293.08 328.734 293.564L329.217 328.075C329.278 329.405 329.192 331.554 330.34 330.889C330.824 330.587 332.404 329.581 333.206 328.559C340.036 319.855 343.24 303.597 343.965 299.608C344.025 299.124 344.509 298.762 345.053 298.883L345.234 298.943C345.718 299.003 346.02 299.427 345.959 299.91C344.569 317.438 339.311 327.652 331.575 334.603C330.668 335.449 329.58 337.806 329.58 339.015L329.701 379.475C329.701 380.019 329.036 380.502 326.558 380.502C324.08 380.502 324.382 379.958 324.443 379.414L324.987 352.916C325.047 350.801 324.201 347.839 322.206 346.086C312.354 337.202 305.827 327.29 302.382 308.07C302.382 307.465 302.684 306.982 303.107 306.861Z" fill="#12B4AA"/>
<path d="M307.86 367.994C310.431 366.102 314.755 360.301 326.939 360.301C339.182 360.301 346.532 369.964 348.735 377.926C343.79 389.407 299.271 383.08 307.86 367.994Z" fill="#12B4AA"/>
<path d="M515.684 327.936C521.375 348.37 507.768 380.454 501.488 409.34C495.207 438.227 476.505 451.716 464.987 454.538C453.468 457.361 435.275 460.93 408.839 445.124C382.403 429.318 363.766 415.119 353.091 413.421C341.958 411.651 315.329 410.801 303.064 398.453C291.197 386.508 292.38 362.091 298.925 364.909C298.299 360.668 306.685 360.224 307.72 366.408C308.754 372.593 311.269 376.938 318.066 380.324C323.24 382.901 328.926 383.4 337.207 381.354C341.458 380.304 338.23 376.639 335.451 375.254C329.195 372.137 326.676 373.847 320.653 372.593C314.63 371.338 314.532 366.176 320.593 364.909C327.673 363.43 331.509 363.372 340.828 366.408C349.778 369.325 353.988 374.983 359.01 382.17C364.033 389.358 365.61 390.72 380.005 398.453C394.4 406.187 416.358 416.4 433.439 419.159C448.803 421.641 454.096 418.699 456.433 414.898C480.667 375.483 467.298 361.078 477.402 324.662C485.045 292.488 509.994 307.502 515.684 327.936Z" fill="url(#paint2_linear)"/>
<path d="M384.189 217.455C384.163 243.232 403.512 264.129 427.387 264.12C451.262 264.11 470.612 243.203 470.638 217.426C470.664 191.649 451.314 170.752 427.44 170.761C403.481 170.784 384.13 191.692 384.189 217.455Z" fill="url(#paint3_linear)"/>
<path d="M426.119 180.631C416.147 191.909 442.985 214.862 454.365 204.82C465.745 194.778 436.077 169.269 426.119 180.631Z" fill="#359EFD"/>
<path d="M437.772 221.5C437.807 223.976 439.798 226.041 442.274 226.006C444.75 225.97 446.816 223.979 446.78 221.503C446.745 219.027 444.754 216.961 442.278 216.997C439.787 216.943 437.736 219.023 437.772 221.5Z" fill="#354781"/>
<path d="M443.42 218.923C443.27 219.131 443.433 219.565 443.76 219.879C444.177 220.179 444.639 220.196 444.789 219.988C444.939 219.779 444.777 219.346 444.449 219.031C444.122 218.717 443.66 218.7 443.42 218.923Z" fill="#9CB0CD"/>
<path d="M444.464 222.523C444.941 222.629 445.386 223.108 445.101 223.614C444.426 224.551 443.41 225.084 442.217 225.095C440.293 225.132 438.643 223.47 438.695 221.532C438.729 220.607 439.045 219.728 439.674 219.074C440.063 218.643 440.688 219.093 440.955 219.601C441.25 220.288 441.725 220.946 442.469 221.561C443.108 222.1 443.793 222.356 444.464 222.523Z" fill="#1A2A63"/>
<path d="M391.005 215.419C391.041 217.895 392.659 219.929 394.687 219.967C396.716 220.004 398.409 217.982 398.373 215.506C398.338 213.03 396.719 210.995 394.691 210.958C392.663 210.92 390.97 212.943 391.005 215.419Z" fill="#354781"/>
<path d="M396.37 217.304C396.743 217.335 397.084 217.739 396.859 218.051C396.335 218.78 395.483 219.195 394.648 219.147C392.992 219.141 391.612 217.435 391.559 215.421C391.564 214.318 391.955 213.335 392.494 212.695C392.719 212.383 393.15 212.772 393.209 213.131C393.221 213.772 393.338 214.488 393.738 215.25C394.479 216.417 395.431 217.181 396.37 217.304Z" fill="#1A2A63"/>
<path opacity="0.54" d="M396.042 213.037C395.788 213.171 395.772 213.633 395.934 214.066C396.186 214.485 396.588 214.696 396.843 214.562C397.097 214.429 397.113 213.966 396.951 213.533C396.699 213.114 396.297 212.904 396.042 213.037Z" fill="white"/>
<path d="M516.386 426.125C516.578 415.625 529.485 410.741 536.453 418.553L562.718 447.997C566.929 452.719 566.512 460.028 561.79 464.239L534.921 488.207C527.452 494.869 515.702 489.472 515.781 479.537L516.386 426.125Z" fill="#628BF2"/>
<defs>
<linearGradient id="paint0_linear" x1="395.295" y1="72.0131" x2="395.295" y2="475.063" gradientUnits="userSpaceOnUse">
<stop stop-color="#95F2FF"/>
<stop offset="1" stop-color="#82E1FE"/>
</linearGradient>
<linearGradient id="paint1_linear" x1="438.545" y1="146.31" x2="438.545" y2="494.212" gradientUnits="userSpaceOnUse">
<stop stop-color="white"/>
<stop offset="1" stop-color="#AFE7FF"/>
</linearGradient>
<linearGradient id="paint2_linear" x1="520.858" y1="392.697" x2="281.853" y2="392.697" gradientUnits="userSpaceOnUse">
<stop stop-color="#D9F4FF"/>
<stop offset="0.34375" stop-color="#D9F4FF"/>
<stop offset="1" stop-color="white"/>
</linearGradient>
<linearGradient id="paint3_linear" x1="443.769" y1="174.189" x2="410.984" y2="260.722" gradientUnits="userSpaceOnUse">
<stop stop-color="#38A0FF"/>
<stop offset="1" stop-color="#0071D8"/>
</linearGradient>
</defs>
</svg>
