<svg width="671" height="720" viewBox="0 0 671 720" fill="none" xmlns="http://www.w3.org/2000/svg">
<path d="M124.104 522C124.104 551.271 147.833 575 177.104 575H256.104C285.376 575 309.104 551.271 309.104 522L309.104 190C309.104 160.729 285.376 137 256.104 137H177.104C147.833 137 124.104 160.729 124.104 190L124.104 522Z" fill="#79E5FE"/>
<mask id="mask0" mask-type="alpha" maskUnits="userSpaceOnUse" x="124" y="140" width="184" height="435">
<path d="M154.104 140C137.536 140 124.104 153.431 124.104 170L124.104 545C124.104 561.569 137.536 575 154.104 575L277.104 575C293.673 575 307.104 561.569 307.104 545L307.105 170C307.105 153.431 293.673 140 277.105 140L154.104 140Z" fill="white"/>
</mask>
<g mask="url(#mask0)">
<g filter="url(#filter0_f)">
<path d="M124.104 519.5V486.5L273.874 463L279.104 483.5L180.209 542L124.104 519.5Z" fill="#61D5F0"/>
</g>
<g opacity="0.2">
<path d="M311.111 382.629L267.079 382.629C265.974 382.629 265.079 383.524 265.079 384.629L265.079 418.51C265.079 419.614 264.183 420.51 263.079 420.51L228.718 420.51C227.614 420.51 226.718 421.405 226.718 422.51L226.718 453.993C226.718 455.098 225.823 455.993 224.718 455.993L188.92 455.993C187.815 455.993 186.92 456.889 186.92 457.993L186.92 493.874" stroke="#56D8F5" stroke-width="20"/>
<path d="M361.939 424.825L317.907 424.825C316.802 424.825 315.907 425.721 315.907 426.825L315.907 460.706C315.907 461.811 315.011 462.706 313.907 462.706L279.546 462.706C278.442 462.706 277.546 463.602 277.546 464.706L277.546 496.189C277.546 497.294 276.651 498.189 275.546 498.189L239.747 498.189C238.643 498.189 237.747 499.085 237.747 500.189L237.747 572" stroke="#56D8F5" stroke-width="20"/>
<path d="M311.111 292.482L267.079 292.482C265.974 292.482 265.079 293.377 265.079 294.482L265.079 328.363C265.079 329.467 264.183 330.363 263.079 330.363L228.718 330.363C227.614 330.363 226.718 331.258 226.718 332.363L226.718 363.846C226.718 364.951 225.823 365.846 224.718 365.846L188.92 365.846C187.815 365.846 186.92 366.742 186.92 367.846L186.92 401.727C186.92 402.832 186.024 403.727 184.92 403.727L155.354 403.727C154.25 403.727 153.354 404.622 153.354 405.727L153.354 430.497C153.354 431.602 152.459 432.497 151.354 432.497L112.596 432.497" stroke="#56D8F5" stroke-width="20"/>
<path d="M311.111 200.417L267.079 200.417C265.974 200.417 265.079 201.312 265.079 202.417L265.079 236.298C265.079 237.402 264.183 238.298 263.079 238.298L228.718 238.298C227.614 238.298 226.718 239.193 226.718 240.298L226.718 271.781C226.718 272.886 225.823 273.781 224.718 273.781L188.92 273.781C187.815 273.781 186.92 274.677 186.92 275.781L186.92 309.662C186.92 310.767 186.024 311.662 184.92 311.662L152.477 311.662C151.373 311.662 150.477 312.558 150.477 313.662L150.477 348.981C150.477 350.086 149.582 350.981 148.477 350.981L117.391 350.981" stroke="#56D8F5" stroke-width="20"/>
<path d="M303.439 116.024L259.407 116.024C258.302 116.024 257.407 116.92 257.407 118.024L257.407 151.905C257.407 153.01 256.512 153.905 255.407 153.905L221.047 153.905C219.942 153.905 219.047 154.801 219.047 155.905L219.047 187.389C219.047 188.493 218.151 189.389 217.047 189.389L181.248 189.389C180.143 189.389 179.248 190.284 179.248 191.389L179.248 225.27C179.248 226.374 178.352 227.27 177.248 227.27L144.805 227.27C143.701 227.27 142.805 228.165 142.805 229.27L142.805 264.589C142.805 265.693 141.91 266.589 140.805 266.589L109.719 266.589" stroke="#56D8F5" stroke-width="20"/>
</g>
</g>
<path d="M69.5908 320.637L98.1538 424.674C97.081 424.875 96.0082 425.076 94.9354 425.143C93.8626 425.21 92.7898 425.278 91.717 425.21C90.6443 425.21 89.5715 425.076 88.4987 424.942C87.4259 424.808 86.3531 424.607 85.2803 424.338C81.1903 423.332 77.2344 421.588 73.4126 419.106C69.5908 416.625 66.0372 413.539 62.7518 409.85C59.4664 406.161 56.5162 401.935 53.9684 397.172C51.4205 392.477 49.342 387.312 47.7998 381.744C45.8554 374.768 44.9838 367.86 45.1179 361.353C45.1849 354.779 46.2577 348.608 48.2021 343.108C50.1466 337.541 52.9626 332.711 56.5162 328.821C60.1369 324.997 64.5621 322.113 69.5908 320.637Z" fill="#6493A8"/>
<path d="M69.5908 320.637L178.076 294.342L203.22 388.183L98.1538 424.673L69.5908 320.637Z" fill="url(#paint0_linear)"/>
<path d="M77.9053 325.532L173.316 302.391L195.174 383.889L102.713 416.019L77.9053 325.532Z" fill="url(#paint1_linear)"/>
<path d="M82.0409 340.621L81.4468 338.454L176.433 314.014L177.015 316.184L82.0409 340.621Z" fill="black" fill-opacity="0.39"/>
<path d="M87.7542 361.46L87.1601 359.293L181.226 331.886L181.808 334.056L87.7542 361.46Z" fill="black" fill-opacity="0.39"/>
<path d="M93.2994 381.686L92.7044 379.516L185.634 348.324L186.218 350.498L93.2994 381.686Z" fill="black" fill-opacity="0.39"/>
<path d="M98.2538 399.757L97.6588 397.586L190.49 366.428L191.073 368.602L98.2538 399.757Z" fill="black" fill-opacity="0.39"/>
<path d="M98.1538 424.606L203.287 388.116L284.617 404.349L182.971 444.863L98.1538 424.606Z" fill="url(#paint2_linear)"/>
<path d="M122.023 423.399L203.756 395.025L261.083 406.496L182.435 437.821L122.023 423.399Z" fill="url(#paint3_linear)"/>
<path d="M182.965 444.861L183.161 529.957L100.946 505.845C100.51 505.717 100.207 505.322 100.197 504.868L98.3579 424.638L182.965 444.861Z" fill="url(#paint4_linear)"/>
<path fill-rule="evenodd" clip-rule="evenodd" d="M180.723 446.635L100.671 427.501L102.423 503.936L180.907 526.955L180.723 446.635ZM182.965 444.861L98.3579 424.638L100.197 504.868C100.207 505.322 100.51 505.717 100.946 505.845L183.161 529.957L182.965 444.861Z" fill="url(#paint5_linear)"/>
<path d="M110.448 498.117C110.23 498.053 110.079 497.855 110.074 497.629L108.715 437.436L172.601 452.679C172.835 452.735 173.001 452.945 173.001 453.186L173.097 515.874C173.098 516.222 172.763 516.473 172.428 516.375L110.448 498.117Z" fill="#456E81"/>
<path d="M113.281 496.064C113.063 496 112.912 495.803 112.907 495.576L111.548 438.119L172.601 452.679C172.835 452.735 173.001 452.944 173.001 453.185L173.098 513.64L113.281 496.064Z" fill="#7C4E3D"/>
<path d="M113.281 496.064C113.063 496 112.912 495.803 112.907 495.576L111.548 438.119L172.601 452.679C172.835 452.735 173.001 452.944 173.001 453.185L173.098 513.64L113.281 496.064Z" fill="#6F4435"/>
<path fill-rule="evenodd" clip-rule="evenodd" d="M173.096 512.266L173.072 497.175L112.585 481.995L112.893 494.982L173.096 512.266ZM173.068 494.858L112.53 479.665L112.227 466.855L173.048 482.119L173.068 494.858ZM173.044 479.801L173.023 467.063L111.869 451.715L112.172 464.525L173.044 479.801ZM173.02 464.745L111.814 449.385L111.548 438.119L172.601 452.679C172.835 452.735 173.001 452.944 173.001 453.185L173.02 464.745Z" fill="url(#paint6_linear)"/>
<g style="mix-blend-mode:multiply" opacity="0.12">
<path d="M159.854 469.917C150.206 454.408 133.21 443.285 133.21 443.285L172.6 452.679C172.835 452.735 173 452.945 173.001 453.186L173.098 513.641C173.098 513.641 169.502 485.427 159.854 469.917Z" fill="#6C4334"/>
</g>
<path d="M182.965 444.861L183.161 529.957L282.429 481.735C282.605 481.65 282.719 481.473 282.723 481.277L284.377 404.414L182.965 444.861Z" fill="url(#paint7_linear)"/>
<path fill-rule="evenodd" clip-rule="evenodd" d="M183.161 529.957L282.429 481.735C282.605 481.65 282.719 481.473 282.723 481.277L284.377 404.414L182.965 444.861L183.161 529.957ZM282.058 407.757L185.216 446.382L185.399 526.372L280.499 480.175L282.058 407.757Z" fill="url(#paint8_linear)"/>
<path d="M193.358 451.471C193.159 451.55 193.029 451.743 193.029 451.958L193.221 513.104C193.222 513.488 193.625 513.74 193.97 513.572L230.349 495.905C230.528 495.818 230.642 495.636 230.642 495.436V437.423C230.642 437.054 230.271 436.802 229.928 436.938L193.358 451.471Z" fill="#456E81"/>
<path d="M193.358 451.471C193.159 451.55 193.029 451.743 193.029 451.957L193.224 510.612L227.614 493.853C227.793 493.765 227.907 493.583 227.907 493.384V437.729L193.358 451.471Z" fill="#6E4435"/>
<path d="M239.923 490.434C239.923 490.82 240.327 491.072 240.673 490.903L272.561 475.385C272.737 475.299 272.85 475.122 272.855 474.927L274.004 420.148C274.012 419.775 273.636 419.515 273.289 419.653L240.252 432.811C240.054 432.89 239.923 433.082 239.923 433.296V490.434Z" fill="#456E81"/>
<path d="M239.923 487.458L269.727 473.04C269.903 472.955 270.017 472.777 270.021 472.581L271.089 420.534L240.252 432.811C240.054 432.89 239.923 433.082 239.923 433.296V487.458Z" fill="#6E4435"/>
<path fill-rule="evenodd" clip-rule="evenodd" d="M269.727 473.04L239.923 487.458V475.003L270.257 461.113L270.021 472.581C270.017 472.777 269.903 472.955 269.727 473.04ZM270.295 459.242L239.923 473.149V459.804L270.55 446.815L270.295 459.242ZM239.923 443.469V457.974L270.588 444.969L270.868 431.337L239.923 443.469ZM239.923 441.659V433.296C239.923 433.082 240.054 432.89 240.252 432.811L271.089 420.534L270.905 429.512L239.923 441.659Z" fill="url(#paint9_linear)"/>
<path fill-rule="evenodd" clip-rule="evenodd" d="M227.907 446.369V437.729L193.358 451.471C193.159 451.55 193.029 451.743 193.029 451.957L193.056 460.033L227.907 446.369ZM193.062 461.84L193.115 477.825L227.907 463.069V448.179L193.062 461.84ZM193.121 479.653L227.907 464.9V478.651L193.17 494.557L193.121 479.653ZM193.176 496.407L193.224 510.612L227.614 493.853C227.793 493.765 227.907 493.583 227.907 493.384V480.504L193.176 496.407Z" fill="url(#paint10_linear)"/>
<g style="mix-blend-mode:multiply" opacity="0.12">
<path d="M193.028 451.602L193.204 505.066C193.204 505.066 196.075 486.346 205.449 470.842C214.822 455.337 227.908 449.898 227.908 449.898L227.907 437.729L193.028 451.602Z" fill="#6C4334"/>
</g>
<g style="mix-blend-mode:multiply" opacity="0.12">
<path d="M239.92 446.652C239.92 446.652 249.266 445.759 257.372 449.374C265.477 452.99 270.317 457.83 270.317 457.83L271.09 420.534L240.252 432.811C240.054 432.89 239.924 433.082 239.923 433.296L239.92 446.652Z" fill="#6C4334"/>
</g>
<path d="M182.425 437.888L247.664 411.862C225.739 408.039 212.932 389.19 187.521 392.142C162.579 395.026 152.588 419.174 133.814 426.217L182.425 437.888Z" fill="url(#paint11_linear)"/>
<mask id="mask1" mask-type="alpha" maskUnits="userSpaceOnUse" x="126" y="381" width="135" height="57">
<path d="M182.332 437.751L126.308 424.467C132.203 407.665 143.271 381.148 192.968 381.148C241.092 381.148 255.699 398.064 260.434 406.754L182.332 437.751Z" fill="#C4C4C4"/>
</mask>
<g mask="url(#mask1)">
<path d="M206.082 398.515L205.939 401.996C205.819 405.771 201.326 409.357 194.868 410.399C187.425 411.619 180.176 409.054 178.695 404.616C178.504 404.048 178.42 403.428 178.448 402.828L178.591 399.347C178.562 399.947 178.68 400.525 178.837 401.135C180.319 405.573 187.568 408.138 195.01 406.918C201.469 405.876 205.928 402.332 206.082 398.515Z" fill="url(#paint12_linear)"/>
<path d="M189.628 390.986C197.07 389.765 204.319 392.331 205.801 396.769C207.282 401.207 202.457 405.771 194.976 406.96C187.533 408.181 180.284 405.615 178.802 401.177C177.321 396.739 182.185 392.206 189.628 390.986Z" fill="url(#paint13_linear)"/>
<path fill-rule="evenodd" clip-rule="evenodd" d="M194.885 406.406L194.887 406.405C198.545 405.824 201.509 404.423 203.364 402.674C205.215 400.929 205.918 398.896 205.268 396.947C204.604 394.96 202.608 393.3 199.761 392.285C196.93 391.276 193.354 390.944 189.718 391.54C186.079 392.137 183.114 393.538 181.253 395.284C179.396 397.027 178.685 399.052 179.335 400.999C179.999 402.986 181.995 404.646 184.842 405.661C187.673 406.67 191.249 407.002 194.885 406.406ZM205.801 396.769C204.319 392.331 197.07 389.765 189.628 390.986C182.185 392.206 177.321 396.739 178.802 401.177C180.284 405.615 187.533 408.181 194.976 406.96C202.457 405.771 207.282 401.207 205.801 396.769Z" fill="url(#paint14_linear)"/>
<path d="M190.582 393.825C195.399 393.057 201.165 394.813 202.085 397.695C203.039 400.534 198.878 403.384 194.061 404.152C189.244 404.92 183.42 403.153 182.466 400.314C181.472 397.443 185.765 394.593 190.582 393.825Z" fill="#C27025"/>
<path d="M190.676 394.302C195.352 393.557 200.949 395.261 201.842 398.058C202.768 400.814 198.73 403.581 194.054 404.326C189.378 405.072 183.724 403.356 182.798 400.6C181.834 397.813 186 395.048 190.676 394.302Z" fill="url(#paint15_linear)"/>
<path d="M216.088 415.401L215.946 418.882C215.826 422.658 211.333 426.244 204.875 427.286C197.432 428.506 190.183 425.941 188.702 421.503C188.511 420.935 188.427 420.314 188.455 419.715L188.598 416.234C188.569 416.833 188.687 417.412 188.844 418.022C190.325 422.46 197.575 425.025 205.017 423.805C211.476 422.763 215.935 419.219 216.088 415.401Z" fill="url(#paint16_linear)"/>
<path d="M199.634 407.873C207.077 406.652 214.326 409.218 215.807 413.656C217.289 418.094 212.464 422.658 204.982 423.847C197.54 425.067 190.291 422.502 188.809 418.064C187.328 413.626 192.192 409.093 199.634 407.873Z" fill="url(#paint17_linear)"/>
<path fill-rule="evenodd" clip-rule="evenodd" d="M204.891 423.293L204.894 423.292C208.552 422.711 211.516 421.31 213.371 419.561C215.222 417.816 215.925 415.783 215.275 413.833C214.611 411.846 212.615 410.186 209.768 409.171C206.937 408.162 203.361 407.831 199.725 408.427C196.085 409.024 193.121 410.425 191.26 412.171C189.403 413.914 188.692 415.939 189.342 417.886C190.005 419.873 192.002 421.533 194.849 422.548C197.679 423.557 201.255 423.889 204.891 423.293ZM215.807 413.656C214.326 409.218 207.077 406.652 199.634 407.873C192.192 409.093 187.328 413.626 188.809 418.064C190.291 422.502 197.54 425.067 204.982 423.847C212.464 422.658 217.289 418.094 215.807 413.656Z" fill="url(#paint18_linear)"/>
<path d="M200.589 410.712C205.406 409.944 211.172 411.7 212.092 414.582C213.046 417.421 208.885 420.271 204.068 421.039C199.251 421.807 193.426 420.04 192.472 417.201C191.479 414.33 195.771 411.48 200.589 410.712Z" fill="#C27025"/>
<path d="M200.683 411.189C205.359 410.443 210.955 412.148 211.849 414.945C212.775 417.701 208.736 420.467 204.06 421.213C199.384 421.958 193.73 420.243 192.804 417.487C191.84 414.7 196.007 411.934 200.683 411.189Z" fill="url(#paint19_linear)"/>
<path d="M246.032 417.592L245.89 421.073C245.77 424.848 241.277 428.435 234.818 429.476C227.376 430.697 220.127 428.131 218.645 423.693C218.455 423.125 218.371 422.505 218.399 421.905L218.541 418.424C218.513 419.024 218.631 419.602 218.788 420.212C220.269 424.65 227.518 427.216 234.961 425.995C241.419 424.954 245.878 421.409 246.032 417.592Z" fill="url(#paint20_linear)"/>
<path d="M229.578 410.063C237.021 408.843 244.27 411.408 245.751 415.846C247.233 420.284 242.408 424.848 234.926 426.037C227.484 427.258 220.235 424.692 218.753 420.254C217.272 415.816 222.136 411.283 229.578 410.063Z" fill="url(#paint21_linear)"/>
<path fill-rule="evenodd" clip-rule="evenodd" d="M234.835 425.483L234.838 425.483C238.496 424.901 241.459 423.501 243.315 421.751C245.166 420.006 245.869 417.973 245.219 416.024C244.555 414.037 242.559 412.377 239.711 411.362C236.881 410.353 233.305 410.021 229.669 410.617C226.029 411.214 223.065 412.615 221.204 414.362C219.347 416.104 218.636 418.129 219.286 420.076C219.949 422.064 221.945 423.724 224.793 424.739C227.623 425.747 231.199 426.079 234.835 425.483ZM245.751 415.846C244.27 411.408 237.021 408.843 229.578 410.063C222.136 411.283 217.272 415.816 218.753 420.254C220.235 424.692 227.484 427.258 234.926 426.037C242.408 424.848 247.233 420.284 245.751 415.846Z" fill="url(#paint22_linear)"/>
<path d="M230.532 412.902C235.35 412.134 241.116 413.891 242.036 416.772C242.99 419.612 238.829 422.462 234.012 423.23C229.195 423.998 223.37 422.23 222.416 419.391C221.423 416.52 225.715 413.671 230.532 412.902Z" fill="#C27025"/>
<path d="M230.626 413.379C235.302 412.634 240.899 414.338 241.792 417.135C242.718 419.891 238.68 422.658 234.004 423.403C229.328 424.149 223.674 422.434 222.748 419.677C221.784 416.891 225.95 414.125 230.626 413.379Z" fill="url(#paint23_linear)"/>
<path d="M199.514 427.05L199.372 430.531C199.252 434.307 194.759 437.893 188.3 438.935C180.858 440.155 173.609 437.589 172.127 433.152C171.937 432.584 171.853 431.963 171.881 431.364L172.023 427.883C171.995 428.482 172.113 429.061 172.27 429.671C173.751 434.108 181 436.674 188.443 435.454C194.901 434.412 199.36 430.868 199.514 427.05Z" fill="url(#paint24_linear)"/>
<path d="M183.06 419.521C190.502 418.301 197.752 420.867 199.233 425.305C200.715 429.742 195.89 434.307 188.408 435.496C180.966 436.716 173.717 434.151 172.235 429.713C170.754 425.275 175.618 420.742 183.06 419.521Z" fill="url(#paint25_linear)"/>
<path fill-rule="evenodd" clip-rule="evenodd" d="M188.317 434.942L188.32 434.941C191.978 434.36 194.941 432.959 196.797 431.21C198.648 429.465 199.351 427.432 198.7 425.482C198.037 423.495 196.041 421.835 193.193 420.82C190.363 419.811 186.787 419.479 183.151 420.076C179.511 420.673 176.546 422.074 174.686 423.82C172.828 425.563 172.118 427.588 172.768 429.535C173.431 431.522 175.427 433.182 178.275 434.197C181.105 435.206 184.681 435.538 188.317 434.942ZM199.233 425.305C197.752 420.867 190.502 418.301 183.06 419.521C175.618 420.742 170.754 425.275 172.235 429.713C173.717 434.151 180.966 436.716 188.408 435.496C195.89 434.307 200.715 429.742 199.233 425.305Z" fill="url(#paint26_linear)"/>
<path d="M184.014 422.361C188.832 421.593 194.598 423.349 195.518 426.231C196.472 429.07 192.311 431.92 187.494 432.688C182.677 433.456 176.852 431.689 175.898 428.849C174.905 425.978 179.197 423.129 184.014 422.361Z" fill="#C27025"/>
<path d="M184.108 422.838C188.784 422.092 194.381 423.797 195.274 426.594C196.2 429.35 192.162 432.116 187.486 432.862C182.81 433.607 177.156 431.892 176.23 429.136C175.266 426.349 179.432 423.583 184.108 422.838Z" fill="url(#paint27_linear)"/>
<path d="M191.54 403.988L191.398 407.469C191.278 411.244 186.785 414.831 180.326 415.872C172.884 417.093 165.635 414.527 164.153 410.089C163.962 409.521 163.878 408.901 163.907 408.301L164.049 404.82C164.021 405.42 164.138 405.998 164.296 406.608C165.777 411.046 173.026 413.612 180.469 412.391C186.927 411.35 191.386 407.805 191.54 403.988Z" fill="url(#paint28_linear)"/>
<path d="M175.086 396.459C182.528 395.239 189.778 397.804 191.259 402.242C192.741 406.68 187.916 411.244 180.434 412.433C172.992 413.654 165.742 411.088 164.261 406.65C162.779 402.212 167.644 397.679 175.086 396.459Z" fill="url(#paint29_linear)"/>
<path fill-rule="evenodd" clip-rule="evenodd" d="M180.343 411.879L180.346 411.879C184.004 411.297 186.967 409.897 188.822 408.147C190.674 406.402 191.377 404.369 190.726 402.42C190.063 400.433 188.067 398.773 185.219 397.758C182.389 396.749 178.813 396.417 175.177 397.013C171.537 397.61 168.572 399.011 166.711 400.758C164.854 402.5 164.144 404.525 164.794 406.472C165.457 408.459 167.453 410.12 170.301 411.135C173.131 412.143 176.707 412.475 180.343 411.879ZM191.259 402.242C189.778 397.804 182.528 395.239 175.086 396.459C167.644 397.679 162.779 402.212 164.261 406.65C165.742 411.088 172.992 413.654 180.434 412.433C187.916 411.244 192.741 406.68 191.259 402.242Z" fill="url(#paint30_linear)"/>
<path d="M176.04 399.298C180.858 398.53 186.623 400.287 187.544 403.168C188.498 406.008 184.337 408.858 179.52 409.626C174.702 410.394 168.878 408.626 167.924 405.787C166.931 402.916 171.223 400.066 176.04 399.298Z" fill="#C27025"/>
<path d="M176.134 399.775C180.81 399.03 186.407 400.734 187.3 403.531C188.226 406.287 184.188 409.054 179.512 409.799C174.836 410.545 169.182 408.83 168.256 406.073C167.292 403.287 171.458 400.521 176.134 399.775Z" fill="url(#paint31_linear)"/>
<path d="M194.276 413.994L194.134 417.475C194.014 421.251 189.521 424.837 183.062 425.879C175.62 427.099 168.371 424.533 166.889 420.095C166.698 419.528 166.614 418.907 166.643 418.308L166.785 414.827C166.757 415.426 166.874 416.004 167.031 416.614C168.513 421.052 175.762 423.618 183.204 422.398C189.663 421.356 194.122 417.812 194.276 413.994Z" fill="url(#paint32_linear)"/>
<path d="M177.822 406.465C185.264 405.245 192.513 407.81 193.995 412.248C195.476 416.686 190.652 421.251 183.17 422.44C175.728 423.66 168.478 421.094 166.997 416.657C165.515 412.219 170.379 407.686 177.822 406.465Z" fill="url(#paint33_linear)"/>
<path fill-rule="evenodd" clip-rule="evenodd" d="M183.079 421.885L183.082 421.885C186.74 421.304 189.703 419.903 191.558 418.154C193.409 416.408 194.113 414.375 193.462 412.426C192.799 410.439 190.803 408.779 187.955 407.764C185.125 406.755 181.549 406.423 177.913 407.02C174.273 407.616 171.308 409.017 169.447 410.764C167.59 412.507 166.88 414.532 167.53 416.479C168.193 418.466 170.189 420.126 173.037 421.141C175.867 422.15 179.443 422.482 183.079 421.885ZM193.995 412.248C192.513 407.81 185.264 405.245 177.822 406.465C170.379 407.686 165.515 412.219 166.997 416.657C168.478 421.094 175.728 423.66 183.17 422.44C190.652 421.251 195.476 416.686 193.995 412.248Z" fill="url(#paint34_linear)"/>
<path d="M178.776 409.305C183.593 408.537 189.359 410.293 190.28 413.174C191.234 416.014 187.073 418.864 182.255 419.632C177.438 420.4 171.614 418.633 170.66 415.793C169.667 412.922 173.959 410.073 178.776 409.305Z" fill="#C27025"/>
<path d="M178.87 409.782C183.546 409.036 189.143 410.741 190.036 413.538C190.962 416.294 186.923 419.06 182.247 419.806C177.571 420.551 171.918 418.836 170.992 416.08C170.028 413.293 174.194 410.527 178.87 409.782Z" fill="url(#paint35_linear)"/>
<path d="M232.662 419.859L232.52 423.34C232.4 427.115 227.907 430.702 221.448 431.743C214.006 432.964 206.757 430.398 205.275 425.96C205.084 425.392 205 424.772 205.029 424.172L205.171 420.691C205.143 421.291 205.261 421.869 205.418 422.479C206.899 426.917 214.148 429.483 221.591 428.262C228.049 427.221 232.508 423.676 232.662 419.859Z" fill="url(#paint36_linear)"/>
<path d="M216.209 412.33C223.651 411.109 230.9 413.675 232.382 418.113C233.863 422.551 229.038 427.115 221.557 428.304C214.114 429.524 206.865 426.959 205.383 422.521C203.902 418.083 208.766 413.55 216.209 412.33Z" fill="url(#paint37_linear)"/>
<path fill-rule="evenodd" clip-rule="evenodd" d="M221.466 427.75L221.468 427.749C225.127 427.168 228.09 425.767 229.945 424.018C231.796 422.273 232.5 420.24 231.849 418.291C231.186 416.303 229.189 414.643 226.342 413.628C223.511 412.619 219.935 412.288 216.299 412.884C212.66 413.481 209.695 414.882 207.834 416.628C205.977 418.371 205.266 420.396 205.916 422.343C206.58 424.33 208.576 425.99 211.423 427.005C214.254 428.014 217.83 428.346 221.466 427.75ZM232.382 418.113C230.9 413.675 223.651 411.109 216.209 412.33C208.766 413.55 203.902 418.083 205.383 422.521C206.865 426.959 214.114 429.524 221.557 428.304C229.038 427.115 233.863 422.551 232.382 418.113Z" fill="url(#paint38_linear)"/>
<path d="M217.162 415.169C221.98 414.401 227.745 416.157 228.666 419.039C229.62 421.878 225.459 424.728 220.642 425.496C215.824 426.264 210 424.497 209.046 421.658C208.053 418.787 212.345 415.937 217.162 415.169Z" fill="#C27025"/>
<path d="M217.256 415.646C221.932 414.9 227.529 416.605 228.422 419.402C229.348 422.158 225.31 424.925 220.634 425.67C215.958 426.416 210.304 424.7 209.378 421.944C208.414 419.157 212.58 416.391 217.256 415.646Z" fill="url(#paint39_linear)"/>
<path d="M168.086 427.441L167.944 430.922C167.824 434.698 163.331 438.284 156.872 439.326C149.43 440.546 142.181 437.981 140.699 433.543C140.508 432.975 140.424 432.354 140.453 431.755L140.595 428.274C140.567 428.873 140.684 429.452 140.841 430.062C142.323 434.5 149.572 437.065 157.015 435.845C163.473 434.803 167.932 431.259 168.086 427.441Z" fill="url(#paint40_linear)"/>
<path d="M151.632 419.913C159.074 418.692 166.324 421.258 167.805 425.696C169.287 430.134 164.462 434.698 156.98 435.887C149.538 437.107 142.288 434.542 140.807 430.104C139.325 425.666 144.19 421.133 151.632 419.913Z" fill="url(#paint41_linear)"/>
<path fill-rule="evenodd" clip-rule="evenodd" d="M156.889 435.333L156.892 435.332C160.55 434.751 163.513 433.35 165.368 431.601C167.219 429.856 167.923 427.823 167.272 425.874C166.609 423.886 164.613 422.226 161.765 421.211C158.935 420.202 155.359 419.871 151.723 420.467C148.083 421.064 145.118 422.465 143.257 424.211C141.4 425.954 140.69 427.979 141.34 429.926C142.003 431.913 143.999 433.573 146.847 434.588C149.677 435.597 153.253 435.929 156.889 435.333ZM167.805 425.696C166.324 421.258 159.074 418.692 151.632 419.913C144.19 421.133 139.325 425.666 140.807 430.104C142.288 434.542 149.538 437.107 156.98 435.887C164.462 434.698 169.287 430.134 167.805 425.696Z" fill="url(#paint42_linear)"/>
<path d="M152.586 422.752C157.403 421.984 163.169 423.74 164.09 426.622C165.044 429.461 160.883 432.311 156.066 433.079C151.248 433.847 145.424 432.08 144.47 429.241C143.477 426.37 147.769 423.52 152.586 422.752Z" fill="#C27025"/>
<path d="M152.68 423.229C157.356 422.483 162.953 424.188 163.846 426.985C164.772 429.741 160.733 432.508 156.057 433.253C151.381 433.999 145.728 432.283 144.802 429.527C143.838 426.74 148.004 423.974 152.68 423.229Z" fill="url(#paint43_linear)"/>
<path d="M180.829 434.165L180.686 437.646C180.566 441.422 176.074 445.008 169.615 446.05C162.173 447.27 154.923 444.705 153.442 440.267C153.251 439.699 153.167 439.078 153.195 438.479L153.338 434.998C153.309 435.597 153.427 436.176 153.584 436.786C155.066 441.224 162.315 443.789 169.757 442.569C176.216 441.527 180.675 437.983 180.829 434.165Z" fill="url(#paint44_linear)"/>
<path d="M164.375 426.637C171.817 425.416 179.066 427.982 180.548 432.42C182.029 436.858 177.204 441.422 169.723 442.611C162.28 443.831 155.031 441.266 153.55 436.828C152.068 432.39 156.932 427.857 164.375 426.637Z" fill="url(#paint45_linear)"/>
<path fill-rule="evenodd" clip-rule="evenodd" d="M169.632 442.057L169.634 442.056C173.293 441.475 176.256 440.074 178.111 438.325C179.962 436.58 180.666 434.547 180.015 432.598C179.352 430.61 177.355 428.95 174.508 427.935C171.677 426.927 168.101 426.595 164.465 427.191C160.826 427.788 157.861 429.189 156 430.935C154.143 432.678 153.432 434.703 154.082 436.65C154.746 438.637 156.742 440.297 159.589 441.312C162.42 442.321 165.996 442.653 169.632 442.057ZM180.548 432.42C179.066 427.982 171.817 425.416 164.375 426.637C156.932 427.857 152.068 432.39 153.55 436.828C155.031 441.266 162.28 443.831 169.723 442.611C177.204 441.422 182.029 436.858 180.548 432.42Z" fill="url(#paint46_linear)"/>
<path d="M165.329 429.476C170.146 428.708 175.912 430.464 176.832 433.346C177.786 436.185 173.626 439.035 168.808 439.803C163.991 440.571 158.167 438.804 157.213 435.965C156.219 433.094 160.512 430.244 165.329 429.476Z" fill="#C27025"/>
<path d="M165.423 429.953C170.099 429.207 175.695 430.912 176.589 433.709C177.515 436.465 173.476 439.232 168.8 439.977C164.124 440.723 158.471 439.007 157.545 436.251C156.58 433.464 160.747 430.698 165.423 429.953Z" fill="url(#paint47_linear)"/>
<path d="M230.569 402.67L229.191 405.87C227.728 409.353 222.25 411.095 215.846 409.757C208.46 408.234 202.608 403.245 202.812 398.571C202.837 397.972 202.981 397.363 203.222 396.813L204.6 393.613C204.359 394.163 204.262 394.745 204.19 395.371C203.986 400.045 209.838 405.034 217.224 406.557C223.628 407.895 229.06 406.18 230.569 402.67Z" fill="url(#paint48_linear)"/>
<path d="M217.898 389.754C225.285 391.277 231.136 396.266 230.932 400.94C230.728 405.614 224.59 408.151 217.178 406.585C209.791 405.062 203.94 400.073 204.144 395.398C204.348 390.724 210.512 388.231 217.898 389.754Z" fill="url(#paint49_linear)"/>
<path fill-rule="evenodd" clip-rule="evenodd" d="M217.291 406.034L217.294 406.035C220.918 406.801 224.186 406.553 226.544 405.583C228.897 404.615 230.281 402.969 230.371 400.916C230.462 398.823 229.192 396.558 226.896 394.592C224.614 392.637 221.393 391.048 217.785 390.304C214.172 389.559 210.903 389.807 208.54 390.772C206.182 391.736 204.794 393.372 204.705 395.423C204.613 397.516 205.884 399.78 208.18 401.747C210.462 403.701 213.682 405.29 217.291 406.034ZM230.932 400.94C231.136 396.266 225.285 391.277 217.898 389.754C210.512 388.231 204.348 390.724 204.144 395.398C203.94 400.073 209.791 405.062 217.178 406.585C224.59 408.151 230.728 405.614 230.932 400.94Z" fill="url(#paint50_linear)"/>
<path d="M217.774 392.746C222.547 393.752 227.303 397.455 227.132 400.475C227.007 403.468 222.102 404.641 217.328 403.635C212.555 402.628 207.749 398.895 207.873 395.902C207.973 392.866 213 391.74 217.774 392.746Z" fill="#C27025"/>
<path d="M217.691 393.225C222.324 394.202 226.94 397.796 226.774 400.727C226.653 403.632 221.892 404.771 217.258 403.794C212.625 402.818 207.96 399.193 208.081 396.288C208.177 393.341 213.057 392.249 217.691 393.225Z" fill="url(#paint51_linear)"/>
<path d="M205.92 405.145L205.412 408.591C204.895 412.333 200.049 415.426 193.517 415.781C185.987 416.211 179.049 412.895 178.043 408.326C177.913 407.741 177.895 407.115 177.986 406.522L178.495 403.076C178.403 403.669 178.46 404.256 178.551 404.879C179.557 409.449 186.496 412.764 194.025 412.335C200.557 411.98 205.365 408.925 205.92 405.145Z" fill="url(#paint52_linear)"/>
<path d="M190.352 395.925C197.881 395.495 204.82 398.811 205.825 403.38C206.831 407.949 201.552 411.98 193.987 412.374C186.457 412.803 179.519 409.488 178.513 404.918C177.507 400.349 182.822 396.354 190.352 395.925Z" fill="url(#paint53_linear)"/>
<path fill-rule="evenodd" clip-rule="evenodd" d="M193.955 411.813L193.957 411.813C197.656 411.62 200.751 410.54 202.78 408.996C204.805 407.455 205.719 405.507 205.277 403.501C204.827 401.455 203.017 399.593 200.292 398.284C197.584 396.982 194.062 396.276 190.384 396.485C186.701 396.695 183.606 397.776 181.571 399.317C179.541 400.854 178.62 402.793 179.062 404.798C179.512 406.844 181.322 408.705 184.047 410.014C186.755 411.316 190.276 412.023 193.955 411.813ZM205.825 403.38C204.82 398.811 197.881 395.495 190.352 395.925C182.822 396.354 177.507 400.349 178.513 404.918C179.519 409.488 186.457 412.803 193.987 412.374C201.552 411.98 206.831 407.949 205.825 403.38Z" fill="url(#paint54_linear)"/>
<path d="M191.002 398.848C195.873 398.592 201.422 400.946 202.034 403.909C202.683 406.833 198.245 409.229 193.374 409.485C188.502 409.741 182.897 407.37 182.247 404.445C181.562 401.486 186.131 399.104 191.002 398.848Z" fill="#C27025"/>
<path d="M191.045 399.332C195.774 399.083 201.16 401.368 201.753 404.244C202.384 407.082 198.076 409.408 193.348 409.656C188.619 409.905 183.178 407.603 182.547 404.765C181.882 401.892 186.317 399.581 191.045 399.332Z" fill="url(#paint55_linear)"/>
<path d="M173.751 409.475L174.618 412.85C175.59 416.5 172.321 421.228 166.436 424.086C159.661 427.398 151.979 427.03 149.282 423.206C148.936 422.718 148.677 422.148 148.532 421.565L147.665 418.191C147.811 418.773 148.09 419.293 148.416 419.832C151.113 423.655 158.794 424.024 165.57 420.712C171.454 417.854 174.704 413.175 173.751 409.475Z" fill="url(#paint56_linear)"/>
<path d="M155.827 407.005C162.602 403.693 170.283 404.062 172.98 407.885C175.677 411.708 172.371 417.469 165.549 420.762C158.774 424.074 151.093 423.706 148.396 419.883C145.699 416.059 149.051 410.317 155.827 407.005Z" fill="url(#paint57_linear)"/>
<path fill-rule="evenodd" clip-rule="evenodd" d="M165.302 420.257L165.305 420.256C168.641 418.646 171.075 416.451 172.348 414.242C173.617 412.037 173.706 409.887 172.521 408.208C171.313 406.497 168.924 405.482 165.904 405.33C162.903 405.179 159.383 405.891 156.073 407.51C152.76 409.13 150.324 411.325 149.045 413.534C147.769 415.738 147.671 417.881 148.855 419.559C150.062 421.271 152.452 422.285 155.471 422.437C158.472 422.588 161.992 421.876 165.302 420.257ZM172.98 407.885C170.283 404.062 162.602 403.693 155.827 407.005C149.051 410.317 145.699 416.059 148.396 419.883C151.093 423.706 158.774 424.074 165.549 420.762C172.371 417.469 175.677 411.708 172.98 407.885Z" fill="url(#paint58_linear)"/>
<path d="M157.558 409.449C161.95 407.326 167.977 407.347 169.689 409.841C171.42 412.285 168.257 416.213 163.865 418.336C159.473 420.459 153.386 420.444 151.655 418C149.877 415.537 153.166 411.572 157.558 409.449Z" fill="#C27025"/>
<path d="M157.786 409.878C162.049 407.817 167.9 407.837 169.561 410.258C171.241 412.631 168.171 416.443 163.908 418.504C159.645 420.565 153.737 420.551 152.056 418.178C150.33 415.787 153.523 411.938 157.786 409.878Z" fill="url(#paint59_linear)"/>
</g>
<path d="M84.6771 413.673C69.8592 408.575 59.1984 389.994 56.1141 372.353C54.3708 362.359 55.0413 352.767 57.9245 345.254C59.2654 341.699 61.1428 338.68 63.4225 336.266L84.6771 413.673Z" fill="#456E81"/>
<path d="M84.0126 411.241C70.2985 406.302 61.2255 388.385 58.371 371.294C56.6478 360.952 56.4254 349.989 64.0312 338.355L84.0126 411.241Z" fill="#7C4E3D"/>
<path d="M193.344 381.246C176.094 376.324 164.682 358.467 161.091 341.432C158.924 331.125 165.035 319.29 174.602 307.695L193.344 381.246Z" fill="#2D1B14"/>
<path d="M68.3313 233.621C68.3313 233.621 58.9067 232.316 57.8918 230.648C56.9493 228.981 58.7617 222.746 83.0481 217.237C74.131 208.247 63.6915 197.952 62.0241 196.068C60.3567 194.183 60.7916 191.283 64.199 190.703C67.6063 190.123 90.6602 185.628 101.607 200.997C111.612 214.989 96.7499 230.648 87.8329 237.608C80.1482 243.625 72.0286 248.99 67.8963 245.655C62.3141 241.16 68.3313 233.621 68.3313 233.621Z" fill="#FF9072"/>
<path fill-rule="evenodd" clip-rule="evenodd" d="M69.5922 234.625L69.5928 234.624L71.3575 232.413L68.5525 232.024L68.5516 232.024L68.5293 232.021L68.4547 232.01C68.3883 232.001 68.2898 231.987 68.1633 231.968C67.9103 231.93 67.5461 231.873 67.1052 231.801C66.2215 231.655 65.0391 231.444 63.8314 231.184C62.6141 230.922 61.415 230.619 60.4804 230.294C60.0108 230.131 59.653 229.977 59.4088 229.843C59.3749 229.824 59.3457 229.807 59.3207 229.792C59.3305 229.693 59.3658 229.532 59.4735 229.298C59.7376 228.725 60.409 227.815 61.9581 226.686C65.066 224.422 71.3386 221.546 83.4047 218.808L86.2394 218.165L84.1923 216.102C80.7518 212.633 77.1071 208.992 73.8291 205.718C68.5579 200.452 64.2345 196.134 63.2312 195C62.7002 194.399 62.6201 193.778 62.7454 193.381C62.8483 193.055 63.2125 192.506 64.4694 192.292C64.5614 192.276 64.6669 192.258 64.7855 192.237C66.8729 191.874 72.9953 190.809 79.9218 191.473C87.2516 192.177 95.2049 194.787 100.294 201.932L100.296 201.935C104.809 208.246 103.809 214.947 100.402 221.165C96.9719 227.427 91.2173 232.922 86.8412 236.338L86.8392 236.339C83.0035 239.343 79.1718 242.091 75.8373 243.685C74.1706 244.481 72.726 244.941 71.5335 245.045C70.3715 245.147 69.5374 244.909 68.9085 244.401L68.9071 244.4C67.8235 243.527 67.3566 242.568 67.1995 241.616C67.035 240.62 67.197 239.531 67.5511 238.457C67.9029 237.39 68.4157 236.423 68.852 235.712C69.0679 235.36 69.2598 235.08 69.3948 234.891C69.4622 234.796 69.5151 234.725 69.5493 234.68C69.5607 234.665 69.57 234.653 69.5771 234.644C69.5806 234.64 69.5835 234.636 69.5859 234.633L69.591 234.626L69.5922 234.625ZM101.607 200.997C90.9564 186.044 68.8448 189.894 64.518 190.648C64.3977 190.669 64.2911 190.687 64.199 190.703C60.7916 191.283 60.3567 194.183 62.0241 196.068C63.059 197.237 67.4732 201.647 72.8053 206.974C75.6379 209.803 78.7295 212.892 81.7112 215.89C82.1597 216.342 82.6058 216.791 83.0481 217.237C82.4184 217.379 81.8038 217.523 81.204 217.667C58.6696 223.067 56.9737 229.024 57.8918 230.648C58.626 231.855 63.7619 232.871 66.5463 233.341C67.6106 233.521 68.3313 233.621 68.3313 233.621C68.3313 233.621 67.8792 234.187 67.3378 235.102C65.904 237.525 63.8442 242.393 67.8963 245.655C72.0286 248.99 80.1482 243.625 87.8329 237.608C96.7499 230.648 111.612 214.989 101.607 200.997Z" fill="url(#paint60_radial)"/>
<g opacity="0.5">
<path d="M59.9502 231.332C60.9055 232.868 70.5146 233.864 70.5146 233.864C67.1541 237.694 66.0569 241.783 66.4423 244.096C63.5519 239.728 68.3313 233.62 68.3313 233.62C68.3313 233.62 58.9067 232.315 57.8918 230.648C56.9785 229.032 58.652 223.128 80.8526 217.751C60.2837 224.042 58.9809 229.796 59.9502 231.332Z" fill="#FF644E"/>
<path d="M83.0511 217.237C76.6885 210.824 70.234 204.5 63.9128 198.046C70.5984 204.275 77.6989 210.016 84.4542 216.153C84.6884 216.366 84.5975 216.758 84.2953 216.852C83.8476 216.991 83.3561 217.148 83.0511 217.237Z" fill="#FF644E"/>
</g>
<path opacity="0.5" fill-rule="evenodd" clip-rule="evenodd" d="M67.3498 235.104C66.9816 235.731 66.5705 236.522 66.2307 237.403C65.4434 239.446 65.0393 241.976 66.4423 244.096C66.1967 242.622 66.5533 240.426 67.7146 238.035C68.1409 237.158 68.6757 236.254 69.3289 235.35C69.6878 234.853 70.0825 234.356 70.5146 233.864C70.5146 233.864 70.407 233.852 70.2133 233.831C69.8874 233.794 69.3179 233.727 68.6082 233.633C68.5191 233.621 68.4279 233.609 68.3346 233.596C68.3209 233.595 68.3072 233.593 68.2934 233.591C67.7652 233.519 67.1744 233.433 66.5574 233.335C66.2424 233.285 65.9206 233.231 65.5968 233.175C64.963 233.06 64.2651 232.925 63.5553 232.773C61.7939 232.379 60.2981 231.891 59.9502 231.332C59.765 231.038 59.6627 230.591 59.7621 230.015C59.9054 229.183 60.4691 228.084 61.81 226.795C64.4 224.304 69.89 221.104 80.8526 217.751C69.8257 220.422 63.8629 223.223 60.7659 225.563C57.6277 227.935 57.4321 229.835 57.8918 230.648C57.9493 230.742 58.0337 230.836 58.1419 230.928C58.432 231.174 58.8928 231.411 59.4618 231.635C59.4633 231.636 59.4648 231.636 59.4664 231.637C60.574 232.073 62.0901 232.459 63.5553 232.773C64.214 232.92 64.9099 233.055 65.5968 233.175C65.9365 233.236 66.2578 233.292 66.5527 233.342C67.6134 233.521 68.3313 233.62 68.3313 233.62C68.3313 233.62 67.8916 234.182 67.3596 235.087C67.3563 235.093 67.3531 235.098 67.3498 235.104ZM83.6161 215.396C83.6106 215.391 83.6051 215.386 83.5996 215.381C83.2326 215.05 82.8648 214.721 82.4961 214.393C80.0805 212.241 77.6308 210.129 75.1807 208.017L75.1807 208.017L75.1807 208.017L75.1806 208.017C71.3835 204.743 67.5855 201.468 63.9128 198.046C67.6589 201.871 71.4519 205.65 75.2448 209.429L75.2449 209.429L75.245 209.429C77.2952 211.472 79.3454 213.514 81.3881 215.564C81.9431 216.121 82.4974 216.679 83.0511 217.237C83.097 217.223 83.1472 217.208 83.2007 217.192C83.2076 217.19 83.2144 217.188 83.2214 217.186C83.3438 217.149 83.4832 217.106 83.6305 217.06C83.72 217.032 83.8125 217.003 83.9059 216.974C84.0357 216.933 84.1673 216.892 84.2953 216.852C84.5975 216.758 84.6884 216.366 84.4542 216.153C84.2799 215.995 84.1053 215.837 83.9306 215.679C83.8258 215.585 83.721 215.49 83.6161 215.396Z" fill="url(#paint61_radial)"/>
<path d="M143.985 243.838C154.641 265.885 136.328 303.375 112.332 310.045C104.922 312.005 101.339 312.923 95.8067 314.236C80.5099 318.224 82.1773 309.234 84.9322 302.202C88.557 292.85 72.3178 292.197 65.4306 274.001C48.6839 229.633 120.152 197.587 143.985 243.838Z" fill="url(#paint62_linear)"/>
<path fill-rule="evenodd" clip-rule="evenodd" d="M95.8067 314.236C101.339 312.923 104.922 312.005 112.332 310.045C136.328 303.375 154.641 265.885 143.985 243.838C120.152 197.587 48.6839 229.633 65.4306 274.001C68.899 283.165 74.7392 287.879 79.2198 291.496C83.6362 295.061 86.7316 297.56 84.9322 302.202C82.1773 309.234 80.5099 318.224 95.8067 314.236ZM66.9383 273.431C58.9699 252.319 71.8769 233.986 90.1077 226.426C108.282 218.89 131.099 222.373 142.543 244.557C147.563 254.964 145.83 269.288 139.701 282.008C133.574 294.723 123.299 305.32 111.909 308.489C104.512 310.446 100.945 311.36 95.4344 312.668L95.4172 312.672L95.4001 312.677C91.6739 313.648 89.187 313.769 87.5841 313.447C86.0765 313.144 85.4133 312.474 85.0764 311.705C84.6868 310.815 84.6229 309.529 84.9063 307.883C85.1843 306.269 85.7612 304.504 86.4329 302.79L86.435 302.784C86.9644 301.419 87.1647 300.12 87.0183 298.865C86.8719 297.609 86.391 296.504 85.7189 295.508C84.4766 293.666 82.4426 292.025 80.3586 290.344C80.2844 290.284 80.2101 290.224 80.1358 290.164C75.6981 286.581 70.2189 282.098 66.9383 273.431Z" fill="url(#paint63_radial)"/>
<g style="mix-blend-mode:multiply">
<path fill-rule="evenodd" clip-rule="evenodd" d="M126.182 306.671L147.046 301.614C147.09 301.85 147.127 302.091 147.157 302.338C147.844 308.007 148.669 313.969 149.805 318.922C150.073 320.015 150.692 321.768 153.968 321.107C157.899 320.314 159.405 321.141 160.164 323.114C160.99 325.378 159.203 327.735 156.861 328.85C154.591 329.965 151.453 330.991 147.541 330.842C145.149 330.795 142.933 329.157 142.255 326.75C140.219 319.677 139.548 315.706 138.665 308.945C138.348 306.618 137.637 306.093 136.019 305.759C134.576 305.461 130.012 305.959 126.182 306.671Z" fill="#6493A8"/>
</g>
<g style="mix-blend-mode:multiply">
<path fill-rule="evenodd" clip-rule="evenodd" d="M96.832 313.785L122.874 307.473C122.928 307.741 122.972 308.017 123.006 308.299C123.692 313.969 125.042 320.564 126.177 325.517C126.446 326.61 127.064 328.362 130.34 327.701C134.271 326.908 135.778 327.735 136.537 329.708C137.362 331.972 136.382 334.192 134.04 335.306C131.77 336.422 127.47 337.562 123.557 337.413C121.165 337.366 118.12 335.606 117.443 333.199C116.235 327.787 115.77 323.885 115.231 319.371C115.059 317.928 114.879 316.422 114.665 314.785C114.348 312.458 113.512 311.771 111.302 311.9C109.092 312.028 103.029 312.517 98.7124 313.621C97.9842 313.793 97.3594 313.84 96.832 313.785Z" fill="#6493A8"/>
</g>
<path opacity="0.37" d="M114.555 284.509C133.57 279.372 145.353 261.765 140.873 245.183C136.394 228.6 117.348 219.322 98.3324 224.459C79.3172 229.596 67.5338 247.203 72.0134 263.785C76.4931 280.367 95.5394 289.645 114.555 284.509Z" fill="#FFAC92"/>
<path opacity="0.5" fill-rule="evenodd" clip-rule="evenodd" d="M116.299 227.485C116.893 225.806 118.735 224.927 120.413 225.521C125.089 227.175 128.885 229.35 132.59 232.658C133.918 233.844 134.034 235.881 132.848 237.209C131.663 238.537 129.625 238.653 128.297 237.467C125.259 234.755 122.204 232.993 118.263 231.598C116.585 231.005 115.705 229.163 116.299 227.485Z" fill="url(#paint64_linear)"/>
<path d="M150.418 330.329C148.026 330.282 145.811 328.644 145.133 326.238C143.096 319.164 142.046 313.56 141.163 306.799C140.847 304.473 139.853 303.366 138.031 303.837C133.368 304.979 128.631 306.191 125.645 306.858C119.672 308.263 120.745 301.613 125.521 298.371C128.387 296.47 132.515 292.998 141.633 293.974C146.264 294.428 149.473 297.173 150.035 301.825C150.721 307.494 151.547 313.456 152.682 318.409C152.951 319.502 153.569 321.255 156.845 320.594C160.776 319.801 162.283 320.628 163.042 322.601C163.867 324.865 162.081 327.222 159.739 328.337C157.469 329.452 154.331 330.478 150.418 330.329Z" fill="#FF7D64"/>
<path d="M145.133 326.237C145.811 328.643 148.026 330.282 150.418 330.329C154.331 330.478 157.469 329.452 159.739 328.336C161.66 327.422 163.208 325.67 163.246 323.82C162.66 324.977 161.561 325.99 160.285 326.631C158.039 327.794 154.924 328.886 151.009 328.82C148.616 328.823 146.366 327.232 145.638 324.841C143.452 317.812 142.216 313.494 141.191 306.753C141.018 305.66 140.701 304.841 140.225 304.333C140.704 304.849 141.011 305.684 141.163 306.799C142.046 313.56 143.096 319.163 145.133 326.237Z" fill="#FA6E52"/>
<path d="M110.912 285.612C127.592 281.106 137.953 265.755 134.054 251.325C130.156 236.894 113.474 228.849 96.7952 233.355C80.1159 237.86 69.755 253.211 73.6533 267.642C77.5517 282.072 94.2331 290.118 110.912 285.612Z" fill="#F4533D"/>
<path fill-rule="evenodd" clip-rule="evenodd" d="M139.62 281.102C141.188 277.848 134.528 275.426 131.73 277.711C127.232 281.383 121.805 284.233 115.693 285.884C94.7038 291.554 73.5816 280.948 68.5153 262.194C67.7806 259.474 63.3404 258.461 63.2551 261.277C63.1289 265.44 63.8024 269.742 65.4395 274.081C69.3654 283.694 74.7051 287.925 79.0226 291.347C81.063 292.963 82.8752 294.399 84.2019 296.137C86.3714 299.353 85.3522 302.056 84.3222 304.787C83.3416 307.387 82.3511 310.014 84.0929 313.134C86.8233 316.731 92.6242 315.229 104.545 312.142C106.758 311.569 109.182 310.942 111.837 310.282C123.557 307.25 133.383 294.046 139.62 281.102Z" fill="url(#paint65_linear)"/>
<path d="M87.8447 315.123C84.8225 312.964 85.8591 307.794 87.3504 303.355C88.919 298.63 85.7044 296.287 81.1177 292.943C80.7487 292.674 80.3708 292.399 79.9858 292.115C83.9844 295.363 86.6266 297.833 84.9331 302.202C82.8016 307.643 81.3212 314.256 87.8447 315.123Z" fill="#F4533D"/>
<path d="M112.347 282.62C128.35 278.297 138.258 263.449 134.478 249.457C130.698 235.464 114.661 227.625 98.6587 231.948C82.6562 236.271 72.7479 251.119 76.528 265.112C80.308 279.104 96.3449 286.943 112.347 282.62Z" fill="#D7DBF0"/>
<path d="M107.761 262.626C119.411 265.324 130.354 261.04 132.203 253.056C134.053 245.073 126.108 236.414 114.458 233.715C102.808 231.017 91.8647 235.301 90.0155 243.284C88.1663 251.268 96.1113 259.927 107.761 262.626Z" fill="#E6E9F6"/>
<path d="M125.295 336.255C122.907 335.998 120.835 334.151 120.367 331.751C118.963 324.55 118.403 318.885 118.227 311.994C118.12 309.672 117.481 308.864 115.661 309.341C111.001 310.497 106.268 311.724 103.284 312.4C97.315 313.824 98.3673 307.171 103.134 303.914C105.993 302.004 110.111 298.519 119.231 299.467C123.864 299.906 127.364 303.154 127.505 307.796C127.7 313.528 127.963 319.55 128.678 324.565C128.805 325.654 129.283 327.475 132.623 327.167C136.618 326.726 138.053 327.692 138.599 329.731C139.213 332.062 137.22 334.204 134.813 335.107C132.476 336.083 129.202 336.754 125.295 336.255Z" fill="url(#paint66_linear)"/>
<path d="M121.62 330.854C122.25 333.217 124.443 334.919 126.844 335.012C130.638 335.237 135.785 334.567 138.561 331.588C138.087 333.145 136.559 334.452 134.813 335.107C132.476 336.084 129.203 336.755 125.296 336.255C122.907 335.998 120.835 334.151 120.367 331.751C118.98 324.637 118.417 319.023 118.234 312.244C118.877 318.68 119.818 324.097 121.62 330.854Z" fill="#F75E49"/>
<path d="M130.333 266.46C130.685 265.785 129.953 265.104 129.269 265.438C116.272 271.776 96.0737 273.905 87.6672 256.315C85.7104 252.22 79.669 251.145 78.7235 255.584C78.0686 258.658 78.0407 261.662 78.689 264.657C82.1847 277.597 97.0152 284.846 111.814 280.848C120.255 278.568 126.863 273.121 130.333 266.46Z" fill="#C1C5E5"/>
<path d="M87.3047 262.28C86.5108 259.818 87.8636 257.178 90.3261 256.384C92.7887 255.59 95.4285 256.943 96.2223 259.405C97.0161 261.868 95.6634 264.508 93.2008 265.302C90.7383 266.095 88.0985 264.743 87.3047 262.28Z" fill="#A7ABD3"/>
<path d="M92.5724 264.779C90.2212 265.116 88.0417 263.484 87.7044 261.133C87.367 258.781 88.9996 256.602 91.3507 256.265C93.7019 255.927 95.8814 257.56 96.2187 259.911C96.5561 262.262 94.9236 264.442 92.5724 264.779Z" fill="#3B4965"/>
<path d="M92.4401 259.995C91.4113 259.402 90.9036 258.355 91.3061 257.657C91.7086 256.959 92.869 256.874 93.8979 257.467C94.9267 258.06 95.4344 259.107 95.0319 259.805C94.6293 260.503 93.469 260.588 92.4401 259.995Z" fill="#40578C"/>
<path d="M93.1383 258.823C92.7341 258.59 92.5267 258.193 92.675 257.936C92.8233 257.679 93.2712 257.659 93.6754 257.892C94.0796 258.125 94.287 258.522 94.1387 258.78C93.9904 259.037 93.5425 259.056 93.1383 258.823Z" fill="#9FB1D5"/>
<path d="M94.4617 261.182C94.8753 261.184 95.2305 261.457 95.0575 261.856C94.6532 262.923 93.6511 263.731 92.3953 263.897C90.5116 264.145 88.8631 262.896 88.5438 261.041C88.3917 260.027 88.7527 259.059 89.298 258.349C89.5988 258.065 90.097 258.281 90.2661 258.71C90.548 259.424 91.2434 260.141 92.0968 260.629C92.8939 260.975 93.7342 261.222 94.4617 261.182Z" fill="#2B3956"/>
<path d="M123.282 253.083C122.488 250.62 123.841 247.981 126.303 247.187C128.766 246.393 131.406 247.746 132.199 250.208C132.993 252.671 131.64 255.311 129.178 256.104C126.715 256.898 124.076 255.545 123.282 253.083Z" fill="#A7ABD3"/>
<path d="M128.549 255.582C126.198 255.919 124.019 254.287 123.681 251.935C123.344 249.584 124.977 247.405 127.328 247.067C129.679 246.73 131.858 248.363 132.196 250.714C132.533 253.065 130.901 255.244 128.549 255.582Z" fill="#3B4965"/>
<path d="M128.417 250.798C127.388 250.205 126.881 249.158 127.283 248.46C127.686 247.761 128.846 247.676 129.875 248.27C130.904 248.863 131.411 249.91 131.009 250.608C130.606 251.306 129.446 251.391 128.417 250.798Z" fill="#40578C"/>
<path d="M129.115 249.626C128.711 249.393 128.504 248.996 128.652 248.738C128.8 248.481 129.248 248.462 129.652 248.695C130.057 248.928 130.264 249.325 130.116 249.582C129.967 249.84 129.52 249.859 129.115 249.626Z" fill="#9FB1D5"/>
<path d="M130.439 251.985C130.852 251.987 131.208 252.26 131.035 252.658C130.63 253.726 129.628 254.534 128.372 254.699C126.489 254.947 124.84 253.699 124.521 251.843C124.369 250.83 124.73 249.862 125.275 249.151C125.576 248.868 126.074 249.084 126.243 249.513C126.525 250.227 127.22 250.943 128.074 251.432C128.871 251.778 129.711 252.025 130.439 251.985Z" fill="#2B3956"/>
<path opacity="0.5" fill-rule="evenodd" clip-rule="evenodd" d="M85.1775 195.819C85.8959 194.19 87.7987 193.452 89.4276 194.17C94.7962 196.538 98.8092 199.959 101.012 204.074C103.249 208.252 103.494 212.939 101.623 217.349C100.927 218.988 99.0351 219.753 97.3963 219.057C95.7574 218.362 94.9925 216.47 95.6878 214.831C96.7879 212.238 96.6552 209.595 95.3283 207.116C93.9675 204.574 91.2308 202.012 86.8261 200.069C85.1973 199.351 84.4592 197.448 85.1775 195.819Z" fill="url(#paint67_linear)"/>
<path d="M501.732 340.402C523.824 340.402 541.732 322.493 541.732 300.402L541.732 177C541.732 154.909 523.824 137 501.732 137L394.675 137C372.584 137 354.675 154.909 354.675 177L354.675 300.402C354.675 322.493 372.584 340.402 394.675 340.402L501.732 340.402Z" fill="#666AF7"/>
<g style="mix-blend-mode:multiply" opacity="0.35" filter="url(#filter1_f)">
<path d="M462.091 297.059C471.711 295.577 481.592 293.918 491.324 293.608C502.241 293.26 512.703 291.537 512.703 288.881C512.703 286.344 501.886 284.406 491.56 283.962C481.954 283.549 472.107 282.738 462.631 281.126C446.788 278.432 427.757 278.687 413.303 281.589C406.375 282.98 399.332 284.039 392.263 284.159C380.024 284.366 370.826 286.349 369.501 288.579C368.111 290.919 378.899 293.342 393.078 293.501C399.417 293.572 405.739 294.406 411.944 295.69C427.824 298.976 447.655 299.283 462.091 297.059Z" fill="#395590"/>
</g>
<path d="M410.634 280.074L410.546 283.888C410.546 288.082 404.85 291.729 397.706 292.536C389.472 293.488 381.857 290.294 380.462 285.346C380.282 284.712 380.285 284.086 380.285 283.37L380.344 279.884C380.344 280.53 380.4 280.837 380.564 281.544C381.96 286.493 389.81 289.674 398.043 288.722C405.187 287.915 410.267 284.257 410.634 280.074Z" fill="url(#paint68_linear)"/>
<path d="M392.965 270.953C401.198 270.001 409.022 273.195 410.418 278.144C411.813 283.092 406.279 287.852 398.004 288.767C389.771 289.719 381.947 286.525 380.551 281.576C379.156 276.628 384.732 271.905 392.965 270.953Z" fill="url(#paint69_linear)"/>
<path fill-rule="evenodd" clip-rule="evenodd" d="M397.933 288.154L397.936 288.153C401.982 287.706 405.308 286.323 407.435 284.499C409.558 282.68 410.436 280.485 409.823 278.311C409.199 276.095 407.094 274.169 404.021 272.906C400.967 271.652 397.058 271.101 393.036 271.566C389.009 272.032 385.682 273.415 383.548 275.236C381.419 277.052 380.534 279.238 381.146 281.409C381.77 283.625 383.875 285.551 386.948 286.814C390.002 288.068 393.911 288.619 397.933 288.154ZM410.418 278.144C409.022 273.195 401.198 270.001 392.965 270.953C384.732 271.905 379.156 276.628 380.551 281.576C381.947 286.525 389.771 289.719 398.004 288.767C406.279 287.852 411.813 283.092 410.418 278.144Z" fill="url(#paint70_linear)"/>
<path d="M393.864 274.119C399.192 273.527 405.43 275.755 406.29 278.966C407.19 282.133 402.474 285.045 397.146 285.637C391.818 286.229 385.517 283.986 384.617 280.819C383.676 277.616 388.536 274.712 393.864 274.119Z" fill="#C27025"/>
<path d="M393.943 274.648C399.115 274.073 405.17 276.236 406.004 279.353C406.877 282.426 402.3 285.253 397.128 285.828C391.956 286.402 385.84 284.225 384.967 281.151C384.054 278.042 388.771 275.223 393.943 274.648Z" fill="url(#paint71_linear)"/>
<path d="M410.634 273.421L410.546 277.234C410.546 281.428 404.85 285.075 397.706 285.882C389.472 286.834 381.857 283.641 380.462 278.692C380.282 278.058 380.285 277.432 380.285 276.716L380.344 273.231C380.344 273.876 380.4 274.184 380.564 274.891C381.96 279.839 389.81 283.021 398.043 282.069C405.187 281.262 410.267 277.603 410.634 273.421Z" fill="url(#paint72_linear)"/>
<path d="M392.965 264.299C401.198 263.347 409.022 266.541 410.418 271.49C411.813 276.439 406.279 281.198 398.004 282.113C389.771 283.065 381.947 279.871 380.551 274.923C379.156 269.974 384.732 265.251 392.965 264.299Z" fill="url(#paint73_linear)"/>
<path fill-rule="evenodd" clip-rule="evenodd" d="M397.933 281.5L397.936 281.5C401.982 281.052 405.308 279.669 407.435 277.845C409.558 276.026 410.436 273.831 409.823 271.657C409.199 269.441 407.094 267.515 404.021 266.253C400.967 264.998 397.058 264.447 393.036 264.912C389.009 265.378 385.682 266.762 383.548 268.582C381.419 270.398 380.534 272.584 381.146 274.755C381.77 276.971 383.875 278.897 386.948 280.16C390.002 281.415 393.911 281.965 397.933 281.5ZM410.418 271.49C409.022 266.541 401.198 263.347 392.965 264.299C384.732 265.251 379.156 269.974 380.551 274.923C381.947 279.871 389.771 283.065 398.004 282.113C406.279 281.198 411.813 276.439 410.418 271.49Z" fill="url(#paint74_linear)"/>
<path d="M393.864 267.466C399.192 266.873 405.43 269.101 406.29 272.312C407.19 275.479 402.474 278.391 397.146 278.983C391.818 279.575 385.517 277.332 384.617 274.165C383.676 270.962 388.536 268.058 393.864 267.466Z" fill="#C27025"/>
<path d="M393.942 267.993C399.114 267.418 405.169 269.581 406.004 272.698C406.877 275.772 402.299 278.598 397.128 279.173C391.956 279.748 385.839 277.57 384.966 274.497C384.053 271.387 388.771 268.568 393.942 267.993Z" fill="url(#paint75_linear)"/>
<path d="M410.635 267.341L410.547 271.155C410.547 275.349 404.85 278.996 397.706 279.803C389.473 280.755 381.858 277.561 380.463 272.613C380.283 271.979 380.285 271.353 380.285 270.637L380.345 267.151C380.345 267.797 380.401 268.104 380.565 268.811C381.96 273.76 389.811 276.942 398.044 275.989C405.188 275.183 410.267 271.524 410.635 267.341Z" fill="url(#paint76_linear)"/>
<path d="M392.965 258.22C401.198 257.268 409.022 260.461 410.417 265.41C411.812 270.359 406.278 275.118 398.003 276.034C389.77 276.986 381.946 273.792 380.551 268.843C379.156 263.894 384.731 259.172 392.965 258.22Z" fill="url(#paint77_linear)"/>
<path fill-rule="evenodd" clip-rule="evenodd" d="M397.932 275.42L397.935 275.42C401.981 274.972 405.307 273.589 407.435 271.766C409.558 269.946 410.436 267.751 409.823 265.578C409.198 263.362 407.093 261.436 404.021 260.173C400.966 258.918 397.058 258.368 393.036 258.833C389.009 259.298 385.682 260.682 383.548 262.502C381.419 264.319 380.533 266.504 381.145 268.676C381.77 270.891 383.875 272.818 386.947 274.08C390.002 275.335 393.91 275.886 397.932 275.42ZM410.417 265.41C409.022 260.461 401.198 257.268 392.965 258.22C384.731 259.172 379.156 263.894 380.551 268.843C381.946 273.792 389.77 276.986 398.003 276.034C406.278 275.118 411.812 270.359 410.417 265.41Z" fill="url(#paint78_linear)"/>
<path d="M393.865 261.386C399.193 260.794 405.431 263.022 406.291 266.233C407.191 269.399 402.475 272.311 397.147 272.903C391.819 273.496 385.518 271.252 384.618 268.086C383.677 264.883 388.537 261.978 393.865 261.386Z" fill="#C27025"/>
<path d="M393.942 261.914C399.114 261.339 405.169 263.502 406.004 266.618C406.877 269.692 402.299 272.518 397.128 273.093C391.956 273.668 385.839 271.491 384.966 268.417C384.053 265.308 388.771 262.488 393.942 261.914Z" fill="url(#paint79_linear)"/>
<path d="M410.635 261.262L410.547 265.076C410.547 269.27 404.85 272.917 397.706 273.724C389.473 274.676 381.858 271.482 380.463 266.534C380.283 265.9 380.285 265.274 380.285 264.558L380.345 261.072C380.345 261.718 380.401 262.025 380.565 262.732C381.96 267.681 389.811 270.862 398.044 269.91C405.188 269.103 410.267 265.445 410.635 261.262Z" fill="url(#paint80_linear)"/>
<path d="M392.965 252.141C401.198 251.188 409.022 254.382 410.418 259.331C411.813 264.28 406.279 269.039 398.004 269.954C389.771 270.907 381.947 267.713 380.551 262.764C379.156 257.815 384.732 253.093 392.965 252.141Z" fill="url(#paint81_linear)"/>
<path fill-rule="evenodd" clip-rule="evenodd" d="M397.933 269.341L397.936 269.341C401.982 268.893 405.308 267.51 407.435 265.687C409.558 263.867 410.436 261.672 409.823 259.499C409.199 257.283 407.094 255.356 404.021 254.094C400.967 252.839 397.058 252.289 393.036 252.754C389.009 253.219 385.682 254.603 383.548 256.423C381.419 258.239 380.534 260.425 381.146 262.596C381.77 264.812 383.875 266.739 386.948 268.001C390.002 269.256 393.911 269.806 397.933 269.341ZM410.418 259.331C409.022 254.382 401.198 251.188 392.965 252.141C384.732 253.093 379.156 257.815 380.551 262.764C381.947 267.713 389.771 270.907 398.004 269.954C406.279 269.039 411.813 264.28 410.418 259.331Z" fill="url(#paint82_linear)"/>
<path d="M393.865 255.307C399.193 254.715 405.431 256.943 406.291 260.154C407.191 263.32 402.475 266.232 397.147 266.824C391.819 267.417 385.518 265.173 384.618 262.007C383.677 258.803 388.537 255.899 393.865 255.307Z" fill="#C27025"/>
<path d="M393.942 255.835C399.114 255.26 405.169 257.423 406.004 260.54C406.877 263.613 402.299 266.44 397.128 267.015C391.956 267.589 385.839 265.412 384.966 262.338C384.053 259.229 388.771 256.41 393.942 255.835Z" fill="url(#paint83_linear)"/>
<path d="M443.914 281.977C444.263 279.371 445.771 274.2 446.806 271.55C449.821 264.268 436.325 259.402 433.083 266.857C431.625 270.131 430.985 276.438 431.531 279.98C432.206 284.083 443.543 285.26 443.914 281.977Z" fill="#D4DCF1"/>
<path d="M463.745 283.497C464.094 280.891 465.602 275.72 466.637 273.07C469.652 265.788 456.156 260.921 452.914 268.377C451.456 271.65 450.816 277.958 451.362 281.5C452.037 285.603 463.374 286.78 463.745 283.497Z" fill="#A6ABD3"/>
<path d="M490.142 287.502C490.491 284.896 491.999 279.725 493.034 277.075C496.049 269.793 482.553 264.927 479.311 272.382C477.853 275.656 477.213 281.963 477.759 285.505C478.434 289.608 489.771 290.785 490.142 287.502Z" fill="#A6ABD3"/>
<path d="M489.385 287.004C489.64 285.094 490.746 281.305 491.504 279.362C493.714 274.026 483.823 270.459 481.447 275.923C480.378 278.322 479.909 282.945 480.31 285.54C480.804 288.547 489.113 289.41 489.385 287.004Z" fill="#C1C5E5"/>
<path fill-rule="evenodd" clip-rule="evenodd" d="M444.457 279.242C445.084 276.629 446.066 273.445 446.806 271.55C449.821 264.268 436.325 259.402 433.083 266.857C432.394 268.404 431.887 270.629 431.603 272.919C435.272 275.495 439.551 277.651 444.457 279.242Z" fill="#C1C5E5"/>
<path d="M471.447 289.742C471.795 287.136 473.09 281.528 474.552 278.732C478.142 271.731 463.924 267.176 460.607 274.689C459.148 277.963 458.508 284.27 459.055 287.812C459.672 291.839 471.084 292.958 471.447 289.742Z" fill="#D4DCF1"/>
<path d="M421.361 236.587C419.685 256.223 433.302 277.973 464.466 280.919C499.055 284.187 521.23 264.847 515.584 232.329C512.701 215.756 496.122 203.948 490.266 189.766C488.259 184.94 484.22 183.108 479.06 186.09C454.41 200.542 424.457 199.731 421.361 236.587Z" fill="#D4DCF1"/>
<path d="M499.89 241.011C507.471 232.213 504.131 216.908 492.43 206.826C480.729 196.743 465.098 195.702 457.517 204.5C449.936 213.298 453.277 228.603 464.978 238.686C476.679 248.768 492.31 249.809 499.89 241.011Z" fill="#E6E9F6"/>
<path fill-rule="evenodd" clip-rule="evenodd" d="M444.215 221.931L444.215 221.929C444.754 214.848 446.811 209.73 449.833 205.836C452.86 201.937 456.945 199.148 461.757 196.851C461.905 196.781 461.826 196.617 461.674 196.678C461.421 196.779 461.169 196.881 460.917 196.982C460.571 197.12 460.226 197.258 459.883 197.395C453.898 199.789 448.266 202.042 443.237 204.893C437.955 207.887 433.453 211.481 430.075 216.446C426.702 221.403 424.349 227.875 423.602 236.776L423.601 236.779C422.036 255.128 434.684 275.846 464.678 278.681C481.549 280.275 495.031 276.324 503.586 268.395C509.214 263.179 502.054 255.931 494.391 256.336C490.751 256.528 486.861 256.43 482.746 256.019C455.08 253.253 443.083 236.529 444.215 221.931Z" fill="#C1C5E5"/>
<path d="M497.044 247.127C499.248 236.816 485.295 225.095 465.88 220.946C446.466 216.797 428.941 221.792 426.738 232.103C424.535 242.414 438.487 254.135 457.902 258.284C477.316 262.433 494.841 257.437 497.044 247.127Z" fill="#A6ABD3"/>
<path d="M497.272 246.059C499.349 236.338 485.479 225.134 466.292 221.034C447.104 216.934 429.866 221.49 427.789 231.211C425.711 240.932 439.582 252.137 458.769 256.237C477.956 260.337 495.195 255.78 497.272 246.059Z" fill="#FF968A"/>
<path d="M493.767 246.397C496.48 240.597 489.058 231.392 477.188 225.839C465.318 220.285 453.495 220.485 450.781 226.285C448.067 232.086 455.49 241.29 467.36 246.844C479.23 252.398 491.053 252.198 493.767 246.397Z" fill="#FFB0A7"/>
<path opacity="0.42" fill-rule="evenodd" clip-rule="evenodd" d="M442.77 221.951C443.782 221.706 444.683 222.599 444.623 223.638C443.856 236.797 456.855 249.941 475.215 253.864C476.763 254.195 476.85 256.253 475.271 256.357C470.312 256.683 464.76 256.286 459.021 255.06C441.117 251.234 428.174 240.779 430.112 231.708C431.115 227.016 435.903 223.613 442.77 221.951Z" fill="#FF644E"/>
<path d="M435.3 234.62C435.383 232.22 437.396 230.342 439.796 230.426C442.196 230.51 444.074 232.523 443.99 234.923C443.907 237.323 441.893 239.2 439.493 239.117C437.094 239.033 435.216 237.02 435.3 234.62Z" fill="#F4533D"/>
<path d="M439.111 238.462C436.952 238.015 435.565 235.903 436.011 233.744C436.458 231.586 438.571 230.198 440.729 230.645C442.888 231.092 444.276 233.204 443.829 235.363C443.382 237.522 441.27 238.909 439.111 238.462Z" fill="#3B4965"/>
<path d="M440.503 234.245C439.792 233.403 439.679 232.329 440.251 231.846C440.822 231.364 441.862 231.656 442.573 232.498C443.284 233.34 443.397 234.414 442.825 234.897C442.254 235.379 441.214 235.087 440.503 234.245Z" fill="#40578C"/>
<path d="M441.483 233.442C441.203 233.111 441.148 232.698 441.358 232.521C441.569 232.343 441.966 232.467 442.245 232.798C442.525 233.129 442.58 233.541 442.37 233.719C442.159 233.897 441.762 233.772 441.483 233.442Z" fill="#9FB1D5"/>
<path d="M441.894 235.918C442.254 236.05 442.478 236.4 442.202 236.694C441.512 237.498 440.383 237.888 439.234 237.636C437.512 237.258 436.467 235.649 436.773 233.928C436.96 232.996 437.58 232.265 438.28 231.816C438.632 231.663 438.999 232.009 439.011 232.437C439.032 233.149 439.413 233.994 440.004 234.69C440.591 235.243 441.246 235.723 441.894 235.918Z" fill="#2B3956"/>
<path d="M476.464 243.682C476.548 241.282 478.561 239.404 480.961 239.488C483.361 239.572 485.238 241.585 485.155 243.985C485.071 246.385 483.058 248.262 480.658 248.179C478.258 248.095 476.38 246.082 476.464 243.682Z" fill="#F4533D"/>
<path d="M480.274 247.524C478.115 247.077 476.728 244.965 477.175 242.806C477.622 240.648 479.734 239.26 481.893 239.707C484.051 240.154 485.439 242.266 484.992 244.425C484.545 246.584 482.433 247.971 480.274 247.524Z" fill="#3B4965"/>
<path d="M481.668 243.307C480.957 242.465 480.844 241.391 481.415 240.908C481.987 240.426 483.027 240.718 483.738 241.56C484.449 242.402 484.562 243.476 483.99 243.959C483.419 244.441 482.379 244.149 481.668 243.307Z" fill="#40578C"/>
<path d="M482.646 242.504C482.367 242.173 482.311 241.76 482.522 241.583C482.732 241.405 483.129 241.529 483.409 241.86C483.688 242.191 483.744 242.603 483.533 242.781C483.323 242.959 482.926 242.834 482.646 242.504Z" fill="#9FB1D5"/>
<path d="M483.058 244.98C483.418 245.112 483.643 245.462 483.366 245.756C482.676 246.56 481.547 246.95 480.398 246.698C478.676 246.32 477.631 244.711 477.937 242.99C478.124 242.058 478.744 241.327 479.444 240.878C479.796 240.725 480.163 241.071 480.175 241.499C480.196 242.211 480.577 243.056 481.168 243.752C481.755 244.305 482.411 244.785 483.058 244.98Z" fill="#2B3956"/>
<path d="M501.732 373.981C523.824 373.981 541.732 391.89 541.732 413.981L541.732 534.659C541.732 556.75 523.824 574.659 501.732 574.659L394.675 574.659C372.584 574.659 354.675 556.75 354.675 534.659L354.675 413.981C354.675 391.89 372.584 373.981 394.675 373.981L501.732 373.981Z" fill="url(#paint84_linear)"/>
<path d="M423.998 514.845C434.794 535.058 466.447 539.126 487.417 520.191C511.62 498.377 505.508 473.946 491.899 459.532C464.368 430.477 395.215 460.802 423.998 514.845Z" fill="#0C7ADF"/>
<path d="M489.081 541.572C488.291 539.821 486.939 538.691 485.235 538.3C481.398 537.501 478.423 536.629 475.41 535.379C474.564 535.023 473.148 534.159 472.53 533.49C468.62 529.14 465.39 521.271 464.806 518.399C463.61 512.063 452.011 515.842 453.048 522.118C453.952 527.69 458.557 534.808 463.08 539.935C464.827 541.94 467.024 543.426 469.458 544.384C472.901 545.651 475.098 545.793 478.829 546.588C479.949 546.794 481.172 547.112 481.785 550.577C482.587 554.693 483.883 555.874 486.197 555.806C488.725 555.747 490.284 553.068 490.5 550.39C490.663 547.655 490.561 544.856 489.081 541.572Z" fill="#0C7ADF"/>
<path fill-rule="evenodd" clip-rule="evenodd" d="M473.293 536.303C472.898 537.858 472.211 539.233 471.248 540.331C470.325 541.383 469.319 541.855 468.253 541.882C468.76 542.15 469.283 542.39 469.82 542.602C472.104 543.441 473.725 543.739 475.823 544.125L475.823 544.125C476.734 544.292 477.735 544.476 478.919 544.728C479.528 544.841 480.565 545.049 481.47 545.981C482.333 546.871 482.875 548.203 483.206 550.064C483.593 552.043 484.047 552.986 484.446 553.434C484.733 553.757 485.088 553.939 485.908 553.915L485.918 553.915C486.527 553.9 487.102 553.587 487.609 552.886C488.125 552.173 488.483 551.157 488.575 550.083C488.68 547.415 488.569 544.928 487.3 542.058C486.713 540.759 485.776 540.013 484.634 539.746C480.778 538.943 477.738 538.21 474.324 536.841L474.31 536.836L474.296 536.83C473.971 536.693 473.628 536.51 473.293 536.303Z" fill="#2069D4"/>
<path d="M485.902 545.44C486.939 546.565 486.144 552.3 485.102 553.261C484.06 554.222 483.647 552.738 482.494 547.552C482.838 548.227 483.463 548.345 483.859 547.741C484.607 546.574 484.864 544.316 485.902 545.44Z" fill="#0C7ADF"/>
<path d="M518.86 524.279C518.07 522.528 516.719 521.398 515.014 521.007C511.177 520.208 508.249 519.499 504.97 518.185C504.125 517.828 502.871 516.918 502.309 516.197C498.4 511.847 495.169 503.978 494.586 501.106C493.39 494.77 481.79 498.549 482.827 504.825C483.732 510.397 488.336 517.516 492.859 522.642C494.606 524.647 496.804 526.133 499.237 527.091C502.68 528.358 504.878 528.5 508.608 529.295C509.728 529.501 510.952 529.819 511.565 533.284C512.366 537.4 513.662 538.581 515.976 538.513C518.505 538.454 520.064 535.775 520.279 533.097C520.391 530.307 520.289 527.508 518.86 524.279Z" fill="#0C7ADF"/>
<path fill-rule="evenodd" clip-rule="evenodd" d="M502.458 518.633C502.287 519.431 502.005 520.2 501.605 520.944C500.378 523.226 498.812 524.163 496.977 524.025C497.87 524.618 498.829 525.115 499.838 525.513C502.122 526.353 503.743 526.651 505.841 527.036L505.841 527.036C506.752 527.204 507.752 527.388 508.936 527.639C509.545 527.752 510.582 527.96 511.487 528.892C512.351 529.782 512.893 531.114 513.224 532.975C513.61 534.954 514.065 535.898 514.464 536.346C514.751 536.668 515.106 536.85 515.926 536.826L515.936 536.826C516.544 536.811 517.119 536.498 517.627 535.797C518.143 535.085 518.501 534.068 518.592 532.994C518.698 530.326 518.587 527.839 517.318 524.969C516.731 523.67 515.793 522.924 514.651 522.657C510.796 521.854 507.756 521.121 504.341 519.753L504.327 519.747L504.314 519.741C503.727 519.494 503.083 519.096 502.528 518.685C502.505 518.668 502.482 518.651 502.458 518.633Z" fill="#2069D4"/>
<path d="M515.89 528.167C516.955 529.265 516.304 535.018 515.287 536.005C514.27 536.992 513.817 536.094 512.479 530.385C512.84 531.05 513.525 531.132 513.905 530.519C514.625 529.334 514.824 527.069 515.89 528.167Z" fill="#0C7ADF"/>
<path d="M432.163 472.541C430.479 482.935 444.608 491.535 461.441 488.661C480.855 485.36 486.296 474.329 484.596 465.613C481.122 448.021 436.706 444.771 432.163 472.541Z" fill="#308CFE"/>
<path d="M499.092 465.979C499.599 450.305 493.08 432.697 487.315 428.534C483.337 425.696 474.319 433.555 477.568 437.108C483.142 442.533 484.935 454.878 485.785 463.521C486.156 472.407 499.293 474.67 499.092 465.979Z" fill="#0C7ADF"/>
<path d="M480.035 434.61C478.522 432.987 475.535 431.379 474.049 431.306C472.563 431.232 471.913 433.018 473.218 433.661C474.522 434.305 476.692 435.817 478.009 437.187C479.326 438.557 481.167 435.985 480.035 434.61Z" fill="#0C7ADF"/>
<path d="M485.064 432.835C482.852 432.662 481.847 433.21 480.31 435.098C477.907 434.175 474.262 435.169 474.934 437.362C475.558 438.99 478.225 437.346 479.746 439.784C482.967 444.966 493.313 434.255 485.064 432.835Z" fill="#0C7ADF"/>
<path d="M481.504 431.363C479.991 429.74 476.654 427.888 475.168 427.815C473.683 427.741 472.881 429.627 474.186 430.271C475.49 430.915 477.812 432.326 479.129 433.696C480.446 435.066 482.636 432.738 481.504 431.363Z" fill="#0C7ADF"/>
<path d="M483.821 429.27C482.592 427.765 479.698 426.137 478.404 425.988C477.11 425.838 476.362 427.354 477.466 427.991C478.569 428.628 480.726 430.117 481.798 431.39C482.871 432.662 484.731 430.536 483.821 429.27Z" fill="#0C7ADF"/>
<path d="M487.601 428.756C486.418 427.74 483.911 425.672 482.577 425.388C481.243 425.104 480.558 426.213 481.35 426.814C482.141 427.416 484.719 428.839 485.746 430.371C486.774 431.902 488.783 429.773 487.601 428.756Z" fill="#0C7ADF"/>
<path d="M475.881 435.329C477.255 434.514 479.333 434.727 480.308 435.094C481.89 433.283 483.686 432.4 486.09 433.073C483.156 431.661 480.908 433.094 480.109 434.288C478.821 434.058 477.184 434.065 475.881 435.329Z" fill="#0063BF"/>
<path d="M423.098 511.887C412.471 511.746 396.303 505.43 392.572 500.407C389.704 496.451 397.495 487.373 401.072 490.596C407.395 496.432 415.684 497.792 421.097 498.042C429.706 498.353 432.897 513.124 423.098 511.887Z" fill="#0C7ADF"/>
<path d="M398.593 493.082C396.958 491.581 395.328 488.606 395.243 487.12C395.158 485.635 396.938 484.972 397.592 486.271C398.246 487.571 399.774 489.73 401.154 491.036C402.534 492.342 399.976 494.203 398.593 493.082Z" fill="#0C7ADF"/>
<path d="M396.855 498.123C396.665 495.912 397.206 494.903 399.081 493.352C398.141 490.956 399.107 487.303 401.305 487.959C402.938 488.571 401.314 491.249 403.764 492.752C408.97 495.934 398.338 506.361 396.855 498.123Z" fill="#0C7ADF"/>
<path d="M395.356 494.574C393.722 493.074 391.844 489.751 391.759 488.266C391.675 486.78 393.555 485.964 394.208 487.264C394.862 488.564 396.291 490.875 397.671 492.181C399.051 493.488 396.74 495.695 395.356 494.574Z" fill="#0C7ADF"/>
<path d="M393.281 496.907C391.767 495.69 390.116 492.808 389.957 491.516C389.798 490.223 391.308 489.464 391.953 490.562C392.599 491.66 394.104 493.807 395.385 494.869C396.666 495.931 394.554 497.808 393.281 496.907Z" fill="#0C7ADF"/>
<path d="M392.796 500.692C391.771 499.517 389.684 497.025 389.39 495.693C389.096 494.362 390.199 493.669 390.807 494.456C391.414 495.243 392.857 497.809 394.396 498.825C395.935 499.841 393.822 501.867 392.796 500.692Z" fill="#0C7ADF"/>
<path d="M399.28 488.921C398.475 490.302 398.704 492.378 399.078 493.351C397.279 494.946 396.41 496.749 397.101 499.148C395.666 496.224 397.083 493.966 398.271 493.158C398.031 491.871 398.025 490.234 399.28 488.921Z" fill="#0063BF"/>
<path fill-rule="evenodd" clip-rule="evenodd" d="M483.135 492.684C465.217 508.892 439.353 506.719 431.214 490.618C427.183 482.619 425.9 475.165 426.623 468.476C418.494 479.463 416.222 494.973 426.042 513.41C436.219 532.465 466.059 536.3 485.828 518.45C503.806 502.246 504.041 484.511 497.056 471.07C495.43 478.063 491.143 485.451 483.135 492.684Z" fill="#2069D5"/>
<path opacity="0.55" d="M477.987 474.798C467.828 462.296 448.971 460.793 435.867 471.441C422.764 482.089 420.377 500.855 430.536 513.357C440.695 525.859 459.553 527.362 472.656 516.714C485.759 506.066 488.146 487.3 477.987 474.798Z" fill="#1749A1"/>
<path d="M472.418 513.876C485.7 503.556 488.441 485.118 478.542 472.694C468.642 460.269 449.851 458.563 436.57 468.883C423.288 479.203 420.547 497.641 430.446 510.065C440.346 522.49 459.137 524.196 472.418 513.876Z" fill="#CAFDFA"/>
<path d="M459.05 495.814C471.351 494.088 479.835 485.716 477.999 477.115C476.163 468.515 464.702 462.942 452.401 464.668C440.099 466.394 431.615 474.766 433.451 483.367C435.287 491.968 446.748 497.541 459.05 495.814Z" fill="#E3FFF5"/>
<path d="M482.258 491.046C482.287 490.263 481.264 489.917 480.756 490.513C471.284 501.623 453.178 511.28 437.328 497.368C432.192 492.788 424.646 498.458 432.299 508.8C441.454 520.29 458.832 521.868 471.114 512.324C478.133 506.87 481.968 498.964 482.258 491.046Z" fill="#A0EBF0"/>
<path d="M429.744 502.95C427.778 501.092 427.691 497.991 429.549 496.025C431.408 494.059 434.508 493.972 436.474 495.83C438.44 497.689 438.527 500.789 436.669 502.755C434.81 504.721 431.71 504.808 429.744 502.95Z" fill="#00B2BD"/>
<path d="M435.83 502.592C433.844 504.083 431.025 503.682 429.533 501.697C428.042 499.711 428.442 496.892 430.428 495.4C432.414 493.909 435.233 494.31 436.725 496.295C438.216 498.281 437.815 501.1 435.83 502.592Z" fill="#3B4965"/>
<path d="M433.303 498.272C432.061 498.246 431.069 497.541 431.087 496.699C431.105 495.856 432.126 495.195 433.368 495.222C434.609 495.248 435.601 495.952 435.583 496.795C435.565 497.637 434.544 498.299 433.303 498.272Z" fill="#40578C"/>
<path d="M433.354 496.847C432.866 496.836 432.476 496.576 432.483 496.266C432.49 495.956 432.89 495.712 433.378 495.723C433.866 495.733 434.256 495.993 434.249 496.304C434.243 496.614 433.842 496.857 433.354 496.847Z" fill="#9FB1D5"/>
<path d="M435.753 498.344C436.133 498.138 436.596 498.209 436.638 498.661C436.804 499.844 436.292 501.088 435.224 501.871C433.621 503.046 431.482 502.73 430.257 501.19C429.608 500.337 429.452 499.268 429.594 498.343C429.728 497.931 430.293 497.879 430.664 498.187C431.281 498.7 432.279 499.007 433.307 499.026C434.212 498.943 435.106 498.746 435.753 498.344Z" fill="#2B3956"/>
<path d="M464.542 484.666C462.576 482.808 462.489 479.708 464.347 477.742C466.206 475.776 469.306 475.688 471.272 477.547C473.238 479.405 473.325 482.505 471.467 484.471C469.608 486.437 466.508 486.525 464.542 484.666Z" fill="#00B2BD"/>
<path d="M470.628 484.307C468.643 485.799 465.824 485.398 464.332 483.412C462.841 481.427 463.241 478.608 465.227 477.116C467.213 475.625 470.032 476.025 471.523 478.011C473.015 479.997 472.614 482.816 470.628 484.307Z" fill="#3B4965"/>
<path d="M468.102 479.988C466.861 479.961 465.869 479.257 465.887 478.414C465.905 477.572 466.926 476.91 468.168 476.937C469.409 476.963 470.401 477.668 470.383 478.51C470.365 479.353 469.344 480.014 468.102 479.988Z" fill="#40578C"/>
<path d="M468.152 478.564C467.664 478.553 467.274 478.293 467.281 477.983C467.287 477.672 467.688 477.429 468.176 477.44C468.664 477.45 469.054 477.71 469.047 478.02C469.04 478.331 468.64 478.574 468.152 478.564Z" fill="#9FB1D5"/>
<path d="M470.553 480.06C470.933 479.854 471.395 479.925 471.437 480.377C471.603 481.559 471.091 482.804 470.023 483.587C468.421 484.762 466.282 484.446 465.056 482.906C464.407 482.053 464.251 480.984 464.394 480.058C464.527 479.647 465.092 479.595 465.463 479.903C466.081 480.416 467.078 480.723 468.106 480.742C469.011 480.658 469.905 480.462 470.553 480.06Z" fill="#2B3956"/>
<path d="M383.318 419.072L381.293 422.74C379.062 426.697 381.444 433.187 387.436 438.287C394.327 444.184 403.381 446.068 407.673 442.429C408.223 441.964 408.697 441.378 409.041 440.744L411.066 437.076C410.722 437.71 410.24 438.232 409.698 438.761C405.406 442.4 396.352 440.516 389.461 434.619C383.469 429.519 381.095 423.093 383.318 419.072Z" fill="url(#paint85_linear)"/>
<path d="M404.932 421.594C398.041 415.697 388.986 413.813 384.695 417.452C380.403 421.091 382.517 428.794 389.469 434.684C396.36 440.581 405.414 442.465 409.706 438.826C413.997 435.186 411.823 427.491 404.932 421.594Z" fill="url(#paint86_linear)"/>
<path fill-rule="evenodd" clip-rule="evenodd" d="M389.908 434.171L389.905 434.168C386.506 431.289 384.333 428 383.517 425.044C382.702 422.095 383.247 419.566 385.132 417.968C387.053 416.338 390.141 415.876 393.702 416.609C397.242 417.337 401.126 419.226 404.493 422.107C407.863 424.992 410.038 428.281 410.862 431.238C411.684 434.188 411.152 436.714 409.269 438.31C407.347 439.94 404.259 440.402 400.698 439.669C397.159 438.941 393.275 437.052 389.908 434.171ZM384.695 417.452C388.986 413.813 398.041 415.697 404.932 421.594C411.823 427.491 413.997 435.186 409.706 438.826C405.414 442.465 396.36 440.581 389.469 434.684C382.517 428.794 380.403 421.091 384.695 417.452Z" fill="url(#paint87_linear)"/>
<path d="M402.18 423.918C397.706 420.124 390.682 418.333 387.938 420.722C385.186 423.046 387.686 428.572 392.161 432.367C396.635 436.161 403.726 437.977 406.478 435.652C409.29 433.32 406.654 427.713 402.18 423.918Z" fill="#C27025"/>
<path d="M401.786 424.349C397.443 420.666 390.625 418.928 387.961 421.246C385.29 423.503 387.717 428.867 392.06 432.55C396.403 436.233 403.286 437.996 405.958 435.739C408.687 433.475 406.129 428.032 401.786 424.349Z" fill="url(#paint88_linear)"/>
<defs>
<filter id="filter0_f" x="112.104" y="451" width="179" height="103" filterUnits="userSpaceOnUse" color-interpolation-filters="sRGB">
<feFlood flood-opacity="0" result="BackgroundImageFix"/>
<feBlend mode="normal" in="SourceGraphic" in2="BackgroundImageFix" result="shape"/>
<feGaussianBlur stdDeviation="6" result="effect1_foregroundBlur"/>
</filter>
<filter id="filter1_f" x="358.511" y="268.381" width="165.061" height="40.9764" filterUnits="userSpaceOnUse" color-interpolation-filters="sRGB">
<feFlood flood-opacity="0" result="BackgroundImageFix"/>
<feBlend mode="normal" in="SourceGraphic" in2="BackgroundImageFix" result="shape"/>
<feGaussianBlur stdDeviation="5.43459" result="effect1_foregroundBlur"/>
</filter>
<linearGradient id="paint0_linear" x1="143.044" y1="347.625" x2="173.09" y2="434.233" gradientUnits="userSpaceOnUse">
<stop stop-color="#B5CFDA"/>
<stop offset="1" stop-color="#6695AA"/>
</linearGradient>
<linearGradient id="paint1_linear" x1="136.54" y1="302.391" x2="136.54" y2="416.019" gradientUnits="userSpaceOnUse">
<stop stop-color="#39221A"/>
<stop offset="1" stop-color="#4E2F24"/>
</linearGradient>
<linearGradient id="paint2_linear" x1="191.386" y1="398.064" x2="191.386" y2="444.864" gradientUnits="userSpaceOnUse">
<stop stop-color="#A1C7D6"/>
<stop offset="1" stop-color="#C6D7DE"/>
</linearGradient>
<linearGradient id="paint3_linear" x1="191.553" y1="395.025" x2="191.553" y2="424.391" gradientUnits="userSpaceOnUse">
<stop stop-color="#8BB4C4"/>
<stop offset="1" stop-color="#456E81"/>
</linearGradient>
<linearGradient id="paint4_linear" x1="180.067" y1="446.504" x2="104.064" y2="507.332" gradientUnits="userSpaceOnUse">
<stop stop-color="#83AFC3"/>
<stop offset="1" stop-color="#518298"/>
</linearGradient>
<linearGradient id="paint5_linear" x1="183.467" y1="445.568" x2="166.088" y2="455.499" gradientUnits="userSpaceOnUse">
<stop stop-color="#FEFFFF"/>
<stop offset="1" stop-color="#FEFFFF" stop-opacity="0"/>
</linearGradient>
<linearGradient id="paint6_linear" x1="116.481" y1="440.358" x2="168.529" y2="513.853" gradientUnits="userSpaceOnUse">
<stop stop-color="#8F5B48"/>
<stop offset="1" stop-color="#7C4E3D"/>
</linearGradient>
<linearGradient id="paint7_linear" x1="281.405" y1="409.631" x2="183.83" y2="528.778" gradientUnits="userSpaceOnUse">
<stop stop-color="#80ACC0"/>
<stop offset="1" stop-color="#CBD9E0"/>
</linearGradient>
<linearGradient id="paint8_linear" x1="181.915" y1="447.119" x2="219.156" y2="467.291" gradientUnits="userSpaceOnUse">
<stop stop-color="white" stop-opacity="0.77"/>
<stop offset="1" stop-color="white" stop-opacity="0"/>
</linearGradient>
<linearGradient id="paint9_linear" x1="255.506" y1="420.534" x2="255.506" y2="487.458" gradientUnits="userSpaceOnUse">
<stop stop-color="#B57550"/>
<stop offset="1" stop-color="#845543"/>
</linearGradient>
<linearGradient id="paint10_linear" x1="210.468" y1="437.729" x2="210.468" y2="510.612" gradientUnits="userSpaceOnUse">
<stop stop-color="#B57550"/>
<stop offset="1" stop-color="#845543"/>
</linearGradient>
<linearGradient id="paint11_linear" x1="190.739" y1="391.83" x2="190.739" y2="437.888" gradientUnits="userSpaceOnUse">
<stop stop-color="#FCD537"/>
<stop offset="1" stop-color="#FBB02F"/>
</linearGradient>
<linearGradient id="paint12_linear" x1="182.602" y1="394.346" x2="201.4" y2="409.425" gradientUnits="userSpaceOnUse">
<stop stop-color="#E7A222"/>
<stop offset="1" stop-color="#BC4B16"/>
</linearGradient>
<linearGradient id="paint13_linear" x1="180.081" y1="396.674" x2="201.03" y2="406.873" gradientUnits="userSpaceOnUse">
<stop stop-color="#FCD938"/>
<stop offset="1" stop-color="#FBAE2C"/>
</linearGradient>
<linearGradient id="paint14_linear" x1="192.102" y1="406.082" x2="191.598" y2="402.577" gradientUnits="userSpaceOnUse">
<stop stop-color="white" stop-opacity="0.63"/>
<stop offset="1" stop-color="white" stop-opacity="0"/>
</linearGradient>
<linearGradient id="paint15_linear" x1="186.697" y1="394.753" x2="198.031" y2="403.845" gradientUnits="userSpaceOnUse">
<stop stop-color="#FFC564"/>
<stop offset="1" stop-color="#FFED9D"/>
</linearGradient>
<linearGradient id="paint16_linear" x1="192.609" y1="411.233" x2="211.407" y2="426.312" gradientUnits="userSpaceOnUse">
<stop stop-color="#E7A222"/>
<stop offset="1" stop-color="#BC4B16"/>
</linearGradient>
<linearGradient id="paint17_linear" x1="190.088" y1="413.561" x2="211.037" y2="423.759" gradientUnits="userSpaceOnUse">
<stop stop-color="#FCD938"/>
<stop offset="1" stop-color="#FBAE2C"/>
</linearGradient>
<linearGradient id="paint18_linear" x1="202.109" y1="422.968" x2="201.605" y2="419.463" gradientUnits="userSpaceOnUse">
<stop stop-color="white" stop-opacity="0.63"/>
<stop offset="1" stop-color="white" stop-opacity="0"/>
</linearGradient>
<linearGradient id="paint19_linear" x1="196.703" y1="411.64" x2="208.037" y2="420.732" gradientUnits="userSpaceOnUse">
<stop stop-color="#FFC564"/>
<stop offset="1" stop-color="#FFED9D"/>
</linearGradient>
<linearGradient id="paint20_linear" x1="222.553" y1="413.423" x2="241.35" y2="428.502" gradientUnits="userSpaceOnUse">
<stop stop-color="#E7A222"/>
<stop offset="1" stop-color="#BC4B16"/>
</linearGradient>
<linearGradient id="paint21_linear" x1="220.031" y1="415.751" x2="240.981" y2="425.95" gradientUnits="userSpaceOnUse">
<stop stop-color="#FCD938"/>
<stop offset="1" stop-color="#FBAE2C"/>
</linearGradient>
<linearGradient id="paint22_linear" x1="232.053" y1="425.159" x2="231.548" y2="421.654" gradientUnits="userSpaceOnUse">
<stop stop-color="white" stop-opacity="0.63"/>
<stop offset="1" stop-color="white" stop-opacity="0"/>
</linearGradient>
<linearGradient id="paint23_linear" x1="226.647" y1="413.83" x2="237.981" y2="422.922" gradientUnits="userSpaceOnUse">
<stop stop-color="#FFC564"/>
<stop offset="1" stop-color="#FFED9D"/>
</linearGradient>
<linearGradient id="paint24_linear" x1="176.035" y1="422.882" x2="194.832" y2="437.961" gradientUnits="userSpaceOnUse">
<stop stop-color="#E7A222"/>
<stop offset="1" stop-color="#BC4B16"/>
</linearGradient>
<linearGradient id="paint25_linear" x1="173.513" y1="425.21" x2="194.463" y2="435.408" gradientUnits="userSpaceOnUse">
<stop stop-color="#FCD938"/>
<stop offset="1" stop-color="#FBAE2C"/>
</linearGradient>
<linearGradient id="paint26_linear" x1="185.535" y1="434.617" x2="185.03" y2="431.112" gradientUnits="userSpaceOnUse">
<stop stop-color="white" stop-opacity="0.63"/>
<stop offset="1" stop-color="white" stop-opacity="0"/>
</linearGradient>
<linearGradient id="paint27_linear" x1="180.129" y1="423.289" x2="191.463" y2="432.38" gradientUnits="userSpaceOnUse">
<stop stop-color="#FFC564"/>
<stop offset="1" stop-color="#FFED9D"/>
</linearGradient>
<linearGradient id="paint28_linear" x1="168.061" y1="399.819" x2="186.858" y2="414.898" gradientUnits="userSpaceOnUse">
<stop stop-color="#E7A222"/>
<stop offset="1" stop-color="#BC4B16"/>
</linearGradient>
<linearGradient id="paint29_linear" x1="165.539" y1="402.147" x2="186.489" y2="412.346" gradientUnits="userSpaceOnUse">
<stop stop-color="#FCD938"/>
<stop offset="1" stop-color="#FBAE2C"/>
</linearGradient>
<linearGradient id="paint30_linear" x1="177.561" y1="411.555" x2="177.056" y2="408.05" gradientUnits="userSpaceOnUse">
<stop stop-color="white" stop-opacity="0.63"/>
<stop offset="1" stop-color="white" stop-opacity="0"/>
</linearGradient>
<linearGradient id="paint31_linear" x1="172.155" y1="400.226" x2="183.489" y2="409.318" gradientUnits="userSpaceOnUse">
<stop stop-color="#FFC564"/>
<stop offset="1" stop-color="#FFED9D"/>
</linearGradient>
<linearGradient id="paint32_linear" x1="170.797" y1="409.826" x2="189.594" y2="424.904" gradientUnits="userSpaceOnUse">
<stop stop-color="#E7A222"/>
<stop offset="1" stop-color="#BC4B16"/>
</linearGradient>
<linearGradient id="paint33_linear" x1="168.275" y1="412.154" x2="189.225" y2="422.352" gradientUnits="userSpaceOnUse">
<stop stop-color="#FCD938"/>
<stop offset="1" stop-color="#FBAE2C"/>
</linearGradient>
<linearGradient id="paint34_linear" x1="180.296" y1="421.561" x2="179.792" y2="418.056" gradientUnits="userSpaceOnUse">
<stop stop-color="white" stop-opacity="0.63"/>
<stop offset="1" stop-color="white" stop-opacity="0"/>
</linearGradient>
<linearGradient id="paint35_linear" x1="174.891" y1="410.233" x2="186.225" y2="419.324" gradientUnits="userSpaceOnUse">
<stop stop-color="#FFC564"/>
<stop offset="1" stop-color="#FFED9D"/>
</linearGradient>
<linearGradient id="paint36_linear" x1="209.183" y1="415.69" x2="227.98" y2="430.769" gradientUnits="userSpaceOnUse">
<stop stop-color="#E7A222"/>
<stop offset="1" stop-color="#BC4B16"/>
</linearGradient>
<linearGradient id="paint37_linear" x1="206.662" y1="418.018" x2="227.611" y2="428.216" gradientUnits="userSpaceOnUse">
<stop stop-color="#FCD938"/>
<stop offset="1" stop-color="#FBAE2C"/>
</linearGradient>
<linearGradient id="paint38_linear" x1="218.683" y1="427.425" x2="218.179" y2="423.921" gradientUnits="userSpaceOnUse">
<stop stop-color="white" stop-opacity="0.63"/>
<stop offset="1" stop-color="white" stop-opacity="0"/>
</linearGradient>
<linearGradient id="paint39_linear" x1="213.277" y1="416.097" x2="224.611" y2="425.189" gradientUnits="userSpaceOnUse">
<stop stop-color="#FFC564"/>
<stop offset="1" stop-color="#FFED9D"/>
</linearGradient>
<linearGradient id="paint40_linear" x1="144.607" y1="423.273" x2="163.404" y2="438.352" gradientUnits="userSpaceOnUse">
<stop stop-color="#E7A222"/>
<stop offset="1" stop-color="#BC4B16"/>
</linearGradient>
<linearGradient id="paint41_linear" x1="142.085" y1="425.601" x2="163.035" y2="435.799" gradientUnits="userSpaceOnUse">
<stop stop-color="#FCD938"/>
<stop offset="1" stop-color="#FBAE2C"/>
</linearGradient>
<linearGradient id="paint42_linear" x1="154.107" y1="435.008" x2="153.602" y2="431.504" gradientUnits="userSpaceOnUse">
<stop stop-color="white" stop-opacity="0.63"/>
<stop offset="1" stop-color="white" stop-opacity="0"/>
</linearGradient>
<linearGradient id="paint43_linear" x1="148.701" y1="423.68" x2="160.035" y2="432.772" gradientUnits="userSpaceOnUse">
<stop stop-color="#FFC564"/>
<stop offset="1" stop-color="#FFED9D"/>
</linearGradient>
<linearGradient id="paint44_linear" x1="157.349" y1="429.997" x2="176.147" y2="445.076" gradientUnits="userSpaceOnUse">
<stop stop-color="#E7A222"/>
<stop offset="1" stop-color="#BC4B16"/>
</linearGradient>
<linearGradient id="paint45_linear" x1="154.828" y1="432.325" x2="175.777" y2="442.524" gradientUnits="userSpaceOnUse">
<stop stop-color="#FCD938"/>
<stop offset="1" stop-color="#FBAE2C"/>
</linearGradient>
<linearGradient id="paint46_linear" x1="166.849" y1="441.732" x2="166.345" y2="438.228" gradientUnits="userSpaceOnUse">
<stop stop-color="white" stop-opacity="0.63"/>
<stop offset="1" stop-color="white" stop-opacity="0"/>
</linearGradient>
<linearGradient id="paint47_linear" x1="161.443" y1="430.404" x2="172.777" y2="439.496" gradientUnits="userSpaceOnUse">
<stop stop-color="#FFC564"/>
<stop offset="1" stop-color="#FFED9D"/>
</linearGradient>
<linearGradient id="paint48_linear" x1="210.135" y1="390.378" x2="222.294" y2="411.184" gradientUnits="userSpaceOnUse">
<stop stop-color="#E7A222"/>
<stop offset="1" stop-color="#BC4B16"/>
</linearGradient>
<linearGradient id="paint49_linear" x1="206.948" y1="391.651" x2="222.863" y2="408.669" gradientUnits="userSpaceOnUse">
<stop stop-color="#FCD938"/>
<stop offset="1" stop-color="#FBAE2C"/>
</linearGradient>
<linearGradient id="paint50_linear" x1="214.809" y1="404.736" x2="215.592" y2="401.283" gradientUnits="userSpaceOnUse">
<stop stop-color="white" stop-opacity="0.63"/>
<stop offset="1" stop-color="white" stop-opacity="0"/>
</linearGradient>
<linearGradient id="paint51_linear" x1="213.813" y1="392.223" x2="221.145" y2="404.767" gradientUnits="userSpaceOnUse">
<stop stop-color="#FFC564"/>
<stop offset="1" stop-color="#FFED9D"/>
</linearGradient>
<linearGradient id="paint52_linear" x1="183.011" y1="398.525" x2="200.115" y2="415.501" gradientUnits="userSpaceOnUse">
<stop stop-color="#E7A222"/>
<stop offset="1" stop-color="#BC4B16"/>
</linearGradient>
<linearGradient id="paint53_linear" x1="180.259" y1="400.575" x2="200.017" y2="412.925" gradientUnits="userSpaceOnUse">
<stop stop-color="#FCD938"/>
<stop offset="1" stop-color="#FBAE2C"/>
</linearGradient>
<linearGradient id="paint54_linear" x1="191.222" y1="411.197" x2="191.09" y2="407.659" gradientUnits="userSpaceOnUse">
<stop stop-color="white" stop-opacity="0.63"/>
<stop offset="1" stop-color="white" stop-opacity="0"/>
</linearGradient>
<linearGradient id="paint55_linear" x1="187.041" y1="399.361" x2="197.353" y2="409.597" gradientUnits="userSpaceOnUse">
<stop stop-color="#FFC564"/>
<stop offset="1" stop-color="#FFED9D"/>
</linearGradient>
<linearGradient id="paint56_linear" x1="150.066" y1="412.247" x2="172.41" y2="421.272" gradientUnits="userSpaceOnUse">
<stop stop-color="#E7A222"/>
<stop offset="1" stop-color="#BC4B16"/>
</linearGradient>
<linearGradient id="paint57_linear" x1="148.323" y1="415.202" x2="171.322" y2="418.934" gradientUnits="userSpaceOnUse">
<stop stop-color="#FCD938"/>
<stop offset="1" stop-color="#FBAE2C"/>
</linearGradient>
<linearGradient id="paint58_linear" x1="162.544" y1="420.748" x2="161.052" y2="417.537" gradientUnits="userSpaceOnUse">
<stop stop-color="white" stop-opacity="0.63"/>
<stop offset="1" stop-color="white" stop-opacity="0"/>
</linearGradient>
<linearGradient id="paint59_linear" x1="154.105" y1="411.456" x2="167.578" y2="416.898" gradientUnits="userSpaceOnUse">
<stop stop-color="#FFC564"/>
<stop offset="1" stop-color="#FFED9D"/>
</linearGradient>
<radialGradient id="paint60_radial" cx="0" cy="0" r="1" gradientUnits="userSpaceOnUse" gradientTransform="translate(95.6598 196.108) rotate(109.473) scale(17.0633 14.1323)">
<stop stop-color="#FFBCA5"/>
<stop offset="1" stop-color="#FFBCA5" stop-opacity="0"/>
</radialGradient>
<radialGradient id="paint61_radial" cx="0" cy="0" r="1" gradientUnits="userSpaceOnUse" gradientTransform="translate(95.6598 196.108) rotate(109.473) scale(17.0633 14.1323)">
<stop stop-color="#FFBCA5"/>
<stop offset="1" stop-color="#FFBCA5" stop-opacity="0"/>
</radialGradient>
<linearGradient id="paint62_linear" x1="82.149" y1="232.46" x2="108.013" y2="308.63" gradientUnits="userSpaceOnUse">
<stop stop-color="#FF9274"/>
<stop offset="1" stop-color="#FF765F"/>
</linearGradient>
<radialGradient id="paint63_radial" cx="0" cy="0" r="1" gradientUnits="userSpaceOnUse" gradientTransform="translate(127.122 226.771) rotate(112.834) scale(27.4845 32.8039)">
<stop stop-color="#FFBEA7"/>
<stop offset="1" stop-color="#FFA289" stop-opacity="0"/>
</radialGradient>
<linearGradient id="paint64_linear" x1="115.71" y1="226.556" x2="131.776" y2="236.859" gradientUnits="userSpaceOnUse">
<stop stop-color="#FFD1C1"/>
<stop offset="1" stop-color="#FFBCA6" stop-opacity="0"/>
</linearGradient>
<linearGradient id="paint65_linear" x1="107.171" y1="270.854" x2="96.0986" y2="308.264" gradientUnits="userSpaceOnUse">
<stop stop-color="#FF644E" stop-opacity="0"/>
<stop offset="1" stop-color="#FF644E"/>
</linearGradient>
<linearGradient id="paint66_linear" x1="102.695" y1="307.198" x2="131.368" y2="333.611" gradientUnits="userSpaceOnUse">
<stop stop-color="#FF654F"/>
<stop offset="1" stop-color="#FF765F"/>
</linearGradient>
<linearGradient id="paint67_linear" x1="89.8932" y1="197.719" x2="97.077" y2="215.841" gradientUnits="userSpaceOnUse">
<stop stop-color="#FFBCA6"/>
<stop offset="1" stop-color="#FFBCA6" stop-opacity="0"/>
</linearGradient>
<linearGradient id="paint68_linear" x1="385.078" y1="274.275" x2="404.927" y2="291.807" gradientUnits="userSpaceOnUse">
<stop stop-color="#E7A222"/>
<stop offset="1" stop-color="#BC4B16"/>
</linearGradient>
<linearGradient id="paint69_linear" x1="382.189" y1="276.7" x2="404.655" y2="288.986" gradientUnits="userSpaceOnUse">
<stop stop-color="#FCD938"/>
<stop offset="1" stop-color="#FBAE2C"/>
</linearGradient>
<linearGradient id="paint70_linear" x1="394.895" y1="287.653" x2="394.524" y2="283.779" gradientUnits="userSpaceOnUse">
<stop stop-color="white" stop-opacity="0.63"/>
<stop offset="1" stop-color="white" stop-opacity="0"/>
</linearGradient>
<linearGradient id="paint71_linear" x1="389.551" y1="274.936" x2="401.519" y2="285.506" gradientUnits="userSpaceOnUse">
<stop stop-color="#FFC564"/>
<stop offset="1" stop-color="#FFED9D"/>
</linearGradient>
<linearGradient id="paint72_linear" x1="385.078" y1="267.622" x2="404.927" y2="285.153" gradientUnits="userSpaceOnUse">
<stop stop-color="#E7A222"/>
<stop offset="1" stop-color="#BC4B16"/>
</linearGradient>
<linearGradient id="paint73_linear" x1="382.189" y1="270.046" x2="404.655" y2="282.333" gradientUnits="userSpaceOnUse">
<stop stop-color="#FCD938"/>
<stop offset="1" stop-color="#FBAE2C"/>
</linearGradient>
<linearGradient id="paint74_linear" x1="394.895" y1="280.999" x2="394.524" y2="277.125" gradientUnits="userSpaceOnUse">
<stop stop-color="white" stop-opacity="0.63"/>
<stop offset="1" stop-color="white" stop-opacity="0"/>
</linearGradient>
<linearGradient id="paint75_linear" x1="389.551" y1="268.281" x2="401.519" y2="278.852" gradientUnits="userSpaceOnUse">
<stop stop-color="#FFC564"/>
<stop offset="1" stop-color="#FFED9D"/>
</linearGradient>
<linearGradient id="paint76_linear" x1="385.078" y1="261.543" x2="404.927" y2="279.074" gradientUnits="userSpaceOnUse">
<stop stop-color="#E7A222"/>
<stop offset="1" stop-color="#BC4B16"/>
</linearGradient>
<linearGradient id="paint77_linear" x1="382.189" y1="263.967" x2="404.654" y2="276.253" gradientUnits="userSpaceOnUse">
<stop stop-color="#FCD938"/>
<stop offset="1" stop-color="#FBAE2C"/>
</linearGradient>
<linearGradient id="paint78_linear" x1="394.895" y1="274.919" x2="394.524" y2="271.046" gradientUnits="userSpaceOnUse">
<stop stop-color="white" stop-opacity="0.63"/>
<stop offset="1" stop-color="white" stop-opacity="0"/>
</linearGradient>
<linearGradient id="paint79_linear" x1="389.551" y1="262.202" x2="401.519" y2="272.772" gradientUnits="userSpaceOnUse">
<stop stop-color="#FFC564"/>
<stop offset="1" stop-color="#FFED9D"/>
</linearGradient>
<linearGradient id="paint80_linear" x1="385.078" y1="255.463" x2="404.927" y2="272.995" gradientUnits="userSpaceOnUse">
<stop stop-color="#E7A222"/>
<stop offset="1" stop-color="#BC4B16"/>
</linearGradient>
<linearGradient id="paint81_linear" x1="382.189" y1="257.887" x2="404.655" y2="270.174" gradientUnits="userSpaceOnUse">
<stop stop-color="#FCD938"/>
<stop offset="1" stop-color="#FBAE2C"/>
</linearGradient>
<linearGradient id="paint82_linear" x1="394.895" y1="268.84" x2="394.524" y2="264.967" gradientUnits="userSpaceOnUse">
<stop stop-color="white" stop-opacity="0.63"/>
<stop offset="1" stop-color="white" stop-opacity="0"/>
</linearGradient>
<linearGradient id="paint83_linear" x1="389.551" y1="256.123" x2="401.519" y2="266.693" gradientUnits="userSpaceOnUse">
<stop stop-color="#FFC564"/>
<stop offset="1" stop-color="#FFED9D"/>
</linearGradient>
<linearGradient id="paint84_linear" x1="514.761" y1="474.805" x2="438.066" y2="339.889" gradientUnits="userSpaceOnUse">
<stop stop-color="#4BE0D7"/>
<stop offset="1" stop-color="#BAF7C8"/>
</linearGradient>
<linearGradient id="paint85_linear" x1="410.061" y1="429.432" x2="381.327" y2="433.211" gradientUnits="userSpaceOnUse">
<stop stop-color="#E7A222"/>
<stop offset="1" stop-color="#BC4B16"/>
</linearGradient>
<linearGradient id="paint86_linear" x1="411.2" y1="433.398" x2="383.297" y2="430.817" gradientUnits="userSpaceOnUse">
<stop stop-color="#FCD938"/>
<stop offset="1" stop-color="#FBAE2C"/>
</linearGradient>
<linearGradient id="paint87_linear" x1="392.971" y1="435.573" x2="395.676" y2="432.283" gradientUnits="userSpaceOnUse">
<stop stop-color="white" stop-opacity="0.63"/>
<stop offset="1" stop-color="white" stop-opacity="0"/>
</linearGradient>
<linearGradient id="paint88_linear" x1="405.596" y1="427.295" x2="388.271" y2="429.574" gradientUnits="userSpaceOnUse">
<stop stop-color="#FFC564"/>
<stop offset="1" stop-color="#FFED9D"/>
</linearGradient>
</defs>
</svg>
