<svg width="297" height="403" viewBox="0 0 297 403" fill="none" xmlns="http://www.w3.org/2000/svg">
<path d="M0 101.3C0 45.4 41.9 0 93.6 0H203.4C255.1 0 297 45.4 297 101.3V301.5C297 357.5 255.1 402.8 203.4 402.8H93.6C41.9 402.8 0 357.4 0 301.5V101.3Z" fill="url(#paint0_linear)"/>
<path d="M116.353 182.983C111.407 182.983 101.419 183.269 92.1926 171.283C82.9659 159.298 70.6001 143.984 50.91 148.169C31.2199 152.354 17.903 184.6 46.4393 215.515C74.9757 246.429 116.353 246.524 116.353 246.524V182.983Z" fill="url(#paint1_linear)"/>
<path opacity="0.35" d="M64.8933 184.887C66.2249 186.599 66.1298 189.357 64.7981 191.165C63.4664 192.972 61.2786 193.067 60.0421 191.45C58.7104 189.738 56.9982 183.555 58.3299 181.748C59.5665 179.94 63.5616 183.269 64.8933 184.887Z" fill="#2B3760"/>
<path d="M41.2989 191.001C41.6393 193.129 43.6819 194.661 45.8095 194.321C47.9372 193.98 49.4691 191.938 49.1286 189.81C48.7882 187.682 46.7457 186.15 44.618 186.491C42.4904 186.746 40.9585 188.789 41.2989 191.001Z" fill="#2397AA"/>
<path d="M41.8007 190.131C42.173 192.272 44.1276 193.761 46.3613 193.482C48.502 193.11 49.9912 191.155 49.712 188.921C49.3397 186.781 47.3851 185.292 45.1514 185.571C43.0107 185.943 41.5215 187.991 41.8007 190.131Z" fill="#2B3760"/>
<path d="M45.1518 186.966C44.7795 187.617 45.2448 188.548 46.2687 189.107C47.1994 189.665 48.3163 189.572 48.6885 188.92C49.0608 188.269 48.5955 187.338 47.5717 186.78C46.5479 186.221 45.5241 186.314 45.1518 186.966Z" fill="#364D98"/>
<path d="M46.4544 187.152C46.3613 187.338 46.5475 187.711 46.9197 187.99C47.292 188.176 47.6643 188.176 47.8505 187.99C47.9436 187.711 47.7574 187.432 47.3851 187.152C47.0128 186.966 46.5475 186.966 46.4544 187.152Z" fill="#C3D8F8"/>
<path d="M47.5711 190.131C48.1296 190.224 48.688 190.689 48.4088 191.247C47.9434 191.992 47.1988 192.55 46.2681 192.643C44.5928 192.923 42.9175 191.713 42.7313 190.037C42.6383 189.293 42.7313 188.641 43.1036 188.083C43.3828 187.524 44.2205 187.897 44.5928 188.455C44.872 188.921 45.4305 189.386 45.9889 189.665C46.4543 189.944 47.0127 190.131 47.5711 190.131Z" fill="#1B244A"/>
<path d="M59.6008 169.977C59.9423 172.112 61.9911 173.648 64.1253 173.307C66.2595 172.965 67.7961 170.916 67.4546 168.782C67.1132 166.648 65.0643 165.111 62.9301 165.453C60.7959 165.709 59.2593 167.758 59.6008 169.977Z" fill="#2397AA"/>
<path d="M60.1664 169.251C60.5387 171.391 62.4933 172.88 64.727 172.601C66.8677 172.229 68.3569 170.274 68.0777 168.041C67.7054 165.9 65.7508 164.411 63.5171 164.69C61.3764 165.062 59.8872 167.11 60.1664 169.251Z" fill="#2B3760"/>
<path d="M63.518 166.086C63.1457 166.738 63.6111 167.668 64.6349 168.227C65.5656 168.785 66.6825 168.692 67.0548 168.041C67.4271 167.389 66.9617 166.458 65.9379 165.9C64.9141 165.341 63.8903 165.435 63.518 166.086Z" fill="#364D98"/>
<path d="M64.8196 166.271C64.7265 166.458 64.9127 166.83 65.285 167.109C65.6573 167.295 66.0296 167.295 66.2157 167.109C66.3088 166.83 66.1226 166.551 65.7504 166.271C65.3781 166.085 64.9127 166.085 64.8196 166.271Z" fill="#C3D8F8"/>
<path d="M65.9364 169.252C66.4948 169.345 67.0532 169.81 66.774 170.368C66.3087 171.113 65.5641 171.671 64.6334 171.765C62.958 172.044 61.2827 170.834 61.0966 169.159C61.0035 168.414 61.0966 167.762 61.4688 167.204C61.7481 166.646 62.5857 167.018 62.958 167.576C63.2372 168.042 63.7957 168.507 64.3541 168.786C64.8195 169.065 65.3779 169.252 65.9364 169.252Z" fill="#1B244A"/>
<path d="M66.3194 183.65C68.0316 184.887 68.4121 187.36 67.1755 189.072C65.9389 190.784 63.4658 191.165 61.7536 189.928C60.0414 188.691 56.9975 183.555 58.2341 181.843C59.4707 180.035 64.6072 182.318 66.3194 183.65Z" fill="#FFE37A"/>
<path d="M209.858 173.756L209.478 304.072L148.695 339.362L149.076 209.141L209.858 173.756Z" fill="url(#paint2_linear)"/>
<path d="M208.621 304.833L185.697 317.96L174.948 311.777L197.872 298.65L208.621 304.833Z" fill="white"/>
<path d="M149.075 209.141L148.695 339.362L87.5317 304.072L87.9122 173.756L149.075 209.141Z" fill="#89D1EF"/>
<path d="M171.999 261.334C171.999 278.5 171.999 278.5 171.999 278.5L194.923 291.678C194.923 291.678 194.923 271.322 194.923 252.488C194.923 233.654 171.999 236.418 171.999 261.334Z" fill="#3374B0"/>
<path d="M98.5261 274.202C98.7163 274.868 110.702 313.772 113.08 322.524C113.365 323.665 112.985 324.616 111.938 324.997C100.333 329.372 91.2017 328.611 82.9262 323.57C81.214 322.524 80.6433 321.953 81.214 320.336C84.7335 310.443 95.7676 276.104 96.5285 274.107C97.4797 271.919 98.3358 273.536 98.5261 274.202Z" fill="url(#paint3_linear)"/>
<path d="M122.848 271.95C123.12 272.821 142.249 329.439 146.533 342.155C147.07 343.785 146.595 345.143 145.094 346.005C139.291 349.112 122.234 356.86 100.707 348.691C98.4409 347.825 98.0199 346.298 98.6712 344.155C102.937 329.836 119.046 275.162 119.977 272.117C121.103 268.617 122.57 270.969 122.848 271.95Z" fill="url(#paint4_linear)"/>
<path d="M205.672 297.89L182.748 311.017L172 304.739L172.009 278.462L205.672 297.89Z" fill="white"/>
<path d="M212.14 312.159L189.215 325.286L178.372 319.008L201.296 305.881L212.14 312.159Z" fill="white"/>
<path d="M205.673 297.891V303.122L182.653 316.249L182.748 311.017L205.673 297.891Z" fill="#A7EAFF"/>
<path d="M208.621 304.834V310.066L185.697 323.192V317.961L208.621 304.834Z" fill="#A7EAFF"/>
<path d="M215.089 319.103L192.165 332.23L181.416 325.952L204.245 312.92L215.089 319.103Z" fill="white"/>
<path d="M212.14 312.158V317.39L189.121 330.517L189.216 325.285L212.14 312.158Z" fill="#A7EAFF"/>
<path d="M215.089 319.103V324.334L192.069 337.461L192.164 332.229L215.089 319.103Z" fill="#A7EAFF"/>
<path d="M216.956 125.324L148.489 85.7705L80.3965 125.324L148.864 164.878L216.956 125.324Z" fill="#CBD1E2"/>
<path d="M216.956 125.324L148.489 85.7705L80.3965 125.324L148.864 164.878L216.956 125.324Z" fill="white"/>
<path d="M130.669 82.4736V96.2018L148.647 106.57V92.8418L130.669 82.4736Z" fill="#89D1EF"/>
<path d="M181.611 110.854L181.611 124.599L199.589 134.967L199.589 121.222L181.611 110.854Z" fill="#89D1EF"/>
<path d="M116.35 111.125V124.927L98.5068 135.295V121.469L116.35 111.125Z" fill="#E4F7FF"/>
<path d="M166.432 82.4736L166.49 96.2389L148.646 106.565V92.8179L166.432 82.4736Z" fill="#E4F7FF"/>
<path d="M116.354 111.125L98.4708 100.852L80.6831 111.125L98.5659 121.493L116.354 111.125Z" fill="#DBF4FF"/>
<path d="M166.434 82.4723L148.507 72.1992L130.675 82.4723L148.602 92.8405L166.434 82.4723Z" fill="#DBF4FF"/>
<path d="M217.376 110.854L199.448 100.581L181.616 110.854L199.544 121.222L217.376 110.854Z" fill="#DBF4FF"/>
<path d="M166.906 140.431L149.118 150.704L131.235 140.431L149.023 130.062L166.906 140.431Z" fill="#DBF4FF"/>
<path d="M80.683 111.125L80.5879 177.329L87.9604 181.604V181.614L93.2411 184.666L98.4707 187.698V187.688L131.14 206.567L131.14 206.632L149.023 216.905L149.023 216.901L149.028 216.904L149.123 164.492L149.098 164.478L149.118 150.701L131.235 140.428L131.216 154.16L98.5408 135.307L98.5658 121.493L80.683 111.125Z" fill="#9ED8F0"/>
<path d="M217.407 110.836L217.502 177.04L210.129 181.315V181.327L203.824 184.971L199.619 187.409V187.4L166.951 206.279L166.951 206.345L149.068 216.618L149.068 216.613L149.061 216.617L148.966 164.205L148.993 164.19L148.973 150.414L166.856 140.141L166.876 153.872L199.549 135.02L199.524 121.204L217.407 110.836Z" fill="url(#paint5_linear)"/>
<path d="M183 166.79C183 180.843 183 185 183 185L191.999 179.418C191.999 179.418 191.999 170.947 191.999 163.108C191.999 155.27 183 156.42 183 166.79Z" fill="#3374B0"/>
<path d="M183.001 166.789C183.001 180.843 183.001 184.999 183.001 184.999L192 179.417C192 179.417 192 170.946 192 163.107C192 155.269 183.001 156.419 183.001 166.789Z" fill="#3374B0"/>
<path d="M115 166.789C115 180.843 115 185 115 185L105 179.418C105 179.418 105 170.946 105 163.108C105 155.269 115 156.419 115 166.789Z" fill="#3374B0"/>
<path d="M115 166.789C115 180.843 115 185 115 185L105 179.418C105 179.418 105 170.946 105 163.108C105 155.269 115 156.419 115 166.789Z" fill="#3374B0"/>
<path d="M192.165 332.229L189.121 330.517L189.216 325.285L185.697 323.193V317.961L182.748 316.249V311.017L172 304.739V325.761L182.653 332.039L192.07 337.461L192.165 332.229Z" fill="#89D1EF"/>
<path d="M267.114 309.745C263.369 309.923 258.376 309.299 258.287 303.593C258.198 297.797 257.946 289.036 252.062 285.113C246.177 281.19 234.58 282.325 230.479 291.954C225.372 304.769 226.023 337.343 255 327C269.5 321.825 273.801 309.477 267.114 309.745Z" fill="#17E1D5"/>
<path d="M233.31 298.936C233.549 298.833 233.599 298.415 233.421 298.003C233.244 297.59 232.907 297.338 232.668 297.441C232.429 297.544 232.379 297.962 232.556 298.374C232.733 298.787 233.071 299.039 233.31 298.936Z" fill="#EEF8FA"/>
<path d="M243.444 302.158C243.618 303.246 244.663 304.029 245.751 303.855C246.84 303.681 247.623 302.636 247.449 301.548C247.275 300.46 246.23 299.676 245.142 299.85C244.054 299.981 243.27 301.026 243.444 302.158Z" fill="#C4A547" fill-opacity="0.74"/>
<path d="M243.411 301.921C243.585 302.922 244.499 303.619 245.544 303.488C246.545 303.314 247.241 302.4 247.111 301.355C246.937 300.354 246.023 299.658 244.978 299.788C243.977 299.962 243.28 300.92 243.411 301.921Z" fill="#2B3760"/>
<path d="M244.978 300.441C244.804 300.746 245.022 301.181 245.5 301.442C245.936 301.704 246.458 301.66 246.632 301.355C246.806 301.051 246.589 300.615 246.11 300.354C245.631 300.093 245.152 300.136 244.978 300.441Z" fill="#364D98"/>
<path d="M245.586 300.528C245.543 300.615 245.63 300.789 245.804 300.92C245.978 301.007 246.152 301.007 246.239 300.92C246.283 300.789 246.196 300.659 246.022 300.528C245.847 300.441 245.63 300.441 245.586 300.528Z" fill="#C3D8F8"/>
<path d="M246.109 301.922C246.37 301.965 246.631 302.183 246.501 302.444C246.283 302.792 245.935 303.054 245.499 303.097C244.716 303.228 243.932 302.662 243.845 301.878C243.802 301.53 243.845 301.225 244.019 300.964C244.15 300.703 244.542 300.877 244.716 301.138C244.846 301.356 245.108 301.574 245.369 301.704C245.587 301.835 245.848 301.922 246.109 301.922Z" fill="#1B244A"/>
<path d="M230.46 299.285C230.634 300.373 231.679 301.156 232.767 300.982C233.856 300.808 234.639 299.763 234.465 298.675C234.291 297.587 233.246 296.803 232.158 296.977C231.07 297.108 230.286 298.153 230.46 299.285Z" fill="#C4A547" fill-opacity="0.74"/>
<path d="M230.426 299.046C230.6 300.047 231.514 300.744 232.559 300.613C233.56 300.439 234.257 299.525 234.126 298.48C233.952 297.479 233.038 296.783 231.993 296.913C230.992 297.087 230.295 298.045 230.426 299.046Z" fill="#2B3760"/>
<path d="M231.993 297.567C231.819 297.872 232.037 298.307 232.516 298.568C232.951 298.83 233.473 298.786 233.647 298.481C233.821 298.177 233.604 297.741 233.125 297.48C232.646 297.219 232.167 297.262 231.993 297.567Z" fill="#364D98"/>
<path d="M232.602 297.652C232.559 297.739 232.646 297.913 232.82 298.044C232.994 298.131 233.168 298.131 233.255 298.044C233.299 297.913 233.212 297.783 233.038 297.652C232.864 297.565 232.646 297.565 232.602 297.652Z" fill="#C3D8F8"/>
<path d="M233.125 299.047C233.387 299.09 233.648 299.308 233.517 299.569C233.3 299.917 232.951 300.179 232.516 300.222C231.733 300.353 230.949 299.787 230.862 299.003C230.818 298.655 230.862 298.35 231.036 298.089C231.167 297.828 231.558 298.002 231.733 298.263C231.863 298.481 232.124 298.699 232.385 298.829C232.603 298.96 232.864 299.047 233.125 299.047Z" fill="#1B244A"/>
<defs>
<linearGradient id="paint0_linear" x1="148.516" y1="0.0131" x2="148.516" y2="402.863" gradientUnits="userSpaceOnUse">
<stop stop-color="#95F2FF"/>
<stop offset="1" stop-color="#82E1FE"/>
</linearGradient>
<linearGradient id="paint1_linear" x1="96.1881" y1="154.409" x2="45.4662" y2="236.751" gradientUnits="userSpaceOnUse">
<stop stop-color="#38A0FF"/>
<stop offset="1" stop-color="#0071D8"/>
</linearGradient>
<linearGradient id="paint2_linear" x1="161.5" y1="333.5" x2="161.5" y2="208.5" gradientUnits="userSpaceOnUse">
<stop stop-color="#93F1FF"/>
<stop offset="1" stop-color="#8DD7F6"/>
</linearGradient>
<linearGradient id="paint3_linear" x1="97.0857" y1="273" x2="97.0857" y2="328.129" gradientUnits="userSpaceOnUse">
<stop stop-color="#DEF6FF"/>
<stop offset="0.455394" stop-color="#DEF6FF"/>
<stop offset="1" stop-color="#93F1FF"/>
</linearGradient>
<linearGradient id="paint4_linear" x1="118.313" y1="271.213" x2="123.013" y2="352.232" gradientUnits="userSpaceOnUse">
<stop stop-color="white"/>
<stop offset="0.489583" stop-color="white"/>
<stop offset="1" stop-color="#93F1FF"/>
</linearGradient>
<linearGradient id="paint5_linear" x1="183.234" y1="111.833" x2="183.234" y2="216.618" gradientUnits="userSpaceOnUse">
<stop stop-color="white"/>
<stop offset="1" stop-color="#AFE7FF"/>
</linearGradient>
</defs>
</svg>
