<svg width="344" height="403" viewBox="0 0 344 403" fill="none" xmlns="http://www.w3.org/2000/svg">
<path d="M303.4 308.087C291.6 298.487 274 306.887 274 321.987L274 384.287C274 400.387 293.6 408.387 304.9 396.887L338.7 362.287C346.1 354.687 345.4 342.487 337.2 335.787L303.4 308.087Z" fill="#FFCA62"/>
<path d="M21 101.3C21 45.3 62.9 0 114.6 0H224.4C276.1 0 318 45.4 318 101.3V301.5C318 357.5 276.1 402.8 224.4 402.8H114.6C62.9 402.8 21 357.4 21 301.5V101.3Z" fill="url(#paint0_linear)"/>
<path d="M21.5 126C33.3741 126 43 116.374 43 104.5C43 92.6259 33.3741 83 21.5 83C9.62588 83 0 92.6259 0 104.5C0 116.374 9.62588 126 21.5 126Z" fill="url(#paint1_linear)"/>
<path d="M304.359 277C302.359 277 300.659 278.7 301.059 280.7C301.759 283.8 303.359 286.7 305.759 289C308.959 292.2 313.359 294 317.959 294C322.559 294 326.959 292.2 330.159 289C332.459 286.7 334.159 283.8 334.859 280.7C335.359 278.7 333.659 277 331.559 277C329.559 277 327.959 278.7 327.159 280.6C326.659 281.8 325.959 282.9 324.959 283.9C323.059 285.7 320.559 286.7 317.959 286.7C315.359 286.7 312.859 285.7 310.959 283.9C309.959 283 309.259 281.9 308.759 280.6C307.959 278.8 306.359 277 304.359 277Z" fill="#FF7A59"/>
<path d="M221.843 128.048C221.774 128.073 221.774 128.073 221.843 128.048L126.877 126.185C125.313 126.128 124.156 126.774 123.673 127.796L92.1379 197.663C92.1379 197.663 92.1379 197.663 92.2063 197.638C91.9429 198.196 91.8654 198.841 92.1104 199.525L116.711 276.599C117.329 278.539 119.779 280.207 122.193 280.269L217.09 282.156C218.722 282.189 219.88 281.542 220.27 280.477C220.27 280.477 220.27 280.477 220.226 280.57L251.761 210.703C252.024 210.146 252.033 209.525 251.788 208.841L227.8 133.477C227.8 133.477 226.739 128.146 221.843 128.048ZM93.8078 196.293L93.7394 196.318L93.8078 196.293ZM92.4063 197.335C92.3379 197.36 92.3379 197.36 92.4063 197.335C92.3379 197.36 92.3379 197.36 92.4063 197.335ZM93.3291 196.465C93.2607 196.489 93.2607 196.489 93.2607 196.489C93.2852 196.557 93.3291 196.465 93.3291 196.465ZM93.0361 196.724C92.9677 196.748 92.9677 196.748 92.9238 196.841C92.9677 196.748 92.9677 196.748 93.0361 196.724ZM92.6503 196.939C92.6503 196.939 92.5819 196.964 92.6064 197.032C92.6064 197.032 92.6748 197.008 92.6503 196.939ZM94.1498 196.171C94.2182 196.146 94.2181 196.146 94.2865 196.122C94.311 196.19 94.2427 196.214 94.1498 196.171ZM94.6775 196.136C94.7459 196.111 94.7459 196.111 94.8143 196.087C94.7459 196.111 94.7459 196.111 94.6775 196.136ZM220.402 280.198C220.402 280.198 220.377 280.13 220.445 280.105L220.402 280.198ZM220.46 279.714L220.435 279.646C220.504 279.621 220.528 279.69 220.46 279.714ZM220.449 279.255C220.425 279.187 220.425 279.187 220.4 279.118C220.425 279.187 220.449 279.255 220.449 279.255Z" fill="#C3D0E4"/>
<path d="M227.027 205.21L162.947 204.475C159.546 204.459 156.509 202.229 155.519 199.034L142.177 157.05C140.569 151.916 144.541 146.634 150.059 146.741L209.106 147.427C212.507 147.443 215.544 149.673 216.534 152.868L231.381 199.483C232.249 202.336 230.062 205.28 227.027 205.21Z" fill="white"/>
<path d="M125.923 252.767L111.056 206.314C110.071 203.349 110.322 200.172 111.546 197.341L129.92 156.651C130.359 155.722 131.693 155.785 132.036 156.742L147.893 206.391C148.388 207.988 148.336 209.782 147.59 211.361L128.777 252.98C128.299 254.231 126.413 254.135 125.923 252.767Z" fill="white"/>
<path d="M138.526 256.508L155.125 219.695C156.046 217.744 157.995 216.506 160.155 216.504L225.443 217.809C228.018 217.89 229.731 220.517 228.658 222.908L211.577 260.743C210.962 262.043 209.648 262.9 208.246 262.862C197.925 262.701 156.729 261.871 141.741 261.607C139.166 261.526 137.428 258.83 138.526 256.508Z" fill="white"/>
<path d="M251.453 212.868C252.307 210.83 252.416 208.591 251.786 206.472L228.933 129.525C228.291 127.517 225.748 125.804 223.265 125.767L190.789 197.746C193.272 197.783 195.814 199.495 196.457 201.503L221.822 280.927C222.067 281.611 222.014 282.325 221.726 282.814C227.387 270.267 246.301 225.172 251.453 212.868ZM222.164 254.954L206.753 206.766C205.812 203.708 205.946 200.419 207.282 197.471L226.358 155.295C226.772 154.297 228.199 154.404 228.567 155.429L244.992 206.881C245.512 208.547 245.391 210.365 244.669 212.012L225.179 255.186C224.564 256.486 222.61 256.415 222.164 254.954Z" fill="#D9E1EF"/>
<path d="M221.813 280.927L196.448 201.503C195.806 199.495 193.263 197.782 190.78 197.745L93.0096 195.807C90.5271 195.77 89.0236 197.389 89.6657 199.397L115.031 278.821C115.673 280.829 118.216 282.542 120.699 282.578L218.469 284.517C220.952 284.553 222.455 282.934 221.813 280.927ZM201.849 273.88L130.194 272.463C126.377 272.364 123.012 269.866 121.851 266.192L106.538 218.278C104.661 212.391 109.102 206.479 115.24 206.595L181.285 207.86C185.102 207.959 188.467 210.458 189.628 214.132L206.622 267.385C207.705 270.624 205.25 273.896 201.849 273.88Z" fill="url(#paint2_linear)"/>
<g style="mix-blend-mode:multiply">
<path d="M108.882 180.007L127.865 137.787C128.894 135.489 131.16 134.06 133.599 134.19L208.45 135.696C211.417 135.791 213.345 138.804 212.165 141.542L192.611 184.969C191.909 186.456 190.415 187.454 188.782 187.421C176.966 187.179 129.701 186.208 112.528 185.877C109.562 185.783 107.609 182.701 108.882 180.007Z" fill="#95F2FF"/>
</g>
<g style="mix-blend-mode:multiply">
<path d="M201.928 274.082L130.248 272.598C126.431 272.499 123.067 270 121.905 266.326L106.544 218.275C104.666 212.389 109.108 206.476 115.245 206.592L181.315 207.926C185.132 208.025 188.496 210.524 189.658 214.198L206.701 267.588C207.784 270.827 205.329 274.099 201.928 274.082Z" fill="#95F2FF"/>
</g>
<g style="mix-blend-mode:multiply">
<path d="M222.164 254.95L206.754 206.762C205.812 203.704 205.946 200.415 207.282 197.467L226.358 155.291C226.773 154.294 228.2 154.4 228.567 155.425L244.992 206.877C245.512 208.543 245.392 210.361 244.67 212.008L225.179 255.182C224.565 256.482 222.61 256.411 222.164 254.95Z" fill="#95F2FF"/>
</g>
<path d="M200.832 191.748L227.53 132.72C228.954 129.586 226.805 125.957 223.355 125.804L223.286 125.829L128.05 123.936C124.039 123.764 121.288 125.884 120.257 128.635L89.7669 197.505C90.2497 196.483 91.4072 195.837 93.0394 195.869L190.81 197.808L190.879 197.783C195.086 197.896 199.057 195.625 200.832 191.748ZM108.911 180.075L127.919 137.923C128.972 135.693 131.214 134.196 133.652 134.326L208.479 135.763C211.421 135.79 213.374 138.871 212.169 141.541L192.591 184.9C191.889 186.386 190.394 187.385 188.762 187.352C176.946 187.109 129.705 186.207 112.533 185.877C109.591 185.85 107.731 182.812 108.911 180.075Z" fill="url(#paint3_linear)"/>
<path d="M229.494 131.322C229.273 130.707 228.399 130.634 228.16 131.26L199.799 194.048C197.654 198.829 197.361 204.259 198.92 209.256L221.79 280.854C222.035 281.538 221.982 282.252 221.694 282.74C252.426 214.745 252.91 204.473 229.494 131.322ZM222.156 254.949L206.746 206.761C205.805 203.703 205.938 200.414 207.274 197.466L226.351 155.29C226.765 154.293 228.192 154.399 228.559 155.425L244.985 206.876C245.504 208.542 245.384 210.36 244.662 212.007L225.172 255.181C224.557 256.481 222.602 256.41 222.156 254.949Z" fill="#D9E1EF"/>
<path d="M164.528 232.295C164.528 235.553 161.888 238.193 158.63 238.193C155.372 238.193 152.731 235.553 152.731 232.295C152.731 229.037 155.372 226.396 158.63 226.396C161.888 226.396 164.528 229.037 164.528 232.295Z" fill="white" fill-opacity="0.7"/>
<path d="M162.169 232.292C162.169 234.247 160.585 235.831 158.63 235.831C156.675 235.831 155.091 234.247 155.091 232.292C155.091 230.337 156.675 228.753 158.63 228.753C160.585 228.753 162.169 230.337 162.169 232.292Z" fill="white"/>
<g opacity="0.59">
<path d="M184.667 171.443C184.667 176.714 180.395 180.986 175.124 180.986C169.853 180.986 165.581 176.714 165.581 171.443C165.581 166.172 169.853 161.899 175.124 161.899C180.395 161.899 184.667 166.172 184.667 171.443Z" fill="white" fill-opacity="0.7"/>
<path d="M180.85 171.446C180.85 174.608 178.286 177.172 175.124 177.172C171.961 177.172 169.397 174.608 169.397 171.446C169.397 168.283 171.961 165.72 175.124 165.72C178.286 165.72 180.85 168.283 180.85 171.446Z" fill="white"/>
</g>
<g opacity="0.69">
<path d="M266.158 162.468C266.158 165.44 263.749 167.85 260.777 167.85C257.805 167.85 255.396 165.44 255.396 162.468C255.396 159.496 257.805 157.087 260.777 157.087C263.749 157.087 266.158 159.496 266.158 162.468Z" fill="white" fill-opacity="0.7"/>
<path d="M264.004 162.47C264.004 164.253 262.558 165.699 260.775 165.699C258.992 165.699 257.546 164.253 257.546 162.47C257.546 160.687 258.992 159.241 260.775 159.241C262.558 159.241 264.004 160.687 264.004 162.47Z" fill="white"/>
</g>
<g opacity="0.75">
<path d="M177.334 48.2968C177.334 52.3267 174.067 55.5936 170.037 55.5936C166.007 55.5936 162.74 52.3267 162.74 48.2968C162.74 44.2669 166.007 41 170.037 41C174.067 41 177.334 44.2669 177.334 48.2968Z" fill="white" fill-opacity="0.7"/>
<path d="M174.416 48.2951C174.416 50.713 172.456 52.6731 170.038 52.6731C167.62 52.6731 165.66 50.713 165.66 48.2951C165.66 45.8771 167.62 43.917 170.038 43.917C172.456 43.917 174.416 45.8771 174.416 48.2951Z" fill="white"/>
</g>
<path d="M208.562 103.501C208.562 107.481 205.336 110.707 201.355 110.707C197.375 110.707 194.149 107.481 194.149 103.501C194.149 99.5204 197.375 96.2939 201.355 96.2939C205.336 96.2939 208.562 99.5204 208.562 103.501Z" fill="white" fill-opacity="0.7"/>
<path d="M205.679 103.497C205.679 105.885 203.743 107.821 201.355 107.821C198.967 107.821 197.031 105.885 197.031 103.497C197.031 101.109 198.967 99.1729 201.355 99.1729C203.743 99.1729 205.679 101.109 205.679 103.497Z" fill="white"/>
<g opacity="0.5">
<path d="M145.035 92.4487C145.035 95.2049 142.8 97.4393 140.044 97.4393C137.288 97.4393 135.053 95.2049 135.053 92.4487C135.053 89.6924 137.288 87.458 140.044 87.458C142.8 87.458 145.035 89.6924 145.035 92.4487Z" fill="white" fill-opacity="0.7"/>
<path d="M143.036 92.4495C143.036 94.1032 141.695 95.4439 140.041 95.4439C138.388 95.4439 137.047 94.1032 137.047 92.4495C137.047 90.7957 138.388 89.4551 140.041 89.4551C141.695 89.4551 143.036 90.7957 143.036 92.4495Z" fill="white"/>
</g>
<g filter="url(#filter0_f)">
<path d="M203.549 303.946C203.549 305.43 202.346 306.633 200.862 306.633C199.378 306.633 198.175 305.43 198.175 303.946C198.175 302.462 199.378 301.259 200.862 301.259C202.346 301.259 203.549 302.462 203.549 303.946Z" fill="white" fill-opacity="0.7"/>
</g>
<path d="M202.476 303.948C202.476 304.839 201.754 305.56 200.864 305.56C199.973 305.56 199.251 304.839 199.251 303.948C199.251 303.058 199.973 302.336 200.864 302.336C201.754 302.336 202.476 303.058 202.476 303.948Z" fill="white"/>
<g opacity="0.8">
<path d="M160.622 316.344C160.622 318.915 158.538 321 155.967 321C153.396 321 151.312 318.915 151.312 316.344C151.312 313.774 153.396 311.689 155.967 311.689C158.538 311.689 160.622 313.774 160.622 316.344Z" fill="white" fill-opacity="0.7"/>
<path d="M158.761 316.343C158.761 317.885 157.511 319.136 155.968 319.136C154.426 319.136 153.175 317.885 153.175 316.343C153.175 314.8 154.426 313.55 155.968 313.55C157.511 313.55 158.761 314.8 158.761 316.343Z" fill="white"/>
</g>
<path d="M227.958 221.344C227.958 226.027 224.161 229.824 219.477 229.824C214.794 229.824 210.997 226.027 210.997 221.344C210.997 216.66 214.794 212.863 219.477 212.863C224.161 212.863 227.958 216.66 227.958 221.344Z" fill="white" fill-opacity="0.7"/>
<path d="M224.563 221.344C224.563 224.154 222.285 226.432 219.475 226.432C216.665 226.432 214.387 224.154 214.387 221.344C214.387 218.534 216.665 216.256 219.475 216.256C222.285 216.256 224.563 218.534 224.563 221.344Z" fill="white"/>
<g opacity="0.51">
<path d="M191.608 252.309C191.608 256.993 187.811 260.79 183.128 260.79C178.444 260.79 174.647 256.993 174.647 252.309C174.647 247.626 178.444 243.829 183.128 243.829C187.811 243.829 191.608 247.626 191.608 252.309Z" fill="white" fill-opacity="0.7"/>
<path d="M188.213 252.304C188.213 255.114 185.935 257.392 183.125 257.392C180.315 257.392 178.037 255.114 178.037 252.304C178.037 249.494 180.315 247.216 183.125 247.216C185.935 247.216 188.213 249.494 188.213 252.304Z" fill="white"/>
</g>
<defs>
<filter id="filter0_f" x="194.175" y="297.259" width="13.374" height="13.374" filterUnits="userSpaceOnUse" color-interpolation-filters="sRGB">
<feFlood flood-opacity="0" result="BackgroundImageFix"/>
<feBlend mode="normal" in="SourceGraphic" in2="BackgroundImageFix" result="shape"/>
<feGaussianBlur stdDeviation="2" result="effect1_foregroundBlur"/>
</filter>
<linearGradient id="paint0_linear" x1="169.515" y1="0.0131" x2="169.515" y2="402.863" gradientUnits="userSpaceOnUse">
<stop stop-color="#95F2FF"/>
<stop offset="1" stop-color="#82E1FE"/>
</linearGradient>
<linearGradient id="paint1_linear" x1="21.5" y1="83" x2="21.5" y2="126" gradientUnits="userSpaceOnUse">
<stop stop-color="#1DD5C6"/>
<stop offset="1" stop-color="#18CBBD"/>
</linearGradient>
<linearGradient id="paint2_linear" x1="207.313" y1="281.436" x2="97.8166" y2="197.967" gradientUnits="userSpaceOnUse">
<stop stop-color="#A3C5DC"/>
<stop offset="1" stop-color="#D3D3E7"/>
</linearGradient>
<linearGradient id="paint3_linear" x1="144.493" y1="129.75" x2="194.754" y2="198.859" gradientUnits="userSpaceOnUse">
<stop stop-color="#E5E6F3"/>
<stop offset="1" stop-color="white"/>
</linearGradient>
</defs>
</svg>
