<svg width="347" height="424" viewBox="0 0 347 424" fill="none" xmlns="http://www.w3.org/2000/svg">
<path d="M31.433 75C42.2505 75 51 84.7778 51 96.8667L51 133.133C51 145.222 42.2505 155 31.433 155L19.567 155C8.74948 155 2.42739e-05 145.222 2.42739e-05 133.133L0 96.8667C0 84.7778 8.74948 75 19.567 75L31.433 75Z" fill="#FFCA62"/>
<path d="M22.7793 101.35C22.7793 45.4225 64.6793 0 116.379 0H226.179C277.879 0 319.779 45.4225 319.779 101.35V301.65C319.779 357.677 277.879 403 226.179 403H116.379C64.6793 403 22.7793 357.577 22.7793 301.65V101.35Z" fill="url(#paint0_linear)"/>
<path d="M90.0449 334.259C97.5183 353.616 137.19 366.739 150.045 334.259C137.547 329.246 99.1406 325.495 90.0449 334.259Z" fill="#D0F1FF"/>
<path d="M306.141 293C304.041 293 302.441 294.7 302.841 296.7C303.641 299.8 305.141 302.8 307.541 305C310.841 308.2 315.141 310 319.741 310C324.341 310 328.741 308.3 331.941 305C334.341 302.7 335.841 299.8 336.641 296.7C337.141 294.7 335.441 293 333.341 293.1C331.241 293.1 329.741 294.8 328.941 296.7C328.441 297.9 327.741 299 326.741 299.9C324.841 301.7 322.341 302.7 319.741 302.8C317.141 302.8 314.541 301.8 312.741 299.9C311.741 299 311.041 297.9 310.541 296.7C309.841 294.7 308.141 293 306.141 293Z" fill="#FFAB49"/>
<path d="M248.193 200.84C242.151 208.788 248.524 217.818 255.693 222C265.255 227.577 269.265 227.07 280.106 237.402C290.947 247.733 282.688 335.172 294.045 385.796C293.362 385.812 281.139 403.025 227.797 403.025H157.656C149.848 403.025 135.045 403 135.045 403C135.368 392.273 135.766 378.519 136.167 367.786C137.633 328.456 139.122 307.488 136.989 262.759C136.055 243.176 146.669 236.519 154.387 231.677L154.408 231.665C167.679 223.735 180.475 221.244 188.295 215.668C196.115 210.093 197.3 204.043 189.48 200.84C181.66 197.637 173.011 195.739 160.926 180.199C148.84 164.659 140.723 129.438 166.551 96.6941C182.613 76.3299 218.158 61.4682 248.1 78.2984C270.698 91.001 287.825 113.426 282.273 145.453C276.721 177.479 263.686 182.453 248.193 200.84Z" fill="url(#paint1_linear)"/>
<path d="M110.833 201.341C124.541 203.105 145.768 212.312 152.337 232.132C158.906 251.953 148.655 280.911 103.032 279.58C40.6988 277.76 47.835 232.966 61.3918 219.297C75.0695 205.506 90.1477 198.681 110.833 201.341Z" fill="#17E1D5"/>
<path d="M79.1071 234.861C79.5906 234.74 80.3425 235.153 80.5401 236.07C83.5621 250.092 91.9205 264.537 98.7502 269.674C99.7777 270.46 101.12 271.57 101.18 270.241L101.712 221.564C101.712 221.08 102.135 220.657 102.618 220.657H103.827C104.311 220.657 104.734 221.08 104.734 221.564L105.217 256.075C105.278 257.405 105.192 259.554 106.34 258.889C106.824 258.587 108.404 257.581 109.206 256.559C116.036 247.855 119.24 231.597 119.965 227.608C120.025 227.124 120.509 226.762 121.053 226.883L121.234 226.943C121.718 227.003 122.02 227.427 121.959 227.91C120.569 245.438 115.311 255.652 107.575 262.603C106.668 263.449 105.58 265.806 105.58 267.015L105.701 307.475C105.701 308.019 105.036 308.502 102.558 308.502C100.08 308.502 100.382 307.958 100.443 307.414L100.987 280.916C101.047 278.801 100.201 275.839 98.2063 274.086C88.3545 265.202 81.8269 255.29 78.3818 236.07C78.3818 235.465 78.684 234.982 79.1071 234.861Z" fill="#12B4AA"/>
<path d="M83.8608 295.994C86.4313 294.102 90.755 288.301 102.94 288.301C115.182 288.301 122.533 297.964 124.736 305.926C119.791 317.407 75.2719 311.08 83.8608 295.994Z" fill="#12B4AA"/>
<path d="M291.684 255.936C297.375 276.37 283.768 308.454 277.488 337.34C271.207 366.227 252.505 379.716 240.987 382.538C229.468 385.361 211.275 388.93 184.839 373.124C158.403 357.318 139.766 343.119 129.091 341.421C117.958 339.651 91.3294 338.801 79.0637 326.453C67.1973 314.508 68.3797 290.091 74.9248 292.909C74.2987 288.668 82.6849 288.224 83.7196 294.408C84.7542 300.593 87.2693 304.938 94.0662 308.324C99.2395 310.901 104.926 311.4 113.207 309.354C117.458 308.304 114.23 304.639 111.451 303.254C105.195 300.137 102.676 301.847 96.6528 300.593C90.63 299.338 90.5323 294.176 96.5932 292.909C103.673 291.43 107.509 291.372 116.828 294.408C125.778 297.325 129.988 302.983 135.01 310.17C140.033 317.358 141.61 318.72 156.005 326.453C170.4 334.187 192.358 344.4 209.439 347.159C224.803 349.641 230.096 346.699 232.433 342.898C256.667 303.483 243.298 289.078 253.402 252.662C261.045 220.488 285.994 235.502 291.684 255.936Z" fill="url(#paint2_linear)"/>
<path d="M160.189 145.455C160.163 171.232 179.512 192.129 203.387 192.12C227.262 192.11 246.612 171.203 246.638 145.426C246.664 119.649 227.314 98.752 203.44 98.7613C179.481 98.7843 160.13 119.692 160.189 145.455Z" fill="url(#paint3_linear)"/>
<path d="M202.118 108.631C192.146 119.909 218.984 142.862 230.365 132.82C241.745 122.778 212.077 97.2692 202.118 108.631Z" fill="#359EFD"/>
<path d="M213.772 149.5C213.807 151.976 215.798 154.041 218.274 154.006C220.75 153.97 222.816 151.979 222.78 149.503C222.745 147.027 220.754 144.961 218.278 144.997C215.787 144.943 213.736 147.023 213.772 149.5Z" fill="#354781"/>
<path d="M219.42 146.923C219.27 147.131 219.433 147.565 219.76 147.879C220.177 148.179 220.639 148.196 220.789 147.988C220.939 147.779 220.777 147.346 220.449 147.031C220.122 146.717 219.66 146.7 219.42 146.923Z" fill="#9CB0CD"/>
<path d="M220.464 150.523C220.941 150.629 221.387 151.108 221.102 151.614C220.427 152.551 219.411 153.084 218.218 153.095C216.293 153.132 214.644 151.47 214.696 149.532C214.729 148.607 215.046 147.728 215.674 147.074C216.064 146.643 216.689 147.093 216.955 147.601C217.251 148.288 217.726 148.946 218.469 149.561C219.109 150.1 219.794 150.356 220.464 150.523Z" fill="#1A2A63"/>
<path d="M167.006 143.419C167.041 145.895 168.66 147.929 170.688 147.967C172.716 148.004 174.409 145.982 174.374 143.506C174.338 141.03 172.72 138.995 170.692 138.958C168.663 138.92 166.97 140.943 167.006 143.419Z" fill="#354781"/>
<path d="M172.37 145.304C172.743 145.335 173.084 145.739 172.859 146.051C172.335 146.78 171.483 147.195 170.648 147.147C168.992 147.141 167.612 145.435 167.559 143.421C167.564 142.318 167.955 141.335 168.494 140.695C168.719 140.383 169.15 140.772 169.209 141.131C169.221 141.772 169.338 142.488 169.738 143.25C170.479 144.417 171.431 145.181 172.37 145.304Z" fill="#1A2A63"/>
<path opacity="0.54" d="M172.043 141.037C171.789 141.171 171.772 141.633 171.935 142.066C172.187 142.485 172.589 142.696 172.843 142.562C173.097 142.429 173.114 141.966 172.951 141.533C172.699 141.114 172.297 140.904 172.043 141.037Z" fill="white"/>
<path d="M292.385 354.125C292.577 343.625 305.484 338.741 312.453 346.553L338.717 375.997C342.929 380.719 342.511 388.028 337.79 392.239L310.92 416.207C303.452 422.869 291.702 417.472 291.78 407.537L292.385 354.125Z" fill="#628BF2"/>
<defs>
<linearGradient id="paint0_linear" x1="171.295" y1="0.0131065" x2="171.295" y2="403.063" gradientUnits="userSpaceOnUse">
<stop stop-color="#95F2FF"/>
<stop offset="1" stop-color="#82E1FE"/>
</linearGradient>
<linearGradient id="paint1_linear" x1="214.545" y1="74.3095" x2="214.545" y2="422.212" gradientUnits="userSpaceOnUse">
<stop stop-color="white"/>
<stop offset="1" stop-color="#AFE7FF"/>
</linearGradient>
<linearGradient id="paint2_linear" x1="296.858" y1="320.697" x2="57.8533" y2="320.697" gradientUnits="userSpaceOnUse">
<stop stop-color="#D9F4FF"/>
<stop offset="0.34375" stop-color="#D9F4FF"/>
<stop offset="1" stop-color="white"/>
</linearGradient>
<linearGradient id="paint3_linear" x1="219.769" y1="102.189" x2="186.984" y2="188.722" gradientUnits="userSpaceOnUse">
<stop stop-color="#38A0FF"/>
<stop offset="1" stop-color="#0071D8"/>
</linearGradient>
</defs>
</svg>
