<svg width="634" height="357" viewBox="0 0 634 357" fill="none" xmlns="http://www.w3.org/2000/svg">
<path d="M392.104 29.6653C399.421 31.3829 401.915 40.5718 396.382 45.6987L369.874 70.2918C365.258 74.5492 357.871 73.247 355.072 67.5973L337.68 32.6988C334.146 25.5983 340.446 17.4813 348.295 19.3325L392.104 29.6653Z" fill="#108CFF"/>
<rect x="120.598" y="44.3457" width="401.581" height="296.791" rx="96" fill="#E3EEFE"/>
<path d="M138.093 319.824C136.327 320.883 134.035 320.252 133.436 318.29C132.544 315.234 132.385 311.91 133.293 308.738C134.54 304.378 137.41 300.607 141.401 298.293C145.393 295.979 150.048 295.318 154.458 296.479C157.679 297.299 160.487 299.036 162.635 301.315C164.067 302.835 163.437 305.127 161.584 306.136C159.818 307.194 157.576 306.477 155.994 305.218C154.969 304.394 153.793 303.831 152.467 303.527C149.952 302.884 147.283 303.306 144.971 304.511C142.695 305.853 140.999 307.991 140.355 310.506C139.965 311.782 139.884 313.121 140.077 314.387C140.439 316.56 139.809 318.851 138.093 319.824Z" fill="#FFAB49"/>
<path d="M506.705 327.06C516.819 321.244 516.819 306.663 506.789 300.848L472.907 281.041C463.299 275.394 451.078 281.716 450.151 292.841L446.527 334.308C445.431 346.529 458.579 354.873 469.199 348.805L506.705 327.06Z" fill="#FFCA62"/>
<path opacity="0.3" fill-rule="evenodd" clip-rule="evenodd" d="M633.941 152.272L447.489 152.273C442.8 152.273 438.273 152.967 434.006 154.258H398.562V152.671C398.562 150.449 396.761 148.647 394.539 148.647H364.043C361.821 148.647 360.02 150.449 360.02 152.671V154.258H271.225V152.671C271.225 150.449 269.424 148.647 267.202 148.647H236.706C234.484 148.647 232.683 150.449 232.683 152.671V154.258H208.06C203.987 154.258 200.684 157.561 200.684 161.634V178.598H145.648C137.574 178.598 130.611 183.378 127.408 190.255C127.375 190.253 127.341 190.251 127.308 190.251H106.863C106.122 190.251 105.521 190.852 105.521 191.593L105.522 193.29H0V204.23H105.522L105.521 205.929C105.521 206.669 106.122 207.27 106.863 207.27H127.308C127.325 207.27 127.341 207.27 127.358 207.269C127.375 207.268 127.391 207.267 127.408 207.266C130.611 214.143 137.574 218.923 145.648 218.923H200.684V235.886C200.684 239.96 203.987 243.263 208.06 243.263H434.008C438.275 244.554 442.801 245.247 447.489 245.247L633.941 245.247V152.272ZM467.376 213.378C469.98 209.524 471.5 204.877 471.5 199.875C471.5 198.208 471.331 196.581 471.01 195.008C470.211 191.107 468.472 187.548 466.04 184.579C461.611 179.174 454.883 175.725 447.35 175.725C440.681 175.725 434.644 178.428 430.274 182.799C425.904 187.169 423.201 193.206 423.2 199.874C423.2 205.385 425.045 210.463 428.151 214.527C432.563 220.3 439.522 224.025 447.35 224.025C455.686 224.025 463.036 219.802 467.376 213.378Z" fill="#B0BFD9"/>
<path d="M134.649 185.844C134.649 185.103 134.049 184.503 133.308 184.503H112.863C112.122 184.503 111.522 185.103 111.522 185.844V200.18C111.522 200.921 112.122 201.521 112.863 201.521H133.308C134.049 201.521 134.649 200.921 134.649 200.18V185.844Z" fill="url(#paint0_linear)"/>
<path d="M206.684 172.85H151.647C140.537 172.85 131.53 181.902 131.53 193.012C131.53 204.123 140.537 213.175 151.647 213.175H206.684V172.85Z" fill="url(#paint1_linear)"/>
<path d="M0 187.575H111.475V198.575H0V187.575Z" fill="url(#paint2_linear)"/>
<path d="M366.02 148.51H404.562V146.923C404.562 144.701 402.761 142.899 400.539 142.899H370.043C367.821 142.899 366.02 144.701 366.02 146.923V148.51Z" fill="white"/>
<path d="M238.683 148.51H277.225V146.923C277.225 144.701 275.424 142.899 273.202 142.899H242.706C240.484 142.899 238.683 144.701 238.683 146.923V148.51Z" fill="white"/>
<path fill-rule="evenodd" clip-rule="evenodd" d="M214.06 148.51C209.986 148.51 206.684 151.812 206.684 155.886V230.138C206.684 234.212 209.986 237.514 214.06 237.514H492.566C496.64 237.514 499.943 234.212 499.943 230.138V155.886C499.943 151.812 496.64 148.51 492.566 148.51H214.06ZM453.35 218.277C466.688 218.277 477.501 207.464 477.501 194.127C477.501 180.789 466.688 169.977 453.35 169.977C440.013 169.977 429.2 180.789 429.2 194.127C429.2 207.464 440.013 218.277 453.35 218.277Z" fill="url(#paint3_linear)"/>
<path fill-rule="evenodd" clip-rule="evenodd" d="M453.975 146.574C428.293 146.574 407.475 167.393 407.475 193.074C407.475 218.755 428.293 239.574 453.975 239.574H628.623C631.937 239.574 634.623 236.888 634.623 233.574V152.574C634.623 149.261 631.937 146.574 628.623 146.574H453.975ZM453.35 218.276C466.688 218.276 477.5 207.463 477.5 194.126C477.5 180.788 466.688 169.976 453.35 169.976C440.012 169.976 429.2 180.788 429.2 194.126C429.2 207.463 440.012 218.276 453.35 218.276Z" fill="white"/>
<rect x="251.865" y="168.644" width="139.046" height="48.1942" rx="4.41186" fill="#57AEFF"/>
<rect x="385.459" y="133.466" width="2.64163" height="2.64163" transform="rotate(90 385.459 133.466)" fill="#108CFF"/>
<rect x="385.459" y="129.484" width="2.64163" height="2.64163" transform="rotate(90 385.459 129.484)" fill="#108CFF"/>
<rect x="385.459" y="125.502" width="2.64163" height="2.64163" transform="rotate(90 385.459 125.502)" fill="#108CFF"/>
<rect x="385.459" y="121.521" width="2.64163" height="2.64163" transform="rotate(90 385.459 121.521)" fill="#108CFF"/>
<rect x="385.459" y="117.539" width="2.64163" height="2.64163" transform="rotate(90 385.459 117.539)" fill="#108CFF"/>
<rect x="385.459" y="113.557" width="2.64163" height="2.64163" transform="rotate(90 385.459 113.557)" fill="#108CFF"/>
<rect x="385.459" y="109.575" width="2.64163" height="2.64163" transform="rotate(90 385.459 109.575)" fill="#108CFF"/>
<rect x="390.062" y="129.314" width="2.64163" height="2.64163" transform="rotate(90 390.062 129.314)" fill="#108CFF"/>
<rect width="2.64163" height="2.64163" transform="matrix(-4.37114e-08 1 1 4.37114e-08 378.29 129.314)" fill="#108CFF"/>
<rect x="393.611" y="125.163" width="2.64163" height="2.64163" transform="rotate(90 393.611 125.163)" fill="#108CFF"/>
<rect width="2.64163" height="2.64163" transform="matrix(-4.37114e-08 1 1 4.37114e-08 374.742 125.163)" fill="#108CFF"/>
<rect x="397.385" y="121.013" width="2.64163" height="2.64163" transform="rotate(90 397.385 121.013)" fill="#108CFF"/>
<rect width="2.64163" height="2.64163" transform="matrix(-4.37114e-08 1 1 4.37114e-08 370.969 121.013)" fill="#108CFF"/>
<rect x="259.99" y="133.466" width="2.64163" height="2.64163" transform="rotate(90 259.99 133.466)" fill="#108CFF"/>
<rect x="259.99" y="129.484" width="2.64163" height="2.64163" transform="rotate(90 259.99 129.484)" fill="#108CFF"/>
<rect x="259.99" y="125.502" width="2.64163" height="2.64163" transform="rotate(90 259.99 125.502)" fill="#108CFF"/>
<rect x="259.99" y="121.521" width="2.64163" height="2.64163" transform="rotate(90 259.99 121.521)" fill="#108CFF"/>
<rect x="259.99" y="117.539" width="2.64163" height="2.64163" transform="rotate(90 259.99 117.539)" fill="#108CFF"/>
<rect x="259.99" y="113.557" width="2.64163" height="2.64163" transform="rotate(90 259.99 113.557)" fill="#108CFF"/>
<rect x="259.99" y="109.575" width="2.64163" height="2.64163" transform="rotate(90 259.99 109.575)" fill="#108CFF"/>
<rect x="264.594" y="129.314" width="2.64163" height="2.64163" transform="rotate(90 264.594 129.314)" fill="#108CFF"/>
<rect width="2.64163" height="2.64163" transform="matrix(-4.37114e-08 1 1 4.37114e-08 252.821 129.314)" fill="#108CFF"/>
<rect x="268.143" y="125.163" width="2.64163" height="2.64163" transform="rotate(90 268.143 125.163)" fill="#108CFF"/>
<rect width="2.64163" height="2.64163" transform="matrix(-4.37114e-08 1 1 4.37114e-08 249.273 125.163)" fill="#108CFF"/>
<rect x="271.916" y="121.013" width="2.64163" height="2.64163" transform="rotate(90 271.916 121.013)" fill="#108CFF"/>
<rect width="2.64163" height="2.64163" transform="matrix(-4.37114e-08 1 1 4.37114e-08 245.5 121.013)" fill="#108CFF"/>
<rect x="263.293" y="193.895" width="1.29313" height="1.29313" transform="rotate(-180 263.293 193.895)" fill="white"/>
<rect x="265.325" y="196.148" width="1.29313" height="1.29313" transform="rotate(-180 265.325 196.148)" fill="white"/>
<rect width="1.29313" height="1.29313" transform="matrix(-1 -8.74228e-08 -8.74228e-08 1 265.325 190.386)" fill="white"/>
<rect x="267.357" y="197.885" width="1.29313" height="1.29313" transform="rotate(-180 267.357 197.885)" fill="white"/>
<rect width="1.29313" height="1.29313" transform="matrix(-1 -8.74228e-08 -8.74228e-08 1 267.357 188.648)" fill="white"/>
<rect x="269.389" y="199.732" width="1.29313" height="1.29313" transform="rotate(-180 269.389 199.732)" fill="white"/>
<rect width="1.29313" height="1.29313" transform="matrix(-1 -8.74228e-08 -8.74228e-08 1 269.39 186.801)" fill="white"/>
<rect width="1.29313" height="1.29313" transform="matrix(1 -8.74228e-08 -8.74228e-08 -1 383.428 193.895)" fill="white"/>
<rect width="1.29313" height="1.29313" transform="matrix(1 -8.74228e-08 -8.74228e-08 -1 381.396 196.148)" fill="white"/>
<rect x="381.396" y="190.386" width="1.29313" height="1.29313" fill="white"/>
<rect width="1.29313" height="1.29313" transform="matrix(1 -8.74228e-08 -8.74228e-08 -1 379.363 197.885)" fill="white"/>
<rect x="379.363" y="188.648" width="1.29313" height="1.29313" fill="white"/>
<rect width="1.29313" height="1.29313" transform="matrix(1 -8.74228e-08 -8.74228e-08 -1 377.331 199.732)" fill="white"/>
<rect x="377.331" y="186.801" width="1.29313" height="1.29313" fill="white"/>
<path d="M294.3 204.439H295.429V199.199H294.3V204.439ZM297.665 204.439H298.786V201.052L301.311 204.439H302.44V199.199H301.311V202.586L298.786 199.199H297.665V204.439ZM306.654 204.531C307.936 204.531 308.691 203.867 308.691 202.868C308.691 201.899 307.944 201.564 306.815 201.312C306.006 201.129 305.693 201.007 305.693 200.625C305.693 200.313 305.983 200.061 306.464 200.061C306.967 200.061 307.494 200.267 307.959 200.641L308.546 199.832C308.012 199.374 307.349 199.107 306.494 199.107C305.35 199.107 304.557 199.771 304.557 200.74C304.557 201.754 305.342 202.067 306.448 202.319C307.249 202.502 307.555 202.616 307.555 202.99C307.555 203.318 307.265 203.577 306.7 203.577C306.037 203.577 305.472 203.318 304.976 202.891L304.328 203.661C304.938 204.226 305.747 204.531 306.654 204.531ZM312 204.439H313.129V200.213H314.762V199.199H310.368V200.213H312V204.439ZM320.109 204.439H321.375L319.239 199.199H317.98L315.844 204.439H317.103L317.439 203.616H319.773L320.109 204.439ZM317.828 202.662L318.606 200.747L319.384 202.662H317.828ZM324.228 203.425V199.199H323.099V204.439H326.837V203.425H324.228ZM329.797 203.425V199.199H328.668V204.439H332.406V203.425H329.797ZM341.395 204.439H342.661L340.525 199.199H339.267L337.131 204.439H338.389L338.725 203.616H341.059L341.395 204.439ZM339.114 202.662L339.892 200.747L340.67 202.662H339.114ZM344.423 204.439H345.545V202.738H346.78C347.917 202.738 348.756 202.006 348.756 200.969C348.756 199.931 347.917 199.199 346.78 199.199H344.423V204.439ZM345.545 201.709V200.229H346.658C347.215 200.229 347.597 200.519 347.597 200.969C347.597 201.419 347.215 201.709 346.658 201.709H345.545ZM350.603 204.439H351.725V202.738H352.96C354.097 202.738 354.936 202.006 354.936 200.969C354.936 199.931 354.097 199.199 352.96 199.199H350.603V204.439ZM351.725 201.709V200.229H352.838C353.395 200.229 353.777 200.519 353.777 200.969C353.777 201.419 353.395 201.709 352.838 201.709H351.725Z" fill="white"/>
<path fill-rule="evenodd" clip-rule="evenodd" d="M319.271 179V180.035H318.237V181.069H317.202V191.414H318.237V192.449H319.271V193.483H329.616V192.449H330.651V191.414H331.685V181.069H330.651V180.035H329.616V179H319.271ZM327.547 182.104V181.069H321.34V182.104H323.409V185.207H322.374V186.242H323.409V187.276H322.374V188.311H323.409V190.38H321.34V191.414H327.547V190.38H325.478V188.311H326.512V187.276H325.478V186.242H326.512V185.207H325.478V182.104L327.547 182.104Z" fill="#FAFCFE"/>
<path d="M318.684 298.336V295.768H323.196V291.616H325.812V295.768H330.3V298.336H325.812V302.488H323.196V298.336H318.684Z" fill="#57AEFF"/>
<rect x="243" y="264" width="59" height="58" rx="19.7086" fill="#57AEFF"/>
<rect x="344" y="264" width="59" height="58" rx="19.7086" fill="#57AEFF"/>
<rect x="261.293" y="281.811" width="4.96178" height="4.96178" fill="#FAFCFE"/>
<rect x="279.486" y="286.772" width="4.96178" height="4.96178" fill="#FAFCFE"/>
<rect x="267.908" y="300.004" width="4.96178" height="4.96178" fill="#FAFCFE"/>
<rect x="264.923" y="296.435" width="2.3155" height="2.3155" fill="#FAFCFE"/>
<rect x="264.923" y="291.561" width="2.3155" height="2.3155" fill="#FAFCFE"/>
<rect x="267.908" y="284.335" width="2.3155" height="2.3155" fill="#FAFCFE"/>
<rect x="273.027" y="286.686" width="2.3155" height="2.3155" fill="#FAFCFE"/>
<rect x="273.027" y="296.435" width="2.3155" height="2.3155" fill="#FAFCFE"/>
<rect x="277.658" y="293.997" width="2.3155" height="2.3155" fill="#FAFCFE"/>
<path fill-rule="evenodd" clip-rule="evenodd" d="M365.207 281.991V283.645H363.553V285.299H361.899V301.838H363.553V303.492H365.207V305.146H381.747V303.492H383.4V301.838H385.054V285.299H383.4V283.645H381.747V281.991H365.207ZM378.439 286.953V285.299H368.515V286.953H371.823V291.914H370.169V293.568H371.823V295.222H370.169V296.876H371.823V300.184H368.515V301.838H378.439V300.184H375.131V296.876H376.785V295.222H375.131V293.568H376.785V291.914H375.131V286.953L378.439 286.953Z" fill="#FAFCFE"/>
<defs>
<linearGradient id="paint0_linear" x1="112.353" y1="191.841" x2="134.401" y2="191.841" gradientUnits="userSpaceOnUse">
<stop stop-color="white"/>
<stop offset="1" stop-color="#E4EBFA"/>
</linearGradient>
<linearGradient id="paint1_linear" x1="135.148" y1="195.578" x2="207.271" y2="195.578" gradientUnits="userSpaceOnUse">
<stop stop-color="white"/>
<stop offset="1" stop-color="#E4EBFA"/>
</linearGradient>
<linearGradient id="paint2_linear" x1="19.2376" y1="187.575" x2="130.954" y2="187.575" gradientUnits="userSpaceOnUse">
<stop stop-color="white"/>
<stop offset="1" stop-color="#E4EBFA"/>
</linearGradient>
<linearGradient id="paint3_linear" x1="353.313" y1="148.51" x2="353.313" y2="238.323" gradientUnits="userSpaceOnUse">
<stop stop-color="white"/>
<stop offset="1" stop-color="#F0F5FE"/>
</linearGradient>
</defs>
</svg>
