<svg width="402" height="356" viewBox="0 0 402 356" fill="none" xmlns="http://www.w3.org/2000/svg">
<path d="M271.506 29.1058C278.823 30.8233 281.318 40.0122 275.784 45.1392L249.276 69.7322C244.66 73.9897 237.273 72.6875 234.474 67.0377L217.083 32.1392C213.548 25.0387 219.848 16.9217 227.697 18.7729L271.506 29.1058Z" fill="#108CFF"/>
<rect y="43.7861" width="401.581" height="296.791" rx="96" fill="#E3EEFE"/>
<path d="M17.4954 319.264C15.7294 320.323 13.4375 319.693 12.8385 317.73C11.9466 314.675 11.7878 311.35 12.6949 308.179C13.9423 303.818 16.8119 300.048 20.8038 297.734C24.7956 295.42 29.4499 294.758 33.8605 295.919C37.0817 296.74 39.8896 298.476 42.0377 300.756C43.4697 302.275 42.8394 304.567 40.9867 305.576C39.2207 306.635 36.9788 305.918 35.3968 304.658C34.371 303.835 33.1951 303.271 31.8693 302.968C29.3542 302.324 26.6856 302.746 24.3731 303.952C22.0973 305.293 20.4009 307.432 19.7571 309.947C19.3669 311.223 19.2865 312.562 19.4794 313.828C19.8418 316 19.2114 318.292 17.4954 319.264Z" fill="#FFAB49"/>
<path d="M386.107 326.5C396.221 320.685 396.221 306.104 386.191 300.288L352.31 280.482C342.701 274.835 330.481 281.156 329.553 292.281L325.929 333.748C324.834 345.969 337.982 354.313 348.601 348.245L386.107 326.5Z" fill="#FFCA62"/>
<path d="M98.1484 111.406C98.1484 109.398 99.7761 107.771 101.784 107.771H299.796C301.804 107.771 303.432 109.398 303.432 111.406V223.85C303.432 225.857 301.804 227.485 299.796 227.485H101.784C99.7761 227.485 98.1484 225.857 98.1484 223.85V111.406Z" fill="#F2F6FE"/>
<rect x="102" y="113.472" width="197.835" height="108.312" rx="0.363557" fill="#57AEFF"/>
<path d="M399.572 250.161H163.334" stroke="white" stroke-width="3.84476" stroke-linecap="square"/>
<path d="M79.6719 265.571C79.6719 268.206 81.8077 270.342 84.4424 270.342H317.138C319.773 270.342 321.909 268.206 321.909 265.571V264.389H79.6719V265.571Z" fill="#D8E3F5"/>
<path d="M176.18 264.448C176.18 266.555 177.888 268.276 179.996 268.276H221.584C223.691 268.276 225.4 266.555 225.4 264.448H176.18Z" fill="#C4D1E8"/>
<path d="M79.6807 264.425H321.9L305.19 231.003C304.113 228.848 301.909 227.486 299.5 227.486H102.081C99.6708 227.486 97.4677 228.848 96.3901 231.003L79.6807 264.425Z" fill="#FCFCFE"/>
<path d="M111.615 233.122C110.961 233.122 110.369 233.512 110.111 234.114L104.354 247.562C103.891 248.641 104.683 249.842 105.857 249.842H295.723C296.874 249.842 297.666 248.683 297.246 247.61L291.989 234.162C291.744 233.535 291.139 233.122 290.466 233.122H111.615Z" fill="#C4D1E8"/>
<path d="M111.615 233.122C110.961 233.122 110.369 233.512 110.111 234.114L104.354 247.562C103.891 248.641 104.683 249.842 105.857 249.842H295.723C296.874 249.842 297.666 248.683 297.246 247.61L291.989 234.162C291.744 233.535 291.139 233.122 290.466 233.122H111.615Z" stroke="#FF0000"/>
<path d="M179.255 296.689H177.82V310.093H185.411V308.81H179.255V296.689ZM190.016 300.239C187.221 300.239 185.259 302.314 185.259 305.297V305.64C185.297 306.922 185.864 308.133 186.806 309.037C187.713 309.869 188.882 310.358 190.129 310.358H190.317C191.638 310.358 192.885 309.866 193.866 309.037L193.905 308.998L193.264 307.942L193.189 307.981C192.396 308.7 191.414 309.114 190.359 309.114C188.623 309.114 186.848 307.981 186.735 305.452H193.985V305.377C193.985 305.377 194.024 304.924 194.024 304.697C194.015 301.977 192.431 300.239 190.016 300.239ZM186.768 304.241C187.069 302.541 188.316 301.446 189.938 301.446C191.146 301.446 192.467 302.165 192.581 304.241H186.768ZM202.324 301.372V301.864C201.719 300.844 200.588 300.203 199.416 300.203H199.303C196.735 300.203 194.961 302.243 194.961 305.225C194.961 308.247 196.661 310.284 199.19 310.284C201.191 310.284 202.098 309.076 202.399 308.548V310.021H203.759V296.689H202.363V301.372H202.324ZM199.378 309.037C197.603 309.037 196.434 307.528 196.434 305.261C196.434 303.072 197.681 301.524 199.416 301.524C200.89 301.524 202.36 302.693 202.36 305.261C202.36 308.056 200.812 309.037 199.378 309.037ZM212.026 301.56V301.634C211.761 301.181 210.932 300.2 208.93 300.2C206.401 300.2 204.74 302.126 204.74 305.07C204.74 308.014 206.476 310.015 209.044 310.015C210.44 310.015 211.385 309.523 212.026 308.506V309.827C212.026 311.676 210.857 312.735 208.778 312.735C207.91 312.735 207.004 312.508 206.21 312.094L206.136 312.055L205.608 313.224L205.683 313.263C206.664 313.755 207.758 314.018 208.817 314.018C211.045 314.018 213.422 312.884 213.422 309.75V300.465H212.026V301.56ZM209.232 308.771C207.383 308.771 206.175 307.337 206.175 305.109C206.175 302.842 207.23 301.56 209.044 301.56C211.045 301.56 211.988 302.729 211.988 305.109C212.026 307.45 211.045 308.771 209.232 308.771ZM219.125 300.239C216.33 300.239 214.406 302.314 214.406 305.261V305.601C214.445 306.884 215.012 308.094 215.954 308.998C216.861 309.83 218.03 310.319 219.277 310.319H219.465C220.786 310.319 222.032 309.827 223.014 308.998L223.052 308.959L222.372 307.904L222.298 307.942C221.505 308.661 220.523 309.076 219.468 309.076C217.732 309.076 215.957 307.942 215.844 305.413H223.127V305.339C223.127 305.339 223.166 304.885 223.166 304.659C223.166 301.977 221.579 300.239 219.125 300.239ZM215.915 304.241C216.217 302.541 217.463 301.446 219.086 301.446C220.294 301.446 221.615 302.165 221.728 304.241H215.915ZM229.056 300.426C228.868 300.388 228.716 300.388 228.528 300.352C227.207 300.352 226.112 301.184 225.546 302.58V300.426H224.15L224.189 309.979V310.054H225.623V306.016C225.623 305.41 225.698 304.769 225.889 304.202C226.342 302.729 227.362 301.786 228.57 301.786C228.722 301.786 228.871 301.786 229.023 301.825H229.098V300.429L229.056 300.426Z" fill="#1B2D4B"/>
<path fill-rule="evenodd" clip-rule="evenodd" d="M234.463 296.306H236.22V308.426H242.375V310.031H234.463V296.306ZM242.879 296.873H244.674V298.804H242.879V296.873ZM255.731 301.316C256.603 300.39 257.836 299.855 259.275 299.855C260.524 299.855 261.569 300.305 262.301 301.117C263.032 301.928 263.44 303.084 263.444 304.474V304.475C263.444 304.781 263.406 305.084 263.406 305.39H256.165C256.253 306.528 256.695 307.347 257.305 307.888C257.946 308.458 258.784 308.731 259.618 308.731C260.857 308.731 261.699 308.164 262.582 307.507L263.367 308.8C262.397 309.77 260.934 310.297 259.576 310.297H259.388C258.099 310.297 256.891 309.79 255.957 308.933L255.956 308.932L255.954 308.93C254.887 307.907 254.357 306.536 254.357 305.074C254.357 303.547 254.86 302.242 255.731 301.316ZM242.879 300.078H244.674V310.028H242.879V300.078ZM245.178 300.043H246.993L249.791 308L252.588 300.043H254.403L250.905 309.992H248.677L245.178 300.043ZM256.224 303.857H261.667C261.584 302.949 261.253 302.345 260.822 301.963C260.362 301.556 259.771 301.385 259.197 301.385C257.72 301.385 256.568 302.337 256.224 303.857Z" fill="#1B2D4B"/>
<circle cx="153.923" cy="305.212" r="14.923" fill="#D4DBE9" fill-opacity="0.5"/>
<circle cx="153.923" cy="303.923" r="14.923" fill="white"/>
<path d="M146.472 309.697C146.015 309.107 145.627 308.461 145.318 307.771C144.453 305.837 144.265 303.669 144.784 301.615C145.303 299.561 146.498 297.742 148.178 296.45C149.041 295.787 150.006 295.283 151.028 294.953C151.893 294.673 152.799 294.519 153.719 294.499C153.897 294.495 154.039 294.642 154.037 294.82L154.005 297.38C154.003 297.558 153.856 297.7 153.679 297.707C152.399 297.758 151.148 298.209 150.131 298.991C149.023 299.843 148.234 301.044 147.891 302.4C147.549 303.755 147.673 305.186 148.244 306.463C148.508 307.054 148.861 307.596 149.287 308.072L146.472 309.697Z" fill="url(#paint0_linear)"/>
<path d="M161.375 298.156C161.832 298.746 162.221 299.392 162.529 300.082C163.394 302.016 163.582 304.185 163.063 306.239C162.545 308.292 161.349 310.112 159.67 311.403C158.807 312.066 157.842 312.571 156.82 312.9C155.954 313.18 155.048 313.334 154.129 313.354C153.951 313.358 153.808 313.211 153.811 313.033L153.844 310.473C153.846 310.295 153.992 310.153 154.17 310.146C155.454 310.096 156.693 309.648 157.716 308.862C158.825 308.01 159.614 306.809 159.956 305.454C160.299 304.098 160.174 302.667 159.604 301.39C159.339 300.799 158.986 300.257 158.56 299.781L161.375 298.156Z" fill="url(#paint1_linear)"/>
<path d="M152.162 305.769C152.228 305.604 152.148 305.419 151.983 305.352L149.806 304.473C149.64 304.406 149.451 304.487 149.385 304.653C149.067 305.46 148.211 307.624 148.094 307.916C147.949 308.276 147.626 308.603 147.162 308.682C146.698 308.761 146.048 308.753 145.402 307.949C145.924 309.047 147.009 310.769 148.139 311.059C149.27 311.349 150.181 310.716 150.488 309.954C150.741 309.323 151.804 306.665 152.162 305.769Z" fill="#638EEF"/>
<path d="M155.684 302.084C155.618 302.249 155.699 302.434 155.864 302.5L158.041 303.379C158.207 303.446 158.396 303.365 158.461 303.199C158.78 302.393 159.635 300.229 159.753 299.937C159.898 299.576 160.221 299.249 160.685 299.17C161.149 299.092 161.799 299.1 162.445 299.903C161.923 298.806 160.838 297.083 159.707 296.793C158.577 296.503 157.666 297.137 157.359 297.899C157.105 298.53 156.043 301.188 155.684 302.084Z" fill="#638EEF"/>
<rect x="150.534" y="168.19" width="98.4296" height="25.2982" rx="12.6491" fill="white"/>
<path d="M152.666 149.079C153.326 149.079 153.928 148.797 154.36 148.346L153.784 147.809C153.503 148.13 153.104 148.333 152.666 148.333C151.835 148.333 151.135 147.613 151.135 146.749C151.135 145.892 151.835 145.173 152.666 145.173C153.097 145.173 153.503 145.376 153.778 145.696L154.36 145.153C153.928 144.708 153.326 144.427 152.666 144.427C151.383 144.427 150.304 145.487 150.304 146.749C150.304 148.012 151.383 149.079 152.666 149.079ZM159.034 144.505V146.337H156.79V144.505H155.972V149H156.79V147.083H159.034V149H159.852V144.505H159.034ZM165.147 145.251V144.505H161.765V149H165.147V148.254H162.582V147.083H164.905V146.337H162.582V145.251H165.147ZM169.103 149.079C169.764 149.079 170.366 148.797 170.798 148.346L170.222 147.809C169.941 148.13 169.542 148.333 169.103 148.333C168.272 148.333 167.572 147.613 167.572 146.749C167.572 145.892 168.272 145.173 169.103 145.173C169.535 145.173 169.941 145.376 170.216 145.696L170.798 145.153C170.366 144.708 169.764 144.427 169.103 144.427C167.821 144.427 166.742 145.487 166.742 146.749C166.742 148.012 167.821 149.079 169.103 149.079ZM172.462 149H173.28V147.718L173.889 147.063L175.374 149H176.381L174.451 146.488L176.25 144.505H175.249L173.28 146.704V144.505H172.462V149ZM177.89 149H178.701V144.505H177.89V149ZM180.68 149H181.498V145.84L183.873 149H184.684V144.505H183.873V147.665L181.498 144.505H180.68V149ZM188.73 147.194H189.849V148.012C189.568 148.215 189.201 148.333 188.861 148.333C188.024 148.333 187.317 147.613 187.317 146.749C187.317 145.892 188.024 145.173 188.861 145.173C189.3 145.173 189.784 145.369 190.065 145.696L190.647 145.153C190.215 144.702 189.515 144.427 188.861 144.427C187.572 144.427 186.486 145.487 186.486 146.749C186.486 148.012 187.572 149.079 188.861 149.079C189.515 149.079 190.215 148.797 190.647 148.346V146.527H188.73V147.194ZM198.716 145.251V144.505H195.334V149H196.152V147.135H198.474V146.39H196.152V145.251H198.716ZM202.602 149.079C203.878 149.079 204.958 148.012 204.958 146.749C204.958 145.487 203.878 144.427 202.602 144.427C201.32 144.427 200.241 145.487 200.241 146.749C200.241 148.012 201.32 149.079 202.602 149.079ZM202.602 148.333C201.772 148.333 201.072 147.613 201.072 146.749C201.072 145.892 201.772 145.173 202.602 145.173C203.427 145.173 204.12 145.892 204.12 146.749C204.12 147.613 203.427 148.333 202.602 148.333ZM210.365 149L209.24 147.404C209.888 147.201 210.326 146.677 210.326 145.997C210.326 145.12 209.607 144.505 208.645 144.505H206.689V149H207.506V147.489H208.377L209.436 149H210.365ZM207.506 145.258H208.553C209.109 145.258 209.495 145.539 209.495 145.997C209.495 146.455 209.109 146.736 208.553 146.736H207.506V145.258ZM216.876 149.079C218.041 149.079 218.858 148.254 218.858 147.083V144.505H218.047V147.057C218.047 147.803 217.563 148.339 216.876 148.339C216.196 148.339 215.712 147.803 215.712 147.057V144.505H214.894V147.083C214.894 148.254 215.718 149.079 216.876 149.079ZM220.782 149H221.599V147.489H222.738C223.7 147.489 224.419 146.874 224.419 145.997C224.419 145.12 223.7 144.505 222.738 144.505H220.782V149ZM221.599 146.736V145.258H222.646C223.202 145.258 223.588 145.539 223.588 145.997C223.588 146.455 223.202 146.736 222.646 146.736H221.599ZM226.103 149H227.686C229.171 149 230.218 148.064 230.218 146.749C230.218 145.434 229.171 144.505 227.686 144.505H226.103V149ZM226.92 148.261V145.245H227.771C228.72 145.245 229.387 145.866 229.387 146.749C229.387 147.633 228.72 148.261 227.771 148.261H226.92ZM235.136 149H236.039L234.161 144.505H233.252L231.374 149H232.284L232.624 148.189H234.796L235.136 149ZM232.918 147.482L233.71 145.591L234.502 147.482H232.918ZM238.404 149H239.215V145.251H240.655V144.505H236.965V145.251H238.404V149ZM245.717 145.251V144.505H242.334V149H245.717V148.254H243.152V147.083H245.475V146.337H243.152V145.251H245.717ZM247.939 149.079C248.214 149.079 248.443 148.843 248.443 148.555C248.443 148.287 248.214 148.051 247.939 148.051C247.639 148.051 247.416 148.287 247.416 148.555C247.416 148.843 247.639 149.079 247.939 149.079ZM249.51 149.079C249.784 149.079 250.013 148.843 250.013 148.555C250.013 148.287 249.784 148.051 249.51 148.051C249.209 148.051 248.986 148.287 248.986 148.555C248.986 148.843 249.209 149.079 249.51 149.079ZM251.08 149.079C251.355 149.079 251.584 148.843 251.584 148.555C251.584 148.287 251.355 148.051 251.08 148.051C250.779 148.051 250.556 148.287 250.556 148.555C250.556 148.843 250.779 149.079 251.08 149.079Z" fill="#FCFCFE"/>
<path d="M169.07 183.476C170.79 183.476 172.009 182.266 172.009 180.556V176.87H170.61V180.499C170.61 181.501 169.968 182.209 169.07 182.209C168.163 182.209 167.52 181.501 167.52 180.499V176.87H166.131V180.556C166.131 182.266 167.34 183.476 169.07 183.476ZM174.691 183.362H176.081V181.255H177.612C179.02 181.255 180.059 180.348 180.059 179.062C180.059 177.777 179.02 176.87 177.612 176.87H174.691V183.362ZM176.081 179.979V178.146H177.46C178.15 178.146 178.623 178.505 178.623 179.062C178.623 179.62 178.15 179.979 177.46 179.979H176.081ZM182.404 183.362H184.729C186.912 183.362 188.462 182.011 188.462 180.111C188.462 178.212 186.912 176.87 184.729 176.87H182.404V183.362ZM183.793 182.096V178.136H184.909C186.147 178.136 187.025 178.959 187.025 180.111C187.025 181.274 186.147 182.096 184.909 182.096H183.793ZM195.339 183.362H196.907L194.261 176.87H192.702L190.056 183.362H191.615L192.031 182.342H194.923L195.339 183.362ZM192.513 181.16L193.477 178.788L194.441 181.16H192.513ZM200.145 183.362H201.543V178.127H203.566V176.87H198.122V178.127H200.145V183.362ZM210.915 178.127V176.87H205.916V183.362H210.915V182.105H207.314V180.678H210.575V179.422H207.314V178.127H210.915ZM213.444 183.362H215.769C217.952 183.362 219.501 182.011 219.501 180.111C219.501 178.212 217.952 176.87 215.769 176.87H213.444V183.362ZM214.833 182.096V178.136H215.948C217.186 178.136 218.065 178.959 218.065 180.111C218.065 181.274 217.186 182.096 215.948 182.096H214.833Z" fill="#108CFF"/>
<path d="M235.621 190.605C241.058 190.605 245.485 186.182 245.485 180.741C245.485 175.301 241.058 170.877 235.621 170.877C230.184 170.877 225.757 175.301 225.757 180.741C225.757 186.182 230.184 190.605 235.621 190.605Z" fill="#108CFF"/>
<path d="M234.146 181.223L231.782 178.858L229.596 180.994L234.146 185.468L236.307 183.333L241.646 178.095L239.485 175.985L234.146 181.223Z" fill="white"/>
<defs>
<linearGradient id="paint0_linear" x1="151.675" y1="296.713" x2="147.216" y2="307.474" gradientUnits="userSpaceOnUse">
<stop stop-color="#94B6FE"/>
<stop offset="1" stop-color="#216ADE"/>
</linearGradient>
<linearGradient id="paint1_linear" x1="155.671" y1="311.241" x2="160.975" y2="300.095" gradientUnits="userSpaceOnUse">
<stop stop-color="#94B6FE"/>
<stop offset="1" stop-color="#216ADE"/>
</linearGradient>
</defs>
</svg>
