<svg width="634" height="342" viewBox="0 0 634 342" fill="none" xmlns="http://www.w3.org/2000/svg">
<g clip-path="url(#clip0)">
<path opacity="0.1" fill-rule="evenodd" clip-rule="evenodd" d="M629.592 141.174C629.592 139.517 628.249 138.174 626.592 138.174L443.139 138.174C438.45 138.174 433.924 138.868 429.656 140.159H394.213V138.572C394.213 136.35 392.411 134.549 390.189 134.549H359.694C357.472 134.549 355.67 136.35 355.67 138.572V140.159H266.876V138.572C266.876 136.35 265.074 134.549 262.852 134.549H232.357C230.135 134.549 228.333 136.35 228.333 138.572V140.159H203.711C199.637 140.159 196.334 143.462 196.334 147.536V164.499H141.298C133.224 164.499 126.261 169.279 123.058 176.156C123.025 176.154 122.992 176.153 122.958 176.153H102.513C101.772 176.153 101.172 176.753 101.172 177.494L101.172 179.192H-4.34961V190.131H101.172L101.172 191.83C101.172 192.571 101.772 193.171 102.513 193.171H122.958C122.975 193.171 122.992 193.171 123.008 193.17C123.025 193.17 123.042 193.169 123.058 193.167C126.261 200.044 133.224 204.824 141.298 204.824H196.334V221.787C196.334 225.861 199.637 229.164 203.711 229.164H429.659C433.925 230.455 438.451 231.149 443.139 231.149L626.592 231.149C628.249 231.149 629.592 229.805 629.592 228.149V141.174ZM463.026 199.279C465.63 195.425 467.151 190.778 467.151 185.777C467.151 184.109 466.982 182.482 466.66 180.91C465.862 177.008 464.123 173.449 461.69 170.481C457.261 165.076 450.534 161.627 443.001 161.627C436.332 161.627 430.294 164.33 425.924 168.7C421.554 173.07 418.851 179.107 418.851 185.776C418.851 191.286 420.695 196.364 423.801 200.428C428.214 206.201 435.172 209.926 443.001 209.926C451.336 209.926 458.686 205.703 463.026 199.279Z" fill="#1B2D4B"/>
<path d="M130.3 171.745C130.3 171.005 129.699 170.404 128.959 170.404H108.513C107.772 170.404 107.172 171.005 107.172 171.745V186.081C107.172 186.822 107.772 187.423 108.513 187.423H128.959C129.699 187.423 130.3 186.822 130.3 186.081V171.745Z" fill="url(#paint0_linear)"/>
<path d="M202.334 158.751H147.298C136.188 158.751 127.181 167.803 127.181 178.913C127.181 190.024 136.188 199.076 147.298 199.076H202.334V158.751Z" fill="url(#paint1_linear)"/>
<path d="M-4.34961 173.476H107.126V184.476H-4.34961V173.476Z" fill="url(#paint2_linear)"/>
<path d="M361.67 134.411H400.212V132.824C400.212 130.602 398.411 128.801 396.189 128.801H365.693C363.471 128.801 361.67 130.602 361.67 132.824V134.411Z" fill="white"/>
<path d="M234.333 134.411H272.875V132.824C272.875 130.602 271.074 128.801 268.852 128.801H238.356C236.134 128.801 234.333 130.602 234.333 132.824V134.411Z" fill="white"/>
<path fill-rule="evenodd" clip-rule="evenodd" d="M209.71 134.411C205.636 134.411 202.334 137.713 202.334 141.787V216.039C202.334 220.113 205.636 223.415 209.71 223.415H488.217C492.291 223.415 495.593 220.113 495.593 216.039V141.787C495.593 137.713 492.291 134.411 488.217 134.411H209.71ZM449.001 204.178C462.339 204.178 473.151 193.365 473.151 180.028C473.151 166.69 462.339 155.877 449.001 155.877C435.663 155.877 424.851 166.69 424.851 180.028C424.851 193.365 435.663 204.178 449.001 204.178Z" fill="url(#paint3_linear)"/>
<path fill-rule="evenodd" clip-rule="evenodd" d="M449.625 132.476C423.944 132.476 403.125 153.294 403.125 178.976C403.125 204.657 423.944 225.476 449.625 225.476H624.274C627.587 225.476 630.274 222.789 630.274 219.476V138.476C630.274 135.162 627.587 132.476 624.274 132.476H449.625ZM449.001 204.177C462.339 204.177 473.151 193.365 473.151 180.027C473.151 166.689 462.339 155.877 449.001 155.877C435.663 155.877 424.851 166.689 424.851 180.027C424.851 193.365 435.663 204.177 449.001 204.177Z" fill="white"/>
<rect x="247.515" y="154.545" width="139.046" height="48.1942" rx="4.41186" fill="#57AEFF"/>
<rect x="381.11" y="119.367" width="2.64163" height="2.64163" transform="rotate(90 381.11 119.367)" fill="#108CFF"/>
<rect x="381.11" y="115.385" width="2.64163" height="2.64163" transform="rotate(90 381.11 115.385)" fill="#108CFF"/>
<rect x="381.11" y="111.404" width="2.64163" height="2.64163" transform="rotate(90 381.11 111.404)" fill="#108CFF"/>
<rect x="381.11" y="107.422" width="2.64163" height="2.64163" transform="rotate(90 381.11 107.422)" fill="#108CFF"/>
<rect x="381.11" y="103.44" width="2.64163" height="2.64163" transform="rotate(90 381.11 103.44)" fill="#108CFF"/>
<rect x="381.11" y="99.4583" width="2.64163" height="2.64163" transform="rotate(90 381.11 99.4583)" fill="#108CFF"/>
<rect x="381.11" y="95.4766" width="2.64163" height="2.64163" transform="rotate(90 381.11 95.4766)" fill="#108CFF"/>
<rect x="385.713" y="115.216" width="2.64163" height="2.64163" transform="rotate(90 385.713 115.216)" fill="#108CFF"/>
<rect width="2.64163" height="2.64163" transform="matrix(-4.37114e-08 1 1 4.37114e-08 373.941 115.216)" fill="#108CFF"/>
<rect x="389.261" y="111.065" width="2.64163" height="2.64163" transform="rotate(90 389.261 111.065)" fill="#108CFF"/>
<rect width="2.64163" height="2.64163" transform="matrix(-4.37114e-08 1 1 4.37114e-08 370.393 111.065)" fill="#108CFF"/>
<rect x="393.035" y="106.914" width="2.64163" height="2.64163" transform="rotate(90 393.035 106.914)" fill="#108CFF"/>
<rect width="2.64163" height="2.64163" transform="matrix(-4.37114e-08 1 1 4.37114e-08 366.619 106.914)" fill="#108CFF"/>
<rect x="255.641" y="119.367" width="2.64163" height="2.64163" transform="rotate(90 255.641 119.367)" fill="#108CFF"/>
<rect x="255.641" y="115.385" width="2.64163" height="2.64163" transform="rotate(90 255.641 115.385)" fill="#108CFF"/>
<rect x="255.641" y="111.404" width="2.64163" height="2.64163" transform="rotate(90 255.641 111.404)" fill="#108CFF"/>
<rect x="255.641" y="107.422" width="2.64163" height="2.64163" transform="rotate(90 255.641 107.422)" fill="#108CFF"/>
<rect x="255.641" y="103.44" width="2.64163" height="2.64163" transform="rotate(90 255.641 103.44)" fill="#108CFF"/>
<rect x="255.641" y="99.4583" width="2.64163" height="2.64163" transform="rotate(90 255.641 99.4583)" fill="#108CFF"/>
<rect x="255.641" y="95.4766" width="2.64163" height="2.64163" transform="rotate(90 255.641 95.4766)" fill="#108CFF"/>
<rect x="260.244" y="115.216" width="2.64163" height="2.64163" transform="rotate(90 260.244 115.216)" fill="#108CFF"/>
<rect width="2.64163" height="2.64163" transform="matrix(-4.37114e-08 1 1 4.37114e-08 248.472 115.216)" fill="#108CFF"/>
<rect x="263.793" y="111.065" width="2.64163" height="2.64163" transform="rotate(90 263.793 111.065)" fill="#108CFF"/>
<rect width="2.64163" height="2.64163" transform="matrix(-4.37114e-08 1 1 4.37114e-08 244.924 111.065)" fill="#108CFF"/>
<rect x="267.566" y="106.914" width="2.64163" height="2.64163" transform="rotate(90 267.566 106.914)" fill="#108CFF"/>
<rect width="2.64163" height="2.64163" transform="matrix(-4.37114e-08 1 1 4.37114e-08 241.15 106.914)" fill="#108CFF"/>
<rect x="258.943" y="179.796" width="1.29313" height="1.29313" transform="rotate(-180 258.943 179.796)" fill="white"/>
<rect x="260.976" y="182.05" width="1.29313" height="1.29313" transform="rotate(-180 260.976 182.05)" fill="white"/>
<rect width="1.29313" height="1.29313" transform="matrix(-1 -8.74228e-08 -8.74228e-08 1 260.976 176.287)" fill="white"/>
<rect x="263.008" y="183.787" width="1.29313" height="1.29313" transform="rotate(-180 263.008 183.787)" fill="white"/>
<rect width="1.29313" height="1.29313" transform="matrix(-1 -8.74228e-08 -8.74228e-08 1 263.008 174.55)" fill="white"/>
<rect x="265.039" y="185.634" width="1.29313" height="1.29313" transform="rotate(-180 265.039 185.634)" fill="white"/>
<rect width="1.29313" height="1.29313" transform="matrix(-1 -8.74228e-08 -8.74228e-08 1 265.04 172.703)" fill="white"/>
<rect width="1.29313" height="1.29313" transform="matrix(1 -8.74228e-08 -8.74228e-08 -1 379.078 179.796)" fill="white"/>
<rect width="1.29313" height="1.29313" transform="matrix(1 -8.74228e-08 -8.74228e-08 -1 377.046 182.05)" fill="white"/>
<rect x="377.046" y="176.287" width="1.29313" height="1.29313" fill="white"/>
<rect width="1.29313" height="1.29313" transform="matrix(1 -8.74228e-08 -8.74228e-08 -1 375.014 183.787)" fill="white"/>
<rect x="375.014" y="174.55" width="1.29313" height="1.29313" fill="white"/>
<rect width="1.29313" height="1.29313" transform="matrix(1 -8.74228e-08 -8.74228e-08 -1 372.982 185.634)" fill="white"/>
<rect x="372.982" y="172.703" width="1.29313" height="1.29313" fill="white"/>
<path d="M299.21 190.432C300.728 190.432 301.995 189.189 301.995 187.716C301.995 186.244 300.728 185.008 299.21 185.008C297.708 185.008 296.426 186.244 296.426 187.716C296.426 189.189 297.708 190.432 299.21 190.432ZM299.21 189.41C298.333 189.41 297.586 188.632 297.586 187.716C297.586 186.809 298.333 186.03 299.21 186.03C300.095 186.03 300.843 186.809 300.843 187.716C300.843 188.632 300.095 189.41 299.21 189.41ZM303.967 190.34H305.088V188.639H306.324C307.461 188.639 308.3 187.907 308.3 186.87C308.3 185.832 307.461 185.1 306.324 185.1H303.967V190.34ZM305.088 187.61V186.13H306.202C306.759 186.13 307.14 186.42 307.14 186.87C307.14 187.32 306.759 187.61 306.202 187.61H305.088ZM314.182 186.114V185.1H310.147V190.34H314.182V189.326H311.276V188.174H313.908V187.159H311.276V186.114H314.182ZM316.224 190.34H317.345V186.954L319.87 190.34H320.999V185.1H319.87V188.487L317.345 185.1H316.224V190.34ZM330.349 190.34H331.616L329.48 185.1H328.221L326.085 190.34H327.344L327.679 189.517H330.014L330.349 190.34ZM328.068 188.563L328.846 186.648L329.625 188.563H328.068ZM333.377 190.34H334.499V188.639H335.735C336.871 188.639 337.71 187.907 337.71 186.87C337.71 185.832 336.871 185.1 335.735 185.1H333.377V190.34ZM334.499 187.61V186.13H335.613C336.169 186.13 336.551 186.42 336.551 186.87C336.551 187.32 336.169 187.61 335.613 187.61H334.499ZM339.558 190.34H340.679V188.639H341.915C343.051 188.639 343.89 187.907 343.89 186.87C343.89 185.832 343.051 185.1 341.915 185.1H339.558V190.34ZM340.679 187.61V186.13H341.793C342.35 186.13 342.731 186.42 342.731 186.87C342.731 187.32 342.35 187.61 341.793 187.61H340.679Z" fill="white"/>
<path fill-rule="evenodd" clip-rule="evenodd" d="M314.922 164.901V165.936H313.887V166.97H312.853V177.315H313.887V178.35H314.922V179.384H325.267V178.35H326.301V177.315H327.336V166.97H326.301V165.936H325.267V164.901H314.922ZM323.197 168.005V166.97H316.99V168.005H319.059V171.108H318.025V172.143H319.059V173.177H318.025V174.212H319.059V176.281H316.99V177.315H323.197V176.281H321.128V174.212H322.163V173.177H321.128V172.143H322.163V171.108H321.128V168.005L323.197 168.005Z" fill="#FAFCFE"/>
<rect x="287.5" y="249.901" width="59" height="58" rx="19.7086" fill="#57AEFF"/>
<path fill-rule="evenodd" clip-rule="evenodd" d="M308.73 267.893V269.547H307.076V271.2H305.423V287.74H307.076V289.394H308.73V291.048H325.27V289.394H326.924V287.74H328.577V271.2H326.924V269.547H325.27V267.893H308.73ZM321.962 272.854V271.2H312.038V272.854H315.346V277.816H313.692V279.47H315.346V281.124H313.692V282.777H315.346V286.085H312.038V287.739H321.962V286.085H318.654V282.777H320.308V281.124H318.654V279.47H320.308V277.816H318.654V272.854L321.962 272.854Z" fill="#FAFCFE"/>
</g>
<defs>
<linearGradient id="paint0_linear" x1="108.003" y1="177.742" x2="130.051" y2="177.742" gradientUnits="userSpaceOnUse">
<stop stop-color="white"/>
<stop offset="1" stop-color="#E4EBFA"/>
</linearGradient>
<linearGradient id="paint1_linear" x1="130.799" y1="181.479" x2="202.922" y2="181.479" gradientUnits="userSpaceOnUse">
<stop stop-color="white"/>
<stop offset="1" stop-color="#E4EBFA"/>
</linearGradient>
<linearGradient id="paint2_linear" x1="14.888" y1="173.476" x2="126.605" y2="173.476" gradientUnits="userSpaceOnUse">
<stop stop-color="white"/>
<stop offset="1" stop-color="#E4EBFA"/>
</linearGradient>
<linearGradient id="paint3_linear" x1="348.964" y1="134.411" x2="348.964" y2="224.224" gradientUnits="userSpaceOnUse">
<stop stop-color="white"/>
<stop offset="1" stop-color="#F0F5FE"/>
</linearGradient>
<clipPath id="clip0">
<rect width="634" height="341" fill="white" transform="translate(0 0.799805)"/>
</clipPath>
</defs>
</svg>
