<svg width="792" height="501" viewBox="0 0 792 501" fill="none" xmlns="http://www.w3.org/2000/svg">
<g clip-path="url(#clip0)">
<path d="M398.849 20.5876C398.849 9.77001 408.626 1.02051 420.715 1.02051L456.982 1.02053C469.071 1.02053 478.849 9.77001 478.849 20.5875L478.849 32.4535C478.849 43.271 469.071 52.0205 456.982 52.0205L420.715 52.0205C408.626 52.0205 398.849 43.271 398.849 32.4535L398.849 20.5876Z" fill="#37E5D7"/>
<path d="M246.499 123.9C246.499 67.8996 288.399 22.5996 340.099 22.5996H449.899C501.599 22.5996 543.499 67.9996 543.499 123.9V324.1C543.499 380.1 501.599 425.4 449.899 425.4H340.199C288.499 425.4 246.599 380 246.599 324.1L246.499 123.9Z" fill="url(#paint0_linear)"/>
<path d="M520.999 77.6504C518.899 77.6504 517.299 79.3504 517.699 81.3504C518.499 84.4504 519.999 87.4504 522.399 89.6504C525.699 92.8504 529.999 94.6504 534.599 94.6504C539.199 94.6504 543.599 92.9504 546.799 89.6504C549.199 87.3504 550.699 84.4504 551.499 81.3504C551.999 79.3504 550.299 77.6504 548.199 77.7504C546.099 77.7504 544.599 79.4504 543.799 81.3504C543.299 82.5504 542.599 83.6504 541.599 84.5504C539.699 86.3504 537.199 87.3504 534.599 87.4504C531.999 87.4504 529.399 86.4504 527.599 84.5504C526.599 83.6504 525.899 82.5504 525.399 81.3504C524.699 79.3504 522.999 77.6504 520.999 77.6504Z" fill="#FFAB49"/>
<path d="M227.928 218.58C228.12 208.08 241.027 203.196 247.995 211.008L274.26 240.453C278.471 245.174 278.054 252.483 273.332 256.694L246.463 280.662C238.994 287.324 227.244 281.927 227.323 271.992L227.928 218.58Z" fill="#628BF2"/>
<path d="M341.415 305.81C340.244 303.468 338.641 301.742 336.731 300.632L333.957 299.029C335.868 300.139 337.47 301.865 338.641 304.207C343.635 314.44 338.457 332.748 327.053 345.015C324.155 348.159 321.073 350.624 318.053 352.35C312.073 355.802 306.217 356.419 301.964 353.953L304.738 355.556C308.991 358.022 314.786 357.467 320.827 353.953C323.847 352.227 326.868 349.762 329.826 346.618C341.23 334.289 346.408 316.043 341.415 305.81Z" fill="#F6F8FC"/>
<path d="M476.414 116.628L305.046 301.619C288.772 319.187 281.375 345.262 288.526 359.871C293.827 370.72 305.662 372.2 318.114 365.049C322.429 362.583 326.744 359.07 330.936 354.57L502.304 169.579L476.414 116.628ZM327.053 346.618C324.155 349.762 321.073 352.227 318.053 353.953C309.361 358.947 301.039 357.96 297.341 350.317C292.348 340.084 297.526 321.776 308.93 309.509C311.888 306.365 314.909 303.899 317.929 302.173C326.621 297.18 334.943 298.166 338.641 305.81C343.635 316.043 338.457 334.289 327.053 346.618Z" fill="#F1F5FE"/>
<path d="M528.908 185.191L502.389 169.741L476.499 116.79L502.548 130.06L528.908 185.191Z" fill="#E4EBFA"/>
<path d="M356.332 317.584L333.648 304.393C337.1 306.427 339.257 310.68 339.257 316.783C339.319 329.05 330.689 343.967 320.025 350.132C314.662 353.214 309.792 353.522 306.278 351.488L328.963 364.679C332.477 366.714 337.346 366.405 342.709 363.323C353.374 357.159 362.004 342.241 361.942 329.974C362.004 323.872 359.846 319.557 356.332 317.584Z" fill="#D8E3F5"/>
<path d="M308.189 323.995L523.755 199.538V273.448L308.436 397.905L308.189 323.995ZM342.71 363.323C353.374 357.159 362.004 342.242 361.942 329.975C361.88 317.708 353.25 312.776 342.586 318.941C331.922 325.105 323.292 340.022 323.354 352.289C323.415 364.556 332.045 369.488 342.71 363.323Z" fill="url(#paint1_linear)"/>
<path d="M417.237 282.454C417.237 282.145 417.401 281.859 417.669 281.704L509.176 228.884C509.464 228.718 509.824 228.925 509.824 229.258V258.76C509.824 259.686 509.33 260.541 508.529 261.004L421.177 311.46C419.451 312.457 417.293 311.214 417.289 309.221L417.237 282.454Z" fill="#57AEFF"/>
<path d="M308.19 323.994L285.505 310.803L501.07 186.346L523.755 199.537L308.19 323.994Z" fill="white"/>
<path d="M308.436 397.904L285.751 384.713L285.505 310.803L308.19 323.994L308.436 397.904Z" fill="#D8E3F5"/>
<path d="M502.548 130.14L330.258 316.474C313.984 334.043 306.587 360.118 313.738 374.727C319.039 385.576 330.874 387.056 343.326 379.905C347.641 377.439 351.956 373.926 356.148 369.426L528.906 185.19L502.548 130.14ZM352.265 361.474C349.367 364.618 346.285 367.083 343.265 368.809C334.573 373.803 326.251 372.816 322.553 365.172C317.56 354.94 322.738 336.632 334.141 324.365C337.1 321.221 340.121 318.755 343.141 317.029C351.833 312.036 360.155 313.022 363.853 320.666C368.846 330.899 363.668 349.207 352.265 361.474Z" fill="white"/>
<path d="M452.187 233.873C452.311 235.475 452.187 237.14 451.818 238.866C451.448 240.592 450.77 242.318 449.845 244.044C448.92 245.77 447.749 247.434 446.27 249.037C444.852 250.516 443.496 251.687 442.201 252.427C442.14 252.489 442.078 252.489 441.955 252.55C440.537 253.29 439.242 253.722 438.01 253.722C436.777 253.722 435.667 253.413 434.681 252.674C433.695 251.996 432.893 250.948 432.215 249.653C431.599 248.359 431.167 246.879 431.044 245.276C430.921 243.674 431.044 242.009 431.414 240.283C431.784 238.557 432.462 236.831 433.386 235.105C434.311 233.379 435.482 231.715 436.962 230.112C438.318 228.633 439.674 227.462 441.03 226.722C441.092 226.66 441.215 226.66 441.277 226.599C442.694 225.859 443.989 225.427 445.16 225.427C446.393 225.427 447.441 225.736 448.427 226.475C449.413 227.153 450.215 228.201 450.893 229.496C451.694 230.79 452.064 232.27 452.187 233.873ZM450.585 239.051C450.893 237.51 451.016 236.092 450.893 234.612C450.77 233.194 450.4 231.9 449.845 230.729C449.29 229.558 448.551 228.695 447.688 228.016C446.825 227.4 445.838 227.092 444.79 227.03C443.742 227.03 442.571 227.338 441.338 227.955C441.215 228.017 441.092 228.078 440.968 228.14C439.859 228.756 438.749 229.681 437.578 230.914C436.284 232.27 435.236 233.749 434.496 235.29C433.695 236.831 433.14 238.372 432.832 239.852C432.523 241.393 432.4 242.811 432.523 244.229C432.647 245.646 433.016 246.941 433.571 248.112C434.126 249.283 434.866 250.146 435.729 250.824C436.592 251.441 437.578 251.749 438.626 251.811C439.674 251.872 440.845 251.502 442.078 250.886C442.201 250.824 442.325 250.763 442.448 250.701C443.557 250.085 444.667 249.098 445.838 247.865C447.133 246.509 448.181 245.03 448.92 243.489C449.722 242.071 450.276 240.592 450.585 239.051Z" fill="#C4D1E8"/>
<path d="M479.742 184.743L496.324 194.359L494.968 195.777L479.68 186.469L480.605 211.311L479.31 212.667L478.386 186.161L479.742 184.743Z" fill="#C4D1E8"/>
<path d="M419.147 250.146L427.962 268.084L426.791 269.44L417.976 251.441L419.147 250.146Z" fill="#C4D1E8"/>
<path d="M467.167 198.305L467.66 199.229L460.694 206.75L469.078 223.763L467.845 225.058L459.523 208.044L452.619 215.503L452.126 214.517L467.167 198.305Z" fill="#C4D1E8"/>
<path d="M410.517 275.482C410.394 275.666 410.209 275.79 410.085 275.851C410.024 275.913 409.962 275.913 409.9 275.913C409.407 276.098 409.037 275.913 408.976 275.358C408.976 275.235 408.976 275.112 408.976 274.927C409.037 274.249 409.531 273.509 410.085 273.201C410.147 273.139 410.209 273.139 410.27 273.139C410.887 272.893 411.318 273.324 411.195 274.125C411.133 274.495 411.01 274.865 410.763 275.235C410.64 275.297 410.578 275.42 410.517 275.482Z" fill="#C4D1E8"/>
<path d="M410.517 278.133C410.455 278.441 410.27 278.749 410.024 278.995C409.9 279.119 409.777 279.242 409.654 279.304C409.531 279.365 409.407 279.427 409.284 279.427C408.791 279.489 408.544 278.996 408.729 278.256C408.852 277.948 409.037 277.639 409.222 277.393C409.346 277.27 409.469 277.146 409.592 277.085C409.715 277.023 409.839 276.961 409.962 276.961C410.455 276.9 410.702 277.454 410.517 278.133Z" fill="#C4D1E8"/>
<path d="M409.284 269.626C409.407 269.441 409.592 269.318 409.715 269.256L409.777 269.194C410.455 268.824 411.072 269.071 411.133 269.872C411.195 270.489 410.825 271.29 410.332 271.783C410.209 271.907 410.024 272.03 409.9 272.153L409.839 272.215C409.222 272.585 408.667 272.4 408.544 271.722C408.544 271.66 408.544 271.598 408.544 271.537C408.483 270.92 408.791 270.119 409.284 269.626Z" fill="#C4D1E8"/>
<path d="M401.209 284.667C401.147 284.482 401.209 284.235 401.27 283.989C401.455 283.495 401.763 283.002 402.133 282.817C402.257 282.756 402.38 282.694 402.503 282.694C402.996 282.632 403.243 283.187 403.058 283.865C402.935 284.174 402.811 284.482 402.565 284.728C402.503 284.79 402.442 284.852 402.318 284.913C402.257 284.975 402.195 284.975 402.133 285.037C401.702 285.283 401.332 285.16 401.209 284.667Z" fill="#C4D1E8"/>
<path d="M402.072 286.516C402.133 286.762 402.072 287.009 401.948 287.317C401.763 287.687 401.517 287.934 401.27 288.119C401.085 288.242 400.962 288.242 400.777 288.242C400.592 288.18 400.469 288.057 400.407 287.81C400.346 287.44 400.531 286.886 400.9 286.516C401.024 286.393 401.147 286.331 401.209 286.269C401.394 286.146 401.517 286.146 401.702 286.146C401.887 286.146 402.01 286.331 402.072 286.516Z" fill="#C4D1E8"/>
<path d="M402.688 281.584C402.626 281.646 402.565 281.646 402.503 281.646C401.887 281.892 401.455 281.461 401.579 280.66C401.64 279.982 402.133 279.242 402.688 278.934C402.75 278.872 402.811 278.872 402.873 278.872C403.489 278.625 403.921 279.119 403.798 279.858C403.674 280.536 403.181 281.276 402.688 281.584Z" fill="#C4D1E8"/>
<path d="M403.489 286.023C403.551 285.961 403.613 285.838 403.674 285.776C403.736 285.653 403.859 285.591 403.921 285.53H403.983C404.352 285.345 404.661 285.53 404.661 286.023C404.661 286.269 404.599 286.516 404.414 286.701C404.352 286.824 404.291 286.886 404.229 286.947C404.168 287.009 404.106 287.071 404.044 287.071C403.983 287.132 403.983 287.132 403.921 287.132C403.613 287.317 403.305 287.194 403.243 286.886C403.181 286.639 403.305 286.331 403.489 286.023Z" fill="#C4D1E8"/>
<path d="M404.352 284.296C404.291 283.927 404.476 283.372 404.846 283.002C404.969 282.879 405.092 282.817 405.154 282.755C405.339 282.632 405.462 282.632 405.647 282.632C406.017 282.755 406.078 283.31 405.832 283.865C405.709 284.112 405.524 284.42 405.277 284.543C405.215 284.605 405.154 284.605 405.154 284.666C404.969 284.79 404.784 284.79 404.661 284.79C404.537 284.666 404.414 284.481 404.352 284.296Z" fill="#C4D1E8"/>
<path d="M405.77 285.899C405.894 285.776 405.955 285.714 406.078 285.653C406.325 285.529 406.51 285.529 406.633 285.714C406.695 285.838 406.757 286.022 406.695 286.207C406.633 286.392 406.572 286.639 406.387 286.824L406.325 286.885C406.263 286.947 406.14 287.009 406.078 287.07C405.894 287.194 405.647 287.194 405.524 287.009C405.524 286.947 405.462 286.885 405.462 286.824C405.4 286.577 405.524 286.146 405.77 285.899Z" fill="#C4D1E8"/>
<path d="M406.51 281.215C406.387 281.338 406.263 281.461 406.14 281.523C406.017 281.585 405.894 281.646 405.77 281.646C405.277 281.708 405.031 281.215 405.215 280.475C405.339 279.982 405.709 279.489 406.078 279.242C406.202 279.181 406.325 279.119 406.448 279.119C406.941 279.057 407.188 279.612 407.003 280.29C406.941 280.598 406.757 280.968 406.51 281.215Z" fill="#C4D1E8"/>
<path d="M407.065 277.701C407.003 277.762 406.88 277.886 406.818 277.947C406.757 278.009 406.695 278.07 406.633 278.07C406.079 278.379 405.647 278.194 405.524 277.639C405.524 277.516 405.524 277.392 405.524 277.208C405.585 276.529 406.079 275.79 406.633 275.482C406.695 275.42 406.757 275.42 406.818 275.42C407.126 275.297 407.373 275.358 407.558 275.543C407.743 275.728 407.805 276.036 407.743 276.406C407.681 276.776 407.558 277.146 407.311 277.516C407.188 277.516 407.126 277.639 407.065 277.701Z" fill="#C4D1E8"/>
<path d="M407.681 272.03C407.743 272.831 407.188 273.879 406.448 274.372L406.387 274.434C405.77 274.804 405.215 274.619 405.092 273.941C405.092 273.879 405.092 273.818 405.092 273.756C405.092 273.386 405.215 272.893 405.4 272.461C405.647 272.03 405.955 271.66 406.325 271.414C406.325 271.414 406.387 271.414 406.387 271.352C407.003 270.982 407.62 271.229 407.681 272.03Z" fill="#C4D1E8"/>
<path d="M404.537 267.776C404.599 267.714 404.661 267.653 404.722 267.591C404.846 267.468 405.031 267.345 405.154 267.283C405.77 266.913 406.325 267.036 406.572 267.53C406.941 268.208 406.572 269.502 405.77 270.303C405.709 270.365 405.647 270.427 405.585 270.488C405.462 270.612 405.277 270.735 405.154 270.797C404.907 270.92 404.661 271.043 404.414 270.981C404.044 270.981 403.798 270.735 403.674 270.365C403.674 270.303 403.674 270.242 403.613 270.18C403.551 269.441 403.921 268.454 404.537 267.776Z" fill="#C4D1E8"/>
<path d="M403.613 275.112C403.921 275.728 403.613 276.776 402.935 277.516C402.811 277.639 402.626 277.824 402.503 277.886L402.442 277.947C401.825 278.317 401.27 278.132 401.147 277.454C401.147 277.392 401.147 277.331 401.147 277.269C401.085 276.653 401.455 275.851 401.948 275.358C402.072 275.235 402.257 275.111 402.38 274.988L402.442 274.927C402.935 274.618 403.428 274.68 403.613 275.112Z" fill="#C4D1E8"/>
<path d="M401.209 270.797C401.394 270.673 401.517 270.612 401.702 270.612C402.133 270.55 402.565 270.735 402.688 271.228C402.75 271.413 402.75 271.598 402.75 271.844C402.75 272.276 402.565 272.769 402.318 273.262C402.195 273.509 402.01 273.694 401.825 273.879C401.763 273.94 401.702 274.002 401.64 274.064C401.517 274.187 401.332 274.31 401.209 274.372C401.024 274.495 400.9 274.557 400.716 274.557C400.407 274.618 400.161 274.557 399.914 274.372C399.791 274.248 399.729 274.125 399.668 274.002C399.668 273.94 399.606 273.879 399.606 273.817C399.483 273.262 399.668 272.584 400.099 271.968C400.222 271.783 400.346 271.536 400.531 271.413C400.592 271.351 400.654 271.29 400.716 271.228C400.962 270.981 401.085 270.858 401.209 270.797Z" fill="#C4D1E8"/>
<path d="M397.325 279.735C397.448 279.365 397.695 278.995 398.003 278.811C398.065 278.749 398.127 278.749 398.25 278.749C398.62 278.687 398.805 278.995 398.681 279.55C398.62 279.735 398.558 279.858 398.496 280.043C398.435 280.105 398.373 280.228 398.311 280.29C398.25 280.413 398.127 280.475 398.003 280.536C397.942 280.598 397.818 280.598 397.757 280.598C397.387 280.598 397.202 280.228 397.325 279.735Z" fill="#C4D1E8"/>
<path d="M397.325 291.817C397.264 291.879 397.202 292.002 397.14 292.064C397.017 292.187 396.894 292.31 396.77 292.372C396.462 292.557 396.154 292.557 395.969 292.372C395.661 292.064 395.722 291.324 396.154 290.707C396.216 290.584 396.277 290.522 396.339 290.461C396.462 290.337 396.585 290.214 396.709 290.153C396.832 290.091 396.955 290.029 397.017 290.029C397.202 290.029 397.325 290.029 397.448 290.153C397.88 290.461 397.757 291.2 397.325 291.817Z" fill="#C4D1E8"/>
<path d="M397.264 276.899C397.325 276.714 397.448 276.591 397.51 276.468C397.572 276.406 397.695 276.283 397.757 276.283C397.88 276.221 398.003 276.16 398.065 276.221C398.373 276.221 398.435 276.653 398.25 277.084C398.188 277.146 398.188 277.269 398.127 277.331C398.003 277.516 397.88 277.639 397.757 277.701C397.633 277.762 397.51 277.762 397.448 277.762C397.202 277.762 397.14 277.331 397.264 276.899Z" fill="#C4D1E8"/>
<path d="M398.805 281.276C398.805 281.276 398.866 281.276 398.866 281.214C399.051 281.091 399.298 281.153 399.421 281.214C399.729 281.461 399.668 282.077 399.359 282.632C399.236 282.879 398.99 283.064 398.805 283.187C398.805 283.187 398.743 283.187 398.743 283.249C398.311 283.495 397.942 283.187 398.003 282.632C398.003 282.262 398.25 281.893 398.496 281.584C398.558 281.399 398.681 281.338 398.805 281.276Z" fill="#C4D1E8"/>
<path d="M398.188 291.817C398.435 291.385 398.743 291.016 399.051 290.831C399.298 290.707 399.544 290.646 399.791 290.707C400.284 290.892 400.346 291.694 399.914 292.433C399.791 292.618 399.668 292.865 399.483 292.988C399.359 293.173 399.174 293.296 398.99 293.358C398.743 293.481 398.496 293.543 398.25 293.481C397.88 293.358 397.818 292.618 398.188 291.817Z" fill="#C4D1E8"/>
<path d="M397.942 267.838C398.003 267.776 398.065 267.715 398.127 267.653C398.373 267.406 398.62 267.222 398.866 267.098C399.483 266.728 400.099 266.79 400.469 267.222C400.962 267.9 400.654 269.379 399.791 270.427C399.729 270.489 399.668 270.55 399.606 270.612C399.359 270.858 399.113 271.043 398.866 271.228C398.25 271.598 397.633 271.537 397.264 271.105C397.14 270.982 397.079 270.797 397.079 270.55C396.894 269.687 397.264 268.639 397.942 267.838Z" fill="#C4D1E8"/>
<path d="M397.017 284.235C396.832 284.605 396.524 284.975 396.277 285.098C396.092 285.221 395.846 285.283 395.661 285.221C395.476 285.159 395.353 284.975 395.291 284.728C395.229 284.235 395.476 283.618 395.907 283.249C395.969 283.187 396.092 283.064 396.154 283.002C396.216 283.002 396.216 282.94 396.277 282.94C396.462 282.817 396.709 282.755 396.894 282.817C397.264 282.94 397.387 283.557 397.017 284.235Z" fill="#C4D1E8"/>
<path d="M395.414 277.454C395.476 277.207 395.599 276.961 395.784 276.714C395.846 276.591 395.969 276.529 396.092 276.468C396.154 276.406 396.216 276.406 396.277 276.406C396.462 276.344 396.585 276.406 396.709 276.591C396.77 276.714 396.832 276.961 396.77 277.208C396.647 277.577 396.401 278.009 396.092 278.132C396.031 278.194 395.969 278.194 395.846 278.194C395.661 278.256 395.538 278.194 395.414 278.009C395.353 277.886 395.353 277.701 395.414 277.454Z" fill="#C4D1E8"/>
<path d="M395.538 279.92C395.661 279.797 395.722 279.735 395.846 279.674C395.846 279.674 395.907 279.674 395.907 279.612C396.154 279.489 396.339 279.489 396.462 279.612C396.585 279.735 396.647 279.92 396.647 280.228C396.647 280.475 396.524 280.783 396.339 281.03C396.277 281.153 396.216 281.215 396.154 281.276C396.031 281.4 395.969 281.461 395.846 281.523L395.784 281.585C395.353 281.831 394.983 281.523 395.044 280.968C395.044 280.598 395.229 280.228 395.538 279.92Z" fill="#C4D1E8"/>
<path d="M395.229 288.92C395.353 288.858 395.414 288.796 395.538 288.796C395.722 288.735 395.907 288.858 396.031 289.043C396.216 289.413 396.031 290.091 395.599 290.523C395.476 290.646 395.414 290.707 395.291 290.769C394.983 290.954 394.675 290.954 394.49 290.646C394.305 290.276 394.49 289.598 394.921 289.166C394.983 289.105 395.106 288.981 395.229 288.92Z" fill="#C4D1E8"/>
<path d="M392.702 293.173C392.764 292.988 392.887 292.803 393.01 292.68C393.072 292.618 393.072 292.557 393.133 292.557C393.195 292.495 393.257 292.495 393.257 292.433C393.565 292.249 393.873 292.31 393.935 292.68C393.996 292.865 393.935 293.112 393.812 293.358C393.688 293.666 393.442 293.913 393.195 294.098C393.072 294.159 392.949 294.221 392.825 294.221C392.579 294.16 392.517 293.666 392.702 293.173Z" fill="#C4D1E8"/>
<path d="M392.455 287.872C392.27 287.379 392.517 286.454 393.072 285.899L393.133 285.838C393.257 285.714 393.38 285.591 393.503 285.53C393.935 285.283 394.366 285.345 394.551 285.776C394.736 286.208 394.613 286.824 394.243 287.441C394.181 287.564 394.058 287.687 393.996 287.81L393.935 287.872C393.812 287.995 393.688 288.119 393.565 288.18C393.072 288.365 392.64 288.304 392.455 287.872Z" fill="#C4D1E8"/>
<path d="M393.442 295.146C393.503 294.838 393.688 294.591 393.873 294.344V294.283C393.996 294.159 394.058 294.098 394.181 294.036C394.305 293.975 394.366 293.975 394.49 293.913C394.675 293.913 394.859 293.974 394.983 294.159C395.168 294.529 394.983 295.207 394.613 295.639C394.49 295.762 394.428 295.824 394.305 295.885C393.996 296.07 393.688 296.07 393.503 295.762C393.38 295.701 393.38 295.392 393.442 295.146Z" fill="#C4D1E8"/>
<path d="M393.627 277.639C393.75 277.516 393.812 277.454 393.935 277.393C393.935 277.393 393.996 277.393 393.996 277.331C394.428 277.146 394.798 277.393 394.736 277.947C394.736 278.194 394.613 278.502 394.428 278.749C394.366 278.872 394.305 278.934 394.243 278.995C394.12 279.119 393.996 279.18 393.873 279.242C393.873 279.242 393.812 279.242 393.812 279.303C393.38 279.488 393.01 279.242 393.072 278.687C393.133 278.317 393.38 277.947 393.627 277.639Z" fill="#C4D1E8"/>
<path d="M393.195 281.399C393.257 281.399 393.257 281.338 393.318 281.338C393.503 281.214 393.75 281.153 393.873 281.214C394.058 281.276 394.243 281.461 394.243 281.708C394.305 282.262 393.935 283.064 393.442 283.434C393.38 283.495 393.38 283.495 393.318 283.495C392.825 283.742 392.455 283.619 392.332 283.064C392.27 282.632 392.517 281.954 392.887 281.523C393.01 281.523 393.133 281.461 393.195 281.399Z" fill="#C4D1E8"/>
<path d="M391.099 279.303C391.161 279.242 391.284 279.18 391.346 279.119C391.407 279.057 391.407 279.057 391.469 279.057C391.777 278.872 392.024 278.872 392.209 279.057C392.579 279.303 392.517 280.043 392.086 280.721C391.962 280.906 391.777 281.091 391.592 281.276C391.531 281.338 391.531 281.338 391.469 281.338C390.976 281.584 390.606 281.461 390.483 280.906C390.421 280.351 390.668 279.735 391.099 279.303Z" fill="#C4D1E8"/>
<path d="M390.175 284.235C390.298 284.112 390.421 283.988 390.544 283.927C390.729 283.865 390.853 283.804 390.976 283.804C391.099 283.804 391.223 283.804 391.346 283.865C391.469 283.927 391.531 284.05 391.592 284.173C391.777 284.667 391.531 285.591 390.976 286.146L390.914 286.208C390.791 286.331 390.668 286.454 390.544 286.516C390.298 286.639 390.113 286.701 389.928 286.639C389.743 286.578 389.558 286.454 389.497 286.269C389.435 286.146 389.435 285.961 389.435 285.838C389.435 285.653 389.497 285.468 389.497 285.283C389.62 284.975 389.866 284.605 390.175 284.235Z" fill="#C4D1E8"/>
<path d="M388.264 282.016C388.449 281.831 388.572 281.707 388.695 281.646C388.88 281.584 389.003 281.523 389.188 281.523C389.435 281.523 389.681 281.646 389.805 281.892C390.051 282.447 389.743 283.372 389.127 283.927C389.003 284.05 388.88 284.173 388.757 284.235C388.325 284.481 387.894 284.42 387.709 283.988C387.401 283.495 387.709 282.57 388.264 282.016Z" fill="#C4D1E8"/>
<path d="M387.647 287.625C388.017 287.378 388.387 287.379 388.634 287.563C389.127 287.933 389.065 288.919 388.51 289.783C388.449 289.844 388.449 289.906 388.387 289.967C388.325 290.091 388.264 290.152 388.202 290.214C388.017 290.399 387.832 290.522 387.709 290.646C387.216 290.954 386.723 290.892 386.476 290.399C386.168 289.783 386.476 288.735 387.154 287.995C387.277 287.872 387.462 287.687 387.647 287.625Z" fill="#C4D1E8"/>
<path d="M385.058 286.022C385.305 285.714 385.551 285.529 385.798 285.344C386.229 285.098 386.661 285.098 386.907 285.406C387.339 285.838 387.154 286.885 386.538 287.687C386.291 287.995 386.044 288.242 385.798 288.365C385.366 288.612 384.935 288.611 384.688 288.303C384.257 287.81 384.442 286.824 385.058 286.022Z" fill="#C4D1E8"/>
<path d="M383.764 293.605C384.072 293.05 384.503 292.618 384.873 292.433C385.243 292.187 385.613 292.125 385.921 292.31C386.538 292.618 386.599 293.728 385.983 294.776C385.921 294.837 385.921 294.899 385.86 295.022C385.736 295.207 385.613 295.33 385.49 295.515C385.305 295.7 385.058 295.885 384.873 296.009C384.503 296.255 384.134 296.255 383.825 296.132C383.209 295.762 383.147 294.652 383.764 293.605Z" fill="#C4D1E8"/>
<path d="M386.538 302.913C386.229 303.406 385.798 303.838 385.366 304.022C384.873 304.331 384.319 304.392 384.01 304.084C383.332 303.591 383.456 302.235 384.195 301.064C384.319 300.879 384.503 300.694 384.627 300.509C384.873 300.262 385.12 300.077 385.366 299.954C385.675 299.769 385.983 299.707 386.291 299.707C386.476 299.707 386.661 299.769 386.784 299.892C387.401 300.324 387.339 301.742 386.538 302.913Z" fill="#C4D1E8"/>
<path d="M388.942 296.317C388.88 296.379 388.88 296.44 388.818 296.564C388.695 296.748 388.572 296.933 388.449 297.057C388.264 297.242 388.079 297.427 387.894 297.55C387.894 297.55 387.894 297.55 387.832 297.55C386.969 298.043 386.291 297.673 386.291 296.687C386.291 296.194 386.414 295.701 386.723 295.207C386.846 294.961 387.031 294.714 387.216 294.529C387.401 294.344 387.647 294.16 387.832 294.036C388.202 293.79 388.572 293.728 388.88 293.913C389.188 294.036 389.373 294.406 389.373 294.899C389.373 295.331 389.188 295.824 388.942 296.317Z" fill="#C4D1E8"/>
<path d="M389.62 292.31C389.127 291.94 389.25 290.954 389.805 290.091C390.051 289.721 390.36 289.413 390.668 289.228C391.038 288.982 391.407 288.981 391.654 289.166C392.147 289.536 392.024 290.523 391.469 291.386C391.407 291.447 391.407 291.509 391.346 291.571C391.284 291.632 391.223 291.755 391.161 291.817C390.976 292.002 390.791 292.125 390.606 292.249C390.236 292.433 389.866 292.495 389.62 292.31Z" fill="#C4D1E8"/>
<path d="M390.729 296.255C390.729 296.194 390.729 296.132 390.791 296.009C390.853 295.639 391.099 295.331 391.346 295.207C391.407 295.146 391.469 295.146 391.531 295.146C391.716 295.146 391.839 295.207 391.901 295.331C392.024 295.577 391.901 296.07 391.592 296.44C391.531 296.502 391.407 296.564 391.346 296.625C391.161 296.687 391.038 296.748 390.914 296.625C390.791 296.625 390.729 296.44 390.729 296.255Z" fill="#C4D1E8"/>
<path d="M391.038 298.351C390.976 297.982 391.161 297.365 391.592 297.057C391.654 296.995 391.654 296.995 391.716 296.934C392.024 296.749 392.332 296.872 392.394 297.18C392.455 297.55 392.209 298.167 391.839 298.475C391.777 298.536 391.777 298.536 391.716 298.536C391.407 298.783 391.099 298.66 391.038 298.351Z" fill="#C4D1E8"/>
<path d="M392.949 300.201C392.825 300.324 392.764 300.385 392.64 300.447C392.332 300.632 392.024 300.632 391.839 300.324C391.716 300.139 391.716 299.892 391.839 299.584C391.901 299.276 392.086 299.029 392.27 298.783C392.394 298.659 392.455 298.598 392.579 298.536C392.702 298.475 392.764 298.474 392.887 298.413C393.072 298.351 393.257 298.475 393.38 298.659C393.565 299.029 393.38 299.707 392.949 300.201Z" fill="#C4D1E8"/>
<path d="M394.798 301.433C394.736 301.495 394.675 301.618 394.613 301.68C394.49 301.803 394.366 301.927 394.243 301.988C393.935 302.173 393.627 302.173 393.442 302.05C393.133 301.742 393.195 301.002 393.627 300.386C393.688 300.262 393.75 300.201 393.812 300.139C393.935 300.016 394.058 299.892 394.181 299.831C394.305 299.769 394.428 299.707 394.49 299.707C394.675 299.707 394.798 299.707 394.921 299.831C395.291 300.077 395.229 300.817 394.798 301.433Z" fill="#C4D1E8"/>
<path d="M394.983 297.55C394.798 297.427 394.736 297.18 394.798 296.81C394.798 296.749 394.798 296.625 394.859 296.564C394.983 296.009 395.353 295.516 395.784 295.331C395.907 295.269 396.031 295.208 396.092 295.208C396.277 295.208 396.401 295.208 396.524 295.331C396.832 295.639 396.77 296.379 396.339 296.995C396.277 297.057 396.216 297.18 396.154 297.242C396.031 297.365 395.907 297.489 395.784 297.55C395.476 297.735 395.168 297.735 394.983 297.55Z" fill="#C4D1E8"/>
<path d="M397.325 302.05C397.202 302.235 397.079 302.481 396.894 302.666C396.77 302.851 396.585 302.974 396.462 303.036C396.216 303.159 395.969 303.221 395.722 303.16C395.476 303.098 395.353 302.851 395.291 302.543C395.291 302.235 395.353 301.803 395.538 301.433C395.784 301.002 396.092 300.632 396.401 300.447C396.524 300.386 396.647 300.324 396.77 300.324C396.894 300.324 397.017 300.324 397.079 300.324C397.695 300.509 397.757 301.31 397.325 302.05Z" fill="#C4D1E8"/>
<path d="M397.325 298.721C397.079 298.659 396.955 298.413 396.894 298.104C396.832 297.796 396.955 297.365 397.14 296.995C397.264 296.748 397.387 296.563 397.572 296.378C397.695 296.255 397.88 296.07 398.003 296.009C398.127 295.947 398.25 295.885 398.373 295.885C398.496 295.885 398.62 295.885 398.681 295.885C399.174 296.07 399.236 296.81 398.866 297.611C398.743 297.796 398.62 298.043 398.435 298.166C398.311 298.351 398.127 298.474 398.003 298.536C397.818 298.721 397.572 298.782 397.325 298.721Z" fill="#C4D1E8"/>
<path d="M400.777 301.741C400.654 302.111 400.407 302.543 400.161 302.851C399.976 303.036 399.791 303.159 399.606 303.283C399.421 303.406 399.236 303.468 399.051 303.468C398.373 303.468 398.127 302.728 398.435 301.803C398.681 301.125 399.113 300.57 399.606 300.262C399.729 300.2 399.914 300.139 400.037 300.077C400.099 300.077 400.099 300.077 400.161 300.077C400.839 300.077 401.085 300.817 400.777 301.741Z" fill="#C4D1E8"/>
<path d="M402.38 297.241C402.257 297.611 402.01 298.043 401.702 298.351C401.517 298.536 401.332 298.659 401.209 298.782C401.024 298.906 400.777 298.967 400.592 298.967C400.284 298.967 400.099 298.844 399.976 298.598C399.668 297.981 399.976 296.933 400.654 296.193C400.839 296.009 401.024 295.885 401.147 295.762C401.27 295.7 401.455 295.639 401.579 295.577C401.64 295.577 401.64 295.577 401.702 295.577C402.442 295.577 402.688 296.317 402.38 297.241Z" fill="#C4D1E8"/>
<path d="M402.75 293.235C402.565 293.42 402.38 293.543 402.195 293.666C402.01 293.79 401.825 293.851 401.64 293.851C400.962 293.851 400.716 293.112 401.024 292.187C401.27 291.509 401.702 290.954 402.195 290.646C402.318 290.584 402.503 290.523 402.626 290.461C402.688 290.461 402.688 290.461 402.75 290.461C403.058 290.461 403.243 290.584 403.366 290.831C403.674 291.447 403.366 292.495 402.75 293.235Z" fill="#C4D1E8"/>
<path d="M406.695 295.639C406.572 296.132 406.387 296.687 406.017 297.118C405.77 297.427 405.462 297.673 405.215 297.858C404.722 298.166 404.168 298.166 403.921 297.796C403.489 297.242 403.674 296.009 404.414 295.084C404.476 295.022 404.537 294.899 404.599 294.838C404.784 294.653 405.031 294.468 405.215 294.344C405.339 294.283 405.462 294.221 405.585 294.159C405.647 294.159 405.709 294.159 405.77 294.098C406.448 293.974 406.88 294.653 406.695 295.639Z" fill="#C4D1E8"/>
<path d="M407.681 290.461C407.558 290.954 407.373 291.509 407.003 291.94C406.941 292.002 406.88 292.064 406.818 292.187C406.633 292.372 406.387 292.557 406.202 292.68C405.709 292.988 405.154 292.988 404.907 292.619C404.661 292.372 404.599 291.879 404.722 291.386C404.722 291.324 404.784 291.201 404.784 291.139C405.031 290.276 405.585 289.536 406.202 289.166C406.387 289.043 406.572 288.982 406.757 288.982C407.435 288.858 407.866 289.475 407.681 290.461Z" fill="#C4D1E8"/>
<path d="M407.866 284.482C407.743 284.667 407.62 284.79 407.496 284.851C407.435 284.913 407.435 284.913 407.373 284.913C407.003 285.098 406.695 285.036 406.695 284.667C406.633 284.42 406.757 284.05 406.942 283.803C407.003 283.742 407.065 283.619 407.126 283.557C407.188 283.434 407.311 283.372 407.435 283.31H407.496C407.681 283.187 407.866 283.187 407.989 283.31C408.113 283.372 408.174 283.557 408.174 283.803C408.113 284.05 407.989 284.297 407.866 284.482Z" fill="#C4D1E8"/>
<path d="M408.791 282.324C408.729 282.386 408.729 282.386 408.668 282.386C408.298 282.632 407.928 282.509 407.866 282.078C407.805 281.708 407.989 281.153 408.359 280.783C408.483 280.66 408.606 280.598 408.668 280.537C408.852 280.413 408.976 280.413 409.161 280.413C409.531 280.475 409.592 281.091 409.346 281.646C409.284 281.831 409.161 282.016 408.976 282.139C408.914 282.201 408.852 282.263 408.791 282.324Z" fill="#C4D1E8"/>
<path d="M411.75 289.659C411.503 289.906 411.256 290.091 411.072 290.214C410.887 290.338 410.64 290.399 410.455 290.461C409.962 290.522 409.592 290.337 409.407 289.968C408.976 289.166 409.407 287.687 410.332 286.701C410.517 286.454 410.763 286.269 411.01 286.146C411.01 286.146 411.01 286.146 411.072 286.146C411.256 286.023 411.503 285.961 411.688 285.899C412.181 285.838 412.551 286.022 412.736 286.392C413.044 287.194 412.674 288.673 411.75 289.659Z" fill="#C4D1E8"/>
<path d="M385.414 207.173C401.914 207.953 416.148 203.511 420.85 195.154C426.481 182.738 393.58 176.732 386.686 176.406C376.62 175.93 346.543 176.705 352.22 192.505C355.499 201.634 367.746 206.338 385.414 207.173Z" fill="#9AADCE"/>
<path d="M387.151 174.737C369.064 173.782 353.208 179.079 351.633 187.026C349.952 195.543 365.093 203.776 385.561 204.857C406.029 205.937 421.978 199.346 421.178 190.698C420.449 182.629 405.239 175.692 387.151 174.737Z" fill="url(#paint2_linear)"/>
<path d="M369.494 164.676C349.775 168.584 333.235 160.387 331.678 150.969C327.724 133.06 342.67 121.604 362.388 117.695C377.949 114.61 391.888 117.353 398.663 127.077C400.474 129.675 401.25 130.869 401.805 133.939C403.739 144.642 391.192 160.374 369.494 164.676Z" fill="#9AADCE"/>
<ellipse cx="366.109" cy="139.675" rx="23.3883" ry="35.3885" transform="rotate(76.8427 366.109 139.675)" fill="url(#paint3_linear)"/>
<path d="M341.841 109.172C323.594 120.498 304.2 120.698 296.091 107.126C289.167 93.9227 297.579 75.9865 315.826 64.6607C330.226 55.723 345.196 53.2221 355.629 60.3977C358.417 62.315 360.198 64.9785 361.907 67.8402C367.867 77.8148 360.088 97.8465 341.841 109.172Z" fill="#9AADCE"/>
<ellipse cx="327.816" cy="85.2394" rx="24.9876" ry="37.8082" transform="rotate(56.2281 327.816 85.2394)" fill="url(#paint4_linear)"/>
<path d="M264.477 17.3665C248.579 24.2814 235.117 40.7618 237.282 57.6446C238.153 64.3777 240.591 68.6166 244.676 73.0819C247.098 75.7299 251.028 78.6408 254.263 80.1818C260.195 83.0081 267.293 83.7787 274.826 81.783C295.18 76.3905 308.484 53.9454 303.117 33.6875C301.315 26.884 300.065 24.0888 295.346 20.4076C291.938 17.7492 286.927 13.5025 282.663 12.6452C276.574 11.4213 270.932 14.5597 264.477 17.3665Z" fill="#9AADCE"/>
<path d="M260.43 12.7196C244.531 19.6345 234.17 37.7808 236.335 54.6636C238.668 72.7126 254.594 84.5982 273.16 79.6795C293.514 74.287 306.818 51.8419 301.451 31.584C296.488 12.852 277.666 5.22499 260.43 12.7196Z" fill="url(#paint5_linear)"/>
</g>
<defs>
<linearGradient id="paint0_linear" x1="394.999" y1="22.5996" x2="394.999" y2="425.4" gradientUnits="userSpaceOnUse">
<stop stop-color="#B7DCFF"/>
<stop offset="1" stop-color="#87C5FF"/>
</linearGradient>
<linearGradient id="paint1_linear" x1="513.658" y1="265.948" x2="454.008" y2="242.35" gradientUnits="userSpaceOnUse">
<stop stop-color="#FDFDFF"/>
<stop offset="1" stop-color="#F1F5FE"/>
</linearGradient>
<linearGradient id="paint2_linear" x1="421.199" y1="191.636" x2="351.516" y2="187.957" gradientUnits="userSpaceOnUse">
<stop stop-color="#C4DAF2"/>
<stop offset="1" stop-color="#ECF5FE"/>
</linearGradient>
<linearGradient id="paint3_linear" x1="366.109" y1="104.287" x2="366.109" y2="175.064" gradientUnits="userSpaceOnUse">
<stop stop-color="#C4DAF2"/>
<stop offset="1" stop-color="#ECF5FE"/>
</linearGradient>
<linearGradient id="paint4_linear" x1="327.816" y1="47.4312" x2="327.816" y2="123.048" gradientUnits="userSpaceOnUse">
<stop stop-color="#C4DAF2"/>
<stop offset="1" stop-color="#ECF5FE"/>
</linearGradient>
<linearGradient id="paint5_linear" x1="302.744" y1="36.465" x2="235.905" y2="54.1729" gradientUnits="userSpaceOnUse">
<stop stop-color="#C4DAF2"/>
<stop offset="1" stop-color="#ECF5FE"/>
</linearGradient>
<clipPath id="clip0">
<rect width="792" height="500" fill="white" transform="translate(0 0.399414)"/>
</clipPath>
</defs>
</svg>
