<svg width="634" height="342" viewBox="0 0 634 342" fill="none" xmlns="http://www.w3.org/2000/svg">
<mask id="mask0_1_85" style="mask-type:luminance" maskUnits="userSpaceOnUse" x="0" y="0" width="634" height="342">
<path d="M634 0.799805H0V341.8H634V0.799805Z" fill="white"/>
</mask>
<g mask="url(#mask0_1_85)">
<path opacity="0.1" fill-rule="evenodd" clip-rule="evenodd" d="M629.592 141.174C629.592 139.517 628.249 138.174 626.592 138.174H443.139C438.45 138.174 433.924 138.868 429.656 140.159H394.213V138.572C394.213 136.35 392.411 134.549 390.189 134.549H359.694C357.472 134.549 355.67 136.35 355.67 138.572V140.159H266.876V138.572C266.876 136.35 265.074 134.549 262.852 134.549H232.357C230.135 134.549 228.333 136.35 228.333 138.572V140.159H203.711C199.637 140.159 196.334 143.462 196.334 147.536V164.499H141.298C133.224 164.499 126.261 169.279 123.058 176.156C123.025 176.154 122.992 176.153 122.958 176.153H102.513C101.772 176.153 101.172 176.753 101.172 177.494V179.192H-4.34961V190.131H101.172V191.83C101.172 192.571 101.772 193.171 102.513 193.171H122.958C122.975 193.171 122.992 193.171 123.008 193.17C123.025 193.17 123.042 193.169 123.058 193.167C126.261 200.044 133.224 204.824 141.298 204.824H196.334V221.787C196.334 225.861 199.637 229.164 203.711 229.164H429.659C433.925 230.455 438.451 231.149 443.139 231.149H626.592C628.249 231.149 629.592 229.805 629.592 228.149V141.174ZM463.026 199.279C465.63 195.425 467.151 190.778 467.151 185.777C467.151 184.109 466.982 182.482 466.66 180.91C465.862 177.008 464.123 173.449 461.69 170.481C457.261 165.076 450.534 161.627 443.001 161.627C436.332 161.627 430.294 164.33 425.924 168.7C421.554 173.07 418.851 179.107 418.851 185.776C418.851 191.286 420.695 196.364 423.801 200.428C428.214 206.201 435.172 209.926 443.001 209.926C451.336 209.926 458.686 205.703 463.026 199.279Z" fill="#1B2D4B"/>
<path d="M130.3 171.745C130.3 171.005 129.699 170.404 128.959 170.404H108.513C107.772 170.404 107.172 171.005 107.172 171.745V186.081C107.172 186.822 107.772 187.423 108.513 187.423H128.959C129.699 187.423 130.3 186.822 130.3 186.081V171.745Z" fill="url(#paint0_linear_1_85)"/>
<path d="M202.334 158.751H147.298C136.188 158.751 127.181 167.803 127.181 178.913C127.181 190.024 136.188 199.076 147.298 199.076H202.334V158.751Z" fill="url(#paint1_linear_1_85)"/>
<path d="M-4.34961 173.476H107.126V184.476H-4.34961V173.476Z" fill="url(#paint2_linear_1_85)"/>
<path d="M361.67 134.411H400.212V132.824C400.212 130.602 398.411 128.801 396.189 128.801H365.693C363.471 128.801 361.67 130.602 361.67 132.824V134.411Z" fill="white"/>
<path d="M234.333 134.411H272.875V132.824C272.875 130.602 271.074 128.801 268.852 128.801H238.356C236.134 128.801 234.333 130.602 234.333 132.824V134.411Z" fill="white"/>
<path fill-rule="evenodd" clip-rule="evenodd" d="M209.71 134.411C205.636 134.411 202.334 137.713 202.334 141.787V216.039C202.334 220.113 205.636 223.415 209.71 223.415H488.217C492.291 223.415 495.593 220.113 495.593 216.039V141.787C495.593 137.713 492.291 134.411 488.217 134.411H209.71ZM449.001 204.178C462.339 204.178 473.151 193.365 473.151 180.028C473.151 166.69 462.339 155.877 449.001 155.877C435.663 155.877 424.851 166.69 424.851 180.028C424.851 193.365 435.663 204.178 449.001 204.178Z" fill="url(#paint3_linear_1_85)"/>
<path fill-rule="evenodd" clip-rule="evenodd" d="M449.625 132.476C423.944 132.476 403.125 153.294 403.125 178.976C403.125 204.657 423.944 225.476 449.625 225.476H624.274C627.587 225.476 630.274 222.789 630.274 219.476V138.476C630.274 135.162 627.587 132.476 624.274 132.476H449.625ZM449.001 204.177C462.339 204.177 473.151 193.365 473.151 180.027C473.151 166.689 462.339 155.877 449.001 155.877C435.663 155.877 424.851 166.689 424.851 180.027C424.851 193.365 435.663 204.177 449.001 204.177Z" fill="white"/>
<path d="M382.149 154.545H251.927C249.49 154.545 247.515 156.52 247.515 158.957V198.327C247.515 200.764 249.49 202.739 251.927 202.739H382.149C384.586 202.739 386.561 200.764 386.561 198.327V158.957C386.561 156.52 384.586 154.545 382.149 154.545Z" fill="#57AEFF"/>
<path d="M381.11 122.009V119.367H378.468V122.009H381.11Z" fill="#108CFF"/>
<path d="M381.11 118.027V115.385H378.468V118.027H381.11Z" fill="#108CFF"/>
<path d="M381.11 114.046V111.404H378.468V114.046H381.11Z" fill="#108CFF"/>
<path d="M381.11 110.064V107.422H378.468V110.064H381.11Z" fill="#108CFF"/>
<path d="M381.11 106.082V103.44H378.468V106.082H381.11Z" fill="#108CFF"/>
<path d="M381.11 102.1V99.4583H378.468V102.1H381.11Z" fill="#108CFF"/>
<path d="M381.11 98.1182V95.4766H378.468V98.1182H381.11Z" fill="#108CFF"/>
<path d="M385.713 117.858V115.216H383.071V117.858H385.713Z" fill="#108CFF"/>
<path d="M373.941 117.858L373.941 115.216L376.583 115.216L376.583 117.858L373.941 117.858Z" fill="#108CFF"/>
<path d="M389.261 113.707V111.065H386.619V113.707H389.261Z" fill="#108CFF"/>
<path d="M370.393 113.707L370.393 111.065L373.035 111.065L373.035 113.707L370.393 113.707Z" fill="#108CFF"/>
<path d="M393.035 109.556V106.914H390.393V109.556H393.035Z" fill="#108CFF"/>
<path d="M366.619 109.556L366.619 106.914L369.261 106.914L369.261 109.556L366.619 109.556Z" fill="#108CFF"/>
<path d="M255.641 122.009V119.367H252.999V122.009H255.641Z" fill="#108CFF"/>
<path d="M255.641 118.027V115.385H252.999V118.027H255.641Z" fill="#108CFF"/>
<path d="M255.641 114.046V111.404H252.999V114.046H255.641Z" fill="#108CFF"/>
<path d="M255.641 110.064V107.422H252.999V110.064H255.641Z" fill="#108CFF"/>
<path d="M255.641 106.082V103.44H252.999V106.082H255.641Z" fill="#108CFF"/>
<path d="M255.641 102.1V99.4583H252.999V102.1H255.641Z" fill="#108CFF"/>
<path d="M255.641 98.1182V95.4766H252.999V98.1182H255.641Z" fill="#108CFF"/>
<path d="M260.244 117.858V115.216H257.602V117.858H260.244Z" fill="#108CFF"/>
<path d="M248.472 117.858L248.472 115.216L251.114 115.216L251.114 117.858L248.472 117.858Z" fill="#108CFF"/>
<path d="M263.793 113.707V111.065H261.151V113.707H263.793Z" fill="#108CFF"/>
<path d="M244.924 113.707L244.924 111.065L247.566 111.065L247.566 113.707L244.924 113.707Z" fill="#108CFF"/>
<path d="M267.566 109.556V106.914H264.924V109.556H267.566Z" fill="#108CFF"/>
<path d="M241.15 109.556L241.15 106.914L243.792 106.914L243.792 109.556L241.15 109.556Z" fill="#108CFF"/>
<path d="M257.65 179.796H258.943V178.503H257.65V179.796Z" fill="white"/>
<path d="M259.683 182.05H260.976V180.757H259.683V182.05Z" fill="white"/>
<path d="M259.683 176.287L260.976 176.287L260.976 177.58L259.683 177.58L259.683 176.287Z" fill="white"/>
<path d="M261.715 183.787H263.008V182.494H261.715V183.787Z" fill="white"/>
<path d="M261.715 174.55L263.008 174.55L263.008 175.843L261.715 175.843L261.715 174.55Z" fill="white"/>
<path d="M263.746 185.634H265.039V184.341H263.746V185.634Z" fill="white"/>
<path d="M263.747 172.703L265.04 172.703L265.04 173.996L263.747 173.996L263.747 172.703Z" fill="white"/>
<path d="M380.371 179.796L379.078 179.796L379.078 178.503L380.371 178.503L380.371 179.796Z" fill="white"/>
<path d="M378.339 182.05L377.046 182.05L377.046 180.757L378.339 180.757L378.339 182.05Z" fill="white"/>
<path d="M378.339 176.287H377.046V177.58H378.339V176.287Z" fill="white"/>
<path d="M376.307 183.787L375.014 183.787L375.014 182.494L376.307 182.494L376.307 183.787Z" fill="white"/>
<path d="M376.307 174.55H375.014V175.843H376.307V174.55Z" fill="white"/>
<path d="M374.275 185.634L372.982 185.634L372.982 184.341L374.275 184.341L374.275 185.634Z" fill="white"/>
<path d="M374.275 172.703H372.982V173.996H374.275V172.703Z" fill="white"/>
<path d="M295.784 182.424C297.302 182.424 298.569 181.181 298.569 179.708C298.569 178.236 297.302 177 295.784 177C294.282 177 293 178.236 293 179.708C293 181.181 294.282 182.424 295.784 182.424ZM295.784 181.402C294.907 181.402 294.16 180.624 294.16 179.708C294.16 178.801 294.907 178.022 295.784 178.022C296.669 178.022 297.417 178.801 297.417 179.708C297.417 180.624 296.669 181.402 295.784 181.402ZM300.541 182.332H301.662V180.631H302.898C304.035 180.631 304.874 179.899 304.874 178.862C304.874 177.824 304.035 177.092 302.898 177.092H300.541V182.332ZM301.662 179.602V178.122H302.776C303.333 178.122 303.714 178.412 303.714 178.862C303.714 179.312 303.333 179.602 302.776 179.602H301.662ZM310.756 178.106V177.092H306.721V182.332H310.756V181.318H307.85V180.166H310.482V179.151H307.85V178.106H310.756ZM312.798 182.332H313.919V178.946L316.444 182.332H317.573V177.092H316.444V180.479L313.919 177.092H312.798V182.332ZM326.923 182.332H328.19L326.054 177.092H324.795L322.659 182.332H323.918L324.253 181.509H326.588L326.923 182.332ZM324.642 180.555L325.42 178.64L326.199 180.555H324.642ZM329.951 182.332H331.073V180.631H332.309C333.445 180.631 334.284 179.899 334.284 178.862C334.284 177.824 333.445 177.092 332.309 177.092H329.951V182.332ZM331.073 179.602V178.122H332.187C332.743 178.122 333.125 178.412 333.125 178.862C333.125 179.312 332.743 179.602 332.187 179.602H331.073ZM336.132 182.332H337.253V180.631H338.489C339.625 180.631 340.464 179.899 340.464 178.862C340.464 177.824 339.625 177.092 338.489 177.092H336.132V182.332ZM337.253 179.602V178.122H338.367C338.924 178.122 339.305 178.412 339.305 178.862C339.305 179.312 338.924 179.602 338.367 179.602H337.253Z" fill="white"/>
</g>
<defs>
<linearGradient id="paint0_linear_1_85" x1="108.003" y1="177.742" x2="130.051" y2="177.742" gradientUnits="userSpaceOnUse">
<stop stop-color="white"/>
<stop offset="1" stop-color="#E4EBFA"/>
</linearGradient>
<linearGradient id="paint1_linear_1_85" x1="130.799" y1="181.479" x2="202.922" y2="181.479" gradientUnits="userSpaceOnUse">
<stop stop-color="white"/>
<stop offset="1" stop-color="#E4EBFA"/>
</linearGradient>
<linearGradient id="paint2_linear_1_85" x1="14.888" y1="173.476" x2="126.605" y2="173.476" gradientUnits="userSpaceOnUse">
<stop stop-color="white"/>
<stop offset="1" stop-color="#E4EBFA"/>
</linearGradient>
<linearGradient id="paint3_linear_1_85" x1="348.964" y1="134.411" x2="348.964" y2="224.224" gradientUnits="userSpaceOnUse">
<stop stop-color="white"/>
<stop offset="1" stop-color="#F0F5FE"/>
</linearGradient>
</defs>
</svg>
