<svg width="793" height="441" viewBox="0 0 793 441" fill="none" xmlns="http://www.w3.org/2000/svg">
<g clip-path="url(#clip0)">
<path d="M465.61 26.6912C472.959 28.4138 475.441 37.6296 469.865 42.7717L443.156 67.4376C438.504 71.7076 431.083 70.4018 428.286 64.7354L410.901 29.7345C407.368 22.6132 413.722 14.4722 421.606 16.3287L465.61 26.6912Z" fill="#405985"/>
<rect x="194.25" y="41.4639" width="402" height="296.757" rx="96" fill="#25395F"/>
<path d="M212.119 316.751C210.357 317.825 208.086 317.211 207.507 315.251C206.645 312.199 206.513 308.872 207.438 305.69C208.711 301.314 211.59 297.517 215.572 295.17C219.554 292.822 224.181 292.123 228.551 293.251C231.744 294.048 234.518 295.765 236.634 298.03C238.044 299.54 237.4 301.84 235.553 302.864C233.791 303.938 231.57 303.238 230.009 301.989C228.997 301.172 227.833 300.618 226.519 300.324C224.027 299.699 221.373 300.142 219.068 301.367C216.797 302.728 215.096 304.882 214.437 307.405C214.04 308.685 213.95 310.027 214.131 311.293C214.474 313.465 213.831 315.764 212.119 316.751Z" fill="#6E82A4"/>
<path d="M580.496 324.085C590.648 318.252 590.623 303.585 580.536 297.718L546.458 277.736C536.794 272.039 524.525 278.377 523.613 289.567L520.042 331.274C518.962 343.565 532.187 351.981 542.847 345.895L580.496 324.085Z" fill="#9AADCE"/>
<path opacity="0.5" fill-rule="evenodd" clip-rule="evenodd" d="M471.871 155.172V156.759H507.314C511.582 155.468 516.109 154.774 520.798 154.774L749.282 154.773C751.504 154.773 753.306 156.575 753.306 158.797V243.725C753.306 245.947 751.504 247.748 749.282 247.748L520.798 247.748C516.11 247.748 511.584 247.054 507.317 245.764H281.369C277.295 245.764 273.993 242.461 273.993 238.387V221.424H218.956C210.882 221.424 203.919 216.644 200.716 209.767C200.7 209.768 200.683 209.769 200.666 209.77C200.65 209.771 200.633 209.771 200.617 209.771H180.171C179.43 209.771 178.83 209.17 178.83 208.43L178.83 206.731H0.308594V195.791H178.83L178.83 194.094C178.83 193.353 179.43 192.752 180.171 192.752H200.617C200.65 192.752 200.683 192.754 200.716 192.756C203.919 185.879 210.882 181.099 218.956 181.099H273.993V164.135C273.993 160.062 277.295 156.759 281.369 156.759H305.991V155.172C305.991 152.95 307.793 151.148 310.015 151.148H340.51C342.732 151.148 344.534 152.95 344.534 155.172V156.759H433.328V155.172C433.328 152.95 435.13 151.148 437.352 151.148H467.847C470.07 151.148 471.871 152.95 471.871 155.172ZM544.809 202.376C544.809 207.378 543.288 212.025 540.684 215.879C536.344 222.303 528.995 226.526 520.659 226.526C512.831 226.526 505.872 222.801 501.459 217.028C498.354 212.964 496.509 207.886 496.509 202.375C496.509 195.707 499.212 189.67 503.582 185.3C507.953 180.929 513.99 178.226 520.659 178.226C528.192 178.226 534.919 181.675 539.348 187.08C541.781 190.049 543.52 193.608 544.318 197.509C544.64 199.081 544.809 200.709 544.809 202.376Z" fill="#1B2D4B"/>
<path d="M207.958 188.346C207.958 187.605 207.358 187.004 206.617 187.004H186.171C185.431 187.004 184.83 187.605 184.83 188.346V202.682C184.83 203.422 185.431 204.023 186.171 204.023H206.617C207.358 204.023 207.958 203.422 207.958 202.682V188.346Z" fill="url(#paint0_linear)"/>
<path d="M279.993 175.351H224.956C213.846 175.351 204.839 184.403 204.839 195.514C204.839 206.624 213.846 215.676 224.956 215.676H279.993V175.351Z" fill="url(#paint1_linear)"/>
<path d="M0.308594 190.077H184.784V201.077H0.308594V190.077Z" fill="url(#paint2_linear)"/>
<path d="M439.328 151.012H477.871V149.425C477.871 147.202 476.069 145.401 473.847 145.401H443.352C441.13 145.401 439.328 147.202 439.328 149.425V151.012Z" fill="white"/>
<path d="M311.991 151.012H350.534V149.425C350.534 147.202 348.732 145.401 346.51 145.401H316.015C313.793 145.401 311.991 147.202 311.991 149.425V151.012Z" fill="white"/>
<path fill-rule="evenodd" clip-rule="evenodd" d="M287.369 151.011C283.295 151.011 279.992 154.313 279.992 158.387V232.639C279.992 236.713 283.295 240.015 287.369 240.015H565.875C569.949 240.015 573.251 236.713 573.251 232.639V158.387C573.251 154.313 569.949 151.011 565.875 151.011H287.369ZM526.659 220.778C539.997 220.778 550.809 209.965 550.809 196.628C550.809 183.29 539.997 172.478 526.659 172.478C513.321 172.478 502.509 183.29 502.509 196.628C502.509 209.965 513.321 220.778 526.659 220.778Z" fill="url(#paint3_linear)"/>
<path fill-rule="evenodd" clip-rule="evenodd" d="M527.284 149.076C501.602 149.076 480.784 169.895 480.784 195.576C480.784 221.257 501.602 242.076 527.284 242.076H746.932C750.246 242.076 752.932 239.39 752.932 236.076V155.076C752.932 151.762 750.246 149.076 746.932 149.076H527.284ZM526.659 220.778C539.997 220.778 550.809 209.965 550.809 196.628C550.809 183.29 539.997 172.478 526.659 172.478C513.321 172.478 502.509 183.29 502.509 196.628C502.509 209.965 513.321 220.778 526.659 220.778Z" fill="white"/>
<rect x="325.173" y="171.146" width="139.046" height="48.1942" rx="4.41186" fill="#57AEFF"/>
<path fill-rule="evenodd" clip-rule="evenodd" d="M406.159 187.97C406.749 188.572 406.72 189.522 406.096 190.091L390.997 203.841L383.706 196.811C383.098 196.225 383.098 195.275 383.706 194.689C384.313 194.104 385.298 194.104 385.905 194.689L391.059 199.659L403.96 187.909C404.584 187.341 405.569 187.368 406.159 187.97Z" fill="white"/>
</g>
<defs>
<linearGradient id="paint0_linear" x1="185.661" y1="194.342" x2="207.709" y2="194.342" gradientUnits="userSpaceOnUse">
<stop stop-color="white"/>
<stop offset="1" stop-color="#E4EBFA"/>
</linearGradient>
<linearGradient id="paint1_linear" x1="208.457" y1="198.079" x2="280.581" y2="198.079" gradientUnits="userSpaceOnUse">
<stop stop-color="white"/>
<stop offset="1" stop-color="#E4EBFA"/>
</linearGradient>
<linearGradient id="paint2_linear" x1="92.5462" y1="190.077" x2="204.263" y2="190.077" gradientUnits="userSpaceOnUse">
<stop stop-color="white"/>
<stop offset="1" stop-color="#E4EBFA"/>
</linearGradient>
<linearGradient id="paint3_linear" x1="426.622" y1="151.011" x2="426.622" y2="240.824" gradientUnits="userSpaceOnUse">
<stop stop-color="white"/>
<stop offset="1" stop-color="#F0F5FE"/>
</linearGradient>
<clipPath id="clip0">
<rect width="792" height="440" fill="white" transform="translate(0.25 0.5)"/>
</clipPath>
</defs>
</svg>
