<svg width="634" height="341" viewBox="0 0 634 341" fill="none" xmlns="http://www.w3.org/2000/svg">
<g clip-path="url(#clip0)">
<path opacity="0.1" fill-rule="evenodd" clip-rule="evenodd" d="M629.591 137.374L443.138 137.374C438.449 137.374 433.923 138.068 429.655 139.359H394.212V137.772C394.212 135.55 392.41 133.749 390.188 133.749H359.693C357.471 133.749 355.669 135.55 355.669 137.772V139.359H266.875V137.772C266.875 135.55 265.073 133.749 262.851 133.749H232.356C230.134 133.749 228.332 135.55 228.332 137.772V139.359H203.71C199.636 139.359 196.333 142.662 196.333 146.736V163.699H141.297C133.223 163.699 126.26 168.48 123.057 175.356C123.024 175.354 122.991 175.353 122.957 175.353H102.512C101.771 175.353 101.171 175.953 101.171 176.694L101.171 178.392H-4.35059V189.331H101.171L101.171 191.03C101.171 191.771 101.771 192.371 102.512 192.371H122.957C122.974 192.371 122.991 192.371 123.007 192.37C123.024 192.37 123.041 192.369 123.057 192.368C126.26 199.244 133.223 204.024 141.297 204.024H196.333V220.988C196.333 225.062 199.636 228.364 203.71 228.364H429.658C433.924 229.655 438.45 230.349 443.138 230.349L629.591 230.349V137.374ZM463.025 198.479C465.629 194.625 467.15 189.978 467.15 184.977C467.15 183.31 466.981 181.682 466.659 180.11C465.861 176.208 464.122 172.649 461.689 169.681C457.26 164.276 450.533 160.827 443 160.827C436.331 160.827 430.293 163.53 425.923 167.9C421.553 172.27 418.85 178.307 418.85 184.976C418.85 190.486 420.694 195.564 423.8 199.628C428.213 205.402 435.171 209.126 443 209.126C451.335 209.126 458.685 204.903 463.025 198.479Z" fill="#1B2D4B"/>
<path d="M130.299 170.946C130.299 170.205 129.699 169.605 128.958 169.605H108.513C107.772 169.605 107.171 170.205 107.171 170.946V185.282C107.171 186.023 107.772 186.623 108.513 186.623H128.958C129.699 186.623 130.299 186.023 130.299 185.282V170.946Z" fill="url(#paint0_linear)"/>
<path d="M202.334 157.951H147.298C136.187 157.951 127.18 167.003 127.18 178.114V178.114C127.18 189.224 136.187 198.276 147.298 198.276H202.334V157.951Z" fill="url(#paint1_linear)"/>
<path d="M-4.3501 172.677H107.125V183.677H-4.3501V172.677Z" fill="url(#paint2_linear)"/>
<path d="M361.669 133.612H400.212V132.024C400.212 129.802 398.411 128.001 396.188 128.001H365.693C363.471 128.001 361.669 129.802 361.669 132.024V133.612Z" fill="white"/>
<path d="M234.332 133.612H272.875V132.024C272.875 129.802 271.074 128.001 268.851 128.001H238.356C236.134 128.001 234.332 129.802 234.332 132.024V133.612Z" fill="white"/>
<path fill-rule="evenodd" clip-rule="evenodd" d="M209.71 133.611C205.636 133.611 202.333 136.914 202.333 140.987V215.239C202.333 219.313 205.636 222.616 209.71 222.616H488.216C492.29 222.616 495.593 219.313 495.593 215.239V140.987C495.593 136.914 492.29 133.611 488.216 133.611H209.71ZM449 203.378C462.338 203.378 473.15 192.566 473.15 179.228C473.15 165.89 462.338 155.078 449 155.078C435.663 155.078 424.85 165.89 424.85 179.228C424.85 192.566 435.663 203.378 449 203.378Z" fill="url(#paint3_linear)"/>
<path fill-rule="evenodd" clip-rule="evenodd" d="M449.625 131.676C423.944 131.676 403.125 152.495 403.125 178.176C403.125 203.857 423.944 224.676 449.625 224.676H624.273C627.587 224.676 630.273 221.99 630.273 218.676V137.676C630.273 134.362 627.587 131.676 624.273 131.676H449.625ZM449 203.378C462.338 203.378 473.15 192.565 473.15 179.228C473.15 165.89 462.338 155.078 449 155.078C435.663 155.078 424.85 165.89 424.85 179.228C424.85 192.565 435.663 203.378 449 203.378Z" fill="white"/>
<rect x="247.515" y="153.745" width="139.046" height="48.1942" rx="4.41186" fill="#57AEFF"/>
<circle cx="265.038" cy="177.842" r="6" fill="white"/>
<circle cx="282.038" cy="177.842" r="6" fill="white"/>
<circle cx="299.038" cy="177.842" r="6" fill="white"/>
<circle cx="316.038" cy="177.842" r="6" fill="white"/>
<circle cx="333.038" cy="177.842" r="6" fill="white"/>
<circle cx="350.038" cy="177.842" r="6" fill="white"/>
<rect x="361.038" y="186.596" width="14" height="3" fill="white"/>
<rect x="381.11" y="118.567" width="2.64163" height="2.64163" transform="rotate(90 381.11 118.567)" fill="#108CFF"/>
<rect x="381.11" y="114.586" width="2.64163" height="2.64163" transform="rotate(90 381.11 114.586)" fill="#108CFF"/>
<rect x="381.11" y="110.604" width="2.64163" height="2.64163" transform="rotate(90 381.11 110.604)" fill="#108CFF"/>
<rect x="381.11" y="106.622" width="2.64163" height="2.64163" transform="rotate(90 381.11 106.622)" fill="#108CFF"/>
<rect x="381.11" y="102.64" width="2.64163" height="2.64163" transform="rotate(90 381.11 102.64)" fill="#108CFF"/>
<rect x="381.11" y="98.6585" width="2.64163" height="2.64163" transform="rotate(90 381.11 98.6585)" fill="#108CFF"/>
<rect x="381.11" y="94.6768" width="2.64163" height="2.64163" transform="rotate(90 381.11 94.6768)" fill="#108CFF"/>
<rect x="385.713" y="114.416" width="2.64163" height="2.64163" transform="rotate(90 385.713 114.416)" fill="#108CFF"/>
<rect width="2.64163" height="2.64163" transform="matrix(-4.37114e-08 1 1 4.37114e-08 373.941 114.416)" fill="#108CFF"/>
<rect x="389.261" y="110.265" width="2.64163" height="2.64163" transform="rotate(90 389.261 110.265)" fill="#108CFF"/>
<rect width="2.64163" height="2.64163" transform="matrix(-4.37114e-08 1 1 4.37114e-08 370.393 110.265)" fill="#108CFF"/>
<rect x="393.035" y="106.114" width="2.64163" height="2.64163" transform="rotate(90 393.035 106.114)" fill="#108CFF"/>
<rect width="2.64163" height="2.64163" transform="matrix(-4.37114e-08 1 1 4.37114e-08 366.619 106.114)" fill="#108CFF"/>
<rect x="255.641" y="118.567" width="2.64163" height="2.64163" transform="rotate(90 255.641 118.567)" fill="#108CFF"/>
<rect x="255.641" y="114.586" width="2.64163" height="2.64163" transform="rotate(90 255.641 114.586)" fill="#108CFF"/>
<rect x="255.641" y="110.604" width="2.64163" height="2.64163" transform="rotate(90 255.641 110.604)" fill="#108CFF"/>
<rect x="255.641" y="106.622" width="2.64163" height="2.64163" transform="rotate(90 255.641 106.622)" fill="#108CFF"/>
<rect x="255.641" y="102.64" width="2.64163" height="2.64163" transform="rotate(90 255.641 102.64)" fill="#108CFF"/>
<rect x="255.641" y="98.6585" width="2.64163" height="2.64163" transform="rotate(90 255.641 98.6585)" fill="#108CFF"/>
<rect x="255.641" y="94.6768" width="2.64163" height="2.64163" transform="rotate(90 255.641 94.6768)" fill="#108CFF"/>
<rect x="260.244" y="114.416" width="2.64163" height="2.64163" transform="rotate(90 260.244 114.416)" fill="#108CFF"/>
<rect width="2.64163" height="2.64163" transform="matrix(-4.37114e-08 1 1 4.37114e-08 248.472 114.416)" fill="#108CFF"/>
<rect x="263.793" y="110.265" width="2.64163" height="2.64163" transform="rotate(90 263.793 110.265)" fill="#108CFF"/>
<rect width="2.64163" height="2.64163" transform="matrix(-4.37114e-08 1 1 4.37114e-08 244.924 110.265)" fill="#108CFF"/>
<rect x="267.566" y="106.114" width="2.64163" height="2.64163" transform="rotate(90 267.566 106.114)" fill="#108CFF"/>
<rect width="2.64163" height="2.64163" transform="matrix(-4.37114e-08 1 1 4.37114e-08 241.15 106.114)" fill="#108CFF"/>
</g>
<defs>
<linearGradient id="paint0_linear" x1="108.003" y1="176.942" x2="130.051" y2="176.942" gradientUnits="userSpaceOnUse">
<stop stop-color="white"/>
<stop offset="1" stop-color="#E4EBFA"/>
</linearGradient>
<linearGradient id="paint1_linear" x1="130.799" y1="180.679" x2="202.922" y2="180.679" gradientUnits="userSpaceOnUse">
<stop stop-color="white"/>
<stop offset="1" stop-color="#E4EBFA"/>
</linearGradient>
<linearGradient id="paint2_linear" x1="14.8875" y1="172.677" x2="126.604" y2="172.677" gradientUnits="userSpaceOnUse">
<stop stop-color="white"/>
<stop offset="1" stop-color="#E4EBFA"/>
</linearGradient>
<linearGradient id="paint3_linear" x1="348.963" y1="133.611" x2="348.963" y2="223.425" gradientUnits="userSpaceOnUse">
<stop stop-color="white"/>
<stop offset="1" stop-color="#F0F5FE"/>
</linearGradient>
<clipPath id="clip0">
<rect width="634" height="341" fill="white"/>
</clipPath>
</defs>
</svg>
