<svg width="793" height="444" viewBox="0 0 793 444" fill="none" xmlns="http://www.w3.org/2000/svg">
<path d="M465.61 29.5907C472.959 31.3132 475.441 40.529 469.865 45.6711L443.156 70.337C438.504 74.6071 431.083 73.3012 428.286 67.6348L410.901 32.6339C407.368 25.5126 413.722 17.3716 421.606 19.2281L465.61 29.5907Z" fill="#108CFF"/>
<rect x="194.25" y="44.3633" width="402" height="296.757" rx="96" fill="#E3EEFE"/>
<path d="M212.119 319.65C210.357 320.724 208.086 320.111 207.507 318.151C206.645 315.099 206.513 311.771 207.438 308.589C208.711 304.214 211.59 300.417 215.572 298.069C219.554 295.721 224.181 295.023 228.551 296.151C231.744 296.947 234.518 298.664 236.634 300.93C238.044 302.44 237.4 304.739 235.553 305.764C233.791 306.838 231.57 306.137 230.009 304.888C228.997 304.072 227.833 303.517 226.519 303.223C224.027 302.598 221.373 303.042 219.068 304.266C216.797 305.627 215.096 307.781 214.437 310.304C214.04 311.585 213.95 312.926 214.131 314.192C214.474 316.364 213.831 318.664 212.119 319.65Z" fill="#FFAB49"/>
<path d="M580.496 326.985C590.648 321.152 590.623 306.485 580.536 300.617L546.458 280.636C536.794 274.939 524.525 281.277 523.613 292.467L520.042 334.174C518.962 346.465 532.187 354.881 542.847 348.795L580.496 326.985Z" fill="#FFCA62"/>
<path opacity="0.3" fill-rule="evenodd" clip-rule="evenodd" d="M471.871 158.072V159.659H507.314C511.582 158.368 516.109 157.674 520.798 157.674L749.282 157.674C751.504 157.674 753.306 159.475 753.306 161.697V246.625C753.306 248.847 751.504 250.649 749.282 250.649L520.798 250.649C516.11 250.649 511.584 249.955 507.317 248.664H281.369C277.295 248.664 273.993 245.362 273.993 241.288V224.324H218.956C210.882 224.324 203.919 219.544 200.716 212.668C200.7 212.669 200.683 212.67 200.666 212.67C200.65 212.671 200.633 212.671 200.617 212.671H180.171C179.43 212.671 178.83 212.071 178.83 211.33L178.83 209.631H0.308594V198.692H178.83L178.83 196.994C178.83 196.253 179.43 195.653 180.171 195.653H200.617C200.65 195.653 200.683 195.654 200.716 195.656C203.919 188.78 210.882 183.999 218.956 183.999H273.993V167.036C273.993 162.962 277.295 159.659 281.369 159.659H305.991V158.072C305.991 155.85 307.793 154.049 310.015 154.049H340.51C342.732 154.049 344.534 155.85 344.534 158.072V159.659H433.328V158.072C433.328 155.85 435.13 154.049 437.352 154.049H467.847C470.07 154.049 471.871 155.85 471.871 158.072ZM544.809 205.277C544.809 210.279 543.288 214.925 540.684 218.779C536.344 225.203 528.995 229.426 520.659 229.426C512.831 229.426 505.872 225.702 501.459 219.928C498.354 215.864 496.509 210.786 496.509 205.276C496.509 198.607 499.212 192.57 503.582 188.2C507.953 183.83 513.99 181.127 520.659 181.127C528.192 181.127 534.919 184.576 539.348 189.981C541.781 192.949 543.52 196.508 544.318 200.41C544.64 201.982 544.809 203.61 544.809 205.277Z" fill="#B0BFD9"/>
<path d="M207.958 191.245C207.958 190.505 207.358 189.904 206.617 189.904H186.171C185.431 189.904 184.83 190.505 184.83 191.245V205.582C184.83 206.322 185.431 206.923 186.171 206.923H206.617C207.358 206.923 207.958 206.322 207.958 205.582V191.245Z" fill="url(#paint0_linear)"/>
<path d="M279.992 178.251H224.956C213.845 178.251 204.839 187.303 204.839 198.413C204.839 209.524 213.845 218.576 224.956 218.576H279.992V178.251Z" fill="url(#paint1_linear)"/>
<path d="M0.308594 192.977H184.784V203.977H0.308594V192.977Z" fill="url(#paint2_linear)"/>
<path d="M439.328 153.911H477.871V152.324C477.871 150.102 476.069 148.301 473.847 148.301H443.352C441.13 148.301 439.328 150.102 439.328 152.324V153.911Z" fill="white"/>
<path d="M311.991 153.911H350.534V152.324C350.534 150.102 348.732 148.301 346.51 148.301H316.015C313.793 148.301 311.991 150.102 311.991 152.324V153.911Z" fill="white"/>
<path fill-rule="evenodd" clip-rule="evenodd" d="M287.369 153.911C283.295 153.911 279.992 157.214 279.992 161.288V235.539C279.992 239.613 283.295 242.916 287.369 242.916H565.875C569.949 242.916 573.251 239.613 573.251 235.539V161.288C573.251 157.214 569.949 153.911 565.875 153.911H287.369ZM526.659 223.678C539.997 223.678 550.809 212.866 550.809 199.528C550.809 186.19 539.997 175.378 526.659 175.378C513.321 175.378 502.509 186.19 502.509 199.528C502.509 212.866 513.321 223.678 526.659 223.678Z" fill="url(#paint3_linear)"/>
<path fill-rule="evenodd" clip-rule="evenodd" d="M527.283 151.976C501.602 151.976 480.783 172.794 480.783 198.476C480.783 224.157 501.602 244.975 527.283 244.975H746.931C750.245 244.975 752.931 242.289 752.931 238.975V157.976C752.931 154.662 750.245 151.976 746.931 151.976H527.283ZM526.659 223.677C539.996 223.677 550.809 212.865 550.809 199.527C550.809 186.189 539.996 175.377 526.659 175.377C513.321 175.377 502.509 186.189 502.509 199.527C502.509 212.865 513.321 223.677 526.659 223.677Z" fill="white"/>
<rect x="325.174" y="174.045" width="139.046" height="48.1942" rx="4.41186" fill="#57AEFF"/>
<rect x="333.78" y="199.688" width="1.29313" height="1.29313" transform="rotate(-180 333.78 199.688)" fill="white"/>
<rect x="335.812" y="201.941" width="1.29313" height="1.29313" transform="rotate(-180 335.812 201.941)" fill="white"/>
<rect width="1.29313" height="1.29313" transform="matrix(-1 -8.74228e-08 -8.74228e-08 1 335.812 196.179)" fill="white"/>
<rect x="337.845" y="203.678" width="1.29313" height="1.29313" transform="rotate(-180 337.845 203.678)" fill="white"/>
<rect width="1.29313" height="1.29313" transform="matrix(-1 -8.74228e-08 -8.74228e-08 1 337.845 194.441)" fill="white"/>
<rect x="339.876" y="205.525" width="1.29313" height="1.29313" transform="rotate(-180 339.876 205.525)" fill="white"/>
<rect width="1.29313" height="1.29313" transform="matrix(-1 -8.74228e-08 -8.74228e-08 1 339.877 192.594)" fill="white"/>
<rect width="1.29313" height="1.29313" transform="matrix(1 -8.74228e-08 -8.74228e-08 -1 453.915 199.688)" fill="white"/>
<rect width="1.29313" height="1.29313" transform="matrix(1 -8.74228e-08 -8.74228e-08 -1 451.883 201.941)" fill="white"/>
<rect x="451.883" y="196.179" width="1.29313" height="1.29313" fill="white"/>
<rect width="1.29313" height="1.29313" transform="matrix(1 -8.74228e-08 -8.74228e-08 -1 449.851 203.678)" fill="white"/>
<rect x="449.851" y="194.441" width="1.29313" height="1.29313" fill="white"/>
<rect width="1.29313" height="1.29313" transform="matrix(1 -8.74228e-08 -8.74228e-08 -1 447.818 205.525)" fill="white"/>
<rect x="447.818" y="192.594" width="1.29313" height="1.29313" fill="white"/>
<path d="M358.25 190.399L361.836 186.814C362.617 186.033 363.883 186.033 364.664 186.814L366.836 188.985C367.617 189.766 368.883 189.766 369.664 188.985L371.836 186.814C372.617 186.033 373.883 186.033 374.664 186.814L376.836 188.985C377.617 189.766 378.883 189.766 379.664 188.985L381.836 186.814C382.617 186.033 383.883 186.033 384.664 186.814L386.836 188.985C387.617 189.766 388.883 189.766 389.664 188.985L391.836 186.814C392.617 186.033 393.883 186.033 394.664 186.814L396.836 188.985C397.617 189.766 398.883 189.766 399.664 188.985L401.836 186.814C402.617 186.033 403.883 186.033 404.664 186.814L406.836 188.985C407.617 189.766 408.883 189.766 409.664 188.985L411.836 186.814C412.617 186.033 413.883 186.033 414.664 186.814L416.836 188.985C417.617 189.766 418.883 189.766 419.664 188.985L421.836 186.814C422.617 186.033 423.883 186.033 424.664 186.814L426.836 188.985C427.617 189.766 428.883 189.766 429.664 188.985L433.25 185.399" stroke="white" stroke-width="2" stroke-linecap="round" stroke-linejoin="round"/>
<path d="M358.25 201.399L361.836 197.814C362.617 197.033 363.883 197.033 364.664 197.814L366.836 199.985C367.617 200.766 368.883 200.766 369.664 199.985L371.836 197.814C372.617 197.033 373.883 197.033 374.664 197.814L376.836 199.985C377.617 200.766 378.883 200.766 379.664 199.985L381.836 197.814C382.617 197.033 383.883 197.033 384.664 197.814L386.836 199.985C387.617 200.766 388.883 200.766 389.664 199.985L391.836 197.814C392.617 197.033 393.883 197.033 394.664 197.814L396.836 199.985C397.617 200.766 398.883 200.766 399.664 199.985L401.836 197.814C402.617 197.033 403.883 197.033 404.664 197.814L406.836 199.985C407.617 200.766 408.883 200.766 409.664 199.985L411.836 197.814C412.617 197.033 413.883 197.033 414.664 197.814L416.836 199.985C417.617 200.766 418.883 200.766 419.664 199.985L421.836 197.814C422.617 197.033 423.883 197.033 424.664 197.814L426.836 199.985C427.617 200.766 428.883 200.766 429.664 199.985L433.25 196.399" stroke="white" stroke-width="2" stroke-linecap="round" stroke-linejoin="round"/>
<path d="M358.25 212.399L361.836 208.814C362.617 208.033 363.883 208.033 364.664 208.814L366.836 210.985C367.617 211.766 368.883 211.766 369.664 210.985L371.836 208.814C372.617 208.033 373.883 208.033 374.664 208.814L376.836 210.985C377.617 211.766 378.883 211.766 379.664 210.985L381.836 208.814C382.617 208.033 383.883 208.033 384.664 208.814L386.836 210.985C387.617 211.766 388.883 211.766 389.664 210.985L391.836 208.814C392.617 208.033 393.883 208.033 394.664 208.814L396.836 210.985C397.617 211.766 398.883 211.766 399.664 210.985L401.836 208.814C402.617 208.033 403.883 208.033 404.664 208.814L406.836 210.985C407.617 211.766 408.883 211.766 409.664 210.985L411.836 208.814C412.617 208.033 413.883 208.033 414.664 208.814L416.836 210.985C417.617 211.766 418.883 211.766 419.664 210.985L421.836 208.814C422.617 208.033 423.883 208.033 424.664 208.814L426.836 210.985C427.617 211.766 428.883 211.766 429.664 210.985L433.25 207.399" stroke="white" stroke-width="2" stroke-linecap="round" stroke-linejoin="round"/>
<defs>
<linearGradient id="paint0_linear" x1="185.661" y1="197.242" x2="207.709" y2="197.242" gradientUnits="userSpaceOnUse">
<stop stop-color="white"/>
<stop offset="1" stop-color="#E4EBFA"/>
</linearGradient>
<linearGradient id="paint1_linear" x1="208.457" y1="200.979" x2="280.58" y2="200.979" gradientUnits="userSpaceOnUse">
<stop stop-color="white"/>
<stop offset="1" stop-color="#E4EBFA"/>
</linearGradient>
<linearGradient id="paint2_linear" x1="92.5462" y1="192.977" x2="204.263" y2="192.977" gradientUnits="userSpaceOnUse">
<stop stop-color="white"/>
<stop offset="1" stop-color="#E4EBFA"/>
</linearGradient>
<linearGradient id="paint3_linear" x1="426.622" y1="153.911" x2="426.622" y2="243.725" gradientUnits="userSpaceOnUse">
<stop stop-color="white"/>
<stop offset="1" stop-color="#F0F5FE"/>
</linearGradient>
</defs>
</svg>
