<svg width="634" height="342" viewBox="0 0 634 342" fill="none" xmlns="http://www.w3.org/2000/svg">
<path d="M214.504 97.8655C214.504 95.8576 216.132 94.2299 218.14 94.2299H416.152C418.16 94.2299 419.787 95.8576 419.787 97.8655V210.309C419.787 212.317 418.16 213.945 416.152 213.945H218.14C216.132 213.945 214.504 212.317 214.504 210.309V97.8655Z" fill="#F2F6FE"/>
<rect x="218.228" y="99.9313" width="197.835" height="108.312" rx="0.363557" fill="#57AEFF"/>
<path d="M330.142 170.642H290.365C285.056 170.642 280.753 174.945 280.753 180.254V188.59C280.753 193.899 285.056 198.202 290.365 198.202L435.73 198.202C441.038 198.202 445.342 202.506 445.342 207.814V227.008C445.342 232.317 441.038 236.62 435.73 236.62H279.689" stroke="white" stroke-width="3.84476" stroke-linecap="round" stroke-linejoin="round"/>
<path d="M196.027 252.031C196.027 254.666 198.163 256.802 200.798 256.802H433.494C436.128 256.802 438.264 254.666 438.264 252.031V250.849H196.027V252.031Z" fill="#D8E3F5"/>
<path d="M292.535 250.907C292.535 253.015 294.244 254.736 296.352 254.736H337.939C340.047 254.736 341.756 253.015 341.756 250.907V250.907H292.535V250.907Z" fill="#C4D1E8"/>
<path d="M196.036 250.884H438.255L421.546 217.463C420.468 215.307 418.265 213.945 415.855 213.945H218.436C216.026 213.945 213.823 215.307 212.745 217.463L196.036 250.884Z" fill="#FCFCFE"/>
<path d="M227.971 219.582C227.316 219.582 226.725 219.972 226.467 220.574L220.709 234.021C220.247 235.101 221.039 236.301 222.213 236.301H412.078C413.23 236.301 414.022 235.143 413.602 234.07L408.345 220.622C408.1 219.995 407.495 219.582 406.822 219.582H227.971Z" fill="#C4D1E8"/>
<path d="M336.63 177.867L336.63 163.536L324.388 163.536C322.971 163.536 321.822 164.685 321.822 166.102L321.822 175.301C321.822 176.719 322.971 177.867 324.388 177.867L336.63 177.867Z" fill="white"/>
<path fill-rule="evenodd" clip-rule="evenodd" d="M339.207 154.154C337.704 154.154 336.487 155.372 336.487 156.874V184.529C336.487 186.031 337.704 187.249 339.207 187.249H442.811C444.314 187.249 445.531 186.031 445.531 184.529V156.874C445.531 155.372 444.314 154.154 442.811 154.154H339.207ZM428.206 180.096C433.166 180.096 437.186 176.075 437.186 171.116C437.186 166.156 433.166 162.136 428.206 162.136C423.247 162.136 419.227 166.156 419.227 171.116C419.227 176.075 423.247 180.096 428.206 180.096Z" fill="#F0F5FE"/>
<path fill-rule="evenodd" clip-rule="evenodd" d="M415.63 158.58C408.879 165.331 408.879 176.275 415.63 183.026C422.38 189.776 433.325 189.776 440.075 183.026L510.292 112.809C511.294 111.807 511.294 110.183 510.292 109.181L489.475 88.3638C488.473 87.3617 486.848 87.3617 485.846 88.3638L415.63 158.58ZM434.459 177.482C437.966 173.975 437.966 168.29 434.459 164.783C430.952 161.276 425.267 161.276 421.76 164.783C418.253 168.29 418.253 173.975 421.76 177.482C425.267 180.989 430.952 180.989 434.459 177.482Z" fill="white"/>
<rect x="353.373" y="161.741" width="51.7023" height="17.9203" rx="2.81375" fill="#87C5FF"/>
<path d="M317.148 152.852L314.491 148.096L319.804 148.096L317.148 152.852Z" fill="#17E1D5"/>
<path d="M317.146 148.477C328.088 148.477 337.146 139.606 337.146 128.664V128.664C337.146 117.722 328.088 108.852 317.146 108.852V108.852C306.204 108.852 297.146 117.722 297.146 128.664V128.664C297.146 139.606 306.204 148.477 317.146 148.477V148.477Z" fill="#17E1D5"/>
<path fill-rule="evenodd" clip-rule="evenodd" d="M326.883 122.242C327.375 122.739 327.351 123.523 326.831 123.992L314.248 135.344L308.172 129.54C307.666 129.056 307.666 128.272 308.172 127.789C308.678 127.305 309.499 127.305 310.005 127.789L314.3 131.891L325.051 122.192C325.571 121.722 326.392 121.745 326.883 122.242Z" fill="white"/>
</svg>
