<svg width="634" height="341" viewBox="0 0 634 341" fill="none" xmlns="http://www.w3.org/2000/svg">
<path d="M214.252 96.9588C214.252 94.9509 215.879 93.3232 217.887 93.3232H416.114C418.122 93.3232 419.749 94.9509 419.749 96.9588V209.46C419.749 211.468 418.122 213.096 416.114 213.096H217.887C215.879 213.096 214.252 211.468 214.252 209.46V96.9588Z" fill="#F2F6FE"/>
<rect x="218.107" y="99.0272" width="198.042" height="108.364" rx="0.363557" fill="#57AEFF"/>
<path d="M515.99 235.783H279.505" stroke="white" stroke-width="3.84476" stroke-linecap="square"/>
<path d="M195.756 251.203C195.756 253.837 197.892 255.973 200.526 255.973H433.475C436.11 255.973 438.246 253.837 438.246 251.203V250.018H195.756V251.203Z" fill="#D8E3F5"/>
<path d="M292.365 250.076C292.365 252.184 294.073 253.907 296.181 253.907H337.82C339.927 253.907 341.636 252.184 341.636 250.076H292.365Z" fill="#C4D1E8"/>
<path d="M195.765 250.053H438.236L421.508 216.613C420.43 214.458 418.228 213.097 415.818 213.097H218.183C215.774 213.097 213.571 214.458 212.493 216.613L195.765 250.053Z" fill="#FCFCFE"/>
<path d="M227.733 218.735C227.077 218.735 226.485 219.126 226.227 219.728L220.463 233.182C220.001 234.262 220.793 235.463 221.969 235.463H412.032C413.185 235.463 413.977 234.304 413.557 233.231L408.295 219.776C408.05 219.149 407.444 218.735 406.77 218.735H227.733Z" fill="#C4D1E8"/>
<path d="M295.442 282.333H294.006V295.743H301.604V294.46H295.442V282.333ZM306.214 285.884C303.417 285.884 301.452 287.961 301.452 290.945V291.288C301.491 292.571 302.058 293.782 303.002 294.686C303.909 295.519 305.08 296.008 306.327 296.008H306.516C307.838 296.008 309.086 295.516 310.068 294.686L310.107 294.648L309.465 293.591L309.391 293.63C308.597 294.349 307.614 294.764 306.557 294.764C304.82 294.764 303.043 293.63 302.93 291.1H310.188V291.025C310.188 291.025 310.227 290.572 310.227 290.345C310.218 287.623 308.632 285.884 306.214 285.884ZM302.963 289.888C303.264 288.187 304.512 287.092 306.136 287.092C307.346 287.092 308.668 287.811 308.782 289.888H302.963ZM318.536 287.018V287.51C317.929 286.49 316.798 285.848 315.625 285.848H315.511C312.941 285.848 311.164 287.889 311.164 290.873C311.164 293.896 312.866 295.934 315.398 295.934C317.401 295.934 318.309 294.725 318.61 294.197V295.671H319.972V282.333H318.574V287.018H318.536ZM315.586 294.686C313.809 294.686 312.639 293.177 312.639 290.909C312.639 288.719 313.887 287.17 315.625 287.17C317.099 287.17 318.571 288.34 318.571 290.909C318.571 293.705 317.022 294.686 315.586 294.686ZM328.248 287.206V287.28C327.982 286.827 327.152 285.845 325.149 285.845C322.617 285.845 320.954 287.773 320.954 290.718C320.954 293.663 322.691 295.665 325.262 295.665C326.659 295.665 327.606 295.173 328.248 294.155V295.477C328.248 297.327 327.077 298.386 324.996 298.386C324.128 298.386 323.22 298.16 322.426 297.745L322.351 297.706L321.823 298.876L321.897 298.915C322.88 299.407 323.975 299.67 325.035 299.67C327.265 299.67 329.645 298.536 329.645 295.4V286.111H328.248V287.206ZM325.45 294.421C323.599 294.421 322.39 292.986 322.39 290.757C322.39 288.489 323.447 287.206 325.262 287.206C327.265 287.206 328.209 288.375 328.209 290.757C328.248 293.099 327.265 294.421 325.45 294.421ZM335.353 285.884C332.556 285.884 330.63 287.961 330.63 290.909V291.249C330.669 292.532 331.236 293.743 332.18 294.648C333.087 295.48 334.258 295.969 335.506 295.969H335.694C337.016 295.969 338.264 295.477 339.247 294.648L339.285 294.609L338.605 293.553L338.53 293.591C337.736 294.31 336.754 294.725 335.697 294.725C333.959 294.725 332.183 293.591 332.069 291.061H339.36V290.986C339.36 290.986 339.399 290.533 339.399 290.306C339.399 287.623 337.81 285.884 335.353 285.884ZM332.141 289.888C332.442 288.187 333.69 287.092 335.315 287.092C336.524 287.092 337.846 287.811 337.96 289.888H332.141ZM345.295 286.072C345.107 286.033 344.955 286.033 344.767 285.997C343.444 285.997 342.349 286.83 341.781 288.226V286.072H340.384L340.423 295.629V295.704H341.859V291.664C341.859 291.058 341.934 290.416 342.125 289.849C342.578 288.375 343.6 287.433 344.809 287.433C344.961 287.433 345.11 287.433 345.263 287.471H345.337V286.075L345.295 286.072Z" fill="white"/>
<path fill-rule="evenodd" clip-rule="evenodd" d="M350.708 281.949H352.466V294.076H358.629V295.681H350.708V281.949ZM359.132 282.516H360.93V284.448H359.132V282.516ZM371.998 286.962C372.871 286.035 374.105 285.5 375.546 285.5C376.796 285.5 377.842 285.951 378.575 286.763C379.307 287.574 379.715 288.73 379.72 290.121V290.122C379.72 290.428 379.681 290.732 379.681 291.038H372.433C372.52 292.176 372.963 292.996 373.573 293.537C374.215 294.108 375.054 294.38 375.889 294.38C377.129 294.38 377.972 293.813 378.856 293.156L379.642 294.449C378.671 295.42 377.207 295.947 375.847 295.947H375.659C374.368 295.947 373.159 295.44 372.224 294.582L372.223 294.581L372.222 294.58C371.153 293.556 370.622 292.184 370.622 290.722C370.622 289.194 371.126 287.888 371.998 286.962ZM359.132 285.724H360.93V295.678H359.132V285.724ZM361.434 285.688H363.251L366.052 293.649L368.852 285.688H370.669L367.167 295.642H364.936L361.434 285.688ZM372.491 289.504H377.94C377.857 288.596 377.526 287.992 377.095 287.609C376.634 287.201 376.042 287.031 375.468 287.031C373.989 287.031 372.836 287.983 372.491 289.504Z" fill="white"/>
<ellipse cx="270.084" cy="289.57" rx="14.9386" ry="14.9302" fill="white"/>
<path d="M262.625 295.347C262.168 294.757 261.779 294.11 261.47 293.42C260.604 291.485 260.416 289.315 260.935 287.261C261.455 285.206 262.651 283.386 264.333 282.094C265.197 281.43 266.163 280.925 267.185 280.595C268.052 280.316 268.959 280.162 269.88 280.142C270.057 280.138 270.2 280.285 270.198 280.462L270.166 283.024C270.163 283.202 270.017 283.344 269.839 283.351C268.559 283.402 267.306 283.853 266.288 284.636C265.178 285.488 264.389 286.69 264.046 288.046C263.703 289.402 263.827 290.834 264.399 292.111C264.663 292.702 265.017 293.245 265.443 293.721L262.625 295.347Z" fill="url(#paint0_linear)"/>
<path d="M277.544 283.801C278.001 284.391 278.39 285.037 278.699 285.727C279.565 287.662 279.753 289.832 279.234 291.887C278.714 293.942 277.518 295.762 275.836 297.054C274.972 297.717 274.006 298.222 272.984 298.552C272.117 298.831 271.21 298.986 270.29 299.006C270.112 299.009 269.969 298.863 269.971 298.685L270.004 296.123C270.007 295.945 270.153 295.804 270.33 295.797C271.616 295.746 272.857 295.298 273.881 294.512C274.991 293.659 275.78 292.458 276.123 291.101C276.466 289.745 276.342 288.313 275.77 287.036C275.506 286.445 275.152 285.903 274.726 285.426L277.544 283.801Z" fill="url(#paint1_linear)"/>
<path d="M268.321 291.416C268.387 291.252 268.307 291.066 268.142 291L265.962 290.121C265.796 290.054 265.607 290.134 265.541 290.301C265.223 291.107 264.366 293.272 264.248 293.565C264.103 293.925 263.78 294.253 263.316 294.332C262.851 294.41 262.2 294.402 261.554 293.598C262.076 294.696 263.162 296.42 264.294 296.71C265.426 297 266.338 296.366 266.645 295.604C266.899 294.972 267.963 292.313 268.321 291.416Z" fill="#638EEF"/>
<path d="M271.847 287.73C271.781 287.895 271.861 288.08 272.026 288.147L274.207 289.026C274.372 289.093 274.561 289.012 274.627 288.846C274.946 288.039 275.802 285.874 275.92 285.582C276.065 285.221 276.388 284.894 276.853 284.815C277.317 284.736 277.968 284.745 278.615 285.548C278.092 284.45 277.006 282.727 275.874 282.437C274.742 282.147 273.83 282.781 273.523 283.543C273.269 284.174 272.205 286.834 271.847 287.73Z" fill="#638EEF"/>
<rect x="266.691" y="153.772" width="98.5324" height="25.3105" rx="12.6552" fill="white"/>
<path d="M268.876 134.647C269.536 134.647 270.138 134.366 270.57 133.915L269.994 133.378C269.713 133.699 269.314 133.902 268.876 133.902C268.045 133.902 267.345 133.182 267.345 132.318C267.345 131.461 268.045 130.742 268.876 130.742C269.307 130.742 269.713 130.944 269.988 131.265L270.57 130.722C270.138 130.277 269.536 129.996 268.876 129.996C267.593 129.996 266.514 131.056 266.514 132.318C266.514 133.581 267.593 134.647 268.876 134.647ZM275.244 130.074V131.906H273V130.074H272.182V134.569H273V132.652H275.244V134.569H276.062V130.074H275.244ZM281.357 130.82V130.074H277.975V134.569H281.357V133.823H278.792V132.652H281.115V131.906H278.792V130.82H281.357ZM285.313 134.647C285.974 134.647 286.576 134.366 287.008 133.915L286.432 133.378C286.151 133.699 285.752 133.902 285.313 133.902C284.482 133.902 283.782 133.182 283.782 132.318C283.782 131.461 284.482 130.742 285.313 130.742C285.745 130.742 286.151 130.944 286.426 131.265L287.008 130.722C286.576 130.277 285.974 129.996 285.313 129.996C284.031 129.996 282.952 131.056 282.952 132.318C282.952 133.581 284.031 134.647 285.313 134.647ZM288.672 134.569H289.49V133.287L290.099 132.632L291.584 134.569H292.591L290.661 132.057L292.46 130.074H291.459L289.49 132.272V130.074H288.672V134.569ZM294.1 134.569H294.911V130.074H294.1V134.569ZM296.89 134.569H297.708V131.409L300.083 134.569H300.894V130.074H300.083V133.234L297.708 130.074H296.89V134.569ZM304.94 132.763H306.059V133.581C305.778 133.784 305.411 133.902 305.071 133.902C304.234 133.902 303.527 133.182 303.527 132.318C303.527 131.461 304.234 130.742 305.071 130.742C305.51 130.742 305.994 130.938 306.275 131.265L306.857 130.722C306.425 130.27 305.725 129.996 305.071 129.996C303.782 129.996 302.696 131.056 302.696 132.318C302.696 133.581 303.782 134.647 305.071 134.647C305.725 134.647 306.425 134.366 306.857 133.915V132.096H304.94V132.763ZM314.926 130.82V130.074H311.544V134.569H312.362V132.704H314.684V131.958H312.362V130.82H314.926ZM318.812 134.647C320.088 134.647 321.168 133.581 321.168 132.318C321.168 131.056 320.088 129.996 318.812 129.996C317.53 129.996 316.451 131.056 316.451 132.318C316.451 133.581 317.53 134.647 318.812 134.647ZM318.812 133.902C317.982 133.902 317.282 133.182 317.282 132.318C317.282 131.461 317.982 130.742 318.812 130.742C319.637 130.742 320.33 131.461 320.33 132.318C320.33 133.182 319.637 133.902 318.812 133.902ZM326.576 134.569L325.45 132.973C326.098 132.77 326.536 132.246 326.536 131.566C326.536 130.689 325.817 130.074 324.855 130.074H322.899V134.569H323.716V133.058H324.587L325.646 134.569H326.576ZM323.716 130.827H324.763C325.319 130.827 325.705 131.108 325.705 131.566C325.705 132.024 325.319 132.305 324.763 132.305H323.716V130.827ZM333.086 134.647C334.251 134.647 335.069 133.823 335.069 132.652V130.074H334.257V132.626C334.257 133.372 333.773 133.908 333.086 133.908C332.406 133.908 331.922 133.372 331.922 132.626V130.074H331.104V132.652C331.104 133.823 331.928 134.647 333.086 134.647ZM336.992 134.569H337.809V133.058H338.948C339.91 133.058 340.629 132.443 340.629 131.566C340.629 130.689 339.91 130.074 338.948 130.074H336.992V134.569ZM337.809 132.305V130.827H338.856C339.412 130.827 339.798 131.108 339.798 131.566C339.798 132.024 339.412 132.305 338.856 132.305H337.809ZM342.313 134.569H343.896C345.381 134.569 346.428 133.633 346.428 132.318C346.428 131.003 345.381 130.074 343.896 130.074H342.313V134.569ZM343.13 133.83V130.814H343.981C344.93 130.814 345.597 131.435 345.597 132.318C345.597 133.201 344.93 133.83 343.981 133.83H343.13ZM351.346 134.569H352.249L350.371 130.074H349.462L347.584 134.569H348.494L348.834 133.758H351.006L351.346 134.569ZM349.128 133.051L349.92 131.16L350.712 133.051H349.128ZM354.614 134.569H355.425V130.82H356.865V130.074H353.175V130.82H354.614V134.569ZM361.927 130.82V130.074H358.545V134.569H361.927V133.823H359.362V132.652H361.685V131.906H359.362V130.82H361.927ZM364.15 134.647C364.424 134.647 364.653 134.412 364.653 134.124C364.653 133.856 364.424 133.62 364.15 133.62C363.849 133.62 363.626 133.856 363.626 134.124C363.626 134.412 363.849 134.647 364.15 134.647ZM365.72 134.647C365.994 134.647 366.223 134.412 366.223 134.124C366.223 133.856 365.994 133.62 365.72 133.62C365.419 133.62 365.196 133.856 365.196 134.124C365.196 134.412 365.419 134.647 365.72 134.647ZM367.29 134.647C367.565 134.647 367.794 134.412 367.794 134.124C367.794 133.856 367.565 133.62 367.29 133.62C366.989 133.62 366.766 133.856 366.766 134.124C366.766 134.412 366.989 134.647 367.29 134.647Z" fill="#FCFCFE"/>
<path d="M285.271 169.061C286.991 169.061 288.21 167.851 288.21 166.141V162.455H286.811V166.084C286.811 167.086 286.169 167.795 285.271 167.795C284.364 167.795 283.721 167.086 283.721 166.084V162.455H282.332V166.141C282.332 167.851 283.542 169.061 285.271 169.061ZM290.893 168.948H292.282V166.84H293.813C295.221 166.84 296.26 165.933 296.26 164.648C296.26 163.363 295.221 162.455 293.813 162.455H290.893V168.948ZM292.282 165.564V163.731H293.662C294.351 163.731 294.824 164.09 294.824 164.648C294.824 165.205 294.351 165.564 293.662 165.564H292.282ZM298.606 168.948H300.93C303.113 168.948 304.663 167.596 304.663 165.697C304.663 163.797 303.113 162.455 300.93 162.455H298.606V168.948ZM299.995 167.681V163.722H301.11C302.348 163.722 303.227 164.544 303.227 165.697C303.227 166.859 302.348 167.681 301.11 167.681H299.995ZM311.54 168.948H313.109L310.463 162.455H308.903L306.257 168.948H307.817L308.232 167.927H311.124L311.54 168.948ZM308.714 166.746L309.678 164.374L310.642 166.746H308.714ZM316.346 168.948H317.745V163.712H319.767V162.455H314.324V163.712H316.346V168.948ZM327.116 163.712V162.455H322.117V168.948H327.116V167.691H323.516V166.264H326.776V165.007H323.516V163.712H327.116ZM329.645 168.948H331.97C334.153 168.948 335.703 167.596 335.703 165.697C335.703 163.797 334.153 162.455 331.97 162.455H329.645V168.948ZM331.034 167.681V163.722H332.149C333.387 163.722 334.266 164.544 334.266 165.697C334.266 166.859 333.387 167.681 332.149 167.681H331.034Z" fill="#108CFF"/>
<path d="M351.867 176.198C357.31 176.198 361.742 171.772 361.742 166.329C361.742 160.886 357.31 156.46 351.867 156.46C346.424 156.46 341.993 160.886 341.993 166.329C341.993 171.772 346.424 176.198 351.867 176.198Z" fill="#108CFF"/>
<path d="M350.391 166.811L348.024 164.445L345.835 166.582L350.391 171.058L352.554 168.922L357.899 163.682L355.735 161.571L350.391 166.811Z" fill="white"/>
<defs>
<linearGradient id="paint0_linear" x1="267.833" y1="282.357" x2="263.374" y2="293.125" gradientUnits="userSpaceOnUse">
<stop stop-color="#94B6FE"/>
<stop offset="1" stop-color="#216ADE"/>
</linearGradient>
<linearGradient id="paint1_linear" x1="271.834" y1="296.892" x2="277.138" y2="285.738" gradientUnits="userSpaceOnUse">
<stop stop-color="#94B6FE"/>
<stop offset="1" stop-color="#216ADE"/>
</linearGradient>
</defs>
</svg>
