<svg width="760" height="600" viewBox="0 0 760 600" fill="none" xmlns="http://www.w3.org/2000/svg">
<path d="M465.507 104.831C472.824 106.549 475.319 115.738 469.785 120.865L443.277 145.458C438.661 149.715 431.274 148.413 428.475 142.763L411.084 107.865C407.549 100.764 413.849 92.6473 421.698 94.4985L465.507 104.831Z" fill="#108CFF"/>
<rect x="194.001" y="119.512" width="401.581" height="296.791" rx="96" fill="#E3EEFE"/>
<path d="M211.496 394.99C209.73 396.049 207.438 395.418 206.839 393.456C205.948 390.401 205.789 387.076 206.696 383.905C207.943 379.544 210.813 375.774 214.805 373.46C218.797 371.146 223.451 370.484 227.861 371.645C231.083 372.465 233.891 374.202 236.039 376.481C237.471 378.001 236.84 380.293 234.988 381.302C233.222 382.361 230.98 381.644 229.398 380.384C228.372 379.561 227.196 378.997 225.87 378.694C223.355 378.05 220.687 378.472 218.374 379.677C216.098 381.019 214.402 383.157 213.758 385.673C213.368 386.948 213.288 388.288 213.48 389.554C213.843 391.726 213.212 394.018 211.496 394.99Z" fill="#FFAB49"/>
<path d="M580.107 402.226C590.221 396.411 590.221 381.83 580.192 376.014L546.31 356.208C536.702 350.561 524.481 356.882 523.554 368.007L519.93 409.474C518.834 421.695 531.982 430.039 542.602 423.971L580.107 402.226Z" fill="#FFCA62"/>
<path d="M292.15 187.132C292.15 185.124 293.778 183.496 295.785 183.496H493.798C495.805 183.496 497.433 185.124 497.433 187.132V299.575C497.433 301.583 495.805 303.211 493.798 303.211H295.785C293.778 303.211 292.15 301.583 292.15 299.575V187.132Z" fill="#F2F6FE"/>
<rect x="295.874" y="189.197" width="197.835" height="108.312" rx="0.363557" fill="#C4D1E8"/>
<path d="M372.254 259.908H332.477C327.168 259.908 322.865 264.212 322.865 269.52V277.856C322.865 283.165 327.168 287.468 332.477 287.468L513.139 287.468C518.447 287.468 522.75 291.772 522.75 297.08V316.275C522.75 321.583 518.447 325.886 513.139 325.886H321.801" stroke="white" stroke-width="3.84476" stroke-linecap="round" stroke-linejoin="round"/>
<path d="M273.673 341.297C273.673 343.932 275.809 346.068 278.443 346.068H511.139C513.774 346.068 515.91 343.932 515.91 341.297V340.115H273.673V341.297Z" fill="#D8E3F5"/>
<path d="M370.181 340.173C370.181 342.281 371.89 344.002 373.998 344.002H415.585C417.693 344.002 419.401 342.281 419.401 340.173H370.181Z" fill="#C4D1E8"/>
<path d="M273.682 340.15H515.901L499.191 306.729C498.113 304.573 495.91 303.212 493.5 303.212H296.082C293.672 303.212 291.469 304.573 290.391 306.729L273.682 340.15Z" fill="#FCFCFE"/>
<path d="M305.617 308.848C304.962 308.848 304.37 309.238 304.113 309.84L298.355 323.288C297.893 324.367 298.685 325.568 299.859 325.568H489.724C490.876 325.568 491.667 324.409 491.248 323.336L485.991 309.888C485.746 309.261 485.141 308.848 484.467 308.848H305.617Z" fill="#C4D1E8"/>
<path d="M305.617 308.848C304.962 308.848 304.37 309.238 304.113 309.84L298.355 323.288C297.893 324.367 298.685 325.568 299.859 325.568H489.724C490.876 325.568 491.667 324.409 491.248 323.336L485.991 309.888C485.746 309.261 485.141 308.848 484.467 308.848H305.617Z" stroke="#FF0000"/>
<path d="M384.25 265.038C384.802 265.038 385.25 264.59 385.25 264.038L385.25 255.897C385.25 255.345 384.802 254.897 384.25 254.897L367.003 254.897C366.451 254.897 366.003 255.345 366.003 255.897L366.003 264.038C366.003 264.59 366.451 265.038 367.003 265.038L384.25 265.038Z" fill="#F0F5FE"/>
<path d="M378.742 267.134L378.742 252.802L366.501 252.802C365.083 252.802 363.934 253.951 363.934 255.368L363.934 264.568C363.934 265.985 365.083 267.134 366.501 267.134L378.742 267.134Z" fill="white"/>
<path fill-rule="evenodd" clip-rule="evenodd" d="M416.852 243.42C415.35 243.42 414.133 244.638 414.133 246.14V273.795C414.133 275.297 415.35 276.515 416.852 276.515H520.457C521.96 276.515 523.177 275.297 523.177 273.795V246.14C523.177 244.638 521.959 243.42 520.457 243.42H416.852ZM505.852 269.362C510.812 269.362 514.832 265.341 514.832 260.382C514.832 255.423 510.812 251.402 505.852 251.402C500.893 251.402 496.872 255.423 496.872 260.382C496.872 265.341 500.893 269.362 505.852 269.362Z" fill="#F0F5FE"/>
<path fill-rule="evenodd" clip-rule="evenodd" d="M493.276 247.846C486.525 254.597 486.525 265.541 493.276 272.292C500.026 279.042 510.971 279.042 517.721 272.292L587.938 202.076C588.94 201.073 588.94 199.449 587.938 198.447L567.121 177.63C566.119 176.628 564.494 176.628 563.492 177.63L493.276 247.846ZM512.105 266.748C515.612 263.241 515.612 257.556 512.105 254.049C508.598 250.542 502.912 250.542 499.406 254.049C495.899 257.556 495.899 263.241 499.406 266.748C502.912 270.255 508.598 270.255 512.105 266.748Z" fill="white"/>
<rect x="431.019" y="251.007" width="51.7023" height="17.9203" rx="2.81375" fill="#D8E3F5"/>
<path d="M394.768 242.338L392.112 237.581L397.425 237.581L394.768 242.338Z" fill="#FF6755"/>
<path d="M394.768 237.963C405.71 237.963 414.768 229.092 414.768 218.15C414.768 207.208 405.71 198.338 394.768 198.338C383.826 198.338 374.768 207.208 374.768 218.15C374.768 229.092 383.826 237.963 394.768 237.963Z" fill="#FF6755"/>
<path d="M396.254 221.994H393.35L393.031 207.728H396.587L396.254 221.994ZM392.934 226.356C392.934 225.828 393.105 225.393 393.448 225.05C393.79 224.698 394.258 224.522 394.851 224.522C395.443 224.522 395.911 224.698 396.254 225.05C396.596 225.393 396.768 225.828 396.768 226.356C396.768 226.865 396.601 227.291 396.267 227.634C395.934 227.977 395.462 228.148 394.851 228.148C394.239 228.148 393.767 227.977 393.434 227.634C393.1 227.291 392.934 226.865 392.934 226.356Z" fill="white"/>
</svg>
