<svg width="793" height="441" viewBox="0 0 793 441" fill="none" xmlns="http://www.w3.org/2000/svg">
<path d="M465.61 26.5907C472.959 28.3132 475.441 37.529 469.865 42.6711L443.156 67.337C438.504 71.6071 431.083 70.3012 428.286 64.6348L410.901 29.6339C407.368 22.5126 413.722 14.3716 421.606 16.2281L465.61 26.5907Z" fill="#405985"/>
<rect x="194.25" y="41.3633" width="402" height="296.757" rx="96" fill="#25395F"/>
<path d="M212.119 316.65C210.357 317.724 208.086 317.111 207.507 315.151C206.645 312.099 206.513 308.771 207.438 305.589C208.711 301.214 211.59 297.417 215.572 295.069C219.554 292.721 224.181 292.023 228.551 293.151C231.744 293.947 234.518 295.664 236.634 297.93C238.044 299.44 237.4 301.739 235.553 302.764C233.791 303.838 231.57 303.137 230.009 301.888C228.997 301.072 227.833 300.517 226.519 300.223C224.027 299.598 221.373 300.042 219.068 301.266C216.797 302.627 215.096 304.781 214.437 307.304C214.04 308.585 213.95 309.926 214.131 311.192C214.474 313.364 213.831 315.664 212.119 316.65Z" fill="#6E82A4"/>
<path d="M580.496 323.985C590.648 318.152 590.623 303.485 580.536 297.617L546.458 277.636C536.794 271.939 524.525 278.277 523.613 289.467L520.042 331.174C518.962 343.465 532.187 351.881 542.847 345.795L580.496 323.985Z" fill="#9AADCE"/>
<path opacity="0.5" fill-rule="evenodd" clip-rule="evenodd" d="M471.871 155.072V156.659H507.314C511.582 155.368 516.109 154.674 520.798 154.674L749.282 154.674C751.504 154.674 753.306 156.475 753.306 158.697V243.625C753.306 245.847 751.504 247.649 749.282 247.649L520.798 247.649C516.11 247.649 511.584 246.955 507.317 245.664H281.369C277.295 245.664 273.993 242.362 273.993 238.288V221.324H218.956C210.882 221.324 203.919 216.544 200.716 209.668C200.7 209.669 200.683 209.67 200.666 209.67C200.65 209.671 200.633 209.671 200.617 209.671H180.171C179.43 209.671 178.83 209.071 178.83 208.33L178.83 206.631H0.308594V195.692H178.83L178.83 193.994C178.83 193.253 179.43 192.653 180.171 192.653H200.617C200.65 192.653 200.683 192.654 200.716 192.656C203.919 185.78 210.882 180.999 218.956 180.999H273.993V164.036C273.993 159.962 277.295 156.659 281.369 156.659H305.991V155.072C305.991 152.85 307.793 151.049 310.015 151.049H340.51C342.732 151.049 344.534 152.85 344.534 155.072V156.659H433.328V155.072C433.328 152.85 435.13 151.049 437.352 151.049H467.847C470.07 151.049 471.871 152.85 471.871 155.072ZM544.809 202.277C544.809 207.279 543.288 211.925 540.684 215.779C536.344 222.203 528.995 226.426 520.659 226.426C512.831 226.426 505.872 222.702 501.459 216.928C498.354 212.864 496.509 207.786 496.509 202.276C496.509 195.607 499.212 189.57 503.582 185.2C507.953 180.83 513.99 178.127 520.659 178.127C528.192 178.127 534.919 181.576 539.348 186.981C541.781 189.949 543.52 193.508 544.318 197.41C544.64 198.982 544.809 200.61 544.809 202.277Z" fill="#1B2D4B"/>
<path d="M207.958 188.245C207.958 187.505 207.358 186.904 206.617 186.904H186.171C185.431 186.904 184.83 187.505 184.83 188.245V202.582C184.83 203.322 185.431 203.923 186.171 203.923H206.617C207.358 203.923 207.958 203.322 207.958 202.582V188.245Z" fill="url(#paint0_linear)"/>
<path d="M279.993 175.251H224.956C213.846 175.251 204.839 184.303 204.839 195.413C204.839 206.524 213.846 215.576 224.956 215.576H279.993V175.251Z" fill="url(#paint1_linear)"/>
<path d="M0.308594 189.977H184.784V200.977H0.308594V189.977Z" fill="url(#paint2_linear)"/>
<path d="M439.328 150.911H477.871V149.324C477.871 147.102 476.069 145.301 473.847 145.301H443.352C441.13 145.301 439.328 147.102 439.328 149.324V150.911Z" fill="white"/>
<path d="M311.991 150.911H350.534V149.324C350.534 147.102 348.732 145.301 346.51 145.301H316.015C313.793 145.301 311.991 147.102 311.991 149.324V150.911Z" fill="white"/>
<path fill-rule="evenodd" clip-rule="evenodd" d="M287.369 150.911C283.295 150.911 279.992 154.214 279.992 158.288V232.539C279.992 236.613 283.295 239.916 287.369 239.916H565.875C569.949 239.916 573.251 236.613 573.251 232.539V158.288C573.251 154.214 569.949 150.911 565.875 150.911H287.369ZM526.659 220.678C539.997 220.678 550.809 209.866 550.809 196.528C550.809 183.19 539.997 172.378 526.659 172.378C513.321 172.378 502.509 183.19 502.509 196.528C502.509 209.866 513.321 220.678 526.659 220.678Z" fill="url(#paint3_linear)"/>
<path fill-rule="evenodd" clip-rule="evenodd" d="M527.284 148.976C501.602 148.976 480.784 169.794 480.784 195.476C480.784 221.157 501.602 241.975 527.284 241.975H746.932C750.246 241.975 752.932 239.289 752.932 235.975V154.976C752.932 151.662 750.246 148.976 746.932 148.976H527.284ZM526.659 220.677C539.997 220.677 550.809 209.865 550.809 196.527C550.809 183.189 539.997 172.377 526.659 172.377C513.321 172.377 502.509 183.189 502.509 196.527C502.509 209.865 513.321 220.677 526.659 220.677Z" fill="white"/>
<rect x="325.173" y="171.045" width="139.046" height="48.1942" rx="4.41186" fill="#57AEFF"/>
<rect x="333.78" y="196.688" width="1.29313" height="1.29313" transform="rotate(-180 333.78 196.688)" fill="white"/>
<rect x="335.812" y="198.941" width="1.29313" height="1.29313" transform="rotate(-180 335.812 198.941)" fill="white"/>
<rect width="1.29313" height="1.29313" transform="matrix(-1 -8.74228e-08 -8.74228e-08 1 335.812 193.179)" fill="white"/>
<rect x="337.844" y="200.678" width="1.29313" height="1.29313" transform="rotate(-180 337.844 200.678)" fill="white"/>
<rect width="1.29313" height="1.29313" transform="matrix(-1 -8.74228e-08 -8.74228e-08 1 337.844 191.441)" fill="white"/>
<rect x="339.876" y="202.525" width="1.29313" height="1.29313" transform="rotate(-180 339.876 202.525)" fill="white"/>
<rect width="1.29313" height="1.29313" transform="matrix(-1 -8.74228e-08 -8.74228e-08 1 339.876 189.594)" fill="white"/>
<rect width="1.29313" height="1.29313" transform="matrix(1 -8.74228e-08 -8.74228e-08 -1 453.915 196.688)" fill="white"/>
<rect width="1.29313" height="1.29313" transform="matrix(1 -8.74228e-08 -8.74228e-08 -1 451.883 198.941)" fill="white"/>
<rect x="451.883" y="193.179" width="1.29313" height="1.29313" fill="white"/>
<rect width="1.29313" height="1.29313" transform="matrix(1 -8.74228e-08 -8.74228e-08 -1 449.851 200.678)" fill="white"/>
<rect x="449.851" y="191.441" width="1.29313" height="1.29313" fill="white"/>
<rect width="1.29313" height="1.29313" transform="matrix(1 -8.74228e-08 -8.74228e-08 -1 447.819 202.525)" fill="white"/>
<rect x="447.819" y="189.594" width="1.29313" height="1.29313" fill="white"/>
<path d="M358.25 187.399L361.836 183.814C362.617 183.033 363.883 183.033 364.664 183.814L366.836 185.985C367.617 186.766 368.883 186.766 369.664 185.985L371.836 183.814C372.617 183.033 373.883 183.033 374.664 183.814L376.836 185.985C377.617 186.766 378.883 186.766 379.664 185.985L381.836 183.814C382.617 183.033 383.883 183.033 384.664 183.814L386.836 185.985C387.617 186.766 388.883 186.766 389.664 185.985L391.836 183.814C392.617 183.033 393.883 183.033 394.664 183.814L396.836 185.985C397.617 186.766 398.883 186.766 399.664 185.985L401.836 183.814C402.617 183.033 403.883 183.033 404.664 183.814L406.836 185.985C407.617 186.766 408.883 186.766 409.664 185.985L411.836 183.814C412.617 183.033 413.883 183.033 414.664 183.814L416.836 185.985C417.617 186.766 418.883 186.766 419.664 185.985L421.836 183.814C422.617 183.033 423.883 183.033 424.664 183.814L426.836 185.985C427.617 186.766 428.883 186.766 429.664 185.985L433.25 182.399" stroke="white" stroke-width="2" stroke-linecap="round" stroke-linejoin="round"/>
<path d="M358.25 198.399L361.836 194.814C362.617 194.033 363.883 194.033 364.664 194.814L366.836 196.985C367.617 197.766 368.883 197.766 369.664 196.985L371.836 194.814C372.617 194.033 373.883 194.033 374.664 194.814L376.836 196.985C377.617 197.766 378.883 197.766 379.664 196.985L381.836 194.814C382.617 194.033 383.883 194.033 384.664 194.814L386.836 196.985C387.617 197.766 388.883 197.766 389.664 196.985L391.836 194.814C392.617 194.033 393.883 194.033 394.664 194.814L396.836 196.985C397.617 197.766 398.883 197.766 399.664 196.985L401.836 194.814C402.617 194.033 403.883 194.033 404.664 194.814L406.836 196.985C407.617 197.766 408.883 197.766 409.664 196.985L411.836 194.814C412.617 194.033 413.883 194.033 414.664 194.814L416.836 196.985C417.617 197.766 418.883 197.766 419.664 196.985L421.836 194.814C422.617 194.033 423.883 194.033 424.664 194.814L426.836 196.985C427.617 197.766 428.883 197.766 429.664 196.985L433.25 193.399" stroke="white" stroke-width="2" stroke-linecap="round" stroke-linejoin="round"/>
<path d="M358.25 209.399L361.836 205.814C362.617 205.033 363.883 205.033 364.664 205.814L366.836 207.985C367.617 208.766 368.883 208.766 369.664 207.985L371.836 205.814C372.617 205.033 373.883 205.033 374.664 205.814L376.836 207.985C377.617 208.766 378.883 208.766 379.664 207.985L381.836 205.814C382.617 205.033 383.883 205.033 384.664 205.814L386.836 207.985C387.617 208.766 388.883 208.766 389.664 207.985L391.836 205.814C392.617 205.033 393.883 205.033 394.664 205.814L396.836 207.985C397.617 208.766 398.883 208.766 399.664 207.985L401.836 205.814C402.617 205.033 403.883 205.033 404.664 205.814L406.836 207.985C407.617 208.766 408.883 208.766 409.664 207.985L411.836 205.814C412.617 205.033 413.883 205.033 414.664 205.814L416.836 207.985C417.617 208.766 418.883 208.766 419.664 207.985L421.836 205.814C422.617 205.033 423.883 205.033 424.664 205.814L426.836 207.985C427.617 208.766 428.883 208.766 429.664 207.985L433.25 204.399" stroke="white" stroke-width="2" stroke-linecap="round" stroke-linejoin="round"/>
<defs>
<linearGradient id="paint0_linear" x1="185.661" y1="194.242" x2="207.709" y2="194.242" gradientUnits="userSpaceOnUse">
<stop stop-color="white"/>
<stop offset="1" stop-color="#E4EBFA"/>
</linearGradient>
<linearGradient id="paint1_linear" x1="208.457" y1="197.979" x2="280.581" y2="197.979" gradientUnits="userSpaceOnUse">
<stop stop-color="white"/>
<stop offset="1" stop-color="#E4EBFA"/>
</linearGradient>
<linearGradient id="paint2_linear" x1="92.5462" y1="189.977" x2="204.263" y2="189.977" gradientUnits="userSpaceOnUse">
<stop stop-color="white"/>
<stop offset="1" stop-color="#E4EBFA"/>
</linearGradient>
<linearGradient id="paint3_linear" x1="426.622" y1="150.911" x2="426.622" y2="240.725" gradientUnits="userSpaceOnUse">
<stop stop-color="white"/>
<stop offset="1" stop-color="#F0F5FE"/>
</linearGradient>
</defs>
</svg>
