<svg width="634" height="341" viewBox="0 0 634 341" fill="none" xmlns="http://www.w3.org/2000/svg">
<rect x="187.769" y="119.169" width="258.463" height="122.043" rx="0.363557" fill="#57AEFF"/>
<path d="M288.264 190.352V162.49H290.2V188.514H303.458V190.352H288.264V190.352ZM313.033 190.738C310.031 190.738 307.709 189.77 305.969 187.932C304.328 186.094 303.451 183.485 303.451 180.097C303.451 176.807 304.222 174.099 305.871 172.163C307.512 170.128 309.645 169.16 312.451 169.16C314.871 169.16 316.807 170.03 318.259 171.679C319.711 173.418 320.385 175.74 320.385 178.645V180.195H305.387C305.387 183.001 306.068 185.225 307.421 186.677C308.677 188.227 310.613 188.9 313.033 188.9C314.19 188.9 315.257 188.802 316.127 188.613C316.996 188.416 318.161 188.129 319.515 187.546V189.384C318.358 189.868 317.291 190.254 316.323 190.451C315.242 190.647 314.137 190.746 313.033 190.738V190.738ZM312.451 170.907C310.416 170.907 308.873 171.588 307.61 172.844C306.453 174.197 305.674 176.035 305.485 178.554H318.259C318.259 176.134 317.775 174.296 316.709 172.942C315.741 171.581 314.289 170.907 312.451 170.907ZM330.451 169.259C331.903 169.259 333.257 169.546 334.323 170.03C335.39 170.613 336.358 171.482 337.228 172.836H337.326C337.228 171.195 337.228 169.644 337.228 168.094V160.652H339.066V190.352H337.81L337.326 187.161C335.776 189.483 333.454 190.738 330.549 190.738C327.645 190.738 325.52 189.868 323.97 188.03C322.419 186.291 321.746 183.674 321.746 180.293C321.746 176.716 322.517 174.001 323.97 172.072C325.422 170.136 327.645 169.259 330.451 169.259V169.259ZM330.451 170.907C328.228 170.907 326.488 171.679 325.323 173.328C324.166 174.878 323.584 177.2 323.584 180.293C323.584 186.193 325.906 189.097 330.451 189.097C332.773 189.097 334.513 188.416 335.579 187.062C336.645 185.709 337.22 183.485 337.22 180.286V179.998C337.22 176.807 336.638 174.485 335.579 173.131C334.611 171.581 332.871 170.907 330.451 170.907ZM359.184 169.652V171.006L354.925 171.293C356.083 172.745 356.665 174.296 356.665 175.937C356.665 177.971 355.984 179.514 354.631 180.777C353.277 182.033 351.537 182.615 349.306 182.615C348.338 182.615 347.665 182.615 347.37 182.517C346.598 182.903 346.016 183.387 345.63 183.871C345.245 184.453 345.048 184.937 345.048 185.61C345.048 186.283 345.335 186.767 345.819 187.062C346.303 187.35 347.173 187.546 348.338 187.546H351.915C354.139 187.546 355.878 188.03 357.043 188.9C358.208 189.77 358.881 191.124 358.881 192.962C358.881 195.185 358.011 196.834 356.272 197.991C354.532 199.148 352.014 199.731 348.724 199.731C346.114 199.731 344.08 199.247 342.628 198.18C341.176 197.212 340.503 195.76 340.503 194.02C340.503 192.568 340.987 191.411 341.856 190.443C342.726 189.475 343.982 188.893 345.434 188.507C344.851 188.22 344.277 187.826 343.982 187.35C343.603 186.881 343.399 186.306 343.399 185.709C343.399 184.355 344.269 183.099 346.009 182.033C344.851 181.549 343.883 180.777 343.203 179.711C342.522 178.645 342.235 177.389 342.235 176.035C342.235 174.001 342.915 172.261 344.171 171.006C345.524 169.75 347.264 169.168 349.495 169.168C350.849 169.168 351.915 169.266 352.687 169.554H359.168V169.652H359.184V169.652ZM342.348 193.839C342.348 196.645 344.473 198.097 348.731 198.097C354.146 198.097 356.862 196.357 356.862 192.871C356.862 191.615 356.476 190.746 355.606 190.163C354.736 189.581 353.383 189.293 351.446 189.293H348.058C344.284 189.384 342.348 190.836 342.348 193.839V193.839ZM343.997 176.035C343.997 177.676 344.481 178.841 345.449 179.809C346.417 180.679 347.672 181.163 349.321 181.163C351.061 181.163 352.415 180.679 353.284 179.809C354.252 178.94 354.638 177.684 354.638 176.035C354.638 174.296 354.154 172.942 353.186 172.072C352.218 171.202 350.962 170.718 349.223 170.718C347.582 170.718 346.22 171.202 345.351 172.171C344.382 173.033 343.997 174.387 343.997 176.035V176.035Z" fill="white"/>
<path d="M368.569 190.738C365.567 190.738 363.245 189.77 361.505 187.932C359.864 186.094 358.987 183.485 358.987 180.097C358.987 176.807 359.758 174.099 361.407 172.163C363.048 170.129 365.181 169.161 367.987 169.161C370.407 169.161 372.343 170.03 373.796 171.679C375.248 173.419 375.921 175.741 375.921 178.645V180.195H361.021C361.021 183.001 361.702 185.225 363.056 186.677C364.311 188.227 366.248 188.9 368.668 188.9C369.825 188.9 370.891 188.802 371.761 188.613C372.631 188.416 373.796 188.129 375.149 187.547V189.384C373.992 189.868 372.926 190.254 371.958 190.451C370.891 190.647 369.825 190.738 368.569 190.738V190.738ZM368.085 170.908C366.051 170.908 364.508 171.588 363.245 172.844C362.088 174.198 361.309 176.035 361.12 178.554H373.894C373.894 176.134 373.41 174.296 372.343 172.942C371.375 171.581 369.923 170.908 368.085 170.908V170.908ZM386.66 169.259C387.53 169.259 388.498 169.357 389.466 169.546L389.081 171.384C388.188 171.187 387.281 171.089 386.373 171.097C384.634 171.097 383.181 171.868 382.017 173.32C380.86 174.871 380.277 176.709 380.277 179.03V190.353H378.341V169.652H379.982L380.179 173.426H380.277C381.147 171.876 382.017 170.817 382.985 170.235C384.149 169.554 385.307 169.259 386.66 169.259V169.259ZM269.787 161.62H255.947V180.195H274.522V166.453C274.529 163.844 272.396 161.62 269.787 161.62V161.62ZM251.696 161.62H249.374C246.765 161.62 244.534 163.745 244.534 166.461V168.782H251.696V161.62V161.62ZM244.534 173.131H251.696V180.294H244.534V173.131ZM267.367 191.706H269.689C272.298 191.706 274.529 189.581 274.529 186.866V184.552H267.367V191.706ZM255.947 184.552H263.109V191.714H255.947V184.552ZM244.534 184.552V186.873C244.534 189.483 246.659 191.714 249.374 191.714H251.696V184.552H244.534Z" fill="white"/>
<rect x="187.769" y="99.7875" width="258.463" height="19.3575" rx="0.363557" fill="#108CFF"/>
<ellipse cx="201.328" cy="109.466" rx="3.97039" ry="3.96816" fill="white"/>
<ellipse cx="212.689" cy="109.466" rx="3.97039" ry="3.96816" fill="white"/>
<ellipse cx="224.051" cy="109.466" rx="3.97039" ry="3.96816" fill="white"/>
<path d="M469.343 83.0662C471.403 83.1979 471.851 86.0917 470.448 87.6022L461.912 96.7875C446.814 113.035 470.126 133.617 484.923 117.694L493.259 108.723C494.483 107.405 496.99 107.659 497.321 109.425C498.993 118.369 497.588 128.084 492.996 136.023C488.281 144.176 480.74 148 472.564 151.853C463.191 156.269 453.687 160.748 448.636 169.38L412.578 231.72C412.566 231.741 412.554 231.762 412.542 231.783C407.548 240.475 408.416 250.95 409.272 261.279C410.018 270.273 410.47 278.704 405.754 286.857C401.163 294.795 393.436 300.868 384.841 303.894C383.143 304.491 381.67 302.451 382.201 300.734L385.816 289.042C392.294 268.09 362.656 258.632 356.172 279.603L352.471 291.575C351.862 293.544 349.127 294.603 347.983 292.888C340.416 281.547 339.957 265.181 347.004 252.998C351.719 244.845 359.26 241.021 367.436 237.169C376.848 232.733 386.393 228.236 391.428 219.531C403.426 198.788 415.424 178.044 427.422 157.301C432.456 148.596 431.586 138.096 430.728 127.742C429.982 118.748 429.53 110.317 434.246 102.165C441.292 89.982 455.72 82.1955 469.343 83.0662Z" fill="#1B2D4B" fill-opacity="0.1"/>
<path d="M465.353 80.0656C467.413 80.1973 467.862 83.0911 466.458 84.6016L457.922 93.787C442.968 109.878 465.995 130.769 480.935 114.693L489.271 105.723C490.496 104.405 493.003 104.658 493.333 106.425C495.973 120.542 490.779 137.151 477.641 144.357C465.917 150.788 451.269 154.927 444.581 166.49C432.582 187.233 420.583 207.976 408.584 228.72C408.579 228.729 408.574 228.737 408.569 228.746C403.551 237.446 404.42 247.935 405.278 258.279C406.024 267.273 406.476 275.704 401.76 283.857C397.168 291.795 389.441 297.868 380.845 300.894C379.146 301.491 377.673 299.451 378.204 297.734L381.819 286.042C388.236 265.289 358.721 255.427 352.173 276.603L348.472 288.575C347.863 290.543 345.127 291.603 343.983 289.888C336.416 278.547 335.957 262.181 343.004 249.998C347.72 241.845 355.261 238.021 363.437 234.168C372.851 229.733 382.397 225.235 387.432 216.53C399.45 195.755 411.467 174.98 423.484 154.204C430.097 142.656 426.384 127.969 426.103 114.658C425.682 94.7368 446.298 78.8477 465.353 80.0656Z" fill="white"/>
</svg>
