<svg width="793" height="441" viewBox="0 0 793 441" fill="none" xmlns="http://www.w3.org/2000/svg">
<g clip-path="url(#clip0)">
<path d="M465.61 26.491C472.959 28.2136 475.441 37.4294 469.865 42.5715L443.156 67.2374C438.504 71.5074 431.083 70.2016 428.286 64.5352L410.901 29.5343C407.368 22.413 413.722 14.272 421.606 16.1285L465.61 26.491Z" fill="#108CFF"/>
<rect x="194.25" y="41.2637" width="402" height="296.757" rx="96" fill="#E3EEFE"/>
<path d="M212.119 316.551C210.357 317.624 208.086 317.011 207.507 315.051C206.645 311.999 206.513 308.672 207.438 305.49C208.711 301.114 211.59 297.317 215.572 294.969C219.554 292.622 224.181 291.923 228.551 293.051C231.744 293.848 234.518 295.565 236.634 297.83C238.044 299.34 237.4 301.64 235.553 302.664C233.791 303.738 231.57 303.037 230.009 301.788C228.997 300.972 227.833 300.417 226.519 300.124C224.027 299.499 221.373 299.942 219.068 301.167C216.797 302.528 215.096 304.682 214.437 307.205C214.04 308.485 213.95 309.827 214.131 311.093C214.474 313.264 213.831 315.564 212.119 316.551Z" fill="#FFAB49"/>
<path d="M580.496 323.885C590.648 318.052 590.623 303.385 580.536 297.518L546.458 277.536C536.794 271.84 524.525 278.177 523.613 289.367L520.042 331.074C518.962 343.366 532.187 351.781 542.847 345.695L580.496 323.885Z" fill="#FFCA62"/>
<path opacity="0.3" fill-rule="evenodd" clip-rule="evenodd" d="M471.871 154.972V156.559H507.314C511.582 155.268 516.109 154.573 520.798 154.573L749.282 154.573C751.504 154.573 753.306 156.375 753.306 158.597V243.525C753.306 245.747 751.504 247.548 749.282 247.548L520.798 247.548C516.11 247.548 511.584 246.854 507.317 245.563H281.369C277.295 245.563 273.993 242.261 273.993 238.187V221.224H218.956C210.882 221.224 203.919 216.444 200.716 209.567C200.7 209.568 200.683 209.569 200.666 209.57C200.65 209.57 200.633 209.571 200.617 209.571H180.171C179.43 209.571 178.83 208.97 178.83 208.23L178.83 206.531H0.308594V195.591H178.83L178.83 193.893C178.83 193.153 179.43 192.552 180.171 192.552H200.617C200.65 192.552 200.683 192.553 200.716 192.556C203.919 185.679 210.882 180.899 218.956 180.899H273.993V163.935C273.993 159.861 277.295 156.559 281.369 156.559H305.991V154.972C305.991 152.75 307.793 150.948 310.015 150.948H340.51C342.732 150.948 344.534 152.75 344.534 154.972V156.559H433.328V154.972C433.328 152.75 435.13 150.948 437.352 150.948H467.847C470.07 150.948 471.871 152.75 471.871 154.972ZM544.809 202.176C544.809 207.178 543.288 211.824 540.684 215.679C536.344 222.102 528.995 226.325 520.659 226.325C512.831 226.325 505.872 222.601 501.459 216.827C498.354 212.764 496.509 207.685 496.509 202.175C496.509 195.507 499.212 189.47 503.582 185.1C507.953 180.729 513.99 178.026 520.659 178.026C528.192 178.026 534.919 181.475 539.348 186.88C541.781 189.849 543.52 193.408 544.318 197.309C544.64 198.881 544.809 200.509 544.809 202.176Z" fill="#B0BFD9"/>
<path d="M207.958 188.145C207.958 187.404 207.358 186.804 206.617 186.804H186.171C185.431 186.804 184.83 187.404 184.83 188.145V202.481C184.83 203.222 185.431 203.822 186.171 203.822H206.617C207.358 203.822 207.958 203.222 207.958 202.481V188.145Z" fill="url(#paint0_linear)"/>
<path d="M279.992 175.15H224.956C213.845 175.15 204.839 184.202 204.839 195.313C204.839 206.423 213.845 215.475 224.956 215.475H279.992V175.15Z" fill="url(#paint1_linear)"/>
<path d="M0.308594 189.876H184.784V200.876H0.308594V189.876Z" fill="url(#paint2_linear)"/>
<path d="M439.328 150.811H477.871V149.223C477.871 147.001 476.069 145.2 473.847 145.2H443.352C441.13 145.2 439.328 147.001 439.328 149.223V150.811Z" fill="white"/>
<path d="M311.991 150.811H350.534V149.223C350.534 147.001 348.732 145.2 346.51 145.2H316.015C313.793 145.2 311.991 147.001 311.991 149.223V150.811Z" fill="white"/>
<path fill-rule="evenodd" clip-rule="evenodd" d="M287.369 150.811C283.295 150.811 279.992 154.113 279.992 158.187V232.439C279.992 236.513 283.295 239.815 287.369 239.815H565.875C569.949 239.815 573.251 236.513 573.251 232.439V158.187C573.251 154.113 569.949 150.811 565.875 150.811H287.369ZM526.659 220.578C539.997 220.578 550.809 209.765 550.809 196.427C550.809 183.09 539.997 172.277 526.659 172.277C513.321 172.277 502.509 183.09 502.509 196.427C502.509 209.765 513.321 220.578 526.659 220.578Z" fill="url(#paint3_linear)"/>
<path fill-rule="evenodd" clip-rule="evenodd" d="M527.283 148.875C501.602 148.875 480.783 169.694 480.783 195.375C480.783 221.056 501.602 241.875 527.283 241.875H746.931C750.245 241.875 752.931 239.189 752.931 235.875V154.875C752.931 151.561 750.245 148.875 746.931 148.875H527.283ZM526.659 220.577C539.996 220.577 550.809 209.764 550.809 196.427C550.809 183.089 539.996 172.276 526.659 172.276C513.321 172.276 502.509 183.089 502.509 196.427C502.509 209.764 513.321 220.577 526.659 220.577Z" fill="white"/>
<rect x="325.174" y="170.944" width="139.046" height="48.1942" rx="4.41186" fill="#57AEFF"/>
<rect x="397.99" y="194.188" width="1.77361" height="1.77361" fill="#FAFCFE"/>
<rect x="395.202" y="191.097" width="1.77361" height="1.77361" fill="#FAFCFE"/>
<rect width="1.77361" height="1.77361" transform="matrix(1 0 0 -1 395.202 199)" fill="#FAFCFE"/>
<rect x="392.416" y="188.714" width="1.77361" height="1.77361" fill="#FAFCFE"/>
<rect width="1.77361" height="1.77361" transform="matrix(1 0 0 -1 392.416 201.383)" fill="#FAFCFE"/>
<rect x="389.628" y="186.18" width="1.77361" height="1.77361" fill="#FAFCFE"/>
<rect width="1.77361" height="1.77361" transform="matrix(1 0 0 -1 389.629 203.916)" fill="#FAFCFE"/>
<rect x="417.25" y="185.3" width="3.80059" height="3.80059" fill="#FAFCFE"/>
<rect x="431.186" y="189.101" width="3.80059" height="3.80059" fill="#FAFCFE"/>
<rect x="422.318" y="199.235" width="3.80059" height="3.80059" fill="#FAFCFE"/>
<rect x="420.03" y="196.502" width="1.77361" height="1.77361" fill="#FAFCFE"/>
<rect x="420.03" y="192.769" width="1.77361" height="1.77361" fill="#FAFCFE"/>
<rect x="422.318" y="187.234" width="1.77361" height="1.77361" fill="#FAFCFE"/>
<rect x="426.238" y="189.034" width="1.77361" height="1.77361" fill="#FAFCFE"/>
<rect x="426.238" y="196.502" width="1.77361" height="1.77361" fill="#FAFCFE"/>
<rect x="429.786" y="194.635" width="1.77361" height="1.77361" fill="#FAFCFE"/>
<path fill-rule="evenodd" clip-rule="evenodd" d="M352.784 185.3V186.567H351.517V187.834H350.25V200.502H351.517V201.769H352.784V203.036H365.452V201.769H366.719V200.502H367.986V187.834H366.719V186.567H365.452V185.3H352.784ZM362.919 189.099V187.832H355.318V189.099H357.851V192.9H356.584V194.167H357.851V195.434H356.584V196.7H357.851V199.234H355.318V200.501H362.919V199.234H360.385V196.7H361.652V195.434H360.385V194.167H361.652V192.9H360.385V189.099L362.919 189.099Z" fill="#FAFCFE"/>
</g>
<defs>
<linearGradient id="paint0_linear" x1="185.661" y1="194.142" x2="207.709" y2="194.142" gradientUnits="userSpaceOnUse">
<stop stop-color="white"/>
<stop offset="1" stop-color="#E4EBFA"/>
</linearGradient>
<linearGradient id="paint1_linear" x1="208.457" y1="197.879" x2="280.58" y2="197.879" gradientUnits="userSpaceOnUse">
<stop stop-color="white"/>
<stop offset="1" stop-color="#E4EBFA"/>
</linearGradient>
<linearGradient id="paint2_linear" x1="92.5462" y1="189.876" x2="204.263" y2="189.876" gradientUnits="userSpaceOnUse">
<stop stop-color="white"/>
<stop offset="1" stop-color="#E4EBFA"/>
</linearGradient>
<linearGradient id="paint3_linear" x1="426.622" y1="150.811" x2="426.622" y2="240.624" gradientUnits="userSpaceOnUse">
<stop stop-color="white"/>
<stop offset="1" stop-color="#F0F5FE"/>
</linearGradient>
<clipPath id="clip0">
<rect width="792" height="440" fill="white" transform="translate(0.25 0.299805)"/>
</clipPath>
</defs>
</svg>
