<svg width="792" height="501" viewBox="0 0 792 501" fill="none" xmlns="http://www.w3.org/2000/svg">
<g clip-path="url(#clip0)">
<path d="M478.621 23.5175C478.6 11.8509 491.228 4.56043 501.279 10.3386L535.373 29.7777C545.067 35.2752 545.703 49.0195 536.532 55.385L502.433 79.2571C492.397 86.3165 478.597 79.1019 478.542 66.8709L478.621 23.5175Z" fill="#628BF2"/>
<path d="M246.5 124C246.5 68.0002 288.4 22.7002 340.1 22.7002H449.9C501.6 22.7002 543.5 68.1002 543.5 124V324.2C543.5 380.2 501.6 425.5 449.9 425.5H340.2C288.5 425.5 246.6 380.1 246.6 324.2L246.5 124Z" fill="url(#paint0_linear)"/>
<path d="M255.848 404.175C250.032 408.934 251.83 418.284 259.054 420.456L293.674 430.893C299.692 432.688 305.755 428.271 305.785 421.966L306.065 382.976C306.119 375.044 296.892 370.523 290.655 375.636L255.848 404.175Z" fill="#37E5D7"/>
<path d="M438.118 57.3691C443.825 61.506 461.569 78.3666 450.842 85.9831C444.996 90.134 435.017 85.7341 423.972 77.7278C414.097 70.569 407.23 62.5254 407.543 55.6785C408.178 41.8021 432.369 53.2015 438.118 57.3691Z" fill="#9AADCE"/>
<ellipse rx="11.9338" ry="26.9179" transform="matrix(0.587449 -0.809262 0.80558 0.592487 430.216 69.1767)" fill="url(#paint1_linear)"/>
<path d="M372.442 157.496C362.656 161.753 354.37 171.897 355.703 182.289C356.239 186.433 357.74 189.042 360.254 191.791C361.745 193.421 364.164 195.213 366.155 196.161C369.806 197.901 374.176 198.375 378.812 197.147C391.341 193.827 399.53 180.012 396.226 167.542C395.117 163.355 394.348 161.634 391.443 159.368C389.346 157.732 386.261 155.118 383.636 154.59C379.888 153.837 376.416 155.769 372.442 157.496Z" fill="#9AADCE"/>
<path d="M369.951 154.635C360.165 158.892 353.787 170.061 355.12 180.453C356.556 191.563 366.359 198.879 377.787 195.851C390.316 192.532 398.505 178.716 395.201 166.247C392.146 154.717 380.561 150.022 369.951 154.635Z" fill="url(#paint2_linear)"/>
<path d="M383.009 190.317L412.053 181.138L411.667 179.916C411.142 178.256 409.371 177.335 407.71 177.86L384.679 185.139C383.019 185.664 382.098 187.435 382.623 189.096L383.009 190.317Z" fill="white"/>
<path d="M287.053 220.645L316.097 211.465L315.711 210.244C315.186 208.583 313.415 207.663 311.754 208.187L288.723 215.466C287.062 215.991 286.142 217.763 286.667 219.423L287.053 220.645Z" fill="white"/>
<path fill-rule="evenodd" clip-rule="evenodd" d="M268.451 226.524C265.407 227.486 263.719 230.733 264.681 233.777L282.395 289.824C283.357 292.868 286.605 294.556 289.649 293.594L499.614 227.234C502.658 226.272 504.346 223.024 503.384 219.98L485.67 163.933C484.708 160.889 481.46 159.202 478.416 160.164L268.451 226.524ZM465.434 222.092C475.484 218.915 481.057 208.193 477.88 198.142C474.704 188.091 463.981 182.518 453.93 185.695C443.879 188.871 438.307 199.594 441.483 209.645C444.66 219.696 455.383 225.269 465.434 222.092Z" fill="url(#paint3_linear)"/>
<path fill-rule="evenodd" clip-rule="evenodd" d="M448.451 167.989C429.104 174.104 418.377 194.745 424.491 214.092C430.606 233.439 451.247 244.166 470.594 238.051L674.03 173.755C675.691 173.23 676.611 171.458 676.087 169.798L655.844 105.749C655.319 104.088 653.547 103.168 651.887 103.692L448.451 167.989ZM465.435 222.092C475.486 218.915 481.058 208.192 477.882 198.142C474.705 188.091 463.982 182.518 453.932 185.695C443.881 188.871 438.308 199.594 441.485 209.645C444.661 219.696 455.384 225.268 465.435 222.092Z" fill="white"/>
<path d="M524.468 170.324C525.485 170.003 526.048 168.917 525.726 167.899C525.404 166.88 524.319 166.315 523.303 166.637C522.287 166.958 521.724 168.044 522.046 169.062C522.367 170.08 523.452 170.645 524.468 170.324Z" fill="#C4D1E8"/>
<path d="M534.77 195.712C535.787 195.391 536.35 194.305 536.028 193.287C535.706 192.269 534.621 191.704 533.605 192.025C532.589 192.346 532.026 193.432 532.347 194.45C532.669 195.468 533.754 196.033 534.77 195.712Z" fill="#C4D1E8"/>
<path d="M526.451 174.767C527.304 174.498 527.777 173.586 527.507 172.732C527.237 171.877 526.326 171.403 525.473 171.673C524.62 171.942 524.148 172.853 524.418 173.708C524.688 174.563 525.598 175.037 526.451 174.767Z" fill="#C4D1E8"/>
<path d="M530.747 174.061C531.6 173.792 532.073 172.88 531.803 172.026C531.532 171.171 530.622 170.697 529.769 170.966C528.916 171.236 528.444 172.147 528.714 173.002C528.984 173.857 529.894 174.331 530.747 174.061Z" fill="#C4D1E8"/>
<path d="M527.164 178.851C527.89 178.622 528.293 177.846 528.063 177.119C527.833 176.392 527.058 175.988 526.332 176.217C525.606 176.447 525.204 177.222 525.434 177.95C525.664 178.677 526.438 179.081 527.164 178.851Z" fill="#C4D1E8"/>
<path d="M531.449 178.113C532.175 177.883 532.577 177.108 532.347 176.381C532.117 175.653 531.342 175.25 530.616 175.479C529.89 175.709 529.488 176.484 529.718 177.211C529.948 177.939 530.723 178.342 531.449 178.113Z" fill="#C4D1E8"/>
<path d="M535.14 178.358C535.866 178.129 536.268 177.353 536.038 176.626C535.808 175.898 535.034 175.495 534.308 175.724C533.582 175.954 533.18 176.729 533.409 177.457C533.639 178.184 534.414 178.587 535.14 178.358Z" fill="#C4D1E8"/>
<path d="M531.231 181.657C531.866 181.457 532.218 180.778 532.017 180.142C531.816 179.505 531.138 179.152 530.503 179.353C529.867 179.554 529.516 180.232 529.717 180.869C529.918 181.505 530.596 181.858 531.231 181.657Z" fill="#C4D1E8"/>
<path d="M526.948 182.396C527.583 182.195 527.935 181.516 527.734 180.88C527.533 180.243 526.855 179.89 526.219 180.091C525.584 180.292 525.232 180.97 525.434 181.607C525.635 182.243 526.313 182.596 526.948 182.396Z" fill="#C4D1E8"/>
<path d="M534.957 181.892C535.592 181.692 535.944 181.013 535.743 180.376C535.541 179.74 534.863 179.387 534.228 179.588C533.593 179.788 533.241 180.467 533.442 181.103C533.643 181.74 534.321 182.093 534.957 181.892Z" fill="#C4D1E8"/>
<path d="M530.348 184.58C530.893 184.408 531.195 183.826 531.022 183.281C530.85 182.735 530.269 182.432 529.724 182.604C529.18 182.777 528.878 183.358 529.05 183.904C529.223 184.449 529.804 184.752 530.348 184.58Z" fill="#C4D1E8"/>
<path d="M534.063 184.782C534.608 184.61 534.909 184.028 534.737 183.483C534.565 182.937 533.983 182.635 533.439 182.807C532.894 182.979 532.593 183.56 532.765 184.106C532.938 184.651 533.519 184.954 534.063 184.782Z" fill="#C4D1E8"/>
<path d="M526.086 185.275C526.63 185.103 526.932 184.521 526.759 183.976C526.587 183.43 526.006 183.128 525.461 183.3C524.917 183.472 524.615 184.054 524.788 184.599C524.96 185.144 525.541 185.447 526.086 185.275Z" fill="#C4D1E8"/>
<path d="M529.051 186.765C529.504 186.622 529.756 186.137 529.612 185.682C529.469 185.228 528.984 184.975 528.531 185.119C528.077 185.262 527.825 185.747 527.969 186.201C528.113 186.656 528.597 186.908 529.051 186.765Z" fill="#C4D1E8"/>
<path d="M531.182 188.59C531.581 188.464 531.802 188.037 531.676 187.637C531.549 187.237 531.123 187.015 530.724 187.141C530.325 187.267 530.103 187.694 530.23 188.094C530.356 188.494 530.782 188.716 531.182 188.59Z" fill="#C4D1E8"/>
<path d="M529.585 189.601C529.912 189.498 530.093 189.149 529.989 188.822C529.886 188.494 529.537 188.313 529.211 188.416C528.884 188.519 528.703 188.868 528.806 189.196C528.91 189.523 529.259 189.705 529.585 189.601Z" fill="#C4D1E8"/>
<path d="M527.5 188.377C527.899 188.251 528.121 187.825 527.994 187.425C527.868 187.025 527.442 186.803 527.042 186.929C526.643 187.055 526.422 187.482 526.548 187.882C526.675 188.282 527.101 188.504 527.5 188.377Z" fill="#C4D1E8"/>
<path d="M524.767 187.503C525.22 187.36 525.472 186.875 525.328 186.42C525.184 185.966 524.7 185.714 524.246 185.857C523.793 186 523.541 186.485 523.685 186.94C523.829 187.394 524.313 187.647 524.767 187.503Z" fill="#C4D1E8"/>
<path d="M522.777 181.324C523.231 181.18 523.482 180.695 523.339 180.241C523.195 179.786 522.711 179.534 522.257 179.677C521.803 179.821 521.552 180.306 521.696 180.76C521.839 181.215 522.324 181.467 522.777 181.324Z" fill="#C4D1E8"/>
<path d="M522.223 178.312C522.622 178.186 522.843 177.76 522.717 177.36C522.59 176.96 522.164 176.738 521.765 176.864C521.366 176.99 521.144 177.417 521.271 177.817C521.397 178.217 521.823 178.439 522.223 178.312Z" fill="#C4D1E8"/>
<path d="M522.262 175.693C522.589 175.589 522.77 175.24 522.666 174.913C522.563 174.586 522.214 174.404 521.887 174.507C521.561 174.611 521.38 174.96 521.483 175.287C521.587 175.614 521.935 175.796 522.262 175.693Z" fill="#C4D1E8"/>
<path d="M520.528 175.01C520.928 174.883 521.149 174.457 521.022 174.057C520.896 173.657 520.47 173.435 520.071 173.561C519.671 173.687 519.45 174.114 519.577 174.514C519.703 174.914 520.129 175.136 520.528 175.01Z" fill="#C4D1E8"/>
<path d="M532.732 186.977C533.186 186.833 533.437 186.349 533.294 185.894C533.15 185.44 532.666 185.187 532.212 185.331C531.758 185.474 531.507 185.959 531.651 186.413C531.794 186.868 532.279 187.12 532.732 186.977Z" fill="#C4D1E8"/>
<path d="M518.354 174.647C518.807 174.503 519.059 174.019 518.915 173.564C518.771 173.109 518.287 172.857 517.833 173.001C517.38 173.144 517.128 173.629 517.272 174.083C517.416 174.538 517.9 174.79 518.354 174.647Z" fill="#C4D1E8"/>
<path d="M520.016 177.96C520.469 177.817 520.721 177.332 520.577 176.878C520.433 176.423 519.949 176.171 519.495 176.314C519.042 176.457 518.79 176.942 518.934 177.397C519.078 177.851 519.562 178.104 520.016 177.96Z" fill="#C4D1E8"/>
<path d="M520.146 181.576C520.691 181.404 520.992 180.822 520.82 180.277C520.648 179.731 520.066 179.428 519.522 179.601C518.978 179.773 518.676 180.354 518.848 180.9C519.021 181.445 519.602 181.748 520.146 181.576Z" fill="#C4D1E8"/>
<path d="M517.156 182.521C517.791 182.32 518.143 181.641 517.942 181.005C517.741 180.368 517.063 180.015 516.427 180.216C515.792 180.417 515.44 181.095 515.642 181.732C515.843 182.368 516.521 182.721 517.156 182.521Z" fill="#C4D1E8"/>
<path d="M513.922 184.412C514.648 184.183 515.05 183.407 514.82 182.68C514.591 181.953 513.816 181.549 513.09 181.778C512.364 182.008 511.962 182.783 512.192 183.511C512.421 184.238 513.196 184.642 513.922 184.412Z" fill="#C4D1E8"/>
<path d="M510.703 187.494C511.556 187.224 512.029 186.313 511.759 185.458C511.489 184.604 510.578 184.129 509.725 184.399C508.872 184.669 508.4 185.58 508.67 186.435C508.94 187.289 509.85 187.763 510.703 187.494Z" fill="#C4D1E8"/>
<path d="M507.76 191.901C508.776 191.579 509.339 190.494 509.017 189.475C508.695 188.457 507.61 187.892 506.594 188.213C505.578 188.535 505.015 189.62 505.337 190.639C505.658 191.657 506.743 192.222 507.76 191.901Z" fill="#C4D1E8"/>
<path d="M507.942 184.13C508.795 183.86 509.268 182.949 508.998 182.095C508.728 181.24 507.817 180.766 506.964 181.035C506.111 181.305 505.639 182.216 505.909 183.071C506.179 183.925 507.089 184.4 507.942 184.13Z" fill="#C4D1E8"/>
<path d="M511.161 181.048C511.886 180.819 512.289 180.043 512.059 179.316C511.829 178.589 511.054 178.185 510.328 178.415C509.602 178.644 509.2 179.42 509.43 180.147C509.66 180.874 510.435 181.278 511.161 181.048Z" fill="#C4D1E8"/>
<path d="M509.498 177.735C510.224 177.506 510.627 176.73 510.397 176.003C510.167 175.275 509.392 174.872 508.666 175.101C507.94 175.331 507.538 176.106 507.768 176.834C507.998 177.561 508.772 177.964 509.498 177.735Z" fill="#C4D1E8"/>
<path d="M512.733 175.844C513.368 175.643 513.72 174.965 513.519 174.328C513.318 173.692 512.64 173.339 512.005 173.539C511.369 173.74 511.018 174.419 511.219 175.055C511.42 175.692 512.098 176.045 512.733 175.844Z" fill="#C4D1E8"/>
<path d="M515.722 174.899C516.267 174.727 516.569 174.145 516.396 173.6C516.224 173.054 515.643 172.752 515.098 172.924C514.554 173.096 514.252 173.678 514.424 174.223C514.597 174.769 515.178 175.071 515.722 174.899Z" fill="#C4D1E8"/>
<path d="M517.385 178.212C517.929 178.04 518.231 177.458 518.058 176.913C517.886 176.367 517.305 176.065 516.76 176.237C516.216 176.409 515.914 176.991 516.087 177.536C516.259 178.081 516.84 178.384 517.385 178.212Z" fill="#C4D1E8"/>
<path d="M514.404 179.19C515.039 178.989 515.391 178.311 515.19 177.674C514.989 177.038 514.311 176.685 513.676 176.886C513.04 177.086 512.688 177.765 512.89 178.401C513.091 179.038 513.769 179.391 514.404 179.19Z" fill="#C4D1E8"/>
<path d="M513.919 188.976C514.246 188.873 514.427 188.524 514.323 188.196C514.22 187.869 513.871 187.687 513.545 187.791C513.218 187.894 513.037 188.243 513.14 188.57C513.244 188.897 513.593 189.079 513.919 188.976Z" fill="#C4D1E8"/>
<path d="M516.192 187.932C516.591 187.806 516.812 187.379 516.686 186.979C516.559 186.579 516.133 186.357 515.734 186.483C515.334 186.61 515.113 187.036 515.24 187.436C515.366 187.836 515.792 188.058 516.192 187.932Z" fill="#C4D1E8"/>
<path d="M518.475 186.124C518.928 185.981 519.18 185.496 519.036 185.042C518.892 184.587 518.408 184.335 517.954 184.478C517.501 184.622 517.249 185.106 517.393 185.561C517.537 186.015 518.021 186.268 518.475 186.124Z" fill="#C4D1E8"/>
<path d="M519.931 188.56C520.476 188.388 520.778 187.806 520.605 187.261C520.433 186.716 519.852 186.413 519.307 186.585C518.763 186.757 518.461 187.339 518.633 187.884C518.806 188.43 519.387 188.732 519.931 188.56Z" fill="#C4D1E8"/>
<path d="M516.976 190.182C517.429 190.039 517.681 189.554 517.537 189.1C517.393 188.645 516.909 188.393 516.455 188.536C516.002 188.68 515.75 189.164 515.894 189.619C516.038 190.074 516.522 190.326 516.976 190.182Z" fill="#C4D1E8"/>
<path d="M514.171 191.033C514.57 190.906 514.791 190.48 514.665 190.08C514.539 189.68 514.112 189.458 513.713 189.584C513.314 189.71 513.093 190.137 513.219 190.537C513.346 190.937 513.772 191.159 514.171 191.033Z" fill="#C4D1E8"/>
<path d="M514.922 193.294C515.376 193.151 515.627 192.666 515.483 192.211C515.34 191.757 514.855 191.505 514.402 191.648C513.948 191.791 513.697 192.276 513.84 192.731C513.984 193.185 514.468 193.438 514.922 193.294Z" fill="#C4D1E8"/>
<path d="M518.409 192.662C518.953 192.49 519.255 191.909 519.083 191.363C518.91 190.818 518.329 190.515 517.785 190.687C517.24 190.859 516.939 191.441 517.111 191.986C517.283 192.532 517.865 192.834 518.409 192.662Z" fill="#C4D1E8"/>
<path d="M522.185 190.998C522.82 190.797 523.172 190.119 522.971 189.482C522.77 188.846 522.092 188.493 521.457 188.694C520.822 188.894 520.47 189.573 520.671 190.209C520.872 190.846 521.55 191.199 522.185 190.998Z" fill="#C4D1E8"/>
<path d="M525.39 193.136C526.116 192.906 526.518 192.131 526.288 191.404C526.058 190.676 525.284 190.273 524.558 190.502C523.832 190.731 523.43 191.507 523.659 192.234C523.889 192.962 524.664 193.365 525.39 193.136Z" fill="#C4D1E8"/>
<path d="M520.684 195.058C521.319 194.857 521.671 194.178 521.47 193.542C521.269 192.906 520.591 192.552 519.956 192.753C519.321 192.954 518.969 193.633 519.17 194.269C519.371 194.905 520.049 195.259 520.684 195.058Z" fill="#C4D1E8"/>
<path d="M518.665 198.158C519.3 197.958 519.652 197.279 519.451 196.643C519.249 196.006 518.571 195.653 517.936 195.854C517.301 196.055 516.949 196.733 517.15 197.37C517.351 198.006 518.029 198.359 518.665 198.158Z" fill="#C4D1E8"/>
<path d="M521.847 200.339C522.573 200.11 522.975 199.334 522.745 198.607C522.515 197.879 521.741 197.476 521.015 197.705C520.289 197.935 519.887 198.71 520.116 199.438C520.346 200.165 521.121 200.568 521.847 200.339Z" fill="#C4D1E8"/>
<path d="M528.061 198.955C528.914 198.686 529.386 197.774 529.116 196.92C528.846 196.065 527.936 195.591 527.083 195.86C526.23 196.13 525.757 197.041 526.027 197.896C526.297 198.751 527.208 199.225 528.061 198.955Z" fill="#C4D1E8"/>
<path d="M523.868 197.238C524.594 197.008 524.996 196.233 524.766 195.506C524.536 194.778 523.761 194.375 523.035 194.604C522.309 194.834 521.907 195.609 522.137 196.336C522.367 197.064 523.142 197.467 523.868 197.238Z" fill="#C4D1E8"/>
<path d="M529.551 194.863C530.404 194.593 530.876 193.682 530.606 192.827C530.336 191.973 529.426 191.499 528.573 191.768C527.72 192.038 527.247 192.949 527.517 193.804C527.787 194.658 528.698 195.133 529.551 194.863Z" fill="#C4D1E8"/>
<path d="M516.389 195.763C516.934 195.591 517.236 195.01 517.063 194.464C516.891 193.919 516.31 193.616 515.765 193.788C515.221 193.96 514.919 194.542 515.091 195.087C515.264 195.633 515.845 195.935 516.389 195.763Z" fill="#C4D1E8"/>
<path d="M549.131 164.511L546.875 165.224L553.155 185.095L555.411 184.382L549.131 164.511Z" fill="#C4D1E8"/>
<path d="M559.529 172.135C557.77 166.567 560.925 160.383 566.388 158.657C571.882 156.92 577.94 160.153 579.711 165.757C581.482 171.36 578.351 177.497 572.888 179.224C567.467 180.972 561.3 177.738 559.529 172.135ZM577.455 166.47C576.06 162.054 571.307 159.423 567.055 160.767C562.802 162.111 560.393 167.006 561.789 171.421C563.195 175.872 567.979 178.489 572.231 177.145C576.484 175.801 578.862 170.92 577.455 166.47Z" fill="#C4D1E8"/>
<path d="M588.832 154.32L582.194 156.418L581.517 154.276L597.021 149.376L597.698 151.518L591.057 153.617L596.66 171.346L594.404 172.059L588.832 154.32Z" fill="#C4D1E8"/>
<path d="M609.734 148.402L607.649 167.872L605.196 168.647L607.48 147.302C607.556 146.516 608.109 145.871 608.828 145.644C609.579 145.406 610.37 145.627 610.884 146.227L625.02 162.382L622.568 163.157L609.734 148.402Z" fill="#C4D1E8"/>
<rect x="301.869" y="232.339" width="109.888" height="39.109" rx="3.45728" transform="rotate(-17.5393 301.869 232.339)" fill="#57AEFF"/>
<path d="M410.297 340.979C397.284 351.502 393.705 366.448 398.897 372.465C408.239 384.543 423.533 381.096 436.546 370.573C446.815 362.269 452.495 351.894 449.89 342.377C449.194 339.834 448.845 338.701 447.178 336.709C441.366 329.766 424.618 329.399 410.297 340.979Z" fill="#9AADCE"/>
<ellipse rx="19.4715" ry="29.4619" transform="matrix(-0.602023 -0.798479 -0.798479 0.602023 424.477 356.473)" fill="url(#paint4_linear)"/>
<path d="M511.305 231.081C518.628 240.853 518.351 252.094 513.901 255.96C505.132 262.833 495.13 257.738 487.807 247.966C482.028 240.254 479.867 231.899 483.413 225.632C484.36 223.958 485.146 223.144 486.682 222.033C492.036 218.162 503.982 221.309 511.305 231.081Z" fill="#9AADCE"/>
<ellipse cx="498.868" cy="240.151" rx="14.2082" ry="21.4982" transform="rotate(-38.7904 498.868 240.151)" fill="url(#paint5_linear)"/>
<path d="M167.595 194.921C177.541 213.492 193.917 223.173 207.462 215.621C219.819 207.801 221.47 188.439 211.524 169.869C203.675 155.214 192.185 145.748 179.803 146.726C176.495 146.988 173.676 148.377 170.82 149.969C160.866 155.52 157.649 176.351 167.595 194.921Z" fill="#9AADCE"/>
<ellipse rx="24.5099" ry="37.0855" transform="matrix(-0.897042 0.441945 0.441945 0.897042 191.245 181.471)" fill="url(#paint6_linear)"/>
<path d="M575.449 350.391C588.893 338.034 604.115 331.712 614.028 335.468C627.604 342.008 603.954 370.425 598.337 375.587C590.136 383.126 564.074 403.789 557.689 386.363C554 376.295 561.054 363.624 575.449 350.391Z" fill="#9AADCE"/>
<path d="M599.915 376.674C585.249 390.306 568.045 397.051 561.076 391.427C553.613 385.394 560.62 367.677 577.216 352.252C593.812 336.827 612.013 331.113 617.465 339.015C622.565 346.377 614.581 363.043 599.915 376.674Z" fill="url(#paint7_linear)"/>
</g>
<defs>
<linearGradient id="paint0_linear" x1="395" y1="22.7002" x2="395" y2="425.5" gradientUnits="userSpaceOnUse">
<stop stop-color="#FFD0BD"/>
<stop offset="1" stop-color="#FFB99D"/>
</linearGradient>
<linearGradient id="paint1_linear" x1="11.9338" y1="0" x2="11.9338" y2="53.8357" gradientUnits="userSpaceOnUse">
<stop stop-color="#AFCDEE"/>
<stop offset="1" stop-color="#DCE9F7"/>
</linearGradient>
<linearGradient id="paint2_linear" x1="395.997" y1="169.251" x2="354.855" y2="180.151" gradientUnits="userSpaceOnUse">
<stop stop-color="#AFCDEE"/>
<stop offset="1" stop-color="#DCE9F7"/>
</linearGradient>
<linearGradient id="paint3_linear" x1="275.337" y1="266.676" x2="430.004" y2="218.486" gradientUnits="userSpaceOnUse">
<stop stop-color="white"/>
<stop offset="1" stop-color="#F0F5FE"/>
</linearGradient>
<linearGradient id="paint4_linear" x1="19.4715" y1="0" x2="19.4715" y2="58.9238" gradientUnits="userSpaceOnUse">
<stop stop-color="#AFCDEE"/>
<stop offset="1" stop-color="#DCE9F7"/>
</linearGradient>
<linearGradient id="paint5_linear" x1="498.868" y1="218.653" x2="498.868" y2="261.649" gradientUnits="userSpaceOnUse">
<stop stop-color="#AFCDEE"/>
<stop offset="1" stop-color="#DCE9F7"/>
</linearGradient>
<linearGradient id="paint6_linear" x1="24.5099" y1="0" x2="24.5099" y2="74.1709" gradientUnits="userSpaceOnUse">
<stop stop-color="#AFCDEE"/>
<stop offset="1" stop-color="#DCE9F7"/>
</linearGradient>
<linearGradient id="paint7_linear" x1="616.817" y1="338.204" x2="560.316" y2="390.72" gradientUnits="userSpaceOnUse">
<stop stop-color="#AFCDEE"/>
<stop offset="1" stop-color="#DCE9F7"/>
</linearGradient>
<clipPath id="clip0">
<rect width="792" height="500" fill="white" transform="translate(0 0.5)"/>
</clipPath>
</defs>
</svg>
