<svg width="754" height="383" viewBox="0 0 754 383" fill="none" xmlns="http://www.w3.org/2000/svg">
<path d="M465.162 29.667C472.478 31.3846 474.973 40.5735 469.439 45.7004L442.932 70.2935C438.316 74.5509 430.928 73.2488 428.13 67.599L410.738 32.7005C407.204 25.6 413.504 17.483 421.353 19.3342L465.162 29.667Z" fill="#108CFF"/>
<rect x="193.656" y="44.3477" width="401.581" height="296.791" rx="96" fill="#E3EEFE"/>
<path d="M211.151 319.826C209.385 320.885 207.093 320.254 206.494 318.292C205.603 315.236 205.444 311.912 206.351 308.74C207.598 304.38 210.468 300.609 214.46 298.295C218.452 295.981 223.106 295.32 227.516 296.481C230.738 297.301 233.546 299.038 235.694 301.317C237.126 302.837 236.495 305.129 234.643 306.137C232.877 307.196 230.635 306.479 229.053 305.22C228.027 304.396 226.851 303.833 225.525 303.529C223.01 302.886 220.342 303.308 218.029 304.513C215.753 305.855 214.057 307.993 213.413 310.508C213.023 311.784 212.943 313.123 213.135 314.389C213.498 316.562 212.867 318.853 211.151 319.826Z" fill="#FFAB49"/>
<path d="M579.762 327.062C589.876 321.246 589.876 306.665 579.847 300.85L545.965 281.044C536.357 275.397 524.136 281.718 523.209 292.843L519.585 334.31C518.489 346.531 531.637 354.875 542.257 348.807L579.762 327.062Z" fill="#FFCA62"/>
<path opacity="0.3" fill-rule="evenodd" clip-rule="evenodd" d="M471.621 152.672V154.259H507.064C511.331 152.968 515.858 152.274 520.547 152.274L749.032 152.274C751.254 152.274 753.055 154.075 753.055 156.297V241.225C753.055 243.447 751.254 245.249 749.032 245.249L520.547 245.249C515.859 245.249 511.333 244.555 507.066 243.264H281.119C277.045 243.264 273.742 239.961 273.742 235.888V218.924H218.706C210.632 218.924 203.669 214.144 200.466 207.267C200.449 207.269 200.433 207.27 200.416 207.27C200.399 207.271 200.383 207.271 200.366 207.271H179.921C179.18 207.271 178.58 206.671 178.58 205.93L178.58 204.231H0.0581512V193.292H178.58L178.58 191.594C178.58 190.853 179.18 190.253 179.921 190.253H200.366C200.4 190.253 200.433 190.254 200.466 190.256C203.669 183.379 210.632 178.599 218.706 178.599H273.742V161.636C273.742 157.562 277.045 154.259 281.119 154.259H305.741V152.672C305.741 150.45 307.542 148.649 309.764 148.649H340.26C342.482 148.649 344.283 150.45 344.283 152.672V154.259H433.078V152.672C433.078 150.45 434.879 148.649 437.101 148.649H467.597C469.819 148.649 471.621 150.45 471.621 152.672ZM544.558 199.877C544.558 204.878 543.038 209.525 540.434 213.379C536.094 219.803 528.744 224.026 520.408 224.026C512.58 224.026 505.622 220.302 501.209 214.528C498.103 210.464 496.258 205.386 496.258 199.876C496.259 193.207 498.962 187.17 503.332 182.8C507.702 178.43 513.74 175.727 520.408 175.727C527.941 175.727 534.669 179.176 539.098 184.581C541.53 187.549 543.269 191.108 544.068 195.01C544.39 196.582 544.558 198.209 544.558 199.877Z" fill="#B0BFD9"/>
<path d="M207.707 185.846C207.707 185.105 207.107 184.504 206.366 184.504H185.921C185.18 184.504 184.58 185.105 184.58 185.846V200.182C184.58 200.922 185.18 201.523 185.921 201.523H206.366C207.107 201.523 207.707 200.922 207.707 200.182V185.846Z" fill="url(#paint0_linear)"/>
<path d="M279.742 172.851H224.706C213.595 172.851 204.589 181.903 204.589 193.014V193.014C204.589 204.124 213.595 213.176 224.706 213.176H279.742V172.851Z" fill="url(#paint1_linear)"/>
<path d="M0.0581207 187.577H184.533V198.577H0.0581207V187.577Z" fill="url(#paint2_linear)"/>
<path d="M439.078 148.511H477.62V146.924C477.62 144.702 475.819 142.901 473.597 142.901H443.101C440.879 142.901 439.078 144.702 439.078 146.924V148.511Z" fill="white"/>
<path d="M311.741 148.511H350.283V146.924C350.283 144.702 348.482 142.901 346.26 142.901H315.764C313.542 142.901 311.741 144.702 311.741 146.924V148.511Z" fill="white"/>
<path fill-rule="evenodd" clip-rule="evenodd" d="M287.118 148.511C283.044 148.511 279.742 151.814 279.742 155.887V230.139C279.742 234.213 283.044 237.516 287.118 237.516H565.625C569.698 237.516 573.001 234.213 573.001 230.139V155.887C573.001 151.814 569.698 148.511 565.625 148.511H287.118ZM526.409 218.278C539.746 218.278 550.559 207.466 550.559 194.128C550.559 180.79 539.746 169.978 526.409 169.978C513.071 169.978 502.259 180.79 502.259 194.128C502.259 207.466 513.071 218.278 526.409 218.278Z" fill="url(#paint3_linear)"/>
<path fill-rule="evenodd" clip-rule="evenodd" d="M527.033 146.576C501.352 146.576 480.533 167.395 480.533 193.076C480.533 218.757 501.352 239.576 527.033 239.576H746.681C749.995 239.576 752.681 236.89 752.681 233.576V152.576C752.681 149.262 749.995 146.576 746.681 146.576H527.033ZM526.409 218.278C539.746 218.278 550.559 207.465 550.559 194.128C550.559 180.79 539.746 169.977 526.409 169.977C513.071 169.977 502.258 180.79 502.258 194.128C502.258 207.465 513.071 218.278 526.409 218.278Z" fill="white"/>
<rect x="324.923" y="168.645" width="139.046" height="48.1942" rx="4.41186" fill="#57AEFF"/>
<path fill-rule="evenodd" clip-rule="evenodd" d="M405.909 185.47C406.499 186.072 406.47 187.022 405.846 187.591L390.747 201.341L383.456 194.311C382.848 193.725 382.848 192.775 383.456 192.189C384.063 191.604 385.048 191.604 385.655 192.189L390.809 197.159L403.71 185.409C404.334 184.841 405.319 184.868 405.909 185.47Z" fill="white"/>
<defs>
<linearGradient id="paint0_linear" x1="185.411" y1="191.842" x2="207.459" y2="191.842" gradientUnits="userSpaceOnUse">
<stop stop-color="white"/>
<stop offset="1" stop-color="#E4EBFA"/>
</linearGradient>
<linearGradient id="paint1_linear" x1="208.207" y1="195.579" x2="280.33" y2="195.579" gradientUnits="userSpaceOnUse">
<stop stop-color="white"/>
<stop offset="1" stop-color="#E4EBFA"/>
</linearGradient>
<linearGradient id="paint2_linear" x1="92.2957" y1="187.577" x2="204.012" y2="187.577" gradientUnits="userSpaceOnUse">
<stop stop-color="white"/>
<stop offset="1" stop-color="#E4EBFA"/>
</linearGradient>
<linearGradient id="paint3_linear" x1="426.371" y1="148.511" x2="426.371" y2="238.325" gradientUnits="userSpaceOnUse">
<stop stop-color="white"/>
<stop offset="1" stop-color="#F0F5FE"/>
</linearGradient>
</defs>
</svg>
