<svg width="792" height="441" viewBox="0 0 792 441" fill="none" xmlns="http://www.w3.org/2000/svg">
<g clip-path="url(#clip0)">
<path d="M465.36 26.5916C472.709 28.3141 475.191 37.53 469.615 42.6721L442.906 67.338C438.254 71.608 430.833 70.3021 428.036 64.6358L410.651 29.6349C407.118 22.5136 413.472 14.3726 421.356 16.2291L465.36 26.5916Z" fill="#405985"/>
<rect x="194" y="41.3643" width="402" height="296.757" rx="96" fill="#25395F"/>
<path d="M211.869 316.651C210.107 317.725 207.836 317.112 207.257 315.152C206.395 312.1 206.263 308.772 207.188 305.59C208.461 301.215 211.34 297.418 215.322 295.07C219.304 292.722 223.931 292.024 228.301 293.152C231.494 293.948 234.268 295.665 236.384 297.931C237.794 299.441 237.15 301.74 235.303 302.765C233.541 303.838 231.32 303.138 229.759 301.889C228.747 301.073 227.583 300.518 226.269 300.224C223.777 299.599 221.123 300.043 218.818 301.267C216.547 302.628 214.846 304.782 214.187 307.305C213.79 308.586 213.7 309.927 213.881 311.193C214.224 313.365 213.581 315.665 211.869 316.651Z" fill="#6E82A4"/>
<path d="M580.246 323.986C590.398 318.153 590.373 303.486 580.286 297.618L546.208 277.637C536.544 271.94 524.275 278.278 523.363 289.468L519.792 331.175C518.712 343.466 531.937 351.882 542.597 345.796L580.246 323.986Z" fill="#9AADCE"/>
<path d="M292.15 108.532C292.15 106.524 293.778 104.896 295.785 104.896H493.798C495.805 104.896 497.433 106.524 497.433 108.532V220.976C497.433 222.983 495.805 224.611 493.798 224.611H295.785C293.778 224.611 292.15 222.983 292.15 220.976V108.532Z" fill="#F2F6FE"/>
<rect x="295.874" y="110.598" width="197.835" height="108.312" rx="0.363557" fill="#C4D1E8"/>
<path d="M372.254 181.309H332.477C327.168 181.309 322.865 185.612 322.865 190.921V199.257C322.865 204.565 327.168 208.869 332.477 208.869L513.139 208.869C518.447 208.869 522.75 213.172 522.75 218.481V237.675C522.75 242.984 518.447 247.287 513.139 247.287H321.801" stroke="white" stroke-width="3.84476" stroke-linecap="round" stroke-linejoin="round"/>
<path d="M273.673 262.697C273.673 265.332 275.809 267.468 278.443 267.468H511.139C513.774 267.468 515.91 265.332 515.91 262.697V261.515H273.673V262.697Z" fill="#D8E3F5"/>
<path d="M370.181 261.574C370.181 263.681 371.89 265.402 373.998 265.402H415.585C417.693 265.402 419.401 263.681 419.401 261.574H370.181Z" fill="#C4D1E8"/>
<path d="M273.682 261.551H515.901L499.191 228.129C498.113 225.974 495.91 224.612 493.5 224.612H296.082C293.672 224.612 291.469 225.974 290.391 228.129L273.682 261.551Z" fill="#FCFCFE"/>
<path d="M305.617 230.248C304.962 230.248 304.37 230.638 304.113 231.24L298.355 244.688C297.893 245.767 298.685 246.968 299.859 246.968H489.724C490.876 246.968 491.667 245.809 491.248 244.736L485.991 231.288C485.746 230.661 485.141 230.248 484.467 230.248H305.617Z" fill="#C4D1E8"/>
<path d="M305.617 230.248C304.962 230.248 304.37 230.638 304.113 231.24L298.355 244.688C297.893 245.767 298.685 246.968 299.859 246.968H489.724C490.876 246.968 491.667 245.809 491.248 244.736L485.991 231.288C485.746 230.661 485.141 230.248 484.467 230.248H305.617Z" stroke="#FF0000"/>
<path d="M384.25 186.438C384.802 186.438 385.25 185.991 385.25 185.438L385.25 177.298C385.25 176.745 384.802 176.298 384.25 176.298L367.003 176.298C366.451 176.298 366.003 176.745 366.003 177.298L366.003 185.438C366.003 185.991 366.451 186.438 367.003 186.438L384.25 186.438Z" fill="#F0F5FE"/>
<path d="M378.742 188.534L378.742 174.203L366.501 174.203C365.083 174.203 363.934 175.352 363.934 176.769L363.934 185.968C363.934 187.385 365.083 188.534 366.501 188.534L378.742 188.534Z" fill="white"/>
<path fill-rule="evenodd" clip-rule="evenodd" d="M416.852 164.82C415.35 164.82 414.133 166.038 414.133 167.54V195.196C414.133 196.698 415.35 197.915 416.852 197.915H520.457C521.96 197.915 523.177 196.698 523.177 195.196V167.54C523.177 166.038 521.959 164.82 520.457 164.82H416.852ZM505.852 190.762C510.812 190.762 514.832 186.742 514.832 181.782C514.832 176.823 510.812 172.802 505.852 172.802C500.893 172.802 496.872 176.823 496.872 181.782C496.872 186.742 500.893 190.762 505.852 190.762Z" fill="#F0F5FE"/>
<path fill-rule="evenodd" clip-rule="evenodd" d="M493.276 169.247C486.525 175.997 486.525 186.942 493.276 193.693C500.026 200.443 510.971 200.443 517.721 193.693L587.938 123.476C588.94 122.474 588.94 120.849 587.938 119.847L567.121 99.0306C566.119 98.0284 564.494 98.0284 563.492 99.0306L493.276 169.247ZM512.105 188.149C515.612 184.642 515.612 178.956 512.105 175.449C508.598 171.943 502.912 171.943 499.406 175.449C495.899 178.956 495.899 184.642 499.406 188.149C502.912 191.656 508.598 191.656 512.105 188.149Z" fill="white"/>
<rect x="431.019" y="172.407" width="51.7023" height="17.9203" rx="2.81375" fill="#D8E3F5"/>
<path d="M394.768 163.738L392.112 158.982L397.425 158.982L394.768 163.738Z" fill="#FF6755"/>
<path d="M394.768 159.363C405.71 159.363 414.768 150.493 414.768 139.551C414.768 128.609 405.71 119.739 394.768 119.739C383.826 119.739 374.768 128.609 374.768 139.551C374.768 150.493 383.826 159.363 394.768 159.363Z" fill="#FF6755"/>
<path d="M396.254 143.395H393.35L393.031 129.129H396.587L396.254 143.395ZM392.934 147.757C392.934 147.229 393.105 146.794 393.448 146.451C393.79 146.099 394.258 145.923 394.851 145.923C395.443 145.923 395.911 146.099 396.254 146.451C396.596 146.794 396.768 147.229 396.768 147.757C396.768 148.266 396.601 148.692 396.267 149.035C395.934 149.377 395.462 149.549 394.851 149.549C394.239 149.549 393.767 149.377 393.434 149.035C393.1 148.692 392.934 148.266 392.934 147.757Z" fill="white"/>
</g>
<defs>
<clipPath id="clip0">
<rect width="792" height="440" fill="white" transform="translate(0 0.400391)"/>
</clipPath>
</defs>
</svg>
