<svg width="792" height="441" viewBox="0 0 792 441" fill="none" xmlns="http://www.w3.org/2000/svg">
<path opacity="0.1" fill-rule="evenodd" clip-rule="evenodd" d="M471.562 155.31V156.897H507.006C511.273 155.606 515.8 154.912 520.489 154.912L748.974 154.912C751.196 154.912 752.997 156.713 752.997 158.935V243.863C752.997 246.085 751.196 247.887 748.973 247.887L520.489 247.887C515.801 247.887 511.275 247.193 507.008 245.902H281.06C276.987 245.902 273.684 242.599 273.684 238.525V221.562H218.648C210.574 221.562 203.611 216.782 200.408 209.905C200.391 209.907 200.375 209.908 200.358 209.908C200.341 209.909 200.325 209.909 200.308 209.909H179.863C179.122 209.909 178.521 209.309 178.521 208.568L178.522 206.869H0V195.93H178.522L178.521 194.232C178.521 193.491 179.122 192.891 179.863 192.891H200.308C200.341 192.891 200.375 192.892 200.408 192.894C203.611 186.017 210.574 181.237 218.648 181.237H273.684V164.274C273.684 160.2 276.987 156.897 281.06 156.897H305.683V155.31C305.683 153.088 307.484 151.287 309.706 151.287H340.202C342.424 151.287 344.225 153.088 344.225 155.31V156.897H433.02V155.31C433.02 153.088 434.821 151.287 437.043 151.287H467.539C469.761 151.287 471.562 153.088 471.562 155.31ZM544.5 202.515C544.5 207.516 542.98 212.163 540.376 216.017C536.036 222.441 528.686 226.664 520.35 226.664C512.522 226.664 505.563 222.939 501.151 217.166C498.045 213.102 496.2 208.024 496.2 202.514C496.201 195.845 498.904 189.808 503.274 185.438C507.644 181.068 513.681 178.365 520.35 178.365C527.883 178.365 534.611 181.814 539.04 187.219C541.472 190.187 543.211 193.746 544.01 197.648C544.331 199.22 544.5 200.847 544.5 202.515Z" fill="#1B2D4B"/>
<path d="M207.649 188.484C207.649 187.743 207.049 187.143 206.308 187.143H185.863C185.122 187.143 184.522 187.743 184.522 188.484V202.82C184.522 203.561 185.122 204.161 185.863 204.161H206.308C207.049 204.161 207.649 203.561 207.649 202.82V188.484Z" fill="url(#paint0_linear)"/>
<path d="M279.684 175.489H224.647C213.537 175.489 204.53 184.541 204.53 195.652C204.53 206.762 213.537 215.814 224.647 215.814H279.684V175.489Z" fill="url(#paint1_linear)"/>
<path d="M0 190.215H184.475V201.215H0V190.215Z" fill="url(#paint2_linear)"/>
<path d="M439.02 151.15H477.562V149.563C477.562 147.341 475.761 145.539 473.539 145.539H443.043C440.821 145.539 439.02 147.341 439.02 149.563V151.15Z" fill="white"/>
<path d="M311.683 151.15H350.225V149.563C350.225 147.341 348.424 145.539 346.202 145.539H315.706C313.484 145.539 311.683 147.341 311.683 149.563V151.15Z" fill="white"/>
<path fill-rule="evenodd" clip-rule="evenodd" d="M287.06 151.149C282.986 151.149 279.684 154.451 279.684 158.525V232.777C279.684 236.851 282.986 240.154 287.06 240.154H565.566C569.64 240.154 572.943 236.851 572.943 232.777V158.525C572.943 154.451 569.64 151.149 565.566 151.149H287.06ZM526.35 220.916C539.688 220.916 550.501 210.104 550.501 196.766C550.501 183.428 539.688 172.616 526.35 172.616C513.013 172.616 502.2 183.428 502.2 196.766C502.2 210.104 513.013 220.916 526.35 220.916Z" fill="url(#paint3_linear)"/>
<path fill-rule="evenodd" clip-rule="evenodd" d="M526.975 149.214C501.293 149.214 480.475 170.033 480.475 195.714C480.475 221.395 501.293 242.214 526.975 242.214H746.623C749.937 242.214 752.623 239.528 752.623 236.214V155.214C752.623 151.901 749.937 149.214 746.623 149.214H526.975ZM526.35 220.916C539.688 220.916 550.5 210.104 550.5 196.766C550.5 183.428 539.688 172.616 526.35 172.616C513.012 172.616 502.2 183.428 502.2 196.766C502.2 210.104 513.012 220.916 526.35 220.916Z" fill="white"/>
<rect x="324.865" y="171.284" width="139.046" height="48.1942" rx="4.41186" fill="#57AEFF"/>
<rect x="333.472" y="196.926" width="1.29313" height="1.29313" transform="rotate(-180 333.472 196.926)" fill="white"/>
<rect x="335.504" y="199.18" width="1.29313" height="1.29313" transform="rotate(-180 335.504 199.18)" fill="white"/>
<rect width="1.29313" height="1.29313" transform="matrix(-1 -8.74228e-08 -8.74228e-08 1 335.504 193.417)" fill="white"/>
<rect x="337.536" y="200.917" width="1.29313" height="1.29313" transform="rotate(-180 337.536 200.917)" fill="white"/>
<rect width="1.29313" height="1.29313" transform="matrix(-1 -8.74228e-08 -8.74228e-08 1 337.536 191.68)" fill="white"/>
<rect x="339.567" y="202.764" width="1.29313" height="1.29313" transform="rotate(-180 339.567 202.764)" fill="white"/>
<rect width="1.29313" height="1.29313" transform="matrix(-1 -8.74228e-08 -8.74228e-08 1 339.568 189.833)" fill="white"/>
<rect width="1.29313" height="1.29313" transform="matrix(1 -8.74228e-08 -8.74228e-08 -1 453.606 196.926)" fill="white"/>
<rect width="1.29313" height="1.29313" transform="matrix(1 -8.74228e-08 -8.74228e-08 -1 451.574 199.18)" fill="white"/>
<rect x="451.574" y="193.417" width="1.29313" height="1.29313" fill="white"/>
<rect width="1.29313" height="1.29313" transform="matrix(1 -8.74228e-08 -8.74228e-08 -1 449.542 200.917)" fill="white"/>
<rect x="449.542" y="191.68" width="1.29313" height="1.29313" fill="white"/>
<rect width="1.29313" height="1.29313" transform="matrix(1 -8.74228e-08 -8.74228e-08 -1 447.51 202.764)" fill="white"/>
<rect x="447.51" y="189.833" width="1.29313" height="1.29313" fill="white"/>
<path d="M364.479 207.47H365.608V202.23H364.479V207.47ZM367.844 207.47H368.965V204.083L371.49 207.47H372.619V202.23H371.49V205.617L368.965 202.23H367.844V207.47ZM376.833 207.562C378.115 207.562 378.87 206.898 378.87 205.899C378.87 204.93 378.122 204.594 376.993 204.343C376.185 204.16 375.872 204.037 375.872 203.656C375.872 203.343 376.162 203.092 376.642 203.092C377.146 203.092 377.672 203.298 378.138 203.671L378.725 202.863C378.191 202.405 377.527 202.138 376.673 202.138C375.529 202.138 374.735 202.802 374.735 203.77C374.735 204.785 375.521 205.098 376.627 205.35C377.428 205.533 377.733 205.647 377.733 206.021C377.733 206.349 377.443 206.608 376.879 206.608C376.215 206.608 375.651 206.349 375.155 205.922L374.506 206.692C375.117 207.257 375.925 207.562 376.833 207.562ZM382.179 207.47H383.308V203.244H384.941V202.23H380.547V203.244H382.179V207.47ZM390.287 207.47H391.554L389.418 202.23H388.159L386.023 207.47H387.282L387.617 206.646H389.952L390.287 207.47ZM388.007 205.693L388.785 203.778L389.563 205.693H388.007ZM394.406 206.456V202.23H393.277V207.47H397.015V206.456H394.406ZM399.976 206.456V202.23H398.847V207.47H402.585V206.456H399.976ZM411.574 207.47H412.84L410.704 202.23H409.445L407.309 207.47H408.568L408.904 206.646H411.238L411.574 207.47ZM409.293 205.693L410.071 203.778L410.849 205.693H409.293ZM414.602 207.47H415.723V205.769H416.959C418.096 205.769 418.935 205.037 418.935 203.999C418.935 202.962 418.096 202.23 416.959 202.23H414.602V207.47ZM415.723 204.739V203.259H416.837C417.394 203.259 417.775 203.549 417.775 203.999C417.775 204.449 417.394 204.739 416.837 204.739H415.723ZM420.782 207.47H421.903V205.769H423.139C424.276 205.769 425.115 205.037 425.115 203.999C425.115 202.962 424.276 202.23 423.139 202.23H420.782V207.47ZM421.903 204.739V203.259H423.017C423.574 203.259 423.955 203.549 423.955 203.999C423.955 204.449 423.574 204.739 423.017 204.739H421.903Z" fill="white"/>
<path fill-rule="evenodd" clip-rule="evenodd" d="M389.45 182.031V183.066H388.415V184.1H387.381V194.445H388.415V195.48H389.45V196.514H399.795V195.48H400.829V194.445H401.864V184.1H400.829V183.066H399.795V182.031H389.45ZM397.726 185.135V184.1H391.519V185.135H393.588V188.238H392.553V189.273H393.588V190.307H392.553V191.342H393.588V193.411H391.519V194.445H397.726V193.411H395.657V191.342H396.691V190.307H395.657V189.273H396.691V188.238H395.657V185.135L397.726 185.135Z" fill="#FAFCFE"/>
<defs>
<linearGradient id="paint0_linear" x1="185.353" y1="194.48" x2="207.401" y2="194.48" gradientUnits="userSpaceOnUse">
<stop stop-color="white"/>
<stop offset="1" stop-color="#E4EBFA"/>
</linearGradient>
<linearGradient id="paint1_linear" x1="208.148" y1="198.217" x2="280.271" y2="198.217" gradientUnits="userSpaceOnUse">
<stop stop-color="white"/>
<stop offset="1" stop-color="#E4EBFA"/>
</linearGradient>
<linearGradient id="paint2_linear" x1="92.2376" y1="190.215" x2="203.954" y2="190.215" gradientUnits="userSpaceOnUse">
<stop stop-color="white"/>
<stop offset="1" stop-color="#E4EBFA"/>
</linearGradient>
<linearGradient id="paint3_linear" x1="426.313" y1="151.149" x2="426.313" y2="240.963" gradientUnits="userSpaceOnUse">
<stop stop-color="white"/>
<stop offset="1" stop-color="#F0F5FE"/>
</linearGradient>
</defs>
</svg>
