<svg width="793" height="441" viewBox="0 0 793 441" fill="none" xmlns="http://www.w3.org/2000/svg">
<g clip-path="url(#clip0)">
<path d="M465.61 26.3905C472.959 28.113 475.441 37.3288 469.865 42.471L443.156 67.1368C438.504 71.4069 431.083 70.101 428.286 64.4346L410.901 29.4337C407.368 22.3124 413.722 14.1714 421.606 16.0279L465.61 26.3905Z" fill="#108CFF"/>
<rect x="194.25" y="41.1631" width="402" height="296.757" rx="96" fill="#E3EEFE"/>
<path d="M212.119 316.45C210.357 317.524 208.086 316.91 207.507 314.95C206.645 311.898 206.513 308.571 207.438 305.389C208.711 301.014 211.59 297.217 215.572 294.869C219.554 292.521 224.181 291.823 228.551 292.951C231.744 293.747 234.518 295.464 236.634 297.729C238.044 299.24 237.4 301.539 235.553 302.564C233.791 303.637 231.57 302.937 230.009 301.688C228.997 300.872 227.833 300.317 226.519 300.023C224.027 299.398 221.373 299.842 219.068 301.066C216.797 302.427 215.096 304.581 214.437 307.104C214.04 308.384 213.95 309.726 214.131 310.992C214.474 313.164 213.831 315.463 212.119 316.45Z" fill="#FFAB49"/>
<path d="M580.496 323.784C590.648 317.951 590.623 303.284 580.536 297.417L546.458 277.435C536.794 271.738 524.525 278.076 523.613 289.266L520.042 330.973C518.962 343.265 532.187 351.68 542.847 345.594L580.496 323.784Z" fill="#FFCA62"/>
<path opacity="0.3" fill-rule="evenodd" clip-rule="evenodd" d="M471.871 154.871V156.458H507.314C511.582 155.167 516.109 154.473 520.798 154.473L749.282 154.473C751.504 154.473 753.306 156.274 753.306 158.496V243.424C753.306 245.646 751.504 247.448 749.282 247.448L520.798 247.448C516.11 247.448 511.584 246.754 507.317 245.463H281.369C277.295 245.463 273.993 242.16 273.993 238.087V221.123H218.956C210.882 221.123 203.919 216.343 200.716 209.466C200.7 209.468 200.683 209.469 200.666 209.469C200.65 209.47 200.633 209.47 200.617 209.47H180.171C179.43 209.47 178.83 208.87 178.83 208.129L178.83 206.43H0.308594V195.491H178.83L178.83 193.793C178.83 193.052 179.43 192.452 180.171 192.452H200.617C200.65 192.452 200.683 192.453 200.716 192.455C203.919 185.578 210.882 180.798 218.956 180.798H273.993V163.835C273.993 159.761 277.295 156.458 281.369 156.458H305.991V154.871C305.991 152.649 307.793 150.848 310.015 150.848H340.51C342.732 150.848 344.534 152.649 344.534 154.871V156.458H433.328V154.871C433.328 152.649 435.13 150.848 437.352 150.848H467.847C470.07 150.848 471.871 152.649 471.871 154.871ZM544.809 202.076C544.809 207.077 543.288 211.724 540.684 215.578C536.344 222.002 528.995 226.225 520.659 226.225C512.831 226.225 505.872 222.501 501.459 216.727C498.354 212.663 496.509 207.585 496.509 202.075C496.509 195.406 499.212 189.369 503.582 184.999C507.953 180.629 513.99 177.926 520.659 177.926C528.192 177.926 534.919 181.375 539.348 186.78C541.781 189.748 543.52 193.307 544.318 197.209C544.64 198.781 544.809 200.408 544.809 202.076Z" fill="#B0BFD9"/>
<path d="M207.958 188.045C207.958 187.304 207.358 186.704 206.617 186.704H186.171C185.431 186.704 184.83 187.304 184.83 188.045V202.381C184.83 203.122 185.431 203.722 186.171 203.722H206.617C207.358 203.722 207.958 203.122 207.958 202.381V188.045Z" fill="url(#paint0_linear)"/>
<path d="M279.992 175.05H224.956C213.845 175.05 204.839 184.102 204.839 195.213C204.839 206.323 213.845 215.375 224.956 215.375H279.992V175.05Z" fill="url(#paint1_linear)"/>
<path d="M0.308594 189.776H184.784V200.776H0.308594V189.776Z" fill="url(#paint2_linear)"/>
<path d="M439.328 150.711H477.871V149.124C477.871 146.902 476.069 145.1 473.847 145.1H443.352C441.13 145.1 439.328 146.902 439.328 149.124V150.711Z" fill="white"/>
<path d="M311.991 150.711H350.534V149.124C350.534 146.902 348.732 145.1 346.51 145.1H316.015C313.793 145.1 311.991 146.902 311.991 149.124V150.711Z" fill="white"/>
<path fill-rule="evenodd" clip-rule="evenodd" d="M287.369 150.71C283.295 150.71 279.992 154.012 279.992 158.086V232.338C279.992 236.412 283.295 239.715 287.369 239.715H565.875C569.949 239.715 573.251 236.412 573.251 232.338V158.086C573.251 154.012 569.949 150.71 565.875 150.71H287.369ZM526.659 220.477C539.997 220.477 550.809 209.665 550.809 196.327C550.809 182.989 539.997 172.177 526.659 172.177C513.321 172.177 502.509 182.989 502.509 196.327C502.509 209.665 513.321 220.477 526.659 220.477Z" fill="url(#paint3_linear)"/>
<path fill-rule="evenodd" clip-rule="evenodd" d="M527.283 148.775C501.602 148.775 480.783 169.594 480.783 195.275C480.783 220.957 501.602 241.775 527.283 241.775H746.931C750.245 241.775 752.931 239.089 752.931 235.775V154.775C752.931 151.462 750.245 148.775 746.931 148.775H527.283ZM526.659 220.477C539.996 220.477 550.809 209.665 550.809 196.327C550.809 182.989 539.996 172.177 526.659 172.177C513.321 172.177 502.509 182.989 502.509 196.327C502.509 209.665 513.321 220.477 526.659 220.477Z" fill="white"/>
<rect x="325.174" y="170.845" width="139.046" height="48.1942" rx="4.41186" fill="#57AEFF"/>
<rect x="333.78" y="196.486" width="1.29313" height="1.29313" transform="rotate(-180 333.78 196.486)" fill="white"/>
<rect x="335.812" y="198.74" width="1.29313" height="1.29313" transform="rotate(-180 335.812 198.74)" fill="white"/>
<rect width="1.29313" height="1.29313" transform="matrix(-1 -8.74228e-08 -8.74228e-08 1 335.812 192.977)" fill="white"/>
<rect x="337.845" y="200.477" width="1.29313" height="1.29313" transform="rotate(-180 337.845 200.477)" fill="white"/>
<rect width="1.29313" height="1.29313" transform="matrix(-1 -8.74228e-08 -8.74228e-08 1 337.845 191.24)" fill="white"/>
<rect x="339.876" y="202.324" width="1.29313" height="1.29313" transform="rotate(-180 339.876 202.324)" fill="white"/>
<rect width="1.29313" height="1.29313" transform="matrix(-1 -8.74228e-08 -8.74228e-08 1 339.877 189.393)" fill="white"/>
<rect width="1.29313" height="1.29313" transform="matrix(1 -8.74228e-08 -8.74228e-08 -1 453.915 196.486)" fill="white"/>
<rect width="1.29313" height="1.29313" transform="matrix(1 -8.74228e-08 -8.74228e-08 -1 451.883 198.74)" fill="white"/>
<rect x="451.883" y="192.977" width="1.29313" height="1.29313" fill="white"/>
<rect width="1.29313" height="1.29313" transform="matrix(1 -8.74228e-08 -8.74228e-08 -1 449.851 200.477)" fill="white"/>
<rect x="449.851" y="191.24" width="1.29313" height="1.29313" fill="white"/>
<rect width="1.29313" height="1.29313" transform="matrix(1 -8.74228e-08 -8.74228e-08 -1 447.818 202.324)" fill="white"/>
<rect x="447.818" y="189.393" width="1.29313" height="1.29313" fill="white"/>
<rect x="458.768" y="135.667" width="2.64163" height="2.64163" transform="rotate(90 458.768 135.667)" fill="#108CFF"/>
<rect x="458.768" y="131.685" width="2.64163" height="2.64163" transform="rotate(90 458.768 131.685)" fill="#108CFF"/>
<rect x="458.768" y="127.703" width="2.64163" height="2.64163" transform="rotate(90 458.768 127.703)" fill="#108CFF"/>
<rect x="458.768" y="123.722" width="2.64163" height="2.64163" transform="rotate(90 458.768 123.722)" fill="#108CFF"/>
<rect x="458.768" y="119.74" width="2.64163" height="2.64163" transform="rotate(90 458.768 119.74)" fill="#108CFF"/>
<rect x="458.768" y="115.758" width="2.64163" height="2.64163" transform="rotate(90 458.768 115.758)" fill="#108CFF"/>
<rect x="458.768" y="111.776" width="2.64163" height="2.64163" transform="rotate(90 458.768 111.776)" fill="#108CFF"/>
<rect x="463.371" y="131.516" width="2.64163" height="2.64163" transform="rotate(90 463.371 131.516)" fill="#108CFF"/>
<rect width="2.64163" height="2.64163" transform="matrix(-4.37114e-08 1 1 4.37114e-08 451.599 131.516)" fill="#108CFF"/>
<rect x="466.92" y="127.365" width="2.64163" height="2.64163" transform="rotate(90 466.92 127.365)" fill="#108CFF"/>
<rect width="2.64163" height="2.64163" transform="matrix(-4.37114e-08 1 1 4.37114e-08 448.051 127.365)" fill="#108CFF"/>
<rect x="470.693" y="123.213" width="2.64163" height="2.64163" transform="rotate(90 470.693 123.213)" fill="#108CFF"/>
<rect width="2.64163" height="2.64163" transform="matrix(-4.37114e-08 1 1 4.37114e-08 444.277 123.213)" fill="#108CFF"/>
<rect x="333.299" y="135.667" width="2.64163" height="2.64163" transform="rotate(90 333.299 135.667)" fill="#108CFF"/>
<rect x="333.299" y="131.685" width="2.64163" height="2.64163" transform="rotate(90 333.299 131.685)" fill="#108CFF"/>
<rect x="333.299" y="127.703" width="2.64163" height="2.64163" transform="rotate(90 333.299 127.703)" fill="#108CFF"/>
<rect x="333.299" y="123.722" width="2.64163" height="2.64163" transform="rotate(90 333.299 123.722)" fill="#108CFF"/>
<rect x="333.299" y="119.74" width="2.64163" height="2.64163" transform="rotate(90 333.299 119.74)" fill="#108CFF"/>
<rect x="333.299" y="115.758" width="2.64163" height="2.64163" transform="rotate(90 333.299 115.758)" fill="#108CFF"/>
<rect x="333.299" y="111.776" width="2.64163" height="2.64163" transform="rotate(90 333.299 111.776)" fill="#108CFF"/>
<rect x="337.902" y="131.516" width="2.64163" height="2.64163" transform="rotate(90 337.902 131.516)" fill="#108CFF"/>
<rect width="2.64163" height="2.64163" transform="matrix(-4.37114e-08 1 1 4.37114e-08 326.13 131.516)" fill="#108CFF"/>
<rect x="341.451" y="127.365" width="2.64163" height="2.64163" transform="rotate(90 341.451 127.365)" fill="#108CFF"/>
<rect width="2.64163" height="2.64163" transform="matrix(-4.37114e-08 1 1 4.37114e-08 322.582 127.365)" fill="#108CFF"/>
<rect x="345.225" y="123.213" width="2.64163" height="2.64163" transform="rotate(90 345.225 123.213)" fill="#108CFF"/>
<rect width="2.64163" height="2.64163" transform="matrix(-4.37114e-08 1 1 4.37114e-08 318.809 123.213)" fill="#108CFF"/>
<path d="M358.25 187.699L361.836 184.113C362.617 183.332 363.883 183.332 364.664 184.113L366.836 186.285C367.617 187.066 368.883 187.066 369.664 186.285L371.836 184.113C372.617 183.332 373.883 183.332 374.664 184.113L376.836 186.285C377.617 187.066 378.883 187.066 379.664 186.285L381.836 184.113C382.617 183.332 383.883 183.332 384.664 184.113L386.836 186.285C387.617 187.066 388.883 187.066 389.664 186.285L391.836 184.113C392.617 183.332 393.883 183.332 394.664 184.113L396.836 186.285C397.617 187.066 398.883 187.066 399.664 186.285L401.836 184.113C402.617 183.332 403.883 183.332 404.664 184.113L406.836 186.285C407.617 187.066 408.883 187.066 409.664 186.285L411.836 184.113C412.617 183.332 413.883 183.332 414.664 184.113L416.836 186.285C417.617 187.066 418.883 187.066 419.664 186.285L421.836 184.113C422.617 183.332 423.883 183.332 424.664 184.113L426.836 186.285C427.617 187.066 428.883 187.066 429.664 186.285L433.25 182.699" stroke="white" stroke-width="2" stroke-linecap="round" stroke-linejoin="round"/>
<path d="M358.25 198.699L361.836 195.113C362.617 194.332 363.883 194.332 364.664 195.113L366.836 197.285C367.617 198.066 368.883 198.066 369.664 197.285L371.836 195.113C372.617 194.332 373.883 194.332 374.664 195.113L376.836 197.285C377.617 198.066 378.883 198.066 379.664 197.285L381.836 195.113C382.617 194.332 383.883 194.332 384.664 195.113L386.836 197.285C387.617 198.066 388.883 198.066 389.664 197.285L391.836 195.113C392.617 194.332 393.883 194.332 394.664 195.113L396.836 197.285C397.617 198.066 398.883 198.066 399.664 197.285L401.836 195.113C402.617 194.332 403.883 194.332 404.664 195.113L406.836 197.285C407.617 198.066 408.883 198.066 409.664 197.285L411.836 195.113C412.617 194.332 413.883 194.332 414.664 195.113L416.836 197.285C417.617 198.066 418.883 198.066 419.664 197.285L421.836 195.113C422.617 194.332 423.883 194.332 424.664 195.113L426.836 197.285C427.617 198.066 428.883 198.066 429.664 197.285L433.25 193.699" stroke="white" stroke-width="2" stroke-linecap="round" stroke-linejoin="round"/>
<path d="M358.25 209.699L361.836 206.113C362.617 205.332 363.883 205.332 364.664 206.113L366.836 208.285C367.617 209.066 368.883 209.066 369.664 208.285L371.836 206.113C372.617 205.332 373.883 205.332 374.664 206.113L376.836 208.285C377.617 209.066 378.883 209.066 379.664 208.285L381.836 206.113C382.617 205.332 383.883 205.332 384.664 206.113L386.836 208.285C387.617 209.066 388.883 209.066 389.664 208.285L391.836 206.113C392.617 205.332 393.883 205.332 394.664 206.113L396.836 208.285C397.617 209.066 398.883 209.066 399.664 208.285L401.836 206.113C402.617 205.332 403.883 205.332 404.664 206.113L406.836 208.285C407.617 209.066 408.883 209.066 409.664 208.285L411.836 206.113C412.617 205.332 413.883 205.332 414.664 206.113L416.836 208.285C417.617 209.066 418.883 209.066 419.664 208.285L421.836 206.113C422.617 205.332 423.883 205.332 424.664 206.113L426.836 208.285C427.617 209.066 428.883 209.066 429.664 208.285L433.25 204.699" stroke="white" stroke-width="2" stroke-linecap="round" stroke-linejoin="round"/>
</g>
<defs>
<linearGradient id="paint0_linear" x1="185.661" y1="194.042" x2="207.709" y2="194.042" gradientUnits="userSpaceOnUse">
<stop stop-color="white"/>
<stop offset="1" stop-color="#E4EBFA"/>
</linearGradient>
<linearGradient id="paint1_linear" x1="208.457" y1="197.778" x2="280.58" y2="197.778" gradientUnits="userSpaceOnUse">
<stop stop-color="white"/>
<stop offset="1" stop-color="#E4EBFA"/>
</linearGradient>
<linearGradient id="paint2_linear" x1="92.5462" y1="189.776" x2="204.263" y2="189.776" gradientUnits="userSpaceOnUse">
<stop stop-color="white"/>
<stop offset="1" stop-color="#E4EBFA"/>
</linearGradient>
<linearGradient id="paint3_linear" x1="426.622" y1="150.71" x2="426.622" y2="240.524" gradientUnits="userSpaceOnUse">
<stop stop-color="white"/>
<stop offset="1" stop-color="#F0F5FE"/>
</linearGradient>
<clipPath id="clip0">
<rect width="792" height="440" fill="white" transform="translate(0.25 0.199219)"/>
</clipPath>
</defs>
</svg>
