<svg width="634" height="342" viewBox="0 0 634 342" fill="none" xmlns="http://www.w3.org/2000/svg">
<g clip-path="url(#clip0)">
<path opacity="0.3" fill-rule="evenodd" clip-rule="evenodd" d="M629.591 138.274L443.138 138.274C438.449 138.274 433.923 138.968 429.655 140.26H394.212V138.673C394.212 136.451 392.41 134.649 390.188 134.649H359.693C357.471 134.649 355.669 136.451 355.669 138.673V140.26H266.875V138.673C266.875 136.451 265.073 134.649 262.851 134.649H232.356C230.134 134.649 228.332 136.451 228.332 138.673V140.26H203.71C199.636 140.26 196.333 143.562 196.333 147.636V164.6H141.297C133.223 164.6 126.26 169.38 123.057 176.257C123.024 176.254 122.991 176.253 122.957 176.253H102.512C101.771 176.253 101.171 176.854 101.171 177.594L101.171 179.292H-4.35059V190.232H101.171L101.171 191.93C101.171 192.671 101.771 193.272 102.512 193.272H122.957C122.974 193.272 122.991 193.271 123.007 193.271C123.024 193.27 123.041 193.269 123.057 193.268C126.26 200.145 133.223 204.925 141.297 204.925H196.333V221.888C196.333 225.962 199.636 229.264 203.71 229.264H429.658C433.924 230.555 438.45 231.249 443.138 231.249L629.591 231.249V138.274ZM463.025 199.38C465.629 195.525 467.15 190.879 467.15 185.877C467.15 184.21 466.981 182.582 466.659 181.01C465.861 177.109 464.122 173.55 461.689 170.581C457.26 165.176 450.533 161.727 443 161.727C436.331 161.727 430.293 164.43 425.923 168.801C421.553 173.171 418.85 179.208 418.85 185.876C418.85 191.386 420.694 196.465 423.8 200.528C428.213 206.302 435.171 210.026 443 210.026C451.335 210.026 458.685 205.803 463.025 199.38Z" fill="#B0BFD9"/>
<path d="M130.299 171.846C130.299 171.105 129.699 170.505 128.958 170.505H108.513C107.772 170.505 107.171 171.105 107.171 171.846V186.182C107.171 186.923 107.772 187.523 108.513 187.523H128.958C129.699 187.523 130.299 186.923 130.299 186.182V171.846Z" fill="url(#paint0_linear)"/>
<path d="M202.334 158.852H147.298C136.187 158.852 127.18 167.904 127.18 179.014V179.014C127.18 190.125 136.187 199.177 147.298 199.177H202.334V158.852Z" fill="url(#paint1_linear)"/>
<path d="M-4.3501 173.577H107.125V184.577H-4.3501V173.577Z" fill="url(#paint2_linear)"/>
<path d="M361.669 134.512H400.212V132.925C400.212 130.703 398.411 128.901 396.188 128.901H365.693C363.471 128.901 361.669 130.703 361.669 132.925V134.512Z" fill="white"/>
<path d="M234.332 134.512H272.875V132.925C272.875 130.703 271.074 128.901 268.851 128.901H238.356C236.134 128.901 234.332 130.703 234.332 132.925V134.512Z" fill="white"/>
<path fill-rule="evenodd" clip-rule="evenodd" d="M209.71 134.511C205.636 134.511 202.333 137.814 202.333 141.888V216.14C202.333 220.214 205.636 223.516 209.71 223.516H488.216C492.29 223.516 495.593 220.214 495.593 216.14V141.888C495.593 137.814 492.29 134.511 488.216 134.511H209.71ZM449 204.279C462.338 204.279 473.15 193.466 473.15 180.128C473.15 166.791 462.338 155.978 449 155.978C435.663 155.978 424.85 166.791 424.85 180.128C424.85 193.466 435.663 204.279 449 204.279Z" fill="url(#paint3_linear)"/>
<path fill-rule="evenodd" clip-rule="evenodd" d="M449.625 132.576C423.944 132.576 403.125 153.395 403.125 179.076C403.125 204.758 423.944 225.576 449.625 225.576H624.273C627.587 225.576 630.273 222.89 630.273 219.576V138.576C630.273 135.263 627.587 132.576 624.273 132.576H449.625ZM449 204.278C462.338 204.278 473.15 193.466 473.15 180.128C473.15 166.79 462.338 155.978 449 155.978C435.663 155.978 424.85 166.79 424.85 180.128C424.85 193.466 435.663 204.278 449 204.278Z" fill="white"/>
<rect x="247.515" y="154.646" width="139.046" height="48.1942" rx="4.41186" fill="#57AEFF"/>
<circle cx="265.038" cy="178.742" r="6" fill="white"/>
<circle cx="282.038" cy="178.742" r="6" fill="white"/>
<circle cx="299.038" cy="178.742" r="6" fill="white"/>
<circle cx="316.038" cy="178.742" r="6" fill="white"/>
<circle cx="333.038" cy="178.742" r="6" fill="white"/>
<circle cx="350.038" cy="178.742" r="6" fill="white"/>
<rect x="361.038" y="187.497" width="14" height="3" fill="white"/>
<rect x="381.11" y="119.468" width="2.64163" height="2.64163" transform="rotate(90 381.11 119.468)" fill="#108CFF"/>
<rect x="381.11" y="115.486" width="2.64163" height="2.64163" transform="rotate(90 381.11 115.486)" fill="#108CFF"/>
<rect x="381.11" y="111.504" width="2.64163" height="2.64163" transform="rotate(90 381.11 111.504)" fill="#108CFF"/>
<rect x="381.11" y="107.522" width="2.64163" height="2.64163" transform="rotate(90 381.11 107.522)" fill="#108CFF"/>
<rect x="381.11" y="103.541" width="2.64163" height="2.64163" transform="rotate(90 381.11 103.541)" fill="#108CFF"/>
<rect x="381.11" y="99.5589" width="2.64163" height="2.64163" transform="rotate(90 381.11 99.5589)" fill="#108CFF"/>
<rect x="381.11" y="95.5771" width="2.64163" height="2.64163" transform="rotate(90 381.11 95.5771)" fill="#108CFF"/>
<rect x="385.713" y="115.316" width="2.64163" height="2.64163" transform="rotate(90 385.713 115.316)" fill="#108CFF"/>
<rect width="2.64163" height="2.64163" transform="matrix(-4.37114e-08 1 1 4.37114e-08 373.941 115.316)" fill="#108CFF"/>
<rect x="389.261" y="111.165" width="2.64163" height="2.64163" transform="rotate(90 389.261 111.165)" fill="#108CFF"/>
<rect width="2.64163" height="2.64163" transform="matrix(-4.37114e-08 1 1 4.37114e-08 370.393 111.165)" fill="#108CFF"/>
<rect x="393.035" y="107.014" width="2.64163" height="2.64163" transform="rotate(90 393.035 107.014)" fill="#108CFF"/>
<rect width="2.64163" height="2.64163" transform="matrix(-4.37114e-08 1 1 4.37114e-08 366.619 107.014)" fill="#108CFF"/>
<rect x="255.641" y="119.468" width="2.64163" height="2.64163" transform="rotate(90 255.641 119.468)" fill="#108CFF"/>
<rect x="255.641" y="115.486" width="2.64163" height="2.64163" transform="rotate(90 255.641 115.486)" fill="#108CFF"/>
<rect x="255.641" y="111.504" width="2.64163" height="2.64163" transform="rotate(90 255.641 111.504)" fill="#108CFF"/>
<rect x="255.641" y="107.522" width="2.64163" height="2.64163" transform="rotate(90 255.641 107.522)" fill="#108CFF"/>
<rect x="255.641" y="103.541" width="2.64163" height="2.64163" transform="rotate(90 255.641 103.541)" fill="#108CFF"/>
<rect x="255.641" y="99.5589" width="2.64163" height="2.64163" transform="rotate(90 255.641 99.5589)" fill="#108CFF"/>
<rect x="255.641" y="95.5771" width="2.64163" height="2.64163" transform="rotate(90 255.641 95.5771)" fill="#108CFF"/>
<rect x="260.244" y="115.316" width="2.64163" height="2.64163" transform="rotate(90 260.244 115.316)" fill="#108CFF"/>
<rect width="2.64163" height="2.64163" transform="matrix(-4.37114e-08 1 1 4.37114e-08 248.472 115.316)" fill="#108CFF"/>
<rect x="263.793" y="111.165" width="2.64163" height="2.64163" transform="rotate(90 263.793 111.165)" fill="#108CFF"/>
<rect width="2.64163" height="2.64163" transform="matrix(-4.37114e-08 1 1 4.37114e-08 244.924 111.165)" fill="#108CFF"/>
<rect x="267.566" y="107.014" width="2.64163" height="2.64163" transform="rotate(90 267.566 107.014)" fill="#108CFF"/>
<rect width="2.64163" height="2.64163" transform="matrix(-4.37114e-08 1 1 4.37114e-08 241.15 107.014)" fill="#108CFF"/>
</g>
<defs>
<linearGradient id="paint0_linear" x1="108.003" y1="177.843" x2="130.051" y2="177.843" gradientUnits="userSpaceOnUse">
<stop stop-color="white"/>
<stop offset="1" stop-color="#E4EBFA"/>
</linearGradient>
<linearGradient id="paint1_linear" x1="130.799" y1="181.58" x2="202.922" y2="181.58" gradientUnits="userSpaceOnUse">
<stop stop-color="white"/>
<stop offset="1" stop-color="#E4EBFA"/>
</linearGradient>
<linearGradient id="paint2_linear" x1="14.8875" y1="173.577" x2="126.604" y2="173.577" gradientUnits="userSpaceOnUse">
<stop stop-color="white"/>
<stop offset="1" stop-color="#E4EBFA"/>
</linearGradient>
<linearGradient id="paint3_linear" x1="348.963" y1="134.511" x2="348.963" y2="224.325" gradientUnits="userSpaceOnUse">
<stop stop-color="white"/>
<stop offset="1" stop-color="#F0F5FE"/>
</linearGradient>
<clipPath id="clip0">
<rect width="634" height="341" fill="white" transform="translate(0 0.900391)"/>
</clipPath>
</defs>
</svg>
