<svg width="634" height="342" viewBox="0 0 634 342" fill="none" xmlns="http://www.w3.org/2000/svg">
<g clip-path="url(#clip0)">
<path d="M387.79 15.4197C395.114 17.1381 397.611 26.3313 392.072 31.4608L365.536 56.0658C360.915 60.3253 353.52 59.0224 350.719 53.3699L333.309 18.4546C329.771 11.3507 336.077 3.22973 343.935 5.08181L387.79 15.4197Z" fill="#108CFF"/>
<mask id="mask0" mask-type="alpha" maskUnits="userSpaceOnUse" x="116" y="30" width="402" height="298">
<rect x="116" y="30.2998" width="402" height="297" rx="96" fill="#E3EEFE"/>
</mask>
<g mask="url(#mask0)">
<rect x="116" y="30.2998" width="402" height="297" rx="96" fill="#E3EEFE"/>
<rect x="116" y="26.6133" width="90.3609" height="304.373" rx="2" fill="#D4E3F9"/>
<rect width="285.87" height="84.3366" rx="2" transform="matrix(-1 0 0 1 503.862 58.3799)" fill="#D4E3F9"/>
<rect width="285.87" height="84.3366" rx="2" transform="matrix(-1 0 0 1 503.862 216.424)" fill="#D4E3F9"/>
<rect x="121.837" y="201.506" width="78.6865" height="15.1616" rx="2" fill="#E3EEFE"/>
</g>
<path d="M133.514 305.718C131.746 306.777 129.452 306.147 128.852 304.183C127.959 301.127 127.8 297.8 128.708 294.627C129.957 290.265 132.83 286.492 136.826 284.177C140.822 281.862 145.481 281.2 149.896 282.362C153.121 283.183 155.932 284.92 158.082 287.201C159.515 288.721 158.884 291.014 157.03 292.023C155.262 293.083 153.018 292.365 151.434 291.105C150.407 290.281 149.23 289.718 147.903 289.414C145.385 288.77 142.714 289.192 140.399 290.398C138.121 291.74 136.422 293.88 135.778 296.396C135.387 297.673 135.307 299.012 135.5 300.279C135.863 302.452 135.232 304.745 133.514 305.718Z" fill="#FFAB49"/>
<path d="M502.51 312.957C512.634 307.139 512.634 292.551 502.594 286.733L468.677 266.917C459.059 261.267 446.825 267.592 445.897 278.722L442.269 320.209C441.172 332.436 454.334 340.784 464.965 334.713L502.51 312.957Z" fill="#FFCA62"/>
<rect width="410" height="156" rx="2.87125" transform="matrix(-1 0 0 1 551 100.8)" fill="#131415"/>
<rect width="401.598" height="125.262" rx="2.15344" transform="matrix(-1 0 0 1 547.62 126.362)" fill="#1F2123"/>
<rect x="207.681" y="126.362" width="52.7169" height="1.62298" transform="rotate(-180 207.681 126.362)" fill="#648FF0"/>
<rect width="56.6522" height="22.4563" rx="2.15344" transform="matrix(-1 0 0 1 538.559 218.254)" fill="#333436"/>
<rect width="56.6522" height="22.4563" rx="2.15344" transform="matrix(-1 0 0 1 538.559 172.622)" fill="#333436"/>
<path d="M146.026 206.756H547.62" stroke="#333436" stroke-width="0.717812"/>
<path d="M146.026 160.662H547.62" stroke="#333436" stroke-width="0.717812"/>
<rect width="22.9477" height="22.9953" rx="7.17812" transform="matrix(-1 0 0 1 179.915 172.622)" fill="black"/>
<rect width="22.9477" height="22.9953" rx="7.17812" transform="matrix(-1 0 0 1 179.915 217.896)" fill="#005851"/>
<path d="M497.325 226.473V232.491" stroke="#648FF0" stroke-width="0.717812" stroke-linecap="round"/>
<path d="M499.207 230.604L497.325 232.49" stroke="#648FF0" stroke-width="0.717812" stroke-linecap="round"/>
<path d="M495.441 230.604L497.324 232.49" stroke="#648FF0" stroke-width="0.717812" stroke-linecap="round"/>
<path d="M497.325 180.841V186.859" stroke="#648FF0" stroke-width="0.717812" stroke-linecap="round"/>
<path d="M499.207 184.972L497.325 186.858" stroke="#648FF0" stroke-width="0.717812" stroke-linecap="round"/>
<path d="M495.441 184.972L497.324 186.858" stroke="#648FF0" stroke-width="0.717812" stroke-linecap="round"/>
<path d="M459.066 143.119L457.184 145.005" stroke="#648FF0" stroke-width="0.717812" stroke-linecap="round"/>
<path d="M455.301 143.118L457.182 145.006" stroke="#648FF0" stroke-width="0.717812" stroke-linecap="round"/>
<path d="M536.311 143.119L534.428 145.005" stroke="#648FF0" stroke-width="0.717812" stroke-linecap="round"/>
<path d="M532.545 143.118L534.426 145.006" stroke="#648FF0" stroke-width="0.717812" stroke-linecap="round"/>
<path d="M171.415 178.459C171.882 178.459 172.261 178.079 172.261 177.61C172.261 177.14 171.882 176.76 171.415 176.76C170.947 176.76 170.568 177.14 170.568 177.61C170.568 178.079 170.947 178.459 171.415 178.459Z" fill="#FEFEFE"/>
<path d="M172.368 190.463C172.835 190.463 173.214 190.083 173.214 189.613C173.214 189.144 172.835 188.764 172.368 188.764C171.9 188.764 171.521 189.144 171.521 189.613C171.521 190.083 171.9 190.463 172.368 190.463Z" fill="#FEFEFE"/>
<path d="M171.657 180.584C172.049 180.584 172.367 180.264 172.367 179.87C172.367 179.477 172.049 179.157 171.657 179.157C171.264 179.157 170.946 179.477 170.946 179.87C170.946 180.264 171.264 180.584 171.657 180.584Z" fill="#FEFEFE"/>
<path d="M173.546 180.857C173.939 180.857 174.257 180.538 174.257 180.144C174.257 179.75 173.939 179.431 173.546 179.431C173.154 179.431 172.836 179.75 172.836 180.144C172.836 180.538 173.154 180.857 173.546 180.857Z" fill="#FEFEFE"/>
<path d="M171.415 182.39C171.749 182.39 172.02 182.118 172.02 181.783C172.02 181.448 171.749 181.176 171.415 181.176C171.081 181.176 170.811 181.448 170.811 181.783C170.811 182.118 171.081 182.39 171.415 182.39Z" fill="#FEFEFE"/>
<path d="M173.305 182.648C173.639 182.648 173.909 182.376 173.909 182.041C173.909 181.705 173.639 181.434 173.305 181.434C172.971 181.434 172.7 181.705 172.7 182.041C172.7 182.376 172.971 182.648 173.305 182.648Z" fill="#FEFEFE"/>
<path d="M174.817 183.24C175.15 183.24 175.421 182.969 175.421 182.633C175.421 182.298 175.15 182.026 174.817 182.026C174.483 182.026 174.212 182.298 174.212 182.633C174.212 182.969 174.483 183.24 174.817 183.24Z" fill="#FEFEFE"/>
<path d="M172.745 184.104C173.037 184.104 173.274 183.866 173.274 183.573C173.274 183.28 173.037 183.042 172.745 183.042C172.453 183.042 172.216 183.28 172.216 183.573C172.216 183.866 172.453 184.104 172.745 184.104Z" fill="#FEFEFE"/>
<path d="M170.856 183.846C171.148 183.846 171.385 183.609 171.385 183.315C171.385 183.022 171.148 182.784 170.856 182.784C170.564 182.784 170.327 183.022 170.327 183.315C170.327 183.609 170.564 183.846 170.856 183.846Z" fill="#FEFEFE"/>
<path d="M174.272 184.696C174.564 184.696 174.801 184.458 174.801 184.165C174.801 183.872 174.564 183.634 174.272 183.634C173.98 183.634 173.743 183.872 173.743 184.165C173.743 184.458 173.98 184.696 174.272 184.696Z" fill="#FEFEFE"/>
<path d="M171.99 185.212C172.24 185.212 172.443 185.008 172.443 184.757C172.443 184.506 172.24 184.302 171.99 184.302C171.739 184.302 171.536 184.506 171.536 184.757C171.536 185.008 171.739 185.212 171.99 185.212Z" fill="#FEFEFE"/>
<path d="M173.516 185.789C173.766 185.789 173.969 185.586 173.969 185.334C173.969 185.083 173.766 184.879 173.516 184.879C173.266 184.879 173.062 185.083 173.062 185.334C173.062 185.586 173.266 185.789 173.516 185.789Z" fill="#FEFEFE"/>
<path d="M170.116 184.939C170.366 184.939 170.569 184.735 170.569 184.484C170.569 184.232 170.366 184.028 170.116 184.028C169.865 184.028 169.662 184.232 169.662 184.484C169.662 184.735 169.865 184.939 170.116 184.939Z" fill="#FEFEFE"/>
<path d="M171.158 185.956C171.367 185.956 171.536 185.786 171.536 185.577C171.536 185.367 171.367 185.197 171.158 185.197C170.949 185.197 170.78 185.367 170.78 185.577C170.78 185.786 170.949 185.956 171.158 185.956Z" fill="#FEFEFE"/>
<path d="M171.808 187.004C171.992 187.004 172.141 186.854 172.141 186.67C172.141 186.485 171.992 186.336 171.808 186.336C171.624 186.336 171.476 186.485 171.476 186.67C171.476 186.854 171.624 187.004 171.808 187.004Z" fill="#FEFEFE"/>
<path d="M171.006 187.216C171.157 187.216 171.279 187.094 171.279 186.943C171.279 186.792 171.157 186.67 171.006 186.67C170.856 186.67 170.734 186.792 170.734 186.943C170.734 187.094 170.856 187.216 171.006 187.216Z" fill="#FEFEFE"/>
<path d="M170.296 186.427C170.48 186.427 170.629 186.277 170.629 186.093C170.629 185.908 170.48 185.759 170.296 185.759C170.113 185.759 169.964 185.908 169.964 186.093C169.964 186.277 170.113 186.427 170.296 186.427Z" fill="#FEFEFE"/>
<path d="M169.269 185.698C169.478 185.698 169.647 185.528 169.647 185.319C169.647 185.109 169.478 184.939 169.269 184.939C169.061 184.939 168.892 185.109 168.892 185.319C168.892 185.528 169.061 185.698 169.269 185.698Z" fill="#FEFEFE"/>
<path d="M169.254 182.845C169.463 182.845 169.632 182.675 169.632 182.465C169.632 182.256 169.463 182.086 169.254 182.086C169.045 182.086 168.876 182.256 168.876 182.465C168.876 182.675 169.045 182.845 169.254 182.845Z" fill="#FEFEFE"/>
<path d="M169.42 181.51C169.604 181.51 169.753 181.36 169.753 181.176C169.753 180.991 169.604 180.842 169.42 180.842C169.237 180.842 169.088 180.991 169.088 181.176C169.088 181.36 169.237 181.51 169.42 181.51Z" fill="#FEFEFE"/>
<path d="M169.783 180.416C169.933 180.416 170.055 180.294 170.055 180.143C170.055 179.992 169.933 179.87 169.783 179.87C169.633 179.87 169.511 179.992 169.511 180.143C169.511 180.294 169.633 180.416 169.783 180.416Z" fill="#FEFEFE"/>
<path d="M169.148 179.901C169.332 179.901 169.481 179.752 169.481 179.567C169.481 179.383 169.332 179.233 169.148 179.233C168.964 179.233 168.815 179.383 168.815 179.567C168.815 179.752 168.964 179.901 169.148 179.901Z" fill="#FEFEFE"/>
<path d="M172.67 186.533C172.879 186.533 173.048 186.363 173.048 186.154C173.048 185.944 172.879 185.774 172.67 185.774C172.461 185.774 172.292 185.944 172.292 186.154C172.292 186.363 172.461 186.533 172.67 186.533Z" fill="#FEFEFE"/>
<path d="M168.286 179.461C168.495 179.461 168.664 179.291 168.664 179.082C168.664 178.872 168.495 178.702 168.286 178.702C168.077 178.702 167.908 178.872 167.908 179.082C167.908 179.291 168.077 179.461 168.286 179.461Z" fill="#FEFEFE"/>
<path d="M168.543 181.069C168.752 181.069 168.921 180.899 168.921 180.69C168.921 180.48 168.752 180.311 168.543 180.311C168.334 180.311 168.165 180.48 168.165 180.69C168.165 180.899 168.334 181.069 168.543 181.069Z" fill="#FEFEFE"/>
<path d="M168.12 182.602C168.371 182.602 168.574 182.398 168.574 182.147C168.574 181.895 168.371 181.691 168.12 181.691C167.87 181.691 167.667 181.895 167.667 182.147C167.667 182.398 167.87 182.602 168.12 182.602Z" fill="#FEFEFE"/>
<path d="M166.745 182.602C167.037 182.602 167.274 182.365 167.274 182.071C167.274 181.778 167.037 181.54 166.745 181.54C166.453 181.54 166.216 181.778 166.216 182.071C166.216 182.365 166.453 182.602 166.745 182.602Z" fill="#FEFEFE"/>
<path d="M165.143 182.967C165.477 182.967 165.747 182.695 165.747 182.36C165.747 182.025 165.477 181.753 165.143 181.753C164.809 181.753 164.538 182.025 164.538 182.36C164.538 182.695 164.809 182.967 165.143 182.967Z" fill="#FEFEFE"/>
<path d="M163.389 183.832C163.782 183.832 164.1 183.512 164.1 183.119C164.1 182.725 163.782 182.405 163.389 182.405C162.997 182.405 162.679 182.725 162.679 183.119C162.679 183.512 162.997 183.832 163.389 183.832Z" fill="#FEFEFE"/>
<path d="M161.575 185.289C162.042 185.289 162.421 184.908 162.421 184.439C162.421 183.969 162.042 183.589 161.575 183.589C161.107 183.589 160.729 183.969 160.729 184.439C160.729 184.908 161.107 185.289 161.575 185.289Z" fill="#FEFEFE"/>
<path d="M162.679 182.056C163.072 182.056 163.39 181.737 163.39 181.343C163.39 180.949 163.072 180.63 162.679 180.63C162.287 180.63 161.969 180.949 161.969 181.343C161.969 181.737 162.287 182.056 162.679 182.056Z" fill="#FEFEFE"/>
<path d="M164.432 181.191C164.766 181.191 165.036 180.919 165.036 180.584C165.036 180.248 164.766 179.977 164.432 179.977C164.098 179.977 163.827 180.248 163.827 180.584C163.827 180.919 164.098 181.191 164.432 181.191Z" fill="#FEFEFE"/>
<path d="M164.175 179.582C164.509 179.582 164.78 179.31 164.78 178.975C164.78 178.64 164.509 178.368 164.175 178.368C163.841 178.368 163.57 178.64 163.57 178.975C163.57 179.31 163.841 179.582 164.175 179.582Z" fill="#FEFEFE"/>
<path d="M165.777 179.218C166.069 179.218 166.306 178.98 166.306 178.686C166.306 178.393 166.069 178.155 165.777 178.155C165.485 178.155 165.248 178.393 165.248 178.686C165.248 178.98 165.485 179.218 165.777 179.218Z" fill="#FEFEFE"/>
<path d="M167.153 179.218C167.403 179.218 167.606 179.014 167.606 178.763C167.606 178.511 167.403 178.308 167.153 178.308C166.902 178.308 166.699 178.511 166.699 178.763C166.699 179.014 166.902 179.218 167.153 179.218Z" fill="#FEFEFE"/>
<path d="M167.41 180.827C167.66 180.827 167.863 180.623 167.863 180.371C167.863 180.12 167.66 179.916 167.41 179.916C167.159 179.916 166.956 180.12 166.956 180.371C166.956 180.623 167.159 180.827 167.41 180.827Z" fill="#FEFEFE"/>
<path d="M166.034 180.842C166.326 180.842 166.563 180.604 166.563 180.31C166.563 180.017 166.326 179.779 166.034 179.779C165.742 179.779 165.505 180.017 165.505 180.31C165.505 180.604 165.742 180.842 166.034 180.842Z" fill="#FEFEFE"/>
<path d="M164.538 184.878C164.688 184.878 164.81 184.756 164.81 184.605C164.81 184.454 164.688 184.332 164.538 184.332C164.387 184.332 164.266 184.454 164.266 184.605C164.266 184.756 164.387 184.878 164.538 184.878Z" fill="#FEFEFE"/>
<path d="M165.626 184.742C165.81 184.742 165.959 184.592 165.959 184.408C165.959 184.224 165.81 184.074 165.626 184.074C165.443 184.074 165.294 184.224 165.294 184.408C165.294 184.592 165.443 184.742 165.626 184.742Z" fill="#FEFEFE"/>
<path d="M166.82 184.287C167.029 184.287 167.198 184.117 167.198 183.908C167.198 183.698 167.029 183.528 166.82 183.528C166.612 183.528 166.442 183.698 166.442 183.908C166.442 184.117 166.612 184.287 166.82 184.287Z" fill="#FEFEFE"/>
<path d="M167.108 185.5C167.358 185.5 167.561 185.297 167.561 185.045C167.561 184.794 167.358 184.59 167.108 184.59C166.857 184.59 166.654 184.794 166.654 185.045C166.654 185.297 166.857 185.5 167.108 185.5Z" fill="#FEFEFE"/>
<path d="M165.656 185.789C165.865 185.789 166.034 185.619 166.034 185.41C166.034 185.2 165.865 185.03 165.656 185.03C165.448 185.03 165.278 185.2 165.278 185.41C165.278 185.619 165.448 185.789 165.656 185.789Z" fill="#FEFEFE"/>
<path d="M164.372 185.774C164.555 185.774 164.704 185.625 164.704 185.44C164.704 185.256 164.555 185.106 164.372 185.106C164.188 185.106 164.039 185.256 164.039 185.44C164.039 185.625 164.188 185.774 164.372 185.774Z" fill="#FEFEFE"/>
<path d="M164.387 186.821C164.595 186.821 164.765 186.651 164.765 186.442C164.765 186.232 164.595 186.062 164.387 186.062C164.178 186.062 164.009 186.232 164.009 186.442C164.009 186.651 164.178 186.821 164.387 186.821Z" fill="#FEFEFE"/>
<path d="M165.928 187.018C166.179 187.018 166.382 186.814 166.382 186.563C166.382 186.311 166.179 186.107 165.928 186.107C165.678 186.107 165.475 186.311 165.475 186.563C165.475 186.814 165.678 187.018 165.928 187.018Z" fill="#FEFEFE"/>
<path d="M167.727 186.821C168.019 186.821 168.256 186.583 168.256 186.29C168.256 185.997 168.019 185.759 167.727 185.759C167.435 185.759 167.198 185.997 167.198 186.29C167.198 186.583 167.435 186.821 167.727 186.821Z" fill="#FEFEFE"/>
<path d="M168.785 188.142C169.119 188.142 169.39 187.87 169.39 187.535C169.39 187.2 169.119 186.928 168.785 186.928C168.451 186.928 168.181 187.2 168.181 187.535C168.181 187.87 168.451 188.142 168.785 188.142Z" fill="#FEFEFE"/>
<path d="M166.563 188.324C166.855 188.324 167.092 188.086 167.092 187.793C167.092 187.5 166.855 187.262 166.563 187.262C166.271 187.262 166.034 187.5 166.034 187.793C166.034 188.086 166.271 188.324 166.563 188.324Z" fill="#FEFEFE"/>
<path d="M165.308 189.355C165.601 189.355 165.837 189.117 165.837 188.824C165.837 188.531 165.601 188.293 165.308 188.293C165.016 188.293 164.779 188.531 164.779 188.824C164.779 189.117 165.016 189.355 165.308 189.355Z" fill="#FEFEFE"/>
<path d="M166.352 190.691C166.686 190.691 166.956 190.419 166.956 190.084C166.956 189.748 166.686 189.477 166.352 189.477C166.018 189.477 165.747 189.748 165.747 190.084C165.747 190.419 166.018 190.691 166.352 190.691Z" fill="#FEFEFE"/>
<path d="M169.133 190.934C169.526 190.934 169.844 190.615 169.844 190.221C169.844 189.827 169.526 189.508 169.133 189.508C168.741 189.508 168.423 189.827 168.423 190.221C168.423 190.615 168.741 190.934 169.133 190.934Z" fill="#FEFEFE"/>
<path d="M167.606 189.658C167.94 189.658 168.21 189.387 168.21 189.051C168.21 188.716 167.94 188.444 167.606 188.444C167.272 188.444 167.001 188.716 167.001 189.051C167.001 189.387 167.272 189.658 167.606 189.658Z" fill="#FEFEFE"/>
<path d="M170.296 189.416C170.689 189.416 171.007 189.096 171.007 188.703C171.007 188.309 170.689 187.989 170.296 187.989C169.904 187.989 169.586 188.309 169.586 188.703C169.586 189.096 169.904 189.416 170.296 189.416Z" fill="#FEFEFE"/>
<path d="M164.674 188.05C164.925 188.05 165.128 187.846 165.128 187.595C165.128 187.343 164.925 187.14 164.674 187.14C164.424 187.14 164.221 187.343 164.221 187.595C164.221 187.846 164.424 188.05 164.674 188.05Z" fill="#FEFEFE"/>
<path d="M171.415 223.73C171.882 223.73 172.261 223.349 172.261 222.88C172.261 222.411 171.882 222.03 171.415 222.03C170.947 222.03 170.568 222.411 170.568 222.88C170.568 223.349 170.947 223.73 171.415 223.73Z" fill="#FEFEFE"/>
<path d="M172.368 235.734C172.835 235.734 173.214 235.353 173.214 234.884C173.214 234.415 172.835 234.034 172.368 234.034C171.9 234.034 171.521 234.415 171.521 234.884C171.521 235.353 171.9 235.734 172.368 235.734Z" fill="#FEFEFE"/>
<path d="M171.657 225.854C172.049 225.854 172.367 225.535 172.367 225.141C172.367 224.747 172.049 224.428 171.657 224.428C171.264 224.428 170.946 224.747 170.946 225.141C170.946 225.535 171.264 225.854 171.657 225.854Z" fill="#FEFEFE"/>
<path d="M173.546 226.128C173.939 226.128 174.257 225.808 174.257 225.414C174.257 225.021 173.939 224.701 173.546 224.701C173.154 224.701 172.836 225.021 172.836 225.414C172.836 225.808 173.154 226.128 173.546 226.128Z" fill="#FEFEFE"/>
<path d="M171.415 227.66C171.749 227.66 172.02 227.389 172.02 227.053C172.02 226.718 171.749 226.446 171.415 226.446C171.081 226.446 170.811 226.718 170.811 227.053C170.811 227.389 171.081 227.66 171.415 227.66Z" fill="#FEFEFE"/>
<path d="M173.305 227.918C173.639 227.918 173.909 227.646 173.909 227.311C173.909 226.976 173.639 226.704 173.305 226.704C172.971 226.704 172.7 226.976 172.7 227.311C172.7 227.646 172.971 227.918 173.305 227.918Z" fill="#FEFEFE"/>
<path d="M174.817 228.511C175.15 228.511 175.421 228.239 175.421 227.904C175.421 227.569 175.15 227.297 174.817 227.297C174.483 227.297 174.212 227.569 174.212 227.904C174.212 228.239 174.483 228.511 174.817 228.511Z" fill="#FEFEFE"/>
<path d="M172.745 229.375C173.037 229.375 173.274 229.137 173.274 228.844C173.274 228.55 173.037 228.312 172.745 228.312C172.453 228.312 172.216 228.55 172.216 228.844C172.216 229.137 172.453 229.375 172.745 229.375Z" fill="#FEFEFE"/>
<path d="M170.856 229.117C171.148 229.117 171.385 228.879 171.385 228.586C171.385 228.292 171.148 228.055 170.856 228.055C170.564 228.055 170.327 228.292 170.327 228.586C170.327 228.879 170.564 229.117 170.856 229.117Z" fill="#FEFEFE"/>
<path d="M174.272 229.967C174.564 229.967 174.801 229.729 174.801 229.435C174.801 229.142 174.564 228.904 174.272 228.904C173.98 228.904 173.743 229.142 173.743 229.435C173.743 229.729 173.98 229.967 174.272 229.967Z" fill="#FEFEFE"/>
<path d="M171.99 230.483C172.24 230.483 172.443 230.279 172.443 230.028C172.443 229.776 172.24 229.572 171.99 229.572C171.739 229.572 171.536 229.776 171.536 230.028C171.536 230.279 171.739 230.483 171.99 230.483Z" fill="#FEFEFE"/>
<path d="M173.516 231.06C173.766 231.06 173.969 230.856 173.969 230.605C173.969 230.353 173.766 230.149 173.516 230.149C173.266 230.149 173.062 230.353 173.062 230.605C173.062 230.856 173.266 231.06 173.516 231.06Z" fill="#FEFEFE"/>
<path d="M170.116 230.209C170.366 230.209 170.569 230.006 170.569 229.754C170.569 229.503 170.366 229.299 170.116 229.299C169.865 229.299 169.662 229.503 169.662 229.754C169.662 230.006 169.865 230.209 170.116 230.209Z" fill="#FEFEFE"/>
<path d="M171.158 231.227C171.367 231.227 171.536 231.057 171.536 230.847C171.536 230.638 171.367 230.468 171.158 230.468C170.949 230.468 170.78 230.638 170.78 230.847C170.78 231.057 170.949 231.227 171.158 231.227Z" fill="#FEFEFE"/>
<path d="M171.808 232.274C171.992 232.274 172.141 232.125 172.141 231.94C172.141 231.756 171.992 231.606 171.808 231.606C171.624 231.606 171.476 231.756 171.476 231.94C171.476 232.125 171.624 232.274 171.808 232.274Z" fill="#FEFEFE"/>
<path d="M171.006 232.487C171.157 232.487 171.279 232.364 171.279 232.214C171.279 232.063 171.157 231.94 171.006 231.94C170.856 231.94 170.734 232.063 170.734 232.214C170.734 232.364 170.856 232.487 171.006 232.487Z" fill="#FEFEFE"/>
<path d="M170.296 231.697C170.48 231.697 170.629 231.548 170.629 231.363C170.629 231.179 170.48 231.029 170.296 231.029C170.113 231.029 169.964 231.179 169.964 231.363C169.964 231.548 170.113 231.697 170.296 231.697Z" fill="#FEFEFE"/>
<path d="M169.269 230.969C169.478 230.969 169.647 230.799 169.647 230.589C169.647 230.38 169.478 230.21 169.269 230.21C169.061 230.21 168.892 230.38 168.892 230.589C168.892 230.799 169.061 230.969 169.269 230.969Z" fill="#FEFEFE"/>
<path d="M169.254 228.115C169.463 228.115 169.632 227.945 169.632 227.736C169.632 227.526 169.463 227.356 169.254 227.356C169.045 227.356 168.876 227.526 168.876 227.736C168.876 227.945 169.045 228.115 169.254 228.115Z" fill="#FEFEFE"/>
<path d="M169.42 226.78C169.604 226.78 169.753 226.631 169.753 226.446C169.753 226.262 169.604 226.112 169.42 226.112C169.237 226.112 169.088 226.262 169.088 226.446C169.088 226.631 169.237 226.78 169.42 226.78Z" fill="#FEFEFE"/>
<path d="M169.783 225.687C169.933 225.687 170.055 225.565 170.055 225.414C170.055 225.263 169.933 225.141 169.783 225.141C169.633 225.141 169.511 225.263 169.511 225.414C169.511 225.565 169.633 225.687 169.783 225.687Z" fill="#FEFEFE"/>
<path d="M169.148 225.172C169.332 225.172 169.481 225.022 169.481 224.838C169.481 224.653 169.332 224.504 169.148 224.504C168.964 224.504 168.815 224.653 168.815 224.838C168.815 225.022 168.964 225.172 169.148 225.172Z" fill="#FEFEFE"/>
<path d="M172.67 231.804C172.879 231.804 173.048 231.634 173.048 231.424C173.048 231.215 172.879 231.045 172.67 231.045C172.461 231.045 172.292 231.215 172.292 231.424C172.292 231.634 172.461 231.804 172.67 231.804Z" fill="#FEFEFE"/>
<path d="M168.286 224.731C168.495 224.731 168.664 224.562 168.664 224.352C168.664 224.143 168.495 223.973 168.286 223.973C168.077 223.973 167.908 224.143 167.908 224.352C167.908 224.562 168.077 224.731 168.286 224.731Z" fill="#FEFEFE"/>
<path d="M168.543 226.34C168.752 226.34 168.921 226.17 168.921 225.96C168.921 225.751 168.752 225.581 168.543 225.581C168.334 225.581 168.165 225.751 168.165 225.96C168.165 226.17 168.334 226.34 168.543 226.34Z" fill="#FEFEFE"/>
<path d="M168.12 227.872C168.371 227.872 168.574 227.669 168.574 227.417C168.574 227.166 168.371 226.962 168.12 226.962C167.87 226.962 167.667 227.166 167.667 227.417C167.667 227.669 167.87 227.872 168.12 227.872Z" fill="#FEFEFE"/>
<path d="M166.745 227.873C167.037 227.873 167.274 227.635 167.274 227.342C167.274 227.048 167.037 226.811 166.745 226.811C166.453 226.811 166.216 227.048 166.216 227.342C166.216 227.635 166.453 227.873 166.745 227.873Z" fill="#FEFEFE"/>
<path d="M165.143 228.237C165.477 228.237 165.747 227.966 165.747 227.63C165.747 227.295 165.477 227.023 165.143 227.023C164.809 227.023 164.538 227.295 164.538 227.63C164.538 227.966 164.809 228.237 165.143 228.237Z" fill="#FEFEFE"/>
<path d="M163.389 229.102C163.782 229.102 164.1 228.783 164.1 228.389C164.1 227.995 163.782 227.676 163.389 227.676C162.997 227.676 162.679 227.995 162.679 228.389C162.679 228.783 162.997 229.102 163.389 229.102Z" fill="#FEFEFE"/>
<path d="M161.575 230.559C162.042 230.559 162.421 230.179 162.421 229.709C162.421 229.24 162.042 228.859 161.575 228.859C161.107 228.859 160.729 229.24 160.729 229.709C160.729 230.179 161.107 230.559 161.575 230.559Z" fill="#FEFEFE"/>
<path d="M162.679 227.327C163.072 227.327 163.39 227.008 163.39 226.614C163.39 226.22 163.072 225.9 162.679 225.9C162.287 225.9 161.969 226.22 161.969 226.614C161.969 227.008 162.287 227.327 162.679 227.327Z" fill="#FEFEFE"/>
<path d="M164.432 226.461C164.766 226.461 165.036 226.189 165.036 225.854C165.036 225.519 164.766 225.247 164.432 225.247C164.098 225.247 163.827 225.519 163.827 225.854C163.827 226.189 164.098 226.461 164.432 226.461Z" fill="#FEFEFE"/>
<path d="M164.175 224.853C164.509 224.853 164.78 224.581 164.78 224.246C164.78 223.91 164.509 223.639 164.175 223.639C163.841 223.639 163.57 223.91 163.57 224.246C163.57 224.581 163.841 224.853 164.175 224.853Z" fill="#FEFEFE"/>
<path d="M165.777 224.488C166.069 224.488 166.306 224.25 166.306 223.957C166.306 223.664 166.069 223.426 165.777 223.426C165.485 223.426 165.248 223.664 165.248 223.957C165.248 224.25 165.485 224.488 165.777 224.488Z" fill="#FEFEFE"/>
<path d="M167.153 224.489C167.403 224.489 167.606 224.285 167.606 224.033C167.606 223.782 167.403 223.578 167.153 223.578C166.902 223.578 166.699 223.782 166.699 224.033C166.699 224.285 166.902 224.489 167.153 224.489Z" fill="#FEFEFE"/>
<path d="M167.41 226.097C167.66 226.097 167.863 225.893 167.863 225.642C167.863 225.39 167.66 225.187 167.41 225.187C167.159 225.187 166.956 225.39 166.956 225.642C166.956 225.893 167.159 226.097 167.41 226.097Z" fill="#FEFEFE"/>
<path d="M166.034 226.112C166.326 226.112 166.563 225.874 166.563 225.581C166.563 225.288 166.326 225.05 166.034 225.05C165.742 225.05 165.505 225.288 165.505 225.581C165.505 225.874 165.742 226.112 166.034 226.112Z" fill="#FEFEFE"/>
<path d="M164.538 230.149C164.688 230.149 164.81 230.027 164.81 229.876C164.81 229.725 164.688 229.603 164.538 229.603C164.387 229.603 164.266 229.725 164.266 229.876C164.266 230.027 164.387 230.149 164.538 230.149Z" fill="#FEFEFE"/>
<path d="M165.626 230.012C165.81 230.012 165.959 229.863 165.959 229.679C165.959 229.494 165.81 229.345 165.626 229.345C165.443 229.345 165.294 229.494 165.294 229.679C165.294 229.863 165.443 230.012 165.626 230.012Z" fill="#FEFEFE"/>
<path d="M166.82 229.558C167.029 229.558 167.198 229.388 167.198 229.178C167.198 228.969 167.029 228.799 166.82 228.799C166.612 228.799 166.442 228.969 166.442 229.178C166.442 229.388 166.612 229.558 166.82 229.558Z" fill="#FEFEFE"/>
<path d="M167.108 230.771C167.358 230.771 167.561 230.567 167.561 230.316C167.561 230.064 167.358 229.86 167.108 229.86C166.857 229.86 166.654 230.064 166.654 230.316C166.654 230.567 166.857 230.771 167.108 230.771Z" fill="#FEFEFE"/>
<path d="M165.656 231.06C165.865 231.06 166.034 230.89 166.034 230.68C166.034 230.471 165.865 230.301 165.656 230.301C165.448 230.301 165.278 230.471 165.278 230.68C165.278 230.89 165.448 231.06 165.656 231.06Z" fill="#FEFEFE"/>
<path d="M164.372 231.045C164.555 231.045 164.704 230.895 164.704 230.711C164.704 230.526 164.555 230.377 164.372 230.377C164.188 230.377 164.039 230.526 164.039 230.711C164.039 230.895 164.188 231.045 164.372 231.045Z" fill="#FEFEFE"/>
<path d="M164.387 232.092C164.595 232.092 164.765 231.922 164.765 231.712C164.765 231.503 164.595 231.333 164.387 231.333C164.178 231.333 164.009 231.503 164.009 231.712C164.009 231.922 164.178 232.092 164.387 232.092Z" fill="#FEFEFE"/>
<path d="M165.928 232.288C166.179 232.288 166.382 232.085 166.382 231.833C166.382 231.582 166.179 231.378 165.928 231.378C165.678 231.378 165.475 231.582 165.475 231.833C165.475 232.085 165.678 232.288 165.928 232.288Z" fill="#FEFEFE"/>
<path d="M167.727 232.092C168.019 232.092 168.256 231.854 168.256 231.56C168.256 231.267 168.019 231.029 167.727 231.029C167.435 231.029 167.198 231.267 167.198 231.56C167.198 231.854 167.435 232.092 167.727 232.092Z" fill="#FEFEFE"/>
<path d="M168.785 233.412C169.119 233.412 169.39 233.141 169.39 232.805C169.39 232.47 169.119 232.198 168.785 232.198C168.451 232.198 168.181 232.47 168.181 232.805C168.181 233.141 168.451 233.412 168.785 233.412Z" fill="#FEFEFE"/>
<path d="M166.563 233.595C166.855 233.595 167.092 233.357 167.092 233.063C167.092 232.77 166.855 232.532 166.563 232.532C166.271 232.532 166.034 232.77 166.034 233.063C166.034 233.357 166.271 233.595 166.563 233.595Z" fill="#FEFEFE"/>
<path d="M165.308 234.626C165.601 234.626 165.837 234.388 165.837 234.095C165.837 233.801 165.601 233.563 165.308 233.563C165.016 233.563 164.779 233.801 164.779 234.095C164.779 234.388 165.016 234.626 165.308 234.626Z" fill="#FEFEFE"/>
<path d="M166.352 235.961C166.686 235.961 166.956 235.689 166.956 235.354C166.956 235.019 166.686 234.747 166.352 234.747C166.018 234.747 165.747 235.019 165.747 235.354C165.747 235.689 166.018 235.961 166.352 235.961Z" fill="#FEFEFE"/>
<path d="M169.133 236.205C169.526 236.205 169.844 235.885 169.844 235.492C169.844 235.098 169.526 234.778 169.133 234.778C168.741 234.778 168.423 235.098 168.423 235.492C168.423 235.885 168.741 236.205 169.133 236.205Z" fill="#FEFEFE"/>
<path d="M167.606 234.929C167.94 234.929 168.21 234.657 168.21 234.322C168.21 233.987 167.94 233.715 167.606 233.715C167.272 233.715 167.001 233.987 167.001 234.322C167.001 234.657 167.272 234.929 167.606 234.929Z" fill="#FEFEFE"/>
<path d="M170.296 234.686C170.689 234.686 171.007 234.367 171.007 233.973C171.007 233.579 170.689 233.26 170.296 233.26C169.904 233.26 169.586 233.579 169.586 233.973C169.586 234.367 169.904 234.686 170.296 234.686Z" fill="#FEFEFE"/>
<path d="M164.674 233.321C164.925 233.321 165.128 233.117 165.128 232.865C165.128 232.614 164.925 232.41 164.674 232.41C164.424 232.41 164.221 232.614 164.221 232.865C164.221 233.117 164.424 233.321 164.674 233.321Z" fill="#FEFEFE"/>
<path d="M505.522 225.896V231.217H506.419V225.896H505.522ZM510.126 227.143C509.442 227.143 508.925 227.386 508.636 227.948V227.173H507.762V231.217H508.636V229.066C508.697 228.435 509.115 227.971 509.784 227.963C510.392 227.963 510.757 228.336 510.757 228.944V231.217H511.631V228.701C511.631 227.735 511.069 227.143 510.126 227.143ZM515.106 228.191L515.425 227.545C515.06 227.287 514.52 227.135 514.011 227.135C513.236 227.135 512.521 227.485 512.521 228.306C512.514 229.765 514.642 229.301 514.642 230.13C514.642 230.434 514.353 230.563 513.981 230.563C513.54 230.563 512.977 230.373 512.628 230.061L512.316 230.685C512.719 231.05 513.35 231.247 513.943 231.247C514.756 231.247 515.493 230.875 515.493 230.046C515.501 228.579 513.35 228.982 513.35 228.237C513.35 227.948 513.601 227.834 513.943 227.834C514.3 227.834 514.748 227.971 515.106 228.191ZM518.44 230.289C518.205 230.403 518.015 230.464 517.832 230.464C517.559 230.464 517.399 230.335 517.399 229.917V227.979H518.592V227.325H517.399V226.215H516.533V227.325H515.962V227.979H516.533V230.077C516.533 230.905 517.057 231.255 517.665 231.255C518.007 231.255 518.342 231.148 518.661 230.958L518.44 230.289ZM522.752 231.217L522.744 228.564C522.737 227.675 522.152 227.143 521.11 227.143C520.342 227.143 519.932 227.317 519.37 227.652L519.727 228.26C520.13 227.986 520.533 227.849 520.92 227.849C521.559 227.849 521.886 228.153 521.886 228.663V228.784H520.662C519.689 228.792 519.134 229.263 519.134 230.001C519.134 230.715 519.681 231.255 520.555 231.255C521.141 231.255 521.604 231.08 521.893 230.723V231.217H522.752ZM520.738 230.563C520.251 230.563 519.955 230.327 519.955 229.963C519.955 229.575 520.221 229.423 520.791 229.423H521.886V229.795C521.84 230.236 521.361 230.563 520.738 230.563ZM523.96 225.577V231.217H524.834V225.577H523.96ZM526.202 225.577V231.217H527.076V225.577H526.202Z" fill="#648FF0"/>
<path d="M505.522 180.396V185.717H506.419V180.396H505.522ZM510.126 181.643C509.442 181.643 508.925 181.886 508.636 182.448V181.673H507.762V185.717H508.636V183.566C508.697 182.935 509.115 182.471 509.784 182.463C510.392 182.463 510.757 182.836 510.757 183.444V185.717H511.631V183.201C511.631 182.235 511.069 181.643 510.126 181.643ZM515.106 182.691L515.425 182.045C515.06 181.787 514.52 181.635 514.011 181.635C513.236 181.635 512.521 181.985 512.521 182.806C512.514 184.265 514.642 183.801 514.642 184.63C514.642 184.934 514.353 185.063 513.981 185.063C513.54 185.063 512.977 184.873 512.628 184.561L512.316 185.185C512.719 185.55 513.35 185.747 513.943 185.747C514.756 185.747 515.493 185.375 515.493 184.546C515.501 183.079 513.35 183.482 513.35 182.737C513.35 182.448 513.601 182.334 513.943 182.334C514.3 182.334 514.748 182.471 515.106 182.691ZM518.44 184.789C518.205 184.903 518.015 184.964 517.832 184.964C517.559 184.964 517.399 184.835 517.399 184.417V182.479H518.592V181.825H517.399V180.715H516.533V181.825H515.962V182.479H516.533V184.577C516.533 185.405 517.057 185.755 517.665 185.755C518.007 185.755 518.342 185.648 518.661 185.458L518.44 184.789ZM522.752 185.717L522.744 183.064C522.737 182.175 522.152 181.643 521.11 181.643C520.342 181.643 519.932 181.817 519.37 182.152L519.727 182.76C520.13 182.486 520.533 182.349 520.92 182.349C521.559 182.349 521.886 182.653 521.886 183.163V183.284H520.662C519.689 183.292 519.134 183.763 519.134 184.501C519.134 185.215 519.681 185.755 520.555 185.755C521.141 185.755 521.604 185.58 521.893 185.223V185.717H522.752ZM520.738 185.063C520.251 185.063 519.955 184.827 519.955 184.463C519.955 184.075 520.221 183.923 520.791 183.923H521.886V184.295C521.84 184.736 521.361 185.063 520.738 185.063ZM523.96 180.077V185.717H524.834V180.077H523.96ZM526.202 180.077V185.717H527.076V180.077H526.202Z" fill="#648FF0"/>
<path d="M190.066 188.02L191.61 183.563H192.39L190.385 188.967H189.754L187.754 183.563H188.53L190.066 188.02ZM194.437 189.041C193.892 189.041 193.449 188.863 193.108 188.507C192.766 188.148 192.596 187.669 192.596 187.07V186.944C192.596 186.546 192.671 186.191 192.822 185.879C192.975 185.565 193.188 185.32 193.46 185.144C193.735 184.966 194.032 184.877 194.351 184.877C194.873 184.877 195.279 185.049 195.569 185.393C195.858 185.737 196.003 186.229 196.003 186.87V187.156H193.282C193.292 187.551 193.407 187.872 193.627 188.117C193.85 188.359 194.132 188.481 194.474 188.481C194.716 188.481 194.921 188.431 195.09 188.332C195.258 188.233 195.405 188.102 195.531 187.939L195.951 188.265C195.614 188.782 195.11 189.041 194.437 189.041ZM194.351 185.441C194.074 185.441 193.841 185.542 193.653 185.745C193.465 185.946 193.349 186.228 193.304 186.591H195.316V186.539C195.296 186.191 195.202 185.921 195.034 185.73C194.866 185.537 194.638 185.441 194.351 185.441ZM198.666 185.567C198.562 185.55 198.449 185.541 198.328 185.541C197.878 185.541 197.572 185.733 197.411 186.116V188.967H196.725V184.951H197.393L197.404 185.415C197.629 185.056 197.948 184.877 198.362 184.877C198.495 184.877 198.597 184.894 198.666 184.929V185.567ZM201.563 187.902C201.563 187.716 201.492 187.572 201.351 187.471C201.213 187.367 200.969 187.278 200.62 187.204C200.274 187.13 199.998 187.041 199.792 186.937C199.59 186.833 199.439 186.709 199.34 186.565C199.243 186.422 199.195 186.251 199.195 186.053C199.195 185.724 199.333 185.446 199.611 185.218C199.89 184.99 200.246 184.877 200.679 184.877C201.135 184.877 201.503 184.994 201.786 185.229C202.07 185.464 202.212 185.765 202.212 186.131H201.522C201.522 185.943 201.442 185.781 201.281 185.645C201.122 185.509 200.922 185.441 200.679 185.441C200.43 185.441 200.234 185.495 200.093 185.604C199.952 185.713 199.882 185.855 199.882 186.031C199.882 186.197 199.947 186.322 200.078 186.406C200.209 186.49 200.446 186.57 200.787 186.647C201.131 186.724 201.409 186.815 201.622 186.922C201.835 187.028 201.992 187.157 202.094 187.308C202.198 187.456 202.249 187.638 202.249 187.853C202.249 188.212 202.106 188.5 201.819 188.718C201.532 188.933 201.16 189.041 200.702 189.041C200.38 189.041 200.096 188.984 199.848 188.87C199.601 188.756 199.406 188.598 199.265 188.395C199.127 188.19 199.058 187.968 199.058 187.731H199.744C199.757 187.961 199.848 188.144 200.019 188.28C200.192 188.414 200.42 188.481 200.702 188.481C200.962 188.481 201.169 188.429 201.325 188.325C201.484 188.218 201.563 188.077 201.563 187.902ZM203.814 188.967H203.127V184.951H203.814V188.967ZM203.072 183.886C203.072 183.774 203.105 183.68 203.172 183.604C203.241 183.527 203.343 183.489 203.476 183.489C203.61 183.489 203.711 183.527 203.781 183.604C203.85 183.68 203.884 183.774 203.884 183.886C203.884 183.997 203.85 184.09 203.781 184.164C203.711 184.238 203.61 184.275 203.476 184.275C203.343 184.275 203.241 184.238 203.172 184.164C203.105 184.09 203.072 183.997 203.072 183.886ZM204.658 186.922C204.658 186.528 204.735 186.174 204.889 185.86C205.044 185.546 205.26 185.303 205.534 185.133C205.811 184.962 206.127 184.877 206.481 184.877C207.028 184.877 207.469 185.066 207.806 185.445C208.145 185.823 208.314 186.327 208.314 186.955V187.003C208.314 187.394 208.239 187.746 208.088 188.057C207.939 188.367 207.725 188.608 207.446 188.781C207.169 188.954 206.849 189.041 206.488 189.041C205.944 189.041 205.502 188.852 205.163 188.473C204.827 188.095 204.658 187.594 204.658 186.97V186.922ZM205.349 187.003C205.349 187.449 205.451 187.806 205.657 188.076C205.865 188.346 206.142 188.481 206.488 188.481C206.837 188.481 207.114 188.344 207.32 188.072C207.525 187.798 207.628 187.414 207.628 186.922C207.628 186.481 207.523 186.125 207.312 185.853C207.104 185.578 206.827 185.441 206.481 185.441C206.142 185.441 205.868 185.576 205.661 185.845C205.453 186.115 205.349 186.501 205.349 187.003ZM209.749 184.951L209.771 185.456C210.078 185.07 210.479 184.877 210.974 184.877C211.822 184.877 212.25 185.355 212.258 186.313V188.967H211.571V186.309C211.569 186.02 211.502 185.806 211.371 185.667C211.242 185.529 211.041 185.459 210.766 185.459C210.543 185.459 210.348 185.519 210.179 185.638C210.011 185.756 209.88 185.912 209.786 186.105V188.967H209.099V184.951H209.749ZM218.345 186.662C218.345 187.466 218.208 188.064 217.933 188.455C217.658 188.846 217.229 189.041 216.645 189.041C216.069 189.041 215.642 188.851 215.365 188.469C215.087 188.086 214.944 187.514 214.934 186.755V185.838C214.934 185.044 215.071 184.454 215.346 184.068C215.621 183.682 216.051 183.489 216.638 183.489C217.219 183.489 217.647 183.675 217.922 184.049C218.197 184.42 218.338 184.994 218.345 185.771V186.662ZM217.658 185.723C217.658 185.141 217.577 184.718 217.413 184.454C217.25 184.186 216.992 184.053 216.638 184.053C216.286 184.053 216.03 184.185 215.869 184.45C215.709 184.715 215.626 185.122 215.621 185.671V186.77C215.621 187.354 215.705 187.785 215.873 188.065C216.044 188.342 216.301 188.481 216.645 188.481C216.984 188.481 217.235 188.349 217.399 188.087C217.564 187.825 217.651 187.412 217.658 186.848V185.723ZM219.234 188.607C219.234 188.488 219.269 188.389 219.338 188.31C219.41 188.231 219.516 188.191 219.657 188.191C219.798 188.191 219.905 188.231 219.976 188.31C220.051 188.389 220.088 188.488 220.088 188.607C220.088 188.721 220.051 188.816 219.976 188.893C219.905 188.969 219.798 189.008 219.657 189.008C219.516 189.008 219.41 188.969 219.338 188.893C219.269 188.816 219.234 188.721 219.234 188.607ZM224.566 183.949L222.328 188.967H221.608L223.838 184.127H220.914V183.563H224.566V183.949ZM225.354 188.607C225.354 188.488 225.389 188.389 225.458 188.31C225.53 188.231 225.637 188.191 225.778 188.191C225.919 188.191 226.025 188.231 226.097 188.31C226.171 188.389 226.208 188.488 226.208 188.607C226.208 188.721 226.171 188.816 226.097 188.893C226.025 188.969 225.919 189.008 225.778 189.008C225.637 189.008 225.53 188.969 225.458 188.893C225.389 188.816 225.354 188.721 225.354 188.607ZM230.586 186.662C230.586 187.466 230.449 188.064 230.174 188.455C229.899 188.846 229.47 189.041 228.886 189.041C228.31 189.041 227.883 188.851 227.606 188.469C227.328 188.086 227.185 187.514 227.175 186.755V185.838C227.175 185.044 227.312 184.454 227.587 184.068C227.862 183.682 228.292 183.489 228.879 183.489C229.46 183.489 229.888 183.675 230.163 184.049C230.438 184.42 230.579 184.994 230.586 185.771V186.662ZM229.899 185.723C229.899 185.141 229.818 184.718 229.654 184.454C229.491 184.186 229.233 184.053 228.879 184.053C228.527 184.053 228.271 184.185 228.11 184.45C227.95 184.715 227.867 185.122 227.862 185.671V186.77C227.862 187.354 227.946 187.785 228.114 188.065C228.285 188.342 228.542 188.481 228.886 188.481C229.225 188.481 229.476 188.349 229.64 188.087C229.805 187.825 229.892 187.412 229.899 186.848V185.723Z" fill="#898989"/>
<path d="M190.066 234.603L191.61 230.146H192.39L190.385 235.55H189.754L187.754 230.146H188.53L190.066 234.603ZM194.437 235.624C193.892 235.624 193.449 235.446 193.108 235.09C192.766 234.731 192.596 234.252 192.596 233.653V233.527C192.596 233.129 192.671 232.774 192.822 232.462C192.975 232.148 193.188 231.903 193.46 231.727C193.735 231.549 194.032 231.46 194.351 231.46C194.873 231.46 195.279 231.632 195.569 231.976C195.858 232.32 196.003 232.812 196.003 233.453V233.739H193.282C193.292 234.134 193.407 234.455 193.627 234.7C193.85 234.942 194.132 235.064 194.474 235.064C194.716 235.064 194.921 235.014 195.09 234.915C195.258 234.816 195.405 234.685 195.531 234.522L195.951 234.848C195.614 235.365 195.11 235.624 194.437 235.624ZM194.351 232.024C194.074 232.024 193.841 232.125 193.653 232.328C193.465 232.529 193.349 232.811 193.304 233.174H195.316V233.122C195.296 232.774 195.202 232.504 195.034 232.313C194.866 232.12 194.638 232.024 194.351 232.024ZM198.666 232.15C198.562 232.133 198.449 232.124 198.328 232.124C197.878 232.124 197.572 232.316 197.411 232.699V235.55H196.725V231.534H197.393L197.404 231.998C197.629 231.639 197.948 231.46 198.362 231.46C198.495 231.46 198.597 231.477 198.666 231.512V232.15ZM201.563 234.485C201.563 234.299 201.492 234.155 201.351 234.054C201.213 233.95 200.969 233.861 200.62 233.787C200.274 233.713 199.998 233.624 199.792 233.52C199.59 233.416 199.439 233.292 199.34 233.148C199.243 233.005 199.195 232.834 199.195 232.636C199.195 232.307 199.333 232.029 199.611 231.801C199.89 231.573 200.246 231.46 200.679 231.46C201.135 231.46 201.503 231.577 201.786 231.812C202.07 232.047 202.212 232.348 202.212 232.714H201.522C201.522 232.526 201.442 232.364 201.281 232.228C201.122 232.092 200.922 232.024 200.679 232.024C200.43 232.024 200.234 232.078 200.093 232.187C199.952 232.296 199.882 232.438 199.882 232.614C199.882 232.78 199.947 232.905 200.078 232.989C200.209 233.073 200.446 233.153 200.787 233.23C201.131 233.307 201.409 233.398 201.622 233.505C201.835 233.611 201.992 233.74 202.094 233.891C202.198 234.039 202.249 234.221 202.249 234.436C202.249 234.795 202.106 235.083 201.819 235.301C201.532 235.516 201.16 235.624 200.702 235.624C200.38 235.624 200.096 235.567 199.848 235.453C199.601 235.339 199.406 235.181 199.265 234.978C199.127 234.773 199.058 234.551 199.058 234.314H199.744C199.757 234.544 199.848 234.727 200.019 234.863C200.192 234.997 200.42 235.064 200.702 235.064C200.962 235.064 201.169 235.012 201.325 234.908C201.484 234.801 201.563 234.66 201.563 234.485ZM203.814 235.55H203.127V231.534H203.814V235.55ZM203.072 230.469C203.072 230.357 203.105 230.263 203.172 230.187C203.241 230.11 203.343 230.072 203.476 230.072C203.61 230.072 203.711 230.11 203.781 230.187C203.85 230.263 203.884 230.357 203.884 230.469C203.884 230.58 203.85 230.673 203.781 230.747C203.711 230.821 203.61 230.858 203.476 230.858C203.343 230.858 203.241 230.821 203.172 230.747C203.105 230.673 203.072 230.58 203.072 230.469ZM204.658 233.505C204.658 233.111 204.735 232.757 204.889 232.443C205.044 232.129 205.26 231.887 205.534 231.716C205.811 231.545 206.127 231.46 206.481 231.46C207.028 231.46 207.469 231.649 207.806 232.028C208.145 232.406 208.314 232.91 208.314 233.538V233.586C208.314 233.977 208.239 234.329 208.088 234.64C207.939 234.95 207.725 235.191 207.446 235.364C207.169 235.537 206.849 235.624 206.488 235.624C205.944 235.624 205.502 235.435 205.163 235.056C204.827 234.678 204.658 234.177 204.658 233.553V233.505ZM205.349 233.586C205.349 234.032 205.451 234.389 205.657 234.659C205.865 234.929 206.142 235.064 206.488 235.064C206.837 235.064 207.114 234.928 207.32 234.655C207.525 234.381 207.628 233.997 207.628 233.505C207.628 233.064 207.523 232.708 207.312 232.436C207.104 232.161 206.827 232.024 206.481 232.024C206.142 232.024 205.868 232.159 205.661 232.428C205.453 232.698 205.349 233.084 205.349 233.586ZM209.749 231.534L209.771 232.039C210.078 231.653 210.479 231.46 210.974 231.46C211.822 231.46 212.25 231.938 212.258 232.896V235.55H211.571V232.892C211.569 232.603 211.502 232.389 211.371 232.25C211.242 232.112 211.041 232.042 210.766 232.042C210.543 232.042 210.348 232.102 210.179 232.221C210.011 232.339 209.88 232.495 209.786 232.688V235.55H209.099V231.534H209.749ZM218.345 233.245C218.345 234.049 218.208 234.647 217.933 235.038C217.658 235.429 217.229 235.624 216.645 235.624C216.069 235.624 215.642 235.434 215.365 235.052C215.087 234.669 214.944 234.097 214.934 233.338V232.421C214.934 231.627 215.071 231.037 215.346 230.651C215.621 230.265 216.051 230.072 216.638 230.072C217.219 230.072 217.647 230.258 217.922 230.632C218.197 231.003 218.338 231.577 218.345 232.354V233.245ZM217.658 232.306C217.658 231.724 217.577 231.301 217.413 231.037C217.25 230.769 216.992 230.636 216.638 230.636C216.286 230.636 216.03 230.768 215.869 231.033C215.709 231.298 215.626 231.705 215.621 232.254V233.353C215.621 233.937 215.705 234.368 215.873 234.648C216.044 234.925 216.301 235.064 216.645 235.064C216.984 235.064 217.235 234.932 217.399 234.67C217.564 234.408 217.651 233.995 217.658 233.431V232.306ZM219.234 235.19C219.234 235.071 219.269 234.972 219.338 234.893C219.41 234.814 219.516 234.774 219.657 234.774C219.798 234.774 219.905 234.814 219.976 234.893C220.051 234.972 220.088 235.071 220.088 235.19C220.088 235.304 220.051 235.399 219.976 235.476C219.905 235.552 219.798 235.591 219.657 235.591C219.516 235.591 219.41 235.552 219.338 235.476C219.269 235.399 219.234 235.304 219.234 235.19ZM221.392 232.84L221.667 230.146H224.436V230.78H222.25L222.086 232.254C222.351 232.098 222.652 232.02 222.988 232.02C223.481 232.02 223.872 232.183 224.161 232.51C224.451 232.834 224.595 233.273 224.595 233.828C224.595 234.384 224.444 234.824 224.143 235.145C223.843 235.464 223.424 235.624 222.884 235.624C222.407 235.624 222.017 235.492 221.715 235.227C221.413 234.962 221.241 234.596 221.199 234.128H221.849C221.891 234.438 222.001 234.671 222.179 234.83C222.357 234.986 222.592 235.064 222.884 235.064C223.204 235.064 223.453 234.955 223.634 234.737C223.817 234.519 223.909 234.219 223.909 233.835C223.909 233.474 223.81 233.184 223.612 232.967C223.416 232.746 223.155 232.636 222.829 232.636C222.529 232.636 222.294 232.702 222.124 232.833L221.942 232.981L221.392 232.84ZM225.354 235.19C225.354 235.071 225.389 234.972 225.458 234.893C225.53 234.814 225.637 234.774 225.778 234.774C225.919 234.774 226.025 234.814 226.097 234.893C226.171 234.972 226.208 235.071 226.208 235.19C226.208 235.304 226.171 235.399 226.097 235.476C226.025 235.552 225.919 235.591 225.778 235.591C225.637 235.591 225.53 235.552 225.458 235.476C225.389 235.399 225.354 235.304 225.354 235.19ZM230.475 231.556C230.475 231.826 230.403 232.066 230.259 232.276C230.118 232.487 229.927 232.651 229.684 232.77C229.966 232.891 230.189 233.068 230.352 233.301C230.518 233.533 230.601 233.797 230.601 234.091C230.601 234.559 230.442 234.931 230.126 235.208C229.812 235.485 229.397 235.624 228.882 235.624C228.363 235.624 227.946 235.485 227.632 235.208C227.32 234.929 227.164 234.556 227.164 234.091C227.164 233.799 227.243 233.536 227.401 233.301C227.562 233.066 227.784 232.887 228.066 232.766C227.826 232.647 227.637 232.483 227.498 232.273C227.359 232.062 227.29 231.823 227.29 231.556C227.29 231.101 227.436 230.74 227.728 230.472C228.02 230.205 228.405 230.072 228.882 230.072C229.357 230.072 229.741 230.205 230.033 230.472C230.327 230.74 230.475 231.101 230.475 231.556ZM229.914 234.076C229.914 233.774 229.818 233.528 229.625 233.338C229.434 233.147 229.184 233.052 228.875 233.052C228.566 233.052 228.317 233.146 228.129 233.334C227.943 233.522 227.851 233.769 227.851 234.076C227.851 234.383 227.941 234.624 228.122 234.8C228.305 234.976 228.558 235.064 228.882 235.064C229.204 235.064 229.456 234.976 229.64 234.8C229.823 234.622 229.914 234.381 229.914 234.076ZM228.882 230.636C228.613 230.636 228.394 230.72 228.225 230.888C228.06 231.054 227.977 231.28 227.977 231.567C227.977 231.842 228.058 232.065 228.222 232.235C228.388 232.404 228.608 232.488 228.882 232.488C229.157 232.488 229.376 232.404 229.539 232.235C229.705 232.065 229.788 231.842 229.788 231.567C229.788 231.293 229.703 231.069 229.532 230.896C229.361 230.722 229.145 230.636 228.882 230.636Z" fill="#898989"/>
<path d="M271.522 182.681H272.038C272.362 182.676 272.617 182.59 272.802 182.425C272.988 182.259 273.081 182.035 273.081 181.753C273.081 181.119 272.765 180.803 272.134 180.803C271.837 180.803 271.6 180.888 271.422 181.059C271.246 181.227 271.158 181.451 271.158 181.731H270.471C270.471 181.303 270.627 180.947 270.939 180.665C271.253 180.381 271.652 180.239 272.134 180.239C272.644 180.239 273.043 180.373 273.333 180.643C273.622 180.913 273.767 181.288 273.767 181.768C273.767 182.003 273.691 182.23 273.537 182.451C273.386 182.671 273.18 182.835 272.917 182.944C273.214 183.038 273.443 183.194 273.604 183.412C273.767 183.63 273.849 183.896 273.849 184.21C273.849 184.695 273.691 185.08 273.374 185.364C273.057 185.649 272.645 185.791 272.138 185.791C271.631 185.791 271.217 185.654 270.898 185.379C270.581 185.104 270.423 184.742 270.423 184.292H271.113C271.113 184.576 271.206 184.804 271.392 184.974C271.577 185.145 271.826 185.231 272.138 185.231C272.469 185.231 272.723 185.144 272.899 184.971C273.074 184.798 273.162 184.549 273.162 184.225C273.162 183.911 273.066 183.669 272.873 183.501C272.68 183.333 272.401 183.246 272.038 183.241H271.522V182.681ZM278.104 183.412C278.104 184.216 277.967 184.814 277.692 185.205C277.418 185.596 276.988 185.791 276.404 185.791C275.828 185.791 275.401 185.601 275.124 185.219C274.847 184.836 274.703 184.264 274.693 183.505V182.588C274.693 181.794 274.831 181.204 275.105 180.818C275.38 180.432 275.81 180.239 276.397 180.239C276.978 180.239 277.406 180.425 277.681 180.799C277.956 181.17 278.097 181.744 278.104 182.521V183.412ZM277.418 182.473C277.418 181.891 277.336 181.468 277.173 181.204C277.009 180.936 276.751 180.803 276.397 180.803C276.046 180.803 275.789 180.935 275.629 181.2C275.468 181.465 275.385 181.872 275.38 182.421V183.52C275.38 184.104 275.464 184.535 275.632 184.815C275.803 185.092 276.06 185.231 276.404 185.231C276.743 185.231 276.994 185.099 277.158 184.837C277.324 184.575 277.41 184.162 277.418 183.598V182.473ZM282.269 183.204L281.608 183.891V185.717H280.895V180.313H281.608V182.985L284.009 180.313H284.871L282.744 182.699L285.038 185.717H284.184L282.269 183.204ZM288.877 183.753C288.877 184.367 288.736 184.861 288.454 185.234C288.172 185.605 287.793 185.791 287.318 185.791C286.811 185.791 286.419 185.612 286.142 185.253L286.108 185.717H285.477V180.016H286.164V182.143C286.441 181.799 286.824 181.627 287.311 181.627C287.798 181.627 288.181 181.811 288.458 182.18C288.737 182.548 288.877 183.053 288.877 183.694V183.753ZM288.191 183.675C288.191 183.208 288.1 182.847 287.92 182.592C287.739 182.337 287.479 182.209 287.14 182.209C286.687 182.209 286.362 182.42 286.164 182.84V184.577C286.374 184.998 286.702 185.208 287.148 185.208C287.477 185.208 287.733 185.081 287.916 184.826C288.099 184.571 288.191 184.188 288.191 183.675Z" fill="#898989"/>
<path d="M274.064 231.217H270.523V230.723L272.394 228.645C272.671 228.33 272.862 228.076 272.966 227.88C273.072 227.682 273.125 227.478 273.125 227.268C273.125 226.986 273.04 226.754 272.869 226.574C272.698 226.393 272.471 226.303 272.186 226.303C271.845 226.303 271.579 226.4 271.388 226.596C271.2 226.789 271.106 227.059 271.106 227.405H270.419C270.419 226.908 270.579 226.506 270.898 226.199C271.22 225.892 271.649 225.739 272.186 225.739C272.688 225.739 273.086 225.871 273.378 226.136C273.669 226.398 273.815 226.748 273.815 227.186C273.815 227.718 273.476 228.351 272.798 229.086L271.351 230.656H274.064V231.217ZM277.993 227.223C277.993 227.493 277.921 227.733 277.778 227.943C277.637 228.154 277.445 228.318 277.202 228.437C277.484 228.558 277.707 228.735 277.87 228.968C278.036 229.2 278.119 229.464 278.119 229.758C278.119 230.226 277.961 230.598 277.644 230.875C277.33 231.152 276.915 231.291 276.401 231.291C275.881 231.291 275.464 231.152 275.15 230.875C274.838 230.596 274.682 230.223 274.682 229.758C274.682 229.466 274.761 229.203 274.92 228.968C275.081 228.733 275.302 228.554 275.584 228.433C275.344 228.314 275.155 228.15 275.016 227.939C274.878 227.729 274.808 227.49 274.808 227.223C274.808 226.768 274.954 226.407 275.246 226.139C275.538 225.872 275.923 225.739 276.401 225.739C276.876 225.739 277.259 225.872 277.551 226.139C277.846 226.407 277.993 226.768 277.993 227.223ZM277.432 229.743C277.432 229.441 277.336 229.195 277.143 229.005C276.952 228.814 276.703 228.719 276.393 228.719C276.084 228.719 275.835 228.813 275.647 229.001C275.462 229.189 275.369 229.436 275.369 229.743C275.369 230.05 275.459 230.291 275.64 230.467C275.823 230.643 276.076 230.731 276.401 230.731C276.722 230.731 276.975 230.643 277.158 230.467C277.341 230.289 277.432 230.048 277.432 229.743ZM276.401 226.303C276.131 226.303 275.912 226.387 275.744 226.555C275.578 226.721 275.495 226.947 275.495 227.234C275.495 227.509 275.577 227.732 275.74 227.902C275.906 228.071 276.126 228.155 276.401 228.155C276.675 228.155 276.894 228.071 277.058 227.902C277.223 227.732 277.306 227.509 277.306 227.234C277.306 226.96 277.221 226.736 277.05 226.563C276.879 226.389 276.663 226.303 276.401 226.303ZM282.269 228.704L281.608 229.391V231.217H280.895V225.813H281.608V228.485L284.009 225.813H284.871L282.744 228.199L285.038 231.217H284.184L282.269 228.704ZM288.877 229.253C288.877 229.867 288.736 230.361 288.454 230.734C288.172 231.105 287.793 231.291 287.318 231.291C286.811 231.291 286.419 231.112 286.142 230.753L286.108 231.217H285.477V225.516H286.164V227.643C286.441 227.299 286.824 227.127 287.311 227.127C287.798 227.127 288.181 227.311 288.458 227.68C288.737 228.048 288.877 228.553 288.877 229.194V229.253ZM288.191 229.175C288.191 228.708 288.1 228.347 287.92 228.092C287.739 227.837 287.479 227.709 287.14 227.709C286.687 227.709 286.362 227.92 286.164 228.34V230.077C286.374 230.498 286.702 230.708 287.148 230.708C287.477 230.708 287.733 230.581 287.916 230.326C288.099 230.071 288.191 229.688 288.191 229.175Z" fill="#898989"/>
<path d="M422.018 141.833L422.482 140.837C421.95 140.488 421.205 140.26 420.46 140.26C419.229 140.26 418.4 140.868 418.4 141.833C418.4 143.718 421.235 143.133 421.235 144.136C421.235 144.463 420.939 144.646 420.445 144.646C419.882 144.646 419.107 144.334 418.56 143.847L418.081 144.828C418.681 145.337 419.555 145.672 420.43 145.672C421.608 145.672 422.512 145.109 422.512 144.068C422.52 142.152 419.685 142.7 419.685 141.719C419.685 141.43 419.958 141.286 420.361 141.286C420.787 141.286 421.456 141.499 422.018 141.833ZM425.953 141.499C425.315 141.506 424.828 141.757 424.54 142.266V139.994H423.369V145.634H424.54V143.619C424.54 143.019 424.897 142.578 425.482 142.57C425.984 142.57 426.288 142.89 426.288 143.407V145.634H427.459V143.065C427.459 142.107 426.873 141.499 425.953 141.499ZM430.308 141.506C428.993 141.506 428.111 142.335 428.111 143.589C428.111 144.836 428.993 145.679 430.308 145.679C431.615 145.679 432.497 144.836 432.497 143.589C432.497 142.335 431.615 141.506 430.308 141.506ZM430.308 142.479C430.908 142.479 431.326 142.935 431.326 143.604C431.326 144.273 430.908 144.729 430.308 144.729C429.699 144.729 429.289 144.273 429.289 143.604C429.289 142.935 429.699 142.479 430.308 142.479ZM432.552 141.552L434.049 145.634H435.22L436.094 142.935L436.976 145.634H438.146L439.636 141.544H438.481L437.584 144.471L436.687 141.544H435.539L434.657 144.471L433.745 141.544L432.552 141.552Z" fill="#898989"/>
<path d="M445.938 145.634H447.223L444.95 140.313H443.711L441.4 145.634H442.639L443.057 144.6H445.52L445.938 145.634ZM443.452 143.635L444.296 141.567L445.132 143.635H443.452ZM447.791 139.994V145.634H448.962V139.994H447.791ZM450.174 139.994V145.634H451.344V139.994H450.174Z" fill="#648FF0"/>
<path d="M174.981 139.902C174.692 139.902 174.472 140.123 174.472 140.435C174.472 140.739 174.692 140.959 174.981 140.959C175.27 140.959 175.49 140.739 175.49 140.435C175.49 140.123 175.27 139.902 174.981 139.902ZM174.548 141.59V145.634H175.414V141.59H174.548ZM178.441 141.56C177.187 141.56 176.328 142.388 176.328 143.612C176.328 144.828 177.187 145.664 178.441 145.664C179.688 145.664 180.547 144.828 180.547 143.612C180.547 142.388 179.688 141.56 178.441 141.56ZM178.441 142.312C179.163 142.312 179.673 142.844 179.673 143.619C179.673 144.402 179.163 144.934 178.441 144.934C177.711 144.934 177.202 144.402 177.202 143.619C177.202 142.844 177.711 142.312 178.441 142.312ZM183.526 144.706C183.291 144.82 183.101 144.881 182.918 144.881C182.645 144.881 182.485 144.752 182.485 144.334V142.396H183.678V141.742H182.485V140.632H181.618V141.742H181.048V142.396H181.618V144.494C181.618 145.322 182.143 145.672 182.751 145.672C183.093 145.672 183.428 145.565 183.747 145.375L183.526 144.706ZM187.838 145.634L187.83 142.981C187.823 142.092 187.237 141.56 186.196 141.56C185.428 141.56 185.018 141.734 184.455 142.069L184.813 142.677C185.216 142.403 185.618 142.266 186.006 142.266C186.645 142.266 186.971 142.57 186.971 143.08V143.201H185.748C184.775 143.209 184.22 143.68 184.22 144.418C184.22 145.132 184.767 145.672 185.641 145.672C186.227 145.672 186.69 145.497 186.979 145.14V145.634H187.838ZM185.824 144.98C185.337 144.98 185.041 144.744 185.041 144.38C185.041 143.992 185.307 143.84 185.877 143.84H186.971V144.212C186.926 144.653 186.447 144.98 185.824 144.98Z" fill="#FEFEFE"/>
<path d="M159.689 117.384H161.157L158.559 111.303H157.143L154.502 117.384H155.918L156.396 116.202H159.211L159.689 117.384ZM156.848 115.099L157.812 112.736L158.768 115.099H156.848ZM164.621 112.667C163.987 112.667 163.474 112.927 163.144 113.396V112.71H161.806V119.069H163.144V116.706C163.483 117.175 163.996 117.436 164.647 117.436C165.959 117.436 166.819 116.489 166.819 115.073C166.819 113.631 165.933 112.667 164.621 112.667ZM164.308 116.324C163.622 116.324 163.144 115.803 163.144 115.03C163.144 114.274 163.622 113.744 164.308 113.744C164.995 113.744 165.464 114.282 165.464 115.03C165.464 115.794 164.995 116.324 164.308 116.324ZM170.559 112.667C169.925 112.667 169.413 112.927 169.083 113.396V112.71H167.745V119.069H169.083V116.706C169.421 117.175 169.934 117.436 170.586 117.436C171.897 117.436 172.757 116.489 172.757 115.073C172.757 113.631 171.871 112.667 170.559 112.667ZM170.247 116.324C169.56 116.324 169.083 115.803 169.083 115.03C169.083 114.274 169.56 113.744 170.247 113.744C170.933 113.744 171.402 114.282 171.402 115.03C171.402 115.794 170.933 116.324 170.247 116.324ZM178.854 114.3L179.757 113.648C179.34 113.023 178.628 112.667 177.733 112.667C176.3 112.667 175.336 113.631 175.336 115.064C175.336 116.48 176.3 117.436 177.716 117.436C178.672 117.436 179.401 117.054 179.792 116.402L178.871 115.777C178.637 116.142 178.263 116.324 177.785 116.324C177.134 116.324 176.674 115.811 176.674 115.056C176.674 114.309 177.134 113.805 177.785 113.805C178.246 113.796 178.602 113.987 178.854 114.3ZM184.534 117.384L184.525 114.335C184.516 113.283 183.795 112.658 182.544 112.658C181.728 112.658 181.128 112.849 180.433 113.197L180.85 114.117C181.337 113.848 181.823 113.709 182.24 113.709C182.883 113.709 183.213 113.996 183.213 114.491V114.578H181.928C180.781 114.587 180.147 115.108 180.147 115.985C180.147 116.836 180.755 117.445 181.754 117.445C182.405 117.445 182.909 117.227 183.222 116.836V117.384H184.534ZM182.127 116.489C181.676 116.489 181.398 116.254 181.398 115.898C181.398 115.525 181.65 115.368 182.162 115.368H183.213V115.785C183.135 116.185 182.692 116.489 182.127 116.489ZM188.301 116.142C188.058 116.254 187.85 116.315 187.676 116.315C187.389 116.324 187.224 116.168 187.224 115.777V113.848H188.492V112.919H187.224V111.633H185.895V112.919H185.243V113.839H185.895V116.003C185.895 116.967 186.529 117.445 187.363 117.445C187.798 117.445 188.232 117.323 188.579 117.123L188.301 116.142ZM193.408 117.384L193.399 114.335C193.39 113.283 192.669 112.658 191.418 112.658C190.602 112.658 190.002 112.849 189.307 113.197L189.724 114.117C190.211 113.848 190.697 113.709 191.114 113.709C191.757 113.709 192.087 113.996 192.087 114.491V114.578H190.801C189.655 114.587 189.02 115.108 189.02 115.985C189.02 116.836 189.629 117.445 190.628 117.445C191.279 117.445 191.783 117.227 192.096 116.836V117.384H193.408ZM191.001 116.489C190.549 116.489 190.271 116.254 190.271 115.898C190.271 115.525 190.523 115.368 191.036 115.368H192.087V115.785C192.009 116.185 191.566 116.489 191.001 116.489ZM194.604 110.938V117.384H195.942V110.938H194.604ZM199.395 112.667C197.892 112.667 196.884 113.614 196.884 115.047C196.884 116.472 197.892 117.436 199.395 117.436C200.889 117.436 201.896 116.472 201.896 115.047C201.896 113.614 200.889 112.667 199.395 112.667ZM199.395 113.779C200.081 113.779 200.559 114.3 200.559 115.064C200.559 115.829 200.081 116.35 199.395 116.35C198.7 116.35 198.23 115.829 198.23 115.064C198.23 114.3 198.7 113.779 199.395 113.779ZM205.83 112.71V113.344C205.509 112.91 205.022 112.658 204.388 112.667C203.198 112.667 202.381 113.561 202.381 114.882C202.381 116.237 203.215 117.141 204.423 117.141C205.04 117.141 205.517 116.897 205.83 116.463V116.993C205.83 117.627 205.344 118.035 204.579 118.035C204.049 118.035 203.554 117.87 203.128 117.566L202.633 118.504C203.172 118.869 203.875 119.121 204.666 119.121C206.16 119.121 207.159 118.279 207.159 116.949V112.71H205.83ZM204.735 116.124C204.075 116.124 203.641 115.629 203.632 114.917C203.641 114.204 204.084 113.7 204.735 113.7C205.387 113.7 205.83 114.196 205.83 114.917C205.83 115.629 205.387 116.124 204.735 116.124Z" fill="#FEFEFE"/>
<path d="M186.428 173.888V179.217H187.819V173.888H186.428ZM191.243 173.85C189.593 173.85 188.362 174.998 188.362 176.549C188.362 178.107 189.593 179.278 191.243 179.278C192.892 179.278 194.123 178.107 194.123 176.549C194.123 175.006 192.892 173.85 191.243 173.85ZM191.258 175.036C192.056 175.036 192.694 175.69 192.694 176.556C192.694 177.423 192.056 178.092 191.258 178.092C190.467 178.092 189.791 177.423 189.791 176.556C189.791 175.69 190.46 175.036 191.258 175.036ZM194.019 173.888V175.036H195.6V179.217H196.991V175.036H198.588V173.888H194.019ZM202.336 179.217H203.818L201.583 173.888H200.154L197.866 179.217H199.295L199.668 178.274H201.971L202.336 179.217ZM200.086 177.21L200.831 175.31L201.56 177.21H200.086ZM207.876 173.577H206.66C206.029 174.474 205.687 175.637 205.687 176.868C205.687 178.099 206.029 179.262 206.66 180.159H207.876C207.321 179.262 206.956 178.099 206.956 176.868C206.956 175.637 207.321 174.474 207.876 173.577ZM208.238 173.888V179.217H209.477V175.842L210.716 178.685H211.629L212.868 175.842L212.875 179.217H214.107V173.888H212.586L211.173 176.997L209.759 173.888H208.238ZM214.99 173.888V179.217H216.381V173.888H214.99ZM219.804 173.85C218.155 173.85 216.923 174.998 216.923 176.549C216.923 178.107 218.155 179.278 219.804 179.278C221.454 179.278 222.685 178.107 222.685 176.549C222.685 175.006 221.454 173.85 219.804 173.85ZM219.819 175.036C220.617 175.036 221.256 175.69 221.256 176.556C221.256 177.423 220.617 178.092 219.819 178.092C219.029 178.092 218.352 177.423 218.352 176.556C218.352 175.69 219.021 175.036 219.819 175.036ZM222.581 173.888V175.036H224.162V179.217H225.553V175.036H227.149V173.888H222.581ZM230.897 179.217H232.379L230.144 173.888H228.715L226.427 179.217H227.857L228.229 178.274H230.532L230.897 179.217ZM228.647 177.21L229.392 175.31L230.122 177.21H228.647ZM232.527 173.577C233.082 174.474 233.447 175.637 233.447 176.868C233.447 178.099 233.082 179.262 232.527 180.159H233.743C234.374 179.262 234.716 178.099 234.716 176.868C234.716 175.637 234.374 174.474 233.743 173.577H232.527Z" fill="#FEFEFE"/>
<path d="M187.038 219.387V224.716H188.429V219.387H187.038ZM191.852 219.349C190.203 219.349 188.971 220.497 188.971 222.048C188.971 223.606 190.203 224.777 191.852 224.777C193.502 224.777 194.733 223.606 194.733 222.048C194.733 220.505 193.502 219.349 191.852 219.349ZM191.868 220.535C192.666 220.535 193.304 221.189 193.304 222.055C193.304 222.922 192.666 223.591 191.868 223.591C191.077 223.591 190.401 222.922 190.401 222.055C190.401 221.189 191.069 220.535 191.868 220.535ZM194.629 219.387V220.535H196.21V224.716H197.601V220.535H199.197V219.387H194.629ZM202.945 224.716H204.428L202.193 219.387H200.764L198.476 224.716H199.905L200.277 223.773H202.58L202.945 224.716ZM200.695 222.709L201.44 220.809L202.17 222.709H200.695ZM206.358 219.387V224.716H210.006V223.53H207.749V219.387H206.358ZM212.298 220.558C211.013 220.558 210.154 221.402 210.154 222.679C210.154 223.933 210.983 224.761 212.328 224.761C213.088 224.761 213.704 224.503 214.122 224.032L213.415 223.325C213.142 223.598 212.799 223.743 212.45 223.743C211.986 223.743 211.644 223.484 211.515 223.021H214.373C214.464 221.523 213.734 220.558 212.298 220.558ZM211.484 222.299C211.576 221.827 211.865 221.508 212.305 221.508C212.761 221.508 213.066 221.827 213.066 222.299H211.484ZM217.509 220.604V221.105C217.235 220.756 216.825 220.558 216.308 220.558C215.289 220.558 214.582 221.333 214.582 222.504C214.582 223.697 215.312 224.488 216.338 224.488C216.847 224.488 217.243 224.298 217.509 223.948V224.389C217.509 224.868 217.136 225.179 216.521 225.179C216.08 225.179 215.624 225.035 215.251 224.777L214.78 225.712C215.244 226.016 215.897 226.244 216.619 226.244C217.95 226.244 218.854 225.514 218.854 224.351V220.604H217.509ZM216.68 223.5C216.179 223.5 215.844 223.104 215.844 222.542C215.844 221.972 216.179 221.576 216.68 221.576C217.174 221.576 217.509 221.964 217.509 222.542C217.509 223.104 217.174 223.5 216.68 223.5ZM221.548 220.55C220.872 220.55 220.279 220.71 219.633 220.999L220.005 221.911C220.446 221.698 220.895 221.584 221.237 221.584C221.754 221.584 222.02 221.812 222.02 222.2V222.245H220.948C219.929 222.261 219.374 222.709 219.374 223.492C219.374 224.245 219.899 224.777 220.781 224.777C221.336 224.777 221.754 224.594 222.02 224.252V224.716H223.35V222.04C223.342 221.098 222.681 220.55 221.548 220.55ZM221.199 223.857C220.849 223.857 220.644 223.674 220.644 223.393C220.644 223.104 220.834 222.968 221.214 222.968H222.02V223.325C221.936 223.636 221.602 223.857 221.199 223.857ZM226.76 222.101L227.74 221.531C227.383 220.915 226.729 220.558 225.901 220.558C224.624 220.558 223.772 221.402 223.772 222.679C223.772 223.933 224.616 224.761 225.886 224.761C226.76 224.761 227.429 224.404 227.755 223.773L226.76 223.203C226.592 223.522 226.311 223.667 225.954 223.667C225.467 223.667 225.133 223.272 225.133 222.671C225.133 222.078 225.467 221.675 225.954 221.675C226.304 221.675 226.577 221.835 226.76 222.101ZM230.443 225.119L232.206 220.604H230.861L229.987 223.279L229.006 220.604H227.615L229.318 224.617L229.219 224.807C229.112 225.012 228.953 225.119 228.725 225.119C228.527 225.119 228.368 225.05 228.177 224.891L227.615 225.826C227.987 226.114 228.368 226.251 228.831 226.251C229.607 226.251 230.131 225.886 230.443 225.119Z" fill="#FEFEFE"/>
<path d="M233.213 117.384H234.681L232.084 111.303H230.668L228.027 117.384H229.443L229.921 116.202H232.735L233.213 117.384ZM230.372 115.099L231.337 112.736L232.292 115.099H230.372ZM238.145 112.667C237.511 112.667 236.999 112.927 236.669 113.396V112.71H235.331V119.069H236.669V116.706C237.007 117.175 237.52 117.436 238.171 117.436C239.483 117.436 240.343 116.489 240.343 115.073C240.343 113.631 239.457 112.667 238.145 112.667ZM237.833 116.324C237.146 116.324 236.669 115.803 236.669 115.03C236.669 114.274 237.146 113.744 237.833 113.744C238.519 113.744 238.988 114.282 238.988 115.03C238.988 115.794 238.519 116.324 237.833 116.324ZM244.084 112.667C243.45 112.667 242.937 112.927 242.607 113.396V112.71H241.269V119.069H242.607V116.706C242.946 117.175 243.458 117.436 244.11 117.436C245.422 117.436 246.282 116.489 246.282 115.073C246.282 113.631 245.396 112.667 244.084 112.667ZM243.771 116.324C243.085 116.324 242.607 115.803 242.607 115.03C242.607 114.274 243.085 113.744 243.771 113.744C244.457 113.744 244.927 114.282 244.927 115.03C244.927 115.794 244.457 116.324 243.771 116.324ZM250.109 114.083L250.57 113.171C250.048 112.84 249.388 112.649 248.745 112.649C247.729 112.649 246.904 113.144 246.904 114.109C246.904 115.751 249.327 115.351 249.327 116.098C249.327 116.35 249.075 116.463 248.737 116.463C248.224 116.463 247.599 116.254 247.112 115.881L246.678 116.784C247.208 117.21 247.946 117.436 248.702 117.436C249.762 117.436 250.604 116.932 250.604 115.976C250.613 114.326 248.146 114.682 248.146 113.978C248.146 113.735 248.372 113.631 248.685 113.631C249.075 113.631 249.597 113.796 250.109 114.083ZM254.264 110.625C253.838 110.625 253.543 110.938 253.543 111.372C253.543 111.807 253.838 112.119 254.264 112.119C254.689 112.119 254.985 111.807 254.985 111.372C254.985 110.938 254.689 110.625 254.264 110.625ZM253.595 112.71V117.384H254.933V112.71H253.595ZM259.17 112.658C258.44 112.667 257.884 112.945 257.554 113.527V112.71H256.216V117.384H257.554V115.082C257.554 114.395 257.954 113.892 258.623 113.883C259.196 113.883 259.543 114.248 259.543 114.838V117.384H260.881V114.448C260.881 113.353 260.212 112.658 259.17 112.658ZM264.981 114.083L265.441 113.171C264.92 112.84 264.26 112.649 263.617 112.649C262.601 112.649 261.775 113.144 261.775 114.109C261.775 115.751 264.199 115.351 264.199 116.098C264.199 116.35 263.947 116.463 263.608 116.463C263.096 116.463 262.47 116.254 261.984 115.881L261.549 116.784C262.079 117.21 262.818 117.436 263.574 117.436C264.633 117.436 265.476 116.932 265.476 115.976C265.485 114.326 263.018 114.682 263.018 113.978C263.018 113.735 263.243 113.631 263.556 113.631C263.947 113.631 264.468 113.796 264.981 114.083ZM268.986 116.142C268.743 116.254 268.534 116.315 268.36 116.315C268.074 116.324 267.909 116.168 267.909 115.777V113.848H269.177V112.919H267.909V111.633H266.58V112.919H265.928V113.839H266.58V116.003C266.58 116.967 267.214 117.445 268.048 117.445C268.482 117.445 268.916 117.323 269.264 117.123L268.986 116.142ZM274.092 117.384L274.083 114.335C274.075 113.283 273.354 112.658 272.103 112.658C271.286 112.658 270.687 112.849 269.992 113.197L270.409 114.117C270.895 113.848 271.382 113.709 271.799 113.709C272.441 113.709 272.772 113.996 272.772 114.491V114.578H271.486C270.339 114.587 269.705 115.108 269.705 115.985C269.705 116.836 270.313 117.445 271.312 117.445C271.964 117.445 272.468 117.227 272.78 116.836V117.384H274.092ZM271.686 116.489C271.234 116.489 270.956 116.254 270.956 115.898C270.956 115.525 271.208 115.368 271.72 115.368H272.772V115.785C272.693 116.185 272.25 116.489 271.686 116.489ZM275.288 110.938V117.384H276.626V110.938H275.288ZM278.012 110.938V117.384H279.349V110.938H278.012ZM282.698 112.667C281.273 112.667 280.292 113.622 280.292 115.064C280.292 116.48 281.239 117.436 282.733 117.436C283.575 117.436 284.262 117.132 284.731 116.611L284.027 115.898C283.706 116.22 283.289 116.393 282.846 116.393C282.246 116.393 281.795 116.046 281.638 115.455H284.991C285.104 113.753 284.34 112.667 282.698 112.667ZM281.612 114.665C281.716 114.048 282.116 113.648 282.707 113.648C283.324 113.648 283.723 114.048 283.74 114.665H281.612ZM289.158 110.938V113.396C288.82 112.919 288.307 112.658 287.647 112.658C286.344 112.658 285.475 113.605 285.475 115.03C285.475 116.472 286.353 117.436 287.682 117.436C288.325 117.436 288.828 117.175 289.158 116.698V117.384H290.488V110.938H289.158ZM287.994 116.359C287.291 116.359 286.822 115.829 286.813 115.064C286.822 114.309 287.299 113.77 287.994 113.77C288.681 113.77 289.158 114.3 289.158 115.064C289.158 115.829 288.681 116.359 287.994 116.359Z" fill="#898989"/>
<path d="M472.759 141.833L473.222 140.837C472.69 140.488 471.945 140.26 471.2 140.26C469.969 140.26 469.14 140.868 469.14 141.833C469.14 143.718 471.976 143.133 471.976 144.136C471.976 144.463 471.679 144.646 471.185 144.646C470.623 144.646 469.847 144.334 469.3 143.847L468.821 144.828C469.422 145.337 470.296 145.672 471.17 145.672C472.348 145.672 473.253 145.109 473.253 144.068C473.26 142.152 470.425 142.7 470.425 141.719C470.425 141.43 470.699 141.286 471.102 141.286C471.527 141.286 472.196 141.499 472.759 141.833ZM475.919 141.506C474.604 141.506 473.722 142.335 473.722 143.589C473.722 144.836 474.604 145.679 475.919 145.679C477.226 145.679 478.108 144.836 478.108 143.589C478.108 142.335 477.226 141.506 475.919 141.506ZM475.919 142.479C476.519 142.479 476.937 142.935 476.937 143.604C476.937 144.273 476.519 144.729 475.919 144.729C475.31 144.729 474.9 144.273 474.9 143.604C474.9 142.935 475.31 142.479 475.919 142.479ZM480.052 142.282V141.544H478.882V145.634H480.052V143.665C480.052 142.973 480.569 142.525 481.405 142.601V141.499C480.797 141.506 480.333 141.78 480.052 142.282ZM484.332 144.547C484.119 144.646 483.937 144.699 483.785 144.699C483.534 144.706 483.389 144.57 483.389 144.228V142.54H484.499V141.727H483.389V140.602H482.226V141.727H481.656V142.532H482.226V144.425C482.226 145.269 482.781 145.687 483.511 145.687C483.891 145.687 484.271 145.581 484.575 145.406L484.332 144.547Z" fill="#898989"/>
<path d="M487.137 140.313V145.634H488.224V142.046L489.637 145.094H490.42L491.834 142.046V145.634H492.914V140.313H491.576L490.033 143.566L488.482 140.313H487.137ZM497.589 145.634L497.581 142.966C497.574 142.046 496.943 141.499 495.848 141.499C495.134 141.499 494.609 141.666 494.001 141.97L494.366 142.776C494.791 142.54 495.217 142.418 495.582 142.418C496.144 142.418 496.433 142.669 496.433 143.103V143.179H495.308C494.305 143.186 493.75 143.642 493.75 144.41C493.75 145.155 494.282 145.687 495.156 145.687C495.726 145.687 496.167 145.497 496.441 145.155V145.634H497.589ZM495.483 144.851C495.088 144.851 494.845 144.646 494.845 144.334C494.845 144.007 495.065 143.87 495.514 143.87H496.433V144.235C496.365 144.585 495.977 144.851 495.483 144.851ZM499.768 142.282V141.544H498.597V145.634H499.768V143.665C499.768 142.973 500.285 142.525 501.121 142.601V141.499C500.513 141.506 500.049 141.78 499.768 142.282ZM504.481 145.634H505.864L504.298 143.125L505.796 141.552H504.466L502.968 143.095V139.994H501.798V145.634H502.968V144.524L503.493 143.969L504.481 145.634ZM508.014 141.506C506.767 141.506 505.908 142.342 505.908 143.604C505.908 144.843 506.737 145.679 508.044 145.679C508.782 145.679 509.382 145.413 509.793 144.957L509.177 144.334C508.896 144.615 508.531 144.767 508.143 144.767C507.619 144.767 507.223 144.463 507.087 143.946H510.021C510.12 142.456 509.451 141.506 508.014 141.506ZM507.064 143.255C507.155 142.715 507.505 142.365 508.022 142.365C508.561 142.365 508.911 142.715 508.926 143.255H507.064ZM513.082 144.547C512.869 144.646 512.686 144.699 512.534 144.699C512.283 144.706 512.139 144.57 512.139 144.228V142.54H513.249V141.727H512.139V140.602H510.976V141.727H510.406V142.532H510.976V144.425C510.976 145.269 511.531 145.687 512.261 145.687C512.641 145.687 513.021 145.581 513.325 145.406L513.082 144.547ZM518.592 142.935L519.383 142.365C519.018 141.818 518.395 141.506 517.612 141.506C516.358 141.506 515.514 142.35 515.514 143.604C515.514 144.843 516.358 145.679 517.597 145.679C518.433 145.679 519.071 145.345 519.413 144.775L518.608 144.228C518.402 144.547 518.076 144.706 517.657 144.706C517.087 144.706 516.685 144.258 516.685 143.597C516.685 142.943 517.087 142.502 517.657 142.502C518.06 142.494 518.372 142.662 518.592 142.935ZM523.562 145.634L523.555 142.966C523.547 142.046 522.916 141.499 521.821 141.499C521.107 141.499 520.582 141.666 519.974 141.97L520.339 142.776C520.765 142.54 521.191 142.418 521.555 142.418C522.118 142.418 522.407 142.669 522.407 143.103V143.179H521.282C520.278 143.186 519.724 143.642 519.724 144.41C519.724 145.155 520.256 145.687 521.13 145.687C521.7 145.687 522.141 145.497 522.414 145.155V145.634H523.562ZM521.457 144.851C521.061 144.851 520.818 144.646 520.818 144.334C520.818 144.007 521.039 143.87 521.487 143.87H522.407V144.235C522.338 144.585 521.951 144.851 521.457 144.851ZM527.072 141.506C526.517 141.506 526.068 141.734 525.779 142.145V141.544H524.609V147.108H525.779V145.041C526.076 145.451 526.524 145.679 527.094 145.679C528.242 145.679 528.995 144.851 528.995 143.612C528.995 142.35 528.219 141.506 527.072 141.506ZM526.798 144.706C526.198 144.706 525.779 144.25 525.779 143.574C525.779 142.913 526.198 142.449 526.798 142.449C527.399 142.449 527.809 142.92 527.809 143.574C527.809 144.243 527.399 144.706 526.798 144.706Z" fill="#648FF0"/>
<path d="M163.979 145.495L165.861 147.381" stroke="#FEFEFE" stroke-width="0.717812" stroke-linecap="round"/>
<ellipse cx="161.468" cy="143.006" rx="3.58558" ry="3.59301" stroke="#FEFEFE" stroke-width="0.717812"/>
</g>
<defs>
<clipPath id="clip0">
<rect width="634" height="341" fill="white" transform="translate(0 0.799805)"/>
</clipPath>
</defs>
</svg>
