<svg width="760" height="600" viewBox="0 0 760 600" fill="none" xmlns="http://www.w3.org/2000/svg">
<path d="M465.162 110.667C472.478 112.385 474.973 121.574 469.439 126.701L442.931 151.294C438.315 155.551 430.928 154.249 428.129 148.599L410.738 113.701C407.203 106.6 413.503 98.4833 421.353 100.334L465.162 110.667Z" fill="#108CFF"/>
<rect x="193.656" y="125.348" width="401.581" height="296.791" rx="96" fill="#E3EEFE"/>
<path d="M211.152 400.826C209.386 401.885 207.094 401.254 206.495 399.292C205.603 396.236 205.444 392.912 206.351 389.74C207.599 385.38 210.468 381.609 214.46 379.295C218.452 376.981 223.106 376.32 227.517 377.481C230.738 378.301 233.546 380.038 235.694 382.317C237.126 383.837 236.496 386.129 234.643 387.137C232.877 388.196 230.635 387.479 229.053 386.22C228.027 385.396 226.851 384.833 225.526 384.529C223.01 383.886 220.342 384.308 218.029 385.513C215.754 386.855 214.057 388.993 213.413 391.508C213.023 392.784 212.943 394.123 213.136 395.389C213.498 397.562 212.868 399.853 211.152 400.826Z" fill="#FFAB49"/>
<path d="M579.763 408.062C589.877 402.246 589.877 387.665 579.848 381.85L545.966 362.043C536.358 356.396 524.137 362.718 523.21 373.843L519.586 415.31C518.49 427.531 531.638 435.875 542.258 429.806L579.763 408.062Z" fill="#FFCA62"/>
<path opacity="0.3" fill-rule="evenodd" clip-rule="evenodd" d="M471.621 233.673V235.26H507.064C511.332 233.969 515.859 233.274 520.548 233.274L749.032 233.274C751.254 233.274 753.056 235.076 753.056 237.298V322.226C753.056 324.448 751.254 326.249 749.032 326.249L520.548 326.249C515.86 326.249 511.334 325.555 507.067 324.265H281.119C277.045 324.265 273.743 320.962 273.743 316.888V299.925H218.706C210.632 299.925 203.669 295.145 200.466 288.268C200.45 288.269 200.433 288.27 200.416 288.271C200.4 288.272 200.383 288.272 200.367 288.272H179.921C179.18 288.272 178.58 287.671 178.58 286.931L178.58 285.232H0.0585938V274.292H178.58L178.58 272.595C178.58 271.854 179.18 271.253 179.921 271.253H200.367C200.4 271.253 200.433 271.255 200.466 271.257C203.669 264.38 210.632 259.6 218.706 259.6H273.743V242.636C273.743 238.563 277.045 235.26 281.119 235.26H305.741V233.673C305.741 231.451 307.543 229.649 309.765 229.649H340.26C342.482 229.649 344.284 231.451 344.284 233.673V235.26H433.078V233.673C433.078 231.451 434.88 229.649 437.102 229.649H467.597C469.82 229.649 471.621 231.451 471.621 233.673ZM544.559 280.877C544.559 285.879 543.038 290.526 540.434 294.38C536.094 300.804 528.745 305.027 520.409 305.027C512.581 305.027 505.622 301.302 501.209 295.528C498.104 291.465 496.259 286.387 496.259 280.876C496.259 274.208 498.962 268.171 503.332 263.801C507.703 259.43 513.74 256.727 520.409 256.727C527.942 256.727 534.669 260.176 539.098 265.581C541.531 268.55 543.27 272.109 544.068 276.01C544.39 277.582 544.559 279.21 544.559 280.877Z" fill="#B0BFD9"/>
<path d="M207.707 266.846C207.707 266.105 207.107 265.505 206.366 265.505H185.92C185.18 265.505 184.579 266.105 184.579 266.846V281.182C184.579 281.923 185.18 282.523 185.92 282.523H206.366C207.107 282.523 207.707 281.923 207.707 281.182V266.846Z" fill="url(#paint0_linear)"/>
<path d="M279.742 253.852H224.706C213.595 253.852 204.589 262.903 204.589 274.014C204.589 285.125 213.595 294.177 224.706 294.177H279.742V253.852Z" fill="url(#paint1_linear)"/>
<path d="M0.0585938 268.577H184.534V279.577H0.0585938V268.577Z" fill="url(#paint2_linear)"/>
<path d="M439.078 229.512H477.621V227.925C477.621 225.702 475.819 223.901 473.597 223.901H443.102C440.88 223.901 439.078 225.702 439.078 227.925V229.512Z" fill="white"/>
<path d="M311.74 229.512H350.283V227.925C350.283 225.702 348.481 223.901 346.259 223.901H315.764C313.542 223.901 311.74 225.702 311.74 227.925V229.512Z" fill="white"/>
<path fill-rule="evenodd" clip-rule="evenodd" d="M287.119 229.512C283.045 229.512 279.742 232.814 279.742 236.888V311.14C279.742 315.214 283.045 318.516 287.119 318.516H565.625C569.699 318.516 573.001 315.214 573.001 311.14V236.888C573.001 232.814 569.699 229.512 565.625 229.512H287.119ZM526.409 299.279C539.747 299.279 550.559 288.466 550.559 275.129C550.559 261.791 539.747 250.979 526.409 250.979C513.071 250.979 502.259 261.791 502.259 275.129C502.259 288.466 513.071 299.279 526.409 299.279Z" fill="url(#paint3_linear)"/>
<path fill-rule="evenodd" clip-rule="evenodd" d="M527.033 227.576C501.352 227.576 480.533 248.395 480.533 274.076C480.533 299.757 501.352 320.576 527.033 320.576H746.681C749.995 320.576 752.681 317.89 752.681 314.576V233.576C752.681 230.262 749.995 227.576 746.681 227.576H527.033ZM526.409 299.278C539.746 299.278 550.559 288.465 550.559 275.128C550.559 261.79 539.746 250.978 526.409 250.978C513.071 250.978 502.259 261.79 502.259 275.128C502.259 288.465 513.071 299.278 526.409 299.278Z" fill="white"/>
<rect x="324.924" y="249.646" width="139.046" height="48.1942" rx="4.41186" fill="#57AEFF"/>
<rect x="333.531" y="275.288" width="1.29313" height="1.29313" transform="rotate(-180 333.531 275.288)" fill="white"/>
<rect x="335.562" y="277.542" width="1.29313" height="1.29313" transform="rotate(-180 335.562 277.542)" fill="white"/>
<rect width="1.29313" height="1.29313" transform="matrix(-1 -8.74228e-08 -8.74228e-08 1 335.562 271.779)" fill="white"/>
<rect x="337.596" y="279.278" width="1.29313" height="1.29313" transform="rotate(-180 337.596 279.278)" fill="white"/>
<rect width="1.29313" height="1.29313" transform="matrix(-1 -8.74228e-08 -8.74228e-08 1 337.596 270.042)" fill="white"/>
<rect x="339.627" y="281.126" width="1.29313" height="1.29313" transform="rotate(-180 339.627 281.126)" fill="white"/>
<rect width="1.29313" height="1.29313" transform="matrix(-1 -8.74228e-08 -8.74228e-08 1 339.627 268.194)" fill="white"/>
<rect width="1.29313" height="1.29313" transform="matrix(1 -8.74228e-08 -8.74228e-08 -1 453.666 275.288)" fill="white"/>
<rect width="1.29313" height="1.29313" transform="matrix(1 -8.74228e-08 -8.74228e-08 -1 451.635 277.542)" fill="white"/>
<rect x="451.635" y="271.779" width="1.29313" height="1.29313" fill="white"/>
<rect width="1.29313" height="1.29313" transform="matrix(1 -8.74228e-08 -8.74228e-08 -1 449.602 279.278)" fill="white"/>
<rect x="449.602" y="270.042" width="1.29313" height="1.29313" fill="white"/>
<rect width="1.29313" height="1.29313" transform="matrix(1 -8.74228e-08 -8.74228e-08 -1 447.57 281.126)" fill="white"/>
<rect x="447.57" y="268.194" width="1.29313" height="1.29313" fill="white"/>
<rect x="458.518" y="214.468" width="2.64163" height="2.64163" transform="rotate(90 458.518 214.468)" fill="#108CFF"/>
<rect x="458.518" y="210.486" width="2.64163" height="2.64163" transform="rotate(90 458.518 210.486)" fill="#108CFF"/>
<rect x="458.518" y="206.504" width="2.64163" height="2.64163" transform="rotate(90 458.518 206.504)" fill="#108CFF"/>
<rect x="458.518" y="202.522" width="2.64163" height="2.64163" transform="rotate(90 458.518 202.522)" fill="#108CFF"/>
<rect x="458.518" y="198.541" width="2.64163" height="2.64163" transform="rotate(90 458.518 198.541)" fill="#108CFF"/>
<rect x="458.518" y="194.559" width="2.64163" height="2.64163" transform="rotate(90 458.518 194.559)" fill="#108CFF"/>
<rect x="458.518" y="190.577" width="2.64163" height="2.64163" transform="rotate(90 458.518 190.577)" fill="#108CFF"/>
<rect x="463.121" y="210.316" width="2.64163" height="2.64163" transform="rotate(90 463.121 210.316)" fill="#108CFF"/>
<rect width="2.64163" height="2.64163" transform="matrix(-4.37114e-08 1 1 4.37114e-08 451.35 210.316)" fill="#108CFF"/>
<rect x="466.67" y="206.165" width="2.64163" height="2.64163" transform="rotate(90 466.67 206.165)" fill="#108CFF"/>
<rect width="2.64163" height="2.64163" transform="matrix(-4.37114e-08 1 1 4.37114e-08 447.801 206.165)" fill="#108CFF"/>
<rect x="470.443" y="202.015" width="2.64163" height="2.64163" transform="rotate(90 470.443 202.015)" fill="#108CFF"/>
<rect width="2.64163" height="2.64163" transform="matrix(-4.37114e-08 1 1 4.37114e-08 444.027 202.015)" fill="#108CFF"/>
<rect x="333.049" y="214.468" width="2.64163" height="2.64163" transform="rotate(90 333.049 214.468)" fill="#108CFF"/>
<rect x="333.049" y="210.486" width="2.64163" height="2.64163" transform="rotate(90 333.049 210.486)" fill="#108CFF"/>
<rect x="333.049" y="206.504" width="2.64163" height="2.64163" transform="rotate(90 333.049 206.504)" fill="#108CFF"/>
<rect x="333.049" y="202.522" width="2.64163" height="2.64163" transform="rotate(90 333.049 202.522)" fill="#108CFF"/>
<rect x="333.049" y="198.541" width="2.64163" height="2.64163" transform="rotate(90 333.049 198.541)" fill="#108CFF"/>
<rect x="333.049" y="194.559" width="2.64163" height="2.64163" transform="rotate(90 333.049 194.559)" fill="#108CFF"/>
<rect x="333.049" y="190.577" width="2.64163" height="2.64163" transform="rotate(90 333.049 190.577)" fill="#108CFF"/>
<rect x="337.652" y="210.316" width="2.64163" height="2.64163" transform="rotate(90 337.652 210.316)" fill="#108CFF"/>
<rect width="2.64163" height="2.64163" transform="matrix(-4.37114e-08 1 1 4.37114e-08 325.881 210.316)" fill="#108CFF"/>
<rect x="341.201" y="206.165" width="2.64163" height="2.64163" transform="rotate(90 341.201 206.165)" fill="#108CFF"/>
<rect width="2.64163" height="2.64163" transform="matrix(-4.37114e-08 1 1 4.37114e-08 322.332 206.165)" fill="#108CFF"/>
<rect x="344.975" y="202.015" width="2.64163" height="2.64163" transform="rotate(90 344.975 202.015)" fill="#108CFF"/>
<rect width="2.64163" height="2.64163" transform="matrix(-4.37114e-08 1 1 4.37114e-08 318.559 202.015)" fill="#108CFF"/>
<path d="M358 266L361.586 262.414C362.367 261.633 363.633 261.633 364.414 262.414L366.586 264.586C367.367 265.367 368.633 265.367 369.414 264.586L371.586 262.414C372.367 261.633 373.633 261.633 374.414 262.414L376.586 264.586C377.367 265.367 378.633 265.367 379.414 264.586L381.586 262.414C382.367 261.633 383.633 261.633 384.414 262.414L386.586 264.586C387.367 265.367 388.633 265.367 389.414 264.586L391.586 262.414C392.367 261.633 393.633 261.633 394.414 262.414L396.586 264.586C397.367 265.367 398.633 265.367 399.414 264.586L401.586 262.414C402.367 261.633 403.633 261.633 404.414 262.414L406.586 264.586C407.367 265.367 408.633 265.367 409.414 264.586L411.586 262.414C412.367 261.633 413.633 261.633 414.414 262.414L416.586 264.586C417.367 265.367 418.633 265.367 419.414 264.586L421.586 262.414C422.367 261.633 423.633 261.633 424.414 262.414L426.586 264.586C427.367 265.367 428.633 265.367 429.414 264.586L433 261" stroke="white" stroke-width="2" stroke-linecap="round" stroke-linejoin="round"/>
<path d="M358 277L361.586 273.414C362.367 272.633 363.633 272.633 364.414 273.414L366.586 275.586C367.367 276.367 368.633 276.367 369.414 275.586L371.586 273.414C372.367 272.633 373.633 272.633 374.414 273.414L376.586 275.586C377.367 276.367 378.633 276.367 379.414 275.586L381.586 273.414C382.367 272.633 383.633 272.633 384.414 273.414L386.586 275.586C387.367 276.367 388.633 276.367 389.414 275.586L391.586 273.414C392.367 272.633 393.633 272.633 394.414 273.414L396.586 275.586C397.367 276.367 398.633 276.367 399.414 275.586L401.586 273.414C402.367 272.633 403.633 272.633 404.414 273.414L406.586 275.586C407.367 276.367 408.633 276.367 409.414 275.586L411.586 273.414C412.367 272.633 413.633 272.633 414.414 273.414L416.586 275.586C417.367 276.367 418.633 276.367 419.414 275.586L421.586 273.414C422.367 272.633 423.633 272.633 424.414 273.414L426.586 275.586C427.367 276.367 428.633 276.367 429.414 275.586L433 272" stroke="white" stroke-width="2" stroke-linecap="round" stroke-linejoin="round"/>
<path d="M358 288L361.586 284.414C362.367 283.633 363.633 283.633 364.414 284.414L366.586 286.586C367.367 287.367 368.633 287.367 369.414 286.586L371.586 284.414C372.367 283.633 373.633 283.633 374.414 284.414L376.586 286.586C377.367 287.367 378.633 287.367 379.414 286.586L381.586 284.414C382.367 283.633 383.633 283.633 384.414 284.414L386.586 286.586C387.367 287.367 388.633 287.367 389.414 286.586L391.586 284.414C392.367 283.633 393.633 283.633 394.414 284.414L396.586 286.586C397.367 287.367 398.633 287.367 399.414 286.586L401.586 284.414C402.367 283.633 403.633 283.633 404.414 284.414L406.586 286.586C407.367 287.367 408.633 287.367 409.414 286.586L411.586 284.414C412.367 283.633 413.633 283.633 414.414 284.414L416.586 286.586C417.367 287.367 418.633 287.367 419.414 286.586L421.586 284.414C422.367 283.633 423.633 283.633 424.414 284.414L426.586 286.586C427.367 287.367 428.633 287.367 429.414 286.586L433 283" stroke="white" stroke-width="2" stroke-linecap="round" stroke-linejoin="round"/>
<defs>
<linearGradient id="paint0_linear" x1="185.41" y1="272.843" x2="207.458" y2="272.843" gradientUnits="userSpaceOnUse">
<stop stop-color="white"/>
<stop offset="1" stop-color="#E4EBFA"/>
</linearGradient>
<linearGradient id="paint1_linear" x1="208.207" y1="276.58" x2="280.33" y2="276.58" gradientUnits="userSpaceOnUse">
<stop stop-color="white"/>
<stop offset="1" stop-color="#E4EBFA"/>
</linearGradient>
<linearGradient id="paint2_linear" x1="92.2962" y1="268.577" x2="204.013" y2="268.577" gradientUnits="userSpaceOnUse">
<stop stop-color="white"/>
<stop offset="1" stop-color="#E4EBFA"/>
</linearGradient>
<linearGradient id="paint3_linear" x1="426.372" y1="229.512" x2="426.372" y2="319.325" gradientUnits="userSpaceOnUse">
<stop stop-color="white"/>
<stop offset="1" stop-color="#F0F5FE"/>
</linearGradient>
</defs>
</svg>
