<svg width="760" height="600" viewBox="0 0 760 600" fill="none" xmlns="http://www.w3.org/2000/svg">
<path d="M478.621 73.0175C478.6 61.3509 491.228 54.0604 501.279 59.8386L535.373 79.2777C545.067 84.7752 545.703 98.5195 536.532 104.885L502.433 128.757C492.397 135.816 478.597 128.602 478.542 116.371L478.621 73.0175Z" fill="#628BF2"/>
<path d="M246.5 173.5C246.5 117.5 288.4 72.2002 340.1 72.2002H449.9C501.6 72.2002 543.5 117.6 543.5 173.5V373.7C543.5 429.7 501.6 475 449.9 475H340.2C288.5 475 246.6 429.6 246.6 373.7L246.5 173.5Z" fill="url(#paint0_linear)"/>
<path d="M255.848 453.675C250.032 458.434 251.83 467.784 259.054 469.957L293.674 480.394C299.692 482.189 305.755 477.772 305.785 471.467L306.065 432.476C306.119 424.545 296.892 420.023 290.655 425.137L255.848 453.675Z" fill="#37E5D7"/>
<path d="M438.117 106.869C443.824 111.006 461.568 127.866 450.841 135.483C444.995 139.634 435.016 135.234 423.971 127.227C414.096 120.069 407.23 112.025 407.542 105.178C408.177 91.3016 432.368 102.701 438.117 106.869Z" fill="#9AADCE"/>
<ellipse rx="11.9338" ry="26.9179" transform="matrix(0.587449 -0.809262 0.80558 0.592487 430.216 118.677)" fill="url(#paint1_linear)"/>
<path d="M372.443 206.996C362.657 211.252 354.371 221.396 355.704 231.788C356.24 235.933 357.741 238.542 360.255 241.29C361.746 242.92 364.165 244.712 366.156 245.661C369.807 247.4 374.177 247.875 378.813 246.646C391.342 243.327 399.531 229.511 396.227 217.042C395.118 212.854 394.349 211.133 391.444 208.868C389.347 207.231 386.262 204.617 383.637 204.09C379.889 203.336 376.417 205.268 372.443 206.996Z" fill="#9AADCE"/>
<path d="M369.952 204.135C360.166 208.392 353.788 219.561 355.121 229.953C356.557 241.063 366.36 248.379 377.788 245.351C390.317 242.032 398.506 228.216 395.202 215.747C392.147 204.217 380.562 199.522 369.952 204.135Z" fill="url(#paint2_linear)"/>
<path d="M383.008 239.817L412.052 230.638L411.666 229.416C411.141 227.756 409.37 226.835 407.709 227.36L384.678 234.639C383.018 235.164 382.097 236.935 382.622 238.596L383.008 239.817Z" fill="white"/>
<path d="M287.053 270.145L316.097 260.965L315.711 259.744C315.186 258.083 313.415 257.163 311.754 257.687L288.723 264.966C287.062 265.491 286.142 267.263 286.667 268.923L287.053 270.145Z" fill="white"/>
<path fill-rule="evenodd" clip-rule="evenodd" d="M268.451 276.024C265.407 276.986 263.719 280.233 264.681 283.277L282.395 339.324C283.357 342.368 286.605 344.056 289.649 343.094L499.614 276.734C502.658 275.772 504.346 272.524 503.384 269.48L485.67 213.433C484.708 210.389 481.46 208.702 478.416 209.664L268.451 276.024ZM465.434 271.592C475.484 268.415 481.057 257.693 477.88 247.642C474.704 237.591 463.981 232.018 453.93 235.195C443.879 238.371 438.307 249.094 441.483 259.145C444.66 269.196 455.383 274.769 465.434 271.592Z" fill="url(#paint3_linear)"/>
<path fill-rule="evenodd" clip-rule="evenodd" d="M448.451 217.489C429.104 223.604 418.377 244.245 424.491 263.592C430.606 282.939 451.247 293.666 470.594 287.551L674.03 223.255C675.691 222.73 676.611 220.958 676.087 219.298L655.844 155.249C655.319 153.588 653.547 152.668 651.887 153.192L448.451 217.489ZM465.435 271.592C475.486 268.415 481.058 257.692 477.882 247.642C474.705 237.591 463.982 232.018 453.932 235.195C443.881 238.371 438.308 249.094 441.485 259.145C444.661 269.196 455.384 274.768 465.435 271.592Z" fill="white"/>
<path d="M524.468 219.824C525.485 219.503 526.048 218.417 525.726 217.399C525.404 216.381 524.319 215.816 523.303 216.137C522.287 216.458 521.724 217.544 522.046 218.562C522.367 219.581 523.452 220.146 524.468 219.824Z" fill="#C4D1E8"/>
<path d="M534.769 245.212C535.786 244.891 536.349 243.805 536.027 242.787C535.705 241.769 534.62 241.204 533.604 241.525C532.588 241.846 532.025 242.932 532.346 243.95C532.668 244.968 533.753 245.533 534.769 245.212Z" fill="#C4D1E8"/>
<path d="M526.45 224.267C527.303 223.997 527.776 223.086 527.506 222.231C527.236 221.377 526.325 220.902 525.472 221.172C524.619 221.442 524.147 222.353 524.417 223.208C524.687 224.062 525.597 224.536 526.45 224.267Z" fill="#C4D1E8"/>
<path d="M530.745 223.562C531.598 223.292 532.071 222.381 531.801 221.526C531.531 220.672 530.62 220.197 529.767 220.467C528.914 220.737 528.442 221.648 528.712 222.502C528.982 223.357 529.892 223.831 530.745 223.562Z" fill="#C4D1E8"/>
<path d="M527.164 228.351C527.89 228.122 528.293 227.346 528.063 226.619C527.833 225.892 527.058 225.488 526.332 225.717C525.606 225.947 525.204 226.722 525.434 227.45C525.664 228.177 526.438 228.581 527.164 228.351Z" fill="#C4D1E8"/>
<path d="M531.448 227.613C532.174 227.383 532.576 226.608 532.346 225.881C532.116 225.153 531.341 224.75 530.615 224.979C529.889 225.209 529.487 225.984 529.717 226.711C529.947 227.439 530.722 227.842 531.448 227.613Z" fill="#C4D1E8"/>
<path d="M535.139 227.858C535.865 227.629 536.267 226.853 536.037 226.126C535.807 225.398 535.033 224.995 534.307 225.224C533.581 225.454 533.179 226.229 533.408 226.957C533.638 227.684 534.413 228.087 535.139 227.858Z" fill="#C4D1E8"/>
<path d="M531.23 231.158C531.865 230.957 532.217 230.278 532.016 229.642C531.815 229.006 531.137 228.653 530.502 228.853C529.866 229.054 529.515 229.733 529.716 230.369C529.917 231.005 530.595 231.359 531.23 231.158Z" fill="#C4D1E8"/>
<path d="M526.947 231.895C527.582 231.694 527.934 231.016 527.733 230.379C527.532 229.743 526.854 229.39 526.218 229.591C525.583 229.791 525.231 230.47 525.433 231.106C525.634 231.743 526.312 232.096 526.947 231.895Z" fill="#C4D1E8"/>
<path d="M534.955 231.392C535.59 231.192 535.942 230.513 535.741 229.876C535.539 229.24 534.862 228.887 534.226 229.088C533.591 229.288 533.239 229.967 533.44 230.603C533.641 231.24 534.319 231.593 534.955 231.392Z" fill="#C4D1E8"/>
<path d="M530.348 234.08C530.893 233.908 531.195 233.326 531.022 232.781C530.85 232.235 530.269 231.932 529.724 232.104C529.18 232.277 528.878 232.858 529.05 233.404C529.223 233.949 529.804 234.252 530.348 234.08Z" fill="#C4D1E8"/>
<path d="M534.061 234.282C534.606 234.11 534.907 233.528 534.735 232.983C534.563 232.437 533.981 232.135 533.437 232.307C532.893 232.479 532.591 233.06 532.763 233.606C532.936 234.151 533.517 234.454 534.061 234.282Z" fill="#C4D1E8"/>
<path d="M526.085 234.775C526.629 234.603 526.931 234.021 526.758 233.476C526.586 232.93 526.005 232.628 525.46 232.8C524.916 232.972 524.614 233.554 524.787 234.099C524.959 234.644 525.54 234.947 526.085 234.775Z" fill="#C4D1E8"/>
<path d="M529.049 236.264C529.503 236.121 529.754 235.636 529.61 235.182C529.467 234.727 528.982 234.475 528.529 234.618C528.075 234.762 527.823 235.246 527.967 235.701C528.111 236.156 528.595 236.408 529.049 236.264Z" fill="#C4D1E8"/>
<path d="M531.181 238.089C531.58 237.963 531.801 237.536 531.675 237.136C531.548 236.736 531.122 236.514 530.723 236.641C530.324 236.767 530.102 237.193 530.229 237.593C530.355 237.993 530.782 238.215 531.181 238.089Z" fill="#C4D1E8"/>
<path d="M529.585 239.101C529.912 238.998 530.093 238.649 529.989 238.321C529.886 237.994 529.537 237.812 529.211 237.916C528.884 238.019 528.703 238.368 528.806 238.695C528.91 239.022 529.259 239.204 529.585 239.101Z" fill="#C4D1E8"/>
<path d="M527.499 237.877C527.898 237.751 528.12 237.325 527.993 236.925C527.867 236.525 527.441 236.303 527.041 236.429C526.642 236.555 526.421 236.982 526.547 237.382C526.674 237.782 527.1 238.004 527.499 237.877Z" fill="#C4D1E8"/>
<path d="M524.766 237.003C525.219 236.859 525.471 236.375 525.327 235.92C525.183 235.465 524.699 235.213 524.245 235.357C523.792 235.5 523.54 235.985 523.684 236.439C523.828 236.894 524.312 237.146 524.766 237.003Z" fill="#C4D1E8"/>
<path d="M522.775 230.824C523.229 230.681 523.48 230.196 523.337 229.741C523.193 229.287 522.709 229.034 522.255 229.178C521.801 229.321 521.55 229.806 521.694 230.261C521.837 230.715 522.322 230.967 522.775 230.824Z" fill="#C4D1E8"/>
<path d="M522.222 227.812C522.621 227.686 522.842 227.259 522.716 226.859C522.589 226.459 522.163 226.237 521.764 226.363C521.365 226.489 521.144 226.916 521.27 227.316C521.396 227.716 521.823 227.938 522.222 227.812Z" fill="#C4D1E8"/>
<path d="M522.261 225.193C522.588 225.089 522.769 224.74 522.665 224.413C522.562 224.086 522.213 223.904 521.886 224.007C521.56 224.111 521.379 224.46 521.482 224.787C521.586 225.114 521.934 225.296 522.261 225.193Z" fill="#C4D1E8"/>
<path d="M520.528 224.51C520.928 224.384 521.149 223.957 521.022 223.557C520.896 223.157 520.47 222.935 520.071 223.062C519.671 223.188 519.45 223.614 519.577 224.014C519.703 224.414 520.129 224.636 520.528 224.51Z" fill="#C4D1E8"/>
<path d="M532.73 236.476C533.184 236.333 533.436 235.848 533.292 235.394C533.148 234.939 532.664 234.687 532.21 234.83C531.756 234.974 531.505 235.458 531.649 235.913C531.792 236.367 532.277 236.62 532.73 236.476Z" fill="#C4D1E8"/>
<path d="M518.354 224.147C518.807 224.004 519.059 223.519 518.915 223.065C518.771 222.61 518.287 222.358 517.833 222.501C517.38 222.644 517.128 223.129 517.272 223.584C517.416 224.038 517.9 224.291 518.354 224.147Z" fill="#C4D1E8"/>
<path d="M520.014 227.46C520.467 227.316 520.719 226.832 520.575 226.377C520.431 225.922 519.947 225.67 519.493 225.814C519.04 225.957 518.788 226.442 518.932 226.896C519.076 227.351 519.56 227.603 520.014 227.46Z" fill="#C4D1E8"/>
<path d="M520.145 231.076C520.69 230.904 520.991 230.322 520.819 229.777C520.647 229.231 520.065 228.928 519.521 229.101C518.977 229.273 518.675 229.854 518.847 230.4C519.02 230.945 519.601 231.248 520.145 231.076Z" fill="#C4D1E8"/>
<path d="M517.154 232.021C517.789 231.82 518.141 231.142 517.94 230.505C517.739 229.869 517.061 229.516 516.426 229.717C515.79 229.917 515.438 230.596 515.64 231.232C515.841 231.869 516.519 232.222 517.154 232.021Z" fill="#C4D1E8"/>
<path d="M513.922 233.913C514.648 233.683 515.05 232.908 514.82 232.18C514.591 231.453 513.816 231.049 513.09 231.279C512.364 231.508 511.962 232.284 512.192 233.011C512.421 233.739 513.196 234.142 513.922 233.913Z" fill="#C4D1E8"/>
<path d="M510.702 236.993C511.555 236.724 512.028 235.812 511.758 234.958C511.488 234.103 510.577 233.629 509.724 233.899C508.871 234.168 508.399 235.079 508.669 235.934C508.939 236.789 509.849 237.263 510.702 236.993Z" fill="#C4D1E8"/>
<path d="M507.758 241.401C508.774 241.079 509.337 239.994 509.015 238.975C508.693 237.957 507.608 237.392 506.592 237.713C505.576 238.035 505.013 239.12 505.335 240.139C505.656 241.157 506.741 241.722 507.758 241.401Z" fill="#C4D1E8"/>
<path d="M507.941 233.63C508.794 233.36 509.266 232.449 508.996 231.595C508.726 230.74 507.815 230.266 506.962 230.535C506.109 230.805 505.637 231.716 505.907 232.571C506.177 233.425 507.088 233.9 507.941 233.63Z" fill="#C4D1E8"/>
<path d="M511.159 230.548C511.885 230.319 512.287 229.543 512.057 228.816C511.827 228.089 511.052 227.685 510.326 227.915C509.6 228.144 509.198 228.92 509.428 229.647C509.658 230.374 510.433 230.778 511.159 230.548Z" fill="#C4D1E8"/>
<path d="M509.498 227.235C510.224 227.006 510.627 226.23 510.397 225.503C510.167 224.775 509.392 224.372 508.666 224.601C507.94 224.831 507.538 225.606 507.768 226.334C507.998 227.061 508.772 227.464 509.498 227.235Z" fill="#C4D1E8"/>
<path d="M512.732 225.344C513.367 225.144 513.719 224.465 513.518 223.829C513.317 223.192 512.639 222.839 512.004 223.04C511.368 223.241 511.017 223.919 511.218 224.556C511.419 225.192 512.097 225.545 512.732 225.344Z" fill="#C4D1E8"/>
<path d="M515.721 224.399C516.266 224.227 516.568 223.645 516.395 223.1C516.223 222.554 515.642 222.252 515.097 222.424C514.553 222.596 514.251 223.178 514.423 223.723C514.596 224.269 515.177 224.571 515.721 224.399Z" fill="#C4D1E8"/>
<path d="M517.384 227.712C517.928 227.54 518.23 226.958 518.057 226.412C517.885 225.867 517.304 225.564 516.759 225.736C516.215 225.908 515.913 226.49 516.086 227.036C516.258 227.581 516.839 227.884 517.384 227.712Z" fill="#C4D1E8"/>
<path d="M514.404 228.69C515.039 228.489 515.391 227.811 515.19 227.174C514.989 226.538 514.311 226.185 513.676 226.386C513.04 226.586 512.688 227.265 512.89 227.901C513.091 228.538 513.769 228.891 514.404 228.69Z" fill="#C4D1E8"/>
<path d="M513.917 238.476C514.244 238.373 514.425 238.024 514.321 237.696C514.218 237.369 513.869 237.187 513.543 237.291C513.216 237.394 513.035 237.743 513.138 238.07C513.242 238.397 513.591 238.579 513.917 238.476Z" fill="#C4D1E8"/>
<path d="M516.191 237.432C516.59 237.306 516.811 236.879 516.685 236.479C516.558 236.079 516.132 235.857 515.733 235.983C515.333 236.11 515.112 236.536 515.239 236.936C515.365 237.336 515.791 237.558 516.191 237.432Z" fill="#C4D1E8"/>
<path d="M518.475 235.624C518.928 235.48 519.18 234.996 519.036 234.541C518.892 234.087 518.408 233.834 517.954 233.978C517.501 234.121 517.249 234.606 517.393 235.06C517.537 235.515 518.021 235.767 518.475 235.624Z" fill="#C4D1E8"/>
<path d="M519.93 238.06C520.475 237.888 520.777 237.306 520.604 236.761C520.432 236.216 519.851 235.913 519.306 236.085C518.762 236.257 518.46 236.839 518.632 237.384C518.805 237.93 519.386 238.232 519.93 238.06Z" fill="#C4D1E8"/>
<path d="M516.975 239.682C517.428 239.539 517.68 239.054 517.536 238.6C517.392 238.145 516.908 237.893 516.454 238.036C516.001 238.18 515.749 238.664 515.893 239.119C516.037 239.574 516.521 239.826 516.975 239.682Z" fill="#C4D1E8"/>
<path d="M514.171 240.533C514.57 240.406 514.791 239.98 514.665 239.58C514.539 239.18 514.112 238.958 513.713 239.084C513.314 239.21 513.093 239.637 513.219 240.037C513.346 240.437 513.772 240.659 514.171 240.533Z" fill="#C4D1E8"/>
<path d="M514.922 242.794C515.376 242.65 515.627 242.166 515.483 241.711C515.34 241.256 514.855 241.004 514.402 241.148C513.948 241.291 513.697 241.776 513.84 242.23C513.984 242.685 514.468 242.937 514.922 242.794Z" fill="#C4D1E8"/>
<path d="M518.409 242.163C518.953 241.991 519.255 241.409 519.083 240.864C518.91 240.318 518.329 240.015 517.785 240.187C517.24 240.36 516.939 240.941 517.111 241.487C517.283 242.032 517.865 242.335 518.409 242.163Z" fill="#C4D1E8"/>
<path d="M522.183 240.499C522.818 240.298 523.17 239.619 522.969 238.983C522.768 238.347 522.09 237.993 521.455 238.194C520.82 238.395 520.468 239.074 520.669 239.71C520.87 240.346 521.548 240.699 522.183 240.499Z" fill="#C4D1E8"/>
<path d="M525.389 242.635C526.115 242.406 526.517 241.63 526.287 240.903C526.057 240.176 525.283 239.772 524.557 240.002C523.831 240.231 523.429 241.007 523.658 241.734C523.888 242.461 524.663 242.865 525.389 242.635Z" fill="#C4D1E8"/>
<path d="M520.683 244.557C521.318 244.357 521.67 243.678 521.469 243.041C521.268 242.405 520.59 242.052 519.955 242.253C519.32 242.453 518.968 243.132 519.169 243.768C519.37 244.405 520.048 244.758 520.683 244.557Z" fill="#C4D1E8"/>
<path d="M518.664 247.658C519.299 247.457 519.651 246.778 519.45 246.142C519.248 245.506 518.57 245.153 517.935 245.353C517.3 245.554 516.948 246.233 517.149 246.869C517.35 247.505 518.028 247.859 518.664 247.658Z" fill="#C4D1E8"/>
<path d="M521.846 249.839C522.572 249.61 522.974 248.834 522.744 248.107C522.514 247.38 521.74 246.976 521.014 247.206C520.288 247.435 519.886 248.211 520.115 248.938C520.345 249.665 521.12 250.069 521.846 249.839Z" fill="#C4D1E8"/>
<path d="M528.06 248.455C528.913 248.186 529.385 247.274 529.115 246.42C528.845 245.565 527.935 245.091 527.082 245.36C526.229 245.63 525.756 246.541 526.026 247.396C526.296 248.251 527.207 248.725 528.06 248.455Z" fill="#C4D1E8"/>
<path d="M523.866 246.738C524.592 246.508 524.994 245.733 524.764 245.006C524.534 244.278 523.759 243.875 523.033 244.104C522.307 244.334 521.905 245.109 522.135 245.836C522.365 246.564 523.14 246.967 523.866 246.738Z" fill="#C4D1E8"/>
<path d="M529.55 244.363C530.403 244.094 530.875 243.183 530.605 242.328C530.335 241.473 529.425 240.999 528.572 241.269C527.719 241.538 527.246 242.45 527.516 243.304C527.786 244.159 528.697 244.633 529.55 244.363Z" fill="#C4D1E8"/>
<path d="M516.387 245.263C516.932 245.091 517.234 244.51 517.061 243.964C516.889 243.419 516.308 243.116 515.763 243.288C515.219 243.46 514.917 244.042 515.09 244.587C515.262 245.133 515.843 245.435 516.387 245.263Z" fill="#C4D1E8"/>
<path d="M549.131 214.012L546.875 214.725L553.155 234.596L555.411 233.883L549.131 214.012Z" fill="#C4D1E8"/>
<path d="M559.529 221.635C557.77 216.067 560.925 209.883 566.388 208.157C571.882 206.42 577.94 209.653 579.711 215.257C581.482 220.86 578.351 226.997 572.888 228.724C567.467 230.472 561.3 227.238 559.529 221.635ZM577.455 215.97C576.06 211.554 571.307 208.923 567.055 210.267C562.802 211.611 560.393 216.506 561.789 220.921C563.195 225.372 567.979 227.989 572.231 226.645C576.484 225.301 578.862 220.42 577.455 215.97Z" fill="#C4D1E8"/>
<path d="M588.831 203.82L582.193 205.918L581.516 203.775L597.02 198.875L597.697 201.017L591.056 203.116L596.659 220.845L594.403 221.558L588.831 203.82Z" fill="#C4D1E8"/>
<path d="M609.732 197.902L607.647 217.372L605.194 218.147L607.479 196.802C607.554 196.016 608.107 195.371 608.826 195.144C609.577 194.906 610.368 195.127 610.882 195.727L625.018 211.882L622.566 212.657L609.732 197.902Z" fill="#C4D1E8"/>
<rect x="301.869" y="281.839" width="109.888" height="39.109" rx="3.45728" transform="rotate(-17.5393 301.869 281.839)" fill="#57AEFF"/>
<path d="M410.296 390.479C397.283 401.002 393.704 415.948 398.896 421.965C408.238 434.043 423.532 430.596 436.545 420.073C446.814 411.769 452.494 401.394 449.889 391.877C449.193 389.334 448.844 388.201 447.177 386.209C441.365 379.266 424.617 378.899 410.296 390.479Z" fill="#9AADCE"/>
<ellipse rx="19.4715" ry="29.4619" transform="matrix(-0.602023 -0.798479 -0.798479 0.602023 424.478 405.973)" fill="url(#paint4_linear)"/>
<path d="M511.306 280.581C518.629 290.353 518.352 301.594 513.902 305.46C505.133 312.333 495.131 307.238 487.808 297.466C482.029 289.754 479.868 281.399 483.414 275.132C484.361 273.458 485.147 272.644 486.683 271.533C492.037 267.662 503.983 270.809 511.306 280.581Z" fill="#9AADCE"/>
<ellipse cx="498.869" cy="289.651" rx="14.2082" ry="21.4982" transform="rotate(-38.7904 498.869 289.651)" fill="url(#paint5_linear)"/>
<path d="M167.595 244.422C177.541 262.992 193.917 272.673 207.462 265.121C219.819 257.301 221.47 237.939 211.524 219.369C203.675 204.715 192.185 195.248 179.803 196.227C176.495 196.488 173.676 197.878 170.82 199.47C160.866 205.02 157.649 225.852 167.595 244.422Z" fill="#9AADCE"/>
<ellipse rx="24.5099" ry="37.0855" transform="matrix(-0.897042 0.441945 0.441945 0.897042 191.245 230.97)" fill="url(#paint6_linear)"/>
<path d="M575.448 399.891C588.892 387.533 604.114 381.212 614.027 384.967C627.603 391.508 603.953 419.924 598.336 425.087C590.135 432.626 564.073 453.288 557.688 435.862C553.999 425.794 561.053 413.123 575.448 399.891Z" fill="#9AADCE"/>
<path d="M599.916 426.174C585.25 439.806 568.046 446.551 561.077 440.927C553.614 434.894 560.621 417.177 577.217 401.752C593.813 386.327 612.014 380.613 617.466 388.515C622.566 395.877 614.582 412.543 599.916 426.174Z" fill="url(#paint7_linear)"/>
<defs>
<linearGradient id="paint0_linear" x1="395" y1="72.2002" x2="395" y2="475" gradientUnits="userSpaceOnUse">
<stop stop-color="#FFD0BD"/>
<stop offset="1" stop-color="#FFB99D"/>
</linearGradient>
<linearGradient id="paint1_linear" x1="11.9338" y1="0" x2="11.9338" y2="53.8357" gradientUnits="userSpaceOnUse">
<stop stop-color="#AFCDEE"/>
<stop offset="1" stop-color="#DCE9F7"/>
</linearGradient>
<linearGradient id="paint2_linear" x1="395.998" y1="218.751" x2="354.856" y2="229.651" gradientUnits="userSpaceOnUse">
<stop stop-color="#AFCDEE"/>
<stop offset="1" stop-color="#DCE9F7"/>
</linearGradient>
<linearGradient id="paint3_linear" x1="275.337" y1="316.176" x2="430.004" y2="267.986" gradientUnits="userSpaceOnUse">
<stop stop-color="white"/>
<stop offset="1" stop-color="#F0F5FE"/>
</linearGradient>
<linearGradient id="paint4_linear" x1="19.4715" y1="0" x2="19.4715" y2="58.9238" gradientUnits="userSpaceOnUse">
<stop stop-color="#AFCDEE"/>
<stop offset="1" stop-color="#DCE9F7"/>
</linearGradient>
<linearGradient id="paint5_linear" x1="498.869" y1="268.153" x2="498.869" y2="311.15" gradientUnits="userSpaceOnUse">
<stop stop-color="#AFCDEE"/>
<stop offset="1" stop-color="#DCE9F7"/>
</linearGradient>
<linearGradient id="paint6_linear" x1="24.5099" y1="0" x2="24.5099" y2="74.1709" gradientUnits="userSpaceOnUse">
<stop stop-color="#AFCDEE"/>
<stop offset="1" stop-color="#DCE9F7"/>
</linearGradient>
<linearGradient id="paint7_linear" x1="616.818" y1="387.704" x2="560.317" y2="440.22" gradientUnits="userSpaceOnUse">
<stop stop-color="#AFCDEE"/>
<stop offset="1" stop-color="#DCE9F7"/>
</linearGradient>
</defs>
</svg>
