<svg width="634" height="342" viewBox="0 0 634 342" fill="none" xmlns="http://www.w3.org/2000/svg">
<g clip-path="url(#clip0)">
<path d="M387.79 15.1199C395.114 16.8383 397.611 26.0315 392.072 31.161L365.536 55.7659C360.915 60.0255 353.52 58.7226 350.719 53.0701L333.309 18.1548C329.771 11.0509 336.077 2.92992 343.935 4.78201L387.79 15.1199Z" fill="#108CFF"/>
<rect x="116" y="30" width="402" height="297" rx="96" fill="#E3EEFE"/>
<path d="M133.514 305.418C131.746 306.478 129.452 305.847 128.852 303.883C127.959 300.827 127.8 297.5 128.708 294.327C129.957 289.965 132.83 286.193 136.826 283.877C140.822 281.562 145.481 280.9 149.896 282.062C153.121 282.883 155.932 284.62 158.082 286.901C159.515 288.421 158.884 290.714 157.03 291.723C155.262 292.783 153.018 292.065 151.434 290.805C150.407 289.981 149.23 289.418 147.903 289.114C145.385 288.47 142.714 288.892 140.399 290.098C138.121 291.441 136.422 293.58 135.778 296.096C135.387 297.373 135.307 298.713 135.5 299.979C135.863 302.153 135.232 304.445 133.514 305.418Z" fill="#FFAB49"/>
<path d="M502.51 312.658C512.634 306.839 512.634 292.251 502.594 286.433L468.677 266.617C459.059 260.967 446.825 267.292 445.897 278.422L442.269 319.909C441.172 332.136 454.334 340.484 464.965 334.413L502.51 312.658Z" fill="#FFCA62"/>
<path d="M214.252 97.4588C214.252 95.4509 215.88 93.8232 217.888 93.8232H416.114C418.122 93.8232 419.749 95.4509 419.749 97.4588V209.96C419.749 211.968 418.122 213.596 416.114 213.596H217.888C215.88 213.596 214.252 211.968 214.252 209.96V97.4588Z" fill="#F2F6FE"/>
<rect x="218.107" y="99.5273" width="198.042" height="108.364" rx="0.363557" fill="#57AEFF"/>
<path d="M515.99 236.283H279.505" stroke="white" stroke-width="3.84476" stroke-linecap="square"/>
<path d="M195.756 251.703C195.756 254.338 197.892 256.474 200.526 256.474H433.475C436.11 256.474 438.246 254.338 438.246 251.703V250.518H195.756V251.703Z" fill="#D8E3F5"/>
<path d="M292.364 250.577C292.364 252.685 294.073 254.407 296.181 254.407H337.82C339.927 254.407 341.636 252.685 341.636 250.577H292.364Z" fill="#C4D1E8"/>
<path d="M195.765 250.554H438.236L421.508 217.113C420.43 214.958 418.228 213.597 415.818 213.597H218.183C215.774 213.597 213.571 214.958 212.493 217.113L195.765 250.554Z" fill="#FCFCFE"/>
<path d="M227.732 219.235C227.077 219.235 226.485 219.626 226.227 220.228L220.463 233.682C220 234.762 220.793 235.963 221.969 235.963H412.032C413.185 235.963 413.977 234.804 413.557 233.73L408.295 220.276C408.049 219.648 407.444 219.235 406.77 219.235H227.732Z" fill="#C4D1E8"/>
<path d="M295.442 145.828H294.006V159.238H301.604V157.955H295.442V145.828ZM306.214 149.379C303.416 149.379 301.452 151.456 301.452 154.44V154.783C301.491 156.066 302.058 157.277 303.001 158.182C303.909 159.014 305.079 159.503 306.327 159.503H306.515C307.838 159.503 309.086 159.011 310.068 158.182L310.107 158.143L309.465 157.086L309.391 157.125C308.596 157.844 307.614 158.259 306.557 158.259C304.82 158.259 303.043 157.125 302.93 154.595H310.188V154.52C310.188 154.52 310.227 154.067 310.227 153.84C310.218 151.119 308.632 149.379 306.214 149.379ZM302.963 153.383C303.264 151.683 304.512 150.587 306.136 150.587C307.345 150.587 308.668 151.307 308.782 153.383H302.963ZM318.535 150.513V151.005C317.929 149.985 316.798 149.343 315.624 149.343H315.511C312.94 149.343 311.164 151.384 311.164 154.368C311.164 157.391 312.866 159.429 315.398 159.429C317.401 159.429 318.309 158.22 318.61 157.692V159.166H319.971V145.828H318.574V150.513H318.535ZM315.586 158.182C313.809 158.182 312.639 156.672 312.639 154.404C312.639 152.214 313.887 150.665 315.624 150.665C317.099 150.665 318.571 151.835 318.571 154.404C318.571 157.2 317.022 158.182 315.586 158.182ZM328.248 150.701V150.775C327.982 150.322 327.152 149.34 325.149 149.34C322.617 149.34 320.954 151.268 320.954 154.213C320.954 157.158 322.691 159.16 325.262 159.16C326.659 159.16 327.606 158.668 328.248 157.65V158.972C328.248 160.822 327.077 161.882 324.996 161.882C324.127 161.882 323.22 161.655 322.426 161.24L322.351 161.201L321.823 162.371L321.897 162.41C322.879 162.902 323.975 163.165 325.035 163.165C327.265 163.165 329.645 162.031 329.645 158.895V149.606H328.248V150.701ZM325.45 157.916C323.599 157.916 322.39 156.481 322.39 154.252C322.39 151.984 323.447 150.701 325.262 150.701C327.265 150.701 328.209 151.871 328.209 154.252C328.248 156.594 327.265 157.916 325.45 157.916ZM335.353 149.379C332.556 149.379 330.63 151.456 330.63 154.404V154.744C330.669 156.027 331.236 157.239 332.18 158.143C333.087 158.975 334.258 159.465 335.505 159.465H335.694C337.016 159.465 338.264 158.972 339.246 158.143L339.285 158.104L338.605 157.048L338.53 157.086C337.736 157.806 336.753 158.22 335.697 158.22C333.959 158.22 332.183 157.086 332.069 154.556H339.36V154.481C339.36 154.481 339.399 154.028 339.399 153.801C339.399 151.119 337.81 149.379 335.353 149.379ZM332.141 153.383C332.442 151.683 333.69 150.587 335.314 150.587C336.524 150.587 337.846 151.307 337.96 153.383H332.141ZM345.295 149.567C345.107 149.528 344.955 149.528 344.767 149.492C343.444 149.492 342.348 150.325 341.781 151.721V149.567H340.384L340.423 159.124V159.199H341.859V155.159C341.859 154.553 341.933 153.912 342.125 153.345C342.578 151.871 343.599 150.928 344.809 150.928C344.961 150.928 345.11 150.928 345.262 150.966H345.337V149.57L345.295 149.567Z" fill="white"/>
<path fill-rule="evenodd" clip-rule="evenodd" d="M350.708 145.444H352.466V157.571H358.628V159.176H350.708V145.444ZM359.132 146.012H360.929V147.944H359.132V146.012ZM371.998 150.457C372.871 149.531 374.105 148.995 375.545 148.995C376.795 148.995 377.842 149.446 378.575 150.258C379.307 151.069 379.715 152.226 379.719 153.617V153.617C379.719 153.924 379.681 154.227 379.681 154.533H372.433C372.52 155.672 372.963 156.491 373.573 157.033C374.215 157.603 375.054 157.875 375.889 157.875C377.129 157.875 377.972 157.308 378.856 156.651L379.642 157.945C378.671 158.915 377.207 159.442 375.847 159.442H375.659C374.368 159.442 373.159 158.936 372.224 158.078L372.223 158.076L372.221 158.075C371.153 157.052 370.622 155.679 370.622 154.217C370.622 152.689 371.125 151.383 371.998 150.457ZM359.132 149.219H360.929V159.173H359.132V149.219ZM361.434 149.183H363.251L366.051 157.144L368.852 149.183H370.669L367.167 159.138H364.936L361.434 149.183ZM372.491 153H377.94C377.857 152.091 377.526 151.487 377.094 151.105C376.634 150.697 376.042 150.526 375.468 150.526C373.989 150.526 372.836 151.479 372.491 153Z" fill="white"/>
<ellipse cx="270.084" cy="154.354" rx="14.9386" ry="14.9302" fill="#108CFF"/>
<ellipse cx="270.084" cy="153.065" rx="14.9386" ry="14.9302" fill="white"/>
<path d="M262.625 158.842C262.167 158.252 261.778 157.606 261.47 156.915C260.604 154.98 260.415 152.811 260.935 150.756C261.454 148.701 262.651 146.881 264.332 145.589C265.196 144.925 266.162 144.421 267.185 144.091C268.051 143.811 268.959 143.657 269.879 143.637C270.057 143.633 270.199 143.78 270.197 143.958L270.165 146.519C270.163 146.697 270.017 146.839 269.839 146.846C268.558 146.898 267.306 147.349 266.288 148.131C265.178 148.984 264.388 150.185 264.045 151.541C263.703 152.897 263.827 154.329 264.398 155.606C264.663 156.198 265.016 156.74 265.443 157.216L262.625 158.842Z" fill="url(#paint0_linear)"/>
<path d="M277.544 147.296C278.001 147.886 278.39 148.532 278.699 149.223C279.565 151.157 279.753 153.327 279.234 155.382C278.714 157.437 277.518 159.257 275.836 160.549C274.972 161.213 274.006 161.717 272.984 162.047C272.117 162.327 271.21 162.481 270.29 162.501C270.112 162.505 269.969 162.358 269.971 162.18L270.004 159.618C270.007 159.44 270.153 159.299 270.33 159.292C271.616 159.241 272.857 158.794 273.881 158.007C274.991 157.154 275.78 155.953 276.123 154.597C276.466 153.241 276.342 151.809 275.77 150.532C275.506 149.94 275.152 149.398 274.726 148.922L277.544 147.296Z" fill="url(#paint1_linear)"/>
<path d="M268.322 154.911C268.387 154.746 268.307 154.561 268.142 154.495L265.962 153.615C265.796 153.548 265.607 153.629 265.542 153.795C265.223 154.602 264.366 156.767 264.249 157.06C264.103 157.42 263.78 157.748 263.316 157.826C262.851 157.905 262.2 157.897 261.554 157.093C262.076 158.191 263.162 159.915 264.294 160.205C265.426 160.495 266.338 159.861 266.645 159.098C266.899 158.467 267.963 155.807 268.322 154.911Z" fill="#638EEF"/>
<path d="M271.847 151.226C271.781 151.39 271.862 151.576 272.026 151.642L274.207 152.521C274.373 152.588 274.561 152.508 274.627 152.341C274.946 151.535 275.802 149.369 275.92 149.077C276.065 148.716 276.388 148.389 276.853 148.31C277.317 148.232 277.968 148.24 278.615 149.044C278.092 147.946 277.006 146.222 275.874 145.932C274.742 145.642 273.83 146.276 273.524 147.038C273.27 147.67 272.205 150.329 271.847 151.226Z" fill="#638EEF"/>
</g>
<defs>
<linearGradient id="paint0_linear" x1="267.832" y1="145.852" x2="263.374" y2="156.62" gradientUnits="userSpaceOnUse">
<stop stop-color="#94B6FE"/>
<stop offset="1" stop-color="#216ADE"/>
</linearGradient>
<linearGradient id="paint1_linear" x1="271.834" y1="160.387" x2="277.138" y2="149.234" gradientUnits="userSpaceOnUse">
<stop stop-color="#94B6FE"/>
<stop offset="1" stop-color="#216ADE"/>
</linearGradient>
<clipPath id="clip0">
<rect width="634" height="341" fill="white" transform="translate(0 0.5)"/>
</clipPath>
</defs>
</svg>
