<svg width="792" height="440" viewBox="0 0 792 440" fill="none" xmlns="http://www.w3.org/2000/svg">
<g clip-path="url(#clip0)">
<path d="M292.15 108.332C292.15 106.324 293.778 104.696 295.785 104.696H493.798C495.805 104.696 497.433 106.324 497.433 108.332V220.775C497.433 222.783 495.805 224.411 493.798 224.411H295.785C293.778 224.411 292.15 222.783 292.15 220.775V108.332Z" fill="#F2F6FE"/>
<rect x="295.874" y="110.397" width="197.835" height="108.312" rx="0.363557" fill="#57AEFF"/>
<path d="M407.788 181.108H368.01C362.702 181.108 358.398 185.412 358.398 190.72V199.057C358.398 204.365 362.702 208.669 368.01 208.669L513.375 208.669C518.684 208.669 522.987 212.972 522.987 218.281V237.475C522.987 242.783 518.684 247.087 513.375 247.087H357.335" stroke="white" stroke-width="3.84476" stroke-linecap="round" stroke-linejoin="round"/>
<path d="M273.673 262.497C273.673 265.132 275.809 267.268 278.443 267.268H511.139C513.774 267.268 515.91 265.132 515.91 262.497V261.315H273.673V262.497Z" fill="#D8E3F5"/>
<path d="M370.181 261.374C370.181 263.481 371.89 265.202 373.998 265.202H415.585C417.693 265.202 419.401 263.481 419.401 261.374H370.181Z" fill="#C4D1E8"/>
<path d="M273.682 261.351H515.901L499.191 227.929C498.113 225.773 495.91 224.412 493.5 224.412H296.082C293.672 224.412 291.469 225.773 290.391 227.929L273.682 261.351Z" fill="#FCFCFE"/>
<path d="M305.617 230.048C304.962 230.048 304.37 230.438 304.113 231.04L298.355 244.488C297.893 245.567 298.685 246.768 299.859 246.768H489.724C490.876 246.768 491.667 245.609 491.248 244.536L485.991 231.088C485.746 230.461 485.141 230.048 484.467 230.048H305.617Z" fill="#C4D1E8"/>
<path d="M305.617 230.048C304.962 230.048 304.37 230.438 304.113 231.04L298.355 244.488C297.893 245.567 298.685 246.768 299.859 246.768H489.724C490.876 246.768 491.667 245.609 491.248 244.536L485.991 231.088C485.746 230.461 485.141 230.048 484.467 230.048H305.617Z" stroke="#FF0000"/>
<path d="M414.275 188.334L414.275 174.002L402.034 174.002C400.617 174.002 399.468 175.151 399.468 176.569L399.468 185.768C399.468 187.185 400.617 188.334 402.034 188.334L414.275 188.334Z" fill="white"/>
<path fill-rule="evenodd" clip-rule="evenodd" d="M416.852 164.62C415.35 164.62 414.132 165.838 414.132 167.34V194.996C414.132 196.498 415.35 197.715 416.852 197.715H520.457C521.959 197.715 523.177 196.498 523.177 194.996V167.34C523.177 165.838 521.959 164.62 520.457 164.62H416.852ZM505.852 190.562C510.811 190.562 514.832 186.542 514.832 181.582C514.832 176.623 510.811 172.602 505.852 172.602C500.892 172.602 496.872 176.623 496.872 181.582C496.872 186.542 500.892 190.562 505.852 190.562Z" fill="#F0F5FE"/>
<path fill-rule="evenodd" clip-rule="evenodd" d="M493.275 169.047C486.525 175.797 486.525 186.742 493.275 193.492C500.026 200.243 510.97 200.243 517.721 193.492L587.937 123.276C588.939 122.274 588.939 120.649 587.937 119.647L567.12 98.8304C566.118 97.8282 564.494 97.8283 563.491 98.8304L493.275 169.047ZM512.104 187.949C515.611 184.442 515.611 178.756 512.104 175.249C508.598 171.742 502.912 171.742 499.405 175.249C495.898 178.756 495.898 184.442 499.405 187.949C502.912 191.456 508.598 191.456 512.104 187.949Z" fill="white"/>
<rect x="431.019" y="172.207" width="51.7023" height="17.9203" rx="2.81375" fill="#87C5FF"/>
<path d="M394.793 163.318L392.137 158.562L397.45 158.562L394.793 163.318Z" fill="#17E1D5"/>
<path d="M394.792 158.943C405.734 158.943 414.792 150.073 414.792 139.131C414.791 128.189 405.734 119.319 394.792 119.319C383.849 119.319 374.792 128.189 374.792 139.131C374.792 150.073 383.849 158.943 394.792 158.943Z" fill="#17E1D5"/>
<path fill-rule="evenodd" clip-rule="evenodd" d="M404.529 132.708C405.02 133.206 404.997 133.989 404.476 134.459L391.894 145.81L385.818 140.006C385.311 139.523 385.311 138.739 385.818 138.255C386.324 137.772 387.145 137.772 387.651 138.255L391.945 142.357L402.696 132.658C403.217 132.189 404.037 132.211 404.529 132.708Z" fill="white"/>
<path d="M465.36 26.1912C472.709 27.9138 475.191 37.1296 469.615 42.2717L442.906 66.9376C438.254 71.2076 430.833 69.9018 428.036 64.2354L410.651 29.2345C407.118 22.1132 413.472 13.9722 421.356 15.8287L465.36 26.1912Z" fill="#405985"/>
<rect x="194" y="40.9639" width="402" height="296.757" rx="96" fill="#25395F"/>
<path d="M211.869 316.251C210.107 317.325 207.836 316.711 207.257 314.751C206.395 311.699 206.263 308.372 207.188 305.19C208.461 300.814 211.34 297.017 215.322 294.67C219.304 292.322 223.931 291.623 228.301 292.751C231.494 293.548 234.268 295.265 236.384 297.53C237.794 299.04 237.15 301.34 235.303 302.364C233.541 303.438 231.32 302.738 229.759 301.489C228.747 300.672 227.583 300.118 226.269 299.824C223.777 299.199 221.123 299.642 218.818 300.867C216.547 302.228 214.846 304.382 214.187 306.905C213.79 308.185 213.7 309.527 213.881 310.793C214.224 312.965 213.581 315.264 211.869 316.251Z" fill="#6E82A4"/>
<path d="M580.246 323.585C590.398 317.753 590.373 303.085 580.286 297.218L546.208 277.237C536.544 271.54 524.275 277.878 523.363 289.067L519.792 330.774C518.712 343.066 531.937 351.482 542.597 345.395L580.246 323.585Z" fill="#9AADCE"/>
<g opacity="0.3">
<path d="M292.15 108.132C292.15 106.124 293.778 104.496 295.785 104.496H493.798C495.805 104.496 497.433 106.124 497.433 108.132V220.575C497.433 222.583 495.805 224.211 493.798 224.211H295.785C293.778 224.211 292.15 222.583 292.15 220.575V108.132Z" fill="#F2F6FE"/>
<rect x="295.874" y="110.197" width="197.835" height="108.312" rx="0.363557" fill="#57AEFF"/>
<path d="M273.673 262.297C273.673 264.932 275.809 267.067 278.443 267.067H511.139C513.774 267.067 515.91 264.932 515.91 262.297V261.115H273.673V262.297Z" fill="#D8E3F5"/>
<path d="M370.181 261.173C370.181 263.281 371.89 265.002 373.998 265.002H415.585C417.693 265.002 419.401 263.281 419.401 261.173H370.181Z" fill="#C4D1E8"/>
<path d="M273.682 261.15H515.901L499.191 227.729C498.113 225.573 495.91 224.212 493.5 224.212H296.082C293.672 224.212 291.469 225.573 290.391 227.729L273.682 261.15Z" fill="#FCFCFE"/>
<path d="M305.617 229.848C304.962 229.848 304.37 230.238 304.113 230.84L298.355 244.287C297.893 245.367 298.685 246.567 299.859 246.567H489.724C490.876 246.567 491.667 245.409 491.248 244.336L485.991 230.888C485.746 230.261 485.141 229.848 484.467 229.848H305.617Z" fill="#C4D1E8"/>
</g>
<path fill-rule="evenodd" clip-rule="evenodd" d="M324.786 190.52C324.786 186.273 328.229 182.83 332.476 182.83H406.749C407.81 182.83 408.671 181.969 408.671 180.908C408.671 179.846 407.81 178.985 406.749 178.985H332.476C326.105 178.985 320.941 184.149 320.941 190.52V198.856C320.941 205.226 326.105 210.39 332.476 210.39L513.138 210.39C517.385 210.39 520.827 213.833 520.827 218.08V237.274C520.827 241.521 517.385 244.964 513.138 244.964H508.564C508.32 244.964 508.086 245.009 507.871 245.092L509.729 248.808H513.138C519.508 248.808 524.672 243.644 524.672 237.274V218.08C524.672 211.71 519.508 206.546 513.138 206.546L332.476 206.546C328.229 206.546 324.786 203.103 324.786 198.856V190.52Z" fill="white"/>
<path d="M414.136 188.134L414.136 173.802L401.895 173.802C400.477 173.802 399.329 174.951 399.329 176.368L399.329 185.568C399.329 186.985 400.477 188.134 401.895 188.134L414.136 188.134Z" fill="white"/>
<path fill-rule="evenodd" clip-rule="evenodd" d="M416.852 164.42C415.35 164.42 414.132 165.638 414.132 167.14V194.795C414.132 196.297 415.35 197.515 416.852 197.515H520.457C521.959 197.515 523.177 196.297 523.177 194.795V167.14C523.177 165.638 521.959 164.42 520.457 164.42H416.852ZM505.852 190.362C510.811 190.362 514.832 186.341 514.832 181.382C514.832 176.422 510.811 172.402 505.852 172.402C500.892 172.402 496.872 176.422 496.872 181.382C496.872 186.341 500.892 190.362 505.852 190.362Z" fill="#F6F9FF"/>
<path fill-rule="evenodd" clip-rule="evenodd" d="M493.275 168.847C486.525 175.597 486.525 186.542 493.275 193.292C500.026 200.043 510.97 200.043 517.721 193.292L587.937 123.076C588.939 122.074 588.939 120.449 587.937 119.447L567.12 98.6302C566.118 97.6281 564.494 97.6281 563.491 98.6302L493.275 168.847ZM512.104 187.748C515.611 184.242 515.611 178.556 512.104 175.049C508.598 171.542 502.912 171.542 499.405 175.049C495.898 178.556 495.898 184.242 499.405 187.748C502.912 191.255 508.598 191.255 512.104 187.748Z" fill="white"/>
<rect x="431.019" y="172.007" width="51.7023" height="17.9203" rx="2.81375" fill="#57AEFF"/>
<path d="M456.951 167.023L454.294 162.267L459.608 162.267L456.951 167.023Z" fill="#17E1D5"/>
<path d="M456.949 162.648C467.891 162.648 476.949 153.778 476.949 142.836C476.949 131.894 467.891 123.024 456.949 123.024C446.007 123.024 436.949 131.894 436.949 142.836C436.949 153.778 446.007 162.648 456.949 162.648Z" fill="#17E1D5"/>
<path fill-rule="evenodd" clip-rule="evenodd" d="M451.414 135.086V136.193H450.306V137.3H449.199V148.372H450.306V149.479H451.414V150.586H462.485V149.479H463.592V148.372H464.699V137.3H463.592V136.193H462.485V135.086H451.414ZM460.271 138.406V137.299H453.628V138.406H455.843V141.728H454.735V142.835H455.843V143.942H454.735V145.049H455.843V147.263H453.628V148.37H460.271V147.263H458.057V145.049H459.164V143.942H458.057V142.835H459.164V141.728H458.057V138.406L460.271 138.406Z" fill="#FAFCFE"/>
</g>
<defs>
<clipPath id="clip0">
<rect width="792" height="440" fill="white"/>
</clipPath>
</defs>
</svg>
