<svg width="792" height="441" viewBox="0 0 792 441" fill="none" xmlns="http://www.w3.org/2000/svg">
<path opacity="0.1" fill-rule="evenodd" clip-rule="evenodd" d="M471.562 155.31V156.897H507.006C511.273 155.606 515.8 154.912 520.489 154.912H748.974C751.196 154.912 752.997 156.713 752.997 158.935V243.863C752.997 246.085 751.196 247.887 748.973 247.887H520.489C515.801 247.887 511.275 247.193 507.008 245.902H281.06C276.987 245.902 273.684 242.599 273.684 238.525V221.562H218.648C210.574 221.562 203.611 216.782 200.408 209.905C200.391 209.907 200.375 209.908 200.358 209.908C200.341 209.909 200.325 209.909 200.308 209.909H179.863C179.122 209.909 178.521 209.309 178.521 208.568L178.522 206.869H0V195.93H178.522L178.521 194.232C178.521 193.491 179.122 192.891 179.863 192.891H200.308C200.341 192.891 200.375 192.892 200.408 192.894C203.611 186.017 210.574 181.237 218.648 181.237H273.684V164.274C273.684 160.2 276.987 156.897 281.06 156.897H305.683V155.31C305.683 153.088 307.484 151.287 309.706 151.287H340.202C342.424 151.287 344.225 153.088 344.225 155.31V156.897H433.02V155.31C433.02 153.088 434.821 151.287 437.043 151.287H467.539C469.761 151.287 471.562 153.088 471.562 155.31ZM544.5 202.515C544.5 207.516 542.98 212.163 540.376 216.017C536.036 222.441 528.686 226.664 520.35 226.664C512.522 226.664 505.563 222.939 501.151 217.166C498.045 213.102 496.2 208.024 496.2 202.514C496.201 195.845 498.904 189.808 503.274 185.438C507.644 181.068 513.681 178.365 520.35 178.365C527.883 178.365 534.611 181.814 539.04 187.219C541.472 190.187 543.211 193.746 544.01 197.648C544.331 199.22 544.5 200.847 544.5 202.515Z" fill="#1B2D4B"/>
<path d="M207.649 188.484C207.649 187.743 207.049 187.143 206.308 187.143H185.863C185.122 187.143 184.522 187.743 184.522 188.484V202.82C184.522 203.561 185.122 204.161 185.863 204.161H206.308C207.049 204.161 207.649 203.561 207.649 202.82V188.484Z" fill="url(#paint0_linear_1_59)"/>
<path d="M279.684 175.489H224.647C213.537 175.489 204.53 184.541 204.53 195.652C204.53 206.762 213.537 215.814 224.647 215.814H279.684V175.489Z" fill="url(#paint1_linear_1_59)"/>
<path d="M0 190.215H184.475V201.215H0V190.215Z" fill="url(#paint2_linear_1_59)"/>
<path d="M439.02 151.15H477.562V149.563C477.562 147.341 475.761 145.539 473.539 145.539H443.043C440.821 145.539 439.02 147.341 439.02 149.563V151.15Z" fill="white"/>
<path d="M311.683 151.15H350.225V149.563C350.225 147.341 348.424 145.539 346.202 145.539H315.706C313.484 145.539 311.683 147.341 311.683 149.563V151.15Z" fill="white"/>
<path fill-rule="evenodd" clip-rule="evenodd" d="M287.06 151.149C282.986 151.149 279.684 154.451 279.684 158.525V232.777C279.684 236.851 282.986 240.154 287.06 240.154H565.566C569.64 240.154 572.943 236.851 572.943 232.777V158.525C572.943 154.451 569.64 151.149 565.566 151.149H287.06ZM526.35 220.916C539.688 220.916 550.501 210.104 550.501 196.766C550.501 183.428 539.688 172.616 526.35 172.616C513.013 172.616 502.2 183.428 502.2 196.766C502.2 210.104 513.013 220.916 526.35 220.916Z" fill="url(#paint3_linear_1_59)"/>
<path fill-rule="evenodd" clip-rule="evenodd" d="M526.975 149.214C501.293 149.214 480.475 170.033 480.475 195.714C480.475 221.395 501.293 242.214 526.975 242.214H746.623C749.937 242.214 752.623 239.528 752.623 236.214V155.214C752.623 151.901 749.937 149.214 746.623 149.214H526.975ZM526.35 220.916C539.688 220.916 550.5 210.104 550.5 196.766C550.5 183.428 539.688 172.616 526.35 172.616C513.012 172.616 502.2 183.428 502.2 196.766C502.2 210.104 513.012 220.916 526.35 220.916Z" fill="white"/>
<path d="M459.499 171.284H329.277C326.84 171.284 324.865 173.259 324.865 175.696V215.066C324.865 217.503 326.84 219.478 329.277 219.478H459.499C461.936 219.478 463.911 217.503 463.911 215.066V175.696C463.911 173.259 461.936 171.284 459.499 171.284Z" fill="#57AEFF"/>
<path d="M332.179 196.926H333.472V195.633H332.179V196.926Z" fill="white"/>
<path d="M334.211 199.18H335.504V197.887H334.211V199.18Z" fill="white"/>
<path d="M334.211 193.417L335.504 193.417L335.504 194.71L334.211 194.71L334.211 193.417Z" fill="white"/>
<path d="M336.243 200.917H337.536V199.624H336.243V200.917Z" fill="white"/>
<path d="M336.243 191.68L337.536 191.68L337.536 192.973L336.243 192.973L336.243 191.68Z" fill="white"/>
<path d="M338.274 202.764H339.567V201.471H338.274V202.764Z" fill="white"/>
<path d="M338.275 189.833L339.568 189.833L339.568 191.126L338.275 191.126L338.275 189.833Z" fill="white"/>
<path d="M454.899 196.926L453.606 196.926L453.606 195.633L454.899 195.633L454.899 196.926Z" fill="white"/>
<path d="M452.867 199.18L451.574 199.18L451.574 197.887L452.867 197.887L452.867 199.18Z" fill="white"/>
<path d="M452.867 193.417H451.574V194.71H452.867V193.417Z" fill="white"/>
<path d="M450.835 200.917L449.542 200.917L449.542 199.624L450.835 199.624L450.835 200.917Z" fill="white"/>
<path d="M450.835 191.68H449.542V192.973H450.835V191.68Z" fill="white"/>
<path d="M448.803 202.764L447.51 202.764L447.51 201.471L448.803 201.471L448.803 202.764Z" fill="white"/>
<path d="M448.803 189.833H447.51V191.126H448.803V189.833Z" fill="white"/>
<path d="M366 199.332H367.129V194.092H366V199.332ZM369.365 199.332H370.486V195.945L373.011 199.332H374.14V194.092H373.011V197.479L370.486 194.092H369.365V199.332ZM378.354 199.424C379.636 199.424 380.391 198.76 380.391 197.761C380.391 196.792 379.643 196.456 378.514 196.205C377.706 196.022 377.393 195.899 377.393 195.518C377.393 195.205 377.683 194.954 378.163 194.954C378.667 194.954 379.193 195.16 379.659 195.533L380.246 194.725C379.712 194.267 379.048 194 378.194 194C377.05 194 376.256 194.664 376.256 195.632C376.256 196.647 377.042 196.96 378.148 197.212C378.949 197.395 379.254 197.509 379.254 197.883C379.254 198.211 378.964 198.47 378.4 198.47C377.736 198.47 377.172 198.211 376.676 197.784L376.027 198.554C376.638 199.119 377.446 199.424 378.354 199.424ZM383.7 199.332H384.829V195.106H386.462V194.092H382.068V195.106H383.7V199.332ZM391.808 199.332H393.075L390.939 194.092H389.68L387.544 199.332H388.803L389.138 198.508H391.473L391.808 199.332ZM389.528 197.555L390.306 195.64L391.084 197.555H389.528ZM395.927 198.318V194.092H394.798V199.332H398.536V198.318H395.927ZM401.497 198.318V194.092H400.368V199.332H404.106V198.318H401.497ZM413.095 199.332H414.361L412.225 194.092H410.966L408.83 199.332H410.089L410.425 198.508H412.759L413.095 199.332ZM410.814 197.555L411.592 195.64L412.37 197.555H410.814ZM416.123 199.332H417.244V197.631H418.48C419.617 197.631 420.456 196.899 420.456 195.861C420.456 194.824 419.617 194.092 418.48 194.092H416.123V199.332ZM417.244 196.601V195.121H418.358C418.915 195.121 419.296 195.411 419.296 195.861C419.296 196.311 418.915 196.601 418.358 196.601H417.244ZM422.303 199.332H423.424V197.631H424.66C425.797 197.631 426.636 196.899 426.636 195.861C426.636 194.824 425.797 194.092 424.66 194.092H422.303V199.332ZM423.424 196.601V195.121H424.538C425.095 195.121 425.476 195.411 425.476 195.861C425.476 196.311 425.095 196.601 424.538 196.601H423.424Z" fill="white"/>
<defs>
<linearGradient id="paint0_linear_1_59" x1="185.353" y1="194.48" x2="207.401" y2="194.48" gradientUnits="userSpaceOnUse">
<stop stop-color="white"/>
<stop offset="1" stop-color="#E4EBFA"/>
</linearGradient>
<linearGradient id="paint1_linear_1_59" x1="208.148" y1="198.217" x2="280.271" y2="198.217" gradientUnits="userSpaceOnUse">
<stop stop-color="white"/>
<stop offset="1" stop-color="#E4EBFA"/>
</linearGradient>
<linearGradient id="paint2_linear_1_59" x1="92.2376" y1="190.215" x2="203.954" y2="190.215" gradientUnits="userSpaceOnUse">
<stop stop-color="white"/>
<stop offset="1" stop-color="#E4EBFA"/>
</linearGradient>
<linearGradient id="paint3_linear_1_59" x1="426.313" y1="151.149" x2="426.313" y2="240.963" gradientUnits="userSpaceOnUse">
<stop stop-color="white"/>
<stop offset="1" stop-color="#F0F5FE"/>
</linearGradient>
</defs>
</svg>
