<svg width="634" height="342" viewBox="0 0 634 342" fill="none" xmlns="http://www.w3.org/2000/svg">
<g clip-path="url(#clip0)">
<path opacity="0.3" fill-rule="evenodd" clip-rule="evenodd" d="M629.592 138.273L443.139 138.273C438.45 138.273 433.924 138.968 429.656 140.259H394.213V138.672C394.213 136.45 392.411 134.648 390.189 134.648H359.694C357.472 134.648 355.67 136.45 355.67 138.672V140.259H266.876V138.672C266.876 136.45 265.074 134.648 262.852 134.648H232.357C230.135 134.648 228.333 136.45 228.333 138.672V140.259H203.711C199.637 140.259 196.334 143.561 196.334 147.635V164.599H141.298C133.224 164.599 126.261 169.379 123.058 176.256C123.025 176.253 122.992 176.252 122.958 176.252H102.513C101.772 176.252 101.172 176.853 101.172 177.593L101.172 179.291H-4.34961V190.231H101.172L101.172 191.929C101.172 192.67 101.772 193.271 102.513 193.271H122.958C122.975 193.271 122.992 193.27 123.008 193.27C123.025 193.269 123.042 193.268 123.058 193.267C126.261 200.144 133.224 204.924 141.298 204.924H196.334V221.887C196.334 225.961 199.637 229.263 203.711 229.263H429.659C433.925 230.554 438.451 231.248 443.139 231.248L629.592 231.248V138.273ZM463.026 199.379C465.63 195.524 467.151 190.878 467.151 185.876C467.151 184.209 466.982 182.581 466.66 181.009C465.862 177.108 464.123 173.549 461.69 170.58C457.261 165.175 450.534 161.726 443.001 161.726C436.332 161.726 430.294 164.429 425.924 168.8C421.554 173.17 418.851 179.207 418.851 185.875C418.851 191.385 420.695 196.464 423.801 200.527C428.214 206.301 435.172 210.025 443.001 210.025C451.336 210.025 458.686 205.802 463.026 199.379Z" fill="#1B2D4B"/>
<path d="M130.3 171.845C130.3 171.104 129.699 170.504 128.959 170.504H108.513C107.773 170.504 107.172 171.104 107.172 171.845V186.181C107.172 186.922 107.773 187.522 108.513 187.522H128.959C129.699 187.522 130.3 186.922 130.3 186.181V171.845Z" fill="url(#paint0_linear)"/>
<path d="M202.334 158.85H147.298C136.188 158.85 127.181 167.902 127.181 179.013V179.013C127.181 190.123 136.188 199.175 147.298 199.175H202.334V158.85Z" fill="url(#paint1_linear)"/>
<path d="M-4.34961 173.576H107.126V184.576H-4.34961V173.576Z" fill="url(#paint2_linear)"/>
<path d="M361.67 134.511H400.212V132.924C400.212 130.702 398.411 128.9 396.189 128.9H365.693C363.471 128.9 361.67 130.702 361.67 132.924V134.511Z" fill="white"/>
<path d="M234.333 134.511H272.875V132.924C272.875 130.702 271.074 128.9 268.852 128.9H238.356C236.134 128.9 234.333 130.702 234.333 132.924V134.511Z" fill="white"/>
<path fill-rule="evenodd" clip-rule="evenodd" d="M209.71 134.51C205.637 134.51 202.334 137.813 202.334 141.887V216.139C202.334 220.212 205.637 223.515 209.71 223.515H488.217C492.291 223.515 495.593 220.212 495.593 216.139V141.887C495.593 137.813 492.291 134.51 488.217 134.51H209.71ZM449.001 204.277C462.339 204.277 473.151 193.465 473.151 180.127C473.151 166.789 462.339 155.977 449.001 155.977C435.663 155.977 424.851 166.789 424.851 180.127C424.851 193.465 435.663 204.277 449.001 204.277Z" fill="url(#paint3_linear)"/>
<path fill-rule="evenodd" clip-rule="evenodd" d="M449.625 132.575C423.944 132.575 403.125 153.394 403.125 179.075C403.125 204.756 423.944 225.575 449.625 225.575H624.274C627.587 225.575 630.274 222.889 630.274 219.575V138.575C630.274 135.262 627.587 132.575 624.274 132.575H449.625ZM449.001 204.277C462.339 204.277 473.151 193.464 473.151 180.127C473.151 166.789 462.339 155.977 449.001 155.977C435.663 155.977 424.851 166.789 424.851 180.127C424.851 193.464 435.663 204.277 449.001 204.277Z" fill="white"/>
<rect x="247.515" y="154.645" width="139.046" height="48.1942" rx="4.41186" fill="#57AEFF"/>
<rect x="381.11" y="119.467" width="2.64163" height="2.64163" transform="rotate(90 381.11 119.467)" fill="#108CFF"/>
<rect x="381.11" y="115.485" width="2.64163" height="2.64163" transform="rotate(90 381.11 115.485)" fill="#108CFF"/>
<rect x="381.11" y="111.503" width="2.64163" height="2.64163" transform="rotate(90 381.11 111.503)" fill="#108CFF"/>
<rect x="381.11" y="107.521" width="2.64163" height="2.64163" transform="rotate(90 381.11 107.521)" fill="#108CFF"/>
<rect x="381.11" y="103.54" width="2.64163" height="2.64163" transform="rotate(90 381.11 103.54)" fill="#108CFF"/>
<rect x="381.11" y="99.5579" width="2.64163" height="2.64163" transform="rotate(90 381.11 99.5579)" fill="#108CFF"/>
<rect x="381.11" y="95.5762" width="2.64163" height="2.64163" transform="rotate(90 381.11 95.5762)" fill="#108CFF"/>
<rect x="385.713" y="115.315" width="2.64163" height="2.64163" transform="rotate(90 385.713 115.315)" fill="#108CFF"/>
<rect width="2.64163" height="2.64163" transform="matrix(-4.37114e-08 1 1 4.37114e-08 373.941 115.315)" fill="#108CFF"/>
<rect x="389.261" y="111.164" width="2.64163" height="2.64163" transform="rotate(90 389.261 111.164)" fill="#108CFF"/>
<rect width="2.64163" height="2.64163" transform="matrix(-4.37114e-08 1 1 4.37114e-08 370.393 111.164)" fill="#108CFF"/>
<rect x="393.035" y="107.013" width="2.64163" height="2.64163" transform="rotate(90 393.035 107.013)" fill="#108CFF"/>
<rect width="2.64163" height="2.64163" transform="matrix(-4.37114e-08 1 1 4.37114e-08 366.619 107.013)" fill="#108CFF"/>
<rect x="255.641" y="119.467" width="2.64163" height="2.64163" transform="rotate(90 255.641 119.467)" fill="#108CFF"/>
<rect x="255.641" y="115.485" width="2.64163" height="2.64163" transform="rotate(90 255.641 115.485)" fill="#108CFF"/>
<rect x="255.641" y="111.503" width="2.64163" height="2.64163" transform="rotate(90 255.641 111.503)" fill="#108CFF"/>
<rect x="255.641" y="107.521" width="2.64163" height="2.64163" transform="rotate(90 255.641 107.521)" fill="#108CFF"/>
<rect x="255.641" y="103.54" width="2.64163" height="2.64163" transform="rotate(90 255.641 103.54)" fill="#108CFF"/>
<rect x="255.641" y="99.5579" width="2.64163" height="2.64163" transform="rotate(90 255.641 99.5579)" fill="#108CFF"/>
<rect x="255.641" y="95.5762" width="2.64163" height="2.64163" transform="rotate(90 255.641 95.5762)" fill="#108CFF"/>
<rect x="260.244" y="115.315" width="2.64163" height="2.64163" transform="rotate(90 260.244 115.315)" fill="#108CFF"/>
<rect width="2.64163" height="2.64163" transform="matrix(-4.37114e-08 1 1 4.37114e-08 248.472 115.315)" fill="#108CFF"/>
<rect x="263.793" y="111.164" width="2.64163" height="2.64163" transform="rotate(90 263.793 111.164)" fill="#108CFF"/>
<rect width="2.64163" height="2.64163" transform="matrix(-4.37114e-08 1 1 4.37114e-08 244.924 111.164)" fill="#108CFF"/>
<rect x="267.566" y="107.013" width="2.64163" height="2.64163" transform="rotate(90 267.566 107.013)" fill="#108CFF"/>
<rect width="2.64163" height="2.64163" transform="matrix(-4.37114e-08 1 1 4.37114e-08 241.15 107.013)" fill="#108CFF"/>
<rect x="258.944" y="179.896" width="1.29313" height="1.29313" transform="rotate(-180 258.944 179.896)" fill="white"/>
<rect x="260.976" y="182.149" width="1.29313" height="1.29313" transform="rotate(-180 260.976 182.149)" fill="white"/>
<rect width="1.29313" height="1.29313" transform="matrix(-1 -8.74228e-08 -8.74228e-08 1 260.976 176.386)" fill="white"/>
<rect x="263.008" y="183.886" width="1.29313" height="1.29313" transform="rotate(-180 263.008 183.886)" fill="white"/>
<rect width="1.29313" height="1.29313" transform="matrix(-1 -8.74228e-08 -8.74228e-08 1 263.008 174.65)" fill="white"/>
<rect x="265.039" y="185.733" width="1.29313" height="1.29313" transform="rotate(-180 265.039 185.733)" fill="white"/>
<rect width="1.29313" height="1.29313" transform="matrix(-1 -8.74228e-08 -8.74228e-08 1 265.04 172.802)" fill="white"/>
<rect width="1.29313" height="1.29313" transform="matrix(1 -8.74228e-08 -8.74228e-08 -1 379.078 179.896)" fill="white"/>
<rect width="1.29313" height="1.29313" transform="matrix(1 -8.74228e-08 -8.74228e-08 -1 377.046 182.149)" fill="white"/>
<rect x="377.046" y="176.386" width="1.29313" height="1.29313" fill="white"/>
<rect width="1.29313" height="1.29313" transform="matrix(1 -8.74228e-08 -8.74228e-08 -1 375.014 183.886)" fill="white"/>
<rect x="375.014" y="174.65" width="1.29313" height="1.29313" fill="white"/>
<rect width="1.29313" height="1.29313" transform="matrix(1 -8.74228e-08 -8.74228e-08 -1 372.982 185.733)" fill="white"/>
<rect x="372.982" y="172.802" width="1.29313" height="1.29313" fill="white"/>
<path d="M299.21 190.532C300.728 190.532 301.995 189.288 301.995 187.816C301.995 186.344 300.728 185.108 299.21 185.108C297.708 185.108 296.426 186.344 296.426 187.816C296.426 189.288 297.708 190.532 299.21 190.532ZM299.21 189.509C298.333 189.509 297.585 188.731 297.585 187.816C297.585 186.908 298.333 186.13 299.21 186.13C300.095 186.13 300.843 186.908 300.843 187.816C300.843 188.731 300.095 189.509 299.21 189.509ZM303.967 190.44H305.088V188.739H306.324C307.461 188.739 308.3 188.007 308.3 186.969C308.3 185.932 307.461 185.199 306.324 185.199H303.967V190.44ZM305.088 187.709V186.229H306.202C306.759 186.229 307.14 186.519 307.14 186.969C307.14 187.419 306.759 187.709 306.202 187.709H305.088ZM314.182 186.214V185.199H310.147V190.44H314.182V189.425H311.276V188.274H313.908V187.259H311.276V186.214H314.182ZM316.224 190.44H317.345V187.053L319.87 190.44H320.999V185.199H319.87V188.586L317.345 185.199H316.224V190.44ZM330.349 190.44H331.615L329.48 185.199H328.221L326.085 190.44H327.344L327.679 189.616H330.014L330.349 190.44ZM328.068 188.663L328.846 186.748L329.624 188.663H328.068ZM333.377 190.44H334.499V188.739H335.735C336.871 188.739 337.71 188.007 337.71 186.969C337.71 185.932 336.871 185.199 335.735 185.199H333.377V190.44ZM334.499 187.709V186.229H335.613C336.169 186.229 336.551 186.519 336.551 186.969C336.551 187.419 336.169 187.709 335.613 187.709H334.499ZM339.558 190.44H340.679V188.739H341.915C343.051 188.739 343.89 188.007 343.89 186.969C343.89 185.932 343.051 185.199 341.915 185.199H339.558V190.44ZM340.679 187.709V186.229H341.793C342.35 186.229 342.731 186.519 342.731 186.969C342.731 187.419 342.35 187.709 341.793 187.709H340.679Z" fill="white"/>
<path fill-rule="evenodd" clip-rule="evenodd" d="M314.922 165.001V166.035H313.887V167.07H312.853V177.415H313.887V178.45H314.922V179.484H325.267V178.45H326.301V177.415H327.336V167.07H326.301V166.035H325.267V165.001H314.922ZM323.197 168.104V167.07H316.99V168.104H319.059V171.208H318.025V172.243H319.059V173.277H318.025V174.312H319.059V176.381H316.99V177.415H323.197V176.381H321.128V174.312H322.163V173.277H321.128V172.243H322.163V171.208H321.128V168.104L323.197 168.104Z" fill="#FAFCFE"/>
<path d="M314.334 284.337V281.769H318.846V277.617H321.462V281.769H325.95V284.337H321.462V288.489H318.846V284.337H314.334Z" fill="#57AEFF"/>
<rect x="238.65" y="250.001" width="59" height="58" rx="19.7086" fill="#57AEFF"/>
<rect x="339.65" y="250.001" width="59" height="58" rx="19.7086" fill="#57AEFF"/>
<rect x="256.943" y="267.812" width="4.96178" height="4.96178" fill="#FAFCFE"/>
<rect x="275.136" y="272.774" width="4.96178" height="4.96178" fill="#FAFCFE"/>
<rect x="263.559" y="286.005" width="4.96178" height="4.96178" fill="#FAFCFE"/>
<rect x="260.574" y="282.436" width="2.3155" height="2.3155" fill="#FAFCFE"/>
<rect x="260.574" y="277.561" width="2.3155" height="2.3155" fill="#FAFCFE"/>
<rect x="263.559" y="270.336" width="2.3155" height="2.3155" fill="#FAFCFE"/>
<rect x="268.678" y="272.687" width="2.3155" height="2.3155" fill="#FAFCFE"/>
<rect x="268.678" y="282.436" width="2.3155" height="2.3155" fill="#FAFCFE"/>
<rect x="273.309" y="279.998" width="2.3155" height="2.3155" fill="#FAFCFE"/>
<path fill-rule="evenodd" clip-rule="evenodd" d="M360.858 267.992V269.646H359.204V271.3H357.55V287.839H359.204V289.493H360.858V291.147H377.397V289.493H379.051V287.839H380.705V271.3H379.051V269.646H377.397V267.992H360.858ZM374.089 272.954V271.3H364.166V272.953H367.474V277.915H365.82V279.569H367.474V281.223H365.82V282.877H367.474V286.185H364.166V287.839H374.089V286.185H370.781V282.877H372.435V281.223H370.781V279.569H372.435V277.915H370.781V272.953L374.089 272.954Z" fill="#FAFCFE"/>
</g>
<defs>
<linearGradient id="paint0_linear" x1="108.003" y1="177.842" x2="130.051" y2="177.842" gradientUnits="userSpaceOnUse">
<stop stop-color="white"/>
<stop offset="1" stop-color="#E4EBFA"/>
</linearGradient>
<linearGradient id="paint1_linear" x1="130.799" y1="181.579" x2="202.922" y2="181.579" gradientUnits="userSpaceOnUse">
<stop stop-color="white"/>
<stop offset="1" stop-color="#E4EBFA"/>
</linearGradient>
<linearGradient id="paint2_linear" x1="14.888" y1="173.576" x2="126.605" y2="173.576" gradientUnits="userSpaceOnUse">
<stop stop-color="white"/>
<stop offset="1" stop-color="#E4EBFA"/>
</linearGradient>
<linearGradient id="paint3_linear" x1="348.964" y1="134.51" x2="348.964" y2="224.324" gradientUnits="userSpaceOnUse">
<stop stop-color="white"/>
<stop offset="1" stop-color="#F0F5FE"/>
</linearGradient>
<clipPath id="clip0">
<rect width="634" height="341" fill="white" transform="translate(0 0.899414)"/>
</clipPath>
</defs>
</svg>
