<svg width="634" height="342" viewBox="0 0 634 342" fill="none" xmlns="http://www.w3.org/2000/svg">
<g clip-path="url(#clip0)">
<path d="M387.79 15.3191C395.114 17.0375 397.611 26.2308 392.072 31.3602L365.536 55.9652C360.915 60.2247 353.52 58.9219 350.719 53.2694L333.309 18.354C329.771 11.2501 336.077 3.12914 343.935 4.98123L387.79 15.3191Z" fill="#108CFF"/>
<rect x="116" y="30.1992" width="402" height="297" rx="96" fill="#E3EEFE"/>
<path d="M133.514 305.617C131.746 306.677 129.452 306.046 128.852 304.083C127.959 301.026 127.8 297.699 128.708 294.527C129.957 290.164 132.83 286.392 136.826 284.077C140.822 281.761 145.481 281.1 149.896 282.261C153.121 283.082 155.932 284.819 158.082 287.1C159.515 288.62 158.884 290.913 157.03 291.923C155.262 292.982 153.018 292.265 151.434 291.004C150.407 290.181 149.23 289.617 147.903 289.313C145.385 288.669 142.714 289.092 140.399 290.297C138.121 291.64 136.422 293.779 135.778 296.295C135.387 297.572 135.307 298.912 135.5 300.178C135.863 302.352 135.232 304.645 133.514 305.617Z" fill="#FFAB49"/>
<path d="M502.51 312.857C512.634 307.039 512.634 292.451 502.594 286.632L468.677 266.816C459.059 261.167 446.825 267.491 445.897 278.622L442.269 320.109C441.172 332.336 454.334 340.684 464.965 334.612L502.51 312.857Z" fill="#FFCA62"/>
<rect x="327.332" y="177.759" width="2.64163" height="2.64163" fill="#108CFF"/>
<rect x="323.351" y="177.759" width="2.64163" height="2.64163" fill="#108CFF"/>
<rect x="319.368" y="177.759" width="2.64163" height="2.64163" fill="#108CFF"/>
<rect x="315.387" y="177.759" width="2.64163" height="2.64163" fill="#108CFF"/>
<rect x="311.405" y="177.759" width="2.64163" height="2.64163" fill="#108CFF"/>
<rect x="307.423" y="177.759" width="2.64163" height="2.64163" fill="#108CFF"/>
<rect x="303.441" y="177.759" width="2.64163" height="2.64163" fill="#108CFF"/>
<rect x="323.181" y="173.155" width="2.64163" height="2.64163" fill="#108CFF"/>
<rect width="2.64163" height="2.64163" transform="matrix(1 0 0 -1 323.181 184.928)" fill="#108CFF"/>
<rect x="319.029" y="169.607" width="2.64163" height="2.64163" fill="#108CFF"/>
<rect width="2.64163" height="2.64163" transform="matrix(1 0 0 -1 319.029 188.476)" fill="#108CFF"/>
<rect x="314.879" y="165.833" width="2.64163" height="2.64163" fill="#108CFF"/>
<rect width="2.64163" height="2.64163" transform="matrix(1 0 0 -1 314.879 192.25)" fill="#108CFF"/>
<rect x="151.5" y="127.199" width="141" height="103" rx="15" fill="url(#paint0_linear)"/>
<path d="M202.201 174.253H201.071V184.808H207.049V183.798H202.201V174.253ZM210.675 177.048C208.474 177.048 206.929 178.683 206.929 181.031V181.301C206.959 182.311 207.406 183.265 208.148 183.977C208.862 184.632 209.783 185.017 210.764 185.017H210.912C211.953 185.017 212.935 184.629 213.707 183.977L213.738 183.946L213.233 183.115L213.174 183.145C212.549 183.711 211.777 184.038 210.945 184.038C209.578 184.038 208.181 183.145 208.092 181.153H213.801V181.095C213.801 181.095 213.832 180.738 213.832 180.559C213.825 178.417 212.578 177.048 210.675 177.048ZM208.117 180.2C208.355 178.861 209.336 177.999 210.614 177.999C211.565 177.999 212.606 178.565 212.695 180.2H208.117ZM220.368 177.94V178.328C219.891 177.525 219.001 177.02 218.078 177.02H217.989C215.967 177.02 214.569 178.626 214.569 180.975C214.569 183.354 215.908 184.958 217.9 184.958C219.476 184.958 220.19 184.007 220.427 183.591V184.752H221.498V174.253H220.399V177.94H220.368ZM218.048 183.977C216.65 183.977 215.729 182.788 215.729 181.003C215.729 179.279 216.711 178.06 218.078 178.06C219.238 178.06 220.396 178.981 220.396 181.003C220.396 183.204 219.177 183.977 218.048 183.977ZM228.008 178.088V178.147C227.799 177.79 227.147 177.017 225.571 177.017C223.579 177.017 222.271 178.535 222.271 180.853C222.271 183.171 223.638 184.747 225.66 184.747C226.759 184.747 227.504 184.359 228.008 183.558V184.599C228.008 186.055 227.088 186.889 225.451 186.889C224.767 186.889 224.053 186.71 223.429 186.384L223.37 186.353L222.954 187.274L223.013 187.305C223.786 187.692 224.647 187.899 225.481 187.899C227.236 187.899 229.108 187.006 229.108 184.538V177.226H228.008V178.088ZM225.808 183.767C224.352 183.767 223.4 182.638 223.4 180.883C223.4 179.098 224.232 178.088 225.66 178.088C227.236 178.088 227.978 179.009 227.978 180.883C228.008 182.727 227.236 183.767 225.808 183.767ZM233.598 177.048C231.398 177.048 229.883 178.683 229.883 181.003V181.271C229.913 182.281 230.36 183.234 231.102 183.946C231.816 184.601 232.736 184.986 233.718 184.986H233.866C234.907 184.986 235.888 184.599 236.661 183.946L236.692 183.915L236.156 183.084L236.097 183.115C235.473 183.681 234.7 184.007 233.868 184.007C232.502 184.007 231.104 183.115 231.015 181.123H236.75V181.064C236.75 181.064 236.781 180.707 236.781 180.529C236.781 178.417 235.531 177.048 233.598 177.048ZM231.071 180.2C231.308 178.861 232.29 177.999 233.568 177.999C234.519 177.999 235.56 178.565 235.649 180.2H231.071ZM241.42 177.196C241.272 177.165 241.152 177.165 241.004 177.137C239.963 177.137 239.101 177.792 238.655 178.892V177.196H237.556L237.586 184.719V184.777H238.716V181.597C238.716 181.121 238.775 180.616 238.925 180.169C239.282 179.009 240.085 178.267 241.037 178.267C241.156 178.267 241.274 178.267 241.394 178.297H241.452V177.198L241.42 177.196Z" fill="#1B2D4B"/>
<path fill-rule="evenodd" clip-rule="evenodd" d="M245.677 173.951H247.06V183.496H251.908V184.76H245.677V173.951ZM252.304 174.398H253.718V175.918H252.304V174.398ZM262.426 177.897C263.112 177.168 264.083 176.746 265.216 176.746C266.2 176.746 267.023 177.101 267.6 177.74C268.175 178.378 268.496 179.289 268.5 180.384V180.384C268.5 180.625 268.469 180.864 268.469 181.105H262.767C262.836 182.001 263.185 182.646 263.665 183.073C264.17 183.521 264.83 183.736 265.486 183.736C266.462 183.736 267.125 183.29 267.821 182.772L268.439 183.79C267.675 184.554 266.523 184.969 265.453 184.969H265.305C264.29 184.969 263.339 184.57 262.603 183.895L262.602 183.894L262.601 183.893C261.761 183.088 261.343 182.007 261.343 180.856C261.343 179.654 261.739 178.626 262.426 177.897ZM252.304 176.922H253.718V184.758H252.304V176.922ZM254.115 176.894H255.544L257.747 183.16L259.951 176.894H261.38L258.625 184.729H256.87L254.115 176.894ZM262.813 179.898H267.1C267.035 179.183 266.774 178.707 266.435 178.407C266.072 178.085 265.607 177.951 265.155 177.951C263.992 177.951 263.085 178.701 262.813 179.898Z" fill="#1B2D4B"/>
<circle cx="182.252" cy="179.951" r="11.7519" fill="white"/>
<path d="M176.385 184.496C176.025 184.032 175.719 183.523 175.476 182.98C174.795 181.457 174.647 179.749 175.055 178.131C175.464 176.514 176.405 175.081 177.728 174.065C178.407 173.542 179.167 173.145 179.972 172.885C180.654 172.665 181.367 172.544 182.091 172.528C182.231 172.525 182.343 172.641 182.342 172.781L182.316 174.797C182.315 174.937 182.2 175.048 182.06 175.054C181.052 175.095 180.067 175.45 179.266 176.065C178.393 176.736 177.772 177.682 177.502 178.75C177.232 179.817 177.33 180.944 177.78 181.949C177.988 182.415 178.266 182.842 178.601 183.216L176.385 184.496Z" fill="url(#paint1_linear)"/>
<path d="M188.12 175.409C188.48 175.873 188.786 176.382 189.029 176.925C189.71 178.448 189.858 180.156 189.45 181.773C189.041 183.391 188.1 184.824 186.777 185.84C186.098 186.363 185.338 186.76 184.533 187.02C183.852 187.24 183.138 187.361 182.414 187.377C182.274 187.38 182.162 187.264 182.163 187.124L182.189 185.108C182.191 184.968 182.306 184.856 182.446 184.851C183.457 184.811 184.434 184.459 185.239 183.84C186.112 183.168 186.733 182.223 187.003 181.155C187.273 180.088 187.175 178.961 186.725 177.956C186.517 177.49 186.239 177.063 185.904 176.688L188.12 175.409Z" fill="url(#paint2_linear)"/>
<path d="M180.865 181.403C180.917 181.273 180.854 181.127 180.724 181.075L179.009 180.383C178.878 180.33 178.73 180.393 178.678 180.524C178.427 181.159 177.754 182.863 177.661 183.094C177.547 183.377 177.293 183.635 176.927 183.697C176.562 183.759 176.05 183.752 175.541 183.12C175.952 183.984 176.807 185.341 177.697 185.569C178.587 185.797 179.305 185.298 179.546 184.698C179.746 184.201 180.583 182.108 180.865 181.403Z" fill="#638EEF"/>
<path d="M183.639 178.501C183.587 178.631 183.65 178.777 183.78 178.829L185.495 179.521C185.625 179.574 185.774 179.51 185.826 179.379C186.077 178.744 186.75 177.04 186.843 176.81C186.957 176.526 187.211 176.269 187.577 176.207C187.942 176.145 188.454 176.151 188.963 176.784C188.552 175.92 187.697 174.563 186.807 174.335C185.917 174.106 185.199 174.605 184.958 175.206C184.758 175.702 183.921 177.796 183.639 178.501Z" fill="#638EEF"/>
<rect x="341.5" y="127.199" width="141" height="103" rx="15" fill="url(#paint3_linear)"/>
<circle r="7" transform="matrix(-4.37114e-08 1 1 4.37114e-08 430.5 167.199)" fill="#108CFF"/>
<path d="M409.483 175.545C404.607 174.068 399.346 175.519 395.814 179.315L392.342 183.047C386.475 189.352 389.458 199.902 397.672 201.901C401.382 202.804 405.275 201.62 407.932 198.781L423.972 181.643C424.538 181.039 424.281 180.025 423.502 179.789L409.483 175.545Z" fill="#FFCA62"/>
<path d="M409.309 186.024C404.371 187.544 398.993 186.217 395.339 182.577L391.745 178.997C385.674 172.949 388.54 162.617 396.867 160.531C400.627 159.59 404.607 160.679 407.357 163.402L423.954 179.839C424.54 180.419 424.295 181.411 423.506 181.654L409.309 186.024Z" fill="#108CFF"/>
<path fill-rule="evenodd" clip-rule="evenodd" d="M395.702 182.658C399.355 186.311 404.731 187.643 409.667 186.117L423.86 181.731C424.134 181.647 424.342 181.471 424.473 181.254C424.637 180.702 424.341 180.069 423.729 179.891L409.466 175.738C404.505 174.294 399.152 175.714 395.559 179.427L394.04 180.996L395.702 182.658Z" fill="#0066FF"/>
</g>
<defs>
<linearGradient id="paint0_linear" x1="222" y1="127.199" x2="222" y2="231.135" gradientUnits="userSpaceOnUse">
<stop stop-color="white"/>
<stop offset="1" stop-color="#F0F5FE"/>
</linearGradient>
<linearGradient id="paint1_linear" x1="180.481" y1="174.272" x2="176.97" y2="182.746" gradientUnits="userSpaceOnUse">
<stop stop-color="#94B6FE"/>
<stop offset="1" stop-color="#216ADE"/>
</linearGradient>
<linearGradient id="paint2_linear" x1="183.628" y1="185.713" x2="187.805" y2="176.936" gradientUnits="userSpaceOnUse">
<stop stop-color="#94B6FE"/>
<stop offset="1" stop-color="#216ADE"/>
</linearGradient>
<linearGradient id="paint3_linear" x1="412" y1="127.199" x2="412" y2="231.135" gradientUnits="userSpaceOnUse">
<stop stop-color="white"/>
<stop offset="1" stop-color="#F0F5FE"/>
</linearGradient>
<clipPath id="clip0">
<rect width="634" height="341" fill="white" transform="translate(0 0.699219)"/>
</clipPath>
</defs>
</svg>
