<svg width="634" height="342" viewBox="0 0 634 342" fill="none" xmlns="http://www.w3.org/2000/svg">
<g clip-path="url(#clip0)">
<path d="M387.79 15.5202C395.114 17.2386 397.611 26.4319 392.072 31.5614L365.536 56.1663C360.915 60.4258 353.52 59.123 350.719 53.4705L333.309 18.5551C329.771 11.4513 336.077 3.33031 343.935 5.1824L387.79 15.5202Z" fill="#108CFF"/>
<rect x="116" y="30.4004" width="402" height="297" rx="96" fill="#E3EEFE"/>
<path d="M133.514 305.819C131.746 306.878 129.452 306.247 128.852 304.284C127.959 301.227 127.8 297.901 128.708 294.728C129.957 290.365 132.83 286.593 136.826 284.278C140.822 281.963 145.481 281.301 149.896 282.462C153.121 283.283 155.932 285.021 158.082 287.301C159.515 288.821 158.884 291.114 157.03 292.124C155.262 293.183 153.018 292.466 151.434 291.205C150.407 290.382 149.23 289.818 147.903 289.514C145.385 288.87 142.714 289.293 140.399 290.499C138.121 291.841 136.422 293.98 135.778 296.497C135.387 297.773 135.307 299.113 135.5 300.38C135.863 302.553 135.232 304.846 133.514 305.819Z" fill="#FFAB49"/>
<path d="M502.51 313.058C512.634 307.24 512.634 292.652 502.594 286.834L468.677 267.018C459.059 261.368 446.825 267.692 445.897 278.823L442.269 320.31C441.172 332.537 454.334 340.885 464.965 334.813L502.51 313.058Z" fill="#FFCA62"/>
<path d="M214.504 97.8651C214.504 95.8572 216.132 94.2295 218.139 94.2295H416.152C418.159 94.2295 419.787 95.8572 419.787 97.8651V210.309C419.787 212.316 418.159 213.944 416.152 213.944H218.139C216.132 213.944 214.504 212.316 214.504 210.309V97.8651Z" fill="#F2F6FE"/>
<rect x="218.229" y="99.9307" width="197.835" height="108.312" rx="0.363557" fill="#57AEFF"/>
<path d="M330.142 170.642H290.365C285.056 170.642 280.753 174.945 280.753 180.254V188.59C280.753 193.898 285.056 198.202 290.365 198.202L435.73 198.202C441.038 198.202 445.342 202.505 445.342 207.814V227.008C445.342 232.317 441.038 236.62 435.73 236.62H279.689" stroke="white" stroke-width="3.84476" stroke-linecap="round" stroke-linejoin="round"/>
<path d="M196.027 252.03C196.027 254.665 198.163 256.801 200.798 256.801H433.494C436.128 256.801 438.264 254.665 438.264 252.03V250.848H196.027V252.03Z" fill="#D8E3F5"/>
<path d="M292.535 250.907C292.535 253.014 294.244 254.735 296.352 254.735H337.939C340.047 254.735 341.755 253.014 341.755 250.907H292.535Z" fill="#C4D1E8"/>
<path d="M196.036 250.884H438.255L421.546 217.462C420.468 215.307 418.265 213.945 415.855 213.945H218.436C216.026 213.945 213.823 215.307 212.746 217.462L196.036 250.884Z" fill="#FCFCFE"/>
<path d="M227.971 219.581C227.316 219.581 226.724 219.971 226.467 220.573L220.709 234.021C220.247 235.1 221.039 236.301 222.213 236.301H412.078C413.23 236.301 414.021 235.142 413.602 234.069L408.345 220.621C408.1 219.994 407.495 219.581 406.821 219.581H227.971Z" fill="#C4D1E8"/>
<path d="M336.63 177.867L336.63 163.536L324.389 163.536C322.972 163.536 321.823 164.685 321.823 166.102L321.823 175.301C321.823 176.718 322.972 177.867 324.389 177.867L336.63 177.867Z" fill="white"/>
<path fill-rule="evenodd" clip-rule="evenodd" d="M339.206 154.153C337.704 154.153 336.486 155.371 336.486 156.873V184.529C336.486 186.031 337.704 187.248 339.206 187.248H442.811C444.313 187.248 445.531 186.031 445.531 184.529V156.873C445.531 155.371 444.313 154.153 442.811 154.153H339.206ZM428.206 180.095C433.165 180.095 437.186 176.075 437.186 171.115C437.186 166.156 433.165 162.135 428.206 162.135C423.246 162.135 419.226 166.156 419.226 171.115C419.226 176.075 423.246 180.095 428.206 180.095Z" fill="#F0F5FE"/>
<path fill-rule="evenodd" clip-rule="evenodd" d="M415.63 158.58C408.88 165.33 408.88 176.275 415.63 183.026C422.381 189.776 433.325 189.776 440.076 183.026L510.292 112.809C511.294 111.807 511.294 110.182 510.292 109.18L489.475 88.3636C488.473 87.3615 486.849 87.3615 485.846 88.3636L415.63 158.58ZM434.459 177.482C437.966 173.975 437.966 168.289 434.459 164.782C430.953 161.276 425.267 161.276 421.76 164.782C418.253 168.289 418.253 173.975 421.76 177.482C425.267 180.989 430.953 180.989 434.459 177.482Z" fill="white"/>
<rect x="353.373" y="161.74" width="51.7023" height="17.9203" rx="2.81375" fill="#87C5FF"/>
<path d="M317.148 152.852L314.492 148.095L319.805 148.095L317.148 152.852Z" fill="#17E1D5"/>
<path d="M317.146 148.477C328.089 148.477 337.146 139.606 337.146 128.664C337.146 117.722 328.089 108.852 317.146 108.852C306.204 108.852 297.146 117.722 297.146 128.664C297.146 139.606 306.204 148.477 317.146 148.477Z" fill="#17E1D5"/>
<path fill-rule="evenodd" clip-rule="evenodd" d="M326.884 122.242C327.375 122.739 327.352 123.522 326.831 123.992L314.249 135.344L308.173 129.54C307.666 129.056 307.666 128.272 308.173 127.788C308.679 127.305 309.5 127.305 310.006 127.788L314.3 131.891L325.051 122.192C325.572 121.722 326.392 121.744 326.884 122.242Z" fill="white"/>
</g>
<defs>
<clipPath id="clip0">
<rect width="634" height="341" fill="white" transform="translate(0 0.900391)"/>
</clipPath>
</defs>
</svg>
