<svg width="793" height="440" viewBox="0 0 793 440" fill="none" xmlns="http://www.w3.org/2000/svg">
<g clip-path="url(#clip0)">
<path d="M465.61 26.1912C472.959 27.9138 475.441 37.1296 469.865 42.2717L443.156 66.9376C438.504 71.2076 431.083 69.9018 428.286 64.2354L410.901 29.2345C407.368 22.1132 413.722 13.9722 421.606 15.8287L465.61 26.1912Z" fill="#108CFF"/>
<rect x="194.25" y="40.9639" width="402" height="296.757" rx="96" fill="#E3EEFE"/>
<path d="M212.119 316.251C210.357 317.325 208.086 316.711 207.507 314.751C206.645 311.699 206.513 308.372 207.438 305.19C208.711 300.814 211.59 297.017 215.572 294.67C219.554 292.322 224.181 291.623 228.551 292.751C231.744 293.548 234.518 295.265 236.634 297.53C238.044 299.04 237.4 301.34 235.553 302.364C233.791 303.438 231.57 302.738 230.009 301.489C228.997 300.672 227.833 300.118 226.519 299.824C224.027 299.199 221.373 299.642 219.068 300.867C216.797 302.228 215.096 304.382 214.437 306.905C214.04 308.185 213.95 309.527 214.131 310.793C214.474 312.965 213.831 315.264 212.119 316.251Z" fill="#FFAB49"/>
<path d="M580.496 323.585C590.648 317.753 590.623 303.085 580.536 297.218L546.458 277.237C536.794 271.54 524.525 277.878 523.613 289.067L520.042 330.774C518.962 343.066 532.187 351.482 542.847 345.395L580.496 323.585Z" fill="#FFCA62"/>
<path opacity="0.3" fill-rule="evenodd" clip-rule="evenodd" d="M471.812 155.111V156.699H507.256C511.523 155.407 516.05 154.713 520.739 154.713L749.224 154.713C751.446 154.713 753.247 156.514 753.247 158.736V243.664C753.247 245.886 751.446 247.688 749.223 247.688L520.739 247.688C516.051 247.688 511.525 246.994 507.258 245.703H281.31C277.237 245.703 273.934 242.401 273.934 238.327V221.363H218.898C210.824 221.363 203.861 216.583 200.658 209.707C200.641 209.708 200.625 209.709 200.608 209.709C200.591 209.71 200.575 209.71 200.558 209.71H180.113C179.372 209.71 178.771 209.11 178.771 208.369L178.772 206.67H0.25V195.731H178.772L178.771 194.033C178.771 193.292 179.372 192.692 180.113 192.692H200.558C200.591 192.692 200.625 192.693 200.658 192.695C203.861 185.819 210.824 181.038 218.898 181.038H273.934V164.075C273.934 160.001 277.237 156.699 281.31 156.699H305.933V155.111C305.933 152.889 307.734 151.088 309.956 151.088H340.452C342.674 151.088 344.475 152.889 344.475 155.111V156.699H433.27V155.111C433.27 152.889 435.071 151.088 437.293 151.088H467.789C470.011 151.088 471.812 152.889 471.812 155.111ZM544.75 202.316C544.75 207.318 543.23 211.964 540.626 215.818C536.286 222.242 528.936 226.465 520.6 226.465C512.772 226.465 505.813 222.741 501.401 216.967C498.295 212.903 496.45 207.825 496.45 202.315C496.451 195.647 499.154 189.609 503.524 185.239C507.894 180.869 513.931 178.166 520.6 178.166C528.133 178.166 534.861 181.615 539.29 187.02C541.722 189.989 543.461 193.547 544.26 197.449C544.581 199.021 544.75 200.649 544.75 202.316Z" fill="#B0BFD9"/>
<path d="M207.899 188.285C207.899 187.544 207.299 186.943 206.558 186.943H186.113C185.372 186.943 184.772 187.544 184.772 188.285V202.621C184.772 203.361 185.372 203.962 186.113 203.962H206.558C207.299 203.962 207.899 203.361 207.899 202.621V188.285Z" fill="url(#paint0_linear)"/>
<path d="M279.934 175.29H224.897C213.787 175.29 204.78 184.342 204.78 195.453C204.78 206.563 213.787 215.615 224.897 215.615H279.934V175.29Z" fill="url(#paint1_linear)"/>
<path d="M0.25 190.016H184.725V201.016H0.25V190.016Z" fill="url(#paint2_linear)"/>
<path d="M439.27 150.95H477.812V149.363C477.812 147.141 476.011 145.34 473.789 145.34H443.293C441.071 145.34 439.27 147.141 439.27 149.363V150.95Z" fill="white"/>
<path d="M311.933 150.95H350.475V149.363C350.475 147.141 348.674 145.34 346.452 145.34H315.956C313.734 145.34 311.933 147.141 311.933 149.363V150.95Z" fill="white"/>
<path fill-rule="evenodd" clip-rule="evenodd" d="M287.31 150.95C283.236 150.95 279.934 154.253 279.934 158.327V232.578C279.934 236.652 283.236 239.955 287.31 239.955H565.816C569.89 239.955 573.193 236.652 573.193 232.578V158.327C573.193 154.253 569.89 150.95 565.816 150.95H287.31ZM526.6 220.717C539.938 220.717 550.751 209.905 550.751 196.567C550.751 183.229 539.938 172.417 526.6 172.417C513.263 172.417 502.45 183.229 502.45 196.567C502.45 209.905 513.263 220.717 526.6 220.717Z" fill="url(#paint3_linear)"/>
<path fill-rule="evenodd" clip-rule="evenodd" d="M527.225 149.015C501.543 149.015 480.725 169.833 480.725 195.515C480.725 221.196 501.543 242.015 527.225 242.015H746.873C750.187 242.015 752.873 239.328 752.873 236.015V155.015C752.873 151.701 750.187 149.015 746.873 149.015H527.225ZM526.6 220.716C539.938 220.716 550.75 209.904 550.75 196.566C550.75 183.228 539.938 172.416 526.6 172.416C513.262 172.416 502.45 183.228 502.45 196.566C502.45 209.904 513.262 220.716 526.6 220.716Z" fill="white"/>
<rect x="325.115" y="171.084" width="139.046" height="48.1942" rx="4.41186" fill="#57AEFF"/>
<rect x="333.722" y="196.727" width="1.29313" height="1.29313" transform="rotate(-180 333.722 196.727)" fill="white"/>
<rect x="335.754" y="198.98" width="1.29313" height="1.29313" transform="rotate(-180 335.754 198.98)" fill="white"/>
<rect width="1.29313" height="1.29313" transform="matrix(-1 -8.74228e-08 -8.74228e-08 1 335.754 193.218)" fill="white"/>
<rect x="337.786" y="200.717" width="1.29313" height="1.29313" transform="rotate(-180 337.786 200.717)" fill="white"/>
<rect width="1.29313" height="1.29313" transform="matrix(-1 -8.74228e-08 -8.74228e-08 1 337.786 191.48)" fill="white"/>
<rect x="339.817" y="202.564" width="1.29313" height="1.29313" transform="rotate(-180 339.817 202.564)" fill="white"/>
<rect width="1.29313" height="1.29313" transform="matrix(-1 -8.74228e-08 -8.74228e-08 1 339.818 189.633)" fill="white"/>
<rect width="1.29313" height="1.29313" transform="matrix(1 -8.74228e-08 -8.74228e-08 -1 453.856 196.727)" fill="white"/>
<rect width="1.29313" height="1.29313" transform="matrix(1 -8.74228e-08 -8.74228e-08 -1 451.824 198.98)" fill="white"/>
<rect x="451.824" y="193.218" width="1.29313" height="1.29313" fill="white"/>
<rect width="1.29313" height="1.29313" transform="matrix(1 -8.74228e-08 -8.74228e-08 -1 449.792 200.717)" fill="white"/>
<rect x="449.792" y="191.48" width="1.29313" height="1.29313" fill="white"/>
<rect width="1.29313" height="1.29313" transform="matrix(1 -8.74228e-08 -8.74228e-08 -1 447.76 202.564)" fill="white"/>
<rect x="447.76" y="189.633" width="1.29313" height="1.29313" fill="white"/>
<path d="M364.729 207.271H365.858V202.031H364.729V207.271ZM368.094 207.271H369.215V203.885L371.74 207.271H372.869V202.031H371.74V205.418L369.215 202.031H368.094V207.271ZM377.083 207.363C378.365 207.363 379.12 206.699 379.12 205.7C379.12 204.731 378.372 204.396 377.243 204.144C376.435 203.961 376.122 203.839 376.122 203.457C376.122 203.145 376.412 202.893 376.892 202.893C377.396 202.893 377.922 203.099 378.388 203.473L378.975 202.664C378.441 202.206 377.777 201.939 376.923 201.939C375.779 201.939 374.985 202.603 374.985 203.572C374.985 204.586 375.771 204.899 376.877 205.151C377.678 205.334 377.983 205.448 377.983 205.822C377.983 206.15 377.693 206.409 377.129 206.409C376.465 206.409 375.901 206.15 375.405 205.723L374.756 206.493C375.367 207.058 376.175 207.363 377.083 207.363ZM382.429 207.271H383.558V203.045H385.191V202.031H380.797V203.045H382.429V207.271ZM390.537 207.271H391.804L389.668 202.031H388.409L386.273 207.271H387.532L387.867 206.448H390.202L390.537 207.271ZM388.257 205.494L389.035 203.579L389.813 205.494H388.257ZM394.656 206.257V202.031H393.527V207.271H397.265V206.257H394.656ZM400.226 206.257V202.031H399.097V207.271H402.835V206.257H400.226ZM411.824 207.271H413.09L410.954 202.031H409.695L407.559 207.271H408.818L409.154 206.448H411.488L411.824 207.271ZM409.543 205.494L410.321 203.579L411.099 205.494H409.543ZM414.852 207.271H415.973V205.57H417.209C418.346 205.57 419.185 204.838 419.185 203.801C419.185 202.763 418.346 202.031 417.209 202.031H414.852V207.271ZM415.973 204.541V203.061H417.087C417.644 203.061 418.025 203.351 418.025 203.801C418.025 204.251 417.644 204.541 417.087 204.541H415.973ZM421.032 207.271H422.153V205.57H423.389C424.526 205.57 425.365 204.838 425.365 203.801C425.365 202.763 424.526 202.031 423.389 202.031H421.032V207.271ZM422.153 204.541V203.061H423.267C423.824 203.061 424.205 203.351 424.205 203.801C424.205 204.251 423.824 204.541 423.267 204.541H422.153Z" fill="white"/>
<path fill-rule="evenodd" clip-rule="evenodd" d="M389.7 181.832V182.867H388.665V183.901H387.631V194.246H388.665V195.281H389.7V196.315H400.045V195.281H401.079V194.246H402.114V183.901H401.079V182.867H400.045V181.832H389.7ZM397.976 184.936V183.901H391.769V184.936H393.838V188.039H392.803V189.074H393.838V190.108H392.803V191.143H393.838V193.212H391.769V194.246H397.976V193.212H395.907V191.143H396.941V190.108H395.907V189.074H396.941V188.039H395.907V184.936L397.976 184.936Z" fill="#FAFCFE"/>
<rect x="458.709" y="135.906" width="2.64163" height="2.64163" transform="rotate(90 458.709 135.906)" fill="#108CFF"/>
<rect x="458.709" y="131.925" width="2.64163" height="2.64163" transform="rotate(90 458.709 131.925)" fill="#108CFF"/>
<rect x="458.709" y="127.942" width="2.64163" height="2.64163" transform="rotate(90 458.709 127.942)" fill="#108CFF"/>
<rect x="458.709" y="123.961" width="2.64163" height="2.64163" transform="rotate(90 458.709 123.961)" fill="#108CFF"/>
<rect x="458.709" y="119.979" width="2.64163" height="2.64163" transform="rotate(90 458.709 119.979)" fill="#108CFF"/>
<rect x="458.709" y="115.997" width="2.64163" height="2.64163" transform="rotate(90 458.709 115.997)" fill="#108CFF"/>
<rect x="458.709" y="112.016" width="2.64163" height="2.64163" transform="rotate(90 458.709 112.016)" fill="#108CFF"/>
<rect x="463.312" y="131.755" width="2.64163" height="2.64163" transform="rotate(90 463.312 131.755)" fill="#108CFF"/>
<rect width="2.64163" height="2.64163" transform="matrix(-4.37114e-08 1 1 4.37114e-08 451.54 131.755)" fill="#108CFF"/>
<rect x="466.861" y="127.604" width="2.64163" height="2.64163" transform="rotate(90 466.861 127.604)" fill="#108CFF"/>
<rect width="2.64163" height="2.64163" transform="matrix(-4.37114e-08 1 1 4.37114e-08 447.992 127.604)" fill="#108CFF"/>
<rect x="470.635" y="123.453" width="2.64163" height="2.64163" transform="rotate(90 470.635 123.453)" fill="#108CFF"/>
<rect width="2.64163" height="2.64163" transform="matrix(-4.37114e-08 1 1 4.37114e-08 444.219 123.453)" fill="#108CFF"/>
<rect x="333.24" y="135.906" width="2.64163" height="2.64163" transform="rotate(90 333.24 135.906)" fill="#108CFF"/>
<rect x="333.24" y="131.925" width="2.64163" height="2.64163" transform="rotate(90 333.24 131.925)" fill="#108CFF"/>
<rect x="333.24" y="127.942" width="2.64163" height="2.64163" transform="rotate(90 333.24 127.942)" fill="#108CFF"/>
<rect x="333.24" y="123.961" width="2.64163" height="2.64163" transform="rotate(90 333.24 123.961)" fill="#108CFF"/>
<rect x="333.24" y="119.979" width="2.64163" height="2.64163" transform="rotate(90 333.24 119.979)" fill="#108CFF"/>
<rect x="333.24" y="115.997" width="2.64163" height="2.64163" transform="rotate(90 333.24 115.997)" fill="#108CFF"/>
<rect x="333.24" y="112.016" width="2.64163" height="2.64163" transform="rotate(90 333.24 112.016)" fill="#108CFF"/>
<rect x="337.844" y="131.755" width="2.64163" height="2.64163" transform="rotate(90 337.844 131.755)" fill="#108CFF"/>
<rect width="2.64163" height="2.64163" transform="matrix(-4.37114e-08 1 1 4.37114e-08 326.071 131.755)" fill="#108CFF"/>
<rect x="341.393" y="127.604" width="2.64163" height="2.64163" transform="rotate(90 341.393 127.604)" fill="#108CFF"/>
<rect width="2.64163" height="2.64163" transform="matrix(-4.37114e-08 1 1 4.37114e-08 322.523 127.604)" fill="#108CFF"/>
<rect x="345.166" y="123.453" width="2.64163" height="2.64163" transform="rotate(90 345.166 123.453)" fill="#108CFF"/>
<rect width="2.64163" height="2.64163" transform="matrix(-4.37114e-08 1 1 4.37114e-08 318.75 123.453)" fill="#108CFF"/>
</g>
<defs>
<linearGradient id="paint0_linear" x1="185.603" y1="194.281" x2="207.651" y2="194.281" gradientUnits="userSpaceOnUse">
<stop stop-color="white"/>
<stop offset="1" stop-color="#E4EBFA"/>
</linearGradient>
<linearGradient id="paint1_linear" x1="208.398" y1="198.018" x2="280.521" y2="198.018" gradientUnits="userSpaceOnUse">
<stop stop-color="white"/>
<stop offset="1" stop-color="#E4EBFA"/>
</linearGradient>
<linearGradient id="paint2_linear" x1="92.4876" y1="190.016" x2="204.204" y2="190.016" gradientUnits="userSpaceOnUse">
<stop stop-color="white"/>
<stop offset="1" stop-color="#E4EBFA"/>
</linearGradient>
<linearGradient id="paint3_linear" x1="426.563" y1="150.95" x2="426.563" y2="240.764" gradientUnits="userSpaceOnUse">
<stop stop-color="white"/>
<stop offset="1" stop-color="#F0F5FE"/>
</linearGradient>
<clipPath id="clip0">
<rect width="792" height="440" fill="white" transform="translate(0.25)"/>
</clipPath>
</defs>
</svg>
