<svg width="792" height="501" viewBox="0 0 792 501" fill="none" xmlns="http://www.w3.org/2000/svg">
<g clip-path="url(#clip0)">
<path d="M398.85 20.5876C398.85 9.77001 408.627 1.02051 420.716 1.02051L456.983 1.02053C469.072 1.02053 478.85 9.77001 478.85 20.5875L478.85 32.4535C478.85 43.271 469.072 52.0205 456.983 52.0205L420.716 52.0205C408.627 52.0205 398.85 43.271 398.85 32.4535L398.85 20.5876Z" fill="#405985"/>
<path d="M246.5 123.9C246.5 67.8996 288.4 22.5996 340.1 22.5996H449.9C501.6 22.5996 543.5 67.9996 543.5 123.9V324.1C543.5 380.1 501.6 425.4 449.9 425.4H340.2C288.5 425.4 246.6 380 246.6 324.1L246.5 123.9Z" fill="#25395F"/>
<path d="M521 77.6504C518.9 77.6504 517.3 79.3504 517.7 81.3504C518.5 84.4504 520 87.4504 522.4 89.6504C525.7 92.8504 530 94.6504 534.6 94.6504C539.2 94.6504 543.6 92.9504 546.8 89.6504C549.2 87.3504 550.7 84.4504 551.5 81.3504C552 79.3504 550.3 77.6504 548.2 77.7504C546.1 77.7504 544.6 79.4504 543.8 81.3504C543.3 82.5504 542.6 83.6504 541.6 84.5504C539.7 86.3504 537.2 87.3504 534.6 87.4504C532 87.4504 529.4 86.4504 527.6 84.5504C526.6 83.6504 525.9 82.5504 525.4 81.3504C524.7 79.3504 523 77.6504 521 77.6504Z" fill="#6E82A4"/>
<path d="M227.928 218.58C228.12 208.08 241.027 203.196 247.996 211.008L274.26 240.453C278.472 245.174 278.054 252.483 273.333 256.694L246.463 280.662C238.995 287.324 227.245 281.927 227.323 271.992L227.928 218.58Z" fill="#9AADCE"/>
<path d="M341.415 305.81C340.244 303.468 338.641 301.742 336.731 300.632L333.957 299.029C335.868 300.139 337.47 301.865 338.641 304.207C343.635 314.44 338.457 332.748 327.053 345.015C324.155 348.159 321.073 350.624 318.053 352.35C312.073 355.802 306.217 356.419 301.964 353.953L304.738 355.556C308.991 358.022 314.786 357.467 320.827 353.953C323.847 352.227 326.868 349.762 329.826 346.618C341.23 334.289 346.408 316.043 341.415 305.81Z" fill="#F6F8FC"/>
<path d="M476.414 116.628L305.046 301.619C288.772 319.187 281.375 345.262 288.526 359.871C293.827 370.72 305.662 372.2 318.114 365.049C322.429 362.583 326.744 359.07 330.936 354.57L502.304 169.579L476.414 116.628ZM327.053 346.618C324.155 349.762 321.073 352.227 318.053 353.953C309.361 358.947 301.039 357.96 297.341 350.317C292.348 340.084 297.526 321.776 308.93 309.509C311.888 306.365 314.909 303.899 317.929 302.173C326.621 297.18 334.943 298.166 338.641 305.81C343.635 316.043 338.457 334.289 327.053 346.618Z" fill="#F1F5FE"/>
<path d="M528.908 185.191L502.389 169.741L476.499 116.79L502.548 130.06L528.908 185.191Z" fill="#E4EBFA"/>
<path d="M356.333 317.584L333.649 304.393C337.101 306.427 339.258 310.68 339.258 316.783C339.32 329.05 330.69 343.967 320.026 350.132C314.663 353.214 309.793 353.522 306.279 351.488L328.964 364.679C332.478 366.714 337.347 366.405 342.71 363.323C353.375 357.159 362.005 342.241 361.943 329.974C362.005 323.872 359.847 319.557 356.333 317.584Z" fill="#D8E3F5"/>
<path d="M308.19 323.995L523.755 199.538V273.448L308.437 397.905L308.19 323.995ZM342.71 363.323C353.374 357.159 362.004 342.242 361.943 329.975C361.881 317.708 353.251 312.776 342.587 318.941C331.922 325.105 323.292 340.022 323.354 352.289C323.416 364.556 332.046 369.488 342.71 363.323Z" fill="url(#paint0_linear)"/>
<path d="M417.237 282.454C417.237 282.145 417.401 281.859 417.669 281.704L509.176 228.884C509.464 228.718 509.824 228.925 509.824 229.258V258.76C509.824 259.686 509.33 260.541 508.529 261.004L421.177 311.46C419.451 312.457 417.293 311.214 417.289 309.221L417.237 282.454Z" fill="#57AEFF"/>
<path d="M308.19 323.994L285.505 310.803L501.071 186.346L523.756 199.537L308.19 323.994Z" fill="white"/>
<path d="M308.437 397.904L285.752 384.713L285.505 310.803L308.19 323.994L308.437 397.904Z" fill="#D8E3F5"/>
<path d="M502.548 130.14L330.258 316.474C313.984 334.043 306.587 360.118 313.738 374.727C319.039 385.576 330.874 387.056 343.326 379.905C347.641 377.439 351.956 373.926 356.148 369.426L528.906 185.19L502.548 130.14ZM352.265 361.474C349.367 364.618 346.285 367.083 343.265 368.809C334.573 373.803 326.251 372.816 322.553 365.172C317.56 354.94 322.738 336.632 334.141 324.365C337.1 321.221 340.121 318.755 343.141 317.029C351.833 312.036 360.155 313.022 363.853 320.666C368.846 330.899 363.668 349.207 352.265 361.474Z" fill="white"/>
<path d="M452.188 233.873C452.311 235.475 452.188 237.14 451.818 238.866C451.448 240.592 450.77 242.318 449.845 244.044C448.921 245.77 447.75 247.434 446.27 249.037C444.852 250.516 443.496 251.687 442.202 252.427C442.14 252.489 442.078 252.489 441.955 252.55C440.537 253.29 439.243 253.722 438.01 253.722C436.777 253.722 435.668 253.413 434.681 252.674C433.695 251.996 432.894 250.948 432.216 249.653C431.599 248.359 431.168 246.879 431.044 245.276C430.921 243.674 431.044 242.009 431.414 240.283C431.784 238.557 432.462 236.831 433.387 235.105C434.311 233.379 435.483 231.715 436.962 230.112C438.318 228.633 439.674 227.462 441.031 226.722C441.092 226.66 441.215 226.66 441.277 226.599C442.695 225.859 443.989 225.427 445.161 225.427C446.393 225.427 447.441 225.736 448.428 226.475C449.414 227.153 450.215 228.201 450.893 229.496C451.695 230.79 452.065 232.27 452.188 233.873ZM450.585 239.051C450.893 237.51 451.017 236.092 450.893 234.612C450.77 233.194 450.4 231.9 449.845 230.729C449.291 229.558 448.551 228.695 447.688 228.016C446.825 227.4 445.839 227.092 444.791 227.03C443.743 227.03 442.572 227.338 441.339 227.955C441.215 228.017 441.092 228.078 440.969 228.14C439.859 228.756 438.75 229.681 437.579 230.914C436.284 232.27 435.236 233.749 434.496 235.29C433.695 236.831 433.14 238.372 432.832 239.852C432.524 241.393 432.401 242.811 432.524 244.229C432.647 245.646 433.017 246.941 433.572 248.112C434.127 249.283 434.866 250.146 435.729 250.824C436.592 251.441 437.579 251.749 438.626 251.811C439.674 251.872 440.846 251.502 442.078 250.886C442.202 250.824 442.325 250.763 442.448 250.701C443.558 250.085 444.667 249.098 445.839 247.865C447.133 246.509 448.181 245.03 448.921 243.489C449.722 242.071 450.277 240.592 450.585 239.051Z" fill="#C4D1E8"/>
<path d="M479.742 184.743L496.324 194.359L494.968 195.777L479.681 186.469L480.605 211.311L479.311 212.667L478.386 186.161L479.742 184.743Z" fill="#C4D1E8"/>
<path d="M419.147 250.146L427.962 268.084L426.791 269.44L417.976 251.441L419.147 250.146Z" fill="#C4D1E8"/>
<path d="M467.167 198.305L467.66 199.229L460.695 206.75L469.078 223.763L467.845 225.058L459.523 208.044L452.619 215.503L452.126 214.517L467.167 198.305Z" fill="#C4D1E8"/>
<path d="M410.517 275.482C410.394 275.666 410.209 275.79 410.086 275.851C410.024 275.913 409.962 275.913 409.901 275.913C409.408 276.098 409.038 275.913 408.976 275.358C408.976 275.235 408.976 275.112 408.976 274.927C409.038 274.249 409.531 273.509 410.086 273.201C410.147 273.139 410.209 273.139 410.271 273.139C410.887 272.893 411.319 273.324 411.195 274.125C411.134 274.495 411.01 274.865 410.764 275.235C410.641 275.297 410.579 275.42 410.517 275.482Z" fill="#C4D1E8"/>
<path d="M410.517 278.133C410.456 278.441 410.271 278.749 410.024 278.995C409.901 279.119 409.778 279.242 409.654 279.304C409.531 279.365 409.408 279.427 409.284 279.427C408.791 279.489 408.545 278.996 408.73 278.256C408.853 277.948 409.038 277.639 409.223 277.393C409.346 277.27 409.469 277.146 409.593 277.085C409.716 277.023 409.839 276.961 409.962 276.961C410.456 276.9 410.702 277.454 410.517 278.133Z" fill="#C4D1E8"/>
<path d="M409.284 269.626C409.408 269.441 409.593 269.318 409.716 269.256L409.778 269.194C410.456 268.824 411.072 269.071 411.134 269.872C411.195 270.489 410.825 271.29 410.332 271.783C410.209 271.907 410.024 272.03 409.901 272.153L409.839 272.215C409.223 272.585 408.668 272.4 408.545 271.722C408.545 271.66 408.545 271.598 408.545 271.537C408.483 270.92 408.791 270.119 409.284 269.626Z" fill="#C4D1E8"/>
<path d="M401.209 284.667C401.148 284.482 401.209 284.235 401.271 283.989C401.456 283.495 401.764 283.002 402.134 282.817C402.257 282.756 402.38 282.694 402.504 282.694C402.997 282.632 403.243 283.187 403.058 283.865C402.935 284.174 402.812 284.482 402.565 284.728C402.504 284.79 402.442 284.852 402.319 284.913C402.257 284.975 402.195 284.975 402.134 285.037C401.702 285.283 401.332 285.16 401.209 284.667Z" fill="#C4D1E8"/>
<path d="M402.072 286.516C402.134 286.762 402.072 287.009 401.949 287.317C401.764 287.687 401.517 287.934 401.271 288.119C401.086 288.242 400.963 288.242 400.778 288.242C400.593 288.18 400.469 288.057 400.408 287.81C400.346 287.44 400.531 286.886 400.901 286.516C401.024 286.393 401.148 286.331 401.209 286.269C401.394 286.146 401.517 286.146 401.702 286.146C401.887 286.146 402.011 286.331 402.072 286.516Z" fill="#C4D1E8"/>
<path d="M402.689 281.584C402.627 281.646 402.565 281.646 402.504 281.646C401.887 281.892 401.456 281.461 401.579 280.66C401.641 279.982 402.134 279.242 402.689 278.934C402.75 278.872 402.812 278.872 402.874 278.872C403.49 278.625 403.921 279.119 403.798 279.858C403.675 280.536 403.182 281.276 402.689 281.584Z" fill="#C4D1E8"/>
<path d="M403.49 286.023C403.552 285.961 403.613 285.838 403.675 285.776C403.737 285.653 403.86 285.591 403.921 285.53H403.983C404.353 285.345 404.661 285.53 404.661 286.023C404.661 286.269 404.6 286.516 404.415 286.701C404.353 286.824 404.291 286.886 404.23 286.947C404.168 287.009 404.106 287.071 404.045 287.071C403.983 287.132 403.983 287.132 403.921 287.132C403.613 287.317 403.305 287.194 403.243 286.886C403.182 286.639 403.305 286.331 403.49 286.023Z" fill="#C4D1E8"/>
<path d="M404.353 284.296C404.291 283.927 404.476 283.372 404.846 283.002C404.969 282.879 405.093 282.817 405.154 282.755C405.339 282.632 405.463 282.632 405.647 282.632C406.017 282.755 406.079 283.31 405.832 283.865C405.709 284.112 405.524 284.42 405.278 284.543C405.216 284.605 405.154 284.605 405.154 284.666C404.969 284.79 404.784 284.79 404.661 284.79C404.538 284.666 404.415 284.481 404.353 284.296Z" fill="#C4D1E8"/>
<path d="M405.771 285.899C405.894 285.776 405.956 285.714 406.079 285.653C406.326 285.529 406.51 285.529 406.634 285.714C406.695 285.838 406.757 286.022 406.695 286.207C406.634 286.392 406.572 286.639 406.387 286.824L406.326 286.885C406.264 286.947 406.141 287.009 406.079 287.07C405.894 287.194 405.647 287.194 405.524 287.009C405.524 286.947 405.463 286.885 405.463 286.824C405.401 286.577 405.524 286.146 405.771 285.899Z" fill="#C4D1E8"/>
<path d="M406.51 281.215C406.387 281.338 406.264 281.461 406.141 281.523C406.017 281.585 405.894 281.646 405.771 281.646C405.278 281.708 405.031 281.215 405.216 280.475C405.339 279.982 405.709 279.489 406.079 279.242C406.202 279.181 406.326 279.119 406.449 279.119C406.942 279.057 407.189 279.612 407.004 280.29C406.942 280.598 406.757 280.968 406.51 281.215Z" fill="#C4D1E8"/>
<path d="M407.065 277.701C407.004 277.762 406.88 277.886 406.819 277.947C406.757 278.009 406.695 278.07 406.634 278.07C406.079 278.379 405.647 278.194 405.524 277.639C405.524 277.516 405.524 277.392 405.524 277.208C405.586 276.529 406.079 275.79 406.634 275.482C406.695 275.42 406.757 275.42 406.819 275.42C407.127 275.297 407.373 275.358 407.558 275.543C407.743 275.728 407.805 276.036 407.743 276.406C407.682 276.776 407.558 277.146 407.312 277.516C407.189 277.516 407.127 277.639 407.065 277.701Z" fill="#C4D1E8"/>
<path d="M407.682 272.03C407.743 272.831 407.189 273.879 406.449 274.372L406.387 274.434C405.771 274.804 405.216 274.619 405.093 273.941C405.093 273.879 405.093 273.818 405.093 273.756C405.093 273.386 405.216 272.893 405.401 272.461C405.647 272.03 405.956 271.66 406.326 271.414C406.326 271.414 406.387 271.414 406.387 271.352C407.004 270.982 407.62 271.229 407.682 272.03Z" fill="#C4D1E8"/>
<path d="M404.538 267.776C404.6 267.714 404.661 267.653 404.723 267.591C404.846 267.468 405.031 267.345 405.154 267.283C405.771 266.913 406.326 267.036 406.572 267.53C406.942 268.208 406.572 269.502 405.771 270.303C405.709 270.365 405.647 270.427 405.586 270.488C405.463 270.612 405.278 270.735 405.154 270.797C404.908 270.92 404.661 271.043 404.415 270.981C404.045 270.981 403.798 270.735 403.675 270.365C403.675 270.303 403.675 270.242 403.613 270.18C403.552 269.441 403.921 268.454 404.538 267.776Z" fill="#C4D1E8"/>
<path d="M403.613 275.112C403.921 275.728 403.613 276.776 402.935 277.516C402.812 277.639 402.627 277.824 402.504 277.886L402.442 277.947C401.826 278.317 401.271 278.132 401.148 277.454C401.148 277.392 401.148 277.331 401.148 277.269C401.086 276.653 401.456 275.851 401.949 275.358C402.072 275.235 402.257 275.111 402.38 274.988L402.442 274.927C402.935 274.618 403.428 274.68 403.613 275.112Z" fill="#C4D1E8"/>
<path d="M401.209 270.797C401.394 270.673 401.517 270.612 401.702 270.612C402.134 270.55 402.565 270.735 402.689 271.228C402.75 271.413 402.75 271.598 402.75 271.844C402.75 272.276 402.565 272.769 402.319 273.262C402.195 273.509 402.011 273.694 401.826 273.879C401.764 273.94 401.702 274.002 401.641 274.064C401.517 274.187 401.332 274.31 401.209 274.372C401.024 274.495 400.901 274.557 400.716 274.557C400.408 274.618 400.161 274.557 399.915 274.372C399.791 274.248 399.73 274.125 399.668 274.002C399.668 273.94 399.606 273.879 399.606 273.817C399.483 273.262 399.668 272.584 400.1 271.968C400.223 271.783 400.346 271.536 400.531 271.413C400.593 271.351 400.654 271.29 400.716 271.228C400.963 270.981 401.086 270.858 401.209 270.797Z" fill="#C4D1E8"/>
<path d="M397.326 279.735C397.449 279.365 397.696 278.995 398.004 278.811C398.065 278.749 398.127 278.749 398.25 278.749C398.62 278.687 398.805 278.995 398.682 279.55C398.62 279.735 398.559 279.858 398.497 280.043C398.435 280.105 398.374 280.228 398.312 280.29C398.25 280.413 398.127 280.475 398.004 280.536C397.942 280.598 397.819 280.598 397.757 280.598C397.387 280.598 397.202 280.228 397.326 279.735Z" fill="#C4D1E8"/>
<path d="M397.326 291.817C397.264 291.879 397.202 292.002 397.141 292.064C397.017 292.187 396.894 292.31 396.771 292.372C396.463 292.557 396.154 292.557 395.97 292.372C395.661 292.064 395.723 291.324 396.154 290.707C396.216 290.584 396.278 290.522 396.339 290.461C396.463 290.337 396.586 290.214 396.709 290.153C396.833 290.091 396.956 290.029 397.017 290.029C397.202 290.029 397.326 290.029 397.449 290.153C397.88 290.461 397.757 291.2 397.326 291.817Z" fill="#C4D1E8"/>
<path d="M397.264 276.899C397.326 276.714 397.449 276.591 397.511 276.468C397.572 276.406 397.696 276.283 397.757 276.283C397.88 276.221 398.004 276.16 398.065 276.221C398.374 276.221 398.435 276.653 398.25 277.084C398.189 277.146 398.189 277.269 398.127 277.331C398.004 277.516 397.88 277.639 397.757 277.701C397.634 277.762 397.511 277.762 397.449 277.762C397.202 277.762 397.141 277.331 397.264 276.899Z" fill="#C4D1E8"/>
<path d="M398.805 281.276C398.805 281.276 398.867 281.276 398.867 281.214C399.052 281.091 399.298 281.153 399.422 281.214C399.73 281.461 399.668 282.077 399.36 282.632C399.237 282.879 398.99 283.064 398.805 283.187C398.805 283.187 398.743 283.187 398.743 283.249C398.312 283.495 397.942 283.187 398.004 282.632C398.004 282.262 398.25 281.893 398.497 281.584C398.559 281.399 398.682 281.338 398.805 281.276Z" fill="#C4D1E8"/>
<path d="M398.189 291.817C398.435 291.385 398.743 291.016 399.052 290.831C399.298 290.707 399.545 290.646 399.791 290.707C400.285 290.892 400.346 291.694 399.915 292.433C399.791 292.618 399.668 292.865 399.483 292.988C399.36 293.173 399.175 293.296 398.99 293.358C398.743 293.481 398.497 293.543 398.25 293.481C397.88 293.358 397.819 292.618 398.189 291.817Z" fill="#C4D1E8"/>
<path d="M397.942 267.838C398.004 267.776 398.065 267.715 398.127 267.653C398.374 267.406 398.62 267.222 398.867 267.098C399.483 266.728 400.1 266.79 400.469 267.222C400.963 267.9 400.654 269.379 399.791 270.427C399.73 270.489 399.668 270.55 399.606 270.612C399.36 270.858 399.113 271.043 398.867 271.228C398.25 271.598 397.634 271.537 397.264 271.105C397.141 270.982 397.079 270.797 397.079 270.55C396.894 269.687 397.264 268.639 397.942 267.838Z" fill="#C4D1E8"/>
<path d="M397.017 284.235C396.833 284.605 396.524 284.975 396.278 285.098C396.093 285.221 395.846 285.283 395.661 285.221C395.476 285.159 395.353 284.975 395.291 284.728C395.23 284.235 395.476 283.618 395.908 283.249C395.97 283.187 396.093 283.064 396.154 283.002C396.216 283.002 396.216 282.94 396.278 282.94C396.463 282.817 396.709 282.755 396.894 282.817C397.264 282.94 397.387 283.557 397.017 284.235Z" fill="#C4D1E8"/>
<path d="M395.415 277.454C395.476 277.207 395.6 276.961 395.785 276.714C395.846 276.591 395.97 276.529 396.093 276.468C396.154 276.406 396.216 276.406 396.278 276.406C396.463 276.344 396.586 276.406 396.709 276.591C396.771 276.714 396.833 276.961 396.771 277.208C396.648 277.577 396.401 278.009 396.093 278.132C396.031 278.194 395.97 278.194 395.846 278.194C395.661 278.256 395.538 278.194 395.415 278.009C395.353 277.886 395.353 277.701 395.415 277.454Z" fill="#C4D1E8"/>
<path d="M395.538 279.92C395.661 279.797 395.723 279.735 395.846 279.674C395.846 279.674 395.908 279.674 395.908 279.612C396.154 279.489 396.339 279.489 396.463 279.612C396.586 279.735 396.648 279.92 396.648 280.228C396.648 280.475 396.524 280.783 396.339 281.03C396.278 281.153 396.216 281.215 396.154 281.276C396.031 281.4 395.97 281.461 395.846 281.523L395.785 281.585C395.353 281.831 394.983 281.523 395.045 280.968C395.045 280.598 395.23 280.228 395.538 279.92Z" fill="#C4D1E8"/>
<path d="M395.23 288.92C395.353 288.858 395.415 288.796 395.538 288.796C395.723 288.735 395.908 288.858 396.031 289.043C396.216 289.413 396.031 290.091 395.6 290.523C395.476 290.646 395.415 290.707 395.291 290.769C394.983 290.954 394.675 290.954 394.49 290.646C394.305 290.276 394.49 289.598 394.922 289.166C394.983 289.105 395.107 288.981 395.23 288.92Z" fill="#C4D1E8"/>
<path d="M392.702 293.173C392.764 292.988 392.887 292.803 393.011 292.68C393.072 292.618 393.072 292.557 393.134 292.557C393.196 292.495 393.257 292.495 393.257 292.433C393.565 292.249 393.874 292.31 393.935 292.68C393.997 292.865 393.935 293.112 393.812 293.358C393.689 293.666 393.442 293.913 393.196 294.098C393.072 294.159 392.949 294.221 392.826 294.221C392.579 294.16 392.518 293.666 392.702 293.173Z" fill="#C4D1E8"/>
<path d="M392.456 287.872C392.271 287.379 392.518 286.454 393.072 285.899L393.134 285.838C393.257 285.714 393.381 285.591 393.504 285.53C393.935 285.283 394.367 285.345 394.552 285.776C394.737 286.208 394.613 286.824 394.244 287.441C394.182 287.564 394.059 287.687 393.997 287.81L393.935 287.872C393.812 287.995 393.689 288.119 393.565 288.18C393.072 288.365 392.641 288.304 392.456 287.872Z" fill="#C4D1E8"/>
<path d="M393.442 295.146C393.504 294.838 393.689 294.591 393.874 294.344V294.283C393.997 294.159 394.059 294.098 394.182 294.036C394.305 293.975 394.367 293.975 394.49 293.913C394.675 293.913 394.86 293.974 394.983 294.159C395.168 294.529 394.983 295.207 394.613 295.639C394.49 295.762 394.428 295.824 394.305 295.885C393.997 296.07 393.689 296.07 393.504 295.762C393.381 295.701 393.381 295.392 393.442 295.146Z" fill="#C4D1E8"/>
<path d="M393.627 277.639C393.75 277.516 393.812 277.454 393.935 277.393C393.935 277.393 393.997 277.393 393.997 277.331C394.428 277.146 394.798 277.393 394.737 277.947C394.737 278.194 394.613 278.502 394.428 278.749C394.367 278.872 394.305 278.934 394.244 278.995C394.12 279.119 393.997 279.18 393.874 279.242C393.874 279.242 393.812 279.242 393.812 279.303C393.381 279.488 393.011 279.242 393.072 278.687C393.134 278.317 393.381 277.947 393.627 277.639Z" fill="#C4D1E8"/>
<path d="M393.196 281.399C393.257 281.399 393.257 281.338 393.319 281.338C393.504 281.214 393.75 281.153 393.874 281.214C394.059 281.276 394.244 281.461 394.244 281.708C394.305 282.262 393.935 283.064 393.442 283.434C393.381 283.495 393.381 283.495 393.319 283.495C392.826 283.742 392.456 283.619 392.333 283.064C392.271 282.632 392.518 281.954 392.887 281.523C393.011 281.523 393.134 281.461 393.196 281.399Z" fill="#C4D1E8"/>
<path d="M391.1 279.303C391.161 279.242 391.285 279.18 391.346 279.119C391.408 279.057 391.408 279.057 391.47 279.057C391.778 278.872 392.024 278.872 392.209 279.057C392.579 279.303 392.518 280.043 392.086 280.721C391.963 280.906 391.778 281.091 391.593 281.276C391.531 281.338 391.531 281.338 391.47 281.338C390.976 281.584 390.607 281.461 390.483 280.906C390.422 280.351 390.668 279.735 391.1 279.303Z" fill="#C4D1E8"/>
<path d="M390.175 284.235C390.298 284.112 390.422 283.988 390.545 283.927C390.73 283.865 390.853 283.804 390.976 283.804C391.1 283.804 391.223 283.804 391.346 283.865C391.47 283.927 391.531 284.05 391.593 284.173C391.778 284.667 391.531 285.591 390.976 286.146L390.915 286.208C390.792 286.331 390.668 286.454 390.545 286.516C390.298 286.639 390.113 286.701 389.929 286.639C389.744 286.578 389.559 286.454 389.497 286.269C389.435 286.146 389.435 285.961 389.435 285.838C389.435 285.653 389.497 285.468 389.497 285.283C389.62 284.975 389.867 284.605 390.175 284.235Z" fill="#C4D1E8"/>
<path d="M388.264 282.016C388.449 281.831 388.572 281.707 388.696 281.646C388.881 281.584 389.004 281.523 389.189 281.523C389.435 281.523 389.682 281.646 389.805 281.892C390.052 282.447 389.744 283.372 389.127 283.927C389.004 284.05 388.881 284.173 388.757 284.235C388.326 284.481 387.894 284.42 387.709 283.988C387.401 283.495 387.709 282.57 388.264 282.016Z" fill="#C4D1E8"/>
<path d="M387.648 287.625C388.018 287.378 388.387 287.379 388.634 287.563C389.127 287.933 389.066 288.919 388.511 289.783C388.449 289.844 388.449 289.906 388.387 289.967C388.326 290.091 388.264 290.152 388.203 290.214C388.018 290.399 387.833 290.522 387.709 290.646C387.216 290.954 386.723 290.892 386.477 290.399C386.168 289.783 386.477 288.735 387.155 287.995C387.278 287.872 387.463 287.687 387.648 287.625Z" fill="#C4D1E8"/>
<path d="M385.059 286.022C385.305 285.714 385.552 285.529 385.798 285.344C386.23 285.098 386.661 285.098 386.908 285.406C387.339 285.838 387.155 286.885 386.538 287.687C386.292 287.995 386.045 288.242 385.798 288.365C385.367 288.612 384.935 288.611 384.689 288.303C384.257 287.81 384.442 286.824 385.059 286.022Z" fill="#C4D1E8"/>
<path d="M383.764 293.605C384.072 293.05 384.504 292.618 384.874 292.433C385.244 292.187 385.613 292.125 385.922 292.31C386.538 292.618 386.6 293.728 385.983 294.776C385.922 294.837 385.922 294.899 385.86 295.022C385.737 295.207 385.613 295.33 385.49 295.515C385.305 295.7 385.059 295.885 384.874 296.009C384.504 296.255 384.134 296.255 383.826 296.132C383.209 295.762 383.148 294.652 383.764 293.605Z" fill="#C4D1E8"/>
<path d="M386.538 302.913C386.23 303.406 385.798 303.838 385.367 304.022C384.874 304.331 384.319 304.392 384.011 304.084C383.333 303.591 383.456 302.235 384.196 301.064C384.319 300.879 384.504 300.694 384.627 300.509C384.874 300.262 385.12 300.077 385.367 299.954C385.675 299.769 385.983 299.707 386.292 299.707C386.477 299.707 386.661 299.769 386.785 299.892C387.401 300.324 387.34 301.742 386.538 302.913Z" fill="#C4D1E8"/>
<path d="M388.942 296.317C388.881 296.379 388.881 296.44 388.819 296.564C388.696 296.748 388.572 296.933 388.449 297.057C388.264 297.242 388.079 297.427 387.894 297.55C387.894 297.55 387.894 297.55 387.833 297.55C386.97 298.043 386.292 297.673 386.292 296.687C386.292 296.194 386.415 295.701 386.723 295.207C386.846 294.961 387.031 294.714 387.216 294.529C387.401 294.344 387.648 294.16 387.833 294.036C388.203 293.79 388.572 293.728 388.881 293.913C389.189 294.036 389.374 294.406 389.374 294.899C389.374 295.331 389.189 295.824 388.942 296.317Z" fill="#C4D1E8"/>
<path d="M389.62 292.31C389.127 291.94 389.25 290.954 389.805 290.091C390.052 289.721 390.36 289.413 390.668 289.228C391.038 288.982 391.408 288.981 391.655 289.166C392.148 289.536 392.024 290.523 391.47 291.386C391.408 291.447 391.408 291.509 391.346 291.571C391.285 291.632 391.223 291.755 391.161 291.817C390.976 292.002 390.792 292.125 390.607 292.249C390.237 292.433 389.867 292.495 389.62 292.31Z" fill="#C4D1E8"/>
<path d="M390.73 296.255C390.73 296.194 390.73 296.132 390.792 296.009C390.853 295.639 391.1 295.331 391.346 295.207C391.408 295.146 391.47 295.146 391.531 295.146C391.716 295.146 391.839 295.207 391.901 295.331C392.024 295.577 391.901 296.07 391.593 296.44C391.531 296.502 391.408 296.564 391.346 296.625C391.161 296.687 391.038 296.748 390.915 296.625C390.792 296.625 390.73 296.44 390.73 296.255Z" fill="#C4D1E8"/>
<path d="M391.038 298.351C390.976 297.982 391.161 297.365 391.593 297.057C391.655 296.995 391.655 296.995 391.716 296.934C392.024 296.749 392.333 296.872 392.394 297.18C392.456 297.55 392.209 298.167 391.839 298.475C391.778 298.536 391.778 298.536 391.716 298.536C391.408 298.783 391.1 298.66 391.038 298.351Z" fill="#C4D1E8"/>
<path d="M392.949 300.201C392.826 300.324 392.764 300.385 392.641 300.447C392.333 300.632 392.024 300.632 391.839 300.324C391.716 300.139 391.716 299.892 391.839 299.584C391.901 299.276 392.086 299.029 392.271 298.783C392.394 298.659 392.456 298.598 392.579 298.536C392.702 298.475 392.764 298.474 392.887 298.413C393.072 298.351 393.257 298.475 393.381 298.659C393.565 299.029 393.381 299.707 392.949 300.201Z" fill="#C4D1E8"/>
<path d="M394.798 301.433C394.737 301.495 394.675 301.618 394.613 301.68C394.49 301.803 394.367 301.927 394.244 301.988C393.935 302.173 393.627 302.173 393.442 302.05C393.134 301.742 393.196 301.002 393.627 300.386C393.689 300.262 393.75 300.201 393.812 300.139C393.935 300.016 394.059 299.892 394.182 299.831C394.305 299.769 394.428 299.707 394.49 299.707C394.675 299.707 394.798 299.707 394.922 299.831C395.291 300.077 395.23 300.817 394.798 301.433Z" fill="#C4D1E8"/>
<path d="M394.983 297.55C394.798 297.427 394.737 297.18 394.798 296.81C394.798 296.749 394.798 296.625 394.86 296.564C394.983 296.009 395.353 295.516 395.785 295.331C395.908 295.269 396.031 295.208 396.093 295.208C396.278 295.208 396.401 295.208 396.524 295.331C396.833 295.639 396.771 296.379 396.339 296.995C396.278 297.057 396.216 297.18 396.154 297.242C396.031 297.365 395.908 297.489 395.785 297.55C395.476 297.735 395.168 297.735 394.983 297.55Z" fill="#C4D1E8"/>
<path d="M397.326 302.05C397.202 302.235 397.079 302.481 396.894 302.666C396.771 302.851 396.586 302.974 396.463 303.036C396.216 303.159 395.97 303.221 395.723 303.16C395.476 303.098 395.353 302.851 395.291 302.543C395.291 302.235 395.353 301.803 395.538 301.433C395.785 301.002 396.093 300.632 396.401 300.447C396.524 300.386 396.648 300.324 396.771 300.324C396.894 300.324 397.017 300.324 397.079 300.324C397.696 300.509 397.757 301.31 397.326 302.05Z" fill="#C4D1E8"/>
<path d="M397.326 298.721C397.079 298.659 396.956 298.413 396.894 298.104C396.833 297.796 396.956 297.365 397.141 296.995C397.264 296.748 397.387 296.563 397.572 296.378C397.696 296.255 397.88 296.07 398.004 296.009C398.127 295.947 398.25 295.885 398.374 295.885C398.497 295.885 398.62 295.885 398.682 295.885C399.175 296.07 399.237 296.81 398.867 297.611C398.743 297.796 398.62 298.043 398.435 298.166C398.312 298.351 398.127 298.474 398.004 298.536C397.819 298.721 397.572 298.782 397.326 298.721Z" fill="#C4D1E8"/>
<path d="M400.778 301.741C400.654 302.111 400.408 302.543 400.161 302.851C399.976 303.036 399.791 303.159 399.606 303.283C399.422 303.406 399.237 303.468 399.052 303.468C398.374 303.468 398.127 302.728 398.435 301.803C398.682 301.125 399.113 300.57 399.606 300.262C399.73 300.2 399.915 300.139 400.038 300.077C400.1 300.077 400.1 300.077 400.161 300.077C400.839 300.077 401.086 300.817 400.778 301.741Z" fill="#C4D1E8"/>
<path d="M402.38 297.241C402.257 297.611 402.011 298.043 401.702 298.351C401.517 298.536 401.332 298.659 401.209 298.782C401.024 298.906 400.778 298.967 400.593 298.967C400.285 298.967 400.1 298.844 399.976 298.598C399.668 297.981 399.976 296.933 400.654 296.193C400.839 296.009 401.024 295.885 401.148 295.762C401.271 295.7 401.456 295.639 401.579 295.577C401.641 295.577 401.641 295.577 401.702 295.577C402.442 295.577 402.689 296.317 402.38 297.241Z" fill="#C4D1E8"/>
<path d="M402.75 293.235C402.565 293.42 402.38 293.543 402.195 293.666C402.011 293.79 401.826 293.851 401.641 293.851C400.963 293.851 400.716 293.112 401.024 292.187C401.271 291.509 401.702 290.954 402.195 290.646C402.319 290.584 402.504 290.523 402.627 290.461C402.689 290.461 402.689 290.461 402.75 290.461C403.058 290.461 403.243 290.584 403.367 290.831C403.675 291.447 403.367 292.495 402.75 293.235Z" fill="#C4D1E8"/>
<path d="M406.695 295.639C406.572 296.132 406.387 296.687 406.017 297.118C405.771 297.427 405.463 297.673 405.216 297.858C404.723 298.166 404.168 298.166 403.921 297.796C403.49 297.242 403.675 296.009 404.415 295.084C404.476 295.022 404.538 294.899 404.6 294.838C404.784 294.653 405.031 294.468 405.216 294.344C405.339 294.283 405.463 294.221 405.586 294.159C405.647 294.159 405.709 294.159 405.771 294.098C406.449 293.974 406.88 294.653 406.695 295.639Z" fill="#C4D1E8"/>
<path d="M407.682 290.461C407.558 290.954 407.373 291.509 407.004 291.94C406.942 292.002 406.88 292.064 406.819 292.187C406.634 292.372 406.387 292.557 406.202 292.68C405.709 292.988 405.154 292.988 404.908 292.619C404.661 292.372 404.6 291.879 404.723 291.386C404.723 291.324 404.784 291.201 404.784 291.139C405.031 290.276 405.586 289.536 406.202 289.166C406.387 289.043 406.572 288.982 406.757 288.982C407.435 288.858 407.867 289.475 407.682 290.461Z" fill="#C4D1E8"/>
<path d="M407.867 284.482C407.743 284.667 407.62 284.79 407.497 284.851C407.435 284.913 407.435 284.913 407.373 284.913C407.004 285.098 406.695 285.036 406.695 284.667C406.634 284.42 406.757 284.05 406.942 283.803C407.004 283.742 407.065 283.619 407.127 283.557C407.189 283.434 407.312 283.372 407.435 283.31H407.497C407.682 283.187 407.867 283.187 407.99 283.31C408.113 283.372 408.175 283.557 408.175 283.803C408.113 284.05 407.99 284.297 407.867 284.482Z" fill="#C4D1E8"/>
<path d="M408.791 282.324C408.73 282.386 408.73 282.386 408.668 282.386C408.298 282.632 407.928 282.509 407.867 282.078C407.805 281.708 407.99 281.153 408.36 280.783C408.483 280.66 408.606 280.598 408.668 280.537C408.853 280.413 408.976 280.413 409.161 280.413C409.531 280.475 409.593 281.091 409.346 281.646C409.284 281.831 409.161 282.016 408.976 282.139C408.915 282.201 408.853 282.263 408.791 282.324Z" fill="#C4D1E8"/>
<path d="M411.75 289.659C411.504 289.906 411.257 290.091 411.072 290.214C410.887 290.338 410.641 290.399 410.456 290.461C409.962 290.522 409.593 290.337 409.408 289.968C408.976 289.166 409.408 287.687 410.332 286.701C410.517 286.454 410.764 286.269 411.01 286.146C411.01 286.146 411.01 286.146 411.072 286.146C411.257 286.023 411.504 285.961 411.688 285.899C412.182 285.838 412.551 286.022 412.736 286.392C413.045 287.194 412.675 288.673 411.75 289.659Z" fill="#C4D1E8"/>
<path d="M385.415 207.173C401.915 207.953 416.149 203.511 420.851 195.154C426.482 182.738 393.581 176.732 386.687 176.406C376.621 175.93 346.544 176.705 352.221 192.505C355.5 201.634 367.747 206.338 385.415 207.173Z" fill="#9AADCE"/>
<path d="M387.152 174.737C369.065 173.782 353.209 179.079 351.634 187.026C349.953 195.543 365.094 203.776 385.562 204.857C406.03 205.937 421.979 199.346 421.179 190.698C420.45 182.629 405.24 175.692 387.152 174.737Z" fill="url(#paint1_linear)"/>
<path d="M369.494 164.676C349.775 168.584 333.235 160.387 331.678 150.969C327.724 133.06 342.67 121.604 362.388 117.695C377.949 114.61 391.888 117.353 398.663 127.077C400.474 129.675 401.25 130.869 401.805 133.939C403.739 144.642 391.192 160.374 369.494 164.676Z" fill="#9AADCE"/>
<ellipse cx="366.109" cy="139.675" rx="23.3883" ry="35.3885" transform="rotate(76.8427 366.109 139.675)" fill="url(#paint2_linear)"/>
<path d="M341.842 109.172C323.595 120.498 304.201 120.698 296.092 107.126C289.168 93.9227 297.58 75.9865 315.828 64.6607C330.227 55.723 345.198 53.2221 355.631 60.3977C358.419 62.315 360.199 64.9785 361.909 67.8402C367.868 77.8148 360.09 97.8465 341.842 109.172Z" fill="#9AADCE"/>
<ellipse cx="327.817" cy="85.2394" rx="24.9876" ry="37.8082" transform="rotate(56.2281 327.817 85.2394)" fill="url(#paint3_linear)"/>
<path d="M264.478 17.3665C248.58 24.2814 235.118 40.7618 237.283 57.6446C238.154 64.3777 240.592 68.6166 244.677 73.0819C247.099 75.7299 251.029 78.6408 254.264 80.1818C260.196 83.0081 267.294 83.7787 274.827 81.783C295.181 76.3905 308.485 53.9454 303.118 33.6875C301.316 26.884 300.066 24.0888 295.347 20.4076C291.939 17.7492 286.928 13.5025 282.664 12.6452C276.575 11.4213 270.933 14.5597 264.478 17.3665Z" fill="#9AADCE"/>
<path d="M260.431 12.7196C244.532 19.6345 234.17 37.7808 236.336 54.6636C238.669 72.7126 254.595 84.5982 273.161 79.6795C293.515 74.287 306.819 51.8419 301.452 31.584C296.489 12.852 277.667 5.22499 260.431 12.7196Z" fill="url(#paint4_linear)"/>
</g>
<defs>
<linearGradient id="paint0_linear" x1="513.659" y1="265.948" x2="454.009" y2="242.35" gradientUnits="userSpaceOnUse">
<stop stop-color="#FDFDFF"/>
<stop offset="1" stop-color="#F1F5FE"/>
</linearGradient>
<linearGradient id="paint1_linear" x1="421.2" y1="191.636" x2="351.517" y2="187.957" gradientUnits="userSpaceOnUse">
<stop stop-color="#C4DAF2"/>
<stop offset="1" stop-color="#ECF5FE"/>
</linearGradient>
<linearGradient id="paint2_linear" x1="366.109" y1="104.287" x2="366.109" y2="175.064" gradientUnits="userSpaceOnUse">
<stop stop-color="#C4DAF2"/>
<stop offset="1" stop-color="#ECF5FE"/>
</linearGradient>
<linearGradient id="paint3_linear" x1="327.817" y1="47.4312" x2="327.817" y2="123.048" gradientUnits="userSpaceOnUse">
<stop stop-color="#C4DAF2"/>
<stop offset="1" stop-color="#ECF5FE"/>
</linearGradient>
<linearGradient id="paint4_linear" x1="302.745" y1="36.465" x2="235.906" y2="54.1729" gradientUnits="userSpaceOnUse">
<stop stop-color="#C4DAF2"/>
<stop offset="1" stop-color="#ECF5FE"/>
</linearGradient>
<clipPath id="clip0">
<rect width="792" height="500" fill="white" transform="translate(0 0.399414)"/>
</clipPath>
</defs>
</svg>
