<svg width="634" height="342" viewBox="0 0 634 342" fill="none" xmlns="http://www.w3.org/2000/svg">
<path d="M214.252 97.4588C214.252 95.4509 215.879 93.8232 217.887 93.8232H416.114C418.122 93.8232 419.749 95.4509 419.749 97.4588V209.96C419.749 211.968 418.122 213.596 416.114 213.596H217.887C215.879 213.596 214.252 211.968 214.252 209.96V97.4588Z" fill="#F2F6FE"/>
<rect x="218.107" y="99.5272" width="198.042" height="108.364" rx="0.363557" fill="#57AEFF"/>
<path d="M515.99 236.283H279.505" stroke="white" stroke-width="3.84476" stroke-linecap="square"/>
<path d="M195.756 251.703C195.756 254.337 197.892 256.473 200.526 256.473H433.475C436.11 256.473 438.246 254.337 438.246 251.703V250.518H195.756V251.703Z" fill="#D8E3F5"/>
<path d="M292.364 250.576C292.364 252.684 294.073 254.407 296.181 254.407H337.82C339.927 254.407 341.636 252.684 341.636 250.576V250.576H292.364V250.576Z" fill="#C4D1E8"/>
<path d="M195.765 250.553H438.236L421.508 217.113C420.43 214.958 418.228 213.597 415.818 213.597H218.183C215.774 213.597 213.571 214.958 212.493 217.113L195.765 250.553Z" fill="#FCFCFE"/>
<path d="M227.733 219.235C227.077 219.235 226.485 219.626 226.227 220.228L220.463 233.682C220.001 234.762 220.793 235.963 221.969 235.963H412.032C413.185 235.963 413.977 234.804 413.557 233.731L408.295 220.276C408.05 219.649 407.444 219.235 406.77 219.235H227.733Z" fill="#C4D1E8"/>
<path d="M295.442 145.828H294.006V159.237H301.604V157.954H295.442V145.828ZM306.214 149.378C303.417 149.378 301.452 151.455 301.452 154.439V154.782C301.491 156.065 302.058 157.277 303.002 158.181C303.909 159.014 305.08 159.503 306.327 159.503H306.516C307.838 159.503 309.086 159.011 310.068 158.181L310.107 158.142L309.465 157.086L309.391 157.125C308.597 157.844 307.614 158.259 306.557 158.259C304.82 158.259 303.043 157.125 302.93 154.594H310.188V154.52C310.188 154.52 310.227 154.066 310.227 153.839C310.218 151.118 308.632 149.378 306.214 149.378ZM302.963 153.383C303.264 151.682 304.512 150.587 306.136 150.587C307.346 150.587 308.668 151.306 308.782 153.383H302.963ZM318.536 150.512V151.005C317.929 149.984 316.798 149.343 315.625 149.343H315.511C312.941 149.343 311.164 151.384 311.164 154.368C311.164 157.39 312.866 159.428 315.398 159.428C317.401 159.428 318.309 158.22 318.61 157.692V159.166H319.972V145.828H318.574V150.512H318.536ZM315.586 158.181C313.809 158.181 312.639 156.671 312.639 154.403C312.639 152.213 313.887 150.665 315.625 150.665C317.099 150.665 318.571 151.834 318.571 154.403C318.571 157.199 317.022 158.181 315.586 158.181ZM328.248 150.7V150.775C327.982 150.321 327.152 149.34 325.149 149.34C322.617 149.34 320.954 151.267 320.954 154.212C320.954 157.158 322.691 159.16 325.262 159.16C326.659 159.16 327.606 158.667 328.248 157.65V158.972C328.248 160.822 327.077 161.881 324.996 161.881C324.128 161.881 323.22 161.654 322.426 161.24L322.351 161.201L321.823 162.37L321.897 162.409C322.88 162.902 323.975 163.164 325.035 163.164C327.265 163.164 329.645 162.03 329.645 158.894V149.605H328.248V150.7ZM325.45 157.915C323.599 157.915 322.39 156.48 322.39 154.251C322.39 151.983 323.447 150.7 325.262 150.7C327.265 150.7 328.209 151.87 328.209 154.251C328.248 156.594 327.265 157.915 325.45 157.915ZM335.353 149.378C332.556 149.378 330.63 151.455 330.63 154.403V154.744C330.669 156.027 331.236 157.238 332.18 158.142C333.087 158.975 334.258 159.464 335.506 159.464H335.694C337.016 159.464 338.264 158.972 339.247 158.142L339.285 158.103L338.605 157.047L338.53 157.086C337.736 157.805 336.754 158.22 335.697 158.22C333.959 158.22 332.183 157.086 332.069 154.556H339.36V154.481C339.36 154.481 339.399 154.027 339.399 153.801C339.399 151.118 337.81 149.378 335.353 149.378ZM332.141 153.383C332.442 151.682 333.69 150.587 335.315 150.587C336.524 150.587 337.846 151.306 337.96 153.383H332.141ZM345.295 149.566C345.107 149.528 344.955 149.528 344.767 149.492C343.444 149.492 342.349 150.324 341.781 151.721V149.566H340.384L340.423 159.124V159.199H341.859V155.158C341.859 154.553 341.934 153.911 342.125 153.344C342.578 151.87 343.6 150.927 344.809 150.927C344.961 150.927 345.11 150.927 345.263 150.966H345.337V149.569L345.295 149.566Z" fill="white"/>
<path fill-rule="evenodd" clip-rule="evenodd" d="M350.708 145.444H352.466V157.57H358.629V159.176H350.708V145.444ZM359.132 146.011H360.93V147.943H359.132V146.011ZM371.998 150.457C372.871 149.53 374.105 148.994 375.546 148.994C376.796 148.994 377.842 149.445 378.575 150.258C379.307 151.068 379.715 152.225 379.72 153.616V153.617C379.72 153.923 379.681 154.227 379.681 154.533H372.433C372.52 155.671 372.963 156.49 373.573 157.032C374.215 157.602 375.054 157.875 375.889 157.875C377.129 157.875 377.972 157.308 378.856 156.651L379.642 157.944C378.671 158.915 377.207 159.441 375.847 159.441H375.659C374.368 159.441 373.159 158.935 372.224 158.077L372.223 158.076L372.222 158.075C371.153 157.051 370.622 155.679 370.622 154.216C370.622 152.689 371.126 151.382 371.998 150.457ZM359.132 149.218H360.93V159.173H359.132V149.218ZM361.434 149.182H363.251L366.052 157.143L368.852 149.182H370.669L367.167 159.137H364.936L361.434 149.182ZM372.491 152.999H377.94C377.857 152.09 377.526 151.486 377.095 151.104C376.634 150.696 376.042 150.525 375.468 150.525C373.989 150.525 372.836 151.478 372.491 152.999Z" fill="white"/>
<ellipse cx="270.084" cy="154.354" rx="14.9386" ry="14.9302" fill="#108CFF"/>
<ellipse cx="270.084" cy="153.064" rx="14.9386" ry="14.9302" fill="white"/>
<path d="M262.625 158.841C262.168 158.251 261.779 157.605 261.47 156.915C260.604 154.98 260.416 152.81 260.935 150.755C261.455 148.7 262.651 146.88 264.333 145.588C265.197 144.924 266.163 144.42 267.185 144.09C268.052 143.811 268.959 143.656 269.88 143.636C270.057 143.633 270.2 143.779 270.198 143.957L270.166 146.519C270.163 146.697 270.017 146.838 269.839 146.846C268.559 146.897 267.306 147.348 266.288 148.13C265.178 148.983 264.389 150.184 264.046 151.54C263.703 152.897 263.827 154.329 264.399 155.606C264.663 156.197 265.017 156.739 265.443 157.215L262.625 158.841Z" fill="url(#paint0_linear)"/>
<path d="M277.544 147.295C278.001 147.885 278.39 148.531 278.699 149.222C279.565 151.157 279.753 153.326 279.234 155.381C278.714 157.436 277.518 159.256 275.836 160.548C274.972 161.212 274.006 161.716 272.984 162.046C272.117 162.326 271.21 162.48 270.29 162.5C270.112 162.504 269.969 162.357 269.971 162.179L270.004 159.618C270.007 159.44 270.153 159.298 270.33 159.291C271.616 159.241 272.857 158.793 273.881 158.006C274.991 157.154 275.78 155.952 276.123 154.596C276.466 153.24 276.342 151.808 275.77 150.531C275.506 149.939 275.152 149.397 274.726 148.921L277.544 147.295Z" fill="url(#paint1_linear)"/>
<path d="M268.321 154.911C268.387 154.746 268.307 154.561 268.142 154.495L265.962 153.615C265.796 153.548 265.607 153.629 265.541 153.795C265.222 154.602 264.366 156.767 264.248 157.06C264.103 157.42 263.78 157.747 263.316 157.826C262.851 157.905 262.2 157.897 261.554 157.093C262.076 158.191 263.162 159.915 264.294 160.205C265.426 160.495 266.338 159.861 266.645 159.098C266.899 158.467 267.963 155.807 268.321 154.911Z" fill="#638EEF"/>
<path d="M271.847 151.225C271.781 151.39 271.861 151.575 272.026 151.641L274.206 152.521C274.372 152.588 274.561 152.507 274.627 152.34C274.946 151.534 275.802 149.369 275.92 149.076C276.065 148.716 276.388 148.388 276.853 148.31C277.317 148.231 277.968 148.239 278.615 149.043C278.092 147.945 277.006 146.221 275.874 145.931C274.742 145.641 273.83 146.275 273.523 147.038C273.269 147.669 272.205 150.329 271.847 151.225Z" fill="#638EEF"/>
<defs>
<linearGradient id="paint0_linear" x1="267.833" y1="145.851" x2="263.374" y2="156.62" gradientUnits="userSpaceOnUse">
<stop stop-color="#94B6FE"/>
<stop offset="1" stop-color="#216ADE"/>
</linearGradient>
<linearGradient id="paint1_linear" x1="271.833" y1="160.386" x2="277.138" y2="149.233" gradientUnits="userSpaceOnUse">
<stop stop-color="#94B6FE"/>
<stop offset="1" stop-color="#216ADE"/>
</linearGradient>
</defs>
</svg>
