<svg width="634" height="341" viewBox="0 0 634 341" fill="none" xmlns="http://www.w3.org/2000/svg">
<g clip-path="url(#clip0)">
<path opacity="0.5" fill-rule="evenodd" clip-rule="evenodd" d="M629.592 137.374L443.139 137.374C438.45 137.374 433.924 138.068 429.656 139.359H394.213V137.772C394.213 135.55 392.411 133.749 390.189 133.749H359.694C357.472 133.749 355.67 135.55 355.67 137.772V139.359H266.876V137.772C266.876 135.55 265.074 133.749 262.852 133.749H232.357C230.135 133.749 228.333 135.55 228.333 137.772V139.359H203.711C199.637 139.359 196.334 142.662 196.334 146.736V163.699H141.298C133.224 163.699 126.261 168.479 123.058 175.356C123.025 175.354 122.992 175.352 122.958 175.352H102.513C101.772 175.352 101.172 175.953 101.172 176.694L101.172 178.392H-4.34961V189.331H101.172L101.172 191.03C101.172 191.771 101.772 192.371 102.513 192.371H122.958C122.975 192.371 122.992 192.371 123.008 192.37C123.025 192.369 123.042 192.369 123.058 192.367C126.261 199.244 133.224 204.024 141.298 204.024H196.334V220.987C196.334 225.061 199.637 228.364 203.711 228.364H429.659C433.925 229.655 438.451 230.349 443.139 230.349L629.592 230.348V137.374ZM463.026 198.479C465.63 194.625 467.151 189.978 467.151 184.977C467.151 183.309 466.982 181.682 466.66 180.109C465.862 176.208 464.123 172.649 461.69 169.68C457.261 164.275 450.534 160.826 443.001 160.826C436.332 160.826 430.294 163.53 425.924 167.9C421.554 172.27 418.851 178.307 418.851 184.976C418.851 190.486 420.695 195.564 423.801 199.628C428.214 205.401 435.172 209.126 443.001 209.126C451.336 209.126 458.686 204.903 463.026 198.479Z" fill="#1B2D4B"/>
<path d="M130.3 170.945C130.3 170.205 129.699 169.604 128.959 169.604H108.513C107.772 169.604 107.172 170.205 107.172 170.945V185.282C107.172 186.022 107.772 186.623 108.513 186.623H128.959C129.699 186.623 130.3 186.022 130.3 185.282V170.945Z" fill="url(#paint0_linear)"/>
<path d="M202.334 157.951H147.298C136.188 157.951 127.181 167.003 127.181 178.113V178.113C127.181 189.224 136.188 198.276 147.298 198.276H202.334V157.951Z" fill="url(#paint1_linear)"/>
<path d="M-4.34961 172.677H107.126V183.677H-4.34961V172.677Z" fill="url(#paint2_linear)"/>
<path d="M361.67 133.611H400.212V132.024C400.212 129.802 398.411 128.001 396.189 128.001H365.693C363.471 128.001 361.67 129.802 361.67 132.024V133.611Z" fill="white"/>
<path d="M234.333 133.611H272.875V132.024C272.875 129.802 271.074 128.001 268.852 128.001H238.356C236.134 128.001 234.333 129.802 234.333 132.024V133.611Z" fill="white"/>
<path fill-rule="evenodd" clip-rule="evenodd" d="M209.71 133.611C205.637 133.611 202.334 136.913 202.334 140.987V215.239C202.334 219.313 205.637 222.615 209.71 222.615H488.217C492.291 222.615 495.593 219.313 495.593 215.239V140.987C495.593 136.913 492.291 133.611 488.217 133.611H209.71ZM449.001 203.378C462.339 203.378 473.151 192.565 473.151 179.228C473.151 165.89 462.339 155.078 449.001 155.078C435.663 155.078 424.851 165.89 424.851 179.228C424.851 192.565 435.663 203.378 449.001 203.378Z" fill="url(#paint3_linear)"/>
<path fill-rule="evenodd" clip-rule="evenodd" d="M449.625 131.676C423.944 131.676 403.125 152.495 403.125 178.176C403.125 203.857 423.944 224.676 449.625 224.676H624.274C627.587 224.676 630.274 221.989 630.274 218.676V137.676C630.274 134.362 627.587 131.676 624.274 131.676H449.625ZM449.001 203.377C462.339 203.377 473.151 192.565 473.151 179.227C473.151 165.89 462.339 155.077 449.001 155.077C435.663 155.077 424.851 165.89 424.851 179.227C424.851 192.565 435.663 203.377 449.001 203.377Z" fill="white"/>
<rect x="247.515" y="153.745" width="139.046" height="48.1942" rx="4.41186" fill="#57AEFF"/>
<rect x="381.11" y="118.567" width="2.64163" height="2.64163" transform="rotate(90 381.11 118.567)" fill="#108CFF"/>
<rect x="381.11" y="114.586" width="2.64163" height="2.64163" transform="rotate(90 381.11 114.586)" fill="#108CFF"/>
<rect x="381.11" y="110.604" width="2.64163" height="2.64163" transform="rotate(90 381.11 110.604)" fill="#108CFF"/>
<rect x="381.11" y="106.622" width="2.64163" height="2.64163" transform="rotate(90 381.11 106.622)" fill="#108CFF"/>
<rect x="381.11" y="102.64" width="2.64163" height="2.64163" transform="rotate(90 381.11 102.64)" fill="#108CFF"/>
<rect x="381.11" y="98.6585" width="2.64163" height="2.64163" transform="rotate(90 381.11 98.6585)" fill="#108CFF"/>
<rect x="381.11" y="94.6768" width="2.64163" height="2.64163" transform="rotate(90 381.11 94.6768)" fill="#108CFF"/>
<rect x="385.713" y="114.416" width="2.64163" height="2.64163" transform="rotate(90 385.713 114.416)" fill="#108CFF"/>
<rect width="2.64163" height="2.64163" transform="matrix(-4.37114e-08 1 1 4.37114e-08 373.941 114.416)" fill="#108CFF"/>
<rect x="389.261" y="110.265" width="2.64163" height="2.64163" transform="rotate(90 389.261 110.265)" fill="#108CFF"/>
<rect width="2.64163" height="2.64163" transform="matrix(-4.37114e-08 1 1 4.37114e-08 370.393 110.265)" fill="#108CFF"/>
<rect x="393.035" y="106.114" width="2.64163" height="2.64163" transform="rotate(90 393.035 106.114)" fill="#108CFF"/>
<rect width="2.64163" height="2.64163" transform="matrix(-4.37114e-08 1 1 4.37114e-08 366.619 106.114)" fill="#108CFF"/>
<rect x="255.641" y="118.567" width="2.64163" height="2.64163" transform="rotate(90 255.641 118.567)" fill="#108CFF"/>
<rect x="255.641" y="114.586" width="2.64163" height="2.64163" transform="rotate(90 255.641 114.586)" fill="#108CFF"/>
<rect x="255.641" y="110.604" width="2.64163" height="2.64163" transform="rotate(90 255.641 110.604)" fill="#108CFF"/>
<rect x="255.641" y="106.622" width="2.64163" height="2.64163" transform="rotate(90 255.641 106.622)" fill="#108CFF"/>
<rect x="255.641" y="102.64" width="2.64163" height="2.64163" transform="rotate(90 255.641 102.64)" fill="#108CFF"/>
<rect x="255.641" y="98.6585" width="2.64163" height="2.64163" transform="rotate(90 255.641 98.6585)" fill="#108CFF"/>
<rect x="255.641" y="94.6768" width="2.64163" height="2.64163" transform="rotate(90 255.641 94.6768)" fill="#108CFF"/>
<rect x="260.245" y="114.416" width="2.64163" height="2.64163" transform="rotate(90 260.245 114.416)" fill="#108CFF"/>
<rect width="2.64163" height="2.64163" transform="matrix(-4.37114e-08 1 1 4.37114e-08 248.472 114.416)" fill="#108CFF"/>
<rect x="263.793" y="110.265" width="2.64163" height="2.64163" transform="rotate(90 263.793 110.265)" fill="#108CFF"/>
<rect width="2.64163" height="2.64163" transform="matrix(-4.37114e-08 1 1 4.37114e-08 244.924 110.265)" fill="#108CFF"/>
<rect x="267.566" y="106.114" width="2.64163" height="2.64163" transform="rotate(90 267.566 106.114)" fill="#108CFF"/>
<rect width="2.64163" height="2.64163" transform="matrix(-4.37114e-08 1 1 4.37114e-08 241.15 106.114)" fill="#108CFF"/>
<rect x="258.943" y="178.996" width="1.29313" height="1.29313" transform="rotate(-180 258.943 178.996)" fill="white"/>
<rect x="260.975" y="181.25" width="1.29313" height="1.29313" transform="rotate(-180 260.975 181.25)" fill="white"/>
<rect width="1.29313" height="1.29313" transform="matrix(-1 -8.74228e-08 -8.74228e-08 1 260.975 175.487)" fill="white"/>
<rect x="263.008" y="182.987" width="1.29313" height="1.29313" transform="rotate(-180 263.008 182.987)" fill="white"/>
<rect width="1.29313" height="1.29313" transform="matrix(-1 -8.74228e-08 -8.74228e-08 1 263.008 173.75)" fill="white"/>
<rect x="265.039" y="184.834" width="1.29313" height="1.29313" transform="rotate(-180 265.039 184.834)" fill="white"/>
<rect width="1.29313" height="1.29313" transform="matrix(-1 -8.74228e-08 -8.74228e-08 1 265.04 171.903)" fill="white"/>
<rect width="1.29313" height="1.29313" transform="matrix(1 -8.74228e-08 -8.74228e-08 -1 379.078 178.996)" fill="white"/>
<rect width="1.29313" height="1.29313" transform="matrix(1 -8.74228e-08 -8.74228e-08 -1 377.046 181.25)" fill="white"/>
<rect x="377.046" y="175.487" width="1.29313" height="1.29313" fill="white"/>
<rect width="1.29313" height="1.29313" transform="matrix(1 -8.74228e-08 -8.74228e-08 -1 375.014 182.987)" fill="white"/>
<rect x="375.014" y="173.75" width="1.29313" height="1.29313" fill="white"/>
<rect width="1.29313" height="1.29313" transform="matrix(1 -8.74228e-08 -8.74228e-08 -1 372.982 184.834)" fill="white"/>
<rect x="372.982" y="171.903" width="1.29313" height="1.29313" fill="white"/>
<path d="M289.951 189.541H291.08V184.3H289.951V189.541ZM293.316 189.541H294.437V186.154L296.962 189.541H298.091V184.3H296.962V187.687L294.437 184.3H293.316V189.541ZM302.305 189.632C303.587 189.632 304.342 188.969 304.342 187.969C304.342 187 303.594 186.665 302.465 186.413C301.657 186.23 301.344 186.108 301.344 185.727C301.344 185.414 301.634 185.162 302.114 185.162C302.618 185.162 303.144 185.368 303.609 185.742L304.197 184.933C303.663 184.475 302.999 184.208 302.145 184.208C301.001 184.208 300.207 184.872 300.207 185.841C300.207 186.855 300.993 187.168 302.099 187.42C302.9 187.603 303.205 187.717 303.205 188.091C303.205 188.419 302.915 188.679 302.351 188.679C301.687 188.679 301.123 188.419 300.627 187.992L299.978 188.763C300.589 189.327 301.397 189.632 302.305 189.632ZM307.651 189.541H308.78V185.315H310.413V184.3H306.019V185.315H307.651V189.541ZM315.759 189.541H317.026L314.89 184.3H313.631L311.495 189.541H312.754L313.089 188.717H315.424L315.759 189.541ZM313.478 187.763L314.257 185.849L315.035 187.763H313.478ZM319.878 188.526V184.3H318.749V189.541H322.487V188.526H319.878ZM325.448 188.526V184.3H324.319V189.541H328.057V188.526H325.448ZM337.046 189.541H338.312L336.176 184.3H334.917L332.781 189.541H334.04L334.376 188.717H336.71L337.046 189.541ZM334.765 187.763L335.543 185.849L336.321 187.763H334.765ZM340.074 189.541H341.195V187.84H342.431C343.568 187.84 344.407 187.107 344.407 186.07C344.407 185.032 343.568 184.3 342.431 184.3H340.074V189.541ZM341.195 186.81V185.33H342.309C342.866 185.33 343.247 185.62 343.247 186.07C343.247 186.52 342.866 186.81 342.309 186.81H341.195ZM346.254 189.541H347.375V187.84H348.611C349.748 187.84 350.587 187.107 350.587 186.07C350.587 185.032 349.748 184.3 348.611 184.3H346.254V189.541ZM347.375 186.81V185.33H348.489C349.046 185.33 349.427 185.62 349.427 186.07C349.427 186.52 349.046 186.81 348.489 186.81H347.375Z" fill="white"/>
<path fill-rule="evenodd" clip-rule="evenodd" d="M314.922 164.102V165.136H313.887V166.171H312.853V176.516H313.887V177.55H314.922V178.585H325.267V177.55H326.301V176.516H327.336V166.171H326.301V165.136H325.267V164.102H314.922ZM323.197 167.205V166.171H316.99V167.205H319.059V170.309H318.025V171.343H319.059V172.378H318.025V173.412H319.059V175.481H316.99V176.516H323.197V175.481H321.128V173.412H322.163V172.378H321.128V171.343H322.163V170.309H321.128V167.205L323.197 167.205Z" fill="#FAFCFE"/>
<path d="M314.334 283.438V280.87H318.846V276.718H321.462V280.87H325.95V283.438H321.462V287.59H318.846V283.438H314.334Z" fill="#57AEFF"/>
<rect x="238.65" y="249.102" width="59" height="58" rx="19.7086" fill="#57AEFF"/>
<rect x="339.65" y="249.102" width="59" height="58" rx="19.7086" fill="#57AEFF"/>
<rect x="256.943" y="266.912" width="4.96178" height="4.96178" fill="#FAFCFE"/>
<rect x="275.136" y="271.874" width="4.96178" height="4.96178" fill="#FAFCFE"/>
<rect x="263.559" y="285.105" width="4.96178" height="4.96178" fill="#FAFCFE"/>
<rect x="260.574" y="281.537" width="2.3155" height="2.3155" fill="#FAFCFE"/>
<rect x="260.574" y="276.662" width="2.3155" height="2.3155" fill="#FAFCFE"/>
<rect x="263.559" y="269.436" width="2.3155" height="2.3155" fill="#FAFCFE"/>
<rect x="268.678" y="271.787" width="2.3155" height="2.3155" fill="#FAFCFE"/>
<rect x="268.678" y="281.537" width="2.3155" height="2.3155" fill="#FAFCFE"/>
<rect x="273.309" y="279.099" width="2.3155" height="2.3155" fill="#FAFCFE"/>
<path fill-rule="evenodd" clip-rule="evenodd" d="M360.858 267.093V268.747H359.204V270.401H357.55V286.94H359.204V288.594H360.858V290.248H377.397V288.594H379.051V286.94H380.705V270.401H379.051V268.747H377.397V267.093H360.858ZM374.089 272.054V270.4H364.166V272.054H367.474V277.016H365.82V278.67H367.474V280.324H365.82V281.978H367.474V285.286H364.166V286.939H374.089V285.286H370.781V281.978H372.435V280.324H370.781V278.67H372.435V277.016H370.781V272.054L374.089 272.054Z" fill="#FAFCFE"/>
</g>
<defs>
<linearGradient id="paint0_linear" x1="108.003" y1="176.942" x2="130.051" y2="176.942" gradientUnits="userSpaceOnUse">
<stop stop-color="white"/>
<stop offset="1" stop-color="#E4EBFA"/>
</linearGradient>
<linearGradient id="paint1_linear" x1="130.799" y1="180.679" x2="202.922" y2="180.679" gradientUnits="userSpaceOnUse">
<stop stop-color="white"/>
<stop offset="1" stop-color="#E4EBFA"/>
</linearGradient>
<linearGradient id="paint2_linear" x1="14.888" y1="172.677" x2="126.605" y2="172.677" gradientUnits="userSpaceOnUse">
<stop stop-color="white"/>
<stop offset="1" stop-color="#E4EBFA"/>
</linearGradient>
<linearGradient id="paint3_linear" x1="348.964" y1="133.611" x2="348.964" y2="223.424" gradientUnits="userSpaceOnUse">
<stop stop-color="white"/>
<stop offset="1" stop-color="#F0F5FE"/>
</linearGradient>
<clipPath id="clip0">
<rect width="634" height="341" fill="white"/>
</clipPath>
</defs>
</svg>
