<svg width="634" height="342" viewBox="0 0 634 342" fill="none" xmlns="http://www.w3.org/2000/svg">
<path d="M214.252 97.4588C214.252 95.4509 215.879 93.8232 217.887 93.8232H416.114C418.122 93.8232 419.749 95.4509 419.749 97.4588V209.96C419.749 211.968 418.122 213.596 416.114 213.596H217.887C215.879 213.596 214.252 211.968 214.252 209.96V97.4588Z" fill="#F2F6FE"/>
<rect x="218.107" y="99.5272" width="198.042" height="108.364" rx="0.363557" fill="#57AEFF"/>
<path d="M515.99 236.283H279.505" stroke="white" stroke-width="3.84476" stroke-linecap="square"/>
<path d="M195.756 251.703C195.756 254.337 197.892 256.473 200.526 256.473H433.475C436.11 256.473 438.246 254.337 438.246 251.703V250.518H195.756V251.703Z" fill="#D8E3F5"/>
<path d="M292.364 250.576C292.364 252.684 294.073 254.407 296.181 254.407H337.82C339.927 254.407 341.636 252.684 341.636 250.576V250.576H292.364V250.576Z" fill="#C4D1E8"/>
<path d="M195.765 250.553H438.236L421.508 217.113C420.43 214.958 418.228 213.597 415.818 213.597H218.183C215.774 213.597 213.571 214.958 212.493 217.113L195.765 250.553Z" fill="#FCFCFE"/>
<path d="M227.733 219.235C227.077 219.235 226.485 219.626 226.227 220.228L220.463 233.682C220.001 234.762 220.793 235.963 221.969 235.963H412.032C413.185 235.963 413.977 234.804 413.557 233.731L408.295 220.276C408.05 219.649 407.444 219.235 406.77 219.235H227.733Z" fill="#C4D1E8"/>
<path d="M295.442 282.833H294.006V296.243H301.604V294.96H295.442V282.833ZM306.214 286.384C303.417 286.384 301.452 288.461 301.452 291.445V291.788C301.491 293.071 302.058 294.282 303.002 295.186C303.909 296.019 305.08 296.508 306.327 296.508H306.516C307.838 296.508 309.086 296.016 310.068 295.186L310.107 295.148L309.465 294.091L309.391 294.13C308.597 294.849 307.614 295.264 306.557 295.264C304.82 295.264 303.043 294.13 302.93 291.6H310.188V291.525C310.188 291.525 310.227 291.072 310.227 290.845C310.218 288.123 308.632 286.384 306.214 286.384ZM302.963 290.388C303.264 288.687 304.512 287.592 306.136 287.592C307.346 287.592 308.668 288.311 308.782 290.388H302.963ZM318.536 287.518V288.01C317.929 286.99 316.798 286.348 315.625 286.348H315.511C312.941 286.348 311.164 288.389 311.164 291.373C311.164 294.396 312.866 296.434 315.398 296.434C317.401 296.434 318.309 295.225 318.61 294.697V296.171H319.972V282.833H318.574V287.518H318.536ZM315.586 295.186C313.809 295.186 312.639 293.677 312.639 291.409C312.639 289.219 313.887 287.67 315.625 287.67C317.099 287.67 318.571 288.84 318.571 291.409C318.571 294.205 317.022 295.186 315.586 295.186ZM328.248 287.706V287.78C327.982 287.327 327.152 286.345 325.149 286.345C322.617 286.345 320.954 288.273 320.954 291.218C320.954 294.163 322.691 296.165 325.262 296.165C326.659 296.165 327.606 295.673 328.248 294.655V295.977C328.248 297.827 327.077 298.886 324.996 298.886C324.128 298.886 323.22 298.66 322.426 298.245L322.351 298.206L321.823 299.376L321.897 299.415C322.88 299.907 323.975 300.17 325.035 300.17C327.265 300.17 329.645 299.036 329.645 295.9V286.611H328.248V287.706ZM325.45 294.921C323.599 294.921 322.39 293.486 322.39 291.257C322.39 288.989 323.447 287.706 325.262 287.706C327.265 287.706 328.209 288.875 328.209 291.257C328.248 293.599 327.265 294.921 325.45 294.921ZM335.353 286.384C332.556 286.384 330.63 288.461 330.63 291.409V291.749C330.669 293.032 331.236 294.243 332.18 295.148C333.087 295.98 334.258 296.469 335.506 296.469H335.694C337.016 296.469 338.264 295.977 339.247 295.148L339.285 295.109L338.605 294.053L338.53 294.091C337.736 294.81 336.754 295.225 335.697 295.225C333.959 295.225 332.183 294.091 332.069 291.561H339.36V291.486C339.36 291.486 339.399 291.033 339.399 290.806C339.399 288.123 337.81 286.384 335.353 286.384ZM332.141 290.388C332.442 288.687 333.69 287.592 335.315 287.592C336.524 287.592 337.846 288.311 337.96 290.388H332.141ZM345.295 286.572C345.107 286.533 344.955 286.533 344.767 286.497C343.444 286.497 342.349 287.33 341.781 288.726V286.572H340.384L340.423 296.129V296.204H341.859V292.164C341.859 291.558 341.934 290.916 342.125 290.349C342.578 288.875 343.6 287.933 344.809 287.933C344.961 287.933 345.11 287.933 345.263 287.971H345.337V286.575L345.295 286.572Z" fill="#1B2D4B"/>
<path fill-rule="evenodd" clip-rule="evenodd" d="M350.708 282.449H352.466V294.576H358.629V296.181H350.708V282.449ZM359.132 283.016H360.93V284.948H359.132V283.016ZM371.998 287.462C372.871 286.535 374.105 286 375.546 286C376.796 286 377.842 286.451 378.575 287.263C379.307 288.074 379.715 289.23 379.72 290.621V290.622C379.72 290.928 379.681 291.232 379.681 291.538H372.433C372.52 292.676 372.963 293.496 373.573 294.037C374.215 294.608 375.054 294.88 375.889 294.88C377.129 294.88 377.972 294.313 378.856 293.656L379.642 294.949C378.671 295.92 377.207 296.447 375.847 296.447H375.659C374.368 296.447 373.159 295.94 372.224 295.082L372.223 295.081L372.222 295.08C371.153 294.056 370.622 292.684 370.622 291.222C370.622 289.694 371.126 288.388 371.998 287.462ZM359.132 286.224H360.93V296.178H359.132V286.224ZM361.434 286.188H363.251L366.052 294.149L368.852 286.188H370.669L367.167 296.142H364.936L361.434 286.188ZM372.491 290.004H377.94C377.857 289.096 377.526 288.492 377.095 288.109C376.634 287.701 376.042 287.531 375.468 287.531C373.989 287.531 372.836 288.483 372.491 290.004Z" fill="#1B2D4B"/>
<ellipse cx="270.084" cy="291.359" rx="14.9386" ry="14.9302" fill="#D4DBE9" fill-opacity="0.5"/>
<ellipse cx="270.084" cy="290.07" rx="14.9386" ry="14.9302" fill="white"/>
<path d="M262.625 295.847C262.168 295.257 261.779 294.61 261.47 293.92C260.604 291.985 260.416 289.815 260.935 287.761C261.455 285.706 262.651 283.886 264.333 282.594C265.197 281.93 266.163 281.425 267.185 281.095C268.052 280.816 268.959 280.662 269.88 280.642C270.057 280.638 270.2 280.785 270.198 280.962L270.166 283.524C270.163 283.702 270.017 283.844 269.839 283.851C268.559 283.902 267.306 284.353 266.288 285.136C265.178 285.988 264.389 287.19 264.046 288.546C263.703 289.902 263.827 291.334 264.399 292.611C264.663 293.202 265.017 293.745 265.443 294.221L262.625 295.847Z" fill="url(#paint0_linear)"/>
<path d="M277.544 284.301C278.001 284.891 278.39 285.537 278.699 286.227C279.565 288.162 279.753 290.332 279.234 292.387C278.714 294.442 277.518 296.262 275.836 297.554C274.972 298.217 274.006 298.722 272.984 299.052C272.117 299.331 271.21 299.486 270.29 299.506C270.112 299.509 269.969 299.363 269.971 299.185L270.004 296.623C270.007 296.445 270.153 296.304 270.33 296.297C271.616 296.246 272.857 295.798 273.881 295.012C274.991 294.159 275.78 292.958 276.123 291.601C276.466 290.245 276.342 288.813 275.77 287.536C275.506 286.945 275.152 286.403 274.726 285.926L277.544 284.301Z" fill="url(#paint1_linear)"/>
<path d="M268.321 291.916C268.387 291.752 268.307 291.566 268.142 291.5L265.962 290.621C265.796 290.554 265.607 290.634 265.541 290.801C265.222 291.607 264.366 293.772 264.248 294.065C264.103 294.425 263.78 294.753 263.316 294.832C262.851 294.91 262.2 294.902 261.554 294.098C262.076 295.196 263.162 296.92 264.294 297.21C265.426 297.5 266.338 296.866 266.645 296.104C266.899 295.472 267.963 292.813 268.321 291.916Z" fill="#638EEF"/>
<path d="M271.847 288.23C271.781 288.395 271.861 288.58 272.026 288.647L274.206 289.526C274.372 289.593 274.561 289.512 274.627 289.346C274.946 288.539 275.802 286.374 275.92 286.082C276.065 285.721 276.388 285.394 276.853 285.315C277.317 285.236 277.968 285.245 278.615 286.048C278.092 284.95 277.006 283.227 275.874 282.937C274.742 282.647 273.83 283.281 273.523 284.043C273.269 284.674 272.205 287.334 271.847 288.23Z" fill="#638EEF"/>
<rect x="266.691" y="154.272" width="98.5324" height="25.3105" rx="12.6552" fill="white"/>
<path d="M268.876 135.147C269.536 135.147 270.138 134.866 270.57 134.415L269.994 133.878C269.713 134.199 269.314 134.402 268.876 134.402C268.045 134.402 267.345 133.682 267.345 132.818C267.345 131.961 268.045 131.242 268.876 131.242C269.307 131.242 269.713 131.444 269.988 131.765L270.57 131.222C270.138 130.777 269.536 130.496 268.876 130.496C267.593 130.496 266.514 131.556 266.514 132.818C266.514 134.081 267.593 135.147 268.876 135.147ZM275.244 130.574V132.406H273V130.574H272.182V135.069H273V133.152H275.244V135.069H276.062V130.574H275.244ZM281.357 131.32V130.574H277.975V135.069H281.357V134.323H278.792V133.152H281.115V132.406H278.792V131.32H281.357ZM285.313 135.147C285.974 135.147 286.576 134.866 287.008 134.415L286.432 133.878C286.151 134.199 285.752 134.402 285.313 134.402C284.482 134.402 283.782 133.682 283.782 132.818C283.782 131.961 284.482 131.242 285.313 131.242C285.745 131.242 286.151 131.444 286.426 131.765L287.008 131.222C286.576 130.777 285.974 130.496 285.313 130.496C284.031 130.496 282.952 131.556 282.952 132.818C282.952 134.081 284.031 135.147 285.313 135.147ZM288.672 135.069H289.49V133.787L290.099 133.132L291.584 135.069H292.591L290.661 132.557L292.46 130.574H291.459L289.49 132.772V130.574H288.672V135.069ZM294.1 135.069H294.911V130.574H294.1V135.069ZM296.89 135.069H297.708V131.909L300.083 135.069H300.894V130.574H300.083V133.734L297.708 130.574H296.89V135.069ZM304.94 133.263H306.059V134.081C305.778 134.284 305.411 134.402 305.071 134.402C304.234 134.402 303.527 133.682 303.527 132.818C303.527 131.961 304.234 131.242 305.071 131.242C305.51 131.242 305.994 131.438 306.275 131.765L306.857 131.222C306.425 130.77 305.725 130.496 305.071 130.496C303.782 130.496 302.696 131.556 302.696 132.818C302.696 134.081 303.782 135.147 305.071 135.147C305.725 135.147 306.425 134.866 306.857 134.415V132.596H304.94V133.263ZM314.926 131.32V130.574H311.544V135.069H312.362V133.204H314.684V132.458H312.362V131.32H314.926ZM318.812 135.147C320.088 135.147 321.168 134.081 321.168 132.818C321.168 131.556 320.088 130.496 318.812 130.496C317.53 130.496 316.451 131.556 316.451 132.818C316.451 134.081 317.53 135.147 318.812 135.147ZM318.812 134.402C317.982 134.402 317.282 133.682 317.282 132.818C317.282 131.961 317.982 131.242 318.812 131.242C319.637 131.242 320.33 131.961 320.33 132.818C320.33 133.682 319.637 134.402 318.812 134.402ZM326.576 135.069L325.45 133.473C326.098 133.27 326.536 132.746 326.536 132.066C326.536 131.189 325.817 130.574 324.855 130.574H322.899V135.069H323.716V133.558H324.587L325.646 135.069H326.576ZM323.716 131.327H324.763C325.319 131.327 325.705 131.608 325.705 132.066C325.705 132.524 325.319 132.805 324.763 132.805H323.716V131.327ZM333.086 135.147C334.251 135.147 335.069 134.323 335.069 133.152V130.574H334.257V133.126C334.257 133.872 333.773 134.408 333.086 134.408C332.406 134.408 331.922 133.872 331.922 133.126V130.574H331.104V133.152C331.104 134.323 331.928 135.147 333.086 135.147ZM336.992 135.069H337.809V133.558H338.948C339.91 133.558 340.629 132.943 340.629 132.066C340.629 131.189 339.91 130.574 338.948 130.574H336.992V135.069ZM337.809 132.805V131.327H338.856C339.412 131.327 339.798 131.608 339.798 132.066C339.798 132.524 339.412 132.805 338.856 132.805H337.809ZM342.313 135.069H343.896C345.381 135.069 346.428 134.133 346.428 132.818C346.428 131.503 345.381 130.574 343.896 130.574H342.313V135.069ZM343.13 134.33V131.314H343.981C344.93 131.314 345.597 131.935 345.597 132.818C345.597 133.701 344.93 134.33 343.981 134.33H343.13ZM351.346 135.069H352.249L350.371 130.574H349.462L347.584 135.069H348.494L348.834 134.258H351.006L351.346 135.069ZM349.128 133.551L349.92 131.66L350.712 133.551H349.128ZM354.614 135.069H355.425V131.32H356.865V130.574H353.175V131.32H354.614V135.069ZM361.927 131.32V130.574H358.545V135.069H361.927V134.323H359.362V133.152H361.685V132.406H359.362V131.32H361.927ZM364.15 135.147C364.424 135.147 364.653 134.912 364.653 134.624C364.653 134.356 364.424 134.12 364.15 134.12C363.849 134.12 363.626 134.356 363.626 134.624C363.626 134.912 363.849 135.147 364.15 135.147ZM365.72 135.147C365.994 135.147 366.223 134.912 366.223 134.624C366.223 134.356 365.994 134.12 365.72 134.12C365.419 134.12 365.196 134.356 365.196 134.624C365.196 134.912 365.419 135.147 365.72 135.147ZM367.29 135.147C367.565 135.147 367.794 134.912 367.794 134.624C367.794 134.356 367.565 134.12 367.29 134.12C366.989 134.12 366.766 134.356 366.766 134.624C366.766 134.912 366.989 135.147 367.29 135.147Z" fill="#FCFCFE"/>
<path d="M285.271 169.561C286.991 169.561 288.21 168.351 288.21 166.641V162.955H286.811V166.584C286.811 167.586 286.169 168.295 285.271 168.295C284.364 168.295 283.721 167.586 283.721 166.584V162.955H282.332V166.641C282.332 168.351 283.542 169.561 285.271 169.561ZM290.893 169.448H292.282V167.34H293.813C295.221 167.34 296.26 166.433 296.26 165.148C296.26 163.863 295.221 162.955 293.813 162.955H290.893V169.448ZM292.282 166.064V164.231H293.662C294.351 164.231 294.824 164.59 294.824 165.148C294.824 165.705 294.351 166.064 293.662 166.064H292.282ZM298.605 169.448H300.93C303.113 169.448 304.663 168.096 304.663 166.197C304.663 164.297 303.113 162.955 300.93 162.955H298.605V169.448ZM299.995 168.181V164.222H301.11C302.348 164.222 303.227 165.044 303.227 166.197C303.227 167.359 302.348 168.181 301.11 168.181H299.995ZM311.54 169.448H313.109L310.463 162.955H308.903L306.257 169.448H307.817L308.232 168.427H311.124L311.54 169.448ZM308.714 167.246L309.678 164.874L310.642 167.246H308.714ZM316.346 169.448H317.745V164.212H319.767V162.955H314.324V164.212H316.346V169.448ZM327.116 164.212V162.955H322.117V169.448H327.116V168.191H323.516V166.764H326.776V165.507H323.516V164.212H327.116ZM329.645 169.448H331.97C334.153 169.448 335.703 168.096 335.703 166.197C335.703 164.297 334.153 162.955 331.97 162.955H329.645V169.448ZM331.034 168.181V164.222H332.149C333.387 164.222 334.266 165.044 334.266 166.197C334.266 167.359 333.387 168.181 332.149 168.181H331.034Z" fill="#108CFF"/>
<path d="M351.867 176.698C357.31 176.698 361.742 172.272 361.742 166.829C361.742 161.386 357.31 156.96 351.867 156.96C346.424 156.96 341.993 161.386 341.993 166.829C341.993 172.272 346.424 176.698 351.867 176.698Z" fill="#108CFF"/>
<path d="M350.391 167.311L348.024 164.945L345.835 167.082L350.391 171.558L352.554 169.422L357.899 164.182L355.735 162.071L350.391 167.311Z" fill="white"/>
<defs>
<linearGradient id="paint0_linear" x1="267.833" y1="282.857" x2="263.374" y2="293.625" gradientUnits="userSpaceOnUse">
<stop stop-color="#94B6FE"/>
<stop offset="1" stop-color="#216ADE"/>
</linearGradient>
<linearGradient id="paint1_linear" x1="271.833" y1="297.392" x2="277.138" y2="286.238" gradientUnits="userSpaceOnUse">
<stop stop-color="#94B6FE"/>
<stop offset="1" stop-color="#216ADE"/>
</linearGradient>
</defs>
</svg>
