<svg width="634" height="342" viewBox="0 0 634 342" fill="none" xmlns="http://www.w3.org/2000/svg">
<mask id="mask0_1_2" style="mask-type:luminance" maskUnits="userSpaceOnUse" x="0" y="0" width="634" height="342">
<path d="M634 0.899414H0V341.899H634V0.899414Z" fill="white"/>
</mask>
<g mask="url(#mask0_1_2)">
<path opacity="0.1" fill-rule="evenodd" clip-rule="evenodd" d="M629.592 138.273H443.139C438.45 138.273 433.924 138.967 429.656 140.259H394.213V138.671C394.213 136.449 392.411 134.648 390.189 134.648H359.694C357.472 134.648 355.67 136.449 355.67 138.671V140.259H266.876V138.671C266.876 136.449 265.074 134.648 262.852 134.648H232.357C230.135 134.648 228.333 136.449 228.333 138.671V140.259H203.711C199.637 140.259 196.334 143.561 196.334 147.635V164.598H141.298C133.224 164.598 126.261 169.379 123.058 176.256C123.025 176.253 122.992 176.252 122.958 176.252H102.513C101.772 176.252 101.172 176.852 101.172 177.593V179.291H-4.34961V190.23H101.172V191.929C101.172 192.67 101.772 193.27 102.513 193.27H122.958C122.975 193.27 122.992 193.27 123.008 193.269C123.025 193.269 123.042 193.268 123.058 193.267C126.261 200.143 133.224 204.923 141.298 204.923H196.334V221.887C196.334 225.961 199.637 229.263 203.711 229.263H429.659C433.925 230.554 438.451 231.248 443.139 231.248H629.592V138.273ZM463.026 199.379C465.63 195.524 467.151 190.878 467.151 185.876C467.151 184.209 466.982 182.581 466.66 181.009C465.862 177.107 464.123 173.549 461.69 170.58C457.261 165.175 450.534 161.726 443.001 161.726C436.332 161.726 430.294 164.429 425.924 168.799C421.554 173.169 418.851 179.207 418.851 185.875C418.851 191.385 420.695 196.464 423.801 200.527C428.214 206.301 435.172 210.025 443.001 210.025C451.336 210.025 458.686 205.802 463.026 199.379Z" fill="#1B2D4B"/>
<path d="M130.3 171.845C130.3 171.104 129.699 170.504 128.959 170.504H108.513C107.772 170.504 107.172 171.104 107.172 171.845V186.181C107.172 186.922 107.772 187.522 108.513 187.522H128.959C129.699 187.522 130.3 186.922 130.3 186.181V171.845Z" fill="url(#paint0_linear_1_2)"/>
<path d="M202.334 158.85H147.298C136.188 158.85 127.181 167.902 127.181 179.013C127.181 190.123 136.188 199.175 147.298 199.175H202.334V158.85Z" fill="url(#paint1_linear_1_2)"/>
<path d="M-4.34961 173.576H107.126V184.576H-4.34961V173.576Z" fill="url(#paint2_linear_1_2)"/>
<path d="M361.67 134.511H400.212V132.924C400.212 130.702 398.411 128.9 396.189 128.9H365.693C363.471 128.9 361.67 130.702 361.67 132.924V134.511Z" fill="white"/>
<path d="M234.333 134.511H272.875V132.924C272.875 130.702 271.074 128.9 268.852 128.9H238.356C236.134 128.9 234.333 130.702 234.333 132.924V134.511Z" fill="white"/>
<path fill-rule="evenodd" clip-rule="evenodd" d="M209.71 134.51C205.637 134.51 202.334 137.813 202.334 141.887V216.139C202.334 220.212 205.637 223.515 209.71 223.515H488.217C492.291 223.515 495.593 220.212 495.593 216.139V141.887C495.593 137.813 492.291 134.51 488.217 134.51H209.71ZM449.001 204.277C462.339 204.277 473.151 193.465 473.151 180.127C473.151 166.789 462.339 155.977 449.001 155.977C435.663 155.977 424.851 166.789 424.851 180.127C424.851 193.465 435.663 204.277 449.001 204.277Z" fill="url(#paint3_linear_1_2)"/>
<path fill-rule="evenodd" clip-rule="evenodd" d="M449.625 132.575C423.944 132.575 403.125 153.394 403.125 179.075C403.125 204.756 423.944 225.575 449.625 225.575H624.274C627.587 225.575 630.274 222.889 630.274 219.575V138.575C630.274 135.262 627.587 132.575 624.274 132.575H449.625ZM449.001 204.277C462.339 204.277 473.151 193.464 473.151 180.127C473.151 166.789 462.339 155.977 449.001 155.977C435.663 155.977 424.851 166.789 424.851 180.127C424.851 193.464 435.663 204.277 449.001 204.277Z" fill="white"/>
<path d="M382.149 154.645H251.927C249.49 154.645 247.515 156.62 247.515 159.057V198.427C247.515 200.864 249.49 202.839 251.927 202.839H382.149C384.586 202.839 386.561 200.864 386.561 198.427V159.057C386.561 156.62 384.586 154.645 382.149 154.645Z" fill="#57AEFF"/>
<path d="M381.11 122.109V119.467H378.468V122.109H381.11Z" fill="#108CFF"/>
<path d="M381.11 118.127V115.485H378.468V118.127H381.11Z" fill="#108CFF"/>
<path d="M381.11 114.145V111.503H378.468V114.145H381.11Z" fill="#108CFF"/>
<path d="M381.11 110.163V107.521H378.468V110.163H381.11Z" fill="#108CFF"/>
<path d="M381.11 106.182V103.54H378.468V106.182H381.11Z" fill="#108CFF"/>
<path d="M381.11 102.2V99.5579H378.468V102.2H381.11Z" fill="#108CFF"/>
<path d="M381.11 98.2178V95.5762H378.468V98.2178H381.11Z" fill="#108CFF"/>
<path d="M385.713 117.957V115.315H383.071V117.957H385.713Z" fill="#108CFF"/>
<path d="M373.941 117.957L373.941 115.315L376.583 115.315L376.583 117.957L373.941 117.957Z" fill="#108CFF"/>
<path d="M389.261 113.806V111.164H386.619V113.806H389.261Z" fill="#108CFF"/>
<path d="M370.393 113.806L370.393 111.164L373.035 111.164L373.035 113.806L370.393 113.806Z" fill="#108CFF"/>
<path d="M393.035 109.655V107.013H390.393V109.655H393.035Z" fill="#108CFF"/>
<path d="M366.619 109.655L366.619 107.013L369.261 107.013L369.261 109.655L366.619 109.655Z" fill="#108CFF"/>
<path d="M255.641 122.109V119.467H252.999V122.109H255.641Z" fill="#108CFF"/>
<path d="M255.641 118.127V115.485H252.999V118.127H255.641Z" fill="#108CFF"/>
<path d="M255.641 114.145V111.503H252.999V114.145H255.641Z" fill="#108CFF"/>
<path d="M255.641 110.163V107.521H252.999V110.163H255.641Z" fill="#108CFF"/>
<path d="M255.641 106.182V103.54H252.999V106.182H255.641Z" fill="#108CFF"/>
<path d="M255.641 102.2V99.5579H252.999V102.2H255.641Z" fill="#108CFF"/>
<path d="M255.641 98.2178V95.5762H252.999V98.2178H255.641Z" fill="#108CFF"/>
<path d="M260.244 117.957V115.315H257.602V117.957H260.244Z" fill="#108CFF"/>
<path d="M248.472 117.957L248.472 115.315L251.114 115.315L251.114 117.957L248.472 117.957Z" fill="#108CFF"/>
<path d="M263.793 113.806V111.164H261.151V113.806H263.793Z" fill="#108CFF"/>
<path d="M244.924 113.806L244.924 111.164L247.566 111.164L247.566 113.806L244.924 113.806Z" fill="#108CFF"/>
<path d="M267.566 109.655V107.013H264.924V109.655H267.566Z" fill="#108CFF"/>
<path d="M241.15 109.655L241.15 107.013L243.792 107.013L243.792 109.655L241.15 109.655Z" fill="#108CFF"/>
<path d="M257.651 179.896H258.944V178.603H257.651V179.896Z" fill="white"/>
<path d="M259.683 182.149H260.976V180.856H259.683V182.149Z" fill="white"/>
<path d="M259.683 176.386L260.976 176.386L260.976 177.679L259.683 177.679L259.683 176.386Z" fill="white"/>
<path d="M261.715 183.886H263.008V182.593H261.715V183.886Z" fill="white"/>
<path d="M261.715 174.65L263.008 174.65L263.008 175.943L261.715 175.943L261.715 174.65Z" fill="white"/>
<path d="M263.746 185.733H265.039V184.44H263.746V185.733Z" fill="white"/>
<path d="M263.747 172.802L265.04 172.802L265.04 174.095L263.747 174.095L263.747 172.802Z" fill="white"/>
<path d="M380.371 179.896L379.078 179.896L379.078 178.603L380.371 178.603L380.371 179.896Z" fill="white"/>
<path d="M378.339 182.149L377.046 182.149L377.046 180.856L378.339 180.856L378.339 182.149Z" fill="white"/>
<path d="M378.339 176.386H377.046V177.679H378.339V176.386Z" fill="white"/>
<path d="M376.307 183.886L375.014 183.886L375.014 182.593L376.307 182.593L376.307 183.886Z" fill="white"/>
<path d="M376.307 174.65H375.014V175.943H376.307V174.65Z" fill="white"/>
<path d="M374.275 185.733L372.982 185.733L372.982 184.44L374.275 184.44L374.275 185.733Z" fill="white"/>
<path d="M374.275 172.802H372.982V174.095H374.275V172.802Z" fill="white"/>
<path d="M287 183.332H288.129V178.091H287V183.332ZM290.365 183.332H291.486V179.945L294.011 183.332H295.14V178.091H294.011V181.478L291.486 178.091H290.365V183.332ZM299.354 183.424C300.636 183.424 301.391 182.76 301.391 181.761C301.391 180.792 300.643 180.456 299.514 180.204C298.706 180.021 298.393 179.899 298.393 179.518C298.393 179.205 298.683 178.953 299.163 178.953C299.667 178.953 300.193 179.159 300.659 179.533L301.246 178.725C300.712 178.267 300.048 178 299.194 178C298.05 178 297.256 178.664 297.256 179.632C297.256 180.647 298.042 180.96 299.148 181.211C299.949 181.394 300.254 181.509 300.254 181.883C300.254 182.211 299.964 182.47 299.4 182.47C298.736 182.47 298.172 182.211 297.676 181.784L297.027 182.554C297.638 183.118 298.446 183.424 299.354 183.424ZM304.7 183.332H305.829V179.106H307.462V178.091H303.068V179.106H304.7V183.332ZM312.808 183.332H314.075L311.939 178.091H310.68L308.544 183.332H309.803L310.138 182.508H312.473L312.808 183.332ZM310.527 181.555L311.306 179.64L312.084 181.555H310.527ZM316.927 182.317V178.091H315.798V183.332H319.536V182.317H316.927ZM322.497 182.317V178.091H321.368V183.332H325.106V182.317H322.497ZM334.095 183.332H335.361L333.225 178.091H331.966L329.83 183.332H331.089L331.425 182.508H333.759L334.095 183.332ZM331.814 181.555L332.592 179.64L333.37 181.555H331.814ZM337.123 183.332H338.244V181.631H339.48C340.617 181.631 341.456 180.899 341.456 179.861C341.456 178.824 340.617 178.091 339.48 178.091H337.123V183.332ZM338.244 180.601V179.121H339.358C339.915 179.121 340.296 179.411 340.296 179.861C340.296 180.311 339.915 180.601 339.358 180.601H338.244ZM343.303 183.332H344.424V181.631H345.66C346.797 181.631 347.636 180.899 347.636 179.861C347.636 178.824 346.797 178.091 345.66 178.091H343.303V183.332ZM344.424 180.601V179.121H345.538C346.095 179.121 346.476 179.411 346.476 179.861C346.476 180.311 346.095 180.601 345.538 180.601H344.424Z" fill="white"/>
</g>
<defs>
<linearGradient id="paint0_linear_1_2" x1="108.003" y1="177.842" x2="130.051" y2="177.842" gradientUnits="userSpaceOnUse">
<stop stop-color="white"/>
<stop offset="1" stop-color="#E4EBFA"/>
</linearGradient>
<linearGradient id="paint1_linear_1_2" x1="130.799" y1="181.579" x2="202.922" y2="181.579" gradientUnits="userSpaceOnUse">
<stop stop-color="white"/>
<stop offset="1" stop-color="#E4EBFA"/>
</linearGradient>
<linearGradient id="paint2_linear_1_2" x1="14.888" y1="173.576" x2="126.605" y2="173.576" gradientUnits="userSpaceOnUse">
<stop stop-color="white"/>
<stop offset="1" stop-color="#E4EBFA"/>
</linearGradient>
<linearGradient id="paint3_linear_1_2" x1="348.964" y1="134.51" x2="348.964" y2="224.324" gradientUnits="userSpaceOnUse">
<stop stop-color="white"/>
<stop offset="1" stop-color="#F0F5FE"/>
</linearGradient>
</defs>
</svg>
