<svg width="760" height="600" viewBox="0 0 760 600" fill="none" xmlns="http://www.w3.org/2000/svg">
<path d="M465.507 105.032C472.824 106.749 475.319 115.938 469.785 121.065L443.277 145.658C438.661 149.915 431.274 148.613 428.475 142.963L411.084 108.065C407.549 100.965 413.849 92.8475 421.698 94.6987L465.507 105.032Z" fill="#108CFF"/>
<rect x="194.001" y="119.712" width="401.581" height="296.791" rx="96" fill="#E3EEFE"/>
<path d="M211.496 395.19C209.73 396.249 207.438 395.618 206.839 393.656C205.948 390.601 205.789 387.276 206.696 384.105C207.943 379.744 210.813 375.974 214.805 373.66C218.797 371.345 223.451 370.684 227.861 371.845C231.083 372.665 233.891 374.402 236.039 376.681C237.471 378.201 236.84 380.493 234.988 381.502C233.222 382.561 230.98 381.844 229.398 380.584C228.372 379.761 227.196 379.197 225.87 378.894C223.355 378.25 220.687 378.672 218.374 379.877C216.098 381.219 214.402 383.357 213.758 385.872C213.368 387.148 213.288 388.488 213.48 389.754C213.843 391.926 213.212 394.218 211.496 395.19Z" fill="#FFAB49"/>
<path d="M580.108 402.426C590.222 396.61 590.222 382.029 580.192 376.214L546.311 356.408C536.702 350.761 524.481 357.082 523.554 368.207L519.93 409.674C518.835 421.895 531.983 430.239 542.602 424.171L580.108 402.426Z" fill="#FFCA62"/>
<path d="M292.149 187.332C292.149 185.324 293.777 183.696 295.785 183.696H493.797C495.805 183.696 497.433 185.324 497.433 187.332V299.775C497.433 301.783 495.805 303.411 493.797 303.411H295.785C293.777 303.411 292.149 301.783 292.149 299.775V187.332Z" fill="#F2F6FE"/>
<rect x="295.874" y="189.397" width="197.835" height="108.312" rx="0.363557" fill="#57AEFF"/>
<path d="M407.788 260.108H368.01C362.702 260.108 358.398 264.412 358.398 269.72V278.057C358.398 283.365 362.702 287.669 368.01 287.669L513.375 287.669C518.684 287.669 522.987 291.972 522.987 297.281V316.475C522.987 321.783 518.684 326.087 513.375 326.087H357.335" stroke="white" stroke-width="3.84476" stroke-linecap="round" stroke-linejoin="round"/>
<path d="M273.673 341.497C273.673 344.132 275.809 346.268 278.443 346.268H511.139C513.774 346.268 515.91 344.132 515.91 341.497V340.315H273.673V341.497Z" fill="#D8E3F5"/>
<path d="M370.181 340.374C370.181 342.481 371.889 344.202 373.997 344.202H415.585C417.692 344.202 419.401 342.481 419.401 340.374H370.181Z" fill="#C4D1E8"/>
<path d="M273.682 340.351H515.901L499.191 306.929C498.113 304.773 495.91 303.412 493.5 303.412H296.082C293.672 303.412 291.469 304.773 290.391 306.929L273.682 340.351Z" fill="#FCFCFE"/>
<path d="M305.616 309.048C304.962 309.048 304.37 309.438 304.112 310.04L298.355 323.488C297.892 324.567 298.684 325.768 299.858 325.768H489.724C490.875 325.768 491.667 324.609 491.247 323.536L485.99 310.088C485.745 309.461 485.14 309.048 484.467 309.048H305.616Z" fill="#C4D1E8"/>
<path d="M305.616 309.048C304.962 309.048 304.37 309.438 304.112 310.04L298.355 323.488C297.892 324.567 298.684 325.768 299.858 325.768H489.724C490.875 325.768 491.667 324.609 491.247 323.536L485.99 310.088C485.745 309.461 485.14 309.048 484.467 309.048H305.616Z" stroke="#FF0000"/>
<path d="M414.275 267.334L414.275 253.002L402.034 253.002C400.617 253.002 399.468 254.151 399.468 255.569L399.468 264.768C399.468 266.185 400.617 267.334 402.034 267.334L414.275 267.334Z" fill="white"/>
<path fill-rule="evenodd" clip-rule="evenodd" d="M416.852 243.62C415.349 243.62 414.132 244.838 414.132 246.34V273.996C414.132 275.498 415.349 276.715 416.852 276.715H520.456C521.959 276.715 523.176 275.498 523.176 273.996V246.34C523.176 244.838 521.959 243.62 520.456 243.62H416.852ZM505.851 269.562C510.811 269.562 514.831 265.542 514.831 260.582C514.831 255.623 510.811 251.602 505.851 251.602C500.892 251.602 496.871 255.623 496.871 260.582C496.871 265.542 500.892 269.562 505.851 269.562Z" fill="#F0F5FE"/>
<path fill-rule="evenodd" clip-rule="evenodd" d="M493.276 248.047C486.525 254.797 486.525 265.742 493.276 272.492C500.026 279.243 510.971 279.243 517.721 272.492L587.938 202.276C588.94 201.274 588.94 199.649 587.938 198.647L567.121 177.83C566.119 176.828 564.494 176.828 563.492 177.83L493.276 248.047ZM512.105 266.949C515.612 263.442 515.612 257.756 512.105 254.249C508.598 250.742 502.912 250.742 499.406 254.249C495.899 257.756 495.899 263.442 499.406 266.949C502.912 270.456 508.598 270.456 512.105 266.949Z" fill="white"/>
<rect x="431.019" y="251.207" width="51.7023" height="17.9203" rx="2.81375" fill="#87C5FF"/>
<path d="M394.794 242.318L392.137 237.562L397.45 237.562L394.794 242.318Z" fill="#61E897"/>
<path d="M394.792 237.943C405.734 237.943 414.792 229.073 414.792 218.131C414.792 207.189 405.734 198.319 394.792 198.319C383.85 198.319 374.792 207.189 374.792 218.131C374.792 229.073 383.85 237.943 394.792 237.943Z" fill="#61E897"/>
<path fill-rule="evenodd" clip-rule="evenodd" d="M404.529 211.708C405.021 212.206 404.997 212.989 404.477 213.459L391.894 224.81L385.818 219.006C385.312 218.523 385.312 217.739 385.818 217.255C386.324 216.772 387.145 216.772 387.651 217.255L391.946 221.357L402.697 211.658C403.217 211.189 404.037 211.211 404.529 211.708Z" fill="white"/>
</svg>
