<svg width="634" height="357" viewBox="0 0 634 357" fill="none" xmlns="http://www.w3.org/2000/svg">
<path d="M392.163 29.6673C399.479 31.3849 401.974 40.5737 396.44 45.7007L369.932 70.2937C365.316 74.5512 357.929 73.249 355.13 67.5992L337.739 32.7007C334.204 25.6003 340.504 17.4833 348.354 19.3344L392.163 29.6673Z" fill="#108CFF"/>
<rect x="120.656" y="44.3477" width="401.581" height="296.791" rx="96" fill="#E3EEFE"/>
<path d="M138.152 319.826C136.386 320.885 134.094 320.254 133.495 318.292C132.603 315.236 132.444 311.912 133.351 308.74C134.599 304.38 137.468 300.609 141.46 298.295C145.452 295.981 150.106 295.32 154.517 296.481C157.738 297.301 160.546 299.038 162.694 301.317C164.126 302.837 163.496 305.129 161.643 306.137C159.877 307.196 157.635 306.479 156.053 305.22C155.027 304.396 153.851 303.833 152.526 303.529C150.01 302.886 147.342 303.308 145.029 304.513C142.754 305.855 141.057 307.993 140.413 310.508C140.023 311.784 139.943 313.123 140.136 314.389C140.498 316.562 139.868 318.853 138.152 319.826Z" fill="#FFAB49"/>
<path d="M506.763 327.062C516.877 321.246 516.877 306.665 506.848 300.85L472.966 281.043C463.358 275.396 451.137 281.718 450.21 292.843L446.586 334.31C445.49 346.531 458.638 354.875 469.258 348.806L506.763 327.062Z" fill="#FFCA62"/>
<path opacity="0.3" fill-rule="evenodd" clip-rule="evenodd" d="M634 152.274L447.548 152.274C442.859 152.274 438.332 152.969 434.064 154.26H398.621V152.673C398.621 150.451 396.82 148.649 394.597 148.649H364.102C361.88 148.649 360.078 150.451 360.078 152.673V154.26H271.284V152.673C271.284 150.451 269.482 148.649 267.26 148.649H236.765C234.543 148.649 232.741 150.451 232.741 152.673V154.26H208.119C204.045 154.26 200.743 157.563 200.743 161.636V178.6H145.706C137.632 178.6 130.669 183.38 127.466 190.257C127.433 190.255 127.4 190.253 127.367 190.253H106.921C106.18 190.253 105.58 190.854 105.58 191.595L105.58 193.292H0.0585938V204.232H105.58L105.58 205.931C105.58 206.671 106.18 207.272 106.921 207.272H127.367C127.383 207.272 127.4 207.272 127.416 207.271C127.433 207.27 127.45 207.269 127.466 207.268C130.669 214.145 137.632 218.925 145.706 218.925H200.743V235.888C200.743 239.962 204.045 243.265 208.119 243.265H434.067C438.334 244.555 442.86 245.249 447.548 245.249L634 245.249V152.274ZM467.434 213.38C470.038 209.526 471.559 204.879 471.559 199.877C471.559 198.21 471.39 196.582 471.068 195.01C470.27 191.109 468.531 187.55 466.098 184.581C461.669 179.176 454.942 175.727 447.409 175.727C440.74 175.727 434.703 178.43 430.332 182.801C425.962 187.171 423.259 193.208 423.259 199.876C423.259 205.387 425.104 210.465 428.209 214.528C432.622 220.302 439.581 224.027 447.409 224.027C455.745 224.027 463.094 219.804 467.434 213.38Z" fill="#B0BFD9"/>
<path d="M134.708 185.846C134.708 185.105 134.108 184.505 133.367 184.505H112.921C112.181 184.505 111.58 185.105 111.58 185.846V200.182C111.58 200.923 112.181 201.523 112.921 201.523H133.367C134.108 201.523 134.708 200.923 134.708 200.182V185.846Z" fill="url(#paint0_linear)"/>
<path d="M206.742 172.852H151.706C140.595 172.852 131.589 181.903 131.589 193.014C131.589 204.125 140.595 213.177 151.706 213.177H206.742V172.852Z" fill="url(#paint1_linear)"/>
<path d="M0.0585938 187.577H111.534V198.577H0.0585938V187.577Z" fill="url(#paint2_linear)"/>
<path d="M366.078 148.512H404.621V146.925C404.621 144.702 402.819 142.901 400.597 142.901H370.102C367.88 142.901 366.078 144.702 366.078 146.925V148.512Z" fill="white"/>
<path d="M238.741 148.512H277.284V146.925C277.284 144.702 275.482 142.901 273.26 142.901H242.765C240.543 142.901 238.741 144.702 238.741 146.925V148.512Z" fill="white"/>
<path fill-rule="evenodd" clip-rule="evenodd" d="M214.119 148.512C210.045 148.512 206.742 151.814 206.742 155.888V230.14C206.742 234.214 210.045 237.516 214.119 237.516H492.625C496.699 237.516 500.001 234.214 500.001 230.14V155.888C500.001 151.814 496.699 148.512 492.625 148.512H214.119ZM453.409 218.279C466.747 218.279 477.559 207.466 477.559 194.129C477.559 180.791 466.747 169.979 453.409 169.979C440.071 169.979 429.259 180.791 429.259 194.129C429.259 207.466 440.071 218.279 453.409 218.279Z" fill="url(#paint3_linear)"/>
<path fill-rule="evenodd" clip-rule="evenodd" d="M454.033 146.576C428.352 146.576 407.533 167.395 407.533 193.076C407.533 218.757 428.352 239.576 454.033 239.576H628.681C631.995 239.576 634.681 236.89 634.681 233.576V152.576C634.681 149.262 631.995 146.576 628.681 146.576H454.033ZM453.409 218.278C466.746 218.278 477.559 207.465 477.559 194.128C477.559 180.79 466.746 169.978 453.409 169.978C440.071 169.978 429.259 180.79 429.259 194.128C429.259 207.465 440.071 218.278 453.409 218.278Z" fill="white"/>
<rect x="251.924" y="168.646" width="139.046" height="48.1942" rx="4.41186" fill="#57AEFF"/>
<rect x="385.518" y="133.468" width="2.64163" height="2.64163" transform="rotate(90 385.518 133.468)" fill="#108CFF"/>
<rect x="385.518" y="129.486" width="2.64163" height="2.64163" transform="rotate(90 385.518 129.486)" fill="#108CFF"/>
<rect x="385.518" y="125.504" width="2.64163" height="2.64163" transform="rotate(90 385.518 125.504)" fill="#108CFF"/>
<rect x="385.518" y="121.522" width="2.64163" height="2.64163" transform="rotate(90 385.518 121.522)" fill="#108CFF"/>
<rect x="385.518" y="117.541" width="2.64163" height="2.64163" transform="rotate(90 385.518 117.541)" fill="#108CFF"/>
<rect x="385.518" y="113.559" width="2.64163" height="2.64163" transform="rotate(90 385.518 113.559)" fill="#108CFF"/>
<rect x="385.518" y="109.577" width="2.64163" height="2.64163" transform="rotate(90 385.518 109.577)" fill="#108CFF"/>
<rect x="390.121" y="129.316" width="2.64163" height="2.64163" transform="rotate(90 390.121 129.316)" fill="#108CFF"/>
<rect width="2.64163" height="2.64163" transform="matrix(-4.37114e-08 1 1 4.37114e-08 378.349 129.316)" fill="#108CFF"/>
<rect x="393.67" y="125.165" width="2.64163" height="2.64163" transform="rotate(90 393.67 125.165)" fill="#108CFF"/>
<rect width="2.64163" height="2.64163" transform="matrix(-4.37114e-08 1 1 4.37114e-08 374.801 125.165)" fill="#108CFF"/>
<rect x="397.443" y="121.015" width="2.64163" height="2.64163" transform="rotate(90 397.443 121.015)" fill="#108CFF"/>
<rect width="2.64163" height="2.64163" transform="matrix(-4.37114e-08 1 1 4.37114e-08 371.027 121.015)" fill="#108CFF"/>
<rect x="260.049" y="133.468" width="2.64163" height="2.64163" transform="rotate(90 260.049 133.468)" fill="#108CFF"/>
<rect x="260.049" y="129.486" width="2.64163" height="2.64163" transform="rotate(90 260.049 129.486)" fill="#108CFF"/>
<rect x="260.049" y="125.504" width="2.64163" height="2.64163" transform="rotate(90 260.049 125.504)" fill="#108CFF"/>
<rect x="260.049" y="121.522" width="2.64163" height="2.64163" transform="rotate(90 260.049 121.522)" fill="#108CFF"/>
<rect x="260.049" y="117.541" width="2.64163" height="2.64163" transform="rotate(90 260.049 117.541)" fill="#108CFF"/>
<rect x="260.049" y="113.559" width="2.64163" height="2.64163" transform="rotate(90 260.049 113.559)" fill="#108CFF"/>
<rect x="260.049" y="109.577" width="2.64163" height="2.64163" transform="rotate(90 260.049 109.577)" fill="#108CFF"/>
<rect x="264.652" y="129.316" width="2.64163" height="2.64163" transform="rotate(90 264.652 129.316)" fill="#108CFF"/>
<rect width="2.64163" height="2.64163" transform="matrix(-4.37114e-08 1 1 4.37114e-08 252.88 129.316)" fill="#108CFF"/>
<rect x="268.201" y="125.165" width="2.64163" height="2.64163" transform="rotate(90 268.201 125.165)" fill="#108CFF"/>
<rect width="2.64163" height="2.64163" transform="matrix(-4.37114e-08 1 1 4.37114e-08 249.332 125.165)" fill="#108CFF"/>
<rect x="271.975" y="121.015" width="2.64163" height="2.64163" transform="rotate(90 271.975 121.015)" fill="#108CFF"/>
<rect width="2.64163" height="2.64163" transform="matrix(-4.37114e-08 1 1 4.37114e-08 245.559 121.015)" fill="#108CFF"/>
<circle cx="271" cy="193" r="6" fill="white"/>
<circle cx="288" cy="193" r="6" fill="white"/>
<circle cx="305" cy="193" r="6" fill="white"/>
<circle cx="322" cy="193" r="6" fill="white"/>
<circle cx="339" cy="193" r="6" fill="white"/>
<circle cx="356" cy="193" r="6" fill="white"/>
<rect x="367" y="202" width="14" height="3" fill="white"/>
<defs>
<linearGradient id="paint0_linear" x1="112.411" y1="191.843" x2="134.459" y2="191.843" gradientUnits="userSpaceOnUse">
<stop stop-color="white"/>
<stop offset="1" stop-color="#E4EBFA"/>
</linearGradient>
<linearGradient id="paint1_linear" x1="135.207" y1="195.58" x2="207.33" y2="195.58" gradientUnits="userSpaceOnUse">
<stop stop-color="white"/>
<stop offset="1" stop-color="#E4EBFA"/>
</linearGradient>
<linearGradient id="paint2_linear" x1="19.2962" y1="187.577" x2="131.013" y2="187.577" gradientUnits="userSpaceOnUse">
<stop stop-color="white"/>
<stop offset="1" stop-color="#E4EBFA"/>
</linearGradient>
<linearGradient id="paint3_linear" x1="353.372" y1="148.512" x2="353.372" y2="238.325" gradientUnits="userSpaceOnUse">
<stop stop-color="white"/>
<stop offset="1" stop-color="#F0F5FE"/>
</linearGradient>
</defs>
</svg>
