<svg width="760" height="600" viewBox="0 0 760 600" fill="none" xmlns="http://www.w3.org/2000/svg">
<path d="M398.85 70.1881C398.85 59.3706 408.627 50.6211 420.716 50.6211L456.983 50.6211C469.072 50.6211 478.85 59.3706 478.85 70.1881L478.85 82.0541C478.85 92.8716 469.072 101.621 456.983 101.621L420.716 101.621C408.627 101.621 398.85 92.8716 398.85 82.0541L398.85 70.1881Z" fill="#37E5D7"/>
<path d="M246.5 173.5C246.5 117.5 288.4 72.2002 340.1 72.2002H449.9C501.6 72.2002 543.5 117.6 543.5 173.5V373.7C543.5 429.7 501.6 475 449.9 475H340.2C288.5 475 246.6 429.6 246.6 373.7L246.5 173.5Z" fill="url(#paint0_linear)"/>
<path d="M521 127.251C518.9 127.251 517.3 128.951 517.7 130.951C518.5 134.051 520 137.051 522.4 139.251C525.7 142.451 530 144.251 534.6 144.251C539.2 144.251 543.6 142.551 546.8 139.251C549.2 136.951 550.7 134.051 551.5 130.951C552 128.951 550.3 127.251 548.2 127.351C546.1 127.351 544.6 129.051 543.8 130.951C543.3 132.151 542.6 133.251 541.6 134.151C539.7 135.951 537.2 136.951 534.6 137.051C532 137.051 529.4 136.051 527.6 134.151C526.6 133.251 525.9 132.151 525.4 130.951C524.7 128.951 523 127.251 521 127.251Z" fill="#FFAB49"/>
<path d="M227.929 268.18C228.121 257.681 241.028 252.796 247.996 260.608L274.261 290.053C278.472 294.775 278.055 302.083 273.333 306.295L246.464 330.262C238.995 336.924 227.245 331.528 227.323 321.593L227.929 268.18Z" fill="#628BF2"/>
<path d="M341.416 355.411C340.245 353.068 338.642 351.342 336.731 350.233L333.958 348.63C335.868 349.739 337.471 351.466 338.642 353.808C343.636 364.041 338.457 382.349 327.054 394.616C324.156 397.759 321.074 400.225 318.054 401.951C312.074 405.403 306.218 406.02 301.965 403.554L304.739 405.157C308.992 407.622 314.787 407.068 320.828 403.554C323.848 401.828 326.869 399.362 329.827 396.218C341.231 383.89 346.409 365.643 341.416 355.411Z" fill="#F6F8FC"/>
<path d="M476.414 166.229L305.046 351.219C288.772 368.787 281.375 394.862 288.526 409.472C293.827 420.321 305.662 421.8 318.114 414.65C322.429 412.184 326.744 408.67 330.936 404.17L502.304 219.18L476.414 166.229ZM327.053 396.219C324.155 399.362 321.073 401.828 318.053 403.554C309.361 408.547 301.039 407.561 297.341 399.917C292.348 389.684 297.526 371.376 308.93 359.109C311.888 355.966 314.909 353.5 317.929 351.774C326.621 346.781 334.943 347.767 338.641 355.411C343.635 365.644 338.457 383.89 327.053 396.219Z" fill="#F1F5FE"/>
<path d="M528.909 234.792L502.39 219.342L476.5 166.391L502.549 179.661L528.909 234.792Z" fill="#E4EBFA"/>
<path d="M356.333 367.185L333.649 353.993C337.101 356.027 339.258 360.281 339.258 366.383C339.32 378.65 330.69 393.568 320.026 399.732C314.663 402.814 309.793 403.123 306.279 401.088L328.964 414.28C332.478 416.314 337.347 416.006 342.71 412.924C353.375 406.759 362.005 391.842 361.943 379.575C362.005 373.472 359.847 369.157 356.333 367.185Z" fill="#D8E3F5"/>
<path d="M308.191 373.596L523.757 249.139V323.049L308.438 447.506L308.191 373.596ZM342.711 412.924C353.376 406.76 362.006 391.842 361.944 379.575C361.882 367.308 353.252 362.377 342.588 368.541C331.924 374.705 323.294 389.623 323.356 401.89C323.417 414.157 332.047 419.088 342.711 412.924Z" fill="url(#paint1_linear)"/>
<path d="M417.237 332.055C417.237 331.745 417.401 331.459 417.669 331.305L509.176 278.484C509.464 278.318 509.824 278.526 509.824 278.858V308.361C509.824 309.286 509.33 310.142 508.529 310.605L421.177 361.06C419.451 362.057 417.293 360.814 417.289 358.821L417.237 332.055Z" fill="#57AEFF"/>
<path d="M308.19 373.595L285.506 360.404L501.071 235.946L523.756 249.138L308.19 373.595Z" fill="white"/>
<path d="M308.437 447.505L285.752 434.313L285.506 360.403L308.19 373.595L308.437 447.505Z" fill="#D8E3F5"/>
<path d="M502.549 179.74L330.259 366.075C313.985 383.643 306.588 409.718 313.739 424.328C319.04 435.177 330.875 436.656 343.327 429.506C347.642 427.04 351.957 423.526 356.149 419.026L528.907 234.791L502.549 179.74ZM352.265 411.074C349.368 414.218 346.286 416.684 343.266 418.41C334.574 423.403 326.252 422.417 322.554 414.773C317.56 404.54 322.739 386.232 334.142 373.965C337.101 370.822 340.122 368.356 343.142 366.63C351.834 361.637 360.156 362.623 363.854 370.267C368.847 380.499 363.669 398.807 352.265 411.074Z" fill="white"/>
<path d="M452.188 283.473C452.312 285.076 452.188 286.74 451.819 288.466C451.449 290.192 450.771 291.918 449.846 293.644C448.921 295.37 447.75 297.035 446.271 298.637C444.853 300.117 443.497 301.288 442.202 302.028C442.141 302.089 442.079 302.089 441.956 302.151C440.538 302.891 439.243 303.322 438.011 303.322C436.778 303.322 435.668 303.014 434.682 302.274C433.696 301.596 432.894 300.548 432.216 299.254C431.6 297.959 431.168 296.48 431.045 294.877C430.922 293.274 431.045 291.61 431.415 289.884C431.785 288.158 432.463 286.432 433.387 284.706C434.312 282.98 435.483 281.316 436.963 279.713C438.319 278.234 439.675 277.062 441.031 276.323C441.093 276.261 441.216 276.261 441.278 276.199C442.695 275.459 443.99 275.028 445.161 275.028C446.394 275.028 447.442 275.336 448.428 276.076C449.414 276.754 450.216 277.802 450.894 279.097C451.695 280.391 452.065 281.87 452.188 283.473ZM450.586 288.651C450.894 287.11 451.017 285.692 450.894 284.213C450.771 282.795 450.401 281.501 449.846 280.329C449.291 279.158 448.551 278.295 447.688 277.617C446.825 277.001 445.839 276.692 444.791 276.631C443.743 276.631 442.572 276.939 441.339 277.555C441.216 277.617 441.093 277.679 440.969 277.74C439.86 278.357 438.75 279.281 437.579 280.514C436.285 281.87 435.237 283.35 434.497 284.891C433.696 286.432 433.141 287.973 432.833 289.452C432.524 290.994 432.401 292.411 432.524 293.829C432.648 295.247 433.017 296.541 433.572 297.713C434.127 298.884 434.867 299.747 435.73 300.425C436.593 301.041 437.579 301.35 438.627 301.411C439.675 301.473 440.846 301.103 442.079 300.487C442.202 300.425 442.326 300.363 442.449 300.302C443.558 299.685 444.668 298.699 445.839 297.466C447.134 296.11 448.182 294.631 448.921 293.089C449.723 291.672 450.277 290.192 450.586 288.651Z" fill="#C4D1E8"/>
<path d="M479.743 234.344L496.325 243.96L494.969 245.378L479.681 236.07L480.606 260.912L479.311 262.268L478.387 235.762L479.743 234.344Z" fill="#C4D1E8"/>
<path d="M419.148 299.747L427.963 317.685L426.792 319.041L417.977 301.041L419.148 299.747Z" fill="#C4D1E8"/>
<path d="M467.168 247.905L467.661 248.83L460.695 256.35L469.079 273.364L467.846 274.658L459.524 257.645L452.62 265.104L452.127 264.117L467.168 247.905Z" fill="#C4D1E8"/>
<path d="M410.518 325.082C410.394 325.267 410.21 325.39 410.086 325.452C410.025 325.514 409.963 325.514 409.901 325.514C409.408 325.699 409.038 325.514 408.977 324.959C408.977 324.836 408.977 324.712 408.977 324.527C409.038 323.849 409.531 323.11 410.086 322.801C410.148 322.74 410.21 322.74 410.271 322.74C410.888 322.493 411.319 322.925 411.196 323.726C411.134 324.096 411.011 324.466 410.764 324.836C410.641 324.897 410.579 325.021 410.518 325.082Z" fill="#C4D1E8"/>
<path d="M410.518 327.733C410.456 328.041 410.271 328.349 410.025 328.596C409.901 328.719 409.778 328.843 409.655 328.904C409.531 328.966 409.408 329.028 409.285 329.028C408.792 329.089 408.545 328.596 408.73 327.856C408.853 327.548 409.038 327.24 409.223 326.993C409.347 326.87 409.47 326.747 409.593 326.685C409.716 326.624 409.84 326.562 409.963 326.562C410.456 326.5 410.703 327.055 410.518 327.733Z" fill="#C4D1E8"/>
<path d="M409.285 319.226C409.408 319.041 409.593 318.918 409.716 318.857L409.778 318.795C410.456 318.425 411.073 318.672 411.134 319.473C411.196 320.089 410.826 320.891 410.333 321.384C410.21 321.507 410.025 321.63 409.901 321.754L409.84 321.815C409.223 322.185 408.668 322 408.545 321.322C408.545 321.261 408.545 321.199 408.545 321.137C408.484 320.521 408.792 319.719 409.285 319.226Z" fill="#C4D1E8"/>
<path d="M401.21 334.267C401.148 334.082 401.21 333.836 401.271 333.589C401.456 333.096 401.764 332.603 402.134 332.418C402.258 332.356 402.381 332.295 402.504 332.295C402.997 332.233 403.244 332.788 403.059 333.466C402.936 333.774 402.812 334.082 402.566 334.329C402.504 334.391 402.443 334.452 402.319 334.514C402.258 334.575 402.196 334.575 402.134 334.637C401.703 334.884 401.333 334.76 401.21 334.267Z" fill="#C4D1E8"/>
<path d="M402.073 336.116C402.134 336.363 402.073 336.61 401.949 336.918C401.764 337.288 401.518 337.534 401.271 337.719C401.086 337.842 400.963 337.842 400.778 337.842C400.593 337.781 400.47 337.657 400.408 337.411C400.347 337.041 400.532 336.486 400.901 336.116C401.025 335.993 401.148 335.931 401.21 335.87C401.395 335.747 401.518 335.747 401.703 335.747C401.888 335.747 402.011 335.932 402.073 336.116Z" fill="#C4D1E8"/>
<path d="M402.689 331.185C402.627 331.247 402.566 331.247 402.504 331.247C401.888 331.493 401.456 331.062 401.58 330.26C401.641 329.582 402.134 328.842 402.689 328.534C402.751 328.473 402.812 328.473 402.874 328.473C403.49 328.226 403.922 328.719 403.799 329.459C403.675 330.137 403.182 330.877 402.689 331.185Z" fill="#C4D1E8"/>
<path d="M403.49 335.623C403.552 335.562 403.614 335.438 403.675 335.377C403.737 335.253 403.86 335.192 403.922 335.13H403.984C404.353 334.945 404.662 335.13 404.662 335.623C404.662 335.87 404.6 336.116 404.415 336.301C404.353 336.425 404.292 336.486 404.23 336.548C404.169 336.61 404.107 336.671 404.045 336.671C403.984 336.733 403.984 336.733 403.922 336.733C403.614 336.918 403.306 336.794 403.244 336.486C403.182 336.24 403.306 335.932 403.49 335.623Z" fill="#C4D1E8"/>
<path d="M404.353 333.897C404.292 333.527 404.477 332.972 404.847 332.602C404.97 332.479 405.093 332.418 405.155 332.356C405.34 332.233 405.463 332.233 405.648 332.233C406.018 332.356 406.079 332.911 405.833 333.466C405.71 333.712 405.525 334.02 405.278 334.144C405.216 334.205 405.155 334.205 405.155 334.267C404.97 334.39 404.785 334.39 404.662 334.39C404.538 334.267 404.415 334.082 404.353 333.897Z" fill="#C4D1E8"/>
<path d="M405.771 335.5C405.895 335.377 405.956 335.315 406.079 335.253C406.326 335.13 406.511 335.13 406.634 335.315C406.696 335.438 406.758 335.623 406.696 335.808C406.634 335.993 406.573 336.24 406.388 336.424L406.326 336.486C406.264 336.548 406.141 336.609 406.079 336.671C405.895 336.794 405.648 336.794 405.525 336.609C405.525 336.548 405.463 336.486 405.463 336.424C405.401 336.178 405.525 335.746 405.771 335.5Z" fill="#C4D1E8"/>
<path d="M406.511 330.815C406.388 330.939 406.264 331.062 406.141 331.124C406.018 331.185 405.895 331.247 405.771 331.247C405.278 331.308 405.032 330.815 405.216 330.076C405.34 329.583 405.71 329.089 406.079 328.843C406.203 328.781 406.326 328.72 406.449 328.72C406.942 328.658 407.189 329.213 407.004 329.891C406.942 330.199 406.758 330.569 406.511 330.815Z" fill="#C4D1E8"/>
<path d="M407.066 327.301C407.004 327.363 406.881 327.486 406.819 327.548C406.758 327.609 406.696 327.671 406.634 327.671C406.079 327.979 405.648 327.794 405.525 327.24C405.525 327.116 405.525 326.993 405.525 326.808C405.586 326.13 406.079 325.39 406.634 325.082C406.696 325.02 406.758 325.021 406.819 325.021C407.127 324.897 407.374 324.959 407.559 325.144C407.744 325.329 407.805 325.637 407.744 326.007C407.682 326.377 407.559 326.746 407.312 327.116C407.189 327.116 407.127 327.24 407.066 327.301Z" fill="#C4D1E8"/>
<path d="M407.682 321.631C407.744 322.432 407.189 323.48 406.449 323.973L406.388 324.035C405.771 324.404 405.216 324.219 405.093 323.541C405.093 323.48 405.093 323.418 405.093 323.356C405.093 322.987 405.216 322.494 405.401 322.062C405.648 321.631 405.956 321.261 406.326 321.014C406.326 321.014 406.388 321.014 406.388 320.952C407.004 320.583 407.621 320.829 407.682 321.631Z" fill="#C4D1E8"/>
<path d="M404.538 317.377C404.6 317.315 404.662 317.253 404.723 317.192C404.847 317.068 405.032 316.945 405.155 316.883C405.771 316.514 406.326 316.637 406.573 317.13C406.942 317.808 406.573 319.103 405.771 319.904C405.71 319.966 405.648 320.027 405.586 320.089C405.463 320.212 405.278 320.336 405.155 320.397C404.908 320.521 404.662 320.644 404.415 320.582C404.045 320.582 403.799 320.335 403.675 319.966C403.675 319.904 403.675 319.842 403.614 319.781C403.552 319.041 403.922 318.055 404.538 317.377Z" fill="#C4D1E8"/>
<path d="M403.614 324.712C403.922 325.329 403.614 326.377 402.936 327.116C402.812 327.24 402.627 327.424 402.504 327.486L402.443 327.548C401.826 327.918 401.271 327.733 401.148 327.055C401.148 326.993 401.148 326.931 401.148 326.87C401.086 326.253 401.456 325.452 401.949 324.959C402.073 324.835 402.258 324.712 402.381 324.589L402.443 324.527C402.936 324.219 403.429 324.281 403.614 324.712Z" fill="#C4D1E8"/>
<path d="M401.21 320.397C401.395 320.274 401.518 320.212 401.703 320.212C402.134 320.151 402.566 320.335 402.689 320.829C402.751 321.014 402.751 321.198 402.751 321.445C402.751 321.877 402.566 322.37 402.319 322.863C402.196 323.109 402.011 323.294 401.826 323.479C401.764 323.541 401.703 323.602 401.641 323.664C401.518 323.787 401.333 323.911 401.21 323.972C401.025 324.096 400.901 324.157 400.717 324.157C400.408 324.219 400.162 324.157 399.915 323.972C399.792 323.849 399.73 323.726 399.669 323.603C399.669 323.541 399.607 323.479 399.607 323.418C399.484 322.863 399.669 322.185 400.1 321.568C400.223 321.383 400.347 321.137 400.532 321.014C400.593 320.952 400.655 320.89 400.717 320.829C400.963 320.582 401.086 320.459 401.21 320.397Z" fill="#C4D1E8"/>
<path d="M397.326 329.336C397.449 328.966 397.696 328.596 398.004 328.411C398.066 328.349 398.128 328.349 398.251 328.349C398.621 328.288 398.806 328.596 398.682 329.151C398.621 329.336 398.559 329.459 398.497 329.644C398.436 329.706 398.374 329.829 398.312 329.89C398.251 330.014 398.128 330.075 398.004 330.137C397.943 330.199 397.819 330.199 397.758 330.199C397.388 330.199 397.203 329.829 397.326 329.336Z" fill="#C4D1E8"/>
<path d="M397.326 341.417C397.265 341.479 397.203 341.602 397.141 341.664C397.018 341.787 396.895 341.911 396.771 341.972C396.463 342.157 396.155 342.157 395.97 341.972C395.662 341.664 395.723 340.924 396.155 340.308C396.217 340.185 396.278 340.123 396.34 340.061C396.463 339.938 396.586 339.815 396.71 339.753C396.833 339.691 396.956 339.63 397.018 339.63C397.203 339.63 397.326 339.63 397.449 339.753C397.881 340.061 397.758 340.801 397.326 341.417Z" fill="#C4D1E8"/>
<path d="M397.265 326.5C397.326 326.315 397.449 326.192 397.511 326.068C397.573 326.007 397.696 325.883 397.758 325.883C397.881 325.822 398.004 325.76 398.066 325.822C398.374 325.822 398.436 326.253 398.251 326.685C398.189 326.746 398.189 326.87 398.128 326.931C398.004 327.116 397.881 327.24 397.758 327.301C397.634 327.363 397.511 327.363 397.449 327.363C397.203 327.363 397.141 326.931 397.265 326.5Z" fill="#C4D1E8"/>
<path d="M398.806 330.877C398.806 330.877 398.867 330.877 398.867 330.815C399.052 330.692 399.299 330.753 399.422 330.815C399.73 331.062 399.669 331.678 399.36 332.233C399.237 332.479 398.991 332.664 398.806 332.788C398.806 332.788 398.744 332.788 398.744 332.849C398.312 333.096 397.943 332.788 398.004 332.233C398.004 331.863 398.251 331.493 398.497 331.185C398.559 331 398.682 330.938 398.806 330.877Z" fill="#C4D1E8"/>
<path d="M398.189 341.418C398.436 340.986 398.744 340.616 399.052 340.431C399.299 340.308 399.545 340.246 399.792 340.308C400.285 340.493 400.347 341.294 399.915 342.034C399.792 342.219 399.669 342.466 399.484 342.589C399.36 342.774 399.175 342.897 398.991 342.959C398.744 343.082 398.497 343.144 398.251 343.082C397.881 342.959 397.819 342.219 398.189 341.418Z" fill="#C4D1E8"/>
<path d="M397.943 317.439C398.004 317.377 398.066 317.315 398.128 317.254C398.374 317.007 398.621 316.822 398.867 316.699C399.484 316.329 400.1 316.391 400.47 316.822C400.963 317.5 400.655 318.98 399.792 320.028C399.73 320.089 399.669 320.151 399.607 320.213C399.36 320.459 399.114 320.644 398.867 320.829C398.251 321.199 397.634 321.137 397.265 320.706C397.141 320.582 397.08 320.397 397.08 320.151C396.895 319.288 397.265 318.24 397.943 317.439Z" fill="#C4D1E8"/>
<path d="M397.018 333.835C396.833 334.205 396.525 334.575 396.278 334.698C396.093 334.822 395.847 334.883 395.662 334.822C395.477 334.76 395.354 334.575 395.292 334.329C395.23 333.835 395.477 333.219 395.908 332.849C395.97 332.788 396.093 332.664 396.155 332.603C396.217 332.603 396.217 332.541 396.278 332.541C396.463 332.418 396.71 332.356 396.895 332.418C397.265 332.541 397.388 333.157 397.018 333.835Z" fill="#C4D1E8"/>
<path d="M395.415 327.055C395.477 326.808 395.6 326.561 395.785 326.315C395.847 326.192 395.97 326.13 396.093 326.068C396.155 326.007 396.217 326.007 396.278 326.007C396.463 325.945 396.586 326.007 396.71 326.192C396.771 326.315 396.833 326.562 396.771 326.808C396.648 327.178 396.402 327.609 396.093 327.733C396.032 327.794 395.97 327.794 395.847 327.794C395.662 327.856 395.539 327.794 395.415 327.609C395.354 327.486 395.354 327.301 395.415 327.055Z" fill="#C4D1E8"/>
<path d="M395.539 329.521C395.662 329.397 395.723 329.336 395.847 329.274C395.847 329.274 395.908 329.274 395.908 329.212C396.155 329.089 396.34 329.089 396.463 329.212C396.586 329.336 396.648 329.521 396.648 329.829C396.648 330.075 396.525 330.384 396.34 330.63C396.278 330.754 396.217 330.815 396.155 330.877C396.032 331 395.97 331.062 395.847 331.123L395.785 331.185C395.354 331.432 394.984 331.123 395.045 330.569C395.045 330.199 395.23 329.829 395.539 329.521Z" fill="#C4D1E8"/>
<path d="M395.23 338.52C395.354 338.459 395.415 338.397 395.539 338.397C395.723 338.335 395.908 338.459 396.032 338.644C396.217 339.013 396.032 339.692 395.6 340.123C395.477 340.246 395.415 340.308 395.292 340.37C394.984 340.555 394.676 340.555 394.491 340.246C394.306 339.876 394.491 339.198 394.922 338.767C394.984 338.705 395.107 338.582 395.23 338.52Z" fill="#C4D1E8"/>
<path d="M392.703 342.774C392.765 342.589 392.888 342.404 393.011 342.281C393.073 342.219 393.073 342.157 393.134 342.157C393.196 342.096 393.258 342.096 393.258 342.034C393.566 341.849 393.874 341.911 393.936 342.281C393.997 342.466 393.936 342.712 393.813 342.959C393.689 343.267 393.443 343.513 393.196 343.698C393.073 343.76 392.95 343.822 392.826 343.822C392.58 343.76 392.518 343.267 392.703 342.774Z" fill="#C4D1E8"/>
<path d="M392.456 337.473C392.271 336.979 392.518 336.055 393.073 335.5L393.134 335.438C393.258 335.315 393.381 335.192 393.504 335.13C393.936 334.884 394.367 334.945 394.552 335.377C394.737 335.808 394.614 336.425 394.244 337.041C394.182 337.164 394.059 337.288 393.997 337.411L393.936 337.473C393.813 337.596 393.689 337.719 393.566 337.781C393.073 337.966 392.641 337.904 392.456 337.473Z" fill="#C4D1E8"/>
<path d="M393.443 344.746C393.504 344.438 393.689 344.192 393.874 343.945V343.883C393.997 343.76 394.059 343.698 394.182 343.637C394.306 343.575 394.367 343.575 394.491 343.513C394.676 343.513 394.86 343.575 394.984 343.76C395.169 344.13 394.984 344.808 394.614 345.239C394.491 345.363 394.429 345.424 394.306 345.486C393.997 345.671 393.689 345.671 393.504 345.363C393.381 345.301 393.381 344.993 393.443 344.746Z" fill="#C4D1E8"/>
<path d="M393.628 327.24C393.751 327.116 393.813 327.055 393.936 326.993C393.936 326.993 393.997 326.993 393.997 326.932C394.429 326.747 394.799 326.993 394.737 327.548C394.737 327.795 394.614 328.103 394.429 328.349C394.367 328.473 394.306 328.534 394.244 328.596C394.121 328.719 393.997 328.781 393.874 328.843C393.874 328.843 393.813 328.842 393.813 328.904C393.381 329.089 393.011 328.842 393.073 328.288C393.134 327.918 393.381 327.548 393.628 327.24Z" fill="#C4D1E8"/>
<path d="M393.196 331C393.258 331 393.258 330.938 393.319 330.938C393.504 330.815 393.751 330.753 393.874 330.815C394.059 330.877 394.244 331.062 394.244 331.308C394.306 331.863 393.936 332.664 393.443 333.034C393.381 333.096 393.381 333.096 393.319 333.096C392.826 333.342 392.456 333.219 392.333 332.664C392.271 332.233 392.518 331.555 392.888 331.123C393.011 331.123 393.134 331.062 393.196 331Z" fill="#C4D1E8"/>
<path d="M391.1 328.904C391.162 328.842 391.285 328.781 391.347 328.719C391.408 328.657 391.408 328.657 391.47 328.657C391.778 328.472 392.025 328.472 392.21 328.657C392.58 328.904 392.518 329.644 392.087 330.322C391.963 330.507 391.778 330.692 391.593 330.877C391.532 330.938 391.532 330.938 391.47 330.938C390.977 331.185 390.607 331.061 390.484 330.507C390.422 329.952 390.669 329.335 391.1 328.904Z" fill="#C4D1E8"/>
<path d="M390.176 333.836C390.299 333.712 390.422 333.589 390.545 333.527C390.73 333.466 390.854 333.404 390.977 333.404C391.1 333.404 391.224 333.404 391.347 333.466C391.47 333.527 391.532 333.651 391.593 333.774C391.778 334.267 391.532 335.192 390.977 335.747L390.915 335.808C390.792 335.932 390.669 336.055 390.545 336.116C390.299 336.24 390.114 336.301 389.929 336.24C389.744 336.178 389.559 336.055 389.498 335.87C389.436 335.747 389.436 335.562 389.436 335.438C389.436 335.253 389.498 335.069 389.498 334.884C389.621 334.575 389.867 334.205 390.176 333.836Z" fill="#C4D1E8"/>
<path d="M388.265 331.616C388.45 331.431 388.573 331.308 388.696 331.246C388.881 331.185 389.004 331.123 389.189 331.123C389.436 331.123 389.682 331.246 389.806 331.493C390.052 332.048 389.744 332.972 389.128 333.527C389.004 333.65 388.881 333.774 388.758 333.835C388.326 334.082 387.895 334.02 387.71 333.589C387.402 333.096 387.71 332.171 388.265 331.616Z" fill="#C4D1E8"/>
<path d="M387.648 337.226C388.018 336.979 388.388 336.979 388.635 337.164C389.128 337.534 389.066 338.52 388.511 339.383C388.45 339.445 388.45 339.506 388.388 339.568C388.326 339.691 388.265 339.753 388.203 339.815C388.018 340 387.833 340.123 387.71 340.246C387.217 340.554 386.724 340.493 386.477 340C386.169 339.383 386.477 338.335 387.155 337.596C387.278 337.472 387.463 337.287 387.648 337.226Z" fill="#C4D1E8"/>
<path d="M385.059 335.623C385.306 335.315 385.552 335.13 385.799 334.945C386.23 334.698 386.662 334.698 386.908 335.007C387.34 335.438 387.155 336.486 386.539 337.287C386.292 337.596 386.045 337.842 385.799 337.966C385.367 338.212 384.936 338.212 384.689 337.904C384.258 337.411 384.443 336.424 385.059 335.623Z" fill="#C4D1E8"/>
<path d="M383.765 343.205C384.073 342.65 384.504 342.219 384.874 342.034C385.244 341.787 385.614 341.726 385.922 341.911C386.539 342.219 386.6 343.328 385.984 344.376C385.922 344.438 385.922 344.5 385.861 344.623C385.737 344.808 385.614 344.931 385.491 345.116C385.306 345.301 385.059 345.486 384.874 345.609C384.504 345.856 384.135 345.856 383.826 345.732C383.21 345.363 383.148 344.253 383.765 343.205Z" fill="#C4D1E8"/>
<path d="M386.539 352.513C386.23 353.007 385.799 353.438 385.367 353.623C384.874 353.931 384.32 353.993 384.011 353.685C383.333 353.192 383.457 351.835 384.196 350.664C384.32 350.479 384.504 350.294 384.628 350.109C384.874 349.863 385.121 349.678 385.367 349.555C385.676 349.37 385.984 349.308 386.292 349.308C386.477 349.308 386.662 349.37 386.785 349.493C387.402 349.924 387.34 351.342 386.539 352.513Z" fill="#C4D1E8"/>
<path d="M388.943 345.918C388.881 345.979 388.881 346.041 388.819 346.164C388.696 346.349 388.573 346.534 388.45 346.657C388.265 346.842 388.08 347.027 387.895 347.15C387.895 347.15 387.895 347.15 387.833 347.15C386.97 347.644 386.292 347.274 386.292 346.288C386.292 345.794 386.415 345.301 386.724 344.808C386.847 344.561 387.032 344.315 387.217 344.13C387.402 343.945 387.648 343.76 387.833 343.637C388.203 343.39 388.573 343.329 388.881 343.514C389.189 343.637 389.374 344.007 389.374 344.5C389.374 344.931 389.189 345.424 388.943 345.918Z" fill="#C4D1E8"/>
<path d="M389.621 341.911C389.128 341.541 389.251 340.555 389.806 339.692C390.052 339.322 390.36 339.014 390.669 338.829C391.039 338.582 391.408 338.582 391.655 338.767C392.148 339.137 392.025 340.123 391.47 340.986C391.408 341.048 391.408 341.109 391.347 341.171C391.285 341.233 391.223 341.356 391.162 341.418C390.977 341.603 390.792 341.726 390.607 341.849C390.237 342.034 389.867 342.096 389.621 341.911Z" fill="#C4D1E8"/>
<path d="M390.73 345.856C390.73 345.794 390.73 345.733 390.792 345.609C390.854 345.239 391.1 344.931 391.347 344.808C391.408 344.746 391.47 344.746 391.532 344.746C391.717 344.746 391.84 344.808 391.902 344.931C392.025 345.178 391.902 345.671 391.593 346.041C391.532 346.102 391.408 346.164 391.347 346.226C391.162 346.287 391.039 346.349 390.915 346.226C390.792 346.226 390.73 346.041 390.73 345.856Z" fill="#C4D1E8"/>
<path d="M391.039 347.952C390.977 347.582 391.162 346.966 391.593 346.657C391.655 346.596 391.655 346.596 391.717 346.534C392.025 346.349 392.333 346.473 392.395 346.781C392.456 347.151 392.21 347.767 391.84 348.075C391.778 348.137 391.778 348.137 391.717 348.137C391.408 348.384 391.1 348.26 391.039 347.952Z" fill="#C4D1E8"/>
<path d="M392.95 349.801C392.826 349.924 392.765 349.986 392.641 350.048C392.333 350.233 392.025 350.233 391.84 349.924C391.717 349.739 391.717 349.493 391.84 349.185C391.902 348.876 392.087 348.63 392.271 348.383C392.395 348.26 392.456 348.198 392.58 348.137C392.703 348.075 392.765 348.075 392.888 348.013C393.073 347.952 393.258 348.075 393.381 348.26C393.566 348.63 393.381 349.308 392.95 349.801Z" fill="#C4D1E8"/>
<path d="M394.799 351.034C394.737 351.096 394.676 351.219 394.614 351.281C394.491 351.404 394.367 351.527 394.244 351.589C393.936 351.774 393.628 351.774 393.443 351.65C393.134 351.342 393.196 350.603 393.628 349.986C393.689 349.863 393.751 349.801 393.813 349.739C393.936 349.616 394.059 349.493 394.182 349.431C394.306 349.37 394.429 349.308 394.491 349.308C394.676 349.308 394.799 349.308 394.922 349.431C395.292 349.678 395.23 350.418 394.799 351.034Z" fill="#C4D1E8"/>
<path d="M394.984 347.151C394.799 347.027 394.737 346.781 394.799 346.411C394.799 346.349 394.799 346.226 394.86 346.164C394.984 345.61 395.354 345.116 395.785 344.932C395.908 344.87 396.032 344.808 396.093 344.808C396.278 344.808 396.402 344.808 396.525 344.932C396.833 345.24 396.771 345.98 396.34 346.596C396.278 346.658 396.217 346.781 396.155 346.843C396.032 346.966 395.908 347.089 395.785 347.151C395.477 347.336 395.169 347.336 394.984 347.151Z" fill="#C4D1E8"/>
<path d="M397.326 351.651C397.203 351.835 397.08 352.082 396.895 352.267C396.771 352.452 396.586 352.575 396.463 352.637C396.217 352.76 395.97 352.822 395.723 352.76C395.477 352.698 395.354 352.452 395.292 352.144C395.292 351.835 395.354 351.404 395.539 351.034C395.785 350.603 396.093 350.233 396.402 350.048C396.525 349.986 396.648 349.924 396.771 349.924C396.895 349.924 397.018 349.924 397.08 349.924C397.696 350.109 397.758 350.911 397.326 351.651Z" fill="#C4D1E8"/>
<path d="M397.326 348.321C397.08 348.26 396.956 348.013 396.895 347.705C396.833 347.397 396.956 346.965 397.141 346.595C397.265 346.349 397.388 346.164 397.573 345.979C397.696 345.856 397.881 345.671 398.004 345.609C398.128 345.548 398.251 345.486 398.374 345.486C398.497 345.486 398.621 345.486 398.682 345.486C399.175 345.671 399.237 346.411 398.867 347.212C398.744 347.397 398.621 347.643 398.436 347.767C398.312 347.952 398.128 348.075 398.004 348.137C397.819 348.322 397.573 348.383 397.326 348.321Z" fill="#C4D1E8"/>
<path d="M400.778 351.342C400.655 351.712 400.408 352.143 400.162 352.452C399.977 352.637 399.792 352.76 399.607 352.883C399.422 353.006 399.237 353.068 399.052 353.068C398.374 353.068 398.128 352.328 398.436 351.404C398.682 350.726 399.114 350.171 399.607 349.863C399.73 349.801 399.915 349.739 400.038 349.678C400.1 349.678 400.1 349.678 400.162 349.678C400.84 349.678 401.086 350.417 400.778 351.342Z" fill="#C4D1E8"/>
<path d="M402.381 346.842C402.258 347.212 402.011 347.643 401.703 347.952C401.518 348.137 401.333 348.26 401.21 348.383C401.025 348.506 400.778 348.568 400.593 348.568C400.285 348.568 400.1 348.445 399.977 348.198C399.669 347.582 399.977 346.534 400.655 345.794C400.84 345.609 401.025 345.486 401.148 345.363C401.271 345.301 401.456 345.239 401.58 345.178C401.641 345.178 401.641 345.178 401.703 345.178C402.443 345.178 402.689 345.917 402.381 346.842Z" fill="#C4D1E8"/>
<path d="M402.751 342.835C402.566 343.02 402.381 343.144 402.196 343.267C402.011 343.39 401.826 343.452 401.641 343.452C400.963 343.452 400.717 342.712 401.025 341.787C401.271 341.109 401.703 340.555 402.196 340.246C402.319 340.185 402.504 340.123 402.627 340.061C402.689 340.061 402.689 340.061 402.751 340.061C403.059 340.061 403.244 340.185 403.367 340.431C403.675 341.048 403.367 342.096 402.751 342.835Z" fill="#C4D1E8"/>
<path d="M406.696 345.239C406.573 345.733 406.388 346.287 406.018 346.719C405.771 347.027 405.463 347.274 405.216 347.459C404.723 347.767 404.169 347.767 403.922 347.397C403.49 346.842 403.675 345.609 404.415 344.685C404.477 344.623 404.538 344.5 404.6 344.438C404.785 344.253 405.032 344.068 405.216 343.945C405.34 343.883 405.463 343.822 405.586 343.76C405.648 343.76 405.71 343.76 405.771 343.698C406.449 343.575 406.881 344.253 406.696 345.239Z" fill="#C4D1E8"/>
<path d="M407.682 340.062C407.559 340.555 407.374 341.109 407.004 341.541C406.942 341.603 406.881 341.664 406.819 341.788C406.634 341.973 406.388 342.158 406.203 342.281C405.71 342.589 405.155 342.589 404.908 342.219C404.662 341.973 404.6 341.479 404.723 340.986C404.723 340.925 404.785 340.801 404.785 340.74C405.032 339.877 405.586 339.137 406.203 338.767C406.388 338.644 406.573 338.582 406.758 338.582C407.436 338.459 407.867 339.075 407.682 340.062Z" fill="#C4D1E8"/>
<path d="M407.867 334.082C407.744 334.267 407.621 334.39 407.497 334.452C407.436 334.514 407.436 334.514 407.374 334.514C407.004 334.699 406.696 334.637 406.696 334.267C406.634 334.021 406.758 333.651 406.942 333.404C407.004 333.342 407.066 333.219 407.127 333.158C407.189 333.034 407.312 332.973 407.436 332.911H407.497C407.682 332.788 407.867 332.788 407.99 332.911C408.114 332.973 408.175 333.157 408.175 333.404C408.114 333.651 407.99 333.897 407.867 334.082Z" fill="#C4D1E8"/>
<path d="M408.792 331.925C408.73 331.987 408.73 331.986 408.668 331.986C408.299 332.233 407.929 332.11 407.867 331.678C407.805 331.308 407.99 330.754 408.36 330.384C408.484 330.261 408.607 330.199 408.668 330.137C408.853 330.014 408.977 330.014 409.162 330.014C409.531 330.076 409.593 330.692 409.347 331.247C409.285 331.432 409.162 331.617 408.977 331.74C408.915 331.802 408.853 331.863 408.792 331.925Z" fill="#C4D1E8"/>
<path d="M411.751 339.26C411.504 339.507 411.257 339.692 411.073 339.815C410.888 339.938 410.641 340 410.456 340.061C409.963 340.123 409.593 339.938 409.408 339.568C408.977 338.767 409.408 337.287 410.333 336.301C410.518 336.055 410.764 335.87 411.011 335.746C411.011 335.746 411.011 335.746 411.073 335.746C411.257 335.623 411.504 335.562 411.689 335.5C412.182 335.438 412.552 335.623 412.737 335.993C413.045 336.794 412.675 338.274 411.751 339.26Z" fill="#C4D1E8"/>
<path d="M385.416 256.773C401.916 257.553 416.15 253.111 420.852 244.754C426.483 232.338 393.582 226.332 386.688 226.006C376.622 225.531 346.545 226.306 352.222 242.106C355.501 251.234 367.748 255.938 385.416 256.773Z" fill="#9AADCE"/>
<path d="M387.153 224.337C369.065 223.382 353.21 228.68 351.635 236.627C349.954 245.143 365.095 253.377 385.563 254.457C406.031 255.538 421.98 248.946 421.18 240.299C420.451 232.23 405.241 225.292 387.153 224.337Z" fill="url(#paint2_linear)"/>
<path d="M369.495 214.276C349.776 218.185 333.236 209.988 331.679 200.57C327.725 182.661 342.671 171.204 362.389 167.295C377.95 164.211 391.889 166.953 398.664 176.678C400.475 179.276 401.251 180.469 401.806 183.54C403.74 194.242 391.193 209.975 369.495 214.276Z" fill="#9AADCE"/>
<ellipse cx="366.11" cy="189.276" rx="23.3883" ry="35.3885" transform="rotate(76.8427 366.11 189.276)" fill="url(#paint3_linear)"/>
<path d="M341.844 158.773C323.597 170.099 304.203 170.298 296.094 156.726C289.17 143.523 297.582 125.587 315.829 114.261C330.229 105.324 345.199 102.823 355.632 109.998C358.42 111.916 360.201 114.579 361.91 117.441C367.87 127.415 360.091 147.447 341.844 158.773Z" fill="#9AADCE"/>
<ellipse cx="327.817" cy="134.84" rx="24.9876" ry="37.8082" transform="rotate(56.2281 327.817 134.84)" fill="url(#paint4_linear)"/>
<path d="M264.479 66.9671C248.581 73.882 235.119 90.3624 237.284 107.245C238.155 113.978 240.593 118.217 244.678 122.682C247.1 125.33 251.03 128.241 254.265 129.782C260.197 132.609 267.295 133.379 274.828 131.384C295.182 125.991 308.486 103.546 303.119 83.2881C301.317 76.4846 300.067 73.6894 295.348 70.0082C291.94 67.3497 286.929 63.1031 282.665 62.2458C276.576 61.0218 270.934 64.1603 264.479 66.9671Z" fill="#9AADCE"/>
<path d="M260.432 62.3202C244.533 69.2351 234.171 87.3814 236.336 104.264C238.67 122.313 254.596 134.199 273.162 129.28C293.516 123.888 306.82 101.442 301.453 81.1846C296.49 62.4526 277.668 54.8256 260.432 62.3202Z" fill="url(#paint5_linear)"/>
<defs>
<linearGradient id="paint0_linear" x1="395" y1="72.2002" x2="395" y2="475" gradientUnits="userSpaceOnUse">
<stop stop-color="#B7DCFF"/>
<stop offset="1" stop-color="#87C5FF"/>
</linearGradient>
<linearGradient id="paint1_linear" x1="513.66" y1="315.549" x2="454.01" y2="291.951" gradientUnits="userSpaceOnUse">
<stop stop-color="#FDFDFF"/>
<stop offset="1" stop-color="#F1F5FE"/>
</linearGradient>
<linearGradient id="paint2_linear" x1="421.201" y1="241.237" x2="351.517" y2="237.558" gradientUnits="userSpaceOnUse">
<stop stop-color="#C4DAF2"/>
<stop offset="1" stop-color="#ECF5FE"/>
</linearGradient>
<linearGradient id="paint3_linear" x1="366.11" y1="153.888" x2="366.11" y2="224.664" gradientUnits="userSpaceOnUse">
<stop stop-color="#C4DAF2"/>
<stop offset="1" stop-color="#ECF5FE"/>
</linearGradient>
<linearGradient id="paint4_linear" x1="327.817" y1="97.0318" x2="327.817" y2="172.648" gradientUnits="userSpaceOnUse">
<stop stop-color="#C4DAF2"/>
<stop offset="1" stop-color="#ECF5FE"/>
</linearGradient>
<linearGradient id="paint5_linear" x1="302.746" y1="86.0656" x2="235.907" y2="103.773" gradientUnits="userSpaceOnUse">
<stop stop-color="#C4DAF2"/>
<stop offset="1" stop-color="#ECF5FE"/>
</linearGradient>
</defs>
</svg>
