<svg width="754" height="357" viewBox="0 0 754 357" fill="none" xmlns="http://www.w3.org/2000/svg">
<path d="M465.163 29.6673C472.479 31.3849 474.974 40.5737 469.44 45.7007L442.932 70.2937C438.316 74.5512 430.929 73.249 428.13 67.5992L410.739 32.7007C407.204 25.6003 413.504 17.4833 421.354 19.3344L465.163 29.6673Z" fill="#108CFF"/>
<rect x="193.656" y="44.3477" width="401.581" height="296.791" rx="96" fill="#E3EEFE"/>
<path d="M211.152 319.826C209.386 320.885 207.094 320.254 206.495 318.292C205.603 315.236 205.444 311.912 206.351 308.74C207.599 304.38 210.468 300.609 214.46 298.295C218.452 295.981 223.106 295.32 227.517 296.481C230.738 297.301 233.546 299.038 235.694 301.317C237.126 302.837 236.496 305.129 234.643 306.137C232.877 307.196 230.635 306.479 229.053 305.22C228.027 304.396 226.851 303.833 225.526 303.529C223.01 302.886 220.342 303.308 218.029 304.513C215.754 305.855 214.057 307.993 213.413 310.508C213.023 311.784 212.943 313.123 213.136 314.389C213.498 316.562 212.868 318.853 211.152 319.826Z" fill="#FFAB49"/>
<path d="M579.763 327.062C589.877 321.246 589.877 306.665 579.848 300.85L545.966 281.043C536.358 275.396 524.137 281.718 523.21 292.843L519.586 334.31C518.49 346.531 531.638 354.875 542.258 348.806L579.763 327.062Z" fill="#FFCA62"/>
<path opacity="0.3" fill-rule="evenodd" clip-rule="evenodd" d="M471.621 152.673V154.26H507.064C511.332 152.969 515.859 152.274 520.548 152.274L749.032 152.274C751.254 152.274 753.056 154.076 753.056 156.298V241.226C753.056 243.448 751.254 245.249 749.032 245.249L520.548 245.249C515.86 245.249 511.334 244.555 507.067 243.265H281.119C277.045 243.265 273.743 239.962 273.743 235.888V218.925H218.706C210.632 218.925 203.669 214.145 200.466 207.268C200.45 207.269 200.433 207.27 200.416 207.271C200.4 207.272 200.383 207.272 200.367 207.272H179.921C179.18 207.272 178.58 206.671 178.58 205.931L178.58 204.232H0.0585938V193.292H178.58L178.58 191.595C178.58 190.854 179.18 190.253 179.921 190.253H200.367C200.4 190.253 200.433 190.255 200.466 190.257C203.669 183.38 210.632 178.6 218.706 178.6H273.743V161.636C273.743 157.563 277.045 154.26 281.119 154.26H305.741V152.673C305.741 150.451 307.543 148.649 309.765 148.649H340.26C342.482 148.649 344.284 150.451 344.284 152.673V154.26H433.078V152.673C433.078 150.451 434.88 148.649 437.102 148.649H467.597C469.82 148.649 471.621 150.451 471.621 152.673ZM544.559 199.877C544.559 204.879 543.038 209.526 540.434 213.38C536.094 219.804 528.745 224.027 520.409 224.027C512.581 224.027 505.622 220.302 501.209 214.528C498.104 210.465 496.259 205.387 496.259 199.876C496.259 193.208 498.962 187.171 503.332 182.801C507.703 178.43 513.74 175.727 520.409 175.727C527.942 175.727 534.669 179.176 539.098 184.581C541.531 187.55 543.27 191.109 544.068 195.01C544.39 196.582 544.559 198.21 544.559 199.877Z" fill="#B0BFD9"/>
<path d="M207.708 185.846C207.708 185.105 207.108 184.505 206.367 184.505H185.921C185.181 184.505 184.58 185.105 184.58 185.846V200.182C184.58 200.923 185.181 201.523 185.921 201.523H206.367C207.108 201.523 207.708 200.923 207.708 200.182V185.846Z" fill="url(#paint0_linear)"/>
<path d="M279.742 172.852H224.706C213.595 172.852 204.589 181.903 204.589 193.014V193.014C204.589 204.125 213.595 213.177 224.706 213.177H279.742V172.852Z" fill="url(#paint1_linear)"/>
<path d="M0.0585938 187.577H184.534V198.577H0.0585938V187.577Z" fill="url(#paint2_linear)"/>
<path d="M439.078 148.512H477.621V146.925C477.621 144.702 475.819 142.901 473.597 142.901H443.102C440.88 142.901 439.078 144.702 439.078 146.925V148.512Z" fill="white"/>
<path d="M311.741 148.512H350.284V146.925C350.284 144.702 348.482 142.901 346.26 142.901H315.765C313.543 142.901 311.741 144.702 311.741 146.925V148.512Z" fill="white"/>
<path fill-rule="evenodd" clip-rule="evenodd" d="M287.119 148.512C283.045 148.512 279.742 151.814 279.742 155.888V230.14C279.742 234.214 283.045 237.516 287.119 237.516H565.625C569.699 237.516 573.001 234.214 573.001 230.14V155.888C573.001 151.814 569.699 148.512 565.625 148.512H287.119ZM526.409 218.279C539.747 218.279 550.559 207.466 550.559 194.129C550.559 180.791 539.747 169.979 526.409 169.979C513.071 169.979 502.259 180.791 502.259 194.129C502.259 207.466 513.071 218.279 526.409 218.279Z" fill="url(#paint3_linear)"/>
<path fill-rule="evenodd" clip-rule="evenodd" d="M527.033 146.576C501.352 146.576 480.533 167.395 480.533 193.076C480.533 218.757 501.352 239.576 527.033 239.576H746.681C749.995 239.576 752.681 236.89 752.681 233.576V152.576C752.681 149.262 749.995 146.576 746.681 146.576H527.033ZM526.409 218.278C539.746 218.278 550.559 207.465 550.559 194.128C550.559 180.79 539.746 169.978 526.409 169.978C513.071 169.978 502.259 180.79 502.259 194.128C502.259 207.465 513.071 218.278 526.409 218.278Z" fill="white"/>
<rect x="324.924" y="168.646" width="139.046" height="48.1942" rx="4.41186" fill="#57AEFF"/>
<rect x="333.53" y="194.288" width="1.29313" height="1.29313" transform="rotate(-180 333.53 194.288)" fill="white"/>
<rect x="335.562" y="196.542" width="1.29313" height="1.29313" transform="rotate(-180 335.562 196.542)" fill="white"/>
<rect width="1.29313" height="1.29313" transform="matrix(-1 -8.74228e-08 -8.74228e-08 1 335.562 190.779)" fill="white"/>
<rect x="337.595" y="198.279" width="1.29313" height="1.29313" transform="rotate(-180 337.595 198.279)" fill="white"/>
<rect width="1.29313" height="1.29313" transform="matrix(-1 -8.74228e-08 -8.74228e-08 1 337.595 189.042)" fill="white"/>
<rect x="339.626" y="200.126" width="1.29313" height="1.29313" transform="rotate(-180 339.626 200.126)" fill="white"/>
<rect width="1.29313" height="1.29313" transform="matrix(-1 -8.74228e-08 -8.74228e-08 1 339.627 187.195)" fill="white"/>
<rect width="1.29313" height="1.29313" transform="matrix(1 -8.74228e-08 -8.74228e-08 -1 453.665 194.288)" fill="white"/>
<rect width="1.29313" height="1.29313" transform="matrix(1 -8.74228e-08 -8.74228e-08 -1 451.633 196.542)" fill="white"/>
<rect x="451.633" y="190.779" width="1.29313" height="1.29313" fill="white"/>
<rect width="1.29313" height="1.29313" transform="matrix(1 -8.74228e-08 -8.74228e-08 -1 449.601 198.279)" fill="white"/>
<rect x="449.601" y="189.042" width="1.29313" height="1.29313" fill="white"/>
<rect width="1.29313" height="1.29313" transform="matrix(1 -8.74228e-08 -8.74228e-08 -1 447.569 200.126)" fill="white"/>
<rect x="447.569" y="187.195" width="1.29313" height="1.29313" fill="white"/>
<path d="M364.538 204.833H365.667V199.592H364.538V204.833ZM367.903 204.833H369.024V201.446L371.549 204.833H372.678V199.592H371.549V202.979L369.024 199.592H367.903V204.833ZM376.892 204.924C378.174 204.924 378.929 204.261 378.929 203.261C378.929 202.292 378.181 201.957 377.052 201.705C376.244 201.522 375.931 201.4 375.931 201.018C375.931 200.706 376.221 200.454 376.701 200.454C377.205 200.454 377.731 200.66 378.196 201.034L378.784 200.225C378.25 199.767 377.586 199.5 376.732 199.5C375.588 199.5 374.794 200.164 374.794 201.133C374.794 202.147 375.58 202.46 376.686 202.712C377.487 202.895 377.792 203.009 377.792 203.383C377.792 203.711 377.502 203.971 376.938 203.971C376.274 203.971 375.71 203.711 375.214 203.284L374.565 204.055C375.176 204.619 375.984 204.924 376.892 204.924ZM382.238 204.833H383.367V200.607H384.999V199.592H380.606V200.607H382.238V204.833ZM390.346 204.833H391.613L389.477 199.592H388.218L386.082 204.833H387.341L387.676 204.009H390.011L390.346 204.833ZM388.065 203.055L388.843 201.141L389.622 203.055H388.065ZM394.465 203.818V199.592H393.336V204.833H397.074V203.818H394.465ZM400.035 203.818V199.592H398.906V204.833H402.643V203.818H400.035ZM411.633 204.833H412.899L410.763 199.592H409.504L407.368 204.833H408.627L408.963 204.009H411.297L411.633 204.833ZM409.352 203.055L410.13 201.141L410.908 203.055H409.352ZM414.661 204.833H415.782V203.132H417.018C418.155 203.132 418.994 202.399 418.994 201.362C418.994 200.324 418.155 199.592 417.018 199.592H414.661V204.833ZM415.782 202.102V200.622H416.896C417.453 200.622 417.834 200.912 417.834 201.362C417.834 201.812 417.453 202.102 416.896 202.102H415.782ZM420.841 204.833H421.962V203.132H423.198C424.335 203.132 425.174 202.399 425.174 201.362C425.174 200.324 424.335 199.592 423.198 199.592H420.841V204.833ZM421.962 202.102V200.622H423.076C423.633 200.622 424.014 200.912 424.014 201.362C424.014 201.812 423.633 202.102 423.076 202.102H421.962Z" fill="white"/>
<path fill-rule="evenodd" clip-rule="evenodd" d="M389.508 179.394V180.428H388.474V181.463H387.439V191.808H388.474V192.842H389.508V193.877H399.853V192.842H400.888V191.808H401.922V181.463H400.888V180.428H399.853V179.394H389.508ZM397.784 182.497V181.463H391.577V182.497H393.646V185.601H392.612V186.635H393.646V187.67H392.612V188.704H393.646V190.773H391.577V191.808H397.784V190.773H395.715V188.704H396.75V187.67H395.715V186.635H396.75V185.601H395.715V182.497L397.784 182.497Z" fill="#FAFCFE"/>
<rect x="458.518" y="133.468" width="2.64163" height="2.64163" transform="rotate(90 458.518 133.468)" fill="#108CFF"/>
<rect x="458.518" y="129.486" width="2.64163" height="2.64163" transform="rotate(90 458.518 129.486)" fill="#108CFF"/>
<rect x="458.518" y="125.504" width="2.64163" height="2.64163" transform="rotate(90 458.518 125.504)" fill="#108CFF"/>
<rect x="458.518" y="121.522" width="2.64163" height="2.64163" transform="rotate(90 458.518 121.522)" fill="#108CFF"/>
<rect x="458.518" y="117.541" width="2.64163" height="2.64163" transform="rotate(90 458.518 117.541)" fill="#108CFF"/>
<rect x="458.518" y="113.559" width="2.64163" height="2.64163" transform="rotate(90 458.518 113.559)" fill="#108CFF"/>
<rect x="458.518" y="109.577" width="2.64163" height="2.64163" transform="rotate(90 458.518 109.577)" fill="#108CFF"/>
<rect x="463.121" y="129.316" width="2.64163" height="2.64163" transform="rotate(90 463.121 129.316)" fill="#108CFF"/>
<rect width="2.64163" height="2.64163" transform="matrix(-4.37114e-08 1 1 4.37114e-08 451.349 129.316)" fill="#108CFF"/>
<rect x="466.67" y="125.165" width="2.64163" height="2.64163" transform="rotate(90 466.67 125.165)" fill="#108CFF"/>
<rect width="2.64163" height="2.64163" transform="matrix(-4.37114e-08 1 1 4.37114e-08 447.801 125.165)" fill="#108CFF"/>
<rect x="470.443" y="121.014" width="2.64163" height="2.64163" transform="rotate(90 470.443 121.014)" fill="#108CFF"/>
<rect width="2.64163" height="2.64163" transform="matrix(-4.37114e-08 1 1 4.37114e-08 444.027 121.014)" fill="#108CFF"/>
<rect x="333.049" y="133.468" width="2.64163" height="2.64163" transform="rotate(90 333.049 133.468)" fill="#108CFF"/>
<rect x="333.049" y="129.486" width="2.64163" height="2.64163" transform="rotate(90 333.049 129.486)" fill="#108CFF"/>
<rect x="333.049" y="125.504" width="2.64163" height="2.64163" transform="rotate(90 333.049 125.504)" fill="#108CFF"/>
<rect x="333.049" y="121.522" width="2.64163" height="2.64163" transform="rotate(90 333.049 121.522)" fill="#108CFF"/>
<rect x="333.049" y="117.541" width="2.64163" height="2.64163" transform="rotate(90 333.049 117.541)" fill="#108CFF"/>
<rect x="333.049" y="113.559" width="2.64163" height="2.64163" transform="rotate(90 333.049 113.559)" fill="#108CFF"/>
<rect x="333.049" y="109.577" width="2.64163" height="2.64163" transform="rotate(90 333.049 109.577)" fill="#108CFF"/>
<rect x="337.653" y="129.316" width="2.64163" height="2.64163" transform="rotate(90 337.653 129.316)" fill="#108CFF"/>
<rect width="2.64163" height="2.64163" transform="matrix(-4.37114e-08 1 1 4.37114e-08 325.88 129.316)" fill="#108CFF"/>
<rect x="341.201" y="125.165" width="2.64163" height="2.64163" transform="rotate(90 341.201 125.165)" fill="#108CFF"/>
<rect width="2.64163" height="2.64163" transform="matrix(-4.37114e-08 1 1 4.37114e-08 322.332 125.165)" fill="#108CFF"/>
<rect x="344.975" y="121.014" width="2.64163" height="2.64163" transform="rotate(90 344.975 121.014)" fill="#108CFF"/>
<rect width="2.64163" height="2.64163" transform="matrix(-4.37114e-08 1 1 4.37114e-08 318.558 121.014)" fill="#108CFF"/>
<defs>
<linearGradient id="paint0_linear" x1="185.411" y1="191.843" x2="207.459" y2="191.843" gradientUnits="userSpaceOnUse">
<stop stop-color="white"/>
<stop offset="1" stop-color="#E4EBFA"/>
</linearGradient>
<linearGradient id="paint1_linear" x1="208.207" y1="195.58" x2="280.33" y2="195.58" gradientUnits="userSpaceOnUse">
<stop stop-color="white"/>
<stop offset="1" stop-color="#E4EBFA"/>
</linearGradient>
<linearGradient id="paint2_linear" x1="92.2962" y1="187.577" x2="204.013" y2="187.577" gradientUnits="userSpaceOnUse">
<stop stop-color="white"/>
<stop offset="1" stop-color="#E4EBFA"/>
</linearGradient>
<linearGradient id="paint3_linear" x1="426.372" y1="148.512" x2="426.372" y2="238.325" gradientUnits="userSpaceOnUse">
<stop stop-color="white"/>
<stop offset="1" stop-color="#F0F5FE"/>
</linearGradient>
</defs>
</svg>
