<svg width="634" height="342" viewBox="0 0 634 342" fill="none" xmlns="http://www.w3.org/2000/svg">
<g clip-path="url(#clip0)">
<path d="M387.79 15.4197C395.114 17.1381 397.611 26.3313 392.072 31.4608L365.536 56.0658C360.915 60.3253 353.52 59.0224 350.719 53.3699L333.309 18.4546C329.771 11.3507 336.077 3.22973 343.935 5.08181L387.79 15.4197Z" fill="#108CFF"/>
<rect x="116" y="30.2998" width="402" height="297" rx="96" fill="#E3EEFE"/>
<path d="M133.514 305.718C131.746 306.777 129.452 306.147 128.852 304.183C127.959 301.127 127.8 297.8 128.708 294.627C129.957 290.265 132.83 286.492 136.826 284.177C140.822 281.862 145.481 281.2 149.896 282.362C153.121 283.183 155.932 284.92 158.082 287.201C159.515 288.721 158.884 291.014 157.03 292.023C155.262 293.083 153.018 292.365 151.434 291.105C150.407 290.281 149.23 289.718 147.903 289.414C145.385 288.77 142.714 289.192 140.399 290.398C138.121 291.74 136.422 293.88 135.778 296.396C135.387 297.673 135.307 299.012 135.5 300.279C135.863 302.452 135.232 304.745 133.514 305.718Z" fill="#FFAB49"/>
<path d="M502.51 312.957C512.634 307.139 512.634 292.551 502.594 286.733L468.677 266.917C459.059 261.267 446.825 267.592 445.897 278.722L442.269 320.209C441.172 332.436 454.334 340.784 464.965 334.713L502.51 312.957Z" fill="#FFCA62"/>
<path opacity="0.3" fill-rule="evenodd" clip-rule="evenodd" d="M629.592 138.174L443.139 138.174C438.45 138.174 433.924 138.868 429.656 140.159H394.213V138.572C394.213 136.35 392.411 134.549 390.189 134.549H359.694C357.472 134.549 355.67 136.35 355.67 138.572V140.159H266.876V138.572C266.876 136.35 265.074 134.549 262.852 134.549H232.357C230.135 134.549 228.333 136.35 228.333 138.572V140.159H203.711C199.637 140.159 196.334 143.462 196.334 147.536V164.499H141.298C133.224 164.499 126.261 169.28 123.058 176.156C123.025 176.154 122.992 176.153 122.958 176.153H102.513C101.772 176.153 101.172 176.753 101.172 177.494L101.172 179.192H-4.34961V190.131H101.172L101.172 191.83C101.172 192.571 101.772 193.171 102.513 193.171H122.958C122.975 193.171 122.992 193.171 123.008 193.17C123.025 193.17 123.042 193.169 123.058 193.168C126.261 200.044 133.224 204.824 141.298 204.824H196.334V221.788C196.334 225.862 199.637 229.164 203.711 229.164H429.659C433.925 230.455 438.451 231.149 443.139 231.149L629.592 231.149V138.174ZM463.026 199.279C465.63 195.425 467.151 190.779 467.151 185.777C467.151 184.11 466.982 182.482 466.66 180.91C465.862 177.008 464.123 173.449 461.69 170.481C457.261 165.076 450.534 161.627 443.001 161.627C436.332 161.627 430.294 164.33 425.924 168.7C421.554 173.07 418.851 179.107 418.851 185.776C418.851 191.286 420.695 196.364 423.801 200.428C428.214 206.202 435.172 209.926 443.001 209.926C451.336 209.926 458.686 205.703 463.026 199.279Z" fill="#B0BFD9"/>
<path d="M130.3 171.745C130.3 171.005 129.699 170.404 128.959 170.404H108.513C107.773 170.404 107.172 171.005 107.172 171.745V186.082C107.172 186.822 107.773 187.423 108.513 187.423H128.959C129.699 187.423 130.3 186.822 130.3 186.082V171.745Z" fill="url(#paint0_linear)"/>
<path d="M202.334 158.751H147.298C136.187 158.751 127.18 167.803 127.18 178.913C127.18 190.024 136.187 199.076 147.298 199.076H202.334V158.751Z" fill="url(#paint1_linear)"/>
<path d="M-4.34961 173.477H107.126V184.477H-4.34961V173.477Z" fill="url(#paint2_linear)"/>
<path d="M361.67 134.411H400.212V132.824C400.212 130.602 398.411 128.801 396.189 128.801H365.693C363.471 128.801 361.67 130.602 361.67 132.824V134.411Z" fill="white"/>
<path d="M234.333 134.411H272.876V132.824C272.876 130.602 271.074 128.801 268.852 128.801H238.357C236.134 128.801 234.333 130.602 234.333 132.824V134.411Z" fill="white"/>
<path fill-rule="evenodd" clip-rule="evenodd" d="M209.71 134.411C205.637 134.411 202.334 137.714 202.334 141.788V216.039C202.334 220.113 205.637 223.416 209.71 223.416H488.217C492.291 223.416 495.593 220.113 495.593 216.039V141.788C495.593 137.714 492.291 134.411 488.217 134.411H209.71ZM449.001 204.178C462.339 204.178 473.151 193.366 473.151 180.028C473.151 166.69 462.339 155.878 449.001 155.878C435.663 155.878 424.851 166.69 424.851 180.028C424.851 193.366 435.663 204.178 449.001 204.178Z" fill="url(#paint3_linear)"/>
<path fill-rule="evenodd" clip-rule="evenodd" d="M449.625 132.476C423.944 132.476 403.125 153.294 403.125 178.976C403.125 204.657 423.944 225.475 449.625 225.475H624.274C627.587 225.475 630.274 222.789 630.274 219.475V138.476C630.274 135.162 627.587 132.476 624.274 132.476H449.625ZM449.001 204.177C462.339 204.177 473.151 193.365 473.151 180.027C473.151 166.689 462.339 155.877 449.001 155.877C435.663 155.877 424.851 166.689 424.851 180.027C424.851 193.365 435.663 204.177 449.001 204.177Z" fill="white"/>
<rect x="247.516" y="154.545" width="139.046" height="48.1942" rx="4.41186" fill="#57AEFF"/>
<rect x="381.109" y="119.367" width="2.64163" height="2.64163" transform="rotate(90 381.109 119.367)" fill="#108CFF"/>
<rect x="381.109" y="115.386" width="2.64163" height="2.64163" transform="rotate(90 381.109 115.386)" fill="#108CFF"/>
<rect x="381.109" y="111.403" width="2.64163" height="2.64163" transform="rotate(90 381.109 111.403)" fill="#108CFF"/>
<rect x="381.109" y="107.422" width="2.64163" height="2.64163" transform="rotate(90 381.109 107.422)" fill="#108CFF"/>
<rect x="381.109" y="103.44" width="2.64163" height="2.64163" transform="rotate(90 381.109 103.44)" fill="#108CFF"/>
<rect x="381.109" y="99.458" width="2.64163" height="2.64163" transform="rotate(90 381.109 99.458)" fill="#108CFF"/>
<rect x="381.109" y="95.4766" width="2.64163" height="2.64163" transform="rotate(90 381.109 95.4766)" fill="#108CFF"/>
<rect x="385.713" y="115.216" width="2.64163" height="2.64163" transform="rotate(90 385.713 115.216)" fill="#108CFF"/>
<rect width="2.64163" height="2.64163" transform="matrix(-4.37114e-08 1 1 4.37114e-08 373.941 115.216)" fill="#108CFF"/>
<rect x="389.261" y="111.064" width="2.64163" height="2.64163" transform="rotate(90 389.261 111.064)" fill="#108CFF"/>
<rect width="2.64163" height="2.64163" transform="matrix(-4.37114e-08 1 1 4.37114e-08 370.393 111.064)" fill="#108CFF"/>
<rect x="393.035" y="106.914" width="2.64163" height="2.64163" transform="rotate(90 393.035 106.914)" fill="#108CFF"/>
<rect width="2.64163" height="2.64163" transform="matrix(-4.37114e-08 1 1 4.37114e-08 366.619 106.914)" fill="#108CFF"/>
<rect x="255.641" y="119.367" width="2.64163" height="2.64163" transform="rotate(90 255.641 119.367)" fill="#108CFF"/>
<rect x="255.641" y="115.386" width="2.64163" height="2.64163" transform="rotate(90 255.641 115.386)" fill="#108CFF"/>
<rect x="255.641" y="111.403" width="2.64163" height="2.64163" transform="rotate(90 255.641 111.403)" fill="#108CFF"/>
<rect x="255.641" y="107.422" width="2.64163" height="2.64163" transform="rotate(90 255.641 107.422)" fill="#108CFF"/>
<rect x="255.641" y="103.44" width="2.64163" height="2.64163" transform="rotate(90 255.641 103.44)" fill="#108CFF"/>
<rect x="255.641" y="99.458" width="2.64163" height="2.64163" transform="rotate(90 255.641 99.458)" fill="#108CFF"/>
<rect x="255.641" y="95.4766" width="2.64163" height="2.64163" transform="rotate(90 255.641 95.4766)" fill="#108CFF"/>
<rect x="260.245" y="115.216" width="2.64163" height="2.64163" transform="rotate(90 260.245 115.216)" fill="#108CFF"/>
<rect width="2.64163" height="2.64163" transform="matrix(-4.37114e-08 1 1 4.37114e-08 248.472 115.216)" fill="#108CFF"/>
<rect x="263.792" y="111.064" width="2.64163" height="2.64163" transform="rotate(90 263.792 111.064)" fill="#108CFF"/>
<rect width="2.64163" height="2.64163" transform="matrix(-4.37114e-08 1 1 4.37114e-08 244.924 111.064)" fill="#108CFF"/>
<rect x="267.566" y="106.914" width="2.64163" height="2.64163" transform="rotate(90 267.566 106.914)" fill="#108CFF"/>
<rect width="2.64163" height="2.64163" transform="matrix(-4.37114e-08 1 1 4.37114e-08 241.15 106.914)" fill="#108CFF"/>
<rect x="258.943" y="179.796" width="1.29313" height="1.29313" transform="rotate(-180 258.943 179.796)" fill="white"/>
<rect x="260.976" y="182.05" width="1.29313" height="1.29313" transform="rotate(-180 260.976 182.05)" fill="white"/>
<rect width="1.29313" height="1.29313" transform="matrix(-1 -8.74228e-08 -8.74228e-08 1 260.976 176.287)" fill="white"/>
<rect x="263.007" y="183.786" width="1.29313" height="1.29313" transform="rotate(-180 263.007 183.786)" fill="white"/>
<rect width="1.29313" height="1.29313" transform="matrix(-1 -8.74228e-08 -8.74228e-08 1 263.007 174.55)" fill="white"/>
<rect x="265.039" y="185.634" width="1.29313" height="1.29313" transform="rotate(-180 265.039 185.634)" fill="white"/>
<rect width="1.29313" height="1.29313" transform="matrix(-1 -8.74228e-08 -8.74228e-08 1 265.04 172.702)" fill="white"/>
<rect width="1.29313" height="1.29313" transform="matrix(1 -8.74228e-08 -8.74228e-08 -1 379.078 179.796)" fill="white"/>
<rect width="1.29313" height="1.29313" transform="matrix(1 -8.74228e-08 -8.74228e-08 -1 377.046 182.05)" fill="white"/>
<rect x="377.046" y="176.287" width="1.29313" height="1.29313" fill="white"/>
<rect width="1.29313" height="1.29313" transform="matrix(1 -8.74228e-08 -8.74228e-08 -1 375.014 183.786)" fill="white"/>
<rect x="375.014" y="174.55" width="1.29313" height="1.29313" fill="white"/>
<rect width="1.29313" height="1.29313" transform="matrix(1 -8.74228e-08 -8.74228e-08 -1 372.982 185.634)" fill="white"/>
<rect x="372.982" y="172.702" width="1.29313" height="1.29313" fill="white"/>
<path d="M299.211 190.432C300.729 190.432 301.995 189.189 301.995 187.717C301.995 186.244 300.729 185.009 299.211 185.009C297.708 185.009 296.426 186.244 296.426 187.717C296.426 189.189 297.708 190.432 299.211 190.432ZM299.211 189.41C298.333 189.41 297.586 188.632 297.586 187.717C297.586 186.809 298.333 186.031 299.211 186.031C300.095 186.031 300.843 186.809 300.843 187.717C300.843 188.632 300.095 189.41 299.211 189.41ZM303.967 190.341H305.088V188.64H306.324C307.461 188.64 308.3 187.907 308.3 186.87C308.3 185.832 307.461 185.1 306.324 185.1H303.967V190.341ZM305.088 187.61V186.13H306.202C306.759 186.13 307.14 186.42 307.14 186.87C307.14 187.32 306.759 187.61 306.202 187.61H305.088ZM314.182 186.115V185.1H310.147V190.341H314.182V189.326H311.276V188.174H313.908V187.16H311.276V186.115H314.182ZM316.224 190.341H317.345V186.954L319.87 190.341H320.999V185.1H319.87V188.487L317.345 185.1H316.224V190.341ZM330.349 190.341H331.616L329.48 185.1H328.221L326.085 190.341H327.344L327.68 189.517H330.014L330.349 190.341ZM328.069 188.563L328.847 186.649L329.625 188.563H328.069ZM333.378 190.341H334.499V188.64H335.735C336.871 188.64 337.711 187.907 337.711 186.87C337.711 185.832 336.871 185.1 335.735 185.1H333.378V190.341ZM334.499 187.61V186.13H335.613C336.17 186.13 336.551 186.42 336.551 186.87C336.551 187.32 336.17 187.61 335.613 187.61H334.499ZM339.558 190.341H340.679V188.64H341.915C343.052 188.64 343.891 187.907 343.891 186.87C343.891 185.832 343.052 185.1 341.915 185.1H339.558V190.341ZM340.679 187.61V186.13H341.793C342.35 186.13 342.731 186.42 342.731 186.87C342.731 187.32 342.35 187.61 341.793 187.61H340.679Z" fill="white"/>
<path fill-rule="evenodd" clip-rule="evenodd" d="M314.922 164.901V165.936H313.887V166.97H312.853V177.315H313.887V178.35H314.922V179.384H325.267V178.35H326.301V177.315H327.336V166.97H326.301V165.936H325.267V164.901H314.922ZM323.197 168.005V166.97H316.99V168.005H319.059V171.108H318.025V172.143H319.059V173.177H318.025V174.212H319.059V176.281H316.99V177.315H323.197V176.281H321.128V174.212H322.163V173.177H321.128V172.143H322.163V171.108H321.128V168.005L323.197 168.005Z" fill="#FAFCFE"/>
<path d="M314.334 284.237V281.669H318.846V277.517H321.462V281.669H325.95V284.237H321.462V288.389H318.846V284.237H314.334Z" fill="#57AEFF"/>
<rect x="238.65" y="249.901" width="59" height="58" rx="19.7086" fill="#57AEFF"/>
<rect x="339.65" y="249.901" width="59" height="58" rx="19.7086" fill="#57AEFF"/>
<rect x="256.943" y="267.712" width="4.96178" height="4.96178" fill="#FAFCFE"/>
<rect x="275.136" y="272.674" width="4.96178" height="4.96178" fill="#FAFCFE"/>
<rect x="263.559" y="285.905" width="4.96178" height="4.96178" fill="#FAFCFE"/>
<rect x="260.574" y="282.336" width="2.3155" height="2.3155" fill="#FAFCFE"/>
<rect x="260.574" y="277.462" width="2.3155" height="2.3155" fill="#FAFCFE"/>
<rect x="263.559" y="270.236" width="2.3155" height="2.3155" fill="#FAFCFE"/>
<rect x="268.678" y="272.587" width="2.3155" height="2.3155" fill="#FAFCFE"/>
<rect x="268.678" y="282.336" width="2.3155" height="2.3155" fill="#FAFCFE"/>
<rect x="273.309" y="279.898" width="2.3155" height="2.3155" fill="#FAFCFE"/>
<path fill-rule="evenodd" clip-rule="evenodd" d="M360.858 267.893V269.547H359.204V271.2H357.55V287.74H359.204V289.394H360.858V291.048H377.397V289.394H379.051V287.74H380.705V271.2H379.051V269.547H377.397V267.893H360.858ZM374.089 272.854V271.2H364.166V272.854H367.474V277.816H365.82V279.47H367.474V281.124H365.82V282.777H367.474V286.085H364.166V287.739H374.089V286.085H370.781V282.777H372.435V281.124H370.781V279.47H372.435V277.816H370.781V272.854L374.089 272.854Z" fill="#FAFCFE"/>
</g>
<defs>
<linearGradient id="paint0_linear" x1="108.003" y1="177.742" x2="130.051" y2="177.742" gradientUnits="userSpaceOnUse">
<stop stop-color="white"/>
<stop offset="1" stop-color="#E4EBFA"/>
</linearGradient>
<linearGradient id="paint1_linear" x1="130.799" y1="181.479" x2="202.922" y2="181.479" gradientUnits="userSpaceOnUse">
<stop stop-color="white"/>
<stop offset="1" stop-color="#E4EBFA"/>
</linearGradient>
<linearGradient id="paint2_linear" x1="14.888" y1="173.477" x2="126.605" y2="173.477" gradientUnits="userSpaceOnUse">
<stop stop-color="white"/>
<stop offset="1" stop-color="#E4EBFA"/>
</linearGradient>
<linearGradient id="paint3_linear" x1="348.964" y1="134.411" x2="348.964" y2="224.225" gradientUnits="userSpaceOnUse">
<stop stop-color="white"/>
<stop offset="1" stop-color="#F0F5FE"/>
</linearGradient>
<clipPath id="clip0">
<rect width="634" height="341" fill="white" transform="translate(0 0.799805)"/>
</clipPath>
</defs>
</svg>
