<svg width="670" height="720" viewBox="0 0 670 720" fill="none" xmlns="http://www.w3.org/2000/svg">
<path d="M359 720L359 602C359 530.203 300.797 472 229 472C157.203 472 99 530.203 99 602L99 720L359 720Z" fill="#FF7A59"/>
<path d="M334 458C394.751 458 444 408.751 444 348C444 287.249 394.751 238 334 238C273.249 238 224 287.249 224 348C224 408.751 273.249 458 334 458Z" fill="#79E5FE"/>
<path d="M365.148 365.344L364.97 373.083C364.97 381.594 353.408 388.996 338.91 390.634C322.202 392.566 306.748 386.084 303.916 376.041C303.551 374.756 303.556 373.484 303.556 372.032L303.677 364.958C303.677 366.268 303.791 366.892 304.124 368.327C306.955 378.37 322.887 384.826 339.595 382.894C354.093 381.256 364.402 373.832 365.148 365.344Z" fill="url(#paint0_linear)"/>
<path d="M329.292 346.833C346.001 344.901 361.879 351.383 364.71 361.426C367.542 371.469 356.311 381.127 339.518 382.985C322.809 384.917 306.931 378.435 304.1 368.392C301.268 358.349 312.584 348.765 329.292 346.833Z" fill="url(#paint1_linear)"/>
<path fill-rule="evenodd" clip-rule="evenodd" d="M339.374 381.74L339.38 381.74C347.591 380.831 354.34 378.024 358.658 374.324C362.966 370.631 364.748 366.176 363.505 361.766C362.237 357.269 357.965 353.359 351.729 350.797C345.53 348.251 337.599 347.134 329.436 348.077C321.264 349.022 314.512 351.83 310.182 355.524C305.86 359.21 304.063 363.646 305.306 368.052C306.573 372.549 310.845 376.458 317.081 379.02C323.28 381.567 331.211 382.684 339.374 381.74ZM364.71 361.426C361.879 351.383 346.001 344.901 329.292 346.833C312.584 348.765 301.268 358.349 304.1 368.392C306.931 378.435 322.809 384.917 339.518 382.985C356.311 381.127 367.542 371.469 364.71 361.426Z" fill="url(#paint2_linear)"/>
<path d="M331.115 353.259C341.927 352.057 354.586 356.579 356.332 363.095C358.157 369.521 348.587 375.431 337.774 376.633C326.961 377.834 314.173 373.282 312.348 366.856C310.439 360.355 320.302 354.461 331.115 353.259Z" fill="#C27025"/>
<path d="M331.277 354.332C341.773 353.165 354.06 357.554 355.755 363.88C357.526 370.117 348.237 375.853 337.741 377.02C327.246 378.186 314.833 373.767 313.061 367.53C311.208 361.22 320.781 355.498 331.277 354.332Z" fill="url(#paint3_linear)"/>
<path d="M365.148 351.841L364.97 359.581C364.97 368.092 353.408 375.494 338.91 377.132C322.202 379.064 306.748 372.582 303.916 362.539C303.551 361.254 303.556 359.982 303.556 358.53L303.677 351.456C303.677 352.766 303.791 353.39 304.124 354.825C306.955 364.868 322.887 371.324 339.595 369.392C354.093 367.754 364.402 360.33 365.148 351.841Z" fill="url(#paint4_linear)"/>
<path d="M329.292 333.331C346.001 331.399 361.879 337.88 364.71 347.924C367.542 357.967 356.311 367.625 339.518 369.483C322.809 371.415 306.931 364.933 304.1 354.89C301.268 344.847 312.584 335.263 329.292 333.331Z" fill="url(#paint5_linear)"/>
<path fill-rule="evenodd" clip-rule="evenodd" d="M339.374 368.238L339.38 368.238C347.591 367.329 354.34 364.522 358.658 360.821C362.966 357.129 364.748 352.674 363.505 348.263C362.237 343.767 357.965 339.857 351.729 337.295C345.53 334.749 337.599 333.631 329.436 334.575C321.264 335.52 314.512 338.328 310.182 342.022C305.86 345.708 304.063 350.144 305.306 354.55C306.573 359.047 310.845 362.956 317.081 365.518C323.28 368.065 331.211 369.182 339.374 368.238ZM364.71 347.924C361.879 337.88 346.001 331.399 329.292 333.331C312.584 335.263 301.268 344.847 304.1 354.89C306.931 364.933 322.809 371.415 339.518 369.483C356.311 367.625 367.542 357.967 364.71 347.924Z" fill="url(#paint6_linear)"/>
<path d="M331.115 339.757C341.927 338.555 354.586 343.077 356.332 349.593C358.157 356.019 348.587 361.929 337.774 363.13C326.961 364.332 314.173 359.78 312.348 353.354C310.439 346.853 320.302 340.959 331.115 339.757Z" fill="#C27025"/>
<path d="M331.273 340.828C341.769 339.662 354.056 344.051 355.751 350.376C357.522 356.614 348.233 362.35 337.737 363.516C327.242 364.683 314.829 360.264 313.057 354.026C311.204 347.716 320.778 341.995 331.273 340.828Z" fill="url(#paint7_linear)"/>
<path d="M365.151 339.504L364.973 347.244C364.973 355.754 353.412 363.157 338.914 364.794C322.206 366.726 306.751 360.245 303.92 350.202C303.555 348.916 303.56 347.644 303.56 346.193L303.681 339.119C303.681 340.429 303.795 341.053 304.128 342.487C306.959 352.53 322.891 358.987 339.599 357.055C354.097 355.417 364.405 347.992 365.151 339.504Z" fill="url(#paint8_linear)"/>
<path d="M329.29 320.993C345.999 319.061 361.877 325.542 364.708 335.585C367.54 345.628 356.309 355.287 339.516 357.144C322.807 359.077 306.929 352.595 304.098 342.552C301.267 332.509 312.582 322.925 329.29 320.993Z" fill="url(#paint9_linear)"/>
<path fill-rule="evenodd" clip-rule="evenodd" d="M339.372 355.9L339.378 355.899C347.589 354.991 354.338 352.184 358.656 348.483C362.964 344.791 364.746 340.336 363.503 335.925C362.235 331.428 357.963 327.519 351.727 324.957C345.529 322.41 337.597 321.293 329.434 322.237C321.262 323.182 314.51 325.99 310.18 329.684C305.858 333.37 304.061 337.806 305.304 342.212C306.571 346.709 310.843 350.618 317.079 353.18C323.278 355.727 331.209 356.844 339.372 355.9ZM364.708 335.585C361.877 325.542 345.999 319.061 329.29 320.993C312.582 322.925 301.267 332.509 304.098 342.552C306.929 352.595 322.807 359.077 339.516 357.144C356.309 355.287 367.54 345.628 364.708 335.585Z" fill="url(#paint10_linear)"/>
<path d="M331.118 327.418C341.931 326.216 354.59 330.738 356.336 337.254C358.161 343.681 348.591 349.59 337.778 350.792C326.965 351.993 314.177 347.441 312.352 341.015C310.443 334.514 320.306 328.62 331.118 327.418Z" fill="#C27025"/>
<path d="M331.277 328.489C341.773 327.323 354.06 331.712 355.755 338.037C357.526 344.275 348.237 350.011 337.741 351.178C327.246 352.344 314.833 347.925 313.061 341.687C311.208 335.377 320.781 329.656 331.277 328.489Z" fill="url(#paint11_linear)"/>
<path d="M365.151 327.167L364.973 334.907C364.973 343.417 353.412 350.82 338.914 352.457C322.206 354.389 306.751 347.908 303.92 337.865C303.555 336.579 303.56 335.307 303.56 333.856L303.681 326.782C303.681 328.092 303.795 328.716 304.128 330.15C306.959 340.193 322.891 346.65 339.599 344.718C354.097 343.08 364.405 335.655 365.151 327.167Z" fill="url(#paint12_linear)"/>
<path d="M329.29 308.656C345.999 306.724 361.877 313.205 364.708 323.248C367.54 333.291 356.309 342.95 339.516 344.807C322.807 346.74 306.929 340.258 304.098 330.215C301.267 320.172 312.582 310.588 329.29 308.656Z" fill="url(#paint13_linear)"/>
<path fill-rule="evenodd" clip-rule="evenodd" d="M339.372 343.563L339.378 343.562C347.589 342.654 354.338 339.847 358.656 336.146C362.964 332.454 364.746 327.999 363.503 323.588C362.235 319.091 357.963 315.182 351.727 312.62C345.529 310.073 337.597 308.956 329.434 309.9C321.262 310.845 314.51 313.653 310.18 317.347C305.858 321.033 304.061 325.469 305.304 329.875C306.571 334.372 310.843 338.281 317.079 340.843C323.278 343.39 331.209 344.507 339.372 343.563ZM364.708 323.248C361.877 313.205 345.999 306.724 329.29 308.656C312.582 310.588 301.267 320.172 304.098 330.215C306.929 340.258 322.807 346.74 339.516 344.807C356.309 342.95 367.54 333.291 364.708 323.248Z" fill="url(#paint14_linear)"/>
<path d="M331.117 315.081C341.929 313.879 354.588 318.401 356.334 324.917C358.159 331.344 348.589 337.253 337.776 338.455C326.963 339.656 314.175 335.104 312.35 328.678C310.441 322.177 320.304 316.283 331.117 315.081Z" fill="#C27025"/>
<path d="M331.277 316.153C341.773 314.986 354.06 319.375 355.755 325.701C357.526 331.938 348.237 337.674 337.741 338.841C327.246 340.008 314.833 335.589 313.061 329.351C311.208 323.041 320.781 317.319 331.277 316.153Z" fill="url(#paint15_linear)"/>
<path d="M289.65 596.836C284.437 600.947 279.406 603.961 268.064 609.168C267.424 609.442 266.6 609.077 266.509 608.255C266.509 607.798 266.692 607.341 267.149 607.159C275.198 603.505 287.364 597.202 292.943 590.442C301.084 580.577 294.041 572.812 288.095 579.755C282.882 585.875 276.845 591.173 264.496 596.471C264.039 596.654 263.399 596.471 263.216 595.923C262.942 595.466 263.216 594.827 263.673 594.644C271.905 590.99 281.693 585.144 286.266 577.106C291.114 568.702 283.43 562.308 277.394 570.62C273.003 576.649 268.704 581.125 257.088 585.784C256.63 585.966 256.173 585.875 255.807 585.51C255.167 584.961 255.35 583.865 256.173 583.5C261.661 581.034 267.149 577.836 270.625 573.817C279.955 563.038 271.814 557.375 264.862 564.957C256.905 573.635 241.629 578.476 229.738 580.942C227.177 581.49 225.439 580.76 227.452 578.75C230.653 575.553 233.58 571.808 234.586 567.423C235.501 563.586 232.94 560.846 229.464 563.038C221.872 567.88 205.957 577.106 193.791 585.418C178.242 596.106 180.345 618.303 180.345 618.303L180.345 720H243.276C243.276 720 242.178 652.283 241.812 643.88C241.538 636.846 250.502 631.548 259.283 626.615C259.283 626.615 283.888 616.11 293.583 606.428C302.73 597.567 296.876 591.082 289.65 596.836Z" fill="url(#paint16_linear)"/>
<path d="M210.911 586.382C202.355 582.192 189.479 591.48 190.033 602.345C190.587 613.21 208.422 626.222 230.129 627.296C244.071 627.985 262.205 622.601 265.523 616.162C268.578 610.235 252.665 617.503 231.788 611.064C216.915 606.477 225.429 593.492 210.911 586.382Z" fill="url(#paint17_linear)"/>
<path d="M286.136 601.139C289.412 598.619 291.935 596.427 293.627 596.185C295.318 595.944 296.636 597.977 294.774 599.689C291.029 603.132 284.505 606.696 279.311 608.871C274.116 611.045 267.044 610.96 270.733 609.414C275.203 607.542 282.21 604.159 286.136 601.139Z" fill="url(#paint18_linear)"/>
<path d="M285.119 584.664C287.699 581.981 290.325 578.84 291.816 578.366C293.306 577.892 294.667 579.242 293.386 581.115C290.185 585.796 285.927 588.453 281.155 591.142C276.69 593.657 269.266 595.286 272.516 593.648C276.623 591.579 282.028 587.881 285.119 584.664Z" fill="url(#paint19_linear)"/>
<path d="M274.66 575.709C276.327 574.133 277.831 572.024 279.523 569.729C281.215 567.433 285.714 567.161 283.703 570.37C281.52 573.852 276.11 577.491 273.724 578.578C271.733 579.486 268.979 580.563 271.761 578.216C272.727 577.4 273.543 576.766 274.66 575.709Z" fill="url(#paint20_linear)"/>
<path d="M206.54 578.578C214.477 573.566 224.601 566.818 228.467 564.463C232.334 562.107 233.062 564.689 231.084 567.345C229.643 569.278 224.134 571.677 221.594 574.862C220.437 576.311 221.458 581.28 218.664 580.239C212.379 577.896 205.239 579.399 206.54 578.578Z" fill="url(#paint21_linear)"/>
<path d="M227.018 579.6C226.553 580.53 227.301 581.031 228.12 581.134C220.304 582.259 212.591 583.776 216.62 581.982C221.143 579.968 223.886 577.973 225.972 576.115C229.689 572.804 233.639 568.622 234.685 565.195C234.801 566.589 234.597 569.108 233 571.962C231.083 575.389 227.598 578.438 227.018 579.6Z" fill="#D6D9EF"/>
<path d="M253.999 585.247C255.112 586.36 255.923 586.27 257.007 585.84C255.677 586.065 254.552 584.306 256.598 583.262C259.695 581.683 264.024 580.235 269.364 575.14C265.599 578.107 259.38 580.521 256.475 581.789C253.619 583.036 252.608 583.856 253.999 585.247Z" fill="#D6D9EF"/>
<path d="M261.734 595.945C262.225 596.569 263.371 596.927 264.456 596.498C263.126 596.723 262.584 595.096 263.832 594.564C266.757 593.317 271.683 591.18 278.451 585.865C273.694 589.408 266.993 591.956 264.087 593.224C261.232 594.471 261.243 595.321 261.734 595.945Z" fill="#D6D9EF"/>
<path d="M265.354 608.661C265.845 609.285 266.897 609.547 267.807 609.244C266.477 609.469 266.06 607.578 267.308 607.046C270.234 605.799 275.352 603.391 281.066 599.88C275.576 602.657 270.342 604.662 267.437 605.931C264.581 607.178 264.863 608.038 265.354 608.661Z" fill="#D6D9EF"/>
<path d="M264.3 566.859C266.052 565.039 267.291 563.657 269.344 562.963C271.398 562.268 272.65 562.955 271.881 564.171C271.156 565.318 268.269 566.928 265.388 567.614C264.119 567.916 263.515 567.674 264.3 566.859Z" fill="#F3F7FF"/>
<path d="M334 0L334 109C334 180.797 392.203 239 464 239C535.797 239 594 180.797 594 109L594 -1.2106e-05L334 0Z" fill="#666AF7"/>
<path d="M436.056 152.704C433.068 156.382 427.091 154.313 428.93 149.256C432.378 142.13 443.642 131.096 448.24 127.648C448.7 127.418 448.7 126.958 448.47 126.498C448.24 126.268 447.78 126.039 447.55 126.268C441.343 129.946 430.539 141.21 426.861 146.727C422.953 152.244 416.977 147.877 419.505 142.36C422.264 136.843 435.367 124.429 443.412 118.912C443.872 118.682 443.872 117.993 443.642 117.533C443.412 117.073 442.953 117.073 442.493 117.303C433.068 122.131 426.861 129.487 422.034 135.004C418.356 139.141 412.609 134.774 415.827 129.257C420.195 121.671 430.539 113.625 437.895 110.407C438.355 110.177 438.585 109.487 438.355 108.798C438.125 108.338 437.665 108.338 437.206 108.568C431.459 111.326 424.792 115.464 419.965 119.832C415.368 123.74 410.77 119.832 414.678 115.234C419.965 109.028 425.942 102.591 439.045 96.1547C462.492 84.4311 472.165 77.685 459.437 1.09697e-05L508.498 1.52588e-05C508.498 1.52588e-05 507.318 94.5456 506.858 105.35C506.398 116.154 497.893 144.199 486.859 141.9C477.434 139.831 486.399 130.636 488.698 124.659C490.997 118.682 489.617 117.993 487.319 117.763C484.33 117.073 459.274 126.958 436.056 152.704Z" fill="#4BE0D7"/>
<path opacity="0.5" d="M490.214 115.958C497.869 117.674 506.34 107.692 503.771 99.0442C501.203 90.3959 484.407 83.3703 466.854 86.7164C455.58 88.8656 442.145 96.7224 440.754 102.555C439.473 107.923 450.764 98.9792 468.705 100.118C481.485 100.929 477.224 113.045 490.214 115.958Z" fill="#7BF9F1"/>
<path d="M420.32 114.725C418.396 117.12 416.958 119.146 415.779 119.617C414.599 120.088 413.29 118.851 414.335 117.288C416.437 114.144 420.524 110.425 423.895 107.943C427.266 105.461 432.389 104.283 429.995 106.046C427.095 108.183 422.627 111.855 420.32 114.725Z" fill="url(#paint22_linear)" fill-opacity="0.3"/>
<path d="M421.433 127.486C420.041 129.877 418.694 132.606 417.701 133.21C416.707 133.814 415.487 133.078 416.084 131.5C417.576 127.557 420.185 124.891 423.161 122.112C425.945 119.512 431.022 117.033 428.961 118.786C426.358 121.001 423.102 124.62 421.433 127.486Z" fill="url(#paint23_linear)" fill-opacity="0.3"/>
<path d="M426.488 138.011C425.561 139.442 424.844 141.228 424.024 143.183C423.205 145.138 420.003 146.123 420.893 143.453C421.859 140.555 425.129 136.978 426.661 135.774C427.94 134.769 429.741 133.508 428.143 135.691C427.588 136.45 427.11 137.051 426.488 138.011Z" fill="url(#paint24_linear)" fill-opacity="0.3"/>
<path d="M504.753 109.931C504.363 118.418 498.475 133.877 493.105 138.423C487.735 142.969 485.366 139.6 486.436 137.383C488.298 133.53 495.918 129.823 497.175 122.186C497.782 118.505 492.102 117.3 494.274 116.859C499.16 115.867 504.805 108.789 504.753 109.931Z" fill="url(#paint25_linear)" fill-opacity="0.15"/>
<path d="M489.283 118.418C488.705 117.906 487.373 117.761 486.681 117.739C488.088 117.512 490.387 117.53 491.242 118.201C492.207 118.957 491.998 119.676 491.221 121.601C490.269 123.961 486.858 128.94 485.061 131.408C486.945 128.074 488.571 125.381 489.229 123.04C489.792 121.038 490.225 119.252 489.283 118.418Z" fill="#24C2B9"/>
<path d="M449.91 126.108C449.254 125.628 448.448 125.612 447.422 126.323C447.933 126.09 449.316 126.598 448.021 127.711C446.061 129.395 441.659 133.105 438.526 136.692C441.276 134.025 446.681 130.541 448.557 129.115C450.401 127.713 450.76 126.731 449.91 126.108Z" fill="#24C2B9"/>
<path d="M444.589 117.081C444.097 116.695 443.224 116.796 442.474 117.326C443.45 116.907 444.167 118.051 443.311 118.69C441.304 120.188 436.637 123.97 432.332 127.988C435.501 125.309 441.516 120.688 443.633 119.318C445.223 118.289 445.081 117.468 444.589 117.081Z" fill="#24C2B9"/>
<path d="M439.329 108.647C438.964 108.159 437.81 108.187 437.205 108.565C438.435 108.068 438.912 109.744 437.906 110.282C435.033 111.82 430.673 113.92 427.015 117.202C430.551 114.377 436.235 111.937 438.171 110.994C439.599 110.298 439.694 109.135 439.329 108.647Z" fill="#24C2B9"/>
<path d="M433.913 145.583C433.423 147.396 433.11 148.739 432.02 149.927C430.931 151.114 429.87 151.114 429.935 150.047C429.997 149.04 431.302 146.958 432.934 145.481C433.653 144.83 434.133 144.771 433.913 145.583Z" fill="url(#paint26_linear)" fill-opacity="0.3"/>
<path d="M479 348.316C479 354.769 484.256 360.083 490.647 359.189C500.459 357.815 509.983 354.711 518.765 349.992C530.989 343.422 541.396 333.926 549.054 322.352C556.712 310.778 561.383 297.487 562.649 283.666C563.559 273.738 562.692 263.76 560.12 254.191C558.444 247.959 551.497 245.2 545.558 247.723C539.619 250.246 536.972 257.106 538.311 263.419C539.569 269.348 539.935 275.454 539.378 281.534C538.464 291.509 535.092 301.103 529.565 309.457C524.037 317.811 516.526 324.665 507.702 329.407C502.324 332.297 496.561 334.348 490.612 335.509C484.279 336.745 479 341.862 479 348.316Z" fill="#FFCA62"/>
<path d="M177 363.684C177 357.231 171.744 351.917 165.353 352.811C155.541 354.185 146.017 357.289 137.235 362.008C125.011 368.578 114.604 378.074 106.946 389.648C99.2883 401.222 94.6172 414.513 93.3506 428.334C92.4407 438.262 93.308 448.24 95.8805 457.809C97.5559 464.041 104.503 466.8 110.442 464.277C116.381 461.754 119.028 454.894 117.689 448.581C116.431 442.652 116.065 436.546 116.622 430.466C117.536 420.491 120.908 410.897 126.435 402.543C131.963 394.189 139.474 387.335 148.298 382.593C153.676 379.703 159.439 377.652 165.388 376.491C171.721 375.255 177 370.138 177 363.684Z" fill="#FFCA62"/>
<path d="M342.096 100.413C347.36 103.585 354.14 100.425 355.059 94.3484C357.37 79.0705 358.321 66.965 358.467 51.2002C358.524 45.0409 352.314 40.8328 346.605 43.145C332.019 49.0523 321.055 54.2342 307.596 61.6723C302.199 64.655 301.591 72.1418 306.443 75.9481C318.3 85.2515 328.316 92.1114 342.096 100.413Z" fill="url(#paint27_linear)"/>
<path d="M410.444 506.188C411.895 503.676 411.034 500.464 408.522 499.014L399.19 493.626C396.678 492.175 393.466 493.036 392.015 495.548L386.627 504.88C385.177 507.392 386.038 510.604 388.55 512.055L397.882 517.443C400.394 518.893 403.606 518.032 405.056 515.52L410.444 506.188Z" fill="#FF6755"/>
<defs>
<linearGradient id="paint0_linear" x1="313.283" y1="353.575" x2="353.565" y2="389.153" gradientUnits="userSpaceOnUse">
<stop stop-color="#E7A222"/>
<stop offset="1" stop-color="#BC4B16"/>
</linearGradient>
<linearGradient id="paint1_linear" x1="307.424" y1="358.496" x2="353.015" y2="383.43" gradientUnits="userSpaceOnUse">
<stop stop-color="#FCD938"/>
<stop offset="1" stop-color="#FBAE2C"/>
</linearGradient>
<linearGradient id="paint2_linear" x1="333.21" y1="380.724" x2="332.456" y2="372.863" gradientUnits="userSpaceOnUse">
<stop stop-color="white" stop-opacity="0.63"/>
<stop offset="1" stop-color="white" stop-opacity="0"/>
</linearGradient>
<linearGradient id="paint3_linear" x1="322.364" y1="354.916" x2="346.652" y2="376.368" gradientUnits="userSpaceOnUse">
<stop stop-color="#FFC564"/>
<stop offset="1" stop-color="#FFED9D"/>
</linearGradient>
<linearGradient id="paint4_linear" x1="313.283" y1="340.073" x2="353.565" y2="375.651" gradientUnits="userSpaceOnUse">
<stop stop-color="#E7A222"/>
<stop offset="1" stop-color="#BC4B16"/>
</linearGradient>
<linearGradient id="paint5_linear" x1="307.424" y1="344.994" x2="353.015" y2="369.928" gradientUnits="userSpaceOnUse">
<stop stop-color="#FCD938"/>
<stop offset="1" stop-color="#FBAE2C"/>
</linearGradient>
<linearGradient id="paint6_linear" x1="333.21" y1="367.222" x2="332.456" y2="359.361" gradientUnits="userSpaceOnUse">
<stop stop-color="white" stop-opacity="0.63"/>
<stop offset="1" stop-color="white" stop-opacity="0"/>
</linearGradient>
<linearGradient id="paint7_linear" x1="322.36" y1="341.412" x2="346.648" y2="362.864" gradientUnits="userSpaceOnUse">
<stop stop-color="#FFC564"/>
<stop offset="1" stop-color="#FFED9D"/>
</linearGradient>
<linearGradient id="paint8_linear" x1="313.287" y1="327.736" x2="353.568" y2="363.314" gradientUnits="userSpaceOnUse">
<stop stop-color="#E7A222"/>
<stop offset="1" stop-color="#BC4B16"/>
</linearGradient>
<linearGradient id="paint9_linear" x1="307.422" y1="332.655" x2="353.013" y2="357.59" gradientUnits="userSpaceOnUse">
<stop stop-color="#FCD938"/>
<stop offset="1" stop-color="#FBAE2C"/>
</linearGradient>
<linearGradient id="paint10_linear" x1="333.208" y1="354.883" x2="332.454" y2="347.022" gradientUnits="userSpaceOnUse">
<stop stop-color="white" stop-opacity="0.63"/>
<stop offset="1" stop-color="white" stop-opacity="0"/>
</linearGradient>
<linearGradient id="paint11_linear" x1="322.364" y1="329.074" x2="346.652" y2="350.525" gradientUnits="userSpaceOnUse">
<stop stop-color="#FFC564"/>
<stop offset="1" stop-color="#FFED9D"/>
</linearGradient>
<linearGradient id="paint12_linear" x1="313.287" y1="315.399" x2="353.568" y2="350.977" gradientUnits="userSpaceOnUse">
<stop stop-color="#E7A222"/>
<stop offset="1" stop-color="#BC4B16"/>
</linearGradient>
<linearGradient id="paint13_linear" x1="307.422" y1="320.318" x2="353.013" y2="345.253" gradientUnits="userSpaceOnUse">
<stop stop-color="#FCD938"/>
<stop offset="1" stop-color="#FBAE2C"/>
</linearGradient>
<linearGradient id="paint14_linear" x1="333.208" y1="342.546" x2="332.454" y2="334.685" gradientUnits="userSpaceOnUse">
<stop stop-color="white" stop-opacity="0.63"/>
<stop offset="1" stop-color="white" stop-opacity="0"/>
</linearGradient>
<linearGradient id="paint15_linear" x1="359.001" y1="343.5" x2="310.001" y2="317.5" gradientUnits="userSpaceOnUse">
<stop stop-color="#FFC564"/>
<stop offset="1" stop-color="#FFED9D"/>
</linearGradient>
<linearGradient id="paint16_linear" x1="239.258" y1="604.74" x2="239.258" y2="744.618" gradientUnits="userSpaceOnUse">
<stop stop-color="#EAF1FF"/>
<stop offset="1" stop-color="#D7D9F0"/>
</linearGradient>
<linearGradient id="paint17_linear" x1="237.632" y1="605.653" x2="224.588" y2="638.718" gradientUnits="userSpaceOnUse">
<stop stop-color="#F3F7FF"/>
<stop offset="1" stop-color="#F3F7FF" stop-opacity="0"/>
</linearGradient>
<linearGradient id="paint18_linear" x1="293.905" y1="597.613" x2="272.519" y2="610.809" gradientUnits="userSpaceOnUse">
<stop stop-color="#F3F7FF"/>
<stop offset="1" stop-color="#F3F7FF" stop-opacity="0"/>
</linearGradient>
<linearGradient id="paint19_linear" x1="291.328" y1="580.019" x2="271.155" y2="597.006" gradientUnits="userSpaceOnUse">
<stop stop-color="#F3F7FF"/>
<stop offset="1" stop-color="#F3F7FF" stop-opacity="0"/>
</linearGradient>
<linearGradient id="paint20_linear" x1="282.227" y1="569.554" x2="269.789" y2="580.475" gradientUnits="userSpaceOnUse">
<stop stop-color="#F3F7FF"/>
<stop offset="1" stop-color="#F3F7FF" stop-opacity="0"/>
</linearGradient>
<linearGradient id="paint21_linear" x1="228.685" y1="568.947" x2="218.817" y2="580.558" gradientUnits="userSpaceOnUse">
<stop stop-color="#F3F7FF"/>
<stop offset="1" stop-color="#F3F7FF" stop-opacity="0"/>
</linearGradient>
<linearGradient id="paint22_linear" x1="420.068" y1="113.276" x2="421.308" y2="104.317" gradientUnits="userSpaceOnUse">
<stop stop-color="#F3F7FF"/>
<stop offset="1" stop-color="#F3F7FF" stop-opacity="0"/>
</linearGradient>
<linearGradient id="paint23_linear" x1="420.861" y1="127.004" x2="420.364" y2="119.154" gradientUnits="userSpaceOnUse">
<stop stop-color="#F3F7FF"/>
<stop offset="1" stop-color="#F3F7FF" stop-opacity="0"/>
</linearGradient>
<linearGradient id="paint24_linear" x1="423.69" y1="140.743" x2="423.003" y2="135.473" gradientUnits="userSpaceOnUse">
<stop stop-color="#F3F7FF"/>
<stop offset="1" stop-color="#F3F7FF" stop-opacity="0"/>
</linearGradient>
<linearGradient id="paint25_linear" x1="489.572" y1="137.497" x2="487.59" y2="118.757" gradientUnits="userSpaceOnUse">
<stop stop-color="#F3F7FF"/>
<stop offset="1" stop-color="#F3F7FF" stop-opacity="0"/>
</linearGradient>
<linearGradient id="paint26_linear" x1="431.513" y1="148.566" x2="430.61" y2="146.167" gradientUnits="userSpaceOnUse">
<stop stop-color="#F3F7FF"/>
<stop offset="1" stop-color="#F3F7FF" stop-opacity="0"/>
</linearGradient>
<linearGradient id="paint27_linear" x1="350.189" y1="100.858" x2="326.818" y2="51.7672" gradientUnits="userSpaceOnUse">
<stop stop-color="#FF6755"/>
<stop offset="1" stop-color="#F59D6F"/>
</linearGradient>
</defs>
</svg>
