<svg width="297" height="458" viewBox="0 0 297 458" fill="none" xmlns="http://www.w3.org/2000/svg">
<path d="M297 156.35C297 100.322 255.114 55 203.432 55H93.6685C41.9859 55 0 100.322 0 156.35V356.65C0 412.677 41.8859 458 93.5685 458H203.332C255.014 458 296.9 412.577 296.9 356.65V156.35H297Z" fill="#E6EDFB"/>
<path d="M206.971 248.445L206.642 262.243C206.642 267.702 185.249 272.45 158.421 273.5C127.503 274.739 98.9057 270.582 93.6664 264.14C92.991 263.316 93.0005 262.5 93.0005 261.569L93.2231 248.198C93.2231 249.039 93.4347 249.439 94.0504 250.359C99.2896 256.801 128.77 260.942 159.688 259.703C186.516 258.652 205.591 253.89 206.971 248.445Z" fill="#B2C4E1"/>
<path d="M140.613 236.573C171.532 235.334 200.913 239.491 206.152 245.933C211.392 252.375 190.609 258.57 159.535 259.761C128.617 261.001 99.2356 256.843 93.9963 250.401C88.7571 243.96 109.695 237.812 140.613 236.573Z" fill="#C9D6EC"/>
<path d="M144.284 242.255C163.502 241.695 186.002 243.803 189.105 246.841C192.349 249.837 175.339 252.592 156.12 253.152C136.902 253.713 114.172 251.59 110.928 248.594C107.534 245.564 125.065 242.816 144.284 242.255Z" fill="#E1EAF9"/>
<path d="M206.972 342.265L206.642 352.734C206.642 365.495 185.249 376.593 158.421 379.049C127.503 381.946 98.9057 372.227 93.6664 357.169C92.991 355.242 93.0005 353.335 93.0005 351.159L93.2232 341.687C93.2232 343.652 93.4349 344.587 94.0505 346.738C99.2897 361.797 128.77 371.477 159.689 368.58C186.517 366.125 205.591 354.992 206.972 342.265Z" fill="#B2C4E1"/>
<path d="M140.613 314.511C171.532 311.614 200.913 321.332 206.152 336.39C211.392 351.448 190.609 365.93 159.535 368.715C128.617 371.612 99.2356 361.894 93.9963 346.836C88.7571 331.777 109.695 317.407 140.613 314.511Z" fill="#C9D6EC"/>
<path d="M144.289 324.131C163.711 322.382 186.448 328.962 189.584 338.446C192.862 347.799 175.672 356.399 156.251 358.148C136.829 359.897 113.86 353.272 110.582 343.919C107.152 334.458 124.868 325.88 144.289 324.131Z" fill="#E1EAF9"/>
<path d="M93.0007 172.293L93.3301 161.824C93.3301 149.064 114.723 137.965 141.551 135.51C172.469 132.613 201.067 142.331 206.306 157.389C206.981 159.316 206.972 161.224 206.972 163.4L206.749 172.871C206.749 170.907 206.537 169.971 205.922 167.82C200.682 152.762 171.202 143.082 140.284 145.979C113.456 148.434 94.3812 159.566 93.0007 172.293Z" fill="#B2C4E1"/>
<path d="M159.359 200.048C128.441 202.945 99.059 193.227 93.8198 178.168C88.5806 163.11 109.363 148.629 140.437 145.843C171.355 142.946 200.737 152.665 205.976 167.723C211.215 182.781 190.277 197.151 159.359 200.048Z" fill="#C9D6EC"/>
<path d="M155.683 190.428C136.262 192.177 113.524 185.596 110.389 176.112C107.11 166.76 124.3 158.159 143.721 156.41C163.143 154.661 186.112 161.287 189.391 170.639C192.82 180.1 175.105 188.679 155.683 190.428Z" fill="#E1EAF9"/>
<path d="M149.5 405C117.744 405 92 428.729 92 458H207C207 428.729 181.256 405 149.5 405Z" fill="#C9D6EC"/>
<path d="M149.5 422C127.685 422 110 438.118 110 458H189C189 438.118 171.315 422 149.5 422Z" fill="#E1EAF9"/>
<path d="M159.316 108.983C128.878 114.753 99.9532 95.396 94.7954 65.4028C89.6376 35.4096 110.097 6.56474 140.688 1.01688C171.126 -4.75328 200.051 14.604 205.209 44.5972C210.367 74.5904 189.754 103.213 159.316 108.983Z" fill="#C9D6EC"/>
<path d="M155.648 92.3801C136.673 96.2241 114.458 81.7613 111.394 60.9178C108.191 40.3626 124.986 21.461 143.962 17.6171C162.937 13.7731 185.379 28.3345 188.582 48.8896C191.933 69.6828 174.624 88.5361 155.648 92.3801Z" fill="#E1EAF9"/>
</svg>
