<svg width="297" height="457" viewBox="0 0 297 457" fill="none" xmlns="http://www.w3.org/2000/svg">
<path d="M297 155.35C297 99.3225 255.114 54 203.432 54H93.6685C41.9859 54 0 99.3225 0 155.35V355.65C0 411.677 41.8859 457 93.5685 457H203.332C255.014 457 296.9 411.577 296.9 355.65V155.35H297Z" fill="#5E86EF"/>
<path d="M206.972 341.265L206.642 351.734C206.642 364.495 185.249 375.593 158.421 378.049C127.503 380.946 98.9057 371.227 93.6664 356.169C92.991 354.242 93.0005 352.335 93.0005 350.159L93.2232 340.687C93.2232 342.652 93.4349 343.587 94.0505 345.738C99.2897 360.797 128.77 370.477 159.689 367.58C186.517 365.125 205.591 353.992 206.972 341.265Z" fill="#EDAC31"/>
<path d="M140.613 313.511C171.532 310.614 200.913 320.332 206.152 335.39C211.392 350.448 190.609 364.93 159.535 367.715C128.617 370.612 99.2356 360.894 93.9963 345.836C88.7571 330.777 109.695 316.407 140.613 313.511Z" fill="#FCCC34"/>
<path d="M144.289 323.131C163.711 321.382 186.448 327.962 189.584 337.446C192.862 346.799 175.672 355.399 156.251 357.148C136.829 358.897 113.86 352.272 110.582 342.919C107.152 333.458 124.868 324.88 144.289 323.131Z" fill="#FFE592"/>
<path d="M93.0007 171.293L93.3301 160.824C93.3301 148.064 114.723 136.965 141.551 134.51C172.469 131.613 201.067 141.331 206.306 156.389C206.981 158.316 206.972 160.224 206.972 162.4L206.749 171.871C206.749 169.907 206.537 168.971 205.922 166.82C200.682 151.762 171.202 142.082 140.284 144.979C113.456 147.434 94.3812 158.566 93.0007 171.293Z" fill="#EDAC31"/>
<path d="M159.359 199.048C128.441 201.945 99.059 192.227 93.8198 177.168C88.5806 162.11 109.363 147.629 140.437 144.843C171.355 141.946 200.737 151.665 205.976 166.723C211.215 181.781 190.277 196.151 159.359 199.048Z" fill="#FCCC34"/>
<path d="M155.683 189.428C136.262 191.177 113.524 184.596 110.389 175.112C107.11 165.76 124.3 157.159 143.721 155.41C163.143 153.661 186.112 160.287 189.391 169.639C192.82 179.1 175.105 187.679 155.683 189.428Z" fill="#FFE592"/>
<path d="M149.5 404C117.744 404 92 427.729 92 457H207C207 427.729 181.256 404 149.5 404Z" fill="#FCCC34"/>
<path d="M149.5 421C127.685 421 110 437.118 110 457H189C189 437.118 171.315 421 149.5 421Z" fill="#FFE592"/>
<path d="M207.971 247.445L207.642 261.243C207.642 266.702 186.248 271.45 159.42 272.5C128.502 273.739 99.9052 269.582 94.666 263.14C93.9905 262.316 94 261.5 94 260.569L94.2226 247.198C94.2226 248.039 94.4343 248.439 95.0499 249.359C100.289 255.801 129.77 259.942 160.688 258.703C187.516 257.652 206.59 252.89 207.971 247.445Z" fill="#EDAC31"/>
<path d="M141.613 235.573C172.531 234.334 201.913 238.491 207.152 244.933C212.391 251.375 191.609 257.57 160.535 258.761C129.617 260.001 100.235 255.843 94.9959 249.401C89.7567 242.96 110.695 236.812 141.613 235.573Z" fill="#FCCC34"/>
<path d="M145.283 241.255C164.502 240.695 187.002 242.803 190.104 245.841C193.348 248.837 176.338 251.592 157.12 252.152C137.901 252.713 115.172 250.59 111.928 247.594C108.534 244.564 126.065 241.816 145.283 241.255Z" fill="#FFE592"/>
<path d="M159.15 107.002C129.256 112.667 100.847 93.6616 95.7812 64.2137C90.7155 34.7658 110.81 6.44538 140.855 0.998393C170.749 -4.66685 199.157 14.3384 204.223 43.7863C209.289 73.2342 189.044 101.336 159.15 107.002Z" fill="#FCCC34"/>
<path d="M156.076 90.3964C137.344 94.1392 115.413 80.057 112.389 59.7621C109.227 39.7478 125.807 21.3436 144.539 17.6008C163.271 13.858 185.425 28.0362 188.587 48.0504C191.895 68.2965 174.808 86.6536 156.076 90.3964Z" fill="#FFE592"/>
</svg>
