<svg width="760" height="600" viewBox="0 0 760 600" fill="none" xmlns="http://www.w3.org/2000/svg">
<path d="M244.675 328.575C250.775 322.475 260.575 322.475 266.675 328.575L284.975 346.875C291.075 352.975 291.075 362.775 284.975 368.875L266.875 387.075C260.775 393.175 250.975 393.175 244.875 387.075L226.575 368.775C220.475 362.675 220.475 352.875 226.575 346.775L244.675 328.575Z" fill="#6E82A4"/>
<path d="M544 173.35C544 117.322 502.114 72 450.432 72H340.668C288.986 72 247 117.322 247 173.35V373.65C247 429.678 288.886 475 340.569 475H450.332C502.014 475 543.9 429.577 543.9 373.65V173.35H544Z" fill="#E6EDFB"/>
<path d="M259.098 417.491C262.891 413.704 268.984 413.704 272.777 417.491L284.155 428.852C287.948 432.639 287.948 438.724 284.155 442.511L272.902 453.81C269.109 457.597 263.016 457.597 259.223 453.81L247.845 442.449C244.052 438.661 244.052 432.577 247.845 428.79L259.098 417.491Z" fill="#B2C4E1"/>
<path d="M525.235 162.488C520.556 162.452 518.356 156.689 521.804 153.547L541.658 135.453C543.742 133.554 547.001 133.705 548.9 135.789L565.544 154.052C568.548 157.349 566.196 162.683 561.734 162.657L525.235 162.488Z" fill="#B2C4E1"/>
<path d="M453.971 265.445L453.642 279.243C453.642 284.702 432.248 289.45 405.42 290.5C374.502 291.739 345.905 287.582 340.666 281.14C339.99 280.316 340 279.5 340 278.569L340.223 265.198C340.223 266.039 340.434 266.439 341.05 267.359C346.289 273.801 375.77 277.942 406.688 276.703C433.516 275.652 452.59 270.89 453.971 265.445Z" fill="#B2C4E1"/>
<path d="M387.613 253.573C418.531 252.334 447.913 256.491 453.152 262.933C458.391 269.375 437.609 275.57 406.535 276.761C375.617 278.001 346.235 273.843 340.996 267.401C335.757 260.96 356.695 254.812 387.613 253.573Z" fill="#C9D6EC"/>
<path d="M391.283 259.255C410.502 258.695 433.002 260.803 436.104 263.841C439.348 266.837 422.338 269.592 403.12 270.152C383.901 270.713 361.172 268.59 357.928 265.594C354.534 262.564 372.065 259.816 391.283 259.255Z" fill="#E1EAF9"/>
<path d="M453.971 359.265L453.642 369.734C453.642 382.495 432.248 393.593 405.42 396.049C374.502 398.946 345.905 389.227 340.666 374.169C339.99 372.242 340 370.335 340 368.159L340.223 358.687C340.223 360.652 340.434 361.587 341.05 363.738C346.289 378.797 375.77 388.477 406.688 385.58C433.516 383.125 452.591 371.992 453.971 359.265Z" fill="#B2C4E1"/>
<path d="M387.613 331.511C418.531 328.614 447.913 338.332 453.152 353.39C458.391 368.448 437.609 382.93 406.535 385.715C375.617 388.612 346.235 378.894 340.996 363.836C335.757 348.777 356.695 334.407 387.613 331.511Z" fill="#C9D6EC"/>
<path d="M391.288 341.131C410.71 339.382 433.447 345.962 436.583 355.446C439.861 364.799 422.671 373.399 403.25 375.148C383.828 376.897 360.859 370.272 357.581 360.919C354.151 351.458 371.867 342.88 391.288 341.131Z" fill="#E1EAF9"/>
<path d="M340.001 189.293L340.33 178.824C340.33 166.064 361.723 154.965 388.551 152.51C419.469 149.613 448.067 159.331 453.306 174.389C453.981 176.316 453.972 178.224 453.972 180.4L453.749 189.871C453.749 187.907 453.537 186.971 452.922 184.82C447.682 169.762 418.202 160.082 387.284 162.979C360.456 165.434 341.381 176.566 340.001 189.293Z" fill="#B2C4E1"/>
<path d="M406.359 217.048C375.441 219.945 346.059 210.227 340.82 195.168C335.581 180.11 356.363 165.629 387.437 162.843C418.355 159.946 447.737 169.665 452.976 184.723C458.215 199.781 437.277 214.151 406.359 217.048Z" fill="#C9D6EC"/>
<path d="M402.684 207.428C383.262 209.177 360.524 202.596 357.389 193.112C354.111 183.76 371.3 175.159 390.722 173.41C410.143 171.661 433.113 178.287 436.391 187.639C439.821 197.1 422.105 205.679 402.684 207.428Z" fill="#E1EAF9"/>
<path d="M396.5 422C364.744 422 339 445.729 339 475H454C454 445.729 428.256 422 396.5 422Z" fill="#C9D6EC"/>
<path d="M396.5 439C374.685 439 357 455.118 357 475H436C436 455.118 418.315 439 396.5 439Z" fill="#E1EAF9"/>
<path d="M406.316 125.983C375.878 131.753 346.953 112.396 341.795 82.4028C336.638 52.4096 357.097 23.5647 387.688 18.0169C418.126 12.2467 447.051 31.604 452.209 61.5972C457.367 91.5904 436.754 120.213 406.316 125.983Z" fill="#C9D6EC"/>
<path d="M402.648 109.38C383.673 113.224 361.458 98.7613 358.394 77.9178C355.191 57.3626 371.986 38.461 390.962 34.6171C409.937 30.7731 432.379 45.3345 435.582 65.8896C438.933 86.6828 421.624 105.536 402.648 109.38Z" fill="#E1EAF9"/>
</svg>
