<svg width="760" height="600" viewBox="0 0 760 600" fill="none" xmlns="http://www.w3.org/2000/svg">
<path d="M544 173.35C544 117.322 502.114 72 450.432 72H340.668C288.986 72 247 117.322 247 173.35V373.65C247 429.678 288.886 475 340.569 475H450.332C502.014 475 543.9 429.577 543.9 373.65V173.35H544Z" fill="#5E86EF"/>
<path d="M453.971 359.265L453.642 369.734C453.642 382.495 432.248 393.593 405.42 396.049C374.502 398.946 345.905 389.227 340.666 374.169C339.99 372.242 340 370.335 340 368.159L340.223 358.687C340.223 360.652 340.434 361.587 341.05 363.738C346.289 378.797 375.77 388.477 406.688 385.58C433.516 383.125 452.591 371.992 453.971 359.265Z" fill="#EDAC31"/>
<path d="M387.613 331.511C418.531 328.614 447.913 338.332 453.152 353.39C458.391 368.448 437.609 382.93 406.535 385.715C375.617 388.612 346.235 378.894 340.996 363.836C335.757 348.777 356.695 334.407 387.613 331.511Z" fill="#FCCC34"/>
<path d="M391.288 341.131C410.71 339.382 433.447 345.962 436.583 355.446C439.861 364.799 422.671 373.399 403.25 375.148C383.828 376.897 360.859 370.272 357.581 360.919C354.151 351.458 371.867 342.88 391.288 341.131Z" fill="#FFE592"/>
<path d="M340.001 189.293L340.33 178.824C340.33 166.064 361.723 154.965 388.551 152.51C419.469 149.613 448.067 159.331 453.306 174.389C453.981 176.316 453.972 178.224 453.972 180.4L453.749 189.871C453.749 187.907 453.537 186.971 452.922 184.82C447.682 169.762 418.202 160.082 387.284 162.979C360.456 165.434 341.381 176.566 340.001 189.293Z" fill="#EDAC31"/>
<path d="M406.359 217.048C375.441 219.945 346.059 210.227 340.82 195.168C335.581 180.11 356.363 165.629 387.437 162.843C418.355 159.946 447.737 169.665 452.976 184.723C458.215 199.781 437.277 214.151 406.359 217.048Z" fill="#FCCC34"/>
<path d="M402.684 207.428C383.262 209.177 360.524 202.596 357.389 193.112C354.111 183.76 371.3 175.159 390.722 173.41C410.143 171.661 433.113 178.287 436.391 187.639C439.821 197.1 422.105 205.679 402.684 207.428Z" fill="#FFE592"/>
<path d="M396.5 422C364.744 422 339 445.729 339 475H454C454 445.729 428.256 422 396.5 422Z" fill="#FCCC34"/>
<path d="M396.5 439C374.685 439 357 455.118 357 475H436C436 455.118 418.315 439 396.5 439Z" fill="#FFE592"/>
<path d="M454.971 265.445L454.642 279.243C454.642 284.702 433.248 289.45 406.42 290.5C375.502 291.739 346.905 287.582 341.666 281.14C340.99 280.316 341 279.5 341 278.569L341.223 265.198C341.223 266.039 341.434 266.439 342.05 267.359C347.289 273.801 376.77 277.942 407.688 276.703C434.516 275.652 453.59 270.89 454.971 265.445Z" fill="#EDAC31"/>
<path d="M388.613 253.573C419.531 252.334 448.913 256.491 454.152 262.933C459.391 269.375 438.609 275.57 407.535 276.761C376.617 278.001 347.235 273.843 341.996 267.401C336.757 260.96 357.695 254.812 388.613 253.573Z" fill="#FCCC34"/>
<path d="M392.283 259.255C411.502 258.695 434.002 260.803 437.104 263.841C440.348 266.837 423.338 269.592 404.12 270.152C384.901 270.713 362.172 268.59 358.928 265.594C355.534 262.564 373.065 259.816 392.283 259.255Z" fill="#FFE592"/>
<path d="M406.15 125.002C376.256 130.667 347.847 111.662 342.781 82.2137C337.716 52.7658 357.81 24.4454 387.855 18.9984C417.749 13.3331 446.157 32.3384 451.223 61.7863C456.289 91.2342 436.044 119.336 406.15 125.002Z" fill="#FCCC34"/>
<path d="M403.076 108.396C384.344 112.139 362.413 98.057 359.389 77.7621C356.227 57.7478 372.807 39.3436 391.539 35.6008C410.271 31.858 432.425 46.0362 435.587 66.0504C438.895 86.2965 421.808 104.654 403.076 108.396Z" fill="#FFE592"/>
</svg>
