<svg width="634" height="357" viewBox="0 0 634 357" fill="none" xmlns="http://www.w3.org/2000/svg">
<path d="M392.104 29.6653C399.421 31.3829 401.915 40.5718 396.382 45.6987L369.874 70.2918C365.258 74.5492 357.871 73.247 355.072 67.5973L337.68 32.6988C334.146 25.5983 340.446 17.4813 348.295 19.3325L392.104 29.6653Z" fill="#108CFF"/>
<rect x="120.598" y="44.3457" width="401.581" height="296.791" rx="96" fill="#E3EEFE"/>
<path d="M138.093 319.824C136.327 320.883 134.035 320.252 133.436 318.29C132.544 315.234 132.385 311.91 133.293 308.738C134.54 304.378 137.41 300.607 141.401 298.293C145.393 295.979 150.048 295.318 154.458 296.479C157.679 297.299 160.487 299.036 162.635 301.315C164.067 302.835 163.437 305.127 161.584 306.136C159.818 307.194 157.576 306.477 155.994 305.218C154.969 304.394 153.793 303.831 152.467 303.527C149.952 302.884 147.283 303.306 144.971 304.511C142.695 305.853 140.999 307.991 140.355 310.506C139.965 311.782 139.884 313.121 140.077 314.387C140.439 316.56 139.809 318.851 138.093 319.824Z" fill="#FFAB49"/>
<path d="M506.705 327.06C516.819 321.244 516.819 306.663 506.789 300.848L472.907 281.041C463.299 275.394 451.078 281.716 450.151 292.841L446.527 334.308C445.431 346.529 458.579 354.873 469.199 348.805L506.705 327.06Z" fill="#FFCA62"/>
<path opacity="0.3" fill-rule="evenodd" clip-rule="evenodd" d="M633.941 152.272L447.489 152.273C442.8 152.273 438.273 152.967 434.006 154.258H398.562V152.671C398.562 150.449 396.761 148.647 394.539 148.647H364.043C361.821 148.647 360.02 150.449 360.02 152.671V154.258H271.225V152.671C271.225 150.449 269.424 148.647 267.202 148.647H236.706C234.484 148.647 232.683 150.449 232.683 152.671V154.258H208.06C203.987 154.258 200.684 157.561 200.684 161.634V178.598H145.648C137.574 178.598 130.611 183.378 127.408 190.255C127.375 190.253 127.341 190.251 127.308 190.251H106.863C106.122 190.251 105.521 190.852 105.521 191.593L105.522 193.29H0V204.23H105.522L105.521 205.929C105.521 206.669 106.122 207.27 106.863 207.27H127.308C127.325 207.27 127.341 207.27 127.358 207.269C127.375 207.268 127.391 207.267 127.408 207.266C130.611 214.143 137.574 218.923 145.648 218.923H200.684V235.886C200.684 239.96 203.987 243.263 208.06 243.263H434.008C438.275 244.554 442.801 245.247 447.489 245.247L633.941 245.247V152.272ZM467.376 213.378C469.98 209.524 471.5 204.877 471.5 199.875C471.5 198.208 471.331 196.581 471.01 195.008C470.211 191.107 468.472 187.548 466.04 184.579C461.611 179.174 454.883 175.725 447.35 175.725C440.681 175.725 434.644 178.428 430.274 182.799C425.904 187.169 423.201 193.206 423.2 199.874C423.2 205.385 425.045 210.463 428.151 214.527C432.563 220.3 439.522 224.025 447.35 224.025C455.686 224.025 463.036 219.802 467.376 213.378Z" fill="#B0BFD9"/>
<path d="M134.649 185.844C134.649 185.103 134.049 184.503 133.308 184.503H112.863C112.122 184.503 111.522 185.103 111.522 185.844V200.18C111.522 200.921 112.122 201.521 112.863 201.521H133.308C134.049 201.521 134.649 200.921 134.649 200.18V185.844Z" fill="url(#paint0_linear)"/>
<path d="M206.684 172.85H151.647C140.537 172.85 131.53 181.902 131.53 193.012C131.53 204.123 140.537 213.175 151.647 213.175H206.684V172.85Z" fill="url(#paint1_linear)"/>
<path d="M0 187.575H111.475V198.575H0V187.575Z" fill="url(#paint2_linear)"/>
<path d="M366.02 148.51H404.562V146.923C404.562 144.701 402.761 142.899 400.539 142.899H370.043C367.821 142.899 366.02 144.701 366.02 146.923V148.51Z" fill="white"/>
<path d="M238.683 148.51H277.225V146.923C277.225 144.701 275.424 142.899 273.202 142.899H242.706C240.484 142.899 238.683 144.701 238.683 146.923V148.51Z" fill="white"/>
<path fill-rule="evenodd" clip-rule="evenodd" d="M214.06 148.51C209.986 148.51 206.684 151.812 206.684 155.886V230.138C206.684 234.212 209.986 237.514 214.06 237.514H492.566C496.64 237.514 499.943 234.212 499.943 230.138V155.886C499.943 151.812 496.64 148.51 492.566 148.51H214.06ZM453.35 218.277C466.688 218.277 477.501 207.464 477.501 194.127C477.501 180.789 466.688 169.977 453.35 169.977C440.013 169.977 429.2 180.789 429.2 194.127C429.2 207.464 440.013 218.277 453.35 218.277Z" fill="url(#paint3_linear)"/>
<path fill-rule="evenodd" clip-rule="evenodd" d="M453.975 146.574C428.293 146.574 407.475 167.393 407.475 193.074C407.475 218.755 428.293 239.574 453.975 239.574H628.623C631.937 239.574 634.623 236.888 634.623 233.574V152.574C634.623 149.261 631.937 146.574 628.623 146.574H453.975ZM453.35 218.276C466.688 218.276 477.5 207.463 477.5 194.126C477.5 180.788 466.688 169.976 453.35 169.976C440.012 169.976 429.2 180.788 429.2 194.126C429.2 207.463 440.012 218.276 453.35 218.276Z" fill="white"/>
<rect x="251.865" y="168.644" width="139.046" height="48.1942" rx="4.41186" fill="#57AEFF"/>
<rect x="385.459" y="133.466" width="2.64163" height="2.64163" transform="rotate(90 385.459 133.466)" fill="#108CFF"/>
<rect x="385.459" y="129.484" width="2.64163" height="2.64163" transform="rotate(90 385.459 129.484)" fill="#108CFF"/>
<rect x="385.459" y="125.502" width="2.64163" height="2.64163" transform="rotate(90 385.459 125.502)" fill="#108CFF"/>
<rect x="385.459" y="121.521" width="2.64163" height="2.64163" transform="rotate(90 385.459 121.521)" fill="#108CFF"/>
<rect x="385.459" y="117.539" width="2.64163" height="2.64163" transform="rotate(90 385.459 117.539)" fill="#108CFF"/>
<rect x="385.459" y="113.557" width="2.64163" height="2.64163" transform="rotate(90 385.459 113.557)" fill="#108CFF"/>
<rect x="385.459" y="109.575" width="2.64163" height="2.64163" transform="rotate(90 385.459 109.575)" fill="#108CFF"/>
<rect x="390.062" y="129.314" width="2.64163" height="2.64163" transform="rotate(90 390.062 129.314)" fill="#108CFF"/>
<rect width="2.64163" height="2.64163" transform="matrix(-4.37114e-08 1 1 4.37114e-08 378.29 129.314)" fill="#108CFF"/>
<rect x="393.611" y="125.163" width="2.64163" height="2.64163" transform="rotate(90 393.611 125.163)" fill="#108CFF"/>
<rect width="2.64163" height="2.64163" transform="matrix(-4.37114e-08 1 1 4.37114e-08 374.742 125.163)" fill="#108CFF"/>
<rect x="397.385" y="121.013" width="2.64163" height="2.64163" transform="rotate(90 397.385 121.013)" fill="#108CFF"/>
<rect width="2.64163" height="2.64163" transform="matrix(-4.37114e-08 1 1 4.37114e-08 370.969 121.013)" fill="#108CFF"/>
<rect x="259.99" y="133.466" width="2.64163" height="2.64163" transform="rotate(90 259.99 133.466)" fill="#108CFF"/>
<rect x="259.99" y="129.484" width="2.64163" height="2.64163" transform="rotate(90 259.99 129.484)" fill="#108CFF"/>
<rect x="259.99" y="125.502" width="2.64163" height="2.64163" transform="rotate(90 259.99 125.502)" fill="#108CFF"/>
<rect x="259.99" y="121.521" width="2.64163" height="2.64163" transform="rotate(90 259.99 121.521)" fill="#108CFF"/>
<rect x="259.99" y="117.539" width="2.64163" height="2.64163" transform="rotate(90 259.99 117.539)" fill="#108CFF"/>
<rect x="259.99" y="113.557" width="2.64163" height="2.64163" transform="rotate(90 259.99 113.557)" fill="#108CFF"/>
<rect x="259.99" y="109.575" width="2.64163" height="2.64163" transform="rotate(90 259.99 109.575)" fill="#108CFF"/>
<rect x="264.594" y="129.314" width="2.64163" height="2.64163" transform="rotate(90 264.594 129.314)" fill="#108CFF"/>
<rect width="2.64163" height="2.64163" transform="matrix(-4.37114e-08 1 1 4.37114e-08 252.821 129.314)" fill="#108CFF"/>
<rect x="268.143" y="125.163" width="2.64163" height="2.64163" transform="rotate(90 268.143 125.163)" fill="#108CFF"/>
<rect width="2.64163" height="2.64163" transform="matrix(-4.37114e-08 1 1 4.37114e-08 249.273 125.163)" fill="#108CFF"/>
<rect x="271.916" y="121.013" width="2.64163" height="2.64163" transform="rotate(90 271.916 121.013)" fill="#108CFF"/>
<rect width="2.64163" height="2.64163" transform="matrix(-4.37114e-08 1 1 4.37114e-08 245.5 121.013)" fill="#108CFF"/>
<rect x="263.293" y="193.895" width="1.29313" height="1.29313" transform="rotate(-180 263.293 193.895)" fill="white"/>
<rect x="265.325" y="196.148" width="1.29313" height="1.29313" transform="rotate(-180 265.325 196.148)" fill="white"/>
<rect width="1.29313" height="1.29313" transform="matrix(-1 -8.74228e-08 -8.74228e-08 1 265.325 190.386)" fill="white"/>
<rect x="267.357" y="197.885" width="1.29313" height="1.29313" transform="rotate(-180 267.357 197.885)" fill="white"/>
<rect width="1.29313" height="1.29313" transform="matrix(-1 -8.74228e-08 -8.74228e-08 1 267.357 188.648)" fill="white"/>
<rect x="269.389" y="199.732" width="1.29313" height="1.29313" transform="rotate(-180 269.389 199.732)" fill="white"/>
<rect width="1.29313" height="1.29313" transform="matrix(-1 -8.74228e-08 -8.74228e-08 1 269.39 186.801)" fill="white"/>
<rect width="1.29313" height="1.29313" transform="matrix(1 -8.74228e-08 -8.74228e-08 -1 383.428 193.895)" fill="white"/>
<rect width="1.29313" height="1.29313" transform="matrix(1 -8.74228e-08 -8.74228e-08 -1 381.396 196.148)" fill="white"/>
<rect x="381.396" y="190.386" width="1.29313" height="1.29313" fill="white"/>
<rect width="1.29313" height="1.29313" transform="matrix(1 -8.74228e-08 -8.74228e-08 -1 379.363 197.885)" fill="white"/>
<rect x="379.363" y="188.648" width="1.29313" height="1.29313" fill="white"/>
<rect width="1.29313" height="1.29313" transform="matrix(1 -8.74228e-08 -8.74228e-08 -1 377.331 199.732)" fill="white"/>
<rect x="377.331" y="186.801" width="1.29313" height="1.29313" fill="white"/>
<path d="M303.56 204.531C305.078 204.531 306.344 203.288 306.344 201.815C306.344 200.343 305.078 199.107 303.56 199.107C302.057 199.107 300.775 200.343 300.775 201.815C300.775 203.288 302.057 204.531 303.56 204.531ZM303.56 203.509C302.682 203.509 301.935 202.731 301.935 201.815C301.935 200.908 302.682 200.129 303.56 200.129C304.445 200.129 305.192 200.908 305.192 201.815C305.192 202.731 304.445 203.509 303.56 203.509ZM308.316 204.439H309.437V202.738H310.673C311.81 202.738 312.649 202.006 312.649 200.969C312.649 199.931 311.81 199.199 310.673 199.199H308.316V204.439ZM309.437 201.709V200.229H310.551C311.108 200.229 311.489 200.519 311.489 200.969C311.489 201.419 311.108 201.709 310.551 201.709H309.437ZM318.532 200.213V199.199H314.496V204.439H318.532V203.425H315.625V202.273H318.257V201.258H315.625V200.213H318.532ZM320.573 204.439H321.694V201.052L324.219 204.439H325.348V199.199H324.219V202.586L321.694 199.199H320.573V204.439ZM334.699 204.439H335.965L333.829 199.199H332.57L330.434 204.439H331.693L332.029 203.616H334.363L334.699 204.439ZM332.418 202.662L333.196 200.747L333.974 202.662H332.418ZM337.727 204.439H338.848V202.738H340.084C341.221 202.738 342.06 202.006 342.06 200.969C342.06 199.931 341.221 199.199 340.084 199.199H337.727V204.439ZM338.848 201.709V200.229H339.962C340.519 200.229 340.9 200.519 340.9 200.969C340.9 201.419 340.519 201.709 339.962 201.709H338.848ZM343.907 204.439H345.028V202.738H346.264C347.401 202.738 348.24 202.006 348.24 200.969C348.24 199.931 347.401 199.199 346.264 199.199H343.907V204.439ZM345.028 201.709V200.229H346.142C346.699 200.229 347.08 200.519 347.08 200.969C347.08 201.419 346.699 201.709 346.142 201.709H345.028Z" fill="white"/>
<path fill-rule="evenodd" clip-rule="evenodd" d="M319.271 179V180.035H318.237V181.069H317.202V191.414H318.237V192.449H319.271V193.483H329.616V192.449H330.651V191.414H331.685V181.069H330.651V180.035H329.616V179H319.271ZM327.547 182.104V181.069H321.34V182.104H323.409V185.207H322.374V186.242H323.409V187.276H322.374V188.311H323.409V190.38H321.34V191.414H327.547V190.38H325.478V188.311H326.512V187.276H325.478V186.242H326.512V185.207H325.478V182.104L327.547 182.104Z" fill="#FAFCFE"/>
<defs>
<linearGradient id="paint0_linear" x1="112.353" y1="191.841" x2="134.401" y2="191.841" gradientUnits="userSpaceOnUse">
<stop stop-color="white"/>
<stop offset="1" stop-color="#E4EBFA"/>
</linearGradient>
<linearGradient id="paint1_linear" x1="135.148" y1="195.578" x2="207.271" y2="195.578" gradientUnits="userSpaceOnUse">
<stop stop-color="white"/>
<stop offset="1" stop-color="#E4EBFA"/>
</linearGradient>
<linearGradient id="paint2_linear" x1="19.2376" y1="187.575" x2="130.954" y2="187.575" gradientUnits="userSpaceOnUse">
<stop stop-color="white"/>
<stop offset="1" stop-color="#E4EBFA"/>
</linearGradient>
<linearGradient id="paint3_linear" x1="353.313" y1="148.51" x2="353.313" y2="238.323" gradientUnits="userSpaceOnUse">
<stop stop-color="white"/>
<stop offset="1" stop-color="#F0F5FE"/>
</linearGradient>
</defs>
</svg>
