<svg width="330" height="429" viewBox="0 0 330 429" fill="none" xmlns="http://www.w3.org/2000/svg">
<g clip-path="url(#clip0)">
<path d="M16.9754 34.9895C-1.6246 67.2895 25.8754 106.789 62.5754 100.289C92.9754 94.9895 108.575 60.6895 92.5754 34.2895C75.3754 5.58946 33.6754 5.98947 16.9754 34.9895Z" fill="url(#paint0_linear)"/>
<path d="M31 114.4C31 58.4 74.7 13 128.7 13H230.3C284.3 13 328 58.4 328 114.4V314.7C328 370.7 284.3 416.1 230.3 416.1H128.7C74.7 416.1 31 370.7 31 314.7V114.4Z" fill="url(#paint1_linear)"/>
<path d="M234 416C285.954 416 328 373.83 328 321.76V267.595C328 267.595 324.391 266.167 322.586 265.691C308.339 262.169 302.735 260.646 297.321 257.41C292.002 254.173 286.494 246.748 286.494 239.228C286.494 239.228 286.304 225.806 286.019 218L189.709 222.093C189.709 222.093 190.184 242.94 189.234 249.318C188.284 255.696 184.675 263.597 173.087 265.596C161.499 267.595 141.649 271.117 137.944 298.533C135.19 318.999 134.81 403.054 134.81 416L234 416Z" fill="url(#paint2_linear)"/>
<path d="M287.918 201.551C287.918 188.365 289.545 151.386 273.75 132.658C256.902 112.497 236.512 107.91 215.165 110.777C190.084 114.217 160.887 135.525 157.537 162.852C154.569 187.027 163.759 210.819 188.648 224.77C188.84 232.701 189.223 240.249 188.648 247.511C186.83 264.615 207.603 267.577 217.367 263.182C227.131 258.691 231.247 250.76 235.938 246.078C240.629 241.396 249.148 240.632 252.116 246.078C255.083 251.525 260.923 264.233 274.038 262.513C282.653 261.558 287.822 255.347 287.822 244.645C287.918 233.943 288.11 217.604 287.918 201.551Z" fill="url(#paint3_linear)"/>
<path d="M238.609 222.156C231.239 227.041 213.757 235.95 189 224.551L189.378 253C189.378 253 219.521 248.785 239.837 223.401C240.404 222.731 239.365 221.581 238.609 222.156Z" fill="url(#paint4_linear)"/>
<path d="M260.073 179.668C255.583 200.582 237.338 213.582 207.153 210.567C171.81 206.422 165.887 181.175 168.562 165.631C171.141 150.747 188.049 132 211.929 132C235.905 132 266.759 149.145 260.073 179.668Z" fill="#F1852D"/>
<path d="M259.1 179.688C254.72 200.587 237.103 213.601 207.868 210.561C173.681 206.381 167.968 181.208 170.539 165.628C173.015 150.714 189.299 132 212.534 132C235.769 132 265.576 149.194 259.1 179.688Z" fill="url(#paint5_linear)"/>
<path opacity="0.5" d="M242.422 172.065C237.511 175.881 228.266 174.217 216.806 165.606C203.421 155.428 204.961 147.893 208.332 144.859C211.606 142.021 221.14 141.924 230.577 148.187C240.111 154.45 249.741 166.584 242.422 172.065Z" fill="#FD9724"/>
<path d="M221.368 168.874C222.224 171.632 220.702 174.486 217.944 175.342C215.185 176.198 212.236 174.676 211.38 172.013C210.524 169.349 212.046 166.4 214.805 165.544C217.563 164.688 220.512 166.115 221.368 168.874Z" fill="#F36B1C"/>
<path d="M212.073 169.189C211.595 171.866 213.508 174.448 216.187 174.927C218.961 175.405 221.448 173.492 221.927 170.814C222.405 168.137 220.492 165.554 217.813 165.076C215.135 164.598 212.552 166.415 212.073 169.189Z" fill="#FFE7AD"/>
<path d="M219.1 167.115C218.928 167.344 218.985 168.032 219.214 168.49C219.443 168.949 219.729 169.178 219.9 168.834C220.072 168.605 220.015 167.917 219.786 167.459C219.557 167 219.214 166.885 219.1 167.115Z" fill="white"/>
<path d="M219.651 171.598C219.926 171.598 220.109 171.902 219.926 172.206C219.102 173.524 217.728 174.234 216.171 173.93C214.155 173.524 212.69 171.395 213.056 169.164C213.24 167.744 214.064 166.628 215.163 166.02C215.438 165.918 215.621 166.223 215.621 166.527C215.529 167.541 215.987 168.859 216.903 169.975C217.819 170.888 218.827 171.496 219.651 171.598Z" fill="#FC9A4A" fill-opacity="0.15"/>
<path d="M181.037 169.92C181.703 172.678 180.751 175.437 178.944 176.198C177.042 176.959 174.949 175.342 174.283 172.583C173.617 169.825 174.568 167.066 176.376 166.305C178.183 165.544 180.276 167.161 181.037 169.92Z" fill="#F36B1C"/>
<path d="M175.017 169.945C174.824 172.63 176.275 175.314 178.113 175.889C180.048 176.465 181.789 174.739 181.983 172.055C182.176 169.37 180.725 166.686 178.887 166.111C176.952 165.535 175.211 167.261 175.017 169.945Z" fill="#FFE7AD"/>
<path d="M179.086 168.155C178.921 168.375 179.003 169.034 179.252 169.474C179.5 169.914 179.831 170.134 179.914 169.914C180.079 169.694 179.997 169.034 179.748 168.595C179.583 168.045 179.252 167.825 179.086 168.155Z" fill="white"/>
<path d="M180.594 172.724C180.88 172.827 181.07 173.135 180.975 173.341C180.404 174.575 179.451 175.295 178.404 174.884C176.88 174.369 175.832 172.209 176.022 169.947C176.118 168.609 176.594 167.581 177.261 167.067C177.451 166.861 177.737 167.169 177.737 167.478C177.737 168.507 178.118 169.844 178.785 170.975C179.356 171.798 180.023 172.415 180.594 172.724Z" fill="#FC9A4A" fill-opacity="0.15"/>
<path d="M109 246C99.6307 246 92 238.369 92 229C92 219.631 99.6307 212 109 212C118.369 212 126 219.631 126 229C126 238.369 118.369 246 109 246Z" fill="url(#paint6_radial)"/>
<path d="M116.202 106.11C115.366 105.342 114.344 104.863 113.23 104.767C108.956 104.575 98.0874 104.096 95.3005 104C94.8361 104 94.2787 104.384 94 104.959L107.098 118C107.284 117.425 107.842 117.041 108.399 117.041L127.628 117.712C127.814 117.712 127.907 117.808 128 117.904L116.202 106.11Z" fill="#FFD481"/>
<path d="M128.31 117.75L108.595 117C108.119 117 107.548 117.375 107.262 117.938L99.0714 139.313C98.881 139.875 99.0714 140.344 99.6429 140.344L119.357 141C119.834 141 120.405 140.625 120.691 140.062L128.977 118.781C129.072 118.219 128.881 117.75 128.31 117.75Z" fill="url(#paint7_linear)"/>
<path d="M106.265 114.956L95.2361 104.331C94.6656 103.762 93.7148 103.951 93.3345 104.71L85.0625 126.245C84.9674 126.624 84.9674 126.909 85.1575 127.098L98.5639 140C98.3737 139.81 98.2786 139.526 98.4688 139.146L106.741 117.612C107.216 116.758 107.026 115.62 106.265 114.956Z" fill="#FFAE4E"/>
<path d="M78.8061 158.752C78.4232 158.188 78.0404 158.094 77.6575 158L70 197.854C70.8615 198.042 72.2972 198.136 73.4459 197.572L95.6525 187.797C96.9926 187.233 97.3755 185.635 96.6097 184.507L78.8061 158.752Z" fill="url(#paint8_linear)"/>
<path d="M78 158.018C77.3235 157.924 77.0336 158.207 76.4537 158.678L54.8054 177.16C53.8389 177.915 53.7423 179.329 54.5154 180.272L67.8523 196.774C68.3356 197.34 69.3987 197.811 70.2685 198L78 158.018Z" fill="#FFAE4E"/>
<path d="M61.5992 285.946C64.4317 288.139 67.0753 289.759 73.1179 292.619C73.4956 292.81 73.8732 292.524 73.9676 292.143C73.9676 291.857 73.8732 291.666 73.59 291.571C69.2469 289.569 62.8266 286.232 59.8053 282.514C55.4622 277.176 59.2388 272.982 62.3545 276.795C65.187 280.131 68.3971 282.991 75.0062 285.851C75.2895 285.946 75.5727 285.851 75.6671 285.565C75.8559 285.279 75.6671 284.993 75.3839 284.898C70.9463 282.896 65.7535 279.75 63.2987 275.46C60.7495 270.884 64.8093 267.453 68.0195 271.933C70.3799 275.174 72.6458 277.557 78.8772 280.131C79.1605 280.227 79.3493 280.227 79.5381 279.941C79.9158 279.655 79.8214 279.083 79.3493 278.892C76.4224 277.557 73.4956 275.842 71.6073 273.649C66.6032 267.834 70.9463 264.783 74.723 268.883C78.9717 273.554 87.0914 276.223 93.5116 277.462C94.8335 277.748 95.7776 277.367 94.739 276.318C93.0396 274.602 91.4345 272.6 90.9624 270.217C90.4904 268.12 91.8122 266.69 93.7005 267.834C97.7603 270.408 106.258 275.46 112.772 279.941C121.081 285.66 119.948 297.672 119.948 297.672C119.948 297.672 119.948 411.97 119.948 415.974C113.811 416.355 95.872 412.542 86.4305 407.299C86.4305 403.486 86.997 315.879 87.1858 311.304C87.3746 307.49 82.5594 304.631 77.8387 301.961C77.8387 301.961 64.7149 296.337 59.5221 291.094C54.6125 286.328 57.7282 282.896 61.5992 285.946Z" fill="#FFF2DA"/>
<path d="M61.5992 285.946C64.4317 288.139 67.0753 289.759 73.1179 292.619C73.4956 292.81 73.8732 292.524 73.9676 292.143C73.9676 291.857 73.8732 291.666 73.59 291.571C69.2469 289.569 62.8266 286.232 59.8053 282.514C55.4622 277.176 59.2388 272.982 62.3545 276.795C65.187 280.131 68.3971 282.991 75.0062 285.851C75.2895 285.946 75.5727 285.851 75.6671 285.565C75.8559 285.279 75.6671 284.993 75.3839 284.898C70.9463 282.896 65.7535 279.75 63.2987 275.46C60.7495 270.884 64.8093 267.453 68.0195 271.933C70.3799 275.174 72.6458 277.557 78.8772 280.131C79.1605 280.227 79.3493 280.227 79.5381 279.941C79.9158 279.655 79.8214 279.083 79.3493 278.892C76.4224 277.557 73.4956 275.842 71.6073 273.649C66.6032 267.834 70.9463 264.783 74.723 268.883C78.9717 273.554 87.0914 276.223 93.5116 277.462C94.8335 277.748 95.7776 277.367 94.739 276.318C93.0396 274.602 91.4345 272.6 90.9624 270.217C90.4904 268.12 91.8122 266.69 93.7005 267.834C97.7603 270.408 106.258 275.46 112.772 279.941C121.081 285.66 119.948 297.672 119.948 297.672C119.948 297.672 119.948 411.97 119.948 415.974C113.811 416.355 95.872 412.542 86.4305 407.299C86.4305 403.486 86.997 315.879 87.1858 311.304C87.3746 307.49 82.5594 304.631 77.8387 301.961C77.8387 301.961 64.7149 296.337 59.5221 291.094C54.6125 286.328 57.7282 282.896 61.5992 285.946Z" fill="url(#paint9_linear)"/>
<path d="M256 418.9C256 426.9 265 431.7 271.6 427.2L303.4 405.7C308.9 402 309.3 394 304.2 389.7L272.4 363.3C265.9 357.9 256 362.5 256 371V418.9Z" fill="#638BF2"/>
<path d="M305.3 421.5C306.6 423.4 309.2 423.9 311.1 422.6L328.2 411.2C330.1 409.9 330.6 407.4 329.3 405.4C328 403.5 325.5 403 323.5 404.3L306.4 415.7C304.5 417 304 419.6 305.3 421.5Z" fill="#FF7A59"/>
</g>
<defs>
<linearGradient id="paint0_linear" x1="10.9754" y1="56.9895" x2="98.9754" y2="56.9895" gradientUnits="userSpaceOnUse">
<stop stop-color="#AEF7C2"/>
<stop offset="1" stop-color="#61E897"/>
</linearGradient>
<linearGradient id="paint1_linear" x1="173" y1="13" x2="173" y2="416" gradientUnits="userSpaceOnUse">
<stop stop-color="#FFF7B1"/>
<stop offset="1" stop-color="#FFE485"/>
</linearGradient>
<linearGradient id="paint2_linear" x1="231.515" y1="218.082" x2="231.515" y2="416" gradientUnits="userSpaceOnUse">
<stop stop-color="white"/>
<stop offset="1" stop-color="#FFF2DA"/>
</linearGradient>
<linearGradient id="paint3_linear" x1="268.313" y1="124.576" x2="190.802" y2="259.076" gradientUnits="userSpaceOnUse">
<stop stop-color="#FFA740"/>
<stop offset="1" stop-color="#FF9634"/>
</linearGradient>
<linearGradient id="paint4_linear" x1="202.52" y1="216.564" x2="217.633" y2="242.386" gradientUnits="userSpaceOnUse">
<stop stop-color="#F0742E"/>
<stop offset="0.8481" stop-color="#F0742E" stop-opacity="0"/>
<stop offset="1" stop-color="#F0742E" stop-opacity="0"/>
</linearGradient>
<linearGradient id="paint5_linear" x1="245.218" y1="142.478" x2="184.809" y2="203.034" gradientUnits="userSpaceOnUse">
<stop stop-color="#FF971E"/>
<stop offset="1" stop-color="#E36219"/>
</linearGradient>
<radialGradient id="paint6_radial" cx="0" cy="0" r="1" gradientUnits="userSpaceOnUse" gradientTransform="translate(117.132 221.689) rotate(125.522) scale(27.2678 27.3044)">
<stop stop-color="#FFCB8E"/>
<stop offset="0.1854" stop-color="#FFAE4E"/>
<stop offset="1" stop-color="#F48135"/>
</radialGradient>
<linearGradient id="paint7_linear" x1="123.006" y1="137.909" x2="105.237" y2="119.859" gradientUnits="userSpaceOnUse">
<stop stop-color="#FFAE4E"/>
<stop offset="1" stop-color="#F48135"/>
</linearGradient>
<linearGradient id="paint8_linear" x1="89.9851" y1="193.6" x2="66.1362" y2="169.315" gradientUnits="userSpaceOnUse">
<stop stop-color="#FFAE4E"/>
<stop offset="1" stop-color="#F48135"/>
</linearGradient>
<linearGradient id="paint9_linear" x1="88.5521" y1="266.882" x2="88.5521" y2="415.919" gradientUnits="userSpaceOnUse">
<stop stop-color="white"/>
<stop offset="1" stop-color="#FFF2DA"/>
</linearGradient>
<clipPath id="clip0">
<rect width="330" height="428.9" fill="white"/>
</clipPath>
</defs>
</svg>
