<svg width="760" height="600" viewBox="0 0 760 600" fill="none" xmlns="http://www.w3.org/2000/svg">
<g clip-path="url(#clip0)">
<path d="M231.975 93.9895C213.375 126.289 240.875 165.789 277.575 159.289C307.975 153.989 323.575 119.689 307.575 93.2895C290.375 64.5895 248.675 64.9895 231.975 93.9895Z" fill="url(#paint0_linear)"/>
<path d="M246 173.4C246 117.4 289.7 72 343.7 72H445.3C499.3 72 543 117.4 543 173.4V373.7C543 429.7 499.3 475.1 445.3 475.1H343.7C289.7 475.1 246 429.7 246 373.7V173.4Z" fill="url(#paint1_linear)"/>
<path d="M449 475C500.954 475 543 432.83 543 380.76V326.595C543 326.595 539.391 325.167 537.586 324.691C523.339 321.169 517.735 319.646 512.321 316.41C507.002 313.173 501.494 305.748 501.494 298.228C501.494 298.228 501.304 284.806 501.019 277L404.709 281.093C404.709 281.093 405.184 301.94 404.234 308.318C403.284 314.696 399.675 322.597 388.087 324.596C376.499 326.595 356.649 330.117 352.944 357.533C350.19 377.999 349.81 462.054 349.81 475L449 475Z" fill="url(#paint2_linear)"/>
<path d="M502.918 260.551C502.918 247.365 504.545 210.386 488.75 191.658C471.902 171.497 451.512 166.91 430.165 169.777C405.084 173.217 375.887 194.525 372.537 221.852C369.569 246.027 378.759 269.819 403.648 283.77C403.84 291.701 404.223 299.249 403.648 306.511C401.83 323.615 422.603 326.577 432.367 322.182C442.131 317.691 446.247 309.76 450.938 305.078C455.629 300.396 464.148 299.632 467.116 305.078C470.083 310.525 475.923 323.233 489.038 321.513C497.653 320.558 502.822 314.347 502.822 303.645C502.918 292.943 503.11 276.604 502.918 260.551Z" fill="url(#paint3_linear)"/>
<path d="M453.609 281.156C446.239 286.041 428.757 294.95 404 283.551L404.378 312C404.378 312 434.521 307.785 454.837 282.401C455.404 281.731 454.365 280.581 453.609 281.156Z" fill="url(#paint4_linear)"/>
<path d="M475.073 238.668C470.583 259.582 452.338 272.582 422.153 269.567C386.81 265.422 380.887 240.175 383.562 224.631C386.141 209.747 403.049 191 426.929 191C450.905 191 481.759 208.145 475.073 238.668Z" fill="#F1852D"/>
<path d="M474.1 238.688C469.72 259.587 452.103 272.601 422.868 269.561C388.681 265.381 382.968 240.208 385.539 224.628C388.015 209.714 404.299 191 427.534 191C450.769 191 480.576 208.194 474.1 238.688Z" fill="url(#paint5_linear)"/>
<path opacity="0.5" d="M457.422 231.065C452.511 234.881 443.266 233.217 431.806 224.606C418.421 214.428 419.961 206.893 423.332 203.859C426.606 201.021 436.14 200.924 445.577 207.187C455.111 213.45 464.741 225.584 457.422 231.065Z" fill="#FD9724"/>
<path d="M436.369 227.874C437.225 230.632 435.703 233.486 432.944 234.342C430.186 235.198 427.237 233.676 426.381 231.013C425.525 228.349 427.047 225.4 429.805 224.544C432.564 223.688 435.513 225.115 436.369 227.874Z" fill="#F36B1C"/>
<path d="M427.073 228.189C426.595 230.866 428.508 233.448 431.187 233.927C433.961 234.405 436.448 232.492 436.927 229.814C437.405 227.137 435.492 224.554 432.813 224.076C430.135 223.598 427.552 225.415 427.073 228.189Z" fill="#FFE7AD"/>
<path d="M434.1 226.115C433.928 226.344 433.985 227.032 434.214 227.49C434.443 227.949 434.729 228.178 434.9 227.834C435.072 227.605 435.015 226.917 434.786 226.459C434.557 226 434.214 225.885 434.1 226.115Z" fill="white"/>
<path d="M434.651 230.598C434.926 230.598 435.109 230.902 434.926 231.206C434.102 232.524 432.728 233.234 431.171 232.93C429.155 232.524 427.69 230.395 428.056 228.164C428.24 226.744 429.064 225.628 430.163 225.02C430.438 224.918 430.621 225.223 430.621 225.527C430.529 226.541 430.987 227.859 431.903 228.975C432.819 229.888 433.827 230.496 434.651 230.598Z" fill="#FC9A4A" fill-opacity="0.15"/>
<path d="M396.037 228.92C396.703 231.678 395.751 234.437 393.944 235.198C392.042 235.959 389.949 234.342 389.283 231.583C388.617 228.825 389.568 226.066 391.376 225.305C393.183 224.544 395.276 226.161 396.037 228.92Z" fill="#F36B1C"/>
<path d="M390.017 228.945C389.824 231.63 391.275 234.314 393.113 234.889C395.048 235.465 396.789 233.739 396.983 231.055C397.176 228.37 395.725 225.686 393.887 225.111C391.952 224.535 390.211 226.261 390.017 228.945Z" fill="#FFE7AD"/>
<path d="M394.086 227.155C393.921 227.375 394.003 228.034 394.252 228.474C394.5 228.914 394.831 229.134 394.914 228.914C395.079 228.694 394.997 228.034 394.748 227.595C394.583 227.045 394.252 226.825 394.086 227.155Z" fill="white"/>
<path d="M395.594 231.724C395.88 231.827 396.07 232.135 395.975 232.341C395.404 233.575 394.451 234.295 393.404 233.884C391.88 233.369 390.832 231.209 391.022 228.947C391.118 227.609 391.594 226.581 392.261 226.067C392.451 225.861 392.737 226.169 392.737 226.478C392.737 227.507 393.118 228.844 393.785 229.975C394.356 230.798 395.023 231.415 395.594 231.724Z" fill="#FC9A4A" fill-opacity="0.15"/>
<path d="M324 305C314.631 305 307 297.369 307 288C307 278.631 314.631 271 324 271C333.369 271 341 278.631 341 288C341 297.369 333.369 305 324 305Z" fill="url(#paint6_radial)"/>
<path d="M331.202 165.11C330.366 164.342 329.344 163.863 328.23 163.767C323.956 163.575 313.087 163.096 310.301 163C309.836 163 309.279 163.384 309 163.959L322.098 177C322.284 176.425 322.842 176.041 323.399 176.041L342.628 176.712C342.814 176.712 342.907 176.808 343 176.904L331.202 165.11Z" fill="#FFD481"/>
<path d="M342.31 176.75L322.595 176C322.119 176 321.548 176.375 321.262 176.938L313.071 198.313C312.881 198.875 313.071 199.344 313.643 199.344L333.357 200C333.834 200 334.405 199.625 334.691 199.062L342.977 177.781C343.072 177.219 342.881 176.75 342.31 176.75Z" fill="url(#paint7_linear)"/>
<path d="M321.265 173.956L310.236 163.331C309.666 162.762 308.715 162.951 308.334 163.71L300.062 185.245C299.967 185.624 299.967 185.909 300.158 186.098L313.564 199C313.374 198.81 313.279 198.526 313.469 198.146L321.741 176.612C322.216 175.758 322.026 174.62 321.265 173.956Z" fill="#FFAE4E"/>
<path d="M293.806 217.752C293.423 217.188 293.04 217.094 292.657 217L285 256.854C285.861 257.042 287.297 257.136 288.446 256.572L310.653 246.797C311.993 246.233 312.375 244.635 311.61 243.507L293.806 217.752Z" fill="url(#paint8_linear)"/>
<path d="M293 217.018C292.323 216.924 292.034 217.207 291.454 217.678L269.805 236.16C268.839 236.915 268.742 238.329 269.515 239.272L282.852 255.774C283.336 256.34 284.399 256.811 285.268 257L293 217.018Z" fill="#FFAE4E"/>
<path d="M276.599 344.946C279.432 347.139 282.075 348.759 288.118 351.619C288.496 351.81 288.873 351.524 288.968 351.143C288.968 350.857 288.873 350.666 288.59 350.571C284.247 348.569 277.827 345.232 274.805 341.514C270.462 336.176 274.239 331.982 277.355 335.795C280.187 339.131 283.397 341.991 290.006 344.851C290.289 344.946 290.573 344.851 290.667 344.565C290.856 344.279 290.667 343.993 290.384 343.898C285.946 341.896 280.753 338.75 278.299 334.46C275.749 329.884 279.809 326.453 283.019 330.933C285.38 334.174 287.646 336.557 293.877 339.131C294.16 339.227 294.349 339.227 294.538 338.941C294.916 338.655 294.821 338.083 294.349 337.892C291.422 336.557 288.496 334.842 286.607 332.649C281.603 326.834 285.946 323.783 289.723 327.883C293.972 332.554 302.091 335.223 308.512 336.462C309.833 336.748 310.778 336.367 309.739 335.318C308.04 333.602 306.435 331.6 305.962 329.217C305.49 327.12 306.812 325.69 308.7 326.834C312.76 329.408 321.258 334.46 327.772 338.941C336.081 344.66 334.948 356.672 334.948 356.672C334.948 356.672 334.948 470.97 334.948 474.974C328.811 475.355 310.872 471.542 301.43 466.299C301.43 462.486 301.997 374.879 302.186 370.304C302.375 366.49 297.559 363.631 292.839 360.961C292.839 360.961 279.715 355.337 274.522 350.094C269.612 345.328 272.728 341.896 276.599 344.946Z" fill="#FFF2DA"/>
<path d="M276.599 344.946C279.432 347.139 282.075 348.759 288.118 351.619C288.496 351.81 288.873 351.524 288.968 351.143C288.968 350.857 288.873 350.666 288.59 350.571C284.247 348.569 277.827 345.232 274.805 341.514C270.462 336.176 274.239 331.982 277.355 335.795C280.187 339.131 283.397 341.991 290.006 344.851C290.289 344.946 290.573 344.851 290.667 344.565C290.856 344.279 290.667 343.993 290.384 343.898C285.946 341.896 280.753 338.75 278.299 334.46C275.749 329.884 279.809 326.453 283.019 330.933C285.38 334.174 287.646 336.557 293.877 339.131C294.16 339.227 294.349 339.227 294.538 338.941C294.916 338.655 294.821 338.083 294.349 337.892C291.422 336.557 288.496 334.842 286.607 332.649C281.603 326.834 285.946 323.783 289.723 327.883C293.972 332.554 302.091 335.223 308.512 336.462C309.833 336.748 310.778 336.367 309.739 335.318C308.04 333.602 306.435 331.6 305.962 329.217C305.49 327.12 306.812 325.69 308.7 326.834C312.76 329.408 321.258 334.46 327.772 338.941C336.081 344.66 334.948 356.672 334.948 356.672C334.948 356.672 334.948 470.97 334.948 474.974C328.811 475.355 310.872 471.542 301.43 466.299C301.43 462.486 301.997 374.879 302.186 370.304C302.375 366.49 297.559 363.631 292.839 360.961C292.839 360.961 279.715 355.337 274.522 350.094C269.612 345.328 272.728 341.896 276.599 344.946Z" fill="url(#paint9_linear)"/>
<path d="M471 477.9C471 485.9 480 490.7 486.6 486.2L518.4 464.7C523.9 461 524.3 453 519.2 448.7L487.4 422.3C480.9 416.9 471 421.5 471 430V477.9Z" fill="#638BF2"/>
<path d="M520.3 480.5C521.6 482.4 524.2 482.9 526.1 481.6L543.2 470.2C545.1 468.9 545.6 466.4 544.3 464.4C543 462.5 540.5 462 538.5 463.3L521.4 474.7C519.5 476 519 478.6 520.3 480.5Z" fill="#FF7A59"/>
</g>
<defs>
<linearGradient id="paint0_linear" x1="225.975" y1="115.989" x2="313.975" y2="115.989" gradientUnits="userSpaceOnUse">
<stop stop-color="#AEF7C2"/>
<stop offset="1" stop-color="#61E897"/>
</linearGradient>
<linearGradient id="paint1_linear" x1="388" y1="72" x2="388" y2="475" gradientUnits="userSpaceOnUse">
<stop stop-color="#FFF7B1"/>
<stop offset="1" stop-color="#FFE485"/>
</linearGradient>
<linearGradient id="paint2_linear" x1="446.515" y1="277.082" x2="446.515" y2="475" gradientUnits="userSpaceOnUse">
<stop stop-color="white"/>
<stop offset="1" stop-color="#FFF2DA"/>
</linearGradient>
<linearGradient id="paint3_linear" x1="483.313" y1="183.576" x2="405.802" y2="318.076" gradientUnits="userSpaceOnUse">
<stop stop-color="#FFA740"/>
<stop offset="1" stop-color="#FF9634"/>
</linearGradient>
<linearGradient id="paint4_linear" x1="417.52" y1="275.564" x2="432.633" y2="301.386" gradientUnits="userSpaceOnUse">
<stop stop-color="#F0742E"/>
<stop offset="0.8481" stop-color="#F0742E" stop-opacity="0"/>
<stop offset="1" stop-color="#F0742E" stop-opacity="0"/>
</linearGradient>
<linearGradient id="paint5_linear" x1="460.218" y1="201.478" x2="399.809" y2="262.034" gradientUnits="userSpaceOnUse">
<stop stop-color="#FF971E"/>
<stop offset="1" stop-color="#E36219"/>
</linearGradient>
<radialGradient id="paint6_radial" cx="0" cy="0" r="1" gradientUnits="userSpaceOnUse" gradientTransform="translate(332.132 280.689) rotate(125.522) scale(27.2678 27.3044)">
<stop stop-color="#FFCB8E"/>
<stop offset="0.1854" stop-color="#FFAE4E"/>
<stop offset="1" stop-color="#F48135"/>
</radialGradient>
<linearGradient id="paint7_linear" x1="337.006" y1="196.909" x2="319.237" y2="178.859" gradientUnits="userSpaceOnUse">
<stop stop-color="#FFAE4E"/>
<stop offset="1" stop-color="#F48135"/>
</linearGradient>
<linearGradient id="paint8_linear" x1="304.985" y1="252.6" x2="281.136" y2="228.315" gradientUnits="userSpaceOnUse">
<stop stop-color="#FFAE4E"/>
<stop offset="1" stop-color="#F48135"/>
</linearGradient>
<linearGradient id="paint9_linear" x1="303.552" y1="325.882" x2="303.552" y2="474.919" gradientUnits="userSpaceOnUse">
<stop stop-color="white"/>
<stop offset="1" stop-color="#FFF2DA"/>
</linearGradient>
<clipPath id="clip0">
<rect width="330" height="428.9" fill="white" transform="translate(215 59)"/>
</clipPath>
</defs>
</svg>
