<svg width="335" height="403" viewBox="0 0 335 403" fill="none" xmlns="http://www.w3.org/2000/svg">
<g clip-path="url(#clip0)">
<path d="M305.3 315.9C317.1 325.5 334.7 317.1 334.7 302V239.7C334.7 223.6 315.1 215.6 303.8 227.1L270 261.7C262.6 269.3 263.3 281.5 271.5 288.2L305.3 315.9Z" fill="#FFCA62"/>
<path d="M15 101.3C15 45.4 56.9 0 108.6 0H218.4C270.1 0 312 45.4 312 101.3V301.5C312 357.5 270.1 402.8 218.4 402.8H108.6C56.9 402.8 15 357.4 15 301.5V101.3Z" fill="#F9D7E3"/>
<path d="M21.5 87C33.3741 87 43 77.3741 43 65.5C43 53.6259 33.3741 44 21.5 44C9.62588 44 0 53.6259 0 65.5C0 77.3741 9.62588 87 21.5 87Z" fill="url(#paint0_linear)"/>
<path d="M298.7 176.8C296.7 176.8 295 178.5 295.4 180.5C296.1 183.6 297.7 186.5 300.1 188.8C303.3 192 307.7 193.8 312.3 193.8C316.9 193.8 321.3 192 324.5 188.8C326.8 186.5 328.5 183.6 329.2 180.5C329.7 178.5 328 176.8 325.9 176.8C323.9 176.8 322.3 178.5 321.5 180.4C321 181.6 320.3 182.7 319.3 183.7C317.4 185.5 314.9 186.5 312.3 186.5C309.7 186.5 307.2 185.5 305.3 183.7C304.3 182.8 303.6 181.7 303.1 180.4C302.3 178.6 300.7 176.8 298.7 176.8Z" fill="#FF7A59"/>
<path d="M236.3 134.8C232.4 137.3 228.4 138.2 224.5 137.9C222.8 137.8 219 137.9 218.5 143C210.8 140.2 206 126.6 205.9 118.5C205.9 113.8 201.1 104.3 204 101C207.5 104 211.5 104.5 216.5 101.4C221.5 98.7 227.6 97.8 233.6 99.8C247 104.3 250.2 125.8 236.3 134.8Z" fill="#857AF4"/>
<path d="M145 165.9C141.9 153.7 170.2 148.9 172.6 162.1C172.9 164.5 184.8 180.9 185.1 183.5C176.6 186 181.4 205.3 202.8 213.8C246.3 227.9 305.5 293.8 289.7 338.1C279.4 360 256.4 344.5 260.9 324.1C264 307.2 247.3 278.1 224.3 258.7C222.1 256.9 218.9 257.2 219.6 260C220.9 265.1 221.7 269.8 223.1 277.5C227 299.1 228.6 376 224.1 403H104.8C101.7 383.7 99.3001 352.8 103.8 298.2C106.4 292.5 108.9 286.9 110.7 280.7C112.6 274.2 114 268.8 115.1 264.5C115.8 261.8 112.1 262 110 263.8C73.6001 294.6 63.7001 333 74.8001 333.7C89.6001 339.7 93.0001 371 61.2001 362.2C24.2001 352 47.2001 253.8 128.9 214.7C133.6 212.4 138.7 210.4 142.1 206.4C150.4 196.8 147.7 183.8 140.6 180.1C140.1 178 145.3 167.8 145 165.9Z" fill="#5A58E4"/>
<path d="M171.1 393.1C193.2 392.9 212.8 377.5 212.7 355.4C212.5 324.3 199.9 287.8 197.1 262.8C193.2 227.7 132.5 230.2 133.6 263.4C134.3 285.1 124.7 316.5 120.7 344.9C117.2 370.2 136.1 391.5 161.6 392.9C164.8 393.1 168 393.2 171.1 393.1Z" fill="#534BD6"/>
<path d="M104 310.1C97.5001 336 79.4001 334.4 74.4001 333.6C62.7001 331.8 44.2001 358.5 65.2001 363.1C86.2001 367.7 126.4 343.5 121.4 319C122.5 310.3 109.2 302.7 104 310.1Z" fill="url(#paint1_linear)"/>
<path d="M118.5 220C125.4 220 134.8 220 141.8 217.4C159.8 210.5 180 193 184.5 180.5C167.5 186 149.5 183.5 140.5 180C149 184.5 151 201.5 137 210.5C131.7 213.5 122.5 217.5 118.5 220Z" fill="url(#paint2_linear)"/>
<path d="M233.6 99.7999C227.6 97.7999 221.4 98.6999 216.5 101.4C212.2 104.1 208.6 104.1 205.5 102.1C200.8 97.2999 195.3 93.6999 189.1 91.1999C172.9 84.4999 153.1 85.5999 137.6 93.5999C137.4 93.6999 137.2 93.7999 137.1 93.8999C129.6 97.3999 127.3 94.4999 125.1 92.0999C122.5 89.1999 119 86.8999 114.9 85.7999C101.3 82.1999 86.8001 98.2999 93.3001 113.5C95.6001 118.6 99.3001 121.9 103.6 123.6C105.4 124.3 110.8 125.6 110 132.2C108.6 147.2 115.3 163.3 132.8 175.6C166.4 199.2 214.1 182.3 218.4 143C218.9 137.9 222.7 137.8 224.4 137.9C228.2 138.2 232.3 137.3 236.2 134.8C250.2 125.8 247 104.3 233.6 99.7999Z" fill="url(#paint3_radial)"/>
<path d="M187.7 157.5C185.5 157.9 183.5 156.4 183.1 154.3C182.7 152.1 184.2 150.1 186.3 149.7C188.5 149.3 190.5 150.8 190.9 152.9C191.2 155.1 189.8 157.1 187.7 157.5Z" fill="#D1D2FC"/>
<path d="M189 152.2C188.9 152.4 188.4 152.3 188.1 152.1C187.8 151.8 187.7 151.4 187.8 151.2C187.9 151 188.4 151.1 188.7 151.3C189.1 151.6 189.2 151.9 189 152.2Z" fill="white"/>
<path opacity="0.2" d="M185.8 151.8C185.6 151.4 185.1 151.1 184.8 151.4C184.1 152.1 183.8 153.1 184 154.1C184.3 155.8 185.9 156.9 187.6 156.6C188.4 156.5 189.1 156 189.6 155.4C189.9 155 189.4 154.5 188.9 154.4C188.3 154.3 187.6 154 187 153.5C186.3 152.9 185.9 152.3 185.8 151.8Z" fill="#44589D"/>
<path d="M135.5 149.8C133.3 150.2 131.3 148.7 130.9 146.6C130.5 144.4 132 142.4 134.1 142C136.3 141.6 138.3 143.1 138.7 145.2C139 147.5 137.6 149.5 135.5 149.8Z" fill="#D1D2FC"/>
<path d="M136.9 144.6C136.8 144.8 136.3 144.7 136 144.5C135.7 144.2 135.6 143.8 135.7 143.6C135.8 143.4 136.3 143.5 136.6 143.7C136.9 144 137 144.4 136.9 144.6Z" fill="white"/>
<path opacity="0.2" d="M133.6 144.2C133.4 143.8 132.9 143.5 132.6 143.8C131.9 144.5 131.6 145.5 131.8 146.5C132.1 148.2 133.7 149.3 135.4 149C136.2 148.9 136.9 148.4 137.4 147.8C137.7 147.4 137.2 146.9 136.7 146.8C136.1 146.7 135.4 146.4 134.8 145.9C134.2 145.4 133.8 144.8 133.6 144.2Z" fill="#44589D"/>
<path d="M139.6 258.9L110.1 270C108.8 270.4 108 271.8 108.2 273.3L111 312.4C111.1 313.8 112 315.1 113.2 315.6L129.5 322C131.2 322.5 131.7 322.7 133.5 322L164.8 309.8C166.4 309.2 167.4 307.4 167.3 305.6L164.8 266.8C164.7 265.3 163.8 264 162.4 263.6L144.4 258.5C142.9 258.2 141.2 258.3 139.6 258.9Z" fill="#F6E4FF"/>
<path d="M163.6 267L166 305.9C166.1 307.7 165.1 309.8 163.5 310.4L134.1 321.8C133.1 322.2 132.1 321.4 132 320.3L129.5 284.2C129.3 280.5 131.4 276.9 134.6 275.8L161.4 265.5C162.5 265.1 163.5 265.8 163.6 267Z" fill="#DBD2FF"/>
<path d="M127 277.4L109.5 271.9C108.6 271.6 108.7 270.4 109.6 270L139.3 258.7C140.9 258.1 142.5 258.1 144 258.4L161.5 263.5C162.3 263.7 162.3 265 161.5 265.4L131 277.2C129.6 277.7 128.3 277.8 127 277.4Z" fill="#FFFEFE"/>
<path d="M173.3 260.8C172.6 260.6 166.2 258.8 166.2 258.8C164.6 258.3 162.2 257.8 160.5 258.3L131 265.9C130.1 266.1 128.3 268.1 128.4 269.4L131 305.8C131 307.3 131.9 308.4 133.3 308.9L141.2 312.6C143.5 313.6 144.8 313.3 145.8 313L176 304.5C177.7 304 178.7 302.6 178.6 300.8L176.4 263.9C176.2 262 174 261 173.3 260.8Z" fill="#F6E4FF"/>
<path d="M176.3 263.7L178.5 300.7C178.6 302.4 177.5 304 175.9 304.4L145.8 312.8C144.8 313 143.7 313 143.6 311.9L141.2 274.4C140.9 270.9 141.3 270.7 144.6 269.9L174.2 262C175.2 261.9 176.2 262.7 176.3 263.7Z" fill="#DFD5FF"/>
<path d="M138.8 270.3L129.2 267.6C128.4 267.2 128.6 266.2 129.5 266L160.4 258.2C162.1 257.8 164.5 258.2 166.2 258.7L173.3 260.7C174.4 261 175.6 261.7 174.3 262.1L142.9 270.5C141.5 270.9 140.4 270.7 138.8 270.3Z" fill="#FFFEFE"/>
<path fill-rule="evenodd" clip-rule="evenodd" d="M117.5 296.6C120.3 295 119.9 291.3 116.9 291.8C113.8 292.2 109.8 292.6 106.9 292.7C107.1 292.3 107.3 292 107.3 292C112.4 291.8 115.3 291.2 117.6 289.9C120.4 288.3 120 284.6 117 285.1C113.4 285.6 110.2 285.9 108.7 286C107.2 286.1 103 285.1 103.1 293.9C101.9 295.1 100.7 297.5 100.9 302.5C100.7 303.6 99.8998 308.2 103.2 314.6C103.3 314.6 103.3 314.6 103.4 314.6C104.9 316.8 107.2 316.6 107.1 315.2C107.1 313.6 105.9 311.9 112.4 309.7C113.7 309.3 114.8 309.1 115.7 308.7C118.5 307.3 118.6 304.1 115.6 304.5C111.9 304.9 110.8 305 106.8 305.1C106.8 304.6 106.8 304.3 106.8 304.3C111.9 304.1 115.1 304.1 117.4 302.8C120.2 301.2 119.8 297.5 116.8 298C113.6 298.5 109.4 298.8 106.5 299C106.8 298.5 107 298.2 107 298.2C112 297.9 115.2 297.9 117.5 296.6Z" fill="#7977F8"/>
<path d="M152.3 284.1C155.6 287.9 158 292.4 159.4 297.3C161.6 305.2 164.1 308.5 167.2 312C167.7 312.5 168.2 313 168.7 313.4C181.5 334.7 204.6 348.7 222.6 355.8C245.2 364.8 286.2 364.9 291.6 330.6C297 296.2 256.6 290.1 260.3 307.8C263.1 323.8 259.4 335.2 230.6 326.5C213.4 319.5 198.4 304.4 191.7 297.6C190.2 294.9 188.8 291.7 188 288.5C184.3 273.9 179.5 267 163.8 261.3C159.8 259.8 157.7 263.1 161.1 264.8C163.7 266.1 167.9 268.8 171.1 271.6C170.9 271.7 170.6 271.8 170.4 272C170.2 272.1 170 272.3 169.7 272.4C166.7 269.8 160.4 266.1 157.5 264.7C152.5 262.2 149.5 266.2 153.5 268.2C158.7 270.7 163 273.8 164.7 275.6C164.7 275.7 164.8 275.7 164.8 275.7L164.9 275.8C164.7 276 164.5 276.2 164.3 276.4C160.1 273.2 153.1 268.7 150 268.3C146.6 267.7 145.3 270.9 148.2 272.4C151 273.5 157.3 277.7 160.4 280.4C160.3 280.6 160.2 280.7 160.1 280.9C160 281 159.9 281.2 159.8 281.4C155.3 278.1 150.4 275.3 148.3 274.3C143.8 272.3 141.3 275.8 144.8 278C148 279.8 150.3 281.7 152.3 284.1Z" fill="url(#paint4_linear)"/>
<path fill-rule="evenodd" clip-rule="evenodd" d="M107.4 110.5C107.4 113.5 105 116.8 102.8 114.8C94.5001 107.5 98.8001 93.6 108.1 92.1C112.1 91.4 115.9 92.5 118.9 94.7C121.4 96.5 118.5 99.5 115.5 100C110.7 100.8 107.5 105.6 107.4 110.5Z" fill="#4F49DF"/>
<path fill-rule="evenodd" clip-rule="evenodd" d="M225.1 124.8C224 127.4 224.8 131.1 227.4 130.2C237.3 127.1 239 113.5 231.6 108.6C228.4 106.5 224.7 105.9 221.3 106.6C218.5 107.2 219.8 110.9 222.2 112.5C226.1 115.1 227 120.5 225.1 124.8Z" fill="#4F49DF"/>
</g>
<defs>
<linearGradient id="paint0_linear" x1="21.5" y1="44" x2="21.5" y2="87" gradientUnits="userSpaceOnUse">
<stop stop-color="#1DD5C6"/>
<stop offset="1" stop-color="#18CBBD"/>
</linearGradient>
<linearGradient id="paint1_linear" x1="121.927" y1="335.392" x2="55.7302" y2="335.392" gradientUnits="userSpaceOnUse">
<stop stop-color="#8382FF"/>
<stop offset="0.8" stop-color="#5A58E4"/>
<stop offset="1" stop-color="#5A58E4"/>
</linearGradient>
<linearGradient id="paint2_linear" x1="139.982" y1="180.299" x2="156.928" y2="209.652" gradientUnits="userSpaceOnUse">
<stop stop-color="#3946BD" stop-opacity="0.67"/>
<stop offset="1" stop-color="#3946BD" stop-opacity="0"/>
</linearGradient>
<radialGradient id="paint3_radial" cx="0" cy="0" r="1" gradientUnits="userSpaceOnUse" gradientTransform="translate(180.148 92.7777) scale(61.3791)">
<stop stop-color="#8382FF"/>
<stop offset="1" stop-color="#5A58E4"/>
</radialGradient>
<linearGradient id="paint4_linear" x1="143.063" y1="310.909" x2="291.965" y2="310.909" gradientUnits="userSpaceOnUse">
<stop stop-color="#8382FF"/>
<stop offset="0.8" stop-color="#5A58E4"/>
<stop offset="1" stop-color="#5A58E4"/>
</linearGradient>
<clipPath id="clip0">
<rect width="334.7" height="403" fill="white"/>
</clipPath>
</defs>
</svg>
