<svg width="335" height="403" viewBox="0 0 335 403" fill="none" xmlns="http://www.w3.org/2000/svg">
<g clip-path="url(#clip0)">
<path d="M305.3 315.901C317.1 325.501 334.7 317.101 334.7 302.001V239.701C334.7 223.601 315.1 215.601 303.8 227.101L270 261.701C262.6 269.301 263.3 281.501 271.5 288.201L305.3 315.901Z" fill="#FFCA62"/>
<path d="M15 101.3C15 45.4 56.9 0 108.6 0H218.4C270.1 0 312 45.4 312 101.3V301.5C312 357.5 270.1 402.8 218.4 402.8H108.6C56.9 402.8 15 357.4 15 301.5V101.3Z" fill="#F9D7E3"/>
<path d="M21.5 87C33.3741 87 43 77.3741 43 65.5C43 53.6259 33.3741 44 21.5 44C9.62588 44 0 53.6259 0 65.5C0 77.3741 9.62588 87 21.5 87Z" fill="url(#paint0_linear)"/>
<path d="M298.7 176.801C296.7 176.801 295 178.501 295.4 180.501C296.1 183.601 297.7 186.501 300.1 188.801C303.3 192.001 307.7 193.801 312.3 193.801C316.9 193.801 321.3 192.001 324.5 188.801C326.8 186.501 328.5 183.601 329.2 180.501C329.7 178.501 328 176.801 325.9 176.801C323.9 176.801 322.3 178.501 321.5 180.401C321 181.601 320.3 182.701 319.3 183.701C317.4 185.501 314.9 186.501 312.3 186.501C309.7 186.501 307.2 185.501 305.3 183.701C304.3 182.801 303.6 181.701 303.1 180.401C302.3 178.601 300.7 176.801 298.7 176.801Z" fill="#FF7A59"/>
<path d="M236.3 134.8C232.4 137.3 228.4 138.2 224.5 137.9C222.8 137.8 219 137.9 218.5 143C210.8 140.2 206 126.6 205.9 118.5C205.9 113.8 201.1 104.3 204 101C207.5 104 211.5 104.5 216.5 101.4C221.5 98.6995 227.6 97.7995 233.6 99.7995C247 104.3 250.2 125.8 236.3 134.8Z" fill="#857AF4"/>
<path d="M145 165.901C141.9 153.701 170.2 148.901 172.6 162.101C172.9 164.501 184.8 180.901 185.1 183.501C176.6 186.001 181.4 205.301 202.8 213.801C246.3 227.901 305.5 293.801 289.7 338.101C279.4 360.001 256.4 344.501 260.9 324.101C264 307.201 247.3 278.101 224.3 258.701C222.1 256.901 218.9 257.201 219.6 260.001C220.9 265.101 221.7 269.801 223.1 277.501C227 299.101 228.6 376.001 224.1 403.001H104.8C101.7 383.701 99.3001 352.801 103.8 298.201C106.4 292.501 108.9 286.901 110.7 280.701C112.6 274.201 114 268.801 115.1 264.501C115.8 261.801 112.1 262.001 110 263.801C73.6001 294.601 63.7001 333.001 74.8001 333.701C89.6001 339.701 93.0001 371.001 61.2001 362.201C24.2001 352.001 47.2001 253.801 128.9 214.701C133.6 212.401 138.7 210.401 142.1 206.401C150.4 196.801 147.7 183.801 140.6 180.101C140.1 178.001 145.3 167.801 145 165.901Z" fill="#5A58E4"/>
<path d="M171.1 393.1C193.2 392.9 212.8 377.5 212.7 355.4C212.5 324.3 199.9 287.8 197.1 262.8C193.2 227.7 132.5 230.2 133.6 263.4C134.3 285.1 124.7 316.5 120.7 344.9C117.2 370.2 136.1 391.5 161.6 392.9C164.8 393.1 168 393.2 171.1 393.1Z" fill="#534BD6"/>
<path d="M104 310.099C97.5001 335.999 79.4001 334.399 74.4001 333.599C62.7001 331.799 44.2001 358.499 65.2001 363.099C86.2001 367.699 126.4 343.499 121.4 318.999C122.5 310.299 109.2 302.699 104 310.099Z" fill="url(#paint1_linear)"/>
<path d="M118.5 220C125.4 220 134.8 220 141.8 217.4C159.8 210.5 180 193 184.5 180.5C167.5 186 149.5 183.5 140.5 180C149 184.5 151 201.5 137 210.5C131.7 213.5 122.5 217.5 118.5 220Z" fill="url(#paint2_linear)"/>
<path d="M233.6 99.7994C227.6 97.7994 221.4 98.6994 216.5 101.399C212.2 104.099 208.6 104.099 205.5 102.099C200.8 97.2994 195.3 93.6994 189.1 91.1994C172.9 84.4994 153.1 85.5994 137.6 93.5994C137.4 93.6994 137.2 93.7994 137.1 93.8994C129.6 97.3994 127.3 94.4994 125.1 92.0994C122.5 89.1994 119 86.8994 114.9 85.7994C101.3 82.1994 86.8001 98.2994 93.3001 113.499C95.6001 118.599 99.3001 121.899 103.6 123.599C105.4 124.299 110.8 125.599 110 132.199C108.6 147.199 115.3 163.299 132.8 175.599C166.4 199.199 214.1 182.299 218.4 142.999C218.9 137.899 222.7 137.799 224.4 137.899C228.2 138.199 232.3 137.299 236.2 134.799C250.2 125.799 247 104.299 233.6 99.7994Z" fill="url(#paint3_radial)"/>
<path d="M187.7 157.5C185.5 157.9 183.5 156.4 183.1 154.3C182.7 152.1 184.2 150.1 186.3 149.7C188.5 149.3 190.5 150.8 190.9 152.9C191.2 155.1 189.8 157.1 187.7 157.5Z" fill="#D1D2FC"/>
<path d="M189 152.201C188.9 152.401 188.4 152.301 188.1 152.101C187.8 151.801 187.7 151.401 187.8 151.201C187.9 151.001 188.4 151.101 188.7 151.301C189.1 151.601 189.2 151.901 189 152.201Z" fill="white"/>
<path opacity="0.2" d="M185.8 151.799C185.6 151.399 185.1 151.099 184.8 151.399C184.1 152.099 183.8 153.099 184 154.099C184.3 155.799 185.9 156.899 187.6 156.599C188.4 156.499 189.1 155.999 189.6 155.399C189.9 154.999 189.4 154.499 188.9 154.399C188.3 154.299 187.6 153.999 187 153.499C186.3 152.899 185.9 152.299 185.8 151.799Z" fill="#44589D"/>
<path d="M135.5 149.8C133.3 150.2 131.3 148.7 130.9 146.6C130.5 144.4 132 142.4 134.1 142C136.3 141.6 138.3 143.1 138.7 145.2C139 147.5 137.6 149.5 135.5 149.8Z" fill="#D1D2FC"/>
<path d="M136.9 144.599C136.8 144.799 136.3 144.699 136 144.499C135.7 144.199 135.6 143.799 135.7 143.599C135.8 143.399 136.3 143.499 136.6 143.699C136.9 143.999 137 144.399 136.9 144.599Z" fill="white"/>
<path opacity="0.2" d="M133.6 144.2C133.4 143.8 132.9 143.5 132.6 143.8C131.9 144.5 131.6 145.5 131.8 146.5C132.1 148.2 133.7 149.3 135.4 149C136.2 148.9 136.9 148.4 137.4 147.8C137.7 147.4 137.2 146.9 136.7 146.8C136.1 146.7 135.4 146.4 134.8 145.9C134.2 145.4 133.8 144.8 133.6 144.2Z" fill="#44589D"/>
<path d="M139.6 258.9L110.1 270C108.8 270.4 108 271.8 108.2 273.3L111 312.4C111.1 313.8 112 315.1 113.2 315.6L129.5 322C131.2 322.5 131.7 322.7 133.5 322L164.8 309.8C166.4 309.2 167.4 307.4 167.3 305.6L164.8 266.8C164.7 265.3 163.8 264 162.4 263.6L144.4 258.5C142.9 258.2 141.2 258.3 139.6 258.9Z" fill="#F6E4FF"/>
<path d="M163.6 267L166 305.9C166.1 307.7 165.1 309.8 163.5 310.4L134.1 321.8C133.1 322.2 132.1 321.4 132 320.3L129.5 284.2C129.3 280.5 131.4 276.9 134.6 275.8L161.4 265.5C162.5 265.1 163.5 265.8 163.6 267Z" fill="#DBD2FF"/>
<path d="M127 277.4L109.5 271.9C108.6 271.6 108.7 270.4 109.6 270L139.3 258.7C140.9 258.1 142.5 258.1 144 258.4L161.5 263.5C162.3 263.7 162.3 265 161.5 265.4L131 277.2C129.6 277.7 128.3 277.8 127 277.4Z" fill="#FFFEFE"/>
<path d="M173.3 260.801C172.6 260.601 166.2 258.801 166.2 258.801C164.6 258.301 162.2 257.801 160.5 258.301L131 265.901C130.1 266.101 128.3 268.101 128.4 269.401L131 305.801C131 307.301 131.9 308.401 133.3 308.901L141.2 312.601C143.5 313.601 144.8 313.301 145.8 313.001L176 304.501C177.7 304.001 178.7 302.601 178.6 300.801L176.4 263.901C176.2 262.001 174 261.001 173.3 260.801Z" fill="#F6E4FF"/>
<path d="M176.3 263.701L178.5 300.701C178.6 302.401 177.5 304.001 175.9 304.401L145.8 312.801C144.8 313.001 143.7 313.001 143.6 311.901L141.2 274.401C140.9 270.901 141.3 270.701 144.6 269.901L174.2 262.001C175.2 261.901 176.2 262.701 176.3 263.701Z" fill="#DFD5FF"/>
<path d="M138.8 270.3L129.2 267.6C128.4 267.2 128.6 266.2 129.5 266L160.4 258.2C162.1 257.8 164.5 258.2 166.2 258.7L173.3 260.7C174.4 261 175.6 261.7 174.3 262.1L142.9 270.5C141.5 270.9 140.4 270.7 138.8 270.3Z" fill="#FFFEFE"/>
<path fill-rule="evenodd" clip-rule="evenodd" d="M117.5 296.601C120.3 295.001 119.9 291.301 116.9 291.801C113.8 292.201 109.8 292.601 106.9 292.701C107.1 292.301 107.3 292.001 107.3 292.001C112.4 291.801 115.3 291.201 117.6 289.901C120.4 288.301 120 284.601 117 285.101C113.4 285.601 110.2 285.901 108.7 286.001C107.2 286.101 103 285.101 103.1 293.901C101.9 295.101 100.7 297.501 100.9 302.501C100.7 303.601 99.8998 308.201 103.2 314.601C103.3 314.601 103.3 314.601 103.4 314.601C104.9 316.801 107.2 316.601 107.1 315.201C107.1 313.601 105.9 311.901 112.4 309.701C113.7 309.301 114.8 309.101 115.7 308.701C118.5 307.301 118.6 304.101 115.6 304.501C111.9 304.901 110.8 305.001 106.8 305.101C106.8 304.601 106.8 304.301 106.8 304.301C111.9 304.101 115.1 304.101 117.4 302.801C120.2 301.201 119.8 297.501 116.8 298.001C113.6 298.501 109.4 298.801 106.5 299.001C106.8 298.501 107 298.201 107 298.201C112 297.901 115.2 297.901 117.5 296.601Z" fill="#7977F8"/>
<path d="M152.3 284.101C155.6 287.901 158 292.401 159.4 297.301C161.6 305.201 164.1 308.501 167.2 312.001C167.7 312.501 168.2 313.001 168.7 313.401C181.5 334.701 204.6 348.701 222.6 355.801C245.2 364.801 286.2 364.901 291.6 330.601C297 296.201 256.6 290.101 260.3 307.801C263.1 323.801 259.4 335.201 230.6 326.501C213.4 319.501 198.4 304.401 191.7 297.601C190.2 294.901 188.8 291.701 188 288.501C184.3 273.901 179.5 267.001 163.8 261.301C159.8 259.801 157.7 263.101 161.1 264.801C163.7 266.101 167.9 268.801 171.1 271.601C170.9 271.701 170.6 271.801 170.4 272.001C170.2 272.101 170 272.301 169.7 272.401C166.7 269.801 160.4 266.101 157.5 264.701C152.5 262.201 149.5 266.201 153.5 268.201C158.7 270.701 163 273.801 164.7 275.601C164.7 275.701 164.8 275.701 164.8 275.701L164.9 275.801C164.7 276.001 164.5 276.201 164.3 276.401C160.1 273.201 153.1 268.701 150 268.301C146.6 267.701 145.3 270.901 148.2 272.401C151 273.501 157.3 277.701 160.4 280.401C160.3 280.601 160.2 280.701 160.1 280.901C160 281.001 159.9 281.201 159.8 281.401C155.3 278.101 150.4 275.301 148.3 274.301C143.8 272.301 141.3 275.801 144.8 278.001C148 279.801 150.3 281.701 152.3 284.101Z" fill="url(#paint4_linear)"/>
<path fill-rule="evenodd" clip-rule="evenodd" d="M107.4 110.5C107.4 113.5 105 116.8 102.8 114.8C94.5001 107.5 98.8001 93.6003 108.1 92.1003C112.1 91.4003 115.9 92.5003 118.9 94.7003C121.4 96.5003 118.5 99.5003 115.5 100C110.7 100.8 107.5 105.6 107.4 110.5Z" fill="#4F49DF"/>
<path fill-rule="evenodd" clip-rule="evenodd" d="M225.1 124.799C224 127.399 224.8 131.099 227.4 130.199C237.3 127.099 239 113.499 231.6 108.599C228.4 106.499 224.7 105.899 221.3 106.599C218.5 107.199 219.8 110.899 222.2 112.499C226.1 115.099 227 120.499 225.1 124.799Z" fill="#4F49DF"/>
</g>
<defs>
<linearGradient id="paint0_linear" x1="21.5" y1="44" x2="21.5" y2="87" gradientUnits="userSpaceOnUse">
<stop stop-color="#1DD5C6"/>
<stop offset="1" stop-color="#18CBBD"/>
</linearGradient>
<linearGradient id="paint1_linear" x1="121.927" y1="335.391" x2="55.7302" y2="335.391" gradientUnits="userSpaceOnUse">
<stop stop-color="#8382FF"/>
<stop offset="0.8" stop-color="#5A58E4"/>
<stop offset="1" stop-color="#5A58E4"/>
</linearGradient>
<linearGradient id="paint2_linear" x1="139.982" y1="180.299" x2="156.928" y2="209.652" gradientUnits="userSpaceOnUse">
<stop stop-color="#3946BD" stop-opacity="0.67"/>
<stop offset="1" stop-color="#3946BD" stop-opacity="0"/>
</linearGradient>
<radialGradient id="paint3_radial" cx="0" cy="0" r="1" gradientUnits="userSpaceOnUse" gradientTransform="translate(180.148 92.7772) scale(61.3791)">
<stop stop-color="#8382FF"/>
<stop offset="1" stop-color="#5A58E4"/>
</radialGradient>
<linearGradient id="paint4_linear" x1="143.063" y1="310.91" x2="291.965" y2="310.91" gradientUnits="userSpaceOnUse">
<stop stop-color="#8382FF"/>
<stop offset="0.8" stop-color="#5A58E4"/>
<stop offset="1" stop-color="#5A58E4"/>
</linearGradient>
<clipPath id="clip0">
<rect width="334.7" height="403" fill="white"/>
</clipPath>
</defs>
</svg>
