<svg width="670" height="720" viewBox="0 0 670 720" fill="none" xmlns="http://www.w3.org/2000/svg">
<mask id="path-1-inside-1" fill="white">
<path d="M199.366 512.807C196.336 516.325 196.722 521.647 200.357 524.534C239.478 555.6 288.48 571.773 338.586 569.972C388.692 568.171 436.406 548.523 473.196 514.729C476.615 511.588 476.617 506.252 473.343 502.961C470.068 499.67 464.757 499.672 461.327 502.801C427.548 533.613 383.855 551.522 337.982 553.171C292.109 554.819 247.243 540.093 211.339 511.785C207.693 508.911 202.396 509.29 199.366 512.807Z"/>
</mask>
<path d="M199.366 512.807C196.336 516.325 196.722 521.647 200.357 524.534C239.478 555.6 288.48 571.773 338.586 569.972C388.692 568.171 436.406 548.523 473.196 514.729C476.615 511.588 476.617 506.252 473.343 502.961C470.068 499.67 464.757 499.672 461.327 502.801C427.548 533.613 383.855 551.522 337.982 553.171C292.109 554.819 247.243 540.093 211.339 511.785C207.693 508.911 202.396 509.29 199.366 512.807Z" stroke="#EDF2FD" stroke-width="36" mask="url(#path-1-inside-1)"/>
<mask id="path-2-inside-2" fill="white">
<path d="M513.181 273.215C517.373 271.219 519.168 266.194 517.005 262.086C498.95 227.778 471.726 199.081 438.293 179.239C404.86 159.397 366.628 149.246 327.865 149.832C323.223 149.902 319.671 153.885 319.927 158.52C320.183 163.156 324.149 166.687 328.791 166.633C364.223 166.221 399.148 175.557 429.713 193.697C460.277 211.837 485.202 238.021 501.814 269.321C503.99 273.421 508.99 275.211 513.181 273.215Z"/>
</mask>
<path d="M513.181 273.215C517.373 271.219 519.168 266.194 517.005 262.086C498.95 227.778 471.726 199.081 438.293 179.239C404.86 159.397 366.628 149.246 327.865 149.832C323.223 149.902 319.671 153.885 319.927 158.52C320.183 163.156 324.149 166.687 328.791 166.633C364.223 166.221 399.148 175.557 429.713 193.697C460.277 211.837 485.202 238.021 501.814 269.321C503.99 273.421 508.99 275.211 513.181 273.215Z" stroke="#EDF2FD" stroke-width="36" mask="url(#path-2-inside-2)"/>
<mask id="path-3-inside-3" fill="white">
<path d="M531.593 338.089C536.208 337.586 539.558 333.433 538.871 328.842C537.439 319.274 535.347 309.817 532.612 300.537C531.299 296.084 526.51 293.732 522.113 295.221C517.716 296.711 515.378 301.479 516.675 305.936C519.036 314.051 520.863 322.312 522.144 330.666C522.847 335.255 526.978 338.592 531.593 338.089Z"/>
</mask>
<path d="M531.593 338.089C536.208 337.586 539.558 333.433 538.871 328.842C537.439 319.274 535.347 309.817 532.612 300.537C531.299 296.084 526.51 293.732 522.113 295.221C517.716 296.711 515.378 301.479 516.675 305.936C519.036 314.051 520.863 322.312 522.144 330.666C522.847 335.255 526.978 338.592 531.593 338.089Z" stroke="#4BE0D7" stroke-width="36" mask="url(#path-3-inside-3)"/>
<mask id="path-4-inside-4" fill="white">
<path d="M291.626 162.968C290.714 158.439 286.299 155.49 281.81 156.582C261.169 161.603 241.413 169.741 223.224 180.714C219.268 183.1 218.211 188.303 220.754 192.16C223.296 196.017 228.475 197.066 232.439 194.693C248.823 184.887 266.577 177.575 285.114 172.996C289.599 171.889 292.537 167.497 291.626 162.968Z"/>
</mask>
<path d="M291.626 162.968C290.714 158.439 286.299 155.49 281.81 156.582C261.169 161.603 241.413 169.741 223.224 180.714C219.268 183.1 218.211 188.303 220.754 192.16C223.296 196.017 228.475 197.066 232.439 194.693C248.823 184.887 266.577 177.575 285.114 172.996C289.599 171.889 292.537 167.497 291.626 162.968Z" fill="#FFE485" stroke="#FFE485" stroke-width="36" mask="url(#path-4-inside-4)"/>
<mask id="path-5-inside-5" fill="white">
<path d="M138.653 333.591C134.226 332.985 130.128 336.081 129.699 340.529C126.329 375.451 132.101 410.653 146.447 442.67C148.275 446.747 153.147 448.373 157.148 446.384C161.15 444.395 162.764 439.545 160.951 435.461C148.033 406.361 142.797 374.429 145.745 342.728C146.159 338.279 143.08 334.198 138.653 333.591Z"/>
</mask>
<path d="M138.653 333.591C134.226 332.985 130.128 336.081 129.699 340.529C126.329 375.451 132.101 410.653 146.447 442.67C148.275 446.747 153.147 448.373 157.148 446.384C161.15 444.395 162.764 439.545 160.951 435.461C148.033 406.361 142.797 374.429 145.745 342.728C146.159 338.279 143.08 334.198 138.653 333.591Z" stroke="#666AF6" stroke-width="36" mask="url(#path-5-inside-5)"/>
<path d="M230.9 462.998C288.327 520.425 381.473 520.425 438.9 462.998C496.426 405.571 496.426 312.424 438.95 254.948C381.473 197.471 288.376 197.521 230.949 254.948C173.472 312.424 173.472 405.571 230.9 462.998Z" fill="url(#paint0_linear)"/>
<g style="mix-blend-mode:multiply" opacity="0.83" filter="url(#filter0_f)">
<path d="M383.022 358.671C423.572 369.662 446.542 420.259 447.792 453.415C399.471 511.63 310.261 524.371 245.58 475.605C248.246 466.5 256.127 442.181 272.649 406.984C289.172 371.788 307.454 382.242 322.422 350.758C334.933 324.444 272.368 251.215 341.693 254.98C388.023 257.496 401.271 318.361 364.58 343.224C352.219 351.601 363.629 353.415 383.022 358.671Z" fill="url(#paint1_linear)"/>
</g>
<g style="mix-blend-mode:multiply" opacity="0.83" filter="url(#filter1_f)">
<path d="M382.807 358.493C423.357 369.483 446.327 420.081 447.578 453.236C399.256 511.452 310.046 524.192 245.366 475.426C248.032 466.321 255.912 442.002 272.435 406.806C288.958 371.609 307.239 382.063 322.208 350.58C334.719 324.265 271.98 259.823 341.304 263.588C387.635 266.104 401.056 318.182 364.365 343.046C352.004 351.422 363.415 353.236 382.807 358.493Z" fill="url(#paint2_linear)"/>
</g>
<path d="M311.283 330.243C308.396 318.798 334.904 314.371 337.107 326.709C337.393 328.96 337.606 331.331 337.825 333.767C339.699 354.638 345.337 367.098 365.332 375.12C406.029 388.352 461.452 450.031 446.662 491.441C437.043 511.911 415.466 497.458 419.667 478.382C422.865 461.057 402.436 422.633 377.78 404.776C380.752 415.738 381.187 426.179 386.194 435.007C396.034 452.355 405.456 466.71 404.944 488.072C360.95 512.004 307.311 511.828 263.46 487.542C263.906 473.679 268.364 463.794 272.729 454.113C275.127 448.795 277.497 443.54 279.16 437.721C281.792 428.507 283.553 418.44 285.955 408.802C252.099 443.267 234.542 486.611 245.517 487.304C259.406 492.899 262.509 522.191 232.765 513.961C201.834 504.329 231.417 413.4 302.909 372.838C317.097 364.075 314.934 350.486 312.245 335.699C311.91 333.858 311.578 332.033 311.283 330.243Z" fill="#131F37"/>
<path d="M367.995 502.089C385.425 470.56 363.733 453.808 360.083 420.949C356.433 388.089 299.65 390.429 300.62 421.504C301.59 452.579 280.102 467.766 289.32 498.761C318.718 508.028 344.462 507.302 367.995 502.089Z" fill="#081223"/>
<path d="M272.987 465.26C255.555 486.287 249.993 487.983 245.313 487.27C234.393 485.609 217.028 510.57 236.698 514.843C256.369 519.116 288.503 499.614 295.558 474.314C296.47 466.174 277.803 458.273 272.987 465.26Z" fill="#131F37"/>
<path d="M249.161 305.459C260.1 316.597 277.334 309.281 280.241 297.012C283.172 284.897 272.185 272.851 258.923 274.08C245.758 275.324 238.319 294.337 249.161 305.459Z" fill="#212E4D"/>
<path d="M250.848 304.941C261.787 316.079 279.021 308.763 281.928 296.494C284.86 284.379 273.872 272.333 260.61 273.561C247.486 274.863 240.063 293.779 250.848 304.941Z" fill="#131F37"/>
<path fill-rule="evenodd" clip-rule="evenodd" d="M261.082 298.502C261.639 301.447 259.916 305.16 257.371 303.633C247.765 297.971 249.303 283.421 258.163 280.104C262.009 278.648 266.007 278.968 269.348 280.528C272.137 281.796 269.887 285.371 266.998 286.487C262.406 288.219 260.154 293.594 261.082 298.502Z" fill="#081223"/>
<path fill-rule="evenodd" clip-rule="evenodd" d="M267.684 309.755C267.513 306.969 267.621 304.172 268.01 301.435C269.074 294.205 272.178 287.39 276.78 281.428C280.084 285.916 281.301 292.505 278.015 300.095C275.633 305.627 271.767 308.769 267.684 309.755Z" fill="#081223"/>
<path d="M288.531 382.041C295.015 382.025 301.813 380.929 308.325 378.425C325.211 371.93 335.498 362.607 341.989 353.687C339.727 348.065 338.518 341.492 337.824 333.767C337.605 331.331 337.392 328.96 337.106 326.709C334.903 314.371 308.395 318.798 311.282 330.243C311.577 332.033 311.909 333.858 312.244 335.699C314.933 350.486 317.096 364.075 302.908 372.838C297.908 375.674 293.114 378.757 288.531 382.041Z" fill="url(#paint3_linear)"/>
<path d="M367.928 282.449C384.348 321.301 345.839 356.769 306.089 346.482C286.214 341.338 275.016 329.037 271.576 315.059C268.134 301.011 272.381 285.288 283.246 273.024C294.187 260.898 311.161 253.44 327.587 253.961C343.946 254.555 359.679 262.92 367.928 282.449Z" fill="#131F37"/>
<path d="M393.331 269.864C391.45 285.362 373.328 290.068 363.544 282.115C353.835 274.299 355.201 258.051 366.463 250.94C377.657 243.902 395.145 254.438 393.331 269.864Z" fill="#212E4D"/>
<path d="M391.678 270.482C389.796 285.98 371.675 290.687 361.891 282.733C352.182 274.917 353.547 258.67 364.809 251.559C376.007 244.59 393.422 255.059 391.678 270.482Z" fill="#131F37"/>
<path fill-rule="evenodd" clip-rule="evenodd" d="M379.64 271.617C380.994 274.291 384.623 276.184 385.71 273.422C389.873 263.077 379.784 252.482 370.738 255.254C366.802 256.444 363.827 259.135 362.131 262.408C360.693 265.114 364.656 266.576 367.626 265.7C372.322 264.273 377.384 267.161 379.64 271.617Z" fill="#081223"/>
<path opacity="0.3" d="M357.387 284.368C351.403 296.454 326.398 292.335 315.03 279.202C309.346 272.636 309.077 267.131 312.155 263.458C315.233 259.786 321.662 258.017 329.367 258.714C337.075 259.482 345.576 262.874 351.471 267.547C357.229 272.295 360.38 278.325 357.387 284.368Z" fill="#444F7E"/>
<path opacity="0.72" d="M280.629 291.272C280.033 290.247 278.499 290.302 278.052 291.435C275.456 298.791 274.967 306.488 276.764 313.684C279.802 326.211 289.834 337.157 307.667 341.817C326.979 346.841 345.924 339.8 356.901 326.765C361.99 320.785 353.385 314.535 345.773 316.417C327.918 320.765 306.126 316.668 290.908 303.257C286.369 299.372 283.009 295.305 280.629 291.272Z" fill="#040C1C"/>
<path d="M348.172 313.259C346.258 314.376 343.792 313.767 342.675 311.853C341.559 309.938 342.167 307.472 344.082 306.356C345.996 305.239 348.462 305.848 349.578 307.762C350.695 309.676 350.086 312.142 348.172 313.259Z" fill="#141D42"/>
<path d="M348.145 312.561C346.368 313.603 344.111 312.987 343.072 311.279C342.03 309.502 342.646 307.245 344.354 306.206C346.132 305.164 348.388 305.78 349.427 307.488C350.469 309.265 349.853 311.522 348.145 312.561Z" fill="#586EB7"/>
<path d="M348.481 308.291C348.224 308.929 347.256 309.173 346.334 308.788C345.413 308.402 344.824 307.586 345.081 306.948C345.337 306.31 346.305 306.066 347.227 306.451C348.149 306.837 348.737 307.653 348.481 308.291Z" fill="#3B5AC3"/>
<path d="M347.543 307.487C347.481 307.699 347.065 307.783 346.711 307.657C346.357 307.53 346.136 307.189 346.198 306.977C346.26 306.765 346.676 306.681 347.029 306.807C347.453 306.932 347.672 307.203 347.543 307.487Z" fill="#9CB0CD"/>
<path d="M344.637 308.221C344.346 307.882 343.785 307.833 343.659 308.187C343.271 309.039 343.306 310.015 343.824 310.834C344.642 312.2 346.405 312.695 347.772 311.877C348.457 311.503 348.922 310.858 349.106 310.153C349.23 309.73 348.66 309.402 348.174 309.489C347.619 309.579 346.849 309.537 346.212 309.281C345.504 309.027 344.931 308.629 344.637 308.221Z" fill="#44589D"/>
<path d="M299.961 323.805C298.047 324.922 295.581 324.313 294.464 322.398C293.348 320.484 293.956 318.018 295.871 316.902C297.785 315.785 300.251 316.394 301.367 318.308C302.554 320.22 301.875 322.688 299.961 323.805Z" fill="#141D42"/>
<path d="M299.933 323.038C298.156 324.08 295.9 323.464 294.86 321.756C293.818 319.979 294.434 317.722 296.142 316.683C297.92 315.641 300.176 316.257 301.216 317.965C302.26 319.812 301.713 322.066 299.933 323.038Z" fill="#586EB7"/>
<path d="M300.34 318.835C300.084 319.472 299.115 319.717 298.194 319.331C297.272 318.946 296.684 318.129 296.94 317.492C297.196 316.854 298.165 316.61 299.086 316.995C300.008 317.38 300.526 318.199 300.34 318.835Z" fill="#3B5AC3"/>
<path d="M299.403 318.031C299.341 318.242 298.925 318.327 298.572 318.2C298.218 318.074 297.996 317.733 298.058 317.521C298.12 317.309 298.536 317.224 298.89 317.351C299.243 317.478 299.463 317.749 299.403 318.031Z" fill="#9CB0CD"/>
<path d="M296.427 318.767C296.136 318.428 295.575 318.379 295.449 318.733C295.061 319.584 295.096 320.561 295.614 321.38C296.432 322.746 298.195 323.241 299.562 322.423C300.247 322.049 300.712 321.404 300.896 320.699C301.02 320.276 300.45 319.947 299.964 320.035C299.409 320.125 298.639 320.083 298.002 319.827C297.294 319.573 296.791 319.173 296.427 318.767Z" fill="#44589D"/>
<path d="M305.139 417.521L277.469 427.929C276.288 428.333 275.548 429.641 275.647 430.992L278.296 467.61C278.395 468.961 279.222 470.129 280.36 470.565L296.546 476.346C298.099 476.838 299.796 476.786 301.498 476.171L328.681 465.204C330.167 464.631 331.161 463.005 331.04 461.299L328.699 425.004C328.61 423.584 327.722 422.337 326.496 422.031L309.608 417.281C308.184 416.877 306.625 416.948 305.139 417.521Z" fill="url(#paint4_linear)"/>
<path d="M328.698 424.854L330.977 461.258C331.029 462.944 330.109 464.569 328.633 465.138L301.195 476.116C300.237 476.476 299.281 475.787 299.214 474.729L296.857 440.972C296.625 437.513 298.62 434.146 301.632 433.084L326.726 423.398C327.744 423.116 328.631 423.796 328.698 424.854Z" fill="url(#paint5_linear)"/>
<path d="M296.873 476.46L280.425 470.434C279.203 470.058 278.361 468.959 278.349 467.479L275.665 431.366C275.555 430.084 276.696 428.972 277.78 429.33L292.293 433.968C294.738 434.721 296.482 436.997 296.733 439.846L299.127 474.443C299.088 475.774 297.956 476.818 296.873 476.46Z" fill="url(#paint6_linear)"/>
<path d="M294.454 434.567L278.036 429.462C277.225 429.212 277.315 428.029 278.131 427.717L305.139 417.52C306.625 416.948 308.105 416.937 309.538 417.272L325.934 422.021C326.685 422.193 326.725 423.464 325.908 423.776L298.134 434.432C296.943 434.903 295.671 434.942 294.454 434.567Z" fill="url(#paint7_linear)"/>
<path fill-rule="evenodd" clip-rule="evenodd" d="M281.382 465.217C282.589 464.862 283.667 464.687 284.453 464.274C287.054 462.966 287.174 460.007 284.377 460.304C280.831 460.659 279.907 460.809 276.023 460.84C276.023 460.84 271.757 460.459 271.931 467.164C272.786 471.866 276.543 472.107 276.414 470.329C276.381 468.87 275.334 467.273 281.382 465.217Z" fill="#131F37"/>
<path fill-rule="evenodd" clip-rule="evenodd" d="M276.097 460.133C280.904 459.952 283.905 459.938 286.044 458.705C288.62 457.243 288.311 453.784 285.472 454.214C282.105 454.698 277.677 455.071 274.875 455.147C274.875 455.147 271.457 452.984 270.615 458.495C270.436 459.536 269.655 463.842 272.745 469.783C276.993 470.126 276.097 460.133 276.097 460.133Z" fill="#131F37"/>
<path d="M340.844 437.188C340.346 436.697 335.673 432.613 335.673 432.613C334.546 431.545 332.685 430.166 331.099 429.881L303.089 424.471C302.266 424.289 299.948 425.243 299.511 426.382L287.08 458.232C286.486 459.49 286.803 460.801 287.731 461.772L292.956 468.044C293.764 468.858 295.723 470.038 296.684 470.239L325.601 475.208C327.187 475.493 328.645 474.634 329.276 473.099L342.23 441.038C342.811 439.356 341.343 437.678 340.844 437.188Z" fill="url(#paint8_linear)"/>
<path d="M342.18 440.889L329.225 473.081C328.603 474.553 327.068 475.477 325.554 475.201L296.693 470.235C295.733 470.035 295.103 468.959 295.512 468.025L308.036 436.411C309.23 433.319 309.79 432.829 312.936 433.538L341.128 438.767C342.028 438.888 342.519 439.945 342.18 440.889Z" fill="url(#paint9_linear)"/>
<path d="M292.952 468.044L287.745 461.777C286.82 460.807 286.574 459.506 287.097 458.239L299.502 426.404C299.938 425.266 301.326 424.891 302.191 425.782L307.897 431.483C309.756 433.354 308.68 434.546 307.702 437.089L295.78 467.441C295.197 468.629 293.817 468.935 292.952 468.044Z" fill="url(#paint10_linear)"/>
<path d="M307.855 431.426L302.149 425.726C301.601 425.088 302.207 424.255 303.027 424.436L330.953 429.834C332.533 430.119 334.389 431.496 335.512 432.563L340.667 437.133C341.302 437.642 340.797 438.77 339.977 438.589L311.134 433.208C309.899 432.97 308.78 432.396 307.855 431.426Z" fill="url(#paint11_linear)"/>
<path fill-rule="evenodd" clip-rule="evenodd" d="M276.294 454.348C281.102 454.167 284.103 454.153 286.241 452.92C288.817 451.458 288.508 447.999 285.669 448.429C282.302 448.913 277.874 449.286 275.072 449.362C275.072 449.362 270.169 449.148 270.615 458.496C270.833 462.949 276.294 454.348 276.294 454.348Z" fill="#131F37"/>
<path fill-rule="evenodd" clip-rule="evenodd" d="M276.604 448.669C281.412 448.488 284.138 447.95 286.276 446.717C288.852 445.255 288.543 441.796 285.704 442.226C282.337 442.711 279.34 442.945 277.909 443.083C276.477 443.221 272.218 442.112 272.664 451.46C272.928 456.001 276.604 448.669 276.604 448.669Z" fill="#131F37"/>
<path fill-rule="evenodd" clip-rule="evenodd" d="M448.421 484.409C443.385 516.567 405.061 516.443 383.882 508.015C366.039 500.954 342.851 486.722 331.459 464.762C328.363 458.499 343.828 440.411 353.285 451.689C358.034 457.328 375.014 471.439 392.761 478.698C419.757 486.86 421.748 478.045 419.165 463.064C415.629 446.532 453.457 452.252 448.421 484.409Z" fill="#131F37"/>
<path d="M324.778 453.245C323.511 448.717 321.265 444.484 318.162 440.903C316.242 438.679 314.098 436.851 311.019 434.983C307.796 432.924 310.118 429.65 314.309 431.499C316.316 432.453 320.908 435.125 325.109 438.17C325.322 437.858 325.524 437.629 325.737 437.316C322.833 434.787 316.867 430.905 314.273 429.871C311.558 428.478 312.828 425.404 315.993 426.003C318.94 426.317 325.459 430.53 329.408 433.542C329.599 433.397 329.789 433.252 329.991 433.023C329.918 432.927 329.835 432.916 329.762 432.821C328.11 431.145 324.138 428.301 319.248 425.931C315.571 424.067 318.381 420.347 323.019 422.683C325.746 423.992 331.602 427.432 334.433 429.865C334.886 429.67 335.267 429.38 335.721 429.185C332.66 426.55 328.739 423.97 326.336 422.79C323.128 421.246 325.092 418.095 328.826 419.54C343.482 424.854 347.995 431.273 351.436 444.979C352.929 450.989 356.671 456.791 359.339 459.8C360.377 460.966 359.971 462.705 358.683 463.385C358.683 463.385 341.081 477.318 332.062 466.958C329.165 463.747 326.855 460.615 324.778 453.245Z" fill="#131F37"/>
<path d="M390.741 477.808C403.305 482.909 418.232 484.144 419.52 475.499C417.48 491.338 393.243 500.026 375.546 493.325C353.425 484.949 334.312 464.868 331.197 447.258C329.741 439.023 345.538 427.562 348.956 436.962C350.942 442.425 351.493 447.794 354.07 452.197C356.231 455.89 375.913 471.788 390.741 477.808Z" fill="url(#paint12_linear)"/>
<path d="M357.722 385.297C343.413 379.756 351.064 371.445 360.514 374.666C389.708 384.619 411.413 404.948 426.662 424.707C441.91 444.465 453.508 470.023 445.454 493.11C447.817 469.808 441.911 459.392 425.91 438.989C406.511 414.252 382.957 395.069 357.722 385.297Z" fill="url(#paint13_radial)"/>
<path d="M225.803 509.395C209.968 489.156 233.219 440.489 249.751 420.404C231.056 445.201 219.314 494.872 229.581 506.33C238.856 516.68 267.772 508.277 278.701 499.632C267.71 510.5 237.493 524.336 225.803 509.395Z" fill="url(#paint14_linear)"/>
<path d="M181.681 234.193C177.206 235.336 173.172 231.206 174.42 226.759L181.254 202.403C182.502 197.956 188.095 196.527 191.323 199.831L208.999 217.928C212.226 221.232 210.666 226.791 206.191 227.934L181.681 234.193Z" fill="#4BE0D7"/>
<path d="M176.471 497C184.755 497 191.471 490.284 191.471 482L191.471 481C191.471 472.716 184.755 466 176.471 466C168.186 466 161.471 472.716 161.471 481L161.471 482C161.471 490.284 168.186 497 176.471 497Z" fill="#8FE6FA"/>
<path d="M533.471 391C540.65 391 546.471 385.18 546.471 378C546.471 370.82 540.65 365 533.471 365C526.291 365 520.471 370.82 520.471 378C520.471 385.18 526.291 391 533.471 391Z" fill="#666AF7"/>
<defs>
<filter id="filter0_f" x="236.58" y="245.84" width="220.212" height="268.849" filterUnits="userSpaceOnUse" color-interpolation-filters="sRGB">
<feFlood flood-opacity="0" result="BackgroundImageFix"/>
<feBlend mode="normal" in="SourceGraphic" in2="BackgroundImageFix" result="shape"/>
<feGaussianBlur stdDeviation="4.5" result="effect1_foregroundBlur"/>
</filter>
<filter id="filter1_f" x="236.365" y="254.429" width="220.212" height="260.081" filterUnits="userSpaceOnUse" color-interpolation-filters="sRGB">
<feFlood flood-opacity="0" result="BackgroundImageFix"/>
<feBlend mode="normal" in="SourceGraphic" in2="BackgroundImageFix" result="shape"/>
<feGaussianBlur stdDeviation="4.5" result="effect1_foregroundBlur"/>
</filter>
<linearGradient id="paint0_linear" x1="230.932" y1="254.964" x2="438.966" y2="462.998" gradientUnits="userSpaceOnUse">
<stop stop-color="#CEF9C6"/>
<stop offset="1" stop-color="#42BAEB"/>
</linearGradient>
<linearGradient id="paint1_linear" x1="265.94" y1="283.333" x2="365.81" y2="477.583" gradientUnits="userSpaceOnUse">
<stop stop-color="#41B4BB"/>
<stop offset="1" stop-color="#B7C1D7" stop-opacity="0.24"/>
</linearGradient>
<linearGradient id="paint2_linear" x1="265.725" y1="283.154" x2="365.595" y2="477.405" gradientUnits="userSpaceOnUse">
<stop stop-color="#41B4BB"/>
<stop offset="1" stop-color="#B7C1D7" stop-opacity="0.24"/>
</linearGradient>
<linearGradient id="paint3_linear" x1="330.446" y1="331.391" x2="307.036" y2="385.083" gradientUnits="userSpaceOnUse">
<stop stop-color="#081223"/>
<stop offset="1" stop-color="#081223" stop-opacity="0"/>
</linearGradient>
<linearGradient id="paint4_linear" x1="301.771" y1="433.673" x2="312.235" y2="473.375" gradientUnits="userSpaceOnUse">
<stop stop-color="#D9E1EF"/>
<stop offset="1" stop-color="#7387B4"/>
</linearGradient>
<linearGradient id="paint5_linear" x1="295.865" y1="447.326" x2="332.316" y2="452.259" gradientUnits="userSpaceOnUse">
<stop stop-color="#7085B2"/>
<stop offset="1" stop-color="#8E98C4"/>
</linearGradient>
<linearGradient id="paint6_linear" x1="283.774" y1="427.518" x2="296.718" y2="476.743" gradientUnits="userSpaceOnUse">
<stop stop-color="#7085B2"/>
<stop offset="1" stop-color="#8E98C4"/>
</linearGradient>
<linearGradient id="paint7_linear" x1="301.011" y1="418.57" x2="304.75" y2="432.708" gradientUnits="userSpaceOnUse">
<stop stop-color="#D7DFF2"/>
<stop offset="1" stop-color="#FDFDFE"/>
</linearGradient>
<linearGradient id="paint8_linear" x1="311.349" y1="473.239" x2="317.676" y2="426.478" gradientUnits="userSpaceOnUse">
<stop stop-color="#D9E1EF"/>
<stop offset="1" stop-color="#7387B4"/>
</linearGradient>
<linearGradient id="paint9_linear" x1="325.165" y1="433.983" x2="312.975" y2="475.056" gradientUnits="userSpaceOnUse">
<stop stop-color="#C3CBE2"/>
<stop offset="1" stop-color="#A0ABCF"/>
</linearGradient>
<linearGradient id="paint10_linear" x1="304.274" y1="426.212" x2="291.905" y2="467.966" gradientUnits="userSpaceOnUse">
<stop stop-color="#7085B2"/>
<stop offset="1" stop-color="#ACB4D7"/>
</linearGradient>
<linearGradient id="paint11_linear" x1="322.761" y1="427.312" x2="320.214" y2="435.911" gradientUnits="userSpaceOnUse">
<stop stop-color="#D7DFF2"/>
<stop offset="1" stop-color="#FDFDFE"/>
</linearGradient>
<linearGradient id="paint12_linear" x1="357.077" y1="442.425" x2="350.419" y2="464.546" gradientUnits="userSpaceOnUse">
<stop stop-color="#1B2A49"/>
<stop offset="1" stop-color="#1B2A49" stop-opacity="0"/>
</linearGradient>
<radialGradient id="paint13_radial" cx="0" cy="0" r="1" gradientUnits="userSpaceOnUse" gradientTransform="translate(425.588 377.995) rotate(116.501) scale(86.1537 71.0598)">
<stop stop-color="#243661"/>
<stop offset="1" stop-color="#212E4D" stop-opacity="0"/>
</radialGradient>
<linearGradient id="paint14_linear" x1="248.206" y1="448.909" x2="238.318" y2="513.489" gradientUnits="userSpaceOnUse">
<stop stop-color="#081223" stop-opacity="0"/>
<stop offset="1" stop-color="#081223"/>
</linearGradient>
</defs>
</svg>
