<svg width="760" height="600" viewBox="0 0 760 600" fill="none" xmlns="http://www.w3.org/2000/svg">
<g clip-path="url(#clip0)">
<path d="M537.3 387.901C549.1 397.501 566.7 389.101 566.7 374.001V311.701C566.7 295.601 547.1 287.601 535.8 299.101L502 333.701C494.6 341.301 495.3 353.501 503.5 360.201L537.3 387.901Z" fill="#9AADCE"/>
<path d="M247 173.3C247 117.4 288.9 72 340.6 72H450.4C502.1 72 544 117.4 544 173.3V373.5C544 429.5 502.1 474.8 450.4 474.8H340.6C288.9 474.8 247 429.4 247 373.5V173.3Z" fill="#25395F"/>
<path d="M253.5 159C265.374 159 275 149.374 275 137.5C275 125.626 265.374 116 253.5 116C241.626 116 232 125.626 232 137.5C232 149.374 241.626 159 253.5 159Z" fill="#9AADCE"/>
<path d="M530.701 248.801C528.701 248.801 527.001 250.501 527.401 252.501C528.101 255.601 529.701 258.501 532.101 260.801C535.301 264.001 539.701 265.801 544.301 265.801C548.901 265.801 553.301 264.001 556.501 260.801C558.801 258.501 560.501 255.601 561.201 252.501C561.701 250.501 560.001 248.801 557.901 248.801C555.901 248.801 554.301 250.501 553.501 252.401C553.001 253.601 552.301 254.701 551.301 255.701C549.401 257.501 546.901 258.501 544.301 258.501C541.701 258.501 539.201 257.501 537.301 255.701C536.301 254.801 535.601 253.701 535.101 252.401C534.301 250.601 532.701 248.801 530.701 248.801Z" fill="#9AADCE"/>
<path d="M468.3 206.8C464.4 209.3 460.4 210.2 456.5 209.9C454.8 209.8 451 209.9 450.5 215C442.8 212.2 438 198.6 437.9 190.5C437.9 185.8 433.1 176.3 436 173C439.5 176 443.5 176.5 448.5 173.4C453.5 170.7 459.6 169.8 465.6 171.8C479 176.3 482.2 197.8 468.3 206.8Z" fill="#857AF4"/>
<path d="M377 237.901C373.9 225.701 402.2 220.901 404.6 234.101C404.9 236.501 416.8 252.901 417.1 255.501C408.6 258.001 413.4 277.301 434.8 285.801C478.3 299.901 537.5 365.801 521.7 410.101C511.4 432.001 488.4 416.501 492.9 396.101C496 379.201 479.3 350.101 456.3 330.701C454.1 328.901 450.9 329.201 451.6 332.001C452.9 337.101 453.7 341.801 455.1 349.501C459 371.101 460.6 448.001 456.1 475.001H336.8C333.7 455.701 331.3 424.801 335.8 370.201C338.4 364.501 340.9 358.901 342.7 352.701C344.6 346.201 346 340.801 347.1 336.501C347.8 333.801 344.1 334.001 342 335.801C305.6 366.601 295.7 405.001 306.8 405.701C321.6 411.701 325 443.001 293.2 434.201C256.2 424.001 279.2 325.801 360.9 286.701C365.6 284.401 370.7 282.401 374.1 278.401C382.4 268.801 379.7 255.801 372.6 252.101C372.1 250.001 377.3 239.801 377 237.901Z" fill="#5A58E4"/>
<path d="M403.099 465.1C425.199 464.9 444.799 449.5 444.699 427.4C444.499 396.3 431.899 359.8 429.099 334.8C425.199 299.7 364.499 302.2 365.599 335.4C366.299 357.1 356.699 388.5 352.699 416.9C349.199 442.2 368.099 463.5 393.599 464.9C396.799 465.1 399.999 465.2 403.099 465.1Z" fill="#534BD6"/>
<path d="M336 382.099C329.5 407.999 311.4 406.399 306.4 405.599C294.7 403.799 276.2 430.499 297.2 435.099C318.2 439.699 358.4 415.499 353.4 390.999C354.5 382.299 341.2 374.699 336 382.099Z" fill="url(#paint0_linear)"/>
<path d="M350.5 292C357.4 292 366.8 292 373.8 289.4C391.8 282.5 412 265 416.5 252.5C399.5 258 381.5 255.5 372.5 252C381 256.5 383 273.5 369 282.5C363.7 285.5 354.5 289.5 350.5 292Z" fill="url(#paint1_linear)"/>
<path d="M465.6 171.799C459.6 169.799 453.4 170.699 448.5 173.399C444.2 176.099 440.6 176.099 437.5 174.099C432.8 169.299 427.3 165.699 421.1 163.199C404.9 156.499 385.1 157.599 369.6 165.599C369.4 165.699 369.2 165.799 369.1 165.899C361.6 169.399 359.3 166.499 357.1 164.099C354.5 161.199 351 158.899 346.9 157.799C333.3 154.199 318.8 170.299 325.3 185.499C327.6 190.599 331.3 193.899 335.6 195.599C337.4 196.299 342.8 197.599 342 204.199C340.6 219.199 347.3 235.299 364.8 247.599C398.4 271.199 446.1 254.299 450.4 214.999C450.9 209.899 454.7 209.799 456.4 209.899C460.2 210.199 464.3 209.299 468.2 206.799C482.2 197.799 479 176.299 465.6 171.799Z" fill="url(#paint2_radial)"/>
<path d="M419.7 229.5C417.5 229.9 415.5 228.4 415.1 226.3C414.7 224.1 416.2 222.1 418.3 221.7C420.5 221.3 422.5 222.8 422.9 224.9C423.2 227.1 421.8 229.1 419.7 229.5Z" fill="#D1D2FC"/>
<path d="M421 224.201C420.9 224.401 420.4 224.301 420.1 224.101C419.8 223.801 419.7 223.401 419.8 223.201C419.9 223.001 420.4 223.101 420.7 223.301C421.1 223.601 421.2 223.901 421 224.201Z" fill="white"/>
<path opacity="0.2" d="M417.8 223.799C417.6 223.399 417.1 223.099 416.8 223.399C416.1 224.099 415.8 225.099 416 226.099C416.3 227.799 417.9 228.899 419.6 228.599C420.4 228.499 421.1 227.999 421.6 227.399C421.9 226.999 421.4 226.499 420.9 226.399C420.3 226.299 419.6 225.999 419 225.499C418.3 224.899 417.9 224.299 417.8 223.799Z" fill="#44589D"/>
<path d="M367.5 221.8C365.3 222.2 363.3 220.7 362.9 218.6C362.5 216.4 364 214.4 366.1 214C368.3 213.6 370.3 215.1 370.7 217.2C371 219.5 369.6 221.5 367.5 221.8Z" fill="#D1D2FC"/>
<path d="M368.9 216.599C368.8 216.799 368.3 216.699 368 216.499C367.7 216.199 367.6 215.799 367.7 215.599C367.8 215.399 368.3 215.499 368.6 215.699C368.9 215.999 369 216.399 368.9 216.599Z" fill="white"/>
<path opacity="0.2" d="M365.6 216.2C365.4 215.8 364.9 215.5 364.6 215.8C363.9 216.5 363.6 217.5 363.8 218.5C364.1 220.2 365.7 221.3 367.4 221C368.2 220.9 368.9 220.4 369.4 219.8C369.7 219.4 369.2 218.9 368.7 218.8C368.1 218.7 367.4 218.4 366.8 217.9C366.2 217.4 365.8 216.8 365.6 216.2Z" fill="#44589D"/>
<path d="M371.6 330.9L342.1 342C340.8 342.4 340 343.8 340.2 345.3L343 384.4C343.1 385.8 344 387.1 345.2 387.6L361.5 394C363.2 394.5 363.7 394.7 365.5 394L396.8 381.8C398.4 381.2 399.4 379.4 399.3 377.6L396.8 338.8C396.7 337.3 395.8 336 394.4 335.6L376.4 330.5C374.9 330.2 373.2 330.3 371.6 330.9Z" fill="#F6E4FF"/>
<path d="M395.6 339L398 377.9C398.1 379.7 397.1 381.8 395.5 382.4L366.1 393.8C365.1 394.2 364.1 393.4 364 392.3L361.5 356.2C361.3 352.5 363.4 348.9 366.6 347.8L393.4 337.5C394.5 337.1 395.5 337.8 395.6 339Z" fill="#DBD2FF"/>
<path d="M359 349.4L341.5 343.9C340.6 343.6 340.7 342.4 341.6 342L371.3 330.7C372.9 330.1 374.5 330.1 376 330.4L393.5 335.5C394.3 335.7 394.3 337 393.5 337.4L363 349.2C361.6 349.7 360.3 349.8 359 349.4Z" fill="#FFFEFE"/>
<path d="M405.3 332.801C404.6 332.601 398.2 330.801 398.2 330.801C396.6 330.301 394.2 329.801 392.5 330.301L363 337.901C362.1 338.101 360.3 340.101 360.4 341.401L363 377.801C363 379.301 363.9 380.401 365.3 380.901L373.2 384.601C375.5 385.601 376.8 385.301 377.8 385.001L408 376.501C409.7 376.001 410.7 374.601 410.6 372.801L408.4 335.901C408.2 334.001 406 333.001 405.3 332.801Z" fill="#F6E4FF"/>
<path d="M408.3 335.701L410.5 372.701C410.6 374.401 409.5 376.001 407.9 376.401L377.8 384.801C376.8 385.001 375.7 385.001 375.6 383.901L373.2 346.401C372.9 342.901 373.3 342.701 376.6 341.901L406.2 334.001C407.2 333.901 408.2 334.701 408.3 335.701Z" fill="#DFD5FF"/>
<path d="M370.8 342.3L361.2 339.6C360.4 339.2 360.6 338.2 361.5 338L392.4 330.2C394.1 329.8 396.5 330.2 398.2 330.7L405.3 332.7C406.4 333 407.6 333.7 406.3 334.1L374.9 342.5C373.5 342.9 372.4 342.7 370.8 342.3Z" fill="#FFFEFE"/>
<path fill-rule="evenodd" clip-rule="evenodd" d="M349.5 368.601C352.3 367.001 351.9 363.301 348.9 363.801C345.8 364.201 341.8 364.601 338.9 364.701C339.1 364.301 339.3 364.001 339.3 364.001C344.4 363.801 347.3 363.201 349.6 361.901C352.4 360.301 352 356.601 349 357.101C345.4 357.601 342.2 357.901 340.7 358.001C339.2 358.101 335 357.101 335.1 365.901C333.9 367.101 332.7 369.501 332.9 374.501C332.7 375.601 331.9 380.201 335.2 386.601C335.3 386.601 335.3 386.601 335.4 386.601C336.9 388.801 339.2 388.601 339.1 387.201C339.1 385.601 337.9 383.901 344.4 381.701C345.7 381.301 346.8 381.101 347.7 380.701C350.5 379.301 350.6 376.101 347.6 376.501C343.9 376.901 342.8 377.001 338.8 377.101C338.8 376.601 338.8 376.301 338.8 376.301C343.9 376.101 347.1 376.101 349.4 374.801C352.2 373.201 351.8 369.501 348.8 370.001C345.6 370.501 341.4 370.801 338.5 371.001C338.8 370.501 339 370.201 339 370.201C344 369.901 347.2 369.901 349.5 368.601Z" fill="#7977F8"/>
<path d="M384.3 356.101C387.6 359.901 390 364.401 391.4 369.301C393.6 377.201 396.1 380.501 399.2 384.001C399.7 384.501 400.2 385.001 400.7 385.401C413.5 406.701 436.6 420.701 454.6 427.801C477.2 436.801 518.2 436.901 523.6 402.601C529 368.201 488.6 362.101 492.3 379.801C495.1 395.801 491.4 407.201 462.6 398.501C445.4 391.501 430.4 376.401 423.7 369.601C422.2 366.901 420.8 363.701 420 360.501C416.3 345.901 411.5 339.001 395.8 333.301C391.8 331.801 389.7 335.101 393.1 336.801C395.7 338.101 399.9 340.801 403.1 343.601C402.9 343.701 402.6 343.801 402.4 344.001C402.2 344.101 402 344.301 401.7 344.401C398.7 341.801 392.4 338.101 389.5 336.701C384.5 334.201 381.5 338.201 385.5 340.201C390.7 342.701 395 345.801 396.7 347.601C396.7 347.701 396.8 347.701 396.8 347.701L396.9 347.801C396.7 348.001 396.5 348.201 396.3 348.401C392.1 345.201 385.1 340.701 382 340.301C378.6 339.701 377.3 342.901 380.2 344.401C383 345.501 389.3 349.701 392.4 352.401C392.3 352.601 392.2 352.701 392.1 352.901C392 353.001 391.9 353.201 391.8 353.401C387.3 350.101 382.4 347.301 380.3 346.301C375.8 344.301 373.3 347.801 376.8 350.001C380 351.801 382.3 353.701 384.3 356.101Z" fill="url(#paint3_linear)"/>
<path fill-rule="evenodd" clip-rule="evenodd" d="M339.4 182.5C339.4 185.5 337 188.8 334.8 186.8C326.5 179.5 330.8 165.6 340.1 164.1C344.1 163.4 347.9 164.5 350.9 166.7C353.4 168.5 350.5 171.5 347.5 172C342.7 172.8 339.5 177.6 339.4 182.5Z" fill="#4F49DF"/>
<path fill-rule="evenodd" clip-rule="evenodd" d="M457.1 196.799C456 199.399 456.8 203.099 459.4 202.199C469.3 199.099 471 185.499 463.6 180.599C460.4 178.499 456.7 177.899 453.3 178.599C450.5 179.199 451.8 182.899 454.2 184.499C458.1 187.099 459 192.499 457.1 196.799Z" fill="#4F49DF"/>
</g>
<defs>
<linearGradient id="paint0_linear" x1="353.926" y1="407.391" x2="287.73" y2="407.391" gradientUnits="userSpaceOnUse">
<stop stop-color="#8382FF"/>
<stop offset="0.8" stop-color="#5A58E4"/>
<stop offset="1" stop-color="#5A58E4"/>
</linearGradient>
<linearGradient id="paint1_linear" x1="371.982" y1="252.299" x2="388.928" y2="281.652" gradientUnits="userSpaceOnUse">
<stop stop-color="#3946BD" stop-opacity="0.67"/>
<stop offset="1" stop-color="#3946BD" stop-opacity="0"/>
</linearGradient>
<radialGradient id="paint2_radial" cx="0" cy="0" r="1" gradientUnits="userSpaceOnUse" gradientTransform="translate(412.148 164.777) scale(61.3791)">
<stop stop-color="#8382FF"/>
<stop offset="1" stop-color="#5A58E4"/>
</radialGradient>
<linearGradient id="paint3_linear" x1="375.063" y1="382.91" x2="523.965" y2="382.91" gradientUnits="userSpaceOnUse">
<stop stop-color="#8382FF"/>
<stop offset="0.8" stop-color="#5A58E4"/>
<stop offset="1" stop-color="#5A58E4"/>
</linearGradient>
<clipPath id="clip0">
<rect width="334.7" height="403" fill="white" transform="translate(232 72)"/>
</clipPath>
</defs>
</svg>
