<svg width="325" height="432" viewBox="0 0 325 432" fill="none" xmlns="http://www.w3.org/2000/svg">
<g clip-path="url(#clip0)">
<path d="M290.4 9.00009C283.5 -2.99991 266.2 -2.99991 259.3 8.90009L235.8 49.1001C229.1 60.5001 236.6 75.0001 249.8 76.1001L299 80.4001C313.5 81.7001 323.4 66.1001 316.2 53.5001L290.4 9.00009Z" fill="#FF9176"/>
<path d="M301.3 110.5C301.3 54.5 259.4 9.19995 207.7 9.19995H97.9002C46.2002 9.19995 4.2002 54.5 4.2002 110.5V310.7C4.2002 366.7 46.1002 412 97.8002 412H207.6C259.3 412 301.2 366.6 301.2 310.7V110.5H301.3Z" fill="url(#paint0_linear)"/>
<path d="M220.8 124.7C221.7 137.6 220.8 178.7 241.7 184.2C255.7 187.9 286.2 202.3 301.3 237.2C301.3 237.2 301.5 283.6 301.5 315.7C301.6 368.9 258.1 412.7 205 412.7L118.5 412.2C118.5 412.2 86.7002 327.2 127.2 250.7C120.2 253.7 93.7002 278.3 78.7002 331.7C60.3002 351.7 38.5002 336.3 41.2002 329.2C65.5002 243.7 91.6002 215.7 114.8 199.2C148.1 175.5 146.4 202.7 146.4 128.8C147.1 109.2 145.4 87.3999 181.6 86.2999C213.2 85.1999 219 98.7999 220.8 124.7Z" fill="url(#paint1_linear)"/>
<path d="M147.5 348.6C147.5 348.6 147.5 346.7 145.1 345.9L74.5998 323.7L18.2998 335.2L88.6998 363.1L147.5 348.6Z" fill="white"/>
<path d="M88.7998 362.7V411.7C92.9998 412.7 146.3 412.7 146.3 412.7L147.6 348.7L88.7998 362.7Z" fill="#C2C7F2"/>
<path d="M139.4 412.7L140.3 358L96.0001 368.6C95.8001 368.6 95.7001 368.8 95.7001 369L95.6001 412.2L139.4 412.7Z" fill="#4252B4"/>
<path d="M88.7999 363.7L88.6999 411.2C79.5999 411.2 29.5999 389.7 18.3999 364.2V335.6L88.7999 363.7Z" fill="#6E95F2"/>
<path d="M49.2001 397.2C45.0001 395 31.0001 381.7 26.4001 375.7L25.6001 346C25.6001 345.7 25.9001 345.6 26.1001 345.7L49.0001 354.8C49.1001 354.9 49.2001 355 49.2001 355.1V397.2Z" fill="#5C69D2"/>
<path d="M81.4999 367.7C81.5999 367.8 81.6999 367.9 81.6999 368L81.5999 410.6C76.3999 409.1 45.9999 403.1 27.3999 377.1V346.4L81.4999 367.7Z" fill="#4252B4"/>
<path d="M84.0999 354.7L26.8999 331.9C27.8999 321.2 34.7999 311 44.0999 304.8C50.2999 300.7 59.4999 299.9 60.9999 300.3C76.1999 304.4 98.3999 312.1 113.5 316.4C98.1999 319.6 87.3999 336.8 84.0999 354.7Z" fill="url(#paint2_linear)"/>
<path d="M25.5 330.6C25.5 330.6 25.5 319.1 37.6 307.3C47.5 297.6 59.1 298.3 60.2 298.4C61.4 298.5 63.1 299.6 63.4 300.9C62.5 300.7 60.9 300.2 60.9 300.2C59 300 49.2 300.4 41.2 306.9C33.2 313.3 28.7 322.2 27.4 331.3C26.8 331.2 25.5 330.6 25.5 330.6Z" fill="#6777E1"/>
<path d="M54.1998 296.9C55.9998 297.4 58.3998 297.9 60.4998 298.5C56.1998 298.3 49.1998 298.9 42.8998 303.1C33.5998 309.3 26.6998 319.4 25.4998 330.1C25.4998 330.4 25.5998 330.7 25.8998 330.8L82.6998 353.4C83.0998 353.6 83.5998 353.3 83.6998 352.9C86.4998 338.5 94.1998 323.7 105.1 316.9C111.8 312.7 121.2 315.5 130.7 318.2C108.8 314.9 95.4998 330 88.5998 363.2L18.2998 335.2C18.2998 307.8 41.5998 292.6 54.1998 296.9Z" fill="url(#paint3_linear)"/>
<path d="M142.5 337.7L88.7002 363.3C88.7002 363.3 95.5002 317.3 123.8 317.3C139.1 317.3 143.1 331.8 143.9 335.7C144.1 336.9 142.5 337.7 142.5 337.7Z" fill="#C2C7F2"/>
<path d="M136 333.2C135 327.4 130 322.2 122.5 323.7C115 325.2 108 329 102.6 340.4C101.1 343.5 99.9998 346.6 99.0998 349.4C98.8998 349.9 99.3998 350.3 99.8998 350.2L136 333.2Z" fill="#4252B4"/>
<path fill-rule="evenodd" clip-rule="evenodd" d="M231.7 245.2C227.1 237.2 217.7 227.6 217.7 226.7C219.2 189.3 288.6 189.9 286.7 240.7C284.6 297.2 286.7 329.7 252.7 359C223.9 383.8 166.8 392.3 144.5 397.6C134.1 400.2 121.9 401.5 116.1 401.1C110.3 400.8 101.6 400.8 93.4001 396.1C85.8001 391.8 88.3001 387.2 94.1001 389.7C98.4001 391.5 100.6 392.2 107.6 392.4C108.1 392.4 108.5 392 108.5 391.5C108.4 391.2 108.2 391 107.9 390.9C101.9 389.9 95.3001 388.6 90.4001 385.1C83.2001 380 86.1001 374.3 91.3001 377.9C91.4001 378 91.5001 378.1 91.6001 378.1C95.9001 381.1 98.6001 382.6 107.7 383.2C108.1 383.2 108.4 383 108.4 382.6C108.4 382.2 108.2 381.9 107.8 381.8C101.7 380.8 94.1001 378.7 89.6001 374.3C84.8001 369.6 87.9001 364.9 93.3001 369.4C97.2001 372.6 102 373.8 110.6 374.9C110.9 374.9 111.2 374.8 111.4 374.5C111.7 374 111.4 373.3 110.8 373.3C106.7 372.7 102.5 371.6 99.5001 369.5C93.2001 365.2 96.1001 360.4 101.4 363.7C126.4 374.4 136.3 363 125 357.2C113.7 351.5 121.8 347.2 128.3 349.2C128.6 349.3 129 349.4 129.5 349.5C134.1 351.3 137.8 353 140.6 354.6C144.2 356.7 148.7 358.3 152.7 357.3C190.6 347.9 219.5 334.1 228.1 321.1C241.5 301.2 237.2 254.7 231.7 245.2Z" fill="url(#paint4_linear)"/>
<path d="M167.6 107C167.6 106.4 166.7 106.1 166.4 106.4C161.2 112 151.9 117.7 146.1 111.6C139 103.9 163.1 83.1999 182.4 83.3999C207.2 83.6999 223.8 101.8 220.9 107.7C218.6 112.3 210.3 106.9 207.8 103.1C207.2 102.1 206.9 103.2 207.2 104C208.6 108.1 209.4 113.4 202.9 115C194.8 117 188.6 106.7 186.5 102.7C186.2 102.1 185.2 102 185 102.6C182.7 109.4 178.2 115.8 173.6 114.6C169.3 113.3 167.7 108.8 167.6 107Z" fill="url(#paint5_linear)"/>
<path opacity="0.49" d="M191.8 134.9C192.7 137.2 191.5 139.8 189.2 140.6C186.9 141.4 184.4 140.2 183.6 137.9C182.7 135.6 183.9 133 186.2 132.2C188.4 131.4 191 132.6 191.8 134.9Z" fill="#9AA0CA"/>
<path d="M191.8 134.7C192.6 136.8 191.5 139.1 189.4 139.9C187.3 140.7 185 139.6 184.2 137.5C183.4 135.4 184.5 133.1 186.6 132.3C188.8 131.5 191.1 132.6 191.8 134.7Z" fill="#38477D"/>
<path d="M185.2 135.3C185.9 134.9 186.8 135.5 187.3 136.4C187.8 137.4 187.7 138.5 187.1 138.8C186.4 139.2 185.5 138.6 185 137.7C184.5 136.7 184.6 135.6 185.2 135.3Z" fill="#B5BAEF" fill-opacity="0.3"/>
<path d="M185.4 136.6C185.6 136.5 186 136.7 186.2 137.1C186.4 137.5 186.4 137.9 186.1 138C185.9 138.1 185.5 137.9 185.3 137.5C185.2 137.2 185.2 136.7 185.4 136.6Z" fill="#9CB0CD"/>
<path opacity="0.49" d="M156 136C156.7 138.3 155.8 140.9 154 141.7C152.2 142.5 150.2 141.3 149.5 138.9C148.8 136.6 149.7 134 151.5 133.2C153.3 132.4 155.3 133.7 156 136Z" fill="#9AA0CA"/>
<path d="M156 135.7C156.6 137.8 155.8 140.1 154.2 140.8C152.6 141.5 150.7 140.4 150.1 138.3C149.5 136.2 150.3 133.9 151.9 133.2C153.5 132.5 155.4 133.6 156 135.7Z" fill="#38477D"/>
<path d="M150.9 136.2C151.4 135.9 152.1 136.5 152.6 137.5C153.1 138.5 153.1 139.6 152.6 139.8C152.1 140.1 151.4 139.5 151 138.5C150.5 137.5 150.5 136.4 150.9 136.2Z" fill="#B5BAEF" fill-opacity="0.3"/>
<path d="M151.2 137.5C151.4 137.4 151.6 137.6 151.8 138C152 138.4 152 138.8 151.8 138.9C151.6 139 151.4 138.8 151.2 138.4C151 138 151 137.6 151.2 137.5Z" fill="#9CB0CD"/>
<path d="M134.2 217.2C135.4 221.2 134.2 238.7 127.2 250.7C127.2 250.7 114.7 255.7 97.2 285.7C92.3 286.7 88.7 259.7 97.2 244.2C102 235.4 132.7 212.2 134.2 217.2Z" fill="url(#paint6_radial)"/>
<path d="M33.5 431.2C52.0015 431.2 67 416.201 67 397.7C67 379.198 52.0015 364.2 33.5 364.2C14.9985 364.2 0 379.198 0 397.7C0 416.201 14.9985 431.2 33.5 431.2Z" fill="#37E5D7"/>
<path d="M33.5 419.2C45.3741 419.2 55 409.574 55 397.7C55 385.826 45.3741 376.2 33.5 376.2C21.6259 376.2 12 385.826 12 397.7C12 409.574 21.6259 419.2 33.5 419.2Z" fill="#1DD5C6"/>
<path d="M322.3 38.1001C324.3 37.0001 325 34.4001 323.8 32.4001L313.5 14.6001C312.4 12.6001 309.8 11.9001 307.8 13.1001C305.8 14.2001 305.1 16.8001 306.3 18.8001L316.6 36.6001C317.7 38.6001 320.3 39.2001 322.3 38.1001Z" fill="url(#paint7_linear)"/>
</g>
<defs>
<linearGradient id="paint0_linear" x1="152.784" y1="9.15225" x2="152.784" y2="412.002" gradientUnits="userSpaceOnUse">
<stop stop-color="#638BF2"/>
<stop offset="1" stop-color="#5A83ED"/>
</linearGradient>
<linearGradient id="paint1_linear" x1="171.256" y1="86.1679" x2="171.256" y2="412.651" gradientUnits="userSpaceOnUse">
<stop stop-color="white"/>
<stop offset="1" stop-color="#7E87DA"/>
</linearGradient>
<linearGradient id="paint2_linear" x1="99.3583" y1="341.004" x2="38.5384" y2="305.89" gradientUnits="userSpaceOnUse">
<stop stop-color="#6A7BE4"/>
<stop offset="1" stop-color="#4252B4"/>
</linearGradient>
<linearGradient id="paint3_linear" x1="54.212" y1="355.971" x2="89.6914" y2="294.519" gradientUnits="userSpaceOnUse">
<stop stop-color="#6E95F2"/>
<stop offset="0.4215" stop-color="#6DACE6"/>
<stop offset="1" stop-color="#C9E5FF"/>
</linearGradient>
<linearGradient id="paint4_linear" x1="186.401" y1="401.147" x2="186.401" y2="200.37" gradientUnits="userSpaceOnUse">
<stop stop-color="#AEB6F0"/>
<stop offset="0.5098" stop-color="#C5CBF9"/>
<stop offset="1" stop-color="#D9DBF4" stop-opacity="0"/>
</linearGradient>
<linearGradient id="paint5_linear" x1="196.175" y1="83.8297" x2="171.439" y2="126.674" gradientUnits="userSpaceOnUse">
<stop stop-color="#9AA6FF"/>
<stop offset="0.6375" stop-color="#5266E2"/>
<stop offset="1" stop-color="#475BD5"/>
</linearGradient>
<radialGradient id="paint6_radial" cx="0" cy="0" r="1" gradientUnits="userSpaceOnUse" gradientTransform="translate(133.818 251.169) rotate(-127.451) scale(29.6016 44.7169)">
<stop stop-color="#A1A9F9"/>
<stop offset="1" stop-color="#8A94F0" stop-opacity="0"/>
</radialGradient>
<linearGradient id="paint7_linear" x1="319.336" y1="22.221" x2="312.484" y2="27.6272" gradientUnits="userSpaceOnUse">
<stop stop-color="#FFF384"/>
<stop offset="1" stop-color="#FFE485"/>
</linearGradient>
<clipPath id="clip0">
<rect width="324.3" height="431.2" fill="white"/>
</clipPath>
</defs>
</svg>
