<svg width="760" height="600" viewBox="0 0 760 600" fill="none" xmlns="http://www.w3.org/2000/svg">
<path d="M533.4 72.0125C526.5 60.0125 509.2 60.0125 502.3 71.9125L478.8 112.113C472.1 123.513 479.6 138.013 492.8 139.113L542 143.413C556.5 144.713 566.4 129.113 559.2 116.513L533.4 72.0125Z" fill="#FF9176"/>
<path d="M544.3 173.511C544.3 117.511 502.4 72.2109 450.7 72.2109H340.9C289.2 72.2109 247.2 117.511 247.2 173.511V373.711C247.2 429.711 289.1 475.011 340.8 475.011H450.6C502.3 475.011 544.2 429.611 544.2 373.711V173.511H544.3Z" fill="#F9D7E3"/>
<path d="M276.5 494.212C295.002 494.212 310 479.213 310 460.712C310 442.21 295.002 427.212 276.5 427.212C257.998 427.212 243 442.21 243 460.712C243 479.213 257.998 494.212 276.5 494.212Z" fill="#37E5D7"/>
<path d="M276.5 482.212C288.374 482.212 298 472.586 298 460.712C298 448.838 288.374 439.212 276.5 439.212C264.626 439.212 255 448.838 255 460.712C255 472.586 264.626 482.212 276.5 482.212Z" fill="#1DD5C6"/>
<path d="M578.589 109.589C580.589 108.489 581.289 105.889 580.089 103.889L569.789 86.0889C568.689 84.0889 566.089 83.3889 564.089 84.5889C562.089 85.6889 561.389 88.2889 562.589 90.2889L572.889 108.089C573.989 110.089 576.589 110.689 578.589 109.589Z" fill="#FFEE9C"/>
<path d="M487 307C504.898 311.286 525.5 318 544 336.5V380.999C544 432.914 501.915 474.999 450 474.999H386C386 454.076 382.218 406.49 386 377.5C390.044 346.5 401.452 332.848 428.727 313.682C438.054 307.128 469.102 302.715 487 307Z" fill="url(#paint0_linear)"/>
<path d="M432.126 337.511C439.193 311.174 417.499 299.5 404.999 300.5C395.801 275.725 445.827 254.857 453.999 275.5C449.999 285.5 464.818 299.688 492.999 308.5C523.886 318.158 419.664 383.95 432.126 337.511Z" fill="#5A58E4"/>
<path d="M465.817 228.314C471.997 286.295 413.714 318.515 369.869 289.532C326.024 260.55 333.667 207.123 368.103 183.283C402.538 159.443 459.636 170.333 465.817 228.314Z" fill="#1BCAD3"/>
<path d="M457.229 200.184C460.103 204.612 462.525 203.388 466.796 201.229C470.351 199.432 475.186 196.987 482.629 196.613C500.26 195.725 515.861 219.453 503.536 237.332C497.572 245.984 488.528 249.033 479.999 248.064C478.537 247.898 477.075 247.601 475.663 247.314C470.802 246.326 466.549 245.462 464.999 250.5C464.985 250.49 464.97 250.48 464.955 250.47C456.397 293.933 407.745 314.57 369.868 289.533C350.134 276.489 340.831 258.493 339.705 240.472C332.479 243.979 323.309 241.345 317.699 232.387C308.404 217.544 315.574 201.738 327.297 198.738C334.353 196.932 342.471 200.156 346.986 207.163C351.886 197.819 359.073 189.534 368.102 183.283C395.35 164.419 436.788 167.301 455.96 198.051C455.973 198.034 455.986 198.017 455.999 198C456.124 198.251 456.248 198.491 456.371 198.72C456.662 199.202 456.948 199.69 457.229 200.184Z" fill="#5A58E4"/>
<path d="M457.229 200.184C460.103 204.612 462.525 203.388 466.796 201.229C470.351 199.432 475.186 196.987 482.629 196.613C500.26 195.725 515.861 219.453 503.536 237.332C497.572 245.984 488.528 249.033 479.999 248.064C478.537 247.898 477.075 247.601 475.663 247.314C470.802 246.326 466.549 245.462 464.999 250.5C464.985 250.49 464.97 250.48 464.955 250.47C456.397 293.933 407.745 314.57 369.868 289.533C350.134 276.489 340.831 258.493 339.705 240.472C332.479 243.979 323.309 241.345 317.699 232.387C308.404 217.544 315.574 201.738 327.297 198.738C334.353 196.932 342.471 200.156 346.986 207.163C351.886 197.819 359.073 189.534 368.102 183.283C395.35 164.419 436.788 167.301 455.96 198.051C455.973 198.034 455.986 198.017 455.999 198C456.124 198.251 456.248 198.491 456.371 198.72C456.662 199.202 456.948 199.69 457.229 200.184Z" fill="url(#paint1_radial)"/>
<path d="M481.931 235.368C480.929 236.818 481.568 239.139 483.327 238.993C487.725 238.629 492.037 236.495 495.09 232.077C502.991 220.644 493.559 205.128 481.689 206.038C476.647 206.425 472.338 208.855 469.387 212.306C468.236 213.652 469.852 215.472 471.622 215.337C480.753 214.636 488.009 226.573 481.931 235.368Z" fill="#4F49DF"/>
<ellipse rx="3.27378" ry="4.73527" transform="matrix(0.963534 -0.267587 0.203656 0.979043 351.465 256.259)" fill="#0A0E37"/>
<ellipse rx="2.95242" ry="4.37374" transform="matrix(-0.998073 0.062057 0.127546 0.991833 351.759 255.973)" fill="#F8EAFF"/>
<path d="M353.41 257.645C353.684 257.658 354.02 257.925 353.911 258.176C353.564 258.978 352.962 259.51 352.218 259.556C350.874 259.64 349.578 258.103 349.323 256.124C349.181 255.019 349.394 254.009 349.844 253.319C349.999 253.08 350.326 253.266 350.336 253.55C350.36 254.248 350.601 255.06 351.053 255.817C351.713 256.925 352.641 257.608 353.41 257.645Z" fill="#F9D7E3"/>
<ellipse opacity="0.49" cx="405.935" cy="255.448" rx="4.73972" ry="4.77207" transform="rotate(-13.3671 405.935 255.448)" fill="#00002B"/>
<ellipse rx="4.39908" ry="4.39297" transform="matrix(-0.972909 -0.231189 -0.231189 0.972909 406.136 255.109)" fill="#F8EAFF"/>
<path d="M408.257 256.687C408.627 256.815 408.87 257.267 408.593 257.545C407.772 258.369 406.554 258.76 405.338 258.471C403.479 258.029 402.33 256.167 402.771 254.31C403.011 253.3 403.673 252.5 404.526 252.051C404.897 251.856 405.281 252.299 405.289 252.718C405.303 253.493 405.646 254.407 406.292 255.22C406.869 255.945 407.577 256.452 408.257 256.687Z" fill="#F9D7E3"/>
<path fill-rule="evenodd" clip-rule="evenodd" d="M334.202 378.272C354.057 390.784 362.217 434.289 362.217 475.001C362.217 475.001 333.999 475.501 328.499 474.01C328.499 431.228 326.499 415 314.891 396.768C287.499 346.499 317.475 367.665 334.202 378.272Z" fill="#5A58E4"/>
<path d="M359.168 383.919C360.582 383.903 361.171 382.895 360.451 381.678L318.967 311.133C318.247 309.915 316.497 308.93 315.083 308.946L281.508 309.319C280.094 309.336 279.505 310.343 280.225 311.56L321.709 382.106C322.429 383.323 324.179 384.308 325.593 384.292L359.168 383.919Z" fill="#F6E4FF"/>
<path d="M360.442 381.65L318.957 311.105C318.238 309.888 316.488 308.902 315.074 308.919L281.499 309.292C280.787 309.308 280.279 309.549 280.044 309.965L282.146 306.232C282.38 305.815 282.872 305.565 283.601 305.558L317.175 305.185C318.589 305.169 320.34 306.154 321.059 307.371L362.544 377.916C362.908 378.517 362.94 379.084 362.715 379.484L360.63 383.227C360.838 382.817 360.797 382.267 360.442 381.65Z" fill="white"/>
<path d="M308.875 359.021C308.715 353.992 309.638 348.429 311.628 343.594C313.352 339.408 307.261 335.654 304.896 340.739C302.176 346.587 298.234 359.302 304.897 374.533C306.523 378.25 308.104 379.608 309.356 379.483C310.327 380.823 312.644 379.932 314.863 377.822C314.727 380.964 318.494 385.975 321.477 379.636C324.338 373.924 327.677 371.881 335.293 369.569C339.349 368.338 339.099 363.123 333.911 363.93C329.303 364.648 324.635 366.239 320.833 369.346C324.611 365.035 330.601 362.143 334.23 361.688C338.722 361.123 337.214 354.23 331.853 355.875C331.677 355.929 331.493 355.985 331.302 356.043C327.477 357.208 320.723 359.266 315.584 364.043C319.964 358.713 325.97 355.144 332.233 353.181C336.553 351.828 334.068 345.634 330.328 346.246C323.567 347.353 314.681 351.837 308.875 359.021Z" fill="#5A58E4"/>
<path d="M337.498 206.496C339.065 207.351 337.921 209.57 336.191 210.013C328.651 211.943 324.039 222.109 330.017 231.657C330.895 233.058 329.997 234.995 328.482 234.335C326.101 233.297 323.872 231.398 322.136 228.625C315.688 218.329 320.662 207.364 328.794 205.283C331.659 204.55 334.777 205.012 337.498 206.496Z" fill="#4F49DF"/>
<path d="M515 449C511.498 418.097 499.513 401.401 494.074 376.84C486.468 342.353 426.376 351.286 430.997 384.181C433.997 405.684 427.787 446.336 426.826 475C426.826 475 485.5 476 515 449Z" fill="#534BD6"/>
<defs>
<linearGradient id="paint0_linear" x1="464.16" y1="305.302" x2="464.16" y2="474.999" gradientUnits="userSpaceOnUse">
<stop stop-color="#5A58E4"/>
<stop offset="0.416667" stop-color="#5A58E4"/>
<stop offset="1" stop-color="#534BD6"/>
</linearGradient>
<radialGradient id="paint1_radial" cx="0" cy="0" r="1" gradientUnits="userSpaceOnUse" gradientTransform="translate(411.549 172.5) rotate(102.433) scale(65.025 98.7538)">
<stop stop-color="#8382FF"/>
<stop offset="1" stop-color="#5A58E4"/>
</radialGradient>
</defs>
</svg>
