<svg width="670" height="720" viewBox="0 0 670 720" fill="none" xmlns="http://www.w3.org/2000/svg">
<mask id="path-1-inside-1" fill="white">
<path d="M535.005 344.875C539.613 344.532 543.087 340.515 542.56 335.925C536.892 286.532 513.789 240.667 477.26 206.673C440.732 172.679 393.327 152.929 343.655 150.82C339.038 150.624 335.281 154.378 335.27 158.998C335.258 163.619 338.997 167.354 343.613 167.566C389.068 169.654 432.419 187.8 465.862 218.922C499.304 250.044 520.515 291.981 525.86 337.169C526.403 341.757 530.398 345.218 535.005 344.875Z"/>
</mask>
<path d="M535.005 344.875C539.613 344.532 543.087 340.515 542.56 335.925C536.892 286.532 513.789 240.667 477.26 206.673C440.732 172.679 393.327 152.929 343.655 150.82C339.038 150.624 335.281 154.378 335.27 158.998C335.258 163.619 338.997 167.354 343.613 167.566C389.068 169.654 432.419 187.8 465.862 218.922C499.304 250.044 520.515 291.981 525.86 337.169C526.403 341.757 530.398 345.218 535.005 344.875Z" stroke="#EDF2FD" stroke-width="36" mask="url(#path-1-inside-1)"/>
<mask id="path-2-inside-2" fill="white">
<path d="M142.77 301.079C138.351 299.729 133.657 302.212 132.484 306.681C122.688 344 123.394 383.362 134.608 420.393C145.821 457.424 167.07 490.565 195.923 516.181C199.379 519.248 204.662 518.711 207.589 515.136C210.516 511.56 209.976 506.303 206.532 503.223C180.241 479.719 160.873 449.399 150.621 415.544C140.37 381.689 139.664 345.718 148.499 311.577C149.656 307.104 147.188 302.43 142.77 301.079Z"/>
</mask>
<path d="M142.77 301.079C138.351 299.729 133.657 302.212 132.484 306.681C122.688 344 123.394 383.362 134.608 420.393C145.821 457.424 167.07 490.565 195.923 516.181C199.379 519.248 204.662 518.711 207.589 515.136C210.516 511.56 209.976 506.303 206.532 503.223C180.241 479.719 160.873 449.399 150.621 415.544C140.37 381.689 139.664 345.718 148.499 311.577C149.656 307.104 147.188 302.43 142.77 301.079Z" stroke="#EDF2FD" stroke-width="36" mask="url(#path-2-inside-2)"/>
<mask id="path-3-inside-3" fill="white">
<path d="M317.406 159.751C317.006 155.148 312.947 151.723 308.364 152.306C286.974 155.03 266.133 161.045 246.582 170.137C242.392 172.086 240.782 177.147 242.897 181.255C245.011 185.363 250.049 186.961 254.245 185.028C271.854 176.913 290.588 171.505 309.813 168.99C314.395 168.39 317.806 164.354 317.406 159.751Z"/>
</mask>
<path d="M317.406 159.751C317.006 155.148 312.947 151.723 308.364 152.306C286.974 155.03 266.133 161.045 246.582 170.137C242.392 172.086 240.782 177.147 242.897 181.255C245.011 185.363 250.049 186.961 254.245 185.028C271.854 176.913 290.588 171.505 309.813 168.99C314.395 168.39 317.806 164.354 317.406 159.751Z" stroke="#FFE485" stroke-width="36" mask="url(#path-3-inside-3)"/>
<mask id="path-4-inside-4" fill="white">
<path d="M224.941 196.498C221.131 190.833 213.425 189.301 207.996 193.44C202.458 197.66 197.135 202.155 192.046 206.907C187.056 211.565 187.275 219.419 192.22 224.125C197.165 228.831 204.962 228.602 209.989 223.983C213.792 220.488 217.74 217.155 221.823 213.991C227.22 209.81 228.752 202.162 224.941 196.498Z"/>
</mask>
<path d="M224.941 196.498C221.131 190.833 213.425 189.301 207.996 193.44C202.458 197.66 197.135 202.155 192.046 206.907C187.056 211.565 187.275 219.419 192.22 224.125C197.165 228.831 204.962 228.602 209.989 223.983C213.792 220.488 217.74 217.155 221.823 213.991C227.22 209.81 228.752 202.162 224.941 196.498Z" stroke="#61E897" stroke-width="36" mask="url(#path-4-inside-4)"/>
<mask id="path-5-inside-5" fill="white">
<path d="M168.093 247.846C164.257 245.27 159.044 246.283 156.624 250.218C151.58 258.42 147.109 266.96 143.242 275.777C141.386 280.009 143.523 284.87 147.826 286.555C152.128 288.24 156.964 286.11 158.835 281.885C162.24 274.194 166.145 266.734 170.527 259.554C172.933 255.61 171.929 250.421 168.093 247.846Z"/>
</mask>
<path d="M168.093 247.846C164.257 245.27 159.044 246.283 156.624 250.218C151.58 258.42 147.109 266.96 143.242 275.777C141.386 280.009 143.523 284.87 147.826 286.555C152.128 288.24 156.964 286.11 158.835 281.885C162.24 274.194 166.145 266.734 170.527 259.554C172.933 255.61 171.929 250.421 168.093 247.846Z" stroke="#4BE0D7" stroke-width="36" mask="url(#path-5-inside-5)"/>
<mask id="path-6-inside-6" fill="white">
<path d="M217.712 522.899C215.018 526.653 215.868 531.895 219.726 534.437C239.648 547.56 261.669 557.178 284.834 562.875C289.321 563.978 293.744 561.039 294.667 556.512C295.59 551.985 292.663 547.585 288.18 546.466C267.322 541.26 247.484 532.595 229.49 520.831C225.623 518.303 220.406 519.146 217.712 522.899Z"/>
</mask>
<path d="M217.712 522.899C215.018 526.653 215.868 531.895 219.726 534.437C239.648 547.56 261.669 557.178 284.834 562.875C289.321 563.978 293.744 561.039 294.667 556.512C295.59 551.985 292.663 547.585 288.18 546.466C267.322 541.26 247.484 532.595 229.49 520.831C225.623 518.303 220.406 519.146 217.712 522.899Z" stroke="#FFE485" stroke-width="36" mask="url(#path-6-inside-6)"/>
<mask id="path-7-inside-7" fill="white">
<path d="M464.912 502.655C467.907 505.943 473.012 506.192 476.178 503.068C493.052 486.416 506.869 466.898 516.97 445.404C527.072 423.91 533.282 400.817 535.333 377.198C535.718 372.768 532.268 368.996 527.826 368.789C523.383 368.581 519.632 372.017 519.232 376.446C517.289 397.952 511.597 418.974 502.395 438.554C493.193 458.134 480.64 475.931 465.323 491.151C462.169 494.286 461.918 499.367 464.912 502.655Z"/>
</mask>
<path d="M464.912 502.655C467.907 505.943 473.012 506.192 476.178 503.068C493.052 486.416 506.869 466.898 516.97 445.404C527.072 423.91 533.282 400.817 535.333 377.198C535.718 372.768 532.268 368.996 527.826 368.789C523.383 368.581 519.632 372.017 519.232 376.446C517.289 397.952 511.597 418.974 502.395 438.554C493.193 458.134 480.64 475.931 465.323 491.151C462.169 494.286 461.918 499.367 464.912 502.655Z" stroke="#666AF6" stroke-width="36" mask="url(#path-7-inside-7)"/>
<path d="M204.554 430.942C244.967 500.94 334.511 524.933 404.509 484.52C474.602 444.132 498.595 354.588 458.147 284.53C417.698 214.472 328.19 190.539 258.192 230.952C188.134 271.401 164.14 360.944 204.554 430.942Z" fill="url(#paint0_linear)"/>
<path d="M348.396 553.456C354.355 556.991 354.253 565.651 348.213 569.044L332.003 578.15C325.962 581.544 318.514 577.126 318.595 570.198L318.814 551.606C318.895 544.678 326.446 540.437 332.405 543.971L348.396 553.456Z" fill="#4BE0D7"/>
<g style="mix-blend-mode:multiply" opacity="0.83" filter="url(#filter0_f)">
<path d="M326.966 381.162C295.881 384.56 264.838 451.878 260.027 487.463C335.118 521.403 404.834 480.156 418.969 467.219C433.104 454.282 420.296 434.841 410.344 420.023C400.393 405.205 360.965 370.553 390.672 361.449C420.379 352.345 439.093 301.195 390.939 276.758C342.785 252.322 318.135 307.241 336.561 333.856C344.986 346.027 340.071 379.73 326.966 381.162Z" fill="url(#paint1_linear)"/>
</g>
<path d="M208.473 186.918L180.178 189.651C178.972 189.731 178.088 190.696 178.007 191.902L175.596 224.699C175.515 225.905 176.158 227.11 177.203 227.753L197.782 239.248C199.229 240.052 200.917 240.374 202.605 240.213L230.498 236.917C232.026 236.756 233.231 235.551 233.312 234.023L235.965 201.548C236.045 200.262 235.402 198.976 234.196 198.413L212.814 187.722C211.528 187.079 210 186.757 208.473 186.918Z" fill="url(#paint2_linear)"/>
<path d="M235.964 201.306L233.231 234.023C233.071 235.55 231.945 236.756 230.418 236.917L202.042 240.212C201.077 240.293 200.193 239.489 200.274 238.524L202.605 208.139C202.846 205.004 205.257 202.512 208.393 202.271L234.276 199.618C235.241 199.538 236.045 200.342 235.964 201.306Z" fill="url(#paint3_linear)"/>
<path d="M197.942 239.248L177.284 227.673C176.158 227.03 175.515 225.904 175.676 224.618L178.007 192.223C178.087 191.098 179.293 190.374 180.338 190.937L199.309 200.824C201.56 202.03 202.926 204.442 202.765 207.014L200.354 237.962C200.193 239.168 198.987 239.811 197.942 239.248Z" fill="url(#paint4_linear)"/>
<path d="M201.319 201.869L180.499 191.098C179.776 190.696 180.017 189.651 180.821 189.57L208.473 186.918C210.001 186.757 211.448 187.078 212.814 187.721L233.634 198.171C234.357 198.493 234.196 199.618 233.393 199.699L204.936 202.593C203.65 202.753 202.445 202.512 201.319 201.869Z" fill="url(#paint5_linear)"/>
<path fill-rule="evenodd" clip-rule="evenodd" d="M207.172 293.808C203.556 291.099 199.623 288.514 196.923 287.445C192.365 285.641 195.854 282.816 200.103 283.813C203.466 284.602 211.677 288.202 219.404 294.212C227.158 299.416 239.493 310.861 241.468 322.052C243.443 333.243 243.716 337.327 232.214 355.539C218.457 377.562 201.972 405.709 205.119 416.721C208.265 427.734 220.599 426.988 234.885 422.903C249.17 418.819 277.148 407.368 302.821 386.96C312.433 379.851 326.386 392.401 310.981 406.488C294.393 420.708 257.136 454.765 216.058 457.267C174.981 459.768 160.684 436.15 172.742 401.575C183.035 372.06 202.497 346.672 205.789 341.406C209.08 336.14 212.823 331.669 207.81 324.518C205.358 321.02 202.454 318.007 199.335 315.082C194.034 310.909 187.132 305.652 180.149 301.939C176.446 299.914 178.741 296.097 183.591 297.871C185.912 298.747 191.136 301.412 196.057 304.548C196.269 304.218 196.494 303.882 196.732 303.542C193.327 300.966 184.216 296.111 181.203 295.113C178.009 294.056 180.362 291.044 184.208 291.186C187.467 291.306 195.986 295.975 200.527 298.992C200.718 298.797 200.912 298.603 201.109 298.411C201.016 298.353 200.924 298.284 200.83 298.203C198.924 296.456 193.506 293.29 187.941 290.985C183.683 289.167 189.255 285.752 194.557 288.029C197.681 289.335 202.49 292.091 205.819 294.612C206.265 294.325 206.717 294.056 207.172 293.808Z" fill="#131F37"/>
<path d="M230.955 300.556C229.789 295.115 224.406 296.358 224.185 302.029C223.963 307.701 229.906 311.57 227.286 311.46C221.838 311.232 218.576 314.238 217.101 318.499C211.094 335.854 232.86 344.857 236.637 333.526C241.939 316.747 232.12 305.997 230.955 300.556Z" fill="#131F37"/>
<path d="M220.11 313.929C217.081 316.57 216.536 320.373 216.125 322.228C215.866 321.027 215.139 320.102 215.918 316.608C216.647 313.337 218.615 311.24 221.011 310.18C222.194 309.656 222.95 308.235 222.72 306.962C222.015 303.063 223.44 298.632 225.415 298.553C224.265 300.399 224.048 301.972 224.457 304.588C224.694 306.103 226.009 308.139 227.213 309.76C227.722 310.444 227.164 311.496 226.313 311.548C224.466 311.661 222.091 312.203 220.11 313.929Z" fill="#081223"/>
<path d="M208.531 186.941L180.235 189.675C179.029 189.755 178.145 190.72 178.065 191.925L175.653 224.722C175.573 225.928 176.216 227.134 177.261 227.777L197.839 239.272C199.286 240.076 200.974 240.397 202.663 240.237L230.556 236.941C232.083 236.78 233.289 235.574 233.369 234.047L236.022 201.572C236.103 200.285 235.46 198.999 234.254 198.437L212.871 187.745C211.585 187.102 210.058 186.781 208.531 186.941Z" fill="url(#paint6_linear)"/>
<path d="M236.022 201.33L233.289 234.046C233.128 235.574 232.003 236.779 230.476 236.94L202.1 240.236C201.135 240.316 200.251 239.513 200.331 238.548L202.662 208.162C202.904 205.027 205.315 202.536 208.45 202.294L234.334 199.642C235.299 199.561 236.102 200.365 236.022 201.33Z" fill="url(#paint7_linear)"/>
<path d="M198 239.272L177.341 227.696C176.216 227.053 175.573 225.928 175.733 224.642L178.065 192.247C178.145 191.121 179.351 190.398 180.396 190.961L199.367 200.848C201.617 202.054 202.984 204.465 202.823 207.038L200.412 237.986C200.251 239.191 199.045 239.835 198 239.272Z" fill="url(#paint8_linear)"/>
<path d="M201.377 201.893L180.557 191.121C179.834 190.719 180.075 189.674 180.879 189.594L208.531 186.941C210.058 186.78 211.505 187.102 212.872 187.745L233.691 198.195C234.415 198.517 234.254 199.642 233.45 199.722L204.994 202.616C203.708 202.777 202.502 202.536 201.377 201.893Z" fill="url(#paint9_linear)"/>
<path d="M337.283 343.487C339.511 321.605 369.146 331.45 364.538 343.958C355.19 369.237 355.612 377.586 368.144 394.084C386.402 418.122 277.827 405.24 303.773 386.241C317.737 376.014 335.055 365.369 337.283 343.487Z" fill="#131F37"/>
<path d="M386.951 489.918C393.982 476.163 384.713 452.395 354.827 402.365C349.08 391.727 357.111 380.62 367.993 394.07C378.525 409.737 432.506 467.536 411.704 511.774C403.145 526.324 379.554 502.94 386.951 489.918Z" fill="#131F37"/>
<path d="M373.493 497.997C380.899 479.871 380.563 455.577 379.843 447.392C378.502 432.159 377.209 424.615 367.466 405.261C357.723 385.907 325.467 378.403 305.455 396.966C294.597 407.039 290.832 416.607 287.703 424.557C285.066 431.26 282.881 436.812 277.28 440.546C265.141 448.638 246.532 465.401 242.877 474.412C279.723 502.339 328.402 511.578 373.493 497.997Z" fill="#131F37"/>
<path d="M345.386 503.513C358.354 470.993 358.004 429.612 350.996 412.56C343.096 393.338 323.608 385.181 309.075 402.039C295.812 417.422 300.255 434.896 284.925 449.343C277.283 456.545 263.185 471.503 256.927 483.829C283.483 499.478 314.529 506.457 345.386 503.513Z" fill="#0B1628"/>
<path fill-rule="evenodd" clip-rule="evenodd" d="M411.44 512.695C400.705 534.674 364.416 524.404 345.215 515.197C329.008 507.425 301.61 484.029 294.263 466.614C292.294 461.635 292.022 451.424 296.407 443.062C298.745 439.355 333.586 449.429 331.799 453.283C330.013 457.137 329.332 462.603 331.617 466.702C333.757 470.517 347.066 483.526 363.121 491.366C383.07 500.932 390.049 492.852 388.86 474.646C388.182 462.269 427.831 479.134 411.44 512.695Z" fill="url(#paint10_linear)"/>
<path fill-rule="evenodd" clip-rule="evenodd" d="M328.332 430.33C328.426 430.398 328.52 430.468 328.616 430.539C332.046 425.159 337.452 417.332 341.087 415.417C345.374 413.157 349.86 415.211 346.772 418.746C343.089 422.968 336.851 431.468 334.274 435.366C334.412 435.507 334.548 435.649 334.681 435.792C337.308 431.684 340.718 426.872 342.959 425.617C346.18 423.814 350.335 425.93 348.086 428.651C345.011 432.361 341.032 437.005 338.343 441.146C335.655 445.286 333.665 448.029 330.869 455.933C328.073 463.837 311.502 468.911 302.854 467.01C292.172 464.765 291.186 460.826 294.627 447.114C295.864 442.598 298.299 439.132 299.127 437.202C300.615 433.731 302.244 429.93 301.547 426.461C300.091 419.049 306.361 420.44 308.082 424.01C309.431 426.724 308.785 429.643 308.261 432.009C307.902 433.635 305.898 439.536 306.621 441.254C307.704 443.368 310.95 444.105 313.402 438.904C315.853 433.702 316.385 427.155 316.452 423.997C314.256 424.632 310.244 424.954 306.873 421.965C304.504 419.903 305.221 415.954 309.493 416.899C313.111 417.7 315.532 417.443 318.797 417.097C319.388 417.034 320.006 416.968 320.663 416.906C323.32 416.915 324.454 419.248 324.901 421.776C328.018 416.684 332.042 410.828 334.981 409.102C339.141 406.658 343.348 409.138 340.391 412.773C336.748 417.342 330.547 426.53 328.332 430.33Z" fill="#1B2844"/>
<path fill-rule="evenodd" clip-rule="evenodd" d="M324.537 423.584C326.675 419.756 331.992 411.756 335.107 409.926C338.221 408.097 342.389 409.082 339.584 412.348C339.302 412.74 338.736 412.842 337.953 412.984C336.677 413.216 334.827 413.552 332.704 415.41C331.065 416.846 328.761 419.398 326.978 421.373C325.035 423.525 323.71 424.992 324.537 423.584ZM330.36 429.32C332.497 425.372 337.183 418.324 341.556 415.902C344.72 413.987 348.468 415.324 346.238 418.141C345.955 418.545 345.376 418.658 344.577 418.814C343.274 419.069 341.385 419.437 339.237 421.369C338.034 422.451 336.406 424.075 334.858 425.619L334.858 425.619C331.948 428.522 329.324 431.139 330.36 429.32ZM343.146 426.557C339.467 428.731 335.633 434.864 333.902 438.288C333.06 439.866 335.239 437.568 337.656 435.018C338.941 433.662 340.293 432.236 341.295 431.283C343.084 429.581 344.688 429.221 345.796 428.972C346.475 428.82 346.967 428.709 347.199 428.357C349.036 425.898 345.802 424.845 343.146 426.557Z" fill="url(#paint11_linear)"/>
<path d="M360.558 355.774C360.558 355.774 348.146 358.945 333.516 357.176C333.516 357.176 335.936 352.131 336.846 348.641L360.954 354.348L360.558 355.774Z" fill="#081223"/>
<path d="M321.659 287.273C309.799 296.732 297.112 288.607 299.078 275.067C301.043 261.528 313.216 255.695 321.764 259.823C330.208 263.908 333.518 277.813 321.659 287.273Z" fill="#131F37"/>
<path fill-rule="evenodd" clip-rule="evenodd" d="M306.294 290.358C310.59 292.253 316.212 291.618 321.658 287.273C333.518 277.814 330.208 263.908 321.763 259.823C320.951 259.431 320.107 259.129 319.241 258.915C319.411 258.988 319.58 259.065 319.747 259.145C328.191 263.23 331.501 277.136 319.642 286.596C315.012 290.289 310.255 291.302 306.294 290.358Z" fill="#212E4D"/>
<path fill-rule="evenodd" clip-rule="evenodd" d="M308.079 290.977C309.216 288.426 310.618 286.035 312.25 283.824C316.528 278.008 322.375 273.418 329.189 270.358C330.03 275.801 328.041 282.181 321.658 287.273C316.937 291.038 312.085 292.017 308.079 290.977Z" fill="#081223"/>
<path d="M408.612 313.378C405.045 355.072 354.879 368.338 324.779 340.914C309.73 327.202 305.605 311.26 309.061 297.437C312.517 283.502 323.553 271.685 338.714 265.999C353.876 260.425 372.27 261.763 386.428 269.79C400.474 277.816 410.396 292.42 408.612 313.378Z" fill="#131F37"/>
<path d="M437.191 329.208C428.384 341.917 410.324 337.681 405.419 326.198C400.514 314.828 409.209 301.227 422.364 300.224C435.407 299.22 445.886 316.5 437.191 329.208Z" fill="#212E4D"/>
<path d="M435.413 328.995C426.606 341.704 408.546 337.467 403.641 325.985C398.736 314.614 407.431 301.014 420.586 300.01C433.629 299.007 444.108 316.286 435.413 328.995Z" fill="#131F37"/>
<path fill-rule="evenodd" clip-rule="evenodd" d="M424.322 324.444C424.284 327.399 426.555 330.77 428.823 328.876C437.267 321.742 433.314 307.785 424.097 305.989C420.108 305.209 416.245 306.192 413.231 308.263C410.71 309.996 413.53 313.099 416.532 313.686C421.31 314.616 424.385 319.478 424.322 324.444Z" fill="#081223"/>
<path fill-rule="evenodd" clip-rule="evenodd" d="M309.586 277.366C308.751 279.639 306.027 281.556 304.844 279.443C300.466 271.512 307.573 261.982 315.155 263.303C318.436 263.872 321.106 265.753 322.808 268.22C324.232 270.284 321.165 271.835 318.695 271.407C314.766 270.723 310.99 273.545 309.586 277.366Z" fill="#081223"/>
<path opacity="0.61" d="M398.457 310.197C387.608 318 367.566 302.874 363.723 286.089C361.802 277.696 364.093 272.741 368.459 270.971C372.851 269.176 379.318 270.565 385.763 274.771C392.182 279.002 398.097 285.899 401.031 292.733C403.928 299.526 403.907 306.272 398.457 310.197Z" fill="#212E4D"/>
<path opacity="0.72" d="M327.947 280.77C327.889 279.588 326.506 278.92 325.637 279.724C319.985 284.954 315.98 291.484 314.206 298.638C311.111 311.019 314.805 325.297 328.284 337.578C342.88 350.876 362.745 353.492 378.401 347.167C385.632 344.245 380.974 334.825 373.409 332.928C355.756 328.499 338.55 314.801 331.373 296.016C329.264 290.497 328.172 285.402 327.947 280.77Z" fill="#081223"/>
<path d="M367.071 317.13C364.876 317.239 363.009 315.545 362.9 313.347C362.792 311.149 364.483 309.28 366.678 309.172C368.872 309.063 370.739 310.757 370.848 312.955C370.956 315.152 369.265 317.022 367.071 317.13Z" fill="#141D42"/>
<path d="M367.37 316.449C365.358 316.548 363.647 314.996 363.548 312.982C363.448 310.968 364.998 309.255 367.01 309.155C369.021 309.056 370.732 310.608 370.832 312.622C370.931 314.636 369.381 316.35 367.37 316.449Z" fill="#586EB7"/>
<path d="M369.662 312.88C369.152 313.323 368.201 313.063 367.538 312.299C366.875 311.536 366.751 310.557 367.261 310.115C367.771 309.672 368.722 309.932 369.385 310.695C370.048 311.459 370.172 312.437 369.662 312.88Z" fill="#3B5AC3"/>
<path d="M369.221 311.749C369.036 311.91 368.674 311.798 368.414 311.498C368.154 311.198 368.093 310.824 368.278 310.663C368.464 310.502 368.825 310.615 369.086 310.915C369.346 311.215 369.407 311.588 369.221 311.749Z" fill="#9CB0CD"/>
<path d="M366.267 311.053C366.17 310.642 365.726 310.297 365.396 310.562C364.704 311.119 364.278 311.989 364.325 312.945C364.404 314.529 365.749 315.749 367.331 315.671C368.099 315.633 368.781 315.296 369.271 314.778C369.582 314.449 369.193 313.929 368.762 313.793C368.202 313.615 367.614 313.225 367.123 312.659C366.681 312.15 366.391 311.583 366.267 311.053Z" fill="#44589D"/>
<path d="M320.235 293.096C320.011 294.837 318.681 296.217 317.265 296.178C315.849 296.139 314.882 294.695 315.106 292.954C315.33 291.213 316.66 289.833 318.076 289.872C319.492 289.911 320.459 291.355 320.235 293.096Z" fill="#141D42"/>
<path d="M320.489 293.066C320.268 294.787 319.044 296.153 317.755 296.117C316.467 296.082 315.602 294.658 315.824 292.937C316.045 291.216 317.269 289.85 318.557 289.885C319.845 289.921 320.71 291.345 320.489 293.066Z" fill="#586EB7"/>
<path d="M318.58 290.989C318.198 291.32 318.137 292.168 318.442 292.882C318.748 293.596 319.306 293.906 319.688 293.574C320.07 293.243 320.132 292.395 319.826 291.681C319.52 290.967 318.963 290.657 318.58 290.989Z" fill="#3B5AC3"/>
<path d="M319.158 291.596C319.019 291.716 319.004 292.041 319.124 292.321C319.244 292.602 319.454 292.731 319.593 292.611C319.732 292.49 319.747 292.165 319.627 291.885C319.507 291.605 319.297 291.475 319.158 291.596Z" fill="#9CB0CD"/>
<path d="M318.899 294.205C319.124 294.372 319.228 294.816 318.994 295.034C318.502 295.494 317.884 295.664 317.321 295.423C316.39 295.023 315.967 293.643 316.376 292.341C316.574 291.709 316.932 291.212 317.355 290.913C317.623 290.723 317.845 291.157 317.829 291.546C317.807 292.05 317.906 292.622 318.133 293.151C318.337 293.627 318.61 293.989 318.899 294.205Z" fill="#44589D"/>
<defs>
<filter id="filter0_f" x="251.027" y="261.643" width="183.211" height="247.918" filterUnits="userSpaceOnUse" color-interpolation-filters="sRGB">
<feFlood flood-opacity="0" result="BackgroundImageFix"/>
<feBlend mode="normal" in="SourceGraphic" in2="BackgroundImageFix" result="shape"/>
<feGaussianBlur stdDeviation="4.5" result="effect1_foregroundBlur"/>
</filter>
<linearGradient id="paint0_linear" x1="258.172" y1="230.964" x2="404.572" y2="484.537" gradientUnits="userSpaceOnUse">
<stop stop-color="#CEF9C6"/>
<stop offset="1" stop-color="#42BAEB"/>
</linearGradient>
<linearGradient id="paint1_linear" x1="369.795" y1="278.855" x2="350.486" y2="494.513" gradientUnits="userSpaceOnUse">
<stop stop-color="#41B4BB"/>
<stop offset="1" stop-color="#B7C1D7" stop-opacity="0.24"/>
</linearGradient>
<linearGradient id="paint2_linear" x1="205.828" y1="201.018" x2="205.78" y2="240.253" gradientUnits="userSpaceOnUse">
<stop stop-color="#D9E1EF"/>
<stop offset="1" stop-color="#7387B4"/>
</linearGradient>
<linearGradient id="paint3_linear" x1="218.119" y1="199.613" x2="218.119" y2="240.218" gradientUnits="userSpaceOnUse">
<stop stop-color="#C3CBE2"/>
<stop offset="1" stop-color="#A0ABCF"/>
</linearGradient>
<linearGradient id="paint4_linear" x1="189.215" y1="190.742" x2="189.215" y2="239.454" gradientUnits="userSpaceOnUse">
<stop stop-color="#7085B2"/>
<stop offset="1" stop-color="#8E98C4"/>
</linearGradient>
<linearGradient id="paint5_linear" x1="207.082" y1="186.877" x2="207.082" y2="202.641" gradientUnits="userSpaceOnUse">
<stop stop-color="#D7DFF2"/>
<stop offset="1" stop-color="#FDFDFE"/>
</linearGradient>
<linearGradient id="paint6_linear" x1="205.886" y1="201.041" x2="205.838" y2="240.277" gradientUnits="userSpaceOnUse">
<stop stop-color="#D9E1EF"/>
<stop offset="1" stop-color="#7387B4"/>
</linearGradient>
<linearGradient id="paint7_linear" x1="218.177" y1="199.636" x2="218.177" y2="240.242" gradientUnits="userSpaceOnUse">
<stop stop-color="#C3CBE2"/>
<stop offset="1" stop-color="#A0ABCF"/>
</linearGradient>
<linearGradient id="paint8_linear" x1="189.272" y1="190.766" x2="189.272" y2="239.478" gradientUnits="userSpaceOnUse">
<stop stop-color="#7085B2"/>
<stop offset="1" stop-color="#8E98C4"/>
</linearGradient>
<linearGradient id="paint9_linear" x1="207.14" y1="186.9" x2="207.14" y2="202.664" gradientUnits="userSpaceOnUse">
<stop stop-color="#D7DFF2"/>
<stop offset="1" stop-color="#FDFDFE"/>
</linearGradient>
<linearGradient id="paint10_linear" x1="380.61" y1="514.051" x2="317.81" y2="458.097" gradientUnits="userSpaceOnUse">
<stop stop-color="#131F37"/>
<stop offset="1" stop-color="#1B2844"/>
</linearGradient>
<linearGradient id="paint11_linear" x1="345.015" y1="426.952" x2="337.57" y2="437.196" gradientUnits="userSpaceOnUse">
<stop stop-color="#22345A"/>
<stop offset="1" stop-color="#1E2E4F" stop-opacity="0"/>
</linearGradient>
</defs>
</svg>
