<svg width="338" height="432" viewBox="0 0 338 432" fill="none" xmlns="http://www.w3.org/2000/svg">
<path d="M290.4 9.01254C283.5 -2.98746 266.2 -2.98746 259.3 8.91254L235.8 49.1125C229.1 60.5125 236.6 75.0125 249.8 76.1125L299 80.4125C313.5 81.7125 323.4 66.1125 316.2 53.5125L290.4 9.01254Z" fill="#FF9176"/>
<path d="M301.3 110.511C301.3 54.5109 259.4 9.21094 207.7 9.21094H97.9002C46.2002 9.21094 4.2002 54.5109 4.2002 110.511V310.711C4.2002 366.711 46.1002 412.011 97.8002 412.011H207.6C259.3 412.011 301.2 366.611 301.2 310.711V110.511H301.3Z" fill="#F9D7E3"/>
<path d="M33.5 431.212C52.0015 431.212 67 416.213 67 397.712C67 379.21 52.0015 364.212 33.5 364.212C14.9985 364.212 0 379.21 0 397.712C0 416.213 14.9985 431.212 33.5 431.212Z" fill="#37E5D7"/>
<path d="M33.5 419.212C45.3741 419.212 55 409.586 55 397.712C55 385.838 45.3741 376.212 33.5 376.212C21.6259 376.212 12 385.838 12 397.712C12 409.586 21.6259 419.212 33.5 419.212Z" fill="#1DD5C6"/>
<path d="M335.589 46.5889C337.589 45.4889 338.289 42.8889 337.089 40.8889L326.789 23.0889C325.689 21.0889 323.089 20.3889 321.089 21.5889C319.089 22.6889 318.389 25.2889 319.589 27.2889L329.889 45.0889C330.989 47.0889 333.589 47.6889 335.589 46.5889Z" fill="#FFEE9C"/>
<path d="M244 244C261.898 248.286 282.5 255 301 273.5V317.999C301 369.914 258.915 411.999 207 411.999H143C143 391.076 139.218 343.49 143 314.5C147.044 283.5 158.452 269.848 185.727 250.682C195.054 244.128 226.102 239.715 244 244Z" fill="url(#paint0_linear)"/>
<path d="M189.127 274.511C196.194 248.175 174.5 236.5 162 237.5C152.802 212.725 202.828 191.857 211 212.5C207 222.5 221.819 236.688 250 245.5C280.887 255.159 176.665 320.95 189.127 274.511Z" fill="#5A58E4"/>
<path d="M222.817 165.314C228.997 223.295 170.714 255.515 126.869 226.532C83.0235 197.55 90.6673 144.123 125.103 120.283C159.538 96.4429 216.636 107.333 222.817 165.314Z" fill="#1BCAD3"/>
<path d="M214.23 137.184C217.104 141.612 219.526 140.388 223.797 138.228C227.352 136.431 232.187 133.987 239.63 133.612C257.261 132.725 272.862 156.452 260.537 174.332C254.573 182.983 245.529 186.033 237 185.064C235.538 184.897 234.076 184.6 232.664 184.314C227.803 183.326 223.55 182.462 222 187.499C221.986 187.489 221.971 187.479 221.956 187.469C213.398 230.932 164.746 251.569 126.869 226.532C107.135 213.488 97.8318 195.492 96.7063 177.471C89.4802 180.978 80.3096 178.345 74.6997 169.387C65.4048 154.543 72.5751 138.738 84.2979 135.737C91.3543 133.931 99.4723 137.156 103.987 144.163C108.887 134.818 116.074 126.533 125.103 120.283C152.351 101.419 193.788 104.3 212.961 135.051C212.974 135.034 212.987 135.017 213 135C213.125 135.25 213.249 135.49 213.372 135.72C213.663 136.201 213.949 136.689 214.23 137.184Z" fill="#5A58E4"/>
<path d="M214.23 137.184C217.104 141.612 219.526 140.388 223.797 138.228C227.352 136.431 232.187 133.987 239.63 133.612C257.261 132.725 272.862 156.452 260.537 174.332C254.573 182.983 245.529 186.033 237 185.064C235.538 184.897 234.076 184.6 232.664 184.314C227.803 183.326 223.55 182.462 222 187.499C221.986 187.489 221.971 187.479 221.956 187.469C213.398 230.932 164.746 251.569 126.869 226.532C107.135 213.488 97.8318 195.492 96.7063 177.471C89.4802 180.978 80.3096 178.345 74.6997 169.387C65.4048 154.543 72.5751 138.738 84.2979 135.737C91.3543 133.931 99.4723 137.156 103.987 144.163C108.887 134.818 116.074 126.533 125.103 120.283C152.351 101.419 193.788 104.3 212.961 135.051C212.974 135.034 212.987 135.017 213 135C213.125 135.25 213.249 135.49 213.372 135.72C213.663 136.201 213.949 136.689 214.23 137.184Z" fill="url(#paint1_radial)"/>
<path d="M238.931 172.368C237.929 173.818 238.568 176.139 240.327 175.993C244.725 175.629 249.037 173.495 252.09 169.077C259.991 157.644 250.559 142.128 238.689 143.038C233.647 143.425 229.338 145.855 226.387 149.306C225.236 150.652 226.852 152.472 228.622 152.337C237.753 151.636 245.009 163.573 238.931 172.368Z" fill="#4F49DF"/>
<ellipse rx="3.27378" ry="4.73527" transform="matrix(0.963534 -0.267587 0.203656 0.979043 108.466 193.26)" fill="#0A0E37"/>
<ellipse rx="2.95242" ry="4.37374" transform="matrix(-0.998073 0.062057 0.127546 0.991833 108.76 192.973)" fill="#F8EAFF"/>
<path d="M110.411 194.645C110.685 194.658 111.021 194.925 110.912 195.176C110.565 195.978 109.963 196.51 109.219 196.556C107.875 196.64 106.579 195.103 106.324 193.124C106.182 192.019 106.395 191.009 106.845 190.319C107 190.08 107.327 190.266 107.337 190.55C107.361 191.248 107.602 192.06 108.054 192.817C108.714 193.925 109.642 194.608 110.411 194.645Z" fill="#F9D7E3"/>
<ellipse opacity="0.49" cx="162.936" cy="192.448" rx="4.73972" ry="4.77207" transform="rotate(-13.3671 162.936 192.448)" fill="#00002B"/>
<ellipse rx="4.39908" ry="4.39297" transform="matrix(-0.972909 -0.231189 -0.231189 0.972909 163.136 192.109)" fill="#F8EAFF"/>
<path d="M165.257 193.687C165.627 193.815 165.87 194.267 165.594 194.544C164.773 195.369 163.554 195.76 162.338 195.471C160.479 195.029 159.33 193.166 159.771 191.31C160.011 190.299 160.673 189.499 161.526 189.051C161.897 188.856 162.282 189.298 162.289 189.717C162.303 190.493 162.646 191.407 163.293 192.22C163.869 192.944 164.578 193.452 165.257 193.687Z" fill="#F9D7E3"/>
<path fill-rule="evenodd" clip-rule="evenodd" d="M91.2029 315.273C111.058 327.784 119.218 371.289 119.218 412.001C119.218 412.001 91.0003 412.501 85.5003 411.01C85.5003 368.228 83.5 352 71.8916 333.768C44.5004 283.5 74.4755 304.665 91.2029 315.273Z" fill="#5A58E4"/>
<path d="M116.169 320.918C117.583 320.902 118.172 319.895 117.452 318.678L75.9676 248.132C75.248 246.915 73.4977 245.93 72.0838 245.946L38.509 246.319C37.095 246.335 36.506 247.343 37.2256 248.56L78.71 319.105C79.4297 320.323 81.1799 321.308 82.5939 321.292L116.169 320.918Z" fill="#F6E4FF"/>
<path d="M117.442 318.65L75.9574 248.104C75.2378 246.887 73.4875 245.902 72.0736 245.918L38.4987 246.291C37.7871 246.308 37.2785 246.548 37.0439 246.965L39.1457 243.231C39.3803 242.814 39.8722 242.564 40.6005 242.557L74.1753 242.184C75.5893 242.168 77.3395 243.153 78.0592 244.371L119.544 314.916C119.908 315.516 119.94 316.083 119.715 316.483L117.63 320.226C117.838 319.817 117.797 319.267 117.442 318.65Z" fill="white"/>
<path d="M65.8751 296.02C65.7153 290.991 66.6381 285.429 68.6288 280.594C70.3525 276.408 64.2615 272.654 61.8969 277.738C59.1769 283.587 55.2345 296.302 61.8975 311.533C63.5234 315.25 65.1047 316.607 66.3564 316.483C67.3272 317.823 69.6441 316.932 71.8637 314.821C71.7273 317.964 75.4945 322.974 78.4774 316.635C81.3386 310.924 84.6776 308.88 92.293 306.569C96.3496 305.337 96.0996 300.122 90.9112 300.93C86.3039 301.647 81.6354 303.239 77.8335 306.346C81.6116 302.035 87.6014 299.143 91.2307 298.687C95.7224 298.123 94.2143 291.23 88.8538 292.875C88.6777 292.929 88.4938 292.985 88.3025 293.043C84.4776 294.208 77.723 296.265 72.5843 301.043C76.9643 295.713 82.9703 292.144 89.2333 290.181C93.5531 288.827 91.069 282.633 87.3289 283.245C80.5671 284.352 71.6815 288.836 65.8751 296.02Z" fill="#5A58E4"/>
<path d="M94.4981 143.496C96.0655 144.351 94.9213 146.57 93.1917 147.013C85.6513 148.943 81.0392 159.109 87.0179 168.657C87.8952 170.058 86.9977 171.995 85.4821 171.335C83.1013 170.297 80.8729 168.398 79.1364 165.625C72.6887 155.329 77.6626 144.364 85.7945 142.283C88.6597 141.55 91.7772 142.012 94.4981 143.496Z" fill="#4F49DF"/>
<path d="M272 386C268.498 355.097 256.513 338.401 251.074 313.84C243.468 279.353 183.376 288.286 187.997 321.181C190.997 342.684 184.787 383.336 183.826 412C183.826 412 242.5 413 272 386Z" fill="#534BD6"/>
<defs>
<linearGradient id="paint0_linear" x1="221.16" y1="242.302" x2="221.16" y2="411.999" gradientUnits="userSpaceOnUse">
<stop stop-color="#5A58E4"/>
<stop offset="0.416667" stop-color="#5A58E4"/>
<stop offset="1" stop-color="#534BD6"/>
</linearGradient>
<radialGradient id="paint1_radial" cx="0" cy="0" r="1" gradientUnits="userSpaceOnUse" gradientTransform="translate(168.55 109.5) rotate(102.433) scale(65.025 98.7538)">
<stop stop-color="#8382FF"/>
<stop offset="1" stop-color="#5A58E4"/>
</radialGradient>
</defs>
</svg>
