<svg width="671" height="720" viewBox="0 0 671 720" fill="none" xmlns="http://www.w3.org/2000/svg">
<mask id="path-1-inside-1" fill="white">
<path d="M535.366 344.875C539.974 344.532 543.448 340.515 542.921 335.925C537.252 286.532 514.15 240.667 477.621 206.673C441.093 172.679 393.688 152.928 344.015 150.82C339.399 150.624 335.642 154.378 335.63 158.998C335.619 163.618 339.358 167.354 343.974 167.566C389.429 169.654 432.78 187.799 466.223 218.921C499.665 250.044 520.876 291.981 526.221 337.169C526.764 341.757 530.759 345.218 535.366 344.875Z"/>
</mask>
<path d="M535.366 344.875C539.974 344.532 543.448 340.515 542.921 335.925C537.252 286.532 514.15 240.667 477.621 206.673C441.093 172.679 393.688 152.928 344.015 150.82C339.399 150.624 335.642 154.378 335.63 158.998C335.619 163.618 339.358 167.354 343.974 167.566C389.429 169.654 432.78 187.799 466.223 218.921C499.665 250.044 520.876 291.981 526.221 337.169C526.764 341.757 530.759 345.218 535.366 344.875Z" stroke="#EDF2FD" stroke-width="36" mask="url(#path-1-inside-1)"/>
<mask id="path-2-inside-2" fill="white">
<path d="M143.13 301.079C138.712 299.728 134.018 302.212 132.845 306.681C123.049 344 123.755 383.362 134.969 420.393C146.182 457.424 167.431 490.565 196.284 516.181C199.739 519.248 205.023 518.71 207.95 515.135C210.876 511.56 210.337 506.303 206.893 503.223C180.602 479.719 161.234 449.398 150.982 415.544C140.731 381.689 140.025 345.718 148.859 311.577C150.017 307.104 147.549 302.43 143.13 301.079Z"/>
</mask>
<path d="M143.13 301.079C138.712 299.728 134.018 302.212 132.845 306.681C123.049 344 123.755 383.362 134.969 420.393C146.182 457.424 167.431 490.565 196.284 516.181C199.739 519.248 205.023 518.71 207.95 515.135C210.876 511.56 210.337 506.303 206.893 503.223C180.602 479.719 161.234 449.398 150.982 415.544C140.731 381.689 140.025 345.718 148.859 311.577C150.017 307.104 147.549 302.43 143.13 301.079Z" stroke="#EDF2FD" stroke-width="36" mask="url(#path-2-inside-2)"/>
<mask id="path-3-inside-3" fill="white">
<path d="M317.767 159.75C317.367 155.147 313.308 151.723 308.725 152.306C287.335 155.029 266.494 161.044 246.942 170.137C242.753 172.086 241.143 177.146 243.258 181.254C245.372 185.363 250.409 186.961 254.606 185.027C272.214 176.912 290.949 171.505 310.174 168.99C314.755 168.39 318.166 164.353 317.767 159.75Z"/>
</mask>
<path d="M317.767 159.75C317.367 155.147 313.308 151.723 308.725 152.306C287.335 155.029 266.494 161.044 246.942 170.137C242.753 172.086 241.143 177.146 243.258 181.254C245.372 185.363 250.409 186.961 254.606 185.027C272.214 176.912 290.949 171.505 310.174 168.99C314.755 168.39 318.166 164.353 317.767 159.75Z" stroke="#FFE485" stroke-width="36" mask="url(#path-3-inside-3)"/>
<mask id="path-4-inside-4" fill="white">
<path d="M225.302 196.497C221.492 190.833 213.786 189.301 208.357 193.439C202.819 197.66 197.496 202.155 192.407 206.906C187.417 211.565 187.635 219.419 192.581 224.125C197.526 228.83 205.323 228.602 210.349 223.983C214.153 220.488 218.101 217.154 222.184 213.991C227.58 209.81 229.113 202.162 225.302 196.497Z"/>
</mask>
<path d="M225.302 196.497C221.492 190.833 213.786 189.301 208.357 193.439C202.819 197.66 197.496 202.155 192.407 206.906C187.417 211.565 187.635 219.419 192.581 224.125C197.526 228.83 205.323 228.602 210.349 223.983C214.153 220.488 218.101 217.154 222.184 213.991C227.58 209.81 229.113 202.162 225.302 196.497Z" stroke="#61E897" stroke-width="36" mask="url(#path-4-inside-4)"/>
<mask id="path-5-inside-5" fill="white">
<path d="M168.454 247.845C164.618 245.27 159.405 246.282 156.985 250.218C151.941 258.42 147.47 266.96 143.603 275.777C141.747 280.008 143.884 284.87 148.186 286.555C152.489 288.24 157.325 286.11 159.195 281.885C162.601 274.194 166.506 266.734 170.888 259.554C173.294 255.61 172.29 250.421 168.454 247.845Z"/>
</mask>
<path d="M168.454 247.845C164.618 245.27 159.405 246.282 156.985 250.218C151.941 258.42 147.47 266.96 143.603 275.777C141.747 280.008 143.884 284.87 148.186 286.555C152.489 288.24 157.325 286.11 159.195 281.885C162.601 274.194 166.506 266.734 170.888 259.554C173.294 255.61 172.29 250.421 168.454 247.845Z" stroke="#4BE0D7" stroke-width="36" mask="url(#path-5-inside-5)"/>
<mask id="path-6-inside-6" fill="white">
<path d="M218.073 522.899C215.379 526.653 216.229 531.895 220.087 534.436C240.009 547.559 262.03 557.178 285.195 562.874C289.682 563.978 294.105 561.039 295.028 556.512C295.951 551.985 293.024 547.585 288.541 546.466C267.683 541.26 247.845 532.594 229.851 520.831C225.984 518.303 220.766 519.145 218.073 522.899Z"/>
</mask>
<path d="M218.073 522.899C215.379 526.653 216.229 531.895 220.087 534.436C240.009 547.559 262.03 557.178 285.195 562.874C289.682 563.978 294.105 561.039 295.028 556.512C295.951 551.985 293.024 547.585 288.541 546.466C267.683 541.26 247.845 532.594 229.851 520.831C225.984 518.303 220.766 519.145 218.073 522.899Z" stroke="#FFE485" stroke-width="36" mask="url(#path-6-inside-6)"/>
<mask id="path-7-inside-7" fill="white">
<path d="M465.273 502.655C468.268 505.942 473.373 506.192 476.539 503.068C493.413 486.416 507.23 466.898 517.331 445.404C527.433 423.909 533.643 400.817 535.694 377.198C536.079 372.768 532.629 368.996 528.187 368.789C523.744 368.581 519.993 372.017 519.593 376.446C517.649 397.952 511.958 418.974 502.756 438.554C493.554 458.134 481.001 475.931 465.684 491.151C462.53 494.286 462.278 499.367 465.273 502.655Z"/>
</mask>
<path d="M465.273 502.655C468.268 505.942 473.373 506.192 476.539 503.068C493.413 486.416 507.23 466.898 517.331 445.404C527.433 423.909 533.643 400.817 535.694 377.198C536.079 372.768 532.629 368.996 528.187 368.789C523.744 368.581 519.993 372.017 519.593 376.446C517.649 397.952 511.958 418.974 502.756 438.554C493.554 458.134 481.001 475.931 465.684 491.151C462.53 494.286 462.278 499.367 465.273 502.655Z" stroke="#666AF6" stroke-width="36" mask="url(#path-7-inside-7)"/>
<path d="M204.915 430.942C245.328 500.94 334.871 524.933 404.869 484.519C474.962 444.131 498.955 354.588 458.507 284.53C418.059 214.472 328.551 190.539 258.553 230.952C188.494 271.4 164.501 360.944 204.915 430.942Z" fill="url(#paint0_linear)"/>
<path d="M348.757 553.456C354.716 556.991 354.614 565.65 348.574 569.044L332.363 578.15C326.323 581.544 318.874 577.126 318.956 570.198L319.174 551.606C319.256 544.678 326.806 540.436 332.765 543.971L348.757 553.456Z" fill="#4BE0D7"/>
<g style="mix-blend-mode:multiply" opacity="0.83" filter="url(#filter0_f)">
<path d="M327.327 381.162C296.242 384.56 265.199 451.878 260.388 487.463C335.479 521.403 403.522 492.546 440.085 446.063C439.851 440.68 438.03 432.156 431.008 421.39C409.71 386.751 352.711 368.048 383.731 366.155C433.583 363.112 432.872 297.81 388.646 285.174C344.42 272.539 318.495 307.241 336.921 333.856C345.347 346.027 340.432 379.729 327.327 381.162Z" fill="url(#paint1_linear)"/>
</g>
<path fill-rule="evenodd" clip-rule="evenodd" d="M212.257 298.918C209.61 296.935 206.731 295.042 204.754 294.26C201.418 292.939 203.972 290.871 207.083 291.601C209.545 292.179 215.556 294.814 221.212 299.214C226.889 303.023 234.442 309.001 234.945 320.124C235.301 327.997 229.646 337.74 221.225 351.073C213.568 363.197 201.164 386.765 196.764 404.993C191.736 429.036 208.635 432.187 218.596 426.739C228.557 421.292 238.029 413.289 249.834 396.698C259.577 386.012 284.932 408.295 278.018 419.138C250.832 454.337 220.535 464.839 196.658 457.531C160.179 444.875 166.454 417.011 175.281 391.699C182.816 370.092 203.855 342.034 211.292 332.116L211.292 332.116L211.292 332.115L211.293 332.115C212.567 330.415 213.442 329.248 213.781 328.738C215.769 325.744 214.158 323.446 212.724 321.4L212.724 321.4C212.49 321.066 212.261 320.739 212.053 320.416C211.18 319.065 208.773 316.605 206.52 314.492C202.64 311.438 197.587 307.589 192.474 304.87C189.764 303.388 191.444 300.593 194.994 301.893C196.694 302.534 200.518 304.485 204.12 306.78C204.275 306.539 204.44 306.293 204.615 306.044C202.122 304.158 195.452 300.604 193.246 299.874C190.908 299.1 192.631 296.894 195.446 296.998C197.832 297.087 204.068 300.504 207.393 302.713C207.533 302.57 207.675 302.428 207.819 302.288C207.75 302.245 207.683 302.194 207.615 302.135C206.219 300.856 202.253 298.538 198.178 296.851C195.061 295.52 199.14 293.021 203.022 294.687C205.309 295.644 208.83 297.661 211.267 299.507C211.594 299.297 211.924 299.1 212.257 298.918Z" fill="#131F37"/>
<path d="M204.754 294.26C206.731 295.042 209.61 296.935 212.257 298.918C211.924 299.1 211.594 299.297 211.267 299.507C208.83 297.661 205.309 295.644 203.022 294.687C199.141 293.021 195.061 295.52 198.179 296.851C202.253 298.538 206.22 300.856 207.615 302.135C207.683 302.194 207.751 302.245 207.819 302.288C207.675 302.428 207.533 302.57 207.393 302.713C204.068 300.504 197.832 297.087 195.446 296.998C192.631 296.894 190.908 299.1 193.246 299.874C195.452 300.604 202.122 304.158 204.615 306.044C204.441 306.293 204.275 306.539 204.12 306.78C200.518 304.485 196.694 302.534 194.994 301.893C191.444 300.593 189.764 303.388 192.474 304.87C197.587 307.589 202.64 311.438 206.52 314.492C208.773 316.605 211.18 319.065 212.053 320.416C212.261 320.739 212.49 321.066 212.724 321.4C214.158 323.446 215.769 325.744 213.781 328.738C213.442 329.248 212.567 330.415 211.292 332.115L211.292 332.116C203.855 342.034 182.816 370.092 175.281 391.699L196.764 404.993C201.164 386.765 213.568 363.197 221.226 351.073C229.646 337.74 235.301 327.997 234.945 320.124C234.442 309.001 226.889 303.023 221.213 299.214C215.556 294.814 209.545 292.179 207.083 291.601C203.972 290.871 201.418 292.939 204.754 294.26Z" fill="#131F37"/>
<path d="M229.668 303.858C228.815 299.875 224.874 300.785 224.712 304.937C224.55 309.089 228.9 311.921 226.982 311.841C222.994 311.674 220.606 313.874 219.526 316.994C215.129 329.699 231.063 336.29 233.828 327.995C237.71 315.711 230.521 307.842 229.668 303.858Z" fill="#131F37"/>
<path d="M221.73 313.648C219.512 315.581 219.113 318.365 218.811 319.724C218.622 318.844 218.09 318.167 218.66 315.609C219.194 313.215 220.635 311.68 222.389 310.903C223.255 310.52 223.808 309.48 223.64 308.548C223.124 305.693 224.167 302.45 225.613 302.392C224.771 303.743 224.612 304.895 224.911 306.81C225.085 307.919 226.048 309.409 226.929 310.596C227.301 311.097 226.893 311.867 226.27 311.905C224.918 311.988 223.179 312.385 221.73 313.648Z" fill="#081223"/>
<path d="M241.26 407.666C239.398 409.779 237.577 411.853 236.208 413.342C240.262 421.106 248.985 435.257 256.109 441.869C257.118 441.074 259.564 439.118 259.564 439.118L241.26 407.666Z" fill="#081223"/>
<path d="M208.834 186.918L180.539 189.651C179.333 189.731 178.449 190.696 178.368 191.902L175.957 224.699C175.876 225.905 176.519 227.11 177.564 227.753L198.143 239.248C199.59 240.052 201.278 240.374 202.966 240.213L230.86 236.917C232.387 236.756 233.593 235.551 233.673 234.023L236.326 201.548C236.406 200.262 235.763 198.976 234.557 198.413L213.175 187.722C211.889 187.079 210.361 186.757 208.834 186.918Z" fill="url(#paint2_linear)"/>
<path d="M236.326 201.306L233.592 234.023C233.432 235.55 232.306 236.756 230.779 236.916L202.403 240.212C201.439 240.293 200.554 239.489 200.635 238.524L202.966 208.139C203.207 205.004 205.619 202.512 208.754 202.271L234.637 199.618C235.602 199.537 236.406 200.341 236.326 201.306Z" fill="url(#paint3_linear)"/>
<path d="M198.304 239.248L177.645 227.673C176.519 227.03 175.876 225.904 176.037 224.618L178.368 192.223C178.449 191.098 179.654 190.374 180.699 190.937L199.67 200.824C201.921 202.03 203.288 204.441 203.127 207.014L200.715 237.962C200.554 239.168 199.349 239.811 198.304 239.248Z" fill="url(#paint4_linear)"/>
<path d="M201.68 201.869L180.86 191.097C180.137 190.696 180.378 189.651 181.182 189.57L208.834 186.917C210.362 186.757 211.808 187.078 213.175 187.721L233.995 198.171C234.718 198.493 234.557 199.618 233.753 199.699L205.297 202.592C204.011 202.753 202.805 202.512 201.68 201.869Z" fill="url(#paint5_linear)"/>
<path d="M386.359 486.605C393.39 472.849 380.307 454.753 374.56 444.116C368.813 433.478 394.918 417.155 405.8 430.604C416.683 444.054 427.32 469.12 415.46 492.841C406.901 507.391 378.962 499.627 386.359 486.605Z" fill="#131F37"/>
<path d="M380.083 453.818C381.228 455.679 382.898 459.066 383.924 461.165C392.917 458.851 408.754 452.506 414.553 444.705C414.028 443.465 411.667 438.956 411.667 438.956L380.083 453.818Z" fill="#081223"/>
<mask id="mask0" mask-type="alpha" maskUnits="userSpaceOnUse" x="126" y="152" width="411" height="411">
<path d="M448.184 269.024C399.211 204.723 307.346 192.293 243.045 241.266C178.647 290.226 166.217 382.091 215.233 446.447C264.248 510.803 356.071 523.178 420.372 474.205C484.727 425.189 497.158 333.324 448.184 269.024Z" fill="url(#paint6_linear)"/>
</mask>
<g mask="url(#mask0)">
<path d="M413.734 435.654C406.981 426.249 381.541 381.225 339.233 370.586C296.924 359.948 265.961 382.392 240.183 402.776C239.499 403.453 238.415 404.062 238.656 405.831C239.46 411.619 243.72 420.3 258.35 439.351L251.953 485.312C251.953 485.312 251.632 491.662 255.972 494.717C262.403 499.218 317.326 520.183 374.779 503.795C380.808 501.785 379.763 500.74 380.406 490.933C381.049 481.126 382.936 456.282 382.936 456.282C382.936 456.282 401.837 450.846 411.804 440.477C412.367 439.673 414.859 437.261 413.734 435.654Z" fill="url(#paint7_linear)"/>
<path fill-rule="evenodd" clip-rule="evenodd" d="M382.936 456.282C382.936 456.282 401.837 450.846 411.804 440.477C411.9 440.341 412.05 440.159 412.228 439.943C413.106 438.881 414.669 436.99 413.734 435.654C412.995 434.624 412.032 433.168 410.848 431.378C401.211 416.806 376.911 380.06 339.233 370.586C296.924 359.948 265.961 382.392 240.183 402.776C240.078 402.88 239.964 402.982 239.847 403.087C239.198 403.666 238.451 404.333 238.656 405.831C239.46 411.619 243.72 420.3 258.35 439.351L251.953 485.312C251.953 485.312 251.632 491.662 255.972 494.717C262.403 499.218 317.326 520.183 374.779 503.795C379.872 502.098 379.917 501.088 380.196 494.906C380.247 493.769 380.306 492.457 380.406 490.933C381.049 481.126 382.936 456.282 382.936 456.282ZM374.166 501.812C375.629 501.323 376.431 500.961 376.919 500.619C377.305 500.347 377.492 500.093 377.642 499.639C377.833 499.058 377.945 498.197 378.032 496.679C378.062 496.165 378.089 495.557 378.12 494.874C378.173 493.709 378.236 492.322 378.336 490.798C378.658 485.884 379.291 477.212 379.843 469.776C380.119 466.057 380.375 462.644 380.562 460.161C380.655 458.92 380.731 457.911 380.784 457.212L380.866 456.129L380.866 456.126L380.866 456.125C380.867 456.125 380.867 456.125 382.936 456.282L380.866 456.125L380.976 454.686M374.166 501.812C345.838 509.883 318.093 508.762 296.596 505.045C285.848 503.186 276.688 500.683 269.832 498.373C262.89 496.033 258.505 493.957 257.163 493.017C255.582 491.903 254.76 490.119 254.355 488.395C254.157 487.552 254.075 486.785 254.042 486.23C254.026 485.955 254.022 485.737 254.023 485.594C254.023 485.551 254.023 485.515 254.024 485.487L260.525 438.777L259.996 438.088C245.332 418.992 241.43 410.718 240.711 405.548C240.682 405.335 240.703 405.233 240.71 405.202C240.717 405.174 240.728 405.146 240.762 405.098C240.805 405.037 240.879 404.954 241.032 404.812C241.092 404.756 241.149 404.705 241.22 404.642C241.244 404.621 241.269 404.599 241.296 404.574C241.37 404.508 241.459 404.428 241.551 404.339C267.34 383.952 297.536 362.241 338.727 372.598C359.317 377.776 375.918 391.359 388.28 404.977C397.91 415.585 404.81 426.014 409.053 432.429C410.205 434.17 411.161 435.615 411.923 436.688C411.885 436.812 411.799 437.01 411.632 437.285C411.427 437.619 411.167 437.962 410.889 438.304C410.835 438.37 410.771 438.449 410.701 438.533C410.543 438.724 410.36 438.946 410.217 439.133C405.516 443.981 398.644 447.768 392.789 450.372C389.867 451.671 387.248 452.654 385.362 453.311C384.42 453.639 383.662 453.886 383.144 454.049C382.885 454.13 382.686 454.191 382.553 454.231C382.487 454.251 382.437 454.266 382.405 454.275L382.37 454.285L382.363 454.288L382.362 454.288" fill="url(#paint8_linear)"/>
</g>
<path d="M338.193 338.709C338.997 327.053 364.479 329.465 362.71 341.764C359.135 360.49 360.652 372.833 362.616 380.452C363.841 385.203 367.333 388.904 371.179 391.951C375.951 395.733 380.792 400.894 378.498 404.845C375.056 410.773 357.598 410.841 334.899 404.558C307.267 396.909 291.752 387.173 290.918 381.611C290.16 376.558 298.451 373.508 312.105 372.683C315.912 372.453 319.696 371.454 322.761 369.184C337.785 358.055 337.02 348.75 338.193 338.709Z" fill="#131F37"/>
<path fill-rule="evenodd" clip-rule="evenodd" d="M415.582 492.719C404.847 514.698 379.027 514.642 359.826 505.435C343.619 497.664 318.888 478.676 311.541 461.262C309.572 456.282 308.594 451.636 309.939 448.457L337.45 452.858C333.238 459.814 332.56 460.146 334.699 463.961C336.839 467.775 347.599 476.946 363.654 484.786C383.603 494.351 389.382 490.873 388.193 472.666C387.515 460.289 431.974 459.158 415.582 492.719Z" fill="#131F37"/>
<path fill-rule="evenodd" clip-rule="evenodd" d="M332.36 441.919C332.424 441.972 332.488 442.026 332.553 442.081C335.24 438.399 339.446 433.06 342.123 431.857C345.281 430.438 348.388 432.104 346.028 434.486C343.212 437.331 338.384 443.113 336.371 445.777C336.463 445.884 336.554 445.991 336.643 446.099C338.699 443.287 341.346 440.009 343.001 439.215C345.379 438.073 348.247 439.768 346.521 441.608C344.162 444.115 339.362 450.232 338.387 451.772C338.375 451.792 338.362 451.811 338.348 451.829C338.337 451.845 338.326 451.86 338.315 451.876C337.196 453.5 336.222 455.038 335.328 456.45C331.475 462.534 329.103 466.279 323.022 464.536C315.505 462.456 308.781 452.431 309.613 449.254C309.91 448.119 310.55 446.85 311.227 445.511C312.443 443.103 313.775 440.465 313.434 437.96C312.728 432.61 317.136 433.883 318.203 436.506C319.044 438.502 318.452 440.554 317.973 442.218C317.644 443.361 317.367 444.321 317.643 444.954C318.32 446.51 319.987 447.031 321.711 445.024C323.293 443.197 323.983 439.121 324.173 436.872C322.578 437.226 319.703 437.276 317.433 434.994C315.836 433.417 316.525 430.633 319.528 431.499C322.072 432.232 323.81 432.157 326.154 432.056L326.154 432.056L326.154 432.056C326.578 432.038 327.021 432.019 327.493 432.004C329.387 432.129 330.091 433.844 330.297 435.666C332.747 432.175 335.879 428.18 338.052 427.08C341.128 425.524 344.017 427.481 341.745 429.941C338.943 433.035 334.109 439.309 332.36 441.919Z" fill="#131F37"/>
<path d="M329.956 436.939C331.652 434.305 335.802 428.839 338.105 427.674C340.407 426.509 343.336 427.398 341.189 429.602C340.614 430.302 338.722 429.492 336.146 431.477C333.57 433.462 328.704 438.793 329.956 436.939Z" fill="url(#paint9_linear)"/>
<path d="M333.851 441.291C335.552 438.571 339.209 433.755 342.436 432.224C344.778 431 347.39 432.122 345.675 434.03C345.096 434.755 343.148 433.952 340.537 436.019C337.927 438.085 332.595 443.205 333.851 441.291Z" fill="url(#paint10_linear)"/>
<path d="M335.976 447.843C337.363 445.48 340.373 441.278 343.093 439.893C345.064 438.791 347.323 439.687 345.902 441.358C345.425 441.991 343.742 441.352 341.562 443.18C339.381 445.008 334.948 449.509 335.976 447.843Z" fill="url(#paint11_linear)"/>
<path d="M360.861 355.751C360.861 355.751 348.723 358.725 334.093 356.957C334.093 356.957 335.942 353.179 336.505 350.767L360.942 354.304L360.861 355.751Z" fill="#081223"/>
<path d="M319.329 287.249C307.47 296.709 294.783 288.583 296.748 275.044C298.714 261.505 310.886 255.672 319.434 259.799C327.879 263.884 331.189 277.79 319.329 287.249Z" fill="#131F37"/>
<path fill-rule="evenodd" clip-rule="evenodd" d="M303.965 290.335C308.261 292.23 313.882 291.595 319.329 287.25C331.189 277.791 327.879 263.885 319.434 259.8C318.622 259.408 317.778 259.105 316.912 258.891C317.082 258.964 317.25 259.041 317.418 259.122C325.862 263.207 329.172 277.113 317.313 286.572C312.683 290.265 307.926 291.278 303.965 290.335Z" fill="#212E4D"/>
<path fill-rule="evenodd" clip-rule="evenodd" d="M305.75 290.954C306.887 288.402 308.289 286.011 309.921 283.801C314.199 277.985 320.046 273.395 326.86 270.335C327.701 275.778 325.712 282.158 319.329 287.249C314.608 291.015 309.756 291.994 305.75 290.954Z" fill="#081223"/>
<path d="M406.283 313.355C402.715 355.048 352.55 368.314 322.45 340.89C307.4 327.178 303.276 311.237 306.731 297.413C310.187 283.478 321.224 271.661 336.385 265.976C351.546 260.402 369.94 261.74 384.098 269.766C398.145 277.793 408.066 292.397 406.283 313.355Z" fill="#131F37"/>
<path d="M434.862 329.185C426.055 341.894 407.995 337.658 403.09 326.175C398.185 314.804 406.88 301.204 420.035 300.2C433.078 299.197 443.557 316.477 434.862 329.185Z" fill="#212E4D"/>
<path d="M433.083 328.972C424.277 341.68 406.217 337.444 401.312 325.962C396.407 314.591 405.102 300.99 418.257 299.987C431.3 298.984 441.779 316.263 433.083 328.972Z" fill="#131F37"/>
<path fill-rule="evenodd" clip-rule="evenodd" d="M421.992 324.421C421.955 327.376 424.225 330.747 426.494 328.853C434.937 321.719 430.984 307.761 421.767 305.966C417.779 305.186 413.916 306.168 410.901 308.24C408.38 309.972 411.2 313.076 414.203 313.663C418.98 314.593 422.056 319.455 421.992 324.421Z" fill="#081223"/>
<path fill-rule="evenodd" clip-rule="evenodd" d="M307.257 277.342C306.422 279.616 303.698 281.533 302.515 279.42C298.137 271.489 305.244 261.959 312.826 263.279C316.107 263.849 318.777 265.73 320.479 268.197C321.903 270.261 318.836 271.812 316.366 271.384C312.437 270.699 308.66 273.522 307.257 277.342Z" fill="#081223"/>
<path opacity="0.61" d="M396.128 310.174C385.278 317.977 365.236 302.85 361.394 286.065C359.472 277.673 361.763 272.718 366.129 270.947C370.521 269.152 376.989 270.541 383.433 274.748C389.853 278.978 395.767 285.876 398.701 292.709C401.598 299.503 401.578 306.248 396.128 310.174Z" fill="#212E4D"/>
<path opacity="0.72" d="M325.618 280.747C325.56 279.564 324.177 278.896 323.308 279.7C317.656 284.931 313.651 291.461 311.877 298.614C308.782 310.995 312.476 325.273 325.955 337.554C340.551 350.853 360.416 353.468 376.072 347.143C383.304 344.222 378.646 334.802 371.081 332.904C353.428 328.476 336.221 314.777 329.044 295.993C326.936 290.473 325.843 285.378 325.618 280.747Z" fill="#081223"/>
<path d="M364.742 317.106C362.547 317.215 360.68 315.521 360.572 313.323C360.463 311.126 362.154 309.256 364.349 309.148C366.543 309.04 368.411 310.733 368.519 312.931C368.628 315.129 366.937 316.998 364.742 317.106Z" fill="#141D42"/>
<path d="M365.041 316.425C363.03 316.525 361.318 314.972 361.219 312.958C361.119 310.944 362.669 309.231 364.681 309.132C366.692 309.032 368.403 310.584 368.503 312.599C368.602 314.613 367.052 316.326 365.041 316.425Z" fill="#586EB7"/>
<path d="M367.332 312.856C366.822 313.299 365.871 313.039 365.208 312.276C364.545 311.512 364.421 310.534 364.932 310.091C365.442 309.648 366.393 309.908 367.056 310.672C367.719 311.435 367.842 312.414 367.332 312.856Z" fill="#3B5AC3"/>
<path d="M366.892 311.725C366.707 311.886 366.345 311.774 366.085 311.474C365.825 311.174 365.764 310.801 365.949 310.64C366.135 310.479 366.496 310.591 366.756 310.891C367.017 311.191 367.077 311.564 366.892 311.725Z" fill="#9CB0CD"/>
<path d="M363.938 311.03C363.842 310.618 363.397 310.274 363.067 310.538C362.375 311.095 361.95 311.965 361.997 312.921C362.075 314.505 363.421 315.726 365.003 315.648C365.77 315.61 366.453 315.273 366.943 314.755C367.254 314.426 366.865 313.906 366.433 313.769C365.874 313.592 365.286 313.201 364.795 312.636C364.353 312.126 364.062 311.56 363.938 311.03Z" fill="#44589D"/>
<path d="M317.905 293.073C317.681 294.814 316.352 296.194 314.935 296.155C313.519 296.115 312.553 294.672 312.777 292.931C313.001 291.189 314.33 289.81 315.747 289.849C317.163 289.888 318.129 291.331 317.905 293.073Z" fill="#141D42"/>
<path d="M318.16 293.042C317.939 294.763 316.715 296.13 315.427 296.094C314.139 296.058 313.274 294.634 313.495 292.913C313.717 291.192 314.94 289.826 316.229 289.862C317.517 289.898 318.382 291.322 318.16 293.042Z" fill="#586EB7"/>
<path d="M316.252 290.965C315.87 291.297 315.808 292.144 316.114 292.858C316.419 293.572 316.977 293.882 317.359 293.551C317.741 293.219 317.803 292.372 317.497 291.658C317.191 290.944 316.634 290.634 316.252 290.965Z" fill="#3B5AC3"/>
<path d="M316.829 291.572C316.69 291.693 316.675 292.018 316.795 292.298C316.915 292.578 317.125 292.708 317.264 292.587C317.403 292.467 317.418 292.142 317.298 291.862C317.178 291.581 316.968 291.452 316.829 291.572Z" fill="#9CB0CD"/>
<path d="M316.57 294.181C316.795 294.349 316.899 294.792 316.665 295.011C316.173 295.47 315.555 295.641 314.993 295.399C314.061 294.999 313.638 293.619 314.047 292.318C314.245 291.686 314.603 291.188 315.026 290.889C315.294 290.7 315.517 291.134 315.5 291.523C315.478 292.026 315.577 292.599 315.804 293.128C316.008 293.604 316.281 293.966 316.57 294.181Z" fill="#44589D"/>
<defs>
<filter id="filter0_f" x="251.388" y="273.495" width="197.697" height="237.78" filterUnits="userSpaceOnUse" color-interpolation-filters="sRGB">
<feFlood flood-opacity="0" result="BackgroundImageFix"/>
<feBlend mode="normal" in="SourceGraphic" in2="BackgroundImageFix" result="shape"/>
<feGaussianBlur stdDeviation="4.5" result="effect1_foregroundBlur"/>
</filter>
<linearGradient id="paint0_linear" x1="258.532" y1="230.964" x2="404.933" y2="484.537" gradientUnits="userSpaceOnUse">
<stop stop-color="#CEF9C6"/>
<stop offset="1" stop-color="#42BAEB"/>
</linearGradient>
<linearGradient id="paint1_linear" x1="370.156" y1="278.855" x2="350.847" y2="494.513" gradientUnits="userSpaceOnUse">
<stop stop-color="#41B4BB"/>
<stop offset="1" stop-color="#B7C1D7" stop-opacity="0.24"/>
</linearGradient>
<linearGradient id="paint2_linear" x1="206.189" y1="201.018" x2="206.141" y2="240.253" gradientUnits="userSpaceOnUse">
<stop stop-color="#D9E1EF"/>
<stop offset="1" stop-color="#7387B4"/>
</linearGradient>
<linearGradient id="paint3_linear" x1="218.48" y1="199.612" x2="218.48" y2="240.218" gradientUnits="userSpaceOnUse">
<stop stop-color="#C3CBE2"/>
<stop offset="1" stop-color="#A0ABCF"/>
</linearGradient>
<linearGradient id="paint4_linear" x1="189.576" y1="190.742" x2="189.576" y2="239.454" gradientUnits="userSpaceOnUse">
<stop stop-color="#7085B2"/>
<stop offset="1" stop-color="#8E98C4"/>
</linearGradient>
<linearGradient id="paint5_linear" x1="207.443" y1="186.876" x2="207.443" y2="202.641" gradientUnits="userSpaceOnUse">
<stop stop-color="#D7DFF2"/>
<stop offset="1" stop-color="#FDFDFE"/>
</linearGradient>
<linearGradient id="paint6_linear" x1="420.39" y1="474.191" x2="242.98" y2="241.257" gradientUnits="userSpaceOnUse">
<stop stop-color="#CEF9C6"/>
<stop offset="1" stop-color="#42BAEB"/>
</linearGradient>
<linearGradient id="paint7_linear" x1="326.322" y1="363.13" x2="326.322" y2="505.656" gradientUnits="userSpaceOnUse">
<stop stop-color="#E787E6"/>
<stop offset="0.599951" stop-color="#E486E6"/>
</linearGradient>
<linearGradient id="paint8_linear" x1="289.252" y1="364.998" x2="302.13" y2="409.677" gradientUnits="userSpaceOnUse">
<stop stop-color="#FCA7EC"/>
<stop offset="1" stop-color="white" stop-opacity="0"/>
</linearGradient>
<linearGradient id="paint9_linear" x1="339.553" y1="428.558" x2="331.047" y2="440.01" gradientUnits="userSpaceOnUse">
<stop stop-color="#1E2E4F"/>
<stop offset="1" stop-color="#1E2E4F" stop-opacity="0"/>
</linearGradient>
<linearGradient id="paint10_linear" x1="344.034" y1="432.832" x2="335.03" y2="443.952" gradientUnits="userSpaceOnUse">
<stop stop-color="#1E2E4F"/>
<stop offset="1" stop-color="#1E2E4F" stop-opacity="0"/>
</linearGradient>
<linearGradient id="paint11_linear" x1="344.407" y1="440.259" x2="338.64" y2="447.229" gradientUnits="userSpaceOnUse">
<stop stop-color="#1E2E4F"/>
<stop offset="1" stop-color="#1E2E4F" stop-opacity="0"/>
</linearGradient>
</defs>
</svg>
