<svg width="321" height="407" viewBox="0 0 321 407" fill="none" xmlns="http://www.w3.org/2000/svg">
<path d="M33.2066 399.574C27.0066 406.274 15.8066 401.974 15.8066 392.874V358.574C15.8066 353.074 20.3066 348.574 25.8066 348.574H57.1066C65.8066 348.574 70.3066 358.874 64.5066 365.274L33.2066 399.574Z" fill="#628BF2"/>
<path d="M15.1445 104.312C15.1445 48.4117 57.0445 3.01172 108.745 3.01172H218.545C270.245 3.01172 312.145 48.4117 312.145 104.312V304.512C312.145 360.512 270.245 405.812 218.545 405.812H108.745C57.0445 405.812 15.1445 360.412 15.1445 304.512V104.312Z" fill="#93F1FF"/>
<path d="M15.1445 104.312C15.1445 48.4117 57.0445 3.01172 108.745 3.01172H218.545C270.245 3.01172 312.145 48.4117 312.145 104.312V304.512C312.145 360.512 270.245 405.812 218.545 405.812H108.745C57.0445 405.812 15.1445 360.412 15.1445 304.512V104.312Z" fill="#FFCE95"/>
<path d="M269.714 123.328C264.103 125.529 260.046 132.037 260.557 138.6C261.068 145.163 265.215 151.521 271.142 153.382C277.093 155.557 283.891 152.975 287.44 147.751C296.21 135.326 283.891 117.816 269.714 123.328Z" fill="#FF8B5C"/>
<path d="M269.109 131.109C265.304 132.24 262.481 135.451 262.73 138.641C262.978 141.831 265.674 144.882 269.633 145.726C273.603 146.721 278.212 145.392 280.674 142.812C286.752 136.67 278.723 128.276 269.109 131.109Z" fill="#FF7D48"/>
<path d="M155.72 120.638C150.109 122.839 146.052 129.347 146.563 135.91C146.771 142.491 151.221 148.831 157.148 150.693C163.075 152.554 169.897 150.285 173.446 145.061C182.216 132.636 169.594 115.144 155.72 120.638Z" fill="#FF8B5C"/>
<path d="M161.806 128.902C158.479 127.585 154.693 128.331 153.097 130.787C151.35 133.137 151.717 136.975 154.056 139.812C156.394 142.65 160.325 144.392 163.505 143.902C171.227 142.857 170.046 132.141 161.806 128.902Z" fill="#FF7D48"/>
<path d="M188.924 93.1764C206.141 83.7259 232.924 83.7789 251.313 97.1776C265.52 107.674 272.315 132.402 273.629 149.279C273.975 153.143 274.219 157.074 274.468 161.067C275.735 181.411 277.102 203.371 292.381 226.416C293.944 227.653 295.339 228.798 296.621 229.85C302.336 234.542 305.819 237.401 312.144 238.501L312.144 310.001C312.144 363.02 269.164 406.001 216.144 406.001L111.363 406.001C115.068 358.86 120.224 322.285 126.359 294.445C92.6384 301.823 60.3483 279.154 45.3627 248.501C26.7511 210.43 36.9262 163.719 44.644 146.501C47.7087 139.189 52.2672 138.5 67.644 139.501C78.6395 140.216 81.0771 148.501 79.3625 156.5C65.0033 223.51 94.816 265.934 143.198 232.269C154.619 219.247 157.802 208.348 157.352 195.73C157.241 192.592 157.056 188.894 156.856 184.881C156.137 170.458 155.215 151.967 156.728 140.83C159.436 120.901 171.706 102.627 188.924 93.1764Z" fill="url(#paint0_linear)"/>
<path d="M195.966 108.837C180.04 113.975 172.036 128.113 172.523 142.421C173.009 156.73 182.249 170.543 198.282 174.849C214.316 179.154 236.494 173.663 246.576 162.014C271.074 133.909 234.544 96.2263 195.966 108.837Z" fill="#FFECE4"/>
<path d="M197.679 108.679C182.241 113.634 174.478 127.258 174.943 141.043C175.408 154.829 184.357 168.135 199.894 172.277C215.432 176.42 236.929 171.122 246.705 159.895C270.461 132.81 235.074 96.5163 197.679 108.679Z" fill="#FF8B5C"/>
<ellipse opacity="0.49" rx="4.37974" ry="4.62612" transform="matrix(0.924304 -0.365133 0.368128 0.936044 231.962 140.346)" fill="#FF7D48"/>
<ellipse rx="4.03334" ry="4.14258" transform="matrix(-0.939053 0.327452 0.332403 0.948612 232.302 139.932)" fill="#244854"/>
<ellipse rx="2.02806" ry="1.3856" transform="matrix(-0.947026 -0.34392 -0.303158 0.945316 233.089 138.044)" fill="#2793B6"/>
<ellipse rx="0.796263" ry="0.503709" transform="matrix(-0.947026 -0.34392 -0.303158 0.945316 233.262 137.619)" fill="#9CB0CD"/>
<path d="M234.66 140.151C235.038 140.071 235.484 140.324 235.401 140.708C235.176 141.755 234.447 142.652 233.388 143.021C231.744 143.595 229.926 142.676 229.328 140.97C229.012 140.068 229.1 139.126 229.496 138.353C229.688 137.98 230.247 138.142 230.485 138.489C230.893 139.083 231.601 139.622 232.48 139.942C233.26 140.225 234.032 140.284 234.66 140.151Z" fill="#16333D"/>
<ellipse opacity="0.49" rx="4.37974" ry="4.62612" transform="matrix(0.924304 -0.365133 0.368128 0.936044 186.104 137.85)" fill="#C55A30"/>
<ellipse rx="4.03334" ry="4.14258" transform="matrix(-0.939053 0.327452 0.332403 0.948612 186.444 137.437)" fill="#244854"/>
<ellipse rx="2.02806" ry="1.3856" transform="matrix(-0.947026 -0.34392 -0.303158 0.945316 187.231 135.549)" fill="#2793B6"/>
<ellipse rx="0.796263" ry="0.503709" transform="matrix(-0.947026 -0.34392 -0.303158 0.945316 187.404 135.124)" fill="#9CB0CD"/>
<path d="M188.801 137.655C189.179 137.575 189.626 137.828 189.543 138.212C189.317 139.26 188.589 140.157 187.53 140.526C185.885 141.099 184.067 140.181 183.469 138.474C183.153 137.572 183.241 136.63 183.638 135.858C183.83 135.485 184.389 135.646 184.627 135.994C185.034 136.588 185.742 137.127 186.622 137.446C187.402 137.73 188.174 137.789 188.801 137.655Z" fill="#16333D"/>
<path d="M84.7298 140.119C84.8273 139.916 85.0492 139.803 85.2712 139.843C86.2475 140.023 87.8721 140.279 89.5611 140.46C91.2595 140.641 92.9852 140.743 94.1815 140.629C95.6349 140.49 97.7815 139.618 99.209 138.24C99.9165 137.557 100.42 136.776 100.599 135.931C100.775 135.097 100.649 134.148 100.005 133.089C99.9113 132.935 99.908 132.742 99.9964 132.585C100.085 132.427 100.251 132.33 100.432 132.33C102.747 132.327 104.678 130.971 105.554 129.148C106.42 127.345 106.263 125.069 104.349 123.155C104.247 123.053 104.194 122.912 104.204 122.768C104.214 122.624 104.285 122.491 104.4 122.404C106.687 120.665 107.673 118.354 107.51 116.278C107.347 114.212 106.041 112.303 103.572 111.342C103.414 111.281 103.299 111.144 103.264 110.979C103.229 110.814 103.28 110.642 103.4 110.523C104.898 109.024 105.465 107.606 105.285 106.287C105.102 104.951 104.134 103.561 102.207 102.173C101.291 101.514 99.7348 100.879 97.7629 100.321C95.8046 99.7669 93.4836 99.3009 91.0749 98.9582C86.2444 98.2708 81.1307 98.0888 77.931 98.6509C76.2167 98.9521 74.2344 100.053 72.0878 101.884C69.9492 103.709 67.6866 106.227 65.4122 109.297C60.8639 115.435 56.2999 123.74 52.6085 133.014C50.0333 139.484 49.6988 144.4 50.7844 147.971C51.8634 151.52 54.3673 153.813 57.6497 155.017C68.2599 158.91 79.1432 151.779 84.7298 140.119Z" fill="url(#paint1_linear)" stroke="#FF8B5C" stroke-linejoin="round"/>
<path d="M3.50612 314.574C1.40612 314.574 -0.193877 316.274 0.206123 318.274C1.00612 321.374 2.50612 324.374 4.90612 326.574C8.20612 329.774 12.5061 331.574 17.1061 331.574C21.7061 331.574 26.1061 329.874 29.3061 326.574C31.7061 324.274 33.2061 321.374 34.0061 318.274C34.5061 316.274 32.8061 314.574 30.7061 314.674C28.6061 314.674 27.1061 316.374 26.3061 318.274C25.8061 319.474 25.1061 320.574 24.1061 321.474C22.2061 323.274 19.7061 324.274 17.1061 324.374C14.5061 324.374 11.9061 323.374 10.1061 321.474C9.10612 320.574 8.40612 319.474 7.90612 318.274C7.20612 316.274 5.50612 314.574 3.50612 314.574Z" fill="#FF8B5C"/>
<path d="M276.007 4.575C282.107 -1.525 291.907 -1.525 298.007 4.575L316.307 22.875C322.407 28.975 322.407 38.775 316.307 44.875L298.207 63.075C292.107 69.175 282.307 69.175 276.207 63.075L257.907 44.775C251.807 38.675 251.807 28.875 257.907 22.775L276.007 4.575Z" fill="#37E5D7"/>
<path d="M280.906 17.4738C284.306 14.0738 289.806 14.0738 293.206 17.4738L303.406 27.6738C306.806 31.0738 306.806 36.5738 303.406 39.9738L293.306 50.0738C289.906 53.4738 284.406 53.4738 281.006 50.0738L270.806 39.8738C267.406 36.4738 267.406 30.9738 270.806 27.5738L280.906 17.4738Z" fill="#1DD4C6"/>
<defs>
<linearGradient id="paint0_linear" x1="191.032" y1="87.9821" x2="203.623" y2="310.35" gradientUnits="userSpaceOnUse">
<stop stop-color="white"/>
<stop offset="1" stop-color="#FFF2DA"/>
</linearGradient>
<linearGradient id="paint1_linear" x1="66.6458" y1="101.562" x2="79.7211" y2="129.102" gradientUnits="userSpaceOnUse">
<stop stop-color="#FF9C74"/>
<stop offset="1" stop-color="#FF8B5C"/>
</linearGradient>
</defs>
</svg>
