<svg width="326" height="416" viewBox="0 0 326 416" fill="none" xmlns="http://www.w3.org/2000/svg">
<path d="M33.2057 408.574C27.0057 415.274 15.8057 410.974 15.8057 401.874V367.574C15.8057 362.074 20.3057 357.574 25.8057 357.574H57.1057C65.8057 357.574 70.3057 367.874 64.5057 374.274L33.2057 408.574Z" fill="#628BF2"/>
<path d="M15.144 113.312C15.144 57.4117 57.044 12.0117 108.744 12.0117H218.544C270.244 12.0117 312.144 57.4117 312.144 113.312V313.512C312.144 369.512 270.244 414.812 218.544 414.812H108.744C57.044 414.812 15.144 369.412 15.144 313.512V113.312Z" fill="#93F1FF"/>
<path d="M15.144 113.312C15.144 57.4117 57.044 12.0117 108.744 12.0117H218.544C270.244 12.0117 312.144 57.4117 312.144 113.312V313.512C312.144 369.512 270.244 414.812 218.544 414.812H108.744C57.044 414.812 15.144 369.412 15.144 313.512V113.312Z" fill="#FFCE95"/>
<path d="M269.713 132.328C264.103 134.529 260.045 141.037 260.556 147.6C261.068 154.163 265.214 160.521 271.141 162.382C277.092 164.557 283.89 161.975 287.439 156.751C296.209 144.326 283.89 126.816 269.713 132.328Z" fill="#FF8B5C"/>
<path d="M269.108 140.109C265.304 141.24 262.481 144.451 262.729 147.641C262.977 150.831 265.674 153.882 269.632 154.726C273.603 155.721 278.211 154.392 280.674 151.812C286.752 145.67 278.722 137.276 269.108 140.109Z" fill="#FF7D48"/>
<path d="M155.72 129.638C150.109 131.839 146.052 138.347 146.563 144.91C146.771 151.49 151.221 157.831 157.148 159.692C163.075 161.554 169.897 159.284 173.446 154.061C182.216 141.636 169.594 124.144 155.72 129.638Z" fill="#FF8B5C"/>
<path d="M161.805 137.902C158.479 136.585 154.693 137.331 153.096 139.787C151.349 142.137 151.717 145.975 154.055 148.812C156.393 151.65 160.324 153.392 163.504 152.902C171.227 151.857 170.046 141.141 161.805 137.902Z" fill="#FF7D48"/>
<path d="M188.924 102.177C206.141 92.7261 232.924 92.7792 251.313 106.178C265.52 116.674 272.315 141.402 273.629 158.279C273.975 162.144 274.219 166.074 274.468 170.067C275.735 190.412 277.102 212.371 292.381 235.416C293.944 236.653 295.339 237.798 296.621 238.85C302.336 243.542 305.819 246.401 312.144 247.501L312.144 319.001C312.144 372.021 269.164 415.001 216.144 415.001L111.363 415.001C115.068 367.86 120.224 331.286 126.359 303.445C92.6384 310.823 60.3483 288.155 45.3627 257.501C26.7511 219.43 36.9262 172.719 44.644 155.501C47.7087 148.189 52.2672 147.501 67.644 148.501C78.6395 149.217 81.0771 157.501 79.3625 165.501C65.0033 232.51 94.816 274.934 143.198 241.269C154.619 228.247 157.802 217.348 157.352 204.73C157.241 201.593 157.056 197.894 156.856 193.881C156.137 179.458 155.215 160.967 156.728 149.831C159.436 129.901 171.706 111.627 188.924 102.177Z" fill="url(#paint0_linear)"/>
<path d="M195.966 117.837C180.04 122.975 172.036 137.113 172.522 151.422C173.009 165.731 182.248 179.544 198.282 183.849C214.316 188.154 236.494 182.663 246.575 171.014C271.074 142.909 234.544 105.227 195.966 117.837Z" fill="#FFECE4"/>
<path d="M197.679 117.679C182.241 122.634 174.477 136.258 174.943 150.044C175.408 163.829 184.356 177.135 199.894 181.278C215.432 185.42 236.929 180.122 246.705 168.896C270.461 141.81 235.073 105.517 197.679 117.679Z" fill="#FF8B5C"/>
<ellipse opacity="0.49" rx="4.37974" ry="4.62612" transform="matrix(0.924304 -0.365133 0.368128 0.936044 231.962 149.346)" fill="#FF7D48"/>
<ellipse rx="4.03334" ry="4.14258" transform="matrix(-0.939053 0.327452 0.332403 0.948612 232.302 148.932)" fill="#244854"/>
<ellipse rx="2.02806" ry="1.3856" transform="matrix(-0.947026 -0.34392 -0.303158 0.945316 233.089 147.045)" fill="#2793B6"/>
<ellipse rx="0.796263" ry="0.503709" transform="matrix(-0.947026 -0.34392 -0.303158 0.945316 233.262 146.619)" fill="#9CB0CD"/>
<path d="M234.66 149.151C235.038 149.071 235.484 149.324 235.401 149.708C235.176 150.755 234.447 151.652 233.388 152.021C231.744 152.595 229.926 151.676 229.328 149.97C229.012 149.068 229.1 148.126 229.496 147.353C229.688 146.98 230.247 147.142 230.485 147.489C230.893 148.083 231.601 148.622 232.48 148.942C233.26 149.225 234.032 149.284 234.66 149.151Z" fill="#16333D"/>
<ellipse opacity="0.49" rx="4.37974" ry="4.62612" transform="matrix(0.924304 -0.365133 0.368128 0.936044 186.104 146.851)" fill="#C55A30"/>
<ellipse rx="4.03334" ry="4.14258" transform="matrix(-0.939053 0.327452 0.332403 0.948612 186.443 146.437)" fill="#244854"/>
<ellipse rx="2.02806" ry="1.3856" transform="matrix(-0.947026 -0.34392 -0.303158 0.945316 187.231 144.55)" fill="#2793B6"/>
<ellipse rx="0.796263" ry="0.503709" transform="matrix(-0.947026 -0.34392 -0.303158 0.945316 187.404 144.124)" fill="#9CB0CD"/>
<path d="M188.801 146.656C189.179 146.576 189.626 146.829 189.543 147.212C189.317 148.26 188.589 149.157 187.53 149.526C185.885 150.1 184.067 149.181 183.469 147.475C183.153 146.572 183.241 145.63 183.638 144.858C183.83 144.485 184.389 144.647 184.627 144.994C185.034 145.588 185.742 146.127 186.622 146.447C187.402 146.73 188.174 146.789 188.801 146.656Z" fill="#16333D"/>
<path d="M84.7298 149.119C84.8273 148.916 85.0492 148.803 85.2712 148.843C86.2475 149.023 87.8721 149.279 89.5611 149.46C91.2595 149.641 92.9852 149.743 94.1815 149.629C95.6349 149.49 97.7815 148.618 99.209 147.24C99.9165 146.557 100.42 145.776 100.599 144.931C100.775 144.097 100.649 143.148 100.005 142.089C99.9113 141.935 99.908 141.742 99.9964 141.585C100.085 141.427 100.251 141.33 100.432 141.33C102.747 141.327 104.678 139.971 105.554 138.148C106.42 136.345 106.263 134.069 104.349 132.155C104.247 132.053 104.194 131.912 104.204 131.768C104.214 131.624 104.285 131.491 104.4 131.404C106.687 129.665 107.673 127.354 107.51 125.278C107.347 123.212 106.041 121.303 103.572 120.342C103.414 120.281 103.299 120.144 103.264 119.979C103.229 119.814 103.28 119.642 103.4 119.523C104.898 118.024 105.465 116.606 105.285 115.287C105.102 113.951 104.134 112.561 102.207 111.173C101.291 110.514 99.7348 109.879 97.7629 109.321C95.8046 108.767 93.4836 108.301 91.0749 107.958C86.2444 107.271 81.1307 107.089 77.931 107.651C76.2167 107.952 74.2344 109.053 72.0878 110.884C69.9492 112.709 67.6866 115.227 65.4122 118.297C60.8639 124.435 56.2999 132.74 52.6085 142.014C50.0333 148.484 49.6988 153.4 50.7844 156.971C51.8634 160.52 54.3673 162.813 57.6497 164.017C68.2599 167.91 79.1432 160.779 84.7298 149.119Z" fill="url(#paint1_linear)" stroke="#FF8B5C" stroke-linejoin="round"/>
<path d="M3.50563 323.574C1.40563 323.574 -0.194366 325.274 0.205634 327.274C1.00563 330.374 2.50563 333.374 4.90563 335.574C8.20563 338.774 12.5056 340.574 17.1056 340.574C21.7056 340.574 26.1056 338.874 29.3056 335.574C31.7056 333.274 33.2056 330.374 34.0056 327.274C34.5056 325.274 32.8056 323.574 30.7056 323.674C28.6056 323.674 27.1056 325.374 26.3056 327.274C25.8056 328.474 25.1056 329.574 24.1056 330.474C22.2056 332.274 19.7056 333.274 17.1056 333.374C14.5056 333.374 11.9056 332.374 10.1056 330.474C9.10563 329.574 8.40563 328.474 7.90563 327.274C7.20563 325.274 5.50563 323.574 3.50563 323.574Z" fill="#FF8B5C"/>
<path d="M280.819 4.575C286.919 -1.525 296.719 -1.525 302.819 4.575L321.119 22.875C327.219 28.975 327.219 38.775 321.119 44.875L303.019 63.075C296.919 69.175 287.119 69.175 281.019 63.075L262.719 44.775C256.619 38.675 256.619 28.875 262.719 22.775L280.819 4.575Z" fill="#A8F6BF"/>
<defs>
<linearGradient id="paint0_linear" x1="191.032" y1="96.9823" x2="203.623" y2="319.351" gradientUnits="userSpaceOnUse">
<stop stop-color="white"/>
<stop offset="1" stop-color="#FFF2DA"/>
</linearGradient>
<linearGradient id="paint1_linear" x1="66.6458" y1="110.562" x2="79.7211" y2="138.102" gradientUnits="userSpaceOnUse">
<stop stop-color="#FF9C74"/>
<stop offset="1" stop-color="#FF8B5C"/>
</linearGradient>
</defs>
</svg>
