<svg width="760" height="600" viewBox="0 0 760 600" fill="none" xmlns="http://www.w3.org/2000/svg">
<path d="M265.062 468.574C258.862 475.274 247.662 470.974 247.662 461.874V427.574C247.662 422.074 252.162 417.574 257.662 417.574H288.962C297.662 417.574 302.162 427.874 296.362 434.274L265.062 468.574Z" fill="#628BF2"/>
<path d="M247 173.312C247 117.412 288.9 72.0117 340.6 72.0117H450.4C502.1 72.0117 544 117.412 544 173.312V373.512C544 429.512 502.1 474.812 450.4 474.812H340.6C288.9 474.812 247 429.412 247 373.512V173.312Z" fill="#93F1FF"/>
<path d="M247 173.312C247 117.412 288.9 72.0117 340.6 72.0117H450.4C502.1 72.0117 544 117.412 544 173.312V373.512C544 429.512 502.1 474.812 450.4 474.812H340.6C288.9 474.812 247 429.412 247 373.512V173.312Z" fill="#FFCE95"/>
<path d="M501.569 192.328C495.959 194.529 491.901 201.037 492.412 207.6C492.924 214.163 497.07 220.521 502.997 222.382C508.948 224.557 515.746 221.975 519.295 216.751C528.065 204.326 515.746 186.816 501.569 192.328Z" fill="#FF8B5C"/>
<path d="M500.964 200.109C497.16 201.24 494.337 204.451 494.585 207.641C494.833 210.831 497.53 213.882 501.488 214.726C505.459 215.721 510.067 214.392 512.53 211.812C518.608 205.67 510.578 197.276 500.964 200.109Z" fill="#FF7D48"/>
<path d="M387.576 189.638C381.966 191.839 377.908 198.347 378.42 204.91C378.628 211.49 383.078 217.831 389.004 219.692C394.931 221.554 401.753 219.284 405.302 214.061C414.072 201.636 401.45 184.144 387.576 189.638Z" fill="#FF8B5C"/>
<path d="M393.661 197.902C390.335 196.585 386.549 197.331 384.952 199.787C383.205 202.137 383.573 205.975 385.911 208.812C388.249 211.65 392.18 213.392 395.36 212.902C403.083 211.857 401.902 201.141 393.661 197.902Z" fill="#FF7D48"/>
<path d="M420.78 162.177C437.998 152.726 464.781 152.779 483.169 166.178C497.376 176.674 504.171 201.402 505.486 218.279C505.831 222.144 506.076 226.074 506.325 230.067C507.591 250.412 508.959 272.371 524.237 295.416C525.801 296.653 527.195 297.798 528.477 298.85C534.192 303.542 537.675 306.401 544.001 307.501L544.001 379.001C544.001 432.021 501.02 475.001 448.001 475.001L343.219 475.001C346.924 427.86 352.08 391.286 358.216 363.445C324.495 370.823 292.205 348.155 277.219 317.501C258.608 279.43 268.783 232.719 276.5 215.501C279.565 208.189 284.124 207.501 299.5 208.501C310.496 209.217 312.934 217.501 311.219 225.501C296.86 292.51 326.672 334.934 375.054 301.269C386.475 288.247 389.659 277.348 389.209 264.73C389.097 261.593 388.913 257.894 388.712 253.881C387.993 239.458 387.071 220.967 388.584 209.831C391.292 189.901 403.562 171.627 420.78 162.177Z" fill="url(#paint0_linear)"/>
<path d="M427.823 177.837C411.897 182.975 403.893 197.113 404.379 211.422C404.866 225.731 414.105 239.544 430.139 243.849C446.173 248.154 468.351 242.663 478.432 231.014C502.931 202.909 466.401 165.227 427.823 177.837Z" fill="#FFECE4"/>
<path d="M429.536 177.679C414.098 182.634 406.334 196.258 406.8 210.044C407.265 223.829 416.213 237.135 431.751 241.278C447.289 245.42 468.786 240.122 478.562 228.896C502.318 201.81 466.93 165.517 429.536 177.679Z" fill="#FF8B5C"/>
<ellipse opacity="0.49" rx="4.37974" ry="4.62612" transform="matrix(0.924304 -0.365133 0.368128 0.936044 463.819 209.346)" fill="#FF7D48"/>
<ellipse rx="4.03334" ry="4.14258" transform="matrix(-0.939053 0.327452 0.332403 0.948612 464.159 208.932)" fill="#244854"/>
<ellipse rx="2.02806" ry="1.3856" transform="matrix(-0.947026 -0.34392 -0.303158 0.945316 464.945 207.045)" fill="#2793B6"/>
<ellipse rx="0.796263" ry="0.503709" transform="matrix(-0.947026 -0.34392 -0.303158 0.945316 465.119 206.619)" fill="#9CB0CD"/>
<path d="M466.516 209.151C466.894 209.071 467.34 209.324 467.258 209.708C467.032 210.755 466.303 211.652 465.245 212.021C463.6 212.595 461.782 211.676 461.184 209.97C460.868 209.068 460.956 208.126 461.353 207.353C461.544 206.98 462.104 207.142 462.342 207.489C462.749 208.083 463.457 208.622 464.337 208.942C465.117 209.225 465.889 209.284 466.516 209.151Z" fill="#16333D"/>
<ellipse opacity="0.49" rx="4.37974" ry="4.62612" transform="matrix(0.924304 -0.365133 0.368128 0.936044 417.96 206.851)" fill="#C55A30"/>
<ellipse rx="4.03334" ry="4.14258" transform="matrix(-0.939053 0.327452 0.332403 0.948612 418.3 206.437)" fill="#244854"/>
<ellipse rx="2.02806" ry="1.3856" transform="matrix(-0.947026 -0.34392 -0.303158 0.945316 419.087 204.55)" fill="#2793B6"/>
<ellipse rx="0.796263" ry="0.503709" transform="matrix(-0.947026 -0.34392 -0.303158 0.945316 419.26 204.124)" fill="#9CB0CD"/>
<path d="M420.658 206.656C421.036 206.576 421.482 206.829 421.399 207.212C421.174 208.26 420.445 209.157 419.386 209.526C417.742 210.1 415.924 209.181 415.326 207.475C415.01 206.572 415.098 205.63 415.494 204.858C415.686 204.485 416.245 204.647 416.483 204.994C416.891 205.588 417.599 206.127 418.479 206.447C419.258 206.73 420.03 206.789 420.658 206.656Z" fill="#16333D"/>
<path d="M316.586 209.119C316.684 208.916 316.906 208.803 317.128 208.843C318.104 209.023 319.729 209.279 321.418 209.46C323.116 209.641 324.842 209.743 326.038 209.629C327.491 209.49 329.638 208.618 331.065 207.24C331.773 206.557 332.276 205.776 332.455 204.931C332.632 204.097 332.505 203.148 331.862 202.089C331.768 201.935 331.764 201.742 331.853 201.585C331.941 201.427 332.108 201.33 332.288 201.33C334.603 201.327 336.534 199.971 337.41 198.148C338.276 196.345 338.12 194.069 336.206 192.155C336.104 192.053 336.051 191.912 336.061 191.768C336.07 191.624 336.142 191.491 336.257 191.404C338.543 189.665 339.53 187.354 339.366 185.278C339.203 183.212 337.898 181.303 335.428 180.342C335.271 180.281 335.155 180.144 335.12 179.979C335.086 179.814 335.137 179.642 335.256 179.523C336.755 178.024 337.321 176.606 337.141 175.287C336.958 173.951 335.99 172.561 334.063 171.173C333.147 170.514 331.591 169.879 329.619 169.321C327.661 168.767 325.34 168.301 322.931 167.958C318.101 167.271 312.987 167.089 309.787 167.651C308.073 167.952 306.091 169.053 303.944 170.884C301.806 172.709 299.543 175.227 297.269 178.297C292.72 184.435 288.156 192.74 284.465 202.014C281.89 208.484 281.555 213.4 282.641 216.971C283.72 220.52 286.224 222.813 289.506 224.017C300.116 227.91 311 220.779 316.586 209.119Z" fill="url(#paint1_linear)" stroke="#FF8B5C" stroke-linejoin="round"/>
<path d="M235.362 383.574C233.262 383.574 231.662 385.274 232.062 387.274C232.862 390.374 234.362 393.374 236.762 395.574C240.062 398.774 244.362 400.574 248.962 400.574C253.562 400.574 257.962 398.874 261.162 395.574C263.562 393.274 265.062 390.374 265.862 387.274C266.362 385.274 264.662 383.574 262.562 383.674C260.462 383.674 258.962 385.374 258.162 387.274C257.662 388.474 256.962 389.574 255.962 390.474C254.062 392.274 251.562 393.274 248.962 393.374C246.362 393.374 243.762 392.374 241.962 390.474C240.962 389.574 240.262 388.474 239.762 387.274C239.062 385.274 237.362 383.574 235.362 383.574Z" fill="#FF8B5C"/>
<path d="M512.675 64.575C518.775 58.475 528.575 58.475 534.675 64.575L552.975 82.875C559.075 88.975 559.075 98.775 552.975 104.875L534.875 123.075C528.775 129.175 518.975 129.175 512.875 123.075L494.575 104.775C488.475 98.675 488.475 88.875 494.575 82.775L512.675 64.575Z" fill="#A8F6BF"/>
<defs>
<linearGradient id="paint0_linear" x1="422.888" y1="156.982" x2="435.48" y2="379.351" gradientUnits="userSpaceOnUse">
<stop stop-color="white"/>
<stop offset="1" stop-color="#FFF2DA"/>
</linearGradient>
<linearGradient id="paint1_linear" x1="298.502" y1="170.562" x2="311.578" y2="198.102" gradientUnits="userSpaceOnUse">
<stop stop-color="#FF9C74"/>
<stop offset="1" stop-color="#FF8B5C"/>
</linearGradient>
</defs>
</svg>
