<svg width="672" height="720" viewBox="0 0 672 720" fill="none" xmlns="http://www.w3.org/2000/svg">
<circle cx="157.104" cy="210" r="112" fill="url(#paint0_linear)"/>
<path d="M60.1045 552C60.1045 568.569 73.5359 582 90.1045 582L475.104 582.001C491.673 582.001 505.104 568.569 505.104 552.001L505.105 407C505.105 390.432 491.673 377 475.105 377L90.1045 377C73.536 377 60.1045 390.432 60.1045 407L60.1045 552Z" fill="#666AF6"/>
<mask id="mask0" mask-type="alpha" maskUnits="userSpaceOnUse" x="60" y="377" width="278" height="206">
<path d="M60.1045 407C60.1045 390.432 73.536 377 90.1045 377L307.105 377C323.673 377 337.105 390.432 337.105 407V552C337.105 568.569 323.673 582 307.105 582H60.1045L60.1045 407Z" fill="white"/>
</mask>
<g mask="url(#mask0)">
<rect width="115.817" height="126.209" rx="14" transform="matrix(0.853164 0.521642 -0.478665 0.877997 248.926 352.714)" fill="white" fill-opacity="0.1"/>
<rect width="105.503" height="108.569" rx="16" transform="matrix(0.853164 0.521642 -0.478665 0.877997 92.0732 311.411)" fill="white" fill-opacity="0.1"/>
<rect width="132.664" height="136.519" rx="16" transform="matrix(0.853164 0.521642 -0.478665 0.877997 147.629 501.258)" fill="white" fill-opacity="0.1"/>
<rect width="75.8708" height="78.0755" rx="16" transform="matrix(0.853164 0.521642 -0.478665 0.877997 46.6685 440.286)" fill="white" fill-opacity="0.1"/>
<g filter="url(#filter0_f)">
<path d="M150.493 403.915L150.493 403.917C151.36 466.241 152.105 519.873 244.034 509.678C247.601 509.372 252.935 507.288 259.07 504.892L259.314 504.797C258.412 500.713 257.267 496.525 255.84 492.236C255.568 491.525 255.343 490.771 255.164 489.977C230.623 482.919 209.359 465.535 204.061 439.704C196.179 401.279 241.432 354.37 286.034 365.865C324.334 375.737 336.3 397.136 341.635 410.847C343 411.411 344.294 412.146 345.503 413.072C438.858 483.127 445.133 522.262 460.613 618.801L460.898 620.576C461.086 621.746 460.458 622.927 459.368 623.392C391.598 652.333 320.907 651.012 251.215 638.431C250.056 638.221 249.183 637.254 249.105 636.079C247.989 619.255 249.552 605.866 253.387 585.808C254.049 582.347 254.934 578.587 255.889 574.534C257.372 568.236 259.021 561.233 260.255 553.551C256.809 554.633 253.515 555.271 250.522 555.357C197.904 563.124 113.912 551.524 126 416.597C128.183 395.058 124.307 387.29 119.21 377.076C118.247 375.147 117.241 373.131 116.224 370.917C114.407 366.938 133.873 352.057 136.468 355.518C146.936 369.706 151.262 383.548 150.397 397.304C150.432 399.517 150.462 401.722 150.493 403.915Z" fill="#4C50E1" fill-opacity="0.6"/>
</g>
</g>
<path d="M670.104 582L590.104 582C573.536 582 560.104 568.569 560.104 552L560.104 407C560.105 390.432 573.536 377 590.105 377L670.105 377.001L670.104 582Z" fill="#95F2FF"/>
<path d="M333.104 284C333.104 300.569 346.536 314 363.104 314L670.604 314.001L670.605 106L363.105 106C346.536 106 333.105 119.432 333.105 136L333.104 284Z" fill="url(#paint1_linear)"/>
<mask id="mask1" mask-type="alpha" maskUnits="userSpaceOnUse" x="333" y="105" width="339" height="209">
<path d="M333.104 284C333.104 300.568 346.536 314 363.104 314L641.104 314C657.673 314 671.104 300.568 671.104 284L671.104 136C671.104 119.431 657.673 106 641.104 106L363.105 105.999C346.536 105.999 333.105 119.431 333.105 135.999L333.104 284Z" fill="white"/>
</mask>
<g mask="url(#mask1)">
<g opacity="0.2">
<path d="M608.456 101.901V152.225C608.456 153.33 609.351 154.225 610.456 154.225H649.514C650.619 154.225 651.514 155.121 651.514 156.225V195.829C651.514 196.933 652.41 197.829 653.514 197.829H689.847C690.952 197.829 691.847 198.724 691.847 199.829V241.068C691.847 242.172 692.743 243.068 693.847 243.068H734.906" stroke="#4ADAD1" stroke-width="20"/>
<path d="M656.419 44.126V94.4503C656.419 95.5549 657.315 96.4503 658.419 96.4503H697.478C698.583 96.4503 699.478 97.3457 699.478 98.4503V138.054C699.478 139.158 700.373 140.054 701.478 140.054H737.811C738.916 140.054 739.811 140.949 739.811 142.054V183.293C739.811 184.397 740.707 185.293 741.811 185.293H782.87" stroke="#4ADAD1" stroke-width="20"/>
<path d="M505.987 101.901V152.225C505.987 153.33 506.883 154.225 507.987 154.225H547.046C548.15 154.225 549.046 155.121 549.046 156.225V195.829C549.046 196.933 549.941 197.829 551.046 197.829H587.379C588.484 197.829 589.379 198.724 589.379 199.829V241.068C589.379 242.172 590.275 243.068 591.379 243.068H630.438C631.542 243.068 632.438 243.963 632.438 245.068V279.221C632.438 280.325 633.333 281.221 634.438 281.221H663.14C664.245 281.221 665.14 282.116 665.14 283.221V327.55" stroke="#4ADAD1" stroke-width="20"/>
<path d="M401.338 101.901V152.225C401.338 153.33 402.234 154.225 403.338 154.225H442.397C443.502 154.225 444.397 155.121 444.397 156.225V195.829C444.397 196.933 445.292 197.829 446.397 197.829H482.73C483.835 197.829 484.73 198.724 484.73 199.829V241.068C484.73 242.172 485.626 243.068 486.73 243.068H525.789C526.893 243.068 527.789 243.963 527.789 245.068V282.491C527.789 283.596 528.684 284.491 529.789 284.491H570.483C571.587 284.491 572.483 285.386 572.483 286.491V322.099" stroke="#4ADAD1" stroke-width="20"/>
<path d="M305.411 110.622V160.946C305.411 162.05 306.306 162.946 307.411 162.946H346.469C347.574 162.946 348.469 163.841 348.469 164.946V204.55C348.469 205.654 349.365 206.55 350.469 206.55H386.803C387.907 206.55 388.803 207.445 388.803 208.55V249.788C388.803 250.893 389.698 251.788 390.803 251.788H429.861C430.966 251.788 431.861 252.684 431.861 253.788V291.212C431.861 292.316 432.757 293.212 433.861 293.212H474.555C475.659 293.212 476.555 294.107 476.555 295.212V330.82" stroke="#4ADAD1" stroke-width="20"/>
</g>
</g>
<path d="M67.0327 344C63.9535 349.334 56.2555 349.334 53.1763 344L46.2481 332C43.1689 326.667 47.0179 320 53.1763 320L67.0327 320C73.1911 320 77.0401 326.667 73.9609 332L67.0327 344Z" fill="#4BE0D7"/>
<path d="M435.131 110.374C432.723 106.203 434.152 100.87 438.323 98.4614L455.022 88.8204C459.193 86.4122 464.526 87.8413 466.934 92.0124L476.575 108.711C478.984 112.882 477.554 118.216 473.383 120.624L456.685 130.265C452.514 132.673 447.18 131.244 444.772 127.073L435.131 110.374Z" fill="#666AF6"/>
<mask id="mask2" mask-type="alpha" maskUnits="userSpaceOnUse" x="65" y="106" width="417" height="476">
<rect x="65.1045" y="106" width="416.414" height="475.279" fill="white"/>
</mask>
<g mask="url(#mask2)">
<path d="M175.083 386.736C176.091 450.865 173.577 507.865 267.35 497.465C279.285 496.442 311.303 475.22 326.104 490.322C340.904 505.425 297.613 541.794 273.743 542.476C221.895 550.129 139.132 538.699 151.043 405.746C153.601 380.513 147.719 374.46 141.41 360.735C139.62 356.814 158.801 342.151 161.358 345.561C171.673 359.542 175.936 373.182 175.083 386.736Z" fill="#C3B099"/>
<path opacity="0.62" d="M323.461 485.106C318.078 502.046 287.564 524.373 268.911 524.906C233.801 530.088 184.513 526.52 160.049 482.389C180.695 541.457 237.024 546.463 275.939 540.719C299.809 540.037 343.1 503.668 328.299 488.565C326.842 487.078 325.217 485.943 323.461 485.106Z" fill="#B89E84"/>
<path d="M134.081 342.317C140.559 348.796 145.93 356.895 148.147 362.436C149.17 364.993 144.481 367.124 143.458 364.993C140.645 358.941 134.763 350.33 130.159 344.96C127.602 341.891 131.694 340.015 134.081 342.317Z" fill="#C3B099"/>
<path d="M136.297 334.816C143.117 340.868 149.425 349.308 151.812 354.678C152.921 357.151 147.635 359.282 146.612 357.151C143.799 351.269 137.405 342.659 132.461 337.629C129.818 334.901 133.825 332.685 136.297 334.816Z" fill="#C3B099"/>
<path d="M140.815 327.995C147.635 334.133 153.773 342.743 156.245 348.114C157.353 350.586 152.153 353.229 151.215 351.012C147.891 343.425 141.667 334.9 137.064 330.723C134.08 328.081 138.343 325.779 140.815 327.995Z" fill="#C3B099"/>
<path d="M299.061 475.713C291.133 481.595 273.487 491.995 248.85 494.382C247.998 494.553 246.719 495.49 247.145 496.513C249.276 501.287 255.159 517.655 253.795 546.128C253.709 546.98 254.306 549.026 255.67 549.026C262.916 548.941 292.753 543.059 325.658 523.452C357.285 503.163 331.796 456.021 299.061 475.713Z" fill="url(#paint2_linear)"/>
<path d="M255.483 527.171C255.391 525.832 256.318 524.636 257.637 524.384C268.833 522.247 289.436 516.152 311.633 502.926C319.312 497.999 323.146 491.266 324.067 484.473C333.81 494.413 335.042 513.317 318.557 523.892C289.738 541.065 263.606 546.217 257.259 546.291C256.065 546.291 255.542 544.499 255.617 543.753C255.912 537.578 255.819 532.053 255.483 527.171Z" fill="#47B7DA"/>
<g style="mix-blend-mode:multiply" opacity="0.53">
<path d="M297.19 477.022C292.672 480.432 283.518 485.532 272.455 489.348C279.895 510.186 279.579 527.124 277.698 544.585C287.623 541.469 311.704 534.45 323.724 527.289C355.351 507 329.925 457.33 297.19 477.022Z" fill="#3499C1"/>
</g>
<path d="M159.57 358.77C157.012 351.183 154.966 341.209 156.842 335.924C158.632 330.979 161.786 330.042 165.196 331.065C168.18 332.002 170.311 334.73 171.505 337.458C172.101 338.737 173.039 341.209 172.442 343.085C172.016 344.534 170.652 345.386 169.459 344.875C167.327 343.937 166.731 341.039 165.878 339.504C164.344 336.947 162.298 337.117 162.127 340.612C161.957 344.022 166.304 352.718 168.606 357.065C170.396 360.475 162.383 366.954 159.57 358.77Z" fill="#C3B099"/>
<path d="M472.279 600.455C472.279 636.187 428.062 665.153 373.518 665.153C318.974 665.153 274.757 636.187 274.757 600.455C274.757 564.724 318.974 535.758 373.518 535.758C428.062 535.758 472.279 564.724 472.279 600.455Z" fill="#C5B49E"/>
<path fill-rule="evenodd" clip-rule="evenodd" d="M361.225 659.254C409.709 659.254 449.014 630.966 449.014 596.07C449.014 568.989 425.342 545.887 392.078 536.898C437.749 542.587 472.279 568.88 472.279 600.455C472.279 636.187 428.062 665.153 373.518 665.153C325.458 665.153 285.417 642.664 276.575 612.875C286.799 639.613 320.825 659.254 361.225 659.254Z" fill="#BCA58C"/>
<path d="M303.132 319.456C293.822 317.751 286.066 330.632 288.331 349.662C295.568 359.721 306.474 358.497 312.005 355.854C313.019 343.578 314.471 321.502 303.132 319.456Z" fill="url(#paint3_linear)"/>
<path d="M299.517 324.84C293.073 323.3 288.15 334.532 289.802 350.332C294.542 353.959 303.037 357.413 306.895 355.467C307.509 345.9 307.408 326.705 299.517 324.84Z" fill="#F8AD70"/>
<path d="M274.506 339.357C266.351 333.09 256.912 338.527 262.726 347.211C268.541 355.895 291.725 358.553 304.938 359.746C314.827 360.599 314.83 355.215 308.261 354.158C292.629 351.666 282.661 345.625 274.506 339.357Z" fill="url(#paint4_linear)"/>
<path fill-rule="evenodd" clip-rule="evenodd" d="M261.216 344.081C259.285 337.336 267.385 333.884 274.506 339.357C282.661 345.625 292.629 351.666 308.261 354.158C312.618 354.859 314.084 357.463 311.692 358.889C311.848 357.613 310.257 356.201 307.253 355.717C292.05 353.294 282.355 347.418 274.424 341.322C268.178 336.522 261.158 338.78 261.216 344.081Z" fill="#EF826C"/>
<g style="mix-blend-mode:multiply" opacity="0.5">
<path fill-rule="evenodd" clip-rule="evenodd" d="M464.361 625.879C469.457 618.075 472.279 609.481 472.279 600.455C472.279 564.724 428.062 535.758 373.518 535.758C318.974 535.758 274.757 564.724 274.757 600.455C274.757 612.171 279.511 623.16 287.824 632.638C346.524 643.665 406.042 645.384 464.361 625.879Z" fill="#BCA58C"/>
</g>
<path d="M298.758 429.022C284.482 441.101 274.16 467.676 278.983 480.279C292.424 520.679 280.493 551.942 276.566 572.481C272.787 592.247 271.247 605.439 272.347 622.017C272.424 623.175 273.284 624.128 274.426 624.334C343.099 636.731 412.754 638.033 479.533 609.516C480.607 609.057 481.225 607.893 481.041 606.741C465.579 510.335 459.884 471.724 367.334 402.274C349.492 388.61 313.034 416.942 298.758 429.022Z" fill="url(#paint5_linear)"/>
<path opacity="0.3" d="M363.276 405.528C368.609 447.372 346.269 466.161 327.381 476.703C308.493 487.245 335.899 534.893 364.89 574.426C374.072 590.561 297.369 517.306 286.85 554.568C274.741 597.119 275.534 608.904 274.935 620.215C274.888 621.09 275.496 621.865 276.361 622.007C338.059 632.131 411.323 632.841 476.173 606.744C476.866 606.465 477.298 605.809 477.224 605.065C476.225 594.978 468.431 524.069 443.297 484.599C416.196 442.039 374.477 411.676 363.276 405.528Z" fill="url(#paint6_linear)"/>
<g style="mix-blend-mode:multiply" opacity="0.5">
<path fill-rule="evenodd" clip-rule="evenodd" d="M279.061 480.515C306.716 487.689 338.278 484.277 358.566 468.294C381.787 450.592 379.508 419.973 376.819 409.879C376.765 409.739 376.71 409.598 376.654 409.455C376.642 409.425 376.63 409.395 376.618 409.365C373.624 407.036 370.531 404.673 367.334 402.274C349.492 388.611 313.034 416.943 298.758 429.022C284.482 441.102 274.16 467.676 278.983 480.28C279.009 480.358 279.035 480.436 279.061 480.515Z" fill="#3499C1"/>
</g>
<g style="mix-blend-mode:multiply" opacity="0.5">
<path fill-rule="evenodd" clip-rule="evenodd" d="M357 466.272L357.016 466.26C367.984 457.899 372.974 446.469 374.892 435.782C376.767 425.33 375.665 415.763 374.446 410.916C371.652 408.748 368.771 406.55 365.799 404.32L365.789 404.312L365.779 404.305C362.053 401.451 357.212 400.659 351.479 401.52C345.727 402.383 339.339 404.881 332.896 408.26C320.023 415.01 307.512 424.965 300.41 430.974C293.686 436.664 287.748 445.926 284.094 455.377C282.274 460.081 281.054 464.749 280.571 468.945C280.143 472.664 280.31 475.872 281.04 478.377C307.849 484.964 337.829 481.375 356.984 466.285L357 466.272ZM279.061 480.515L278.983 480.28C274.16 467.676 284.482 441.102 298.758 429.022C313.034 416.943 349.492 388.611 367.334 402.274C370.531 404.673 373.624 407.036 376.618 409.365L376.819 409.879C379.508 419.973 381.787 450.592 358.566 468.294C338.278 484.277 306.716 487.689 279.061 480.515Z" fill="url(#paint7_linear)"/>
</g>
<path d="M349.272 465.48C313.452 497.433 238.523 480.002 227.962 428.516C220.195 390.654 264.786 344.431 308.735 355.758C352.684 367.085 361.444 393.817 365.673 406.05C368.089 416.32 370.137 447.471 349.272 465.48Z" fill="url(#paint8_radial)"/>
<path fill-rule="evenodd" clip-rule="evenodd" d="M347.585 463.558L347.601 463.544C357.427 455.063 361.941 443.417 363.677 432.463C365.4 421.585 364.34 411.643 363.212 406.76C363.182 406.673 363.152 406.585 363.121 406.497C361.012 400.389 357.859 391.258 350.153 382.224C342.312 373.03 329.607 363.778 308.097 358.234C287.194 352.847 265.929 361.107 250.716 375.546C235.462 390.023 226.815 410.201 230.467 428.002C235.499 452.533 255.922 469.197 279.828 475.823C303.767 482.459 330.479 478.817 347.57 463.572L347.585 463.558ZM365.673 406.05C365.624 405.908 365.574 405.765 365.524 405.619C361.236 393.2 352.175 366.954 308.735 355.758C264.786 344.431 220.195 390.654 227.962 428.516C238.523 480.002 313.452 497.433 349.272 465.48C370.137 447.471 368.089 416.32 365.673 406.05Z" fill="url(#paint9_linear)"/>
<path opacity="0.48" d="M325.505 435.051C296.794 459.871 244.658 451.14 234.585 420.042C224.512 388.944 260.49 357.065 298.716 363.832C336.942 370.6 354.215 410.23 325.505 435.051Z" fill="#D4C3AC"/>
<path opacity="0.44" d="M232.647 429.678C232.441 428.765 233.678 428.291 234.218 429.054C254.997 458.403 307.912 465.131 331.381 435.546C342.354 421.774 363.965 412.46 363.836 425.37C363.704 438.66 358.39 451.81 346.009 462.497C311.964 492.865 243.041 475.688 232.647 429.678Z" fill="#BCA087"/>
<path fill-rule="evenodd" clip-rule="evenodd" d="M312.56 441.381C312.624 441.385 312.624 441.385 312.56 441.381C299.263 447.192 282.4 448.469 269.973 444.798C260.887 442.131 253.893 437.95 248.87 433.107L248.934 433.111C232.603 417.21 237.313 393.059 258.127 382.355C270.684 376.066 286.498 377.088 299.415 380.145C318.282 384.663 335.091 396.148 333.799 416.146C333.047 427.787 324.266 436.328 312.56 441.381Z" fill="#AF9F89"/>
<path fill-rule="evenodd" clip-rule="evenodd" d="M311.289 438.437C311.289 438.437 311.353 438.442 311.289 438.437C298.208 444.027 281.681 445.293 269.384 441.741C260.431 439.112 253.558 435.132 248.594 430.427L248.658 430.431C232.633 414.971 237.164 391.575 257.618 381.229C269.963 375.097 285.504 376.171 298.29 379.119C316.894 383.503 333.388 394.68 332.137 414.045C331.413 425.242 322.784 433.523 311.289 438.437Z" fill="url(#paint10_radial)"/>
<path fill-rule="evenodd" clip-rule="evenodd" d="M265.122 378.434C262.529 379.12 260.014 380.039 257.618 381.229C240.985 389.642 234.881 406.685 241.799 421.073C261.255 413.374 267.658 396.283 265.122 378.434Z" fill="url(#paint11_linear)"/>
<path fill-rule="evenodd" clip-rule="evenodd" d="M302.49 441.428C305.53 440.632 308.489 439.634 311.289 438.437C322.784 433.523 331.413 425.241 332.137 414.045C333.376 394.856 317.193 383.707 298.798 379.24C272.907 395.046 278.941 425.61 302.49 441.428Z" fill="url(#paint12_linear)"/>
<path d="M272.477 413.645C293.072 410.293 308.103 400.086 307.628 392.503C307.152 384.92 292.326 377.014 272.731 379.826C253.137 382.639 242.756 393.901 243.096 401.928C243.542 409.963 251.892 416.846 272.477 413.645Z" fill="#FFF9E8" fill-opacity="0.3"/>
<path opacity="0.2" d="M246.317 422.503C245.762 422.125 245.206 422.774 245.555 423.345C249.64 429.841 259.277 438.065 275.929 440.305C299.407 443.466 318.055 436.726 326.291 424.794C338.324 407.394 323.027 394.651 318.744 402.448C307.069 425.948 268.949 436.653 246.317 422.503Z" fill="#66584F"/>
<path d="M245.317 397.431C245.008 400.796 247.456 403.973 250.816 404.373C254.181 404.682 257.358 402.234 257.759 398.875C258.067 395.51 255.619 392.332 252.26 391.932C248.906 391.441 245.723 393.98 245.317 397.431Z" fill="#8B7669"/>
<path d="M256.938 397.449C256.829 400.553 254.283 403.133 251.082 403.109C247.979 403 245.398 400.455 245.422 397.254C245.531 394.15 248.077 391.57 251.277 391.594C254.381 391.703 256.955 394.339 256.938 397.449Z" fill="#2B3760"/>
<path d="M251.51 393.622C252.186 394.489 251.636 395.917 250.29 396.928C249.035 397.945 247.474 398.027 246.798 397.16C246.122 396.293 246.672 394.865 248.018 393.854C249.37 392.752 250.834 392.755 251.51 393.622Z" fill="#364D98"/>
<path d="M249.738 394.148C249.902 394.433 249.685 394.968 249.2 395.394C248.721 395.729 248.168 395.785 247.907 395.585C247.748 395.209 247.96 394.765 248.445 394.339C248.838 393.907 249.573 393.863 249.738 394.148Z" fill="#C3D8F8"/>
<path d="M248.629 398.559C247.883 398.785 247.101 399.558 247.601 400.323C248.453 401.293 249.602 401.916 250.975 401.913C253.441 401.981 255.586 399.924 255.563 397.452C255.542 396.353 255.328 395.424 254.64 394.739C254.141 393.975 252.994 394.724 252.577 395.52C252.257 396.232 251.566 397.011 250.802 397.51C250.214 398.113 249.455 398.521 248.629 398.559Z" fill="#1B244A"/>
<path d="M294.72 404.309C294.411 407.674 296.859 410.852 300.218 411.252C303.583 411.561 306.761 409.113 307.161 405.753C307.47 402.388 305.022 399.211 301.662 398.81C298.309 398.319 295.125 400.859 294.72 404.309Z" fill="#8B7669"/>
<path d="M306.339 404.328C306.23 407.432 303.685 410.012 300.484 409.988C297.38 409.879 294.8 407.334 294.824 404.133C294.933 401.029 297.478 398.449 300.679 398.472C303.783 398.582 306.357 401.218 306.339 404.328Z" fill="#2B3760"/>
<path d="M300.912 400.501C301.588 401.368 301.039 402.796 299.692 403.807C298.437 404.824 296.877 404.906 296.201 404.039C295.525 403.172 296.074 401.744 297.421 400.733C298.773 399.631 300.237 399.634 300.912 400.501Z" fill="#364D98"/>
<path d="M299.049 401.02C299.213 401.305 298.996 401.84 298.511 402.266C298.032 402.601 297.479 402.657 297.218 402.457C297.059 402.08 297.271 401.637 297.756 401.211C298.241 400.784 298.884 400.734 299.049 401.02Z" fill="#C3D8F8"/>
<path d="M298.032 405.438C297.285 405.664 296.503 406.437 297.003 407.201C297.855 408.171 299.004 408.794 300.377 408.791C302.843 408.859 304.989 406.802 304.965 404.33C304.945 403.231 304.73 402.302 304.043 401.617C303.543 400.853 302.397 401.602 301.979 402.399C301.659 403.11 300.968 403.889 300.204 404.389C299.616 404.991 298.858 405.4 298.032 405.438Z" fill="#1B244A"/>
<g style="mix-blend-mode:multiply" opacity="0.5">
<path fill-rule="evenodd" clip-rule="evenodd" d="M272.014 613.854C275.811 605.429 279.861 600.569 284.411 597.957C284.837 597.701 285.178 598.128 284.837 598.469C282.28 601.111 278.359 605.203 274.522 614.495C274.011 615.689 273.414 617.138 274.181 618.161C274.608 618.757 275.204 619.098 275.886 619.354C278.018 619.951 279.296 617.394 280.234 615.348C282.621 610.147 285.605 605.97 290.719 603.328C291.146 603.072 291.487 603.669 291.06 604.01C287.139 607.249 284.07 611.256 281.854 617.735C281.427 618.843 281.086 620.207 281.854 621.144C282.45 621.826 283.473 622.253 284.411 622.167C285.733 622.012 286.345 620.581 286.895 619.295C286.949 619.171 287.001 619.048 287.054 618.928C290.719 611.17 297.032 609.826 303.596 609.485C313.985 608.994 328.043 611.242 343.317 613.684C375.611 618.848 413.339 624.881 433.308 607.728C457.389 585.442 447.034 535.586 430.413 501.084C413.792 466.582 375.296 466.487 394.411 515.376C400.458 530.842 405.047 544.359 407.918 558.983C410.789 573.608 404.574 585.961 377.596 588.636C365.216 589.864 351.642 587.006 337.796 584.09C321.469 580.652 304.762 577.134 289.185 580.14C283.458 581.254 278.36 583.781 274.006 587.229C273.44 591.003 272.99 594.583 272.661 598.081C274.193 596.558 275.689 595.328 276.995 594.377C277.421 594.036 277.762 594.632 277.421 594.973C275.38 597.048 273.812 598.82 272.433 600.749C272.095 605.131 271.952 609.425 272.014 613.854Z" fill="#3499C1"/>
</g>
<path d="M428.157 495.75C411.536 461.248 373.04 461.153 392.155 510.042C398.202 525.508 402.791 539.025 405.662 553.649C408.533 568.274 402.317 580.627 375.34 583.302C348.362 585.978 316.147 572.681 287.359 578.236C272.014 581.22 261.188 594.348 257.096 608.158C255.988 611.568 260.932 612.847 262.04 610.119C265.109 601.168 271.076 595.456 275.168 592.472C275.595 592.131 275.936 592.728 275.595 593.069C270.395 598.355 268.263 601.679 264.512 610.63C264.257 611.227 264.001 611.824 264.171 612.42C264.512 613.955 266.303 615.148 268.008 614.637C269.031 614.296 269.627 613.273 270.054 612.25C273.89 603.64 277.982 598.696 282.585 596.053C283.011 595.797 283.352 596.223 283.011 596.564C280.454 599.207 276.532 603.299 272.696 612.591C272.185 613.784 271.588 615.234 272.355 616.257C272.781 616.853 273.378 617.194 274.06 617.45C276.191 618.047 277.47 615.489 278.408 613.443C280.795 608.243 283.778 604.066 288.893 601.423C289.32 601.168 289.661 601.765 289.234 602.106C285.313 605.345 282.244 609.352 280.027 615.83C279.601 616.939 279.26 618.303 280.027 619.24C280.624 619.922 281.647 620.349 282.585 620.263C284.034 620.093 284.631 618.388 285.228 617.024C288.893 609.266 294.775 604.492 301.339 604.151C333.695 602.622 401.638 627.659 431.052 602.394C455.133 580.108 444.778 530.252 428.157 495.75Z" fill="#C5B49E"/>
<path d="M395.404 471.555C399.306 474.923 403.066 479.325 406.312 484.727C425.682 516.96 440.312 564.77 418.781 588.737C400.806 607.313 363.373 604.824 331.33 602.694C324.817 602.027 323.791 603.257 340.341 605.874C372.052 610.944 409.097 616.868 428.706 600.025C452.351 578.142 442.184 529.188 425.863 495.309C417.814 478.601 404.54 470.11 395.404 471.555Z" fill="#BCA58C"/>
<g style="mix-blend-mode:multiply" opacity="0.5">
<path fill-rule="evenodd" clip-rule="evenodd" d="M441.426 532.847C438.315 519.841 433.568 506.982 428.157 495.75C411.536 461.248 373.04 461.153 392.155 510.042C396.559 521.305 400.189 531.535 402.946 541.911C416.074 541.114 431.382 537.314 441.426 532.847Z" fill="#AF9A7E"/>
</g>
<path d="M441.406 525.969C442.253 525.416 442.63 524.395 442.401 523.41C439.469 510.793 432.881 488.641 422.337 474.401C411.326 459.532 397.042 462.846 387.944 467.591C378.846 472.335 377.047 484.39 380.112 494.946C383.068 505.129 388.559 520.91 394.038 537.602C394.395 538.689 395.429 539.413 396.571 539.336C412.209 538.279 431.996 532.113 441.406 525.969Z" fill="url(#paint13_linear)"/>
<path opacity="0.5" fill-rule="evenodd" clip-rule="evenodd" d="M177.625 346.628C177.409 347.104 177.184 347.524 176.96 347.859C175.426 350.161 173.636 350.843 172.101 349.99C172.03 349.953 171.962 349.913 171.896 349.871C172.041 349.651 172.195 349.434 172.359 349.222C174.393 346.586 176.403 346.057 177.625 346.628Z" fill="#3B5D6B"/>
<path d="M165.878 366.869C170.823 361.924 169.459 354.849 173.21 349.99C176.961 345.131 180.626 347.432 179.433 350.586C175.426 361.583 176.193 369.938 175.17 386.22C174.574 395.341 163.236 392.443 161.105 386.987C157.865 378.889 159.996 372.666 165.878 366.869Z" fill="#C3B099"/>
<path d="M165.121 367.692C161.127 371.774 159.713 375.873 159.52 379.662C158.889 375.708 159.356 370.931 162.706 366.951C164.763 364.506 168.086 363.299 169.761 359.346C169.267 361.158 168.855 363.876 165.121 367.692Z" fill="#A48C74"/>
<path d="M143.918 355.651C142.71 353.207 135.408 343.461 133.431 342.528C131.454 340.991 129.34 342.089 131.427 343.901C133.513 345.712 139.745 354.388 141.832 357.38C143.453 359.705 144.668 357.167 143.918 355.651Z" fill="url(#paint14_linear)"/>
<path d="M147.07 347.661C145.705 345.302 137.782 336.053 135.749 335.251C133.675 333.846 131.638 335.08 133.839 336.751C136.039 338.423 142.824 346.674 145.101 349.523C146.87 351.738 147.917 349.126 147.07 347.661Z" fill="url(#paint15_linear)"/>
<path d="M154.708 346.673C152.676 342.83 146.636 332.562 140.086 328.277C138.013 326.872 135.976 328.105 138.176 329.777C140.376 331.449 147.515 338.108 151.962 348.759C153.054 351.375 155.498 348.169 154.708 346.673Z" fill="url(#paint16_linear)"/>
<path d="M158.276 338.795C159.319 332.645 165.347 332.224 167.775 338.575C170.203 344.926 172.735 343.915 172.003 340.167C170.438 332.151 158.551 325.754 156.657 339.563C156.272 342.372 157.837 341.387 158.276 338.795Z" fill="url(#paint17_linear)"/>
<path d="M169.835 361.718C171.251 357.01 171.482 351.533 175.407 348.596C178.015 346.564 180.422 348.578 177.494 350.353C173.87 352.549 170.577 358.424 171.07 363.146C171.515 367.394 174.364 373.962 170.466 379.288C166.568 384.614 161.426 383.28 161.077 379.782C160.748 376.488 161.798 373.075 163.987 370.201C166.265 367.209 168.736 365.369 169.835 361.718Z" fill="url(#paint18_linear)"/>
<path d="M144.044 360.522C146.217 364.713 148.781 369.698 150.564 374.456C154.91 366.356 168.92 362.094 167.114 358.029C165.554 354.517 163.656 350.529 162.266 347.267C160.092 342.169 143.033 358.572 144.044 360.522Z" fill="url(#paint19_linear)"/>
<path d="M177.007 337.23C178.862 338.251 177.1 345.116 175.43 347.621C173.76 350.126 171.812 350.868 170.142 349.94C168.379 349.012 167.915 346.693 168.936 344.188C170.049 341.405 175.151 336.21 177.007 337.23Z" fill="#95BBCD"/>
<path d="M156.041 177.526V106H153.722V177.526H156.041Z" fill="url(#paint20_linear)"/>
<path d="M161.05 189.308H148.619C147.227 189.308 146.207 188.194 146.207 186.896V185.69C146.207 180.866 150.103 176.969 154.927 176.969C159.751 176.969 163.648 180.958 163.648 185.69V186.896C163.555 188.194 162.535 189.308 161.05 189.308Z" fill="#FF984C"/>
<path opacity="0.2" d="M157.995 184.318H152.104C151.449 184.318 150.958 183.772 150.958 183.171V182.57C150.958 180.33 152.813 178.473 155.049 178.473C157.286 178.473 159.14 180.33 159.14 182.57V183.171C159.14 183.772 158.649 184.318 157.995 184.318Z" fill="#FFCA62"/>
<path d="M154.834 247.382C190.551 247.382 219.495 243.3 219.495 238.29C219.495 233.281 190.551 229.199 154.834 229.199C119.118 229.199 90.1738 233.281 90.1738 238.29C90.1738 243.3 119.118 247.382 154.834 247.382Z" fill="#FF984C"/>
<path fill-rule="evenodd" clip-rule="evenodd" d="M217.732 239.311C218.567 238.755 218.66 238.383 218.66 238.198C218.66 238.012 218.567 237.641 217.732 237.085C216.99 236.528 215.784 236.064 214.207 235.508C211.053 234.487 206.322 233.467 200.477 232.632C188.788 230.962 172.646 229.941 154.834 229.941C137.023 229.941 120.881 230.962 109.192 232.632C103.347 233.467 98.7087 234.394 95.4617 235.508C93.8846 236.064 92.6786 236.621 91.9365 237.085C91.1015 237.641 91.0088 238.012 91.0088 238.198C91.0088 238.383 91.1015 238.755 91.9365 239.311C92.6786 239.868 93.8846 240.332 95.4617 240.888C98.6159 241.909 103.347 242.929 109.192 243.764C120.881 245.434 137.023 246.454 154.834 246.454C172.646 246.454 188.788 245.434 200.477 243.764C206.322 242.929 210.96 242.001 214.207 240.888C215.784 240.332 216.99 239.868 217.732 239.311ZM219.588 238.198C219.588 243.207 190.644 247.289 154.927 247.289C119.118 247.382 90.1738 243.3 90.1738 238.198C90.1738 233.188 119.118 229.106 154.834 229.106C190.644 229.106 219.588 233.188 219.588 238.198Z" fill="url(#paint21_radial)"/>
<path d="M154.834 245.155C188.046 245.155 215.042 242.187 215.042 238.569C215.042 234.951 188.139 231.982 154.834 231.982C121.53 231.982 94.7192 234.951 94.7192 238.569C94.7192 242.279 121.623 245.155 154.834 245.155Z" fill="#FFEEC4"/>
<path d="M173.296 232.353C167.544 232.167 161.329 232.075 154.928 232.075C148.526 232.075 142.311 232.167 136.559 232.353C136.652 236.992 138.507 241.073 141.476 244.228C144.816 247.846 149.64 250.165 154.928 250.165C160.308 250.165 165.039 247.846 168.379 244.228C171.348 241.073 173.11 236.899 173.296 232.353Z" fill="url(#paint22_linear)"/>
<path fill-rule="evenodd" clip-rule="evenodd" d="M142.404 243.3C145.465 246.64 149.918 248.773 154.835 248.773C159.752 248.773 164.205 246.64 167.266 243.3C169.678 240.702 171.255 237.455 171.719 233.745C166.338 233.559 160.679 233.466 154.835 233.466C148.99 233.466 143.331 233.559 137.951 233.745C138.414 237.363 139.992 240.702 142.404 243.3ZM136.559 233.745C137.023 237.826 138.693 241.444 141.383 244.228C144.723 247.846 149.547 250.165 154.835 250.165C160.215 250.165 164.947 247.846 168.286 244.228C170.977 241.444 172.647 237.826 173.11 233.745C173.11 233.373 173.203 232.91 173.203 232.539C173.203 232.446 173.203 232.446 173.203 232.353C167.451 232.167 161.236 232.075 154.835 232.075C148.434 232.075 142.218 232.167 136.466 232.353C136.466 232.446 136.466 232.446 136.466 232.539C136.559 232.91 136.559 233.281 136.559 233.745Z" fill="url(#paint23_radial)"/>
<path fill-rule="evenodd" clip-rule="evenodd" d="M142.867 237.456C143.98 236.806 145.372 237.085 146.114 238.198C147.041 239.682 149.175 241.352 151.123 242.094C152.329 242.558 152.979 243.857 152.515 245.063C152.051 246.269 150.752 246.918 149.546 246.455C146.763 245.434 143.795 243.115 142.217 240.703C141.475 239.59 141.754 238.105 142.867 237.456Z" fill="url(#paint24_linear)"/>
<path fill-rule="evenodd" clip-rule="evenodd" d="M153.907 186.71C189.623 186.06 219.031 209.16 219.588 238.197C219.217 233.187 190.458 229.198 154.927 229.198C119.489 229.198 90.6377 233.187 90.2666 238.197C91.1943 210.088 119.118 187.266 153.907 186.71Z" fill="url(#paint25_linear)"/>
<path d="M175.245 299.797C175.245 299.055 175.894 298.405 176.636 298.405C177.378 298.405 178.028 299.055 178.028 299.797V300.261C178.028 301.003 177.378 301.652 176.636 301.652C175.894 301.652 175.245 301.003 175.245 300.261V299.797Z" fill="#C4C4C4"/>
<path d="M175.245 295.437C175.245 294.695 175.894 294.045 176.636 294.045C177.378 294.045 178.028 294.695 178.028 295.437V295.901C178.028 296.643 177.378 297.292 176.636 297.292C175.894 297.292 175.245 296.643 175.245 295.901V295.437Z" fill="#C4C4C4"/>
<path d="M175.245 330.86C175.245 330.118 175.894 329.468 176.636 329.468C177.378 329.468 178.028 330.118 178.028 330.86V331.324C178.028 332.066 177.378 332.715 176.636 332.715C175.894 332.715 175.245 332.066 175.245 331.324V330.86Z" fill="#C4C4C4"/>
<path d="M175.245 291.077C175.245 290.334 175.894 289.685 176.636 289.685C177.378 289.685 178.028 290.334 178.028 291.077V291.54C178.028 292.283 177.378 292.932 176.636 292.932C175.894 292.932 175.245 292.283 175.245 291.54V291.077Z" fill="#C4C4C4"/>
<path d="M175.245 326.499C175.245 325.757 175.894 325.108 176.636 325.108C177.378 325.108 178.028 325.757 178.028 326.499V326.963C178.028 327.705 177.378 328.355 176.636 328.355C175.894 328.355 175.245 327.705 175.245 326.963V326.499Z" fill="#C4C4C4"/>
<path d="M175.245 336.311C175.245 335.569 175.894 334.919 176.636 334.919C177.378 334.919 178.028 335.569 178.028 336.311V336.775C178.028 337.517 177.378 338.166 176.636 338.166C175.894 338.166 175.245 337.517 175.245 336.775V336.311Z" fill="#C4C4C4"/>
<path d="M175.245 286.716C175.245 285.974 175.894 285.325 176.636 285.325C177.378 285.325 178.028 285.974 178.028 286.716V287.18C178.028 287.922 177.378 288.572 176.636 288.572C175.894 288.572 175.245 287.922 175.245 287.18V286.716Z" fill="#C4C4C4"/>
<path d="M175.245 322.139C175.245 321.397 175.894 320.748 176.636 320.748C177.378 320.748 178.028 321.397 178.028 322.139V322.603C178.028 323.345 177.378 323.995 176.636 323.995C175.894 323.995 175.245 323.345 175.245 322.603V322.139Z" fill="#C4C4C4"/>
<path d="M175.245 282.356C175.245 281.614 175.894 280.965 176.636 280.965C177.378 280.965 178.028 281.614 178.028 282.356V282.82C178.028 283.562 177.378 284.212 176.636 284.212C175.894 284.212 175.245 283.562 175.245 282.82V282.356Z" fill="#C4C4C4"/>
<path d="M175.245 317.779C175.245 317.037 175.894 316.388 176.636 316.388C177.378 316.388 178.028 317.037 178.028 317.779V318.243C178.028 318.985 177.378 319.635 176.636 319.635C175.894 319.635 175.245 318.985 175.245 318.243V317.779Z" fill="#C4C4C4"/>
<path d="M175.245 277.996C175.245 277.254 175.894 276.604 176.636 276.604C177.378 276.604 178.028 277.254 178.028 277.996V278.46C178.028 279.202 177.378 279.851 176.636 279.851C175.894 279.851 175.245 279.202 175.245 278.46V277.996Z" fill="#C4C4C4"/>
<path d="M175.245 313.419C175.245 312.677 175.894 312.027 176.636 312.027C177.378 312.027 178.028 312.677 178.028 313.419V313.883C178.028 314.625 177.378 315.274 176.636 315.274C175.894 315.274 175.245 314.625 175.245 313.883V313.419Z" fill="#C4C4C4"/>
<path d="M175.245 273.636C175.245 272.894 175.894 272.245 176.636 272.245C177.378 272.245 178.028 272.894 178.028 273.636V274.1C178.028 274.842 177.378 275.492 176.636 275.492C175.894 275.492 175.245 274.842 175.245 274.1V273.636Z" fill="#C4C4C4"/>
<path d="M175.245 309.059C175.245 308.317 175.894 307.667 176.636 307.667C177.378 307.667 178.028 308.317 178.028 309.059V309.523C178.028 310.265 177.378 310.914 176.636 310.914C175.894 310.914 175.245 310.265 175.245 309.523V309.059Z" fill="#C4C4C4"/>
<path d="M175.245 269.275C175.245 268.533 175.894 267.884 176.636 267.884C177.378 267.884 178.028 268.533 178.028 269.275V269.739C178.028 270.481 177.378 271.131 176.636 271.131C175.894 271.131 175.245 270.481 175.245 269.739V269.275Z" fill="#C4C4C4"/>
<path d="M175.245 304.698C175.245 303.956 175.894 303.307 176.636 303.307C177.378 303.307 178.028 303.956 178.028 304.698V305.162C178.028 305.904 177.378 306.554 176.636 306.554C175.894 306.554 175.245 305.904 175.245 305.162V304.698Z" fill="#C4C4C4"/>
<path d="M175.245 264.915C175.245 264.173 175.894 263.524 176.636 263.524C177.378 263.524 178.028 264.173 178.028 264.915V265.379C178.028 266.121 177.378 266.771 176.636 266.771C175.894 266.771 175.245 266.121 175.245 265.379V264.915Z" fill="#C4C4C4"/>
<path d="M175.245 260.555C175.245 259.813 175.894 259.164 176.636 259.164C177.378 259.164 178.028 259.813 178.028 260.555V261.019C178.028 261.761 177.378 262.411 176.636 262.411C175.894 262.411 175.245 261.761 175.245 261.019V260.555Z" fill="#C4C4C4"/>
<path d="M175.245 256.195C175.245 255.453 175.894 254.803 176.636 254.803C177.378 254.803 178.028 255.453 178.028 256.195V256.659C178.028 257.401 177.378 258.05 176.636 258.05C175.894 258.05 175.245 257.401 175.245 256.659V256.195Z" fill="#C4C4C4"/>
<path d="M175.245 251.835C175.245 251.093 175.894 250.443 176.636 250.443C177.378 250.443 178.028 251.093 178.028 251.835V252.299C178.028 253.041 177.378 253.69 176.636 253.69C175.894 253.69 175.245 253.041 175.245 252.299V251.835Z" fill="#C4C4C4"/>
<path d="M175.245 247.475C175.245 246.732 175.894 246.083 176.636 246.083C177.378 246.083 178.028 246.732 178.028 247.475V247.938C178.028 248.681 177.378 249.33 176.636 249.33C175.894 249.33 175.245 248.681 175.245 247.938V247.475Z" fill="#C4C4C4"/>
<path d="M175.245 243.114C175.245 242.372 175.894 241.722 176.636 241.722C177.378 241.722 178.028 242.372 178.028 243.114V243.578C178.028 244.32 177.378 244.969 176.636 244.969C175.894 244.969 175.245 244.32 175.245 243.578V243.114Z" fill="#C4C4C4"/>
<path d="M175.245 238.754C175.245 238.012 175.894 237.363 176.636 237.363C177.378 237.363 178.028 238.012 178.028 238.754V239.218C178.028 239.96 177.378 240.61 176.636 240.61C175.894 240.61 175.245 239.96 175.245 239.218V238.754Z" fill="#C4C4C4"/>
<path d="M175.245 234.394C175.245 233.652 175.894 233.002 176.636 233.002C177.378 233.002 178.028 233.652 178.028 234.394V234.858C178.028 235.6 177.378 236.249 176.636 236.249C175.894 236.249 175.245 235.6 175.245 234.858V234.394Z" fill="#C4C4C4"/>
</g>
<path d="M555.456 297.352C544.976 307.832 543.899 324.156 552.227 335.837C553.83 338.085 557.039 338.066 558.992 336.114L594.218 300.887C596.171 298.935 596.19 295.726 593.941 294.123C582.26 285.795 565.937 286.871 555.456 297.352Z" fill="#FF6755"/>
<defs>
<filter id="filter0_f" x="100.104" y="339" width="376.826" height="323.918" filterUnits="userSpaceOnUse" color-interpolation-filters="sRGB">
<feFlood flood-opacity="0" result="BackgroundImageFix"/>
<feBlend mode="normal" in="SourceGraphic" in2="BackgroundImageFix" result="shape"/>
<feGaussianBlur stdDeviation="8" result="effect1_foregroundBlur"/>
</filter>
<linearGradient id="paint0_linear" x1="157.104" y1="193" x2="157.104" y2="322" gradientUnits="userSpaceOnUse">
<stop stop-color="#FFE179"/>
<stop offset="1" stop-color="#F9B167"/>
</linearGradient>
<linearGradient id="paint1_linear" x1="700.605" y1="314" x2="341.604" y2="113.5" gradientUnits="userSpaceOnUse">
<stop stop-color="#4BE0D7"/>
<stop offset="1" stop-color="#BAF7C8"/>
</linearGradient>
<linearGradient id="paint2_linear" x1="286.153" y1="537.211" x2="251.694" y2="496.393" gradientUnits="userSpaceOnUse">
<stop stop-color="#52D7E7"/>
<stop offset="1" stop-color="#70E0F4"/>
</linearGradient>
<linearGradient id="paint3_linear" x1="300.871" y1="342.565" x2="290.756" y2="383.149" gradientUnits="userSpaceOnUse">
<stop stop-color="#EF826C"/>
<stop offset="1" stop-color="#F7A970"/>
</linearGradient>
<linearGradient id="paint4_linear" x1="281.421" y1="327.706" x2="273.967" y2="356.449" gradientUnits="userSpaceOnUse">
<stop stop-color="#FF6755"/>
<stop offset="1" stop-color="#B81300"/>
</linearGradient>
<linearGradient id="paint5_linear" x1="414.257" y1="423.735" x2="414.257" y2="707.925" gradientUnits="userSpaceOnUse">
<stop stop-color="#56ECEA"/>
<stop offset="1" stop-color="#4AA9E0"/>
</linearGradient>
<linearGradient id="paint6_linear" x1="335.791" y1="475.882" x2="432.194" y2="591.567" gradientUnits="userSpaceOnUse">
<stop stop-color="#3499C1" stop-opacity="0"/>
<stop offset="1" stop-color="#3499C1"/>
</linearGradient>
<linearGradient id="paint7_linear" x1="299.257" y1="394.352" x2="286.299" y2="347.791" gradientUnits="userSpaceOnUse">
<stop stop-color="#D9C7B0" stop-opacity="0"/>
<stop offset="1" stop-color="#D9C7B0"/>
</linearGradient>
<radialGradient id="paint8_radial" cx="0" cy="0" r="1" gradientUnits="userSpaceOnUse" gradientTransform="translate(253.735 388.831) rotate(42.4113) scale(116.904 115.92)">
<stop stop-color="#C5B49E"/>
<stop offset="1" stop-color="#C5B49E"/>
</radialGradient>
<linearGradient id="paint9_linear" x1="297.001" y1="391.686" x2="284.043" y2="345.125" gradientUnits="userSpaceOnUse">
<stop stop-color="#D9C7B0" stop-opacity="0"/>
<stop offset="1" stop-color="#D9C7B0"/>
</linearGradient>
<radialGradient id="paint10_radial" cx="0" cy="0" r="1" gradientUnits="userSpaceOnUse" gradientTransform="translate(295.738 461.917) rotate(-104.015) scale(55.1236 78.5161)">
<stop stop-color="#E8D7AD"/>
<stop offset="1" stop-color="#F0E1BD"/>
</radialGradient>
<linearGradient id="paint11_linear" x1="245.687" y1="358.367" x2="241.456" y2="423.858" gradientUnits="userSpaceOnUse">
<stop stop-color="#A4958C"/>
<stop offset="1" stop-color="#8F8177"/>
</linearGradient>
<linearGradient id="paint12_linear" x1="315.931" y1="377.551" x2="311.376" y2="448.051" gradientUnits="userSpaceOnUse">
<stop stop-color="#A4958C"/>
<stop offset="1" stop-color="#8F8177"/>
</linearGradient>
<linearGradient id="paint13_linear" x1="400.197" y1="471.37" x2="419.888" y2="529.212" gradientUnits="userSpaceOnUse">
<stop stop-color="#52DFE6"/>
<stop offset="1" stop-color="#70E0F4"/>
</linearGradient>
<linearGradient id="paint14_linear" x1="137.355" y1="341.798" x2="137.355" y2="358.32" gradientUnits="userSpaceOnUse">
<stop stop-color="#D8CAB3"/>
<stop offset="1" stop-color="#D8CAB3" stop-opacity="0"/>
</linearGradient>
<linearGradient id="paint15_linear" x1="139.617" y1="334.266" x2="140.695" y2="350.753" gradientUnits="userSpaceOnUse">
<stop stop-color="#D8CAB3"/>
<stop offset="1" stop-color="#D8CAB3" stop-opacity="0"/>
</linearGradient>
<linearGradient id="paint16_linear" x1="143.954" y1="327.292" x2="145.033" y2="343.779" gradientUnits="userSpaceOnUse">
<stop stop-color="#D8CAB3"/>
<stop offset="1" stop-color="#D8CAB3" stop-opacity="0"/>
</linearGradient>
<linearGradient id="paint17_linear" x1="163.657" y1="330.586" x2="162.449" y2="339.097" gradientUnits="userSpaceOnUse">
<stop stop-color="#D8CAB3"/>
<stop offset="1" stop-color="#D8CAB3" stop-opacity="0"/>
</linearGradient>
<linearGradient id="paint18_linear" x1="167.94" y1="353.976" x2="172.003" y2="377.147" gradientUnits="userSpaceOnUse">
<stop stop-color="#D4C4AD"/>
<stop offset="1" stop-color="#D4C4AD" stop-opacity="0"/>
</linearGradient>
<linearGradient id="paint19_linear" x1="152.291" y1="350.042" x2="159.151" y2="362.865" gradientUnits="userSpaceOnUse">
<stop stop-color="#D4C5AE"/>
<stop offset="1" stop-color="#D4C5AE" stop-opacity="0"/>
</linearGradient>
<linearGradient id="paint20_linear" x1="154.877" y1="106" x2="154.877" y2="177.492" gradientUnits="userSpaceOnUse">
<stop stop-color="#FF984C" stop-opacity="0"/>
<stop offset="1" stop-color="#EA9454"/>
</linearGradient>
<radialGradient id="paint21_radial" cx="0" cy="0" r="1" gradientUnits="userSpaceOnUse" gradientTransform="translate(126.422 230.815) rotate(-0.468371) scale(42.4894 11.6354)">
<stop stop-color="#FFE179"/>
<stop offset="1" stop-color="#FFA55B" stop-opacity="0"/>
</radialGradient>
<linearGradient id="paint22_linear" x1="154.876" y1="232.016" x2="154.876" y2="250.169" gradientUnits="userSpaceOnUse">
<stop stop-color="#D0DDEE" stop-opacity="0"/>
<stop offset="1" stop-color="#D0DDEE"/>
</linearGradient>
<radialGradient id="paint23_radial" cx="0" cy="0" r="1" gradientUnits="userSpaceOnUse" gradientTransform="translate(146.066 246.52) rotate(7.88332) scale(14.1641 6.56877)">
<stop stop-color="white"/>
<stop offset="1" stop-color="white" stop-opacity="0"/>
</radialGradient>
<linearGradient id="paint24_linear" x1="153.371" y1="246.624" x2="143.212" y2="239.157" gradientUnits="userSpaceOnUse">
<stop stop-color="#F5F8FA" stop-opacity="0"/>
<stop offset="1" stop-color="#F5F8FA"/>
</linearGradient>
<linearGradient id="paint25_linear" x1="154.878" y1="186.683" x2="154.878" y2="238.236" gradientUnits="userSpaceOnUse">
<stop stop-color="#FF964A"/>
<stop offset="1" stop-color="#FFB169"/>
</linearGradient>
</defs>
</svg>
