<svg width="760" height="600" viewBox="0 0 760 600" fill="none" xmlns="http://www.w3.org/2000/svg">
<g clip-path="url(#clip0)">
<path d="M567.436 164.036C567.46 150.194 552.478 141.544 540.552 148.399L500.101 171.464C488.598 177.986 487.844 194.294 498.725 201.846L539.184 230.17C551.091 238.546 567.465 229.986 567.529 215.474L567.436 164.036Z" fill="#FFCA62"/>
<path d="M246.5 173.5C246.5 117.5 288.4 72.2002 340.1 72.2002H449.9C501.6 72.2002 543.5 117.6 543.5 173.5V373.7C543.5 429.7 501.6 475 449.9 475H340.2C288.5 475 246.6 429.6 246.6 373.7L246.5 173.5Z" fill="url(#paint0_linear)"/>
<path d="M329.4 360.2C329.4 360.2 324.4 390.4 337 413.3C349.6 436.2 383 428.6 384.5 443.1C409.2 423.2 400.1 376.4 390.3 389.5C380.5 402.5 375.6 402.9 367.5 402.6C349.7 402 350.4 362.6 350.4 362.6L329.4 360.2Z" fill="#10C8BD"/>
<path d="M453.6 474.7C502.5 474.7 539.4 434.5 542.6 385.7C519.8 327.3 498.3 244.8 516.5 182.6C518.2 176.9 516.5 174.1 510.7 177.4C502.9 181.8 497.8 185.8 492.7 190.4C492.2 190.9 491.4 190.8 491.6 189.5C493.5 182.2 498.8 152.3 498.9 140C498.9 135.5 494.5 136.6 491.7 137.3C479.5 140.2 465.4 145.9 448.5 158.3C447.8 158.8 446.8 158.7 447.2 157.2C449.3 148.2 457.8 118.8 459.5 110.8C460.3 107.2 456.5 104.8 453 106.8C437.1 115.9 418.6 127.7 400.4 163.5C382.4 202.5 371.1 255.1 374.1 319.1C377.1 383.1 386.1 474.5 386.1 474.5H453.6V474.7Z" fill="url(#paint1_linear)"/>
<path d="M434.7 251.9C463.5 253.8 485.3 243.1 485.5 231.3C485.7 219.5 466.1 202.6 438.8 200.3C411.4 198 395.8 211.7 395.5 224.2C395.2 236.7 405.9 250.1 434.7 251.9Z" fill="#10C8BD"/>
<path d="M432.8 252.2C461.3 254.1 482.8 243.4 483 231.6C483.2 219.8 463.9 202.9 436.9 200.6C409.9 198.3 394.5 212 394.1 224.5C393.8 236.9 404.4 250.3 432.8 252.2Z" fill="url(#paint2_linear)"/>
<path d="M454.5 232.7C456.6 232.8 458.4 231.2 458.5 229.1C458.6 227 457 225.2 454.9 225.1C452.8 225 451 226.6 450.9 228.7C450.7 230.8 452.4 232.6 454.5 232.7Z" fill="#067279"/>
<path d="M452.1 229C452.6 229.5 453.6 229.2 454.3 228.4C455 227.6 455.1 226.6 454.6 226.1C454.1 225.6 453.1 225.9 452.4 226.7C451.7 227.5 451.5 228.5 452.1 229Z" fill="#10C8BD"/>
<path d="M452.5 227.8C452.7 228 453.1 227.9 453.3 227.5C453.6 227.2 453.6 226.8 453.4 226.6C453.2 226.4 452.8 226.5 452.6 226.9C452.4 227.2 452.3 227.6 452.5 227.8Z" fill="#D0F3F7"/>
<path opacity="0.61" d="M455.6 227.1C455.7 226.7 456.2 226.3 456.5 226.6C457.2 227.2 457.7 228.1 457.6 229.1C457.5 230.8 456.1 232.1 454.4 232C453.6 232 452.9 231.6 452.4 231.1C452.1 230.8 452.5 230.2 452.9 230.1C453.5 229.9 454.1 229.5 454.6 228.9C455.2 228.2 455.5 227.6 455.6 227.1Z" fill="#067279"/>
<path d="M401.4 226.9C403.2 227.2 405 225.8 405.3 223.7C405.6 221.6 404.3 219.6 402.5 219.3C400.7 219 398.9 220.4 398.6 222.5C398.3 224.6 399.5 226.5 401.4 226.9Z" fill="#067279"/>
<path d="M399.6 222.9C400 223.4 400.9 223.3 401.6 222.5C402.3 221.8 402.5 220.8 402.1 220.2C401.7 219.7 400.8 219.8 400.1 220.6C399.4 221.3 399.2 222.3 399.6 222.9Z" fill="#10C8BD"/>
<path d="M400.1 221.7C400.3 221.9 400.6 221.8 400.9 221.5C401.2 221.2 401.3 220.8 401.1 220.6C400.9 220.4 400.6 220.5 400.3 220.8C400.1 221.2 400 221.5 400.1 221.7Z" fill="#D0F3F7"/>
<path opacity="0.61" d="M402.9 221.3C403 220.9 403.5 220.6 403.8 220.9C404.4 221.6 404.7 222.5 404.6 223.5C404.4 225.1 403 226.3 401.6 226C400.9 225.9 400.3 225.4 399.9 224.8C399.6 224.4 400.1 223.9 400.5 223.8C401 223.7 401.6 223.3 402.1 222.8C402.4 222.4 402.8 221.9 402.9 221.3Z" fill="#067279"/>
<path d="M421 164.7C423.2 166 432.5 169.2 448.5 158.7C444.5 161.1 454.5 129.2 458 115.7C450 134.7 414.5 160.7 421 164.7Z" fill="url(#paint3_linear)"/>
<path d="M497 204.2C492 206.2 490.1 196.7 491.4 189.9C492 193.2 499.5 182.2 512.5 176.7C501.5 182.7 499.4 203.2 497 204.2Z" fill="url(#paint4_linear)"/>
<path d="M347.9 308.7L347.8 363.9L401.1 348.3C401.4 348.2 401.6 348 401.6 347.7L402.8 295.7L347.9 308.7Z" fill="#98E9F4"/>
<path d="M394.9 343.2C395 343.2 395.1 343 395.1 342.9L396 303.9L354.6 313.8C354.4 313.8 354.3 314 354.3 314.1L354.2 354.7C354.2 354.9 354.4 355.1 354.6 355L394.9 343.2Z" fill="#2EE2D6"/>
<path d="M393.1 341.9C393.2 341.9 393.3 341.7 393.3 341.6L394.2 304.4L354.7 313.8C354.5 313.8 354.4 314 354.4 314.1L354.3 353.3L393.1 341.9Z" fill="#86E0DC"/>
<path d="M347.9 308.7L347.8 363.9L282.4 335C282.3 334.9 282.2 334.8 282.2 334.7V282.4L347.9 308.7Z" fill="#DDFCFF"/>
<path d="M311 338.2C311 338.4 310.7 338.6 310.5 338.5L289.8 328.4C289.7 328.3 289.6 328.2 289.6 328.1L289 292.6C289 292.4 289.2 292.2 289.5 292.3L310.9 300.8C311 300.9 311.1 301 311.1 301.1V338.2H311Z" fill="#98E9F4"/>
<path d="M309.4 300.3L341.2 313C341.3 313.1 341.4 313.2 341.4 313.3L341.3 351.3L309.6 336.7C309.6 336.7 309.5 336.6 309.3 336.6C308.1 336.1 304 334.3 309.4 336.4V335.5L291.7 326.9C291.6 326.8 291.5 326.7 291.5 326.6L290.8 292.9L309.4 300.3Z" fill="#BFF9EC"/>
<path d="M343.6 300.8L290.2 279.5C291.1 269.5 297.6 260 306.3 254.3C312.1 250.4 320.7 249.7 322.1 250.1C336.3 254 357.1 259.8 371.2 263.8C356.8 266.7 346.7 284.1 343.6 300.8Z" fill="#BFF9EC"/>
<path d="M288.9 278.3C288.9 278.3 288.9 267.6 300.2 256.5C309.4 247.5 320.2 248.1 321.3 248.2C322.4 248.3 324 249.3 324.3 250.6C323.5 250.4 322 250 322 250C320.3 249.8 311.1 250.2 303.6 256.2C296.1 262.2 291.9 270.5 290.7 279C290.1 278.8 288.9 278.3 288.9 278.3Z" fill="#98E9F4"/>
<path d="M315.7 246.8C317.4 247.2 319.6 247.7 321.6 248.3C317.6 248.1 311.1 248.7 305.2 252.6C296.6 258.4 290.1 267.9 288.9 277.8C288.9 278.1 289 278.4 289.3 278.5L342.3 299.6C342.7 299.8 343.1 299.5 343.2 299.1C346.4 282.9 356.1 266.3 369.7 262.5C370.5 262.2 371.5 262.3 372.3 262.5C381 265 387 266.7 387 266.7C366.6 263.7 354.1 277.7 347.7 308.7L282.1 282.6C282.2 257 303.9 242.8 315.7 246.8Z" fill="#DDFCFF"/>
<path d="M402.6 295.7L347.8 308.8C347.8 308.8 354.2 265.8 380.6 265.8C403.8 265.8 402.6 295.7 402.6 295.7Z" fill="#98E9F4"/>
<path d="M395.9 290.6C395.4 286 393.9 279.8 390.2 276C387.8 273.5 384.7 272.3 380.6 272.3C370.5 272.3 365.7 278.2 360.3 289.8C358.8 292.9 357.7 296.1 356.8 299C356.7 299.5 357.1 299.9 357.6 299.8L395.9 290.6Z" fill="#2EE2D6"/>
<path d="M393.9 291.2C393.4 286.6 391.9 280.4 388.2 276.6C385.8 274.1 382.7 272.9 378.6 272.9C370.5 272.9 364.8 279.2 360.1 289.2C358.6 292.3 357.7 296.1 356.9 299C356.7 299.5 357.2 299.9 357.7 299.8L393.9 291.2Z" fill="#86E0DC"/>
<path d="M354.4 325.9C361.6 330 385.2 370.8 388 375.4C389.3 377.6 390.6 379.9 392 382.3C402.4 400.6 416.1 424.6 439 424.6C461.5 424.6 471.9 400.5 479.6 382.9C480.8 380.2 481.9 377.6 483 375.3C503 339 531.3 366.6 520.6 388.1C520.4 388.4 520.3 388.8 520.1 389.2C513.2 403.5 484.2 463.8 442.6 463.7C406.1 463.7 392.9 438 378.1 409.1C371.6 396.5 364.9 383.3 355.7 371.4C349.3 364.1 343.1 363 335.8 361.7C331.5 360.9 326.8 360.1 321.4 357.9C310.3 353.5 305.4 347.5 303.1 344.6C300.8 341.7 303.8 339.2 306.3 341.5C308.8 343.8 316.2 348.9 319.9 350.3C320.2 350.4 320.4 350.3 320.6 350.1C320.8 349.8 320.7 349.3 320.3 349.2C315.7 347.4 307.2 341.2 304.2 336.6C301.9 333.2 305.4 330.3 307.9 332.7C308.1 332.9 308.4 333.2 308.6 333.4C311.9 336.8 317.3 342.1 323 344.6C323.2 344.7 323.5 344.6 323.7 344.4C323.9 344.1 323.8 343.8 323.5 343.6C318.3 340.4 308.9 332.5 307 329.2C305.2 325.9 308.8 322.9 311.4 326.1C314.1 329.4 321.7 336.7 325.8 338.8C326 338.9 326.3 338.8 326.4 338.6C326.6 338.4 326.5 338.1 326.3 337.9C323.2 335.8 315.7 329.5 313.4 325.2C312.1 322.2 315.7 320.7 317.7 322.8C318.1 323.1 318.5 323.5 318.9 323.9C323.9 328.8 332.3 336.9 353.7 335.2C354.1 335.2 354.8 335.1 354.3 334.4C354.1 334 352.8 333 351.2 331.8C350.1 331 348.9 330 347.8 329.1C345.6 327.4 344.9 325.7 346 324.4C347.1 323.6 350 323.4 354.4 325.9Z" fill="url(#paint5_linear)"/>
<path d="M255.848 453.675C250.032 458.434 251.83 467.784 259.054 469.956L293.674 480.393C299.692 482.188 305.755 477.771 305.785 471.466L306.065 432.476C306.119 424.544 296.892 420.023 290.655 425.136L255.848 453.675Z" fill="#108CFF"/>
<path d="M240.8 420.3C239 421.3 238.4 423.6 239.8 425.1C242 427.4 244.8 429.2 248 430C252.4 431.1 257.1 430.5 261.1 428.2C265.1 425.9 268 422.2 269.2 417.8C270.1 414.6 270 411.3 269.1 408.3C268.5 406.3 266.2 405.7 264.4 406.8C262.6 407.8 262.1 410.1 262.4 412.1C262.6 413.4 262.5 414.7 262.1 416C261.4 418.5 259.7 420.6 257.5 422C255.2 423.3 252.5 423.7 250 423C248.7 422.7 247.5 422.1 246.5 421.3C244.8 419.9 242.5 419.3 240.8 420.3Z" fill="#FFAB49"/>
</g>
<defs>
<linearGradient id="paint0_linear" x1="246.518" y1="273.577" x2="543.592" y2="273.577" gradientUnits="userSpaceOnUse">
<stop stop-color="#A6F7C7"/>
<stop offset="1" stop-color="#C5F9B3"/>
</linearGradient>
<linearGradient id="paint1_linear" x1="458.208" y1="106.152" x2="458.208" y2="474.652" gradientUnits="userSpaceOnUse">
<stop stop-color="#3FF3E9"/>
<stop offset="0.5365" stop-color="#0FC6BB"/>
</linearGradient>
<linearGradient id="paint2_linear" x1="394.112" y1="226.379" x2="483.029" y2="226.379" gradientUnits="userSpaceOnUse">
<stop stop-color="#FBFFFE"/>
<stop offset="1" stop-color="#8CDFEB"/>
</linearGradient>
<linearGradient id="paint3_linear" x1="456.708" y1="150.078" x2="439.682" y2="140.248" gradientUnits="userSpaceOnUse">
<stop stop-color="#00BCB2"/>
<stop offset="1" stop-color="#18D1C7" stop-opacity="0"/>
</linearGradient>
<linearGradient id="paint4_linear" x1="494.169" y1="185.011" x2="504.765" y2="191.128" gradientUnits="userSpaceOnUse">
<stop stop-color="#00BCB2"/>
<stop offset="1" stop-color="#18D1C7" stop-opacity="0"/>
</linearGradient>
<linearGradient id="paint5_linear" x1="302.311" y1="393.014" x2="522.942" y2="393.014" gradientUnits="userSpaceOnUse">
<stop stop-color="#3FF3E9"/>
<stop offset="1" stop-color="#0FC6BB"/>
</linearGradient>
<clipPath id="clip0">
<rect width="328.6" height="441.2" fill="white" transform="translate(239 45)"/>
</clipPath>
</defs>
</svg>
