<svg width="329" height="442" viewBox="0 0 329 442" fill="none" xmlns="http://www.w3.org/2000/svg">
<g clip-path="url(#clip0)">
<path d="M328.436 119.036C328.46 105.194 313.478 96.5436 301.552 103.399L261.101 126.464C249.598 132.986 248.844 149.294 259.725 156.846L300.184 185.17C312.091 193.546 328.465 184.986 328.529 170.474L328.436 119.036Z" fill="#FFCA62"/>
<path d="M7.5 128.499C7.5 72.4992 49.4 27.1992 101.1 27.1992H210.9C262.6 27.1992 304.5 72.5992 304.5 128.499V328.699C304.5 384.699 262.6 429.999 210.9 429.999H101.2C49.5 429.999 7.6 384.599 7.6 328.699L7.5 128.499Z" fill="url(#paint0_linear)"/>
<path d="M90.3998 315.199C90.3998 315.199 85.3998 345.399 97.9998 368.299C110.6 391.199 144 383.599 145.5 398.099C170.2 378.199 161.1 331.399 151.3 344.499C141.5 357.499 136.6 357.899 128.5 357.599C110.7 356.999 111.4 317.599 111.4 317.599L90.3998 315.199Z" fill="#10C8BD"/>
<path d="M214.6 429.699C263.5 429.699 300.4 389.499 303.6 340.699C280.8 282.299 259.3 199.799 277.5 137.599C279.2 131.899 277.5 129.099 271.7 132.399C263.9 136.799 258.8 140.799 253.7 145.399C253.2 145.899 252.4 145.799 252.6 144.499C254.5 137.199 259.8 107.299 259.9 94.9992C259.9 90.4992 255.5 91.5992 252.7 92.2992C240.5 95.1992 226.4 100.899 209.5 113.299C208.8 113.799 207.8 113.699 208.2 112.199C210.3 103.199 218.8 73.7992 220.5 65.7992C221.3 62.1992 217.5 59.7992 214 61.7992C198.1 70.8992 179.6 82.6992 161.4 118.499C143.4 157.499 132.1 210.099 135.1 274.099C138.1 338.099 147.1 429.499 147.1 429.499H214.6V429.699Z" fill="url(#paint1_linear)"/>
<path d="M195.7 206.9C224.5 208.8 246.3 198.1 246.5 186.3C246.7 174.5 227.1 157.6 199.8 155.3C172.4 153 156.8 166.7 156.5 179.2C156.2 191.7 166.9 205.1 195.7 206.9Z" fill="#10C8BD"/>
<path d="M193.8 207.2C222.3 209.1 243.8 198.4 244 186.6C244.2 174.8 224.9 157.9 197.9 155.6C170.9 153.3 155.5 167 155.1 179.5C154.8 191.9 165.4 205.3 193.8 207.2Z" fill="url(#paint2_linear)"/>
<path d="M215.5 187.7C217.6 187.8 219.4 186.2 219.5 184.1C219.6 182 218 180.2 215.9 180.1C213.8 180 212 181.6 211.9 183.7C211.7 185.8 213.4 187.6 215.5 187.7Z" fill="#067279"/>
<path d="M213.1 184C213.6 184.5 214.6 184.2 215.3 183.4C216 182.6 216.1 181.6 215.6 181.1C215.1 180.6 214.1 180.9 213.4 181.7C212.7 182.5 212.5 183.5 213.1 184Z" fill="#10C8BD"/>
<path d="M213.5 182.8C213.7 183 214.1 182.9 214.3 182.5C214.6 182.2 214.6 181.8 214.4 181.6C214.2 181.4 213.8 181.5 213.6 181.9C213.4 182.2 213.3 182.6 213.5 182.8Z" fill="#D0F3F7"/>
<path opacity="0.61" d="M216.6 182.101C216.7 181.701 217.2 181.301 217.5 181.601C218.2 182.201 218.7 183.101 218.6 184.101C218.5 185.801 217.1 187.101 215.4 187.001C214.6 187.001 213.9 186.601 213.4 186.101C213.1 185.801 213.5 185.201 213.9 185.101C214.5 184.901 215.1 184.501 215.6 183.901C216.2 183.201 216.5 182.601 216.6 182.101Z" fill="#067279"/>
<path d="M162.4 181.9C164.2 182.2 166 180.8 166.3 178.7C166.6 176.6 165.3 174.6 163.5 174.3C161.7 174 159.9 175.4 159.6 177.5C159.3 179.6 160.5 181.5 162.4 181.9Z" fill="#067279"/>
<path d="M160.6 177.9C161 178.4 161.9 178.3 162.6 177.5C163.3 176.8 163.5 175.8 163.1 175.2C162.7 174.7 161.8 174.8 161.1 175.6C160.4 176.3 160.2 177.3 160.6 177.9Z" fill="#10C8BD"/>
<path d="M161.1 176.7C161.3 176.9 161.6 176.8 161.9 176.5C162.2 176.2 162.3 175.8 162.1 175.6C161.9 175.4 161.6 175.5 161.3 175.8C161.1 176.2 161 176.5 161.1 176.7Z" fill="#D0F3F7"/>
<path opacity="0.61" d="M163.9 176.299C164 175.899 164.5 175.599 164.8 175.899C165.4 176.599 165.7 177.499 165.6 178.499C165.4 180.099 164 181.299 162.6 180.999C161.9 180.899 161.3 180.399 160.9 179.799C160.6 179.399 161.1 178.899 161.5 178.799C162 178.699 162.6 178.299 163.1 177.799C163.4 177.399 163.8 176.899 163.9 176.299Z" fill="#067279"/>
<path d="M182 119.699C184.2 120.999 193.5 124.199 209.5 113.699C205.5 116.099 215.5 84.1992 219 70.6992C211 89.6992 175.5 115.699 182 119.699Z" fill="url(#paint3_linear)"/>
<path d="M258 159.199C253 161.199 251.1 151.699 252.4 144.899C253 148.199 260.5 137.199 273.5 131.699C262.5 137.699 260.4 158.199 258 159.199Z" fill="url(#paint4_linear)"/>
<path d="M108.9 263.699L108.8 318.899L162.1 303.299C162.4 303.199 162.6 302.999 162.6 302.699L163.8 250.699L108.9 263.699Z" fill="#98E9F4"/>
<path d="M155.9 298.2C156 298.2 156.1 298 156.1 297.9L157 258.9L115.6 268.8C115.4 268.8 115.3 269 115.3 269.1L115.2 309.7C115.2 309.9 115.4 310.1 115.6 310L155.9 298.2Z" fill="#2EE2D6"/>
<path d="M154.1 296.9C154.2 296.9 154.3 296.7 154.3 296.6L155.2 259.4L115.7 268.8C115.5 268.8 115.4 269 115.4 269.1L115.3 308.3L154.1 296.9Z" fill="#86E0DC"/>
<path d="M108.9 263.7L108.8 318.9L43.4002 290C43.3002 289.9 43.2002 289.8 43.2002 289.7V237.4L108.9 263.7Z" fill="#DDFCFF"/>
<path d="M72 293.2C72 293.4 71.7 293.6 71.5 293.5L50.8 283.4C50.7 283.3 50.6 283.2 50.6 283.1L50 247.6C50 247.4 50.2 247.2 50.5 247.3L71.9 255.8C72 255.9 72.1 256 72.1 256.1V293.2H72Z" fill="#98E9F4"/>
<path d="M70.3998 255.3L102.2 268C102.3 268.1 102.4 268.2 102.4 268.3L102.3 306.3L70.5998 291.7C70.5998 291.7 70.4998 291.6 70.2998 291.6C69.0998 291.1 64.9998 289.3 70.3998 291.4V290.5L52.6998 281.9C52.5998 281.8 52.4998 281.7 52.4998 281.6L51.7998 247.9L70.3998 255.3Z" fill="#BFF9EC"/>
<path d="M104.6 255.801L51.2002 234.501C52.1002 224.501 58.6002 215.001 67.3002 209.301C73.1002 205.401 81.7002 204.701 83.1002 205.101C97.3002 209.001 118.1 214.801 132.2 218.801C117.8 221.701 107.7 239.101 104.6 255.801Z" fill="#BFF9EC"/>
<path d="M49.8999 233.299C49.8999 233.299 49.8999 222.599 61.1999 211.499C70.3999 202.499 81.1999 203.099 82.2999 203.199C83.3999 203.299 84.9999 204.299 85.2999 205.599C84.4999 205.399 82.9999 204.999 82.9999 204.999C81.2999 204.799 72.0999 205.199 64.5999 211.199C57.0999 217.199 52.8999 225.499 51.6999 233.999C51.0999 233.799 49.8999 233.299 49.8999 233.299Z" fill="#98E9F4"/>
<path d="M76.7001 201.8C78.4001 202.2 80.6001 202.7 82.6001 203.3C78.6001 203.1 72.1001 203.7 66.2001 207.6C57.6001 213.4 51.1001 222.9 49.9001 232.8C49.9001 233.1 50.0001 233.4 50.3001 233.5L103.3 254.6C103.7 254.8 104.1 254.5 104.2 254.1C107.4 237.9 117.1 221.3 130.7 217.5C131.5 217.2 132.5 217.3 133.3 217.5C142 220 148 221.7 148 221.7C127.6 218.7 115.1 232.7 108.7 263.7L43.1001 237.6C43.2001 212 64.9001 197.8 76.7001 201.8Z" fill="#DDFCFF"/>
<path d="M163.6 250.701L108.8 263.801C108.8 263.801 115.2 220.801 141.6 220.801C164.8 220.801 163.6 250.701 163.6 250.701Z" fill="#98E9F4"/>
<path d="M156.9 245.601C156.4 241.001 154.9 234.801 151.2 231.001C148.8 228.501 145.7 227.301 141.6 227.301C131.5 227.301 126.7 233.201 121.3 244.801C119.8 247.901 118.7 251.101 117.8 254.001C117.7 254.501 118.1 254.901 118.6 254.801L156.9 245.601Z" fill="#2EE2D6"/>
<path d="M154.9 246.2C154.4 241.6 152.9 235.4 149.2 231.6C146.8 229.1 143.7 227.9 139.6 227.9C131.5 227.9 125.8 234.2 121.1 244.2C119.6 247.3 118.7 251.1 117.9 254C117.7 254.5 118.2 254.9 118.7 254.8L154.9 246.2Z" fill="#86E0DC"/>
<path d="M115.4 280.899C122.6 284.999 146.2 325.799 149 330.399C150.3 332.599 151.6 334.899 153 337.299C163.4 355.599 177.1 379.599 200 379.599C222.5 379.599 232.9 355.499 240.6 337.899C241.8 335.199 242.9 332.599 244 330.299C264 293.999 292.3 321.599 281.6 343.099C281.4 343.399 281.3 343.799 281.1 344.199C274.2 358.499 245.2 418.799 203.6 418.699C167.1 418.699 153.9 392.999 139.1 364.099C132.6 351.499 125.9 338.299 116.7 326.399C110.3 319.099 104.1 317.999 96.8002 316.699C92.5002 315.899 87.8002 315.099 82.4002 312.899C71.3002 308.499 66.4002 302.499 64.1002 299.599C61.8002 296.699 64.8002 294.199 67.3002 296.499C69.8002 298.799 77.2002 303.899 80.9002 305.299C81.2002 305.399 81.4002 305.299 81.6002 305.099C81.8002 304.799 81.7002 304.299 81.3002 304.199C76.7002 302.399 68.2002 296.199 65.2002 291.599C62.9002 288.199 66.4002 285.299 68.9002 287.699C69.1002 287.899 69.4002 288.199 69.6002 288.399C72.9002 291.799 78.3002 297.099 84.0002 299.599C84.2002 299.699 84.5002 299.599 84.7002 299.399C84.9002 299.099 84.8002 298.799 84.5002 298.599C79.3002 295.399 69.9002 287.499 68.0002 284.199C66.2002 280.899 69.8002 277.899 72.4002 281.099C75.1002 284.399 82.7002 291.699 86.8002 293.799C87.0002 293.899 87.3002 293.799 87.4002 293.599C87.6002 293.399 87.5002 293.099 87.3002 292.899C84.2002 290.799 76.7002 284.499 74.4002 280.199C73.1002 277.199 76.7002 275.699 78.7002 277.799C79.1002 278.099 79.5002 278.499 79.9002 278.899C84.9002 283.799 93.3002 291.899 114.7 290.199C115.1 290.199 115.8 290.099 115.3 289.399C115.1 288.999 113.8 287.999 112.2 286.799C111.1 285.999 109.9 284.999 108.8 284.099C106.6 282.399 105.9 280.699 107 279.399C108.1 278.599 111 278.399 115.4 280.899Z" fill="url(#paint5_linear)"/>
<path d="M16.8483 408.675C11.0316 413.434 12.8302 422.784 20.0543 424.957L54.6743 435.394C60.6919 437.189 66.7548 432.772 66.7851 426.467L67.0652 387.476C67.1188 379.545 57.892 375.023 51.6553 380.137L16.8483 408.675Z" fill="#108CFF"/>
<path d="M1.79987 375.3C-0.000126362 376.3 -0.600126 378.6 0.799874 380.1C2.99987 382.4 5.79987 384.2 8.99987 385C13.3999 386.1 18.0999 385.5 22.0999 383.2C26.0999 380.9 28.9999 377.2 30.1999 372.8C31.0999 369.6 30.9999 366.3 30.0999 363.3C29.4999 361.3 27.1999 360.7 25.3999 361.8C23.5999 362.8 23.0999 365.1 23.3999 367.1C23.5999 368.4 23.4999 369.7 23.0999 371C22.3999 373.5 20.6999 375.6 18.4999 377C16.1999 378.3 13.4999 378.7 10.9999 378C9.69987 377.7 8.49987 377.1 7.49987 376.3C5.79987 374.9 3.49987 374.3 1.79987 375.3Z" fill="#FFAB49"/>
</g>
<defs>
<linearGradient id="paint0_linear" x1="7.5177" y1="228.576" x2="304.592" y2="228.576" gradientUnits="userSpaceOnUse">
<stop stop-color="#A6F7C7"/>
<stop offset="1" stop-color="#C5F9B3"/>
</linearGradient>
<linearGradient id="paint1_linear" x1="219.208" y1="61.1513" x2="219.208" y2="429.651" gradientUnits="userSpaceOnUse">
<stop stop-color="#3FF3E9"/>
<stop offset="0.5365" stop-color="#0FC6BB"/>
</linearGradient>
<linearGradient id="paint2_linear" x1="155.112" y1="181.38" x2="244.029" y2="181.38" gradientUnits="userSpaceOnUse">
<stop stop-color="#FBFFFE"/>
<stop offset="1" stop-color="#8CDFEB"/>
</linearGradient>
<linearGradient id="paint3_linear" x1="217.708" y1="105.077" x2="200.682" y2="95.2468" gradientUnits="userSpaceOnUse">
<stop stop-color="#00BCB2"/>
<stop offset="1" stop-color="#18D1C7" stop-opacity="0"/>
</linearGradient>
<linearGradient id="paint4_linear" x1="255.169" y1="140.01" x2="265.765" y2="146.127" gradientUnits="userSpaceOnUse">
<stop stop-color="#00BCB2"/>
<stop offset="1" stop-color="#18D1C7" stop-opacity="0"/>
</linearGradient>
<linearGradient id="paint5_linear" x1="63.3113" y1="348.013" x2="283.942" y2="348.013" gradientUnits="userSpaceOnUse">
<stop stop-color="#3FF3E9"/>
<stop offset="1" stop-color="#0FC6BB"/>
</linearGradient>
<clipPath id="clip0">
<rect width="328.6" height="441.2" fill="white"/>
</clipPath>
</defs>
</svg>
