<svg width="672" height="720" viewBox="0 0 672 720" fill="none" xmlns="http://www.w3.org/2000/svg">
<path d="M400 450C400 466.569 413.431 480 430 480L671 480L671 6.826e-06L400 3.05176e-05L400 450Z" fill="#FFE179"/>
<mask id="mask0" mask-type="alpha" maskUnits="userSpaceOnUse" x="400" y="0" width="272" height="481">
<path d="M641.104 4.05022e-06C657.673 1.81335e-06 671.104 13.4315 671.104 30L671.105 450.403C671.105 466.972 657.673 480.403 641.105 480.403L430.341 480.403C413.772 480.403 400.341 466.972 400.341 450.403L400.34 30C400.34 13.4315 413.772 3.47418e-05 430.34 3.25049e-05L641.104 4.05022e-06Z" fill="#FFDC62"/>
</mask>
<g mask="url(#mask0)">
<path d="M394.671 375.596L460.716 375.596C461.821 375.596 462.716 376.491 462.716 377.596L462.716 432.236C462.716 433.341 463.612 434.236 464.716 434.236L517.421 434.236C518.525 434.236 519.421 435.132 519.421 436.236L519.421 487.165C519.421 488.27 520.316 489.165 521.421 489.165L576.252 489.165C577.356 489.165 578.252 490.061 578.252 491.165L578.252 547.806" stroke="#FFDB5E" stroke-width="20"/>
<path d="M319.538 440.916L385.583 440.916C386.688 440.916 387.583 441.811 387.583 442.916L387.583 497.557C387.583 498.661 388.478 499.557 389.583 499.557L442.287 499.557C443.392 499.557 444.287 500.452 444.287 501.557L444.287 552.486C444.287 553.59 445.183 554.486 446.287 554.486L501.118 554.486C502.223 554.486 503.118 555.381 503.118 556.486L503.118 613.126" stroke="#FFDB5E" stroke-width="20"/>
<path d="M394.671 236.045L460.716 236.045C461.821 236.045 462.716 236.941 462.716 238.045L462.716 292.686C462.716 293.79 463.612 294.686 464.716 294.686L517.421 294.686C518.525 294.686 519.421 295.581 519.421 296.686L519.421 347.615C519.421 348.72 520.316 349.615 521.421 349.615L576.252 349.615C577.356 349.615 578.252 350.51 578.252 351.615L578.252 406.255C578.252 407.36 579.147 408.255 580.252 408.255L625.868 408.255C626.973 408.255 627.868 409.151 627.868 410.255L627.868 450.793C627.868 451.897 628.763 452.793 629.868 452.793L688.116 452.793" stroke="#FFDB5E" stroke-width="20"/>
<path d="M394.671 93.5273L460.716 93.5273C461.821 93.5273 462.716 94.4228 462.716 95.5273L462.716 150.168C462.716 151.272 463.612 152.168 464.716 152.168L517.421 152.168C518.525 152.168 519.421 153.063 519.421 154.168L519.421 205.097C519.421 206.201 520.316 207.097 521.421 207.097L576.252 207.097C577.356 207.097 578.252 207.992 578.252 209.097L578.252 263.737C578.252 264.842 579.147 265.737 580.252 265.737L630.121 265.737C631.225 265.737 632.121 266.633 632.121 267.737L632.121 324.605C632.121 325.709 633.016 326.605 634.121 326.605L681.028 326.605" stroke="#FFDB5E" stroke-width="20"/>
<path d="M406.012 -37.1143L472.057 -37.1143C473.162 -37.1143 474.057 -36.2188 474.057 -35.1143L474.057 19.5262C474.057 20.6308 474.953 21.5262 476.057 21.5262L528.762 21.5262C529.866 21.5262 530.762 22.4217 530.762 23.5262L530.762 74.4553C530.762 75.5599 531.657 76.4553 532.762 76.4553L587.592 76.4553C588.697 76.4553 589.592 77.3507 589.592 78.4553L589.592 133.096C589.592 134.2 590.488 135.096 591.592 135.096L641.462 135.096C642.566 135.096 643.462 135.991 643.462 137.096L643.462 193.963C643.462 195.068 644.357 195.963 645.462 195.963L692.369 195.963" stroke="#FFDB5E" stroke-width="20"/>
</g>
<rect width="235" height="180" rx="30" transform="matrix(1 -8.74228e-08 -8.74228e-08 -1 113 481)" fill="#E4EBFA"/>
<mask id="mask1" mask-type="alpha" maskUnits="userSpaceOnUse" x="113" y="301" width="235" height="180">
<rect width="235" height="180" rx="30" transform="matrix(1 -8.74228e-08 -8.74228e-08 -1 113 481)" fill="#E4EBFA"/>
</mask>
<g mask="url(#mask1)">
<g filter="url(#filter0_f)">
<path d="M389.816 277.212C361.257 310.171 365.568 319.442 387.968 337.22C459.362 389.404 486.235 479.25 472.378 517.155C465.119 536.951 428.167 545.749 364.234 545.749C300.301 545.749 272.22 536.365 265.915 517.155C255.724 486.069 277.572 428.817 318.117 347.068C321.93 339.37 324.273 327.585 302.647 329.105C281.021 330.626 245.324 319.874 233.697 292.323C220.071 257.338 224.09 198.908 298.759 182.552C373.427 166.197 418.374 244.252 389.816 277.212Z" fill="#97A4C5" fill-opacity="0.2"/>
<path d="M311.394 457.777C277.008 473.833 259.852 484.244 232.944 480.065C210.143 476.546 198.558 461.003 213.808 440.62C226.859 423.171 259.166 412.567 291.079 404.537C293.508 399.372 299.358 386.19 302.963 379.03C238.521 392.462 187.854 399.636 172.384 458.07C161.606 498.834 213.808 557.562 327.744 496.708C350.619 484.464 329.21 449.492 311.394 457.777Z" fill="#97A4C5" fill-opacity="0.2"/>
</g>
</g>
<path d="M305.021 138.866C305.021 85.8405 262.036 42.8551 209.011 42.8551C155.985 42.8551 113 85.8405 113 138.866C113 191.891 155.985 234.876 209.011 234.876C262.036 234.876 305.021 191.891 305.021 138.866Z" fill="url(#paint0_linear)"/>
<path d="M427.269 95.4646C430.559 93.2632 430.601 88.4523 427.339 86.2112C414.327 77.2724 404.349 71.5236 389.801 64.5555C386.224 62.8418 382.063 65.2845 381.805 69.2429C380.755 85.3213 380.719 96.8301 381.776 112.516C382.043 116.479 386.222 118.899 389.79 117.157C403.611 110.412 413.571 104.632 427.269 95.4646Z" fill="#4DAAFF"/>
<g style="mix-blend-mode:multiply" filter="url(#filter1_f)">
<path d="M312.875 535.302C317.818 534.459 322.91 534.806 327.738 536.162C347.44 541.693 382.675 545.378 422.863 545.378C463.11 545.378 498.39 539.202 518.075 533.658C524.729 531.783 531.927 531.607 538.701 532.988C545.956 534.468 562.709 537.824 572.464 537.824C596.486 537.824 608.211 532.51 608.211 525.954C608.211 519.399 588.738 514.084 564.715 514.084C554.961 514.084 545.956 517.44 538.701 518.92C531.927 520.302 524.729 520.125 518.075 518.251C498.39 512.706 463.11 506.531 422.863 506.531C382.675 506.531 347.44 510.215 327.738 515.747C322.91 517.102 317.818 517.449 312.875 516.606C303.61 515.026 291.937 514.084 279.254 514.084C249.126 514.084 224.703 519.399 224.703 525.954C224.703 532.51 249.126 537.824 279.254 537.824C291.937 537.824 303.61 536.882 312.875 535.302Z" fill="url(#paint1_radial)"/>
</g>
<path d="M287.448 256C287.448 256 260.673 265.687 272.31 294.663C283.82 323.99 313.343 310.586 313.343 310.586L287.448 256Z" fill="url(#paint2_linear)"/>
<g style="mix-blend-mode:multiply" filter="url(#filter2_f)">
<g style="mix-blend-mode:multiply">
<path d="M373.775 630.862L268.85 586.934L318.417 573.937L421.138 616.026L373.775 630.862Z" fill="url(#paint3_linear)"/>
</g>
<path d="M394.922 576.614L278.764 544.308L324.354 523.812L440.434 556.196L394.922 576.614Z" fill="url(#paint4_linear)"/>
<path d="M538.845 622.117L422.969 575.634L482.558 557.061L610.662 606.255L538.845 622.117Z" fill="url(#paint5_linear)"/>
<path d="M457.263 646.303L469.958 643.867L420.065 626.206L488.25 613.18L478.968 609.898L398.156 625.36L457.263 646.303Z" fill="url(#paint6_radial)"/>
</g>
<path d="M290.722 268.946C288.167 263.559 281.683 260.983 277.604 265.331C273.291 269.928 269.884 277.531 274.569 289.196C279.219 301.043 287.689 303.827 294.687 303.799C301.153 303.773 303.869 296.658 301.098 290.816L290.722 268.946Z" fill="url(#paint7_linear)"/>
<path d="M444.663 277.212C416.104 310.171 420.415 319.442 442.816 337.22C514.21 389.404 541.082 479.25 527.225 517.155C519.967 536.951 483.015 545.749 419.082 545.749C355.149 545.749 327.068 536.365 320.763 517.155C310.571 486.069 332.42 428.817 372.965 347.068C376.777 339.37 379.121 327.585 357.495 329.105C335.868 330.626 300.171 319.874 288.544 292.323C274.919 257.338 278.938 198.908 353.606 182.552C428.275 166.197 473.222 244.252 444.663 277.212Z" fill="url(#paint8_linear)"/>
<path opacity="0.5" fill-rule="evenodd" clip-rule="evenodd" d="M388.672 445.543C391.91 444.958 396.222 445.517 400.382 446.653L404.029 428.044C404.616 424.818 418.619 427.53 417.96 430.756L414.646 447.665C416.4 447.356 417.728 447.212 418.445 447.135C421.403 446.816 424.853 449.347 422.624 454.1C421.293 456.937 418.476 458.49 415.607 460.072L415.606 460.073C414.75 460.545 413.888 461.02 413.061 461.532C413.975 462.155 414.766 462.83 415.377 463.557C418.188 466.907 415.377 471.522 412.419 469.884C411.932 469.616 411.261 469.327 410.459 469.03L410.228 470.211C410.697 470.439 411.158 470.677 411.606 470.926C417.152 473.978 414.638 481.571 409.387 479.338C409.094 479.215 408.802 479.093 408.51 478.974L408.297 480.061C408.521 480.213 408.737 480.369 408.943 480.529C412.863 483.507 409.387 489.015 404.95 487.452C404.428 487.262 403.929 487.074 403.451 486.893L403.448 486.892L403.445 486.89C403.047 486.74 402.664 486.595 402.291 486.459C402.312 487.735 402.695 489.237 403.858 490.432C405.417 492.034 407.027 494.005 406.595 496.198L395.449 552.822L381.519 550.109L380.913 548.316L390.372 504.506C389.246 505.476 387.946 506.369 386.459 507.165C366.409 517.874 348.27 524.879 332.05 528.931C327.425 525.317 324.427 521.079 322.829 516.21C320.301 508.498 319.744 499.514 320.956 489.115C332.28 486.191 343.844 480.69 358.698 473.626C362.294 471.915 366.084 470.113 370.109 468.233C370.878 467.876 371.653 467.599 372.431 467.397C374.856 457.132 381.174 446.915 388.672 445.543Z" fill="#FB4A38"/>
<path opacity="0.4" d="M473.955 384.571C471.377 371.057 475.738 371.186 482.174 380.018C516.667 420.034 536.741 476.43 524.771 509.556C517.782 528.838 462.782 543.848 375.04 534.868C350.667 531.277 404.287 524.093 439.179 502.542C474.071 480.992 486.645 450.365 473.955 384.571Z" fill="#F95744"/>
<path d="M385.696 565.58L278.359 537.059L321.25 517.776L428.587 546.37L385.696 565.58Z" fill="url(#paint9_linear)"/>
<path opacity="0.5" fill-rule="evenodd" clip-rule="evenodd" d="M292.753 530.595C308.504 531.862 331.381 529.202 346.863 524.592L321.251 517.776L292.753 530.595Z" fill="#80492D"/>
<path d="M385.697 565.578L278.36 537.058V544.316L385.77 572.91L385.697 565.578Z" fill="#CF8A63"/>
<path d="M385.697 565.577L428.588 546.294V553.553L385.77 572.909L385.697 565.577Z" fill="#6C4334"/>
<path d="M401.342 539.113L390.249 545.111L385.262 534.827L401.342 539.113Z" fill="#80492D"/>
<path d="M436.775 282.814C427.587 293.672 420.144 303.213 421.171 313.974C422.231 324.824 434.814 336.053 447.445 345.171C456.548 351.742 465.932 358.968 470.82 367.245C420.965 354.906 381.051 356.853 359.056 382.694C361.812 376.479 364.634 369.406 367.616 363.668C375.342 348.805 382.153 337.348 376.849 331.66C371.591 326.021 364.576 326.171 356.642 326.341C353.622 326.406 350.47 326.474 347.23 326.226C322.348 323.948 303.268 313.13 326.979 311.954C353.111 310.806 373.708 304.469 395.492 290.404C417.276 276.339 430.906 247.092 419.163 214.246C416.123 206.829 414.21 192.27 425.215 202.052C449.631 223.238 460.273 256.643 436.775 282.814Z" fill="url(#paint10_linear)"/>
<path opacity="0.55" d="M331.788 194.79C295.259 209.722 287.154 237.807 292.961 267.975C298.768 298.143 326.461 304.536 364.984 288.871C403.506 273.206 425.513 251.401 417.511 225.401C409.509 199.402 368.318 179.858 331.788 194.79Z" fill="url(#paint11_linear)"/>
<path opacity="0.6" fill-rule="evenodd" clip-rule="evenodd" d="M339.454 200.626C336.805 195.974 330.887 194.35 326.234 196.998C310.739 205.82 302.709 214.069 295.44 227.29C292.861 231.982 294.573 237.875 299.264 240.454C303.955 243.034 309.849 241.322 312.428 236.631C317.832 226.801 323.179 221.045 335.825 213.845C340.478 211.197 342.102 205.278 339.454 200.626Z" fill="url(#paint12_linear)"/>
<path d="M366.242 457.777C331.856 473.833 314.7 484.244 287.792 480.065C264.99 476.546 253.406 461.003 268.656 440.62C281.707 423.171 314.014 412.567 345.927 404.537C348.356 399.372 354.205 386.19 357.811 379.03C293.369 392.462 242.702 399.636 227.232 458.07C216.454 498.834 268.656 557.562 382.592 496.708C405.467 484.464 384.058 449.492 366.242 457.777Z" fill="url(#paint13_radial)"/>
<path fill-rule="evenodd" clip-rule="evenodd" d="M355.841 466.17C359.454 464.449 363.243 462.644 367.25 460.773C370.541 459.244 374.092 459.623 377.537 461.534C381.034 463.474 384.236 466.924 386.343 471.048C388.45 475.172 389.32 479.683 388.557 483.674C387.817 487.541 385.503 491.191 380.645 493.792C324.172 523.955 283.795 524.059 259.159 512.503C234.512 500.941 225.099 477.6 230.039 458.915C237.496 430.749 253.301 415.07 275.188 404.66C294.947 395.261 319.507 390.211 347.542 384.446C348.862 384.175 350.189 383.902 351.524 383.627C349.57 387.772 347.441 392.443 345.652 396.367C344.719 398.414 343.878 400.257 343.204 401.717C327.693 405.659 312.027 410.255 298.533 416.005C284.674 421.909 272.676 429.205 265.62 438.64C257.524 449.459 255.982 459.871 260.679 468.279C265.224 476.413 275.004 481.496 286.895 483.332C311.717 487.187 328.847 479.028 355.841 466.17ZM268.267 440.62C253.017 461.003 264.601 476.546 287.403 480.065C311.16 483.755 327.316 476.071 354.441 463.169C358.038 461.459 361.827 459.656 365.853 457.777C383.669 449.492 405.078 484.464 382.203 496.708C268.267 557.562 216.065 498.834 226.842 458.07C241.456 402.87 287.478 393.413 346.85 381.213C348.988 380.773 351.142 380.331 353.314 379.882C354.677 379.6 356.046 379.317 357.422 379.03C356.856 380.153 356.236 381.424 355.582 382.789C353.394 387.356 350.832 392.974 348.716 397.617C347.432 400.434 346.311 402.892 345.538 404.537C313.625 412.567 281.317 423.171 268.267 440.62Z" fill="url(#paint14_linear)"/>
<path d="M344.808 236.554C319.293 247.395 294.734 270.874 302.531 292.577C310.327 314.281 341.709 311.716 370.752 299.483C399.794 287.25 419.286 265.152 409.735 244.83C400.184 224.507 370.322 225.714 344.808 236.554Z" fill="#FFCE94"/>
<path d="M344.794 235.448C319.452 246.085 295.059 269.123 302.803 290.418C310.547 311.714 341.716 309.197 370.562 297.194C399.408 285.191 418.768 263.508 409.281 243.568C399.795 223.627 370.135 224.812 344.794 235.448Z" fill="url(#paint15_linear)"/>
<path opacity="0.35" d="M351.469 294.799C334.761 301.177 322.707 300.48 315.722 300.247C314.915 300.192 314.56 301.071 315.215 301.408C322.799 305.183 337.548 307.641 357.737 301.014C386.204 291.672 404.721 275.85 408.938 260.727C415.962 235.632 372.737 218.19 383.071 243.657C397.696 270.376 369.263 288.071 351.469 294.799Z" fill="url(#paint16_linear)"/>
<path opacity="0.5" d="M339.976 268.993C354.383 258.981 362.236 246.607 359.275 241.835C356.315 237.063 342.403 237.531 328.567 246.81C314.73 256.089 310.753 267.387 313.763 272.501C316.856 277.579 325.525 278.903 339.976 268.993Z" fill="#F0F6FF"/>
<path d="M376.184 257.812C376.102 260.871 378.498 263.598 381.557 263.763C384.615 263.846 387.342 261.449 387.508 258.391C387.59 255.333 385.193 252.605 382.135 252.44C379.077 252.192 376.35 254.672 376.184 257.812Z" fill="#8493AD"/>
<path d="M386.682 257.149C386.764 259.959 384.615 262.439 381.723 262.604C378.912 262.687 376.433 260.538 376.267 257.645C376.185 254.835 378.334 252.355 381.227 252.19C384.037 252.107 386.516 254.339 386.682 257.149Z" fill="#2B3760"/>
<path d="M381.557 254.009C382.218 254.753 381.805 256.075 380.648 257.067C379.573 258.059 378.168 258.224 377.507 257.48C376.846 256.737 377.259 255.414 378.416 254.422C379.573 253.348 380.896 253.265 381.557 254.009Z" fill="#364D98"/>
<path d="M379.904 254.587C380.07 254.835 379.904 255.331 379.491 255.744C379.078 256.075 378.582 256.157 378.334 255.992C378.169 255.661 378.334 255.248 378.747 254.835C379.16 254.421 379.739 254.339 379.904 254.587Z" fill="#C3D8F8"/>
<path d="M379.243 258.638C378.582 258.886 377.921 259.629 378.417 260.291C379.243 261.117 380.318 261.613 381.558 261.53C383.789 261.448 385.608 259.464 385.442 257.232C385.36 256.241 385.112 255.414 384.45 254.836C383.955 254.174 382.963 254.918 382.632 255.662C382.384 256.323 381.806 257.067 381.144 257.563C380.648 258.142 379.987 258.555 379.243 258.638Z" fill="#1B244A"/>
<path d="M322.564 281.057C322.481 284.115 324.878 286.843 327.937 287.008C330.995 287.091 333.722 284.694 333.888 281.636C333.97 278.577 331.573 275.85 328.515 275.685C325.457 275.437 322.729 277.916 322.564 281.057Z" fill="#8493AD"/>
<path d="M333.064 280.394C333.146 283.204 330.997 285.684 328.104 285.849C325.294 285.932 322.815 283.783 322.649 280.89C322.567 278.08 324.716 275.6 327.608 275.435C330.419 275.352 332.898 277.584 333.064 280.394Z" fill="#2B3760"/>
<path d="M327.937 277.254C328.598 277.997 328.185 279.32 327.028 280.312C325.953 281.304 324.548 281.469 323.887 280.725C323.226 279.981 323.639 278.659 324.796 277.667C325.953 276.592 327.276 276.51 327.937 277.254Z" fill="#364D98"/>
<path d="M326.284 277.831C326.449 278.079 326.284 278.575 325.87 278.989C325.457 279.319 324.961 279.402 324.713 279.236C324.548 278.906 324.713 278.493 325.127 278.079C325.54 277.666 326.118 277.583 326.284 277.831Z" fill="#C3D8F8"/>
<path d="M325.623 281.882C324.962 282.13 324.301 282.874 324.797 283.535C325.623 284.362 326.698 284.858 327.937 284.775C330.169 284.692 331.987 282.709 331.822 280.477C331.74 279.485 331.492 278.659 330.83 278.08C330.334 277.419 329.343 278.163 329.012 278.907C328.764 279.568 328.185 280.312 327.524 280.808C327.028 281.386 326.367 281.8 325.623 281.882Z" fill="#1B244A"/>
<path opacity="0.8" d="M381.893 277.749C371.162 277.749 362.463 269.05 362.463 258.32C362.463 247.589 371.162 238.891 381.893 238.891C392.623 238.891 401.322 247.589 401.322 258.32C401.322 269.05 392.623 277.749 381.893 277.749Z" fill="url(#paint17_linear)"/>
<g style="mix-blend-mode:multiply" opacity="0.45">
<path d="M404.454 257.977C403.795 246.319 393.823 237.448 382.239 238.034C370.582 238.694 361.71 248.665 362.297 260.25C362.957 271.907 372.928 280.779 384.512 280.192C396.17 279.605 405.041 269.561 404.454 257.977ZM401.082 258.123C401.595 267.948 394.117 276.306 384.292 276.893C374.468 277.406 366.109 269.928 365.523 260.103C364.936 250.278 372.488 241.92 382.313 241.334C392.137 240.82 400.569 248.372 401.082 258.123Z" fill="#6A81A4"/>
<path d="M346.932 273.992C346.66 273.992 346.456 273.992 346.185 273.857C345.438 273.517 345.03 272.566 345.438 271.82C351.074 259.19 363.432 263.671 363.5 263.739C364.314 264.011 364.722 264.961 364.382 265.708C364.111 266.523 363.16 266.931 362.413 266.591C362.006 266.455 352.703 263.06 348.222 273.042C348.018 273.653 347.475 273.992 346.932 273.992Z" fill="#6A81A4"/>
<path d="M350.935 280.716C350.276 269.058 340.304 260.187 328.72 260.774C317.063 261.433 308.191 271.405 308.778 282.989C309.438 294.646 319.409 303.518 330.993 302.931C342.651 302.271 351.595 292.3 350.935 280.716ZM347.636 280.863C348.149 290.687 340.671 299.045 330.846 299.632C321.022 300.145 312.664 292.667 312.077 282.842C311.491 273.018 319.042 264.659 328.867 264.073C338.691 263.56 347.05 271.111 347.636 280.863Z" fill="#6A81A4"/>
</g>
<path d="M403.008 257.15C402.348 245.492 392.377 236.621 380.793 237.207C369.135 237.867 360.264 247.838 360.85 259.422C361.51 271.08 371.482 279.951 383.066 279.365C394.723 278.778 403.595 268.734 403.008 257.15ZM399.636 257.296C400.149 267.121 392.67 275.479 382.846 276.066C373.021 276.579 364.663 269.1 364.076 259.276C363.49 249.451 371.042 241.093 380.866 240.506C390.691 239.993 399.122 247.545 399.636 257.296Z" fill="#0C7ADF"/>
<path d="M345.618 273.164C345.324 273.164 345.104 273.164 344.811 273.018C344.005 272.651 343.565 271.624 344.005 270.818C350.09 257.181 363.434 262.02 363.507 262.093C364.387 262.386 364.827 263.413 364.46 264.219C364.167 265.099 363.14 265.539 362.334 265.173C361.894 265.026 351.85 261.36 347.011 272.138C346.791 272.798 346.204 273.164 345.618 273.164Z" fill="#0C7ADF"/>
<path d="M328.448 300.415C317.718 300.415 309.019 291.716 309.019 280.985C309.019 270.255 317.718 261.556 328.448 261.556C339.179 261.556 347.877 270.255 347.877 280.985C347.877 291.716 339.179 300.415 328.448 300.415Z" fill="url(#paint18_linear)"/>
<path d="M349.49 279.886C348.83 268.228 338.859 259.357 327.274 259.943C315.617 260.603 306.745 270.575 307.332 282.159C307.992 293.816 317.963 302.688 329.547 302.101C341.205 301.441 350.149 291.47 349.49 279.886ZM346.19 280.033C346.704 289.857 339.225 298.215 329.401 298.802C319.576 299.315 311.218 291.837 310.631 282.012C310.045 272.188 317.596 263.829 327.421 263.243C337.246 262.73 345.604 270.281 346.19 280.033Z" fill="#0C7ADF"/>
<path fill-rule="evenodd" clip-rule="evenodd" d="M453.054 256.076C451.177 256.921 449.133 257.658 446.913 258.273C445.867 258.563 444.702 258.421 443.881 257.712C434.718 249.802 429.553 220.383 434.045 205.679C447.821 220.432 454.875 239.344 453.054 256.076Z" fill="#F76049"/>
<path d="M427.082 200.921C426.582 201.107 426.116 201.4 425.778 201.813C417.205 212.301 431.42 251.249 444.364 258.131C445.322 258.641 446.489 258.522 447.444 258.007C484.805 237.897 454.98 190.515 427.082 200.921Z" fill="url(#paint19_linear)"/>
<path d="M433.749 201.42C429.697 201.577 425.978 204.292 425.566 208.326C424.784 215.995 428.685 228.247 433.822 236.671C438.114 243.71 447.746 244.311 452.739 237.749C464.188 222.699 449.799 200.799 433.749 201.42Z" fill="url(#paint20_linear)"/>
<path d="M358.722 615.776L261.555 576.055L304.094 563.168L401.183 602.95L358.722 615.776Z" fill="#966047"/>
<path d="M358.717 615.766L261.554 576.053V582.914L358.717 622.696V615.766Z" fill="url(#paint21_linear)"/>
<path d="M358.708 615.776L401.174 602.953V609.814L358.708 622.706V615.776Z" fill="#6C4334"/>
<path d="M347.704 609.9L244.901 567.875L264.684 561.888L367.405 603.977L347.704 609.9Z" fill="url(#paint22_linear)"/>
<path d="M347.699 609.889L244.9 567.873V572.927L347.699 615.018V609.889Z" fill="url(#paint23_linear)"/>
<path d="M347.689 609.901L367.401 603.977V609.008L347.689 615.005V609.901Z" fill="#6C4334"/>
<path opacity="0.5" fill-rule="evenodd" clip-rule="evenodd" d="M400.12 355.46L381.791 409.642C381.131 411.548 382.157 413.601 384.063 414.334L420.136 426.505C422.408 427.238 424.901 425.991 425.708 423.719L430.748 408.786C432.326 409.915 434.579 410.441 436.867 409.514C437.905 409.104 438.96 408.489 440.009 407.736L440.874 408.028C440.648 408.206 440.436 408.36 440.24 408.488C437.454 410.394 441.706 414.72 445.665 413.18C447.03 412.669 448.295 411.875 449.454 410.928L449.924 411.087C448.099 412.626 451.485 416.302 455.71 415.013C456.667 414.714 457.524 414.347 458.304 413.919L492.72 425.552C496.826 426.945 501.225 424.745 502.618 420.639C504.011 416.534 501.811 412.134 497.706 410.741L488.645 407.679C493.984 406.823 499.115 405.868 504.044 404.82C496.077 391.953 486.323 379.278 474.756 367.425C471.261 367.851 467.651 368.255 463.912 368.653C461.302 368.937 459.155 369.879 457.443 371.299C456.555 371.224 455.655 371.298 454.757 371.536C452.035 372.266 446.25 372.996 442.948 372.638L443.451 371.15C444.184 369.097 443.231 366.751 441.251 365.798L420.869 355.753C418.983 354.81 416.881 354.226 414.778 354.001C414.756 353.998 414.735 353.996 414.714 353.994L414.71 353.993L403.932 352.967C402.246 352.82 400.633 353.847 400.12 355.46Z" fill="#FB4A38"/>
<path d="M368.03 478.079C371.702 488.331 379.485 494.92 385.415 492.796C391.346 490.672 393.177 480.64 389.505 470.388C385.833 460.136 378.05 453.547 372.119 455.671C366.189 457.794 364.358 467.827 368.03 478.079Z" fill="#F16F56"/>
<path d="M460.8 364.37C501.491 360.044 526.932 354.912 555.233 329.251C572.316 313.781 568.283 290.246 539.47 300.437C522.387 306.449 495.849 336.059 461.61 358.201C447.022 368.221 435.139 351.319 444.816 343.841C501.418 299.924 538.736 239.876 589.619 276.462C623.858 301.097 617.081 388.424 470.258 405.501C448.389 409.188 440.354 366.597 460.8 364.37Z" fill="url(#paint24_linear)"/>
<path d="M459.257 403.094C462.339 405.202 466.041 406.212 470.258 405.501C617.081 388.423 623.858 301.096 589.619 276.462C586.741 274.393 583.907 272.633 581.11 271.161C583.067 272.306 585.042 273.593 587.039 275.028C621.278 299.663 614.5 386.99 467.677 404.067C464.579 404.59 461.758 404.183 459.257 403.094Z" fill="url(#paint25_linear)"/>
<path d="M451.244 388.747C454.192 399.362 461.779 406.525 468.188 404.744C474.598 402.964 477.403 392.915 474.454 382.299C471.506 371.684 463.919 364.521 457.51 366.302C451.1 368.082 448.295 378.131 451.244 388.747Z" fill="#F16F56"/>
<path d="M386.202 450.666C396.931 441.177 410.303 439.721 413.261 439.403C416.219 439.084 419.67 441.615 417.44 446.368C415.211 451.121 408.807 452.271 404.976 455.993C401.145 459.714 399.9 464.981 394.96 469.402C384.573 478.697 375.473 460.155 386.202 450.666Z" fill="url(#paint26_linear)"/>
<path d="M398.17 372.311L492.75 404.278C496.856 405.671 499.055 410.07 497.662 414.175C496.269 418.281 491.87 420.481 487.764 419.088L393.185 387.121L398.17 372.311Z" fill="url(#paint27_linear)"/>
<path d="M430.079 373.461C430.079 373.461 431.252 374.56 433.305 376.173C436.751 378.886 423.701 388.931 420.695 392.523C417.689 396.116 419.668 401.908 424.507 401.028C434.992 398.975 442.323 388.564 445.109 385.485C445.403 385.191 445.843 385.411 445.549 385.705C442.763 389.077 437.264 396.042 431.619 398.829C426.56 401.321 432.132 408.287 437.924 405.94C443.863 403.594 450.388 394.503 453.028 391.643C453.248 391.423 453.614 391.717 453.394 391.937C450.682 395.163 444.23 403.008 441.297 404.914C438.511 406.82 442.763 411.146 446.722 409.606C452.588 407.407 456.62 400.002 458.233 397.582C458.38 397.289 458.747 397.509 458.6 397.729C456.84 400.661 453.248 406.014 451.122 407.407C448.995 408.873 452.441 412.759 456.767 411.439C461.459 409.973 463.732 406.893 466.372 402.861C468.425 399.708 469.964 395.603 470.697 391.497C473.044 378.446 464.392 365.689 455.814 367.962C452.808 368.768 446.063 369.575 443.057 368.915C438.658 367.888 433.672 367.888 430.079 373.461Z" fill="#C1D8E3"/>
<path fill-rule="evenodd" clip-rule="evenodd" d="M452.18 406.52C451.802 406.892 451.445 407.195 451.122 407.406C448.996 408.873 452.442 412.759 456.768 411.439C461.46 409.973 463.733 406.893 466.372 402.861C467.279 401.468 468.086 399.889 468.768 398.206C466.466 402.348 461.196 408.126 457.473 408.705C453.662 409.298 452.382 407.576 452.18 406.52Z" fill="#B3CBD6"/>
<path fill-rule="evenodd" clip-rule="evenodd" d="M442.029 404.378C441.766 404.589 441.521 404.769 441.297 404.915C438.511 406.821 442.764 411.147 446.723 409.607C451.863 407.68 455.596 401.753 457.526 398.689C457.778 398.29 457.999 397.938 458.188 397.651C457.149 398.867 450.611 406.313 445.849 407.046C443.208 407.452 442.025 405.386 442.029 404.378Z" fill="#B3CBD6"/>
<path fill-rule="evenodd" clip-rule="evenodd" d="M431.518 398.879C430.988 401.178 432.541 404.092 437.601 403.446C442.32 402.844 451.204 393.591 452.817 391.874C452.309 392.442 451.681 393.199 450.957 394.07C447.742 397.941 442.647 404.074 437.924 405.94C432.171 408.27 426.635 401.414 431.518 398.879ZM453.058 391.616C453.067 391.606 453.072 391.601 453.072 391.601C453.07 391.604 453.068 391.607 453.067 391.61C453.064 391.612 453.061 391.614 453.058 391.616ZM450.877 394.932C449.159 396.963 447.091 399.359 445.209 401.339C447.245 399.459 449.2 397.236 450.877 394.932Z" fill="#B3CBD6"/>
<path fill-rule="evenodd" clip-rule="evenodd" d="M428.852 399.662C435.729 396.678 440.865 390.532 443.738 387.093C444.223 386.513 444.643 386.009 444.997 385.611C445.014 385.583 445.03 385.556 445.046 385.528C445.046 385.528 434.004 396.141 428.801 396.806C423.598 397.47 422.104 394.37 422.768 392.045C422.768 392.045 420.72 392.654 420.249 394.315C419.779 395.975 421.531 399.669 425.978 400.016C426.858 400.085 427.827 399.956 428.852 399.662Z" fill="#B3CBD6"/>
<path fill-rule="evenodd" clip-rule="evenodd" d="M471.045 388.553C463.211 390.634 449.563 387.124 434.557 372.118C433.958 371.519 433.392 370.934 432.859 370.364C436.015 367.947 439.706 368.133 443.057 368.915C446.063 369.575 452.808 368.768 455.814 367.962C463.744 365.861 471.738 376.606 471.045 388.553Z" fill="url(#paint28_linear)"/>
<path d="M379.123 403.593L397.452 349.411C397.965 347.798 399.578 346.772 401.265 346.918L412.042 347.945C414.169 348.165 416.295 348.751 418.201 349.704L438.583 359.749C440.563 360.702 441.516 363.048 440.783 365.101L423.04 417.67C422.234 419.943 419.741 421.189 417.468 420.456L381.396 408.285C379.489 407.552 378.463 405.499 379.123 403.593Z" fill="url(#paint29_linear)"/>
<path d="M379.124 403.592L397.453 349.41C397.966 347.798 399.579 346.771 401.266 346.918L412.043 347.944C413.656 348.091 414.756 349.777 414.243 351.317L394.52 409.898C394.08 411.291 392.614 412.024 391.221 411.511L381.47 408.211C379.49 407.551 378.464 405.499 379.124 403.592Z" fill="url(#paint30_linear)"/>
<path fill-rule="evenodd" clip-rule="evenodd" d="M381.076 404.268L381.081 404.254L399.41 350.073C399.414 350.061 399.418 350.049 399.422 350.037C399.628 349.389 400.314 348.912 401.08 348.976L411.856 350.002C411.972 350.013 412.108 350.081 412.21 350.237C412.311 350.392 412.321 350.546 412.283 350.662C412.283 350.662 412.283 350.663 412.283 350.663L392.562 409.238C392.558 409.251 392.554 409.263 392.55 409.275C392.501 409.43 392.41 409.519 392.315 409.565C392.223 409.61 392.096 409.631 391.935 409.572C391.918 409.565 391.901 409.559 391.883 409.553L382.123 406.251C381.197 405.942 380.806 405.05 381.076 404.268ZM414.243 351.317C414.756 349.777 413.656 348.091 412.043 347.944L401.266 346.918C399.579 346.771 397.966 347.798 397.453 349.41L379.124 403.592C378.464 405.499 379.49 407.551 381.47 408.211L391.221 411.511C392.614 412.024 394.08 411.291 394.52 409.898L414.243 351.317Z" fill="url(#paint31_radial)"/>
<path d="M391.462 385.292L395.861 372.242C396.008 371.802 396.521 371.509 396.961 371.582L400.06 372.265C400.646 372.412 401.013 372.999 400.793 373.585L396.321 386.929C396.174 387.442 395.587 387.736 395.074 387.589L392.049 386.685C391.535 386.392 391.242 385.806 391.462 385.292Z" fill="url(#paint32_linear)"/>
<path d="M388.142 474.933L402.072 477.646L412.777 423.024C413.437 419.799 399.433 417.086 398.846 420.312L388.142 474.933Z" fill="url(#paint33_linear)"/>
<path d="M376.336 542.378L390.266 545.091L401.412 488.468C401.843 486.274 400.234 484.303 398.675 482.701C397.104 481.087 396.956 478.912 397.201 477.491C396.009 477.503 395.034 478.377 394.402 479.389C393.845 480.282 393.067 480.984 392.16 481.453C390.214 482.458 388.009 483.717 387.546 485.858L375.729 540.585L376.336 542.378Z" fill="url(#paint34_linear)"/>
<path d="M487.653 594.566L420.779 567.944C421.968 555.424 430.05 543.539 440.905 536.329C448.115 531.495 458.891 530.545 460.713 531.02C478.541 535.853 504.53 543.143 522.2 548.135C504.293 551.859 491.536 573.648 487.653 594.566Z" fill="url(#paint35_linear)"/>
<path fill-rule="evenodd" clip-rule="evenodd" d="M420.586 555.441L492.58 583.388L493.218 581.745L421.224 553.798L420.586 555.441Z" fill="#663E30"/>
<path fill-rule="evenodd" clip-rule="evenodd" d="M428.265 544.129L500.866 571.393L501.486 569.743L428.885 542.479L428.265 544.129Z" fill="#663E30"/>
<path fill-rule="evenodd" clip-rule="evenodd" d="M435.095 533.124L508.699 556.681L509.236 555.003L435.633 531.446L435.095 533.124Z" fill="#663E30"/>
<path d="M419.17 566.45C419.17 566.45 419.193 553.048 433.297 539.182C444.865 527.851 458.415 528.723 459.762 528.802C461.109 528.881 463.181 530.195 463.498 531.78C462.489 531.502 460.583 530.997 460.583 530.997C458.396 530.741 446.926 531.258 437.576 538.786C428.226 546.313 422.913 556.695 421.408 567.313C420.726 567.049 419.17 566.45 419.17 566.45Z" fill="url(#paint36_linear)"/>
<path d="M452.789 526.98C454.929 527.534 457.738 528.144 460.194 528.857C455.172 528.588 447.005 529.357 439.636 534.269C428.8 541.519 420.726 553.371 419.261 565.826C419.218 566.188 419.428 566.532 419.767 566.667L486.172 593.089C486.651 593.28 487.185 592.986 487.285 592.48C491.291 572.184 503.457 551.388 520.535 546.709C521.565 546.392 522.754 546.472 523.784 546.709C534.718 549.799 542.246 551.939 542.246 551.939C516.653 548.135 501.041 565.69 493.041 604.551L410.795 571.827C410.795 539.737 437.973 521.988 452.789 526.98Z" fill="url(#paint37_linear)"/>
<path fill-rule="evenodd" clip-rule="evenodd" d="M452.323 528.495L452.363 528.506C462.594 531.362 472.826 534.199 483.057 537.036C498.818 541.406 514.576 545.775 530.314 550.21C522.415 551.318 515.613 554.967 509.882 561.171C501.756 569.967 495.893 583.784 491.878 602.383L412.39 570.756C412.684 555.7 419.159 544.038 427.299 536.673C435.719 529.054 445.632 526.241 452.283 528.482L452.323 528.495ZM410.795 571.827L493.041 604.551C493.15 604.022 493.26 603.497 493.371 602.977C500.626 569.143 513.851 551.953 534.683 551.442C537.1 551.383 539.62 551.549 542.246 551.939C539.793 551.242 537.341 550.547 534.887 549.854C517.767 545.016 500.62 540.261 483.474 535.507C473.244 532.671 463.014 529.834 452.789 526.98C437.973 521.988 410.795 539.737 410.795 571.827Z" fill="url(#paint38_linear)"/>
<path d="M561.658 588.148L493.041 604.55C493.041 604.55 501.043 550.75 534.084 550.75C563.164 550.75 561.658 588.148 561.658 588.148Z" fill="#5A8A9F"/>
<path fill-rule="evenodd" clip-rule="evenodd" d="M561.658 588.148L493.041 604.55C493.041 604.55 493.135 603.919 493.344 602.795C495.067 593.532 504.62 550.75 534.084 550.75C563.164 550.75 561.658 588.148 561.658 588.148ZM495.089 602.378C495.368 600.942 495.794 598.935 496.395 596.542C497.646 591.559 499.65 584.935 502.661 578.329C508.746 564.98 518.604 552.386 534.084 552.386C540.968 552.386 545.936 554.586 549.574 557.817C553.245 561.077 555.658 565.475 557.231 569.988C558.801 574.495 559.503 579.027 559.809 582.45C559.962 584.158 560.015 585.578 560.03 586.566C560.031 586.667 560.032 586.763 560.033 586.854L495.089 602.378Z" fill="url(#paint39_linear)"/>
<path d="M553.259 581.81C552.625 576.026 550.723 568.261 546.128 563.507C543.117 560.417 539.234 558.911 534.084 558.911C521.49 558.883 515.385 566.28 508.65 580.78C506.822 584.716 505.431 588.653 504.31 592.257C504.123 592.859 504.664 593.432 505.278 593.285L553.259 581.81Z" fill="url(#paint40_linear)"/>
<path d="M550.708 582.511C550.074 576.727 548.172 568.962 543.577 564.208C540.566 561.118 536.683 559.612 531.533 559.612C521.391 559.612 515.384 566.281 508.649 580.781C506.821 584.718 505.43 588.655 504.309 592.26C504.122 592.862 504.662 593.435 505.275 593.289L550.708 582.511Z" fill="#865442"/>
<path fill-rule="evenodd" clip-rule="evenodd" d="M520.28 589.744C517.181 585.351 515.926 579.267 517.342 573.069C518.535 567.844 521.403 563.516 525.09 560.722C518.596 563.159 513.863 569.672 508.703 580.782C506.875 584.719 505.483 588.657 504.363 592.262C504.175 592.864 504.716 593.436 505.329 593.291L520.28 589.744ZM549.425 582.829L550.761 582.512C550.651 581.511 550.504 580.45 550.311 579.356C550.242 579.752 550.162 580.148 550.071 580.545C549.892 581.328 549.676 582.09 549.425 582.829Z" fill="#6C4334"/>
<path d="M375.694 540.608L389.624 543.321L400.606 488.811C401.049 486.613 399.436 484.63 397.877 483.018C396.319 481.405 396.172 479.238 396.416 477.82L394.303 477.401C393.902 479.19 392.792 480.552 391.345 481.317C389.39 482.35 387.162 483.644 386.726 485.813L375.694 540.608Z" fill="url(#paint41_linear)"/>
<path d="M362.465 588.857L255.128 560.336L270.638 553.322L377.902 581.916L362.465 588.857Z" fill="url(#paint42_linear)"/>
<path d="M362.465 588.857L255.128 560.336V564.976L362.465 593.57L362.465 588.857Z" fill="url(#paint43_linear)"/>
<path d="M362.466 588.856L377.886 581.919V586.578L362.466 593.588V588.856Z" fill="#6C4334"/>
<path opacity="0.5" d="M345.757 404.589C349.43 396.465 353.439 387.932 357.757 378.976C354.434 379.691 351.265 380.386 351.265 380.386C348.22 387.459 345.702 395.961 343.014 405.059L342.945 405.292C343.507 405.152 344.124 404.997 344.787 404.831C345.101 404.753 345.424 404.672 345.757 404.589Z" fill="#FB4A38"/>
<path fill-rule="evenodd" clip-rule="evenodd" d="M378.944 245.99C378.366 244.748 376.891 244.21 375.65 244.788C373.749 245.672 372.056 246.948 370.682 248.532C369.309 250.116 368.286 251.973 367.679 253.98C367.284 255.291 368.025 256.675 369.336 257.071C370.647 257.466 372.031 256.725 372.427 255.414C372.831 254.075 373.513 252.837 374.429 251.781C375.345 250.725 376.474 249.874 377.742 249.284C378.983 248.706 379.521 247.231 378.944 245.99Z" fill="url(#paint44_linear)"/>
<path fill-rule="evenodd" clip-rule="evenodd" d="M325.461 268.692C324.884 267.45 323.409 266.912 322.167 267.489C320.266 268.374 318.574 269.65 317.2 271.234C315.827 272.818 314.803 274.675 314.197 276.682C313.801 277.993 314.543 279.376 315.854 279.772C317.165 280.168 318.549 279.426 318.944 278.115C319.349 276.777 320.031 275.539 320.947 274.483C321.863 273.426 322.992 272.575 324.259 271.986C325.501 271.408 326.039 269.933 325.461 268.692Z" fill="url(#paint45_linear)"/>
<path d="M371.934 485.698L376.763 483.102C377.897 482.492 379.161 482.181 380.44 482.029C384.117 481.59 387.493 480.293 388.968 479.197C392.106 476.828 394.608 477.775 398.263 479.158C398.743 479.339 399.242 479.528 399.765 479.718C404.202 481.282 407.678 475.773 403.759 472.796C399.913 469.818 392.74 468.106 388.524 467.957C388.08 467.957 388.006 467.436 388.45 467.436C392.887 467.436 398.36 469.148 404.202 471.605C409.453 473.838 411.968 466.245 406.421 463.193C400.8 460.066 393.257 458.652 389.338 458.28C389.042 458.28 389.042 457.759 389.338 457.759C393.553 457.908 404.128 460.439 407.235 462.151C410.193 463.788 413.003 459.173 410.193 455.823C406.125 450.985 394.071 448.454 391.186 448.231C390.891 448.231 390.891 447.858 391.186 447.858C394.662 447.933 404.572 450.91 406.643 452.399C408.788 453.962 411.228 449.198 408.492 445.625C405.46 441.68 391.326 436.395 383.487 437.809C375.007 439.361 368.037 452.226 366.5 463.68C365.056 471.243 367.586 479.523 371.934 485.698Z" fill="#C1D8E3"/>
<path d="M368.191 456.03C372.702 442.995 379.859 437.822 384.575 437.709C379.759 440.421 380.534 459.739 387.619 476.289C369.132 483.152 364.448 466.846 368.191 456.03Z" fill="url(#paint46_linear)"/>
<path opacity="0.25" fill-rule="evenodd" clip-rule="evenodd" d="M391.282 447.861C394.841 447.987 404.59 450.924 406.642 452.399C408.439 453.709 410.444 450.577 409.437 447.426C409.543 449.065 408.704 450.226 407.035 450.213C405.783 450.204 404.258 449.776 402.482 449.279C399.434 448.425 395.647 447.363 391.234 447.85C391.25 447.854 391.266 447.857 391.282 447.861Z" fill="#87A4B2"/>
<path opacity="0.25" fill-rule="evenodd" clip-rule="evenodd" d="M389.283 457.757C389.298 457.754 389.314 457.752 389.331 457.752C393.546 457.901 404.122 460.432 407.228 462.144C409.842 463.592 412.34 460.156 410.947 457.026C410.921 456.994 410.895 456.963 410.868 456.932C411.184 458.811 410.189 460.187 408.055 460.173C406.565 460.163 404.749 459.724 402.634 459.214C399.005 458.338 394.496 457.25 389.242 457.749C389.256 457.752 389.27 457.755 389.283 457.757Z" fill="#87A4B2"/>
<path opacity="0.25" fill-rule="evenodd" clip-rule="evenodd" d="M398.363 469.993C396.67 469.497 394.686 468.972 392.29 468.378C394.239 468.722 396.366 469.265 398.363 469.993ZM388.535 467.43C392.956 467.453 398.393 469.159 404.195 471.598C408.171 473.289 410.578 469.347 409.105 466.008C409.61 469.011 407.294 469.762 405.298 469.621C404.026 469.532 402.64 469.187 401.051 468.792C397.909 468.011 393.97 467.032 388.535 467.43Z" fill="#87A4B2"/>
<path opacity="0.25" fill-rule="evenodd" clip-rule="evenodd" d="M376.771 483.088L371.928 485.694C371.502 485.088 371.093 484.462 370.703 483.819C373.526 482.358 376.861 480.673 377.601 480.318C382.184 479.812 385.237 478.215 388.278 476.624C388.614 476.448 388.95 476.273 389.287 476.099C392.023 474.689 394.732 475.607 397.276 476.47C398.594 476.916 399.867 477.348 401.076 477.433C403.065 477.573 405.371 476.853 404.853 473.953C406.826 476.986 403.665 481.09 399.759 479.714C399.237 479.524 398.738 479.336 398.26 479.155L398.257 479.153C394.602 477.771 392.1 476.824 388.962 479.193C387.487 480.288 384.123 481.577 380.45 482.014C379.17 482.166 377.905 482.477 376.771 483.088Z" fill="#87A4B2"/>
<path d="M482.199 610.789V607.507L414.014 620.533V623.815L482.199 610.789Z" fill="url(#paint47_linear)"/>
<path d="M451.212 640.63L463.907 638.194L414.014 620.533L482.199 607.507L472.917 604.225L392.105 619.687L451.212 640.63Z" fill="url(#paint48_linear)"/>
<path fill-rule="evenodd" clip-rule="evenodd" d="M463.907 638.194L451.212 640.63L392.105 619.687L472.917 604.225L482.199 607.507L414.014 620.533L463.907 638.194ZM478.836 607.252L410.653 620.278L460.551 637.941L451.281 639.72L395.463 619.942L472.848 605.135L478.836 607.252Z" fill="url(#paint49_radial)"/>
<path d="M451.247 643.877L451.212 640.629L392.105 619.686V622.934L451.247 643.877Z" fill="url(#paint50_linear)"/>
<path d="M463.907 641.476V638.194L451.212 640.63L451.246 643.878L463.907 641.476Z" fill="#3B566B"/>
<path opacity="0.64" d="M444.703 222.709C430.66 195.254 397.045 172.821 353.001 182.552C281.003 198.458 275.254 254.154 287.417 289.383C289.09 290.981 290.862 292.499 292.724 293.934C292.314 293.028 291.92 292.091 291.546 291.122C285.017 274.215 282.782 251.764 290.949 231.707C299.038 211.844 317.559 193.766 353.702 185.781C389.435 177.887 417.847 191.907 433.969 212.133C439.031 218.483 442.839 225.367 445.3 232.337C445.379 229.129 445.185 225.913 444.703 222.709Z" fill="url(#paint51_linear)"/>
<path d="M221.864 178.138V183.679C221.864 185.464 220.664 187.219 218.294 188.573C213.522 191.282 205.765 191.282 200.963 188.573C198.562 187.219 197.331 185.403 197.362 183.617V178.077C197.362 179.862 198.562 181.678 200.963 183.033C205.765 185.741 213.522 185.741 218.294 183.033C220.664 181.678 221.864 179.924 221.864 178.138Z" fill="#31D097"/>
<path d="M220.232 184.721L220.23 184.722C217.338 186.377 213.512 187.219 209.655 187.219C205.798 187.219 201.964 186.377 199.056 184.722C196.592 183.313 195.249 181.597 194.885 179.895C195.691 181.093 196.927 182.195 198.56 183.128L198.561 183.128C201.655 184.889 205.67 185.756 209.655 185.756C213.639 185.756 217.647 184.89 220.726 183.128C222.334 182.216 223.55 181.137 224.344 179.963C223.991 181.643 222.674 183.337 220.232 184.721Z" fill="url(#paint52_linear)" stroke="#1DC588"/>
<path d="M194.314 176.999C194.314 179.246 195.823 181.493 198.839 183.217C204.842 186.634 214.538 186.634 220.51 183.217C223.465 181.524 224.943 179.338 224.973 177.122V176.599C224.973 178.815 223.496 181.031 220.51 182.724C214.538 186.141 204.842 186.141 198.839 182.724C195.823 181.001 194.314 178.753 194.314 176.506V176.999Z" fill="#6CDBAC"/>
<path d="M220.419 170.381C226.422 173.798 226.452 179.308 220.481 182.694C214.509 186.111 204.813 186.111 198.81 182.694C192.808 179.277 192.777 173.767 198.749 170.381C204.72 166.964 214.417 166.964 220.419 170.381Z" fill="#31D097"/>
<path d="M199.853 181.181C197.668 179.956 196.45 178.448 196.061 176.956C196.809 178.003 197.919 178.965 199.363 179.775C202.226 181.397 205.941 182.194 209.628 182.194C213.316 182.194 217.031 181.397 219.894 179.774L219.894 179.774L219.898 179.772C221.318 178.952 222.407 178.004 223.143 176.978C222.766 178.464 221.557 179.947 219.4 181.183C216.739 182.699 213.213 183.472 209.651 183.472C206.09 183.472 202.548 182.699 199.854 181.181L199.853 181.181Z" fill="url(#paint53_linear)" stroke="#1DC588"/>
<path d="M224.942 170.688V173.15C224.942 175.366 223.465 177.583 220.479 179.276C214.507 182.693 204.811 182.693 198.808 179.276C195.792 177.552 194.283 175.305 194.283 173.058V170.595C194.283 172.842 195.792 175.089 198.808 176.813C204.811 180.23 214.507 180.23 220.479 176.813C223.465 175.12 224.942 172.904 224.942 170.688Z" fill="#31D097"/>
<path d="M194.314 171.12C194.314 173.367 195.823 175.614 198.839 177.338C204.842 180.755 214.538 180.755 220.51 177.338C223.465 175.645 224.943 173.459 224.973 171.243V170.72C224.973 172.936 223.496 175.152 220.51 176.845C214.538 180.262 204.842 180.262 198.839 176.845C195.823 175.122 194.314 172.875 194.314 170.627V171.12Z" fill="#6CDBAC"/>
<path d="M220.419 164.502C226.422 167.918 226.452 173.428 220.481 176.814C214.509 180.231 204.813 180.231 198.81 176.814C192.808 173.398 192.777 167.888 198.749 164.502C204.72 161.085 214.417 161.085 220.419 164.502Z" fill="#31D097"/>
<path d="M199.853 175.3C197.668 174.075 196.45 172.567 196.061 171.075C196.809 172.122 197.919 173.084 199.363 173.894C202.226 175.516 205.941 176.313 209.628 176.313C213.316 176.313 217.031 175.516 219.894 173.893L219.894 173.893L219.898 173.891C221.318 173.071 222.407 172.123 223.143 171.097C222.766 172.583 221.557 174.066 219.4 175.302C216.739 176.818 213.213 177.591 209.651 177.591C206.09 177.591 202.548 176.818 199.854 175.301L199.853 175.3Z" fill="url(#paint54_linear)" stroke="#1DC588"/>
<path d="M224.942 164.81V167.272C224.942 169.488 223.465 171.705 220.479 173.398C214.507 176.815 204.811 176.815 198.808 173.398C195.792 171.674 194.283 169.427 194.283 167.18V164.717C194.283 166.964 195.792 169.211 198.808 170.935C204.811 174.352 214.507 174.352 220.479 170.935C223.465 169.242 224.942 167.026 224.942 164.81Z" fill="#31D097"/>
<path d="M194.314 165.241C194.314 167.488 195.823 169.735 198.839 171.459C204.842 174.876 214.538 174.876 220.51 171.459C223.465 169.766 224.943 167.58 224.973 165.364V164.841C224.973 167.057 223.496 169.273 220.51 170.966C214.538 174.383 204.842 174.383 198.839 170.966C195.823 169.243 194.314 166.996 194.314 164.749V165.241Z" fill="#6CDBAC"/>
<path d="M220.419 158.622C226.422 162.039 226.452 167.549 220.481 170.935C214.509 174.352 204.813 174.352 198.81 170.935C192.808 167.518 192.777 162.008 198.749 158.622C204.72 155.205 214.417 155.205 220.419 158.622Z" fill="#55E2AF"/>
<path d="M209.12 91.2093C190.62 91.4556 175.537 106.323 175.322 124.485C175.198 136.459 181.847 148.433 193.083 154.343C194.683 155.174 195.484 158.253 195.484 160.038L195.453 163.393C195.453 168.103 201.794 171.797 209.613 171.797C217.431 171.797 223.772 167.98 223.772 163.239C223.772 163.147 223.772 163.055 223.772 162.962L223.742 160.038C223.742 158.253 224.573 155.205 226.143 154.343C237.47 148.279 243.904 136.674 243.904 124.854C243.904 106.108 228.297 90.9323 209.12 91.2093Z" fill="url(#paint55_linear)"/>
<path d="M209.613 171.766C217.025 171.766 223.034 168.555 223.034 164.594C223.034 160.632 217.025 157.421 209.613 157.421C202.201 157.421 196.192 160.632 196.192 164.594C196.192 168.555 202.201 171.766 209.613 171.766Z" fill="url(#paint56_linear)"/>
<path opacity="0.75" d="M234.214 104.214C234.549 103.601 235.432 103.57 235.797 104.152C238.264 108.073 241.461 114.841 240.578 122.651C239.055 136.372 231.382 142.712 225.687 145.775C225.017 146.142 224.226 145.56 224.347 144.825C224.713 142.497 224.987 140.2 225.017 138.271C225.017 137.995 225.139 137.75 225.352 137.567C228.519 134.81 231.869 131.38 233.178 125.438C234.579 119.16 232.417 113.8 231.503 110.431C230.864 108.164 232.539 107.246 234.214 104.214Z" fill="url(#paint57_linear)"/>
<path opacity="0.75" d="M182.025 118.876C181.347 118.671 180.928 118.026 181.025 117.381C183.218 104.484 192.153 92.0567 213.797 90.855C196.798 91.5584 186.347 104.162 183.992 117.791C183.863 118.641 182.928 119.169 182.025 118.876Z" fill="url(#paint58_linear)"/>
<defs>
<filter id="filter0_f" x="153" y="162.327" width="340.895" height="401.423" filterUnits="userSpaceOnUse" color-interpolation-filters="sRGB">
<feFlood flood-opacity="0" result="BackgroundImageFix"/>
<feBlend mode="normal" in="SourceGraphic" in2="BackgroundImageFix" result="shape"/>
<feGaussianBlur stdDeviation="9" result="effect1_foregroundBlur"/>
</filter>
<filter id="filter1_f" x="210.634" y="492.461" width="411.647" height="66.9858" filterUnits="userSpaceOnUse" color-interpolation-filters="sRGB">
<feFlood flood-opacity="0" result="BackgroundImageFix"/>
<feBlend mode="normal" in="SourceGraphic" in2="BackgroundImageFix" result="shape"/>
<feGaussianBlur stdDeviation="7.03477" result="effect1_foregroundBlur"/>
</filter>
<filter id="filter2_f" x="261.993" y="520.812" width="355.472" height="128.492" filterUnits="userSpaceOnUse" color-interpolation-filters="sRGB">
<feFlood flood-opacity="0" result="BackgroundImageFix"/>
<feBlend mode="normal" in="SourceGraphic" in2="BackgroundImageFix" result="shape"/>
<feGaussianBlur stdDeviation="1.5" result="effect1_foregroundBlur"/>
</filter>
<linearGradient id="paint0_linear" x1="329" y1="328.999" x2="56.6537" y2="229.142" gradientUnits="userSpaceOnUse">
<stop stop-color="#4BE0D7"/>
<stop offset="1" stop-color="#BAF7C8"/>
</linearGradient>
<radialGradient id="paint1_radial" cx="0" cy="0" r="1" gradientUnits="userSpaceOnUse" gradientTransform="translate(416.457 525.954) rotate(0.0619188) scale(165.655 1635.4)">
<stop offset="0.515993" stop-color="#C1CBDE"/>
<stop offset="1" stop-color="#C1CBDE" stop-opacity="0"/>
</radialGradient>
<linearGradient id="paint2_linear" x1="277.515" y1="262.196" x2="301.338" y2="315.531" gradientUnits="userSpaceOnUse">
<stop stop-color="#BDD3DF"/>
<stop offset="1" stop-color="#8A9AB2"/>
</linearGradient>
<linearGradient id="paint3_linear" x1="370.407" y1="609.625" x2="375.474" y2="628.35" gradientUnits="userSpaceOnUse">
<stop stop-color="#C1CBDE"/>
<stop offset="1" stop-color="#C1CBDE" stop-opacity="0"/>
</linearGradient>
<linearGradient id="paint4_linear" x1="390.454" y1="564.685" x2="391.556" y2="576.801" gradientUnits="userSpaceOnUse">
<stop stop-color="#8CA0C7"/>
<stop offset="1" stop-color="#C1CBDE" stop-opacity="0"/>
</linearGradient>
<linearGradient id="paint5_linear" x1="521.662" y1="578.498" x2="528.491" y2="611.543" gradientUnits="userSpaceOnUse">
<stop stop-color="#C1CBDE"/>
<stop offset="1" stop-color="#C1CBDE" stop-opacity="0"/>
</linearGradient>
<radialGradient id="paint6_radial" cx="0" cy="0" r="1" gradientUnits="userSpaceOnUse" gradientTransform="translate(444.69 618.979) rotate(69.9591) scale(47.9727 118.721)">
<stop stop-color="#C1CBDE"/>
<stop offset="1" stop-color="#C1CBDE" stop-opacity="0"/>
</radialGradient>
<linearGradient id="paint7_linear" x1="289.228" y1="259.447" x2="289.228" y2="303.799" gradientUnits="userSpaceOnUse">
<stop stop-color="#E9F1FA"/>
<stop offset="1" stop-color="#E9F1FA" stop-opacity="0"/>
</linearGradient>
<linearGradient id="paint8_linear" x1="405.547" y1="179.814" x2="405.547" y2="540.26" gradientUnits="userSpaceOnUse">
<stop stop-color="#FF7869"/>
<stop offset="1" stop-color="#FF7E6F"/>
</linearGradient>
<linearGradient id="paint9_linear" x1="373.199" y1="531.495" x2="356.193" y2="561.787" gradientUnits="userSpaceOnUse">
<stop stop-color="#AE7156"/>
<stop offset="1" stop-color="#966047"/>
</linearGradient>
<linearGradient id="paint10_linear" x1="383.193" y1="306.62" x2="400.716" y2="355.685" gradientUnits="userSpaceOnUse">
<stop stop-color="#FD5E4C"/>
<stop offset="1" stop-color="#FD5E4C" stop-opacity="0"/>
</linearGradient>
<linearGradient id="paint11_linear" x1="328.1" y1="199.051" x2="364.201" y2="294.03" gradientUnits="userSpaceOnUse">
<stop stop-color="#FFA98E"/>
<stop offset="1" stop-color="#FEB391" stop-opacity="0.15"/>
</linearGradient>
<linearGradient id="paint12_linear" x1="317.517" y1="205.352" x2="317.517" y2="231.682" gradientUnits="userSpaceOnUse">
<stop stop-color="#FFD1AC"/>
<stop offset="1" stop-color="#FFC08C" stop-opacity="0"/>
</linearGradient>
<radialGradient id="paint13_radial" cx="0" cy="0" r="1" gradientUnits="userSpaceOnUse" gradientTransform="translate(360.466 388.128) rotate(76.5603) scale(87.445 111.057)">
<stop stop-color="#FF6F5E"/>
<stop offset="1" stop-color="#FF8A73"/>
</radialGradient>
<linearGradient id="paint14_linear" x1="282.493" y1="392.335" x2="296.716" y2="417.224" gradientUnits="userSpaceOnUse">
<stop stop-color="#FFBE9A"/>
<stop offset="1" stop-color="#FFAE96" stop-opacity="0"/>
</linearGradient>
<linearGradient id="paint15_linear" x1="355.074" y1="266.799" x2="374.821" y2="317.909" gradientUnits="userSpaceOnUse">
<stop stop-color="#C1D8E3"/>
<stop offset="1" stop-color="#8C9DB4"/>
</linearGradient>
<linearGradient id="paint16_linear" x1="384.795" y1="294.105" x2="354.82" y2="255.916" gradientUnits="userSpaceOnUse">
<stop stop-color="#71819C"/>
<stop offset="1" stop-color="#71819C" stop-opacity="0"/>
</linearGradient>
<linearGradient id="paint17_linear" x1="392.599" y1="273.501" x2="380.139" y2="257.926" gradientUnits="userSpaceOnUse">
<stop stop-color="#F6F8FC"/>
<stop offset="1" stop-color="#F6F8FC" stop-opacity="0"/>
</linearGradient>
<linearGradient id="paint18_linear" x1="336.737" y1="298.214" x2="329.053" y2="285.754" gradientUnits="userSpaceOnUse">
<stop stop-color="#F6F8FC"/>
<stop offset="1" stop-color="#F6F8FC" stop-opacity="0"/>
</linearGradient>
<linearGradient id="paint19_linear" x1="426.319" y1="204.598" x2="451.752" y2="257.476" gradientUnits="userSpaceOnUse">
<stop stop-color="#C1D8E3"/>
<stop offset="1" stop-color="#8493AD"/>
</linearGradient>
<linearGradient id="paint20_linear" x1="431.298" y1="202.108" x2="451.743" y2="241.398" gradientUnits="userSpaceOnUse">
<stop stop-color="#F1F6FF"/>
<stop offset="1" stop-color="#D9E1EF" stop-opacity="0"/>
</linearGradient>
<linearGradient id="paint21_linear" x1="302.621" y1="573.545" x2="339.841" y2="627.915" gradientUnits="userSpaceOnUse">
<stop stop-color="#CF8A63"/>
<stop offset="1" stop-color="#A66B4C"/>
</linearGradient>
<linearGradient id="paint22_linear" x1="250.024" y1="590.934" x2="263.683" y2="558.991" gradientUnits="userSpaceOnUse">
<stop stop-color="#875743"/>
<stop offset="1" stop-color="#A66B4C"/>
</linearGradient>
<linearGradient id="paint23_linear" x1="294.965" y1="568.023" x2="248.702" y2="573.971" gradientUnits="userSpaceOnUse">
<stop stop-color="#CF8A63"/>
<stop offset="1" stop-color="#A66B4C"/>
</linearGradient>
<linearGradient id="paint24_linear" x1="458.262" y1="358.95" x2="474.87" y2="385.899" gradientUnits="userSpaceOnUse">
<stop stop-color="#FF7060"/>
<stop offset="1" stop-color="#FF8A72"/>
</linearGradient>
<linearGradient id="paint25_linear" x1="583.74" y1="385.103" x2="539.298" y2="336.36" gradientUnits="userSpaceOnUse">
<stop stop-color="#FD5E4C"/>
<stop offset="1" stop-color="#FD5E4C" stop-opacity="0"/>
</linearGradient>
<linearGradient id="paint26_linear" x1="414.737" y1="443.523" x2="398.22" y2="450.321" gradientUnits="userSpaceOnUse">
<stop stop-color="#C1D8E3"/>
<stop offset="1" stop-color="#5B7E8E"/>
</linearGradient>
<linearGradient id="paint27_linear" x1="464.557" y1="400.834" x2="460.875" y2="410.858" gradientUnits="userSpaceOnUse">
<stop stop-color="#56869C"/>
<stop offset="1" stop-color="#426677"/>
</linearGradient>
<linearGradient id="paint28_linear" x1="441.199" y1="377.432" x2="464.447" y2="376.325" gradientUnits="userSpaceOnUse">
<stop stop-color="#D9E9F1"/>
<stop offset="1" stop-color="#D9E9F1" stop-opacity="0"/>
</linearGradient>
<linearGradient id="paint29_linear" x1="401.89" y1="348.265" x2="423.165" y2="418.842" gradientUnits="userSpaceOnUse">
<stop stop-color="#92BACC"/>
<stop offset="1" stop-color="#72A5BC"/>
</linearGradient>
<linearGradient id="paint30_linear" x1="406.596" y1="347.856" x2="388.389" y2="408.818" gradientUnits="userSpaceOnUse">
<stop stop-color="#9FCADD"/>
<stop offset="1" stop-color="#8FB8CB"/>
</linearGradient>
<radialGradient id="paint31_radial" cx="0" cy="0" r="1" gradientUnits="userSpaceOnUse" gradientTransform="translate(405.669 381.302) rotate(-160.56) scale(10.9699 25.2957)">
<stop stop-color="#F7FAFC"/>
<stop offset="1" stop-color="#F7FAFC" stop-opacity="0"/>
</radialGradient>
<linearGradient id="paint32_linear" x1="396.123" y1="371.571" x2="396.123" y2="387.627" gradientUnits="userSpaceOnUse">
<stop stop-color="#56869C"/>
<stop offset="1" stop-color="#466D7F"/>
</linearGradient>
<linearGradient id="paint33_linear" x1="410.034" y1="420.851" x2="401.623" y2="459.67" gradientUnits="userSpaceOnUse">
<stop stop-color="#56869C"/>
<stop offset="0.587512" stop-color="#426677"/>
</linearGradient>
<linearGradient id="paint34_linear" x1="400.329" y1="479.513" x2="388.958" y2="545.091" gradientUnits="userSpaceOnUse">
<stop stop-color="#8EB8CB"/>
<stop offset="1" stop-color="#BFD4DD"/>
</linearGradient>
<linearGradient id="paint35_linear" x1="482.89" y1="589.953" x2="461.742" y2="540.606" gradientUnits="userSpaceOnUse">
<stop stop-color="#875743"/>
<stop offset="1" stop-color="#A66B4C"/>
</linearGradient>
<linearGradient id="paint36_linear" x1="441.334" y1="528.756" x2="462.14" y2="548.733" gradientUnits="userSpaceOnUse">
<stop stop-color="#456E81"/>
<stop offset="1" stop-color="#2F3950"/>
</linearGradient>
<linearGradient id="paint37_linear" x1="453.637" y1="526.626" x2="471.287" y2="596.882" gradientUnits="userSpaceOnUse">
<stop stop-color="#80ACC0"/>
<stop offset="1" stop-color="#C6D6DE"/>
</linearGradient>
<linearGradient id="paint38_linear" x1="492.307" y1="604.601" x2="488.915" y2="567.528" gradientUnits="userSpaceOnUse">
<stop stop-color="#FBFCFD"/>
<stop offset="1" stop-color="#FBFCFD" stop-opacity="0"/>
</linearGradient>
<linearGradient id="paint39_linear" x1="494.426" y1="603.014" x2="517.796" y2="595.289" gradientUnits="userSpaceOnUse">
<stop stop-color="white"/>
<stop offset="1" stop-color="#CED7EB" stop-opacity="0"/>
</linearGradient>
<linearGradient id="paint40_linear" x1="528.577" y1="558.911" x2="547.046" y2="580.849" gradientUnits="userSpaceOnUse">
<stop stop-color="#456E81"/>
<stop offset="1" stop-color="#2F3950"/>
</linearGradient>
<linearGradient id="paint41_linear" x1="377.468" y1="542.268" x2="395.26" y2="477.246" gradientUnits="userSpaceOnUse">
<stop stop-color="#91BACD"/>
<stop offset="1" stop-color="#6497AF"/>
</linearGradient>
<linearGradient id="paint42_linear" x1="336.174" y1="541.457" x2="256.21" y2="584.501" gradientUnits="userSpaceOnUse">
<stop stop-color="#A66B4C"/>
<stop offset="1" stop-color="#875743"/>
</linearGradient>
<linearGradient id="paint43_linear" x1="263.92" y1="552.999" x2="357.987" y2="591.771" gradientUnits="userSpaceOnUse">
<stop stop-color="#A66B4C"/>
<stop offset="1" stop-color="#CF8A63"/>
</linearGradient>
<linearGradient id="paint44_linear" x1="381.928" y1="245.878" x2="374.115" y2="261.041" gradientUnits="userSpaceOnUse">
<stop stop-color="white"/>
<stop offset="1" stop-color="white" stop-opacity="0"/>
</linearGradient>
<linearGradient id="paint45_linear" x1="325.313" y1="268.932" x2="317.006" y2="280.77" gradientUnits="userSpaceOnUse">
<stop stop-color="white"/>
<stop offset="1" stop-color="white" stop-opacity="0"/>
</linearGradient>
<linearGradient id="paint46_linear" x1="383.745" y1="444.849" x2="372.019" y2="462.716" gradientUnits="userSpaceOnUse">
<stop stop-color="#DDECF3"/>
<stop offset="1" stop-color="#DDECF3" stop-opacity="0"/>
</linearGradient>
<linearGradient id="paint47_linear" x1="425.416" y1="624.553" x2="469.633" y2="615.483" gradientUnits="userSpaceOnUse">
<stop stop-color="#42677A"/>
<stop offset="1" stop-color="#7BA2B6"/>
</linearGradient>
<linearGradient id="paint48_linear" x1="437.152" y1="604.225" x2="437.152" y2="640.63" gradientUnits="userSpaceOnUse">
<stop stop-color="#80ACC0"/>
<stop offset="1" stop-color="#C6D6DE"/>
</linearGradient>
<radialGradient id="paint49_radial" cx="0" cy="0" r="1" gradientUnits="userSpaceOnUse" gradientTransform="translate(451.209 640.946) rotate(-54.6888) scale(4.1682 10.3152)">
<stop stop-color="#F4F7F9"/>
<stop offset="1" stop-color="#F4F7F9" stop-opacity="0"/>
</radialGradient>
<linearGradient id="paint50_linear" x1="393.67" y1="622.096" x2="448.469" y2="640.803" gradientUnits="userSpaceOnUse">
<stop stop-color="#7097AB"/>
<stop offset="1" stop-color="#52748C"/>
</linearGradient>
<linearGradient id="paint51_linear" x1="315.407" y1="176.863" x2="361.203" y2="247.447" gradientUnits="userSpaceOnUse">
<stop stop-color="#FFD1AC"/>
<stop offset="1" stop-color="#FFD1AC" stop-opacity="0"/>
</linearGradient>
<linearGradient id="paint52_linear" x1="194.292" y1="182.107" x2="224.949" y2="182.107" gradientUnits="userSpaceOnUse">
<stop offset="0.00169477" stop-color="#67748D"/>
<stop offset="0.9976" stop-color="#8695AF"/>
</linearGradient>
<linearGradient id="paint53_linear" x1="195.457" y1="178.77" x2="223.785" y2="178.77" gradientUnits="userSpaceOnUse">
<stop stop-color="#8A98B1"/>
<stop offset="1" stop-color="#546076"/>
</linearGradient>
<linearGradient id="paint54_linear" x1="195.457" y1="172.89" x2="223.785" y2="172.89" gradientUnits="userSpaceOnUse">
<stop stop-color="#8A98B1"/>
<stop offset="1" stop-color="#546076"/>
</linearGradient>
<linearGradient id="paint55_linear" x1="209.612" y1="91.2056" x2="209.612" y2="171.797" gradientUnits="userSpaceOnUse">
<stop stop-color="#EEFFFD"/>
<stop offset="1" stop-color="#E7FAFF" stop-opacity="0"/>
</linearGradient>
<linearGradient id="paint56_linear" x1="209.686" y1="146.088" x2="209.686" y2="171.865" gradientUnits="userSpaceOnUse">
<stop stop-color="#61E8C8" stop-opacity="0"/>
<stop offset="1" stop-color="#8EF5B1"/>
</linearGradient>
<linearGradient id="paint57_linear" x1="237.4" y1="142.548" x2="222.502" y2="104.843" gradientUnits="userSpaceOnUse">
<stop offset="0.016059" stop-color="white"/>
<stop offset="1" stop-color="white" stop-opacity="0"/>
</linearGradient>
<linearGradient id="paint58_linear" x1="206.505" y1="90.9777" x2="183.742" y2="117.295" gradientUnits="userSpaceOnUse">
<stop stop-color="white" stop-opacity="0"/>
<stop offset="0.9839" stop-color="white"/>
</linearGradient>
</defs>
</svg>
