<svg width="760" height="600" viewBox="0 0 760 600" fill="none" xmlns="http://www.w3.org/2000/svg">
<g clip-path="url(#clip0)">
<path d="M567.436 164.036C567.46 150.194 552.478 141.544 540.552 148.399L500.101 171.464C488.598 177.986 487.844 194.294 498.725 201.846L539.184 230.17C551.091 238.546 567.465 229.986 567.529 215.474L567.436 164.036Z" fill="#405985"/>
<path d="M246.5 173.499C246.5 117.499 288.4 72.1992 340.1 72.1992H449.9C501.6 72.1992 543.5 117.599 543.5 173.499V373.699C543.5 429.699 501.6 474.999 449.9 474.999H340.2C288.5 474.999 246.6 429.599 246.6 373.699L246.5 173.499Z" fill="#25395F"/>
<path d="M329.4 360.199C329.4 360.199 324.4 390.399 337 413.299C349.6 436.199 383 428.599 384.5 443.099C409.2 423.199 400.1 376.399 390.3 389.499C380.5 402.499 375.6 402.899 367.5 402.599C349.7 401.999 350.4 362.599 350.4 362.599L329.4 360.199Z" fill="#10C8BD"/>
<path d="M453.6 474.699C502.5 474.699 539.4 434.499 542.6 385.699C519.8 327.299 498.3 244.799 516.5 182.599C518.2 176.899 516.5 174.099 510.7 177.399C502.9 181.799 497.8 185.799 492.7 190.399C492.2 190.899 491.4 190.799 491.6 189.499C493.5 182.199 498.8 152.299 498.9 139.999C498.9 135.499 494.5 136.599 491.7 137.299C479.5 140.199 465.4 145.899 448.5 158.299C447.8 158.799 446.8 158.699 447.2 157.199C449.3 148.199 457.8 118.799 459.5 110.799C460.3 107.199 456.5 104.799 453 106.799C437.1 115.899 418.6 127.699 400.4 163.499C382.4 202.499 371.1 255.099 374.1 319.099C377.1 383.099 386.1 474.499 386.1 474.499H453.6V474.699Z" fill="url(#paint0_linear)"/>
<path d="M434.7 251.9C463.5 253.8 485.3 243.1 485.5 231.3C485.7 219.5 466.1 202.6 438.8 200.3C411.4 198 395.8 211.7 395.5 224.2C395.2 236.7 405.9 250.1 434.7 251.9Z" fill="#10C8BD"/>
<path d="M432.8 252.2C461.3 254.1 482.8 243.4 483 231.6C483.2 219.8 463.9 202.9 436.9 200.6C409.9 198.3 394.5 212 394.1 224.5C393.8 236.9 404.4 250.3 432.8 252.2Z" fill="url(#paint1_linear)"/>
<path d="M454.5 232.7C456.6 232.8 458.4 231.2 458.5 229.1C458.6 227 457 225.2 454.9 225.1C452.8 225 451 226.6 450.9 228.7C450.7 230.8 452.4 232.6 454.5 232.7Z" fill="#067279"/>
<path d="M452.1 229C452.6 229.5 453.6 229.2 454.3 228.4C455 227.6 455.1 226.6 454.6 226.1C454.1 225.6 453.1 225.9 452.4 226.7C451.7 227.5 451.5 228.5 452.1 229Z" fill="#10C8BD"/>
<path d="M452.5 227.8C452.7 228 453.1 227.9 453.3 227.5C453.6 227.2 453.6 226.8 453.4 226.6C453.2 226.4 452.8 226.5 452.6 226.9C452.4 227.2 452.3 227.6 452.5 227.8Z" fill="#D0F3F7"/>
<path opacity="0.61" d="M455.6 227.101C455.7 226.701 456.2 226.301 456.5 226.601C457.2 227.201 457.7 228.101 457.6 229.101C457.5 230.801 456.1 232.101 454.4 232.001C453.6 232.001 452.9 231.601 452.4 231.101C452.1 230.801 452.5 230.201 452.9 230.101C453.5 229.901 454.1 229.501 454.6 228.901C455.2 228.201 455.5 227.601 455.6 227.101Z" fill="#067279"/>
<path d="M401.4 226.9C403.2 227.2 405 225.8 405.3 223.7C405.6 221.6 404.3 219.6 402.5 219.3C400.7 219 398.9 220.4 398.6 222.5C398.3 224.6 399.5 226.5 401.4 226.9Z" fill="#067279"/>
<path d="M399.6 222.9C400 223.4 400.9 223.3 401.6 222.5C402.3 221.8 402.5 220.8 402.1 220.2C401.7 219.7 400.8 219.8 400.1 220.6C399.4 221.3 399.2 222.3 399.6 222.9Z" fill="#10C8BD"/>
<path d="M400.1 221.7C400.3 221.9 400.6 221.8 400.9 221.5C401.2 221.2 401.3 220.8 401.1 220.6C400.9 220.4 400.6 220.5 400.3 220.8C400.1 221.2 400 221.5 400.1 221.7Z" fill="#D0F3F7"/>
<path opacity="0.61" d="M402.9 221.299C403 220.899 403.5 220.599 403.8 220.899C404.4 221.599 404.7 222.499 404.6 223.499C404.4 225.099 403 226.299 401.6 225.999C400.9 225.899 400.3 225.399 399.9 224.799C399.6 224.399 400.1 223.899 400.5 223.799C401 223.699 401.6 223.299 402.1 222.799C402.4 222.399 402.8 221.899 402.9 221.299Z" fill="#067279"/>
<path d="M421 164.699C423.2 165.999 432.5 169.199 448.5 158.699C444.5 161.099 454.5 129.199 458 115.699C450 134.699 414.5 160.699 421 164.699Z" fill="url(#paint2_linear)"/>
<path d="M497 204.199C492 206.199 490.1 196.699 491.4 189.899C492 193.199 499.5 182.199 512.5 176.699C501.5 182.699 499.4 203.199 497 204.199Z" fill="url(#paint3_linear)"/>
<path d="M347.9 308.699L347.8 363.899L401.1 348.299C401.4 348.199 401.6 347.999 401.6 347.699L402.8 295.699L347.9 308.699Z" fill="#98E9F4"/>
<path d="M394.9 343.2C395 343.2 395.1 343 395.1 342.9L396 303.9L354.6 313.8C354.4 313.8 354.3 314 354.3 314.1L354.2 354.7C354.2 354.9 354.4 355.1 354.6 355L394.9 343.2Z" fill="#2EE2D6"/>
<path d="M393.1 341.9C393.2 341.9 393.3 341.7 393.3 341.6L394.2 304.4L354.7 313.8C354.5 313.8 354.4 314 354.4 314.1L354.3 353.3L393.1 341.9Z" fill="#86E0DC"/>
<path d="M347.9 308.7L347.8 363.9L282.4 335C282.3 334.9 282.2 334.8 282.2 334.7V282.4L347.9 308.7Z" fill="#DDFCFF"/>
<path d="M311 338.2C311 338.4 310.7 338.6 310.5 338.5L289.8 328.4C289.7 328.3 289.6 328.2 289.6 328.1L289 292.6C289 292.4 289.2 292.2 289.5 292.3L310.9 300.8C311 300.9 311.1 301 311.1 301.1V338.2H311Z" fill="#98E9F4"/>
<path d="M309.4 300.3L341.2 313C341.3 313.1 341.4 313.2 341.4 313.3L341.3 351.3L309.6 336.7C309.6 336.7 309.5 336.6 309.3 336.6C308.1 336.1 304 334.3 309.4 336.4V335.5L291.7 326.9C291.6 326.8 291.5 326.7 291.5 326.6L290.8 292.9L309.4 300.3Z" fill="#BFF9EC"/>
<path d="M343.6 300.801L290.2 279.501C291.1 269.501 297.6 260.001 306.3 254.301C312.1 250.401 320.7 249.701 322.1 250.101C336.3 254.001 357.1 259.801 371.2 263.801C356.8 266.701 346.7 284.101 343.6 300.801Z" fill="#BFF9EC"/>
<path d="M288.9 278.299C288.9 278.299 288.9 267.599 300.2 256.499C309.4 247.499 320.2 248.099 321.3 248.199C322.4 248.299 324 249.299 324.3 250.599C323.5 250.399 322 249.999 322 249.999C320.3 249.799 311.1 250.199 303.6 256.199C296.1 262.199 291.9 270.499 290.7 278.999C290.1 278.799 288.9 278.299 288.9 278.299Z" fill="#98E9F4"/>
<path d="M315.7 246.8C317.4 247.2 319.6 247.7 321.6 248.3C317.6 248.1 311.1 248.7 305.2 252.6C296.6 258.4 290.1 267.9 288.9 277.8C288.9 278.1 289 278.4 289.3 278.5L342.3 299.6C342.7 299.8 343.1 299.5 343.2 299.1C346.4 282.9 356.1 266.3 369.7 262.5C370.5 262.2 371.5 262.3 372.3 262.5C381 265 387 266.7 387 266.7C366.6 263.7 354.1 277.7 347.7 308.7L282.1 282.6C282.2 257 303.9 242.8 315.7 246.8Z" fill="#DDFCFF"/>
<path d="M402.6 295.701L347.8 308.801C347.8 308.801 354.2 265.801 380.6 265.801C403.8 265.801 402.6 295.701 402.6 295.701Z" fill="#98E9F4"/>
<path d="M395.9 290.601C395.4 286.001 393.9 279.801 390.2 276.001C387.8 273.501 384.7 272.301 380.6 272.301C370.5 272.301 365.7 278.201 360.3 289.801C358.8 292.901 357.7 296.101 356.8 299.001C356.7 299.501 357.1 299.901 357.6 299.801L395.9 290.601Z" fill="#2EE2D6"/>
<path d="M393.9 291.2C393.4 286.6 391.9 280.4 388.2 276.6C385.8 274.1 382.7 272.9 378.6 272.9C370.5 272.9 364.8 279.2 360.1 289.2C358.6 292.3 357.7 296.1 356.9 299C356.7 299.5 357.2 299.9 357.7 299.8L393.9 291.2Z" fill="#86E0DC"/>
<path d="M354.4 325.899C361.6 329.999 385.2 370.799 388 375.399C389.3 377.599 390.6 379.899 392 382.299C402.4 400.599 416.1 424.599 439 424.599C461.5 424.599 471.9 400.499 479.6 382.899C480.8 380.199 481.9 377.599 483 375.299C503 338.999 531.3 366.599 520.6 388.099C520.4 388.399 520.3 388.799 520.1 389.199C513.2 403.499 484.2 463.799 442.6 463.699C406.1 463.699 392.9 437.999 378.1 409.099C371.6 396.499 364.9 383.299 355.7 371.399C349.3 364.099 343.1 362.999 335.8 361.699C331.5 360.899 326.8 360.099 321.4 357.899C310.3 353.499 305.4 347.499 303.1 344.599C300.8 341.699 303.8 339.199 306.3 341.499C308.8 343.799 316.2 348.899 319.9 350.299C320.2 350.399 320.4 350.299 320.6 350.099C320.8 349.799 320.7 349.299 320.3 349.199C315.7 347.399 307.2 341.199 304.2 336.599C301.9 333.199 305.4 330.299 307.9 332.699C308.1 332.899 308.4 333.199 308.6 333.399C311.9 336.799 317.3 342.099 323 344.599C323.2 344.699 323.5 344.599 323.7 344.399C323.9 344.099 323.8 343.799 323.5 343.599C318.3 340.399 308.9 332.499 307 329.199C305.2 325.899 308.8 322.899 311.4 326.099C314.1 329.399 321.7 336.699 325.8 338.799C326 338.899 326.3 338.799 326.4 338.599C326.6 338.399 326.5 338.099 326.3 337.899C323.2 335.799 315.7 329.499 313.4 325.199C312.1 322.199 315.7 320.699 317.7 322.799C318.1 323.099 318.5 323.499 318.9 323.899C323.9 328.799 332.3 336.899 353.7 335.199C354.1 335.199 354.8 335.099 354.3 334.399C354.1 333.999 352.8 332.999 351.2 331.799C350.1 330.999 348.9 329.999 347.8 329.099C345.6 327.399 344.9 325.699 346 324.399C347.1 323.599 350 323.399 354.4 325.899Z" fill="url(#paint4_linear)"/>
<path d="M255.848 453.675C250.032 458.434 251.83 467.784 259.054 469.957L293.674 480.394C299.692 482.189 305.755 477.772 305.785 471.467L306.065 432.476C306.119 424.545 296.892 420.023 290.655 425.137L255.848 453.675Z" fill="#6E82A4"/>
<path d="M240.8 420.3C239 421.3 238.4 423.6 239.8 425.1C242 427.4 244.8 429.2 248 430C252.4 431.1 257.1 430.5 261.1 428.2C265.1 425.9 268 422.2 269.2 417.8C270.1 414.6 270 411.3 269.1 408.3C268.5 406.3 266.2 405.7 264.4 406.8C262.6 407.8 262.1 410.1 262.4 412.1C262.6 413.4 262.5 414.7 262.1 416C261.4 418.5 259.7 420.6 257.5 422C255.2 423.3 252.5 423.7 250 423C248.7 422.7 247.5 422.1 246.5 421.3C244.8 419.9 242.5 419.3 240.8 420.3Z" fill="#405985"/>
</g>
<defs>
<linearGradient id="paint0_linear" x1="458.209" y1="106.151" x2="458.209" y2="474.651" gradientUnits="userSpaceOnUse">
<stop stop-color="#3FF3E9"/>
<stop offset="0.5365" stop-color="#0FC6BB"/>
</linearGradient>
<linearGradient id="paint1_linear" x1="394.112" y1="226.38" x2="483.029" y2="226.38" gradientUnits="userSpaceOnUse">
<stop stop-color="#FBFFFE"/>
<stop offset="1" stop-color="#8CDFEB"/>
</linearGradient>
<linearGradient id="paint2_linear" x1="456.708" y1="150.077" x2="439.682" y2="140.247" gradientUnits="userSpaceOnUse">
<stop stop-color="#00BCB2"/>
<stop offset="1" stop-color="#18D1C7" stop-opacity="0"/>
</linearGradient>
<linearGradient id="paint3_linear" x1="494.169" y1="185.01" x2="504.765" y2="191.127" gradientUnits="userSpaceOnUse">
<stop stop-color="#00BCB2"/>
<stop offset="1" stop-color="#18D1C7" stop-opacity="0"/>
</linearGradient>
<linearGradient id="paint4_linear" x1="302.311" y1="393.013" x2="522.942" y2="393.013" gradientUnits="userSpaceOnUse">
<stop stop-color="#3FF3E9"/>
<stop offset="1" stop-color="#0FC6BB"/>
</linearGradient>
<clipPath id="clip0">
<rect width="328.6" height="441.2" fill="white" transform="translate(239 45)"/>
</clipPath>
</defs>
</svg>
