<svg width="329" height="442" viewBox="0 0 329 442" fill="none" xmlns="http://www.w3.org/2000/svg">
<g clip-path="url(#clip0)">
<path d="M328.436 119.036C328.46 105.194 313.478 96.5436 301.552 103.399L261.101 126.464C249.598 132.986 248.844 149.294 259.725 156.846L300.184 185.17C312.091 193.546 328.465 184.986 328.529 170.474L328.436 119.036Z" fill="#FFCA62"/>
<path d="M7.5 128.5C7.5 72.5 49.4 27.2 101.1 27.2H210.9C262.6 27.2 304.5 72.6 304.5 128.5V328.7C304.5 384.7 262.6 430 210.9 430H101.2C49.5 430 7.6 384.6 7.6 328.7L7.5 128.5Z" fill="url(#paint0_linear)"/>
<path d="M90.3998 315.2C90.3998 315.2 85.3998 345.4 97.9998 368.3C110.6 391.2 144 383.6 145.5 398.1C170.2 378.2 161.1 331.4 151.3 344.5C141.5 357.5 136.6 357.9 128.5 357.6C110.7 357 111.4 317.6 111.4 317.6L90.3998 315.2Z" fill="#10C8BD"/>
<path d="M214.6 429.7C263.5 429.7 300.4 389.5 303.6 340.7C280.8 282.3 259.3 199.8 277.5 137.6C279.2 131.9 277.5 129.1 271.7 132.4C263.9 136.8 258.8 140.8 253.7 145.4C253.2 145.9 252.4 145.8 252.6 144.5C254.5 137.2 259.8 107.3 259.9 95C259.9 90.5 255.5 91.6 252.7 92.3C240.5 95.2 226.4 100.9 209.5 113.3C208.8 113.8 207.8 113.7 208.2 112.2C210.3 103.2 218.8 73.8 220.5 65.8C221.3 62.2 217.5 59.8 214 61.8C198.1 70.9 179.6 82.7 161.4 118.5C143.4 157.5 132.1 210.1 135.1 274.1C138.1 338.1 147.1 429.5 147.1 429.5H214.6V429.7Z" fill="url(#paint1_linear)"/>
<path d="M195.7 206.9C224.5 208.8 246.3 198.1 246.5 186.3C246.7 174.5 227.1 157.6 199.8 155.3C172.4 153 156.8 166.7 156.5 179.2C156.2 191.7 166.9 205.1 195.7 206.9Z" fill="#10C8BD"/>
<path d="M193.8 207.2C222.3 209.1 243.8 198.4 244 186.6C244.2 174.8 224.9 157.9 197.9 155.6C170.9 153.3 155.5 167 155.1 179.5C154.8 191.9 165.4 205.3 193.8 207.2Z" fill="url(#paint2_linear)"/>
<path d="M215.5 187.7C217.6 187.8 219.4 186.2 219.5 184.1C219.6 182 218 180.2 215.9 180.1C213.8 180 212 181.6 211.9 183.7C211.7 185.8 213.4 187.6 215.5 187.7Z" fill="#067279"/>
<path d="M213.1 184C213.6 184.5 214.6 184.2 215.3 183.4C216 182.6 216.1 181.6 215.6 181.1C215.1 180.6 214.1 180.9 213.4 181.7C212.7 182.5 212.5 183.5 213.1 184Z" fill="#10C8BD"/>
<path d="M213.5 182.8C213.7 183 214.1 182.9 214.3 182.5C214.6 182.2 214.6 181.8 214.4 181.6C214.2 181.4 213.8 181.5 213.6 181.9C213.4 182.2 213.3 182.6 213.5 182.8Z" fill="#D0F3F7"/>
<path opacity="0.61" d="M216.6 182.1C216.7 181.7 217.2 181.3 217.5 181.6C218.2 182.2 218.7 183.1 218.6 184.1C218.5 185.8 217.1 187.1 215.4 187C214.6 187 213.9 186.6 213.4 186.1C213.1 185.8 213.5 185.2 213.9 185.1C214.5 184.9 215.1 184.5 215.6 183.9C216.2 183.2 216.5 182.6 216.6 182.1Z" fill="#067279"/>
<path d="M162.4 181.9C164.2 182.2 166 180.8 166.3 178.7C166.6 176.6 165.3 174.6 163.5 174.3C161.7 174 159.9 175.4 159.6 177.5C159.3 179.6 160.5 181.5 162.4 181.9Z" fill="#067279"/>
<path d="M160.6 177.9C161 178.4 161.9 178.3 162.6 177.5C163.3 176.8 163.5 175.8 163.1 175.2C162.7 174.7 161.8 174.8 161.1 175.6C160.4 176.3 160.2 177.3 160.6 177.9Z" fill="#10C8BD"/>
<path d="M161.1 176.7C161.3 176.9 161.6 176.8 161.9 176.5C162.2 176.2 162.3 175.8 162.1 175.6C161.9 175.4 161.6 175.5 161.3 175.8C161.1 176.2 161 176.5 161.1 176.7Z" fill="#D0F3F7"/>
<path opacity="0.61" d="M163.9 176.3C164 175.9 164.5 175.6 164.8 175.9C165.4 176.6 165.7 177.5 165.6 178.5C165.4 180.1 164 181.3 162.6 181C161.9 180.9 161.3 180.4 160.9 179.8C160.6 179.4 161.1 178.9 161.5 178.8C162 178.7 162.6 178.3 163.1 177.8C163.4 177.4 163.8 176.9 163.9 176.3Z" fill="#067279"/>
<path d="M182 119.7C184.2 121 193.5 124.2 209.5 113.7C205.5 116.1 215.5 84.2 219 70.7C211 89.7 175.5 115.7 182 119.7Z" fill="url(#paint3_linear)"/>
<path d="M258 159.2C253 161.2 251.1 151.7 252.4 144.9C253 148.2 260.5 137.2 273.5 131.7C262.5 137.7 260.4 158.2 258 159.2Z" fill="url(#paint4_linear)"/>
<path d="M108.9 263.7L108.8 318.9L162.1 303.3C162.4 303.2 162.6 303 162.6 302.7L163.8 250.7L108.9 263.7Z" fill="#98E9F4"/>
<path d="M155.9 298.2C156 298.2 156.1 298 156.1 297.9L157 258.9L115.6 268.8C115.4 268.8 115.3 269 115.3 269.1L115.2 309.7C115.2 309.9 115.4 310.1 115.6 310L155.9 298.2Z" fill="#2EE2D6"/>
<path d="M154.1 296.9C154.2 296.9 154.3 296.7 154.3 296.6L155.2 259.4L115.7 268.8C115.5 268.8 115.4 269 115.4 269.1L115.3 308.3L154.1 296.9Z" fill="#86E0DC"/>
<path d="M108.9 263.7L108.8 318.9L43.4002 290C43.3002 289.9 43.2002 289.8 43.2002 289.7V237.4L108.9 263.7Z" fill="#DDFCFF"/>
<path d="M72 293.2C72 293.4 71.7 293.6 71.5 293.5L50.8 283.4C50.7 283.3 50.6 283.2 50.6 283.1L50 247.6C50 247.4 50.2 247.2 50.5 247.3L71.9 255.8C72 255.9 72.1 256 72.1 256.1V293.2H72Z" fill="#98E9F4"/>
<path d="M70.3998 255.3L102.2 268C102.3 268.1 102.4 268.2 102.4 268.3L102.3 306.3L70.5998 291.7C70.5998 291.7 70.4998 291.6 70.2998 291.6C69.0998 291.1 64.9998 289.3 70.3998 291.4V290.5L52.6998 281.9C52.5998 281.8 52.4998 281.7 52.4998 281.6L51.7998 247.9L70.3998 255.3Z" fill="#BFF9EC"/>
<path d="M104.6 255.8L51.2002 234.5C52.1002 224.5 58.6002 215 67.3002 209.3C73.1002 205.4 81.7002 204.7 83.1002 205.1C97.3002 209 118.1 214.8 132.2 218.8C117.8 221.7 107.7 239.1 104.6 255.8Z" fill="#BFF9EC"/>
<path d="M49.9004 233.3C49.9004 233.3 49.9004 222.6 61.2004 211.5C70.4004 202.5 81.2004 203.1 82.3004 203.2C83.4004 203.3 85.0004 204.3 85.3004 205.6C84.5004 205.4 83.0004 205 83.0004 205C81.3004 204.8 72.1004 205.2 64.6004 211.2C57.1004 217.2 52.9004 225.5 51.7004 234C51.1004 233.8 49.9004 233.3 49.9004 233.3Z" fill="#98E9F4"/>
<path d="M76.6996 201.8C78.3996 202.2 80.5996 202.7 82.5996 203.3C78.5996 203.1 72.0996 203.7 66.1996 207.6C57.5996 213.4 51.0996 222.9 49.8996 232.8C49.8996 233.1 49.9996 233.4 50.2996 233.5L103.3 254.6C103.7 254.8 104.1 254.5 104.2 254.1C107.4 237.9 117.1 221.3 130.7 217.5C131.5 217.2 132.5 217.3 133.3 217.5C142 220 148 221.7 148 221.7C127.6 218.7 115.1 232.7 108.7 263.7L43.0996 237.6C43.1996 212 64.8996 197.8 76.6996 201.8Z" fill="#DDFCFF"/>
<path d="M163.6 250.7L108.8 263.8C108.8 263.8 115.2 220.8 141.6 220.8C164.8 220.8 163.6 250.7 163.6 250.7Z" fill="#98E9F4"/>
<path d="M156.9 245.6C156.4 241 154.9 234.8 151.2 231C148.8 228.5 145.7 227.3 141.6 227.3C131.5 227.3 126.7 233.2 121.3 244.8C119.8 247.9 118.7 251.1 117.8 254C117.7 254.5 118.1 254.9 118.6 254.8L156.9 245.6Z" fill="#2EE2D6"/>
<path d="M154.9 246.2C154.4 241.6 152.9 235.4 149.2 231.6C146.8 229.1 143.7 227.9 139.6 227.9C131.5 227.9 125.8 234.2 121.1 244.2C119.6 247.3 118.7 251.1 117.9 254C117.7 254.5 118.2 254.9 118.7 254.8L154.9 246.2Z" fill="#86E0DC"/>
<path d="M115.4 280.9C122.6 285 146.2 325.8 149 330.4C150.3 332.6 151.6 334.9 153 337.3C163.4 355.6 177.1 379.6 200 379.6C222.5 379.6 232.9 355.5 240.6 337.9C241.8 335.2 242.9 332.6 244 330.3C264 294 292.3 321.6 281.6 343.1C281.4 343.4 281.3 343.8 281.1 344.2C274.2 358.5 245.2 418.8 203.6 418.7C167.1 418.7 153.9 393 139.1 364.1C132.6 351.5 125.9 338.3 116.7 326.4C110.3 319.1 104.1 318 96.8002 316.7C92.5002 315.9 87.8002 315.1 82.4002 312.9C71.3002 308.5 66.4002 302.5 64.1002 299.6C61.8002 296.7 64.8002 294.2 67.3002 296.5C69.8002 298.8 77.2002 303.9 80.9002 305.3C81.2002 305.4 81.4002 305.3 81.6002 305.1C81.8002 304.8 81.7002 304.3 81.3002 304.2C76.7002 302.4 68.2002 296.2 65.2002 291.6C62.9002 288.2 66.4002 285.3 68.9002 287.7C69.1002 287.9 69.4002 288.2 69.6002 288.4C72.9002 291.8 78.3002 297.1 84.0002 299.6C84.2002 299.7 84.5002 299.6 84.7002 299.4C84.9002 299.1 84.8002 298.8 84.5002 298.6C79.3002 295.4 69.9002 287.5 68.0002 284.2C66.2002 280.9 69.8002 277.9 72.4002 281.1C75.1002 284.4 82.7002 291.7 86.8002 293.8C87.0002 293.9 87.3002 293.8 87.4002 293.6C87.6002 293.4 87.5002 293.1 87.3002 292.9C84.2002 290.8 76.7002 284.5 74.4002 280.2C73.1002 277.2 76.7002 275.7 78.7002 277.8C79.1002 278.1 79.5002 278.5 79.9002 278.9C84.9002 283.8 93.3002 291.9 114.7 290.2C115.1 290.2 115.8 290.1 115.3 289.4C115.1 289 113.8 288 112.2 286.8C111.1 286 109.9 285 108.8 284.1C106.6 282.4 105.9 280.7 107 279.4C108.1 278.6 111 278.4 115.4 280.9Z" fill="url(#paint5_linear)"/>
<path d="M16.8483 408.675C11.0316 413.434 12.8302 422.784 20.0543 424.957L54.6743 435.394C60.6919 437.189 66.7548 432.772 66.7851 426.467L67.0652 387.476C67.1188 379.544 57.892 375.023 51.6553 380.136L16.8483 408.675Z" fill="#108CFF"/>
<path d="M1.79987 375.3C-0.000126362 376.3 -0.600126 378.6 0.799874 380.1C2.99987 382.4 5.79987 384.2 8.99987 385C13.3999 386.1 18.0999 385.5 22.0999 383.2C26.0999 380.9 28.9999 377.2 30.1999 372.8C31.0999 369.6 30.9999 366.3 30.0999 363.3C29.4999 361.3 27.1999 360.7 25.3999 361.8C23.5999 362.8 23.0999 365.1 23.3999 367.1C23.5999 368.4 23.4999 369.7 23.0999 371C22.3999 373.5 20.6999 375.6 18.4999 377C16.1999 378.3 13.4999 378.7 10.9999 378C9.69987 377.7 8.49987 377.1 7.49987 376.3C5.79987 374.9 3.49987 374.3 1.79987 375.3Z" fill="#FFAB49"/>
</g>
<defs>
<linearGradient id="paint0_linear" x1="7.5177" y1="228.577" x2="304.592" y2="228.577" gradientUnits="userSpaceOnUse">
<stop stop-color="#A6F7C7"/>
<stop offset="1" stop-color="#C5F9B3"/>
</linearGradient>
<linearGradient id="paint1_linear" x1="219.209" y1="61.1521" x2="219.209" y2="429.652" gradientUnits="userSpaceOnUse">
<stop stop-color="#3FF3E9"/>
<stop offset="0.5365" stop-color="#0FC6BB"/>
</linearGradient>
<linearGradient id="paint2_linear" x1="155.112" y1="181.379" x2="244.029" y2="181.379" gradientUnits="userSpaceOnUse">
<stop stop-color="#FBFFFE"/>
<stop offset="1" stop-color="#8CDFEB"/>
</linearGradient>
<linearGradient id="paint3_linear" x1="217.708" y1="105.078" x2="200.682" y2="95.2476" gradientUnits="userSpaceOnUse">
<stop stop-color="#00BCB2"/>
<stop offset="1" stop-color="#18D1C7" stop-opacity="0"/>
</linearGradient>
<linearGradient id="paint4_linear" x1="255.169" y1="140.011" x2="265.765" y2="146.128" gradientUnits="userSpaceOnUse">
<stop stop-color="#00BCB2"/>
<stop offset="1" stop-color="#18D1C7" stop-opacity="0"/>
</linearGradient>
<linearGradient id="paint5_linear" x1="63.3113" y1="348.014" x2="283.942" y2="348.014" gradientUnits="userSpaceOnUse">
<stop stop-color="#3FF3E9"/>
<stop offset="1" stop-color="#0FC6BB"/>
</linearGradient>
<clipPath id="clip0">
<rect width="328.6" height="441.2" fill="white"/>
</clipPath>
</defs>
</svg>
