<svg width="432" height="216" viewBox="0 0 432 216" fill="none" xmlns="http://www.w3.org/2000/svg">
<rect width="432" height="216" rx="16" fill="#628AF1"/>
<g filter="url(#filter0_d_492_28109)">
<rect x="24" y="24" width="384" height="40" rx="4" fill="#E4EBFA"/>
<circle cx="177" cy="44" r="6" fill="#666AF7"/>
<circle cx="177" cy="44" r="5.5" stroke="#405985" stroke-opacity="0.12"/>
<path d="M194.147 49L191.273 38.8182H193.257L195.092 46.3004H195.186L197.145 38.8182H198.95L200.913 46.3054H201.003L202.837 38.8182H204.821L201.947 49H200.128L198.089 41.8558H198.01L195.967 49H194.147ZM207.439 49.1541C206.955 49.1541 206.519 49.0679 206.131 48.8956C205.747 48.7199 205.442 48.4614 205.216 48.12C204.994 47.7786 204.883 47.3577 204.883 46.8572C204.883 46.4264 204.963 46.0701 205.122 45.7884C205.281 45.5066 205.498 45.2812 205.773 45.1122C206.048 44.9432 206.358 44.8156 206.703 44.7294C207.051 44.6399 207.41 44.5753 207.782 44.5355C208.229 44.4891 208.592 44.4477 208.87 44.4112C209.149 44.3714 209.351 44.3118 209.477 44.2322C209.606 44.1494 209.671 44.0218 209.671 43.8494V43.8196C209.671 43.4451 209.56 43.1551 209.338 42.9496C209.116 42.7441 208.796 42.6413 208.378 42.6413C207.937 42.6413 207.588 42.7375 207.329 42.9297C207.074 43.1219 206.902 43.349 206.812 43.6108L205.132 43.3722C205.264 42.9081 205.483 42.5204 205.788 42.2088C206.093 41.8939 206.466 41.6586 206.907 41.5028C207.347 41.3438 207.835 41.2642 208.368 41.2642C208.736 41.2642 209.102 41.3073 209.467 41.3935C209.832 41.4796 210.165 41.6222 210.466 41.821C210.768 42.0166 211.01 42.2834 211.192 42.6214C211.378 42.9595 211.471 43.3821 211.471 43.8892V49H209.74V47.951H209.681C209.571 48.1631 209.417 48.362 209.218 48.5476C209.023 48.7299 208.776 48.8774 208.478 48.9901C208.183 49.0994 207.836 49.1541 207.439 49.1541ZM207.906 47.8317C208.267 47.8317 208.58 47.7604 208.846 47.6179C209.111 47.4721 209.315 47.2798 209.457 47.0412C209.603 46.8026 209.676 46.5424 209.676 46.2607V45.3608C209.619 45.4072 209.523 45.4503 209.387 45.4901C209.255 45.5298 209.106 45.5646 208.94 45.5945C208.774 45.6243 208.61 45.6508 208.448 45.674C208.285 45.6972 208.145 45.7171 208.025 45.7337C207.757 45.7701 207.516 45.8298 207.304 45.9126C207.092 45.9955 206.925 46.1115 206.802 46.2607C206.68 46.4065 206.618 46.5954 206.618 46.8274C206.618 47.1589 206.739 47.4091 206.981 47.5781C207.223 47.7472 207.531 47.8317 207.906 47.8317ZM215.08 38.8182V49H213.28V38.8182H215.08ZM218.73 38.8182V49H216.931V38.8182H218.73ZM223.962 49.1491C223.196 49.1491 222.535 48.9901 221.978 48.6719C221.424 48.3504 220.999 47.8963 220.7 47.3097C220.402 46.7197 220.253 46.0253 220.253 45.2266C220.253 44.4411 220.402 43.7517 220.7 43.1584C221.002 42.5618 221.423 42.0978 221.963 41.7663C222.503 41.4316 223.138 41.2642 223.867 41.2642C224.338 41.2642 224.782 41.3404 225.2 41.4929C225.621 41.642 225.992 41.8741 226.313 42.1889C226.638 42.5038 226.893 42.9048 227.079 43.392C227.264 43.8759 227.357 44.4527 227.357 45.1222V45.674H221.098V44.4609H225.632C225.629 44.1162 225.554 43.8097 225.408 43.5412C225.263 43.2694 225.059 43.0556 224.797 42.8999C224.538 42.7441 224.237 42.6662 223.892 42.6662C223.524 42.6662 223.201 42.7557 222.923 42.9347C222.644 43.1103 222.427 43.3423 222.271 43.6307C222.119 43.9157 222.041 44.2289 222.038 44.5703V45.6293C222.038 46.0734 222.119 46.4545 222.281 46.7727C222.444 47.0876 222.671 47.3295 222.962 47.4986C223.254 47.6643 223.595 47.7472 223.987 47.7472C224.248 47.7472 224.485 47.7107 224.697 47.6378C224.91 47.5616 225.094 47.4505 225.249 47.3047C225.405 47.1589 225.523 46.9782 225.602 46.7628L227.283 46.9517C227.177 47.3958 226.974 47.7836 226.676 48.1151C226.381 48.4432 226.003 48.6984 225.543 48.8807C225.082 49.0597 224.555 49.1491 223.962 49.1491ZM232.693 41.3636V42.7557H228.303V41.3636H232.693ZM229.387 39.5341H231.187V46.7031C231.187 46.9451 231.223 47.1307 231.296 47.2599C231.372 47.3859 231.472 47.4721 231.594 47.5185C231.717 47.5649 231.853 47.5881 232.002 47.5881C232.115 47.5881 232.217 47.5798 232.31 47.5632C232.406 47.5466 232.479 47.5317 232.529 47.5185L232.832 48.9254C232.736 48.9586 232.599 48.995 232.42 49.0348C232.244 49.0746 232.028 49.0978 231.773 49.1044C231.323 49.1177 230.916 49.0497 230.555 48.9006C230.194 48.7481 229.907 48.5128 229.695 48.1946C229.486 47.8764 229.384 47.4787 229.387 47.0014V39.5341ZM241.792 38.8182V49H239.948V40.6129H239.888L237.507 42.1342V40.4439L240.037 38.8182H241.792Z" fill="#25395F"/>
<path d="M253 46L257 42L261 46" stroke="#25395F" stroke-width="2" stroke-linecap="round"/>
</g>
<g filter="url(#filter1_d_492_28109)">
<path d="M124 63.0146C124 58.5882 127.588 55 132.015 55H298.985C303.412 55 307 58.5883 307 63.0146V187.19C307 191.616 303.412 195.204 298.985 195.204H132.015C127.588 195.204 124 191.616 124 187.19V63.0146Z" fill="white"/>
<path d="M134.687 71.0291C134.687 68.0782 137.079 65.686 140.03 65.686H290.971C293.922 65.686 296.314 68.0782 296.314 71.0291V95.7152C296.314 98.6661 293.922 101.058 290.971 101.058H140.03C137.079 101.058 134.687 98.6661 134.687 95.7152V71.0291Z" fill="#F6F9FF"/>
<circle cx="149.38" cy="83.372" r="4.0073" fill="#666AF7"/>
<circle cx="149.38" cy="83.372" r="3.67336" stroke="#405985" stroke-opacity="0.15" stroke-width="0.667883"/>
<path d="M163.504 86.3721L161.585 79.5718H162.91L164.135 84.5691H164.198L165.506 79.5718H166.712L168.023 84.5724H168.083L169.308 79.5718H170.633L168.714 86.3721H167.499L166.137 81.6006H166.084L164.719 86.3721H163.504ZM172.381 86.475C172.058 86.475 171.767 86.4174 171.508 86.3023C171.251 86.185 171.048 86.0124 170.897 85.7844C170.749 85.5563 170.675 85.2752 170.675 84.941C170.675 84.6532 170.728 84.4152 170.834 84.2271C170.94 84.0389 171.085 83.8884 171.269 83.7755C171.453 83.6626 171.66 83.5774 171.89 83.5198C172.122 83.46 172.363 83.4169 172.61 83.3903C172.909 83.3593 173.152 83.3317 173.338 83.3073C173.524 83.2807 173.659 83.2409 173.743 83.1878C173.829 83.1324 173.872 83.0472 173.872 82.9321V82.9122C173.872 82.662 173.798 82.4683 173.65 82.3311C173.501 82.1938 173.288 82.1252 173.009 82.1252C172.715 82.1252 172.481 82.1894 172.308 82.3178C172.138 82.4462 172.023 82.5978 171.963 82.7727L170.841 82.6133C170.929 82.3034 171.075 82.0444 171.279 81.8363C171.483 81.6261 171.732 81.4689 172.026 81.3648C172.321 81.2586 172.646 81.2055 173.002 81.2055C173.248 81.2055 173.493 81.2342 173.736 81.2918C173.98 81.3493 174.202 81.4445 174.404 81.5774C174.605 81.708 174.767 81.8862 174.888 82.1119C175.012 82.3377 175.074 82.62 175.074 82.9587V86.3721H173.919V85.6715H173.879C173.806 85.8131 173.703 85.9459 173.57 86.0699C173.439 86.1917 173.275 86.2902 173.075 86.3654C172.878 86.4385 172.647 86.475 172.381 86.475ZM172.694 85.5918C172.935 85.5918 173.144 85.5442 173.321 85.449C173.498 85.3516 173.634 85.2232 173.729 85.0638C173.827 84.9044 173.876 84.7307 173.876 84.5425V83.9415C173.838 83.9725 173.774 84.0013 173.683 84.0278C173.594 84.0544 173.495 84.0776 173.384 84.0976C173.273 84.1175 173.164 84.1352 173.055 84.1507C172.947 84.1662 172.853 84.1795 172.773 84.1905C172.594 84.2149 172.433 84.2547 172.292 84.3101C172.15 84.3654 172.038 84.4429 171.956 84.5425C171.874 84.6399 171.834 84.7661 171.834 84.921C171.834 85.1424 171.914 85.3095 172.076 85.4224C172.237 85.5353 172.443 85.5918 172.694 85.5918ZM177.485 79.5718V86.3721H176.283V79.5718H177.485ZM179.923 79.5718V86.3721H178.721V79.5718H179.923ZM183.417 86.4717C182.906 86.4717 182.464 86.3654 182.092 86.1529C181.722 85.9382 181.438 85.6349 181.239 85.2431C181.039 84.8491 180.94 84.3853 180.94 83.8519C180.94 83.3272 181.039 82.8668 181.239 82.4706C181.44 82.0721 181.721 81.7622 182.082 81.5408C182.443 81.3173 182.867 81.2055 183.354 81.2055C183.668 81.2055 183.965 81.2564 184.244 81.3582C184.525 81.4578 184.773 81.6128 184.987 81.8231C185.204 82.0334 185.375 82.3012 185.499 82.6266C185.623 82.9498 185.685 83.335 185.685 83.7821V84.1507H181.504V83.3405H184.533C184.53 83.1103 184.481 82.9055 184.383 82.7262C184.286 82.5447 184.15 82.4019 183.975 82.2979C183.802 82.1938 183.601 82.1418 183.37 82.1418C183.125 82.1418 182.909 82.2016 182.723 82.3211C182.537 82.4385 182.392 82.5934 182.288 82.786C182.186 82.9764 182.134 83.1856 182.132 83.4136V84.1208C182.132 84.4174 182.186 84.672 182.295 84.8845C182.403 85.0948 182.555 85.2564 182.749 85.3693C182.944 85.48 183.172 85.5353 183.433 85.5353C183.608 85.5353 183.767 85.511 183.908 85.4623C184.05 85.4114 184.173 85.3372 184.277 85.2398C184.381 85.1424 184.459 85.0218 184.513 84.8779L185.635 85.004C185.564 85.3007 185.429 85.5597 185.23 85.781C185.033 86.0002 184.78 86.1706 184.473 86.2924C184.165 86.4119 183.813 86.4717 183.417 86.4717ZM189.248 81.2719V82.2016H186.316V81.2719H189.248ZM187.04 80.0499H188.242V84.838C188.242 84.9996 188.267 85.1236 188.315 85.2099C188.366 85.294 188.433 85.3516 188.515 85.3826C188.596 85.4136 188.687 85.4291 188.787 85.4291C188.862 85.4291 188.931 85.4235 188.993 85.4125C189.057 85.4014 189.106 85.3914 189.139 85.3826L189.341 86.3223C189.277 86.3444 189.185 86.3687 189.066 86.3953C188.948 86.4219 188.805 86.4374 188.634 86.4418C188.333 86.4507 188.062 86.4053 187.821 86.3057C187.579 86.2038 187.388 86.0467 187.246 85.8342C187.107 85.6217 187.038 85.356 187.04 85.0373V80.0499ZM195.326 79.5718V86.3721H194.094V80.7705H194.054L192.463 81.7865V80.6576L194.154 79.5718H195.326Z" fill="#25395F"/>
<circle cx="149.38" cy="124.087" r="4.0073" fill="#79E5FE"/>
<circle cx="149.38" cy="124.087" r="3.67336" stroke="#405985" stroke-opacity="0.15" stroke-width="0.667883"/>
<path d="M163.504 127.087L161.585 120.287H162.91L164.135 125.284H164.198L165.506 120.287H166.712L168.023 125.288H168.083L169.308 120.287H170.633L168.714 127.087H167.499L166.137 122.316H166.084L164.719 127.087H163.504ZM172.381 127.19C172.058 127.19 171.767 127.133 171.508 127.018C171.251 126.9 171.048 126.728 170.897 126.5C170.749 126.272 170.675 125.991 170.675 125.656C170.675 125.369 170.728 125.131 170.834 124.942C170.94 124.754 171.085 124.604 171.269 124.491C171.453 124.378 171.66 124.293 171.89 124.235C172.122 124.175 172.363 124.132 172.61 124.106C172.909 124.075 173.152 124.047 173.338 124.023C173.524 123.996 173.659 123.956 173.743 123.903C173.829 123.848 173.872 123.763 173.872 123.647V123.628C173.872 123.377 173.798 123.184 173.65 123.046C173.501 122.909 173.288 122.841 173.009 122.841C172.715 122.841 172.481 122.905 172.308 123.033C172.138 123.162 172.023 123.313 171.963 123.488L170.841 123.329C170.929 123.019 171.075 122.76 171.279 122.552C171.483 122.341 171.732 122.184 172.026 122.08C172.321 121.974 172.646 121.921 173.002 121.921C173.248 121.921 173.493 121.95 173.736 122.007C173.98 122.065 174.202 122.16 174.404 122.293C174.605 122.423 174.767 122.601 174.888 122.827C175.012 123.053 175.074 123.335 175.074 123.674V127.087H173.919V126.387H173.879C173.806 126.528 173.703 126.661 173.57 126.785C173.439 126.907 173.275 127.005 173.075 127.081C172.878 127.154 172.647 127.19 172.381 127.19ZM172.694 126.307C172.935 126.307 173.144 126.26 173.321 126.164C173.498 126.067 173.634 125.939 173.729 125.779C173.827 125.62 173.876 125.446 173.876 125.258V124.657C173.838 124.688 173.774 124.717 173.683 124.743C173.594 124.77 173.495 124.793 173.384 124.813C173.273 124.833 173.164 124.851 173.055 124.866C172.947 124.882 172.853 124.895 172.773 124.906C172.594 124.93 172.433 124.97 172.292 125.025C172.15 125.081 172.038 125.158 171.956 125.258C171.874 125.355 171.834 125.481 171.834 125.636C171.834 125.858 171.914 126.025 172.076 126.138C172.237 126.251 172.443 126.307 172.694 126.307ZM177.485 120.287V127.087H176.283V120.287H177.485ZM179.923 120.287V127.087H178.721V120.287H179.923ZM183.417 127.187C182.906 127.187 182.464 127.081 182.092 126.868C181.722 126.654 181.438 126.35 181.239 125.958C181.039 125.564 180.94 125.101 180.94 124.567C180.94 124.043 181.039 123.582 181.239 123.186C181.44 122.787 181.721 122.478 182.082 122.256C182.443 122.033 182.867 121.921 183.354 121.921C183.668 121.921 183.965 121.972 184.244 122.074C184.525 122.173 184.773 122.328 184.987 122.538C185.204 122.749 185.375 123.017 185.499 123.342C185.623 123.665 185.685 124.05 185.685 124.497V124.866H181.504V124.056H184.533C184.53 123.826 184.481 123.621 184.383 123.442C184.286 123.26 184.15 123.117 183.975 123.013C183.802 122.909 183.601 122.857 183.37 122.857C183.125 122.857 182.909 122.917 182.723 123.036C182.537 123.154 182.392 123.309 182.288 123.501C182.186 123.692 182.134 123.901 182.132 124.129V124.836C182.132 125.133 182.186 125.387 182.295 125.6C182.403 125.81 182.555 125.972 182.749 126.085C182.944 126.195 183.172 126.251 183.433 126.251C183.608 126.251 183.767 126.226 183.908 126.178C184.05 126.127 184.173 126.053 184.277 125.955C184.381 125.858 184.459 125.737 184.513 125.593L185.635 125.719C185.564 126.016 185.429 126.275 185.23 126.496C185.033 126.716 184.78 126.886 184.473 127.008C184.165 127.127 183.813 127.187 183.417 127.187ZM189.248 121.987V122.917H186.316V121.987H189.248ZM187.04 120.765H188.242V125.553C188.242 125.715 188.267 125.839 188.315 125.925C188.366 126.009 188.433 126.067 188.515 126.098C188.596 126.129 188.687 126.144 188.787 126.144C188.862 126.144 188.931 126.139 188.993 126.128C189.057 126.117 189.106 126.107 189.139 126.098L189.341 127.038C189.277 127.06 189.185 127.084 189.066 127.111C188.948 127.137 188.805 127.153 188.634 127.157C188.333 127.166 188.062 127.121 187.821 127.021C187.579 126.919 187.388 126.762 187.246 126.549C187.107 126.337 187.038 126.071 187.04 125.753V120.765ZM192.56 127.087V126.198L194.921 123.883C195.146 123.655 195.334 123.453 195.485 123.276C195.636 123.098 195.748 122.927 195.824 122.761C195.899 122.595 195.937 122.418 195.937 122.23C195.937 122.015 195.888 121.831 195.791 121.678C195.693 121.523 195.559 121.404 195.389 121.32C195.218 121.236 195.025 121.194 194.808 121.194C194.584 121.194 194.388 121.24 194.22 121.333C194.052 121.424 193.921 121.553 193.828 121.722C193.737 121.89 193.692 122.09 193.692 122.323H192.52C192.52 121.891 192.618 121.516 192.815 121.197C193.012 120.878 193.284 120.631 193.629 120.456C193.976 120.282 194.375 120.194 194.824 120.194C195.28 120.194 195.681 120.279 196.026 120.45C196.372 120.62 196.639 120.854 196.83 121.15C197.022 121.447 197.119 121.786 197.119 122.167C197.119 122.421 197.07 122.671 196.973 122.917C196.875 123.163 196.704 123.435 196.458 123.734C196.214 124.033 195.872 124.395 195.432 124.82L194.26 126.012V126.058H197.222V127.087H192.56Z" fill="#9AADCE"/>
<line x1="124" y1="152.126" x2="307" y2="152.126" stroke="#E4EBFA" stroke-width="0.667883"/>
<path fill-rule="evenodd" clip-rule="evenodd" d="M150.047 171.16C150.047 170.791 149.748 170.492 149.379 170.492C149.011 170.492 148.712 170.791 148.712 171.16V173.164H146.708C146.339 173.164 146.04 173.463 146.04 173.832C146.04 174.2 146.339 174.499 146.708 174.499H148.712V176.503C148.712 176.872 149.011 177.171 149.379 177.171C149.748 177.171 150.047 176.872 150.047 176.503V174.499H152.051C152.42 174.499 152.719 174.2 152.719 173.832C152.719 173.463 152.42 173.164 152.051 173.164H150.047V171.16Z" fill="#108CFF"/>
<path d="M162.945 176.832H161.63L164.025 170.032H165.545L167.943 176.832H166.628L164.811 171.426H164.758L162.945 176.832ZM162.989 174.166H166.575V175.155H162.989V174.166ZM170.523 176.922C170.122 176.922 169.763 176.819 169.447 176.613C169.13 176.407 168.88 176.108 168.696 175.716C168.513 175.325 168.421 174.849 168.421 174.289C168.421 173.722 168.514 173.244 168.7 172.854C168.888 172.462 169.141 172.167 169.46 171.968C169.779 171.766 170.134 171.665 170.526 171.665C170.825 171.665 171.07 171.716 171.263 171.818C171.456 171.918 171.608 172.038 171.721 172.18C171.834 172.32 171.922 172.451 171.984 172.575H172.033V170.032H173.239V176.832H172.057V176.028H171.984C171.922 176.152 171.832 176.284 171.715 176.424C171.597 176.561 171.442 176.678 171.25 176.776C171.057 176.873 170.815 176.922 170.523 176.922ZM170.858 175.936C171.113 175.936 171.329 175.867 171.509 175.73C171.688 175.59 171.824 175.396 171.917 175.149C172.01 174.901 172.057 174.612 172.057 174.282C172.057 173.952 172.01 173.665 171.917 173.422C171.826 173.178 171.691 172.989 171.512 172.854C171.335 172.719 171.117 172.652 170.858 172.652C170.59 172.652 170.367 172.721 170.187 172.861C170.008 173 169.873 173.193 169.782 173.439C169.691 173.684 169.646 173.965 169.646 174.282C169.646 174.601 169.691 174.885 169.782 175.135C169.875 175.383 170.011 175.579 170.191 175.723C170.372 175.865 170.595 175.936 170.858 175.936ZM176.412 176.922C176.012 176.922 175.653 176.819 175.336 176.613C175.02 176.407 174.77 176.108 174.586 175.716C174.402 175.325 174.31 174.849 174.31 174.289C174.31 173.722 174.403 173.244 174.589 172.854C174.777 172.462 175.031 172.167 175.35 171.968C175.668 171.766 176.024 171.665 176.416 171.665C176.714 171.665 176.96 171.716 177.153 171.818C177.345 171.918 177.498 172.038 177.611 172.18C177.724 172.32 177.811 172.451 177.873 172.575H177.923V170.032H179.128V176.832H177.946V176.028H177.873C177.811 176.152 177.722 176.284 177.604 176.424C177.487 176.561 177.332 176.678 177.139 176.776C176.947 176.873 176.704 176.922 176.412 176.922ZM176.748 175.936C177.002 175.936 177.219 175.867 177.398 175.73C177.578 175.59 177.714 175.396 177.807 175.149C177.9 174.901 177.946 174.612 177.946 174.282C177.946 173.952 177.9 173.665 177.807 173.422C177.716 173.178 177.581 172.989 177.402 172.854C177.225 172.719 177.007 172.652 176.748 172.652C176.48 172.652 176.256 172.721 176.077 172.861C175.898 173 175.763 173.193 175.672 173.439C175.581 173.684 175.536 173.965 175.536 174.282C175.536 174.601 175.581 174.885 175.672 175.135C175.765 175.383 175.901 175.579 176.08 175.723C176.262 175.865 176.484 175.936 176.748 175.936ZM184.196 176.935C183.873 176.935 183.582 176.877 183.323 176.762C183.066 176.645 182.862 176.472 182.712 176.244C182.564 176.016 182.489 175.735 182.489 175.401C182.489 175.113 182.543 174.875 182.649 174.687C182.755 174.499 182.9 174.348 183.084 174.235C183.268 174.123 183.475 174.037 183.705 173.98C183.937 173.92 184.177 173.877 184.425 173.85C184.724 173.819 184.967 173.792 185.152 173.767C185.338 173.741 185.473 173.701 185.558 173.648C185.644 173.592 185.687 173.507 185.687 173.392V173.372C185.687 173.122 185.613 172.928 185.465 172.791C185.316 172.654 185.103 172.585 184.824 172.585C184.529 172.585 184.296 172.649 184.123 172.778C183.953 172.906 183.838 173.058 183.778 173.233L182.656 173.073C182.744 172.763 182.89 172.504 183.094 172.296C183.297 172.086 183.547 171.929 183.841 171.825C184.135 171.719 184.461 171.665 184.817 171.665C185.063 171.665 185.307 171.694 185.551 171.752C185.794 171.809 186.017 171.904 186.218 172.037C186.42 172.168 186.581 172.346 186.703 172.572C186.827 172.798 186.889 173.08 186.889 173.419V176.832H185.734V176.131H185.694C185.621 176.273 185.518 176.406 185.385 176.53C185.254 176.652 185.089 176.75 184.89 176.825C184.693 176.898 184.462 176.935 184.196 176.935ZM184.508 176.052C184.75 176.052 184.959 176.004 185.136 175.909C185.313 175.812 185.449 175.683 185.544 175.524C185.642 175.364 185.69 175.191 185.69 175.002V174.401C185.653 174.432 185.589 174.461 185.498 174.488C185.409 174.514 185.31 174.538 185.199 174.558C185.088 174.577 184.979 174.595 184.87 174.611C184.762 174.626 184.668 174.639 184.588 174.651C184.409 174.675 184.248 174.715 184.107 174.77C183.965 174.825 183.853 174.903 183.771 175.002C183.689 175.1 183.648 175.226 183.648 175.381C183.648 175.602 183.729 175.769 183.891 175.882C184.052 175.995 184.258 176.052 184.508 176.052ZM191.47 176.832L190.029 171.732H191.254L192.15 175.318H192.197L193.113 171.732H194.325L195.242 175.298H195.291L196.175 171.732H197.403L195.959 176.832H194.707L193.751 173.385H193.681L192.725 176.832H191.47ZM199.71 176.935C199.387 176.935 199.096 176.877 198.837 176.762C198.58 176.645 198.376 176.472 198.226 176.244C198.078 176.016 198.003 175.735 198.003 175.401C198.003 175.113 198.057 174.875 198.163 174.687C198.269 174.499 198.414 174.348 198.598 174.235C198.782 174.123 198.988 174.037 199.219 173.98C199.451 173.92 199.691 173.877 199.939 173.85C200.238 173.819 200.48 173.792 200.666 173.767C200.852 173.741 200.987 173.701 201.072 173.648C201.158 173.592 201.201 173.507 201.201 173.392V173.372C201.201 173.122 201.127 172.928 200.979 172.791C200.83 172.654 200.617 172.585 200.338 172.585C200.043 172.585 199.81 172.649 199.637 172.778C199.467 172.906 199.352 173.058 199.292 173.233L198.169 173.073C198.258 172.763 198.404 172.504 198.608 172.296C198.811 172.086 199.06 171.929 199.355 171.825C199.649 171.719 199.975 171.665 200.331 171.665C200.577 171.665 200.821 171.694 201.065 171.752C201.308 171.809 201.531 171.904 201.732 172.037C201.934 172.168 202.095 172.346 202.217 172.572C202.341 172.798 202.403 173.08 202.403 173.419V176.832H201.248V176.131H201.208C201.135 176.273 201.032 176.406 200.899 176.53C200.768 176.652 200.603 176.75 200.404 176.825C200.207 176.898 199.976 176.935 199.71 176.935ZM200.022 176.052C200.264 176.052 200.473 176.004 200.65 175.909C200.827 175.812 200.963 175.683 201.058 175.524C201.156 175.364 201.204 175.191 201.204 175.002V174.401C201.167 174.432 201.103 174.461 201.012 174.488C200.923 174.514 200.824 174.538 200.713 174.558C200.602 174.577 200.493 174.595 200.384 174.611C200.276 174.626 200.182 174.639 200.102 174.651C199.923 174.675 199.762 174.715 199.62 174.77C199.479 174.825 199.367 174.903 199.285 175.002C199.203 175.1 199.162 175.226 199.162 175.381C199.162 175.602 199.243 175.769 199.405 175.882C199.566 175.995 199.772 176.052 200.022 176.052ZM204.814 170.032V176.832H203.612V170.032H204.814ZM207.252 170.032V176.832H206.05V170.032H207.252ZM210.746 176.932C210.234 176.932 209.793 176.825 209.421 176.613C209.051 176.398 208.767 176.095 208.567 175.703C208.368 175.309 208.269 174.845 208.269 174.312C208.269 173.787 208.368 173.327 208.567 172.931C208.769 172.532 209.05 172.222 209.411 172.001C209.772 171.777 210.196 171.665 210.683 171.665C210.997 171.665 211.294 171.716 211.572 171.818C211.854 171.918 212.101 172.073 212.316 172.283C212.533 172.493 212.704 172.761 212.828 173.087C212.952 173.41 213.013 173.795 213.013 174.242V174.611H208.833V173.8H211.861C211.859 173.57 211.809 173.365 211.712 173.186C211.614 173.005 211.478 172.862 211.303 172.758C211.131 172.654 210.929 172.602 210.699 172.602C210.453 172.602 210.238 172.662 210.052 172.781C209.866 172.898 209.721 173.053 209.617 173.246C209.515 173.436 209.463 173.646 209.461 173.874V174.581C209.461 174.877 209.515 175.132 209.623 175.344C209.732 175.555 209.883 175.716 210.078 175.829C210.273 175.94 210.501 175.995 210.762 175.995C210.937 175.995 211.095 175.971 211.237 175.922C211.379 175.871 211.502 175.797 211.606 175.7C211.71 175.602 211.788 175.482 211.841 175.338L212.964 175.464C212.893 175.761 212.758 176.02 212.559 176.241C212.362 176.46 212.109 176.631 211.802 176.752C211.494 176.872 211.142 176.932 210.746 176.932ZM216.577 171.732V172.662H213.645V171.732H216.577ZM214.369 170.51H215.571V175.298C215.571 175.46 215.595 175.584 215.644 175.67C215.695 175.754 215.761 175.812 215.843 175.843C215.925 175.874 216.016 175.889 216.116 175.889C216.191 175.889 216.259 175.883 216.321 175.872C216.386 175.861 216.434 175.851 216.468 175.843L216.67 176.782C216.606 176.804 216.514 176.829 216.395 176.855C216.277 176.882 216.133 176.897 215.963 176.902C215.662 176.911 215.391 176.865 215.149 176.766C214.908 176.664 214.717 176.507 214.575 176.294C214.435 176.082 214.367 175.816 214.369 175.497V170.51Z" fill="#108CFF"/>
<path d="M132.015 55.6679H298.985V54.3321H132.015V55.6679ZM306.332 63.0146V187.19H307.668V63.0146H306.332ZM298.985 194.536H132.015V195.872H298.985V194.536ZM124.668 187.19V63.0146H123.332V187.19H124.668ZM132.015 194.536C127.957 194.536 124.668 191.247 124.668 187.19H123.332C123.332 191.985 127.219 195.872 132.015 195.872V194.536ZM306.332 187.19C306.332 191.247 303.043 194.536 298.985 194.536V195.872C303.781 195.872 307.668 191.985 307.668 187.19H306.332ZM298.985 55.6679C303.043 55.6679 306.332 58.9571 306.332 63.0146H307.668C307.668 58.2194 303.781 54.3321 298.985 54.3321V55.6679ZM132.015 54.3321C127.219 54.3321 123.332 58.2194 123.332 63.0146H124.668C124.668 58.9571 127.957 55.6679 132.015 55.6679V54.3321Z" fill="#E4EBFA"/>
</g>
<defs>
<filter id="filter0_d_492_28109" x="22" y="23" width="388" height="44" filterUnits="userSpaceOnUse" color-interpolation-filters="sRGB">
<feFlood flood-opacity="0" result="BackgroundImageFix"/>
<feColorMatrix in="SourceAlpha" type="matrix" values="0 0 0 0 0 0 0 0 0 0 0 0 0 0 0 0 0 0 127 0" result="hardAlpha"/>
<feOffset dy="1"/>
<feGaussianBlur stdDeviation="1"/>
<feColorMatrix type="matrix" values="0 0 0 0 0 0 0 0 0 0.0964233 0 0 0 0 0.257129 0 0 0 0.08 0"/>
<feBlend mode="normal" in2="BackgroundImageFix" result="effect1_dropShadow_492_28109"/>
<feBlend mode="normal" in="SourceGraphic" in2="effect1_dropShadow_492_28109" result="shape"/>
</filter>
<filter id="filter1_d_492_28109" x="112" y="47" width="207" height="164.205" filterUnits="userSpaceOnUse" color-interpolation-filters="sRGB">
<feFlood flood-opacity="0" result="BackgroundImageFix"/>
<feColorMatrix in="SourceAlpha" type="matrix" values="0 0 0 0 0 0 0 0 0 0 0 0 0 0 0 0 0 0 127 0" result="hardAlpha"/>
<feOffset dy="4"/>
<feGaussianBlur stdDeviation="6"/>
<feColorMatrix type="matrix" values="0 0 0 0 0 0 0 0 0 0.0964233 0 0 0 0 0.257129 0 0 0 0.08 0"/>
<feBlend mode="normal" in2="BackgroundImageFix" result="effect1_dropShadow_492_28109"/>
<feBlend mode="normal" in="SourceGraphic" in2="effect1_dropShadow_492_28109" result="shape"/>
</filter>
</defs>
</svg>
