<svg width="550" height="432" viewBox="0 0 550 432" fill="none" xmlns="http://www.w3.org/2000/svg">
<g clip-path="url(#clip0)">
<path d="M208.5 35.0005C208.5 43.8005 219 48.3005 225.4 42.3005L242.9 25.8005C248 21.0005 246.7 12.5005 240.4 9.50046L222.8 1.00046C216.2 -2.19954 208.5 2.60046 208.5 10.0005V35.0005Z" fill="#37E5D7"/>
<path d="M221.6 119.4C221.6 63.3996 263.5 18.0996 315.2 18.0996H425C476.7 18.0996 518.6 63.4996 518.6 119.4V319.6C518.6 375.6 476.7 420.9 425 420.9H315.2C263.5 420.9 221.6 375.5 221.6 319.6V119.4Z" fill="#95F2FF"/>
<path d="M221.6 119.4C221.6 63.3996 263.5 18.0996 315.2 18.0996H425C476.7 18.0996 518.6 63.4996 518.6 119.4V319.6C518.6 375.6 476.7 420.9 425 420.9H315.2C263.5 420.9 221.6 375.5 221.6 319.6V119.4Z" fill="url(#paint0_linear)"/>
<path d="M254.3 247.7C278.5 256.6 300.2 257 299.2 248.5L359.9 290L311.5 316.2C305.5 299.2 282.3 299.3 244.2 287.1C191.4 270.3 172 236.2 163.7 221.6L163.5 221.3C155.9 207.9 170.1 181.2 185.3 194.9C202.2 210 212.5 232.4 254.3 247.7Z" fill="#BEECFF"/>
<path d="M119.8 166.099C125.6 165.999 139.7 170.199 149.2 174.399C158.7 178.599 172.1 185.999 181.1 196.299C188.1 204.299 173 222.899 161.7 214.599C155.3 209.899 149.7 206.999 142.1 204.299C141 203.899 139.9 203.999 139 204.699C136.4 206.599 134.2 209.099 132.3 210.799C130.2 212.799 127.1 209.899 128.1 207.399C129 204.999 134.4 200.399 135.8 199.299C136.5 198.499 136.2 196.399 134.3 196.799C131 197.299 126.4 200.099 122.5 202.499C119.1 204.699 115.4 200.799 118.7 198.099C121.3 195.499 132.5 190.399 134.2 189.899C135.9 189.399 135.3 186.799 132.7 186.899C130.1 186.899 121.6 187.899 116.8 188.699C111.7 189.599 110 184.299 113.6 182.699C117.3 181.099 125.7 180.199 130.5 180.099C135.3 179.999 135.4 178.599 133.6 177.399C131.8 176.199 123.3 173.599 119.4 172.599C115.6 171.499 115.9 166.099 119.8 166.099Z" fill="#108CFF"/>
<path d="M148.9 191.901C159.9 196.101 159.9 205.201 168.1 208.301C176.3 211.401 184 206.501 182.5 199.101C180.8 191.001 156.2 177.201 155.7 177.701C169 184.501 157 187.501 151.3 184.501C148.6 183.501 146 181.901 142.4 181.901C136.1 181.901 136.1 186.301 138.7 188.001C141.2 189.801 144.1 190.101 148.9 191.901Z" fill="url(#paint1_linear)"/>
<path d="M506 370.6C497 387.1 473.5 420.6 425.5 420.6H344.5C331.1 350.8 284.5 292.6 303.1 183.1C314.1 118.4 369.8 90.4 412.9 105.6C456 120.8 467.5 165.7 452.3 213.6C437 261.5 484.2 336.2 506 370.6Z" fill="url(#paint2_linear)"/>
<path d="M320.1 174.699C315.1 205.699 334.6 234.699 363.8 239.399C393 244.199 420.7 222.899 425.8 191.899C430.8 160.899 411.3 131.899 382.1 127.199C352.9 122.499 325.1 143.699 320.1 174.699Z" fill="#C2F4FF"/>
<path d="M323.2 173.801C318.3 203.701 336.8 231.601 364.5 236.101C392.2 240.601 418.6 220.001 423.5 190.101C428.4 160.201 409.9 132.301 382.2 127.801C354.4 123.301 328 143.901 323.2 173.801Z" fill="url(#paint3_linear)"/>
<path opacity="0.5" d="M378.8 139.001C365.1 150.201 391.9 181.901 407 172.401C422.1 162.901 392.5 127.701 378.8 139.001Z" fill="#42A3FF"/>
<path d="M383.9 188.2C383.5 190.9 385.3 193.5 388 193.9C390.7 194.3 393.3 192.5 393.7 189.8C394.1 187.1 392.3 184.5 389.6 184.1C386.9 183.6 384.3 185.5 383.9 188.2Z" fill="#354781"/>
<path d="M390.5 186.401C390.3 186.601 390.4 187.101 390.7 187.501C391.1 187.901 391.6 188.001 391.8 187.801C392 187.601 391.9 187.101 391.6 186.701C391.3 186.301 390.8 186.201 390.5 186.401Z" fill="#9CB0CD"/>
<path d="M391 190.499C391.5 190.699 391.9 191.299 391.5 191.799C390.6 192.699 389.4 193.099 388.1 192.899C386 192.599 384.5 190.499 384.9 188.399C385.1 187.399 385.6 186.499 386.4 185.899C386.9 185.499 387.5 186.099 387.7 186.699C387.9 187.499 388.3 188.299 389 189.099C389.6 189.799 390.3 190.199 391 190.499Z" fill="#1A2A63"/>
<path d="M334.1 173.3C333.7 176 335.1 178.5 337.3 178.9C339.5 179.3 341.7 177.4 342.1 174.7C342.5 172 341.1 169.5 338.9 169.1C336.7 168.7 334.5 170.6 334.1 173.3Z" fill="#354781"/>
<path d="M339.6 176.299C340 176.399 340.3 176.899 340 177.199C339.3 177.899 338.3 178.199 337.4 177.999C335.6 177.699 334.4 175.599 334.7 173.399C334.9 172.199 335.5 171.199 336.2 170.599C336.5 170.299 336.9 170.799 336.9 171.199C336.8 171.899 336.8 172.699 337.1 173.599C337.7 174.999 338.6 175.999 339.6 176.299Z" fill="#1A2A63"/>
<path opacity="0.54" d="M340 171.599C339.7 171.699 339.6 172.199 339.7 172.699C339.9 173.199 340.3 173.499 340.6 173.399C340.9 173.299 341 172.799 340.9 172.299C340.7 171.799 340.3 171.499 340 171.599Z" fill="white"/>
<path d="M69.6001 169.901L80.9001 144.301C81.1001 143.801 81.1001 143.301 81.0001 143.001L0.200146 133.301C0.000145905 133.601 0.000145912 134.301 0.500146 134.601L69.6001 169.901Z" fill="url(#paint4_linear)"/>
<path d="M66.5002 130.999C70.1002 131.699 73.4002 133.699 75.8002 136.499L80.4002 141.999C80.7002 142.299 80.9002 142.599 81.0002 142.899L0.200195 133.199C0.400195 132.799 0.700195 132.699 1.1002 132.699L65.5002 130.699L66.5002 130.999Z" fill="#E4EBFA"/>
<path d="M62.7001 140.901L0.100098 133.301C0.100098 133.301 1.3001 133.601 2.0001 133.801L62.5001 143.601L62.7001 140.901Z" fill="#9AADCE"/>
<path d="M77.7 171.8L82.6 159.5L0.100007 133.5C6.96629e-06 133.7 -0.0999931 134.3 0.500007 134.7L72.9 173.3C74.5 174.1 76.6 174.3 77.7 171.8Z" fill="url(#paint5_linear)"/>
<path d="M0.1 133.5C0.1 133.5 0 133.8 0 133.9L95.9 165.2C98.8 166.2 101.9 166.5 105 166.1C106.3 166 106.8 164.3 105.8 163.4L87.8 148.8C87.4 148.4 86.8 148.1 86.3 148L0.1 133.5Z" fill="#DBE4F6"/>
<path d="M0.1 133.5C0.1 133.5 0 133.8 0 133.9L97.7 165.8L67.8 145.2C67.1 144.7 66.2 144.4 65.4 144.2L0.1 133.5Z" fill="#E4EBFA"/>
<path d="M528.4 409.401C530 411.001 532.6 411.001 534.3 409.401L548.8 394.901C550.4 393.301 550.4 390.701 548.8 389.001C547.2 387.401 544.6 387.401 542.9 389.001L528.4 403.501C526.8 405.201 526.8 407.801 528.4 409.401Z" fill="#666AF6"/>
<path d="M229.6 88.0996C227.6 88.0996 225.9 89.7996 226.3 91.7996C227 94.8996 228.6 97.7996 231 100.1C234.2 103.3 238.6 105.1 243.2 105.1C247.8 105.1 252.2 103.3 255.4 100.1C257.7 97.7996 259.4 94.8996 260.1 91.7996C260.6 89.7996 258.9 88.0996 256.8 88.0996C254.7 88.0996 253.2 89.7996 252.4 91.6996C251.9 92.8996 251.2 93.9996 250.2 94.9996C248.3 96.7996 245.8 97.7996 243.2 97.7996C240.6 97.7996 238.1 96.7996 236.2 94.9996C235.2 94.0996 234.5 92.9996 234 91.6996C233.2 89.7996 231.6 88.0996 229.6 88.0996Z" fill="#FF7A59"/>
<path d="M230.4 95.4004C232.4 95.4004 234.1 93.7004 233.7 91.7004C233 88.6004 231.4 85.7004 229 83.4004C225.8 80.2004 221.4 78.4004 216.8 78.4004C212.2 78.4004 207.8 80.2004 204.6 83.4004C202.3 85.7004 200.6 88.6004 199.9 91.7004C199.4 93.7004 201.1 95.4004 203.2 95.4004C205.2 95.4004 206.8 93.7004 207.6 91.8004C208.1 90.6004 208.8 89.5004 209.8 88.5004C211.7 86.7004 214.2 85.7004 216.8 85.7004C219.4 85.7004 221.9 86.7004 223.8 88.5004C224.8 89.4004 225.5 90.5004 226 91.8004C226.8 93.7004 228.3 95.4004 230.4 95.4004Z" fill="#FF7A59"/>
<path d="M488 428.3C481.8 435 470.6 430.6 470.6 421.5V369.1C470.6 363.6 475.1 359.1 480.6 359.1H528.8C537.5 359.1 542.1 369.5 536.2 375.9L488 428.3Z" fill="#FFCA62"/>
</g>
<defs>
<linearGradient id="paint0_linear" x1="370.116" y1="18.1127" x2="370.116" y2="420.963" gradientUnits="userSpaceOnUse">
<stop stop-color="#95F2FF"/>
<stop offset="1" stop-color="#82E1FE"/>
</linearGradient>
<linearGradient id="paint1_linear" x1="137.048" y1="193.54" x2="182.681" y2="193.54" gradientUnits="userSpaceOnUse">
<stop stop-color="#6DB9FF"/>
<stop offset="1" stop-color="#4AA8FF" stop-opacity="0"/>
</linearGradient>
<linearGradient id="paint2_linear" x1="478.265" y1="141.852" x2="324.11" y2="408.856" gradientUnits="userSpaceOnUse">
<stop stop-color="white"/>
<stop offset="0.1013" stop-color="#F4FCFF"/>
<stop offset="0.4946" stop-color="#CCF0FF"/>
<stop offset="0.8079" stop-color="#B4E9FF"/>
<stop offset="1" stop-color="#ABE6FF"/>
</linearGradient>
<linearGradient id="paint3_linear" x1="400.497" y1="134.863" x2="346.112" y2="229.06" gradientUnits="userSpaceOnUse">
<stop stop-color="#38A0FF"/>
<stop offset="1" stop-color="#0071D8"/>
</linearGradient>
<linearGradient id="paint4_linear" x1="39.6838" y1="136.775" x2="53.3391" y2="166.73" gradientUnits="userSpaceOnUse">
<stop stop-color="#C4D1E8"/>
<stop offset="1" stop-color="#9CAFCF"/>
</linearGradient>
<linearGradient id="paint5_linear" x1="41.3113" y1="133.487" x2="41.3113" y2="173.826" gradientUnits="userSpaceOnUse">
<stop stop-color="#C4D1E8"/>
<stop offset="1" stop-color="#E1ECFF"/>
</linearGradient>
<clipPath id="clip0">
<rect width="550" height="431.5" fill="white"/>
</clipPath>
</defs>
</svg>
