<svg width="760" height="600" viewBox="0 0 760 600" fill="none" xmlns="http://www.w3.org/2000/svg">
<g clip-path="url(#clip0)">
<path d="M233.5 89.0005C233.5 97.8005 244 102.3 250.4 96.3005L267.9 79.8005C273 75.0005 271.7 66.5005 265.4 63.5005L247.8 55.0005C241.2 51.8005 233.5 56.6005 233.5 64.0005V89.0005Z" fill="#6E82A4"/>
<path d="M246.6 173.4C246.6 117.4 288.5 72.0996 340.2 72.0996H450C501.7 72.0996 543.6 117.5 543.6 173.4V373.6C543.6 429.6 501.7 474.9 450 474.9H340.2C288.5 474.9 246.6 429.5 246.6 373.6V173.4Z" fill="#95F2FF"/>
<path d="M246.6 173.4C246.6 117.4 288.5 72.0996 340.2 72.0996H450C501.7 72.0996 543.6 117.5 543.6 173.4V373.6C543.6 429.6 501.7 474.9 450 474.9H340.2C288.5 474.9 246.6 429.5 246.6 373.6V173.4Z" fill="#25395F"/>
<path d="M279.3 301.7C303.5 310.6 325.2 311 324.2 302.5L384.9 344L336.5 370.2C330.5 353.2 307.3 353.3 269.2 341.1C216.4 324.3 197 290.2 188.7 275.6L188.5 275.3C180.9 261.9 195.1 235.2 210.3 248.9C227.2 264 237.5 286.4 279.3 301.7Z" fill="#BEECFF"/>
<path d="M144.8 220.099C150.6 219.999 164.7 224.199 174.2 228.399C183.7 232.599 197.1 239.999 206.1 250.299C213.1 258.299 198 276.899 186.7 268.599C180.3 263.899 174.7 260.999 167.1 258.299C166 257.899 164.9 257.999 164 258.699C161.4 260.599 159.2 263.099 157.3 264.799C155.2 266.799 152.1 263.899 153.1 261.399C154 258.999 159.4 254.399 160.8 253.299C161.5 252.499 161.2 250.399 159.3 250.799C156 251.299 151.4 254.099 147.5 256.499C144.1 258.699 140.4 254.799 143.7 252.099C146.3 249.499 157.5 244.399 159.2 243.899C160.9 243.399 160.3 240.799 157.7 240.899C155.1 240.899 146.6 241.899 141.8 242.699C136.7 243.599 135 238.299 138.6 236.699C142.3 235.099 150.7 234.199 155.5 234.099C160.3 233.999 160.4 232.599 158.6 231.399C156.8 230.199 148.3 227.599 144.4 226.599C140.6 225.499 140.9 220.099 144.8 220.099Z" fill="#108CFF"/>
<path d="M173.9 245.901C184.9 250.101 184.9 259.201 193.1 262.301C201.3 265.401 209 260.501 207.5 253.101C205.8 245.001 181.2 231.201 180.7 231.701C194 238.501 182 241.501 176.3 238.501C173.6 237.501 171 235.901 167.4 235.901C161.1 235.901 161.1 240.301 163.7 242.001C166.2 243.801 169.1 244.101 173.9 245.901Z" fill="url(#paint0_linear)"/>
<path d="M531 424.6C522 441.1 498.5 474.6 450.5 474.6H369.5C356.1 404.8 309.5 346.6 328.1 237.1C339.1 172.4 394.8 144.4 437.9 159.6C481 174.8 492.5 219.7 477.3 267.6C462 315.5 509.2 390.2 531 424.6Z" fill="url(#paint1_linear)"/>
<path d="M345.1 228.699C340.1 259.699 359.6 288.699 388.8 293.399C418 298.199 445.7 276.899 450.8 245.899C455.8 214.899 436.3 185.899 407.1 181.199C377.9 176.499 350.1 197.699 345.1 228.699Z" fill="#C2F4FF"/>
<path d="M348.2 227.801C343.3 257.701 361.8 285.601 389.5 290.101C417.2 294.601 443.6 274.001 448.5 244.101C453.4 214.201 434.9 186.301 407.2 181.801C379.4 177.301 353 197.901 348.2 227.801Z" fill="url(#paint2_linear)"/>
<path opacity="0.5" d="M403.8 193.001C390.1 204.201 416.9 235.901 432 226.401C447.1 216.901 417.5 181.701 403.8 193.001Z" fill="#42A3FF"/>
<path d="M408.9 242.2C408.5 244.9 410.3 247.5 413 247.9C415.7 248.3 418.3 246.5 418.7 243.8C419.1 241.1 417.3 238.5 414.6 238.1C411.9 237.6 409.3 239.5 408.9 242.2Z" fill="#354781"/>
<path d="M415.5 240.401C415.3 240.601 415.4 241.101 415.7 241.501C416.1 241.901 416.6 242.001 416.8 241.801C417 241.601 416.9 241.101 416.6 240.701C416.3 240.301 415.8 240.201 415.5 240.401Z" fill="#9CB0CD"/>
<path d="M416 244.499C416.5 244.699 416.9 245.299 416.5 245.799C415.6 246.699 414.4 247.099 413.1 246.899C411 246.599 409.5 244.499 409.9 242.399C410.1 241.399 410.6 240.499 411.4 239.899C411.9 239.499 412.5 240.099 412.7 240.699C412.9 241.499 413.3 242.299 414 243.099C414.6 243.799 415.3 244.199 416 244.499Z" fill="#1A2A63"/>
<path d="M359.1 227.3C358.7 230 360.1 232.5 362.3 232.9C364.5 233.3 366.7 231.4 367.1 228.7C367.5 226 366.1 223.5 363.9 223.1C361.7 222.7 359.5 224.6 359.1 227.3Z" fill="#354781"/>
<path d="M364.6 230.299C365 230.399 365.3 230.899 365 231.199C364.3 231.899 363.3 232.199 362.4 231.999C360.6 231.699 359.4 229.599 359.7 227.399C359.9 226.199 360.5 225.199 361.2 224.599C361.5 224.299 361.9 224.799 361.9 225.199C361.8 225.899 361.8 226.699 362.1 227.599C362.7 228.999 363.6 229.999 364.6 230.299Z" fill="#1A2A63"/>
<path opacity="0.54" d="M365 225.599C364.7 225.699 364.6 226.199 364.7 226.699C364.9 227.199 365.3 227.499 365.6 227.399C365.9 227.299 366 226.799 365.9 226.299C365.7 225.799 365.3 225.499 365 225.599Z" fill="white"/>
<path d="M94.6001 223.901L105.9 198.301C106.1 197.801 106.1 197.301 106 197.001L25.2001 187.301C25.0001 187.601 25.0001 188.301 25.5001 188.601L94.6001 223.901Z" fill="url(#paint3_linear)"/>
<path d="M91.5002 184.999C95.1002 185.699 98.4002 187.699 100.8 190.499L105.4 195.999C105.7 196.299 105.9 196.599 106 196.899L25.2002 187.199C25.4002 186.799 25.7002 186.699 26.1002 186.699L90.5002 184.699L91.5002 184.999Z" fill="#E4EBFA"/>
<path d="M87.6996 194.901L25.0996 187.301C25.0996 187.301 26.2996 187.601 26.9996 187.801L87.4996 197.601L87.6996 194.901Z" fill="#9AADCE"/>
<path d="M102.7 225.8L107.6 213.5L25.1 187.5C25 187.7 24.9 188.3 25.5 188.7L97.9 227.3C99.5 228.1 101.6 228.3 102.7 225.8Z" fill="url(#paint4_linear)"/>
<path d="M25.1 187.5C25.1 187.5 25 187.8 25 187.9L120.9 219.2C123.8 220.2 126.9 220.5 130 220.1C131.3 220 131.8 218.3 130.8 217.4L112.8 202.8C112.4 202.4 111.8 202.1 111.3 202L25.1 187.5Z" fill="#DBE4F6"/>
<path d="M25.1 187.5C25.1 187.5 25 187.8 25 187.9L122.7 219.8L92.8 199.2C92.1 198.7 91.2 198.4 90.4 198.2L25.1 187.5Z" fill="#E4EBFA"/>
<path d="M553.4 463.401C555 465.001 557.6 465.001 559.3 463.401L573.8 448.901C575.4 447.301 575.4 444.701 573.8 443.001C572.2 441.401 569.6 441.401 567.9 443.001L553.4 457.501C551.8 459.201 551.8 461.801 553.4 463.401Z" fill="#405985"/>
<path d="M254.6 142.1C252.6 142.1 250.9 143.8 251.3 145.8C252 148.9 253.6 151.8 256 154.1C259.2 157.3 263.6 159.1 268.2 159.1C272.8 159.1 277.2 157.3 280.4 154.1C282.7 151.8 284.4 148.9 285.1 145.8C285.6 143.8 283.9 142.1 281.8 142.1C279.7 142.1 278.2 143.8 277.4 145.7C276.9 146.9 276.2 148 275.2 149C273.3 150.8 270.8 151.8 268.2 151.8C265.6 151.8 263.1 150.8 261.2 149C260.2 148.1 259.5 147 259 145.7C258.2 143.8 256.6 142.1 254.6 142.1Z" fill="#9AADCE"/>
<path d="M255.401 149.4C257.401 149.4 259.101 147.7 258.701 145.7C258.001 142.6 256.401 139.7 254.001 137.4C250.801 134.2 246.401 132.4 241.801 132.4C237.201 132.4 232.801 134.2 229.601 137.4C227.301 139.7 225.601 142.6 224.901 145.7C224.401 147.7 226.101 149.4 228.201 149.4C230.201 149.4 231.801 147.7 232.601 145.8C233.101 144.6 233.801 143.5 234.801 142.5C236.701 140.7 239.201 139.7 241.801 139.7C244.401 139.7 246.901 140.7 248.801 142.5C249.801 143.4 250.501 144.5 251.001 145.8C251.801 147.7 253.301 149.4 255.401 149.4Z" fill="#9AADCE"/>
<path d="M513 482.3C506.8 489 495.6 484.6 495.6 475.5V423.1C495.6 417.6 500.1 413.1 505.6 413.1H553.8C562.5 413.1 567.1 423.5 561.2 429.9L513 482.3Z" fill="#9AADCE"/>
</g>
<defs>
<linearGradient id="paint0_linear" x1="162.048" y1="247.54" x2="207.68" y2="247.54" gradientUnits="userSpaceOnUse">
<stop stop-color="#6DB9FF"/>
<stop offset="1" stop-color="#4AA8FF" stop-opacity="0"/>
</linearGradient>
<linearGradient id="paint1_linear" x1="503.265" y1="195.852" x2="349.11" y2="462.856" gradientUnits="userSpaceOnUse">
<stop stop-color="white"/>
<stop offset="0.1013" stop-color="#F4FCFF"/>
<stop offset="0.4946" stop-color="#CCF0FF"/>
<stop offset="0.8079" stop-color="#B4E9FF"/>
<stop offset="1" stop-color="#ABE6FF"/>
</linearGradient>
<linearGradient id="paint2_linear" x1="425.497" y1="188.863" x2="371.112" y2="283.06" gradientUnits="userSpaceOnUse">
<stop stop-color="#38A0FF"/>
<stop offset="1" stop-color="#0071D8"/>
</linearGradient>
<linearGradient id="paint3_linear" x1="64.6838" y1="190.775" x2="78.3391" y2="220.73" gradientUnits="userSpaceOnUse">
<stop stop-color="#C4D1E8"/>
<stop offset="1" stop-color="#9CAFCF"/>
</linearGradient>
<linearGradient id="paint4_linear" x1="66.3113" y1="187.487" x2="66.3113" y2="227.826" gradientUnits="userSpaceOnUse">
<stop stop-color="#C4D1E8"/>
<stop offset="1" stop-color="#E1ECFF"/>
</linearGradient>
<clipPath id="clip0">
<rect width="550" height="431.5" fill="white" transform="translate(25 54)"/>
</clipPath>
</defs>
</svg>
