<svg width="670" height="720" viewBox="0 0 670 720" fill="none" xmlns="http://www.w3.org/2000/svg">
<g clip-path="url(#clip0)">
<path d="M208.5 154C208.5 162.8 219 167.3 225.4 161.3L242.9 144.8C248 140 246.7 131.5 240.4 128.5L222.8 120C216.2 116.8 208.5 121.6 208.5 129V154Z" fill="#37E5D7"/>
<path d="M221.6 238.4C221.6 182.4 263.5 137.1 315.2 137.1H425C476.7 137.1 518.6 182.5 518.6 238.4V438.6C518.6 494.6 476.7 539.9 425 539.9H315.2C263.5 539.9 221.6 494.5 221.6 438.6V238.4Z" fill="#95F2FF"/>
<path d="M221.6 238.4C221.6 182.4 263.5 137.1 315.2 137.1H425C476.7 137.1 518.6 182.5 518.6 238.4V438.6C518.6 494.6 476.7 539.9 425 539.9H315.2C263.5 539.9 221.6 494.5 221.6 438.6V238.4Z" fill="url(#paint0_linear)"/>
<path d="M254.3 366.7C278.5 375.6 300.2 376 299.2 367.5L359.9 409L311.5 435.2C305.5 418.2 282.3 418.3 244.2 406.1C191.4 389.3 172 355.2 163.7 340.6L163.5 340.3C155.9 326.9 170.1 300.2 185.3 313.9C202.2 329 212.5 351.4 254.3 366.7Z" fill="#BEECFF"/>
<path d="M119.8 285.1C125.6 285 139.7 289.2 149.2 293.4C158.7 297.6 172.1 305 181.1 315.3C188.1 323.3 173 341.9 161.7 333.6C155.3 328.9 149.7 326 142.1 323.3C141 322.9 139.9 323 139 323.7C136.4 325.6 134.2 328.1 132.3 329.8C130.2 331.8 127.1 328.9 128.1 326.4C129 324 134.4 319.4 135.8 318.3C136.5 317.5 136.2 315.4 134.3 315.8C131 316.3 126.4 319.1 122.5 321.5C119.1 323.7 115.4 319.8 118.7 317.1C121.3 314.5 132.5 309.4 134.2 308.9C135.9 308.4 135.3 305.8 132.7 305.9C130.1 305.9 121.6 306.9 116.8 307.7C111.7 308.6 110 303.3 113.6 301.7C117.3 300.1 125.7 299.2 130.5 299.1C135.3 299 135.4 297.6 133.6 296.4C131.8 295.2 123.3 292.6 119.4 291.6C115.6 290.5 115.9 285.1 119.8 285.1Z" fill="#108CFF"/>
<path d="M148.9 310.9C159.9 315.1 159.9 324.2 168.1 327.3C176.3 330.4 184 325.5 182.5 318.1C180.8 310 156.2 296.2 155.7 296.7C169 303.5 157 306.5 151.3 303.5C148.6 302.5 146 300.9 142.4 300.9C136.1 300.9 136.1 305.3 138.7 307C141.2 308.8 144.1 309.1 148.9 310.9Z" fill="url(#paint1_linear)"/>
<path d="M506 489.6C497 506.1 473.5 539.6 425.5 539.6H344.5C331.1 469.8 284.5 411.6 303.1 302.1C314.1 237.4 369.8 209.4 412.9 224.6C456 239.8 467.5 284.7 452.3 332.6C437 380.5 484.2 455.2 506 489.6Z" fill="url(#paint2_linear)"/>
<path d="M320.1 293.7C315.1 324.7 334.6 353.7 363.8 358.4C393 363.2 420.7 341.9 425.8 310.9C430.8 279.9 411.3 250.9 382.1 246.2C352.9 241.5 325.1 262.7 320.1 293.7Z" fill="#C2F4FF"/>
<path d="M323.2 292.8C318.3 322.7 336.8 350.6 364.5 355.1C392.2 359.6 418.6 339 423.5 309.1C428.4 279.2 409.9 251.3 382.2 246.8C354.4 242.3 328 262.9 323.2 292.8Z" fill="url(#paint3_linear)"/>
<path opacity="0.5" d="M378.8 258C365.1 269.2 391.9 300.9 407 291.4C422.1 281.9 392.5 246.7 378.8 258Z" fill="#42A3FF"/>
<path d="M383.9 307.2C383.5 309.9 385.3 312.5 388 312.9C390.7 313.3 393.3 311.5 393.7 308.8C394.1 306.1 392.3 303.5 389.6 303.1C386.9 302.6 384.3 304.5 383.9 307.2Z" fill="#354781"/>
<path d="M390.5 305.4C390.3 305.6 390.4 306.1 390.7 306.5C391.1 306.9 391.6 307 391.8 306.8C392 306.6 391.9 306.1 391.6 305.7C391.3 305.3 390.8 305.2 390.5 305.4Z" fill="#9CB0CD"/>
<path d="M391 309.5C391.5 309.7 391.9 310.3 391.5 310.8C390.6 311.7 389.4 312.1 388.1 311.9C386 311.6 384.5 309.5 384.9 307.4C385.1 306.4 385.6 305.5 386.4 304.9C386.9 304.5 387.5 305.1 387.7 305.7C387.9 306.5 388.3 307.3 389 308.1C389.6 308.8 390.3 309.2 391 309.5Z" fill="#1A2A63"/>
<path d="M334.1 292.3C333.7 295 335.1 297.5 337.3 297.9C339.5 298.3 341.7 296.4 342.1 293.7C342.5 291 341.1 288.5 338.9 288.1C336.7 287.7 334.5 289.6 334.1 292.3Z" fill="#354781"/>
<path d="M339.6 295.3C340 295.4 340.3 295.9 340 296.2C339.3 296.9 338.3 297.2 337.4 297C335.6 296.7 334.4 294.6 334.7 292.4C334.9 291.2 335.5 290.2 336.2 289.6C336.5 289.3 336.9 289.8 336.9 290.2C336.8 290.9 336.8 291.7 337.1 292.6C337.7 294 338.6 295 339.6 295.3Z" fill="#1A2A63"/>
<path opacity="0.54" d="M340 290.6C339.7 290.7 339.6 291.2 339.7 291.7C339.9 292.2 340.3 292.5 340.6 292.4C340.9 292.3 341 291.8 340.9 291.3C340.7 290.8 340.3 290.5 340 290.6Z" fill="white"/>
<path d="M69.6001 288.9L80.9001 263.3C81.1001 262.8 81.1001 262.3 81.0001 262L0.200146 252.3C0.000145905 252.6 0.000145912 253.3 0.500146 253.6L69.6001 288.9Z" fill="url(#paint4_linear)"/>
<path d="M66.5002 250C70.1002 250.7 73.4002 252.7 75.8002 255.5L80.4002 261C80.7002 261.3 80.9002 261.6 81.0002 261.9L0.200195 252.2C0.400195 251.8 0.700195 251.7 1.1002 251.7L65.5002 249.7L66.5002 250Z" fill="#E4EBFA"/>
<path d="M62.6996 259.9L0.0996094 252.3C0.0996094 252.3 1.29961 252.6 1.99961 252.8L62.4996 262.6L62.6996 259.9Z" fill="#9AADCE"/>
<path d="M77.7 290.8L82.6 278.5L0.100007 252.5C6.96629e-06 252.7 -0.0999931 253.3 0.500007 253.7L72.9 292.3C74.5 293.1 76.6 293.3 77.7 290.8Z" fill="url(#paint5_linear)"/>
<path d="M0.1 252.5C0.1 252.5 0 252.8 0 252.9L95.9 284.2C98.8 285.2 101.9 285.5 105 285.1C106.3 285 106.8 283.3 105.8 282.4L87.8 267.8C87.4 267.4 86.8 267.1 86.3 267L0.1 252.5Z" fill="#DBE4F6"/>
<path d="M0.1 252.5C0.1 252.5 0 252.8 0 252.9L97.7 284.8L67.8 264.2C67.1 263.7 66.2 263.4 65.4 263.2L0.1 252.5Z" fill="#E4EBFA"/>
<path d="M528.4 528.4C530 530 532.6 530 534.3 528.4L548.8 513.9C550.4 512.3 550.4 509.7 548.8 508C547.2 506.4 544.6 506.4 542.9 508L528.4 522.5C526.8 524.2 526.8 526.8 528.4 528.4Z" fill="#666AF6"/>
<path d="M229.6 207.1C227.6 207.1 225.9 208.8 226.3 210.8C227 213.9 228.6 216.8 231 219.1C234.2 222.3 238.6 224.1 243.2 224.1C247.8 224.1 252.2 222.3 255.4 219.1C257.7 216.8 259.4 213.9 260.1 210.8C260.6 208.8 258.9 207.1 256.8 207.1C254.7 207.1 253.2 208.8 252.4 210.7C251.9 211.9 251.2 213 250.2 214C248.3 215.8 245.8 216.8 243.2 216.8C240.6 216.8 238.1 215.8 236.2 214C235.2 213.1 234.5 212 234 210.7C233.2 208.8 231.6 207.1 229.6 207.1Z" fill="#FF7A59"/>
<path d="M230.4 214.4C232.4 214.4 234.1 212.7 233.7 210.7C233 207.6 231.4 204.7 229 202.4C225.8 199.2 221.4 197.4 216.8 197.4C212.2 197.4 207.8 199.2 204.6 202.4C202.3 204.7 200.6 207.6 199.9 210.7C199.4 212.7 201.1 214.4 203.2 214.4C205.2 214.4 206.8 212.7 207.6 210.8C208.1 209.6 208.8 208.5 209.8 207.5C211.7 205.7 214.2 204.7 216.8 204.7C219.4 204.7 221.9 205.7 223.8 207.5C224.8 208.4 225.5 209.5 226 210.8C226.8 212.7 228.3 214.4 230.4 214.4Z" fill="#FF7A59"/>
<path d="M488 547.3C481.8 554 470.6 549.6 470.6 540.5V488.1C470.6 482.6 475.1 478.1 480.6 478.1H528.8C537.5 478.1 542.1 488.5 536.2 494.9L488 547.3Z" fill="#FFCA62"/>
</g>
<defs>
<linearGradient id="paint0_linear" x1="370.115" y1="137.113" x2="370.115" y2="539.963" gradientUnits="userSpaceOnUse">
<stop stop-color="#95F2FF"/>
<stop offset="1" stop-color="#82E1FE"/>
</linearGradient>
<linearGradient id="paint1_linear" x1="137.048" y1="312.54" x2="182.68" y2="312.54" gradientUnits="userSpaceOnUse">
<stop stop-color="#6DB9FF"/>
<stop offset="1" stop-color="#4AA8FF" stop-opacity="0"/>
</linearGradient>
<linearGradient id="paint2_linear" x1="478.265" y1="260.852" x2="324.11" y2="527.856" gradientUnits="userSpaceOnUse">
<stop stop-color="white"/>
<stop offset="0.1013" stop-color="#F4FCFF"/>
<stop offset="0.4946" stop-color="#CCF0FF"/>
<stop offset="0.8079" stop-color="#B4E9FF"/>
<stop offset="1" stop-color="#ABE6FF"/>
</linearGradient>
<linearGradient id="paint3_linear" x1="400.497" y1="253.862" x2="346.112" y2="348.059" gradientUnits="userSpaceOnUse">
<stop stop-color="#38A0FF"/>
<stop offset="1" stop-color="#0071D8"/>
</linearGradient>
<linearGradient id="paint4_linear" x1="39.6838" y1="255.775" x2="53.3391" y2="285.73" gradientUnits="userSpaceOnUse">
<stop stop-color="#C4D1E8"/>
<stop offset="1" stop-color="#9CAFCF"/>
</linearGradient>
<linearGradient id="paint5_linear" x1="41.3113" y1="252.487" x2="41.3113" y2="292.826" gradientUnits="userSpaceOnUse">
<stop stop-color="#C4D1E8"/>
<stop offset="1" stop-color="#E1ECFF"/>
</linearGradient>
<clipPath id="clip0">
<rect width="550" height="431.5" fill="white" transform="translate(0 119)"/>
</clipPath>
</defs>
</svg>
