<svg width="760" height="600" viewBox="0 0 760 600" fill="none" xmlns="http://www.w3.org/2000/svg">
<g clip-path="url(#clip0)">
<path d="M233.5 89.0005C233.5 97.8005 244 102.3 250.4 96.3005L267.9 79.8005C273 75.0005 271.7 66.5005 265.4 63.5005L247.8 55.0005C241.2 51.8005 233.5 56.6005 233.5 64.0005V89.0005Z" fill="#37E5D7"/>
<path d="M246.6 173.4C246.6 117.4 288.5 72.1001 340.2 72.1001H450C501.7 72.1001 543.6 117.5 543.6 173.4V373.6C543.6 429.6 501.7 474.9 450 474.9H340.2C288.5 474.9 246.6 429.5 246.6 373.6V173.4Z" fill="#95F2FF"/>
<path d="M246.6 173.4C246.6 117.4 288.5 72.0996 340.2 72.0996H450C501.7 72.0996 543.6 117.5 543.6 173.4V373.6C543.6 429.6 501.7 474.9 450 474.9H340.2C288.5 474.9 246.6 429.5 246.6 373.6V173.4Z" fill="url(#paint0_linear)"/>
<path d="M279.3 301.7C303.5 310.6 325.2 311 324.2 302.5L384.9 344L336.5 370.2C330.5 353.2 307.3 353.3 269.2 341.1C216.4 324.3 197 290.2 188.7 275.6L188.5 275.3C180.9 261.9 195.1 235.2 210.3 248.9C227.2 264 237.5 286.4 279.3 301.7Z" fill="#BEECFF"/>
<path d="M144.8 220.1C150.6 220 164.7 224.2 174.2 228.4C183.7 232.6 197.1 240 206.1 250.3C213.1 258.3 198 276.9 186.7 268.6C180.3 263.9 174.7 261 167.1 258.3C166 257.9 164.9 258 164 258.7C161.4 260.6 159.2 263.1 157.3 264.8C155.2 266.8 152.1 263.9 153.1 261.4C154 259 159.4 254.4 160.8 253.3C161.5 252.5 161.2 250.4 159.3 250.8C156 251.3 151.4 254.1 147.5 256.5C144.1 258.7 140.4 254.8 143.7 252.1C146.3 249.5 157.5 244.4 159.2 243.9C160.9 243.4 160.3 240.8 157.7 240.9C155.1 240.9 146.6 241.9 141.8 242.7C136.7 243.6 135 238.3 138.6 236.7C142.3 235.1 150.7 234.2 155.5 234.1C160.3 234 160.4 232.6 158.6 231.4C156.8 230.2 148.3 227.6 144.4 226.6C140.6 225.5 140.9 220.1 144.8 220.1Z" fill="#108CFF"/>
<path d="M173.9 245.9C184.9 250.1 184.9 259.2 193.1 262.3C201.3 265.4 209 260.5 207.5 253.1C205.8 245 181.2 231.2 180.7 231.7C194 238.5 182 241.5 176.3 238.5C173.6 237.5 171 235.9 167.4 235.9C161.1 235.9 161.1 240.3 163.7 242C166.2 243.8 169.1 244.1 173.9 245.9Z" fill="url(#paint1_linear)"/>
<path d="M531 424.6C522 441.1 498.5 474.6 450.5 474.6H369.5C356.1 404.8 309.5 346.6 328.1 237.1C339.1 172.4 394.8 144.4 437.9 159.6C481 174.8 492.5 219.7 477.3 267.6C462 315.5 509.2 390.2 531 424.6Z" fill="url(#paint2_linear)"/>
<path d="M345.1 228.7C340.1 259.7 359.6 288.7 388.8 293.4C418 298.2 445.7 276.9 450.8 245.9C455.8 214.9 436.3 185.9 407.1 181.2C377.9 176.5 350.1 197.7 345.1 228.7Z" fill="#C2F4FF"/>
<path d="M348.2 227.8C343.3 257.7 361.8 285.6 389.5 290.1C417.2 294.6 443.6 274 448.5 244.1C453.4 214.2 434.9 186.3 407.2 181.8C379.4 177.3 353 197.9 348.2 227.8Z" fill="url(#paint3_linear)"/>
<path opacity="0.5" d="M403.8 193C390.1 204.2 416.9 235.9 432 226.4C447.1 216.9 417.5 181.7 403.8 193Z" fill="#42A3FF"/>
<path d="M408.9 242.2C408.5 244.9 410.3 247.5 413 247.9C415.7 248.3 418.3 246.5 418.7 243.8C419.1 241.1 417.3 238.5 414.6 238.1C411.9 237.6 409.3 239.5 408.9 242.2Z" fill="#354781"/>
<path d="M415.5 240.4C415.3 240.6 415.4 241.1 415.7 241.5C416.1 241.9 416.6 242 416.8 241.8C417 241.6 416.9 241.1 416.6 240.7C416.3 240.3 415.8 240.2 415.5 240.4Z" fill="#9CB0CD"/>
<path d="M416 244.5C416.5 244.7 416.9 245.3 416.5 245.8C415.6 246.7 414.4 247.1 413.1 246.9C411 246.6 409.5 244.5 409.9 242.4C410.1 241.4 410.6 240.5 411.4 239.9C411.9 239.5 412.5 240.1 412.7 240.7C412.9 241.5 413.3 242.3 414 243.1C414.6 243.8 415.3 244.2 416 244.5Z" fill="#1A2A63"/>
<path d="M359.1 227.3C358.7 230 360.1 232.5 362.3 232.9C364.5 233.3 366.7 231.4 367.1 228.7C367.5 226 366.1 223.5 363.9 223.1C361.7 222.7 359.5 224.6 359.1 227.3Z" fill="#354781"/>
<path d="M364.6 230.3C365 230.4 365.3 230.9 365 231.2C364.3 231.9 363.3 232.2 362.4 232C360.6 231.7 359.4 229.6 359.7 227.4C359.9 226.2 360.5 225.2 361.2 224.6C361.5 224.3 361.9 224.8 361.9 225.2C361.8 225.9 361.8 226.7 362.1 227.6C362.7 229 363.6 230 364.6 230.3Z" fill="#1A2A63"/>
<path opacity="0.54" d="M365 225.6C364.7 225.7 364.6 226.2 364.7 226.7C364.9 227.2 365.3 227.5 365.6 227.4C365.9 227.3 366 226.8 365.9 226.3C365.7 225.8 365.3 225.5 365 225.6Z" fill="white"/>
<path d="M94.5999 223.9L105.9 198.3C106.1 197.8 106.1 197.3 106 197L25.1999 187.3C24.9999 187.6 24.9999 188.3 25.4999 188.6L94.5999 223.9Z" fill="url(#paint4_linear)"/>
<path d="M91.5 185C95.1 185.7 98.4 187.7 100.8 190.5L105.4 196C105.7 196.3 105.9 196.6 106 196.9L25.2 187.2C25.4 186.8 25.7 186.7 26.1 186.7L90.5 184.7L91.5 185Z" fill="#E4EBFA"/>
<path d="M87.7001 194.9L25.1001 187.3C25.1001 187.3 26.3001 187.6 27.0001 187.8L87.5001 197.6L87.7001 194.9Z" fill="#9AADCE"/>
<path d="M102.7 225.8L107.6 213.5L25.1 187.5C25 187.7 24.9 188.3 25.5 188.7L97.9 227.3C99.5 228.1 101.6 228.3 102.7 225.8Z" fill="url(#paint5_linear)"/>
<path d="M25.1 187.5C25.1 187.5 25 187.8 25 187.9L120.9 219.2C123.8 220.2 126.9 220.5 130 220.1C131.3 220 131.8 218.3 130.8 217.4L112.8 202.8C112.4 202.4 111.8 202.1 111.3 202L25.1 187.5Z" fill="#DBE4F6"/>
<path d="M25.1 187.5C25.1 187.5 25 187.8 25 187.9L122.7 219.8L92.8 199.2C92.1 198.7 91.2 198.4 90.4 198.2L25.1 187.5Z" fill="#E4EBFA"/>
<path d="M553.4 463.401C555 465.001 557.6 465.001 559.3 463.401L573.8 448.901C575.4 447.301 575.4 444.701 573.8 443.001C572.2 441.401 569.6 441.401 567.9 443.001L553.4 457.501C551.8 459.201 551.8 461.801 553.4 463.401Z" fill="#666AF6"/>
<path d="M254.6 142.1C252.6 142.1 250.9 143.8 251.3 145.8C252 148.9 253.6 151.8 256 154.1C259.2 157.3 263.6 159.1 268.2 159.1C272.8 159.1 277.2 157.3 280.4 154.1C282.7 151.8 284.4 148.9 285.1 145.8C285.6 143.8 283.9 142.1 281.8 142.1C279.7 142.1 278.2 143.8 277.4 145.7C276.9 146.9 276.2 148 275.2 149C273.3 150.8 270.8 151.8 268.2 151.8C265.6 151.8 263.1 150.8 261.2 149C260.2 148.1 259.5 147 259 145.7C258.2 143.8 256.6 142.1 254.6 142.1Z" fill="#FF7A59"/>
<path d="M255.4 149.4C257.4 149.4 259.1 147.7 258.7 145.7C258 142.6 256.4 139.7 254 137.4C250.8 134.2 246.4 132.4 241.8 132.4C237.2 132.4 232.8 134.2 229.6 137.4C227.3 139.7 225.6 142.6 224.9 145.7C224.4 147.7 226.1 149.4 228.2 149.4C230.2 149.4 231.8 147.7 232.6 145.8C233.1 144.6 233.8 143.5 234.8 142.5C236.7 140.7 239.2 139.7 241.8 139.7C244.4 139.7 246.9 140.7 248.8 142.5C249.8 143.4 250.5 144.5 251 145.8C251.8 147.7 253.3 149.4 255.4 149.4Z" fill="#FF7A59"/>
<path d="M513 482.3C506.8 489 495.6 484.6 495.6 475.5V423.1C495.6 417.6 500.1 413.1 505.6 413.1H553.8C562.5 413.1 567.1 423.5 561.2 429.9L513 482.3Z" fill="#FFCA62"/>
</g>
<defs>
<linearGradient id="paint0_linear" x1="395.116" y1="72.1127" x2="395.116" y2="474.963" gradientUnits="userSpaceOnUse">
<stop stop-color="#95F2FF"/>
<stop offset="1" stop-color="#82E1FE"/>
</linearGradient>
<linearGradient id="paint1_linear" x1="162.048" y1="247.54" x2="207.681" y2="247.54" gradientUnits="userSpaceOnUse">
<stop stop-color="#6DB9FF"/>
<stop offset="1" stop-color="#4AA8FF" stop-opacity="0"/>
</linearGradient>
<linearGradient id="paint2_linear" x1="503.265" y1="195.852" x2="349.11" y2="462.856" gradientUnits="userSpaceOnUse">
<stop stop-color="white"/>
<stop offset="0.1013" stop-color="#F4FCFF"/>
<stop offset="0.4946" stop-color="#CCF0FF"/>
<stop offset="0.8079" stop-color="#B4E9FF"/>
<stop offset="1" stop-color="#ABE6FF"/>
</linearGradient>
<linearGradient id="paint3_linear" x1="425.497" y1="188.862" x2="371.112" y2="283.059" gradientUnits="userSpaceOnUse">
<stop stop-color="#38A0FF"/>
<stop offset="1" stop-color="#0071D8"/>
</linearGradient>
<linearGradient id="paint4_linear" x1="64.6836" y1="190.775" x2="78.3389" y2="220.73" gradientUnits="userSpaceOnUse">
<stop stop-color="#C4D1E8"/>
<stop offset="1" stop-color="#9CAFCF"/>
</linearGradient>
<linearGradient id="paint5_linear" x1="66.3113" y1="187.487" x2="66.3113" y2="227.826" gradientUnits="userSpaceOnUse">
<stop stop-color="#C4D1E8"/>
<stop offset="1" stop-color="#E1ECFF"/>
</linearGradient>
<clipPath id="clip0">
<rect width="550" height="431.5" fill="white" transform="translate(25 54)"/>
</clipPath>
</defs>
</svg>
