<svg width="30" height="78" viewBox="0 0 30 78" fill="none" xmlns="http://www.w3.org/2000/svg">
<path d="M0.964727 77.1601C3.02163 77.0721 4.14329 77.3647 4.71949 76.9258C6.87117 75.3007 9.18428 73.7461 10.8796 71.6256C15.6034 66.0925 18.1843 59.5246 19.7158 52.4983C22.35 40.5276 21.7778 28.636 19.7778 16.7126C19.5663 15.4363 19.4356 14.1953 19.2604 12.8362C19.2966 12.7534 19.4497 12.623 19.7197 12.4449C21.2783 13.7177 22.9175 15.0258 24.5123 16.2157C25.4084 16.8045 26.5385 17.2982 27.6518 17.3899C28.2892 17.471 29.4944 16.9123 29.7477 16.3323C30.0735 15.5867 29.9066 14.4286 29.7118 13.5543C29.4892 12.9637 28.799 12.5635 28.2257 12.1158C23.9257 8.75749 19.6981 5.2335 15.2813 1.92281C11.5185 -0.904849 9.53111 -0.0958346 7.92748 4.23518C6.25146 8.73188 4.414 13.1581 2.69346 17.5366C2.19511 18.8975 1.822 20.4117 1.33198 21.9734C5.40959 21.8802 5.4096 21.8802 12.4834 8.9878C15.0349 17.0085 15.6743 24.7858 15.9992 32.623C16.3241 40.4603 15.4549 48.1705 13.4362 55.8719C11.309 63.8218 6.86054 70.2645 0.964727 77.1601Z" fill="white"/>
</svg>
