<svg width="657" height="500" viewBox="0 0 657 500" fill="none" xmlns="http://www.w3.org/2000/svg">
<rect x="415.24" y="269.375" width="179.73" height="179.73" rx="21" transform="rotate(-63.6482 415.24 269.375)" fill="url(#paint0_linear)"/>
<rect x="180.521" y="117.217" width="27.8964" height="27.8964" rx="8" transform="rotate(-20.9339 180.521 117.217)" fill="#8FE6FA"/>
<path d="M180.308 409.012C231.09 409.012 272.258 367.845 272.258 317.063C272.258 266.28 231.09 225.113 180.308 225.113C129.526 225.113 88.3583 266.28 88.3583 317.063C88.3583 367.845 129.526 409.012 180.308 409.012Z" fill="url(#paint1_linear)"/>
<path d="M486.522 398.454C479.808 398.454 474.364 393.01 474.364 386.296C474.364 379.581 479.808 374.138 486.522 374.138C493.237 374.138 498.68 379.581 498.68 386.296C498.68 393.01 493.237 398.454 486.522 398.454Z" fill="#4D51D5"/>
<path d="M36.7558 390.808C29.5614 381.436 34.1325 367.805 45.5407 364.733C74.5664 356.919 97.7137 352.442 128.158 348.717C139.911 347.279 149.291 358.231 146.11 369.637C137.885 399.128 130.281 421.413 118.84 449.054C114.307 460.007 100.138 462.785 91.8168 454.343C71.2363 433.461 55.8152 415.635 36.7558 390.808Z" fill="#FFCA62"/>
<g style="mix-blend-mode:multiply">
<g style="mix-blend-mode:multiply" filter="url(#filter0_f)">
<path d="M310.337 477.135C354.681 477.135 390.628 474.31 390.628 470.826C390.628 467.341 354.681 464.516 310.337 464.516C265.994 464.516 230.047 467.341 230.047 470.826C230.047 474.31 265.994 477.135 310.337 477.135Z" fill="#616E8A" fill-opacity="0.71"/>
</g>
<g style="mix-blend-mode:multiply" filter="url(#filter1_f)">
<path d="M335.461 473.902C353.618 473.902 368.337 472.556 368.337 470.895C368.337 469.234 353.618 467.888 335.461 467.888C317.303 467.888 302.584 469.234 302.584 470.895C302.584 472.556 317.303 473.902 335.461 473.902Z" fill="#616E8A"/>
</g>
</g>
<g filter="url(#filter2_i)">
<path d="M337.132 479.256C374.356 479.256 404.532 449.08 404.532 411.856C404.532 374.632 374.356 344.456 337.132 344.456C299.908 344.456 269.732 374.632 269.732 411.856C269.732 449.08 299.908 479.256 337.132 479.256Z" fill="url(#paint2_radial)"/>
</g>
<g style="mix-blend-mode:screen" opacity="0.46" filter="url(#filter3_f)">
<path d="M363.973 404.02C375.415 404.02 384.691 394.744 384.691 383.302C384.691 371.86 375.415 362.584 363.973 362.584C352.531 362.584 343.255 371.86 343.255 383.302C343.255 394.744 352.531 404.02 363.973 404.02Z" fill="#99C1D3"/>
</g>
<g style="mix-blend-mode:screen" opacity="0.46" filter="url(#filter4_f)">
<path d="M363.973 395.686C370.813 395.686 376.357 390.142 376.357 383.302C376.357 376.463 370.813 370.918 363.973 370.918C357.134 370.918 351.589 376.463 351.589 383.302C351.589 390.142 357.134 395.686 363.973 395.686Z" fill="#DCDCDC"/>
</g>
<mask id="mask0" mask-type="alpha" maskUnits="userSpaceOnUse" x="269" y="344" width="136" height="136">
<path d="M337.132 479.256C374.356 479.256 404.532 449.08 404.532 411.856C404.532 374.632 374.356 344.456 337.132 344.456C299.908 344.456 269.732 374.632 269.732 411.856C269.732 449.08 299.908 479.256 337.132 479.256Z" fill="url(#paint3_radial)"/>
</mask>
<g mask="url(#mask0)">
<g style="mix-blend-mode:multiply" opacity="0.5" filter="url(#filter5_f)">
<path d="M281.943 363.311C297.216 350.07 317.144 342.057 338.944 342.057C353.748 342.057 367.688 345.752 379.893 352.269C347.788 354.724 316.509 358.253 281.943 363.311Z" fill="#BFAB96"/>
</g>
</g>
<path d="M199.74 310.525L447.439 302.264L449.006 349.238L201.306 357.499L199.74 310.525Z" fill="url(#paint4_linear)"/>
<path d="M209.768 300.084L437.392 292.78L447.438 302.313L199.735 310.527L209.768 300.084Z" fill="url(#paint5_linear)"/>
<g style="mix-blend-mode:multiply" opacity="0.08">
<path fill-rule="evenodd" clip-rule="evenodd" d="M448.314 326.486L447.502 302.132C398.174 313.697 361.608 309.918 315.241 304.683L199.74 308.535L200.011 316.662C232.622 316.527 266.532 319.884 300.41 323.237C351.287 328.274 402.092 333.303 448.314 326.486ZM448.734 339.071C345.724 352.185 304.815 345.981 269.558 340.635C248.562 337.451 229.571 334.571 200.665 336.255L201.307 355.509L449.007 347.247L448.734 339.071Z" fill="url(#paint6_linear)"/>
</g>
<path d="M447.973 348.272L446.473 303.297L200.773 311.491L202.273 356.466L447.973 348.272Z" stroke="url(#paint7_radial)" stroke-width="2" stroke-miterlimit="10" stroke-linecap="round" stroke-linejoin="round"/>
<g filter="url(#filter6_f)">
<g style="mix-blend-mode:multiply" opacity="0.35">
<path d="M313.291 303.782C285.512 304.668 262.95 304.053 262.898 302.408C262.845 300.763 285.322 298.711 313.101 297.825C340.88 296.939 363.442 297.554 363.494 299.199C363.547 300.844 341.07 302.896 313.291 303.782Z" fill="url(#paint8_linear)"/>
</g>
<g style="mix-blend-mode:multiply" opacity="0.71">
<path d="M226.366 306.041C218.03 306.307 211.243 305.597 211.206 304.455C211.17 303.313 217.898 302.172 226.234 301.906C234.57 301.64 241.357 302.35 241.393 303.492C241.43 304.634 234.702 305.775 226.366 306.041Z" fill="url(#paint9_linear)"/>
</g>
</g>
<g filter="url(#filter7_i)">
<path d="M231.696 304.947C239.793 304.947 246.358 298.383 246.358 290.285C246.358 282.188 239.793 275.623 231.696 275.623C223.598 275.623 217.034 282.188 217.034 290.285C217.034 298.383 223.598 304.947 231.696 304.947Z" fill="url(#paint10_radial)"/>
</g>
<g style="mix-blend-mode:screen" opacity="0.46" filter="url(#filter8_f)">
<path d="M237.535 288.581C240.024 288.581 242.042 286.563 242.042 284.074C242.042 281.585 240.024 279.567 237.535 279.567C235.046 279.567 233.028 281.585 233.028 284.074C233.028 286.563 235.046 288.581 237.535 288.581Z" fill="#99C1D3"/>
</g>
<g style="mix-blend-mode:screen" opacity="0.46" filter="url(#filter9_f)">
<path d="M237.535 286.768C239.023 286.768 240.229 285.561 240.229 284.074C240.229 282.586 239.023 281.38 237.535 281.38C236.047 281.38 234.841 282.586 234.841 284.074C234.841 285.561 236.047 286.768 237.535 286.768Z" fill="#DCDCDC"/>
</g>
<g filter="url(#filter10_i)">
<path d="M399.909 234.553C401.442 269.639 374.261 299.298 339.176 300.831C304.09 302.364 274.348 274.565 272.815 239.48C301.235 238.24 363.554 236.128 399.909 234.553Z" fill="url(#paint11_radial)"/>
<path d="M336.446 241.805C371.462 240.23 399.744 236.629 399.615 233.761C399.486 230.894 370.995 229.845 335.979 231.42C300.963 232.995 272.682 236.596 272.811 239.464C272.939 242.331 301.43 243.38 336.446 241.805Z" fill="#92BACC"/>
<mask id="mask1" mask-type="alpha" maskUnits="userSpaceOnUse" x="272" y="230" width="128" height="71">
<path d="M398.9 234.597C399.382 234.313 399.627 234.034 399.615 233.761C399.486 230.894 370.995 229.845 335.979 231.42C300.963 232.995 272.682 236.596 272.811 239.464C272.811 239.483 272.814 239.503 272.817 239.522C274.372 274.587 304.104 302.363 339.176 300.831C374.261 299.298 401.442 269.639 399.909 234.553C399.575 234.568 399.238 234.582 398.9 234.597Z" fill="#92BACC"/>
</mask>
<g mask="url(#mask1)">
<g style="mix-blend-mode:multiply" opacity="0.5" filter="url(#filter11_f)">
<path d="M249.894 203.114L497.729 202.241L497.895 249.24C412.446 241.55 358.163 241.921 250.059 250.114L249.894 203.114Z" fill="#BFAB96"/>
</g>
</g>
</g>
<path d="M253.24 186.63L500.539 202.948L497.445 249.846L250.145 233.528L253.24 186.63Z" fill="url(#paint12_linear)"/>
<g style="mix-blend-mode:multiply" opacity="0.12">
<mask id="mask2" mask-type="alpha" maskUnits="userSpaceOnUse" x="250" y="186" width="251" height="64">
<path d="M253.24 186.63L500.539 202.948L497.445 249.846L250.145 233.528L253.24 186.63Z" fill="url(#paint13_linear)"/>
</mask>
<g mask="url(#mask2)">
<path fill-rule="evenodd" clip-rule="evenodd" d="M248.154 203.254L248.154 187.711C264.886 187.711 278.071 202.877 295.473 204.725C317.885 207.105 332.392 203.343 358.728 199.086C385.063 194.828 446.052 190.19 504.943 200.067L503.289 217.992C445.232 208.255 401.043 207.956 367.942 209.718C344.921 210.943 320.635 216.307 297.642 213.865C280.874 212.084 263.873 203.254 248.154 203.254Z" fill="#D7B68E"/>
<path fill-rule="evenodd" clip-rule="evenodd" d="M248.154 223.209L248.154 216.003C264.923 216.003 282.097 219.92 298.82 221.696C335.668 225.609 369.27 215.608 410.512 217.972C451.754 220.337 476.183 230.677 509.344 231.204L507.925 245.555C474.586 245.025 440.021 232.114 409.917 231.046C379.813 229.978 334.792 235.572 297.764 231.64C281.381 229.9 264.567 223.209 248.154 223.209Z" fill="#D7B68E"/>
</g>
</g>
<path d="M498.213 201.841L490.997 193.485L264.592 178.259L255.755 185.796L498.213 201.841Z" fill="#EFD1A3" stroke="url(#paint14_radial)" stroke-width="2" stroke-miterlimit="10" stroke-linecap="round" stroke-linejoin="round"/>
<g style="mix-blend-mode:multiply" opacity="0.94" filter="url(#filter12_f)">
<path d="M444.93 195.849C431.941 195.058 421.471 193.444 421.544 192.244C421.617 191.044 432.206 190.712 445.195 191.503C458.184 192.295 468.654 193.909 468.581 195.109C468.508 196.309 457.919 196.641 444.93 195.849Z" fill="url(#paint15_linear)"/>
</g>
<g style="mix-blend-mode:multiply" opacity="0.94" filter="url(#filter13_f)">
<path d="M328.491 187.939C306.414 186.595 288.574 184.573 288.644 183.423C288.714 182.274 306.668 182.432 328.745 183.777C350.822 185.122 368.662 187.144 368.592 188.293C368.522 189.443 350.568 189.284 328.491 187.939Z" fill="url(#paint16_linear)"/>
</g>
<g style="mix-blend-mode:multiply" opacity="0.94" filter="url(#filter14_f)">
<path d="M336.045 187.756C331.043 187.452 327.027 186.56 327.076 185.764C327.124 184.969 331.218 184.571 336.22 184.876C341.222 185.181 345.238 186.072 345.189 186.868C345.141 187.663 341.047 188.061 336.045 187.756Z" fill="url(#paint17_linear)"/>
</g>
<g filter="url(#filter15_i)">
<path d="M247.581 10.8589L338.996 186.166C339.592 187.309 341.098 187.598 342.075 186.757L421.735 118.162L247.581 10.8589Z" fill="url(#paint18_linear)"/>
</g>
<g filter="url(#filter16_i)">
<path d="M247.581 10.8589L417.713 61.7541C418.526 61.9973 419.097 62.7273 419.138 63.5751L421.734 118.162L247.581 10.8589Z" fill="url(#paint19_linear)"/>
</g>
<path d="M420.646 116.316L254.579 13.9962L417.426 62.7121C417.833 62.8337 418.119 63.1987 418.139 63.6226L420.646 116.316Z" stroke="url(#paint20_radial)" stroke-width="2" stroke-miterlimit="10" stroke-linecap="round" stroke-linejoin="round"/>
<g filter="url(#filter17_i)">
<path d="M457.301 195.807C470.063 195.807 480.41 185.461 480.41 172.698C480.41 159.935 470.063 149.589 457.301 149.589C444.538 149.589 434.192 159.935 434.192 172.698C434.192 185.461 444.538 195.807 457.301 195.807Z" fill="url(#paint21_radial)"/>
</g>
<g style="mix-blend-mode:screen" opacity="0.46" filter="url(#filter18_f)">
<path d="M466.504 170.011C470.427 170.011 473.607 166.831 473.607 162.908C473.607 158.985 470.427 155.804 466.504 155.804C462.58 155.804 459.4 158.985 459.4 162.908C459.4 166.831 462.58 170.011 466.504 170.011Z" fill="#99C1D3"/>
</g>
<g style="mix-blend-mode:screen" opacity="0.46" filter="url(#filter19_f)">
<path d="M466.504 167.154C468.849 167.154 470.75 165.253 470.75 162.908C470.75 160.563 468.849 158.662 466.504 158.662C464.159 158.662 462.258 160.563 462.258 162.908C462.258 165.253 464.159 167.154 466.504 167.154Z" fill="#DCDCDC"/>
</g>
<defs>
<filter id="filter0_f" x="208.047" y="442.516" width="204.582" height="56.6188" filterUnits="userSpaceOnUse" color-interpolation-filters="sRGB">
<feFlood flood-opacity="0" result="BackgroundImageFix"/>
<feBlend mode="normal" in="SourceGraphic" in2="BackgroundImageFix" result="shape"/>
<feGaussianBlur stdDeviation="11" result="effect1_foregroundBlur"/>
</filter>
<filter id="filter1_f" x="284.584" y="449.888" width="101.753" height="42.0139" filterUnits="userSpaceOnUse" color-interpolation-filters="sRGB">
<feFlood flood-opacity="0" result="BackgroundImageFix"/>
<feBlend mode="normal" in="SourceGraphic" in2="BackgroundImageFix" result="shape"/>
<feGaussianBlur stdDeviation="9" result="effect1_foregroundBlur"/>
</filter>
<filter id="filter2_i" x="269.732" y="341.456" width="138.8" height="137.8" filterUnits="userSpaceOnUse" color-interpolation-filters="sRGB">
<feFlood flood-opacity="0" result="BackgroundImageFix"/>
<feBlend mode="normal" in="SourceGraphic" in2="BackgroundImageFix" result="shape"/>
<feColorMatrix in="SourceAlpha" type="matrix" values="0 0 0 0 0 0 0 0 0 0 0 0 0 0 0 0 0 0 127 0" result="hardAlpha"/>
<feOffset dx="4" dy="-3"/>
<feGaussianBlur stdDeviation="4"/>
<feComposite in2="hardAlpha" operator="arithmetic" k2="-1" k3="1"/>
<feColorMatrix type="matrix" values="0 0 0 0 0.654902 0 0 0 0 0.792157 0 0 0 0 0.847059 0 0 0 0.51 0"/>
<feBlend mode="normal" in2="shape" result="effect1_innerShadow"/>
</filter>
<filter id="filter3_f" x="326.255" y="345.584" width="75.4356" height="75.4356" filterUnits="userSpaceOnUse" color-interpolation-filters="sRGB">
<feFlood flood-opacity="0" result="BackgroundImageFix"/>
<feBlend mode="normal" in="SourceGraphic" in2="BackgroundImageFix" result="shape"/>
<feGaussianBlur stdDeviation="8.5" result="effect1_foregroundBlur"/>
</filter>
<filter id="filter4_f" x="334.589" y="353.918" width="58.768" height="58.768" filterUnits="userSpaceOnUse" color-interpolation-filters="sRGB">
<feFlood flood-opacity="0" result="BackgroundImageFix"/>
<feBlend mode="normal" in="SourceGraphic" in2="BackgroundImageFix" result="shape"/>
<feGaussianBlur stdDeviation="8.5" result="effect1_foregroundBlur"/>
</filter>
<filter id="filter5_f" x="277.943" y="338.057" width="105.95" height="29.2536" filterUnits="userSpaceOnUse" color-interpolation-filters="sRGB">
<feFlood flood-opacity="0" result="BackgroundImageFix"/>
<feBlend mode="normal" in="SourceGraphic" in2="BackgroundImageFix" result="shape"/>
<feGaussianBlur stdDeviation="2" result="effect1_foregroundBlur"/>
</filter>
<filter id="filter6_f" x="208.206" y="293.22" width="158.383" height="15.8769" filterUnits="userSpaceOnUse" color-interpolation-filters="sRGB">
<feFlood flood-opacity="0" result="BackgroundImageFix"/>
<feBlend mode="normal" in="SourceGraphic" in2="BackgroundImageFix" result="shape"/>
<feGaussianBlur stdDeviation="1.5" result="effect1_foregroundBlur"/>
</filter>
<filter id="filter7_i" x="217.034" y="273.623" width="30.3238" height="31.3238" filterUnits="userSpaceOnUse" color-interpolation-filters="sRGB">
<feFlood flood-opacity="0" result="BackgroundImageFix"/>
<feBlend mode="normal" in="SourceGraphic" in2="BackgroundImageFix" result="shape"/>
<feColorMatrix in="SourceAlpha" type="matrix" values="0 0 0 0 0 0 0 0 0 0 0 0 0 0 0 0 0 0 127 0" result="hardAlpha"/>
<feOffset dx="1" dy="-2"/>
<feGaussianBlur stdDeviation="1.5"/>
<feComposite in2="hardAlpha" operator="arithmetic" k2="-1" k3="1"/>
<feColorMatrix type="matrix" values="0 0 0 0 0.654902 0 0 0 0 0.792157 0 0 0 0 0.847059 0 0 0 0.51 0"/>
<feBlend mode="normal" in2="shape" result="effect1_innerShadow"/>
</filter>
<filter id="filter8_f" x="226.028" y="272.567" width="23.0137" height="23.0137" filterUnits="userSpaceOnUse" color-interpolation-filters="sRGB">
<feFlood flood-opacity="0" result="BackgroundImageFix"/>
<feBlend mode="normal" in="SourceGraphic" in2="BackgroundImageFix" result="shape"/>
<feGaussianBlur stdDeviation="3.5" result="effect1_foregroundBlur"/>
</filter>
<filter id="filter9_f" x="228.841" y="275.38" width="17.3879" height="17.3879" filterUnits="userSpaceOnUse" color-interpolation-filters="sRGB">
<feFlood flood-opacity="0" result="BackgroundImageFix"/>
<feBlend mode="normal" in="SourceGraphic" in2="BackgroundImageFix" result="shape"/>
<feGaussianBlur stdDeviation="3" result="effect1_foregroundBlur"/>
</filter>
<filter id="filter10_i" x="259.497" y="193.725" width="145.662" height="124.444" filterUnits="userSpaceOnUse" color-interpolation-filters="sRGB">
<feFlood flood-opacity="0" result="BackgroundImageFix"/>
<feBlend mode="normal" in="SourceGraphic" in2="BackgroundImageFix" result="shape"/>
<feColorMatrix in="SourceAlpha" type="matrix" values="0 0 0 0 0 0 0 0 0 0 0 0 0 0 0 0 0 0 127 0" result="hardAlpha"/>
<feOffset dx="1" dy="-2"/>
<feGaussianBlur stdDeviation="2"/>
<feComposite in2="hardAlpha" operator="arithmetic" k2="-1" k3="1"/>
<feColorMatrix type="matrix" values="0 0 0 0 0.741176 0 0 0 0 0.847059 0 0 0 0 0.886275 0 0 0 0.67 0"/>
<feBlend mode="normal" in2="shape" result="effect1_innerShadow"/>
</filter>
<filter id="filter11_f" x="245.894" y="198.241" width="256.001" height="55.8734" filterUnits="userSpaceOnUse" color-interpolation-filters="sRGB">
<feFlood flood-opacity="0" result="BackgroundImageFix"/>
<feBlend mode="normal" in="SourceGraphic" in2="BackgroundImageFix" result="shape"/>
<feGaussianBlur stdDeviation="2" result="effect1_foregroundBlur"/>
</filter>
<filter id="filter12_f" x="418.544" y="188.073" width="53.0377" height="11.2061" filterUnits="userSpaceOnUse" color-interpolation-filters="sRGB">
<feFlood flood-opacity="0" result="BackgroundImageFix"/>
<feBlend mode="normal" in="SourceGraphic" in2="BackgroundImageFix" result="shape"/>
<feGaussianBlur stdDeviation="1.5" result="effect1_foregroundBlur"/>
</filter>
<filter id="filter13_f" x="283.644" y="177.655" width="89.9478" height="16.4066" filterUnits="userSpaceOnUse" color-interpolation-filters="sRGB">
<feFlood flood-opacity="0" result="BackgroundImageFix"/>
<feBlend mode="normal" in="SourceGraphic" in2="BackgroundImageFix" result="shape"/>
<feGaussianBlur stdDeviation="2.5" result="effect1_foregroundBlur"/>
</filter>
<filter id="filter14_f" x="324.075" y="181.773" width="24.1145" height="9.08526" filterUnits="userSpaceOnUse" color-interpolation-filters="sRGB">
<feFlood flood-opacity="0" result="BackgroundImageFix"/>
<feBlend mode="normal" in="SourceGraphic" in2="BackgroundImageFix" result="shape"/>
<feGaussianBlur stdDeviation="1.5" result="effect1_foregroundBlur"/>
</filter>
<filter id="filter15_i" x="247.581" y="7.85889" width="174.154" height="179.383" filterUnits="userSpaceOnUse" color-interpolation-filters="sRGB">
<feFlood flood-opacity="0" result="BackgroundImageFix"/>
<feBlend mode="normal" in="SourceGraphic" in2="BackgroundImageFix" result="shape"/>
<feColorMatrix in="SourceAlpha" type="matrix" values="0 0 0 0 0 0 0 0 0 0 0 0 0 0 0 0 0 0 127 0" result="hardAlpha"/>
<feOffset dy="-3"/>
<feGaussianBlur stdDeviation="3"/>
<feComposite in2="hardAlpha" operator="arithmetic" k2="-1" k3="1"/>
<feColorMatrix type="matrix" values="0 0 0 0 0 0 0 0 0 0 0 0 0 0 0 0 0 0 0.13 0"/>
<feBlend mode="normal" in2="shape" result="effect1_innerShadow"/>
</filter>
<filter id="filter16_i" x="245.581" y="10.8589" width="176.154" height="108.303" filterUnits="userSpaceOnUse" color-interpolation-filters="sRGB">
<feFlood flood-opacity="0" result="BackgroundImageFix"/>
<feBlend mode="normal" in="SourceGraphic" in2="BackgroundImageFix" result="shape"/>
<feColorMatrix in="SourceAlpha" type="matrix" values="0 0 0 0 0 0 0 0 0 0 0 0 0 0 0 0 0 0 127 0" result="hardAlpha"/>
<feOffset dx="-2" dy="1"/>
<feGaussianBlur stdDeviation="1.5"/>
<feComposite in2="hardAlpha" operator="arithmetic" k2="-1" k3="1"/>
<feColorMatrix type="matrix" values="0 0 0 0 0.411765 0 0 0 0 0.592157 0 0 0 0 0.666667 0 0 0 0.34 0"/>
<feBlend mode="normal" in2="shape" result="effect1_innerShadow"/>
</filter>
<filter id="filter17_i" x="434.192" y="147.589" width="47.2177" height="48.2177" filterUnits="userSpaceOnUse" color-interpolation-filters="sRGB">
<feFlood flood-opacity="0" result="BackgroundImageFix"/>
<feBlend mode="normal" in="SourceGraphic" in2="BackgroundImageFix" result="shape"/>
<feColorMatrix in="SourceAlpha" type="matrix" values="0 0 0 0 0 0 0 0 0 0 0 0 0 0 0 0 0 0 127 0" result="hardAlpha"/>
<feOffset dx="1" dy="-2"/>
<feGaussianBlur stdDeviation="1.5"/>
<feComposite in2="hardAlpha" operator="arithmetic" k2="-1" k3="1"/>
<feColorMatrix type="matrix" values="0 0 0 0 0.654902 0 0 0 0 0.792157 0 0 0 0 0.847059 0 0 0 0.51 0"/>
<feBlend mode="normal" in2="shape" result="effect1_innerShadow"/>
</filter>
<filter id="filter18_f" x="452.4" y="148.804" width="28.2067" height="28.2067" filterUnits="userSpaceOnUse" color-interpolation-filters="sRGB">
<feFlood flood-opacity="0" result="BackgroundImageFix"/>
<feBlend mode="normal" in="SourceGraphic" in2="BackgroundImageFix" result="shape"/>
<feGaussianBlur stdDeviation="3.5" result="effect1_foregroundBlur"/>
</filter>
<filter id="filter19_f" x="456.258" y="152.662" width="20.492" height="20.492" filterUnits="userSpaceOnUse" color-interpolation-filters="sRGB">
<feFlood flood-opacity="0" result="BackgroundImageFix"/>
<feBlend mode="normal" in="SourceGraphic" in2="BackgroundImageFix" result="shape"/>
<feGaussianBlur stdDeviation="3" result="effect1_foregroundBlur"/>
</filter>
<linearGradient id="paint0_linear" x1="516.166" y1="261.157" x2="435.103" y2="501.365" gradientUnits="userSpaceOnUse">
<stop stop-color="#EF806C"/>
<stop offset="0.942494" stop-color="#F7A770"/>
</linearGradient>
<linearGradient id="paint1_linear" x1="180.308" y1="225.113" x2="180.308" y2="409.012" gradientUnits="userSpaceOnUse">
<stop stop-color="#57F0EB"/>
<stop offset="1" stop-color="#489EDF"/>
</linearGradient>
<radialGradient id="paint2_radial" cx="0" cy="0" r="1" gradientUnits="userSpaceOnUse" gradientTransform="translate(372.309 357.613) rotate(120.784) scale(131.331)">
<stop stop-color="#99C1D3"/>
<stop offset="1" stop-color="#507C8E"/>
</radialGradient>
<radialGradient id="paint3_radial" cx="0" cy="0" r="1" gradientUnits="userSpaceOnUse" gradientTransform="translate(372.309 357.613) rotate(120.784) scale(131.331)">
<stop stop-color="#99C1D3"/>
<stop offset="1" stop-color="#507C8E"/>
</radialGradient>
<linearGradient id="paint4_linear" x1="444.949" y1="352.078" x2="444.949" y2="275.975" gradientUnits="userSpaceOnUse">
<stop stop-color="#E4C691"/>
<stop offset="1" stop-color="#D5B395"/>
</linearGradient>
<linearGradient id="paint5_linear" x1="437.991" y1="293.042" x2="202.344" y2="313.131" gradientUnits="userSpaceOnUse">
<stop stop-color="#F1D3A7"/>
<stop offset="1" stop-color="#E3C691"/>
</linearGradient>
<linearGradient id="paint6_linear" x1="444.95" y1="350.087" x2="444.95" y2="273.985" gradientUnits="userSpaceOnUse">
<stop stop-color="#BFAB96"/>
<stop offset="1" stop-color="#B18E7A"/>
</linearGradient>
<radialGradient id="paint7_radial" cx="0" cy="0" r="1" gradientUnits="userSpaceOnUse" gradientTransform="translate(388.35 304.862) rotate(84.7462) scale(27.1801 66.0489)">
<stop stop-color="#FFEFC5"/>
<stop offset="1" stop-color="#FFDD86" stop-opacity="0"/>
</radialGradient>
<linearGradient id="paint8_linear" x1="338.505" y1="300.79" x2="275.663" y2="303.435" gradientUnits="userSpaceOnUse">
<stop stop-color="#664829"/>
<stop offset="1" stop-color="#AF9376" stop-opacity="0"/>
</linearGradient>
<linearGradient id="paint9_linear" x1="229.151" y1="304.719" x2="211.958" y2="305.513" gradientUnits="userSpaceOnUse">
<stop stop-color="#896947"/>
<stop offset="1" stop-color="#AF9376" stop-opacity="0"/>
</linearGradient>
<radialGradient id="paint10_radial" cx="0" cy="0" r="1" gradientUnits="userSpaceOnUse" gradientTransform="translate(239.348 278.485) rotate(120.784) scale(28.5693)">
<stop stop-color="#99C1D3"/>
<stop offset="1" stop-color="#507C8E"/>
</radialGradient>
<radialGradient id="paint11_radial" cx="0" cy="0" r="1" gradientUnits="userSpaceOnUse" gradientTransform="translate(339.902 237.984) rotate(110.27) scale(64.124 90.3963)">
<stop stop-color="#9CC2D5"/>
<stop offset="1" stop-color="#5A8698"/>
</radialGradient>
<linearGradient id="paint12_linear" x1="376.89" y1="194.789" x2="373.795" y2="241.687" gradientUnits="userSpaceOnUse">
<stop stop-color="#D7B68E"/>
<stop offset="1" stop-color="#DEC08C"/>
</linearGradient>
<linearGradient id="paint13_linear" x1="376.89" y1="194.789" x2="373.795" y2="241.687" gradientUnits="userSpaceOnUse">
<stop stop-color="#D7B68E"/>
<stop offset="1" stop-color="#DEC08C"/>
</linearGradient>
<radialGradient id="paint14_radial" cx="0" cy="0" r="1" gradientUnits="userSpaceOnUse" gradientTransform="translate(420.512 198.105) rotate(2.64881) scale(68.9677 6.36771)">
<stop stop-color="#FEEDC2"/>
<stop offset="1" stop-color="#FEEDC2" stop-opacity="0"/>
</radialGradient>
<linearGradient id="paint15_linear" x1="455.601" y1="195.71" x2="427.57" y2="193.554" gradientUnits="userSpaceOnUse">
<stop stop-color="#A7937E"/>
<stop offset="1" stop-color="#BFAB96" stop-opacity="0"/>
</linearGradient>
<linearGradient id="paint16_linear" x1="346.592" y1="188.286" x2="285.043" y2="180.96" gradientUnits="userSpaceOnUse">
<stop stop-color="#A7937E" stop-opacity="0.71"/>
<stop offset="1" stop-color="#BFAB96" stop-opacity="0.54"/>
</linearGradient>
<linearGradient id="paint17_linear" x1="340.167" y1="187.484" x2="329.367" y2="186.726" gradientUnits="userSpaceOnUse">
<stop stop-color="#A7937E"/>
<stop offset="1" stop-color="#BFAB96" stop-opacity="0"/>
</linearGradient>
<linearGradient id="paint18_linear" x1="386.326" y1="99.7481" x2="350.191" y2="160.247" gradientUnits="userSpaceOnUse">
<stop stop-color="#97BDCC"/>
<stop offset="1" stop-color="#548AA0"/>
</linearGradient>
<linearGradient id="paint19_linear" x1="354.845" y1="78.1217" x2="363.057" y2="44.9977" gradientUnits="userSpaceOnUse">
<stop stop-color="#75A3B6"/>
<stop offset="1" stop-color="#92BACC"/>
</linearGradient>
<radialGradient id="paint20_radial" cx="0" cy="0" r="1" gradientUnits="userSpaceOnUse" gradientTransform="translate(343.347 73.4679) rotate(29.9572) scale(64.1409 24.0387)">
<stop stop-color="#BDD7E1"/>
<stop offset="1" stop-color="#BDD7E1" stop-opacity="0"/>
</radialGradient>
<radialGradient id="paint21_radial" cx="0" cy="0" r="1" gradientUnits="userSpaceOnUse" gradientTransform="translate(469.362 154.1) rotate(120.784) scale(45.0284)">
<stop stop-color="#99C1D3"/>
<stop offset="1" stop-color="#507C8E"/>
</radialGradient>
</defs>
</svg>
