<svg width="657" height="617" viewBox="0 0 657 617" fill="none" xmlns="http://www.w3.org/2000/svg">
<g style="mix-blend-mode:multiply">
<g opacity="0.25" filter="url(#filter0_f)">
<path d="M176.946 597.492L483.517 448.574L338.693 403.92L19.2934 550.764L176.946 597.492Z" fill="url(#paint0_linear)"/>
</g>
<g opacity="0.51" filter="url(#filter1_f)">
<path d="M127.814 547.707L188.956 517.574L154.019 507.093L91.4043 537.391L127.814 547.707Z" fill="url(#paint1_linear)"/>
</g>
<g opacity="0.51" filter="url(#filter2_f)">
<path d="M204.895 546.615L231.818 534.684L198.555 524.428L168.686 535.883L204.895 546.615Z" fill="url(#paint2_linear)"/>
</g>
</g>
<path d="M386.642 71.7416C409.603 36.934 460.366 36.5001 483.668 71.08C537.832 151.46 576.348 218.307 619.793 307.112C638.159 344.651 612.381 388.552 570.661 390.991C472.158 396.749 395.121 396.96 298.842 391.25C257.078 388.774 231.518 344.69 250.189 307.251C292.393 222.622 331.115 155.921 386.642 71.7416Z" fill="url(#paint3_linear)"/>
<path d="M106.648 160.858L157.499 346.076C155.59 346.434 153.68 346.793 151.77 346.912C149.86 347.032 147.95 347.151 146.04 347.032C144.13 347.032 142.22 346.793 140.31 346.554C138.4 346.315 136.491 345.957 134.581 345.479C127.299 343.688 120.256 340.583 113.452 336.164C106.648 331.746 100.322 326.253 94.4726 319.685C88.6235 313.117 83.3713 305.593 78.8352 297.114C74.2992 288.755 70.5988 279.56 67.8533 269.648C64.3916 257.229 62.8398 244.928 63.0785 233.345C63.1979 221.642 65.1078 210.655 68.5695 200.863C72.0312 190.951 77.0447 182.353 83.3713 175.427C89.8172 168.62 97.6956 163.485 106.648 160.858Z" fill="#6493A8"/>
<path d="M106.648 160.858L299.788 114.045L344.551 281.112L157.5 346.076L106.648 160.858Z" fill="url(#paint4_linear)"/>
<path d="M121.45 169.575L291.312 128.376L330.227 273.47L165.617 330.671L121.45 169.575Z" fill="url(#paint5_linear)"/>
<path d="M128.814 196.436L127.756 192.578L296.862 149.068L297.898 152.932L128.814 196.436Z" fill="black" fill-opacity="0.39"/>
<path d="M138.986 233.536L137.928 229.678L305.395 180.885L306.431 184.75L138.986 233.536Z" fill="black" fill-opacity="0.39"/>
<path d="M148.858 269.545L147.799 265.682L313.244 210.15L314.282 214.021L148.858 269.545Z" fill="black" fill-opacity="0.39"/>
<path d="M157.678 301.717L156.619 297.853L321.888 242.381L322.926 246.252L157.678 301.717Z" fill="black" fill-opacity="0.39"/>
<path d="M157.5 345.957L344.67 280.993L489.465 309.892L308.501 382.021L157.5 345.957Z" fill="url(#paint6_linear)"/>
<path d="M199.995 343.808L345.506 293.293L447.567 313.714L307.547 369.483L199.995 343.808Z" fill="url(#paint7_linear)"/>
<g opacity="0.39" filter="url(#filter3_f)">
<ellipse cx="317.249" cy="320.786" rx="96.5219" ry="47.2333" transform="rotate(-14.7516 317.249 320.786)" fill="#FFCA62"/>
</g>
<path d="M159.924 348.562L306.497 383.597L306.835 530.843L163.136 488.698L159.924 348.562Z" fill="url(#paint8_linear)" stroke="url(#paint9_linear)" stroke-width="4" stroke-miterlimit="10"/>
<path d="M179.387 476.83C179 476.716 178.731 476.364 178.722 475.961L176.302 368.799L290.039 395.937C290.457 396.036 290.752 396.409 290.753 396.838L290.923 508.443C290.924 509.064 290.328 509.51 289.733 509.335L179.387 476.83Z" fill="#456E81"/>
<path d="M184.432 473.177C184.045 473.063 183.775 472.712 183.766 472.308L181.347 370.016L290.04 395.936C290.458 396.036 290.753 396.409 290.753 396.838L290.926 504.468L184.432 473.177Z" fill="#7C4E3D"/>
<path d="M184.432 473.177C184.045 473.063 183.775 472.712 183.766 472.308L181.347 370.016L290.04 395.936C290.458 396.036 290.753 396.409 290.753 396.838L290.926 504.468L184.432 473.177Z" fill="#6F4435"/>
<path fill-rule="evenodd" clip-rule="evenodd" d="M290.922 502.021L290.879 475.154L183.194 448.129L183.741 471.25L290.922 502.021ZM290.872 471.029L183.096 443.98L182.557 421.175L290.836 448.349L290.872 471.029ZM290.829 444.224L290.793 421.545L181.919 394.221L182.458 417.026L290.829 444.224ZM290.786 417.419L181.821 390.072L181.347 370.016L290.04 395.936C290.458 396.036 290.753 396.409 290.753 396.838L290.786 417.419Z" fill="url(#paint10_linear)"/>
<g style="mix-blend-mode:multiply" opacity="0.12">
<path d="M267.347 426.626C250.171 399.014 219.913 379.212 219.913 379.212L290.04 395.937C290.458 396.036 290.753 396.409 290.753 396.838L290.926 504.468C290.926 504.468 284.524 454.238 267.347 426.626Z" fill="#6C4334"/>
</g>
<path d="M486.974 312.985L484.108 446.152L310.834 530.324L310.496 383.372L486.974 312.985Z" fill="url(#paint11_linear)" stroke="url(#paint12_linear)" stroke-width="4" stroke-miterlimit="10"/>
<path d="M326.996 393.786C326.642 393.927 326.409 394.27 326.411 394.652L326.752 503.512C326.754 504.197 327.471 504.644 328.086 504.345L392.851 472.892C393.171 472.737 393.374 472.413 393.374 472.057V368.776C393.374 368.12 392.712 367.67 392.102 367.913L326.996 393.786Z" fill="#456E81"/>
<path d="M326.996 393.786C326.642 393.927 326.41 394.27 326.411 394.652L326.757 499.076L387.982 469.24C388.301 469.084 388.504 468.76 388.504 468.405V369.32L326.996 393.786Z" fill="#6E4435"/>
<path d="M409.897 463.152C409.897 463.838 410.615 464.287 411.232 463.987L468.003 436.36C468.316 436.207 468.518 435.892 468.525 435.544L470.571 338.021C470.585 337.356 469.917 336.892 469.299 337.138L410.482 360.564C410.129 360.705 409.897 361.047 409.897 361.427V463.152Z" fill="#456E81"/>
<path d="M409.897 457.854L462.957 432.185C463.271 432.033 463.474 431.717 463.481 431.368L465.382 338.708L410.482 360.565C410.129 360.705 409.897 361.047 409.897 361.427V457.854Z" fill="#6E4435"/>
<path fill-rule="evenodd" clip-rule="evenodd" d="M462.957 432.185L409.897 457.854V435.679L463.9 410.952L463.481 431.368C463.474 431.717 463.271 432.033 462.957 432.185ZM463.968 407.621L409.897 432.38V408.621L464.422 385.496L463.968 407.621ZM409.897 379.539V405.362L464.49 382.209L464.988 357.94L409.897 379.539ZM409.897 376.316V361.427C409.897 361.047 410.129 360.705 410.482 360.565L465.382 338.708L465.054 354.691L409.897 376.316Z" fill="url(#paint13_linear)"/>
<path fill-rule="evenodd" clip-rule="evenodd" d="M388.504 384.704V369.32L326.996 393.786C326.642 393.927 326.409 394.27 326.411 394.652L326.458 409.029L388.504 384.704ZM326.469 412.247L326.563 440.705L388.504 414.435V387.926L326.469 412.247ZM326.574 443.959L388.504 417.694V442.176L326.662 470.493L326.574 443.959ZM326.673 473.788L326.756 499.076L387.982 469.24C388.301 469.084 388.504 468.76 388.504 468.405V445.475L326.673 473.788Z" fill="url(#paint14_linear)"/>
<g style="mix-blend-mode:multiply" opacity="0.12">
<path d="M326.409 394.019L326.721 489.203C326.721 489.203 331.833 455.876 348.521 428.272C365.208 400.669 388.506 390.986 388.506 390.986L388.504 369.32L326.409 394.019Z" fill="#6C4334"/>
</g>
<g style="mix-blend-mode:multiply" opacity="0.12">
<path d="M409.892 385.207C409.892 385.207 426.53 383.615 440.961 390.052C455.392 396.489 464.009 405.106 464.009 405.106L465.383 338.708L410.483 360.565C410.129 360.705 409.898 361.047 409.898 361.427L409.892 385.207Z" fill="#6C4334"/>
</g>
<path d="M345.506 293.293V302.13" stroke="#231F20" stroke-width="3.3485" stroke-miterlimit="10" stroke-linecap="round" stroke-linejoin="round"/>
<path d="M307.529 369.604L423.675 323.269C384.641 316.463 361.842 282.906 316.601 288.16C272.196 293.295 254.41 336.286 220.986 348.825L307.529 369.604Z" fill="url(#paint15_linear)"/>
<mask id="mask0" mask-type="alpha" maskUnits="userSpaceOnUse" x="207" y="268" width="240" height="102">
<path d="M307.366 369.359L207.625 345.71C218.119 315.797 237.824 268.588 326.301 268.588C411.977 268.588 437.983 298.703 446.412 314.175L307.366 369.359Z" fill="#C4C4C4"/>
</mask>
<g mask="url(#mask0)">
<path d="M349.643 299.505L349.39 305.702C349.176 312.424 341.177 318.809 329.679 320.663C316.429 322.836 303.523 318.268 300.886 310.367C300.546 309.356 300.396 308.252 300.447 307.185L300.7 300.987C300.65 302.054 300.86 303.084 301.139 304.17C303.777 312.071 316.683 316.639 329.932 314.466C341.431 312.612 349.369 306.301 349.643 299.505Z" fill="url(#paint16_linear)"/>
<path d="M329.793 314.047L329.791 314.048C323.242 315.122 316.789 314.527 311.664 312.7C306.523 310.867 302.803 307.831 301.553 304.087C300.315 300.379 301.7 296.58 305.099 293.39C308.501 290.197 313.879 287.67 320.432 286.595C326.981 285.521 333.433 286.116 338.559 287.943C343.7 289.775 347.42 292.812 348.67 296.556C349.908 300.266 348.538 304.079 345.149 307.275C341.756 310.474 336.38 313.001 329.793 314.047Z" fill="url(#paint17_linear)" stroke="url(#paint18_linear)" stroke-miterlimit="10"/>
<path d="M322.05 291.156C330.626 289.789 340.891 292.915 342.53 298.045C344.228 303.1 336.821 308.174 328.244 309.542C319.668 310.909 309.299 307.763 307.601 302.708C305.832 297.597 313.474 292.524 322.05 291.156Z" fill="#C27025"/>
<path d="M322.217 292.005C330.542 290.678 340.506 293.713 342.096 298.692C343.745 303.599 336.555 308.524 328.23 309.851C319.905 311.178 309.84 308.125 308.192 303.218C306.475 298.256 313.892 293.332 322.217 292.005Z" fill="url(#paint19_linear)"/>
<path d="M367.459 329.569L367.206 335.767C366.992 342.488 358.993 348.873 347.495 350.727C334.245 352.9 321.339 348.333 318.702 340.432C318.362 339.421 318.212 338.316 318.263 337.249L318.516 331.051C318.466 332.119 318.675 333.148 318.955 334.234C321.593 342.135 334.499 346.703 347.748 344.53C359.247 342.676 367.185 336.366 367.459 329.569Z" fill="url(#paint20_linear)"/>
<path d="M347.609 344.112L347.607 344.112C341.058 345.186 334.605 344.591 329.479 342.764C324.339 340.932 320.619 337.895 319.369 334.151C318.131 330.443 319.516 326.644 322.915 323.454C326.317 320.261 331.695 317.734 338.248 316.659C344.797 315.585 351.249 316.18 356.375 318.007C361.516 319.84 365.236 322.876 366.486 326.62C367.724 330.33 366.354 334.143 362.965 337.339C359.572 340.538 354.196 343.065 347.609 344.112Z" fill="url(#paint21_linear)" stroke="url(#paint22_linear)" stroke-miterlimit="10"/>
<path d="M339.866 321.22C348.442 319.853 358.707 322.98 360.346 328.11C362.044 333.165 354.637 338.239 346.06 339.606C337.484 340.973 327.115 337.827 325.417 332.772C323.648 327.661 331.29 322.588 339.866 321.22Z" fill="#C27025"/>
<path d="M340.033 322.069C348.358 320.742 358.322 323.777 359.912 328.756C361.561 333.663 354.371 338.588 346.046 339.915C337.721 341.243 327.656 338.189 326.008 333.282C324.291 328.321 331.708 323.396 340.033 322.069Z" fill="url(#paint23_linear)"/>
<path d="M420.767 333.466L420.514 339.664C420.3 346.385 412.301 352.77 400.803 354.625C387.553 356.797 374.647 352.23 372.01 344.329C371.67 343.318 371.52 342.213 371.571 341.146L371.825 334.949C371.774 336.016 371.984 337.046 372.263 338.132C374.901 346.032 387.807 350.6 401.056 348.427C412.555 346.573 420.493 340.263 420.767 333.466Z" fill="url(#paint24_linear)"/>
<path d="M400.918 348.009L400.915 348.009C394.366 349.083 387.913 348.488 382.788 346.661C377.647 344.829 373.927 341.793 372.677 338.048C371.439 334.34 372.824 330.541 376.223 327.351C379.625 324.158 385.003 321.631 391.556 320.556C398.105 319.483 404.557 320.077 409.683 321.904C414.824 323.737 418.544 326.773 419.794 330.517C421.032 334.227 419.662 338.041 416.273 341.236C412.88 344.435 407.504 346.962 400.918 348.009Z" fill="url(#paint25_linear)" stroke="url(#paint26_linear)" stroke-miterlimit="10"/>
<path d="M393.174 325.118C401.75 323.75 412.015 326.877 413.654 332.007C415.352 337.062 407.945 342.136 399.368 343.503C390.792 344.871 380.423 341.724 378.725 336.669C376.956 331.558 384.598 326.485 393.174 325.118Z" fill="#C27025"/>
<path d="M393.341 325.966C401.666 324.639 411.63 327.674 413.22 332.654C414.869 337.56 407.679 342.485 399.354 343.813C391.029 345.14 380.964 342.086 379.316 337.179C377.599 332.218 385.017 327.294 393.341 325.966Z" fill="url(#paint27_linear)"/>
<path d="M337.951 350.308L337.698 356.505C337.484 363.227 329.486 369.612 317.987 371.466C304.737 373.639 291.831 369.071 289.194 361.17C288.854 360.159 288.705 359.055 288.755 357.988L289.009 351.79C288.958 352.857 289.168 353.887 289.447 354.973C292.085 362.874 304.991 367.442 318.241 365.269C329.739 363.415 337.677 357.104 337.951 350.308Z" fill="url(#paint28_linear)"/>
<path d="M318.102 364.85L318.099 364.851C311.55 365.925 305.097 365.33 299.972 363.503C294.831 361.67 291.111 358.634 289.861 354.89C288.623 351.182 290.008 347.383 293.407 344.193C296.809 341 302.187 338.472 308.74 337.398C315.289 336.324 321.741 336.919 326.867 338.746C332.008 340.578 335.728 343.615 336.978 347.359C338.216 351.069 336.846 354.882 333.457 358.078C330.064 361.277 324.688 363.804 318.102 364.85Z" fill="url(#paint29_linear)" stroke="url(#paint30_linear)" stroke-miterlimit="10"/>
<path d="M310.358 341.959C318.934 340.592 329.199 343.718 330.838 348.848C332.536 353.903 325.129 358.977 316.553 360.345C307.976 361.712 297.607 358.566 295.909 353.511C294.14 348.4 301.782 343.327 310.358 341.959Z" fill="#C27025"/>
<path d="M310.525 342.808C318.85 341.481 328.814 344.516 330.404 349.495C332.053 354.402 324.863 359.327 316.538 360.654C308.213 361.981 298.148 358.928 296.5 354.021C294.783 349.059 302.201 344.135 310.525 342.808Z" fill="url(#paint31_linear)"/>
<path d="M323.754 309.248L323.501 315.445C323.287 322.167 315.289 328.552 303.79 330.406C290.541 332.579 277.635 328.011 274.997 320.11C274.657 319.099 274.508 317.995 274.558 316.928L274.812 310.73C274.761 311.798 274.971 312.827 275.25 313.913C277.888 321.814 290.794 326.382 304.044 324.209C315.542 322.355 323.481 316.045 323.754 309.248Z" fill="url(#paint32_linear)"/>
<path d="M303.905 323.79L303.902 323.791C297.353 324.865 290.901 324.27 285.775 322.443C280.634 320.61 276.914 317.574 275.664 313.83C274.426 310.122 275.812 306.323 279.21 303.133C282.613 299.94 287.99 297.413 294.543 296.338C301.092 295.264 307.545 295.859 312.67 297.686C317.811 299.518 321.531 302.555 322.781 306.299C324.02 310.009 322.649 313.822 319.26 317.018C315.868 320.217 310.491 322.744 303.905 323.79Z" fill="url(#paint33_linear)" stroke="url(#paint34_linear)" stroke-miterlimit="10"/>
<path d="M296.161 300.899C304.738 299.532 315.003 302.658 316.641 307.788C318.34 312.844 310.932 317.917 302.356 319.285C293.779 320.652 283.41 317.506 281.712 312.451C279.944 307.34 287.585 302.267 296.161 300.899Z" fill="#C27025"/>
<path d="M296.329 301.748C304.653 300.421 314.617 303.456 316.208 308.435C317.856 313.342 310.666 318.267 302.341 319.594C294.017 320.922 283.952 317.868 282.303 312.961C280.586 307.999 288.004 303.075 296.329 301.748Z" fill="url(#paint35_linear)"/>
<path d="M328.625 327.064L328.372 333.261C328.158 339.983 320.159 346.368 308.661 348.222C295.411 350.395 282.505 345.827 279.868 337.926C279.528 336.915 279.378 335.811 279.429 334.744L279.682 328.546C279.632 329.613 279.841 330.643 280.121 331.729C282.759 339.63 295.665 344.198 308.914 342.025C320.413 340.171 328.351 333.86 328.625 327.064Z" fill="url(#paint36_linear)"/>
<path d="M308.775 341.606L308.773 341.607C302.224 342.681 295.771 342.086 290.646 340.259C285.505 338.426 281.785 335.39 280.535 331.646C279.297 327.938 280.682 324.139 284.081 320.949C287.483 317.756 292.861 315.228 299.414 314.154C305.963 313.08 312.415 313.675 317.541 315.502C322.682 317.334 326.402 320.371 327.652 324.115C328.89 327.825 327.52 331.638 324.131 334.834C320.738 338.033 315.362 340.56 308.775 341.606Z" fill="url(#paint37_linear)" stroke="url(#paint38_linear)" stroke-miterlimit="10"/>
<path d="M301.032 318.715C309.608 317.348 319.873 320.474 321.512 325.604C323.21 330.659 315.803 335.733 307.226 337.101C298.65 338.468 288.281 335.322 286.583 330.267C284.814 325.156 292.456 320.083 301.032 318.715Z" fill="#C27025"/>
<path d="M301.199 319.564C309.524 318.237 319.488 321.272 321.078 326.251C322.727 331.158 315.537 336.083 307.212 337.41C298.887 338.737 288.822 335.684 287.174 330.777C285.457 325.815 292.874 320.891 301.199 319.564Z" fill="url(#paint39_linear)"/>
<path d="M396.966 337.503L396.712 343.7C396.499 350.422 388.5 356.807 377.002 358.661C363.752 360.834 350.846 356.266 348.208 348.365C347.869 347.354 347.719 346.25 347.77 345.183L348.023 338.985C347.973 340.052 348.182 341.082 348.462 342.168C351.099 350.069 364.005 354.637 377.255 352.464C388.754 350.61 396.692 344.299 396.966 337.503Z" fill="url(#paint40_linear)"/>
<path d="M377.116 352.045L377.114 352.046C370.565 353.12 364.112 352.525 358.986 350.698C353.845 348.865 350.126 345.829 348.876 342.085C347.638 338.377 349.023 334.578 352.422 331.388C355.824 328.195 361.202 325.667 367.754 324.593C374.303 323.519 380.756 324.114 385.882 325.941C391.023 327.773 394.743 330.81 395.993 334.554C397.231 338.264 395.861 342.077 392.472 345.273C389.079 348.472 383.702 350.999 377.116 352.045Z" fill="url(#paint41_linear)" stroke="url(#paint42_linear)" stroke-miterlimit="10"/>
<path d="M369.373 329.154C377.949 327.787 388.214 330.913 389.852 336.043C391.551 341.098 384.143 346.172 375.567 347.54C366.991 348.907 356.622 345.761 354.923 340.706C353.155 335.594 360.797 330.521 369.373 329.154Z" fill="#C27025"/>
<path d="M369.54 330.003C377.865 328.676 387.829 331.711 389.419 336.69C391.068 341.597 383.877 346.522 375.553 347.849C367.228 349.176 357.163 346.123 355.514 341.216C353.798 336.254 361.215 331.33 369.54 330.003Z" fill="url(#paint43_linear)"/>
<path d="M281.998 351.004L281.745 357.201C281.531 363.923 273.532 370.308 262.034 372.162C248.784 374.335 235.878 369.767 233.241 361.866C232.901 360.855 232.751 359.751 232.802 358.684L233.055 352.486C233.005 353.553 233.214 354.583 233.494 355.669C236.132 363.57 249.038 368.138 262.287 365.965C273.786 364.111 281.724 357.801 281.998 351.004Z" fill="url(#paint44_linear)"/>
<path d="M262.148 365.546L262.146 365.547C255.597 366.621 249.144 366.026 244.019 364.199C238.878 362.366 235.158 359.33 233.908 355.586C232.67 351.878 234.055 348.079 237.454 344.889C240.856 341.696 246.234 339.169 252.787 338.094C259.336 337.02 265.788 337.615 270.914 339.442C276.055 341.274 279.775 344.311 281.025 348.055C282.263 351.765 280.893 355.578 277.504 358.774C274.111 361.973 268.735 364.5 262.148 365.546Z" fill="url(#paint45_linear)" stroke="url(#paint46_linear)" stroke-miterlimit="10"/>
<path d="M254.405 342.655C262.981 341.288 273.246 344.414 274.885 349.544C276.583 354.599 269.176 359.673 260.599 361.041C252.023 362.408 241.654 359.262 239.956 354.207C238.187 349.096 245.829 344.023 254.405 342.655Z" fill="#C27025"/>
<path d="M254.572 343.504C262.897 342.177 272.861 345.212 274.451 350.191C276.1 355.098 268.91 360.023 260.585 361.35C252.26 362.678 242.195 359.624 240.547 354.717C238.83 349.755 246.247 344.831 254.572 343.504Z" fill="url(#paint47_linear)"/>
<path d="M304.686 362.974L304.432 369.171C304.219 375.893 296.22 382.278 284.721 384.132C271.472 386.305 258.566 381.737 255.928 373.836C255.588 372.825 255.439 371.721 255.49 370.654L255.743 364.456C255.692 365.523 255.902 366.553 256.182 367.639C258.819 375.54 271.725 380.108 284.975 377.935C296.473 376.081 304.412 369.77 304.686 362.974Z" fill="url(#paint48_linear)"/>
<path d="M284.836 377.516L284.834 377.517C278.284 378.591 271.832 377.996 266.706 376.169C261.565 374.336 257.845 371.3 256.595 367.556C255.357 363.848 256.743 360.049 260.142 356.859C263.544 353.666 268.922 351.139 275.474 350.064C282.023 348.99 288.476 349.585 293.602 351.412C298.743 353.244 302.462 356.281 303.712 360.025C304.951 363.735 303.581 367.548 300.191 370.744C296.799 373.943 291.422 376.47 284.836 377.516Z" fill="url(#paint49_linear)" stroke="url(#paint50_linear)" stroke-miterlimit="10"/>
<path d="M277.093 354.625C285.669 353.258 295.934 356.384 297.572 361.514C299.271 366.569 291.863 371.643 283.287 373.011C274.711 374.378 264.342 371.232 262.643 366.177C260.875 361.066 268.516 355.993 277.093 354.625Z" fill="#C27025"/>
<path d="M277.26 355.474C285.584 354.147 295.548 357.182 297.139 362.161C298.787 367.068 291.597 371.993 283.272 373.32C274.948 374.647 264.883 371.594 263.234 366.687C261.518 361.725 268.935 356.801 277.26 355.474Z" fill="url(#paint51_linear)"/>
<path d="M393.241 306.903L390.788 312.6C388.184 318.8 378.43 321.901 367.03 319.52C353.879 316.809 343.461 307.927 343.825 299.605C343.869 298.539 344.125 297.454 344.554 296.476L347.007 290.779C346.578 291.758 346.406 292.794 346.278 293.908C345.915 302.23 356.333 311.112 369.483 313.823C380.884 316.205 390.555 313.152 393.241 306.903Z" fill="url(#paint52_linear)"/>
<path d="M369.503 313.383L369.501 313.382C363.001 312.042 357.188 309.178 353.055 305.639C348.91 302.088 346.522 297.922 346.695 293.979C346.865 290.073 349.518 287.021 353.833 285.258C358.152 283.494 364.078 283.057 370.581 284.398C377.081 285.738 382.894 288.602 387.027 292.141C391.172 295.692 393.56 299.858 393.388 303.801C393.217 307.709 390.573 310.78 386.265 312.551C381.953 314.325 376.028 314.761 369.503 313.383Z" fill="url(#paint53_linear)" stroke="url(#paint54_linear)" stroke-miterlimit="10"/>
<path d="M370.461 289.236C378.959 291.027 387.426 297.619 387.121 302.996C386.899 308.324 378.166 310.412 369.668 308.621C361.17 306.83 352.613 300.182 352.835 294.854C353.012 289.449 361.963 287.445 370.461 289.236Z" fill="#C27025"/>
<path d="M370.313 290.089C378.562 291.827 386.781 298.226 386.485 303.444C386.269 308.616 377.793 310.643 369.544 308.905C361.295 307.166 352.989 300.714 353.205 295.542C353.377 290.295 362.065 288.35 370.313 290.089Z" fill="url(#paint55_linear)"/>
<path d="M349.357 311.309L348.452 317.445C347.531 324.107 338.904 329.613 327.274 330.245C313.869 331.01 301.517 325.107 299.726 316.973C299.495 315.931 299.463 314.817 299.626 313.761L300.531 307.625C300.368 308.681 300.468 309.727 300.632 310.836C302.422 318.971 314.775 324.874 328.18 324.109C339.809 323.477 348.369 318.039 349.357 311.309Z" fill="url(#paint56_linear)"/>
<path d="M328.086 323.678L328.083 323.679C321.457 324.056 315.103 322.785 310.199 320.428C305.28 318.064 301.9 314.652 301.052 310.797C300.212 306.979 301.99 303.347 305.706 300.534C309.426 297.717 315.04 295.77 321.669 295.392C328.295 295.015 334.649 296.286 339.554 298.643C344.473 301.007 347.852 304.419 348.7 308.274C349.541 312.094 347.777 315.741 344.069 318.562C340.358 321.385 334.746 323.332 328.086 323.678Z" fill="url(#paint57_linear)" stroke="url(#paint58_linear)" stroke-miterlimit="10"/>
<path d="M322.798 300.099C331.47 299.643 341.349 303.834 342.437 309.108C343.593 314.314 335.692 318.579 327.02 319.035C318.347 319.491 308.367 315.269 307.211 310.063C305.991 304.794 314.125 300.555 322.798 300.099Z" fill="#C27025"/>
<path d="M322.874 300.96C331.293 300.518 340.881 304.586 341.938 309.705C343.06 314.758 335.391 318.898 326.973 319.341C318.555 319.783 308.868 315.686 307.745 310.633C306.561 305.518 314.456 301.403 322.874 300.96Z" fill="url(#paint59_linear)"/>
<path d="M292.087 319.019L293.63 325.027C295.361 331.525 289.541 339.943 279.064 345.031C267.001 350.928 253.326 350.271 248.525 343.465C247.908 342.595 247.447 341.58 247.188 340.543L245.646 334.536C245.905 335.572 246.402 336.498 246.983 337.457C251.784 344.264 265.459 344.92 277.521 339.023C287.998 333.935 293.783 325.606 292.087 319.019Z" fill="url(#paint60_linear)"/>
<path d="M277.267 338.662L277.265 338.663C271.303 341.578 264.953 342.867 259.518 342.594C254.067 342.32 249.63 340.484 247.355 337.259C245.101 334.064 245.334 330.027 247.669 325.994C250.008 321.956 254.43 317.986 260.395 315.07C266.357 312.155 272.708 310.866 278.142 311.139C283.593 311.413 288.03 313.25 290.305 316.475C292.56 319.671 292.346 323.717 290.021 327.754C287.694 331.794 283.273 335.763 277.267 338.662Z" fill="url(#paint61_linear)" stroke="url(#paint62_linear)" stroke-miterlimit="10"/>
<path d="M263.259 318.972C271.078 315.192 281.808 315.229 284.855 319.67C287.938 324.022 282.306 331.014 274.487 334.794C266.668 338.574 255.832 338.548 252.749 334.196C249.584 329.811 255.44 322.752 263.259 318.972Z" fill="#C27025"/>
<path d="M263.663 319.737C271.253 316.068 281.668 316.104 284.626 320.414C287.618 324.638 282.151 331.426 274.561 335.095C266.972 338.763 256.454 338.738 253.461 334.514C250.389 330.257 256.073 323.405 263.663 319.737Z" fill="url(#paint63_linear)"/>
</g>
<path d="M133.506 326.492C107.126 317.416 88.1459 284.337 82.6549 252.93C79.5513 235.136 80.745 218.059 85.8779 204.684C88.2653 198.355 91.6076 192.981 95.6661 188.682L133.506 326.492Z" fill="#456E81"/>
<path d="M132.322 322.163C107.907 313.37 91.7537 281.473 86.6718 251.044C83.6039 232.632 83.2079 213.115 96.7487 192.402L132.322 322.163Z" fill="#7C4E3D"/>
<g opacity="0.26" filter="url(#filter4_f)">
<path d="M148.781 503.596V509.201C148.756 510.22 148.924 511.253 149.302 512.282C152.033 519.701 164.436 524.308 176.82 522.591C187.691 521.135 195.001 515.372 194.905 509.008V503.596C182.193 503.596 164.453 503.596 148.781 503.596Z" fill="#395590"/>
</g>
<g opacity="0.26" filter="url(#filter5_f)">
<path d="M192.943 520.027V525.632C192.918 526.651 193.086 527.684 193.463 528.713C196.183 536.132 208.543 540.739 220.883 539.023C231.715 537.566 238.999 531.803 238.903 525.439V520.027C226.236 520.027 208.559 520.027 192.943 520.027Z" fill="#395590"/>
</g>
<path d="M148.72 502.613V508.218C148.695 509.238 148.864 510.27 149.245 511.299C151.989 518.718 164.456 523.325 176.902 521.609C187.829 520.152 195.177 514.389 195.08 508.025V502.613C182.303 502.613 164.472 502.613 148.72 502.613Z" fill="url(#paint64_linear)"/>
<path d="M176.835 515.155L176.837 515.155C183.037 514.328 188.024 512.104 191.11 509.219C194.186 506.344 195.348 502.855 194.063 499.381C192.763 495.865 189.117 492.935 184.167 491.094C179.233 489.26 173.088 488.545 166.943 489.392C160.794 490.24 155.82 492.5 152.726 495.398C149.639 498.29 148.458 501.769 149.714 505.166L176.835 515.155ZM176.835 515.155C170.689 516.002 164.545 515.287 159.611 513.453M176.835 515.155L159.611 513.453M159.611 513.453C154.66 511.612 151.015 508.682 149.714 505.166L159.611 513.453Z" fill="url(#paint65_linear)" stroke="url(#paint66_linear)" stroke-miterlimit="10" stroke-linecap="round" stroke-linejoin="round"/>
<path d="M167.277 493.897C175.368 492.86 184.738 495.553 186.543 500.29C188.348 505.026 183.607 509.854 175.57 511.035C167.479 512.073 159.168 508.828 157.292 504.36C155.487 499.624 159.24 495.078 167.277 493.897Z" fill="#C27025"/>
<path d="M168.256 494.579C176.24 493.781 184.192 496.769 186.088 501.302C187.984 505.836 183.035 510.223 175.109 511.158C167.125 511.956 159.173 508.969 157.277 504.435C155.381 499.901 160.33 495.515 168.256 494.579Z" fill="url(#paint67_linear)"/>
<path d="M148.72 493.346V498.951C148.695 499.97 148.864 501.003 149.245 502.031C151.989 509.451 164.456 514.058 176.902 512.341C187.829 510.885 195.177 505.122 195.08 498.757V493.346C182.303 493.346 164.472 493.346 148.72 493.346Z" fill="url(#paint68_linear)"/>
<path d="M176.835 505.887L176.837 505.887C183.037 505.061 188.024 502.836 191.11 499.952C194.186 497.077 195.348 493.587 194.063 490.113C192.763 486.598 189.117 483.667 184.167 481.827C179.233 479.993 173.088 479.277 166.943 480.125C160.794 480.973 155.82 483.232 152.726 486.13C149.639 489.022 148.458 492.502 149.714 495.899L176.835 505.887ZM176.835 505.887C170.689 506.735 164.545 506.019 159.611 504.185M176.835 505.887L159.611 504.185M159.611 504.185C154.66 502.345 151.015 499.414 149.714 495.899L159.611 504.185Z" fill="url(#paint69_linear)" stroke="url(#paint70_linear)" stroke-miterlimit="10" stroke-linecap="round" stroke-linejoin="round"/>
<path d="M167.277 484.63C175.368 483.592 184.738 486.286 186.543 491.022C188.348 495.759 183.607 500.586 175.57 501.767C167.479 502.805 159.168 499.561 157.292 495.093C155.487 490.356 159.24 485.811 167.277 484.63Z" fill="#C27025"/>
<path d="M168.256 485.312C176.24 484.514 184.192 487.501 186.088 492.035C187.984 496.569 183.035 500.955 175.109 501.891C167.125 502.689 159.173 499.701 157.277 495.168C155.381 490.634 160.33 486.247 168.256 485.312Z" fill="url(#paint71_linear)"/>
<path d="M148.72 484.078V489.683C148.695 490.703 148.864 491.735 149.245 492.764C151.989 500.183 164.456 504.79 176.902 503.074C187.829 501.617 195.177 495.854 195.08 489.49V484.078C182.303 484.078 164.472 484.078 148.72 484.078Z" fill="url(#paint72_linear)"/>
<path d="M176.835 496.62L176.837 496.619C183.037 495.793 188.024 493.568 191.11 490.684C194.186 487.809 195.348 484.319 194.063 480.846C192.763 477.33 189.117 474.4 184.167 472.559C179.233 470.725 173.088 470.01 166.943 470.857C160.794 471.705 155.82 473.964 152.726 476.863C149.639 479.755 148.458 483.234 149.714 486.631L176.835 496.62ZM176.835 496.62C170.689 497.467 164.545 496.752 159.611 494.918M176.835 496.62L159.611 494.918M159.611 494.918C154.66 493.077 151.015 490.147 149.714 486.631L159.611 494.918Z" fill="url(#paint73_linear)" stroke="url(#paint74_linear)" stroke-miterlimit="10" stroke-linecap="round" stroke-linejoin="round"/>
<path d="M167.277 475.362C175.368 474.324 184.738 477.018 186.543 481.755C188.348 486.491 183.607 491.319 175.57 492.5C167.479 493.537 159.168 490.293 157.292 485.825C155.487 481.088 159.24 476.543 167.277 475.362Z" fill="#C27025"/>
<path d="M168.256 476.044C176.24 475.246 184.192 478.234 186.088 482.767C187.984 487.301 183.035 491.688 175.109 492.623C167.125 493.421 159.173 490.434 157.277 485.9C155.381 481.366 160.33 476.979 168.256 476.044Z" fill="url(#paint75_linear)"/>
<path d="M148.72 474.81V480.416C148.695 481.435 148.864 482.467 149.245 483.496C151.989 490.916 164.456 495.523 176.902 493.806C187.829 492.35 195.177 486.587 195.08 480.222V474.81C182.303 474.81 164.472 474.81 148.72 474.81Z" fill="url(#paint76_linear)"/>
<path d="M176.835 487.352L176.837 487.352C183.037 486.525 188.024 484.301 191.11 481.417C194.186 478.542 195.348 475.052 194.063 471.578C192.763 468.063 189.117 465.132 184.167 463.292C179.233 461.457 173.088 460.742 166.943 461.59C160.794 462.438 155.82 464.697 152.726 467.595C149.639 470.487 148.458 473.966 149.714 477.364L176.835 487.352ZM176.835 487.352C170.689 488.2 164.545 487.484 159.611 485.65M176.835 487.352L159.611 485.65M159.611 485.65C154.66 483.81 151.015 480.879 149.714 477.364L159.611 485.65Z" fill="url(#paint77_linear)" stroke="url(#paint78_linear)" stroke-miterlimit="10" stroke-linecap="round" stroke-linejoin="round"/>
<path d="M167.277 466.095C175.368 465.057 184.738 467.751 186.543 472.487C188.348 477.223 183.607 482.051 175.57 483.232C167.479 484.27 159.168 481.026 157.292 476.557C155.487 471.821 159.24 467.276 167.277 466.095Z" fill="#C27025"/>
<path d="M168.256 466.776C176.24 465.978 184.192 468.966 186.088 473.5C187.984 478.033 183.035 482.42 175.109 483.356C167.125 484.154 159.173 481.166 157.277 476.632C155.381 472.099 160.33 467.712 168.256 466.776Z" fill="url(#paint79_linear)"/>
<path d="M192.705 519.089V524.694C192.679 525.714 192.849 526.746 193.229 527.775C195.973 535.194 208.44 539.801 220.887 538.085C231.813 536.628 239.161 530.865 239.064 524.501V519.089C226.287 519.089 208.457 519.089 192.705 519.089Z" fill="url(#paint80_linear)"/>
<path d="M220.819 531.631L220.822 531.63C227.022 530.804 232.008 528.579 235.094 525.695C238.171 522.82 239.333 519.33 238.048 515.857C236.747 512.341 233.102 509.411 228.151 507.57C223.217 505.736 217.073 505.021 210.927 505.868C204.778 506.716 199.804 508.975 196.71 511.874C193.623 514.766 192.443 518.245 193.699 521.642L220.819 531.631ZM220.819 531.631C214.674 532.478 208.529 531.763 203.595 529.929M220.819 531.631L203.595 529.929M203.595 529.929C198.645 528.088 194.999 525.158 193.699 521.642L203.595 529.929Z" fill="url(#paint81_linear)" stroke="url(#paint82_linear)" stroke-miterlimit="10" stroke-linecap="round" stroke-linejoin="round"/>
<path d="M211.261 510.373C219.353 509.335 228.722 512.029 230.527 516.766C232.332 521.502 227.591 526.33 219.554 527.511C211.463 528.548 203.152 525.304 201.277 520.836C199.472 516.099 203.224 511.554 211.261 510.373Z" fill="#C27025"/>
<path d="M212.241 511.055C220.225 510.257 228.176 513.245 230.072 517.778C231.968 522.312 227.02 526.699 219.093 527.634C211.109 528.432 203.157 525.445 201.261 520.911C199.365 516.377 204.314 511.99 212.241 511.055Z" fill="url(#paint83_linear)"/>
<path d="M185.972 109.558C209.48 109.558 228.538 90.5 228.538 66.9913C228.538 43.4826 209.48 24.425 185.972 24.425C162.463 24.425 143.405 43.4826 143.405 66.9913C143.405 90.5 162.463 109.558 185.972 109.558Z" fill="url(#paint84_linear)"/>
<path d="M127.419 421.785C134.216 425.709 142.907 423.38 146.832 416.583C150.756 409.786 148.427 401.094 141.63 397.17C134.833 393.246 126.141 395.575 122.217 402.372C118.293 409.169 120.622 417.86 127.419 421.785Z" fill="url(#paint85_linear)"/>
<defs>
<filter id="filter0_f" x="0.293457" y="384.92" width="502.224" height="231.572" filterUnits="userSpaceOnUse" color-interpolation-filters="sRGB">
<feFlood flood-opacity="0" result="BackgroundImageFix"/>
<feBlend mode="normal" in="SourceGraphic" in2="BackgroundImageFix" result="shape"/>
<feGaussianBlur stdDeviation="9.5" result="effect1_foregroundBlur"/>
</filter>
<filter id="filter1_f" x="72.4043" y="488.093" width="135.551" height="78.6141" filterUnits="userSpaceOnUse" color-interpolation-filters="sRGB">
<feFlood flood-opacity="0" result="BackgroundImageFix"/>
<feBlend mode="normal" in="SourceGraphic" in2="BackgroundImageFix" result="shape"/>
<feGaussianBlur stdDeviation="9.5" result="effect1_foregroundBlur"/>
</filter>
<filter id="filter2_f" x="149.686" y="505.428" width="101.132" height="60.1871" filterUnits="userSpaceOnUse" color-interpolation-filters="sRGB">
<feFlood flood-opacity="0" result="BackgroundImageFix"/>
<feBlend mode="normal" in="SourceGraphic" in2="BackgroundImageFix" result="shape"/>
<feGaussianBlur stdDeviation="9.5" result="effect1_foregroundBlur"/>
</filter>
<filter id="filter3_f" x="176.126" y="221.907" width="282.245" height="197.758" filterUnits="userSpaceOnUse" color-interpolation-filters="sRGB">
<feFlood flood-opacity="0" result="BackgroundImageFix"/>
<feBlend mode="normal" in="SourceGraphic" in2="BackgroundImageFix" result="shape"/>
<feGaussianBlur stdDeviation="23.5" result="effect1_foregroundBlur"/>
</filter>
<filter id="filter4_f" x="147.778" y="502.596" width="48.1276" height="21.3544" filterUnits="userSpaceOnUse" color-interpolation-filters="sRGB">
<feFlood flood-opacity="0" result="BackgroundImageFix"/>
<feBlend mode="normal" in="SourceGraphic" in2="BackgroundImageFix" result="shape"/>
<feGaussianBlur stdDeviation="0.5" result="effect1_foregroundBlur"/>
</filter>
<filter id="filter5_f" x="191.94" y="519.027" width="47.9638" height="21.3544" filterUnits="userSpaceOnUse" color-interpolation-filters="sRGB">
<feFlood flood-opacity="0" result="BackgroundImageFix"/>
<feBlend mode="normal" in="SourceGraphic" in2="BackgroundImageFix" result="shape"/>
<feGaussianBlur stdDeviation="0.5" result="effect1_foregroundBlur"/>
</filter>
<linearGradient id="paint0_linear" x1="166.381" y1="494.61" x2="129.333" y2="566.589" gradientUnits="userSpaceOnUse">
<stop stop-color="#395590"/>
<stop offset="1" stop-color="#395590" stop-opacity="0"/>
</linearGradient>
<linearGradient id="paint1_linear" x1="159.478" y1="513.644" x2="129.345" y2="538.536" gradientUnits="userSpaceOnUse">
<stop stop-color="#395590"/>
<stop offset="1" stop-color="#395590" stop-opacity="0"/>
</linearGradient>
<linearGradient id="paint2_linear" x1="200.092" y1="527.182" x2="187.427" y2="544.213" gradientUnits="userSpaceOnUse">
<stop stop-color="#395590"/>
<stop offset="1" stop-color="#395590" stop-opacity="0"/>
</linearGradient>
<linearGradient id="paint3_linear" x1="394.59" y1="61.2301" x2="394.59" y2="385.709" gradientUnits="userSpaceOnUse">
<stop stop-color="#52B4FC"/>
<stop offset="1" stop-color="#267EFE"/>
</linearGradient>
<linearGradient id="paint4_linear" x1="237.418" y1="208.907" x2="290.91" y2="363.095" gradientUnits="userSpaceOnUse">
<stop stop-color="#B5CFDA"/>
<stop offset="1" stop-color="#6695AA"/>
</linearGradient>
<linearGradient id="paint5_linear" x1="225.838" y1="128.376" x2="225.838" y2="330.671" gradientUnits="userSpaceOnUse">
<stop stop-color="#39221A"/>
<stop offset="1" stop-color="#4E2F24"/>
</linearGradient>
<linearGradient id="paint6_linear" x1="323.482" y1="298.703" x2="323.482" y2="382.021" gradientUnits="userSpaceOnUse">
<stop stop-color="#A1C7D6"/>
<stop offset="1" stop-color="#C6D7DE"/>
</linearGradient>
<linearGradient id="paint7_linear" x1="323.781" y1="293.293" x2="323.781" y2="345.574" gradientUnits="userSpaceOnUse">
<stop stop-color="#8BB4C4"/>
<stop offset="1" stop-color="#456E81"/>
</linearGradient>
<linearGradient id="paint8_linear" x1="303.334" y1="384.943" x2="168.023" y2="493.236" gradientUnits="userSpaceOnUse">
<stop stop-color="#83AFC3"/>
<stop offset="1" stop-color="#518298"/>
</linearGradient>
<linearGradient id="paint9_linear" x1="309.386" y1="383.276" x2="278.446" y2="400.956" gradientUnits="userSpaceOnUse">
<stop stop-color="#FEFFFF"/>
<stop offset="1" stop-color="#FEFFFF" stop-opacity="0"/>
</linearGradient>
<linearGradient id="paint10_linear" x1="190.128" y1="374.002" x2="282.791" y2="504.847" gradientUnits="userSpaceOnUse">
<stop stop-color="#8F5B48"/>
<stop offset="1" stop-color="#7C4E3D"/>
</linearGradient>
<linearGradient id="paint11_linear" x1="483.747" y1="319.297" x2="310.032" y2="531.417" gradientUnits="userSpaceOnUse">
<stop stop-color="#80ACC0"/>
<stop offset="1" stop-color="#CBD9E0"/>
</linearGradient>
<linearGradient id="paint12_linear" x1="306.624" y1="386.038" x2="372.923" y2="421.95" gradientUnits="userSpaceOnUse">
<stop stop-color="white" stop-opacity="0.77"/>
<stop offset="1" stop-color="white" stop-opacity="0"/>
</linearGradient>
<linearGradient id="paint13_linear" x1="437.64" y1="338.708" x2="437.64" y2="457.854" gradientUnits="userSpaceOnUse">
<stop stop-color="#B57550"/>
<stop offset="1" stop-color="#845543"/>
</linearGradient>
<linearGradient id="paint14_linear" x1="357.457" y1="369.32" x2="357.457" y2="499.076" gradientUnits="userSpaceOnUse">
<stop stop-color="#B57550"/>
<stop offset="1" stop-color="#845543"/>
</linearGradient>
<linearGradient id="paint15_linear" x1="322.331" y1="287.604" x2="322.331" y2="369.604" gradientUnits="userSpaceOnUse">
<stop stop-color="#FCD537"/>
<stop offset="1" stop-color="#FBB02F"/>
</linearGradient>
<linearGradient id="paint16_linear" x1="307.842" y1="292.084" x2="341.308" y2="318.929" gradientUnits="userSpaceOnUse">
<stop stop-color="#E7A222"/>
<stop offset="1" stop-color="#BC4B16"/>
</linearGradient>
<linearGradient id="paint17_linear" x1="303.354" y1="296.228" x2="340.651" y2="314.385" gradientUnits="userSpaceOnUse">
<stop stop-color="#FCD938"/>
<stop offset="1" stop-color="#FBAE2C"/>
</linearGradient>
<linearGradient id="paint18_linear" x1="324.756" y1="312.977" x2="323.858" y2="306.737" gradientUnits="userSpaceOnUse">
<stop stop-color="white" stop-opacity="0.63"/>
<stop offset="1" stop-color="white" stop-opacity="0"/>
</linearGradient>
<linearGradient id="paint19_linear" x1="315.133" y1="292.808" x2="335.311" y2="308.994" gradientUnits="userSpaceOnUse">
<stop stop-color="#FFC564"/>
<stop offset="1" stop-color="#FFED9D"/>
</linearGradient>
<linearGradient id="paint20_linear" x1="325.658" y1="322.148" x2="359.124" y2="348.993" gradientUnits="userSpaceOnUse">
<stop stop-color="#E7A222"/>
<stop offset="1" stop-color="#BC4B16"/>
</linearGradient>
<linearGradient id="paint21_linear" x1="321.17" y1="326.293" x2="358.467" y2="344.45" gradientUnits="userSpaceOnUse">
<stop stop-color="#FCD938"/>
<stop offset="1" stop-color="#FBAE2C"/>
</linearGradient>
<linearGradient id="paint22_linear" x1="342.572" y1="343.041" x2="341.674" y2="336.801" gradientUnits="userSpaceOnUse">
<stop stop-color="white" stop-opacity="0.63"/>
<stop offset="1" stop-color="white" stop-opacity="0"/>
</linearGradient>
<linearGradient id="paint23_linear" x1="332.949" y1="322.872" x2="353.127" y2="339.058" gradientUnits="userSpaceOnUse">
<stop stop-color="#FFC564"/>
<stop offset="1" stop-color="#FFED9D"/>
</linearGradient>
<linearGradient id="paint24_linear" x1="378.966" y1="326.046" x2="412.432" y2="352.89" gradientUnits="userSpaceOnUse">
<stop stop-color="#E7A222"/>
<stop offset="1" stop-color="#BC4B16"/>
</linearGradient>
<linearGradient id="paint25_linear" x1="374.478" y1="330.19" x2="411.775" y2="348.347" gradientUnits="userSpaceOnUse">
<stop stop-color="#FCD938"/>
<stop offset="1" stop-color="#FBAE2C"/>
</linearGradient>
<linearGradient id="paint26_linear" x1="395.88" y1="346.938" x2="394.982" y2="340.699" gradientUnits="userSpaceOnUse">
<stop stop-color="white" stop-opacity="0.63"/>
<stop offset="1" stop-color="white" stop-opacity="0"/>
</linearGradient>
<linearGradient id="paint27_linear" x1="386.257" y1="326.769" x2="406.435" y2="342.956" gradientUnits="userSpaceOnUse">
<stop stop-color="#FFC564"/>
<stop offset="1" stop-color="#FFED9D"/>
</linearGradient>
<linearGradient id="paint28_linear" x1="296.15" y1="342.887" x2="329.616" y2="369.732" gradientUnits="userSpaceOnUse">
<stop stop-color="#E7A222"/>
<stop offset="1" stop-color="#BC4B16"/>
</linearGradient>
<linearGradient id="paint29_linear" x1="291.663" y1="347.031" x2="328.959" y2="365.188" gradientUnits="userSpaceOnUse">
<stop stop-color="#FCD938"/>
<stop offset="1" stop-color="#FBAE2C"/>
</linearGradient>
<linearGradient id="paint30_linear" x1="313.064" y1="363.78" x2="312.167" y2="357.54" gradientUnits="userSpaceOnUse">
<stop stop-color="white" stop-opacity="0.63"/>
<stop offset="1" stop-color="white" stop-opacity="0"/>
</linearGradient>
<linearGradient id="paint31_linear" x1="303.441" y1="343.611" x2="323.619" y2="359.797" gradientUnits="userSpaceOnUse">
<stop stop-color="#FFC564"/>
<stop offset="1" stop-color="#FFED9D"/>
</linearGradient>
<linearGradient id="paint32_linear" x1="281.954" y1="301.827" x2="315.419" y2="328.672" gradientUnits="userSpaceOnUse">
<stop stop-color="#E7A222"/>
<stop offset="1" stop-color="#BC4B16"/>
</linearGradient>
<linearGradient id="paint33_linear" x1="277.466" y1="305.972" x2="314.763" y2="324.128" gradientUnits="userSpaceOnUse">
<stop stop-color="#FCD938"/>
<stop offset="1" stop-color="#FBAE2C"/>
</linearGradient>
<linearGradient id="paint34_linear" x1="298.868" y1="322.72" x2="297.97" y2="316.48" gradientUnits="userSpaceOnUse">
<stop stop-color="white" stop-opacity="0.63"/>
<stop offset="1" stop-color="white" stop-opacity="0"/>
</linearGradient>
<linearGradient id="paint35_linear" x1="289.244" y1="302.551" x2="309.422" y2="318.737" gradientUnits="userSpaceOnUse">
<stop stop-color="#FFC564"/>
<stop offset="1" stop-color="#FFED9D"/>
</linearGradient>
<linearGradient id="paint36_linear" x1="286.824" y1="319.643" x2="320.29" y2="346.488" gradientUnits="userSpaceOnUse">
<stop stop-color="#E7A222"/>
<stop offset="1" stop-color="#BC4B16"/>
</linearGradient>
<linearGradient id="paint37_linear" x1="282.336" y1="323.787" x2="319.633" y2="341.944" gradientUnits="userSpaceOnUse">
<stop stop-color="#FCD938"/>
<stop offset="1" stop-color="#FBAE2C"/>
</linearGradient>
<linearGradient id="paint38_linear" x1="303.738" y1="340.536" x2="302.84" y2="334.296" gradientUnits="userSpaceOnUse">
<stop stop-color="white" stop-opacity="0.63"/>
<stop offset="1" stop-color="white" stop-opacity="0"/>
</linearGradient>
<linearGradient id="paint39_linear" x1="294.115" y1="320.367" x2="314.293" y2="336.553" gradientUnits="userSpaceOnUse">
<stop stop-color="#FFC564"/>
<stop offset="1" stop-color="#FFED9D"/>
</linearGradient>
<linearGradient id="paint40_linear" x1="355.165" y1="330.082" x2="388.631" y2="356.927" gradientUnits="userSpaceOnUse">
<stop stop-color="#E7A222"/>
<stop offset="1" stop-color="#BC4B16"/>
</linearGradient>
<linearGradient id="paint41_linear" x1="350.677" y1="334.226" x2="387.974" y2="352.383" gradientUnits="userSpaceOnUse">
<stop stop-color="#FCD938"/>
<stop offset="1" stop-color="#FBAE2C"/>
</linearGradient>
<linearGradient id="paint42_linear" x1="372.079" y1="350.975" x2="371.181" y2="344.735" gradientUnits="userSpaceOnUse">
<stop stop-color="white" stop-opacity="0.63"/>
<stop offset="1" stop-color="white" stop-opacity="0"/>
</linearGradient>
<linearGradient id="paint43_linear" x1="362.455" y1="330.806" x2="382.633" y2="346.992" gradientUnits="userSpaceOnUse">
<stop stop-color="#FFC564"/>
<stop offset="1" stop-color="#FFED9D"/>
</linearGradient>
<linearGradient id="paint44_linear" x1="240.197" y1="343.583" x2="273.663" y2="370.428" gradientUnits="userSpaceOnUse">
<stop stop-color="#E7A222"/>
<stop offset="1" stop-color="#BC4B16"/>
</linearGradient>
<linearGradient id="paint45_linear" x1="235.709" y1="347.728" x2="273.006" y2="365.884" gradientUnits="userSpaceOnUse">
<stop stop-color="#FCD938"/>
<stop offset="1" stop-color="#FBAE2C"/>
</linearGradient>
<linearGradient id="paint46_linear" x1="257.111" y1="364.476" x2="256.213" y2="358.236" gradientUnits="userSpaceOnUse">
<stop stop-color="white" stop-opacity="0.63"/>
<stop offset="1" stop-color="white" stop-opacity="0"/>
</linearGradient>
<linearGradient id="paint47_linear" x1="247.488" y1="344.307" x2="267.666" y2="360.493" gradientUnits="userSpaceOnUse">
<stop stop-color="#FFC564"/>
<stop offset="1" stop-color="#FFED9D"/>
</linearGradient>
<linearGradient id="paint48_linear" x1="262.885" y1="355.553" x2="296.35" y2="382.398" gradientUnits="userSpaceOnUse">
<stop stop-color="#E7A222"/>
<stop offset="1" stop-color="#BC4B16"/>
</linearGradient>
<linearGradient id="paint49_linear" x1="258.397" y1="359.697" x2="295.694" y2="377.854" gradientUnits="userSpaceOnUse">
<stop stop-color="#FCD938"/>
<stop offset="1" stop-color="#FBAE2C"/>
</linearGradient>
<linearGradient id="paint50_linear" x1="279.799" y1="376.446" x2="278.901" y2="370.206" gradientUnits="userSpaceOnUse">
<stop stop-color="white" stop-opacity="0.63"/>
<stop offset="1" stop-color="white" stop-opacity="0"/>
</linearGradient>
<linearGradient id="paint51_linear" x1="270.175" y1="356.277" x2="290.353" y2="372.463" gradientUnits="userSpaceOnUse">
<stop stop-color="#FFC564"/>
<stop offset="1" stop-color="#FFED9D"/>
</linearGradient>
<linearGradient id="paint52_linear" x1="356.862" y1="285.02" x2="378.509" y2="322.06" gradientUnits="userSpaceOnUse">
<stop stop-color="#E7A222"/>
<stop offset="1" stop-color="#BC4B16"/>
</linearGradient>
<linearGradient id="paint53_linear" x1="351.188" y1="287.285" x2="379.521" y2="317.583" gradientUnits="userSpaceOnUse">
<stop stop-color="#FCD938"/>
<stop offset="1" stop-color="#FBAE2C"/>
</linearGradient>
<linearGradient id="paint54_linear" x1="365.182" y1="310.581" x2="366.576" y2="304.433" gradientUnits="userSpaceOnUse">
<stop stop-color="white" stop-opacity="0.63"/>
<stop offset="1" stop-color="white" stop-opacity="0"/>
</linearGradient>
<linearGradient id="paint55_linear" x1="363.41" y1="288.304" x2="376.463" y2="310.637" gradientUnits="userSpaceOnUse">
<stop stop-color="#FFC564"/>
<stop offset="1" stop-color="#FFED9D"/>
</linearGradient>
<linearGradient id="paint56_linear" x1="308.571" y1="299.524" x2="339.021" y2="329.746" gradientUnits="userSpaceOnUse">
<stop stop-color="#E7A222"/>
<stop offset="1" stop-color="#BC4B16"/>
</linearGradient>
<linearGradient id="paint57_linear" x1="303.672" y1="303.172" x2="338.847" y2="325.159" gradientUnits="userSpaceOnUse">
<stop stop-color="#FCD938"/>
<stop offset="1" stop-color="#FBAE2C"/>
</linearGradient>
<linearGradient id="paint58_linear" x1="323.189" y1="322.083" x2="322.954" y2="315.784" gradientUnits="userSpaceOnUse">
<stop stop-color="white" stop-opacity="0.63"/>
<stop offset="1" stop-color="white" stop-opacity="0"/>
</linearGradient>
<linearGradient id="paint59_linear" x1="315.745" y1="301.012" x2="334.104" y2="319.235" gradientUnits="userSpaceOnUse">
<stop stop-color="#FFC564"/>
<stop offset="1" stop-color="#FFED9D"/>
</linearGradient>
<linearGradient id="paint60_linear" x1="249.92" y1="323.953" x2="289.7" y2="340.02" gradientUnits="userSpaceOnUse">
<stop stop-color="#E7A222"/>
<stop offset="1" stop-color="#BC4B16"/>
</linearGradient>
<linearGradient id="paint61_linear" x1="246.816" y1="329.214" x2="287.762" y2="335.859" gradientUnits="userSpaceOnUse">
<stop stop-color="#FCD938"/>
<stop offset="1" stop-color="#FBAE2C"/>
</linearGradient>
<linearGradient id="paint62_linear" x1="272.135" y1="339.088" x2="269.478" y2="333.372" gradientUnits="userSpaceOnUse">
<stop stop-color="white" stop-opacity="0.63"/>
<stop offset="1" stop-color="white" stop-opacity="0"/>
</linearGradient>
<linearGradient id="paint63_linear" x1="257.11" y1="322.546" x2="281.095" y2="332.234" gradientUnits="userSpaceOnUse">
<stop stop-color="#FFC564"/>
<stop offset="1" stop-color="#FFED9D"/>
</linearGradient>
<linearGradient id="paint64_linear" x1="171.899" y1="502.613" x2="171.899" y2="521.968" gradientUnits="userSpaceOnUse">
<stop stop-color="#BD4D16"/>
<stop offset="1" stop-color="#E09520"/>
</linearGradient>
<linearGradient id="paint65_linear" x1="172.8" y1="488.546" x2="172.869" y2="515.27" gradientUnits="userSpaceOnUse">
<stop stop-color="#FCD637"/>
<stop offset="1" stop-color="#FBB02C"/>
</linearGradient>
<linearGradient id="paint66_linear" x1="178.379" y1="509.086" x2="178.396" y2="515.706" gradientUnits="userSpaceOnUse">
<stop stop-color="#FEE5B2" stop-opacity="0"/>
<stop offset="1" stop-color="#FEE5B2"/>
</linearGradient>
<linearGradient id="paint67_linear" x1="175.568" y1="493.489" x2="175.174" y2="512.48" gradientUnits="userSpaceOnUse">
<stop stop-color="#FFD67D"/>
<stop offset="1" stop-color="#FFEC9C"/>
</linearGradient>
<linearGradient id="paint68_linear" x1="171.899" y1="493.346" x2="171.899" y2="512.7" gradientUnits="userSpaceOnUse">
<stop stop-color="#BD4D16"/>
<stop offset="1" stop-color="#E09520"/>
</linearGradient>
<linearGradient id="paint69_linear" x1="172.8" y1="479.279" x2="172.869" y2="506.002" gradientUnits="userSpaceOnUse">
<stop stop-color="#FCD637"/>
<stop offset="1" stop-color="#FBB02C"/>
</linearGradient>
<linearGradient id="paint70_linear" x1="178.379" y1="499.818" x2="178.396" y2="506.438" gradientUnits="userSpaceOnUse">
<stop stop-color="#FEE5B2" stop-opacity="0"/>
<stop offset="1" stop-color="#FEE5B2"/>
</linearGradient>
<linearGradient id="paint71_linear" x1="175.568" y1="484.221" x2="175.174" y2="503.212" gradientUnits="userSpaceOnUse">
<stop stop-color="#FFD67D"/>
<stop offset="1" stop-color="#FFEC9C"/>
</linearGradient>
<linearGradient id="paint72_linear" x1="171.899" y1="484.078" x2="171.899" y2="503.432" gradientUnits="userSpaceOnUse">
<stop stop-color="#BD4D16"/>
<stop offset="1" stop-color="#E09520"/>
</linearGradient>
<linearGradient id="paint73_linear" x1="172.8" y1="470.011" x2="172.869" y2="496.735" gradientUnits="userSpaceOnUse">
<stop stop-color="#FCD637"/>
<stop offset="1" stop-color="#FBB02C"/>
</linearGradient>
<linearGradient id="paint74_linear" x1="178.379" y1="490.551" x2="178.396" y2="497.17" gradientUnits="userSpaceOnUse">
<stop stop-color="#FEE5B2" stop-opacity="0"/>
<stop offset="1" stop-color="#FEE5B2"/>
</linearGradient>
<linearGradient id="paint75_linear" x1="175.568" y1="474.954" x2="175.174" y2="493.945" gradientUnits="userSpaceOnUse">
<stop stop-color="#FFD67D"/>
<stop offset="1" stop-color="#FFEC9C"/>
</linearGradient>
<linearGradient id="paint76_linear" x1="171.899" y1="474.81" x2="171.899" y2="494.165" gradientUnits="userSpaceOnUse">
<stop stop-color="#BD4D16"/>
<stop offset="1" stop-color="#E09520"/>
</linearGradient>
<linearGradient id="paint77_linear" x1="172.8" y1="460.744" x2="172.869" y2="487.467" gradientUnits="userSpaceOnUse">
<stop stop-color="#FCD637"/>
<stop offset="1" stop-color="#FBB02C"/>
</linearGradient>
<linearGradient id="paint78_linear" x1="178.379" y1="481.283" x2="178.396" y2="487.903" gradientUnits="userSpaceOnUse">
<stop stop-color="#FEE5B2" stop-opacity="0"/>
<stop offset="1" stop-color="#FEE5B2"/>
</linearGradient>
<linearGradient id="paint79_linear" x1="175.568" y1="465.686" x2="175.174" y2="484.677" gradientUnits="userSpaceOnUse">
<stop stop-color="#FFD67D"/>
<stop offset="1" stop-color="#FFEC9C"/>
</linearGradient>
<linearGradient id="paint80_linear" x1="215.884" y1="519.089" x2="215.884" y2="538.443" gradientUnits="userSpaceOnUse">
<stop stop-color="#BD4D16"/>
<stop offset="1" stop-color="#E09520"/>
</linearGradient>
<linearGradient id="paint81_linear" x1="216.784" y1="505.022" x2="216.853" y2="531.746" gradientUnits="userSpaceOnUse">
<stop stop-color="#FCD637"/>
<stop offset="1" stop-color="#FBB02C"/>
</linearGradient>
<linearGradient id="paint82_linear" x1="222.363" y1="525.562" x2="222.38" y2="532.181" gradientUnits="userSpaceOnUse">
<stop stop-color="#FEE5B2" stop-opacity="0"/>
<stop offset="1" stop-color="#FEE5B2"/>
</linearGradient>
<linearGradient id="paint83_linear" x1="219.553" y1="509.965" x2="219.158" y2="528.956" gradientUnits="userSpaceOnUse">
<stop stop-color="#FFD67D"/>
<stop offset="1" stop-color="#FFEC9C"/>
</linearGradient>
<linearGradient id="paint84_linear" x1="185.972" y1="24.425" x2="185.972" y2="134.777" gradientUnits="userSpaceOnUse">
<stop stop-color="#F18C6D"/>
<stop offset="1" stop-color="#FFCA62"/>
</linearGradient>
<linearGradient id="paint85_linear" x1="141.63" y1="397.17" x2="127.419" y2="421.785" gradientUnits="userSpaceOnUse">
<stop stop-color="#54E2E8"/>
<stop offset="1" stop-color="#4AACE0"/>
</linearGradient>
</defs>
</svg>
