<svg width="619" height="640" viewBox="0 0 619 640" fill="none" xmlns="http://www.w3.org/2000/svg">
<g style="mix-blend-mode:multiply">
<g filter="url(#filter0_f)">
<path d="M569.806 410.808C567.341 408.213 560.465 404.711 556.313 406.916L545.027 413.273C538.54 409.251 531.275 406.786 524.789 406.267C511.945 401.467 498.972 401.078 489.891 406.138C485.35 408.732 482.367 412.365 480.81 416.776C479.902 417.165 478.994 417.554 478.085 418.073C462.258 427.933 367.684 485.663 281.802 525.361C284.137 524.712 286.732 524.323 289.197 524.193C286.862 524.323 284.526 524.712 282.451 525.361C275.834 524.972 269.607 526.139 264.678 528.864C251.964 535.999 251.445 551.696 261.823 566.745L253.131 571.156C251.575 571.934 250.796 573.102 250.667 574.529C250.277 576.734 251.315 579.588 253.78 582.183C253.91 582.313 254.04 582.443 254.04 582.443L254.169 582.572C254.299 582.702 254.558 582.832 254.688 583.091C254.818 583.221 254.818 583.221 254.948 583.351C255.077 583.48 255.207 583.48 255.337 583.61C259.488 586.983 265.196 588.28 268.569 586.464C268.829 586.334 269.088 586.075 269.348 585.945L276.872 581.794C293.997 594.248 315.792 598.529 328.895 591.264C333.305 588.799 336.289 585.167 337.846 580.886L337.976 580.756C337.976 580.886 337.846 580.886 337.846 581.016C377.803 552.734 494.951 493.058 535.297 473.468C536.205 473.079 537.113 472.43 537.892 471.911C543.989 472.041 549.567 470.874 553.978 468.279C562.93 463.219 565.784 454.009 563.189 443.76C564.357 438.96 563.06 433.252 559.686 427.673L570.714 421.576C575.643 418.722 572.141 413.273 569.806 410.808Z" fill="#395590" fill-opacity="0.3"/>
</g>
<g filter="url(#filter1_f)">
<path d="M473.408 367.965C470.943 365.37 464.067 361.867 459.916 364.073L448.629 370.429C442.143 366.408 434.878 363.943 428.391 363.424C415.548 358.624 402.575 358.235 393.494 363.294C388.953 365.889 385.969 369.521 384.412 373.932C383.504 374.321 382.596 374.711 381.688 375.229C365.861 385.089 271.287 442.819 185.405 482.517C187.74 481.869 190.334 481.479 192.799 481.35C190.464 481.479 188.129 481.869 186.053 482.517C179.437 482.128 173.21 483.296 168.28 486.02C155.566 493.155 155.047 508.853 165.426 523.902L156.734 528.312C155.177 529.091 154.399 530.258 154.269 531.685C153.88 533.891 154.918 536.745 157.383 539.34C157.512 539.469 157.642 539.599 157.642 539.599L157.772 539.729C157.902 539.858 158.161 539.988 158.291 540.248C158.42 540.377 158.42 540.377 158.55 540.507C158.68 540.637 158.81 540.637 158.939 540.767C163.091 544.14 168.799 545.437 172.172 543.621C172.431 543.491 172.691 543.231 172.95 543.102L180.475 538.95C197.599 551.405 219.394 555.686 232.497 548.421C236.908 545.956 239.892 542.323 241.448 538.042L241.578 537.913C241.578 538.042 241.448 538.042 241.448 538.172C281.406 509.891 398.553 450.214 438.9 430.625C439.808 430.236 440.716 429.587 441.494 429.068C447.592 429.198 453.17 428.03 457.581 425.435C466.532 420.376 469.386 411.165 466.792 400.916C467.959 396.116 466.662 390.408 463.289 384.83L474.316 378.732C479.246 375.878 475.743 370.429 473.408 367.965Z" fill="#395590" fill-opacity="0.3"/>
</g>
<g filter="url(#filter2_f)">
<path d="M444.175 450.964C455.147 448.673 463.194 438.927 466.39 426.026C470.915 419.291 472.717 409.38 470.56 399.049C468.147 387.494 461.406 378.403 453.465 374.616C445.697 366.302 435.747 362.06 426.037 364.088C420.077 365.332 414.979 368.777 411.054 373.732C410.133 373.885 409.186 374.121 408.216 374.457C389.956 380.883 281.311 417.673 189.261 437.282C191.409 437.217 193.508 437.446 195.535 437.912L195.381 437.944C193.536 437.571 191.668 437.428 189.797 437.535C185.049 435.607 180.042 435.014 175.098 436.046C157.695 439.68 147.647 462.073 152.656 486.063C157.665 510.054 175.833 526.556 193.237 522.922C199.049 521.709 204.041 518.402 207.926 513.642C255.852 493.846 384.147 461.044 427.752 450.983C428.769 450.75 429.779 450.408 430.773 449.966C435.131 451.497 439.679 451.903 444.175 450.964Z" fill="#616E8A" fill-opacity="0.54"/>
</g>
<g filter="url(#filter3_f)">
<path fill-rule="evenodd" clip-rule="evenodd" d="M527.106 441.331C537.312 436.699 543.036 425.43 543.336 412.142C546.28 404.582 545.873 394.516 541.511 384.906C536.633 374.158 528.069 366.759 519.492 364.798C510.095 358.382 499.459 356.416 490.426 360.516C484.882 363.033 480.66 367.508 477.912 373.201C477.047 373.551 476.174 373.988 475.301 374.528C458.885 384.788 360.902 444.424 275.36 483.669C277.442 483.137 279.54 482.901 281.62 482.913L281.477 482.979C279.595 483.017 277.74 483.286 275.939 483.799C270.883 482.955 265.868 483.47 261.269 485.557C245.08 492.905 240.167 516.953 250.296 539.269C260.425 561.586 281.76 573.72 297.949 566.372C303.356 563.918 307.505 559.601 310.256 554.107C352.7 524.319 470.729 464.281 511.083 444.937C512.025 444.488 512.936 443.934 513.809 443.285C518.397 443.828 522.923 443.23 527.106 441.331Z" fill="#616E8A" fill-opacity="0.54"/>
</g>
</g>
<path d="M368.357 463.055C467.916 463.055 548.624 382.346 548.624 282.788C548.624 183.229 467.916 102.521 368.357 102.521C268.799 102.521 188.091 183.229 188.091 282.788C188.091 382.346 268.799 463.055 368.357 463.055Z" fill="url(#paint0_linear)"/>
<path d="M158.211 279.054C163.907 279.054 168.525 283.671 168.525 289.367C168.525 295.063 163.907 299.681 158.211 299.681C152.515 299.681 147.898 295.063 147.898 289.367C147.898 283.671 152.515 279.054 158.211 279.054Z" fill="#FFCA62"/>
<path d="M507.529 158.005C508.277 142.734 524.353 133.266 537.998 140.165C554.899 148.712 569.257 157.018 585.372 167.557C598.197 175.944 598.057 194.649 585.166 202.934C569.029 213.304 554.732 221.604 538.014 230.238C524.384 237.278 508.147 227.938 507.414 212.615C506.528 194.108 506.572 177.543 507.529 158.005Z" fill="url(#paint1_linear)"/>
<rect x="64.9275" y="0.813965" width="130.294" height="130.294" rx="23" transform="rotate(29.7392 64.9275 0.813965)" fill="url(#paint2_linear)"/>
<path d="M197.652 512.843C213.41 509.371 222.319 489.01 217.549 467.365C212.78 445.721 196.139 430.99 180.38 434.462C164.622 437.935 155.713 458.296 160.483 479.94C165.252 501.585 181.893 516.316 197.652 512.843Z" fill="#2B5060"/>
<path d="M484.313 374.223L446.302 386.029C440.983 387.586 440.853 394.851 441.631 398.094C442.539 401.597 446.561 407.824 451.621 406.137L489.113 394.462C494.691 392.386 494.432 385.38 493.653 382.137C493.005 378.764 488.983 372.926 484.313 374.223Z" fill="white" stroke="black" stroke-width="0.6967" stroke-miterlimit="10"/>
<g filter="url(#filter4_d)">
<path d="M460.131 425.538C472.516 422.809 479.506 406.756 475.744 389.683C471.982 372.61 458.892 360.982 446.507 363.711C434.122 366.44 427.132 382.493 430.894 399.566C434.656 416.639 447.746 428.267 460.131 425.538Z" fill="url(#paint3_linear)"/>
</g>
<path d="M449.602 442.471C467.165 438.6 477.078 415.837 471.743 391.626C466.408 367.416 447.846 350.927 430.283 354.797C412.72 358.667 402.807 381.431 408.142 405.641C413.477 429.852 432.039 446.341 449.602 442.471Z" fill="url(#paint4_radial)"/>
<path d="M422.561 367.218L194.363 434.938C176.071 440.516 175.682 465.036 178.536 476.452C181.39 488.387 195.401 510.052 212.915 504.214L439.685 436.884C458.756 429.749 457.977 405.748 455.253 394.462C452.528 382.397 438.777 362.288 422.561 367.218Z" fill="#4D798B"/>
<path d="M199.891 511.47C243.885 491.928 372.185 456.404 412.504 446.202C420.804 444.113 426.852 434.035 428.394 427.029C428.512 426.537 428.275 426.169 427.919 425.923C425.311 424.202 420.567 422.85 420.567 422.85C423.769 422.113 426.615 421.129 428.987 419.654C429.58 419.286 430.054 418.548 430.054 417.811C430.528 413.263 429.342 401.464 426.496 395.688C425.429 395.811 422.939 395.565 420.686 395.319C422.346 394.213 423.65 392.738 424.362 390.648C422.465 387.084 419.974 383.766 417.128 380.693C416.773 380.324 416.298 380.201 415.824 380.324C414.282 380.57 412.029 380.57 409.42 380.447C409.42 380.447 412.504 379.833 413.927 378.604C414.164 378.358 414.164 378.112 413.927 377.866C411.555 375.654 403.254 369.631 393.53 373.196C376.691 379.341 265.584 416.665 180.678 436.33C191.825 435.101 205.931 447.554 210.438 456.404C210.793 457.141 211.505 457.633 212.335 457.756C216.485 458.37 218.62 458.616 222.533 458.001C217.79 459.108 216.841 459.23 213.284 460.582C212.928 460.705 212.691 461.197 212.809 461.566C215.062 469.063 216.722 480.248 216.011 486.393C215.892 487.007 216.367 487.622 216.96 487.745C218.264 487.991 219.924 487.868 221.703 487.745C219.45 488.974 217.315 490.326 215.418 491.924C214.944 492.292 214.707 492.784 214.469 493.399C212.335 500.65 206.057 506.554 199.891 511.47Z" fill="#2B5060" fill-opacity="0.7"/>
<path d="M434.626 370.462C432.031 368.126 422.95 361.77 412.312 365.532C394.173 371.919 279.309 412.14 187.112 433.189C187.967 433.287 188.816 433.436 189.657 433.631M434.626 370.462L434.272 370.815L433.985 370.472C433.845 370.589 433.681 370.702 433.5 370.811M434.626 370.462C434.885 370.721 434.885 370.98 434.626 371.24M434.626 370.462L434.289 370.836L434.626 371.24M433.5 370.811C430.506 368.322 422.207 363.093 412.645 366.475L412.644 366.475C394.662 372.807 281.514 412.429 189.657 433.631M433.5 370.811C433.669 370.952 433.822 371.084 433.957 371.205L434.257 370.871M433.5 370.811C432.885 371.179 432.069 371.498 431.279 371.745C430.787 371.899 430.34 372.014 430.016 372.091C429.854 372.13 429.724 372.159 429.636 372.177C429.592 372.187 429.558 372.194 429.536 372.198L429.512 372.203L429.507 372.204L429.507 372.204C429.507 372.204 429.507 372.204 429.507 372.204L434.257 370.871M189.657 433.631C188.825 433.823 187.994 434.014 187.165 434.203C197.79 435.499 207.665 445.134 212.007 453.36C212.396 454.138 213.174 454.657 214.082 454.787C216.145 455.082 217.753 455.296 219.295 455.381C220.331 455.112 221.432 454.868 222.942 454.534C223.558 454.397 224.243 454.245 225.02 454.071L225.239 455.046L225.389 456.035C223.039 456.391 221.246 456.48 219.397 456.388C218.119 456.725 216.927 457.108 215.12 457.771C214.731 457.9 214.472 458.419 214.601 458.809C217.066 466.722 218.882 478.528 218.104 485.014C217.974 485.663 218.493 486.312 219.142 486.441M189.657 433.631C193.611 434.55 197.379 436.5 200.729 438.965C206.007 442.849 210.356 448.089 212.891 452.893L212.901 452.913C213.126 453.363 213.601 453.708 214.224 453.797C218.733 454.441 220.953 454.684 225.089 454.058C225.622 453.977 226.123 454.332 226.222 454.862C226.322 455.391 225.984 455.904 225.459 456.022C224.671 456.199 223.98 456.352 223.361 456.489C219.943 457.247 218.739 457.514 215.602 458.659M215.602 458.659C215.587 458.61 215.571 458.56 215.556 458.511L215.552 458.5C215.554 458.504 215.555 458.507 215.556 458.511C215.57 458.562 215.568 458.599 215.566 458.615C215.565 458.625 215.564 458.631 215.563 458.634C215.562 458.637 215.561 458.639 215.561 458.64C215.56 458.64 215.559 458.642 215.558 458.644C215.557 458.645 215.556 458.647 215.554 458.648C215.552 458.651 215.549 458.655 215.544 458.659C215.533 458.669 215.508 458.69 215.464 458.709C215.456 458.713 215.446 458.716 215.436 458.719C215.446 458.716 215.455 458.713 215.464 458.71C215.511 458.693 215.557 458.676 215.602 458.659ZM215.602 458.659C216.834 462.65 217.896 467.57 218.559 472.308C219.228 477.089 219.501 481.763 219.097 485.133C219.094 485.159 219.09 485.185 219.085 485.21C219.084 485.213 219.083 485.221 219.087 485.238C219.092 485.258 219.105 485.288 219.131 485.322C219.187 485.397 219.267 485.445 219.333 485.46M219.333 485.46C219.329 485.459 219.325 485.458 219.321 485.457L219.142 486.441M219.333 485.46C219.334 485.46 219.336 485.46 219.338 485.461L219.142 486.441M219.333 485.46C220.602 485.688 222.259 485.577 224.234 485.446L224.265 485.444C224.736 485.412 225.165 485.715 225.293 486.169C225.422 486.624 225.215 487.106 224.797 487.326C222.366 488.605 220.093 489.998 218.086 491.628C218.081 491.632 218.076 491.636 218.071 491.64C218.066 491.644 218.061 491.648 218.055 491.652C217.777 491.861 217.602 492.147 217.361 492.742M219.142 486.441C219.981 486.594 220.954 486.612 222.009 486.574M222.009 486.574L217.374 492.701C217.37 492.715 217.366 492.728 217.361 492.742M222.009 486.574C222.62 486.225 223.239 485.886 223.865 485.556L224.331 486.441L222.009 486.574ZM217.361 492.742C215.543 498.676 212.218 503.605 207.771 507.923M217.361 492.742L207.771 507.923M207.771 507.923C260.426 486.895 390.383 451.983 432.832 441.621L432.833 441.62C437.075 440.59 440.824 437.563 443.744 433.805C446.661 430.054 448.669 425.678 449.478 422.132L449.483 422.112C449.483 422.11 449.483 422.108 449.484 422.107C449.47 422.091 449.442 422.061 449.387 422.024C448.061 421.182 446.146 420.405 444.509 419.827C443.699 419.541 442.975 419.31 442.454 419.151C442.194 419.072 441.985 419.01 441.842 418.969C441.77 418.948 441.715 418.933 441.678 418.922L441.637 418.911L441.628 418.908L441.626 418.907L207.771 507.923ZM434.626 371.24L434.257 370.871M434.626 371.24L434.257 370.871M433.919 370.533L434.236 370.851L433.919 371.169C433.904 371.151 433.82 371.043 433.82 370.851C433.82 370.659 433.904 370.551 433.919 370.533Z" fill="url(#paint5_linear)" stroke="url(#paint6_radial)" stroke-width="2" stroke-miterlimit="10" stroke-linejoin="round"/>
<path d="M208.961 470.056C211.588 481.977 210.451 493.503 206.537 502.491C202.623 511.479 195.973 517.859 187.582 519.708C179.191 521.557 170.475 518.563 163.145 512.052C155.817 505.542 149.94 495.562 147.313 483.64C144.686 471.718 145.824 460.192 149.737 451.205C153.652 442.216 160.302 435.837 168.693 433.988C177.084 432.139 185.799 435.132 193.129 441.643C200.458 448.153 206.334 458.134 208.961 470.056Z" fill="url(#paint7_radial)" stroke="url(#paint8_linear)" stroke-width="2" stroke-miterlimit="10"/>
<path d="M194.788 473.544C196.629 481.897 195.829 489.961 193.097 496.236C190.364 502.513 185.739 506.929 179.937 508.208C174.135 509.486 168.082 507.423 162.964 502.876C157.847 498.331 153.732 491.35 151.891 482.997C150.051 474.644 150.851 466.58 153.583 460.305C156.316 454.028 160.941 449.612 166.743 448.333C172.545 447.055 178.598 449.118 183.716 453.665C188.833 458.21 192.948 465.191 194.788 473.544Z" fill="url(#paint9_radial)" stroke="url(#paint10_linear)" stroke-width="2" stroke-miterlimit="10"/>
<path d="M167.639 468.668L129.757 480.344C124.438 481.901 124.309 489.166 125.087 492.409C125.995 495.912 130.017 502.139 135.076 500.452L172.569 488.777C178.147 486.701 177.888 479.695 177.109 476.452C176.331 473.079 172.309 467.241 167.639 468.668Z" fill="url(#paint11_linear)"/>
<path d="M134.567 500.607C138.625 499.713 140.915 494.45 139.682 488.852C138.448 483.254 134.158 479.441 130.1 480.336C126.041 481.23 123.751 486.493 124.985 492.09C126.218 497.688 130.508 501.501 134.567 500.607Z" fill="#9DC2D4"/>
<path d="M301.68 552.519C316.229 545.916 320.63 524.272 311.51 504.178C302.389 484.083 283.201 473.146 268.652 479.749C254.102 486.353 249.702 507.996 258.822 528.091C267.943 548.186 287.131 559.123 301.68 552.519Z" fill="#2B5060"/>
<path d="M511.261 381.975L511.265 381.973L545.895 362.648C545.896 362.647 545.897 362.646 545.899 362.645C547.566 361.739 549.511 362.177 551.383 363.415C553.25 364.649 554.774 366.52 555.404 367.895L555.415 367.918L555.427 367.94C556.143 369.313 556.868 371.583 556.838 373.854C556.808 376.088 556.06 378.211 553.976 379.597L519.759 398.779L519.746 398.786L519.733 398.794C517.939 399.87 515.915 399.431 513.976 398.138C512.036 396.845 510.435 394.843 509.733 393.381L509.726 393.366L509.718 393.351C509.009 391.992 508.312 389.661 508.372 387.385C508.431 385.129 509.216 383.105 511.261 381.975Z" fill="url(#paint12_linear)" stroke="url(#paint13_linear)" stroke-width="2" stroke-miterlimit="10"/>
<path d="M532.433 416.939C543.981 411.698 547.486 394.544 540.26 378.624C533.035 362.705 517.816 354.049 506.268 359.29C494.72 364.532 491.216 381.686 498.441 397.605C505.666 413.524 520.885 422.181 532.433 416.939Z" fill="url(#paint14_radial)"/>
<path d="M535.877 381.782C540.923 392.898 542.203 404.409 540.241 414.013C538.279 423.618 533.099 431.24 525.275 434.791C517.451 438.342 508.304 437.223 499.782 432.377C491.262 427.53 483.441 418.988 478.396 407.872C473.35 396.756 472.069 385.245 474.031 375.641C475.994 366.036 481.174 358.415 488.998 354.864C496.822 351.313 505.969 352.431 514.491 357.278C523.011 362.124 530.832 370.666 535.877 381.782Z" fill="url(#paint15_radial)" stroke="url(#paint16_linear)" stroke-width="2" stroke-miterlimit="10"/>
<path d="M483.534 367.737L282.321 476.971C265.585 486.182 270.385 510.312 275.445 520.82C280.764 531.847 298.926 550.14 314.883 540.799L514.669 432.344C531.794 421.446 526.086 398.095 521.156 387.586C515.967 376.429 498.323 359.564 483.534 367.737Z" fill="#4D798B"/>
<path d="M276.242 479.373C358.699 441.987 454.727 383.785 473.574 372.362C473.957 372.13 474.307 371.918 474.625 371.725C478.414 369.452 482.208 369.18 485.367 369.478C486.951 369.627 488.365 369.918 489.546 370.172C489.634 370.191 489.721 370.21 489.807 370.228C490.095 370.291 490.373 370.351 490.634 370.404C490.577 370.47 490.52 370.533 490.464 370.593C490.282 370.792 490.117 370.954 490 371.067C489.941 371.123 489.895 371.165 489.864 371.193L489.83 371.224L489.823 371.23L489.823 371.23L489.823 371.231L489.822 371.231L489.822 371.231L487.188 373.529L490.64 372.971C492.036 372.745 493.195 372.138 494.061 371.685C494.266 371.578 494.454 371.479 494.626 371.396C494.661 371.379 494.7 371.362 494.738 371.349C494.758 371.341 494.777 371.336 494.793 371.331L494.86 371.347C499.867 372.502 504.256 376.446 506.68 379.027C506.682 379.034 506.682 379.041 506.682 379.049C506.682 379.061 506.681 379.072 506.677 379.081C506.553 379.226 506.429 379.37 506.307 379.512C505.19 380.814 504.146 382.03 502.802 383.442L501.192 385.132H503.526C506.503 385.132 508.602 385.006 511.095 384.624L511.138 384.618L511.179 384.608C511.203 384.602 511.249 384.597 511.334 384.63C511.419 384.663 511.526 384.729 511.636 384.832C514.006 387.432 515.61 390.526 516.884 393.483C517.367 394.605 517.797 395.691 518.205 396.725C518.338 397.061 518.469 397.392 518.598 397.716C519.019 398.77 519.432 399.766 519.863 400.632C518.221 402.622 515.329 404.986 511.564 406.645L507.217 408.56H511.967H511.967L511.969 408.56L511.978 408.56L512.017 408.56C512.053 408.561 512.107 408.561 512.178 408.562C512.321 408.565 512.532 408.57 512.802 408.58C513.341 408.601 514.111 408.643 515.026 408.726C516.862 408.894 519.256 409.227 521.538 409.884L521.559 409.89L521.58 409.895C521.625 409.906 521.705 409.947 521.769 410.02C521.828 410.086 521.838 410.137 521.838 410.163V410.207L521.842 410.25C522.965 423.067 516.839 433.621 508.991 437.249L508.989 437.25C470.059 455.337 354.546 515.371 308.627 545.399C311.935 540.513 314.123 536.059 315.049 530.529C315.119 530.282 315.248 530.075 315.516 529.812C316.734 528.753 318.543 527.475 320.69 526.665L320.058 524.769C318.972 525.085 316.776 525.216 315.305 525.115C314.383 516.735 311.425 506.148 307.406 498.979C307.184 498.536 307.212 498.003 307.538 497.623L307.545 497.616L307.551 497.608C309.556 495.179 311.538 493.14 314.642 490.974L318.311 488.414L313.902 489.168C309.616 489.901 305.577 490.27 301.497 490.641C301.166 490.631 300.913 490.508 300.709 490.314C295.242 484.608 285.978 479.444 276.242 479.373Z" fill="#2B5060" fill-opacity="0.7" stroke="url(#paint17_radial)" stroke-width="2" stroke-miterlimit="10"/>
<path d="M277.235 476.762C362.401 437.058 457.564 379.131 473.814 368.975C473.813 368.976 473.813 368.976 473.812 368.977L277.235 476.762ZM277.235 476.762C287.184 476.769 296.665 482.207 302.24 488.211C302.452 488.418 302.708 488.545 303.038 488.554C307.176 488.166 311.271 487.78 315.618 487.013L319.927 486.253L316.376 488.81C313.225 491.078 311.213 493.214 309.178 495.758L309.172 495.766L309.165 495.773C308.818 496.191 308.788 496.782 309.025 497.267C313.103 504.773 316.104 515.866 317.035 524.633C318.525 524.74 320.758 524.604 321.861 524.273L322.511 526.163C320.333 527.01 318.497 528.348 317.26 529.459C316.985 529.737 316.847 529.962 316.771 530.237C315.825 536.077 313.572 540.769 310.156 545.947C356.399 514.896 469.558 457.377 509.048 438.447L509.05 438.446C516.977 434.666 522.863 422.837 521.717 409.336L521.713 409.294V409.251C521.713 409.202 521.694 409.134 521.63 409.059C521.56 408.977 521.476 408.935 521.433 408.924L521.411 408.919L521.39 408.912C519.076 408.224 516.649 407.876 514.787 407.701C513.859 407.614 513.079 407.57 512.532 407.548C512.259 407.537 512.045 407.532 511.9 407.529C511.828 407.528 511.773 407.527 511.737 407.527L511.697 407.527L511.688 407.527L511.686 407.527H511.686H511.686L507.069 407.527L511.272 405.616C515.11 403.872 518.057 401.381 519.722 399.286C519.279 398.373 518.855 397.317 518.422 396.197C518.29 395.858 518.158 395.512 518.023 395.161C517.609 394.079 517.173 392.941 516.682 391.766C515.388 388.667 513.759 385.423 511.349 382.696C511.235 382.586 511.126 382.517 511.039 382.482C510.954 382.448 510.911 382.454 510.891 382.459L510.848 382.47L510.804 382.476C508.274 382.876 506.144 383.008 503.124 383.008H500.84L502.389 381.329C503.753 379.851 504.812 378.578 505.945 377.216C506.071 377.064 506.198 376.912 506.327 376.758C506.343 376.719 506.344 376.671 506.331 376.63C503.87 373.926 499.413 369.79 494.33 368.58L494.266 368.565C494.251 368.569 494.233 368.575 494.214 368.582C494.176 368.596 494.137 368.614 494.101 368.632L493.654 367.739L494.101 368.632C493.039 369.162 491.544 369.833 490.185 370.25L486.047 371.521L489.208 368.564C489.236 368.537 489.265 368.511 489.294 368.484C489.553 368.243 489.845 367.97 490.141 367.615L277.235 476.762Z" fill="url(#paint18_linear)" stroke="url(#paint19_radial)" stroke-width="2" stroke-miterlimit="10"/>
<g style="mix-blend-mode:multiply" opacity="0.54">
<path d="M380.115 399.521C360.606 398.756 317.189 402.772 292.898 404.589L372.502 376.438C407.753 374.37 423.791 331.909 436.443 342.142C449.449 352.661 445.71 374.326 437.877 388.81C432.808 398.182 414.375 412.004 398.668 410.041C384.897 408.319 389.13 399.875 380.115 399.521Z" fill="url(#paint20_linear)"/>
</g>
<path d="M304.074 508.268C309.119 519.384 310.4 530.894 308.438 540.498C306.475 550.104 301.295 557.725 293.471 561.276C285.647 564.827 276.5 563.709 267.978 558.862C259.458 554.016 251.637 545.473 246.592 534.357C241.546 523.241 240.266 511.731 242.228 502.127C244.19 492.521 249.37 484.9 257.194 481.349C265.018 477.798 274.165 478.916 282.687 483.763C291.208 488.609 299.028 497.152 304.074 508.268Z" fill="url(#paint21_radial)" stroke="url(#paint22_linear)" stroke-width="2" stroke-miterlimit="10"/>
<path d="M290.901 514.572C294.436 522.36 295.328 530.414 293.958 537.12C292.588 543.827 288.981 549.107 283.571 551.563C278.161 554.018 271.812 553.256 265.862 549.872C259.913 546.488 254.438 540.514 250.903 532.726C247.368 524.937 246.476 516.883 247.845 510.177C249.215 503.471 252.822 498.19 258.232 495.735C263.642 493.279 269.992 494.041 275.942 497.425C281.891 500.809 287.366 506.783 290.901 514.572Z" fill="url(#paint23_radial)" stroke="url(#paint24_linear)" stroke-width="2" stroke-miterlimit="10"/>
<g style="mix-blend-mode:multiply" opacity="0.79">
<path fill-rule="evenodd" clip-rule="evenodd" d="M253.564 547.554L273.292 533.399C276.483 530.146 274.564 523.928 270.987 520.16L270.987 520.16C267.663 516.687 266.253 515.214 261.372 517.004L243.242 529.597C244.052 531.801 245.007 533.999 246.108 536.175C248.238 540.379 250.762 544.193 253.564 547.554Z" fill="url(#paint25_linear)"/>
</g>
<path d="M234.096 531.586L234.113 531.578L234.13 531.569L263.838 516.261C265.504 515.403 267.426 515.868 269.267 517.136C271.101 518.399 272.598 520.3 273.233 521.742L273.236 521.749L273.239 521.756C273.909 523.218 274.603 525.529 274.543 527.8C274.484 530.034 273.71 532.121 271.568 533.449L242.79 549.264L242.779 549.27L242.768 549.276C240.862 550.388 238.779 550.046 236.821 548.795C234.847 547.533 233.154 545.424 232.252 543.379L232.25 543.377C231.281 541.195 230.862 538.591 231.16 536.341C231.459 534.085 232.442 532.361 234.096 531.586Z" fill="url(#paint26_linear)" stroke="url(#paint27_linear)" stroke-width="2" stroke-miterlimit="10"/>
<path d="M242.845 550.544C246.853 548.8 248.155 542.913 245.753 537.394C243.352 531.875 238.156 528.814 234.149 530.558C230.141 532.302 228.839 538.19 231.24 543.709C233.641 549.228 238.837 552.288 242.845 550.544Z" fill="url(#paint28_linear)"/>
<path d="M403.055 390.353C418.997 389.286 430.727 370.571 429.253 348.552C427.779 326.532 413.66 309.547 397.718 310.614C381.775 311.681 370.046 330.396 371.52 352.415C372.994 374.435 387.112 391.42 403.055 390.353Z" fill="#2B5060"/>
<path d="M141.551 396.585L141.542 396.587L102.242 402.553C100.375 402.802 98.7159 401.717 97.3871 399.89C96.0676 398.076 95.2563 395.753 95.077 394.111C94.9568 392.522 95.086 390.128 95.9055 388.012C96.7136 385.926 98.1456 384.203 100.622 383.64L139.506 377.807L139.516 377.806L139.526 377.804C141.651 377.441 143.425 378.594 144.79 380.485C146.159 382.38 146.936 384.798 147.052 386.363L147.052 386.365C147.172 387.925 146.958 390.392 146.086 392.527C145.217 394.654 143.786 396.266 141.551 396.585Z" fill="url(#paint29_linear)" stroke="url(#paint30_radial)" stroke-width="2" stroke-miterlimit="10"/>
<path d="M138.103 419.696C150.757 418.849 160.069 404.022 158.901 386.578C157.734 369.134 146.529 355.68 133.876 356.527C121.222 357.374 111.91 372.201 113.078 389.645C114.245 407.089 125.449 420.543 138.103 419.696Z" fill="url(#paint31_linear)"/>
<path d="M181.361 383.928C182.176 396.108 179.328 407.335 174.115 415.636C168.901 423.938 161.372 429.252 152.798 429.826C144.225 430.4 136.055 426.137 129.781 418.603C123.508 411.071 119.19 400.324 118.375 388.143C117.559 375.963 120.407 364.736 125.62 356.435C130.834 348.132 138.364 342.819 146.937 342.245C155.51 341.671 163.68 345.934 169.954 353.468C176.227 361 180.546 371.747 181.361 383.928Z" fill="url(#paint32_linear)" stroke="url(#paint33_linear)" stroke-width="2" stroke-miterlimit="10"/>
<path d="M162.32 419.76L389.09 388.235C408.031 385.511 412.053 361.251 410.885 349.575C409.718 337.38 399.21 313.899 381.047 317.012L155.834 348.278C135.985 352.559 133.131 376.3 134.039 387.846C135.077 400.17 145.715 422.095 162.32 419.76Z" fill="url(#paint34_linear)"/>
<path d="M396.991 312.914C346.226 325.63 212.205 340.595 166.892 344.498C157.674 345.254 149.364 354.571 146.637 361.37C146.508 361.748 146.637 362.251 146.897 362.629C149.364 364.769 154.428 366.91 154.428 366.91C150.922 367.161 147.546 367.791 144.82 368.798C144.041 369.05 143.521 369.68 143.262 370.435C142.093 374.968 141.444 387.18 143.651 393.476C144.82 393.476 147.546 394.105 149.883 394.861C147.936 395.742 146.248 397.001 145.079 399.016C146.508 402.919 148.715 406.696 151.312 410.221C151.571 410.599 152.091 410.851 152.61 410.851C154.298 410.851 156.765 411.103 159.491 411.858C159.491 411.858 155.986 411.984 154.298 412.991C154.038 413.117 153.908 413.495 154.168 413.747C156.375 416.391 164.425 423.693 175.591 421.679C195.066 417.901 309.062 396.623 404.102 390.076C391.898 389.573 381.641 377.108 378.135 367.539C377.875 366.784 377.096 366.154 376.317 365.902C371.903 364.643 369.566 364.014 365.281 364.014C370.605 363.762 371.643 363.762 375.668 362.881C376.188 362.755 376.447 362.377 376.317 361.873C375.019 353.941 375.019 342.358 376.707 336.189C376.837 335.559 376.577 334.804 375.798 334.678C374.37 334.3 372.552 334.048 370.605 333.922C373.201 333.041 375.798 332.034 378.005 330.649C378.525 330.397 378.914 329.893 379.174 329.39C383.069 322.339 389.461 316.943 396.991 312.914Z" fill="#2B5060" fill-opacity="0.7"/>
<path d="M393.55 390.075C389.795 388.58 386.373 386.095 383.438 383.17C378.808 378.556 375.289 372.753 373.488 367.683L373.482 367.664C373.346 367.259 372.865 366.805 372.313 366.615C367.933 365.327 365.712 364.716 361.587 364.716C361.044 364.716 360.6 364.283 360.587 363.74C360.574 363.197 360.996 362.743 361.538 362.717C361.885 362.7 362.214 362.684 362.526 362.669C366.938 362.457 368.046 362.403 371.616 361.602C370.964 357.462 370.641 352.406 370.69 347.586C370.739 342.773 371.159 338.12 372.027 334.826C372.048 334.695 372.026 334.58 371.995 334.519C371.992 334.512 371.989 334.507 371.986 334.502C371.983 334.498 371.981 334.495 371.979 334.493C371.977 334.491 371.976 334.489 371.975 334.489C371.974 334.488 371.974 334.488 371.974 334.488C371.974 334.488 371.973 334.486 371.968 334.484C371.966 334.483 371.961 334.482 371.954 334.48C371.948 334.478 371.94 334.476 371.931 334.475C371.91 334.471 371.888 334.467 371.868 334.462C371.856 334.459 371.844 334.456 371.832 334.453C370.492 334.088 368.747 333.835 366.839 333.708C366.365 333.676 365.979 333.315 365.915 332.845C365.851 332.374 366.127 331.923 366.576 331.766C369.154 330.864 371.656 329.857 373.757 328.497C373.788 328.477 373.82 328.459 373.853 328.442C374.093 328.322 374.357 328.025 374.574 327.592C374.578 327.584 374.582 327.576 374.587 327.567C377.621 321.903 382.115 317.269 387.434 313.523C332.736 326.304 207.006 340.734 163.446 344.603L163.442 344.604C159.146 344.967 154.97 347.404 151.493 350.691C148.038 353.957 145.379 357.965 144.069 361.308C144.068 361.322 144.066 361.362 144.081 361.43C144.096 361.499 144.122 361.572 144.157 361.641C145.295 362.626 147.017 363.64 148.531 364.436C149.301 364.841 149.997 365.179 150.5 365.415C150.751 365.534 150.954 365.626 151.092 365.689C151.162 365.72 151.215 365.744 151.251 365.76L151.291 365.778L151.301 365.782L151.303 365.783L151.303 365.783L393.55 390.075ZM393.55 390.075C299.961 397.348 190.883 418.346 171.86 422.151C161.811 424.017 154.364 417.683 151.803 414.781C152.453 414.513 153.313 414.322 154.148 414.197C154.664 414.12 155.131 414.074 155.469 414.047C155.638 414.033 155.773 414.025 155.865 414.02C155.911 414.017 155.946 414.015 155.969 414.014L155.994 414.013L156 414.013L156 414.013C156 414.013 156 414.013 156 414.013L393.55 390.075Z" fill="url(#paint35_linear)" stroke="url(#paint36_radial)" stroke-width="2" stroke-miterlimit="10" stroke-linejoin="round"/>
<path d="M442.909 347.079C443.724 359.259 440.876 370.486 435.663 378.787C430.449 387.09 422.919 392.403 414.346 392.977C405.773 393.551 397.603 389.288 391.329 381.754C385.056 374.222 380.738 363.475 379.922 351.294C379.107 339.114 381.955 327.887 387.168 319.586C392.382 311.284 399.912 305.97 408.485 305.396C417.058 304.822 425.228 309.085 431.502 316.619C437.775 324.152 442.093 334.898 442.909 347.079Z" fill="url(#paint37_radial)" stroke="url(#paint38_linear)" stroke-width="2" stroke-miterlimit="10"/>
<path d="M438.261 347.075C438.833 355.609 436.836 363.463 433.196 369.259C429.556 375.056 424.322 378.732 418.394 379.128C412.467 379.525 406.79 376.58 402.409 371.32C398.03 366.06 395.004 358.543 394.433 350.008C393.862 341.474 395.858 333.62 399.498 327.824C403.139 322.027 408.372 318.351 414.3 317.954C420.228 317.558 425.905 320.503 430.285 325.763C434.665 331.022 437.69 338.54 438.261 347.075Z" fill="url(#paint39_radial)" stroke="url(#paint40_linear)" stroke-width="2" stroke-miterlimit="10"/>
<g style="mix-blend-mode:multiply" opacity="0.79">
<path fill-rule="evenodd" clip-rule="evenodd" d="M442.912 339.338L418.929 337.899C413.091 339.067 412.182 345.943 412.442 349.316C412.701 353.078 415.685 359.435 420.485 358.916L443.278 360.8C443.992 356.419 444.226 351.785 443.907 347.012C443.731 344.384 443.394 341.821 442.912 339.338Z" fill="url(#paint41_linear)"/>
</g>
<path d="M420.485 358.916L453.567 355.024C458.107 354.634 460.702 348.667 460.443 343.478C460.183 338.677 456.81 332.45 451.491 333.229L418.929 337.899C413.091 339.067 412.182 345.942 412.442 349.315C412.701 353.078 415.685 359.434 420.485 358.916Z" fill="url(#paint42_linear)"/>
<path d="M453.091 355.013C457.455 354.789 460.744 349.735 460.436 343.725C460.128 337.714 456.34 333.023 451.975 333.246C447.61 333.47 444.322 338.524 444.63 344.535C444.938 350.545 448.726 355.237 453.091 355.013Z" fill="url(#paint43_linear)"/>
<defs>
<filter id="filter0_f" x="205.587" y="357.503" width="412.622" height="282.303" filterUnits="userSpaceOnUse" color-interpolation-filters="sRGB">
<feFlood flood-opacity="0" result="BackgroundImageFix"/>
<feBlend mode="normal" in="SourceGraphic" in2="BackgroundImageFix" result="shape"/>
<feGaussianBlur stdDeviation="22.5" result="effect1_foregroundBlur"/>
</filter>
<filter id="filter1_f" x="109.189" y="314.659" width="412.622" height="282.303" filterUnits="userSpaceOnUse" color-interpolation-filters="sRGB">
<feFlood flood-opacity="0" result="BackgroundImageFix"/>
<feBlend mode="normal" in="SourceGraphic" in2="BackgroundImageFix" result="shape"/>
<feGaussianBlur stdDeviation="22.5" result="effect1_foregroundBlur"/>
</filter>
<filter id="filter2_f" x="139.368" y="351.586" width="344.1" height="183.837" filterUnits="userSpaceOnUse" color-interpolation-filters="sRGB">
<feFlood flood-opacity="0" result="BackgroundImageFix"/>
<feBlend mode="normal" in="SourceGraphic" in2="BackgroundImageFix" result="shape"/>
<feGaussianBlur stdDeviation="6" result="effect1_foregroundBlur"/>
</filter>
<filter id="filter3_f" x="233.027" y="346.371" width="324.201" height="234.147" filterUnits="userSpaceOnUse" color-interpolation-filters="sRGB">
<feFlood flood-opacity="0" result="BackgroundImageFix"/>
<feBlend mode="normal" in="SourceGraphic" in2="BackgroundImageFix" result="shape"/>
<feGaussianBlur stdDeviation="6" result="effect1_foregroundBlur"/>
</filter>
<filter id="filter4_d" x="425.876" y="363.314" width="54.8863" height="70.6216" filterUnits="userSpaceOnUse" color-interpolation-filters="sRGB">
<feFlood flood-opacity="0" result="BackgroundImageFix"/>
<feColorMatrix in="SourceAlpha" type="matrix" values="0 0 0 0 0 0 0 0 0 0 0 0 0 0 0 0 0 0 127 0"/>
<feOffset dy="4"/>
<feGaussianBlur stdDeviation="2"/>
<feColorMatrix type="matrix" values="0 0 0 0 0 0 0 0 0 0 0 0 0 0 0 0 0 0 0.25 0"/>
<feBlend mode="normal" in2="BackgroundImageFix" result="effect1_dropShadow"/>
<feBlend mode="normal" in="SourceGraphic" in2="effect1_dropShadow" result="shape"/>
</filter>
<linearGradient id="paint0_linear" x1="368.357" y1="102.521" x2="368.357" y2="463.055" gradientUnits="userSpaceOnUse">
<stop stop-color="#57F0EB"/>
<stop offset="1" stop-color="#489EDF"/>
</linearGradient>
<linearGradient id="paint1_linear" x1="508.435" y1="145.82" x2="551.416" y2="220.266" gradientUnits="userSpaceOnUse">
<stop stop-color="#52B4FC"/>
<stop offset="1" stop-color="#267EFE"/>
</linearGradient>
<linearGradient id="paint2_linear" x1="130.074" y1="0.813965" x2="122.523" y2="184.054" gradientUnits="userSpaceOnUse">
<stop stop-color="#EE7A6C"/>
<stop offset="1" stop-color="#FDC572"/>
</linearGradient>
<linearGradient id="paint3_linear" x1="446.507" y1="363.711" x2="458.342" y2="395.313" gradientUnits="userSpaceOnUse">
<stop stop-color="#527E90"/>
<stop offset="1" stop-color="#9DC2D4"/>
</linearGradient>
<radialGradient id="paint4_radial" cx="0" cy="0" r="1" gradientUnits="userSpaceOnUse" gradientTransform="translate(416.858 387.629) rotate(40.9595) scale(62.2474 45.1564)">
<stop stop-color="#A4C9DB"/>
<stop offset="1" stop-color="#477486"/>
</radialGradient>
<linearGradient id="paint5_linear" x1="279.352" y1="410.788" x2="297.859" y2="493.257" gradientUnits="userSpaceOnUse">
<stop stop-color="#ECDCB2"/>
<stop offset="1" stop-color="#B2A094"/>
</linearGradient>
<radialGradient id="paint6_radial" cx="0" cy="0" r="1" gradientUnits="userSpaceOnUse" gradientTransform="translate(275.684 480.235) rotate(-141.988) scale(42.2398 91.1771)">
<stop stop-color="#FFEBC4"/>
<stop offset="1" stop-color="#F6E2B9" stop-opacity="0"/>
</radialGradient>
<radialGradient id="paint7_radial" cx="0" cy="0" r="1" gradientUnits="userSpaceOnUse" gradientTransform="translate(160.179 458.808) rotate(48.5579) scale(68.3854 49.6091)">
<stop stop-color="#A4C9DB"/>
<stop offset="1" stop-color="#477486"/>
</radialGradient>
<linearGradient id="paint8_linear" x1="211.692" y1="492.567" x2="169.931" y2="478.064" gradientUnits="userSpaceOnUse">
<stop stop-color="#C2D8E4" stop-opacity="0.53"/>
<stop offset="1" stop-color="#C2D8E4" stop-opacity="0"/>
</linearGradient>
<radialGradient id="paint9_radial" cx="0" cy="0" r="1" gradientUnits="userSpaceOnUse" gradientTransform="translate(152.427 463.56) rotate(36.7644) scale(54.3143 39.4001)">
<stop stop-color="#AACEE0"/>
<stop offset="1" stop-color="#7CAABE"/>
</radialGradient>
<linearGradient id="paint10_linear" x1="152.177" y1="461.809" x2="181.184" y2="478.814" gradientUnits="userSpaceOnUse">
<stop stop-color="#C5DAE5"/>
<stop offset="1" stop-color="#C5DAE5" stop-opacity="0"/>
</linearGradient>
<linearGradient id="paint11_linear" x1="151.133" y1="468.448" x2="151.133" y2="500.736" gradientUnits="userSpaceOnUse">
<stop stop-color="#5F899B"/>
<stop offset="1" stop-color="#97BCCE"/>
</linearGradient>
<linearGradient id="paint12_linear" x1="532.603" y1="361.162" x2="532.603" y2="400.403" gradientUnits="userSpaceOnUse">
<stop stop-color="#5F899B"/>
<stop offset="1" stop-color="#97BCCE"/>
</linearGradient>
<linearGradient id="paint13_linear" x1="532.603" y1="361.162" x2="541.108" y2="375.833" gradientUnits="userSpaceOnUse">
<stop stop-color="#C4D9E5"/>
<stop offset="1" stop-color="#C4D9E5" stop-opacity="0"/>
</linearGradient>
<radialGradient id="paint14_radial" cx="0" cy="0" r="1" gradientUnits="userSpaceOnUse" gradientTransform="translate(542.736 391.781) rotate(-107.546) scale(46.4229 33.6756)">
<stop stop-color="#608A9C"/>
<stop offset="1" stop-color="#97BFD1"/>
</radialGradient>
<radialGradient id="paint15_radial" cx="0" cy="0" r="1" gradientUnits="userSpaceOnUse" gradientTransform="translate(482.27 388.856) rotate(28.9742) scale(62.2459 45.1552)">
<stop stop-color="#A4C9DB"/>
<stop offset="1" stop-color="#477486"/>
</radialGradient>
<linearGradient id="paint16_linear" x1="543.061" y1="412.611" x2="507.911" y2="409.031" gradientUnits="userSpaceOnUse">
<stop stop-color="#86A7B7"/>
<stop offset="1" stop-color="#86A7B7" stop-opacity="0"/>
</linearGradient>
<radialGradient id="paint17_radial" cx="0" cy="0" r="1" gradientUnits="userSpaceOnUse" gradientTransform="translate(430.657 477.984) rotate(152.378) scale(90.6596 121.689)">
<stop stop-color="#F5E1B9"/>
<stop offset="1" stop-color="#F5E1B9" stop-opacity="0"/>
</radialGradient>
<linearGradient id="paint18_linear" x1="399.241" y1="419.03" x2="430.609" y2="490.563" gradientUnits="userSpaceOnUse">
<stop stop-color="#ECDCB2"/>
<stop offset="1" stop-color="#B2A094"/>
</linearGradient>
<radialGradient id="paint19_radial" cx="0" cy="0" r="1" gradientUnits="userSpaceOnUse" gradientTransform="translate(385.47 439.687) rotate(88.2643) scale(101.034 93.3804)">
<stop stop-color="#F5E1B9"/>
<stop offset="1" stop-color="#F5E1B9" stop-opacity="0"/>
</radialGradient>
<linearGradient id="paint20_linear" x1="333.829" y1="396.078" x2="511.323" y2="388.81" gradientUnits="userSpaceOnUse">
<stop stop-color="#6C471E"/>
<stop offset="1" stop-color="#916035"/>
</linearGradient>
<radialGradient id="paint21_radial" cx="0" cy="0" r="1" gradientUnits="userSpaceOnUse" gradientTransform="translate(250.466 515.341) rotate(28.9742) scale(62.2459 45.1552)">
<stop stop-color="#A4C9DB"/>
<stop offset="1" stop-color="#477486"/>
</radialGradient>
<linearGradient id="paint22_linear" x1="270.137" y1="530.155" x2="309.347" y2="535.702" gradientUnits="userSpaceOnUse">
<stop stop-color="#88A9B9" stop-opacity="0"/>
<stop offset="1" stop-color="#88A9B9"/>
</linearGradient>
<radialGradient id="paint23_radial" cx="0" cy="0" r="1" gradientUnits="userSpaceOnUse" gradientTransform="translate(254.645 517.723) rotate(25.8936) scale(43.7977 31.7713)">
<stop stop-color="#A3C8DA"/>
<stop offset="1" stop-color="#7FACC0"/>
</radialGradient>
<linearGradient id="paint24_linear" x1="248.907" y1="510.455" x2="291.368" y2="529.199" gradientUnits="userSpaceOnUse">
<stop stop-color="#C5DAE5"/>
<stop offset="1" stop-color="#C5DAE5" stop-opacity="0"/>
</linearGradient>
<linearGradient id="paint25_linear" x1="251.671" y1="515.882" x2="268.307" y2="535.258" gradientUnits="userSpaceOnUse">
<stop stop-color="#9DC2D4"/>
<stop offset="1" stop-color="#537F91"/>
</linearGradient>
<linearGradient id="paint26_linear" x1="252.806" y1="514.822" x2="252.806" y2="550.949" gradientUnits="userSpaceOnUse">
<stop stop-color="#5F899B"/>
<stop offset="1" stop-color="#97BCCE"/>
</linearGradient>
<linearGradient id="paint27_linear" x1="244.61" y1="519.038" x2="259.256" y2="525.873" gradientUnits="userSpaceOnUse">
<stop stop-color="#BDD4E0"/>
<stop offset="1" stop-color="#BDD4E0" stop-opacity="0"/>
</linearGradient>
<linearGradient id="paint28_linear" x1="234.149" y1="530.558" x2="236.698" y2="547.253" gradientUnits="userSpaceOnUse">
<stop stop-color="#BDD4E0"/>
<stop offset="1" stop-color="#9DC2D4"/>
</linearGradient>
<linearGradient id="paint29_linear" x1="118.391" y1="381.91" x2="121.061" y2="403.589" gradientUnits="userSpaceOnUse">
<stop stop-color="#638D9F"/>
<stop offset="1" stop-color="#9DC2D4"/>
</linearGradient>
<radialGradient id="paint30_radial" cx="0" cy="0" r="1" gradientUnits="userSpaceOnUse" gradientTransform="translate(100.729 377.465) rotate(79.5498) scale(11.8958 23.9419)">
<stop stop-color="#C6DAE5"/>
<stop offset="1" stop-color="#C6DAE5" stop-opacity="0"/>
</radialGradient>
<linearGradient id="paint31_linear" x1="125.703" y1="371.681" x2="138.103" y2="419.696" gradientUnits="userSpaceOnUse">
<stop stop-color="#9EC3D5"/>
<stop offset="1" stop-color="#588395"/>
</linearGradient>
<linearGradient id="paint32_linear" x1="155.048" y1="326.765" x2="156.245" y2="439.953" gradientUnits="userSpaceOnUse">
<stop stop-color="#729BAD"/>
<stop offset="0.344437" stop-color="#A4C9DB"/>
<stop offset="1" stop-color="#477486"/>
</linearGradient>
<linearGradient id="paint33_linear" x1="119.115" y1="368.687" x2="147.861" y2="374.675" gradientUnits="userSpaceOnUse">
<stop stop-color="#C7DBE6"/>
<stop offset="1" stop-color="#C7DBE6" stop-opacity="0"/>
</linearGradient>
<linearGradient id="paint34_linear" x1="139.924" y1="398.793" x2="378.736" y2="367.035" gradientUnits="userSpaceOnUse">
<stop stop-color="#5F8A9C"/>
<stop offset="1" stop-color="#4D798B"/>
</linearGradient>
<linearGradient id="paint35_linear" x1="269.525" y1="311.564" x2="275.243" y2="411.228" gradientUnits="userSpaceOnUse">
<stop stop-color="#F8EFC8"/>
<stop offset="0.611249" stop-color="#E0C99D"/>
<stop offset="1" stop-color="#B2A094"/>
</linearGradient>
<radialGradient id="paint36_radial" cx="0" cy="0" r="1" gradientUnits="userSpaceOnUse" gradientTransform="translate(270.328 368.918) rotate(7.34868) scale(128.914 234.345)">
<stop stop-color="#F9E5BB"/>
<stop offset="0.72778" stop-color="#FBE3B8" stop-opacity="0"/>
</radialGradient>
<radialGradient id="paint37_radial" cx="0" cy="0" r="1" gradientUnits="userSpaceOnUse" gradientTransform="translate(390.235 334.854) rotate(49.5574) scale(62.2476 45.1565)">
<stop stop-color="#A4C9DB"/>
<stop offset="1" stop-color="#477486"/>
</radialGradient>
<linearGradient id="paint38_linear" x1="381.333" y1="331.039" x2="408.994" y2="339.305" gradientUnits="userSpaceOnUse">
<stop stop-color="#C5DAE5"/>
<stop offset="1" stop-color="#C5DAE5" stop-opacity="0"/>
</linearGradient>
<radialGradient id="paint39_radial" cx="0" cy="0" r="1" gradientUnits="userSpaceOnUse" gradientTransform="translate(397.548 336.444) rotate(58.4652) scale(49.2406 35.7196)">
<stop stop-color="#B0D3E4"/>
<stop offset="1" stop-color="#7BAABE"/>
</radialGradient>
<linearGradient id="paint40_linear" x1="396.276" y1="338.352" x2="419.168" y2="345.346" gradientUnits="userSpaceOnUse">
<stop stop-color="#C5DAE5"/>
<stop offset="1" stop-color="#7CABBE" stop-opacity="0"/>
</linearGradient>
<linearGradient id="paint41_linear" x1="436.432" y1="333.162" x2="436.432" y2="358.946" gradientUnits="userSpaceOnUse">
<stop stop-color="#9DC2D4"/>
<stop offset="1" stop-color="#537F91"/>
</linearGradient>
<linearGradient id="paint42_linear" x1="436.432" y1="333.162" x2="436.432" y2="358.945" gradientUnits="userSpaceOnUse">
<stop stop-color="#9DC2D4"/>
<stop offset="1" stop-color="#537F91"/>
</linearGradient>
<linearGradient id="paint43_linear" x1="451.975" y1="333.246" x2="454.511" y2="354.174" gradientUnits="userSpaceOnUse">
<stop stop-color="#9DC2D4"/>
<stop offset="1" stop-color="#C3D9E4"/>
</linearGradient>
</defs>
</svg>
