<?xml version="1.0" encoding="utf-8"?>
<!-- Generator: Adobe Illustrator 24.0.0, SVG Export Plug-In . SVG Version: 6.00 Build 0)  -->
<svg version="1.1" id="Layer_1" xmlns="http://www.w3.org/2000/svg" xmlns:xlink="http://www.w3.org/1999/xlink" x="0px" y="0px"
	 viewBox="0 0 619 640" style="enable-background:new 0 0 619 640;" xml:space="preserve">
<style type="text/css">
	.st0{fill:url(#SVGID_1_);}
	.st1{fill:#FFCA62;}
	.st2{fill:url(#SVGID_2_);}
	.st3{fill:url(#SVGID_3_);}
	.st4{opacity:0.3;fill:#395590;}
	.st5{fill:#395590;fill-opacity:0.3;}
	.st6{fill:#FFFFFF;}
	.st7{fill:url(#SVGID_4_);}
	.st8{fill:url(#SVGID_5_);}
	.st9{fill:#4D798B;}
	.st10{fill:url(#SVGID_6_);}
	.st11{fill:url(#SVGID_7_);}
	.st12{fill:url(#SVGID_8_);}
	.st13{fill:url(#SVGID_9_);}
	.st14{fill:url(#SVGID_10_);}
	.st15{fill:url(#SVGID_11_);}
	.st16{fill:#B2CFDB;}
	.st17{fill:url(#SVGID_12_);}
	.st18{fill:url(#SVGID_13_);}
	.st19{fill:url(#SVGID_14_);}
	.st20{fill:url(#SVGID_15_);}
	.st21{fill:url(#SVGID_16_);}
	.st22{fill:url(#SVGID_17_);}
	.st23{fill:url(#SVGID_18_);}
	.st24{fill:url(#SVGID_19_);}
	.st25{fill:url(#SVGID_20_);}
	.st26{opacity:0.7;}
	.st27{fill-rule:evenodd;clip-rule:evenodd;fill:#3C5E68;}
	.st28{fill:url(#SVGID_21_);}
	.st29{fill:url(#SVGID_22_);}
	.st30{opacity:0.5;}
	.st31{fill:#414A59;}
	.st32{fill:url(#SVGID_23_);}
	.st33{fill:url(#SVGID_24_);}
	.st34{fill:url(#SVGID_25_);}
	.st35{fill:url(#SVGID_26_);}
	.st36{fill:url(#SVGID_27_);}
	.st37{fill:url(#SVGID_28_);}
	.st38{fill:url(#SVGID_29_);}
	.st39{fill:url(#SVGID_30_);}
	.st40{fill:url(#SVGID_31_);}
	.st41{fill:url(#SVGID_32_);}
	.st42{fill:url(#SVGID_33_);}
	.st43{fill:url(#SVGID_34_);}
</style>
<linearGradient id="SVGID_1_" gradientUnits="userSpaceOnUse" x1="-182.1178" y1="748.6323" x2="-182.1178" y2="388.0983" gradientTransform="matrix(1 0 0 -1 564 876)">
	<stop  offset="0" style="stop-color:#57F0EB"/>
	<stop  offset="1" style="stop-color:#489EDF"/>
</linearGradient>
<path class="st0" d="M381.9,487.9c99.6,0,180.3-80.7,180.3-180.3c0-99.6-80.7-180.3-180.3-180.3c-99.6,0-180.3,80.7-180.3,180.3
	C201.6,407.2,282.3,487.9,381.9,487.9z"/>
<path class="st1" d="M171.7,303.9c5.7,0,10.3,4.6,10.3,10.3c0,5.7-4.6,10.3-10.3,10.3s-10.3-4.6-10.3-10.3
	C161.4,308.5,166,303.9,171.7,303.9z"/>
<linearGradient id="SVGID_2_" gradientUnits="userSpaceOnUse" x1="-32.7706" y1="710.6851" x2="10.2104" y2="636.2391" gradientTransform="matrix(1 0 0 -1 564 876)">
	<stop  offset="0" style="stop-color:#52B4FC"/>
	<stop  offset="1" style="stop-color:#267EFE"/>
</linearGradient>
<path class="st2" d="M521.1,182.9c0.7-15.3,16.8-24.7,30.5-17.8c16.9,8.5,31.3,16.9,47.4,27.4c12.8,8.4,12.7,27.1-0.2,35.4
	c-16.1,10.4-30.4,18.7-47.2,27.3c-13.6,7-29.9-2.3-30.6-17.6C520.1,219,520.1,202.4,521.1,182.9z"/>
<linearGradient id="SVGID_3_" gradientUnits="userSpaceOnUse" x1="-425.9445" y1="900.8953" x2="-433.4955" y2="717.6552" gradientTransform="matrix(0.8683 0.4961 0.4961 -0.8683 60.2437 1052.9338)">
	<stop  offset="0" style="stop-color:#EE7A6C"/>
	<stop  offset="1" style="stop-color:#FDC572"/>
</linearGradient>
<path class="st3" d="M98.4,37.1l73.2,41.8c11,6.3,14.9,20.4,8.6,31.4l-41.8,73.2c-6.3,11-20.4,14.9-31.4,8.6l-73.2-41.8
	c-11-6.3-14.9-20.4-8.6-31.4L67,45.6C73.3,34.6,87.4,30.8,98.4,37.1z"/>
<g>
	<g>
		<g>
			<path class="st4" d="M441.9,388.3c-12.8-4.8-25.8-5.2-34.9-0.1c-4.5,2.6-7.5,6.2-9.1,10.6c-0.9,0.4-1.8,0.8-2.7,1.3
				c-15.8,9.9-110.4,67.6-196.3,107.3c2.3-0.6,4.9-1,7.4-1.2c-2.3,0.1-4.7,0.5-6.7,1.2c-6.6-0.4-12.8,0.8-17.8,3.5
				c-12.7,7.1-13.2,22.8-2.9,37.9l-8.7,4.4c-1.6,0.8-2.3,1.9-2.5,3.4c-0.4,2.2,0.6,5.1,3.1,7.7c0.1,0.1,0.3,0.3,0.3,0.3l0.1,0.1
				c0.1,0.1,0.4,0.3,0.5,0.5c0.1,0.1,0.1,0.1,0.3,0.3c0.1,0.1,0.3,0.1,0.4,0.3c4.2,3.4,9.9,4.7,13.2,2.9c0.3-0.1,0.5-0.4,0.8-0.5
				l7.5-4.2c17.1,12.5,38.9,16.7,52,9.5c4.4-2.5,7.4-6.1,9-10.4l0.1-0.1c0,0.1-0.1,0.1-0.1,0.3c40-28.3,157.1-88,197.5-107.5
				c0.9-0.4,1.8-1,2.6-1.6c6.1,0.1,11.7-1,16.1-3.6c9-5.1,11.8-14.3,9.2-24.5C473.1,410.7,451.7,392.9,441.9,388.3z"/>
		</g>
	</g>
</g>
<g>
	<path class="st5" d="M581.9,436.2c-2.5-2.5-9.3-6.1-13.4-3.8l-11.2,6.3c-6.5-4.1-13.6-6.5-20.2-7c-12.8-4.7-25.7-5.2-34.7-0.1
		c-4.6,2.6-7.5,6.2-9,10.6c-0.9,0.4-1.8,0.8-2.7,1.4c-15.7,9.8-109.9,67.3-195.3,106.7c2.4-0.7,4.9-1,7.4-1.2
		c-2.4,0.2-4.6,0.6-6.7,1.2c-6.6-0.3-12.8,0.8-17.7,3.5c-12.6,7.1-13.2,22.7-2.8,37.7l-8.6,4.4c-1.5,0.7-2.3,1.9-2.5,3.4
		c-0.4,2.2,0.6,5,3,7.6c0,0,0,0,0,0c0,0,0,0,0,0c0.1,0.1,0.2,0.2,0.3,0.3c0,0,0.1,0.1,0.1,0.1c0.2,0.2,0.3,0.3,0.5,0.5
		c0.1,0.1,0.2,0.2,0.3,0.2c0.1,0.1,0.2,0.2,0.3,0.3c4.2,3.4,9.8,4.7,13.2,2.9c0.3-0.2,0.5-0.3,0.8-0.5l7.5-4.1
		c17.1,12.4,38.7,16.7,51.8,9.4c4.4-2.5,7.4-6.1,8.9-10.3c0,0,0.1-0.1,0.1-0.1c-0.1,0.1-0.1,0.2-0.2,0.3
		c39.7-28.1,156.3-87.6,196.5-107c0.9-0.4,1.8-1,2.6-1.6c6,0.1,11.6-1.1,16.1-3.6c8.8-5,11.8-14.2,9.2-24.4c1.1-4.7-0.1-10.4-3.5-16
		l11-6.1C587.7,444,584.2,438.5,581.9,436.2z"/>
	<g>
		<g>
			<ellipse transform="matrix(0.9766 -0.2152 0.2152 0.9766 -102.6318 55.3461)" cx="202.8" cy="498.9" rx="28.8" ry="39.8"/>
			<path d="M206.8,538.7c-4,0-8.1-1.1-12-3.3c-9.2-5-16.6-15.4-19.9-27.8l0,0c-5.7-21.4,2.1-42.7,17.6-47.5c6-1.9,12.4-1.1,18.5,2.3
				c9.2,5,16.6,15.4,19.9,27.8c5.7,21.4-2.1,42.7-17.6,47.5C211.1,538.3,208.9,538.7,206.8,538.7z M198.8,460
				c-2.1,0-4.2,0.3-6.2,0.9c-15,4.7-22.6,25.5-17,46.4l0,0c3.3,12.1,10.5,22.3,19.5,27.2c5.9,3.2,12.1,4,17.8,2.2
				c15-4.7,22.6-25.5,17-46.4c-3.3-12.1-10.5-22.3-19.5-27.2C206.6,461.1,202.7,460,198.8,460z"/>
		</g>
		<g>
			<path class="st6" d="M496.8,399.8L459,411.5c-5.3,1.6-5.4,8.7-4.6,12c0.8,3.4,4.9,9.7,10,8l37.4-11.6c5.5-2.1,5.3-9,4.5-12.3
				C505.4,404.2,501.4,398.4,496.8,399.8z"/>
			<path d="M462.7,432.2c-1,0-2-0.3-3-0.8c-2.8-1.6-5-5.2-5.7-7.8c-0.8-3.4-0.7-10.9,4.9-12.6l37.8-11.7c1.5-0.5,3.1-0.3,4.6,0.6
				c2.7,1.6,4.9,5.1,5.4,7.6c0.9,3.8,0.9,10.7-4.8,12.8l-37.4,11.6C463.9,432.1,463.3,432.2,462.7,432.2z M496.9,400.2l-37.8,11.7
				c-5,1.5-5,8.4-4.3,11.5c0.6,2.4,2.6,5.8,5.2,7.3c1.4,0.8,2.8,0.9,4.1,0.5l37.4-11.6c5.1-1.9,5-8.3,4.2-11.7c-0.6-2.3-2.5-5.6-5-7
				C499.5,400,498.2,399.8,496.9,400.2z"/>
		</g>
		<linearGradient id="SVGID_4_" gradientUnits="userSpaceOnUse" x1="442.6439" y1="419.9716" x2="489.3606" y2="419.9716">
			<stop  offset="0" style="stop-color:#527E90"/>
			<stop  offset="1" style="stop-color:#9DC2D4"/>
		</linearGradient>
		<path class="st7" d="M444.1,426.8c-4.5-16.8,1.6-33.5,13.7-37.3c12.1-3.8,25.5,6.8,30,23.6c4.5,16.8-1.6,33.5-13.7,37.3
			C462.1,454.2,448.6,443.6,444.1,426.8z"/>
		<radialGradient id="SVGID_5_" cx="452.6475" cy="424.0285" r="38.9935" gradientUnits="userSpaceOnUse">
			<stop  offset="0" style="stop-color:#A4C9DB"/>
			<stop  offset="1" style="stop-color:#477486"/>
		</radialGradient>
		<path class="st8" d="M421.7,433.7c-6.4-23.8,2.3-47.4,19.4-52.7c17.1-5.3,36.1,9.6,42.5,33.4c6.4,23.8-2.3,47.4-19.4,52.7
			C447.1,472.4,428.1,457.5,421.7,433.7z"/>
		<path class="st9" d="M435.4,392.7l-227.1,67.4c-18.2,5.5-18.5,30-15.8,41.3c2.9,11.8,16.8,33.4,34.3,27.6l225.7-67
			c18.9-7.1,18.2-31,15.5-42.2C465.1,407.9,451.4,387.9,435.4,392.7z"/>
		<linearGradient id="SVGID_6_" gradientUnits="userSpaceOnUse" x1="144.913" y1="529.2916" x2="408.4721" y2="431.2">
			<stop  offset="0" style="stop-color:#F8EFC8"/>
			<stop  offset="0.6112" style="stop-color:#E0C99D"/>
			<stop  offset="1" style="stop-color:#B2A094"/>
		</linearGradient>
		<path class="st10" d="M216.3,536.1c47.9-20.5,185.6-57.6,229.5-68.3c9-2.2,15.6-12.8,17.3-20.2c0.1-0.5-0.1-0.9-0.5-1.2
			c-2.8-1.8-8.1-3.2-8.1-3.2c3.4-0.8,6.6-1.9,9.2-3.3c0.7-0.4,1.1-1.1,1.2-1.9c0.5-4.8-0.8-17.2-3.9-23.3c-1.1,0.1-3.9-0.1-6.4-0.4
			c1.8-1.2,3.2-2.8,4-4.9c-2.1-3.8-4.8-7.3-7.9-10.5c-0.4-0.4-0.9-0.5-1.4-0.4c-1.7,0.3-4.2,0.3-7,0.1c0,0,3.4-0.6,4.9-1.9
			c0.2-0.2,0.3-0.6,0-0.8c-2.6-2.3-11.6-8.6-22.2-4.9c-18.4,6.5-135.9,47.6-228.4,68.3c12.1-1.3,24.1,9.8,29,19
			c0.4,0.8,1.2,1.3,2,1.4c4.5,0.6,6.9,0.9,11.1,0.3c-5.2,1.1-6.2,1.3-10.1,2.7c-0.4,0.2-0.7,0.6-0.5,1.1c2.5,7.9,4.3,19.6,3.5,26.1
			c-0.1,0.7,0.4,1.3,1.1,1.4c1.5,0.2,3.2,0.2,5.2,0c-2.5,1.2-4.8,2.7-6.8,4.4c-0.5,0.4-0.8,0.9-1,1.5
			C227.9,524.9,223,530.9,216.3,536.1z"/>
		<g>
			<radialGradient id="SVGID_7_" cx="174.391" cy="484.1884" r="54.1691" gradientUnits="userSpaceOnUse">
				<stop  offset="0" style="stop-color:#A4C9DB"/>
				<stop  offset="1" style="stop-color:#477486"/>
			</radialGradient>
			<path class="st11" d="M161.2,511.5c-6.4-23.8,2.3-47.4,19.4-52.7s36.1,9.6,42.5,33.4c6.4,23.8-2.3,47.4-19.4,52.7
				C186.6,550.2,167.6,535.3,161.2,511.5z"/>
			<linearGradient id="SVGID_8_" gradientUnits="userSpaceOnUse" x1="159.0743" y1="501.8358" x2="225.1808" y2="501.8358">
				<stop  offset="0" style="stop-color:#88A9B9;stop-opacity:0"/>
				<stop  offset="1" style="stop-color:#88A9B9"/>
			</linearGradient>
			<path class="st12" d="M187.7,457.7v2c14.3,0,28.4,13.9,33.5,33c6.1,22.7-2,45.3-18.1,50.3c-2.1,0.7-4.3,1-6.5,1
				c-14.3,0-28.4-13.9-33.5-33c-6.1-22.7,2-45.3,18.1-50.3c2.1-0.7,4.3-1,6.5-1L187.7,457.7 M187.7,457.7c-2.4,0-4.8,0.4-7.1,1.1
				c-17.1,5.3-25.8,29-19.4,52.7c5.5,20.5,20.4,34.5,35.4,34.5c2.4,0,4.8-0.4,7.1-1.1c17.1-5.3,25.8-29,19.4-52.7
				C217.6,471.6,202.6,457.7,187.7,457.7L187.7,457.7z"/>
		</g>
		<g>
			<radialGradient id="SVGID_9_" cx="187.3339" cy="503.2414" r="27.5563" gradientUnits="userSpaceOnUse">
				<stop  offset="0" style="stop-color:#A3C8DA"/>
				<stop  offset="1" style="stop-color:#7FACC0"/>
			</radialGradient>
			<path class="st13" d="M165.5,510.1c-4.5-16.8,1.6-33.5,13.7-37.3s25.5,6.8,30,23.6c4.5,16.8-1.6,33.5-13.7,37.3
				S170,526.9,165.5,510.1z"/>
			<linearGradient id="SVGID_10_" gradientUnits="userSpaceOnUse" x1="163.9755" y1="503.2414" x2="210.6922" y2="503.2414">
				<stop  offset="0" style="stop-color:#C5DAE5"/>
				<stop  offset="1" style="stop-color:#C5DAE5;stop-opacity:0"/>
			</linearGradient>
			<path class="st14" d="M184.2,472v2c9.8,0,19.5,9.6,23.1,22.9c4.2,15.8-1.3,31.4-12.4,34.8c-1.4,0.4-2.9,0.7-4.4,0.7
				c-9.8,0-19.5-9.6-23.1-22.9c-4.2-15.8,1.3-31.4,12.4-34.8c1.4-0.4,2.9-0.7,4.4-0.7L184.2,472 M184.2,472c-1.7,0-3.4,0.2-5,0.8
				c-12.1,3.8-18.2,20.5-13.7,37.3c3.9,14.5,14.4,24.4,25,24.4c1.7,0,3.4-0.2,5-0.8c12.1-3.8,18.2-20.5,13.7-37.3
				C205.3,481.9,194.8,472,184.2,472L184.2,472z"/>
		</g>
		<linearGradient id="SVGID_11_" gradientUnits="userSpaceOnUse" x1="145.6134" y1="514.5107" x2="187.8886" y2="503.9419">
			<stop  offset="0" style="stop-color:#97BCCE"/>
			<stop  offset="1" style="stop-color:#5F899B"/>
		</linearGradient>
		<path class="st15" d="M181.7,493.7l-37.8,11.7c-5.3,1.6-5.4,8.7-4.6,12c0.8,3.4,4.9,9.7,10,8l37.4-11.6c5.5-2.1,5.3-9,4.5-12.3
			C190.4,498.1,186.4,492.2,181.7,493.7z"/>
		
			<ellipse transform="matrix(0.9766 -0.2152 0.2152 0.9766 -107.5086 43.6311)" class="st16" cx="146.6" cy="515.4" rx="7.5" ry="10.4"/>
	</g>
	<g>
		<g>
			<ellipse transform="matrix(0.9106 -0.4133 0.4133 0.9106 -196.871 171.7724)" cx="298.6" cy="541" rx="28.8" ry="39.8"/>
			<path d="M306,579.5c-2.5,0-5.1-0.4-7.7-1.2c-10-3-19.4-11.6-25.3-23l0,0c-10.1-19.7-6.8-42.2,7.3-50.1c5.5-3.1,11.9-3.6,18.6-1.6
				c10,3,19.4,11.6,25.3,23c10.1,19.7,6.8,42.2-7.3,50.1C313.6,578.6,309.9,579.5,306,579.5z M273.8,554.9
				c5.7,11.2,14.9,19.6,24.7,22.6c6.5,2,12.6,1.4,17.9-1.5c13.7-7.7,16.8-29.6,7-49c-5.7-11.2-14.9-19.6-24.7-22.6
				c-6.5-2-12.6-1.4-17.9,1.5C267.1,513.6,264,535.6,273.8,554.9L273.8,554.9z"/>
		</g>
		<linearGradient id="SVGID_12_" gradientUnits="userSpaceOnUse" x1="519.7042" y1="406.3013" x2="569.9856" y2="406.3013">
			<stop  offset="0" style="stop-color:#9DC2D4"/>
			<stop  offset="1" style="stop-color:#537F91"/>
		</linearGradient>
		<path class="st17" d="M557.6,387.4l-34.5,19.3c-4.9,2.7-3.5,9.7-2,12.7c1.5,3.2,6.8,8.5,11.4,5.8l34.1-19.1c5-3.2,3.3-9.9,1.9-13
			C567,389.9,561.9,385,557.6,387.4z"/>
		<radialGradient id="SVGID_13_" cx="531.7039" cy="413.5055" r="27.5551" gradientUnits="userSpaceOnUse">
			<stop  offset="0" style="stop-color:#608A9C"/>
			<stop  offset="1" style="stop-color:#97BFD1"/>
		</radialGradient>
		<path class="st18" d="M511.7,424.7c-7.9-15.5-5.4-33.1,5.7-39.3c11-6.2,26.4,1.3,34.3,16.8s5.4,33.1-5.7,39.3
			S519.6,440.2,511.7,424.7z"/>
		<g>
			<radialGradient id="SVGID_14_" cx="519.4822" cy="420.2463" r="38.9918" gradientUnits="userSpaceOnUse">
				<stop  offset="0" style="stop-color:#A4C9DB"/>
				<stop  offset="1" style="stop-color:#477486"/>
			</radialGradient>
			<path class="st19" d="M491.2,436.1c-11.2-21.9-7.6-46.8,8-55.6c15.6-8.8,37.3,1.9,48.5,23.8c11.2,21.9,7.6,46.8-8,55.6
				S502.4,458.1,491.2,436.1z"/>
			<linearGradient id="SVGID_15_" gradientUnits="userSpaceOnUse" x1="484.7044" y1="420.2463" x2="554.2599" y2="420.2463">
				<stop  offset="0" style="stop-color:#86A7B7"/>
				<stop  offset="1" style="stop-color:#86A7B7;stop-opacity:0"/>
			</linearGradient>
			<path class="st20" d="M511.2,377.5v2c12.9,0,26.9,10.4,34.8,25.8c10.7,21,7.4,44.7-7.2,53c-3.3,1.9-7,2.8-11,2.8
				c-13.1,0-26.8-10.1-34.8-25.8c-10.7-21-7.4-44.7,7.2-53c3.3-1.9,7-2.8,11-2.8L511.2,377.5 M511.2,377.5c-4.2,0-8.2,1-11.9,3.1
				c-15.6,8.8-19.2,33.7-8,55.6c8.5,16.7,23.2,26.9,36.6,26.9c4.2,0,8.2-1,11.9-3.1c15.6-8.8,19.2-33.7,8-55.6
				C539.2,387.6,524.6,377.5,511.2,377.5L511.2,377.5z"/>
		</g>
		<path class="st9" d="M496.1,393.2L295.9,501.9c-16.7,9.2-11.9,33.2-6.8,43.7c5.3,11,23.4,29.2,39.2,19.9l198.9-108
			c17.1-10.9,11.4-34.1,6.4-44.5C528.4,401.9,510.8,385.1,496.1,393.2z"/>
		<g>
			<linearGradient id="SVGID_16_" gradientUnits="userSpaceOnUse" x1="399.2013" y1="445.3189" x2="432.0921" y2="511.1004">
				<stop  offset="0" style="stop-color:#ECDCB2"/>
				<stop  offset="1" style="stop-color:#B2A094"/>
			</linearGradient>
			<path class="st21" d="M319.1,575.3c42.6-30,162-91.3,202.7-110.8c8.4-4,14.4-16.3,13.2-30c-0.1-0.6-0.5-1.2-1.1-1.3
				c-4.8-1.4-9.9-1.4-9.9-1.4c4.3-2,7.5-4.8,9.1-7.1c-2-3.8-3.7-11.6-8.7-17.3c-0.4-0.4-0.9-0.6-1.5-0.5c-2.5,0.4-4.5,0.6-7.5,0.6
				c1.6-1.6,2.7-3.1,4-4.6c0.3-0.4,0.3-1,0-1.3c-2.5-2.7-7.1-7.1-12.6-8.4c-0.3-0.1-0.6,0-0.9,0.1c-1,0.6-2.2,1.3-3.7,1.5
				c0,0,1.3-1.2,1.9-2.5c-2.2,0.2-10.4-3.7-18.4,1.3c-16.5,10.3-115.1,70.4-201.2,109.8c11.6-2.9,23.7,3.3,30.3,10.4
				c0.4,0.4,0.9,0.6,1.5,0.6c4.2-0.3,8.2-0.7,12.7-1.5c-3.3,2.4-5.3,4.6-7.3,7.1c-0.6,0.7-0.7,1.8-0.3,2.6c4,7.4,7,18.3,7.9,26.9
				c0,0.4,0.4,0.8,0.8,0.8c1.6,0.2,4-0.1,5.3-0.4c-2.3,0.9-4.3,2.4-5.6,3.5c-0.4,0.3-0.6,0.8-0.7,1.3
				C328,561.9,324.3,568.2,319.1,575.3z"/>
		</g>
		<g>
			<radialGradient id="SVGID_17_" cx="263.2313" cy="523.9189" r="58.9704" gradientUnits="userSpaceOnUse">
				<stop  offset="0" style="stop-color:#A4C9DB"/>
				<stop  offset="1" style="stop-color:#477486"/>
			</radialGradient>
			<path class="st22" d="M260.5,561.9c-11.2-21.9-7.6-46.8,8-55.6c15.6-8.8,37.3,1.9,48.5,23.8c11.2,21.9,7.6,46.8-8,55.6
				S271.7,583.9,260.5,561.9z"/>
			<linearGradient id="SVGID_18_" gradientUnits="userSpaceOnUse" x1="254.0168" y1="546.0537" x2="323.5723" y2="546.0537">
				<stop  offset="0" style="stop-color:#88A9B9;stop-opacity:0"/>
				<stop  offset="1" style="stop-color:#88A9B9"/>
			</linearGradient>
			<path class="st23" d="M280.5,503.3v2c12.9,0,26.9,10.4,34.8,25.8c10.7,21,7.4,44.7-7.2,53c-3.3,1.9-7,2.8-11,2.8
				c-13.1,0-26.8-10.1-34.8-25.8c-10.7-21-7.4-44.7,7.2-53c3.3-1.9,7-2.8,11-2.8L280.5,503.3 M280.5,503.3c-4.2,0-8.2,1-11.9,3.1
				c-15.6,8.8-19.2,33.7-8,55.6c8.5,16.7,23.2,26.9,36.6,26.9c4.2,0,8.2-1,11.9-3.1c15.6-8.8,19.2-33.7,8-55.6
				C308.5,513.4,293.9,503.3,280.5,503.3L280.5,503.3z"/>
		</g>
		<g>
			<radialGradient id="SVGID_19_" cx="284.3971" cy="548.4238" r="27.5551" gradientUnits="userSpaceOnUse">
				<stop  offset="0" style="stop-color:#A3C8DA"/>
				<stop  offset="1" style="stop-color:#7FACC0"/>
			</radialGradient>
			<path class="st24" d="M264.4,559.7c-7.9-15.5-5.4-33.1,5.7-39.3c11-6.2,26.4,1.3,34.3,16.8s5.4,33.1-5.7,39.3
				C287.7,582.7,272.3,575.2,264.4,559.7z"/>
			<linearGradient id="SVGID_20_" gradientUnits="userSpaceOnUse" x1="259.8199" y1="548.4238" x2="308.9742" y2="548.4238">
				<stop  offset="0" style="stop-color:#C5DAE5"/>
				<stop  offset="1" style="stop-color:#C5DAE5;stop-opacity:0"/>
			</linearGradient>
			<path class="st25" d="M278.5,520.2L278.5,520.2c8.9,0,18.6,7.2,24.1,17.9c7.4,14.5,5.2,31-4.9,36.6c-2.3,1.3-4.8,1.9-7.5,1.9
				c-8.9,0-18.6-7.2-24.1-17.9c-7.4-14.5-5.2-31,4.9-36.6C273.3,520.8,275.8,520.2,278.5,520.2 M278.5,518.2c-2.9,0-5.8,0.7-8.4,2.2
				c-11,6.2-13.6,23.8-5.7,39.3c6,11.8,16.4,19,25.9,19c2.9,0,5.8-0.7,8.4-2.2c11-6.2,13.6-23.8,5.7-39.3
				C298.4,525.4,288,518.2,278.5,518.2L278.5,518.2z"/>
		</g>
		<g class="st26">
			<path class="st27" d="M267.1,572.3l19.7-14.2c3.2-3.3,1.3-9.5-2.3-13.2l0,0c-3.3-3.5-4.7-4.9-9.6-3.2l-18.1,12.6
				c0.8,2.2,1.8,4.4,2.9,6.6C261.8,565.1,264.3,568.9,267.1,572.3z"/>
		</g>
		<linearGradient id="SVGID_21_" gradientUnits="userSpaceOnUse" x1="243.8326" y1="557.6274" x2="289.1062" y2="557.6274">
			<stop  offset="0" style="stop-color:#97BCCE"/>
			<stop  offset="1" style="stop-color:#5F899B"/>
		</linearGradient>
		<path class="st28" d="M276.9,540.2l-29.5,15.2c-4.1,1.9-4.4,8.4-2.4,13.1c1.9,4.4,7.3,9,11.9,6.4l28.7-15.8
			c5-3.1,3.5-9.9,2.1-12.9C286.3,542.9,281.2,537.9,276.9,540.2z"/>
		<linearGradient id="SVGID_22_" gradientUnits="userSpaceOnUse" x1="246.7114" y1="570.0556" x2="257.7365" y2="560.2224">
			<stop  offset="0" style="stop-color:#9DC2D4"/>
			<stop  offset="1" style="stop-color:#C3D9E4"/>
		</linearGradient>
		<path class="st29" d="M245.2,568.9c-2.6-5.4-1.7-11.5,2.2-13.5c3.8-2.1,9.1,0.6,11.8,6s1.7,11.5-2.2,13.5
			C253.1,577,247.9,574.3,245.2,568.9z"/>
	</g>
	<g class="st30">
		<g>
			<path class="st31" d="M385.9,427.1c-13.2,0.7-87.2,5.1-87.2,5.1l79.9-25.2c35.3-2.1,51-47.4,63.7-37.2
				c13,10.5,10.7,32.9,2.8,47.4c-8.4,14.7-24,25.9-39.7,23.9C391.6,439.3,399.1,426.4,385.9,427.1z"/>
		</g>
	</g>
	<g>
		<g>
			
				<ellipse transform="matrix(0.9978 -6.678093e-02 6.678093e-02 0.9978 -24.1932 28.4376)" cx="413.3" cy="376.1" rx="28.8" ry="39.8"/>
			<path d="M414.5,416.3c-5.1,0-10.1-1.8-14.7-5.3c-8.3-6.4-14.1-17.7-15.5-30.4c-2.5-22,8.5-41.9,24.5-44.4c6.2-1,12.4,0.8,18,5
				c8.3,6.4,14.1,17.7,15.5,30.4l0,0c2.5,22-8.5,41.9-24.5,44.4C416.7,416.2,415.6,416.3,414.5,416.3z M412.1,336.8
				c-1.1,0-2.1,0.1-3.2,0.2c-15.5,2.4-26.2,21.8-23.7,43.4c1.4,12.5,7.1,23.6,15.2,29.8c5.4,4.1,11.3,5.8,17.3,4.9
				c15.5-2.4,26.2-21.8,23.7-43.4l0,0c-1.4-12.5-7.1-23.6-15.2-29.8C421.8,338.6,416.9,336.8,412.1,336.8z"/>
		</g>
		<g>
			<linearGradient id="SVGID_23_" gradientUnits="userSpaceOnUse" x1="132.6799" y1="400.0606" x2="139.2854" y2="437.7119">
				<stop  offset="0" style="stop-color:#638D9F"/>
				<stop  offset="1" style="stop-color:#9DC2D4"/>
			</linearGradient>
			<path class="st32" d="M116.8,428.8l39.1-5.9c5.5-0.8,6.6-7.8,6.3-11.2c-0.3-3.5-3.4-10.3-8.7-9.4l-38.7,5.9
				c-5.8,1.2-6.6,8.1-6.3,11.5C108.9,423.2,112,429.5,116.8,428.8z"/>
			<radialGradient id="SVGID_24_" cx="135.4232" cy="415.5589" r="22.1572" gradientUnits="userSpaceOnUse">
				<stop  offset="0" style="stop-color:#C6DAE5"/>
				<stop  offset="1" style="stop-color:#C6DAE5;stop-opacity:0"/>
			</radialGradient>
			<path class="st33" d="M116.1,429.9c-1.4,0-2.8-0.5-4-1.5c-2.6-2.1-4.2-6-4.5-8.7c-0.3-4,0.8-11.2,7.1-12.5l38.7-5.9
				c1.8-0.3,3.6,0.2,5.1,1.4c3,2.3,4.4,6.6,4.7,9c0.4,4.3-1.2,11.4-7.2,12.3l-39.1,5.9C116.7,429.9,116.4,429.9,116.1,429.9z
				 M154.5,403.2c-0.3,0-0.5,0-0.8,0.1l-38.7,5.9c-6.1,1.3-5.5,10-5.5,10.4c0.2,2.3,1.6,5.6,3.7,7.3c1.1,0.8,2.2,1.2,3.4,1l39.1-5.9
				c4.8-0.7,5.8-7.1,5.5-10.1c-0.2-2-1.5-5.8-3.9-7.6C156.5,403.6,155.5,403.2,154.5,403.2z"/>
		</g>
		<linearGradient id="SVGID_25_" gradientUnits="userSpaceOnUse" x1="127.3201" y1="413.4662" x2="173.1785" y2="413.4662">
			<stop  offset="0" style="stop-color:#9EC3D5"/>
			<stop  offset="1" style="stop-color:#588395"/>
		</linearGradient>
		<path class="st34" d="M172.9,410c1.9,17.3-6.6,32.9-19.1,34.8c-12.5,1.9-24.2-10.5-26.2-27.8c-1.9-17.3,6.6-32.9,19.1-34.8
			S171,392.7,172.9,410z"/>
		<g>
			<linearGradient id="SVGID_26_" gradientUnits="userSpaceOnUse" x1="155.7545" y1="368.1913" x2="171.6077" y2="450.76">
				<stop  offset="0" style="stop-color:#729BAD"/>
				<stop  offset="0.3444" style="stop-color:#A4C9DB"/>
				<stop  offset="1" style="stop-color:#477486"/>
			</linearGradient>
			<path class="st35" d="M196.1,406.5c2.8,24.5-9.4,46.5-27.1,49.2c-17.7,2.7-34.3-14.9-37-39.4c-2.8-24.5,9.4-46.5,27.1-49.2
				S193.4,382,196.1,406.5z"/>
			<linearGradient id="SVGID_27_" gradientUnits="userSpaceOnUse" x1="131.6147" y1="411.4521" x2="196.5065" y2="411.4521">
				<stop  offset="0" style="stop-color:#C7DBE6"/>
				<stop  offset="1" style="stop-color:#C7DBE6;stop-opacity:0"/>
			</linearGradient>
			<path class="st36" d="M162.7,366.9v2c15.5,0,29,16.3,31.4,37.9c2.6,23.4-8.8,44.5-25.4,47c-1.1,0.2-2.2,0.3-3.3,0.3
				c-15.5,0-29-16.3-31.4-37.9c-2.6-23.4,8.8-44.5,25.4-47c1.1-0.2,2.2-0.3,3.3-0.3L162.7,366.9 M162.7,366.9
				c-1.2,0-2.4,0.1-3.6,0.3c-17.7,2.7-29.8,24.8-27.1,49.2c2.6,22.8,17.1,39.6,33.4,39.6c1.2,0,2.4-0.1,3.6-0.3
				c17.7-2.7,29.8-24.8,27.1-49.2C193.5,383.7,179,366.9,162.7,366.9L162.7,366.9z"/>
		</g>
		<path class="st9" d="M176.5,445L402,413.6c18.9-2.7,22.8-26.9,21.8-38.5c-1.1-12.1-11.6-35.5-29.7-32.4l-224.1,31.2
			c-19.8,4.2-22.6,27.9-21.7,39.4C149.3,425.5,159.9,447.4,176.5,445z"/>
		<radialGradient id="SVGID_28_" cx="405.5832" cy="361.3263" r="46.7452" gradientUnits="userSpaceOnUse">
			<stop  offset="0" style="stop-color:#A4C9DB"/>
			<stop  offset="1" style="stop-color:#477486"/>
		</radialGradient>
		<path class="st37" d="M456.3,369.8c2.8,24.5-9.4,46.5-27.1,49.2c-17.7,2.7-34.3-14.9-37-39.4s9.4-46.5,27.1-49.2
			C437,327.7,453.6,345.4,456.3,369.8z"/>
		<linearGradient id="SVGID_29_" gradientUnits="userSpaceOnUse" x1="280.3181" y1="345.2016" x2="284.2814" y2="440.3207">
			<stop  offset="0" style="stop-color:#F8EFC8"/>
			<stop  offset="0.6112" style="stop-color:#E0C99D"/>
			<stop  offset="1" style="stop-color:#B2A094"/>
		</linearGradient>
		<path class="st38" d="M405.5,337.3c-50.4,13.1-183.1,27.9-228.1,31.9c-9.5,0.8-17.9,11-20.4,18c2.2,2.4,8.1,4.9,8.1,4.9
			c-4,0.4-7.7,1-10.7,2.3c-1.4,3.1-2.5,17.7-0.1,24.8c1.1,0,3.9,0.7,6.2,1.4c-1.9,0.9-3.6,2.3-4.7,4.3c1.6,4.3,4,8.4,6.7,12.2
			c1.7-0.2,4.5,0.2,7.7,0.9c0,0-4.2,0.1-5.6,1.5c1.7,2.1,9.9,10.8,21.6,8.6c19.1-3.6,132.5-25.4,227-32.1
			c-12.7-0.5-23.2-14.5-26.2-24.4c-5.4-1.6-7.6-2.3-12.4-2.3c5.7-0.3,6.4-0.3,11.2-1.4c-1.5-8.7-1.5-22.1,0.6-28.2
			c-1.5-0.8-3.8-1.1-6.3-1.2c2.9-0.9,5.7-2.2,8.2-3.8C391.9,347,397.8,341.6,405.5,337.3z"/>
		<g>
			<linearGradient id="SVGID_30_" gradientUnits="userSpaceOnUse" x1="390.8069" y1="374.7722" x2="457.694" y2="374.7722">
				<stop  offset="0" style="stop-color:#C5DAE5"/>
				<stop  offset="0.9995" style="stop-color:#477486"/>
			</linearGradient>
			<path class="st39" d="M425.6,420.4c-5.8,0-11.5-2.1-16.7-6c-9.4-7.2-16-20.1-17.6-34.5c-2.8-25,9.7-47.5,27.9-50.3
				c7.1-1.1,14.2,0.9,20.5,5.7c9.4,7.2,16,20.1,17.6,34.5c2.8,25-9.7,47.5-27.9,50.3C428.1,420.3,426.9,420.4,425.6,420.4z
				 M422.9,331.2c-1.2,0-2.3,0.1-3.5,0.3c-17.2,2.6-28.9,24.2-26.2,48.1c1.6,13.9,7.9,26.2,16.9,33.1c5.9,4.5,12.5,6.4,19,5.4
				c17.2-2.6,28.9-24.2,26.2-48.1c-1.6-13.9-7.9-26.2-16.9-33.1C433.6,333.1,428.3,331.2,422.9,331.2z"/>
		</g>
		<g>
			<radialGradient id="SVGID_31_" cx="412.1887" cy="361.3263" r="34.6143" gradientUnits="userSpaceOnUse">
				<stop  offset="0" style="stop-color:#B0D3E4"/>
				<stop  offset="1" style="stop-color:#7BAABE"/>
			</radialGradient>
			<path class="st40" d="M451.9,370.6c1.9,17.3-6.6,32.9-19.1,34.8c-12.5,1.9-24.2-10.5-26.2-27.8c-1.9-17.3,6.6-32.9,19.1-34.8
				S449.9,353.3,451.9,370.6z"/>
			<linearGradient id="SVGID_32_" gradientUnits="userSpaceOnUse" x1="405.2734" y1="374.0995" x2="453.1277" y2="374.0995">
				<stop  offset="0" style="stop-color:#C5DAE5"/>
				<stop  offset="1" style="stop-color:#7CABBE;stop-opacity:0"/>
			</linearGradient>
			<path class="st41" d="M430.1,406.6c-4.2,0-8.3-1.5-12-4.3c-6.7-5.1-11.4-14.3-12.6-24.6c-2-17.8,7-33.9,20-35.9
				c5.1-0.8,10.2,0.6,14.7,4.1c6.7,5.1,11.4,14.3,12.6,24.6c2,17.8-7,33.9-20,35.9C432,406.5,431.1,406.6,430.1,406.6z M428.2,343.6
				c-0.8,0-1.6,0.1-2.4,0.2c-12,1.8-20.2,17-18.3,33.7c1.1,9.7,5.5,18.4,11.8,23.2c4.1,3.1,8.7,4.4,13.2,3.7
				c12-1.8,20.2-17,18.3-33.7c-1.1-9.7-5.5-18.4-11.8-23.2C435.7,344.9,432,343.6,428.2,343.6z"/>
		</g>
		<linearGradient id="SVGID_33_" gradientUnits="userSpaceOnUse" x1="464.2219" y1="359.9791" x2="433.8366" y2="384.4194">
			<stop  offset="0" style="stop-color:#9DC2D4"/>
			<stop  offset="1" style="stop-color:#537F91"/>
		</linearGradient>
		<path class="st42" d="M433.3,384.4l33-3.8c4.5-0.4,7-6.4,6.8-11.4c-0.2-4.8-3.6-11-8.9-10.1l-32.4,4.7c-5.8,1.1-6.7,8-6.5,11.4
			C425.5,378.6,428.5,385,433.3,384.4z"/>
		<linearGradient id="SVGID_34_" gradientUnits="userSpaceOnUse" x1="457.3209" y1="369.7468" x2="473.1481" y2="369.7468">
			<stop  offset="0" style="stop-color:#9DC2D4"/>
			<stop  offset="1" style="stop-color:#C3D9E4"/>
		</linearGradient>
		<path class="st43" d="M473.1,368.7c0.6,6-2.5,11.3-6.8,11.9s-8.3-3.8-8.9-9.8c-0.6-6,2.5-11.3,6.8-11.9S472.5,362.7,473.1,368.7z"
			/>
	</g>
</g>
</svg>
