<svg width="603" height="553" viewBox="0 0 603 553" fill="none" xmlns="http://www.w3.org/2000/svg">
<path d="M385.721 312.54C393.404 328.123 383.086 346.575 365.782 348.133C246.732 358.848 166.113 359.199 44.2206 349.753C26.8596 348.408 16.2958 330.026 23.8464 314.335C76.826 204.239 116.51 134.069 182.895 35.1818C192.611 20.7086 213.832 20.5589 223.738 34.903C289.865 130.662 330.411 200.366 385.721 312.54Z" fill="url(#paint0_linear)"/>
<rect x="518.281" y="384.54" width="118.87" height="118.87" rx="21" transform="rotate(45 518.281 384.54)" fill="url(#paint1_linear)"/>
<path d="M102.862 175.907C78.3493 175.907 58.4777 156.036 58.4777 131.523C58.4777 107.01 78.3493 87.1387 102.862 87.1387C127.375 87.1387 147.246 107.01 147.246 131.523C147.246 156.036 127.375 175.907 102.862 175.907Z" fill="#FFCA62"/>
<path d="M391.273 100.357C383.863 100.357 377.855 94.3498 377.855 86.9392C377.855 79.5285 383.863 73.521 391.273 73.521C398.684 73.521 404.691 79.5285 404.691 86.9392C404.691 94.3498 398.684 100.357 391.273 100.357Z" fill="#8FE6FA"/>
<g style="mix-blend-mode:multiply" opacity="0.3" filter="url(#filter0_f)">
<path d="M507.899 84.2283C440.617 107.522 250.533 180.458 151.702 218.679L151.774 218.877C121.334 230.669 98.6892 239.179 92.1458 241.638L92.1443 241.639L92.1431 241.639L92.1224 241.647C90.9583 242.085 90.3102 242.328 90.2257 242.362C99.0913 266.939 108.18 291.516 117.601 315.871L117.29 315.986L117.644 315.982L117.817 316.428L118.015 316.663L113.294 375.681C128.184 392.281 143.404 409.506 158.58 426.681L158.587 426.689C171.529 441.336 184.438 455.946 197.085 470.102C322.376 427.667 434.771 382.969 550.873 336.215L552.85 335.431L554.758 309.756L554.705 309.811L557.127 276.738C552.753 271.963 538.64 256.039 523.156 238.51C523.676 228.349 520.184 217.9 513.252 210.248C511.217 208.099 509.068 206.177 506.354 205.159C505.676 204.933 504.997 204.933 504.545 205.272L502.174 206.323C501.096 204.713 499.968 203.152 498.665 201.767C496.401 199.244 493.692 197.128 490.772 195.334L490.781 195.331C490.675 195.269 490.57 195.207 490.466 195.146L490.362 195.085C489.762 194.725 489.153 194.378 488.538 194.044C485.985 192.623 483.817 191.594 481.982 191.065C481.701 190.98 481.417 190.907 481.134 190.848C478.701 188.085 476.684 185.794 475.207 184.115L479.664 182.475L479.852 182.446C479.789 182.474 479.812 182.472 479.932 182.434L479.852 182.446C480.789 182.027 500.732 174.775 500.732 174.775L500.729 174.775C514.448 169.795 526.679 165.432 536.847 161.913C533.418 153.532 530.041 144.842 526.723 136.039C526.023 134.09 523.599 127.633 522.741 125.349C518.671 114.311 514.7 103.218 510.843 92.4469C509.854 89.6841 508.873 86.9424 507.899 84.2283Z" fill="#395590"/>
</g>
<path d="M573.247 269L217.842 404.242C185.866 370.184 160.562 340.254 133.938 308.69L488.552 173.222C488.552 173.222 562.166 256.9 573.247 269Z" fill="url(#paint2_linear)"/>
<path d="M142.691 304.722C167.81 332.879 195.089 369.016 221.345 396.033C223.619 395.121 470.494 297.882 563.243 265.736C555.059 257.186 493.454 186.394 485.839 177.274L142.691 304.722Z" fill="url(#paint3_linear)"/>
<path d="M534.253 240.48C532.81 227.895 527.449 217.868 521.871 207.437C520.463 204.803 519.041 202.144 517.665 199.41L520.868 197.991L520.92 197.968L520.966 197.934C521.224 197.741 521.698 197.691 522.308 197.893C524.906 198.869 526.986 200.718 529.006 202.849C537.588 212.326 540.827 226.155 537.605 238.31C537.406 238.794 537.139 239.113 536.844 239.263L534.253 240.48Z" fill="url(#paint4_linear)" stroke="url(#paint5_radial)"/>
<path d="M533.592 235.602L533.592 235.603C535.914 247.766 534.823 260.955 528.777 271.729L513.56 278.607L482.175 188.784L493.985 184.452L494.069 184.421L494.147 184.375C494.844 183.965 495.691 183.872 496.67 184.021C497.655 184.17 498.69 184.552 499.68 184.992L499.679 184.992L499.685 184.994C505.045 187.339 510.217 190.435 514.042 194.697L514.05 194.706L514.058 194.714C515.794 196.56 517.217 198.743 518.695 201.017C525.556 211.703 531.251 223.226 533.592 235.602Z" fill="url(#paint6_linear)" stroke="url(#paint7_radial)" stroke-width="2"/>
<path d="M442.883 302.014L408.019 216.316L414.058 203.029L442.588 193.593L460.187 214.756L475.624 252.842L479.896 289.151L475.64 297.662L458.528 304.107L442.883 302.014Z" fill="url(#paint8_linear)" stroke="url(#paint9_radial)"/>
<path d="M409.873 221.151L415.492 208.787L441.752 200.102L457.895 219.516L471.893 254.051L475.776 287.054L471.791 295.024L456.056 300.95L441.547 299.009L409.873 221.151Z" fill="url(#paint10_linear)"/>
<path d="M518.97 275.219C517.839 263.007 516.482 250.794 514.899 238.582L476.113 252.717L480.41 289.241L518.97 275.219Z" fill="url(#paint11_linear)"/>
<path d="M479.166 179.442C485.159 186.34 492.509 193.69 498.955 200.135L460.663 214.543L442.704 192.926L479.166 179.442Z" fill="url(#paint12_linear)"/>
<path d="M460.169 183.512C464.805 180.459 471.59 181.703 475.435 186.226C479.166 190.749 478.488 196.969 473.965 200.022C469.441 203.075 462.544 201.831 458.699 197.308C454.854 192.785 455.533 186.566 460.169 183.512ZM458.473 181.477C452.593 185.435 451.575 193.124 456.324 198.891C461.074 204.545 469.668 206.015 475.548 202.17C481.428 198.213 482.445 190.523 477.696 184.756C473.06 178.989 464.466 177.632 458.473 181.477Z" fill="#355C6D"/>
<path d="M465.371 189.732C464.24 190.523 464.127 191.993 465.031 193.124C465.936 194.255 467.632 194.594 468.763 193.803C469.894 193.011 470.007 191.541 469.102 190.41C468.198 189.393 466.501 189.053 465.371 189.732Z" fill="#355C6D"/>
<path d="M516.325 283.036L518.957 275.216L480.38 289.229L475.985 298.09L516.325 283.036Z" fill="#C0AF9B"/>
<path d="M476.677 251.447L461.934 215.072L498.401 201.411L513.575 238L476.677 251.447Z" fill="url(#paint13_linear)" stroke="url(#paint14_radial)" stroke-width="2"/>
<path d="M215.821 389.426L180.845 303.841L186.995 290.551L215.527 281.004L233.125 302.278L248.563 340.365L252.835 376.561L248.69 384.85L231.464 391.629L215.821 389.426Z" fill="url(#paint15_linear)" stroke="url(#paint16_radial)"/>
<path d="M241.196 364.325C240.71 371.922 239.347 378.061 237.708 381.493C234.358 382.64 230.496 383.887 226.622 385.138L226.617 385.139C222.832 386.362 219.036 387.587 215.718 388.721L213.024 385.9L181.698 304.273C183.707 303.455 185.706 302.611 187.702 301.768C193.46 299.336 199.193 296.916 205.058 295.149C225.458 301.578 235.379 319.589 239.296 337.988C241.261 347.218 241.698 356.491 241.196 364.325Z" fill="url(#paint17_linear)" stroke="url(#paint18_radial)" stroke-width="2"/>
<path d="M330.709 344.87L295.845 259.174L301.884 245.998L330.416 236.45L348.126 257.613L363.45 295.698L367.722 332.008L363.578 340.296L346.463 346.964L330.709 344.87Z" fill="url(#paint19_linear)" stroke="url(#paint20_radial)"/>
<path d="M387.137 322.938L352.271 237.237L358.31 224.061L386.841 214.514L404.439 235.788L419.877 273.762L424.148 310.071L419.854 318.702L402.782 325.251L387.137 322.938Z" fill="url(#paint21_linear)" stroke="url(#paint22_radial)"/>
<path d="M463.222 296.252C462.091 284.039 460.734 271.827 459.151 259.615L420.365 273.636L424.662 310.161L463.222 296.252Z" fill="url(#paint23_linear)"/>
<path d="M354.809 243.437L360.428 231.074L386.385 221.521L402.529 240.935L416.527 275.47L420.41 308.473L416.425 316.443L400.69 322.369L386.181 320.427L354.809 243.437Z" fill="url(#paint24_linear)"/>
<path d="M298.103 264.926L303.723 252.562L329.68 243.01L345.824 262.423L359.822 296.959L363.705 329.961L359.72 337.931L343.985 343.857L329.476 341.916L298.103 264.926Z" fill="url(#paint25_linear)"/>
<path d="M423.418 200.361C429.411 207.259 436.762 214.609 443.207 221.055L404.873 235.529L387.007 213.931L423.418 200.361Z" fill="url(#paint26_linear)"/>
<path d="M460.678 303.818L463.204 296.266L424.66 310.157L420.164 319.124L460.678 303.818Z" fill="#C0AF9B"/>
<path d="M420.93 272.369L406.186 236.101L442.543 222.333L457.825 259.031L420.93 272.369Z" fill="url(#paint27_linear)" stroke="url(#paint28_radial)" stroke-width="2"/>
<path d="M381.127 198.891L392.887 194.481C393.566 194.255 394.583 194.481 395.149 195.16L404.761 206.58C405.213 207.033 405.213 207.598 404.874 207.937C404.534 208.277 403.856 208.39 403.177 208.164L381.806 201.153C381.127 200.927 380.675 200.474 380.562 200.022C380.336 199.457 380.562 199.004 381.127 198.891ZM393.566 197.195L385.99 200.022L399.785 204.545L393.566 197.195Z" fill="#355C6D"/>
<path d="M404.082 197.195C404.195 197.082 404.421 197.082 404.648 197.082C405.326 197.082 406.118 197.308 406.683 197.647L431.673 217.097C432.352 217.662 432.352 218.341 431.673 218.567L408.04 227.387C407.588 227.613 406.796 227.5 406.118 227.274C405.439 227.048 404.987 226.595 404.987 226.143L403.517 197.873C403.517 197.647 403.743 197.308 404.082 197.195ZM427.829 217.21L407.248 201.266L408.492 224.56L427.829 217.21Z" fill="#355C6D"/>
<path d="M406.796 318.189C405.665 305.977 404.308 293.764 402.725 281.552L363.939 295.573L368.236 332.098L406.796 318.189Z" fill="url(#paint29_linear)"/>
<path d="M366.992 222.298C372.986 229.196 380.336 236.546 386.781 242.992L348.561 257.353L330.49 235.732L366.992 222.298Z" fill="url(#paint30_linear)"/>
<path d="M404.195 325.652C404.195 325.087 406.909 318.981 406.909 318.189L368.226 332.102L363.929 340.696L404.195 325.652Z" fill="#C0AF9B"/>
<path d="M347.769 245.592C347.543 245.592 347.43 245.592 347.204 245.592C346.412 245.479 345.734 244.801 345.621 244.009L343.02 215.401C343.02 214.948 343.246 214.496 343.698 214.383C344.151 214.27 344.716 214.383 345.168 214.835L371.855 237.112C372.533 237.677 372.646 238.469 372.307 238.921C371.855 239.373 370.95 239.26 370.272 238.808L346.073 218.567L348.448 244.575C348.448 245.027 348.221 245.479 347.769 245.592Z" fill="#355C6D"/>
<path d="M359.868 242.313C355.571 243.444 349.917 240.73 347.43 236.32C344.829 231.91 346.299 227.387 350.596 226.369C354.893 225.238 360.547 227.952 363.035 232.362C365.635 236.772 364.278 241.183 359.868 242.313ZM352.066 228.857C349.126 229.649 348.108 232.702 349.917 235.755C351.727 238.808 355.571 240.617 358.511 239.826C361.451 239.034 362.469 235.981 360.66 232.928C358.851 229.988 355.006 228.179 352.066 228.857Z" fill="#355C6D"/>
<path d="M364.507 294.305L349.87 257.929L386.227 244.268L401.401 280.967L364.507 294.305Z" fill="url(#paint31_linear)" stroke="url(#paint32_radial)" stroke-width="2"/>
<path d="M214.304 388.742C233.64 363.073 217.842 306.655 185.162 302.924C179.508 302.245 174.533 307.334 172.611 312.762C170.688 318.076 171.027 323.956 171.48 329.61L172.95 340.692C188.422 359.868 197.344 370.47 214.304 388.742Z" fill="url(#paint33_linear)"/>
<path d="M217.842 404.242C189.233 373.936 134.164 308.577 134.164 308.577C132.581 328.366 130.998 348.155 129.415 367.943C157.006 398.701 185.728 431.606 213.206 462.364C214.789 443.254 216.372 423.239 217.842 404.242Z" fill="#845543"/>
<path d="M272.247 367.487L237.384 281.79L243.423 268.614L271.954 259.067L289.552 280.229L304.989 318.315L309.261 354.624L305.117 362.911L287.89 369.58L272.247 367.487Z" fill="url(#paint34_linear)" stroke="url(#paint35_radial)"/>
<path d="M239.806 287.807L245.425 275.443L271.383 265.891L287.527 285.304L301.525 319.84L305.407 352.843L301.422 360.812L285.687 366.738L271.178 364.797L239.806 287.807Z" fill="url(#paint36_linear)"/>
<path d="M348.334 340.805C347.204 328.592 345.847 316.38 344.264 304.167L305.478 318.189L309.775 354.714L348.334 340.805Z" fill="url(#paint37_linear)"/>
<path d="M308.531 244.914C314.524 251.812 321.874 259.162 328.319 265.607L289.99 279.971L271.998 258.37L308.531 244.914Z" fill="url(#paint38_linear)"/>
<path d="M346.073 348.042C346.073 347.476 348.334 341.596 348.334 340.805L309.775 354.713L305.478 363.307L346.073 348.042Z" fill="#C0AF9B"/>
<path d="M315.994 262.102L304.234 266.625C303.555 266.851 302.764 266.512 302.425 265.834L297.562 253.282C297.336 252.716 297.449 252.151 297.901 251.812C298.354 251.473 298.919 251.36 299.371 251.586L315.994 259.614C316.446 259.84 316.786 260.406 316.786 260.858C316.786 261.423 316.446 261.989 315.994 262.102ZM304.46 263.685L312.036 260.745L301.294 255.543L304.46 263.685Z" fill="#355C6D"/>
<path d="M292.474 271.262C292.361 271.375 292.134 271.375 292.021 271.375C291.456 271.375 291.004 271.035 290.777 270.47L280.94 245.367C280.713 244.688 281.053 243.897 281.731 243.557L305.252 234.398C305.704 234.172 306.382 234.285 306.722 234.737C307.061 235.076 307.174 235.642 307.061 236.207L293.378 270.47C293.152 270.922 292.813 271.148 292.474 271.262ZM283.993 245.593L292.021 266.286L303.216 238.13L283.993 245.593Z" fill="#355C6D"/>
<path d="M306.043 316.921L291.298 280.544L327.654 266.883L342.937 303.583L306.043 316.921Z" fill="url(#paint39_linear)" stroke="url(#paint40_radial)" stroke-width="2"/>
<path d="M174.759 329.497C178.378 327.914 186.972 324.635 186.972 324.635C194.774 327.688 199.184 334.699 202.124 342.501C204.951 350.304 205.516 359.576 201.785 367.039L201.219 367.718C200.202 368.283 198.506 369.188 197.488 369.866L168.879 335.83L174.759 329.497Z" fill="url(#paint41_linear)"/>
<path d="M174.287 329.988C177.195 329.471 179.966 331.339 182.349 333.382C192.8 342.355 193.541 355.976 192.626 363.367L169.311 335.476C170.01 332.753 171.798 330.488 174.287 329.988Z" fill="url(#paint42_linear)" stroke="url(#paint43_radial)"/>
<path d="M291.795 362.742C290.664 350.529 289.307 338.317 287.724 326.104L248.938 340.126L253.235 376.651L291.795 362.742Z" fill="url(#paint44_linear)"/>
<path d="M252.023 266.976C258.016 273.873 265.366 281.223 271.811 287.669L233.591 302.03L215.724 280.432L252.023 266.976Z" fill="url(#paint45_linear)"/>
<path d="M289.194 369.979C289.194 369.413 291.795 363.533 291.795 362.742L253.246 376.646L249.052 385.244L289.194 369.979Z" fill="#C0AF9B"/>
<path d="M257.419 285.736L243.963 290.711C243.171 291.05 242.041 290.711 241.362 290.033C240.797 289.354 240.91 288.563 241.701 288.223L253.688 283.813L233.786 260.858L213.771 268.208C212.98 268.548 211.849 268.208 211.17 267.53C210.605 266.851 210.718 266.06 211.51 265.721L233.107 257.805C233.899 257.466 235.03 257.805 235.708 258.484L257.759 284.039C258.437 284.605 258.324 285.509 257.419 285.736Z" fill="#355C6D"/>
<path d="M243.058 280.082L237.857 282.004C234.238 283.361 229.037 281.891 226.21 278.725C223.496 275.559 224.174 271.94 227.906 270.583L233.107 268.661C233.899 268.322 235.03 268.661 235.708 269.339L243.398 278.273C243.963 279.064 243.85 279.856 243.058 280.082ZM230.054 273.071C228.019 273.863 227.567 275.898 229.15 277.594C230.733 279.403 233.56 280.195 235.595 279.403L239.327 278.046L233.786 271.601L230.054 273.071Z" fill="#355C6D"/>
<g style="mix-blend-mode:multiply" opacity="0.36">
<path d="M186.315 307.67L133.411 308.248L491.32 176.377L497.256 183.113C499.745 183.643 502.91 185.244 506.902 187.593L186.315 307.67Z" fill="#4B2D23"/>
</g>
<path d="M106.347 234.624C115.28 259.388 124.439 284.152 133.938 308.69C154.292 301.68 177.134 294.556 197.714 288.223C197.827 288.223 198.166 287.997 198.845 287.771C189.912 265.268 178.038 234.059 169.444 210.538C132.694 224.786 106.912 234.398 106.347 234.624Z" fill="url(#paint46_linear)"/>
<path opacity="0.13" fill-rule="evenodd" clip-rule="evenodd" d="M180.567 245.202C177.591 252.196 169.509 260.259 167.323 266.928C164.1 276.757 167.769 287.761 170.969 296.614C172.886 296.009 173.529 295.785 175.438 295.187C172.034 280.098 175.174 267.697 184.436 255.916C183.621 253.783 181.38 247.344 180.567 245.202Z" fill="#2A1812"/>
<path opacity="0.13" fill-rule="evenodd" clip-rule="evenodd" d="M169.853 216.185C163.008 233.298 148.127 242.524 141.85 261.205C136.855 275.674 137.013 291.197 141.37 306.175C143.256 305.544 144.281 305.355 146.192 304.724C142.472 292.076 140.984 284.189 147.522 263.163C151.881 250.536 163.156 243.565 174.475 229.119C173.745 227.166 170.56 218.09 169.853 216.185Z" fill="#2A1812"/>
<path d="M198.064 286.236C189.277 264.207 177.997 234.559 169.734 211.81C268.269 173.709 454.974 102.08 523.109 78.3939C523.917 80.6491 524.731 82.9228 525.551 85.2114C533.57 107.611 542.101 131.439 550.981 153.276C462.31 184.065 224.931 275.786 198.064 286.236Z" fill="url(#paint47_linear)" stroke="url(#paint48_radial)" stroke-width="3"/>
<path opacity="0.06" fill-rule="evenodd" clip-rule="evenodd" d="M180.567 245.202C211.823 242.579 260.005 229.272 338.931 206.328C417.857 183.385 477.611 163.871 516.853 167.037C516.853 167.037 494.144 175.294 496.053 174.696C427.451 185.021 239.356 248.545 184.436 255.916C183.621 253.783 181.38 247.344 180.567 245.202Z" fill="#2A1812"/>
<path opacity="0.06" fill-rule="evenodd" clip-rule="evenodd" d="M169.755 216.302C201.012 213.679 253.338 201.916 332.264 178.973C411.191 156.029 476.422 123.879 538.557 116.802C538.557 116.802 541.989 125.919 542.845 128.301C474.244 138.625 316.482 199.358 174.485 229.099C173.671 226.966 170.569 218.443 169.755 216.302Z" fill="#2A1812"/>
<path d="M573.247 269C480.975 300.888 217.842 404.242 217.842 404.242L213.206 462.364C216.146 461.799 477.131 364.777 568.95 327.688L573.247 269Z" fill="url(#paint49_linear)"/>
<path opacity="0.47" fill-rule="evenodd" clip-rule="evenodd" d="M216.597 419.825C247.854 417.202 297.758 394.555 376.685 371.611C455.611 348.667 528.292 314.504 557.383 274.569C557.383 274.569 567.272 270.988 569.181 270.39C576.583 324.784 270.454 426.436 215.534 433.808L216.597 419.825Z" fill="#3A2721"/>
<path opacity="0.1" fill-rule="evenodd" clip-rule="evenodd" d="M216.578 419.994C206.542 417.372 178.179 393.916 172.233 386.119C166.287 378.323 153.975 357.069 155.414 333.684C155.414 333.684 146.259 322.732 145.646 322.134C143.269 376.528 197.899 426.436 215.534 433.808L216.578 419.994Z" fill="#3A2721"/>
<path opacity="0.47" fill-rule="evenodd" clip-rule="evenodd" d="M304.019 370.559C360.106 365.368 478.515 338.551 509.935 291.973C509.935 291.973 519.629 288.383 521.36 287.785C519.033 318.221 397.854 365.768 245.918 393.246L304.019 370.559Z" fill="#3A2721"/>
<path opacity="0.47" fill-rule="evenodd" clip-rule="evenodd" d="M404.403 391.155C435.965 356.679 505.048 371.1 570.879 302.018L568.971 327.693C504.892 353.107 468.818 367.135 404.403 391.155Z" fill="#3A2721"/>
<path d="M249.616 338.969L234.872 302.594L271.229 288.933L286.511 325.523L249.616 338.969Z" fill="url(#paint50_linear)" stroke="url(#paint51_radial)" stroke-width="2"/>
<path d="M270.997 340.749C275.696 337.864 280.053 340.36 280.683 346.32C281.313 352.28 277.966 359.343 273.255 362.115C268.545 364.887 264.2 362.503 263.57 356.543C262.94 350.583 266.287 343.521 270.997 340.749ZM270.712 338.05C264.611 341.651 260.33 350.632 261.102 357.941C261.875 365.25 267.428 368.302 273.529 364.701C279.629 361.1 283.911 352.119 283.138 344.81C282.354 337.388 276.813 334.449 270.712 338.05Z" fill="#355C6D"/>
<path d="M271.841 348.733C270.663 349.426 269.93 351.095 270.085 352.557C270.239 354.019 271.323 354.587 272.388 353.906C273.453 353.225 274.298 351.543 274.144 350.081C274.114 348.72 273.03 348.152 271.841 348.733Z" fill="#355C6D"/>
<path d="M279.13 324.069L257.419 332.098C256.741 332.324 255.836 331.985 255.497 331.193C255.158 330.402 255.271 329.61 255.949 329.384L277.66 321.355C278.339 321.129 279.243 321.468 279.583 322.26C280.035 322.939 279.809 323.843 279.13 324.069Z" fill="#355C6D"/>
<path d="M264.883 321.581C260.246 323.278 253.575 319.433 250.182 312.987C246.79 306.542 247.695 299.87 252.444 298.174C257.08 296.478 263.752 300.323 267.144 306.768C270.536 313.214 269.519 319.885 264.883 321.581ZM253.801 300.775C250.409 302.019 249.843 307.22 252.444 312.196C255.158 317.284 260.133 320.337 263.526 319.094C266.918 317.85 267.483 312.648 264.883 307.673C262.282 302.697 257.193 299.531 253.801 300.775Z" fill="#355C6D"/>
<path d="M332.843 297.269L310.227 305.524C309.888 305.637 309.322 305.637 308.983 305.411C308.644 305.185 308.418 304.845 308.418 304.393L308.531 279.629C308.531 279.177 308.757 278.837 309.209 278.724C309.661 278.611 310.114 278.611 310.566 278.951L333.182 295.46C333.521 295.686 333.747 296.138 333.634 296.478C333.521 296.817 333.295 297.156 332.843 297.269ZM311.018 302.923L330.016 295.912L311.018 282.117V302.923Z" fill="#355C6D"/>
<path d="M322.1 289.806L310.566 293.99C310.001 294.216 309.209 293.99 308.87 293.425C308.531 292.86 308.87 292.181 309.435 291.955L320.969 287.771C321.535 287.545 322.326 287.771 322.666 288.336C323.005 288.902 322.779 289.58 322.1 289.806Z" fill="#355C6D"/>
<path d="M339.514 338.543L320.856 345.78C320.178 346.006 319.612 345.78 319.612 345.215L318.595 328.253C318.595 327.688 319.047 327.009 319.726 326.67L338.383 319.433C339.062 319.207 339.627 319.433 339.627 319.998L340.645 336.96C340.645 337.638 340.193 338.317 339.514 338.543ZM321.874 343.179L338.157 336.847L337.253 322.034L320.969 328.366L321.874 343.179Z" fill="#355C6D"/>
<path d="M339.514 338.657L314.976 348.155C314.298 348.381 313.732 348.155 313.732 347.59C313.732 347.024 314.185 346.346 314.863 346.007L339.401 336.508C340.08 336.282 340.645 336.508 340.645 337.073C340.645 337.752 340.193 338.43 339.514 338.657Z" fill="#355C6D"/>
<path d="M338.157 316.38L319.499 323.617C318.821 323.843 318.256 323.617 318.256 323.051C318.256 322.486 318.708 321.807 319.386 321.468L338.044 314.231C338.723 314.005 339.288 314.231 339.288 314.797C339.401 315.362 338.836 316.04 338.157 316.38Z" fill="#355C6D"/>
<path d="M382.823 324.295C378.526 326.218 375.021 324.521 375.021 320.677C375.021 316.719 378.526 311.97 382.823 310.047C387.12 308.125 390.626 309.821 390.626 313.666C390.513 317.624 387.007 322.373 382.823 324.295ZM382.823 312.648C380.109 313.892 377.848 316.945 377.848 319.433C377.848 321.921 380.109 323.051 382.823 321.808C385.537 320.564 387.799 317.511 387.799 315.023C387.799 312.422 385.537 311.404 382.823 312.648Z" fill="#355C6D"/>
<path d="M394.131 319.207C393.34 319.546 392.774 319.207 392.774 318.528V292.407C392.774 291.729 393.453 290.824 394.131 290.485C394.923 290.146 395.488 290.485 395.488 291.163V317.284C395.488 318.076 394.923 318.868 394.131 319.207Z" fill="#355C6D"/>
<path d="M394.131 307.56L382.71 312.648C381.919 312.987 381.353 312.648 381.353 311.97C381.353 311.291 382.032 310.387 382.71 310.047L394.131 304.959C394.923 304.62 395.488 304.959 395.488 305.637C395.488 306.316 394.923 307.22 394.131 307.56Z" fill="#355C6D"/>
<path d="M376.378 321.355C375.586 321.694 375.021 321.355 375.021 320.677C375.021 311.404 383.163 296.478 383.502 295.913C383.954 295.121 384.859 294.556 385.424 294.669C386.103 294.782 386.216 295.46 385.763 296.252C385.65 296.365 377.735 310.952 377.735 319.433C377.735 320.111 377.169 321.016 376.378 321.355Z" fill="#355C6D"/>
<path d="M430.316 264.929C429.638 265.155 428.846 264.929 428.62 264.251L418.443 240.052C418.217 239.373 418.443 238.582 419.122 238.356C419.8 238.129 420.592 238.356 420.818 239.034L430.995 263.233C431.221 263.798 430.882 264.59 430.316 264.929Z" fill="#355C6D"/>
<path d="M433.143 249.437L425.228 252.83C424.549 253.056 423.758 252.83 423.532 252.151C423.305 251.473 423.532 250.681 424.21 250.455L432.126 247.063C432.804 246.836 433.596 247.063 433.822 247.741C434.048 248.42 433.822 249.098 433.143 249.437Z" fill="#355C6D"/>
<path d="M438.91 251.699C435.97 252.943 432.691 251.586 431.447 248.646C430.203 245.706 431.56 242.313 434.5 241.069C437.44 239.825 440.719 241.182 441.963 244.122C443.207 247.062 441.85 250.455 438.91 251.699ZM435.518 243.444C433.935 244.122 433.143 245.932 433.822 247.515C434.5 249.098 436.309 249.889 437.892 249.211C439.476 248.532 440.267 246.723 439.589 245.14C438.91 243.557 437.101 242.765 435.518 243.444Z" fill="#355C6D"/>
<path d="M447.957 256.9C447.843 256.9 447.843 256.9 447.73 257.013C440.946 258.597 434.161 255.091 431.447 248.646C428.846 242.426 430.995 235.076 436.536 231.232C437.101 230.779 437.893 231.005 438.345 231.571C438.797 232.136 438.571 232.928 438.006 233.38C433.482 236.546 431.786 242.426 433.822 247.628C435.97 252.943 441.624 255.77 447.165 254.526C447.843 254.413 448.522 254.752 448.748 255.543C448.861 256.109 448.522 256.674 447.957 256.9Z" fill="#355C6D"/>
<path d="M387.573 278.385L371.742 283.587C371.289 283.7 370.724 283.7 370.385 283.361C370.045 283.021 369.932 282.569 370.045 282.117L378.413 257.918L371.742 260.067C371.063 260.293 370.272 259.953 370.045 259.388C369.819 258.823 370.159 258.144 370.837 257.918L379.883 254.978C380.336 254.865 380.901 254.865 381.24 255.204C381.579 255.543 381.693 255.996 381.579 256.448L373.212 280.647L385.424 276.576L383.615 271.714C383.389 271.148 383.728 270.47 384.406 270.244C385.085 270.017 385.876 270.357 386.103 270.922L388.364 276.915C388.59 277.481 388.251 278.159 387.573 278.385Z" fill="#355C6D"/>
<path d="M493.98 283.022C493.301 283.361 492.736 282.909 492.623 282.23L490.135 255.657C490.022 254.978 490.587 254.074 491.266 253.848C491.944 253.508 492.51 253.961 492.623 254.639L495.11 281.213C495.223 281.891 494.658 282.683 493.98 283.022Z" fill="#355C6D"/>
<path d="M500.312 280.307C499.633 280.647 499.068 280.194 498.955 279.516L496.467 252.943C496.354 252.264 496.919 251.359 497.598 251.133C498.276 250.907 498.842 251.246 498.955 251.925L501.443 278.498C501.556 279.177 500.99 280.081 500.312 280.307Z" fill="#355C6D"/>
<path d="M506.192 257.353L498.842 260.519C498.163 260.858 497.598 260.406 497.485 259.727C497.372 259.049 497.937 258.144 498.616 257.918L505.966 254.752C506.644 254.413 507.21 254.865 507.323 255.543C507.436 256.222 506.87 257.126 506.192 257.353Z" fill="#355C6D"/>
<path d="M507.436 271.149L500.086 274.315C499.407 274.654 498.842 274.202 498.729 273.523C498.616 272.845 499.181 271.94 499.859 271.714L507.21 268.548C507.888 268.208 508.453 268.661 508.567 269.339C508.567 270.018 508.114 270.809 507.436 271.149Z" fill="#355C6D"/>
<path d="M451.575 295.347C451.01 295.574 450.444 295.234 450.331 294.556L448.635 279.064C448.183 275.332 445.016 273.297 441.398 274.654C437.892 276.011 435.292 280.082 435.744 283.813L437.44 299.305C437.553 299.984 437.101 300.662 436.422 300.888C435.857 301.114 435.292 300.775 435.179 300.097L433.482 284.605C432.917 279.516 436.309 273.976 441.172 272.166C445.921 270.357 450.331 273.071 450.897 278.159L452.593 293.651C452.593 294.443 452.14 295.121 451.575 295.347Z" fill="#355C6D"/>
<path d="M443.094 290.258L438.345 287.318L442.076 281.325L446.826 284.265L443.094 290.258ZM441.511 286.188L442.642 286.866L443.546 285.396L442.416 284.718L441.511 286.188Z" fill="#355C6D"/>
<path d="M439.362 300.775L433.709 302.81C433.143 303.037 432.578 302.697 432.465 302.019C432.352 301.34 432.804 300.662 433.482 300.436L439.136 298.4C439.702 298.174 440.267 298.513 440.38 299.192C440.38 299.757 439.928 300.436 439.362 300.775Z" fill="#355C6D"/>
<path d="M454.402 295.121L448.748 297.157C448.183 297.383 447.617 297.044 447.504 296.365C447.391 295.687 447.843 295.008 448.522 294.782L454.176 292.747C454.741 292.52 455.307 292.86 455.42 293.538C455.533 294.217 455.08 294.895 454.402 295.121Z" fill="#355C6D"/>
<path d="M488.099 216.305L478.601 219.585C477.809 219.811 476.792 219.472 476.452 218.793C476 218.115 476.339 217.21 477.131 216.984L486.629 213.705C487.421 213.478 488.439 213.818 488.778 214.496C489.23 215.175 488.891 216.079 488.099 216.305Z" fill="#355C6D"/>
<path d="M493.979 224.786L482.558 228.744C481.767 228.97 480.749 228.631 480.41 227.952C480.071 227.274 480.297 226.369 481.088 226.143L492.509 222.185C493.301 221.959 494.319 222.299 494.658 222.977C495.11 223.656 494.771 224.447 493.979 224.786Z" fill="#355C6D"/>
<path d="M501.782 234.059L485.951 239.486C485.159 239.712 484.142 239.373 483.802 238.695C483.35 238.016 483.689 237.112 484.481 236.885L500.312 231.458C501.103 231.232 502.121 231.571 502.46 232.249C502.913 233.041 502.687 233.832 501.782 234.059Z" fill="#355C6D"/>
<defs>
<filter id="filter0_f" x="70.2257" y="64.2283" width="506.901" height="425.874" filterUnits="userSpaceOnUse" color-interpolation-filters="sRGB">
<feFlood flood-opacity="0" result="BackgroundImageFix"/>
<feBlend mode="normal" in="SourceGraphic" in2="BackgroundImageFix" result="shape"/>
<feGaussianBlur stdDeviation="10" result="effect1_foregroundBlur"/>
</filter>
<linearGradient id="paint0_linear" x1="235.072" y1="57.7945" x2="23.8528" y2="355.226" gradientUnits="userSpaceOnUse">
<stop stop-color="#56ECEA"/>
<stop offset="1" stop-color="#48A3DF"/>
</linearGradient>
<linearGradient id="paint1_linear" x1="585.032" y1="379.105" x2="531.418" y2="537.974" gradientUnits="userSpaceOnUse">
<stop stop-color="#EF806C"/>
<stop offset="0.942494" stop-color="#F7A770"/>
</linearGradient>
<linearGradient id="paint2_linear" x1="324.234" y1="237.48" x2="374.359" y2="339.633" gradientUnits="userSpaceOnUse">
<stop stop-color="#AB6C49"/>
<stop offset="1" stop-color="#CF8A63"/>
</linearGradient>
<linearGradient id="paint3_linear" x1="515.776" y1="248.918" x2="530.599" y2="286.716" gradientUnits="userSpaceOnUse">
<stop stop-color="#39221A"/>
<stop offset="1" stop-color="#5A382B"/>
</linearGradient>
<linearGradient id="paint4_linear" x1="528.799" y1="196.821" x2="528.799" y2="241.956" gradientUnits="userSpaceOnUse">
<stop stop-color="#48788C"/>
<stop offset="0.3802" stop-color="#54899F"/>
<stop offset="1" stop-color="#3E6B7E"/>
</linearGradient>
<radialGradient id="paint5_radial" cx="0" cy="0" r="1" gradientUnits="userSpaceOnUse" gradientTransform="translate(534.074 215.419) rotate(86.0741) scale(24.6532 12.3027)">
<stop stop-color="#B7DFEF"/>
<stop offset="1" stop-color="#85AFC0" stop-opacity="0"/>
</radialGradient>
<linearGradient id="paint6_linear" x1="492.597" y1="186.971" x2="531.093" y2="272.261" gradientUnits="userSpaceOnUse">
<stop offset="0.0248286" stop-color="#51879D"/>
<stop offset="0.394856" stop-color="#8BB4C4"/>
<stop offset="0.760763" stop-color="#51879D"/>
<stop offset="1" stop-color="#406C7E"/>
</linearGradient>
<radialGradient id="paint7_radial" cx="0" cy="0" r="1" gradientUnits="userSpaceOnUse" gradientTransform="translate(526.115 212.857) rotate(71.3753) scale(31.6935 17.1463)">
<stop stop-color="#BCDEEC"/>
<stop offset="1" stop-color="#8AB3C3" stop-opacity="0"/>
</radialGradient>
<linearGradient id="paint8_linear" x1="436.441" y1="182.912" x2="476.78" y2="294.761" gradientUnits="userSpaceOnUse">
<stop stop-color="#51879D"/>
<stop offset="1" stop-color="#8BB4C4"/>
</linearGradient>
<radialGradient id="paint9_radial" cx="0" cy="0" r="1" gradientUnits="userSpaceOnUse" gradientTransform="translate(467.523 234.913) rotate(105.13) scale(48.772 31.8723)">
<stop stop-color="#B0D4E2"/>
<stop offset="1" stop-color="#B0D4E2" stop-opacity="0"/>
</radialGradient>
<linearGradient id="paint10_linear" x1="434.608" y1="205.374" x2="468.987" y2="297.283" gradientUnits="userSpaceOnUse">
<stop stop-color="#457488"/>
<stop offset="0.315908" stop-color="#51879D"/>
<stop offset="1" stop-color="#457488"/>
</linearGradient>
<linearGradient id="paint11_linear" x1="476.113" y1="263.911" x2="518.97" y2="263.911" gradientUnits="userSpaceOnUse">
<stop stop-color="#D3C2A5"/>
<stop offset="1" stop-color="#C2B19C"/>
</linearGradient>
<linearGradient id="paint12_linear" x1="442.785" y1="196.969" x2="498.871" y2="196.969" gradientUnits="userSpaceOnUse">
<stop stop-color="#D3C2A5"/>
<stop offset="1" stop-color="#C2B19C"/>
</linearGradient>
<linearGradient id="paint13_linear" x1="460.622" y1="226.426" x2="514.899" y2="226.426" gradientUnits="userSpaceOnUse">
<stop stop-color="#ECDCB2"/>
<stop offset="1" stop-color="#ECDCB2"/>
</linearGradient>
<radialGradient id="paint14_radial" cx="0" cy="0" r="1" gradientUnits="userSpaceOnUse" gradientTransform="translate(506.347 219.584) rotate(67.9489) scale(19.5358 5.6225)">
<stop stop-color="#FAEECF"/>
<stop offset="1" stop-color="#FAEECF" stop-opacity="0"/>
</radialGradient>
<linearGradient id="paint15_linear" x1="195.818" y1="286.094" x2="239.94" y2="388.308" gradientUnits="userSpaceOnUse">
<stop stop-color="#457488"/>
<stop offset="1" stop-color="#608B9D"/>
</linearGradient>
<radialGradient id="paint16_radial" cx="0" cy="0" r="1" gradientUnits="userSpaceOnUse" gradientTransform="translate(216.824 336.282) rotate(90) scale(55.8607 36.5243)">
<stop stop-color="#B0D4E2"/>
<stop offset="1" stop-color="#B0D4E2" stop-opacity="0"/>
</radialGradient>
<linearGradient id="paint17_linear" x1="192.142" y1="298.84" x2="229.89" y2="386.592" gradientUnits="userSpaceOnUse">
<stop stop-color="#508399"/>
<stop offset="0.416798" stop-color="#89B2C3"/>
<stop offset="1" stop-color="#426E81"/>
</linearGradient>
<radialGradient id="paint18_radial" cx="0" cy="0" r="1" gradientUnits="userSpaceOnUse" gradientTransform="translate(233.567 326.048) rotate(107.074) scale(35.8986 23.2305)">
<stop stop-color="#ACD1DF"/>
<stop offset="1" stop-color="#ACD1DF" stop-opacity="0"/>
</radialGradient>
<linearGradient id="paint19_linear" x1="331.769" y1="235.868" x2="331.769" y2="347.476" gradientUnits="userSpaceOnUse">
<stop stop-color="#51879D"/>
<stop offset="1" stop-color="#8BB4C4"/>
</linearGradient>
<radialGradient id="paint20_radial" cx="0" cy="0" r="1" gradientUnits="userSpaceOnUse" gradientTransform="translate(358.003 279.57) rotate(98.2072) scale(42.4646 27.7504)">
<stop stop-color="#B0D4E2"/>
<stop offset="1" stop-color="#B0D4E2" stop-opacity="0"/>
</radialGradient>
<linearGradient id="paint21_linear" x1="388.195" y1="213.931" x2="388.195" y2="325.765" gradientUnits="userSpaceOnUse">
<stop stop-color="#51879D"/>
<stop offset="1" stop-color="#8BB4C4"/>
</linearGradient>
<radialGradient id="paint22_radial" cx="0" cy="0" r="1" gradientUnits="userSpaceOnUse" gradientTransform="translate(410.541 250.068) rotate(90) scale(45.6669 29.7828)">
<stop stop-color="#B0D4E2"/>
<stop offset="1" stop-color="#B0D4E2" stop-opacity="0"/>
</radialGradient>
<linearGradient id="paint23_linear" x1="420.366" y1="284.888" x2="463.222" y2="284.888" gradientUnits="userSpaceOnUse">
<stop stop-color="#D3C2A5"/>
<stop offset="1" stop-color="#C2B19C"/>
</linearGradient>
<linearGradient id="paint24_linear" x1="379.241" y1="226.793" x2="413.621" y2="318.702" gradientUnits="userSpaceOnUse">
<stop stop-color="#457488"/>
<stop offset="0.315908" stop-color="#51879D"/>
<stop offset="1" stop-color="#457488"/>
</linearGradient>
<linearGradient id="paint25_linear" x1="322.536" y1="248.281" x2="356.916" y2="340.19" gradientUnits="userSpaceOnUse">
<stop stop-color="#457488"/>
<stop offset="0.315908" stop-color="#51879D"/>
<stop offset="1" stop-color="#457488"/>
</linearGradient>
<linearGradient id="paint26_linear" x1="387.007" y1="217.945" x2="443.123" y2="217.945" gradientUnits="userSpaceOnUse">
<stop stop-color="#D3C2A5"/>
<stop offset="1" stop-color="#C2B19C"/>
</linearGradient>
<linearGradient id="paint27_linear" x1="404.874" y1="247.345" x2="459.152" y2="247.345" gradientUnits="userSpaceOnUse">
<stop stop-color="#ECDCB2"/>
<stop offset="1" stop-color="#ECDCB2"/>
</linearGradient>
<radialGradient id="paint28_radial" cx="0" cy="0" r="1" gradientUnits="userSpaceOnUse" gradientTransform="translate(449.276 240.67) rotate(70.3014) scale(19.7191 20.3552)">
<stop stop-color="#FAEECF"/>
<stop offset="1" stop-color="#FAEECF" stop-opacity="0"/>
</radialGradient>
<linearGradient id="paint29_linear" x1="363.94" y1="306.825" x2="406.796" y2="306.825" gradientUnits="userSpaceOnUse">
<stop stop-color="#D3C2A5"/>
<stop offset="1" stop-color="#C2B19C"/>
</linearGradient>
<linearGradient id="paint30_linear" x1="330.62" y1="239.827" x2="386.707" y2="239.827" gradientUnits="userSpaceOnUse">
<stop stop-color="#D3C2A5"/>
<stop offset="1" stop-color="#C2B19C"/>
</linearGradient>
<linearGradient id="paint31_linear" x1="348.561" y1="269.283" x2="402.824" y2="269.283" gradientUnits="userSpaceOnUse">
<stop stop-color="#ECDCB2"/>
<stop offset="1" stop-color="#ECDCB2"/>
</linearGradient>
<radialGradient id="paint32_radial" cx="0" cy="0" r="1" gradientUnits="userSpaceOnUse" gradientTransform="translate(393.81 261.298) rotate(68.5523) scale(20.6852 21.3079)">
<stop stop-color="#FAEECF"/>
<stop offset="1" stop-color="#FAEECF" stop-opacity="0"/>
</radialGradient>
<linearGradient id="paint33_linear" x1="196.89" y1="302.863" x2="196.89" y2="388.863" gradientUnits="userSpaceOnUse">
<stop stop-color="#457488"/>
<stop offset="1" stop-color="#84AFBF"/>
</linearGradient>
<linearGradient id="paint34_linear" x1="273.307" y1="258.484" x2="273.307" y2="370.092" gradientUnits="userSpaceOnUse">
<stop stop-color="#51879D"/>
<stop offset="1" stop-color="#8BB4C4"/>
</linearGradient>
<radialGradient id="paint35_radial" cx="0" cy="0" r="1" gradientUnits="userSpaceOnUse" gradientTransform="translate(297.788 298.766) rotate(91.4613) scale(39.6178 25.8901)">
<stop stop-color="#B0D4E2"/>
<stop offset="1" stop-color="#B0D4E2" stop-opacity="0"/>
</radialGradient>
<linearGradient id="paint36_linear" x1="264.239" y1="271.162" x2="298.619" y2="363.071" gradientUnits="userSpaceOnUse">
<stop stop-color="#457488"/>
<stop offset="0.315908" stop-color="#51879D"/>
<stop offset="1" stop-color="#457488"/>
</linearGradient>
<linearGradient id="paint37_linear" x1="305.478" y1="329.441" x2="348.335" y2="329.441" gradientUnits="userSpaceOnUse">
<stop stop-color="#D3C2A5"/>
<stop offset="1" stop-color="#C2B19C"/>
</linearGradient>
<linearGradient id="paint38_linear" x1="272.137" y1="262.441" x2="328.224" y2="262.441" gradientUnits="userSpaceOnUse">
<stop stop-color="#D3C2A5"/>
<stop offset="1" stop-color="#C2B19C"/>
</linearGradient>
<linearGradient id="paint39_linear" x1="289.986" y1="291.898" x2="344.264" y2="291.898" gradientUnits="userSpaceOnUse">
<stop stop-color="#ECDCB2"/>
<stop offset="1" stop-color="#ECDCB2"/>
</linearGradient>
<radialGradient id="paint40_radial" cx="0" cy="0" r="1" gradientUnits="userSpaceOnUse" gradientTransform="translate(334.677 283.989) rotate(67.9638) scale(20.7701 21.4401)">
<stop stop-color="#FAEECF"/>
<stop offset="1" stop-color="#FAEECF" stop-opacity="0"/>
</radialGradient>
<linearGradient id="paint41_linear" x1="184.543" y1="322.372" x2="203.417" y2="367.718" gradientUnits="userSpaceOnUse">
<stop stop-color="#4E8196"/>
<stop offset="0.416015" stop-color="#82ACBD"/>
<stop offset="1" stop-color="#50869C"/>
</linearGradient>
<linearGradient id="paint42_linear" x1="181.089" y1="329.401" x2="181.089" y2="364.551" gradientUnits="userSpaceOnUse">
<stop stop-color="#568BA0"/>
<stop offset="1" stop-color="#84AFBF"/>
</linearGradient>
<radialGradient id="paint43_radial" cx="0" cy="0" r="1" gradientUnits="userSpaceOnUse" gradientTransform="translate(187.239 341.491) rotate(67.5206) scale(15.3859 6.25589)">
<stop stop-color="#9DC8D9"/>
<stop offset="1" stop-color="#9DC8D9" stop-opacity="0"/>
</radialGradient>
<linearGradient id="paint44_linear" x1="270.367" y1="326.104" x2="270.367" y2="376.651" gradientUnits="userSpaceOnUse">
<stop stop-color="#D3C2A5"/>
<stop offset="1" stop-color="#C2B19C"/>
</linearGradient>
<linearGradient id="paint45_linear" x1="243.768" y1="266.976" x2="243.768" y2="302.03" gradientUnits="userSpaceOnUse">
<stop stop-color="#D3C2A5"/>
<stop offset="1" stop-color="#C2B19C"/>
</linearGradient>
<linearGradient id="paint46_linear" x1="171.672" y1="220.783" x2="132.668" y2="308.886" gradientUnits="userSpaceOnUse">
<stop stop-color="#6C4232"/>
<stop offset="1" stop-color="#845543"/>
</linearGradient>
<linearGradient id="paint47_linear" x1="363.481" y1="130.385" x2="395.143" y2="217.112" gradientUnits="userSpaceOnUse">
<stop stop-color="#AB6C48"/>
<stop offset="1" stop-color="#CF8A63"/>
</linearGradient>
<radialGradient id="paint48_radial" cx="0" cy="0" r="1" gradientUnits="userSpaceOnUse" gradientTransform="translate(368.528 224.913) rotate(-107.374) scale(78.372 169.474)">
<stop stop-color="#E3986E"/>
<stop offset="1" stop-color="#D99169" stop-opacity="0"/>
</radialGradient>
<linearGradient id="paint49_linear" x1="383.939" y1="338.26" x2="402.475" y2="397.944" gradientUnits="userSpaceOnUse">
<stop stop-color="#643C32"/>
<stop offset="1" stop-color="#462F28"/>
</linearGradient>
<linearGradient id="paint50_linear" x1="260.699" y1="287.658" x2="260.699" y2="340.239" gradientUnits="userSpaceOnUse">
<stop stop-color="#ECDCB2"/>
<stop offset="1" stop-color="#ECDCB2"/>
</linearGradient>
<radialGradient id="paint51_radial" cx="0" cy="0" r="1" gradientUnits="userSpaceOnUse" gradientTransform="translate(278.523 305.763) rotate(72.1598) scale(20.9476 21.6233)">
<stop stop-color="#FAEECF"/>
<stop offset="1" stop-color="#FAEECF" stop-opacity="0"/>
</radialGradient>
</defs>
</svg>
