<svg width="600" height="531" viewBox="0 0 600 531" fill="none" xmlns="http://www.w3.org/2000/svg">
<rect x="228.068" y="158.334" width="271.737" height="271.737" rx="26" transform="rotate(-30 228.068 158.334)" fill="url(#paint0_linear)"/>
<path d="M112.221 247.684C109.376 242.755 111.065 236.452 115.993 233.606L140.338 219.551C145.267 216.705 151.57 218.394 154.415 223.323L168.471 247.668C171.316 252.597 169.628 258.899 164.699 261.745L140.354 275.8C135.425 278.646 129.123 276.957 126.277 272.028L112.221 247.684Z" fill="#2B84FD"/>
<path d="M136.087 17.7429C127.388 10.0224 113.68 13.5702 109.898 24.5692C101.108 50.1357 95.5566 70.9265 90.2623 97.9892C88.0242 109.429 98.1387 119.396 109.555 117.041C136.51 111.481 157.281 105.977 182.809 97.4881C193.882 93.8058 197.586 80.0834 189.853 71.3442C172.372 51.5897 157.125 36.4144 136.087 17.7429Z" fill="url(#paint1_linear)"/>
<circle cx="522.858" cy="324.743" r="58.7508" fill="url(#paint2_linear)"/>
<g style="mix-blend-mode:multiply">
<g style="mix-blend-mode:multiply" filter="url(#filter0_f)">
<path d="M327.691 450.272C377.065 450.272 417.09 440.381 417.09 428.179C417.09 415.978 377.065 406.087 327.691 406.087C278.317 406.087 238.292 415.978 238.292 428.179C238.292 440.381 278.317 450.272 327.691 450.272Z" fill="#A6B3C8"/>
</g>
<g style="mix-blend-mode:multiply" filter="url(#filter1_f)">
<path d="M247.451 488.648C289.117 488.648 322.895 477.455 322.895 463.648C322.895 449.841 289.117 438.649 247.451 438.649C205.784 438.649 172.007 449.841 172.007 463.648C172.007 477.455 205.784 488.648 247.451 488.648Z" fill="#A6B3C8"/>
</g>
<g opacity="0.35" filter="url(#filter2_f)">
<path d="M194.817 500.48L176.05 522.849C174.636 524.536 172.547 525.51 170.346 525.51L171.682 491.854L186.418 487.313L159.127 473.69L155.959 474.842C152.645 476.047 148.997 475.75 145.934 474.002C130.832 465.385 84.8109 439.15 76.7423 434.854C67.0618 429.7 80.2863 422.662 94.3027 430.392C108.319 438.121 200.282 483.539 200.282 483.539L234.284 473.318L234.086 483.64L215.765 511.065L215.663 486.575L194.817 517.44V500.48Z" fill="#A6B3C8"/>
</g>
</g>
<path d="M238.163 421.224C238.563 426.024 241.363 430.224 245.563 432.424C256.463 438.124 281.563 447.624 327.963 447.624C374.363 447.624 399.463 438.124 410.363 432.424C414.563 430.224 417.363 425.924 417.763 421.224L430.463 284.124H225.463L238.163 421.224Z" fill="url(#paint3_linear)"/>
<path d="M442.788 284.153C440.514 304.18 351.487 308.099 331.963 308.099C316.377 308.099 223.861 305.724 220.969 284.348L212.474 209.562L451.459 209.39L442.788 284.153Z" fill="url(#paint4_linear)"/>
<path opacity="0.72" d="M333.864 315.055C331.491 315.059 329.62 317.09 329.839 319.453L340.064 429.842C340.439 434.343 343.065 438.281 347.003 440.344C356.297 444.046 399.141 431.579 405.228 428.277C409.167 426.214 411.792 422.182 412.167 417.775L422.089 310.67C422.35 307.854 419.682 305.655 416.94 306.351C390.588 313.04 355.967 315.022 333.864 315.055Z" fill="#ECDCB2"/>
<path d="M331.963 233.724C397.961 233.724 451.463 222.755 451.463 209.224C451.463 195.693 397.961 184.724 331.963 184.724C265.965 184.724 212.463 195.693 212.463 209.224C212.463 222.755 265.965 233.724 331.963 233.724Z" fill="#F3E8CD"/>
<path d="M441.501 234.017C441.775 231.652 439.301 229.868 437.078 230.72C416.995 238.42 377.398 243.658 331.834 243.658C285.334 243.658 245.049 238.203 225.377 230.243C223.125 229.332 220.529 231.13 220.803 233.544L225.852 277.99C228.597 298.282 316.422 300.537 331.217 300.537C349.751 300.537 434.264 296.816 436.423 277.805L441.501 234.017Z" fill="url(#paint5_linear)"/>
<path d="M331.963 221.124C384.983 221.124 427.964 214.229 427.964 205.724C427.964 197.219 384.983 190.324 331.963 190.324C278.943 190.324 235.962 197.219 235.962 205.724C235.962 214.229 278.943 221.124 331.963 221.124Z" fill="#784B3A"/>
<path fill-rule="evenodd" clip-rule="evenodd" d="M239.711 210C251.264 203.576 288.193 198.877 331.963 198.877C375.734 198.877 412.662 203.576 424.215 210C426.656 208.643 427.964 207.208 427.964 205.724C427.964 197.219 384.983 190.324 331.963 190.324C278.943 190.324 235.962 197.219 235.962 205.724C235.962 207.208 237.27 208.643 239.711 210Z" fill="#D7BE9C"/>
<path d="M371.057 210.211C371.057 210.211 367.254 199.471 359.648 198.51C354.09 197.799 352 200.432 352 200.432C352 200.432 349.2 192.199 340.424 192.199C331.648 192.199 328.43 197.758 328.43 197.758C328.43 197.758 310.167 189.107 305.612 205.071C305.612 205.071 298.298 203.483 296.292 211.005C296.292 211.005 300.597 216.814 337.666 216.605C374.693 216.438 371.057 210.211 371.057 210.211Z" fill="#485776"/>
<path d="M356.852 204.837C359.631 204.418 361.123 201.34 359.73 198.899L335.122 155.764C333.879 153.585 330.941 153.053 328.947 154.574C325.437 157.251 319.708 161.363 312.714 165.426C304.962 169.929 294.365 173.1 287.995 174.748C285.321 175.44 283.983 178.54 285.411 180.906L303.221 210.42C304.056 211.805 305.643 212.55 307.241 212.309L356.852 204.837Z" fill="url(#paint6_linear)"/>
<path fill-rule="evenodd" clip-rule="evenodd" d="M312.242 165.697C315.409 171.088 330.346 196.658 336.855 207.849L307.241 212.309C305.643 212.55 304.056 211.805 303.221 210.42L285.411 180.906C283.984 178.54 285.321 175.44 287.996 174.748C294.237 173.133 304.537 170.056 312.242 165.697Z" fill="#D0DAF2"/>
<path fill-rule="evenodd" clip-rule="evenodd" d="M357.993 199.89L333.384 156.755C332.768 155.674 331.236 155.343 330.16 156.164C326.605 158.876 320.805 163.039 313.718 167.156C305.714 171.805 294.889 175.03 288.496 176.684C287.059 177.056 286.418 178.703 287.123 179.872L304.933 209.387C305.351 210.079 306.144 210.452 306.943 210.331L356.554 202.859C357.943 202.65 358.689 201.111 357.993 199.89ZM359.73 198.899C361.123 201.34 359.631 204.418 356.852 204.837L307.241 212.309C305.643 212.55 304.056 211.805 303.221 210.42L285.411 180.906C283.983 178.54 285.321 175.44 287.995 174.748C294.365 173.1 304.962 169.929 312.714 165.426C319.708 161.363 325.437 157.251 328.947 154.574C330.941 153.053 333.879 153.585 335.122 155.764L359.73 198.899Z" fill="#A3B6DF"/>
<path opacity="0.19" d="M312.41 167.854C306.267 171.232 296.885 174.458 288.498 176.697C292.635 176.358 300.131 174.897 306.939 172.511C307.308 173.214 307.659 173.788 308.102 174.411C309.627 176.557 313.006 177.039 316.071 175.765C319.136 174.491 318.472 171.299 317.815 170.028C317.744 169.891 317.664 169.735 317.578 169.566C317.331 169.085 317.031 168.499 316.73 167.944C322.728 164.257 327.336 159.604 329.809 156.384C329.566 156.563 329.31 156.753 329.042 156.952C323.865 160.793 318.553 164.475 312.41 167.854Z" fill="#485776"/>
<path d="M284.565 130.755C285.485 132.289 302.675 161.768 309.485 173.484C310.986 176.078 314.36 176.924 316.946 175.323C319.432 173.729 320.194 170.562 318.692 167.969L292.439 123.535L284.565 130.755Z" fill="#A3B6DF"/>
<path d="M287.191 131.359C287.907 132.555 305.1 161.893 310.405 171.021C311.575 173.042 314.203 173.701 316.218 172.453C318.155 171.212 318.748 168.744 317.578 166.724L294.163 126.973L287.191 131.359Z" fill="#AEC0E5"/>
<path d="M289.318 131.628C289.866 132.543 307.067 161.787 311.13 168.777C312.026 170.324 314.039 170.829 315.581 169.874C317.065 168.923 317.519 167.034 316.623 165.486L294.016 127.32L289.318 131.628Z" fill="url(#paint7_linear)"/>
<path d="M277.831 130.566L240.818 64.6883C235.006 54.1584 253.19 43.4411 259.47 54.1402L296.484 120.018C302.727 130.868 283.895 140.897 277.831 130.566Z" fill="#485776"/>
<path d="M281.873 125.658L245.771 61.1486C241.596 53.584 254.659 45.8849 259.17 53.571L295.273 118.081C299.758 125.875 286.23 133.08 281.873 125.658Z" fill="#5B6988"/>
<path d="M286.247 122.94L250.494 59.0385C247.961 54.4481 255.888 49.7759 258.626 54.4402L294.378 118.341C297.1 123.071 288.891 127.443 286.247 122.94Z" fill="url(#paint8_linear)"/>
<path d="M371.057 210.211C371.057 210.211 367.254 199.471 359.648 198.51C354.09 197.799 352 200.432 352 200.432C352 200.432 349.2 192.199 340.424 192.199C331.648 192.199 328.43 197.758 328.43 197.758C328.43 197.758 310.167 189.107 305.612 205.071C305.612 205.071 298.298 203.483 296.292 211.005C296.292 211.005 300.597 216.814 337.666 216.605C374.693 216.438 371.057 210.211 371.057 210.211Z" fill="#784B3A"/>
<path fill-rule="evenodd" clip-rule="evenodd" d="M360.962 198.767C360.53 198.642 360.085 198.548 359.625 198.49C354.733 197.865 352.528 199.829 352.07 200.309C352.467 201.306 352.616 201.982 352.616 201.982C352.616 201.982 355.012 197.997 360.57 198.708C360.702 198.725 360.833 198.744 360.962 198.767ZM339.484 192.2C335.382 192.597 331.718 195.029 330.072 198.559C330.01 198.53 329.941 198.498 329.868 198.463C326.48 196.866 312.157 190.116 306.974 205.272C306.974 205.272 299.008 203.218 297.029 212.431C296.376 211.9 296.213 211.398 296.27 210.986C297.824 203.487 305.589 205.051 305.589 205.051C310.145 189.087 328.407 197.738 328.407 197.738C328.407 197.738 331.4 192.569 339.484 192.2Z" fill="#BD8E7C"/>
<path d="M353.133 215.206C350.126 214.946 350.757 212.311 352.019 211.198C353.615 209.787 356.176 208.414 360.148 208.377C365.233 208.339 366.607 210.901 366.607 210.901C366.607 210.901 369.947 204.516 376.628 204.516C383.904 204.516 386.613 208.636 387.578 211.309C387.987 212.422 387.133 215.021 384.794 215.281C380.043 215.874 368.834 216.654 353.133 215.206Z" fill="#93604D"/>
<path fill-rule="evenodd" clip-rule="evenodd" d="M352.686 215.164C350.195 214.69 350.824 212.27 352.019 211.215C353.615 209.805 356.177 208.432 360.148 208.394C364.248 208.365 365.935 210.024 366.435 210.668C365.598 209.733 364.095 208.657 361.619 208.666C357.647 208.703 354.706 210.256 353.11 211.667C352.139 212.523 351.542 214.28 352.686 215.164ZM366.623 210.888C366.882 210.413 370.217 204.534 376.629 204.534C379.644 204.534 381.875 205.242 383.522 206.261C381.958 205.458 379.937 204.929 377.329 204.929C371.581 204.888 367.327 212.014 367.327 212.014C367.327 212.014 367.125 211.507 366.623 210.888Z" fill="#E3AB96"/>
<path d="M304.387 212.723C304.387 215.105 300.289 216.031 295.234 216.031C290.179 216.031 286.081 215.105 286.081 212.723C286.081 210.34 290.179 207.532 295.234 207.532C300.289 207.532 304.387 210.34 304.387 212.723Z" fill="#E3AB96"/>
<path d="M304.387 213.1C304.387 215.221 302.73 216.031 295.988 216.031C289.369 216.031 287.588 215.221 287.588 213.1C287.588 210.979 291.349 208.479 295.988 208.479C300.627 208.479 304.387 210.979 304.387 213.1Z" fill="#93604D"/>
<path d="M365.169 314.357L365.232 313.876L361.167 313.337L364.994 314.809L364.994 314.809L364.995 314.809L364.996 314.81L365.002 314.812L365.032 314.824C365.059 314.835 365.101 314.852 365.155 314.875C365.264 314.921 365.427 314.992 365.634 315.089C366.05 315.283 366.648 315.581 367.368 315.994C368.808 316.822 370.731 318.109 372.659 319.945C376.51 323.613 380.385 329.469 380.484 338.259C380.484 339.351 380.483 340.423 380.385 341.59C379.449 351.737 373.48 360.765 367.693 367.286C364.805 370.54 361.975 373.156 359.868 374.958C358.814 375.858 357.942 376.555 357.334 377.026C357.03 377.261 356.792 377.44 356.631 377.559C356.55 377.619 356.489 377.664 356.448 377.694L356.401 377.727L356.39 377.735L356.388 377.737L356.387 377.738L356.387 377.737L356.38 377.743L319.88 404.743L319.684 404.888V405.132V425.932V426.792L320.419 426.348L320.169 425.932C320.419 426.348 320.42 426.348 320.42 426.347L320.422 426.346L320.428 426.342L320.454 426.327L320.555 426.265C320.645 426.211 320.777 426.13 320.95 426.024C321.297 425.811 321.807 425.497 322.461 425.089C323.77 424.273 325.655 423.083 327.964 421.586C332.581 418.592 338.895 414.369 345.678 409.45C359.226 399.627 374.717 386.983 382.271 375.804L382.271 375.804C388.7 366.284 391.413 354.707 391.053 343.641L391.053 343.63L391.052 343.62C390.04 330.352 383.595 322.899 377.387 318.777C374.29 316.721 371.259 315.498 369.002 314.788C367.873 314.432 366.935 314.205 366.278 314.066C365.95 313.997 365.691 313.95 365.513 313.92C365.424 313.904 365.355 313.894 365.308 313.887L365.254 313.879L365.239 313.877L365.234 313.876L365.233 313.876C365.233 313.876 365.232 313.876 365.169 314.357Z" fill="#6691A5" stroke="#537E92" stroke-width="0.9701" stroke-miterlimit="10"/>
<path d="M365.375 314.396C377.243 320.35 380.305 330.141 380.874 336.082C381.442 342.024 388.357 338.495 390.02 347.272C391.457 332.144 379.663 317.515 365.375 314.396Z" fill="#537E92"/>
<path d="M344.867 386.761L320.169 405.133V425.933C320.169 425.933 329.352 420.713 345.784 408.663C337.157 405.24 342.224 390.657 344.867 386.761Z" fill="#537E92"/>
<path d="M322.569 326.532C322.569 326.532 336.069 316.532 355.569 314.032C375.069 311.532 389.569 326.532 390.569 343.532C390.569 343.532 385.069 284.532 322.569 309.032V326.532Z" fill="#7EA9BD"/>
<path fill-rule="evenodd" clip-rule="evenodd" d="M322.132 327.399C321.805 327.234 321.599 326.899 321.599 326.532V309.032C321.599 308.633 321.843 308.275 322.215 308.129C337.963 301.956 350.228 301.001 359.773 303.141C369.332 305.283 376.062 310.507 380.769 316.495C385.23 322.17 387.877 328.532 389.428 333.628C390.613 336.757 391.337 340.079 391.537 343.475C391.568 344.004 390.733 352.219 390.205 352.259C389.97 346.381 389.443 340.631 387.801 334.967C387.728 334.714 387.652 334.458 387.573 334.199C382.914 322.028 370.853 313.051 355.692 314.995C346.073 316.228 337.925 319.313 332.179 322.093C329.307 323.483 327.04 324.794 325.495 325.755C324.723 326.235 324.131 326.628 323.734 326.899C323.536 327.034 323.387 327.139 323.288 327.21C323.239 327.245 323.202 327.271 323.178 327.288L323.153 327.307L323.147 327.311L323.146 327.312C322.851 327.53 322.459 327.564 322.132 327.399ZM323.539 325.86C322.902 326.286 322.569 326.532 322.569 326.532V309.032C361.913 293.61 378.669 311.276 385.685 326.483C386.888 329.092 387.805 331.628 388.5 333.913C387.561 331.448 386.328 329.108 384.833 326.954C378.704 318.121 368.183 312.415 355.569 314.032C339.132 316.14 326.958 323.576 323.539 325.86Z" fill="#537E92"/>
<path d="M355.569 314.032C375.069 311.532 389.569 326.532 390.569 343.532C390.569 343.532 386 299.126 345.325 303.285C325.156 307.158 336.871 316.429 355.569 314.032Z" fill="url(#paint9_linear)"/>
<path d="M171.869 307.087C171.869 300.687 174.969 294.587 180.169 290.887C189.269 284.587 208.269 277.387 247.369 277.387C286.469 277.387 305.369 284.487 314.569 290.887C319.869 294.587 322.869 300.587 322.869 307.087V454.415C322.869 454.415 328.069 485.815 247.369 485.815C166.669 485.815 171.869 454.415 171.869 454.415L171.869 307.087Z" fill="url(#paint10_radial)"/>
<path fill-rule="evenodd" clip-rule="evenodd" d="M257.526 410.989C287.506 410.989 311.809 360.961 311.809 299.247C311.809 298.291 311.803 297.338 311.792 296.388C315.385 299.928 317.378 304.859 317.378 310.133L317.378 449.169C317.378 449.169 322.2 479.266 247.369 479.266C172.537 479.266 177.359 449.169 177.359 449.169L177.359 310.133C177.359 303.998 180.234 298.152 185.055 294.605C188.959 291.812 194.827 288.834 203.595 286.44C203.362 290.643 203.243 294.916 203.243 299.247C203.243 360.961 227.546 410.989 257.526 410.989Z" fill="url(#paint11_linear)"/>
<path d="M247.369 322.953C266.068 322.953 283.035 320.68 295.361 316.981C301.517 315.133 306.572 312.913 310.11 310.403C313.622 307.911 315.833 304.986 315.833 301.706C315.833 298.426 313.622 295.502 310.11 293.01C306.572 290.499 301.517 288.279 295.361 286.432C283.035 282.733 266.068 280.459 247.369 280.459C228.669 280.459 211.702 282.733 199.377 286.432C193.22 288.279 188.165 290.499 184.627 293.01C181.115 295.502 178.904 298.426 178.904 301.706C178.904 304.986 181.115 307.911 184.627 310.403C188.165 312.913 193.22 315.133 199.377 316.981C211.702 320.68 228.669 322.953 247.369 322.953Z" fill="url(#paint12_linear)"/>
<path d="M247.369 322.953C266.068 322.953 283.035 320.68 295.361 316.981C301.517 315.133 306.572 312.913 310.11 310.403C313.622 307.911 315.833 304.986 315.833 301.706C315.833 298.426 313.622 295.502 310.11 293.01C306.572 290.499 301.517 288.279 295.361 286.432C283.035 282.733 266.068 280.459 247.369 280.459C228.669 280.459 211.702 282.733 199.377 286.432C193.22 288.279 188.165 290.499 184.627 293.01C181.115 295.502 178.904 298.426 178.904 301.706C178.904 304.986 181.115 307.911 184.627 310.403C188.165 312.913 193.22 315.133 199.377 316.981C211.702 320.68 228.669 322.953 247.369 322.953Z" stroke="url(#paint13_radial)" stroke-width="2" stroke-miterlimit="10"/>
<path d="M247.369 322.953C266.068 322.953 283.035 320.68 295.361 316.981C301.517 315.133 306.572 312.913 310.11 310.403C313.622 307.911 315.833 304.986 315.833 301.706C315.833 298.426 313.622 295.502 310.11 293.01C306.572 290.499 301.517 288.279 295.361 286.432C283.035 282.733 266.068 280.459 247.369 280.459C228.669 280.459 211.702 282.733 199.377 286.432C193.22 288.279 188.165 290.499 184.627 293.01C181.115 295.502 178.904 298.426 178.904 301.706C178.904 304.986 181.115 307.911 184.627 310.403C188.165 312.913 193.22 315.133 199.377 316.981C211.702 320.68 228.669 322.953 247.369 322.953Z" stroke="url(#paint14_radial)" stroke-width="2" stroke-miterlimit="10"/>
<path d="M248.009 281.46C244.361 285.354 242.351 289.614 242.351 294.078C242.351 304.844 254.041 314.423 272.202 320.545C264.889 321.376 256.965 321.831 248.69 321.831C211.805 321.831 181.904 312.793 181.904 301.645C181.904 290.565 211.438 281.57 248.009 281.46Z" fill="url(#paint15_linear)"/>
<path fill-rule="evenodd" clip-rule="evenodd" d="M246.681 281.46C242.996 285.366 240.966 289.639 240.966 294.116C240.966 304.915 252.774 314.522 271.12 320.663C263.732 321.497 255.728 321.953 247.369 321.953C210.109 321.953 179.904 312.888 179.904 301.706C179.904 290.593 209.738 281.571 246.681 281.46Z" fill="url(#paint16_radial)"/>
<path d="M182.069 375.215C176.031 375.215 175.769 385.015 167.369 381.615C159.069 378.315 80.0686 316.215 71.6686 309.315C61.4576 300.832 71.314 281.232 71.7571 268.532C72.2003 255.831 8.42812 336.45 19.4041 334.619C30.3801 332.788 49.3686 323.215 61.4686 332.215C81.8686 347.415 173.589 432.044 181.969 439.515C190.348 446.986 194.81 434.654 194.81 408.912C194.81 383.17 188.106 375.215 182.069 375.215Z" fill="url(#paint17_linear)"/>
<path d="M68.6945 262.065C70.3429 263.34 71.2391 265.515 71.3761 268.457C71.5131 271.396 70.8871 275.042 69.5545 279.16C66.8904 287.393 61.4316 297.426 53.7996 307.293C46.1676 317.161 37.8295 324.966 30.5304 329.614C26.8794 331.94 23.5078 333.462 20.6288 334.068C17.7476 334.675 15.4167 334.355 13.7683 333.08C12.1199 331.805 11.2237 329.629 11.0866 326.688C10.9497 323.749 11.5757 320.103 12.9083 315.985C15.5723 307.751 21.0312 297.719 28.6631 287.851C36.2951 277.984 44.6333 270.178 51.9323 265.53C55.5834 263.205 58.9549 261.683 61.834 261.076C64.7152 260.47 67.0461 260.79 68.6945 262.065Z" fill="#6A95A9" stroke="url(#paint18_radial)" stroke-width="0.8219" stroke-miterlimit="10"/>
<path d="M46.1367 295.17C56.0593 282.341 61.3669 269.825 57.9916 267.214C54.6163 264.603 43.8362 272.887 33.9137 285.716C23.9911 298.545 18.6835 311.061 22.0588 313.672C25.4341 316.282 36.2141 307.999 46.1367 295.17Z" fill="url(#paint19_radial)"/>
<path d="M44.2679 287.464C45.0648 287.115 45.2641 287.614 44.766 288.56C44.2679 289.506 43.222 290.552 42.4251 290.901C41.6282 291.249 41.429 290.751 41.9271 289.805C42.4251 288.859 43.471 287.813 44.2679 287.464Z" fill="#34425E"/>
<path d="M48.2526 289.307C49.0495 288.958 49.2487 289.456 48.7506 290.403C48.2526 291.349 47.2066 292.395 46.4097 292.744C45.6128 293.092 45.4136 292.594 45.9117 291.648C46.4595 290.701 47.5055 289.656 48.2526 289.307Z" fill="#34425E"/>
<path d="M33.9581 302.356C34.755 302.007 34.9542 302.506 34.4562 303.452C33.9581 304.398 32.9122 305.444 32.1153 305.793C31.3184 306.141 31.1192 305.643 31.6172 304.697C32.1651 303.751 33.211 302.705 33.9581 302.356Z" fill="#34425E"/>
<path d="M27.8429 311.466C28.6398 311.118 28.839 311.616 28.3409 312.562C27.8429 313.508 26.797 314.554 26.0001 314.903C25.2032 315.251 25.0039 314.753 25.502 313.807C26.0499 312.861 27.0958 311.815 27.8429 311.466Z" fill="#34425E"/>
<path d="M27.7181 301.857C28.515 301.508 28.7143 302.006 28.2162 302.953C27.7181 303.899 26.6722 304.945 25.8753 305.294C25.0784 305.642 24.8792 305.144 25.3773 304.198C25.9251 303.251 26.971 302.206 27.7181 301.857Z" fill="#34425E"/>
<path d="M37.3278 286.257C38.1246 285.909 38.3239 286.407 37.8258 287.353C37.3278 288.299 36.2818 289.345 35.4849 289.694C34.688 290.043 34.4888 289.545 34.9869 288.598C35.5347 287.652 36.5807 286.606 37.3278 286.257Z" fill="#34425E"/>
<path d="M54.2425 285.241C55.0394 284.892 55.2387 285.39 54.7406 286.336C54.2425 287.283 53.1966 288.329 52.3997 288.677C51.6028 289.026 51.4036 288.528 51.9017 287.581C52.4495 286.635 53.4955 285.589 54.2425 285.241Z" fill="#34425E"/>
<path d="M31.2125 293.87C32.0094 293.521 32.2086 294.019 31.7106 294.966C31.2125 295.912 30.1666 296.958 29.3697 297.307C28.5728 297.655 28.3736 297.157 28.8716 296.211C29.4195 295.265 30.4654 294.219 31.2125 293.87Z" fill="#34425E"/>
<path d="M45.9386 280.891C46.7355 280.543 46.9347 281.041 46.4367 281.987C45.9386 282.933 44.8927 283.979 44.0958 284.328C43.2989 284.676 43.0997 284.178 43.5977 283.232C44.1456 282.286 45.1915 281.24 45.9386 280.891Z" fill="#34425E"/>
<path d="M54.6742 278.021C55.4711 277.672 55.6703 278.17 55.1722 279.117C54.6742 280.063 53.6283 281.109 52.8314 281.458C52.0345 281.806 51.8352 281.308 52.3333 280.362C52.8812 279.415 53.9271 278.37 54.6742 278.021Z" fill="#34425E"/>
<path d="M53.7091 293.248C54.506 292.9 54.7052 293.398 54.2072 294.344C53.7091 295.291 52.6632 296.336 51.8663 296.685C51.0694 297.034 50.8702 296.536 51.3682 295.589C51.9161 294.643 52.962 293.597 53.7091 293.248Z" fill="#34425E"/>
<path d="M45.3143 304.353C46.1112 304.004 46.3104 304.502 45.8124 305.449C45.3143 306.395 44.2684 307.441 43.4715 307.79C42.6746 308.138 42.4754 307.64 42.9734 306.694C43.5213 305.748 44.5672 304.702 45.3143 304.353Z" fill="#34425E"/>
<path d="M35.2059 312.465C36.0028 312.116 36.202 312.614 35.704 313.56C35.2059 314.507 34.16 315.553 33.3631 315.901C32.5662 316.25 32.367 315.752 32.865 314.806C33.4129 313.859 34.4588 312.813 35.2059 312.465Z" fill="#34425E"/>
<path d="M37.9925 304.199C38.7894 303.85 38.9887 304.348 38.4906 305.295C37.9925 306.241 36.9466 307.287 36.1497 307.636C35.3528 307.984 35.1536 307.486 35.6517 306.54C36.1497 305.593 37.1957 304.548 37.9925 304.199Z" fill="#34425E"/>
<path d="M37.6437 293.59C38.4406 293.242 38.6398 293.74 38.1417 294.686C37.6437 295.632 36.5977 296.678 35.8008 297.027C35.004 297.376 34.8047 296.877 35.3028 295.931C35.8507 294.985 36.8966 293.939 37.6437 293.59Z" fill="#34425E"/>
<path d="M45.9117 297.376C46.7086 297.027 46.9079 297.525 46.4098 298.471C45.9117 299.418 44.8658 300.464 44.0689 300.812C43.272 301.161 43.0728 300.663 43.5709 299.716C44.1187 298.77 45.1646 297.724 45.9117 297.376Z" fill="#34425E"/>
<path d="M41.6781 295.433C42.475 295.084 42.6742 295.583 42.1762 296.529C41.6781 297.475 40.6322 298.521 39.8353 298.87C39.0384 299.218 38.8392 298.72 39.3372 297.774C39.8353 296.828 40.8812 295.782 41.6781 295.433Z" fill="#34425E"/>
<path d="M60.9455 328.064C64.9831 330.153 175.527 430.603 184.715 438.399C189.17 442.437 192.512 423.641 191.05 422.528C188.214 420.367 75.7031 330.57 69.0204 324.723C67.3147 323.23 65.4904 321.625 63.7003 320.048C58.5417 315.502 50.9958 316.598 45.9971 321.319C44.0916 323.119 41.8235 324.944 38.739 327.09C51.5476 323.748 56.9079 325.976 60.9455 328.064Z" fill="#6994A8"/>
<path d="M92.8146 414.677C91.3234 413.813 89.5182 413.5 87.5561 413.735C82.0622 414.52 77.667 419.935 77.667 425.822C77.667 429.589 79.4721 432.728 82.2191 434.22L148.022 470.551C145.275 469.06 143.392 465.999 143.47 462.153C143.47 456.267 147.937 450.885 153.352 450.101C155.314 449.865 157.236 450.215 158.728 451.078L92.8146 414.677Z" fill="#465574"/>
<path d="M153.275 450.099C158.76 449.315 163.148 453.468 163.148 459.345C163.148 465.222 158.682 470.629 153.275 471.413C147.79 472.196 143.402 468.043 143.402 462.166C143.402 456.289 147.79 450.883 153.275 450.099Z" fill="#3B4965"/>
<path d="M154.242 471.222C154.242 471.222 150.153 466.169 149.211 464.521C148.27 462.872 156.513 468.674 158.229 469.249C157.321 469.961 155.991 470.775 154.242 471.222Z" fill="#131F37"/>
<path d="M88.9729 414.459C90.4016 414.287 91.716 414.516 92.8018 415.144L151.736 447.702C152.211 447.964 151.979 448.887 151.447 448.99C147.524 449.751 143.88 453.17 142.287 457.638C141.819 458.953 140.287 459.716 139.064 459.044L85.0868 429.374C83.0866 428.289 81.7722 426.003 81.7722 423.26C81.7722 418.973 84.9725 415.03 88.9729 414.459Z" fill="url(#paint20_linear)"/>
<path d="M90.5542 415.447C91.5886 415.323 92.5402 415.489 93.3263 415.944L148.03 446.218C148.808 446.649 148.682 447.825 147.863 448.176C145.511 449.182 144.122 450.551 142.004 453.227C141.083 454.391 139.46 454.741 138.16 454.024L87.7408 426.246C86.2927 425.46 85.3411 423.805 85.3411 421.819C85.3411 418.716 87.658 415.861 90.5542 415.447Z" fill="url(#paint21_linear)"/>
<path d="M156.495 455.885C155.687 455.48 154.744 455.278 153.733 455.413C150.836 455.817 148.545 458.647 148.478 461.746C148.478 463.767 149.421 465.384 150.903 466.193L200.129 490.747C198.984 490.141 198.175 488.794 198.175 487.244C198.175 484.751 200.062 482.461 202.352 482.124C203.161 481.989 203.902 482.124 204.576 482.528L156.495 455.885Z" fill="#B5C3E0"/>
<path d="M156.208 456.503C155.637 456.217 154.971 456.075 154.257 456.17C152.211 456.455 150.593 458.454 150.546 460.643C150.546 462.07 151.212 463.212 152.259 463.783L184.86 479.902C188.338 481.567 196.835 479.323 194.113 477.493L156.208 456.503Z" fill="#C2CFE9" fill-opacity="0.78"/>
<path d="M155.544 456.966C155.111 456.75 154.606 456.642 154.064 456.714C152.513 456.93 151.286 458.446 151.25 460.106C151.25 461.188 151.755 462.054 152.549 462.487C152.549 462.487 182.156 476.961 184.994 478.452C187.833 479.942 193.6 477.986 191.322 476.738C189.043 475.491 155.544 456.966 155.544 456.966Z" fill="#DFE8FA" fill-opacity="0.45"/>
<path d="M229.786 503.601C229.786 505.358 231.103 506.676 232.64 506.676C234.287 506.676 235.495 506.587 235.495 504.94C236.464 495.866 237.731 481.86 238.699 472.787C237.697 471.238 234.903 468.49 231.543 469.381C210.33 475.005 189.612 481.757 168.568 487.981C165.625 488.822 163.889 491.977 164.517 495.038L167.264 523.601C167.406 525.367 168.582 526.676 170.119 526.676C171.766 526.676 172.853 526.905 172.853 525.258L174.866 503.465C175.025 501.845 176.151 500.482 177.712 500.02L184.303 498.071C185.503 497.716 186.73 498.537 186.859 499.782L188.441 515.699C188.589 517.438 189.759 518.773 191.296 518.773C192.943 518.773 194.151 518.93 194.151 517.173L196.002 497.191C196.169 495.58 197.292 494.229 198.846 493.769L205.504 491.8C206.704 491.445 207.931 492.267 208.06 493.511L209.754 509.376C209.884 511.301 211.071 512.45 212.609 512.45C214.146 512.45 215.524 512.501 215.524 510.745L217.182 490.927C217.35 489.315 218.473 487.964 220.026 487.505L225.478 485.892C226.678 485.537 227.905 486.359 228.034 487.603L229.786 503.601Z" fill="#A3B6DF"/>
<path d="M230.973 503.506C230.973 505.263 232.291 506.58 233.828 506.58C235.475 506.58 236.683 505.153 236.683 503.506C237.652 494.433 238.62 485.359 239.589 476.286C239.995 472.739 236.261 469.192 232.902 470.083C211.688 475.707 190.971 482.459 169.926 488.683C166.983 489.524 165.248 492.679 165.875 495.74L168.608 523.599C168.608 525.356 169.926 526.673 171.463 526.673C173.11 526.673 174.318 525.246 174.318 523.599L176.224 504.168C176.383 502.547 177.509 501.184 179.07 500.722L185.661 498.773C186.861 498.418 188.088 499.24 188.218 500.484L189.799 515.694C189.799 517.45 191.117 518.768 192.654 518.768C194.301 518.768 195.509 517.45 195.509 515.694L197.36 497.894C197.528 496.282 198.651 494.931 200.204 494.472L206.862 492.502C208.062 492.148 209.289 492.969 209.419 494.213L210.99 509.325C210.99 511.082 212.308 512.4 213.845 512.4C215.382 512.4 216.7 511.082 216.7 509.325L218.54 491.629C218.708 490.018 219.831 488.667 221.384 488.207L226.836 486.595C228.036 486.24 229.263 487.061 229.393 488.306L230.973 503.506Z" fill="#B5C3E0"/>
<path fill-rule="evenodd" clip-rule="evenodd" d="M231.968 503.403C231.972 503.437 231.973 503.472 231.973 503.506C231.973 504.76 232.891 505.58 233.828 505.58C234.829 505.58 235.683 504.7 235.683 503.506C235.683 503.471 235.685 503.435 235.689 503.4L238.596 476.172C238.755 474.781 238.1 473.304 236.974 472.251C235.847 471.196 234.415 470.716 233.158 471.049C218.942 474.818 204.963 479.09 190.939 483.376C184.051 485.481 177.153 487.589 170.21 489.642L170.201 489.645C167.811 490.328 166.321 492.937 166.854 495.539C166.861 495.573 166.867 495.608 166.87 495.642L169.603 523.501C169.607 523.534 169.608 523.566 169.608 523.599C169.608 524.853 170.526 525.673 171.463 525.673C172.463 525.673 173.318 524.793 173.318 523.599C173.318 523.566 173.319 523.534 173.322 523.501L175.229 504.07C175.428 502.044 176.835 500.341 178.787 499.764L185.377 497.814C187.177 497.282 189.018 498.514 189.212 500.381L190.794 515.59C190.798 515.625 190.799 515.659 190.799 515.694C190.799 516.947 191.717 517.768 192.654 517.768C193.677 517.768 194.509 516.973 194.509 515.694C194.509 515.659 194.511 515.625 194.514 515.59L196.365 497.79C196.575 495.776 197.979 494.087 199.92 493.513L206.578 491.544C208.378 491.011 210.219 492.243 210.413 494.11L211.985 509.222C211.988 509.256 211.99 509.291 211.99 509.325C211.99 510.579 212.908 511.4 213.845 511.4C214.782 511.4 215.7 510.579 215.7 509.325C215.7 509.291 215.702 509.256 215.705 509.222L217.546 491.526C217.755 489.512 219.159 487.823 221.101 487.248L226.552 485.636C228.352 485.103 230.193 486.336 230.387 488.202L231.968 503.403ZM239.589 476.286C239.995 472.739 236.261 469.192 232.902 470.083C218.668 473.857 204.658 478.138 190.623 482.427C183.74 484.53 176.851 486.635 169.926 488.683C166.983 489.524 165.248 492.679 165.875 495.74L168.608 523.599C168.608 525.356 169.926 526.673 171.463 526.673C173.11 526.673 174.318 525.246 174.318 523.599L176.224 504.168C176.383 502.547 177.509 501.184 179.07 500.722L185.661 498.773C186.861 498.418 188.088 499.24 188.218 500.484L189.799 515.694C189.799 517.45 191.117 518.768 192.654 518.768C194.301 518.768 195.509 517.45 195.509 515.694L197.36 497.894C197.528 496.282 198.651 494.931 200.204 494.472L206.862 492.502C208.062 492.148 209.289 492.969 209.419 494.213L210.99 509.325C210.99 511.082 212.308 512.4 213.845 512.4C215.382 512.4 216.7 511.082 216.7 509.325L218.54 491.629C218.708 490.018 219.831 488.667 221.384 488.207L226.836 486.595C228.036 486.24 229.263 487.061 229.393 488.306L230.973 503.506C230.973 505.263 232.291 506.58 233.828 506.58C235.475 506.58 236.683 505.153 236.683 503.506L239.589 476.286Z" fill="url(#paint22_linear)"/>
<defs>
<filter id="filter0_f" x="219.292" y="387.087" width="216.798" height="82.1845" filterUnits="userSpaceOnUse" color-interpolation-filters="sRGB">
<feFlood flood-opacity="0" result="BackgroundImageFix"/>
<feBlend mode="normal" in="SourceGraphic" in2="BackgroundImageFix" result="shape"/>
<feGaussianBlur stdDeviation="9.5" result="effect1_foregroundBlur"/>
</filter>
<filter id="filter1_f" x="153.007" y="419.649" width="188.888" height="87.9991" filterUnits="userSpaceOnUse" color-interpolation-filters="sRGB">
<feFlood flood-opacity="0" result="BackgroundImageFix"/>
<feBlend mode="normal" in="SourceGraphic" in2="BackgroundImageFix" result="shape"/>
<feGaussianBlur stdDeviation="9.5" result="effect1_foregroundBlur"/>
</filter>
<filter id="filter2_f" x="68.4246" y="421.962" width="170.859" height="108.547" filterUnits="userSpaceOnUse" color-interpolation-filters="sRGB">
<feFlood flood-opacity="0" result="BackgroundImageFix"/>
<feBlend mode="normal" in="SourceGraphic" in2="BackgroundImageFix" result="shape"/>
<feGaussianBlur stdDeviation="2.5" result="effect1_foregroundBlur"/>
</filter>
<linearGradient id="paint0_linear" x1="330.723" y1="378.185" x2="461.239" y2="149.479" gradientUnits="userSpaceOnUse">
<stop stop-color="#4EB8F4"/>
<stop offset="1" stop-color="#47D7D6"/>
</linearGradient>
<linearGradient id="paint1_linear" x1="99.2612" y1="-21.586" x2="194.519" y2="80.1302" gradientUnits="userSpaceOnUse">
<stop stop-color="#EE7E6C"/>
<stop offset="1" stop-color="#F8AC70"/>
</linearGradient>
<linearGradient id="paint2_linear" x1="504.966" y1="281.524" x2="553.926" y2="378.12" gradientUnits="userSpaceOnUse">
<stop stop-color="#F7A770"/>
<stop offset="1" stop-color="#FFCA62"/>
</linearGradient>
<linearGradient id="paint3_linear" x1="466.867" y1="419.695" x2="233.098" y2="419.695" gradientUnits="userSpaceOnUse">
<stop stop-color="#ECDCB3"/>
<stop offset="1" stop-color="#C9A98D"/>
</linearGradient>
<linearGradient id="paint4_linear" x1="331.963" y1="226.399" x2="331.963" y2="343.633" gradientUnits="userSpaceOnUse">
<stop stop-color="#EBDBB1"/>
<stop offset="1" stop-color="#D3A681"/>
</linearGradient>
<linearGradient id="paint5_linear" x1="403.514" y1="277.242" x2="248.849" y2="277.242" gradientUnits="userSpaceOnUse">
<stop stop-color="#ECDCB3"/>
<stop offset="1" stop-color="#ECDCB3" stop-opacity="0"/>
</linearGradient>
<linearGradient id="paint6_linear" x1="311.186" y1="169.654" x2="333.183" y2="207.445" gradientUnits="userSpaceOnUse">
<stop stop-color="#D0DAF2"/>
<stop offset="1" stop-color="#AEC0E5"/>
</linearGradient>
<linearGradient id="paint7_linear" x1="293.087" y1="131.771" x2="315.635" y2="168.698" gradientUnits="userSpaceOnUse">
<stop stop-color="#D2DCF3" stop-opacity="0"/>
<stop offset="1" stop-color="#D2DCF3"/>
</linearGradient>
<linearGradient id="paint8_linear" x1="253.903" y1="54.5891" x2="293.566" y2="121.868" gradientUnits="userSpaceOnUse">
<stop stop-color="#697796"/>
<stop offset="1" stop-color="#697796" stop-opacity="0"/>
</linearGradient>
<linearGradient id="paint9_linear" x1="326.514" y1="304.058" x2="388.206" y2="332.485" gradientUnits="userSpaceOnUse">
<stop stop-color="#A3CEE2"/>
<stop offset="1" stop-color="#C3D0E4" stop-opacity="0"/>
</linearGradient>
<radialGradient id="paint10_radial" cx="0" cy="0" r="1" gradientUnits="userSpaceOnUse" gradientTransform="translate(247.369 303.979) scale(156.903 134.251)">
<stop stop-color="#94BFD3"/>
<stop offset="1" stop-color="#7EA9BD"/>
</radialGradient>
<linearGradient id="paint11_linear" x1="247.369" y1="327.485" x2="247.369" y2="479.266" gradientUnits="userSpaceOnUse">
<stop stop-color="#8EB9CD" stop-opacity="0"/>
<stop offset="1" stop-color="#6691A5"/>
</linearGradient>
<linearGradient id="paint12_linear" x1="247.369" y1="281.459" x2="247.369" y2="314.578" gradientUnits="userSpaceOnUse">
<stop stop-color="#042F43"/>
<stop offset="1" stop-color="#366175"/>
</linearGradient>
<radialGradient id="paint13_radial" cx="0" cy="0" r="1" gradientUnits="userSpaceOnUse" gradientTransform="translate(230.38 281.625) rotate(-0.789154) scale(60.1162 31.4553)">
<stop stop-color="#D9E2F8"/>
<stop offset="1" stop-color="#D9E2F8" stop-opacity="0"/>
</radialGradient>
<radialGradient id="paint14_radial" cx="0" cy="0" r="1" gradientUnits="userSpaceOnUse" gradientTransform="translate(272.597 320.57) rotate(-172.235) scale(38.4707 128.187)">
<stop stop-color="#D4DEF6"/>
<stop offset="1" stop-color="white" stop-opacity="0"/>
</radialGradient>
<linearGradient id="paint15_linear" x1="227.053" y1="281.46" x2="227.053" y2="321.831" gradientUnits="userSpaceOnUse">
<stop stop-color="#CEDAF4"/>
<stop offset="1" stop-color="#9BACD0"/>
</linearGradient>
<radialGradient id="paint16_radial" cx="0" cy="0" r="1" gradientUnits="userSpaceOnUse" gradientTransform="translate(212.944 287.403) rotate(25.6817) scale(100.522 90.4584)">
<stop stop-color="#A1CCE0"/>
<stop offset="1" stop-color="#80ABBF"/>
</radialGradient>
<linearGradient id="paint17_linear" x1="55.9696" y1="313.117" x2="193.576" y2="422.849" gradientUnits="userSpaceOnUse">
<stop stop-color="#6792A6"/>
<stop offset="0.306867" stop-color="#82ADC1"/>
<stop offset="1" stop-color="#82ADC1"/>
</linearGradient>
<radialGradient id="paint18_radial" cx="0" cy="0" r="1" gradientUnits="userSpaceOnUse" gradientTransform="translate(55.0875 306.59) rotate(-151.621) scale(8.72243 24.2409)">
<stop stop-color="#D4DEF6"/>
<stop offset="1" stop-color="#D4DEF6" stop-opacity="0"/>
</radialGradient>
<radialGradient id="paint19_radial" cx="0" cy="0" r="1" gradientUnits="userSpaceOnUse" gradientTransform="translate(39.8069 271.908) rotate(84.6879) scale(27.2219 103.441)">
<stop stop-color="#8BB6CA"/>
<stop offset="1" stop-color="#A2B3D7" stop-opacity="0"/>
</radialGradient>
<linearGradient id="paint20_linear" x1="85.1081" y1="419.136" x2="149.851" y2="454.984" gradientUnits="userSpaceOnUse">
<stop stop-color="#4F6083"/>
<stop offset="1" stop-color="#4F6083" stop-opacity="0"/>
</linearGradient>
<linearGradient id="paint21_linear" x1="90.7005" y1="420.928" x2="149.636" y2="455.199" gradientUnits="userSpaceOnUse">
<stop stop-color="#687695"/>
<stop offset="1" stop-color="#687695" stop-opacity="0"/>
</linearGradient>
<linearGradient id="paint22_linear" x1="217.704" y1="467.318" x2="221.836" y2="486.342" gradientUnits="userSpaceOnUse">
<stop stop-color="#D3DCEF"/>
<stop offset="1" stop-color="#D3DCEF" stop-opacity="0"/>
</linearGradient>
</defs>
</svg>
