<svg width="764" height="677" viewBox="0 0 764 677" fill="none" xmlns="http://www.w3.org/2000/svg">
<path d="M142.639 139.635C144.962 102.178 184.3 79.0245 218.076 95.3823C311.557 140.656 381.105 180.893 468.89 240.334C500.035 261.422 499.7 307.179 468.33 327.932C380.056 386.33 310.666 426.66 218.099 472.693C184.384 489.459 144.648 466.596 142.238 429.02C135.755 327.961 135.942 247.632 142.639 139.635Z" fill="url(#paint0_linear)"/>
<path d="M607.824 25.855C571.188 25.855 541.489 55.554 541.489 92.1897C541.489 128.825 571.188 158.524 607.823 158.524C644.459 158.524 674.158 128.825 674.158 92.1897C674.158 55.5541 644.459 25.855 607.824 25.855Z" fill="url(#paint1_linear)"/>
<path d="M718.236 161.469C721.964 157.741 728.009 157.741 731.737 161.469L756.477 186.21C760.205 189.938 760.205 195.982 756.477 199.711L731.737 224.451C728.009 228.179 721.964 228.179 718.236 224.451L693.496 199.711C689.767 195.982 689.767 189.938 693.496 186.21L718.236 161.469Z" fill="url(#paint2_linear)"/>
<g style="mix-blend-mode:multiply" opacity="0.3" filter="url(#filter0_f)">
<path d="M555.328 228.721H385.533C379.109 228.721 373.854 223.473 373.854 217.057V144.157C373.854 137.742 379.109 132.493 385.533 132.493H555.328C561.751 132.493 567.007 137.742 567.007 144.157V216.984C567.007 223.473 561.751 228.721 555.328 228.721Z" fill="#989898"/>
</g>
<g style="mix-blend-mode:multiply" opacity="0.3" filter="url(#filter1_f)">
<path fill-rule="evenodd" clip-rule="evenodd" d="M385.533 226.721H555.328C560.641 226.721 565.007 222.374 565.007 216.984V144.157C565.007 138.849 560.649 134.493 555.328 134.493H385.533C380.211 134.493 375.854 138.849 375.854 144.157V217.057C375.854 222.366 380.211 226.721 385.533 226.721ZM385.533 228.721H555.328C561.752 228.721 567.007 223.473 567.007 216.984V144.157C567.007 137.742 561.752 132.493 555.328 132.493H385.533C379.109 132.493 373.854 137.742 373.854 144.157V217.057C373.854 223.473 379.109 228.721 385.533 228.721Z" fill="url(#paint3_linear)"/>
</g>
<path d="M566.388 220.812H396.594C390.17 220.812 384.914 215.563 384.914 209.148V136.248C384.914 129.832 390.17 124.583 396.594 124.583H566.388C572.812 124.583 578.068 129.832 578.068 136.248V209.075C578.068 215.563 572.812 220.812 566.388 220.812Z" fill="url(#paint4_linear)"/>
<path fill-rule="evenodd" clip-rule="evenodd" d="M396.594 218.812H566.388C571.702 218.812 576.068 214.464 576.068 209.075V136.248C576.068 130.939 571.71 126.583 566.388 126.583H396.594C391.272 126.583 386.914 130.939 386.914 136.248V209.148C386.914 214.456 391.272 218.812 396.594 218.812ZM396.594 220.812H566.388C572.812 220.812 578.068 215.563 578.068 209.075V136.248C578.068 129.832 572.812 124.583 566.388 124.583H396.594C390.17 124.583 384.914 129.832 384.914 136.248V209.148C384.914 215.563 390.17 220.812 396.594 220.812Z" fill="url(#paint5_linear)"/>
<g filter="url(#filter2_d)">
<path d="M544.489 186.549H519.45C518.282 186.549 517.406 185.602 517.406 184.508V159.43C517.406 158.264 518.355 157.389 519.45 157.389H544.489C545.657 157.389 546.533 158.337 546.533 159.43V184.435C546.533 185.602 545.657 186.549 544.489 186.549Z" fill="white"/>
</g>
<g filter="url(#filter3_d)">
<path d="M442.802 186.549H418.931C417.325 186.549 416.23 184.8 416.96 183.342L428.932 159.503C429.735 157.899 432.071 157.899 432.874 159.503L444.846 183.342C445.503 184.8 444.481 186.549 442.802 186.549Z" fill="white"/>
</g>
<g filter="url(#filter4_d)">
<path d="M481.418 187.643C489.683 187.643 496.383 180.952 496.383 172.698C496.383 164.444 489.683 157.753 481.418 157.753C473.154 157.753 466.454 164.444 466.454 172.698C466.454 180.952 473.154 187.643 481.418 187.643Z" fill="white"/>
</g>
<g style="mix-blend-mode:multiply" opacity="0.3" filter="url(#filter5_f)">
<path d="M519.168 499.933C557.829 501.172 573.832 557.545 605.26 641.341C606.731 645.265 603.844 649.463 599.654 649.477L289.934 650.487C287.669 650.494 285.597 649.233 284.573 647.214C268.493 615.504 240.519 558.832 235.548 546.07C229.113 529.551 242.751 500.961 269.026 496.165C295.3 491.369 304.025 478.017 300.982 462.138C297.938 446.259 282.721 400.891 260.656 340.399C243.108 292.29 264.461 263.272 310.873 257.979C356.863 252.735 397.61 282.932 410.545 323.764C423.632 365.077 444.207 429.538 452.25 448.722C460.294 467.906 469.3 498.334 519.168 499.933Z" fill="url(#paint6_linear)"/>
</g>
<path d="M291.788 655.659C287.301 654.651 284.563 650.577 284.606 645.978C284.81 624.251 285.716 573.316 287.669 554.143C289.918 532.075 313.822 509.512 334.908 504.348C355.993 499.184 364.384 496.818 372.345 492.084C380.306 487.351 388.368 476.223 388.368 465.189C388.368 465.189 388.689 445.368 389.127 433.776L532.089 439.897C532.089 439.897 531.352 470.769 532.812 480.246C534.271 489.723 539.598 501.432 556.753 504.348C573.907 507.264 603.472 512.513 608.947 553.191C613.006 583.442 613.3 626.583 613.3 645.739C613.3 650.261 610.546 654.224 606.104 655.074C558.338 664.21 346.684 667.982 291.788 655.659Z" fill="url(#paint7_linear)"/>
<path fill-rule="evenodd" clip-rule="evenodd" d="M292.644 554.65C290.719 573.542 289.811 624.211 289.606 646.025C289.581 648.668 291.066 650.372 292.884 650.78C306.126 653.753 329.244 655.819 357.56 657.056C385.759 658.287 418.764 658.686 451.578 658.414C517.409 657.868 581.803 654.631 605.165 650.163C606.85 649.84 608.3 648.293 608.3 645.739C608.3 626.537 607.999 583.725 603.991 553.858C601.433 534.852 593.408 524.691 584.471 518.779C575.241 512.672 564.562 510.747 555.915 509.277C546.241 507.633 539.507 503.405 535.025 497.921C530.623 492.535 528.685 486.298 527.87 481.007C527.069 475.809 526.901 465.295 526.903 456.517C526.904 452.033 526.95 447.852 526.997 444.793C526.998 444.756 526.998 444.72 526.999 444.684L393.955 438.988C393.809 443.82 393.681 449.256 393.582 453.935C393.515 457.131 393.461 459.966 393.424 462.002C393.405 463.02 393.391 463.837 393.382 464.401L393.368 465.232C393.357 471.917 390.933 478.359 387.566 483.675C384.194 488.998 379.647 493.56 374.9 496.382C366.177 501.568 357.006 504.084 336.097 509.205C326.643 511.52 316.181 517.878 307.79 526.412C299.374 534.972 293.614 545.13 292.644 554.65ZM388.959 438.774C389.013 437.006 389.069 435.318 389.127 433.776L532.089 439.897C532.089 439.897 531.352 470.769 532.812 480.246C534.271 489.723 539.598 501.432 556.753 504.348C573.907 507.264 603.472 512.513 608.947 553.191C613.006 583.442 613.3 626.583 613.3 645.739C613.3 650.261 610.546 654.224 606.104 655.074C558.338 664.21 346.684 667.982 291.788 655.659C287.301 654.651 284.563 650.577 284.606 645.978C284.81 624.251 285.716 573.316 287.669 554.143C289.918 532.075 313.822 509.512 334.908 504.348C355.993 499.184 364.384 496.818 372.345 492.084C380.306 487.351 388.368 476.223 388.368 465.189C388.368 465.189 388.61 450.291 388.959 438.774Z" fill="url(#paint8_linear)"/>
<path opacity="0.5" d="M293.504 650.967C291.167 650.541 289.591 648.526 289.614 646.151C289.755 631.049 290.377 577.993 292.218 561.423C294.373 542.028 334.402 540.825 393.278 598.385C452.153 655.945 456.1 639.828 447.877 612.528C439.654 585.228 432.747 559.244 453.469 570.427C474.19 581.61 492.609 593.122 522.87 610.883C553.13 628.645 558.063 613.186 547.867 592.793C537.671 572.4 559.708 572.73 581.416 601.345C603.124 629.96 608.102 648.375 608.102 648.375C546.949 662.008 353.999 661.981 293.504 650.967Z" fill="url(#paint9_linear)"/>
<path fill-rule="evenodd" clip-rule="evenodd" d="M538.392 494.119C530.771 507.958 507.853 510.852 495.626 505.678C484.269 500.871 477.391 493.176 471.613 486.712C469.531 484.382 467.592 482.212 465.637 480.395C458.258 473.535 446.81 473.268 441.162 483.219C435.513 493.171 428.905 504.42 408.348 501.912C394.845 500.569 388.176 488.866 388.176 473.268C388.176 471.805 388.148 470.299 388.097 468.751C388.274 467.568 388.368 466.378 388.368 465.189C388.368 465.189 388.69 445.368 389.127 433.776L532.089 439.897C532.089 439.897 531.352 470.769 532.812 480.246C533.507 484.761 535.08 489.783 538.392 494.119Z" fill="#CBCDE9"/>
<path d="M387.621 409.033C387.84 382.789 383.884 332.941 404.105 308.666C428.924 278.849 462.616 270.805 494.005 275.034C530.942 280.064 573.343 315.253 576.263 360.451C578.745 399.38 566.387 424.967 533.027 443.193C532.744 454.84 532.156 466.014 533.027 476.716C535.685 501.888 505.108 506.36 490.664 499.784C476.22 493.209 470.183 481.459 463.284 474.561C456.386 467.662 443.774 466.584 439.462 474.561C435.15 482.537 426.42 501.336 407.201 498.814C394.577 497.463 386.858 488.192 386.858 472.505C386.859 456.818 387.402 432.726 387.621 409.033Z" fill="url(#paint10_linear)"/>
<path fill-rule="evenodd" clip-rule="evenodd" d="M391.621 409.067L391.621 409.07C391.526 419.397 391.369 429.754 391.223 439.452C391.032 452.101 390.858 463.629 390.858 472.505C390.858 479.719 392.632 485.002 395.436 488.558C398.195 492.056 402.244 494.261 407.627 494.837C407.658 494.84 407.69 494.844 407.721 494.848C415.71 495.896 421.502 492.616 426.025 487.866C430.154 483.53 432.966 478.245 435.128 474.182C435.41 473.652 435.681 473.142 435.943 472.658C439.025 466.956 444.948 464.819 450.521 464.984C456.07 465.148 461.924 467.544 466.113 471.732C468.005 473.625 469.798 475.808 471.549 477.969C471.729 478.191 471.908 478.413 472.088 478.634C473.696 480.623 475.313 482.621 477.112 484.612C481.067 488.988 485.761 493.158 492.321 496.144C498.523 498.967 508.67 499.5 516.846 496.413C520.856 494.899 524.143 492.607 526.291 489.56C528.397 486.573 529.622 482.563 529.049 477.136C529.047 477.117 529.045 477.098 529.044 477.079C529.042 477.066 529.041 477.054 529.04 477.041C528.307 468.034 528.581 458.682 528.857 449.274C528.918 447.216 528.978 445.156 529.028 443.096C529.062 441.668 529.856 440.367 531.109 439.682C547.262 430.858 558.026 420.428 564.527 407.759C571.046 395.058 573.483 379.711 572.272 360.709C570.889 339.31 560.142 320.098 545.109 305.554C530.054 290.988 510.981 281.383 493.468 278.997C463.154 274.915 430.945 282.674 407.179 311.225L407.178 311.226C397.907 322.356 393.903 339.802 392.349 358.444C391.238 371.76 391.403 385.078 391.545 396.505C391.601 401.027 391.653 405.253 391.621 409.067ZM494.005 275.034C530.942 280.064 573.343 315.253 576.263 360.451C578.745 399.38 566.387 424.967 533.027 443.193C532.976 445.302 532.914 447.395 532.854 449.473C532.579 458.871 532.314 467.952 533.027 476.716C535.685 501.888 505.108 506.36 490.664 499.784C480.197 495.02 474.145 487.538 468.981 481.154C467.018 478.728 465.184 476.46 463.284 474.561C456.386 467.662 443.774 466.584 439.462 474.561C439.214 475.018 438.952 475.512 438.675 476.035C434.113 484.625 425.317 501.191 407.201 498.814C394.577 497.463 386.858 488.192 386.858 472.505C386.858 463.614 387.033 452.023 387.224 439.335C387.371 429.637 387.526 419.298 387.621 409.033C387.652 405.36 387.601 401.224 387.546 396.761C387.206 369.336 386.715 329.544 404.105 308.666C428.924 278.849 462.616 270.805 494.005 275.034Z" fill="url(#paint11_linear)"/>
<path fill-rule="evenodd" clip-rule="evenodd" d="M454.59 288.72C455.959 293.785 452.964 299.001 447.899 300.371C442.668 301.785 436.317 305.817 430.077 311.445C423.961 316.963 418.815 323.231 415.872 327.94C413.091 332.389 407.23 333.742 402.781 330.961C398.332 328.18 396.979 322.319 399.76 317.87C403.729 311.519 410.057 303.916 417.351 297.337C424.521 290.869 433.516 284.578 442.939 282.03C448.004 280.66 453.22 283.655 454.59 288.72Z" fill="#3FA3FF"/>
<path d="M459.004 439.715C470.027 446.932 493.138 456.093 533.068 443.19L532.477 471.761C532.477 471.761 487.547 478.936 457.252 441.611C456.303 440.517 457.763 438.913 459.004 439.715Z" fill="#0472E7"/>
<path d="M429.567 376.177C435.991 407.233 462.147 426.538 505.362 422.018C556.018 415.808 564.497 378.389 560.626 355.347C556.976 333.259 532.792 305.394 498.507 305.394C464.221 305.394 419.982 330.831 429.567 376.177Z" fill="url(#paint12_radial)"/>
<path fill-rule="evenodd" clip-rule="evenodd" d="M505.362 422.018C462.147 426.538 435.991 407.233 429.567 376.177C419.981 330.831 464.221 305.394 498.506 305.394C532.792 305.394 556.976 333.259 560.626 355.347C564.497 378.389 556.018 415.808 505.362 422.018ZM564.572 354.691C562.576 342.619 555.084 329.351 543.733 319.116C532.322 308.827 516.78 301.394 498.506 301.394C480.501 301.394 459.928 308.037 444.994 320.733C429.899 333.566 420.516 352.686 425.651 376.996C429.06 393.462 437.77 407.027 451.514 415.809C465.21 424.561 483.521 428.324 505.778 425.997L505.813 425.993L505.849 425.989C532.213 422.756 548.161 411.276 556.853 397.084C565.437 383.066 566.625 366.924 564.572 354.691Z" fill="url(#paint13_linear)"/>
<path opacity="0.35" d="M437.279 377.81C435.749 376.959 433.913 378.285 434.392 379.969C441.965 406.602 466.137 422.747 504.762 418.707C543.879 413.912 563.587 381.664 556.639 354.441C554.539 346.213 544.174 347.488 539.847 354.795C515.896 395.235 473.451 397.955 437.279 377.81Z" fill="url(#paint14_linear)"/>
<path opacity="0.35" d="M438.329 361.463C447.204 368.195 463.706 365.269 484.295 350.125C508.263 332.115 505.608 318.801 499.466 313.519C493.609 308.437 476.517 308.306 459.524 319.306C442.532 330.306 425.268 351.7 438.329 361.463Z" fill="#3873D8"/>
<path d="M522.929 371.538C522.3 370.968 521.074 370.893 520.723 371.708C519.286 374.483 515.438 383.427 516.395 385.027C517.352 386.627 520.288 388.615 523.277 388.924C526.266 389.232 528.804 387.53 528.985 384.296C529.165 381.062 524.112 372.805 522.929 371.538Z" fill="#183C83"/>
<path d="M522.761 370.781C522.157 369.861 520.993 369.862 520.491 370.537C518.536 372.789 514.83 380.505 515.101 382.183C515.372 383.861 516.208 385.643 519.285 386.706C522.362 387.769 526.134 386.424 527.075 382.851C528.016 379.278 523.747 372.166 522.761 370.781Z" fill="url(#paint15_linear)"/>
<path d="M484.269 360.547C483.01 364.582 485.309 368.888 489.403 370.165C493.496 371.441 497.835 369.205 499.093 365.17C500.352 361.134 498.053 356.828 493.959 355.552C489.866 354.275 485.527 356.512 484.269 360.547Z" fill="#183C83"/>
<path d="M498.446 361.148C499.111 365.162 496.393 368.956 492.373 369.622C488.354 370.289 484.556 367.575 483.891 363.562C483.225 359.548 485.944 355.754 489.963 355.087C493.982 354.421 497.78 357.134 498.446 361.148Z" fill="#DFE1FF"/>
<path d="M490.752 357.377C491.759 358.298 491.457 360.267 490.078 361.774C488.699 363.282 486.765 363.757 485.758 362.836C484.751 361.915 485.052 359.946 486.431 358.438C487.811 356.931 489.745 356.455 490.752 357.377Z" fill="#C7CAFF"/>
<path d="M488.584 358.522C488.95 358.857 488.808 359.609 488.267 360.201C487.725 360.793 486.989 361.001 486.623 360.666C486.257 360.331 486.399 359.58 486.941 358.988C487.482 358.395 488.218 358.187 488.584 358.522Z" fill="white"/>
<path d="M486.846 364.871C486.459 364.925 486.182 365.345 486.406 365.666C487.645 367.443 489.836 368.45 492.118 368.071C495.279 367.547 497.417 364.563 496.893 361.407C496.567 359.439 495.284 357.869 493.598 357.092C493.217 356.917 492.833 357.331 492.868 357.749C492.989 359.184 492.292 360.996 490.897 362.522C489.668 363.865 488.17 364.688 486.846 364.871Z" fill="#D2D5F9"/>
<path d="M544.11 362.06C543.064 366.126 544.468 370.307 547.244 371.399C550.02 372.491 553.118 370.08 554.163 366.015C555.208 361.949 553.805 357.768 551.029 356.676C548.253 355.584 545.155 357.994 544.11 362.06Z" fill="#183C83"/>
<path d="M553.882 362.039C554.166 365.999 552.118 369.89 549.308 370.73C546.498 371.569 543.99 369.04 543.706 365.08C543.423 361.12 545.47 357.229 548.28 356.389C551.09 355.549 553.598 358.079 553.882 362.039Z" fill="#DFE1FF"/>
<path d="M548.726 358.633C549.383 359.504 549.088 361.474 548.068 363.033C547.048 364.591 545.689 365.148 545.032 364.277C544.376 363.405 544.67 361.435 545.69 359.877C546.71 358.318 548.07 357.761 548.726 358.633Z" fill="#C7CAFF"/>
<path d="M547.177 359.866C547.416 360.183 547.285 360.936 546.884 361.548C546.483 362.161 545.965 362.4 545.726 362.083C545.488 361.766 545.619 361.013 546.019 360.401C546.42 359.789 546.938 359.55 547.177 359.866Z" fill="white"/>
<path d="M545.887 366.194C545.524 366.32 545.205 366.723 545.352 367.049C546.131 368.768 547.606 369.679 549.206 369.202C551.416 368.543 553.026 365.484 552.801 362.37C552.67 360.546 551.938 359.107 550.91 358.361C550.592 358.13 550.17 358.5 550.176 358.913C550.195 360.334 549.635 362.164 548.603 363.74C547.755 365.035 546.766 365.89 545.887 366.194Z" fill="#D2D5F9"/>
<path d="M627.561 499.479C641.269 499.479 652.381 488.381 652.381 474.692C652.381 461.003 641.269 449.906 627.561 449.906C613.854 449.906 602.742 461.003 602.742 474.692C602.742 488.381 613.854 499.479 627.561 499.479Z" fill="url(#paint16_radial)"/>
<g opacity="0.53" filter="url(#filter6_f)">
<path d="M611.48 470.845C614.42 473.073 619.022 471.951 621.759 468.339C624.496 464.727 624.331 459.993 621.391 457.765C618.451 455.537 613.849 456.66 611.112 460.271C608.375 463.883 608.54 468.617 611.48 470.845Z" fill="white"/>
</g>
<path d="M641.655 362.721C642.883 361.535 644.49 360.84 646.195 360.765C652.678 360.479 669.181 359.754 673.404 359.607C674.144 359.581 675.01 360.219 675.316 361.034L655.386 380.276C655.08 379.46 654.214 378.823 653.475 378.849L624.243 379.868C623.988 379.868 623.758 379.97 623.631 380.123L641.655 362.721Z" fill="#D7DFF2"/>
<path d="M624.243 379.868L653.475 378.849C654.214 378.823 655.081 379.46 655.386 380.276L667.594 412.337C667.9 413.152 667.543 413.841 666.804 413.866L637.572 414.885C636.833 414.911 635.966 414.274 635.66 413.458L623.453 381.397C623.147 380.582 623.504 379.894 624.243 379.868Z" fill="url(#paint17_linear)"/>
<path fill-rule="evenodd" clip-rule="evenodd" d="M624.344 380.865L653.509 379.848C653.509 379.848 653.51 379.848 653.51 379.848C653.592 379.845 653.776 379.886 653.997 380.049C654.21 380.208 654.373 380.421 654.45 380.627L654.452 380.632L654.452 380.632L666.658 412.688C666.658 412.689 666.658 412.689 666.658 412.69C666.688 412.768 666.699 412.827 666.702 412.869L637.537 413.886C637.537 413.886 637.537 413.886 637.537 413.886L637.572 414.885M666.804 413.866C667.543 413.841 667.9 413.152 667.594 412.337L655.386 380.276C655.081 379.46 654.214 378.823 653.475 378.849L624.243 379.868C623.504 379.894 623.147 380.582 623.453 381.397L635.66 413.458M624.389 381.046L636.595 413.102L636.597 413.107C636.674 413.313 636.837 413.526 637.05 413.685C637.27 413.848 637.454 413.889 637.537 413.886M624.344 380.865C624.348 380.907 624.359 380.966 624.388 381.044L624.344 380.865ZM624.388 381.044C624.389 381.045 624.389 381.045 624.389 381.046L624.388 381.044Z" fill="url(#paint18_linear)"/>
<path d="M656.177 376.249L672.513 360.448C673.379 359.607 674.832 359.887 675.291 361.008V361.034L687.499 393.095C687.702 393.63 687.626 394.089 687.346 394.369L667.416 413.611C667.696 413.331 667.773 412.872 667.569 412.337L655.361 380.276V380.25C654.826 378.874 655.106 377.294 656.177 376.249Z" fill="url(#paint19_linear)"/>
<path fill-rule="evenodd" clip-rule="evenodd" d="M672.513 360.448C673.379 359.607 674.832 359.887 675.291 361.008V361.034L687.499 393.095C687.702 393.63 687.626 394.089 687.346 394.369L667.416 413.611C667.696 413.331 667.773 412.872 667.569 412.337L655.361 380.276V380.25C654.826 378.874 655.106 377.294 656.177 376.249L672.513 360.448ZM656.874 376.966C656.874 376.965 656.875 376.965 656.875 376.964L673.209 361.165C673.559 360.826 674.102 360.925 674.322 361.299L686.564 393.451C686.612 393.577 686.615 393.654 686.613 393.686L668.278 411.389L656.361 380.092V380.063L656.293 379.888C655.892 378.856 656.113 377.71 656.874 376.966Z" fill="url(#paint20_linear)"/>
<path d="M703.94 425.939C704.506 425.106 705.08 424.898 705.696 424.826L717.031 484.62C715.701 484.918 713.677 484.989 712.012 484.241L679.155 469.53C677.235 468.668 676.559 466.281 677.741 464.539L703.94 425.939Z" fill="url(#paint21_linear)"/>
<path d="M705.692 424.821C706.681 424.741 707.131 425.131 707.938 425.838L739.488 453.496C740.842 454.684 741.03 456.723 739.917 458.138L720.494 482.825C719.805 483.651 718.267 484.388 717.029 484.626L705.692 424.821Z" fill="url(#paint22_linear)"/>
<path fill-rule="evenodd" clip-rule="evenodd" d="M708.246 425.443C708.253 425.45 708.26 425.456 708.268 425.462L739.817 453.12C741.371 454.483 741.588 456.823 740.31 458.447L720.887 483.134L720.878 483.145C720.472 483.631 719.849 484.059 719.193 484.392C718.531 484.728 717.793 484.988 717.123 485.117C716.993 485.142 716.858 485.114 716.748 485.039C716.638 484.965 716.563 484.849 716.538 484.719L705.201 424.914C705.175 424.774 705.209 424.63 705.295 424.517C705.381 424.405 705.511 424.334 705.652 424.322C706.23 424.276 706.686 424.367 707.115 424.591C707.508 424.796 707.864 425.108 708.246 425.443ZM706.301 425.347L717.423 484.018C717.858 483.894 718.316 483.716 718.741 483.5C719.333 483.2 719.821 482.848 720.106 482.51L739.524 457.829C740.473 456.622 740.312 454.884 739.158 453.872L707.609 426.214C707.192 425.849 706.925 425.62 706.652 425.477C706.543 425.42 706.43 425.376 706.301 425.347Z" fill="url(#paint23_radial)"/>
<path d="M708.59 534.066C704.429 537.347 700.414 539.752 691.362 543.908C690.851 544.126 690.194 543.835 690.121 543.179C690.121 542.814 690.267 542.45 690.632 542.304C697.056 539.388 706.765 534.358 711.217 528.963C717.714 521.09 712.093 514.893 707.349 520.434C703.188 525.318 698.37 529.546 688.515 533.775C688.15 533.92 687.639 533.775 687.493 533.337C687.274 532.973 687.493 532.462 687.858 532.317C694.428 529.401 702.239 524.735 705.889 518.32C709.758 511.613 703.626 506.51 698.808 513.144C695.304 517.955 691.873 521.527 682.602 525.245C682.237 525.391 681.872 525.318 681.58 525.027C681.069 524.589 681.215 523.714 681.872 523.423C686.252 521.454 690.632 518.903 693.406 515.695C700.852 507.093 694.355 502.573 688.807 508.624C682.456 515.549 670.265 519.413 660.776 521.381C658.732 521.819 657.345 521.236 658.951 519.632C661.506 517.08 663.841 514.091 664.644 510.592C665.374 507.53 663.331 505.343 660.557 507.093C654.498 510.957 641.796 518.32 632.087 524.954C619.677 533.483 621.356 551.198 621.356 551.198C621.356 551.198 621.356 645.977 621.356 652.007C621.356 658.036 671.579 657.643 671.579 652.007C671.579 646.37 670.703 578.317 670.411 571.61C670.192 565.997 677.346 561.768 684.354 557.832C684.354 557.832 703.991 549.448 711.728 541.721C719.028 534.649 714.356 529.473 708.59 534.066Z" fill="url(#paint24_linear)"/>
<path d="M645.751 525.722C638.923 522.379 628.647 529.791 629.088 538.462C629.53 547.133 643.764 557.518 661.088 558.375C672.215 558.925 686.687 554.627 689.335 549.489C691.773 544.759 679.073 550.56 662.412 545.421C650.543 541.76 657.337 531.396 645.751 525.722Z" fill="url(#paint25_linear)"/>
<path d="M705.785 537.5C708.4 535.489 710.413 533.74 711.763 533.547C713.113 533.354 714.165 534.977 712.679 536.343C709.69 539.091 704.484 541.935 700.338 543.671C696.192 545.406 690.549 545.338 693.493 544.105C697.06 542.61 702.652 539.911 705.785 537.5Z" fill="url(#paint26_linear)"/>
<path d="M704.973 524.352C707.031 522.211 709.128 519.704 710.317 519.326C711.506 518.948 712.593 520.025 711.571 521.519C709.015 525.255 705.617 527.376 701.809 529.522C698.245 531.529 692.321 532.829 694.915 531.522C698.192 529.871 702.505 526.919 704.973 524.352Z" fill="url(#paint27_linear)"/>
<path d="M696.626 517.205C697.956 515.946 699.157 514.264 700.507 512.432C701.857 510.6 705.448 510.383 703.843 512.944C702.101 515.723 697.783 518.627 695.879 519.494C694.29 520.219 692.092 521.078 694.312 519.205C695.083 518.554 695.734 518.048 696.626 517.205Z" fill="url(#paint28_linear)"/>
<path d="M642.261 519.495C648.596 515.495 656.676 510.11 659.761 508.23C662.847 506.35 663.428 508.411 661.849 510.53C660.699 512.073 656.303 513.987 654.275 516.529C653.353 517.686 654.167 521.651 651.937 520.82C646.922 518.95 641.223 520.15 642.261 519.495Z" fill="url(#paint29_linear)"/>
<path d="M658.604 520.311C658.233 521.053 658.831 521.453 659.484 521.535C653.246 522.433 647.091 523.643 650.307 522.211C653.916 520.604 656.105 519.012 657.77 517.529C660.736 514.887 663.889 511.549 664.723 508.814C664.816 509.927 664.653 511.937 663.379 514.215C661.849 516.95 659.068 519.384 658.604 520.311Z" fill="#D6D9EF"/>
<path d="M680.138 524.816C681.026 525.705 681.673 525.633 682.538 525.29C681.477 525.47 680.579 524.065 682.212 523.233C684.684 521.972 688.139 520.816 692.4 516.751C689.396 519.118 684.432 521.045 682.114 522.057C679.835 523.052 679.028 523.706 680.138 524.816Z" fill="#D6D9EF"/>
<path d="M686.31 533.356C686.702 533.854 687.616 534.139 688.481 533.797C687.42 533.976 686.987 532.678 687.983 532.254C690.319 531.258 694.25 529.552 699.651 525.311C695.855 528.138 690.506 530.172 688.188 531.184C685.909 532.179 685.918 532.858 686.31 533.356Z" fill="#D6D9EF"/>
<path d="M689.201 543.503C689.593 544.001 690.432 544.21 691.158 543.968C690.097 544.148 689.764 542.639 690.76 542.214C693.095 541.219 697.18 539.297 701.74 536.495C697.358 538.711 693.181 540.312 690.863 541.324C688.584 542.319 688.809 543.005 689.201 543.503Z" fill="#D6D9EF"/>
<path d="M688.358 510.142C689.756 508.689 690.745 507.587 692.384 507.033C694.023 506.478 695.021 507.026 694.408 507.997C693.829 508.913 691.526 510.197 689.226 510.745C688.213 510.986 687.732 510.793 688.358 510.142Z" fill="#F3F7FF"/>
<defs>
<filter id="filter0_f" x="362.854" y="121.493" width="215.154" height="118.229" filterUnits="userSpaceOnUse" color-interpolation-filters="sRGB">
<feFlood flood-opacity="0" result="BackgroundImageFix"/>
<feBlend mode="normal" in="SourceGraphic" in2="BackgroundImageFix" result="shape"/>
<feGaussianBlur stdDeviation="5.5" result="effect1_foregroundBlur"/>
</filter>
<filter id="filter1_f" x="362.854" y="121.493" width="215.154" height="118.229" filterUnits="userSpaceOnUse" color-interpolation-filters="sRGB">
<feFlood flood-opacity="0" result="BackgroundImageFix"/>
<feBlend mode="normal" in="SourceGraphic" in2="BackgroundImageFix" result="shape"/>
<feGaussianBlur stdDeviation="5.5" result="effect1_foregroundBlur"/>
</filter>
<filter id="filter2_d" x="509.406" y="153.389" width="45.1264" height="45.1602" filterUnits="userSpaceOnUse" color-interpolation-filters="sRGB">
<feFlood flood-opacity="0" result="BackgroundImageFix"/>
<feColorMatrix in="SourceAlpha" type="matrix" values="0 0 0 0 0 0 0 0 0 0 0 0 0 0 0 0 0 0 127 0"/>
<feOffset dy="4"/>
<feGaussianBlur stdDeviation="4"/>
<feColorMatrix type="matrix" values="0 0 0 0 0.253453 0 0 0 0 0.447661 0 0 0 0 0.970833 0 0 0 0.08 0"/>
<feBlend mode="normal" in2="BackgroundImageFix" result="effect1_dropShadow"/>
<feBlend mode="normal" in="SourceGraphic" in2="effect1_dropShadow" result="shape"/>
</filter>
<filter id="filter3_d" x="408.729" y="154.3" width="44.3175" height="44.249" filterUnits="userSpaceOnUse" color-interpolation-filters="sRGB">
<feFlood flood-opacity="0" result="BackgroundImageFix"/>
<feColorMatrix in="SourceAlpha" type="matrix" values="0 0 0 0 0 0 0 0 0 0 0 0 0 0 0 0 0 0 127 0"/>
<feOffset dy="4"/>
<feGaussianBlur stdDeviation="4"/>
<feColorMatrix type="matrix" values="0 0 0 0 0.253453 0 0 0 0 0.447661 0 0 0 0 0.970833 0 0 0 0.08 0"/>
<feBlend mode="normal" in2="BackgroundImageFix" result="effect1_dropShadow"/>
<feBlend mode="normal" in="SourceGraphic" in2="effect1_dropShadow" result="shape"/>
</filter>
<filter id="filter4_d" x="458.454" y="153.753" width="45.9293" height="45.8892" filterUnits="userSpaceOnUse" color-interpolation-filters="sRGB">
<feFlood flood-opacity="0" result="BackgroundImageFix"/>
<feColorMatrix in="SourceAlpha" type="matrix" values="0 0 0 0 0 0 0 0 0 0 0 0 0 0 0 0 0 0 127 0"/>
<feOffset dy="4"/>
<feGaussianBlur stdDeviation="4"/>
<feColorMatrix type="matrix" values="0 0 0 0 0.253453 0 0 0 0 0.447661 0 0 0 0 0.970833 0 0 0 0.08 0"/>
<feBlend mode="normal" in2="BackgroundImageFix" result="effect1_dropShadow"/>
<feBlend mode="normal" in="SourceGraphic" in2="effect1_dropShadow" result="shape"/>
</filter>
<filter id="filter5_f" x="207.969" y="231.387" width="423.68" height="445.1" filterUnits="userSpaceOnUse" color-interpolation-filters="sRGB">
<feFlood flood-opacity="0" result="BackgroundImageFix"/>
<feBlend mode="normal" in="SourceGraphic" in2="BackgroundImageFix" result="shape"/>
<feGaussianBlur stdDeviation="13" result="effect1_foregroundBlur"/>
</filter>
<filter id="filter6_f" x="600.163" y="447.62" width="32.5461" height="33.37" filterUnits="userSpaceOnUse" color-interpolation-filters="sRGB">
<feFlood flood-opacity="0" result="BackgroundImageFix"/>
<feBlend mode="normal" in="SourceGraphic" in2="BackgroundImageFix" result="shape"/>
<feGaussianBlur stdDeviation="4.5" result="effect1_foregroundBlur"/>
</filter>
<linearGradient id="paint0_linear" x1="180.185" y1="105.167" x2="200.615" y2="439.412" gradientUnits="userSpaceOnUse">
<stop stop-color="#F18E6C"/>
<stop offset="1" stop-color="#FFCA62"/>
</linearGradient>
<linearGradient id="paint1_linear" x1="607.823" y1="158.524" x2="607.824" y2="25.855" gradientUnits="userSpaceOnUse">
<stop stop-color="#54E2E8"/>
<stop offset="1" stop-color="#4AACE0"/>
</linearGradient>
<linearGradient id="paint2_linear" x1="724.817" y1="156.001" x2="724.817" y2="245.154" gradientUnits="userSpaceOnUse">
<stop stop-color="#FF6755"/>
<stop offset="1" stop-color="#FF8B5C"/>
</linearGradient>
<linearGradient id="paint3_linear" x1="470.43" y1="132.493" x2="470.43" y2="228.721" gradientUnits="userSpaceOnUse">
<stop stop-color="#F4F4FF"/>
<stop offset="1" stop-color="#E7EAF8" stop-opacity="0"/>
</linearGradient>
<linearGradient id="paint4_linear" x1="481.491" y1="103.762" x2="481.491" y2="220.812" gradientUnits="userSpaceOnUse">
<stop stop-color="#E4E5F4"/>
<stop offset="0.708993" stop-color="#EDF0FB"/>
</linearGradient>
<linearGradient id="paint5_linear" x1="481.491" y1="124.583" x2="481.491" y2="220.812" gradientUnits="userSpaceOnUse">
<stop stop-color="#F4F4FF"/>
<stop offset="1" stop-color="#E7EAF8" stop-opacity="0"/>
</linearGradient>
<linearGradient id="paint6_linear" x1="245.507" y1="275.44" x2="405.854" y2="622.446" gradientUnits="userSpaceOnUse">
<stop offset="0.0356833" stop-color="#DFDFDF"/>
<stop offset="1" stop-color="#989898"/>
</linearGradient>
<linearGradient id="paint7_linear" x1="448.931" y1="469.906" x2="448.931" y2="653.612" gradientUnits="userSpaceOnUse">
<stop stop-color="#F6F9FF"/>
<stop offset="1" stop-color="#D7D9F0"/>
</linearGradient>
<linearGradient id="paint8_linear" x1="328.466" y1="508.636" x2="448.931" y2="653.612" gradientUnits="userSpaceOnUse">
<stop stop-color="#F0F1FA"/>
<stop offset="1" stop-color="#F0F1FA" stop-opacity="0"/>
</linearGradient>
<linearGradient id="paint9_linear" x1="329.968" y1="533.932" x2="471.846" y2="695.379" gradientUnits="userSpaceOnUse">
<stop offset="0.0128154" stop-color="#CBCDE9"/>
<stop offset="1" stop-color="#CBCDE9" stop-opacity="0"/>
</linearGradient>
<linearGradient id="paint10_linear" x1="481.715" y1="273.985" x2="481.715" y2="502.505" gradientUnits="userSpaceOnUse">
<stop stop-color="#108CFF"/>
<stop offset="1" stop-color="#0D80EA"/>
</linearGradient>
<linearGradient id="paint11_linear" x1="416.649" y1="303.933" x2="491.647" y2="386.381" gradientUnits="userSpaceOnUse">
<stop stop-color="#3FA3FF"/>
<stop offset="1" stop-color="#3FA3FF" stop-opacity="0"/>
</linearGradient>
<radialGradient id="paint12_radial" cx="0" cy="0" r="1" gradientUnits="userSpaceOnUse" gradientTransform="translate(472.721 335.49) rotate(-42.6338) scale(72.0325 65.2763)">
<stop stop-color="#2A65C9"/>
<stop offset="1" stop-color="#174BA5"/>
</radialGradient>
<linearGradient id="paint13_linear" x1="543.036" y1="410.734" x2="466.583" y2="315.168" gradientUnits="userSpaceOnUse">
<stop stop-color="#3FA3FF"/>
<stop offset="1" stop-color="#3FA3FF" stop-opacity="0"/>
</linearGradient>
<linearGradient id="paint14_linear" x1="491.647" y1="368.717" x2="495.654" y2="419.324" gradientUnits="userSpaceOnUse">
<stop stop-color="#183C83"/>
<stop offset="1" stop-color="#183C83" stop-opacity="0"/>
</linearGradient>
<linearGradient id="paint15_linear" x1="523.698" y1="385.719" x2="521.671" y2="370.953" gradientUnits="userSpaceOnUse">
<stop stop-color="#5CFFF5"/>
<stop offset="1" stop-color="#3CBEDB"/>
</linearGradient>
<radialGradient id="paint16_radial" cx="0" cy="0" r="1" gradientUnits="userSpaceOnUse" gradientTransform="translate(617.868 463.59) rotate(57.4074) scale(38.9465 38.9988)">
<stop stop-color="#C3CDE2"/>
<stop offset="1" stop-color="#9AA0CB"/>
</radialGradient>
<linearGradient id="paint17_linear" x1="654.638" y1="377.477" x2="638.627" y2="415.571" gradientUnits="userSpaceOnUse">
<stop stop-color="#9AA0CB"/>
<stop offset="1" stop-color="#5C7AA7"/>
</linearGradient>
<linearGradient id="paint18_linear" x1="655.558" y1="379.869" x2="643.228" y2="397.168" gradientUnits="userSpaceOnUse">
<stop stop-color="white" stop-opacity="0.35"/>
<stop offset="1" stop-color="#647EAB" stop-opacity="0"/>
</linearGradient>
<linearGradient id="paint19_linear" x1="656.864" y1="378.711" x2="687.777" y2="392.775" gradientUnits="userSpaceOnUse">
<stop stop-color="#A7B6D3"/>
<stop offset="1" stop-color="#9AA0CB"/>
</linearGradient>
<linearGradient id="paint20_linear" x1="655.471" y1="379.128" x2="672.599" y2="384.42" gradientUnits="userSpaceOnUse">
<stop stop-color="white"/>
<stop offset="1" stop-color="#9BA1CB" stop-opacity="0"/>
</linearGradient>
<linearGradient id="paint21_linear" x1="702.118" y1="426.798" x2="697.093" y2="484.831" gradientUnits="userSpaceOnUse">
<stop stop-color="#9AA0CB"/>
<stop offset="1" stop-color="#5F7BA8"/>
</linearGradient>
<linearGradient id="paint22_linear" x1="723.167" y1="424.81" x2="723.167" y2="484.626" gradientUnits="userSpaceOnUse">
<stop stop-color="#A7B6D3"/>
<stop offset="1" stop-color="#9EA6CD"/>
</linearGradient>
<radialGradient id="paint23_radial" cx="0" cy="0" r="1" gradientUnits="userSpaceOnUse" gradientTransform="translate(710.768 449.618) rotate(5.0957) scale(29.0076 31.0566)">
<stop stop-color="#E6EBF5"/>
<stop offset="1" stop-color="#D0D7E7" stop-opacity="0"/>
</radialGradient>
<linearGradient id="paint24_linear" x1="668.373" y1="540.374" x2="668.373" y2="652.007" gradientUnits="userSpaceOnUse">
<stop stop-color="#EAF1FF"/>
<stop offset="1" stop-color="#D7D9F0"/>
</linearGradient>
<linearGradient id="paint25_linear" x1="667.076" y1="541.102" x2="656.666" y2="567.491" gradientUnits="userSpaceOnUse">
<stop stop-color="#F3F7FF"/>
<stop offset="1" stop-color="#F3F7FF" stop-opacity="0"/>
</linearGradient>
<linearGradient id="paint26_linear" x1="711.985" y1="534.686" x2="694.918" y2="545.218" gradientUnits="userSpaceOnUse">
<stop stop-color="#F3F7FF"/>
<stop offset="1" stop-color="#F3F7FF" stop-opacity="0"/>
</linearGradient>
<linearGradient id="paint27_linear" x1="709.928" y1="520.645" x2="693.828" y2="534.202" gradientUnits="userSpaceOnUse">
<stop stop-color="#F3F7FF"/>
<stop offset="1" stop-color="#F3F7FF" stop-opacity="0"/>
</linearGradient>
<linearGradient id="paint28_linear" x1="702.665" y1="512.292" x2="692.739" y2="521.008" gradientUnits="userSpaceOnUse">
<stop stop-color="#F3F7FF"/>
<stop offset="1" stop-color="#F3F7FF" stop-opacity="0"/>
</linearGradient>
<linearGradient id="paint29_linear" x1="659.934" y1="511.808" x2="652.06" y2="521.075" gradientUnits="userSpaceOnUse">
<stop stop-color="#F3F7FF"/>
<stop offset="1" stop-color="#F3F7FF" stop-opacity="0"/>
</linearGradient>
</defs>
</svg>
