<svg width="670" height="563" viewBox="0 0 670 563" fill="none"
    xmlns="http://www.w3.org/2000/svg">
    <path d="M300 491.35C416.4 491.35 510.8 396.95 510.8 280.55C510.9 164.05 416.5 69.6499 300 69.6499C183.5 69.6499 89.2 164.05 89.2 280.45C89.2 396.95 183.6 491.35 300 491.35Z" fill="url(#paint0_linear)"/>
    <g style="mix-blend-mode:multiply" opacity="0.83" filter="url(#filter0_f)">
        <path d="M368.255 270.828C427.96 278.645 470.308 346.095 478.456 392.945C421.013 484.915 296.757 520.155 195.519 463.323C197.556 449.879 204.074 413.824 220.777 360.659C237.481 307.494 265.455 318.828 280.665 271.235C293.377 231.457 190.441 139.474 289.627 131.498C355.914 126.167 386.427 210.068 339.093 252.433C323.146 266.706 339.701 267.089 368.255 270.828Z" fill="url(#paint1_linear)"/>
    </g>
    <path d="M200.725 484.389C189.548 478.18 222.103 407.533 234.403 389.133C246.703 370.733 216.106 334.554 195.506 356.554C174.806 378.554 140.851 516.388 184.677 522.361C228.504 528.334 221.526 489.667 200.725 484.389Z" fill="#2B3760"/>
    <path d="M431.347 439.932C432.747 410.832 404.147 383.432 389.947 366.332C375.747 349.232 401.647 306.132 424.447 325.932C447.247 345.732 476.647 387.432 474.647 437.432C471.647 468.732 429.047 467.832 431.347 439.932Z" fill="#2B3760"/>
    <path d="M182.078 379.079C180.32 382.74 178.707 386.491 176.533 392C186.733 399.6 204.947 414.932 218.347 419.032C220.347 416.432 223.647 411.032 223.647 411.032L182.078 379.079Z" fill="#141D42"/>
    <g opacity="0.34" filter="url(#filter1_f)">
        <path d="M262.739 511.589C288.785 511.579 501.939 503.637 416.866 486.386C331.794 469.135 219.66 475.937 203.386 487.104C187.112 498.271 239.487 509.843 203.431 509.758C167.375 509.674 156 527.677 189.815 526.055C223.63 524.433 236.693 511.6 262.739 511.589Z" fill="#395591"/>
    </g>
    <path d="M391.147 368.532C393.847 370.232 396.447 374.632 399.147 376.732C409.447 368.032 430.947 348.332 433.547 334.532C429.547 330.132 426.047 327.132 426.047 327.132L391.147 368.532Z" fill="#141D42"/>
    <path d="M210.841 403.704L210.836 403.644L210.827 403.586L210.727 402.986L210.632 402.419L210.184 402.061L209.684 401.661L209.552 401.555L209.399 401.481C194.808 394.434 183.58 385.379 179.292 378.996L179.28 378.978L179.268 378.96C179.12 378.754 179.095 378.594 179.142 378.344C179.205 378.003 179.385 377.61 179.689 377.003L179.706 376.968L179.722 376.931C202.871 323.806 248.476 300.324 286.593 291.292L286.61 291.288L286.627 291.283C316.851 283.356 353.915 285.357 378.281 295.221C397.059 302.871 412.369 312.214 421.865 318.012L421.875 318.018C422.814 318.582 423.702 319.121 424.536 319.626C426.211 320.643 427.666 321.526 428.868 322.203C428.897 322.34 428.927 322.626 428.861 323.128C428.764 323.802 428.676 324.321 428.505 324.92L428.447 325.122V325.19C428.42 325.275 428.384 325.41 428.363 325.577C428.361 325.584 428.359 325.592 428.357 325.599C428.297 325.819 428.201 326.172 428.163 326.536C426.612 331.027 422.598 336.786 418.076 342.432C415.033 346.231 411.866 349.855 409.186 352.922C407.843 354.459 406.623 355.855 405.601 357.064L405.595 357.072C402.634 360.624 399.869 363.489 397.786 365.571C395.676 367.682 394.865 369.418 394.857 371.443C394.854 372.357 395.016 373.274 395.18 374.161C395.194 374.243 395.21 374.324 395.225 374.406C395.381 375.25 395.546 376.138 395.655 377.187C395.892 379.465 398.051 404.116 400.299 429.777L400.74 434.804C401.938 448.486 403.127 462.049 404.029 472.261C404.48 477.367 404.859 481.636 405.131 484.664C405.268 486.177 405.378 487.381 405.457 488.225C405.518 488.881 405.567 489.4 405.598 489.639C405.698 490.674 405.462 491.763 404.973 492.649C404.491 493.523 403.823 494.099 403.11 494.324C377.709 499.896 339.233 501.374 304.087 500.655C268.899 499.934 237.352 497.018 225.799 493.911C222.855 493.039 221.41 492.095 220.509 490.889C219.557 489.614 219.048 487.846 218.463 484.865C218.191 483.479 217.576 477.76 216.8 469.808C216.029 461.912 215.111 451.936 214.228 442.141C213.345 432.347 212.498 422.738 211.872 415.577C211.559 411.996 211.302 409.028 211.122 406.955C211.032 405.918 210.962 405.105 210.914 404.552L210.86 403.92L210.846 403.758L210.843 403.717L210.842 403.707L210.841 403.704C210.841 403.704 210.841 403.704 209.347 403.832L210.841 403.704Z" fill="url(#paint2_linear)" stroke="url(#paint3_linear)" stroke-width="3" stroke-miterlimit="10"/>
    <path d="M426.947 321.032C412.747 312.432 402.347 306.432 384.247 297.732C416.747 350.232 273.347 364.332 331.747 424.032C390.247 483.732 215.581 431.121 212.881 429.921C212.881 429.921 216.779 471.905 217.379 475.605C217.979 479.305 220.331 489.169 233.544 492.543C312.121 507.021 395.477 494.37 400.959 493.105C406.441 491.84 405.035 484.39 403.911 474.269C402.786 464.149 393.647 369.832 393.647 369.832C393.647 369.832 420.047 343.432 428.347 325.232C428.647 323.832 429.447 322.432 426.947 321.032Z" fill="url(#paint4_linear)"/>
    <path d="M165.84 196.816C180.929 213.337 205.994 203.754 210.795 186.332C215.623 169.132 200.512 151.307 181.453 152.378C162.532 153.477 150.889 180.322 165.84 196.816Z" fill="#444F7E"/>
    <path d="M264.347 245.732C258.047 230.032 292.747 217.232 298.247 234.332C304.41 257.42 314.628 288.439 340.847 294.432C349.447 296.332 358.947 300.032 358.447 306.632C357.647 316.532 340.047 331.532 301.547 338.132C260.747 345.532 234.347 338.132 229.847 331.332C225.647 325.232 234.547 316.032 251.847 306.432C274.14 293.892 271.501 266.45 264.347 245.732Z" fill="#2B3760"/>
    <path d="M168.284 196.162C183.373 212.684 208.438 203.1 213.239 185.679C218.067 168.479 202.956 150.653 183.897 151.724C165.031 152.907 153.416 179.614 168.284 196.162Z" fill="#2B3760"/>
    <path d="M304.547 253.732C304.547 253.732 290.647 265.232 270.447 272.132C270.447 272.132 270.447 266.032 269.747 262.532L303.747 251.832L304.547 253.732Z" fill="#141D42"/>
    <path fill-rule="evenodd" clip-rule="evenodd" d="M183.276 187.472C183.921 191.718 181.26 196.947 177.694 194.628C164.229 186.019 167.189 165.259 180.051 160.969C185.635 159.082 191.346 159.749 196.049 162.157C199.977 164.118 196.569 169.121 192.374 170.57C185.706 172.812 182.202 180.394 183.276 187.472Z" fill="#141D42"/>
    <path fill-rule="evenodd" clip-rule="evenodd" d="M192.147 203.932C192.047 199.932 192.347 195.932 193.047 192.032C194.947 181.732 199.747 172.132 206.647 163.832C211.147 170.432 212.547 179.932 207.447 190.632C203.747 198.432 198.047 202.732 192.147 203.932Z" fill="#141D42"/>
    <path d="M337.147 170.032C358.647 226.532 301.647 275.332 245.247 258.532C217.047 250.132 201.647 231.932 197.447 211.732C193.247 191.432 200.147 169.132 216.347 152.132C232.647 135.332 257.347 125.532 280.847 127.132C304.247 128.832 326.347 141.632 337.147 170.032Z" fill="#2B3760"/>
    <path d="M374.184 153.325C370.684 175.425 344.484 181.225 330.884 169.325C317.384 157.625 320.184 134.425 336.684 124.825C353.084 115.325 377.584 131.325 374.184 153.325Z" fill="#444F7E"/>
    <path d="M371.784 154.125C368.284 176.225 342.084 182.025 328.484 170.125C314.984 158.425 317.784 135.225 334.284 125.625C350.684 116.225 375.084 132.125 371.784 154.125Z" fill="#2B3760"/>
    <path fill-rule="evenodd" clip-rule="evenodd" d="M354.484 155.125C356.284 159.025 361.384 161.925 363.084 158.025C369.584 143.425 355.684 127.725 342.584 131.225C336.884 132.725 332.484 136.425 329.884 141.025C327.684 144.825 333.284 147.125 337.584 146.025C344.384 144.225 351.484 148.625 354.484 155.125Z" fill="#141D42"/>
    <path opacity="0.61" d="M321.947 172.232C312.747 189.232 277.147 182.032 261.547 162.632C253.747 152.932 253.647 145.032 258.247 139.932C262.847 134.832 272.147 132.632 283.147 134.032C294.147 135.532 306.147 140.832 314.347 147.832C322.347 154.932 326.547 163.732 321.947 172.232Z" fill="#444F7E"/>
    <path opacity="0.72" d="M211.647 178.132C210.847 176.632 208.647 176.632 207.947 178.232C203.847 188.632 202.747 199.632 204.947 210.032C208.647 228.132 222.447 244.332 247.747 251.932C275.147 260.132 302.647 251.032 319.047 232.932C326.647 224.632 314.647 215.232 303.647 217.532C277.847 222.832 246.847 215.832 225.747 195.832C219.447 190.032 214.847 184.032 211.647 178.132Z" fill="#1B244A"/>
    <path d="M307.247 213.132C304.447 214.632 300.947 213.632 299.447 210.832C297.947 208.032 298.947 204.532 301.747 203.032C304.547 201.532 308.047 202.532 309.547 205.332C311.047 208.132 310.047 211.632 307.247 213.132Z" fill="#141D42"/>
    <path d="M307.247 212.132C304.647 213.532 301.447 212.532 300.047 210.032C298.647 207.432 299.647 204.232 302.147 202.832C304.747 201.432 307.947 202.432 309.347 204.932C310.747 207.532 309.747 210.732 307.247 212.132Z" fill="#586EB7"/>
    <path d="M307.947 206.032C307.547 206.932 306.147 207.232 304.847 206.632C303.547 206.032 302.747 204.832 303.147 203.932C303.547 203.032 304.947 202.732 306.247 203.332C307.547 203.932 308.347 205.132 307.947 206.032Z" fill="#3B5AC3"/>
    <path d="M306.647 204.832C306.547 205.132 305.947 205.232 305.447 205.032C304.947 204.832 304.647 204.332 304.747 204.032C304.847 203.732 305.447 203.632 305.947 203.832C306.547 204.032 306.847 204.432 306.647 204.832Z" fill="#9CB0CD"/>
    <path d="M302.447 205.732C302.047 205.232 301.247 205.132 301.047 205.632C300.447 206.832 300.447 208.232 301.147 209.432C302.247 211.432 304.747 212.232 306.747 211.132C307.747 210.632 308.447 209.732 308.747 208.732C308.947 208.132 308.147 207.632 307.447 207.732C306.647 207.832 305.547 207.732 304.647 207.332C303.647 206.932 302.847 206.332 302.447 205.732Z" fill="#44589D"/>
    <path d="M233.506 448.087C225.481 467.959 209.931 488.263 200.58 484.204C162.814 477.752 158.393 523.781 191.592 523.854C224.791 523.926 255.665 493.136 257.905 451.295C257.636 439.558 238.434 436.708 233.506 448.087Z" fill="#2B3760"/>
    <path d="M237.647 225.732C234.847 227.232 231.347 226.232 229.847 223.432C228.347 220.632 229.347 217.132 232.147 215.632C234.947 214.132 238.447 215.132 239.947 217.932C241.547 220.732 240.447 224.232 237.647 225.732Z" fill="#141D42"/>
    <path d="M237.647 224.632C235.047 226.032 231.847 225.032 230.447 222.532C229.047 219.932 230.047 216.732 232.547 215.332C235.147 213.932 238.347 214.932 239.747 217.432C241.147 220.132 240.247 223.332 237.647 224.632Z" fill="#586EB7"/>
    <path d="M238.447 218.632C238.047 219.532 236.647 219.832 235.347 219.232C234.047 218.632 233.247 217.432 233.647 216.532C234.047 215.632 235.447 215.332 236.747 215.932C238.047 216.532 238.747 217.732 238.447 218.632Z" fill="#3B5AC3"/>
    <path d="M237.147 217.432C237.047 217.732 236.447 217.832 235.947 217.632C235.447 217.432 235.147 216.932 235.247 216.632C235.347 216.332 235.947 216.232 236.447 216.432C236.947 216.632 237.247 217.032 237.147 217.432Z" fill="#9CB0CD"/>
    <path d="M232.847 218.332C232.447 217.832 231.647 217.732 231.447 218.232C230.847 219.432 230.847 220.832 231.547 222.032C232.647 224.032 235.147 224.832 237.147 223.732C238.147 223.232 238.847 222.332 239.147 221.332C239.347 220.732 238.547 220.232 237.847 220.332C237.047 220.432 235.947 220.332 235.047 219.932C234.047 219.532 233.347 218.932 232.847 218.332Z" fill="#44589D"/>
    <path d="M267.747 376.632L230.447 396.732C228.847 397.532 228.047 399.532 228.447 401.432L239.247 452.932C239.647 454.832 241.047 456.332 242.747 456.732L266.847 461.832C269.147 462.232 271.547 461.832 273.847 460.632L310.347 439.832C312.347 438.732 313.447 436.232 312.947 433.832L302.647 382.732C302.247 380.732 300.747 379.132 298.947 378.932L274.047 375.432C271.947 375.132 269.747 375.532 267.747 376.632Z" fill="url(#paint5_linear)"/>
    <path d="M302.647 382.532L312.947 434.132C313.347 436.532 312.347 439.032 310.347 440.132L273.247 461.132C271.947 461.832 270.447 461.032 270.147 459.532L260.247 411.732C259.247 406.832 261.447 401.632 265.547 399.532L299.547 380.832C300.947 380.232 302.347 381.032 302.647 382.532Z" fill="url(#paint6_linear)"/>
    <path d="M267.333 461.932L242.814 456.535C241.006 456.235 239.599 454.835 239.297 452.736L228.545 401.96C228.143 400.161 229.55 398.362 231.158 398.662L252.662 402.46C256.28 403.06 259.194 405.958 260.098 409.957L270.147 458.634C270.348 460.533 268.941 462.232 267.333 461.932Z" fill="url(#paint7_linear)"/>
    <path d="M255.847 402.895L231.547 398.801C230.347 398.601 230.247 396.903 231.347 396.304L267.747 376.631C269.747 375.532 271.847 375.232 273.947 375.432L298.147 379.027C299.247 379.127 299.547 380.925 298.447 381.524L261.047 401.996C259.447 402.895 257.647 403.195 255.847 402.895Z" fill="url(#paint8_linear)"/>
    <path fill-rule="evenodd" clip-rule="evenodd" d="M244.71 441.901C246.356 441.166 247.854 440.71 248.892 439.973C252.334 437.615 251.935 433.389 248.02 434.348C243.051 435.534 241.768 435.925 236.258 436.716C236.258 436.716 230.125 436.994 231.661 446.484C233.779 452.998 239.161 452.618 238.636 450.117C238.31 448.051 236.516 445.985 244.71 441.901Z" fill="#2B3760"/>
    <path fill-rule="evenodd" clip-rule="evenodd" d="M236.228 435.696C243.021 434.515 247.281 433.918 250.082 431.756C253.459 429.185 252.355 424.332 248.406 425.488C243.717 426.823 237.499 428.203 233.535 428.849C233.535 428.849 228.264 426.434 228.127 434.424C228.073 435.936 227.791 442.202 233.322 450.046C239.421 449.717 236.228 435.696 236.228 435.696Z" fill="#2B3760"/>
    <path d="M322.238 397.701C321.436 397.101 314.014 392.198 314.014 392.198C312.208 390.898 309.3 389.297 306.993 389.197L266.17 386.896C264.967 386.796 261.857 388.596 261.456 390.297L249.921 437.923C249.32 439.824 250.022 441.625 251.526 442.826L260.152 450.73C261.456 451.73 264.465 453.031 265.869 453.131L307.895 454.632C310.202 454.732 312.108 453.231 312.71 450.93L324.947 402.904C325.448 400.403 323.041 398.302 322.238 397.701Z" fill="url(#paint9_linear)"/>
    <path d="M324.847 402.703L312.633 450.916C312.033 453.125 310.03 454.733 307.828 454.632L265.881 453.125C264.48 453.025 263.378 451.619 263.779 450.213L275.492 402.904C276.593 398.284 277.294 397.48 281.899 397.882L322.945 399.891C324.246 399.891 325.147 401.297 324.847 402.703Z" fill="url(#paint10_linear)"/>
    <path d="M260.147 450.732L251.547 442.832C250.047 441.632 249.447 439.832 249.947 437.932L261.447 390.332C261.847 388.632 263.747 387.832 265.147 388.932L274.347 395.932C277.347 398.232 276.047 400.132 275.147 403.932L264.047 449.332C263.447 451.132 261.547 451.832 260.147 450.732Z" fill="url(#paint11_linear)"/>
    <path d="M274.275 395.86L265.075 388.86C264.175 388.06 264.875 386.76 266.075 386.86L306.775 389.16C309.075 389.26 311.975 390.86 313.775 392.16L321.975 397.66C322.975 398.26 322.475 399.96 321.275 399.86L279.275 397.76C277.475 397.66 275.775 397.06 274.275 395.86Z" fill="url(#paint12_linear)"/>
    <path fill-rule="evenodd" clip-rule="evenodd" d="M235.397 427.441C242.19 426.26 246.449 425.663 249.25 423.501C252.627 420.93 251.523 416.077 247.574 417.233C242.885 418.568 236.667 419.948 232.703 420.594C232.703 420.594 225.698 421.232 228.127 434.424C229.293 440.707 235.397 427.441 235.397 427.441Z" fill="#2B3760"/>
    <path fill-rule="evenodd" clip-rule="evenodd" d="M234.745 419.317C241.538 418.136 245.307 416.848 248.107 414.686C251.485 412.114 250.38 407.261 246.432 408.418C241.742 409.753 237.531 410.661 235.524 411.133C233.517 411.604 227.256 410.846 229.685 424.038C230.933 430.437 234.745 419.317 234.745 419.317Z" fill="#2B3760"/>
    <path fill-rule="evenodd" clip-rule="evenodd" d="M474.747 437.132C473.247 483.332 438.047 495.832 406.347 487.932C379.647 481.332 336.147 460.632 315.747 431.632C310.147 423.332 329.047 403.932 344.647 418.132C351.647 423.932 372.647 440.632 399.247 447.532C432.147 455.732 437.947 446.432 425.447 413.032C417.247 390.232 477.147 366.532 474.747 437.132Z" fill="#2B3760"/>
    <path d="M301.147 414.232C298.947 409.132 295.647 404.532 291.447 400.832C288.847 398.532 286.047 396.732 282.147 395.032C278.047 393.132 280.247 388.932 285.447 390.432C287.947 391.232 293.747 393.632 299.147 396.532C299.347 396.132 299.547 395.832 299.747 395.432C295.947 392.932 288.347 389.332 285.147 388.532C281.747 387.332 282.747 383.532 286.547 383.732C290.047 383.632 298.347 387.532 303.447 390.432C303.647 390.232 303.847 390.032 304.047 389.732C303.947 389.632 303.847 389.632 303.747 389.532C301.547 387.832 296.447 385.132 290.347 383.132C285.747 381.532 288.447 376.732 294.247 378.732C297.647 379.832 305.047 382.932 308.747 385.332C309.247 385.032 309.647 384.632 310.147 384.332C306.147 381.732 301.147 379.332 298.147 378.332C294.147 377.032 295.947 373.032 300.547 374.132C318.547 378.032 324.847 384.832 331.047 400.332C333.747 407.132 339.047 413.332 342.647 416.432C344.047 417.632 343.847 419.732 342.447 420.732C342.447 420.732 324.047 439.832 311.847 429.132C307.947 425.832 304.747 422.532 301.147 414.232Z" fill="#2B3760"/>
    <path d="M590.769 347.007C589.986 356.705 579.731 362.582 570.981 358.327C522.64 334.819 490.529 315.75 445.654 284.014C437.692 278.384 437.913 266.536 446.067 261.188C491.991 231.07 524.472 212.657 572.89 189.783C581.717 185.613 591.94 191.652 592.546 201.396C595.791 253.635 595.29 290.984 590.769 347.007Z" fill="url(#paint13_linear)"/>
    <path d="M175 50.5C188.807 50.5 200 39.3071 200 25.5C200 11.6929 188.807 0.5 175 0.5C161.193 0.5 150 11.6929 150 25.5C150 39.3071 161.193 50.5 175 50.5Z" fill="url(#paint14_linear)"/>
    <rect y="197.344" width="33.6885" height="33.6885" rx="8" transform="rotate(-30 0 197.344)" fill="url(#paint15_linear)"/>
    <path d="M525.761 398.42C531.284 398.42 535.762 393.943 535.762 388.42C535.762 382.898 531.284 378.42 525.761 378.42C520.239 378.42 515.761 382.898 515.761 388.42C515.761 393.943 520.239 398.42 525.761 398.42Z" fill="url(#paint16_linear)"/>
    <defs>
        <filter id="filter0_f" x="62.5057" y="94.0027" width="444.688" height="468.467" filterUnits="userSpaceOnUse" color-interpolation-filters="sRGB">
            <feFlood flood-opacity="0" result="BackgroundImageFix"/>
            <feBlend mode="normal" in="SourceGraphic" in2="BackgroundImageFix" result="shape"/>
            <feGaussianBlur stdDeviation="4.5" result="effect1_foregroundBlur"/>
        </filter>
        <filter id="filter1_f" x="160.598" y="466.907" width="285.202" height="68.2517" filterUnits="userSpaceOnUse" color-interpolation-filters="sRGB">
            <feFlood flood-opacity="0" result="BackgroundImageFix"/>
            <feBlend mode="normal" in="SourceGraphic" in2="BackgroundImageFix" result="shape"/>
            <feGaussianBlur stdDeviation="4.5" result="effect1_foregroundBlur"/>
        </filter>
        <linearGradient id="paint0_linear" x1="89.2" y1="280.483" x2="510.867" y2="280.483" gradientUnits="userSpaceOnUse">
            <stop stop-color="#CEF9C6"/>
            <stop offset="1" stop-color="#42BAEB"/>
        </linearGradient>
        <linearGradient id="paint1_linear" x1="187.484" y1="186.326" x2="366.661" y2="443.027" gradientUnits="userSpaceOnUse">
            <stop stop-color="#41B4BB"/>
            <stop offset="1" stop-color="#B7C1D7" stop-opacity="0.24"/>
        </linearGradient>
        <linearGradient id="paint2_linear" x1="268.238" y1="280.805" x2="371.624" y2="495.414" gradientUnits="userSpaceOnUse">
            <stop stop-color="#E787E6"/>
            <stop offset="0.6" stop-color="#E486E6"/>
        </linearGradient>
        <linearGradient id="paint3_linear" x1="231.177" y1="293.655" x2="283.137" y2="351.768" gradientUnits="userSpaceOnUse">
            <stop stop-color="#FCA7EC"/>
            <stop offset="1" stop-color="white" stop-opacity="0"/>
        </linearGradient>
        <linearGradient id="paint4_linear" x1="275.726" y1="357.896" x2="407.22" y2="464.739" gradientUnits="userSpaceOnUse">
            <stop stop-color="#B365F0"/>
            <stop offset="1" stop-color="#B76AEF" stop-opacity="0.14"/>
        </linearGradient>
        <linearGradient id="paint5_linear" x1="266.067" y1="400.22" x2="288.559" y2="454.598" gradientUnits="userSpaceOnUse">
            <stop stop-color="#D9E1EF"/>
            <stop offset="1" stop-color="#7387B4"/>
        </linearGradient>
        <linearGradient id="paint6_linear" x1="260.058" y1="421.008" x2="313.121" y2="421.008" gradientUnits="userSpaceOnUse">
            <stop stop-color="#7085B2"/>
            <stop offset="1" stop-color="#8E98C4"/>
        </linearGradient>
        <linearGradient id="paint7_linear" x1="239.322" y1="394.937" x2="267.168" y2="462.363" gradientUnits="userSpaceOnUse">
            <stop stop-color="#7085B2"/>
            <stop offset="1" stop-color="#8E98C4"/>
        </linearGradient>
        <linearGradient id="paint8_linear" x1="262.085" y1="378.915" x2="270.113" y2="398.277" gradientUnits="userSpaceOnUse">
            <stop stop-color="#D7DFF2"/>
            <stop offset="1" stop-color="#FDFDFE"/>
        </linearGradient>
        <linearGradient id="paint9_linear" x1="287.274" y1="454.574" x2="287.274" y2="386.943" gradientUnits="userSpaceOnUse">
            <stop stop-color="#D9E1EF"/>
            <stop offset="1" stop-color="#7387B4"/>
        </linearGradient>
        <linearGradient id="paint10_linear" x1="299.354" y1="396.165" x2="289.934" y2="456.844" gradientUnits="userSpaceOnUse">
            <stop stop-color="#C3CBE2"/>
            <stop offset="1" stop-color="#A0ABCF"/>
        </linearGradient>
        <linearGradient id="paint11_linear" x1="268.188" y1="389.142" x2="258.644" y2="450.822" gradientUnits="userSpaceOnUse">
            <stop stop-color="#7085B2"/>
            <stop offset="1" stop-color="#ACB4D7"/>
        </linearGradient>
        <linearGradient id="paint12_linear" x1="294.656" y1="387.152" x2="292.69" y2="399.856" gradientUnits="userSpaceOnUse">
            <stop stop-color="#D7DFF2"/>
            <stop offset="1" stop-color="#FDFDFE"/>
        </linearGradient>
        <linearGradient id="paint13_linear" x1="704.308" y1="591.679" x2="521.773" y2="194.931" gradientUnits="userSpaceOnUse">
            <stop stop-color="#F68793"/>
            <stop offset="1" stop-color="#4D51D4"/>
        </linearGradient>
        <linearGradient id="paint14_linear" x1="175" y1="0.5" x2="175" y2="50.5" gradientUnits="userSpaceOnUse">
            <stop stop-color="#46DCD2"/>
            <stop offset="1" stop-color="#8FE6FA"/>
        </linearGradient>
        <linearGradient id="paint15_linear" x1="16.7432" y1="200.348" x2="-7.57287" y2="255.589" gradientUnits="userSpaceOnUse">
            <stop stop-color="#FF6755"/>
            <stop offset="1" stop-color="#FF8B5C"/>
        </linearGradient>
        <linearGradient id="paint16_linear" x1="525.761" y1="378.42" x2="525.761" y2="398.42" gradientUnits="userSpaceOnUse">
            <stop stop-color="#FF8B5C"/>
            <stop offset="1" stop-color="#FFCA62"/>
        </linearGradient>
    </defs>
</svg>
