<svg width="649" height="600" viewBox="0 0 649 600" fill="none" xmlns="http://www.w3.org/2000/svg">
<path d="M124.879 119.229C124.879 98.254 141.883 81.25 162.859 81.25H532.932C553.908 81.25 570.911 98.254 570.911 119.23V423.271C570.911 444.246 553.908 461.25 532.932 461.25H162.859C141.883 461.25 124.879 444.246 124.879 423.271V119.229Z" fill="url(#paint0_linear)"/>
<g style="mix-blend-mode:multiply" opacity="0.5" filter="url(#filter0_f)">
<path d="M433.503 468.381C411.23 529.432 354.06 526.403 332.589 529.081C203.764 526.403 194.101 471.951 196.249 457.669C198.396 443.386 234.745 342.936 255.143 298.303C275.54 253.67 312.317 240.753 334.049 241.173C357.13 241.62 368.511 224.35 376.99 210.823C403.292 168.868 471.463 176.456 438.719 234.925C424.497 260.322 436.178 275.572 450.679 288.511C481.661 316.157 482.198 334.902 433.503 468.381Z" fill="url(#paint1_linear)"/>
</g>
<g style="mix-blend-mode:multiply">
<g opacity="0.85" filter="url(#filter1_f)">
<path d="M295.828 492.897C281.974 502.69 287.109 547.837 287.109 547.837L444.405 593.7L371.311 567.185L389.943 455.633C363.349 465.904 307.294 487.737 295.828 492.897Z" fill="#395590" fill-opacity="0.62"/>
</g>
<g filter="url(#filter2_f)">
<path d="M382.1 518.769C330.538 518.769 261.388 515.971 192.638 515.971C123.888 515.971 186.842 537.356 246.998 537.356C261.588 537.755 259.094 549.651 275.283 549.651C291.471 549.651 392.401 551.65 413.981 551.65C491.725 551.65 433.662 518.769 382.1 518.769Z" fill="#395590" fill-opacity="0.35"/>
</g>
</g>
<path d="M417.046 400.387C390.07 517.64 343.223 535.894 251.596 529.599C181.46 524.744 135.421 494.531 169.231 349.223C202.95 212.637 291.752 206.103 339.678 222.289C374.117 233.888 413.988 273.962 418.304 303.185C423.43 337.714 424.599 367.477 417.046 400.387Z" fill="url(#paint2_linear)"/>
<path fill-rule="evenodd" clip-rule="evenodd" d="M339.678 222.289C291.752 206.103 202.95 212.637 169.231 349.223C135.421 494.531 181.46 524.744 251.596 529.599C343.223 535.894 390.07 517.64 417.046 400.387C424.599 367.477 423.43 337.714 418.304 303.185C413.988 273.962 374.117 233.888 339.678 222.289ZM413.425 399.556C420.836 367.267 419.719 338.012 414.63 303.731L414.63 303.728C412.642 290.271 402.245 273.643 387.634 258.727C373.102 243.892 355.004 231.37 338.493 225.809L338.49 225.808C315.239 217.956 282.137 215.65 250.827 231.769C219.623 247.834 189.521 282.553 172.843 350.09C155.981 422.573 159.369 465.16 174.605 490.147C189.667 514.851 217.067 523.486 251.852 525.894C297.557 529.034 331.031 525.927 356.446 508.273C381.824 490.645 400.001 457.908 413.425 399.556Z" fill="url(#paint3_radial)"/>
<g style="mix-blend-mode:multiply" filter="url(#filter3_f)">
<path d="M300.291 341.115C312.071 312.341 335.18 282.039 371.507 285.276C407.834 288.513 415.926 329.696 404.956 388.772C396.144 435.889 386.087 488.97 382.4 507.943C360.801 484.722 334.047 462.746 331.196 457.708C331.286 457.708 268.73 418.445 300.291 341.115Z" fill="#B5BBD6"/>
</g>
<path d="M387.373 285.561C423.88 285.651 432.152 325.934 421.182 385.011C412.37 432.128 402.479 483.741 398.792 502.714C388.901 553.518 328.296 539.58 328.296 497.409C328.296 455.237 310.313 285.291 387.373 285.561Z" fill="url(#paint4_linear)"/>
<path fill-rule="evenodd" clip-rule="evenodd" d="M387.366 288.347L387.363 288.347C369.393 288.284 356.88 298.03 348.07 313.966C339.19 330.031 334.262 352.125 331.707 375.867C327.909 411.149 329.404 449.179 330.428 475.22C330.783 484.27 331.082 491.873 331.082 497.409C331.082 516.999 345.104 529.949 360.24 532.171C367.784 533.278 375.534 531.705 381.959 527.001C388.37 522.306 393.695 514.32 396.058 502.181C399.743 483.215 409.633 431.61 418.443 384.501C423.904 355.096 424.479 330.789 419.414 313.969C416.895 305.605 413.029 299.252 407.831 294.983C402.664 290.739 395.952 288.368 387.366 288.347ZM421.182 385.011C412.37 432.128 402.479 483.741 398.792 502.714C388.901 553.518 328.296 539.58 328.296 497.409C328.296 492.014 328.002 484.528 327.65 475.575C325.251 414.542 320.171 285.326 387.373 285.561C423.88 285.651 432.152 325.934 421.182 385.011Z" fill="url(#paint5_linear)"/>
<g opacity="0.58" filter="url(#filter4_f)">
<path fill-rule="evenodd" clip-rule="evenodd" d="M363.216 292.516C363.437 292.702 363.666 292.89 363.904 293.078C392.849 316.045 379.949 392.813 369.567 450.388C362.565 489.218 382.403 508.369 399.098 501.138C398.992 501.686 398.89 502.211 398.792 502.714C388.901 553.518 328.296 539.58 328.296 497.409C328.296 492.014 328.002 484.528 327.65 475.575C325.586 423.076 321.538 320.13 363.216 292.516Z" fill="#9DA3CC"/>
</g>
<g style="mix-blend-mode:multiply" opacity="0.62" filter="url(#filter5_f)">
<path d="M251.084 334.958C262.863 306.184 285.972 275.882 322.299 279.119C358.626 282.356 366.719 323.538 355.749 382.615C346.937 429.732 336.879 482.813 333.193 501.786C311.593 478.565 284.84 456.589 281.988 451.55C282.078 451.55 219.522 412.288 251.084 334.958Z" fill="#B5BBD6"/>
</g>
<g filter="url(#filter6_i)">
<path d="M265.174 337.354C276.953 308.58 300.062 278.277 336.389 281.515C372.716 284.752 380.808 325.934 369.838 385.01C361.026 432.128 351.135 483.741 347.449 502.714C346.64 507.12 348.887 511.525 353.024 513.324L398.073 533.555C400.77 534.814 402.569 537.512 402.569 540.479C402.569 544.705 399.152 548.032 395.016 548.032H279.74C271.018 548.032 262.926 544.705 266.073 525.373C268.86 508.288 273.716 485.359 281.988 451.55C282.078 451.55 233.612 414.684 265.174 337.354Z" fill="url(#paint6_linear)"/>
</g>
<path fill-rule="evenodd" clip-rule="evenodd" d="M347.449 502.714C351.135 483.741 361.026 432.128 369.838 385.01C380.808 325.934 372.716 284.752 336.389 281.515C300.062 278.277 276.953 308.58 265.174 337.354C237.929 404.106 270.317 440.708 279.629 449.472C279.904 449.731 280.159 449.965 280.392 450.176C281.17 450.879 281.699 451.312 281.899 451.475C281.956 451.522 281.986 451.546 281.988 451.55C281.988 451.55 281.988 451.55 281.988 451.55C273.716 485.359 268.86 508.288 266.073 525.373C262.926 544.705 271.018 548.032 279.74 548.032H395.016C399.152 548.032 402.569 544.705 402.569 540.479C402.569 537.512 400.77 534.814 398.073 533.555L353.024 513.324C348.887 511.526 346.64 507.12 347.449 502.714ZM268.822 525.822C267.29 535.232 268.663 539.861 270.591 542.164C272.489 544.43 275.6 545.247 279.74 545.247H395.016C397.635 545.247 399.783 543.145 399.783 540.479C399.783 538.653 398.668 536.915 396.911 536.087L351.913 515.879C351.908 515.876 351.902 515.874 351.897 515.872C346.543 513.535 343.675 507.841 344.709 502.21L344.711 502.196L344.714 502.182C348.4 483.216 358.289 431.611 367.1 384.501C372.558 355.107 373.186 330.554 368.172 313.092C365.677 304.4 361.822 297.599 356.598 292.794C351.401 288.014 344.68 285.05 336.142 284.289C301.8 281.229 279.449 309.836 267.752 338.407C252.25 376.39 256.478 404.161 264.336 422.346C268.283 431.479 273.178 438.266 277.067 442.758C279.01 445.003 280.699 446.671 281.887 447.768C282.481 448.317 282.95 448.723 283.264 448.988C283.421 449.121 283.541 449.219 283.623 449.286L283.679 449.332C283.698 449.348 283.717 449.363 283.731 449.375C283.742 449.384 283.776 449.412 283.812 449.444L283.813 449.445C283.825 449.455 283.887 449.509 283.959 449.581C284.012 449.635 284.177 449.826 284.282 449.969C284.449 450.298 284.387 451.159 284.032 452.05L284.694 452.212C276.428 485.994 271.592 508.842 268.822 525.822Z" fill="url(#paint7_linear)"/>
<path d="M265.492 530.519C266.925 514.037 289.14 420.519 304.905 359.607C289.458 400.215 264.082 475.056 243.755 497.674C226.795 516.545 179.021 511.29 164.868 478.266C181.768 523.412 222.017 529.085 265.492 530.519Z" fill="url(#paint8_linear)"/>
<g style="mix-blend-mode:multiply" opacity="0.8">
<path d="M249.721 285.154C244.63 327.55 239.646 448.445 366.866 504.792C383.11 511.956 387.106 551.461 367.804 542.677C348.501 533.892 191.147 487.453 208.092 299.293C212.288 252.161 253.816 250.535 249.721 285.154Z" fill="#B5BBD6"/>
</g>
<path d="M366.316 496.139L463.153 462.528L538.066 477.48L444.44 514.798L366.316 496.139Z" fill="url(#paint9_linear)"/>
<path d="M388.302 495.027L463.585 468.892L516.389 479.457L443.946 508.31L388.302 495.027Z" fill="url(#paint10_linear)"/>
<path d="M444.436 514.796L444.616 593.177L368.889 570.967C368.487 570.85 368.208 570.486 368.198 570.067L366.505 496.168L444.436 514.796Z" fill="url(#paint11_linear)"/>
<path fill-rule="evenodd" clip-rule="evenodd" d="M442.37 516.43L368.635 498.805L370.249 569.21L442.54 590.412L442.37 516.43ZM444.436 514.796L366.505 496.168L368.198 570.067C368.208 570.486 368.487 570.85 368.889 570.967L444.616 593.177L444.436 514.796Z" fill="url(#paint12_linear)"/>
<path d="M377.64 563.849C377.439 563.79 377.3 563.608 377.295 563.399L376.043 507.956L434.888 521.997C435.105 522.048 435.257 522.241 435.257 522.463L435.346 580.205C435.346 580.526 435.038 580.757 434.73 580.666L377.64 563.849Z" fill="#3B566B"/>
<path d="M380.25 561.959C380.049 561.9 379.91 561.718 379.905 561.51L378.654 508.586L434.889 521.997C435.105 522.048 435.257 522.241 435.258 522.463L435.347 578.148L380.25 561.959Z" fill="#7C4E3D"/>
<path d="M380.25 561.959C380.049 561.9 379.91 561.718 379.905 561.51L378.654 508.586L434.889 521.997C435.105 522.048 435.257 522.241 435.258 522.463L435.347 578.148L380.25 561.959Z" fill="#6F4435"/>
<path fill-rule="evenodd" clip-rule="evenodd" d="M435.345 576.882L435.323 562.982L379.609 549L379.892 560.962L435.345 576.882ZM435.319 560.848L379.559 546.854L379.28 535.055L435.301 549.114L435.319 560.848ZM435.297 546.98L435.278 535.246L378.95 521.109L379.229 532.908L435.297 546.98ZM435.275 533.111L378.899 518.963L378.654 508.586L434.889 521.997C435.105 522.048 435.257 522.241 435.258 522.463L435.275 533.111Z" fill="url(#paint13_linear)"/>
<g style="mix-blend-mode:multiply" opacity="0.12">
<path d="M423.148 537.875C414.262 523.589 398.607 513.344 398.607 513.344L434.889 521.997C435.105 522.049 435.257 522.241 435.258 522.464L435.347 578.149C435.347 578.149 432.035 552.161 423.148 537.875Z" fill="#6C4334"/>
</g>
<path d="M444.436 514.796L444.616 593.177L536.052 548.76C536.214 548.681 536.318 548.518 536.322 548.338L537.846 477.54L444.436 514.796Z" fill="url(#paint14_linear)"/>
<path fill-rule="evenodd" clip-rule="evenodd" d="M444.616 593.177L536.052 548.76C536.214 548.681 536.318 548.518 536.322 548.338L537.846 477.54L444.436 514.796L444.616 593.177ZM535.709 480.62L446.509 516.197L446.678 589.874L534.274 547.323L535.709 480.62Z" fill="url(#paint15_linear)"/>
<path d="M454.009 520.885C453.826 520.957 453.705 521.135 453.706 521.332L453.883 577.654C453.884 578.008 454.254 578.239 454.573 578.085L488.081 561.812C488.246 561.732 488.351 561.564 488.351 561.38V507.945C488.351 507.605 488.009 507.373 487.693 507.498L454.009 520.885Z" fill="#456E81"/>
<path d="M454.009 520.884C453.826 520.957 453.705 521.135 453.706 521.332L453.885 575.359L485.561 559.922C485.727 559.842 485.831 559.674 485.831 559.49V508.226L454.009 520.884Z" fill="#6E4435"/>
<path d="M496.9 556.773C496.9 557.128 497.271 557.36 497.591 557.205L526.963 542.911C527.125 542.832 527.229 542.669 527.233 542.489L528.291 492.033C528.298 491.689 527.953 491.449 527.633 491.576L497.203 503.696C497.02 503.769 496.9 503.946 496.9 504.143V556.773Z" fill="#456E81"/>
<path d="M496.9 554.031L524.352 540.751C524.514 540.672 524.619 540.509 524.623 540.328L525.607 492.388L497.203 503.696C497.02 503.769 496.9 503.946 496.9 504.143V554.031Z" fill="#6E4435"/>
<path fill-rule="evenodd" clip-rule="evenodd" d="M524.351 540.751L496.9 554.031V542.559L524.839 529.765L524.623 540.328C524.619 540.509 524.514 540.672 524.351 540.751ZM524.875 528.042L496.9 540.852V528.56L525.11 516.595L524.875 528.042ZM496.9 513.513V526.874L525.145 514.895L525.402 502.338L496.9 513.513ZM496.9 511.846V504.143C496.9 503.946 497.02 503.769 497.202 503.696L525.606 492.388L525.437 500.658L496.9 511.846Z" fill="url(#paint16_linear)"/>
<path fill-rule="evenodd" clip-rule="evenodd" d="M485.831 516.185V508.226L454.009 520.884C453.826 520.957 453.705 521.135 453.706 521.332L453.731 528.771L485.831 516.185ZM453.736 530.436L453.785 545.159L485.831 531.568V517.852L453.736 530.436ZM453.791 546.842L485.831 533.254V545.92L453.836 560.571L453.791 546.842ZM453.842 562.275L453.885 575.359L485.561 559.922C485.727 559.842 485.831 559.674 485.831 559.49V547.627L453.842 562.275Z" fill="url(#paint17_linear)"/>
<g style="mix-blend-mode:multiply" opacity="0.12">
<path d="M453.705 521.005L453.867 570.251C453.867 570.251 456.511 553.008 465.145 538.727C473.779 524.445 485.832 519.436 485.832 519.436L485.831 508.226L453.705 521.005Z" fill="#6C4334"/>
</g>
<g style="mix-blend-mode:multiply" opacity="0.12">
<path d="M496.897 516.446C496.897 516.446 505.505 515.622 512.971 518.952C520.438 522.283 524.896 526.741 524.896 526.741L525.607 492.388L497.203 503.696C497.02 503.769 496.9 503.946 496.9 504.143L496.897 516.446Z" fill="#6C4334"/>
</g>
<path d="M450.675 503.602L526.566 473.39C525.217 459.183 516.045 445.695 503.727 437.512C495.544 432.027 483.315 430.948 481.247 431.488C461.015 436.973 431.522 445.245 411.47 450.91C431.792 455.136 446.269 479.864 450.675 503.602Z" fill="url(#paint18_linear)"/>
<path fill-rule="evenodd" clip-rule="evenodd" d="M526.783 459.2L445.083 490.915L444.359 489.051L526.06 457.336L526.783 459.2Z" fill="#663E30"/>
<path fill-rule="evenodd" clip-rule="evenodd" d="M518.069 446.363L435.678 477.302L434.975 475.43L517.365 444.491L518.069 446.363Z" fill="#663E30"/>
<path fill-rule="evenodd" clip-rule="evenodd" d="M510.317 433.874L426.79 460.608L426.18 458.703L509.708 431.969L510.317 433.874Z" fill="#663E30"/>
<path d="M528.391 471.694C528.391 471.694 528.364 456.485 512.359 440.749C499.231 427.891 483.855 428.88 482.326 428.97C480.798 429.06 478.446 430.551 478.086 432.349C479.231 432.034 481.394 431.461 481.394 431.461C483.876 431.171 496.893 431.757 507.503 440.3C518.114 448.842 524.143 460.624 525.851 472.673C526.625 472.373 528.391 471.694 528.391 471.694Z" fill="url(#paint19_linear)"/>
<path d="M490.239 426.902C487.811 427.531 484.624 428.223 481.836 429.033C487.535 428.727 496.803 429.599 505.165 435.174C517.462 443.402 526.626 456.852 528.289 470.985C528.337 471.397 528.099 471.787 527.714 471.94L452.355 501.925C451.811 502.141 451.206 501.808 451.092 501.234C446.546 478.201 432.74 454.601 413.359 449.291C412.19 448.932 410.841 449.022 409.672 449.291C397.263 452.798 388.721 455.226 388.721 455.226C417.765 450.91 435.481 470.832 444.56 514.932L537.896 477.795C537.896 441.379 507.054 421.237 490.239 426.902Z" fill="url(#paint20_linear)"/>
<path fill-rule="evenodd" clip-rule="evenodd" d="M490.768 428.621L490.722 428.634C479.113 431.875 467.5 435.095 455.89 438.314C438.004 443.273 420.122 448.231 402.262 453.264C411.225 454.522 418.945 458.662 425.449 465.702C434.67 475.685 441.324 491.365 445.88 512.471L536.085 476.58C535.752 459.494 528.404 446.26 519.166 437.901C509.611 429.255 498.361 426.063 490.813 428.606L490.768 428.621ZM537.896 477.795L444.56 514.932C444.437 514.332 444.312 513.736 444.185 513.146C435.953 474.75 420.945 455.242 397.304 454.663C394.56 454.596 391.7 454.783 388.721 455.226C391.504 454.435 394.288 453.646 397.072 452.86C416.5 447.369 435.959 441.974 455.417 436.579C467.027 433.36 478.636 430.141 490.239 426.902C507.054 421.237 537.896 441.379 537.896 477.795Z" fill="url(#paint21_linear)"/>
<path d="M366.691 496.319L444.56 514.932C444.56 514.932 435.478 453.877 397.982 453.877C364.982 453.877 366.691 496.319 366.691 496.319Z" fill="#5A8A9F"/>
<path fill-rule="evenodd" clip-rule="evenodd" d="M366.691 496.319L444.56 514.932C444.56 514.932 444.454 514.216 444.216 512.94C442.261 502.428 431.419 453.877 397.982 453.877C364.982 453.877 366.691 496.319 366.691 496.319ZM442.236 512.467C441.919 510.837 441.436 508.559 440.754 505.844C439.334 500.189 437.06 492.672 433.642 485.175C426.737 470.026 415.55 455.734 397.982 455.734C390.171 455.734 384.533 458.231 380.404 461.897C376.238 465.597 373.5 470.588 371.715 475.709C369.933 480.824 369.136 485.967 368.789 489.852C368.616 491.79 368.556 493.401 368.539 494.523C368.537 494.637 368.536 494.746 368.535 494.85L442.236 512.467Z" fill="url(#paint22_linear)"/>
<path d="M376.223 489.125C376.942 482.561 379.1 473.749 384.315 468.354C387.732 464.847 392.138 463.139 397.983 463.139C412.274 463.108 419.204 471.501 426.847 487.956C428.921 492.423 430.499 496.89 431.771 500.981C431.983 501.664 431.369 502.314 430.673 502.148L376.223 489.125Z" fill="url(#paint23_linear)"/>
<path d="M379.117 489.92C379.837 483.356 381.995 474.544 387.21 469.149C390.627 465.642 395.033 463.934 400.877 463.934C412.387 463.934 419.204 471.501 426.847 487.956C428.921 492.424 430.5 496.893 431.772 500.984C431.984 501.667 431.371 502.317 430.676 502.151L379.117 489.92Z" fill="#865442"/>
<path fill-rule="evenodd" clip-rule="evenodd" d="M413.648 498.129C417.165 493.144 418.589 486.239 416.982 479.205C415.628 473.276 412.373 468.365 408.19 465.194C415.559 467.96 420.93 475.35 426.786 487.959C428.861 492.427 430.44 496.895 431.711 500.986C431.924 501.669 431.311 502.319 430.615 502.154L413.648 498.129ZM380.573 490.282L379.057 489.923C379.181 488.786 379.349 487.582 379.568 486.34C379.646 486.789 379.737 487.239 379.84 487.69C380.043 488.578 380.288 489.443 380.573 490.282Z" fill="#6C4334"/>
<g filter="url(#filter7_i)">
<path fill-rule="evenodd" clip-rule="evenodd" d="M250.715 278.986C250.771 278.091 250.825 277.225 250.877 276.39C252.945 241.591 211.582 245.638 210.144 292.935C204.583 469.852 333.681 514.084 366.26 525.247C375.684 528.595 386.871 530.894 392.318 531.128C397.765 531.362 405.846 532.136 413.848 528.539C421.311 525.212 419.243 519.997 413.668 521.796C409.532 523.054 407.891 523.538 401.04 523.844C400.591 523.844 400.231 523.395 400.321 522.945C400.411 522.676 400.681 522.496 400.95 522.406C406.615 522.046 412.814 521.436 417.67 518.648C424.773 514.602 422.346 508.308 417.22 511.185C417.113 511.245 417.007 511.305 416.902 511.364C412.609 513.77 410.186 515.129 401.76 515.392C401.4 515.392 401.13 515.122 401.13 514.763C401.13 514.403 401.4 514.133 401.76 514.043C407.514 513.684 414.708 512.425 419.294 508.738C424.149 504.782 420.912 499.207 415.427 502.804C411.471 505.411 407.784 507.12 399.781 507.3C399.512 507.3 399.242 507.12 399.062 506.85C398.792 506.31 399.152 505.771 399.691 505.771C403.558 505.591 407.514 504.962 410.482 503.253C416.686 499.836 414.258 493.992 409.043 496.599C389.171 506.31 376.942 493.902 387.912 489.586C398.882 485.359 391.779 480.594 385.574 481.853C385.263 481.915 384.873 481.98 384.418 482.057C380.895 482.649 373.452 483.899 368.389 489.346C368.363 489.336 368.336 489.326 368.31 489.316C240.573 441.448 247.921 323.746 250.715 278.986Z" fill="url(#paint24_linear)"/>
</g>
<g opacity="0.81" filter="url(#filter8_f)">
<path d="M289.441 235.758C289.278 227.677 276.54 225.995 276.249 218.673C276.714 209.84 318.047 221.892 341.162 232.736C369.405 245.986 397.881 262.723 396.951 270.975C396.192 277.71 384.515 275.323 381.725 272.835C378.936 270.346 367.313 279.925 361.734 277.368C356.155 274.811 354.063 273.067 351.041 270.51C348.02 267.953 333.605 273.532 328.028 270.975C322.452 268.418 323.612 259.701 320.125 257.144C316.638 254.587 299.785 258.887 294.439 253.773C289.092 248.659 289.615 244.417 289.441 235.758Z" fill="#9AA0CA"/>
</g>
<g filter="url(#filter9_i)">
<path d="M326.498 181.255C321.283 192.495 316.607 204.095 306.626 208.501C295.746 213.266 273.896 207.512 276.234 219.021C277.583 225.405 291.7 225.945 290.081 233.048C288.463 240.062 288.912 248.334 296.825 251.571C304.648 254.809 314.179 251.661 319.215 253.55C324.43 255.528 319.305 267.577 329.915 268.386C336.929 268.926 347.179 263.89 348.078 265.868C350.236 270.274 354.732 277.108 362.915 275.04C370.738 273.062 378.651 266.228 384.316 270.544C391.276 276.088 399.142 273.728 398.041 266.964C396.939 260.2 388.759 256.582 388.811 239.792C389.441 228.013 397.803 209.759 402.479 196.092C408.593 178.288 417.675 159.225 385.574 145.738C357.52 133.868 337.108 158.686 326.498 181.255Z" fill="url(#paint25_radial)"/>
</g>
<path d="M358.333 154.089C354.056 156.041 347.68 156.65 345.62 153.847C357.406 142.73 368.127 142.66 384.166 148.704C400.205 154.748 412.118 166.041 406.921 182.892C394.413 183.227 394.139 169.193 391.814 172.796C389.49 176.399 383.5 175.692 381.124 172.425C379.283 169.894 379.862 160.325 376.41 162.329C370.549 165.732 363.938 167.191 359.261 164.519C354.277 161.67 363.68 151.648 358.333 154.089Z" fill="#9AA0CA"/>
<path opacity="0.32" d="M383.338 172.085C380.978 184.641 369.515 195.669 351.984 201.02C334.453 206.37 325.35 200.91 329.283 186.388C333.217 171.866 345.691 156.361 358.952 151.557C372.212 146.753 386.25 156.59 383.338 172.085Z" fill="white"/>
<path d="M391.689 169.207C391.868 168.667 392.768 168.667 392.947 169.117C395.555 175.951 401.759 184.313 408.773 180.806C417.495 176.4 415.247 154.011 386.743 142.951C365.163 134.588 344.751 145.109 345.291 151.403C345.74 156.348 354.732 154.37 358.149 151.763C359.048 151.043 358.868 152.122 358.329 152.752C355.721 155.899 353.293 160.395 358.419 164.081C364.803 168.667 373.615 161.564 376.762 158.686C377.212 158.237 378.111 158.506 378.111 159.136C377.841 166.06 379.55 173.343 383.956 173.793C388.092 174.332 390.969 170.825 391.689 169.207Z" fill="url(#paint26_linear)"/>
<path opacity="0.49" d="M359.561 185.931C357.989 187.731 358.134 190.43 359.885 191.959C361.636 193.487 364.33 193.267 365.902 191.466C367.474 189.665 367.328 186.966 365.577 185.438C363.826 183.909 361.133 184.13 359.561 185.931Z" fill="#9AA0CA"/>
<path d="M359.625 185.67C358.218 187.281 358.386 189.729 359.999 191.138C361.613 192.547 364.062 192.382 365.468 190.771C366.875 189.159 366.707 186.711 365.093 185.303C363.48 183.894 361.031 184.058 359.625 185.67Z" fill="#385C7D"/>
<path d="M364.109 186.109C363.405 186.243 362.996 187.206 363.196 188.261C363.396 189.317 364.13 190.064 364.835 189.93C365.539 189.796 365.948 188.832 365.748 187.777C365.548 186.722 364.814 185.975 364.109 186.109Z" fill="#1C82A2"/>
<path d="M364.763 187.22C364.507 187.268 364.363 187.644 364.441 188.058C364.52 188.472 364.791 188.769 365.048 188.72C365.304 188.671 365.448 188.296 365.369 187.882C365.29 187.467 365.019 187.171 364.763 187.22Z" fill="#9CB0CD"/>
<path d="M363.526 190.289C363.771 190.558 363.773 191.035 363.425 191.139C362.456 191.428 361.364 191.228 360.545 190.513C359.277 189.406 359.145 187.481 360.251 186.214C360.841 185.537 361.665 185.185 362.498 185.173C362.887 185.167 363.015 185.698 362.847 186.049C362.556 186.657 362.458 187.491 362.624 188.369C362.773 189.153 363.106 189.827 363.526 190.289Z" fill="#163149"/>
<path opacity="0.49" d="M391.388 199.302C389.958 201.165 389.86 203.757 391.171 205.091C392.482 206.426 394.704 205.997 396.135 204.134C397.565 202.271 397.663 199.679 396.352 198.345C395.041 197.011 392.819 197.439 391.388 199.302Z" fill="#9AA0CA"/>
<path d="M391.461 199.045C390.181 200.712 390.122 203.06 391.33 204.29C392.538 205.519 394.555 205.165 395.835 203.498C397.116 201.83 397.174 199.482 395.967 198.253C394.759 197.023 392.742 197.378 391.461 199.045Z" fill="#385C7D"/>
<path d="M395.097 199.109C394.509 199.294 394.097 200.257 394.177 201.259C394.256 202.261 394.797 202.922 395.384 202.737C395.972 202.551 396.384 201.589 396.304 200.587C396.225 199.585 395.684 198.923 395.097 199.109Z" fill="#1C82A2"/>
<path d="M395.543 200.128C395.329 200.196 395.181 200.569 395.213 200.963C395.244 201.356 395.442 201.62 395.656 201.553C395.869 201.485 396.017 201.112 395.986 200.718C395.955 200.325 395.756 200.061 395.543 200.128Z" fill="#9CB0CD"/>
<path d="M394.214 203.09C394.413 203.39 394.446 203.881 394.134 204.017C393.318 204.373 392.439 204.268 391.826 203.644C390.877 202.677 390.923 200.831 391.93 199.52C392.43 198.868 393.074 198.472 393.712 198.357C394.078 198.29 394.238 198.794 394.072 199.144C393.783 199.754 393.633 200.571 393.7 201.409C393.754 202.096 393.944 202.68 394.214 203.09Z" fill="#163149"/>
<path d="M407.26 302.007C407.681 299.633 395.626 300.083 393.642 299.362C396.949 297.278 404.747 293.668 416.579 300.595C431.369 309.252 431.189 331.077 425.598 350.979C425.056 338.653 418.174 327.651 397.64 326.207C393.792 325.937 392.285 323.018 393.191 321.818C394.213 320.466 406.839 320.616 406.989 319.143C407.14 317.67 394.694 318.071 390.425 318.271C392.309 316.247 406.538 313.1 406.689 310.665C406.839 308.23 389.343 310.064 387.93 309.102C386.409 308.066 406.839 304.382 407.26 302.007Z" fill="#7180A3" fill-opacity="0.57"/>
<g filter="url(#filter10_i)">
<path d="M419.563 295.722C411.111 292.755 406.345 291.676 397.623 293.114C389.531 294.463 390.16 299.948 396.095 299.678C400.411 299.498 403.256 299.096 411.079 300.625C411.529 300.715 411.798 301.254 411.529 301.614C411.349 301.884 411.079 301.974 410.809 301.974C405.234 300.895 397.354 300.308 391.958 301.746C384.046 303.815 384.855 310.558 390.52 309.12C395.555 307.861 401.572 307.128 409.935 309.016C410.294 309.106 410.474 309.465 410.384 309.735C410.294 310.095 410.025 310.275 409.665 310.275C404 309.106 395.825 308.67 390.43 311.188C384.765 313.796 386.384 320 392.678 317.842C397.174 316.313 401.13 315.594 408.953 317.482C409.223 317.572 409.493 317.752 409.493 318.112C409.582 318.651 409.133 319.101 408.593 319.011C404.817 318.201 400.77 317.842 397.533 318.651C390.7 320.36 391.868 325.306 397.174 325.485C418.019 325.956 425.678 331.959 425.408 351.471C438.986 341.041 443.931 304.174 419.563 295.722Z" fill="#EFF2FB"/>
</g>
<path d="M149.802 217.359C160.814 221.639 164.06 235.628 156.01 244.275C123.898 278.764 98.5582 301.988 60.6946 331.732C51.3831 339.046 37.6762 334.629 34.3543 323.264C20.8614 277.099 13.2855 243.591 6.18509 197.202C4.39161 185.485 14.9969 175.721 26.5252 178.48C71.1701 189.163 103.941 199.538 149.802 217.359Z" fill="url(#paint27_linear)"/>
<path d="M547.105 396.073C573.917 396.073 595.653 374.337 595.653 347.525C595.653 320.713 573.917 298.977 547.105 298.977C520.293 298.977 498.557 320.713 498.557 347.525C498.557 374.337 520.293 396.073 547.105 396.073Z" fill="url(#paint28_linear)"/>
<path d="M207.828 24.4761C205.619 20.6497 206.93 15.757 210.756 13.5479L226.075 4.7036C229.901 2.49446 234.794 3.80546 237.003 7.6318L245.847 22.9505C248.056 26.7768 246.745 31.6696 242.919 33.8787L227.6 42.723C223.774 44.9321 218.881 43.6211 216.672 39.7948L207.828 24.4761Z" fill="url(#paint29_linear)"/>
<path d="M638.442 272.307C643.965 272.307 648.442 267.83 648.442 262.307C648.442 256.784 643.965 252.307 638.442 252.307C632.919 252.307 628.442 256.784 628.442 262.307C628.442 267.83 632.919 272.307 638.442 272.307Z" fill="url(#paint30_linear)"/>
<defs>
<filter id="filter0_f" x="171.008" y="159.277" width="326.291" height="394.804" filterUnits="userSpaceOnUse" color-interpolation-filters="sRGB">
<feFlood flood-opacity="0" result="BackgroundImageFix"/>
<feBlend mode="normal" in="SourceGraphic" in2="BackgroundImageFix" result="shape"/>
<feGaussianBlur stdDeviation="12.5" result="effect1_foregroundBlur"/>
</filter>
<filter id="filter1_f" x="280.607" y="450.062" width="169.369" height="149.209" filterUnits="userSpaceOnUse" color-interpolation-filters="sRGB">
<feFlood flood-opacity="0" result="BackgroundImageFix"/>
<feBlend mode="normal" in="SourceGraphic" in2="BackgroundImageFix" result="shape"/>
<feGaussianBlur stdDeviation="2.78571" result="effect1_foregroundBlur"/>
</filter>
<filter id="filter2_f" x="142.664" y="495.971" width="329.141" height="75.6788" filterUnits="userSpaceOnUse" color-interpolation-filters="sRGB">
<feFlood flood-opacity="0" result="BackgroundImageFix"/>
<feBlend mode="normal" in="SourceGraphic" in2="BackgroundImageFix" result="shape"/>
<feGaussianBlur stdDeviation="10" result="effect1_foregroundBlur"/>
</filter>
<filter id="filter3_f" x="272.823" y="266.466" width="155.241" height="260.048" filterUnits="userSpaceOnUse" color-interpolation-filters="sRGB">
<feFlood flood-opacity="0" result="BackgroundImageFix"/>
<feBlend mode="normal" in="SourceGraphic" in2="BackgroundImageFix" result="shape"/>
<feGaussianBlur stdDeviation="9.28571" result="effect1_foregroundBlur"/>
</filter>
<filter id="filter4_f" x="319.046" y="285.087" width="87.4801" height="257.637" filterUnits="userSpaceOnUse" color-interpolation-filters="sRGB">
<feFlood flood-opacity="0" result="BackgroundImageFix"/>
<feBlend mode="normal" in="SourceGraphic" in2="BackgroundImageFix" result="shape"/>
<feGaussianBlur stdDeviation="3.71429" result="effect1_foregroundBlur"/>
</filter>
<filter id="filter5_f" x="223.615" y="260.309" width="155.241" height="260.048" filterUnits="userSpaceOnUse" color-interpolation-filters="sRGB">
<feFlood flood-opacity="0" result="BackgroundImageFix"/>
<feBlend mode="normal" in="SourceGraphic" in2="BackgroundImageFix" result="shape"/>
<feGaussianBlur stdDeviation="9.28571" result="effect1_foregroundBlur"/>
</filter>
<filter id="filter6_i" x="254.496" y="277.562" width="151.787" height="270.471" filterUnits="userSpaceOnUse" color-interpolation-filters="sRGB">
<feFlood flood-opacity="0" result="BackgroundImageFix"/>
<feBlend mode="normal" in="SourceGraphic" in2="BackgroundImageFix" result="shape"/>
<feColorMatrix in="SourceAlpha" type="matrix" values="0 0 0 0 0 0 0 0 0 0 0 0 0 0 0 0 0 0 127 0" result="hardAlpha"/>
<feOffset dx="3.71429" dy="-3.71429"/>
<feGaussianBlur stdDeviation="3.25"/>
<feComposite in2="hardAlpha" operator="arithmetic" k2="-1" k3="1"/>
<feColorMatrix type="matrix" values="0 0 0 0 0.537622 0 0 0 0 0.561519 0 0 0 0 0.720833 0 0 0 0.45 0"/>
<feBlend mode="normal" in2="shape" result="effect1_innerShadow"/>
</filter>
<filter id="filter7_i" x="209.969" y="245.963" width="214.909" height="285.399" filterUnits="userSpaceOnUse" color-interpolation-filters="sRGB">
<feFlood flood-opacity="0" result="BackgroundImageFix"/>
<feBlend mode="normal" in="SourceGraphic" in2="BackgroundImageFix" result="shape"/>
<feColorMatrix in="SourceAlpha" type="matrix" values="0 0 0 0 0 0 0 0 0 0 0 0 0 0 0 0 0 0 127 0" result="hardAlpha"/>
<feOffset dx="2.78571" dy="-8.35714"/>
<feGaussianBlur stdDeviation="3.71429"/>
<feComposite in2="hardAlpha" operator="arithmetic" k2="-1" k3="1"/>
<feColorMatrix type="matrix" values="0 0 0 0 0.654902 0 0 0 0 0.67451 0 0 0 0 0.819608 0 0 0 0.44 0"/>
<feBlend mode="normal" in2="shape" result="effect1_innerShadow"/>
</filter>
<filter id="filter8_f" x="272.535" y="211.902" width="128.153" height="69.618" filterUnits="userSpaceOnUse" color-interpolation-filters="sRGB">
<feFlood flood-opacity="0" result="BackgroundImageFix"/>
<feBlend mode="normal" in="SourceGraphic" in2="BackgroundImageFix" result="shape"/>
<feGaussianBlur stdDeviation="1.85714" result="effect1_foregroundBlur"/>
</filter>
<filter id="filter9_i" x="276.06" y="140.81" width="133.383" height="134.611" filterUnits="userSpaceOnUse" color-interpolation-filters="sRGB">
<feFlood flood-opacity="0" result="BackgroundImageFix"/>
<feBlend mode="normal" in="SourceGraphic" in2="BackgroundImageFix" result="shape"/>
<feColorMatrix in="SourceAlpha" type="matrix" values="0 0 0 0 0 0 0 0 0 0 0 0 0 0 0 0 0 0 127 0" result="hardAlpha"/>
<feOffset dx="0.928571" dy="-1.85714"/>
<feGaussianBlur stdDeviation="5.57143"/>
<feComposite in2="hardAlpha" operator="arithmetic" k2="-1" k3="1"/>
<feColorMatrix type="matrix" values="0 0 0 0 0.611765 0 0 0 0 0.635294 0 0 0 0 0.8 0 0 0 1 0"/>
<feBlend mode="normal" in2="shape" result="effect1_innerShadow"/>
</filter>
<filter id="filter10_i" x="386.145" y="291.554" width="52.4297" height="59.9177" filterUnits="userSpaceOnUse" color-interpolation-filters="sRGB">
<feFlood flood-opacity="0" result="BackgroundImageFix"/>
<feBlend mode="normal" in="SourceGraphic" in2="BackgroundImageFix" result="shape"/>
<feColorMatrix in="SourceAlpha" type="matrix" values="0 0 0 0 0 0 0 0 0 0 0 0 0 0 0 0 0 0 127 0" result="hardAlpha"/>
<feOffset dx="1.85714" dy="-0.928571"/>
<feGaussianBlur stdDeviation="1.85714"/>
<feComposite in2="hardAlpha" operator="arithmetic" k2="-1" k3="1"/>
<feColorMatrix type="matrix" values="0 0 0 0 0.749705 0 0 0 0 0.765151 0 0 0 0 0.904167 0 0 0 1 0"/>
<feBlend mode="normal" in2="shape" result="effect1_innerShadow"/>
</filter>
<linearGradient id="paint0_linear" x1="347.895" y1="81.25" x2="347.895" y2="461.25" gradientUnits="userSpaceOnUse">
<stop stop-color="#158FFE"/>
<stop offset="1" stop-color="#61C4FC"/>
</linearGradient>
<linearGradient id="paint1_linear" x1="471.672" y1="199.6" x2="332.175" y2="468.177" gradientUnits="userSpaceOnUse">
<stop stop-color="#2B85DC" stop-opacity="0.87"/>
<stop offset="1" stop-color="#395590"/>
</linearGradient>
<linearGradient id="paint2_linear" x1="290.163" y1="210.726" x2="290.163" y2="530.686" gradientUnits="userSpaceOnUse">
<stop stop-color="#C9CBE9"/>
<stop offset="1" stop-color="#D9DBF0"/>
</linearGradient>
<radialGradient id="paint3_radial" cx="0" cy="0" r="1" gradientUnits="userSpaceOnUse" gradientTransform="translate(211.456 262.252) rotate(70.5139) scale(163.794 137.704)">
<stop stop-color="#EAEDF9"/>
<stop offset="1" stop-color="#EAEDF9" stop-opacity="0"/>
</radialGradient>
<linearGradient id="paint4_linear" x1="439.575" y1="245.202" x2="389.626" y2="389.549" gradientUnits="userSpaceOnUse">
<stop stop-color="#EDEFFF"/>
<stop offset="1" stop-color="#C6C9E4"/>
</linearGradient>
<linearGradient id="paint5_linear" x1="428.401" y1="329.259" x2="374.916" y2="346.249" gradientUnits="userSpaceOnUse">
<stop stop-color="#F4F7FE"/>
<stop offset="1" stop-color="#F4F7FE" stop-opacity="0"/>
</linearGradient>
<linearGradient id="paint6_linear" x1="328.532" y1="281.276" x2="328.532" y2="548.032" gradientUnits="userSpaceOnUse">
<stop stop-color="#D9DBF0"/>
<stop offset="1" stop-color="#BEC0DE"/>
</linearGradient>
<linearGradient id="paint7_linear" x1="368.476" y1="293.839" x2="316.298" y2="435.161" gradientUnits="userSpaceOnUse">
<stop stop-color="#F4F6FF"/>
<stop offset="1" stop-color="#F4F7FE" stop-opacity="0"/>
</linearGradient>
<linearGradient id="paint8_linear" x1="268.119" y1="530.638" x2="236.111" y2="517.261" gradientUnits="userSpaceOnUse">
<stop stop-color="#A4AACF"/>
<stop offset="1" stop-color="#C6CAE4" stop-opacity="0.34"/>
</linearGradient>
<linearGradient id="paint9_linear" x1="452.191" y1="471.691" x2="452.191" y2="514.798" gradientUnits="userSpaceOnUse">
<stop stop-color="#A1C7D6"/>
<stop offset="1" stop-color="#C6D7DE"/>
</linearGradient>
<linearGradient id="paint10_linear" x1="452.345" y1="468.892" x2="452.345" y2="495.941" gradientUnits="userSpaceOnUse">
<stop stop-color="#8BB4C4"/>
<stop offset="1" stop-color="#456E81"/>
</linearGradient>
<linearGradient id="paint11_linear" x1="441.767" y1="516.309" x2="371.76" y2="572.337" gradientUnits="userSpaceOnUse">
<stop stop-color="#83AFC3"/>
<stop offset="1" stop-color="#518298"/>
</linearGradient>
<linearGradient id="paint12_linear" x1="444.898" y1="515.447" x2="428.89" y2="524.594" gradientUnits="userSpaceOnUse">
<stop stop-color="#FEFFFF"/>
<stop offset="1" stop-color="#FEFFFF" stop-opacity="0"/>
</linearGradient>
<linearGradient id="paint13_linear" x1="383.197" y1="510.649" x2="431.139" y2="578.344" gradientUnits="userSpaceOnUse">
<stop stop-color="#8F5B48"/>
<stop offset="1" stop-color="#7C4E3D"/>
</linearGradient>
<linearGradient id="paint14_linear" x1="535.108" y1="482.346" x2="445.232" y2="592.091" gradientUnits="userSpaceOnUse">
<stop stop-color="#80ACC0"/>
<stop offset="1" stop-color="#CBD9E0"/>
</linearGradient>
<linearGradient id="paint15_linear" x1="443.469" y1="516.876" x2="477.771" y2="535.456" gradientUnits="userSpaceOnUse">
<stop stop-color="white" stop-opacity="0.77"/>
<stop offset="1" stop-color="white" stop-opacity="0"/>
</linearGradient>
<linearGradient id="paint16_linear" x1="511.253" y1="492.388" x2="511.253" y2="554.031" gradientUnits="userSpaceOnUse">
<stop stop-color="#B57550"/>
<stop offset="1" stop-color="#845543"/>
</linearGradient>
<linearGradient id="paint17_linear" x1="469.769" y1="508.226" x2="469.769" y2="575.359" gradientUnits="userSpaceOnUse">
<stop stop-color="#B57550"/>
<stop offset="1" stop-color="#845543"/>
</linearGradient>
<linearGradient id="paint18_linear" x1="487.294" y1="434.751" x2="454.447" y2="499.873" gradientUnits="userSpaceOnUse">
<stop stop-color="#875743"/>
<stop offset="1" stop-color="#A66B4C"/>
</linearGradient>
<linearGradient id="paint19_linear" x1="503.239" y1="428.918" x2="479.627" y2="451.588" gradientUnits="userSpaceOnUse">
<stop stop-color="#456E81"/>
<stop offset="1" stop-color="#2F3950"/>
</linearGradient>
<linearGradient id="paint20_linear" x1="489.277" y1="426.501" x2="469.247" y2="506.229" gradientUnits="userSpaceOnUse">
<stop stop-color="#80ACC0"/>
<stop offset="1" stop-color="#C6D6DE"/>
</linearGradient>
<linearGradient id="paint21_linear" x1="445.393" y1="514.989" x2="449.243" y2="472.917" gradientUnits="userSpaceOnUse">
<stop stop-color="#FBFCFD"/>
<stop offset="1" stop-color="#FBFCFD" stop-opacity="0"/>
</linearGradient>
<linearGradient id="paint22_linear" x1="442.988" y1="513.189" x2="416.467" y2="504.422" gradientUnits="userSpaceOnUse">
<stop stop-color="white"/>
<stop offset="1" stop-color="#CED7EB" stop-opacity="0"/>
</linearGradient>
<linearGradient id="paint23_linear" x1="404.232" y1="463.139" x2="383.273" y2="488.035" gradientUnits="userSpaceOnUse">
<stop stop-color="#456E81"/>
<stop offset="1" stop-color="#2F3950"/>
</linearGradient>
<linearGradient id="paint24_linear" x1="231.531" y1="271.322" x2="401.54" y2="515.568" gradientUnits="userSpaceOnUse">
<stop stop-color="#CCCFEA"/>
<stop offset="1" stop-color="#D9DBF0"/>
</linearGradient>
<radialGradient id="paint25_radial" cx="0" cy="0" r="1" gradientUnits="userSpaceOnUse" gradientTransform="translate(392.534 266.093) rotate(-120.237) scale(100.629 100.402)">
<stop stop-color="#EDEFF9"/>
<stop offset="1" stop-color="#F1F2F8"/>
</radialGradient>
<linearGradient id="paint26_linear" x1="371.265" y1="144.985" x2="402.762" y2="176.134" gradientUnits="userSpaceOnUse">
<stop stop-color="#4BE0D7"/>
<stop offset="1" stop-color="#4BBCE0"/>
</linearGradient>
<linearGradient id="paint27_linear" x1="172.437" y1="226.322" x2="172.437" y2="612.064" gradientUnits="userSpaceOnUse">
<stop stop-color="#17E1D5"/>
<stop offset="1" stop-color="#108CFF"/>
</linearGradient>
<linearGradient id="paint28_linear" x1="547.105" y1="298.977" x2="554.425" y2="467.715" gradientUnits="userSpaceOnUse">
<stop stop-color="#FFCA62"/>
<stop offset="1" stop-color="#FF8B5C"/>
</linearGradient>
<linearGradient id="paint29_linear" x1="219.83" y1="-16.2297" x2="219.83" y2="61.5294" gradientUnits="userSpaceOnUse">
<stop stop-color="#FF8B5C"/>
<stop offset="1" stop-color="#FF6755"/>
</linearGradient>
<linearGradient id="paint30_linear" x1="648.671" y1="265.205" x2="648.671" y2="228.976" gradientUnits="userSpaceOnUse">
<stop stop-color="#4D51D5"/>
<stop offset="1" stop-color="#17E1D5"/>
</linearGradient>
</defs>
</svg>
