<svg width="671" height="526" viewBox="0 0 671 526" fill="none"
    xmlns="http://www.w3.org/2000/svg">
    <path d="M305.884 491.35C422.284 491.35 516.684 396.95 516.684 280.55C516.784 164.05 422.384 69.6499 305.884 69.6499C189.384 69.6499 95.0845 164.05 95.0845 280.45C95.0845 396.95 189.484 491.35 305.884 491.35Z" fill="url(#paint0_linear)"/>
    <g style="mix-blend-mode:multiply" opacity="0.83" filter="url(#filter0_f)">
        <path d="M283.511 316.559C238.568 321.472 193.686 418.8 186.73 470.251C295.297 519.321 393.675 477.599 446.538 410.394C446.2 402.611 443.566 390.287 433.415 374.721C402.621 324.639 320.212 297.598 365.06 294.861C437.137 290.462 436.109 196.048 372.167 177.779C308.224 159.509 270.742 209.682 297.383 248.163C309.565 265.76 302.459 314.488 283.511 316.559Z" fill="url(#paint1_linear)"/>
    </g>
    <g filter="url(#filter1_i)">
        <path fill-rule="evenodd" clip-rule="evenodd" d="M117.141 197.649C113.314 194.781 109.151 192.045 106.293 190.914C101.469 189.005 105.163 186.015 109.66 187.07C113.219 187.905 121.91 191.715 130.089 198.077C138.296 203.584 149.216 212.228 149.943 228.309C150.459 239.692 142.282 253.778 130.108 273.055C119.036 290.584 101.103 324.659 94.7414 351.014C87.4712 385.775 111.904 390.331 126.306 382.455C140.708 374.579 154.403 363.008 171.471 339.02C185.557 323.571 222.215 355.789 212.219 371.465C172.914 422.357 129.11 437.541 94.5876 426.975C41.8458 408.677 50.918 368.39 63.6806 331.793C74.5751 300.554 104.994 259.986 115.745 245.647L115.746 245.647L115.746 245.646L115.747 245.646C117.59 243.188 118.855 241.501 119.344 240.764C122.219 236.435 119.89 233.111 117.816 230.154L117.816 230.153C117.478 229.671 117.146 229.198 116.845 228.732C115.584 226.778 112.103 223.221 108.846 220.166C103.236 215.75 95.9303 210.186 88.5386 206.255C84.6197 204.112 87.0492 200.071 92.182 201.95C94.6394 202.877 100.168 205.697 105.376 209.017C105.601 208.667 105.84 208.311 106.092 207.952C102.487 205.225 92.8443 200.086 89.6549 199.031C86.274 197.912 88.7647 194.723 92.8348 194.874C96.2846 195.001 105.301 199.942 110.108 203.136C110.311 202.93 110.516 202.724 110.724 202.521C110.625 202.459 110.528 202.386 110.429 202.301C108.412 200.451 102.677 197.1 96.7861 194.66C92.2791 192.736 98.1769 189.123 103.789 191.532C107.095 192.915 112.186 195.831 115.709 198.5C116.182 198.196 116.66 197.912 117.141 197.649Z" fill="#2A3660"/>
    </g>
    <path d="M106.293 190.914C109.151 192.046 113.314 194.782 117.141 197.649C116.66 197.912 116.182 198.197 115.709 198.5C112.186 195.832 107.095 192.915 103.789 191.533C98.1769 189.123 92.2792 192.737 96.7861 194.661C102.677 197.1 108.412 200.451 110.429 202.301C110.528 202.386 110.625 202.46 110.724 202.522C110.516 202.725 110.311 202.93 110.108 203.136C105.301 199.943 96.2847 195.001 92.8348 194.874C88.7647 194.723 86.274 197.912 89.6549 199.031C92.8443 200.087 102.487 205.226 106.092 207.952C105.84 208.312 105.601 208.667 105.377 209.017C100.168 205.698 94.6394 202.877 92.182 201.95C87.0492 200.071 84.6197 204.112 88.5386 206.255C95.9303 210.186 103.236 215.75 108.846 220.166C112.103 223.221 115.584 226.778 116.845 228.732C117.146 229.198 117.478 229.671 117.816 230.154C119.89 233.112 122.219 236.435 119.344 240.764C118.855 241.501 117.589 243.189 115.746 245.647L115.745 245.648C104.994 259.987 74.5751 300.554 63.6807 331.794L94.7414 351.014C101.103 324.66 119.037 290.584 130.108 273.055C142.282 253.778 150.459 239.693 149.944 228.309C149.216 212.228 138.296 203.585 130.089 198.077C121.91 191.716 113.219 187.906 109.66 187.07C105.163 186.015 101.469 189.005 106.293 190.914Z" fill="#2B3760"/>
    <path d="M142.314 204.791C141.081 199.032 135.383 200.347 135.149 206.35C134.914 212.354 141.204 216.448 138.431 216.332C132.665 216.091 129.212 219.273 127.651 223.783C121.293 242.152 144.331 251.681 148.329 239.688C153.941 221.928 143.548 210.55 142.314 204.791Z" fill="#2A3660"/>
    <path d="M130.837 218.946C127.63 221.741 127.054 225.766 126.618 227.73C126.344 226.458 125.575 225.479 126.399 221.781C127.171 218.319 129.254 216.1 131.79 214.977C133.042 214.423 133.842 212.919 133.598 211.572C132.852 207.444 134.361 202.755 136.451 202.671C135.234 204.624 135.004 206.29 135.437 209.059C135.688 210.662 137.08 212.817 138.354 214.533C138.893 215.257 138.302 216.371 137.402 216.426C135.446 216.545 132.933 217.119 130.837 218.946Z" fill="#0A0E37"/>
    <path d="M159.073 354.878C156.382 357.934 153.749 360.932 151.769 363.085C157.632 374.31 170.243 394.77 180.543 404.33C182.002 403.181 185.537 400.352 185.537 400.352L159.073 354.878Z" fill="#141D42"/>
    <path d="M139.611 95.2968L98.7008 99.2483C96.9575 99.3645 95.679 100.759 95.5628 102.503L92.0762 149.921C91.96 151.664 92.8897 153.408 94.4006 154.337L124.153 170.957C126.245 172.119 128.686 172.584 131.127 172.352L171.455 167.587C173.664 167.354 175.407 165.611 175.523 163.403L179.359 116.449C179.475 114.59 178.545 112.73 176.802 111.916L145.887 96.459C144.027 95.5292 141.819 95.0643 139.611 95.2968Z" fill="url(#paint2_linear)"/>
    <path d="M179.358 116.1L175.407 163.402C175.175 165.61 173.547 167.354 171.339 167.586L130.313 172.351C128.918 172.467 127.64 171.305 127.756 169.911L131.127 125.979C131.475 121.446 134.962 117.843 139.495 117.495L176.918 113.659C178.312 113.543 179.475 114.705 179.358 116.1Z" fill="url(#paint3_linear)"/>
    <path d="M124.386 170.957L94.5168 154.221C92.8897 153.291 91.9599 151.664 92.1923 149.805L95.5628 102.967C95.679 101.34 97.4223 100.294 98.9332 101.108L126.361 115.403C129.616 117.146 131.591 120.633 131.359 124.352L127.872 169.097C127.64 170.841 125.897 171.77 124.386 170.957Z" fill="url(#paint4_linear)"/>
    <path d="M129.267 116.914L99.1658 101.34C98.1198 100.759 98.4684 99.2481 99.6307 99.1318L139.611 95.2965C141.819 95.0641 143.911 95.529 145.887 96.4588L175.988 111.568C177.034 112.032 176.802 113.66 175.64 113.776L134.497 117.96C132.638 118.192 130.894 117.844 129.267 116.914Z" fill="url(#paint5_linear)"/>
    <path d="M368.861 469.01C379.026 449.122 360.11 422.958 351.801 407.578C343.492 392.198 381.235 368.597 396.969 388.044C412.702 407.49 428.082 443.73 410.935 478.026C398.56 499.063 358.165 487.837 368.861 469.01Z" fill="#2B3760"/>
    <path d="M359.786 421.604C361.442 424.294 363.856 429.192 365.339 432.227C378.342 428.881 401.239 419.707 409.623 408.429C408.865 406.636 405.45 400.117 405.45 400.117L359.786 421.604Z" fill="#141D42"/>
    <g style="mix-blend-mode:multiply" opacity="0.34" filter="url(#filter2_f)">
        <path d="M184.118 496.12C205.12 502.595 258.675 510.646 336.731 509.246C414.787 507.846 430.889 499.095 341.631 489.294C252.374 479.494 157.866 466.192 161.717 477.743C165.567 489.294 144.915 488.419 127.414 486.669C109.912 484.919 50.7576 482.993 35.5314 492.969C20.3051 502.945 106.412 506.62 130.914 500.845C155.416 495.069 163.117 489.644 184.118 496.12Z" fill="url(#paint6_linear)"/>
    </g>
    <path d="M176.03 467.272L185.269 400.896L185.355 400.274L184.973 399.776C163.796 372.199 157.896 359.942 156.795 352.021C156.675 351.138 156.887 350.65 157.152 350.281C157.307 350.066 157.503 349.861 157.751 349.631C157.814 349.573 157.896 349.498 157.988 349.416C158.179 349.245 158.408 349.038 158.577 348.87C179.501 328.004 200.166 314.043 222.874 306.699C245.575 299.356 270.442 298.587 299.833 304.303C330.763 310.375 355.133 329.842 373.042 349.615C386.732 364.729 396.513 379.848 402.604 389.264C404.494 392.184 406.028 394.556 407.214 396.209C407.442 396.541 407.466 397.198 406.68 398.484C406.332 399.052 405.906 399.609 405.492 400.119C405.387 400.249 405.274 400.386 405.16 400.523C404.916 400.819 404.67 401.117 404.496 401.352C397.496 408.601 387.314 414.193 378.766 417.994C374.496 419.893 370.669 421.329 367.912 422.289C366.534 422.769 365.425 423.13 364.662 423.37C364.281 423.49 363.987 423.58 363.789 423.639C363.69 423.669 363.616 423.691 363.566 423.706L363.512 423.722L363.499 423.725L363.496 423.726L363.496 423.726L363.496 423.726L362.494 424.014L362.415 425.054L362.643 425.072C362.415 425.054 362.415 425.055 362.415 425.055L362.415 425.056L362.414 425.061L362.413 425.08L362.407 425.158L362.384 425.461L362.296 426.626C362.22 427.636 362.109 429.095 361.974 430.889C361.704 434.479 361.334 439.413 360.935 444.79C360.137 455.541 359.222 468.072 358.757 475.17C358.613 477.373 358.524 479.323 358.449 480.987C358.404 481.983 358.364 482.876 358.319 483.66C358.193 485.848 358.027 487.276 357.682 488.324C357.366 489.28 356.903 489.916 356.074 490.498C355.173 491.131 353.824 491.712 351.675 492.43C310.43 504.188 270.063 502.551 238.824 497.148C223.205 494.447 209.886 490.808 199.905 487.445C189.864 484.061 183.341 481.003 181.207 479.51C178.494 477.601 177.173 474.61 176.547 471.94C176.237 470.619 176.108 469.422 176.057 468.556C176.032 468.124 176.026 467.779 176.027 467.546C176.027 467.429 176.029 467.341 176.03 467.285C176.03 467.28 176.03 467.276 176.03 467.272Z" fill="url(#paint7_linear)" stroke="url(#paint8_linear)" stroke-width="3" stroke-miterlimit="10"/>
    <path d="M404.615 395.071C395.532 381.113 388.783 371.188 376.227 355.561C382.756 416.948 255.835 365.904 282.599 445.092C309.363 524.279 187.507 414.529 185.295 412.593C185.295 412.593 178.422 460.568 177.949 464.28C177.476 467.992 178.804 475.49 185.201 478.96C194.291 485.323 268.382 513.89 349.593 490.725C358.115 487.885 356.637 486.408 357.546 472.546C358.455 458.684 361.966 423.047 361.966 423.047C361.966 423.047 390.039 414.104 404.128 399.446C404.924 398.31 406.205 397.343 404.615 395.071Z" fill="url(#paint9_linear)"/>
    <path d="M299.221 255.179C300.384 238.327 337.226 241.813 334.669 259.595C329.5 286.671 331.692 304.516 334.533 315.532C336.304 322.401 341.353 327.751 346.913 332.157C353.812 337.625 360.811 345.087 357.495 350.799C352.518 359.369 327.278 359.469 294.459 350.384C254.508 339.325 232.076 325.249 230.87 317.207C229.774 309.902 241.761 305.492 261.503 304.299C267.008 303.966 272.478 302.522 276.91 299.24C298.632 283.15 297.526 269.696 299.221 255.179Z" fill="#2B3760"/>
    <g filter="url(#filter3_i)">
        <path fill-rule="evenodd" clip-rule="evenodd" d="M411.111 477.849C395.591 509.626 358.26 509.546 330.499 496.234C307.066 484.998 271.31 457.546 260.687 432.368C257.841 425.168 256.427 418.45 258.372 413.854L298.148 420.218C292.057 430.275 291.077 430.754 294.17 436.27C297.264 441.786 312.82 455.044 336.033 466.38C364.875 480.209 373.23 475.18 371.512 448.857C370.531 430.962 434.81 429.326 411.111 477.849Z" fill="#2B3760"/>
    </g>
    <path fill-rule="evenodd" clip-rule="evenodd" d="M290.788 404.402C290.88 404.478 290.973 404.556 291.067 404.635C294.952 399.311 301.032 391.593 304.904 389.853C309.47 387.801 313.962 390.21 310.549 393.654C306.478 397.768 299.497 406.127 296.587 409.979C296.72 410.133 296.851 410.289 296.98 410.444C299.954 406.379 303.781 401.64 306.173 400.491C309.611 398.84 313.757 401.291 311.262 403.951C307.852 407.576 300.911 416.42 299.502 418.647C299.484 418.675 299.465 418.703 299.446 418.729C299.43 418.752 299.414 418.774 299.398 418.797C297.781 421.145 296.372 423.369 295.08 425.41C289.508 434.207 286.08 439.621 277.287 437.101C266.419 434.094 256.698 419.6 257.899 415.007C258.329 413.365 259.255 411.531 260.233 409.594C261.992 406.112 263.918 402.299 263.424 398.678C262.404 390.942 268.777 392.783 270.32 396.574C271.535 399.46 270.68 402.427 269.987 404.833C269.511 406.485 269.111 407.873 269.51 408.789C270.489 411.039 272.898 411.792 275.391 408.89C277.678 406.249 278.677 400.355 278.951 397.104C276.645 397.616 272.488 397.688 269.206 394.388C266.898 392.108 267.893 388.084 272.236 389.335C275.914 390.395 278.426 390.287 281.815 390.141L281.815 390.141L281.815 390.141C282.428 390.115 283.069 390.087 283.751 390.065C286.49 390.247 287.507 392.726 287.805 395.361C291.348 390.313 295.876 384.537 299.018 382.947C303.465 380.697 307.642 383.526 304.357 387.083C300.305 391.557 293.317 400.628 290.788 404.402Z" fill="#2B3760"/>
    <path d="M287.312 397.201C289.764 393.393 295.764 385.489 299.094 383.805C302.423 382.121 306.657 383.407 303.553 386.592C302.722 387.605 299.987 386.434 296.262 389.304C292.537 392.173 285.502 399.882 287.312 397.201Z" fill="url(#paint10_linear)"/>
    <path d="M292.944 403.493C295.402 399.561 300.69 392.598 305.356 390.385C308.741 388.615 312.519 390.236 310.038 392.996C309.201 394.043 306.385 392.882 302.611 395.87C298.836 398.859 291.127 406.261 292.944 403.493Z" fill="url(#paint11_linear)"/>
    <path d="M296.016 412.967C298.022 409.55 302.373 403.475 306.306 401.473C309.155 399.88 312.421 401.175 310.368 403.591C309.678 404.506 307.244 403.581 304.092 406.225C300.939 408.868 294.53 415.376 296.016 412.967Z" fill="url(#paint12_linear)"/>
    <path d="M331.995 279.818C331.995 279.818 314.446 284.118 293.294 281.561C293.294 281.561 295.967 276.099 296.78 272.612L332.112 277.726L331.995 279.818Z" fill="#141D42"/>
    <path d="M271.948 180.778C254.802 194.454 236.458 182.706 239.3 163.131C242.141 143.556 259.741 135.122 272.099 141.09C284.309 146.996 289.094 167.101 271.948 180.778Z" fill="#212B52"/>
    <path fill-rule="evenodd" clip-rule="evenodd" d="M249.733 185.237C255.945 187.977 264.073 187.059 271.948 180.778C289.094 167.101 284.309 146.996 272.099 141.09C270.925 140.523 269.704 140.086 268.453 139.776C268.698 139.882 268.942 139.993 269.184 140.11C281.393 146.016 286.179 166.121 269.032 179.798C262.338 185.138 255.461 186.602 249.733 185.237Z" fill="#444F7E"/>
    <path fill-rule="evenodd" clip-rule="evenodd" d="M252.314 186.135C253.958 182.446 255.985 178.989 258.345 175.793C264.531 167.384 272.984 160.747 282.835 156.324C284.052 164.193 281.177 173.417 271.948 180.778C265.122 186.223 258.107 187.638 252.314 186.135Z" fill="#141D42"/>
    <path d="M397.666 218.521C392.508 278.802 319.978 297.982 276.46 258.332C254.7 238.507 248.737 215.459 253.733 195.472C258.73 175.325 274.687 158.24 296.607 150.02C318.527 141.961 345.122 143.895 365.592 155.5C385.9 167.105 400.245 188.219 397.666 218.521Z" fill="#2B3760"/>
    <path d="M438.986 241.409C426.253 259.783 400.142 253.658 393.05 237.057C385.958 220.617 398.53 200.953 417.549 199.502C436.407 198.051 451.558 223.034 438.986 241.409Z" fill="#444F7E"/>
    <path d="M436.415 241.1C423.682 259.474 397.571 253.349 390.479 236.748C383.387 220.308 395.959 200.644 414.978 199.193C433.836 197.743 448.987 222.725 436.415 241.1Z" fill="#2B3760"/>
    <path fill-rule="evenodd" clip-rule="evenodd" d="M420.38 234.52C420.325 238.793 423.607 243.667 426.888 240.928C439.095 230.613 433.38 210.434 420.054 207.838C414.287 206.71 408.702 208.13 404.344 211.125C400.699 213.63 404.777 218.117 409.117 218.966C416.024 220.311 420.471 227.34 420.38 234.52Z" fill="#141D42"/>
    <path fill-rule="evenodd" clip-rule="evenodd" d="M254.493 166.453C253.286 169.74 249.348 172.511 247.637 169.456C241.307 157.989 251.583 144.211 262.544 146.12C267.289 146.943 271.149 149.663 273.61 153.23C275.668 156.214 271.235 158.457 267.664 157.837C261.982 156.848 256.522 160.929 254.493 166.453Z" fill="#141D42"/>
    <path opacity="0.61" d="M382.984 213.922C367.298 225.203 338.32 203.333 332.765 179.065C329.987 166.931 333.299 159.767 339.612 157.207C345.962 154.612 355.312 156.62 364.63 162.702C373.911 168.819 382.463 178.791 386.705 188.671C390.893 198.494 390.864 208.246 382.984 213.922Z" fill="#444F7E"/>
    <path opacity="0.72" d="M281.04 171.376C280.957 169.667 278.957 168.701 277.7 169.863C269.528 177.425 263.738 186.867 261.173 197.21C256.698 215.11 262.039 235.754 281.528 253.51C302.631 272.737 331.351 276.518 353.987 267.374C364.443 263.15 357.708 249.53 346.771 246.786C321.248 240.384 296.37 220.578 285.994 193.419C282.945 185.439 281.366 178.072 281.04 171.376Z" fill="#1B244A"/>
    <path d="M337.606 223.946C334.433 224.103 331.734 221.654 331.577 218.476C331.42 215.299 333.865 212.596 337.038 212.439C340.211 212.283 342.91 214.731 343.067 217.909C343.224 221.086 340.779 223.789 337.606 223.946Z" fill="#141D42"/>
    <path d="M338.039 222.961C335.131 223.105 332.657 220.861 332.513 217.948C332.369 215.036 334.61 212.559 337.518 212.416C340.426 212.272 342.9 214.516 343.044 217.428C343.188 220.34 340.947 222.817 338.039 222.961Z" fill="#586EB7"/>
    <path d="M341.351 217.801C340.614 218.441 339.239 218.065 338.28 216.961C337.322 215.857 337.143 214.443 337.88 213.803C338.618 213.162 339.993 213.538 340.951 214.643C341.91 215.747 342.089 217.161 341.351 217.801Z" fill="#3B5AC3"/>
    <path d="M340.715 216.165C340.447 216.398 339.924 216.235 339.548 215.802C339.172 215.368 339.084 214.828 339.352 214.595C339.62 214.363 340.142 214.525 340.519 214.959C340.895 215.392 340.983 215.932 340.715 216.165Z" fill="#9CB0CD"/>
    <path d="M336.444 215.158C336.304 214.563 335.662 214.065 335.185 214.448C334.184 215.253 333.569 216.511 333.637 217.893C333.75 220.183 335.696 221.948 337.983 221.835C339.093 221.78 340.079 221.293 340.788 220.544C341.238 220.069 340.675 219.317 340.051 219.119C339.242 218.863 338.392 218.298 337.682 217.48C337.043 216.744 336.624 215.925 336.444 215.158Z" fill="#44589D"/>
    <path d="M269.889 189.197C269.565 191.714 267.643 193.709 265.595 193.653C263.548 193.596 262.15 191.509 262.474 188.992C262.798 186.474 264.72 184.479 266.768 184.536C268.816 184.592 270.213 186.679 269.889 189.197Z" fill="#141D42"/>
    <path d="M270.258 189.154C269.938 191.642 268.168 193.617 266.306 193.565C264.443 193.514 263.193 191.455 263.513 188.967C263.833 186.479 265.602 184.504 267.465 184.555C269.328 184.607 270.578 186.666 270.258 189.154Z" fill="#586EB7"/>
    <path d="M267.498 186.151C266.946 186.63 266.856 187.855 267.299 188.888C267.741 189.92 268.547 190.369 269.1 189.889C269.652 189.41 269.741 188.185 269.299 187.152C268.857 186.12 268.051 185.671 267.498 186.151Z" fill="#3B5AC3"/>
    <path d="M268.333 187.028C268.132 187.202 268.11 187.672 268.283 188.077C268.457 188.482 268.761 188.67 268.961 188.495C269.162 188.321 269.184 187.851 269.011 187.446C268.837 187.041 268.533 186.853 268.333 187.028Z" fill="#9CB0CD"/>
    <path d="M267.958 190.8C268.283 191.042 268.434 191.683 268.096 192C267.385 192.664 266.49 192.91 265.678 192.561C264.331 191.983 263.719 189.988 264.31 188.105C264.597 187.192 265.115 186.473 265.726 186.041C266.113 185.766 266.435 186.394 266.411 186.956C266.379 187.684 266.523 188.512 266.85 189.277C267.145 189.965 267.54 190.488 267.958 190.8Z" fill="#44589D"/>
    <path d="M591.435 347.007C590.652 356.705 580.397 362.582 571.647 358.327C523.306 334.819 491.195 315.75 446.32 284.014C438.358 278.384 438.579 266.536 446.733 261.188C492.657 231.07 525.138 212.657 573.556 189.783C582.383 185.613 592.606 191.652 593.212 201.396C596.458 253.635 595.956 290.984 591.435 347.007Z" fill="url(#paint13_linear)"/>
    <path d="M175.666 50.5C189.473 50.5 200.666 39.3071 200.666 25.5C200.666 11.6929 189.473 0.5 175.666 0.5C161.859 0.5 150.666 11.6929 150.666 25.5C150.666 39.3071 161.859 50.5 175.666 50.5Z" fill="url(#paint14_linear)"/>
    <rect x="0.666016" y="197.344" width="33.6885" height="33.6885" rx="8" transform="rotate(-30 0.666016 197.344)" fill="url(#paint15_linear)"/>
    <path d="M526.428 398.42C531.95 398.42 536.428 393.943 536.428 388.42C536.428 382.898 531.95 378.42 526.428 378.42C520.905 378.42 516.427 382.898 516.427 388.42C516.427 393.943 520.905 398.42 526.428 398.42Z" fill="url(#paint16_linear)"/>
    <defs>
        <filter id="filter0_f" x="177.73" y="164.904" width="277.808" height="335.762" filterUnits="userSpaceOnUse" color-interpolation-filters="sRGB">
            <feFlood flood-opacity="0" result="BackgroundImageFix"/>
            <feBlend mode="normal" in="SourceGraphic" in2="BackgroundImageFix" result="shape"/>
            <feGaussianBlur stdDeviation="4.5" result="effect1_foregroundBlur"/>
        </filter>
        <filter id="filter1_i" x="53.8496" y="180.851" width="163.073" height="249.295" filterUnits="userSpaceOnUse" color-interpolation-filters="sRGB">
            <feFlood flood-opacity="0" result="BackgroundImageFix"/>
            <feBlend mode="normal" in="SourceGraphic" in2="BackgroundImageFix" result="shape"/>
            <feColorMatrix in="SourceAlpha" type="matrix" values="0 0 0 0 0 0 0 0 0 0 0 0 0 0 0 0 0 0 127 0" result="hardAlpha"/>
            <feOffset dx="3" dy="-6"/>
            <feGaussianBlur stdDeviation="3.5"/>
            <feComposite in2="hardAlpha" operator="arithmetic" k2="-1" k3="1"/>
            <feColorMatrix type="matrix" values="0 0 0 0 0 0 0 0 0 0 0 0 0 0 0 0 0 0 0.25 0"/>
            <feBlend mode="normal" in2="shape" result="effect1_innerShadow"/>
        </filter>
        <filter id="filter2_f" x="24.4883" y="458.379" width="387.467" height="66.798" filterUnits="userSpaceOnUse" color-interpolation-filters="sRGB">
            <feFlood flood-opacity="0" result="BackgroundImageFix"/>
            <feBlend mode="normal" in="SourceGraphic" in2="BackgroundImageFix" result="shape"/>
            <feGaussianBlur stdDeviation="4.5" result="effect1_foregroundBlur"/>
        </filter>
        <filter id="filter3_i" x="257.473" y="409.854" width="158.888" height="94.8135" filterUnits="userSpaceOnUse" color-interpolation-filters="sRGB">
            <feFlood flood-opacity="0" result="BackgroundImageFix"/>
            <feBlend mode="normal" in="SourceGraphic" in2="BackgroundImageFix" result="shape"/>
            <feColorMatrix in="SourceAlpha" type="matrix" values="0 0 0 0 0 0 0 0 0 0 0 0 0 0 0 0 0 0 127 0" result="hardAlpha"/>
            <feOffset dy="-6"/>
            <feGaussianBlur stdDeviation="2"/>
            <feComposite in2="hardAlpha" operator="arithmetic" k2="-1" k3="1"/>
            <feColorMatrix type="matrix" values="0 0 0 0 0 0 0 0 0 0 0 0 0 0 0 0 0 0 0.25 0"/>
            <feBlend mode="normal" in2="shape" result="effect1_innerShadow"/>
        </filter>
        <linearGradient id="paint0_linear" x1="95.0845" y1="280.483" x2="516.751" y2="280.483" gradientUnits="userSpaceOnUse">
            <stop stop-color="#CEF9C6"/>
            <stop offset="1" stop-color="#42BAEB"/>
        </linearGradient>
        <linearGradient id="paint1_linear" x1="345.434" y1="168.642" x2="317.517" y2="480.444" gradientUnits="userSpaceOnUse">
            <stop stop-color="#41B4BB"/>
            <stop offset="1" stop-color="#B7C1D7" stop-opacity="0.24"/>
        </linearGradient>
        <linearGradient id="paint2_linear" x1="135.787" y1="115.682" x2="135.717" y2="172.41" gradientUnits="userSpaceOnUse">
            <stop stop-color="#D9E1EF"/>
            <stop offset="1" stop-color="#7387B4"/>
        </linearGradient>
        <linearGradient id="paint3_linear" x1="153.558" y1="113.651" x2="153.558" y2="172.359" gradientUnits="userSpaceOnUse">
            <stop stop-color="#C3CBE2"/>
            <stop offset="1" stop-color="#A0ABCF"/>
        </linearGradient>
        <linearGradient id="paint4_linear" x1="111.767" y1="100.826" x2="111.767" y2="171.255" gradientUnits="userSpaceOnUse">
            <stop stop-color="#7085B2"/>
            <stop offset="1" stop-color="#8E98C4"/>
        </linearGradient>
        <linearGradient id="paint5_linear" x1="137.599" y1="95.2373" x2="137.599" y2="118.029" gradientUnits="userSpaceOnUse">
            <stop stop-color="#D7DFF2"/>
            <stop offset="1" stop-color="#FDFDFE"/>
        </linearGradient>
        <linearGradient id="paint6_linear" x1="343.732" y1="479.494" x2="-151.975" y2="497.809" gradientUnits="userSpaceOnUse">
            <stop stop-color="#395591"/>
            <stop offset="0.647864" stop-color="#395591" stop-opacity="0"/>
        </linearGradient>
        <linearGradient id="paint7_linear" x1="282.058" y1="290.488" x2="282.058" y2="496.554" gradientUnits="userSpaceOnUse">
            <stop stop-color="#E787E6"/>
            <stop offset="0.599951" stop-color="#E486E6"/>
        </linearGradient>
        <linearGradient id="paint8_linear" x1="228.462" y1="293.188" x2="247.081" y2="357.786" gradientUnits="userSpaceOnUse">
            <stop stop-color="#FCA7EC"/>
            <stop offset="1" stop-color="white" stop-opacity="0"/>
        </linearGradient>
        <linearGradient id="paint9_linear" x1="269.88" y1="375.646" x2="323.839" y2="490.402" gradientUnits="userSpaceOnUse">
            <stop stop-color="#B365F0"/>
            <stop offset="1" stop-color="#B76AEF" stop-opacity="0.14"/>
        </linearGradient>
        <linearGradient id="paint10_linear" x1="298.453" y1="381.859" x2="293.509" y2="399.565" gradientUnits="userSpaceOnUse">
            <stop stop-color="#4F5D96"/>
            <stop offset="1" stop-color="#2B3760" stop-opacity="0"/>
        </linearGradient>
        <linearGradient id="paint11_linear" x1="304.23" y1="388.43" x2="299.595" y2="405.923" gradientUnits="userSpaceOnUse">
            <stop stop-color="#4F5D96"/>
            <stop offset="1" stop-color="#2B3760" stop-opacity="0"/>
        </linearGradient>
        <linearGradient id="paint12_linear" x1="305.297" y1="399.829" x2="301.756" y2="414.885" gradientUnits="userSpaceOnUse">
            <stop stop-color="#4F5D96"/>
            <stop offset="1" stop-color="#2B3760" stop-opacity="0"/>
        </linearGradient>
        <linearGradient id="paint13_linear" x1="704.974" y1="591.679" x2="522.439" y2="194.931" gradientUnits="userSpaceOnUse">
            <stop stop-color="#F68793"/>
            <stop offset="1" stop-color="#4D51D4"/>
        </linearGradient>
        <linearGradient id="paint14_linear" x1="175.666" y1="0.5" x2="175.666" y2="50.5" gradientUnits="userSpaceOnUse">
            <stop stop-color="#46DCD2"/>
            <stop offset="1" stop-color="#8FE6FA"/>
        </linearGradient>
        <linearGradient id="paint15_linear" x1="17.4092" y1="200.348" x2="-6.90685" y2="255.589" gradientUnits="userSpaceOnUse">
            <stop stop-color="#FF6755"/>
            <stop offset="1" stop-color="#FF8B5C"/>
        </linearGradient>
        <linearGradient id="paint16_linear" x1="526.428" y1="378.42" x2="526.428" y2="398.42" gradientUnits="userSpaceOnUse">
            <stop stop-color="#FF8B5C"/>
            <stop offset="1" stop-color="#FFCA62"/>
        </linearGradient>
    </defs>
</svg>
