<svg width="134" height="134" viewBox="0 0 134 134" fill="none" xmlns="http://www.w3.org/2000/svg">
<rect width="134" height="134" rx="67" fill="#D8E3F5"/>
<mask id="mask0_1004_16300" style="mask-type:alpha" maskUnits="userSpaceOnUse" x="0" y="0" width="134" height="134">
<rect width="134" height="134" rx="67" fill="#25395F"/>
</mask>
<g mask="url(#mask0_1004_16300)">
<path d="M49.757 102.58C50.3812 95.5058 51.5909 93.4669 53.35 90.2654C55.1092 87.0639 55.9693 83.7442 58.133 75.8028C60.7237 66.2938 70.2955 78.3925 66.617 89.8098C64.638 95.9521 61.6172 96.2022 60.993 102.929C60.3688 109.655 58.9123 119.434 58.133 128.798C66.2217 121.775 70.6713 114.444 74.8803 102.928C79.0894 91.413 94.9346 98.9708 90.1234 114.649C85.3122 130.327 71.6452 139.739 63.0738 147.316C54.5023 154.894 44.7632 148.981 43.0986 143.571C41.434 138.161 49.1328 109.655 49.757 102.58Z" fill="url(#paint0_linear_1004_16300)"/>
<path d="M115.151 66.7973C114.197 79.9865 123.624 84.0569 127.758 87.1829C131.893 90.3089 133.168 91.3444 133.168 91.3444V122.588C133.168 144.311 115.81 162.053 94.0916 162.529L66.6111 163.13C66.6111 163.13 69.9007 115.565 73.4776 106.742C76.5987 99.0431 70.1484 89.6798 64.7384 86.1425C50.8533 77.0638 50.5217 56.6048 55.167 46.8164C62.3008 30.8067 82.1929 25.56 97.6219 31.2836C113.051 37.0072 116.105 53.6081 115.151 66.7973Z" fill="url(#paint1_linear_1004_16300)"/>
<path d="M115.151 66.7973C114.197 79.9865 123.624 84.0569 127.758 87.1829C131.893 90.3089 133.168 91.3444 133.168 91.3444V122.588C133.168 144.311 115.81 162.053 94.0916 162.529L66.6111 163.13C66.6111 163.13 69.9007 115.565 73.4776 106.742C76.5987 99.0431 70.1484 89.6798 64.7384 86.1425C50.8533 77.0638 50.5217 56.6048 55.167 46.8164C62.3008 30.8067 82.1929 25.56 97.6219 31.2836C113.051 37.0072 116.105 53.6081 115.151 66.7973Z" fill="url(#paint2_linear_1004_16300)"/>
<path d="M56.4727 63.477C58.0736 75.2818 67.257 82.7578 77.9301 80.3367C88.6033 77.9156 96.2472 68.488 94.6463 56.6832C93.0453 44.8784 82.8001 37.1939 71.3815 39.6015C59.9629 42.0091 54.8717 51.6721 56.4727 63.477Z" fill="url(#paint3_linear_1004_16300)"/>
<ellipse cx="82.6874" cy="55.443" rx="2.24293" ry="2.23982" transform="rotate(-8.25754 82.6874 55.443)" fill="white"/>
<ellipse cx="81.6199" cy="54.582" rx="0.441534" ry="0.273088" transform="rotate(-46.3914 81.6199 54.582)" fill="#FFFDFB"/>
<ellipse rx="1.8048" ry="2.20112" transform="matrix(0.975726 -0.218993 0.0812808 0.996691 62.5981 54.457)" fill="white"/>
<ellipse cx="61.9115" cy="53.3586" rx="0.441534" ry="0.273088" transform="rotate(-46.3914 61.9115 53.3586)" fill="#FFFDFB"/>
<path d="M63.2234 77.1062C63.58 75.0129 64.2654 70.375 64.1541 68.5691C64.0164 66.3349 63.4491 65.3583 62.3069 65.66C62.0456 65.9041 61.8638 66.2821 61.831 66.7814L61.8326 66.7824L61.0944 74.5065C61.2933 66.771 61.1747 66.7067 60.468 66.8778C59.991 67.113 59.5645 67.5985 59.5033 68.51C58.9286 77.0588 54.9161 87.7545 53.1634 91.2084C48.954 98.5894 60.5033 100.086 64.4119 94.0457C65.546 92.293 67.8082 87.5254 68.6916 81.9811C70.1756 72.6674 68.6916 71.0772 68.2754 70.9531C68.2757 70.9557 67.772 71.0746 67.7723 71.0772L67.7715 71.0774C67.644 71.1139 67.4477 71.17 67.2441 71.897C67.0943 72.4321 66.8029 74.5365 66.5438 76.4083C66.3619 77.7218 66.1959 78.9208 66.1058 79.3827C66.0111 78.4199 66.2102 76.9477 66.4276 75.3407C66.6912 73.3909 66.9817 71.2428 66.807 69.5655C66.6538 68.0945 66.3539 67.593 65.541 67.6164C65.375 67.6481 65.1989 67.7053 65.0123 67.7892C65.0132 67.7986 65.0142 67.808 65.0151 67.8174C64.5977 69.2865 64.3112 71.1116 64.0379 72.852C63.7858 74.4573 63.545 75.9906 63.2234 77.1062Z" fill="white"/>
<path d="M65.7683 67.5884C65.7009 67.5919 65.6318 67.6 65.5607 67.6127C65.6307 67.6032 65.6994 67.5941 65.7683 67.5884Z" fill="white"/>
<ellipse cx="34.0424" cy="26.0851" rx="4.35755" ry="8.40384" transform="rotate(7.25648 34.0424 26.0851)" fill="#FFFEFE"/>
<ellipse rx="2.65331" ry="5.11709" transform="matrix(0.386607 0.922245 0.922245 -0.386607 29.3104 35.5864)" fill="#FFFEFE"/>
<ellipse cx="42.1247" cy="32.2328" rx="4.35755" ry="8.40384" transform="rotate(67.2565 42.1247 32.2328)" fill="#FFFEFE"/>
<ellipse rx="2.65331" ry="5.11709" transform="matrix(0.991991 0.126311 0.126311 -0.991991 34.2315 39.3296)" fill="#FFFEFE"/>
</g>
<defs>
<linearGradient id="paint0_linear_1004_16300" x1="63.0738" y1="151.062" x2="63.0738" y2="90.0959" gradientUnits="userSpaceOnUse">
<stop stop-color="#FFF7ED"/>
<stop offset="0.0001" stop-color="#E5ECF7"/>
<stop offset="0.598958" stop-color="#F1F6FF"/>
<stop offset="1" stop-color="white"/>
</linearGradient>
<linearGradient id="paint1_linear_1004_16300" x1="99.894" y1="29.1367" x2="99.894" y2="163.936" gradientUnits="userSpaceOnUse">
<stop stop-color="white"/>
<stop offset="0.47828" stop-color="#FFF7ED"/>
<stop offset="1" stop-color="#FFF3E4"/>
</linearGradient>
<linearGradient id="paint2_linear_1004_16300" x1="86.3436" y1="163.377" x2="86.3436" y2="59.2956" gradientUnits="userSpaceOnUse">
<stop stop-color="#FFF7ED"/>
<stop offset="0.0001" stop-color="#E5ECF7"/>
<stop offset="0.598958" stop-color="#F1F6FF"/>
<stop offset="1" stop-color="white"/>
</linearGradient>
<linearGradient id="paint3_linear_1004_16300" x1="72.74" y1="39.2905" x2="81.8493" y2="79.4477" gradientUnits="userSpaceOnUse">
<stop stop-color="#CADBF5"/>
<stop offset="1" stop-color="#A9BFE3"/>
</linearGradient>
</defs>
</svg>