<svg width="143" height="133" viewBox="0 0 143 133" fill="none" xmlns="http://www.w3.org/2000/svg">
<path d="M66.665 132.213C30.3949 132.213 0.984375 102.816 0.984375 66.5635C0.984375 30.3106 30.3949 0.914062 66.665 0.914062C102.935 0.914062 132.346 30.3106 132.346 66.5635C132.346 102.816 102.935 132.213 66.665 132.213Z" fill="#95F2FF"/>
<mask id="mask0" mask-type="alpha" maskUnits="userSpaceOnUse" x="11" y="0" width="132" height="133">
<path d="M77 132.42C40.5535 132.42 11 102.866 11 66.4199C11 29.9734 40.5535 0.419922 77 0.419922C113.446 0.419922 143 29.9734 143 66.4199C143 102.866 113.446 132.42 77 132.42Z" fill="white"/>
</mask>
<g mask="url(#mask0)">
<g filter="url(#filter0_f)">
<path d="M117.705 154.162C100.285 154.659 80.5393 154.817 65.6019 150.957C50.6644 147.097 57.0703 140.196 64.6334 137.316C60.5142 131.053 58.9696 121.971 70.6269 103.784C77.8691 92.4844 75.3397 85.2053 75.2246 68.0322C75.1358 54.7713 82.6976 39.7481 99.1416 39.4907C112.631 39.2795 112.279 55.4885 111.363 63.6996C110.164 74.4488 116.211 75.0001 124.505 77.8622C133.805 81.0719 134.394 89.5113 126.923 99.6865C133.524 99.614 142.489 105.266 142.293 114.654C141.997 128.865 131.732 131.825 138.013 133.832C144.171 135.799 154.973 140.353 153.859 145.945C152.744 151.537 138.77 153.561 117.705 154.162Z" fill="#6EEBFC"/>
<path d="M43.2859 85.1391C43.3116 84.302 41.9358 83.9137 41.2468 83.7113C40.5242 83.527 40.4582 82.2779 41.9832 82.0774C43.4865 81.8797 45.0634 82.5698 46.6362 84.1306C47.9756 85.4597 61.2453 98.8836 63.393 100.733C65.5406 102.582 68.3435 102.513 70.9004 101.466C73.4573 100.419 89.7907 91.5388 95.4541 88.4651C101.118 85.3913 104.357 92.2065 99.0399 95.6856C93.7226 99.1646 74.9107 109.128 69.0274 111.076C65.4685 112.254 62.4752 111.244 60.9367 110.243C57.3493 107.908 45.8199 95.519 42.82 92.1554C41.8081 91.0207 40.597 91.0892 39.9898 91.1974C38.373 91.4853 36.7354 91.3738 35.031 90.6328C33.4444 89.943 32.0806 88.589 31.822 86.8327C31.5892 85.2513 32.4414 84.6227 33.1673 84.9792C33.1474 84.2833 34.1976 83.7988 34.9489 84.3674C35.6106 84.8681 36.3793 86.1219 38.8491 86.4785C41.3189 86.835 43.2626 85.9002 43.2859 85.1391Z" fill="#6EEBFC"/>
</g>
<path d="M90.0282 49.9249C87.0547 52.7193 82.249 58.3592 81.2013 59.733C80.1536 61.1068 81.0073 61.7875 81.9454 62.0634C83.7954 62.6329 85.5862 63.2877 85.6756 62.7511C86.4196 58.2857 88.0976 52.9898 90.0282 49.9249Z" fill="url(#paint0_linear)"/>
<path d="M88.8742 52.1405C86.5649 54.3107 82.8325 58.6909 82.0188 59.7579C81.2051 60.8248 81.8682 61.3535 82.5967 61.5677C84.0335 62.01 85.4243 62.5186 85.4938 62.1018C86.0716 58.6338 87.3748 54.5208 88.8742 52.1405Z" fill="url(#paint1_linear)"/>
<g style="mix-blend-mode:multiply" opacity="0.52">
<path d="M90.0282 49.9249C87.0547 52.7193 82.249 58.3592 81.2013 59.733C80.1536 61.1068 81.0073 61.7875 81.9454 62.0634C83.7954 62.6329 85.5862 63.2877 85.6756 62.7511C86.4196 58.2857 88.0976 52.9898 90.0282 49.9249Z" fill="url(#paint2_radial)"/>
</g>
<path d="M127.537 152.03C110.117 152.527 90.3716 152.685 75.4342 148.825C60.4968 144.965 66.9026 138.064 74.4658 135.184C70.3465 128.921 68.802 119.839 80.4592 101.652C87.7014 90.3525 85.172 83.0733 85.057 65.9002C84.9681 52.6394 92.53 37.6162 108.974 37.3587C122.463 37.1475 122.111 53.3565 121.195 61.5676C119.996 72.3168 126.044 72.8681 134.337 75.7302C143.638 78.9399 144.226 87.3793 136.755 97.5545C143.356 97.482 152.321 103.134 152.125 112.522C151.83 126.733 141.564 129.693 147.845 131.7C154.003 133.667 164.806 138.221 163.691 143.813C162.576 149.405 148.602 151.429 127.537 152.03Z" fill="#108CFF"/>
<g style="mix-blend-mode:overlay">
<path fill-rule="evenodd" clip-rule="evenodd" d="M133.452 99.2483L135.417 96.5727C139.052 91.6213 140.5 87.3808 140.184 84.1936C139.886 81.1996 137.983 78.7425 133.794 77.2969C132.945 77.0038 132.056 76.7156 131.184 76.4327C130.075 76.0728 128.991 75.7214 128.049 75.3794C126.287 74.74 124.599 73.9979 123.196 72.9217C121.753 71.8156 120.639 70.3796 119.999 68.4294C119.372 66.5184 119.23 64.2098 119.545 61.3831C119.999 57.3154 120.279 51.489 118.894 46.7713C118.207 44.4332 117.146 42.4889 115.609 41.1448C114.105 39.8288 112.011 38.9687 108.998 39.0159C101.348 39.1357 95.8158 42.6608 92.1576 47.7236C88.4637 52.8357 86.6705 59.5466 86.713 65.8885C86.7584 72.6655 87.6577 79.446 87.4518 86.2211C87.2776 91.9523 87.5503 93.3555 81.7897 102.638C76.0291 111.92 69.3135 126.572 76.9103 136.026L75.0539 136.733C73.2833 137.407 71.6169 138.304 70.3415 139.296C69.0279 140.317 68.317 141.29 68.1132 142.061C67.9583 142.646 68.0249 143.344 69.0204 144.233C70.1105 145.208 72.2087 146.279 75.8471 147.219C90.5201 151.011 110.03 150.87 127.488 150.372C134.317 150.177 161.209 148.217 161.86 143.489C162.51 138.761 152.579 134.897 149.565 133.971C148.737 133.716 147.986 133.485 147.338 133.279C146.483 133.005 145.67 132.648 145.076 132.09C144.377 131.433 144.075 130.584 144.172 129.678C144.253 128.923 144.603 128.224 144.922 127.669C145.197 127.192 145.549 126.659 145.907 126.117C145.982 126.004 146.057 125.89 146.131 125.777C147.882 123.112 150.327 119.134 150.466 112.487C150.551 108.378 148.647 105.069 145.915 102.755C143.15 100.412 139.639 99.1803 136.771 99.2118L133.452 99.2483Z" fill="url(#paint3_linear)"/>
</g>
<g style="mix-blend-mode:overlay" opacity="0.35">
<path d="M110.089 41.2764C105.037 36.2411 96.0843 42.1785 92.1576 47.7253C88.4637 52.8374 86.6705 59.5482 86.713 65.8902C86.7584 72.6672 87.6576 79.4476 87.4517 86.2228C87.2776 91.954 87.5502 93.3571 81.7896 102.639C71.8807 118.606 93.8327 111.189 102.492 99.9622C111.151 88.7349 113.8 72.9484 111.928 63.6124C110.057 54.2763 115.142 46.3117 110.089 41.2764Z" fill="white" fill-opacity="0.3"/>
</g>
<path opacity="0.4" fill-rule="evenodd" clip-rule="evenodd" d="M107.325 41.4926C107.593 42.9793 106.605 44.4019 105.118 44.67C103.22 45.0122 101.074 45.9873 99.297 47.5894C98.1748 48.6008 96.4452 48.511 95.4338 47.3888C94.4224 46.2666 94.5122 44.537 95.6344 43.5256C98.1761 41.2348 101.257 39.8074 104.147 39.2861C105.634 39.018 107.056 40.0059 107.325 41.4926Z" fill="white" fill-opacity="0.5"/>
<g filter="url(#filter1_f)">
<path fill-rule="evenodd" clip-rule="evenodd" d="M74.8148 104.728C77.238 103.381 82.7532 103.124 87.4017 100.28C91.809 97.5835 95.8242 95.4106 98.245 94.045C103.857 90.879 106.736 94.5283 101.476 98.0939C96.2166 101.66 77.3884 113.314 71.5378 115.357C70.5073 115.717 69.5218 115.891 68.6041 115.932C69.997 112.792 71.8982 109.29 74.4146 105.364C74.5514 105.151 74.6848 104.938 74.8148 104.728Z" fill="url(#paint4_linear)" fill-opacity="0.2"/>
</g>
<path d="M53.1177 83.0063C53.1433 82.1692 51.7675 81.7809 51.0785 81.5785C50.3559 81.3942 50.2899 80.1451 51.8149 79.9446C53.3182 79.7469 54.8951 80.437 56.4679 81.9978C57.8073 83.3269 71.0771 96.7508 73.2247 98.5998C75.3723 100.449 78.1752 100.38 80.7322 99.3335C83.2891 98.2865 99.6224 89.406 105.286 86.3322C110.949 83.2585 114.189 90.0737 108.872 93.5528C103.554 97.0318 84.7424 106.996 78.8591 108.943C75.3002 110.121 72.307 109.112 70.7685 108.11C67.181 105.775 55.6516 93.3862 52.6518 90.0226C51.6398 88.8879 50.4287 88.9564 49.8215 89.0646C48.2047 89.3525 46.5671 89.241 44.8627 88.5C43.2761 87.8102 41.9123 86.4562 41.6538 84.6999C41.421 83.1185 42.2731 82.4899 42.999 82.8464C42.9792 82.1505 44.0293 81.666 44.7806 82.2346C45.4423 82.7353 46.2111 83.9891 48.6808 84.3457C51.1506 84.7022 53.0944 83.7674 53.1177 83.0063Z" fill="#1799FF"/>
<g style="mix-blend-mode:screen">
<path fill-rule="evenodd" clip-rule="evenodd" d="M51.2703 80.9218L51.2716 80.9222C51.2877 80.9269 51.3044 80.9318 51.3217 80.9369C51.6573 81.0352 52.212 81.1976 52.6875 81.4505C53.1405 81.6914 53.8275 82.1783 53.8015 83.0271C53.787 83.5014 53.4891 83.868 53.2032 84.1093C52.8994 84.3656 52.4982 84.5781 52.0466 84.739C51.1384 85.0627 49.9222 85.2156 48.5834 85.0223C47.2359 84.8278 46.3233 84.3817 45.6532 83.8988C45.3239 83.6614 45.0623 83.4217 44.8512 83.2211C44.8069 83.179 44.7662 83.1402 44.7286 83.1042C44.5734 82.9557 44.4692 82.8561 44.3683 82.7797C43.5806 82.1836 42.9023 83.1801 43.3351 84.0217C43.0462 83.3041 42.6952 83.2555 42.4792 83.4995C42.387 83.6037 42.2308 83.9224 42.3306 84.6001C42.5445 86.0529 43.6922 87.2451 45.1357 87.8727C46.704 88.5545 48.2034 88.658 49.7019 88.3911C50.4108 88.2649 51.9201 88.1743 53.1624 89.5673C54.6553 91.2412 58.2809 95.1721 61.9802 98.9751C63.8298 100.877 65.6937 102.742 67.3161 104.275C68.9519 105.82 70.3037 106.991 71.1418 107.537C72.5378 108.446 75.3163 109.396 78.6445 108.294C81.5249 107.34 87.6492 104.39 93.7627 101.215C99.8648 98.0465 105.87 94.6994 108.497 92.9803C110.919 91.3961 111.259 89.1773 110.582 87.7841C110.239 87.0787 109.627 86.5454 108.813 86.3366C107.998 86.1274 106.911 86.2281 105.612 86.9331C105.388 87.0546 105.148 87.1852 104.892 87.3241C101.913 88.941 96.8757 91.6757 92.167 94.1957C87.0787 96.9188 82.3121 99.4254 80.9916 99.9661C78.2997 101.068 75.1934 101.197 72.7788 99.1178C71.025 97.6079 62.0089 88.5379 57.9124 84.4169C56.9359 83.4346 56.239 82.7335 55.9866 82.483C54.4938 81.0016 53.1161 80.4631 51.9044 80.6224C51.6124 80.6608 51.4491 80.7425 51.3663 80.8049C51.2876 80.8641 51.2731 80.9103 51.2703 80.9218Z" fill="url(#paint5_linear)"/>
</g>
<path d="M45.0744 86.0678C44.1162 85.395 43.2834 84.1704 43.0105 82.8652C43.0011 83.9776 43.4617 85.1083 44.6588 86.1503C46.0837 87.3905 48.5047 87.7774 49.6361 87.6745C48.8533 87.6317 46.8626 87.3235 45.0744 86.0678Z" fill="#108CFF"/>
<path d="M92.4703 54.9938C92.015 56.3861 92.1421 57.0726 91.3865 56.9913C90.631 56.91 90.0098 55.9202 90.503 54.4301C90.9961 52.9401 92.0618 52.4864 92.7255 52.8353C93.1673 53.0707 92.9255 53.6014 92.4703 54.9938Z" fill="#E8AB4F"/>
<path d="M92.5099 55.0131C92.0599 56.4115 92.211 57.1073 91.4074 57.0116C90.6037 56.9159 89.9211 55.9048 90.409 54.4083C90.8969 52.9119 92.0169 52.4728 92.7294 52.8371C93.2037 53.0829 92.9598 53.6147 92.5099 55.0131Z" fill="#354781"/>
<path d="M91.9871 55.0029C91.6305 56.0817 91.7093 56.6519 91.1473 56.5963C90.6212 56.5442 90.3231 55.8859 90.5328 54.8313C90.5449 54.7703 90.6179 54.7345 90.7493 54.7909C91.1891 54.9844 92.234 53.9009 92.243 53.3856C92.2436 53.3459 92.2988 53.3155 92.3227 53.3493C92.4858 53.5805 92.2948 54.0718 91.9871 55.0029Z" fill="#000E45"/>
<path d="M91.6247 54.0246C91.3271 54.3294 90.9567 54.4793 90.7973 54.3595C90.6379 54.2396 90.7499 53.8955 91.0474 53.5907C91.345 53.286 91.7154 53.1361 91.8749 53.2559C92.0343 53.3757 91.9223 53.7199 91.6247 54.0246Z" fill="#1C5AA1"/>
<path d="M91.4148 53.8987C91.3192 54.0238 91.175 54.0868 91.0928 54.0393C91.0105 53.9919 91.0213 53.8519 91.1168 53.7268C91.2124 53.6016 91.3566 53.5386 91.4389 53.5861C91.5212 53.6336 91.5104 53.7735 91.4148 53.8987Z" fill="#9CB0CD"/>
<path d="M57.8527 37.4196C57.841 37.4238 57.841 37.4238 57.8527 37.4196L41.5574 37.0999C41.2891 37.0901 41.0905 37.201 41.0076 37.3763L35.5965 49.3648C35.5965 49.3648 35.5965 49.3648 35.6082 49.3606C35.5631 49.4563 35.5497 49.567 35.5918 49.6843L39.8131 62.9096C39.9191 63.2424 40.3394 63.5287 40.7537 63.5392L57.0372 63.8631C57.3173 63.8687 57.5159 63.7578 57.5828 63.5749C57.5828 63.5749 57.5828 63.5749 57.5753 63.5909L62.9864 51.6024C63.0316 51.5067 63.0332 51.4002 62.9911 51.2829L58.8749 38.351C58.8749 38.351 58.6929 37.4364 57.8527 37.4196ZM35.8831 49.1298L35.8713 49.134L35.8831 49.1298ZM35.6426 49.3086C35.6308 49.3128 35.6308 49.3128 35.6426 49.3086C35.6308 49.3128 35.6308 49.3128 35.6426 49.3086ZM35.8009 49.1592C35.7892 49.1634 35.7892 49.1634 35.7892 49.1634C35.7934 49.1751 35.8009 49.1592 35.8009 49.1592ZM35.7506 49.2037C35.7389 49.2079 35.7389 49.2079 35.7314 49.2238C35.7389 49.2079 35.7389 49.2079 35.7506 49.2037ZM35.6844 49.2406C35.6844 49.2406 35.6727 49.2448 35.6769 49.2566C35.6769 49.2566 35.6886 49.2524 35.6844 49.2406ZM35.9417 49.1087C35.9535 49.1045 35.9535 49.1045 35.9652 49.1003C35.9694 49.1121 35.9577 49.1163 35.9417 49.1087ZM36.0323 49.1028C36.044 49.0986 36.044 49.0986 36.0558 49.0944C36.044 49.0986 36.044 49.0986 36.0323 49.1028ZM57.6054 63.5271C57.6054 63.5271 57.6012 63.5154 57.6129 63.5112L57.6054 63.5271ZM57.6154 63.4441L57.6112 63.4324C57.6229 63.4282 57.6271 63.4399 57.6154 63.4441ZM57.6136 63.3653C57.6094 63.3536 57.6094 63.3535 57.6052 63.3418C57.6094 63.3535 57.6136 63.3653 57.6136 63.3653Z" fill="#C3D0E4"/>
<path d="M58.7423 50.6588L47.7467 50.5327C47.1631 50.5299 46.642 50.1472 46.4721 49.599L44.1827 42.395C43.9068 41.514 44.5885 40.6077 45.5352 40.6261L55.6671 40.7437C56.2507 40.7465 56.7718 41.1292 56.9417 41.6775L59.4893 49.6762C59.6382 50.1657 59.2631 50.6709 58.7423 50.6588Z" fill="white"/>
<path d="M41.3937 58.8199L38.8428 50.8489C38.6738 50.34 38.7168 49.795 38.9268 49.3093L42.0796 42.3272C42.1549 42.1678 42.3839 42.1785 42.4427 42.3428L45.1636 50.862C45.2485 51.1362 45.2396 51.4439 45.1116 51.7149L41.8835 58.8563C41.8015 59.071 41.4778 59.0546 41.3937 58.8199Z" fill="white"/>
<path d="M43.5563 59.4617L46.4045 53.1449C46.5627 52.8102 46.897 52.5977 47.2677 52.5974L58.4705 52.8213C58.9124 52.8352 59.2063 53.286 59.0223 53.6962L56.0912 60.1884C55.9858 60.4115 55.7603 60.5585 55.5197 60.552C53.7487 60.5243 46.6798 60.3819 44.108 60.3366C43.6661 60.3228 43.368 59.8602 43.5563 59.4617Z" fill="white"/>
<path d="M62.9336 51.973C63.0801 51.6232 63.0987 51.239 62.9908 50.8755L59.0693 37.672C58.9591 37.3275 58.5228 37.0336 58.0968 37.0273L52.5242 49.3782C52.9502 49.3845 53.3865 49.6784 53.4967 50.0229L57.8492 63.6514C57.8912 63.7687 57.8821 63.8911 57.8327 63.975C58.8041 61.8221 62.0494 54.0843 62.9336 51.973ZM57.9077 59.1946L55.2635 50.926C55.102 50.4012 55.1249 49.8369 55.3541 49.331L58.6274 42.0939C58.6986 41.9228 58.9434 41.941 59.0065 42.117L61.8249 50.9456C61.914 51.2315 61.8934 51.5434 61.7696 51.8261L58.4252 59.2343C58.3197 59.4575 57.9843 59.4452 57.9077 59.1946Z" fill="#D9E1EF"/>
<path d="M57.8477 63.6516L53.4952 50.0232C53.385 49.6786 52.9487 49.3847 52.5227 49.3784L35.7461 49.0458C35.3201 49.0395 35.0621 49.3173 35.1723 49.6619L39.5248 63.2903C39.635 63.6348 40.0713 63.9287 40.4973 63.935L57.2739 64.2676C57.6999 64.2739 57.9579 63.9961 57.8477 63.6516ZM54.422 62.4424L42.1265 62.1994C41.4716 62.1824 40.8943 61.7537 40.695 61.1233L38.0675 52.9016C37.7454 51.8915 38.5074 50.877 39.5606 50.8969L50.8934 51.1141C51.5484 51.1311 52.1257 51.5598 52.325 52.1902L55.241 61.3281C55.4268 61.8838 55.0056 62.4452 54.422 62.4424Z" fill="url(#paint6_linear)"/>
<g style="mix-blend-mode:multiply">
<path d="M38.4697 46.3348L41.7271 39.0902C41.9036 38.6959 42.2924 38.4507 42.7109 38.4729L55.5547 38.7313C56.0637 38.7476 56.3946 39.2647 56.1922 39.7344L52.8369 47.1862C52.7164 47.4413 52.46 47.6126 52.1799 47.607C50.1523 47.5653 42.042 47.3988 39.0954 47.3421C38.5864 47.3258 38.2513 46.797 38.4697 46.3348Z" fill="#95F2FF"/>
</g>
<g style="mix-blend-mode:multiply">
<path d="M54.4356 62.4772L42.1359 62.2225C41.481 62.2055 40.9037 61.7767 40.7044 61.1463L38.0685 52.9012C37.7463 51.8911 38.5084 50.8766 39.5616 50.8965L50.8986 51.1254C51.5535 51.1424 52.1309 51.5711 52.3302 52.2015L55.2546 61.3629C55.4404 61.9186 55.0192 62.48 54.4356 62.4772Z" fill="#95F2FF"/>
</g>
<g style="mix-blend-mode:multiply">
<path d="M57.9078 59.1948L55.2635 50.9262C55.102 50.4015 55.125 49.8371 55.3542 49.3313L58.6275 42.0942C58.6986 41.9231 58.9435 41.9413 59.0066 42.1173L61.825 50.9459C61.9141 51.2317 61.8935 51.5437 61.7696 51.8264L58.4252 59.2346C58.3198 59.4577 57.9844 59.4455 57.9078 59.1948Z" fill="#95F2FF"/>
</g>
<path d="M54.2475 48.3495L58.8286 38.2207C59.0729 37.683 58.7042 37.0604 58.1122 37.0341L58.1004 37.0383L41.7588 36.7135C41.0705 36.684 40.5985 37.0478 40.4215 37.5198L35.1897 49.3372C35.2725 49.1619 35.4712 49.051 35.7512 49.0566L52.5278 49.3892L52.5396 49.385C53.2615 49.4044 53.9429 49.0147 54.2475 48.3495ZM38.4746 46.3464L41.7362 39.1135C41.917 38.731 42.3016 38.474 42.72 38.4963L55.5597 38.7429C56.0645 38.7475 56.3996 39.2763 56.1929 39.7343L52.8334 47.1744C52.7129 47.4294 52.4565 47.6007 52.1764 47.5951C50.1488 47.5535 42.0427 47.3986 39.0961 47.3419C38.5913 47.3374 38.2722 46.8162 38.4746 46.3464Z" fill="url(#paint7_linear)"/>
<path d="M59.1656 37.9803C59.1278 37.8747 58.9777 37.8623 58.9367 37.9697L54.0703 48.7435C53.7021 49.5639 53.6519 50.4955 53.9194 51.3531L57.8438 63.6387C57.8858 63.756 57.8767 63.8784 57.8273 63.9623C63.1005 52.295 63.1836 50.5323 59.1656 37.9803ZM57.9066 59.1936L55.2623 50.925C55.1008 50.4002 55.1237 49.8359 55.353 49.33L58.6263 42.093C58.6974 41.9218 58.9422 41.94 59.0053 42.1161L61.8237 50.9446C61.9129 51.2305 61.8922 51.5424 61.7684 51.8251L58.424 59.2333C58.3185 59.4565 57.9831 59.4442 57.9066 59.1936Z" fill="#D9E1EF"/>
<g filter="url(#filter2_f)">
<path d="M48.0181 55.3075C48.0181 55.8665 47.565 56.3196 47.006 56.3196C46.447 56.3196 45.9939 55.8665 45.9939 55.3075C45.9939 54.7485 46.447 54.2954 47.006 54.2954C47.565 54.2954 48.0181 54.7485 48.0181 55.3075Z" fill="white" fill-opacity="0.7"/>
</g>
<path d="M47.6132 55.3075C47.6132 55.6429 47.3414 55.9148 47.006 55.9148C46.6706 55.9148 46.3987 55.6429 46.3987 55.3075C46.3987 54.9721 46.6706 54.7002 47.006 54.7002C47.3414 54.7002 47.6132 54.9721 47.6132 55.3075Z" fill="white"/>
<g opacity="0.59">
<g filter="url(#filter3_f)">
<path d="M51.4738 44.8648C51.4738 45.7692 50.7406 46.5024 49.8362 46.5024C48.9318 46.5024 48.1986 45.7692 48.1986 44.8648C48.1986 43.9604 48.9318 43.2272 49.8362 43.2272C50.7406 43.2272 51.4738 43.9604 51.4738 44.8648Z" fill="white" fill-opacity="0.7"/>
</g>
<path d="M50.8182 44.8658C50.8182 45.4085 50.3783 45.8483 49.8357 45.8483C49.293 45.8483 48.8532 45.4085 48.8532 44.8658C48.8532 44.3232 49.293 43.8833 49.8357 43.8833C50.3783 43.8833 50.8182 44.3232 50.8182 44.8658Z" fill="white"/>
</g>
<g opacity="0.69">
<g filter="url(#filter4_f)">
<path d="M65.4569 43.3259C65.4569 43.8359 65.0434 44.2493 64.5335 44.2493C64.0235 44.2493 63.6101 43.8359 63.6101 43.3259C63.6101 42.8159 64.0235 42.4025 64.5335 42.4025C65.0434 42.4025 65.4569 42.8159 65.4569 43.3259Z" fill="white" fill-opacity="0.7"/>
</g>
<path d="M65.0871 43.3262C65.0871 43.6322 64.8391 43.8802 64.5331 43.8802C64.2271 43.8802 63.979 43.6322 63.979 43.3262C63.979 43.0202 64.2271 42.7722 64.5331 42.7722C64.8391 42.7722 65.0871 43.0202 65.0871 43.3262Z" fill="white"/>
</g>
<g opacity="0.75">
<g filter="url(#filter5_f)">
<path d="M50.2152 23.7345C50.2152 24.426 49.6546 24.9865 48.9631 24.9865C48.2716 24.9865 47.7111 24.426 47.7111 23.7345C47.7111 23.043 48.2716 22.4824 48.9631 22.4824C49.6546 22.4824 50.2152 23.043 50.2152 23.7345Z" fill="white" fill-opacity="0.7"/>
</g>
<path d="M49.7149 23.7346C49.7149 24.1495 49.3785 24.4859 48.9636 24.4859C48.5487 24.4859 48.2124 24.1495 48.2124 23.7346C48.2124 23.3197 48.5487 22.9834 48.9636 22.9834C49.3785 22.9834 49.7149 23.3197 49.7149 23.7346Z" fill="white"/>
</g>
<g filter="url(#filter6_f)">
<path d="M55.5739 33.2064C55.5739 33.8894 55.0202 34.443 54.3373 34.443C53.6543 34.443 53.1007 33.8894 53.1007 33.2064C53.1007 32.5235 53.6543 31.9698 54.3373 31.9698C55.0202 31.9698 55.5739 32.5235 55.5739 33.2064Z" fill="white" fill-opacity="0.7"/>
</g>
<path d="M55.0795 33.2049C55.0795 33.6147 54.7473 33.9469 54.3375 33.9469C53.9278 33.9469 53.5956 33.6147 53.5956 33.2049C53.5956 32.7951 53.9278 32.463 54.3375 32.463C54.7473 32.463 55.0795 32.7951 55.0795 33.2049Z" fill="white"/>
<g opacity="0.5">
<g filter="url(#filter7_f)">
<path d="M44.6731 31.3112C44.6731 31.7841 44.2897 32.1675 43.8167 32.1675C43.3438 32.1675 42.9604 31.7841 42.9604 31.3112C42.9604 30.8382 43.3438 30.4548 43.8167 30.4548C44.2897 30.4548 44.6731 30.8382 44.6731 31.3112Z" fill="white" fill-opacity="0.7"/>
</g>
<path d="M44.3298 31.311C44.3298 31.5948 44.0998 31.8248 43.816 31.8248C43.5322 31.8248 43.3022 31.5948 43.3022 31.311C43.3022 31.0272 43.5322 30.7972 43.816 30.7972C44.0998 30.7972 44.3298 31.0272 44.3298 31.311Z" fill="white"/>
</g>
<g filter="url(#filter8_f)">
<path d="M54.7136 67.6016C54.7136 67.8562 54.5072 68.0626 54.2525 68.0626C53.9979 68.0626 53.7915 67.8562 53.7915 67.6016C53.7915 67.3469 53.9979 67.1405 54.2525 67.1405C54.5072 67.1405 54.7136 67.3469 54.7136 67.6016Z" fill="white" fill-opacity="0.7"/>
</g>
<path d="M54.5292 67.6022C54.5292 67.755 54.4053 67.8789 54.2526 67.8789C54.0998 67.8789 53.9759 67.755 53.9759 67.6022C53.9759 67.4495 54.0998 67.3256 54.2526 67.3256C54.4053 67.3256 54.5292 67.4495 54.5292 67.6022Z" fill="white"/>
<g opacity="0.8">
<g filter="url(#filter9_f)">
<path d="M47.3479 69.7292C47.3479 70.1703 46.9902 70.5279 46.5491 70.5279C46.1079 70.5279 45.7503 70.1703 45.7503 69.7292C45.7503 69.288 46.1079 68.9304 46.5491 68.9304C46.9902 68.9304 47.3479 69.288 47.3479 69.7292Z" fill="white" fill-opacity="0.7"/>
</g>
<path d="M47.0281 69.7291C47.0281 69.9938 46.8136 70.2083 46.5489 70.2083C46.2842 70.2083 46.0696 69.9938 46.0696 69.7291C46.0696 69.4644 46.2842 69.2498 46.5489 69.2498C46.8136 69.2498 47.0281 69.4644 47.0281 69.7291Z" fill="white"/>
</g>
<g filter="url(#filter10_f)">
<path d="M58.902 53.4277C58.902 54.2314 58.2506 54.8829 57.4469 54.8829C56.6432 54.8829 55.9918 54.2314 55.9918 53.4277C55.9918 52.6241 56.6432 51.9726 57.4469 51.9726C58.2506 51.9726 58.902 52.6241 58.902 53.4277Z" fill="white" fill-opacity="0.7"/>
</g>
<path d="M58.3194 53.4283C58.3194 53.9105 57.9285 54.3013 57.4463 54.3013C56.9641 54.3013 56.5732 53.9105 56.5732 53.4283C56.5732 52.9461 56.9641 52.5552 57.4463 52.5552C57.9285 52.5552 58.3194 52.9461 58.3194 53.4283Z" fill="white"/>
<g opacity="0.51">
<g filter="url(#filter11_f)">
<path d="M52.6648 58.7407C52.6648 59.5443 52.0133 60.1958 51.2096 60.1958C50.406 60.1958 49.7545 59.5443 49.7545 58.7407C49.7545 57.937 50.406 57.2855 51.2096 57.2855C52.0133 57.2855 52.6648 57.937 52.6648 58.7407Z" fill="white" fill-opacity="0.7"/>
</g>
<path d="M52.0821 58.7397C52.0821 59.2219 51.6912 59.6128 51.209 59.6128C50.7268 59.6128 50.3359 59.2219 50.3359 58.7397C50.3359 58.2575 50.7268 57.8666 51.209 57.8666C51.6912 57.8666 52.0821 58.2575 52.0821 58.7397Z" fill="white"/>
</g>
<path d="M125.975 -7.11094C124.778 -9.18545 125.488 -11.8381 127.563 -13.0359L135.868 -17.8309C137.943 -19.0286 140.595 -18.3179 141.793 -16.2433L146.588 -7.93805C147.786 -5.86353 147.075 -3.21085 145.001 -2.01313L136.695 2.78194C134.621 3.97966 131.968 3.26888 130.77 1.19436L125.975 -7.11094Z" fill="#ADF5CA"/>
</g>
<defs>
<filter id="filter0_f" x="23.7829" y="31.4887" width="138.156" height="130.93" filterUnits="userSpaceOnUse" color-interpolation-filters="sRGB">
<feFlood flood-opacity="0" result="BackgroundImageFix"/>
<feBlend mode="normal" in="SourceGraphic" in2="BackgroundImageFix" result="shape"/>
<feGaussianBlur stdDeviation="4" result="effect1_foregroundBlur"/>
</filter>
<filter id="filter1_f" x="64.6041" y="88.8353" width="43.6419" height="31.0972" filterUnits="userSpaceOnUse" color-interpolation-filters="sRGB">
<feFlood flood-opacity="0" result="BackgroundImageFix"/>
<feBlend mode="normal" in="SourceGraphic" in2="BackgroundImageFix" result="shape"/>
<feGaussianBlur stdDeviation="2" result="effect1_foregroundBlur"/>
</filter>
<filter id="filter2_f" x="41.9939" y="50.2954" width="10.0243" height="10.0243" filterUnits="userSpaceOnUse" color-interpolation-filters="sRGB">
<feFlood flood-opacity="0" result="BackgroundImageFix"/>
<feBlend mode="normal" in="SourceGraphic" in2="BackgroundImageFix" result="shape"/>
<feGaussianBlur stdDeviation="2" result="effect1_foregroundBlur"/>
</filter>
<filter id="filter3_f" x="44.1986" y="39.2272" width="11.2751" height="11.2751" filterUnits="userSpaceOnUse" color-interpolation-filters="sRGB">
<feFlood flood-opacity="0" result="BackgroundImageFix"/>
<feBlend mode="normal" in="SourceGraphic" in2="BackgroundImageFix" result="shape"/>
<feGaussianBlur stdDeviation="2" result="effect1_foregroundBlur"/>
</filter>
<filter id="filter4_f" x="59.6101" y="38.4025" width="9.84679" height="9.84679" filterUnits="userSpaceOnUse" color-interpolation-filters="sRGB">
<feFlood flood-opacity="0" result="BackgroundImageFix"/>
<feBlend mode="normal" in="SourceGraphic" in2="BackgroundImageFix" result="shape"/>
<feGaussianBlur stdDeviation="2" result="effect1_foregroundBlur"/>
</filter>
<filter id="filter5_f" x="43.7111" y="18.4824" width="10.5041" height="10.5041" filterUnits="userSpaceOnUse" color-interpolation-filters="sRGB">
<feFlood flood-opacity="0" result="BackgroundImageFix"/>
<feBlend mode="normal" in="SourceGraphic" in2="BackgroundImageFix" result="shape"/>
<feGaussianBlur stdDeviation="2" result="effect1_foregroundBlur"/>
</filter>
<filter id="filter6_f" x="49.1007" y="27.9698" width="10.4732" height="10.4732" filterUnits="userSpaceOnUse" color-interpolation-filters="sRGB">
<feFlood flood-opacity="0" result="BackgroundImageFix"/>
<feBlend mode="normal" in="SourceGraphic" in2="BackgroundImageFix" result="shape"/>
<feGaussianBlur stdDeviation="2" result="effect1_foregroundBlur"/>
</filter>
<filter id="filter7_f" x="38.9604" y="26.4548" width="9.7127" height="9.7127" filterUnits="userSpaceOnUse" color-interpolation-filters="sRGB">
<feFlood flood-opacity="0" result="BackgroundImageFix"/>
<feBlend mode="normal" in="SourceGraphic" in2="BackgroundImageFix" result="shape"/>
<feGaussianBlur stdDeviation="2" result="effect1_foregroundBlur"/>
</filter>
<filter id="filter8_f" x="49.7915" y="63.1405" width="8.92213" height="8.92213" filterUnits="userSpaceOnUse" color-interpolation-filters="sRGB">
<feFlood flood-opacity="0" result="BackgroundImageFix"/>
<feBlend mode="normal" in="SourceGraphic" in2="BackgroundImageFix" result="shape"/>
<feGaussianBlur stdDeviation="2" result="effect1_foregroundBlur"/>
</filter>
<filter id="filter9_f" x="41.7503" y="64.9304" width="9.59753" height="9.59753" filterUnits="userSpaceOnUse" color-interpolation-filters="sRGB">
<feFlood flood-opacity="0" result="BackgroundImageFix"/>
<feBlend mode="normal" in="SourceGraphic" in2="BackgroundImageFix" result="shape"/>
<feGaussianBlur stdDeviation="2" result="effect1_foregroundBlur"/>
</filter>
<filter id="filter10_f" x="51.9918" y="47.9726" width="10.9103" height="10.9103" filterUnits="userSpaceOnUse" color-interpolation-filters="sRGB">
<feFlood flood-opacity="0" result="BackgroundImageFix"/>
<feBlend mode="normal" in="SourceGraphic" in2="BackgroundImageFix" result="shape"/>
<feGaussianBlur stdDeviation="2" result="effect1_foregroundBlur"/>
</filter>
<filter id="filter11_f" x="45.7545" y="53.2855" width="10.9103" height="10.9103" filterUnits="userSpaceOnUse" color-interpolation-filters="sRGB">
<feFlood flood-opacity="0" result="BackgroundImageFix"/>
<feBlend mode="normal" in="SourceGraphic" in2="BackgroundImageFix" result="shape"/>
<feGaussianBlur stdDeviation="2" result="effect1_foregroundBlur"/>
</filter>
<linearGradient id="paint0_linear" x1="88.4892" y1="55.7448" x2="79.7952" y2="62.3373" gradientUnits="userSpaceOnUse">
<stop stop-color="#108CFF"/>
<stop offset="1" stop-color="#40E6D3"/>
</linearGradient>
<linearGradient id="paint1_linear" x1="87.3999" y1="57.8108" x2="81.551" y2="60.0919" gradientUnits="userSpaceOnUse">
<stop stop-color="#2395FF"/>
<stop offset="1" stop-color="#2395FF" stop-opacity="0"/>
</linearGradient>
<radialGradient id="paint2_radial" cx="0" cy="0" r="1" gradientUnits="userSpaceOnUse" gradientTransform="translate(86.014 59.3072) rotate(-74.1598) scale(6.46704 3.53165)">
<stop stop-color="#2164C8"/>
<stop offset="1" stop-color="#108CFF" stop-opacity="0"/>
</radialGradient>
<linearGradient id="paint3_linear" x1="147.687" y1="151.917" x2="95.857" y2="73.005" gradientUnits="userSpaceOnUse">
<stop stop-color="#F29B67"/>
<stop offset="1" stop-color="#F29B67" stop-opacity="0.35"/>
</linearGradient>
<linearGradient id="paint4_linear" x1="89.6498" y1="104.158" x2="88.6545" y2="121.682" gradientUnits="userSpaceOnUse">
<stop stop-color="#143CCD"/>
<stop offset="1" stop-color="#F1906C" stop-opacity="0"/>
</linearGradient>
<linearGradient id="paint5_linear" x1="47.2964" y1="97.3594" x2="60.6658" y2="83.6065" gradientUnits="userSpaceOnUse">
<stop stop-color="#F6A865"/>
<stop offset="0.0001" stop-color="#3CACFF"/>
<stop offset="1" stop-color="#65C2F6" stop-opacity="0"/>
</linearGradient>
<linearGradient id="paint6_linear" x1="55.3596" y1="63.739" x2="36.5709" y2="49.4165" gradientUnits="userSpaceOnUse">
<stop stop-color="#A3C5DC"/>
<stop offset="1" stop-color="#D3D3E7"/>
</linearGradient>
<linearGradient id="paint7_linear" x1="44.5802" y1="37.7112" x2="53.2045" y2="49.5696" gradientUnits="userSpaceOnUse">
<stop stop-color="#E5E6F3"/>
<stop offset="1" stop-color="white"/>
</linearGradient>
</defs>
</svg>
