<svg width="760" height="600" viewBox="0 0 760 600" fill="none" xmlns="http://www.w3.org/2000/svg">
<path d="M228 188.07C228 201.158 243.662 207.851 253.208 198.927L279.312 174.386C286.919 167.247 284.98 154.604 275.583 150.142L249.33 137.5C239.486 132.74 228 139.879 228 150.886V188.07Z" fill="#405985"/>
<path d="M544 173.35C544 117.423 502.1 72 450.4 72H340.6C288.9 72 247 117.423 247 173.35V373.65C247 429.678 288.9 475 340.6 475H450.4C502.1 475 544 429.577 544 373.65V173.35Z" fill="#25395F"/>
<path d="M553.589 461.409C555.189 463.009 557.789 463.009 559.489 461.409L573.989 446.909C575.589 445.309 575.589 442.709 573.989 441.009C572.389 439.409 569.789 439.409 568.089 441.009L553.589 455.509C551.989 457.209 551.989 459.809 553.589 461.409Z" fill="#9AADCE"/>
<path d="M513.188 480.307C506.988 487.007 495.788 482.607 495.788 473.507V421.107C495.788 415.607 500.288 411.107 505.788 411.107H553.988C562.688 411.107 567.288 421.507 561.388 427.907L513.188 480.307Z" fill="#9AADCE"/>
<path d="M317.659 359.596C299.196 364.051 293.701 392.597 308.338 397.062C339.249 404.934 358.349 402.125 388.978 392.368C407.285 386.126 395.455 368.304 379.86 362.026C358.715 354.643 336.122 355.14 317.659 359.596Z" fill="#FFF2DB"/>
<path d="M480.058 349.716C494.067 350.605 498.999 375.275 484.426 379.72L414.486 392.729C406.484 394.225 416.335 366.177 424.14 361.184C445.193 353.835 459.228 349.731 480.058 349.716Z" fill="#FFF2DB"/>
<path d="M369 253.5C359.455 247.175 350 238.683 350 225.5C350.31 219.808 351.96 208.357 358.505 199.522C372.007 181.293 398.911 176.142 419.144 190.621C426.86 196.143 430.915 203.322 433.5 210.5C437.119 220.55 439 242.5 422.5 251C417.868 253.721 413.5 258.939 417.5 262.501C421.5 266.063 428.614 266.727 430.607 274.749C431.555 278.575 434.48 284.635 437.942 291.812C448.163 312.993 459.326 361.612 442 373.501C423.132 389.001 386.5 391.977 358.505 376.262C334.143 362.586 345.59 311.012 356.692 289.557C359.933 283.293 362.626 278.087 363.571 274.749C364.839 270.262 366.415 268.621 372.63 266.155C372.738 266.075 372.861 265.994 373 265.911C373 265.911 373.249 265.89 374 265.411C380.112 261.519 373 256.151 369 253.5Z" fill="url(#paint0_linear)"/>
<path d="M424.39 223.39C421.421 237.147 409.481 245.713 389.666 243.712C366.495 240.961 362.622 224.391 364.365 214.136C366.043 204.319 377.08 192.001 392.829 192.001C408.577 192.001 428.779 203.319 424.39 223.39Z" fill="url(#paint1_linear)"/>
<path d="M384.414 210.246C382.099 213.742 379.91 213.332 376.744 211.719C376.266 211.48 375.803 212.092 376.086 212.6C378.685 217.395 384.877 216.191 385.355 210.635C385.4 210.037 384.743 209.768 384.414 210.246Z" fill="#FEDFA4"/>
<path d="M467.829 353.104C453.212 357.925 417.234 383.887 384.256 394.092C381.15 395.151 379.504 395.635 372.868 407.543C365.516 421.468 364.347 429.62 369.01 434.868C373.673 440.115 379.848 434.616 385.95 428.089C392.91 420.643 395.174 420.252 400.444 418.134C413.292 412.623 464.068 406.561 484.016 388.267C503.964 369.973 488.299 346.355 467.829 353.104Z" fill="#FFF2DB"/>
<path d="M413.607 206.84C412.419 211.09 409.941 210.382 407.613 208.69C407.262 208.44 407.015 209.189 407.264 209.767C409.629 214.405 415.444 211.956 414.289 207.236C414.253 206.531 413.767 206.259 413.607 206.84Z" fill="#FEDFA4"/>
<path d="M369.5 267.501C346.6 273.627 330.321 307.046 320.5 325.501C313.06 314.7 308.154 310.092 303.068 305.818C301.396 301.978 297.763 298.537 296.064 297.714C295.084 297.24 293.782 296.892 292.408 296.525C289.937 295.865 287.23 295.142 285.733 293.504C282.517 290.022 280.453 293.359 281.548 295.493C282.362 297.133 284.171 297.959 285.637 298.629C286.644 299.089 287.49 299.475 287.743 300.001C288.363 301.293 287.61 302.578 285.076 302.448C282.762 302.337 279.492 300.41 277.817 299.234C279.125 298.494 281.077 296.821 281.02 294.171C280.999 292.323 278.622 291.135 277.214 293.408C276.022 295.333 274.81 296.318 273.177 297.647C272.881 297.887 272.572 298.139 272.247 298.409C271.07 299.602 271.781 301 272.9 302.166C268.859 301.615 264.016 301.179 261.809 301.835C258.684 302.763 258.105 305.593 261.316 305.658C265.318 305.773 272.866 306.509 275.831 306.969C275.826 307.037 275.82 307.106 275.814 307.176C271.484 306.656 264.999 306.085 262.384 306.98C259.298 308.035 258.373 310.827 261.59 310.796C265.429 310.76 272.634 311.216 275.813 311.552C275.825 311.668 275.839 311.783 275.853 311.897C272.544 311.503 268.519 311.191 266.867 311.714C264.494 312.467 263.748 315.135 266.167 315.168C269.469 315.209 276.887 315.874 278.598 316.179C278.62 316.183 278.642 316.186 278.663 316.189C278.681 316.192 278.7 316.194 278.718 316.196C280.584 316.465 282.293 316.77 283.863 317.05C286.824 317.578 290.318 317.718 293.549 317.323C296.65 328.459 305.156 355.959 315.248 362.869C319.332 365.209 326.805 361.082 329.986 354.388C342.92 336.495 349.036 319.279 351.5 315.168C359.769 298.242 369.5 267.501 369.5 267.501Z" fill="#FFFBF5"/>
<path d="M420.169 265.502C450.17 272.501 457.074 302.106 467.93 322.937L467.931 322.938C469.088 325.158 470.189 327.271 471.235 329.237C478.675 318.435 485.016 310.092 490.102 305.818C491.774 301.978 495.407 298.537 497.106 297.715C498.086 297.24 499.388 296.892 500.762 296.525C503.233 295.865 505.939 295.142 507.437 293.505C510.652 290.022 512.717 293.359 511.622 295.493C510.808 297.133 508.999 297.959 507.532 298.629C506.525 299.089 505.679 299.475 505.427 300.001C504.807 301.293 505.56 302.578 508.093 302.448C510.407 302.337 513.677 300.41 515.353 299.234C514.045 298.494 512.092 296.821 512.15 294.171C512.171 292.323 514.548 291.135 515.956 293.408C517.148 295.333 518.359 296.318 519.993 297.647C520.288 297.887 520.597 298.139 520.923 298.409C522.1 299.602 521.388 301 520.27 302.166C524.311 301.615 529.153 301.179 531.361 301.835C534.485 302.763 535.065 305.593 531.854 305.659C527.852 305.773 520.304 306.509 517.338 306.969C517.344 307.037 517.35 307.106 517.356 307.176C521.686 306.656 528.17 306.085 530.786 306.98C533.871 308.035 534.797 310.827 531.58 310.796C527.741 310.76 520.535 311.216 517.357 311.552C517.345 311.668 517.331 311.783 517.316 311.897C520.626 311.503 524.651 311.191 526.302 311.714C528.676 312.467 529.421 315.135 527.002 315.168C523.701 315.209 516.283 315.874 514.571 316.179C514.549 316.183 514.528 316.186 514.506 316.189C514.488 316.192 514.47 316.194 514.452 316.196C512.586 316.465 510.877 316.77 509.307 317.05C506.345 317.578 502.852 317.718 499.621 317.323C496.52 328.459 488.014 355.96 477.922 362.869C473.838 365.209 466.365 361.082 463.184 354.388C450.249 336.495 421.399 288.668 418.935 284.557C410.665 267.631 410.822 260.113 420.169 265.502Z" fill="#FFFBF3"/>
<path d="M319.294 363.069C334.154 365.351 373.347 377.491 406.227 387.712C415.374 390.549 419.28 391.983 422.141 398.451C425.002 404.919 428.042 422.101 426.612 429.175C425.182 436.25 418.928 440.159 412.843 433.622C406.764 425.941 405.333 414.42 397.287 412.803C389.241 411.185 323.998 413.476 304.365 396.332C291 384.655 298.913 361.239 319.294 363.069Z" fill="url(#paint2_linear)"/>
<path d="M490.252 225.272C498.989 226.927 507.292 221.373 508.772 212.767C510.253 204.16 504.38 195.884 495.599 194.292C486.863 192.636 478.56 198.19 477.08 206.797C475.599 215.403 481.516 223.616 490.252 225.272Z" fill="#FCCC34"/>
<path d="M491.151 220.419C496.625 221.513 503.034 217.398 503.918 211.466C504.842 205.617 499.997 200.238 494.522 199.144C489.048 198.051 482.573 202.194 481.649 208.043C480.682 213.96 485.676 219.325 491.151 220.419Z" fill="#FFE592"/>
<path d="M302.647 225.374C293.91 227.03 285.608 221.476 284.127 212.869C282.647 204.263 288.519 195.986 297.3 194.394C306.037 192.739 314.339 198.293 315.82 206.899C317.3 215.506 311.384 223.719 302.647 225.374Z" fill="#FCCC34"/>
<path d="M301.749 220.522C296.274 221.616 289.865 217.5 288.981 211.569C288.057 205.72 292.903 200.341 298.377 199.247C303.852 198.153 310.326 202.297 311.25 208.146C312.217 214.063 307.223 219.428 301.749 220.522Z" fill="#FFE592"/>
<path d="M391.789 143.471L396.374 143.374C398.1 143.374 399.6 137.092 399.932 129.213C400.324 120.133 399.01 111.734 396.974 110.196C396.713 109.997 396.456 110 396.161 110L391.711 110.065C391.976 110.065 392.103 110.128 392.394 110.308C394.43 111.847 395.738 120.505 395.347 129.585C395.015 137.464 393.51 143.066 391.789 143.471Z" fill="#EDAC31"/>
<path d="M388.261 123.951C387.845 133.048 389.24 141.692 391.401 143.233C393.563 144.775 395.642 138.661 396.042 129.518C396.457 120.422 395.062 111.778 392.901 110.236C390.739 108.695 388.677 114.855 388.261 123.951Z" fill="#FCCC34"/>
<path d="M390.271 125.203C390.093 130.846 390.763 137.452 391.729 138.363C392.682 139.315 393.559 134.321 393.737 128.678C393.915 123.036 393.24 116.362 392.287 115.41C391.323 114.413 390.449 119.56 390.271 125.203Z" fill="#FFE592"/>
<path d="M452.054 162.98L454.406 165.188C457.186 167.967 464.262 165.725 470.641 160.417C478.006 154.314 482.118 145.968 479.979 141.547C479.706 140.98 479.289 140.567 478.815 140.093L476.703 138.079C477.131 138.507 477.289 138.756 477.623 139.359C479.762 143.78 475.449 152.309 468.084 158.413C461.706 163.721 455.127 165.451 452.054 162.98Z" fill="#EDAC31"/>
<path d="M460.462 142.482C453.097 148.585 448.815 157.101 450.953 161.522C453.092 165.943 460.773 164.57 468.147 158.409C475.512 152.306 479.795 143.79 477.656 139.369C475.518 134.948 467.828 136.378 460.462 142.482Z" fill="#FCCC34"/>
<path d="M461.757 145.377C457.146 149.226 453.627 155.612 455.01 158.361C456.333 161.112 461.95 159.241 466.561 155.392C471.172 151.543 474.732 145.097 473.409 142.346C472.095 139.538 466.368 141.528 461.757 145.377Z" fill="#FFE592"/>
<path d="M340.845 162.98L338.493 165.188C335.714 167.967 328.637 165.725 322.259 160.417C314.894 154.314 310.782 145.968 312.921 141.547C313.193 140.98 313.611 140.567 314.085 140.093L316.196 138.079C315.768 138.507 315.611 138.756 315.276 139.359C313.137 143.78 317.45 152.309 324.815 158.413C331.193 163.721 337.772 165.451 340.845 162.98Z" fill="#EDAC31"/>
<path d="M332.437 142.482C339.802 148.585 344.085 157.101 341.946 161.522C339.808 165.943 332.127 164.57 324.752 158.409C317.387 152.306 313.104 143.79 315.243 139.369C317.382 134.948 325.072 136.378 332.437 142.482Z" fill="#FCCC34"/>
<path d="M331.142 145.377C335.753 149.226 339.272 155.612 337.889 158.361C336.566 161.112 330.949 159.241 326.338 155.392C321.727 151.543 318.167 145.097 319.49 142.346C320.804 139.538 326.531 141.528 331.142 145.377Z" fill="#FFE592"/>
<defs>
<linearGradient id="paint0_linear" x1="397.537" y1="183.084" x2="397.537" y2="384.959" gradientUnits="userSpaceOnUse">
<stop stop-color="white"/>
<stop offset="1" stop-color="#FFF2DA"/>
</linearGradient>
<linearGradient id="paint1_linear" x1="414.981" y1="198.898" x2="375.238" y2="239.921" gradientUnits="userSpaceOnUse">
<stop stop-color="#FF971E"/>
<stop offset="1" stop-color="#E36219"/>
</linearGradient>
<linearGradient id="paint2_linear" x1="317.5" y1="363" x2="417.5" y2="408.5" gradientUnits="userSpaceOnUse">
<stop stop-color="#FFF2DB"/>
<stop offset="1" stop-color="white"/>
</linearGradient>
</defs>
</svg>
