<svg width="592" height="486" viewBox="0 0 592 486" fill="none" xmlns="http://www.w3.org/2000/svg">
<circle cx="159.372" cy="159.068" r="158.453" fill="url(#paint0_linear)"/>
<circle cx="202.602" cy="467.471" r="18.1637" fill="#8FE6FA"/>
<rect x="423.164" y="328.339" width="122.923" height="122.923" rx="26" transform="rotate(-30 423.164 328.339)" fill="url(#paint1_linear)"/>
<g opacity="0.2" filter="url(#filter0_f)">
<path d="M380.283 96.9283C385.292 88.6181 380.283 73.276 369.201 62.6218C359.053 52.8647 347.295 50.3454 341.54 56.3732L337.128 59.8517C336.169 60.5975 335.316 61.5564 334.677 62.6218C329.669 70.9321 334.677 86.2741 345.759 96.9283C355.349 106.197 366.431 108.861 372.398 104.067L377.93 99.7062C377.38 100.139 376.79 100.511 376.165 100.822C377.829 99.9665 379.232 98.6728 380.283 96.9283Z" fill="#395590"/>
</g>
<g opacity="0.25" filter="url(#filter1_f)">
<path fill-rule="evenodd" clip-rule="evenodd" d="M273.531 120.137C272.568 118.879 271.408 117.74 270.049 116.751C260.246 109.719 243.836 113.235 233.394 124.528C223.944 134.741 222.531 147.774 229.387 155.511L232.24 159.141C233.199 160.42 234.371 161.485 235.649 162.444C245.453 169.582 261.862 166.066 272.305 154.666C281.363 144.758 282.961 132.186 276.887 124.408L273.531 120.137Z" fill="#395590"/>
</g>
<g style="mix-blend-mode:multiply" opacity="0.25" filter="url(#filter2_f)">
<path fill-rule="evenodd" clip-rule="evenodd" d="M164.828 177.46C165.509 166.19 173.991 165.112 182.472 165.112L182.462 165.138C191.001 165.295 238.91 166.56 290.53 167.922C339.609 169.218 392.042 170.602 417.181 171.206C422.869 171.326 427.971 171.427 432.349 171.505C438.093 171.611 443.069 172.631 447.353 174.375C455.831 177.629 460.963 183.332 464.343 189.865C464.072 189.377 463.788 188.907 463.491 188.456C464.255 189.74 464.949 191.073 465.575 192.448C465.192 191.576 464.782 190.713 464.343 189.865C464.797 190.683 465.213 191.553 465.589 192.479C469.113 200.227 470.517 209.29 470.39 218.17C470.226 228.333 469.53 256.626 468.818 285.53C468.143 312.988 467.453 340.997 467.194 354.544C466.554 383.737 449.292 394.497 417.857 393.965C415.52 393.922 411.234 393.859 405.407 393.777C405.401 395.235 405.395 396.58 405.39 397.8C405.284 426.993 387.595 444.572 356.8 438.073C344.238 435.438 293.751 425.041 247.961 415.612C216.936 409.224 188.068 403.279 174.611 400.493C170.013 399.541 166.809 395.597 166.794 390.902C166.678 355.622 165.906 281.93 165.353 231.429C164.991 206.302 164.784 188.238 164.784 187.699V178.963V178.643C164.784 178.237 164.799 177.842 164.828 177.46Z" fill="#395590"/>
</g>
<path d="M179.1 138.054C197.641 138.48 362.732 143.051 416.97 144.01C445.847 144.543 455.331 168.195 455.011 190.675C454.691 210.492 452.347 299.242 451.814 327.049C451.175 356.242 433.913 367.002 402.478 366.47C379.035 366.043 159.634 363.486 154.412 362.314C151.749 361.782 149.404 162.015 149.404 160.204C149.404 160.204 149.404 153.066 149.404 151.148C149.404 136.445 168.87 137.735 179.1 138.054Z" fill="#784B3A"/>
<path d="M161.019 153.172C161.019 150.189 166.88 150.189 176.577 150.402C194.052 150.828 364.118 155.623 415.265 156.582C442.544 157.114 446.486 169.367 446.167 189.929C445.847 208.042 443.716 296.152 443.183 321.615C442.65 348.357 428.798 357.627 403.011 357.627H390.011" fill="#845543"/>
<g style="mix-blend-mode:multiply" filter="url(#filter3_f)">
<path d="M177.218 276.126L414.095 282.305C421.66 282.518 427.841 276.552 428.054 269.094L430.398 180.771C430.611 173.206 424.644 167.027 417.185 166.814L180.308 160.634C172.742 160.421 166.562 166.388 166.349 173.845L164.004 262.169C163.685 269.733 169.652 275.913 177.218 276.126Z" fill="#777879"/>
</g>
<path d="M177.498 278.885L414.375 285.064C421.94 285.277 428.121 279.311 428.334 271.853L430.678 183.529C430.891 175.965 424.924 169.786 417.465 169.572L180.588 163.393C173.022 163.18 166.842 169.146 166.629 176.604L164.285 264.928C163.965 272.492 169.932 278.671 177.498 278.885Z" fill="url(#paint2_linear)"/>
<path d="M176.03 280.436L412.907 286.615C420.473 286.828 426.653 280.862 426.866 273.404L429.211 185.081C429.424 177.516 423.457 171.337 415.998 171.124L179.12 164.944C171.555 164.731 165.375 170.698 165.161 178.155L162.817 266.479C162.604 273.937 168.465 280.223 176.03 280.436Z" fill="#83ADBF"/>
<g style="mix-blend-mode:multiply" filter="url(#filter4_f)">
<path d="M178.446 299.68L415.323 305.86C422.889 306.073 429.069 300.106 429.282 292.648L431.627 204.325C431.84 196.76 425.872 190.581 418.413 190.368L181.536 184.189C173.971 183.975 167.79 189.942 167.577 197.4L165.233 285.723C165.02 293.181 170.987 299.467 178.446 299.68Z" fill="#777879"/>
</g>
<path d="M178.446 302.881L415.323 309.06C422.889 309.273 429.069 303.307 429.282 295.849L431.627 207.526C431.84 199.961 425.872 193.782 418.413 193.569L181.536 187.389C173.971 187.176 167.79 193.143 167.577 200.6L165.233 288.924C165.02 296.382 170.987 302.668 178.446 302.881Z" fill="url(#paint3_linear)"/>
<path d="M176.817 304.617L413.694 310.796C421.26 311.009 427.44 305.043 427.653 297.585L429.998 209.262C430.211 201.697 424.243 195.518 416.784 195.305L179.907 189.019C172.342 188.806 166.162 194.772 165.948 202.23L163.604 290.553C163.391 298.118 169.358 304.404 176.817 304.617Z" fill="#83ADBF"/>
<g style="mix-blend-mode:multiply" filter="url(#filter5_f)">
<path d="M179.879 325.401L416.756 331.581C424.322 331.794 430.502 325.827 430.715 318.369L433.06 230.046C433.273 222.481 427.306 216.302 419.847 216.089L182.97 209.91C175.404 209.696 169.224 215.663 169.011 223.121L166.666 311.444C166.453 319.009 172.314 325.295 179.879 325.401Z" fill="#777879"/>
</g>
<path d="M179.88 328.877L416.757 335.057C424.322 335.27 430.503 329.303 430.716 321.845L433.06 233.522C433.273 225.957 427.306 219.778 419.847 219.565L182.97 213.386C175.404 213.172 169.224 219.139 169.011 226.597L166.667 314.92C166.347 322.378 172.314 328.664 179.88 328.877Z" fill="url(#paint4_linear)"/>
<path d="M178.658 330.778L415.535 336.957C423.1 337.171 429.281 331.204 429.494 323.746L431.838 235.423C432.051 227.858 426.084 221.679 418.625 221.466L181.748 215.286C174.182 215.073 168.002 221.04 167.789 228.498L165.445 316.821C165.231 324.385 171.092 330.671 178.658 330.778Z" fill="#83ADBF"/>
<g style="mix-blend-mode:multiply" filter="url(#filter6_f)">
<path d="M192.453 347.761L409.83 353.408C427.732 353.834 442.544 339.771 443.076 321.872L444.003 243.006C444.003 243.006 382.855 235.801 305.13 233.503C227.405 231.206 163.15 231.311 163.15 231.311L161.019 314.52C160.486 332.419 174.658 347.229 192.453 347.761Z" fill="#777879"/>
</g>
<path d="M192.453 351.873L409.83 357.52C427.732 357.946 442.544 343.883 443.076 325.984L445.028 249.769C445.127 245.905 442.076 242.693 438.213 242.592L163.15 235.423L161.019 318.632C160.486 336.531 174.658 351.341 192.453 351.873Z" fill="url(#paint5_linear)"/>
<path opacity="0.64" d="M215.477 333.671L393.801 338.303C408.487 338.653 420.637 327.116 421.075 312.432L422.823 244.172L191.438 238.141L189.69 306.402C189.253 321.085 200.879 333.234 215.477 333.671Z" fill="#CC8760"/>
<path d="M162.019 318.662L162.019 318.658L164.124 236.449L442.184 243.696C443.288 243.725 444.159 244.643 444.131 245.746L442.077 325.954C442.077 325.955 442.077 325.956 442.077 325.958C441.558 343.306 427.204 356.933 409.854 356.52L192.483 350.874C192.482 350.874 192.481 350.874 192.48 350.874C175.232 350.356 161.502 336.001 162.019 318.662Z" stroke="url(#paint6_linear)" stroke-width="2" stroke-miterlimit="10" stroke-linejoin="round"/>
<path d="M333.722 192.765L333.72 192.767C323.009 203.161 305.603 204.598 294.848 196.038C284.247 187.516 284.093 172.318 294.882 161.95L294.884 161.948C305.594 151.554 323.001 150.117 333.756 158.677C344.356 167.198 344.511 182.397 333.722 192.765Z" fill="url(#paint7_linear)" stroke="url(#paint8_linear)" stroke-miterlimit="10"/>
<path d="M341.101 168.195L342.593 172.457C345.363 180.66 343.125 190.249 335.56 197.494C324.691 208.042 307.002 209.533 296.027 200.797C292.617 198.027 290.273 194.724 288.994 190.995L287.502 186.733C288.781 190.462 291.125 193.872 294.535 196.535C305.404 205.272 323.093 203.78 334.068 193.232C341.527 185.987 343.871 176.292 341.101 168.195Z" fill="#BE5016"/>
<path d="M328.207 163.933C335.879 170.113 335.879 181.086 328.207 188.544C320.535 196.002 308.068 197.068 300.289 190.888C292.617 184.709 292.617 173.735 300.289 166.277C308.068 158.819 320.535 157.754 328.207 163.933Z" fill="#C27025"/>
<path d="M328.207 165.124C335.879 171.066 335.879 181.618 328.207 188.789C320.535 195.96 308.068 196.985 300.289 191.043C292.617 185.101 292.617 174.549 300.289 167.378C308.068 160.206 320.535 159.182 328.207 165.124Z" fill="url(#paint9_linear)"/>
<path d="M166.95 137.641C184.852 137.96 395.019 143.69 415.371 144.01C436.15 144.329 445.314 153.812 450.216 164.999C444.994 152.107 431.888 149.976 419.207 149.657C406.527 149.337 177.962 144.756 164.322 144.543" fill="#CB8660"/>
<path d="M164.322 144.543C155.691 144.329 152.388 152.533 166.667 154.344C184.462 156.688 298.798 173.735 351.863 180.98C380.527 184.922 390.65 206.763 390.757 229.243C390.757 249.06 390.117 342.391 390.011 370.305C389.904 399.498 372.216 417.077 341.421 410.578C317.552 405.571 156.757 372.543 151.429 371.371C151.429 323.959 149.404 155.836 149.404 151.468C149.404 138.789 158.249 137.617 167.093 137.617" fill="#CB8660"/>
<path d="M162.83 160.417C180.519 163.614 293.683 178.529 346.642 185.881C375.306 189.823 385.429 209.32 385.535 231.907C385.535 251.724 384.896 341.326 384.789 369.133C384.683 398.326 366.994 415.905 336.199 409.406C312.33 404.399 159.953 373.821 154.732 372.649C152.068 372.116 150.15 371.264 149.724 366.043C149.617 364.445 148.658 362.954 147.379 361.995C145.888 360.823 144.715 359.438 144.183 355.496C143.543 349.743 143.874 176.519 144.194 172.151C144.407 169.275 146.041 167.201 147.26 165.871C148.479 164.541 149.387 163.39 149.412 162.121C149.437 160.852 149.311 155.868 149.459 149.69C149.459 157.041 155.265 159.032 162.83 160.417Z" fill="#845543"/>
<path d="M160.699 166.703C157.289 166.171 151.855 164.04 149.404 162.122C148.424 165.236 144.236 167.117 144.114 171.791C144.114 175.615 143.23 350.649 144.266 356.402C145.302 362.155 148.833 362.134 149.358 364.425C153.119 365.181 331.404 400.563 331.404 400.563C360.175 406.636 376.798 390.974 376.798 363.593C376.798 337.49 377.437 253.748 377.437 235.21C377.437 214.114 367.847 195.896 341.101 192.167C291.445 185.242 177.962 169.367 160.699 166.703Z" fill="url(#paint10_linear)"/>
<path opacity="0.29" fill-rule="evenodd" clip-rule="evenodd" d="M149.404 162.122C151.855 164.04 157.289 166.171 160.699 166.703C177.962 169.367 291.445 185.242 341.101 192.167C367.847 195.896 377.437 214.114 377.437 235.21C377.437 243.688 377.303 265.803 377.158 289.806C376.986 318.288 376.798 349.428 376.798 363.593C376.798 390.974 360.175 406.636 331.404 400.563C331.404 400.563 153.119 365.181 149.358 364.425C149.158 363.552 148.522 363.015 147.754 362.366C146.505 361.312 144.908 359.964 144.266 356.402C143.344 351.283 143.943 212.143 144.086 178.84C144.104 174.714 144.114 172.213 144.114 171.791C144.188 168.975 145.737 167.173 147.171 165.504C148.118 164.403 149.014 163.36 149.404 162.122ZM334.805 196.766C361.551 200.495 371.346 220.742 371.346 241.837C371.346 250.315 371.212 269.588 371.067 290.506C370.895 315.327 370.706 342.464 370.706 356.629C370.706 384.01 354.083 399.672 325.313 393.599C325.313 393.599 184.24 365.312 181.507 364.774C178.774 364.237 175.523 362.188 174.34 357.681C173.157 353.174 173.435 190.59 173.924 185.286C174.414 179.983 176.483 174.959 184.167 176.437C186.706 176.925 197.039 178.209 212.042 180.073C242.451 183.852 292.045 190.014 334.805 196.766Z" fill="#493029"/>
<path d="M160.545 167.691L160.547 167.692C177.819 170.357 291.314 186.233 340.963 193.157L341.101 192.167L340.963 193.157C354.117 194.991 362.943 200.365 368.499 207.776C374.07 215.208 376.437 224.803 376.437 235.21C376.437 243.686 376.303 265.803 376.158 289.813C376.145 292.048 376.131 294.3 376.117 296.559C375.958 323.073 375.798 350.538 375.798 363.593C375.798 377.095 371.702 387.531 364.243 393.861C356.794 400.182 345.792 402.578 331.611 399.585L331.599 399.582L331.404 400.563C331.599 399.582 331.598 399.582 331.597 399.582L331.591 399.581L331.566 399.576L331.47 399.557L331.087 399.481L329.596 399.185L323.931 398.06L303.683 394.042C286.91 390.713 264.507 386.267 241.986 381.797C199.082 373.281 155.756 364.68 150.113 363.556C149.879 363.044 149.537 362.641 149.184 362.297C148.944 362.064 148.681 361.841 148.434 361.633L148.403 361.606C148.16 361.401 147.923 361.201 147.684 360.979C146.742 360.105 145.725 358.859 145.25 356.225C145.202 355.955 145.145 355.025 145.093 353.391C145.043 351.801 145 349.63 144.962 346.96C144.887 341.622 144.837 334.302 144.805 325.663C144.743 308.388 144.756 285.852 144.802 263.375C144.873 228.335 145.023 193.43 145.086 178.839C145.103 174.756 145.114 172.264 145.114 171.805C145.17 169.809 146.075 168.389 147.21 167.006C147.419 166.752 147.655 166.477 147.896 166.196C148.266 165.764 148.651 165.316 148.972 164.902C149.278 164.507 149.573 164.087 149.826 163.635C151.086 164.432 152.688 165.205 154.32 165.86C156.454 166.716 158.741 167.409 160.545 167.691Z" stroke="url(#paint11_linear)" stroke-width="2" stroke-miterlimit="10"/>
<path d="M382.552 93.4023L377.011 97.7705C371.044 102.565 359.962 99.9014 350.371 90.6322C339.289 79.978 334.281 64.636 339.289 56.3257C339.929 55.2603 340.781 54.3014 341.74 53.5556L347.281 49.1874C346.322 49.9332 345.576 50.8921 344.83 51.9575C339.822 60.2678 344.83 75.6098 355.912 86.264C365.503 95.5332 376.478 98.1967 382.552 93.4023Z" fill="white"/>
<path d="M382.552 93.4023L377.011 97.7705C371.044 102.565 359.962 99.9014 350.371 90.6322C339.289 79.978 334.281 64.636 339.289 56.3257C339.929 55.2603 340.781 54.3014 341.74 53.5556L347.281 49.1874C346.322 49.9332 345.576 50.8921 344.83 51.9575C339.822 60.2678 344.83 75.6098 355.912 86.264C365.503 95.5332 376.478 98.1967 382.552 93.4023Z" fill="url(#paint12_linear)"/>
<path d="M356.154 85.9053L356.152 85.9036C350.667 80.6301 346.691 74.2008 344.706 68.0776C342.717 61.9386 342.754 56.1947 345.152 52.2156C347.524 48.2788 351.797 46.7468 356.916 47.5243C362.048 48.3037 367.979 51.4093 373.467 56.6862C378.952 61.9596 382.928 68.389 384.913 74.5121C386.902 80.6511 386.865 86.3951 384.467 90.3742C382.094 94.3127 377.819 95.8695 372.702 95.1053C367.571 94.339 361.642 91.2343 356.154 85.9053Z" fill="url(#paint13_linear)" stroke="url(#paint14_linear)" stroke-miterlimit="10"/>
<path d="M370.617 61.6528C377.757 68.578 382.179 80.4045 378.875 85.7316C375.679 91.0587 366.142 87.9687 359.003 81.0435C351.863 74.1182 347.386 62.1808 350.583 56.8537C353.78 51.4201 363.478 54.7276 370.617 61.6528Z" fill="#C27025"/>
<path d="M369.999 62.4382C376.929 69.1603 381.221 80.6398 378.015 85.8107C374.912 90.9815 365.655 87.9822 358.725 81.2601C351.795 74.538 347.449 62.9507 350.552 57.7798C353.655 52.5056 363.069 55.716 369.999 62.4382Z" fill="url(#paint15_linear)"/>
<path d="M255.062 137.491L255.06 137.493C249.908 143.118 243.286 146.792 236.757 148.182C230.225 149.572 223.826 148.669 219.067 145.204C214.317 141.745 212.059 136.4 212.28 130.498C212.501 124.588 215.213 118.119 220.419 112.493L220.419 112.493C225.571 106.921 232.193 103.272 238.723 101.882C245.257 100.492 251.656 101.369 256.415 104.782C261.164 108.24 263.422 113.585 263.201 119.486C262.979 125.396 260.268 131.865 255.062 137.491Z" fill="url(#paint16_linear)" stroke="url(#paint17_linear)" stroke-miterlimit="10"/>
<path d="M260.029 107.559L263.545 112.034C269.619 119.811 268.021 132.383 258.963 142.292C248.521 153.692 232.111 157.207 222.308 150.069C221.029 149.11 219.857 148.045 218.898 146.766L215.381 142.292C216.34 143.464 217.406 144.635 218.791 145.594C228.594 152.733 245.004 149.217 255.447 137.817C264.504 127.908 266.103 115.336 260.029 107.559Z" fill="url(#paint18_linear)"/>
<path d="M250.953 110.769C257.773 115.67 257.347 126.111 250.101 133.995C242.855 141.879 231.453 144.329 224.634 139.429C217.814 134.528 218.24 124.086 225.486 116.202C232.732 108.212 244.134 105.868 250.953 110.769Z" fill="#C27025"/>
<path d="M251.128 111.891C257.703 116.616 257.292 126.681 250.307 134.281C243.321 141.882 232.33 144.244 225.756 139.519C219.182 134.795 219.593 124.73 226.578 117.129C233.563 109.426 244.554 107.167 251.128 111.891Z" fill="url(#paint19_linear)"/>
<defs>
<filter id="filter0_f" x="322.732" y="43.125" width="69.4957" height="73.2823" filterUnits="userSpaceOnUse" color-interpolation-filters="sRGB">
<feFlood flood-opacity="0" result="BackgroundImageFix"/>
<feBlend mode="normal" in="SourceGraphic" in2="BackgroundImageFix" result="shape"/>
<feGaussianBlur stdDeviation="5" result="effect1_foregroundBlur"/>
</filter>
<filter id="filter1_f" x="206.107" y="94.125" width="93.3998" height="91.0174" filterUnits="userSpaceOnUse" color-interpolation-filters="sRGB">
<feFlood flood-opacity="0" result="BackgroundImageFix"/>
<feBlend mode="normal" in="SourceGraphic" in2="BackgroundImageFix" result="shape"/>
<feGaussianBlur stdDeviation="9.5" result="effect1_foregroundBlur"/>
</filter>
<filter id="filter2_f" x="132.784" y="133.112" width="369.614" height="338.309" filterUnits="userSpaceOnUse" color-interpolation-filters="sRGB">
<feFlood flood-opacity="0" result="BackgroundImageFix"/>
<feBlend mode="normal" in="SourceGraphic" in2="BackgroundImageFix" result="shape"/>
<feGaussianBlur stdDeviation="16" result="effect1_foregroundBlur"/>
</filter>
<filter id="filter3_f" x="159.992" y="156.629" width="274.411" height="129.682" filterUnits="userSpaceOnUse" color-interpolation-filters="sRGB">
<feFlood flood-opacity="0" result="BackgroundImageFix"/>
<feBlend mode="normal" in="SourceGraphic" in2="BackgroundImageFix" result="shape"/>
<feGaussianBlur stdDeviation="2" result="effect1_foregroundBlur"/>
</filter>
<filter id="filter4_f" x="161.228" y="180.183" width="274.405" height="129.682" filterUnits="userSpaceOnUse" color-interpolation-filters="sRGB">
<feFlood flood-opacity="0" result="BackgroundImageFix"/>
<feBlend mode="normal" in="SourceGraphic" in2="BackgroundImageFix" result="shape"/>
<feGaussianBlur stdDeviation="2" result="effect1_foregroundBlur"/>
</filter>
<filter id="filter5_f" x="162.661" y="205.904" width="274.405" height="129.682" filterUnits="userSpaceOnUse" color-interpolation-filters="sRGB">
<feFlood flood-opacity="0" result="BackgroundImageFix"/>
<feBlend mode="normal" in="SourceGraphic" in2="BackgroundImageFix" result="shape"/>
<feGaussianBlur stdDeviation="2" result="effect1_foregroundBlur"/>
</filter>
<filter id="filter6_f" x="157.004" y="227.31" width="290.999" height="130.107" filterUnits="userSpaceOnUse" color-interpolation-filters="sRGB">
<feFlood flood-opacity="0" result="BackgroundImageFix"/>
<feBlend mode="normal" in="SourceGraphic" in2="BackgroundImageFix" result="shape"/>
<feGaussianBlur stdDeviation="2" result="effect1_foregroundBlur"/>
</filter>
<linearGradient id="paint0_linear" x1="159.372" y1="0.614929" x2="159.372" y2="317.52" gradientUnits="userSpaceOnUse">
<stop stop-color="#55EBE9"/>
<stop offset="1" stop-color="#49A8DF"/>
</linearGradient>
<linearGradient id="paint1_linear" x1="504.771" y1="323.224" x2="433.424" y2="446.801" gradientUnits="userSpaceOnUse">
<stop stop-color="#F0876C"/>
<stop offset="1" stop-color="#F59F6F"/>
</linearGradient>
<linearGradient id="paint2_linear" x1="419.704" y1="169.664" x2="419.704" y2="199.665" gradientUnits="userSpaceOnUse">
<stop stop-color="#E5EBF8"/>
<stop offset="1" stop-color="#99A9CA"/>
</linearGradient>
<linearGradient id="paint3_linear" x1="298.43" y1="192.778" x2="298.43" y2="217.485" gradientUnits="userSpaceOnUse">
<stop stop-color="#E5EAF7"/>
<stop offset="1" stop-color="#B4C0DA"/>
</linearGradient>
<linearGradient id="paint4_linear" x1="299.86" y1="218.932" x2="299.86" y2="244.136" gradientUnits="userSpaceOnUse">
<stop stop-color="#E5EAF7"/>
<stop offset="1" stop-color="#778CB2"/>
</linearGradient>
<linearGradient id="paint5_linear" x1="303.106" y1="235.423" x2="303.106" y2="357.53" gradientUnits="userSpaceOnUse">
<stop stop-color="#784C3A"/>
<stop offset="1" stop-color="#59372E"/>
</linearGradient>
<linearGradient id="paint6_linear" x1="303.106" y1="235.423" x2="303.106" y2="357.53" gradientUnits="userSpaceOnUse">
<stop stop-color="#E1966C"/>
<stop offset="1" stop-color="#E0966C" stop-opacity="0"/>
</linearGradient>
<linearGradient id="paint7_linear" x1="318.539" y1="153.366" x2="314.302" y2="177.623" gradientUnits="userSpaceOnUse">
<stop stop-color="#FCD637"/>
<stop offset="0.707065" stop-color="#FBB130"/>
<stop offset="1" stop-color="#D7821D"/>
</linearGradient>
<linearGradient id="paint8_linear" x1="314.302" y1="152.595" x2="314.302" y2="173.093" gradientUnits="userSpaceOnUse">
<stop stop-color="#FEE4B4"/>
<stop offset="1" stop-color="#FED55F" stop-opacity="0"/>
</linearGradient>
<linearGradient id="paint9_linear" x1="314.248" y1="161.257" x2="312.109" y2="176.746" gradientUnits="userSpaceOnUse">
<stop stop-color="#FFEC9C"/>
<stop offset="0.710419" stop-color="#FFCC6E"/>
<stop offset="0.989773" stop-color="#F2B140"/>
</linearGradient>
<linearGradient id="paint10_linear" x1="142.748" y1="279.182" x2="374.798" y2="303.146" gradientUnits="userSpaceOnUse">
<stop stop-color="#5B382F"/>
<stop offset="1" stop-color="#794C3B"/>
</linearGradient>
<linearGradient id="paint11_linear" x1="364.082" y1="210.794" x2="241.725" y2="348.224" gradientUnits="userSpaceOnUse">
<stop stop-color="#4A3129"/>
<stop offset="1" stop-color="#483029" stop-opacity="0"/>
</linearGradient>
<linearGradient id="paint12_linear" x1="359.948" y1="49.1874" x2="359.948" y2="100.111" gradientUnits="userSpaceOnUse">
<stop stop-color="#E7A222"/>
<stop offset="1" stop-color="#BC4B16"/>
</linearGradient>
<linearGradient id="paint13_linear" x1="356.811" y1="49.8325" x2="364.81" y2="95.7933" gradientUnits="userSpaceOnUse">
<stop stop-color="#FCD938"/>
<stop stop-color="#FFD762"/>
<stop offset="1" stop-color="#FBAE2C"/>
</linearGradient>
<linearGradient id="paint14_linear" x1="353.607" y1="80.3657" x2="358.729" y2="75.2438" gradientUnits="userSpaceOnUse">
<stop stop-color="white" stop-opacity="0.63"/>
<stop offset="1" stop-color="white" stop-opacity="0"/>
</linearGradient>
<linearGradient id="paint15_linear" x1="364.384" y1="56.4749" x2="364.384" y2="87.1794" gradientUnits="userSpaceOnUse">
<stop stop-color="#FFC564"/>
<stop offset="1" stop-color="#FFED9D"/>
</linearGradient>
<linearGradient id="paint16_linear" x1="237.74" y1="100.75" x2="237.74" y2="149.307" gradientUnits="userSpaceOnUse">
<stop stop-color="#FCD938"/>
<stop offset="1" stop-color="#FBB02F"/>
</linearGradient>
<linearGradient id="paint17_linear" x1="222.438" y1="111.926" x2="248.584" y2="141.585" gradientUnits="userSpaceOnUse">
<stop stop-color="#FCD537" stop-opacity="0"/>
<stop offset="1" stop-color="#FEE6B7"/>
</linearGradient>
<linearGradient id="paint18_linear" x1="241.273" y1="107.559" x2="241.273" y2="153.768" gradientUnits="userSpaceOnUse">
<stop stop-color="#DF9320"/>
<stop offset="1" stop-color="#BD4D16"/>
</linearGradient>
<linearGradient id="paint19_linear" x1="238.442" y1="109.431" x2="238.442" y2="141.955" gradientUnits="userSpaceOnUse">
<stop stop-color="#FFC564"/>
<stop offset="1" stop-color="#FFEB9B"/>
</linearGradient>
</defs>
</svg>
