<svg width="196" height="64" viewBox="0 0 196 64" fill="none" xmlns="http://www.w3.org/2000/svg">
<circle r="6.96508" transform="matrix(-0.714359 0.69978 0.714359 0.69978 57.375 19.1914)" fill="#108CFF"/>
<path d="M36.9135 26.7349C32.1046 25.3633 26.8959 26.7316 23.381 30.2898L20.0424 33.6695C14.1532 39.6312 17.0539 49.5815 25.2274 51.4554V51.4554C28.9203 52.3021 32.811 51.1772 35.4798 48.4913L51.387 32.4819C51.9552 31.91 51.7057 30.9537 50.9306 30.7326L36.9135 26.7349Z" fill="#FFCA62"/>
<path d="M37.1142 36.7178C32.3264 38.1671 27.0941 36.8832 23.5201 33.3821L20.1185 30.0499C14.1332 24.1866 16.8708 14.1945 25.0118 12.1895V12.1895C28.6899 11.2836 32.598 12.345 35.3099 14.9862L51.4862 30.7408C52.0636 31.3031 51.8298 32.263 51.0585 32.4965L37.1142 36.7178Z" fill="#108CFF"/>
<path fill-rule="evenodd" clip-rule="evenodd" d="M23.5212 33.3821C27.0951 36.8832 32.3275 38.1671 37.1153 36.7177L51.0596 32.4964C51.3235 32.4165 51.5245 32.2516 51.6516 32.0465C51.8153 31.5142 51.5302 30.9041 50.9312 30.7333L36.9141 26.7356C32.1052 25.364 26.8965 26.7323 23.3816 30.2905L21.8982 31.7922L23.5212 33.3821Z" fill="#0066FF"/>
<path d="M101.571 22.9864V18.2778H86.5664V43.2473H91.5201V33.6162H101.284V28.9077H91.5201V22.9864H101.571Z" fill="#25395F"/>
<path d="M107.263 23.2717C108.842 23.2717 110.134 21.9876 110.134 20.4537C110.134 18.9199 108.842 17.6001 107.263 17.6001C105.719 17.6001 104.427 18.9199 104.427 20.4537C104.427 21.9876 105.719 23.2717 107.263 23.2717ZM104.965 43.2473H109.596V25.412H104.965V43.2473Z" fill="#25395F"/>
<path d="M118.465 28.4796V25.412H113.834V43.2473H118.465V34.722C118.465 30.9766 121.516 29.9065 123.921 30.1918V25.0553C121.66 25.0553 119.398 26.054 118.465 28.4796Z" fill="#25395F"/>
<path d="M129.876 36.2202H143.409C143.517 35.6138 143.589 35.0074 143.589 34.3296C143.589 29.086 139.82 24.9126 134.507 24.9126C128.871 24.9126 125.03 29.0147 125.03 34.3296C125.03 39.6446 128.835 43.7467 134.866 43.7467C138.312 43.7467 141.004 42.3555 142.691 39.9299L138.958 37.7897C138.168 38.8241 136.732 39.5732 134.938 39.5732C132.497 39.5732 130.522 38.5744 129.876 36.2202ZM129.804 32.6531C130.343 30.3702 132.03 29.0504 134.507 29.0504C136.445 29.0504 138.384 30.0848 138.958 32.6531H129.804Z" fill="#25395F"/>
<path d="M155.952 17.7785C150.244 17.7785 147.516 20.3111 147.516 25.2336V25.412H144.931V29.8351H147.516V43.2473H152.147V29.8351H155.126V25.412H152.147V25.2336C152.147 22.808 153.547 21.8092 155.952 21.8092C156.418 21.8092 156.921 21.8092 157.423 21.8449V43.2473H162.054V18.5275C160.08 18.1352 158.213 17.7785 155.952 17.7785Z" fill="#25395F"/>
<path d="M177.979 25.412L173.995 37.3973L169.328 25.412H164.267L171.626 42.6766C170.764 45.0665 169.472 46.1366 166.923 46.1009V50.3814C171.482 50.6311 174.533 48.3839 176.4 43.2473L182.933 25.412H177.979Z" fill="#25395F"/>
</svg>