<svg width="64" height="64" viewBox="0 0 64 64" fill="none" xmlns="http://www.w3.org/2000/svg">
<circle r="7" transform="matrix(-4.37114e-08 1 1 4.37114e-08 50 18)" fill="#108CFF"/>
<path d="M28.9832 26.346C24.1071 24.8696 18.8458 26.3208 15.3142 30.1161L11.8418 33.8479C5.97487 40.153 8.95762 50.7032 17.1724 52.7026C20.8816 53.6054 24.7746 52.4215 27.4317 49.5825L43.4719 32.4445C44.0378 31.8399 43.7808 30.8263 43.0019 30.5905L28.9832 26.346Z" fill="#FFCA62"/>
<path d="M28.8087 36.8252C23.8705 38.3453 18.4934 37.0184 14.8387 33.3779L11.2452 29.7983C5.17384 23.7505 8.03967 13.418 16.3668 11.3326C20.1269 10.3909 24.1073 11.4801 26.8567 14.203L43.4544 30.6401C44.0399 31.22 43.7947 32.2122 43.0059 32.455L28.8087 36.8252Z" fill="#108CFF"/>
<path fill-rule="evenodd" clip-rule="evenodd" d="M15.2017 33.4588C18.8552 37.1124 24.2307 38.4441 29.1672 36.9185L43.3599 32.5325C43.6339 32.4479 43.8423 32.2724 43.9731 32.055C44.1365 31.5036 43.8413 30.8706 43.2286 30.6922L28.9659 26.5397C24.005 25.0953 18.6521 26.515 15.059 30.2281L13.5404 31.7974L15.2017 33.4588Z" fill="#0066FF"/>
</svg>
