<svg width="104" height="108" viewBox="0 0 104 108" fill="none" xmlns="http://www.w3.org/2000/svg">
<circle r="11.9866" transform="matrix(-0.707107 0.707107 0.707107 0.707107 87.0488 31.9819)" fill="#309CFF"/>
<path d="M52.311 45.1338C44.0465 42.7277 35.1291 45.0928 29.1434 51.2784L23.2579 57.3605C13.314 67.6364 18.3695 84.831 32.2927 88.0896C38.5796 89.561 45.1778 87.6315 49.6813 83.0046L76.8681 55.0732C77.8271 54.0878 77.3916 52.4359 76.0714 52.0516L52.311 45.1338Z" fill="#FFCA62"/>
<path d="M52.6467 62.426C44.4228 64.9674 35.4678 62.749 29.3814 56.6624L23.3969 50.6777C13.2858 40.5663 18.0585 23.2911 31.9264 19.8045C38.1882 18.2301 44.8172 20.0511 49.396 24.6035L77.0374 52.0851C78.0125 53.0545 77.6041 54.7134 76.2904 55.1194L52.6467 62.426Z" fill="#309CFF"/>
<path fill-rule="evenodd" clip-rule="evenodd" d="M29.381 56.6624C35.4674 62.749 44.4224 64.9675 52.6463 62.4261L76.29 55.1194C76.7466 54.9783 77.0939 54.6858 77.3117 54.3235C77.5838 53.4051 77.0919 52.3507 76.0714 52.0536L52.311 45.1359C44.0466 42.7297 35.1292 45.0948 29.1434 51.2805L26.6135 53.8949L29.381 56.6624Z" fill="#227AFF"/>
</svg>
