<svg width="240" height="80" viewBox="0 0 240 80" fill="none" xmlns="http://www.w3.org/2000/svg">
<path d="M64.1625 30.0815C67.5273 33.4463 72.9828 33.4463 76.3476 30.0815C79.7124 26.7167 79.7124 21.2612 76.3476 17.8964C72.9828 14.5316 67.5273 14.5316 64.1625 17.8964C60.7977 21.2612 60.7977 26.7167 64.1625 30.0815Z" fill="#108CFF"/>
<path d="M45.2854 33.4429C39.3448 31.7133 32.9349 33.4134 28.6322 37.8597L24.4017 42.2316C17.2539 49.6181 20.8878 61.9777 30.896 64.3201C35.4151 65.3777 40.158 63.9908 43.3952 60.6649L62.9374 40.5874C63.6268 39.8792 63.3137 38.6918 62.3647 38.4155L45.2854 33.4429Z" fill="#FFCA62"/>
<path d="M45.5264 45.8726C39.615 47.6994 33.178 46.1047 28.803 41.7296L24.5013 37.4277C17.2333 30.1595 20.6639 17.7419 30.6324 15.2356C35.1335 14.104 39.8985 15.413 43.1898 18.6852L63.0588 38.4394C63.7597 39.1362 63.4661 40.3286 62.5218 40.6204L45.5264 45.8726Z" fill="#108CFF"/>
<path d="M124.373 28.7328V22.8472H106V54.059H112.066V42.0202H124.022V36.1345H112.066V28.7328H124.373Z" fill="white"/>
<path d="M131.342 29.0895C133.276 29.0895 134.859 27.4844 134.859 25.5671C134.859 23.6498 133.276 22 131.342 22C129.452 22 127.87 23.6498 127.87 25.5671C127.87 27.4844 129.452 29.0895 131.342 29.0895ZM128.529 54.059H134.2V31.7648H128.529V54.059Z" fill="white"/>
<path d="M145.06 35.5994V31.7648H139.389V54.059H145.06V43.4024C145.06 38.7206 148.796 37.383 151.741 37.7397V31.319C148.972 31.319 146.202 32.5674 145.06 35.5994Z" fill="white"/>
<path d="M159.032 45.2751H175.603C175.735 44.5171 175.823 43.7591 175.823 42.9119C175.823 36.3574 171.208 31.1406 164.703 31.1406C157.802 31.1406 153.098 36.2683 153.098 42.9119C153.098 49.5556 157.758 54.6832 165.142 54.6832C169.362 54.6832 172.658 52.9443 174.724 49.9123L170.153 47.237C169.186 48.53 167.428 49.4664 165.23 49.4664C162.241 49.4664 159.824 48.2179 159.032 45.2751ZM158.945 40.8163C159.604 37.9626 161.67 36.3128 164.703 36.3128C167.076 36.3128 169.45 37.6059 170.153 40.8163H158.945Z" fill="white"/>
<path d="M190.962 22.2229C183.973 22.2229 180.632 25.3887 180.632 31.5419V31.7648H177.467V37.2938H180.632V54.059H186.302V37.2938H189.951V31.7648H186.302V31.5419C186.302 28.5099 188.017 27.2614 190.962 27.2614C191.533 27.2614 192.148 27.2614 192.764 27.306V54.059H198.434V23.1593C196.016 22.6688 193.731 22.2229 190.962 22.2229Z" fill="white"/>
<path d="M217.934 31.7648L213.055 46.7465L207.341 31.7648H201.143L210.154 53.3456C209.099 56.333 207.517 57.6706 204.396 57.6261V62.9767C209.978 63.2888 213.715 60.4797 216 54.059L224 31.7648H217.934Z" fill="white"/>
</svg>
