<svg width="565" height="186" viewBox="0 0 565 186" fill="none" xmlns="http://www.w3.org/2000/svg">
<path d="M246.829 185.238H254.55C257.374 185.238 259.381 183.548 259.381 181.133C259.381 179.486 258.344 178.103 256.601 177.269C257.947 176.544 258.741 175.469 258.741 173.932C258.741 171.736 256.888 170.156 254.263 170.156H246.829V185.238ZM249.564 176.325V172.527H253.601C254.947 172.527 255.918 173.317 255.918 174.437C255.918 175.534 254.947 176.325 253.601 176.325H249.564ZM249.564 182.867V178.564H253.998C255.498 178.564 256.557 179.464 256.557 180.716C256.557 181.967 255.498 182.867 253.998 182.867H249.564Z" fill="#108CFF"/>
<path d="M283.279 172.658V170.156H271.874V185.238H283.279V182.736H274.631V178.806H282.463V176.303H274.631V172.658H283.279Z" fill="#108CFF"/>
<path d="M299.927 185.238H302.663V172.658H307.516V170.156H295.074V172.658H299.927V185.238Z" fill="#108CFF"/>
<path d="M330.064 185.238H333.108L326.777 170.156H323.71L317.379 185.238H320.446L321.593 182.516H328.916L330.064 185.238ZM322.585 180.145L325.255 173.8L327.924 180.145H322.585Z" fill="#108CFF"/>
<path d="M373.612 185.238L369.818 179.881C372.002 179.201 373.48 177.444 373.48 175.161C373.48 172.219 371.053 170.156 367.811 170.156H361.215V185.238H363.972V180.167H366.906L370.48 185.238H373.612ZM363.972 172.68H367.502C369.377 172.68 370.678 173.624 370.678 175.161C370.678 176.698 369.377 177.642 367.502 177.642H363.972V172.68Z" fill="#108CFF"/>
<path d="M397.303 172.658V170.156H385.898V185.238H397.303V182.736H388.656V178.806H396.487V176.303H388.656V172.658H397.303Z" fill="#108CFF"/>
<path d="M412.474 182.736V170.156H409.738V185.238H420.261V182.736H412.474Z" fill="#108CFF"/>
<path d="M443.826 172.658V170.156H432.421V185.238H443.826V182.736H435.179V178.806H443.01V176.303H435.179V172.658H443.826Z" fill="#108CFF"/>
<path d="M467.931 185.238H470.975L464.644 170.156H461.578L455.247 185.238H458.313L459.46 182.516H466.784L467.931 185.238ZM460.453 180.145L463.122 173.8L465.791 180.145H460.453Z" fill="#108CFF"/>
<path d="M488.511 185.48C492.129 185.48 494.203 183.57 494.203 180.869C494.203 178.125 492.085 177.115 488.931 176.413C486.526 175.864 485.401 175.425 485.401 174.195C485.401 173.141 486.438 172.219 487.96 172.219C489.46 172.219 490.982 172.856 492.306 173.998L493.806 171.978C492.284 170.682 490.475 169.87 488.07 169.87C484.872 169.87 482.622 171.802 482.622 174.437C482.622 177.269 484.805 178.169 487.938 178.893C490.364 179.464 491.445 179.881 491.445 181.133C491.445 182.209 490.475 183.131 488.6 183.131C486.614 183.131 485.004 182.34 483.614 181.089L482.026 183.043C483.702 184.602 485.908 185.48 488.511 185.48Z" fill="#108CFF"/>
<path d="M518.049 172.658V170.156H506.644V185.238H518.049V182.736H509.401V178.806H517.232V176.303H509.401V172.658H518.049Z" fill="#108CFF"/>
<path d="M154.713 69.9388C162.564 77.762 175.293 77.762 183.144 69.9388C190.996 62.1157 190.996 49.4318 183.144 41.6086C175.293 33.7854 162.564 33.7854 154.713 41.6086C146.861 49.4318 146.861 62.1157 154.713 69.9388Z" fill="#108CFF"/>
<path d="M110.667 77.7545C96.8053 73.7332 81.8488 77.6858 71.8093 88.0235L61.9379 98.1882C45.2598 115.362 53.739 144.098 77.0915 149.544C87.636 152.003 98.7027 148.778 106.256 141.046L151.855 94.3655C153.463 92.7188 152.733 89.958 150.518 89.3157L110.667 77.7545Z" fill="#FFCA62"/>
<path d="M111.229 106.653C97.4354 110.901 82.4158 107.193 72.2075 97.0209L62.17 87.019C45.2114 70.1204 53.2163 41.2495 76.4759 35.4225C86.9785 32.7914 98.0968 35.8347 105.777 43.4428L152.138 89.3712C153.773 90.9913 153.088 93.7637 150.885 94.4421L111.229 106.653Z" fill="#108CFF"/>
<path fill-rule="evenodd" clip-rule="evenodd" d="M72.206 97.0211C82.4144 107.193 97.434 110.901 111.227 106.653L150.883 94.4423C151.649 94.2066 152.231 93.7183 152.596 93.1134C153.053 91.5781 152.228 89.8152 150.516 89.3186L110.665 77.7574C96.8032 73.7361 81.8467 77.6888 71.8072 88.0265L67.5641 92.3956L72.206 97.0211Z" fill="#0066FF"/>
<path d="M295.205 66.8033V53.1191H252.334V125.687H266.488V97.6963H294.384V84.0121H266.488V66.8033H295.205Z" fill="white"/>
<path d="M311.466 67.6326C315.979 67.6326 319.671 63.9006 319.671 59.4428C319.671 54.9851 315.979 51.1494 311.466 51.1494C307.056 51.1494 303.364 54.9851 303.364 59.4428C303.364 63.9006 307.056 67.6326 311.466 67.6326ZM304.902 125.687H318.133V73.8527H304.902V125.687Z" fill="white"/>
<path d="M343.473 82.7681V73.8527H330.242V125.687H343.473V100.91C343.473 90.0248 352.191 86.9148 359.062 87.7442V72.816C352.601 72.816 346.14 75.7187 343.473 82.7681Z" fill="white"/>
<path d="M376.076 105.264H414.742C415.05 103.502 415.255 101.739 415.255 99.7696C415.255 84.5305 404.486 72.4013 389.307 72.4013C373.205 72.4013 362.23 84.3231 362.23 99.7696C362.23 115.216 373.102 127.138 390.332 127.138C400.178 127.138 407.87 123.095 412.691 116.045L402.024 109.825C399.768 112.832 395.666 115.009 390.538 115.009C383.563 115.009 377.922 112.106 376.076 105.264ZM375.871 94.8972C377.41 88.2625 382.23 84.4268 389.307 84.4268C394.845 84.4268 400.383 87.4332 402.024 94.8972H375.871Z" fill="white"/>
<path d="M450.578 51.6678C434.27 51.6678 426.476 59.0282 426.476 73.3343V73.8527H419.091V86.7075H426.476V125.687H439.706V86.7075H448.219V73.8527H439.706V73.3343C439.706 66.2849 443.706 63.3822 450.578 63.3822C451.911 63.3822 453.347 63.3822 454.783 63.4859V125.687H468.013V53.8448C462.372 52.7044 457.039 51.6678 450.578 51.6678Z" fill="white"/>
<path d="M513.514 73.8527L502.129 108.685L488.796 73.8527H474.335L495.36 124.028C492.899 130.974 489.207 134.084 481.925 133.98V146.42C494.95 147.146 503.668 140.615 509.001 125.687L527.667 73.8527H513.514Z" fill="white"/>
</svg>
