<svg width="342" height="112" viewBox="0 0 342 112" fill="none" xmlns="http://www.w3.org/2000/svg">
<path d="M91.6497 42.0288C96.4314 46.73 104.184 46.73 108.966 42.0288C113.748 37.3276 113.748 29.7056 108.966 25.0044C104.184 20.3032 96.4314 20.3032 91.6497 25.0044C86.868 29.7056 86.868 37.3276 91.6497 42.0288Z" fill="#108CFF"/>
<path d="M64.8235 46.7253C56.3813 44.3088 47.2722 46.6841 41.1578 52.8963L35.1457 59.0045C24.9881 69.3245 30.1523 86.5929 44.3749 89.8655C50.7969 91.3432 57.5369 89.4054 62.1373 84.7587L89.9086 56.7073C90.8883 55.7178 90.4434 54.0588 89.0948 53.6727L64.8235 46.7253Z" fill="#FFCA62"/>
<path d="M65.1661 64.0915C56.7654 66.6439 47.6179 64.4159 41.4006 58.3031L35.2874 52.2927C24.9589 42.1379 29.8342 24.7886 44.0003 21.287C50.3968 19.7059 57.1683 21.5347 61.8455 26.1066L90.0813 53.7062C91.0773 54.6798 90.6602 56.3458 89.3182 56.7535L65.1661 64.0915Z" fill="#108CFF"/>
<path fill-rule="evenodd" clip-rule="evenodd" d="M41.4 58.3029C47.6173 64.4156 56.7648 66.6436 65.1655 64.0913L89.3176 56.7532C89.7839 56.6115 90.1386 56.3179 90.3611 55.9542C90.6392 55.0317 90.1367 53.9726 89.0943 53.6742L64.8229 46.7268C56.3808 44.3103 47.2716 46.6855 41.1572 52.8977L38.5729 55.5233L41.4 58.3029Z" fill="#0066FF"/>
<path d="M177.215 40.1446V31.9214H151.105V75.5292H159.725V58.7091H176.715V50.4859H159.725V40.1446H177.215Z" fill="#25395F"/>
<path d="M187.119 40.643C189.867 40.643 192.116 38.4003 192.116 35.7215C192.116 33.0428 189.867 30.7378 187.119 30.7378C184.433 30.7378 182.184 33.0428 182.184 35.7215C182.184 38.4003 184.433 40.643 187.119 40.643ZM183.121 75.5292H191.179V44.3808H183.121V75.5292Z" fill="#25395F"/>
<path d="M206.612 49.7383V44.3808H198.554V75.5292H206.612V60.6403C206.612 54.0991 211.921 52.2302 216.106 52.7286V43.7578C212.171 43.7578 208.236 45.5021 206.612 49.7383Z" fill="#25395F"/>
<path d="M226.469 63.2567H250.018C250.205 62.1977 250.33 61.1386 250.33 59.955C250.33 50.7974 243.771 43.5086 234.527 43.5086C224.72 43.5086 218.036 50.6728 218.036 59.955C218.036 69.2372 224.657 76.4014 235.151 76.4014C241.148 76.4014 245.833 73.9718 248.768 69.7356L242.272 65.9978C240.898 67.8044 238.399 69.1126 235.276 69.1126C231.029 69.1126 227.593 67.3683 226.469 63.2567ZM226.344 57.0271C227.281 53.0401 230.217 50.7351 234.527 50.7351C237.9 50.7351 241.273 52.5417 242.272 57.0271H226.344Z" fill="#25395F"/>
<path d="M271.843 31.0493C261.911 31.0493 257.164 35.4724 257.164 44.0693V44.3808H252.667V52.1056H257.164V75.5292H265.222V52.1056H270.406V44.3808H265.222V44.0693C265.222 39.8331 267.658 38.0888 271.843 38.0888C272.655 38.0888 273.53 38.0888 274.404 38.1511V75.5292H282.462V32.3575C279.027 31.6722 275.778 31.0493 271.843 31.0493Z" fill="#25395F"/>
<path d="M310.174 44.3808L303.24 65.3125L295.12 44.3808H286.312L299.118 74.5325C297.618 78.7063 295.37 80.5752 290.935 80.513V87.9886C298.868 88.4246 304.177 84.4999 307.425 75.5292L318.794 44.3808H310.174Z" fill="#25395F"/>
<path d="M150.798 111.599H155.5C157.22 111.599 158.442 110.57 158.442 109.099C158.442 108.096 157.811 107.253 156.749 106.745C157.569 106.304 158.053 105.649 158.053 104.713C158.053 103.376 156.924 102.413 155.325 102.413H150.798V111.599ZM152.464 106.17V103.857H154.922C155.742 103.857 156.333 104.339 156.333 105.02C156.333 105.689 155.742 106.17 154.922 106.17H152.464ZM152.464 110.155V107.534H155.164C156.078 107.534 156.723 108.082 156.723 108.845C156.723 109.607 156.078 110.155 155.164 110.155H152.464Z" fill="#108CFF"/>
<path d="M172.997 103.937V102.413H166.051V111.599H172.997V110.075H167.73V107.681H172.5V106.157H167.73V103.937H172.997Z" fill="#108CFF"/>
<path d="M183.137 111.599H184.803V103.937H187.758V102.413H180.181V103.937H183.137V111.599Z" fill="#108CFF"/>
<path d="M201.491 111.599H203.345L199.489 102.413H197.621L193.766 111.599H195.633L196.332 109.941H200.792L201.491 111.599ZM196.936 108.497L198.562 104.633L200.188 108.497H196.936Z" fill="#108CFF"/>
<path d="M228.014 111.599L225.703 108.337C227.033 107.922 227.933 106.852 227.933 105.462C227.933 103.67 226.455 102.413 224.48 102.413H220.463V111.599H222.143V108.51H223.93L226.106 111.599H228.014ZM222.143 103.951H224.292C225.434 103.951 226.227 104.526 226.227 105.462C226.227 106.398 225.434 106.973 224.292 106.973H222.143V103.951Z" fill="#108CFF"/>
<path d="M242.442 103.937V102.413H235.496V111.599H242.442V110.075H237.176V107.681H241.945V106.157H237.176V103.937H242.442Z" fill="#108CFF"/>
<path d="M251.682 110.075V102.413H250.016V111.599H256.425V110.075H251.682Z" fill="#108CFF"/>
<path d="M270.777 103.937V102.413H263.831V111.599H270.777V110.075H265.51V107.681H270.28V106.157H265.51V103.937H270.777Z" fill="#108CFF"/>
<path d="M285.458 111.599H287.312L283.456 102.413H281.588L277.733 111.599H279.6L280.299 109.941H284.759L285.458 111.599ZM280.903 108.497L282.529 104.633L284.154 108.497H280.903Z" fill="#108CFF"/>
<path d="M297.992 111.746C300.195 111.746 301.458 110.583 301.458 108.938C301.458 107.267 300.169 106.652 298.247 106.224C296.783 105.89 296.098 105.622 296.098 104.873C296.098 104.232 296.729 103.67 297.656 103.67C298.57 103.67 299.497 104.058 300.303 104.753L301.216 103.523C300.289 102.734 299.188 102.239 297.723 102.239C295.775 102.239 294.405 103.416 294.405 105.02C294.405 106.745 295.735 107.294 297.643 107.735C299.121 108.082 299.779 108.337 299.779 109.099C299.779 109.754 299.188 110.315 298.046 110.315C296.837 110.315 295.856 109.834 295.009 109.072L294.042 110.262C295.063 111.211 296.407 111.746 297.992 111.746Z" fill="#108CFF"/>
<path d="M315.981 103.937V102.413H309.035V111.599H315.981V110.075H310.715V107.681H315.484V106.157H310.715V103.937H315.981Z" fill="#108CFF"/>
</svg>
