<svg width="64" height="64" viewBox="0 0 64 64" fill="none" xmlns="http://www.w3.org/2000/svg">
<circle r="7" transform="matrix(-4.37114e-08 1 1 4.37114e-08 50 9)" fill="#108CFF"/>
<path d="M28.9836 17.3459C24.1075 15.8695 18.8463 17.3207 15.3147 21.1161L11.8422 24.8479C5.97529 31.153 8.95805 41.7031 17.1728 43.7025C20.8821 44.6053 24.775 43.4214 27.4321 40.5825L43.4724 23.4444C44.0382 22.8399 43.7812 21.8263 43.0023 21.5904L28.9836 17.3459Z" fill="#FFCA62"/>
<path d="M28.8087 27.8252C23.8705 29.3453 18.4934 28.0184 14.8387 24.3779L11.2452 20.7983C5.17384 14.7505 8.03967 4.418 16.3668 2.33259C20.1269 1.39095 24.1073 2.48013 26.8567 5.20296L43.4544 21.6401C44.0399 22.22 43.7947 23.2122 43.0059 23.455L28.8087 27.8252Z" fill="#108CFF"/>
<path d="M15.2019 24.4586C18.8554 28.1122 24.2309 29.4439 29.1675 27.9183L43.3602 23.5324C43.6342 23.4477 43.8425 23.2722 43.9733 23.0549C44.1368 22.5035 43.8415 21.8704 43.2289 21.692L28.9661 17.5395C24.0052 16.0952 18.6523 17.5149 15.0592 21.2279L13.5406 22.7973L15.2019 24.4586Z" fill="#0066FF"/>
<path d="M11 62H14.8479C16.2552 62 17.2557 61.1033 17.2557 59.8224C17.2557 58.9491 16.7389 58.2154 15.8704 57.7729C16.541 57.3886 16.9368 56.818 16.9368 56.0029C16.9368 54.8384 16.0133 54 14.705 54H11V62ZM12.3633 57.2722V55.2576H14.3752C15.0458 55.2576 15.5296 55.6769 15.5296 56.2707C15.5296 56.853 15.0458 57.2722 14.3752 57.2722H12.3633ZM12.3633 60.7424V58.46H14.5731C15.3207 58.46 15.8484 58.9374 15.8484 59.6012C15.8484 60.2649 15.3207 60.7424 14.5731 60.7424H12.3633Z" fill="#108CFF"/>
<path d="M29.166 55.3275V54H23.482V62H29.166V60.6725H24.8563V58.5881H28.7592V57.2606H24.8563V55.3275H29.166Z" fill="#108CFF"/>
<path d="M37.4635 62H38.8267V55.3275H41.2454V54H35.0447V55.3275H37.4635V62Z" fill="#108CFF"/>
<path d="M52.4828 62H54L50.8447 54H49.3165L46.1612 62H47.6894L48.2611 60.556H51.9111L52.4828 62ZM48.7558 59.2984L50.0861 55.933L51.4164 59.2984H48.7558Z" fill="#108CFF"/>
</svg>
