<svg width="196" height="64" viewBox="0 0 196 64" fill="none" xmlns="http://www.w3.org/2000/svg">
<path d="M62.3506 24.0654C59.6026 26.7573 55.1474 26.7573 52.3994 24.0654C49.6515 21.3736 49.6515 17.0092 52.3994 14.3174C55.1474 11.6255 59.6026 11.6255 62.3506 14.3174C65.0985 17.0092 65.0985 21.3736 62.3506 24.0654Z" fill="#108CFF"/>
<path d="M36.9135 26.7349C32.1046 25.3633 26.8959 26.7316 23.381 30.2898L20.0424 33.6695C14.1532 39.6312 17.0539 49.5815 25.2274 51.4554C28.9203 52.3021 32.811 51.1772 35.4798 48.4913L51.387 32.4819C51.9552 31.91 51.7057 30.9537 50.9306 30.7326L36.9135 26.7349Z" fill="#FFCA62"/>
<path d="M37.1142 36.7178C32.3264 38.1671 27.0941 36.8832 23.5201 33.3821L20.1185 30.0499C14.1332 24.1866 16.8708 14.1945 25.0118 12.1895C28.6899 11.2836 32.598 12.345 35.3099 14.9862L51.4862 30.7408C52.0636 31.3031 51.8298 32.263 51.0585 32.4965L37.1142 36.7178Z" fill="#108CFF"/>
<path fill-rule="evenodd" clip-rule="evenodd" d="M23.5212 33.3821C27.0951 36.8832 32.3275 38.1671 37.1153 36.7177L51.0596 32.4964C51.3235 32.4165 51.5245 32.2516 51.6516 32.0465C51.8153 31.5142 51.5302 30.9041 50.9312 30.7333L36.9141 26.7356C32.1052 25.364 26.8965 26.7323 23.3816 30.2905L21.8982 31.7922L23.5212 33.3821Z" fill="#0066FF"/>
<path d="M101.571 14.3863V9.6777H86.5664V34.6472H91.5201V25.0161H101.284V20.3076H91.5201V14.3863H101.571Z" fill="#25395F"/>
<path d="M107.263 14.6716C108.842 14.6716 110.134 13.3875 110.134 11.8536C110.134 10.3198 108.842 9 107.263 9C105.719 9 104.427 10.3198 104.427 11.8536C104.427 13.3875 105.719 14.6716 107.263 14.6716ZM104.965 34.6472H109.596V16.8119H104.965V34.6472Z" fill="#25395F"/>
<path d="M118.465 19.8795V16.8119H113.834V34.6472H118.465V26.1219C118.465 22.3765 121.516 21.3064 123.921 21.5917V16.4552C121.66 16.4552 119.398 17.4539 118.465 19.8795Z" fill="#25395F"/>
<path d="M129.876 27.6201H143.409C143.517 27.0137 143.589 26.4073 143.589 25.7295C143.589 20.4859 139.82 16.3125 134.507 16.3125C128.871 16.3125 125.03 20.4146 125.03 25.7295C125.03 31.0445 128.835 35.1466 134.866 35.1466C138.312 35.1466 141.004 33.7554 142.691 31.3298L138.958 29.1896C138.168 30.224 136.732 30.9731 134.938 30.9731C132.497 30.9731 130.522 29.9743 129.876 27.6201ZM129.804 24.053C130.343 21.7701 132.03 20.4503 134.507 20.4503C136.445 20.4503 138.384 21.4847 138.958 24.053H129.804Z" fill="#25395F"/>
<path d="M155.952 9.17841C150.244 9.17841 147.516 11.711 147.516 16.6335V16.8119H144.931V21.235H147.516V34.6472H152.147V21.235H155.126V16.8119H152.147V16.6335C152.147 14.2079 153.547 13.2091 155.952 13.2091C156.418 13.2091 156.921 13.2091 157.423 13.2448V34.6472H162.054V9.92741C160.08 9.53511 158.213 9.17841 155.952 9.17841Z" fill="#25395F"/>
<path d="M177.979 16.8119L173.995 28.7972L169.328 16.8119H164.267L171.626 34.0765C170.764 36.4664 169.472 37.5365 166.923 37.5008V41.7813C171.482 42.031 174.533 39.7838 176.4 34.6472L182.933 16.8119H177.979Z" fill="#25395F"/>
<path d="M86 55.3225H88.7328C89.7323 55.3225 90.4428 54.7811 90.4428 54.0075C90.4428 53.4801 90.0758 53.037 89.459 52.7698C89.9353 52.5377 90.2164 52.1932 90.2164 51.7009C90.2164 50.9977 89.5605 50.4913 88.6313 50.4913H86V55.3225ZM86.9682 52.4674V51.2508H88.3971C88.8734 51.2508 89.2169 51.504 89.2169 51.8626C89.2169 52.2142 88.8734 52.4674 88.3971 52.4674H86.9682ZM86.9682 54.5631V53.1847H88.5376C89.0686 53.1847 89.4434 53.473 89.4434 53.8739C89.4434 54.2747 89.0686 54.5631 88.5376 54.5631H86.9682Z" fill="#108CFF"/>
<path d="M98.9016 51.293V50.4913H94.8648V55.3225H98.9016V54.5209H95.8408V53.2621H98.6127V52.4604H95.8408V51.293H98.9016Z" fill="#108CFF"/>
<path d="M104.795 55.3225H105.763V51.293H107.481V50.4913H103.077V51.293H104.795V55.3225Z" fill="#108CFF"/>
<path d="M115.461 55.3225H116.539L114.298 50.4913H113.213L110.972 55.3225H112.057L112.463 54.4505H115.055L115.461 55.3225ZM112.814 53.691L113.759 51.6587L114.704 53.691H112.814Z" fill="#108CFF"/>
<path d="M130.876 55.3225L129.533 53.6067C130.306 53.3887 130.829 52.8261 130.829 52.0947C130.829 51.1524 129.97 50.4913 128.822 50.4913H126.488V55.3225H127.464V53.6981H128.502L129.767 55.3225H130.876ZM127.464 51.3H128.713C129.377 51.3 129.837 51.6024 129.837 52.0947C129.837 52.587 129.377 52.8894 128.713 52.8894H127.464V51.3Z" fill="#108CFF"/>
<path d="M139.261 51.293V50.4913H135.225V55.3225H139.261V54.5209H136.201V53.2621H138.972V52.4604H136.201V51.293H139.261Z" fill="#108CFF"/>
<path d="M144.631 54.5209V50.4913H143.663V55.3225H147.387V54.5209H144.631Z" fill="#108CFF"/>
<path d="M155.728 51.293V50.4913H151.692V55.3225H155.728V54.5209H152.668V53.2621H155.44V52.4604H152.668V51.293H155.728Z" fill="#108CFF"/>
<path d="M164.261 55.3225H165.338L163.097 50.4913H162.012L159.771 55.3225H160.856L161.262 54.4505H163.855L164.261 55.3225ZM161.614 53.691L162.558 51.6587L163.503 53.691H161.614Z" fill="#108CFF"/>
<path d="M171.545 55.3999C172.826 55.3999 173.56 54.7881 173.56 53.9231C173.56 53.0441 172.81 52.7206 171.693 52.4955C170.842 52.3197 170.444 52.1791 170.444 51.7853C170.444 51.4477 170.811 51.1524 171.35 51.1524C171.881 51.1524 172.42 51.3563 172.888 51.722L173.419 51.075C172.88 50.6601 172.24 50.3999 171.389 50.3999C170.257 50.3999 169.46 51.0187 169.46 51.8626C169.46 52.7698 170.233 53.0581 171.342 53.2902C172.201 53.473 172.584 53.6067 172.584 54.0075C172.584 54.3521 172.24 54.6474 171.576 54.6474C170.874 54.6474 170.304 54.3943 169.812 53.9934L169.25 54.6193C169.843 55.1186 170.624 55.3999 171.545 55.3999Z" fill="#108CFF"/>
<path d="M182 51.293V50.4913H177.963V55.3225H182V54.5209H178.939V53.2621H181.711V52.4604H178.939V51.293H182Z" fill="#108CFF"/>
</svg>
