<svg width="141" height="56" viewBox="0 0 141 56" fill="none" xmlns="http://www.w3.org/2000/svg">
<path d="M69.2905 44.9462C71.2568 44.9462 72.1088 43.933 72.1088 42.7491C72.1088 40.0934 67.8703 40.9146 67.8703 39.5921C67.8703 39.0588 68.351 38.7068 69.1047 38.7068C69.8694 38.7068 70.645 38.9628 71.2131 39.5174L71.945 38.5895C71.2677 37.9495 70.3501 37.5976 69.214 37.5976C67.6191 37.5976 66.5595 38.5042 66.5595 39.6774C66.5595 42.3012 70.8089 41.3732 70.8089 42.8664C70.8089 43.3357 70.3938 43.837 69.3451 43.837C68.3292 43.837 67.5426 43.3784 67.0401 42.8558L66.3301 43.8157C66.9746 44.4876 67.9468 44.9462 69.2905 44.9462Z" fill="#8493AD"/>
<path d="M76.4127 44.8183V38.8028H78.6193V37.7042H72.9279V38.8028H75.1346V44.8183H76.4127Z" fill="#8493AD"/>
<path d="M85.5576 44.8183L83.777 42.0238C84.6509 41.8852 85.503 41.2026 85.503 39.9334C85.503 38.6215 84.5635 37.7042 83.1216 37.7042H79.9209V44.8183H81.1989V42.1625H82.4661L84.0829 44.8183H85.5576ZM82.9468 41.0639H81.1989V38.8028H82.9468C83.6677 38.8028 84.1921 39.2508 84.1921 39.9334C84.1921 40.616 83.6677 41.0639 82.9468 41.0639Z" fill="#8493AD"/>
<path d="M90.3961 44.9462C92.5809 44.9462 94.1211 43.3891 94.1211 41.2666C94.1211 39.1441 92.5809 37.5869 90.3961 37.5869C88.2113 37.5869 86.671 39.1441 86.671 41.2666C86.671 43.3891 88.2113 44.9462 90.3961 44.9462ZM90.3961 43.837C88.9214 43.837 87.9819 42.7278 87.9819 41.2666C87.9819 39.7947 88.9214 38.6961 90.3961 38.6961C91.8599 38.6961 92.8103 39.7947 92.8103 41.2666C92.8103 42.7278 91.8599 43.837 90.3961 43.837Z" fill="#8493AD"/>
<path d="M101.884 44.8183V37.7042H100.606V42.6425L96.8811 37.7042H95.5702V44.8183H96.8483V39.7414L100.65 44.8183H101.884Z" fill="#8493AD"/>
<path d="M107.147 44.9569C108.414 44.9569 109.43 44.445 110.151 43.6664V40.9999H106.699V42.0985H108.873V43.2077C108.545 43.5064 107.889 43.8477 107.147 43.8477C105.705 43.8477 104.634 42.7598 104.634 41.2666C104.634 39.7734 105.705 38.6961 107.147 38.6961C107.966 38.6961 108.654 39.1121 109.036 39.6454L110.085 39.0694C109.495 38.2482 108.567 37.5869 107.147 37.5869C105.038 37.5869 103.323 39.0374 103.323 41.2666C103.323 43.4957 105.038 44.9569 107.147 44.9569Z" fill="#8493AD"/>
<path d="M118.046 44.8183V37.7042H116.768V40.616H112.978V37.7042H111.7V44.8183H112.978V41.7145H116.768V44.8183H118.046Z" fill="#8493AD"/>
<path d="M123.21 44.9462C125.394 44.9462 126.935 43.3891 126.935 41.2666C126.935 39.1441 125.394 37.5869 123.21 37.5869C121.025 37.5869 119.485 39.1441 119.485 41.2666C119.485 43.3891 121.025 44.9462 123.21 44.9462ZM123.21 43.837C121.735 43.837 120.795 42.7278 120.795 41.2666C120.795 39.7947 121.735 38.6961 123.21 38.6961C124.673 38.6961 125.624 39.7947 125.624 41.2666C125.624 42.7278 124.673 43.837 123.21 43.837Z" fill="#8493AD"/>
<path d="M132.873 44.8183V43.7197H129.662V37.7042H128.384V44.8183H132.873Z" fill="#8493AD"/>
<path d="M136.955 44.8183C139.227 44.8183 140.767 43.3571 140.767 41.2666C140.767 39.1761 139.227 37.7042 136.955 37.7042H134.245V44.8183H136.955ZM136.955 43.7197H135.524V38.8028H136.955C138.582 38.8028 139.456 39.8907 139.456 41.2666C139.456 42.6105 138.539 43.7197 136.955 43.7197Z" fill="#8493AD"/>
<path d="M68.5603 12.1445H66.3643V31.3874H68.5603V12.1445Z" fill="white"/>
<path d="M75.6299 21.7504C75.6299 16.3585 80.1516 11.792 85.469 11.792C90.8173 11.792 95.2743 16.3245 95.2743 21.7504C95.2743 27.1764 90.7865 31.7089 85.469 31.7089C80.1824 31.7398 75.6299 27.1764 75.6299 21.7504ZM93.0782 21.7504C93.0782 17.4746 89.6083 13.8356 85.469 13.8356C81.3298 13.8356 77.829 17.4746 77.829 21.7504C77.829 26.0603 81.3298 29.6962 85.469 29.6962C89.6083 29.6962 93.0782 26.0603 93.0782 21.7504Z" fill="white"/>
<path d="M106.546 14.2191H100.084V12.1445H115.176V14.2191H108.711V31.3874H106.515L106.546 14.2191Z" fill="white"/>
<path d="M126.697 14.8251L119.406 31.3874H117.019L125.01 13.2297C125.297 12.5588 125.966 12.1445 126.666 12.1445C127.397 12.1445 128.036 12.5588 128.323 13.2297L136.314 31.3874H133.927L126.697 14.8251Z" fill="white"/>
<path d="M23.1942 0.244507C23.5687 0.0283116 24.1245 -0.017962 24.6612 0.00552189C25.7438 0.0528863 26.7497 0.519148 27.6881 1.06094L47.9284 12.7467C48.8812 13.2968 49.4682 14.3135 49.4682 15.4138V40.4181C49.4682 41.5184 48.8812 42.5351 47.9284 43.0852L26.274 55.5874C25.3211 56.1375 24.1471 56.1375 23.1942 55.5874L1.53987 43.0852C0.586995 42.5351 0 41.5184 0 40.4181V15.4138C0 14.3135 0.586994 13.2968 1.53987 12.7467L23.1942 0.244507Z" fill="url(#paint0_linear)"/>
<path fill-rule="evenodd" clip-rule="evenodd" d="M29.1525 16.0501C29.1885 15.5786 28.9514 15.1281 28.5424 14.8908L26.3699 13.6303C25.4141 13.0757 24.2345 13.0757 23.2787 13.6303L21.2847 14.7873C20.8757 15.0246 20.6387 15.475 20.6746 15.9465L20.8135 17.7676C20.8482 18.2217 20.6295 18.6578 20.245 18.9016L18.6763 19.8965C18.0632 20.2853 17.2487 20.0624 16.919 19.4156L16.6854 18.9575C16.3645 18.3279 15.5809 18.0968 14.9697 18.4514L13.255 19.4464C12.1477 20.0888 11.5534 21.3492 11.762 22.6121L13.5348 33.3429C13.8217 35.0801 14.8385 36.6115 16.3282 37.5501L23.8273 42.2754C24.4354 42.6586 25.2106 42.6543 25.8145 42.2645L33.1622 37.5217C34.5929 36.5983 35.5774 35.1237 35.882 33.4483L37.8463 22.6425C38.0785 21.3652 37.4848 20.0794 36.3618 19.4279L34.8228 18.5349C34.2116 18.1803 33.428 18.4114 33.1071 19.0409L32.9161 19.4157C32.5864 20.0624 31.7718 20.2853 31.1588 19.8965L29.5901 18.9017C29.2056 18.6578 28.9869 18.2217 29.0215 17.7676L29.1525 16.0501ZM26.1744 29.8175C27.1957 29.3221 27.8998 28.2752 27.8998 27.0639C27.8998 25.3746 26.5304 24.0052 24.8411 24.0052C23.1518 24.0052 21.7824 25.3746 21.7824 27.0639C21.7824 28.2122 22.4151 29.2127 23.3509 29.7357V33.2597C23.3509 34.0394 23.983 34.6714 24.7627 34.6714C25.5423 34.6714 26.1744 34.0394 26.1744 33.2597V29.8175Z" fill="#F6F8FC"/>
<defs>
<linearGradient id="paint0_linear" x1="24.7341" y1="0" x2="24.7341" y2="56" gradientUnits="userSpaceOnUse">
<stop stop-color="#8493AD"/>
<stop offset="1" stop-color="#131F37"/>
</linearGradient>
</defs>
</svg>
