<?xml version="1.0" encoding="UTF-8"?>
<svg width="1024px" height="1024px" viewBox="0 0 1024 1024" version="1.1" xmlns="http://www.w3.org/2000/svg" xmlns:xlink="http://www.w3.org/1999/xlink">
    <title>Icon-App-iTunes</title>
    <g id="Template---App-Icons" stroke="none" stroke-width="1" fill="none" fill-rule="evenodd">
        <g id="Group">
            <rect id="App-Icon-1024x1024" fill="#FFFFFF" x="0" y="0" width="1024" height="1024"></rect>
            <path d="M421.991777,263.579519 L423.161208,264.739002 L657.435612,499.464494 C661.127357,503.16338 662.479244,508.037507 661.852518,512.607809 C662.462872,517.207936 661.196781,522.116252 657.695622,525.900696 L431.611798,770.269959 C394.160838,810.750473 339.290377,827.631341 287.009323,814.758436 C171.224572,786.248852 129.183556,635.816185 211.876249,545.912811 L235.421697,520.313158 L202.805716,487.44384 C117.965995,401.943351 156.763373,256.474349 271.594481,224.677712 L275.097435,223.74915 C327.638769,210.437387 383.229912,225.547927 421.991777,263.579519 Z M599.052853,541.590789 L450.711895,587.788682 C383.146062,608.830428 309.757229,591.669574 258.335763,543.244754 L235.461196,568.114273 C168.619057,640.784788 204.058092,760.78985 294.628542,783.091532 C335.355122,793.119181 378.399685,780.090651 408.090478,747.99924 L599.052853,541.590789 Z M284.404613,514.902629 L280.313584,519.349488 C323.295897,559.827196 384.683418,574.199958 441.220224,556.592591 L582.626722,512.553947 L444.144044,470.136308 C387.450126,452.770638 325.992181,469.688987 284.404613,514.902629 Z M282.934839,255.411999 C189.615939,279.055911 157.754962,395.971483 225.574272,464.318095 L257.411915,496.403947 L260.819666,492.701167 C310.596686,438.583474 384.752793,417.891822 453.479602,438.942797 L594.201478,482.046053 L400.45879,287.930844 C369.684257,257.097061 325.086794,244.732051 282.934839,255.411999 Z M764.5,219 C821.109286,219 867,264.890714 867,321.5 C867,378.109286 821.109286,424 764.5,424 C707.890714,424 662,378.109286 662,321.5 C662,264.890714 707.890714,219 764.5,219 Z M764.5,252.469388 C726.375857,252.469388 695.469388,283.375857 695.469388,321.5 C695.469388,359.624143 726.37502,390.530612 764.5,390.530612 C802.624143,390.530612 833.530612,359.624143 833.530612,321.5 C833.530612,283.375857 802.624143,252.469388 764.5,252.469388 Z" id="Combined-Shape" fill="#25395F"></path>
        </g>
    </g>
</svg>