<svg width="72" height="72" viewBox="0 0 72 72" fill="none" xmlns="http://www.w3.org/2000/svg">
<circle cx="36" cy="36" r="36" fill="#D2F5FD"/>
<path d="M26.6533 49.0426L20.2993 34.6476C20.1868 34.3665 20.1868 34.0853 20.2431 33.9166L65.6771 28.4623C65.7896 28.631 65.7896 29.0246 65.5084 29.1933L26.6533 49.0426Z" fill="url(#paint0_linear_1_10)"/>
<path d="M28.396 27.1687C26.3717 27.5623 24.5161 28.6869 23.1666 30.2614L20.58 33.354C20.4113 33.5227 20.2988 33.6914 20.2426 33.8601L65.6767 28.4058C65.5642 28.1808 65.3955 28.1246 65.1706 28.1246L28.9583 27L28.396 27.1687Z" fill="white"/>
<path d="M22.0987 50.1101L19.3435 43.1938L65.7334 28.5739C65.7897 28.6863 65.8459 29.0237 65.5085 29.2486L24.7978 50.9535C23.8981 51.4034 22.7173 51.5158 22.0987 50.1101Z" fill="url(#paint1_linear_1_10)"/>
<path d="M65.7333 28.5739C65.7333 28.5739 65.7896 28.7426 65.7896 28.7988L11.8647 46.3989C10.234 46.9612 8.49091 47.1299 6.74777 46.905C6.01678 46.8487 5.73563 45.8928 6.29793 45.3867L16.4194 37.1771C16.6443 36.9522 16.9817 36.7835 17.2628 36.7273L65.7333 28.5739Z" fill="white"/>
<path d="M65.7333 28.5739C65.7333 28.5739 65.7896 28.7426 65.7896 28.7988L10.8526 46.7363L27.6654 35.1528C28.059 34.8717 28.5651 34.703 29.015 34.5905L65.7333 28.5739Z" fill="white"/>
<defs>
<linearGradient id="paint0_linear_1_10" x1="38.3946" y1="54.7616" x2="42.9015" y2="37.1012" gradientUnits="userSpaceOnUse">
<stop stop-color="white"/>
<stop offset="1" stop-color="#5EE1FE"/>
</linearGradient>
<linearGradient id="paint1_linear_1_10" x1="37.8878" y1="57.559" x2="37.5" y2="36.9997" gradientUnits="userSpaceOnUse">
<stop stop-color="white"/>
<stop offset="1" stop-color="#5EE1FE"/>
</linearGradient>
</defs>
</svg>
