<svg width="72" height="72" viewBox="0 0 72 72" fill="none" xmlns="http://www.w3.org/2000/svg">
<circle cx="36" cy="36" r="36" fill="#FFE9C0"/>
<path d="M25.9999 48.1953L26.0566 49.6766C26.0566 51.0539 29.7367 52.2519 34.3517 52.5169C39.6703 52.8296 44.5896 51.7806 45.4909 50.1553C45.6071 49.9473 45.6055 49.7414 45.6055 49.5065L45.5672 48.1329C45.5672 48.3449 45.5308 48.4459 45.4249 48.6781C44.5236 50.3035 39.4522 51.3483 34.1336 51.0356C29.5186 50.7706 26.2374 49.569 25.9999 48.1953Z" fill="#EDAC31"/>
<path d="M37.4149 45.1987C32.0963 44.886 27.042 45.935 26.1407 47.5603C25.2395 49.1857 28.8145 50.7488 34.1599 51.0494C39.4785 51.3621 44.5328 50.3131 45.4341 48.6878C46.3354 47.0624 42.7335 45.5113 37.4149 45.1987Z" fill="#FCCC34"/>
<path d="M36.7839 46.6341C33.4779 46.4928 29.6074 47.0246 29.0737 47.7912C28.5156 48.5471 31.4417 49.2422 34.7478 49.3836C38.0538 49.525 41.9638 48.9895 42.5218 48.2335C43.1057 47.4688 40.09 46.7755 36.7839 46.6341Z" fill="#FFE592"/>
<path d="M25.9999 43.7666L26.0566 45.2479C26.0566 46.6252 29.7367 47.8232 34.3517 48.0882C39.6703 48.4009 44.5896 47.3519 45.4909 45.7266C45.6071 45.5186 45.6055 45.3127 45.6055 45.0778L45.5672 43.7042C45.5672 43.9162 45.5308 44.0172 45.4249 44.2494C44.5236 45.8747 39.4522 46.9196 34.1336 46.6069C29.5186 46.3419 26.2374 45.1403 25.9999 43.7666Z" fill="#EDAC31"/>
<path d="M37.4149 40.7699C32.0963 40.4573 27.042 41.5062 26.1407 43.1316C25.2395 44.7569 28.8145 46.3201 34.1599 46.6207C39.4785 46.9334 44.5328 45.8844 45.4341 44.2591C46.3354 42.6337 42.7335 41.0826 37.4149 40.7699Z" fill="#FCCC34"/>
<path d="M36.7839 42.2054C33.4779 42.0641 29.6074 42.5959 29.0737 43.3625C28.5156 44.1184 31.4417 44.8135 34.7478 44.9549C38.0538 45.0963 41.9638 44.5607 42.5218 43.8048C43.1057 43.0401 40.09 42.3468 36.7839 42.2054Z" fill="#FFE592"/>
<path d="M25.9999 39.3379L26.0566 40.8191C26.0566 42.1965 29.7367 43.3944 34.3517 43.6595C39.6703 43.9722 44.5896 42.9232 45.4909 41.2978C45.6071 41.0898 45.6055 40.884 45.6055 40.6491L45.5672 39.2755C45.5672 39.4875 45.5308 39.5885 45.4249 39.8207C44.5236 41.446 39.4522 42.4909 34.1336 42.1782C29.5186 41.9132 26.2374 40.7116 25.9999 39.3379Z" fill="#EDAC31"/>
<path d="M37.4149 36.3412C32.0963 36.0286 27.042 37.0775 26.1407 38.7029C25.2395 40.3282 28.8145 41.8913 34.1599 42.192C39.4785 42.5047 44.5328 41.4557 45.4341 39.8303C46.3354 38.205 42.7335 36.6539 37.4149 36.3412Z" fill="#FCCC34"/>
<path d="M36.7839 37.7767C33.4779 37.6353 29.6074 38.1672 29.0737 38.9338C28.5156 39.6897 31.4417 40.3848 34.7478 40.5262C38.0538 40.6675 41.9638 40.132 42.5218 39.3761C43.1057 38.6114 40.09 37.9181 36.7839 37.7767Z" fill="#FFE592"/>
<path d="M25.9999 34.9092L26.0566 36.3904C26.0566 37.7678 29.7367 38.9657 34.3517 39.2308C39.6703 39.5435 44.5896 38.4945 45.4909 36.8691C45.6071 36.6611 45.6055 36.4553 45.6055 36.2204L45.5672 34.8468C45.5672 35.0588 45.5308 35.1598 45.4249 35.392C44.5236 37.0173 39.4522 38.0622 34.1336 37.7495C29.5186 37.4845 26.2374 36.2829 25.9999 34.9092Z" fill="#EDAC31"/>
<path d="M37.4149 31.9125C32.0963 31.5998 27.042 32.6488 26.1407 34.2742C25.2395 35.8995 28.8145 37.4626 34.1599 37.7633C39.4785 38.076 44.5328 37.027 45.4341 35.4016C46.3354 33.7763 42.7335 32.2252 37.4149 31.9125Z" fill="#FCCC34"/>
<path d="M36.7839 33.348C33.4779 33.2066 29.6074 33.7385 29.0737 34.505C28.5156 35.261 31.4417 35.9561 34.7478 36.0975C38.0538 36.2388 41.9638 35.7033 42.5218 34.9474C43.1057 34.1827 40.09 33.4894 36.7839 33.348Z" fill="#FFE592"/>
<path d="M25.9999 30.4805L26.0566 31.9617C26.0566 33.3391 29.7367 34.537 34.3517 34.8021C39.6703 35.1147 44.5896 34.0658 45.4909 32.4404C45.6071 32.2324 45.6055 32.0266 45.6055 31.7917L45.5672 30.4181C45.5672 30.6301 45.5308 30.7311 45.4249 30.9633C44.5236 32.5886 39.4522 33.6335 34.1336 33.3208C29.5186 33.0558 26.2374 31.8542 25.9999 30.4805Z" fill="#EDAC31"/>
<path d="M37.4149 27.4838C32.0963 27.1711 27.042 28.2201 26.1407 29.8455C25.2395 31.4708 28.8145 33.0339 34.1599 33.3346C39.4785 33.6473 44.5328 32.5983 45.4341 30.9729C46.3354 29.3476 42.7335 27.7965 37.4149 27.4838Z" fill="#FCCC34"/>
<path d="M36.7839 28.9193C33.4779 28.7779 29.6074 29.3098 29.0737 30.0763C28.5156 30.8323 31.4417 31.5274 34.7478 31.6688C38.0538 31.8101 41.9638 31.2746 42.5218 30.5187C43.1057 29.754 40.09 29.0606 36.7839 28.9193Z" fill="#FFE592"/>
<path d="M26.982 28.4457L27.7717 29.7002C28.4604 30.893 32.2464 30.0904 36.3757 28.0124C41.1381 25.6239 44.8739 22.2558 44.8417 20.3975C44.8383 20.1593 44.734 19.9819 44.6165 19.7784L43.8966 18.608C44.0026 18.7916 44.0215 18.8973 44.0459 19.1513C44.0781 21.0095 40.2086 24.4501 35.4462 26.8386C31.317 28.9166 27.8745 29.5166 26.982 28.4457Z" fill="#EDAC31"/>
<path d="M35.3694 20.143C30.607 22.5315 26.7543 25.9671 26.7865 27.8253C26.8186 29.6836 30.6963 29.2497 35.4759 26.8374C40.2382 24.4489 44.0909 21.0133 44.0588 19.1551C44.0266 17.2968 40.1318 17.7545 35.3694 20.143Z" fill="#FCCC34"/>
<path d="M35.5407 21.7016C32.6069 23.2322 29.5208 25.6281 29.4419 26.5588C29.3366 27.4925 32.2182 26.6314 35.152 25.1008C38.0858 23.5702 41.2042 21.1515 41.3095 20.2178C41.4328 19.2637 38.4745 20.171 35.5407 21.7016Z" fill="#FFE592"/>
</svg>
