<svg width="112" height="161" viewBox="0 0 112 161" fill="none"
    xmlns="http://www.w3.org/2000/svg">
    <circle r="11.9866" transform="matrix(-0.707107 0.707107 0.707107 0.707107 91.0488 31.9819)" fill="#309CFF"/>
    <path d="M56.311 45.1338C48.0465 42.7277 39.1291 45.0928 33.1434 51.2784L27.2579 57.3605C17.314 67.6364 22.3695 84.831 36.2927 88.0896C42.5796 89.561 49.1778 87.6315 53.6813 83.0046L80.8681 55.0732C81.8271 54.0878 81.3916 52.4359 80.0714 52.0516L56.311 45.1338Z" fill="#FFCA62"/>
    <path d="M56.6467 62.426C48.4228 64.9674 39.4678 62.749 33.3814 56.6624L27.3969 50.6777C17.2858 40.5663 22.0585 23.2911 35.9264 19.8045C42.1882 18.2301 48.8172 20.0511 53.396 24.6035L81.0374 52.0851C82.0125 53.0545 81.6041 54.7134 80.2904 55.1194L56.6467 62.426Z" fill="#309CFF"/>
    <path fill-rule="evenodd" clip-rule="evenodd" d="M33.381 56.6624C39.4674 62.749 48.4224 64.9675 56.6463 62.4261L80.29 55.1194C80.7466 54.9783 81.0939 54.6858 81.3117 54.3235C81.5838 53.4051 81.0919 52.3507 80.0714 52.0536L56.311 45.1359C48.0466 42.7297 39.1292 45.0948 33.1434 51.2805L30.6135 53.8949L33.381 56.6624Z" fill="#227AFF"/>
    <path d="M21.9665 130H9.82252V129.78C9.82252 126.788 11.5385 126.04 14.4865 126.04C16.0705 126.04 17.7865 126.172 19.6345 126.392V121.2C17.8305 120.804 16.1585 120.584 14.4865 120.584C7.49052 120.584 4.14652 123.708 4.14652 129.78V130H0.978516V135.456H4.14652V152H9.82252V135.456H16.2905V152H21.9665V130Z" fill="#25395F"/>
    <path d="M32.8187 133.784V130H27.1427V152H32.8187V141.484C32.8187 136.864 36.5587 135.544 39.5067 135.896V129.56C36.7347 129.56 33.9627 130.792 32.8187 133.784Z" fill="#25395F"/>
    <path d="M46.8059 143.332H63.3939C63.5259 142.584 63.6139 141.836 63.6139 141C63.6139 134.532 58.9939 129.384 52.4819 129.384C45.5739 129.384 40.8659 134.444 40.8659 141C40.8659 147.556 45.5299 152.616 52.9219 152.616C57.1459 152.616 60.4459 150.9 62.5139 147.908L57.9379 145.268C56.9699 146.544 55.2099 147.468 53.0099 147.468C50.0179 147.468 47.5979 146.236 46.8059 143.332ZM46.7179 138.932C47.3779 136.116 49.4459 134.488 52.4819 134.488C54.8579 134.488 57.2339 135.764 57.9379 138.932H46.7179Z" fill="#25395F"/>
    <path d="M78.7678 120.584C71.7718 120.584 68.4278 123.708 68.4278 129.78V130H65.2598V135.456H68.4278V152H74.1038V135.456H77.7558V130H74.1038V129.78C74.1038 126.788 75.8198 125.556 78.7678 125.556C79.3398 125.556 79.9558 125.556 80.5718 125.6V152H86.2478V121.508C83.8278 121.024 81.5398 120.584 78.7678 120.584Z" fill="#25395F"/>
    <path d="M105.768 130L100.884 144.784L95.164 130H88.96L97.9799 151.296C96.924 154.244 95.34 155.564 92.216 155.52V160.8C97.804 161.108 101.544 158.336 103.832 152L111.84 130H105.768Z" fill="#25395F"/>
</svg>
