<svg width="130" height="50" viewBox="0 0 130 50" fill="none" xmlns="http://www.w3.org/2000/svg">
<circle r="5.49838" transform="matrix(-0.707107 0.707107 0.707107 0.707107 39.7275 14.6704)" fill="#309CFF"/>
<path d="M23.7937 20.7042C20.0027 19.6004 15.9122 20.6853 13.1665 23.5227L10.4668 26.3126C5.90542 31.0263 8.22442 38.9136 14.6111 40.4084C17.495 41.0833 20.5216 40.1983 22.5874 38.0759L35.0583 25.2634C35.4982 24.8115 35.2984 24.0537 34.6929 23.8774L23.7937 20.7042Z" fill="#FFCA62"/>
<path d="M23.9478 28.6356C20.1755 29.8014 16.0677 28.7838 13.2758 25.9918L10.5307 23.2465C5.89259 18.6083 8.08186 10.684 14.4432 9.08468C17.3156 8.36251 20.3564 9.19783 22.4567 11.286L35.1361 23.8921C35.5834 24.3368 35.3961 25.0978 34.7935 25.284L23.9478 28.6356Z" fill="#309CFF"/>
<path fill-rule="evenodd" clip-rule="evenodd" d="M13.2759 25.9912C16.0678 28.7832 20.1756 29.8008 23.9479 28.635L34.7936 25.2834C35.0027 25.2187 35.1618 25.0849 35.2618 24.919C35.3869 24.4976 35.1613 24.0136 34.693 23.8773L23.7939 20.704C20.0029 19.6003 15.9124 20.6852 13.1667 23.5226L12.0064 24.7216L13.2759 25.9912Z" fill="#227AFF"/>
<path d="M71.7384 19.85H63.9609V19.7134C63.9609 17.8545 65.0599 17.3897 66.9479 17.3897C67.9624 17.3897 69.0614 17.4718 70.2449 17.6084V14.3827C69.0896 14.1367 68.0187 14 66.9479 14C62.4674 14 60.3258 15.9409 60.3258 19.7134V19.85H58.2969V23.2398H60.3258V33.5184H63.9609V23.2398H68.1033V33.5184H71.7384V19.85Z" fill="#25395F"/>
<path d="M78.6886 22.201V19.85H75.0534V33.5184H78.6886V26.9849C78.6886 24.1146 81.0838 23.2945 82.9718 23.5131V19.5767C81.1965 19.5767 79.4212 20.3421 78.6886 22.201Z" fill="#25395F"/>
<path d="M87.6465 28.133H98.2701C98.3547 27.6683 98.411 27.2036 98.411 26.6842C98.411 22.6657 95.4522 19.4673 91.2817 19.4673C86.8575 19.4673 83.8423 22.611 83.8423 26.6842C83.8423 30.7574 86.8293 33.9011 91.5634 33.9011C94.2687 33.9011 96.3821 32.8349 97.7065 30.976L94.7759 29.3358C94.1559 30.1286 93.0288 30.7027 91.6198 30.7027C89.7036 30.7027 88.1537 29.9373 87.6465 28.133ZM87.5902 25.3994C88.0128 23.6498 89.3373 22.6384 91.2817 22.6384C92.8033 22.6384 94.325 23.4311 94.7759 25.3994H87.5902Z" fill="#25395F"/>
<path d="M108.116 14C103.636 14 101.494 15.9409 101.494 19.7134V19.85H99.4651V23.2398H101.494V33.5184H105.129V23.2398H107.468V19.85H105.129V19.7134C105.129 17.8545 106.228 17.089 108.116 17.089C108.482 17.089 108.877 17.089 109.272 17.1164V33.5184H112.907V14.5741C111.357 14.2734 109.891 14 108.116 14Z" fill="#25395F"/>
<path d="M125.408 19.85L122.28 29.0351L118.617 19.85H114.644L120.42 33.081C119.744 34.9125 118.73 35.7326 116.729 35.7053V38.9857C120.308 39.177 122.703 37.4548 124.168 33.5184L129.297 19.85H125.408Z" fill="#25395F"/>
</svg>
