<?xml version="1.0" encoding="UTF-8"?>
<svg width="1024px" height="1024px" viewBox="0 0 1024 1024" version="1.1" xmlns="http://www.w3.org/2000/svg" xmlns:xlink="http://www.w3.org/1999/xlink">
    <title>Icon-App-iTunes</title>
    <g id="Template---App-Icons" stroke="none" stroke-width="1" fill="none" fill-rule="evenodd">
        <g id="Group">
            <rect id="App-Icon-1024x1024" fill="#FFFFFF" x="0" y="0" width="1024" height="1024"></rect>
            <g id="public" transform="translate(157.000000, 219.000000)">
                <circle id="Oval" fill="#108CFF" fill-rule="nonzero" transform="translate(599.187100, 100.094166) scale(-1, 1) rotate(89.999997) translate(-599.187100, -100.094166) " cx="599.1871" cy="100.094166" r="99.9537998"></circle>
                <path d="M299.24171,219.349171 C229.740276,198.265334 154.748349,218.990103 104.410287,273.19146 L54.9152248,326.486171 C-28.7095045,416.529888 13.8053597,567.198204 130.89513,595.751478 C183.765448,608.645293 239.254359,591.737257 277.127432,551.194368 L505.759467,306.443632 C513.824569,297.809672 510.161797,283.334323 499.059454,279.966426 L299.24171,219.349171 Z" id="Path" fill="#FFCA62" fill-rule="nonzero"></path>
                <path d="M296.685283,369.784901 C226.278636,391.550239 149.612409,372.550467 97.5046302,320.423622 L46.2694293,269.168994 C-40.2948079,182.571567 0.565440041,34.6227379 119.292993,4.76197921 C172.902321,-8.72056857 229.654883,6.87461049 268.855686,45.8625582 L505.501764,281.22212 C513.849502,289.524549 510.35349,303.732035 499.106937,307.208631 L296.685283,369.784901 Z" id="Path" fill="#108CFF" fill-rule="nonzero"></path>
                <path d="M96.5135813,319.564872 C148.759013,371.455318 225.628973,390.367813 296.223534,368.701522 L499.182284,306.410019 C505.549176,304.456053 509.43842,299.097513 510.11236,293.314623 C509.429434,287.304489 505.501796,281.756172 499.134088,279.833972 L298.726505,219.333536 C229.019911,198.290331 153.8058,218.975159 103.319146,273.072063 L77.5280899,300.708577 L96.5135813,319.564872 Z" id="Path" fill="#0066FF"></path>
            </g>
        </g>
    </g>
</svg>