<?xml version="1.0" encoding="UTF-8"?>
<svg width="64px" height="64px" viewBox="0 0 64 64" version="1.1" xmlns="http://www.w3.org/2000/svg" xmlns:xlink="http://www.w3.org/1999/xlink">
    <title>z copy 5</title>
    <g id="z-copy-5" stroke="none" stroke-width="1" fill="none" fill-rule="evenodd">
        <path d="M25.4152391,13.2691648 L25.5009202,13.3541935 L42.6655795,30.5673962 C42.9360638,30.8386478 43.0351129,31.1960839 42.9891944,31.5312393 C43.0339134,31.868582 42.9411503,32.2285252 42.6846298,32.5060511 L26.1200723,50.4264637 C23.3761406,53.3950347 19.3559286,54.632965 15.5254355,53.688952 C7.04219637,51.5982492 3.96196349,40.5665202 10.020636,33.9736062 L11.7457481,32.0962982 L9.35606235,29.6858816 C3.14008278,23.4158458 5.98266297,12.7481189 14.3960313,10.4163655 L14.6526834,10.348271 C18.5022464,9.37207507 22.5752609,10.4801813 25.4152391,13.2691648 Z M38.3880308,33.6566579 L27.5194854,37.0445033 C22.5691174,38.5875648 17.1921138,37.3291021 13.4246005,33.7779486 L11.7486421,35.6017134 C6.85129723,40.9308845 9.4478206,49.7312557 16.0836754,51.3667123 C19.067603,52.1020733 22.2213631,51.1466478 24.3967281,48.7932776 L38.3880308,33.6566579 Z M15.3345954,31.6995261 L15.0348566,32.0256291 C18.1840558,34.9939944 22.6817554,36.0479969 26.824056,34.75679 L37.1845321,31.5272895 L27.0382765,28.4166626 C22.8844646,27.1431801 18.3816053,28.383859 15.3345954,31.6995261 Z M15.226909,12.6702133 C8.38968267,14.4041001 6.05531406,22.9779087 11.0242536,27.9899936 L13.3569126,30.3429561 L13.6065894,30.0714189 C17.2536186,26.1027881 22.6868383,24.5854003 27.7222679,26.1291385 L38.0325835,29.2900439 L23.8375747,15.0549285 C21.582807,12.7937845 18.31527,11.887017 15.226909,12.6702133 Z M50.5,10 C54.6421429,10 58,13.3578571 58,17.5 C58,21.6421429 54.6421429,25 50.5,25 C46.3578571,25 43,21.6421429 43,17.5 C43,13.3578571 46.3578571,10 50.5,10 Z M50.5,12.4489796 C47.7104286,12.4489796 45.4489796,14.7104286 45.4489796,17.5 C45.4489796,20.2895714 47.7103673,22.5510204 50.5,22.5510204 C53.2895714,22.5510204 55.5510204,20.2895714 55.5510204,17.5 C55.5510204,14.7104286 53.2895714,12.4489796 50.5,12.4489796 Z" id="Combined-Shape" fill="#FFFFFF"></path>
    </g>
</svg>