<?xml version="1.0" encoding="UTF-8"?>
<svg width="64px" height="64px" viewBox="0 0 64 64" version="1.1" xmlns="http://www.w3.org/2000/svg" xmlns:xlink="http://www.w3.org/1999/xlink">
    <title>z copy 4</title>
    <g id="z-copy-4" stroke="none" stroke-width="1" fill="none" fill-rule="evenodd">
        <g id="Group" transform="translate(6.000000, 10.000000)" fill-rule="nonzero">
            <ellipse id="Oval" fill="#FFFFFF" transform="translate(43.708703, 7.340239) scale(-1, 1) rotate(89.999997) translate(-43.708703, -7.340239) " cx="43.7087029" cy="7.3402388" rx="7.32994532" ry="7.29129674"></ellipse>
            <path d="M21.8286859,16.0856059 C16.7587878,14.5394578 11.2883766,16.0592742 7.61638265,20.0340404 L4.00588272,23.9423192 C-2.09426272,30.5455251 1.007055,41.594535 9.54836373,43.6884417 C13.4050773,44.6339882 17.4528085,43.3940655 20.215523,40.4209203 L36.8934684,22.472533 C37.4817907,21.8393759 37.2146037,20.7778504 36.4047247,20.5308713 L21.8286859,16.0856059 Z" id="Path" fill="#BAC0C9"></path>
            <path d="M21.6422031,27.1175594 C16.5062728,28.7136842 10.9137268,27.3203676 7.11263797,23.4977323 L3.37520074,19.7390596 C-2.93937201,13.3885816 0.0412469675,2.53900078 8.70202645,0.349211808 C12.6126484,-0.639508362 16.7525587,0.504138103 19.6121267,3.36325426 L36.8746698,20.6229555 C37.4836095,21.2318002 37.228587,22.2736826 36.4081885,22.5286329 L21.6422031,27.1175594 Z" id="Path" fill="#FFFFFF"></path>
        </g>
    </g>
</svg>