<svg width="200" height="140" viewBox="0 0 200 140" fill="none" xmlns="http://www.w3.org/2000/svg">
<mask id="mask0" mask-type="alpha" maskUnits="userSpaceOnUse" x="0" y="0" width="200" height="140">
<path d="M0 12C0 5.37258 5.37258 0 12 0L188 0C194.627 0 200 5.37258 200 12V128C200 134.627 194.627 140 188 140L12 140C5.37258 140 0 134.627 0 128L0 12Z" fill="url(#paint0_linear)"/>
</mask>
<g mask="url(#mask0)">
<g opacity="0.3">
<path fill-rule="evenodd" clip-rule="evenodd" d="M131 101C175.183 101 211 65.1828 211 21C211 13.8879 210.072 6.99256 208.33 0.428486C248.598 4.59474 280 38.6303 280 80C280 124.183 244.183 160 200 160C162.929 160 131.748 134.786 122.67 100.572C125.408 100.855 128.187 101 131 101ZM122.67 100.572C82.4016 96.4053 51 62.3697 51 21C51 -23.1828 86.8172 -59 131 -59C168.071 -59 199.252 -33.7857 208.33 0.428486C205.592 0.145191 202.813 0 200 0C155.817 0 120 35.8172 120 80C120 87.1121 120.928 94.0074 122.67 100.572Z" fill="white" fill-opacity="0.5"/>
</g>
</g>
<defs>
<linearGradient id="paint0_linear" x1="200" y1="7.53573e-06" x2="23" y2="119.5" gradientUnits="userSpaceOnUse">
<stop stop-color="white"/>
<stop offset="1" stop-color="white" stop-opacity="0"/>
</linearGradient>
</defs>
</svg>
