<svg width="200" height="140" viewBox="0 0 200 140" fill="none" xmlns="http://www.w3.org/2000/svg">
<mask id="mask0" mask-type="alpha" maskUnits="userSpaceOnUse" x="0" y="0" width="200" height="140">
<path d="M0 12C0 5.37258 5.37258 0 12 0L188 0C194.627 0 200 5.37258 200 12V128C200 134.627 194.627 140 188 140L12 140C5.37258 140 0 134.627 0 128L0 12Z" fill="url(#paint0_linear)"/>
</mask>
<g mask="url(#mask0)">
<g opacity="0.3">
<rect width="61.0281" height="98.664" rx="14" transform="matrix(0.89057 0.454845 -0.54655 0.837426 208.858 -2.35904)" fill="white"/>
<rect width="27.4594" height="25.8326" rx="8" transform="matrix(0.89057 0.454845 -0.54655 0.837426 43.1187 48)" fill="white"/>
<rect width="79.5175" height="62.9759" rx="16" transform="matrix(0.89057 0.454845 -0.54655 0.837426 98.4194 -21.0927)" fill="white"/>
<rect width="99.9884" height="94.0648" rx="16" transform="matrix(0.89057 0.454845 -0.54655 0.837426 83.4111 68)" fill="white"/>
</g>
</g>
<defs>
<linearGradient id="paint0_linear" x1="200" y1="7.53573e-06" x2="23" y2="119.5" gradientUnits="userSpaceOnUse">
<stop stop-color="white"/>
<stop offset="1" stop-color="white" stop-opacity="0"/>
</linearGradient>
</defs>
</svg>
