<svg width="200" height="140" viewBox="0 0 200 140" fill="none" xmlns="http://www.w3.org/2000/svg">
<g>
<path d="M88.3046 -28.1562C101.328 -50.7136 130.172 -58.4424 152.73 -45.4188C175.287 -32.3953 183.016 -3.5513 169.992 19.0061L148.411 56.3858C147.306 58.2989 144.86 58.9544 142.947 57.8499L105.567 36.2687C83.0098 23.2452 75.2811 -5.59883 88.3046 -28.1562Z" fill="white" fill-opacity="0.5"/>
<path d="M64.7624 67.1687C74.0201 51.1339 94.5237 45.64 110.558 54.8977L136.128 69.6602C138.041 70.7648 138.697 73.2111 137.592 75.1243L122.829 100.694C113.572 116.728 93.0682 122.222 77.0334 112.965C60.9986 103.707 55.5047 83.2035 64.7624 67.1687Z" fill="white" fill-opacity="0.5"/>
<path d="M178.209 32.0488C189.247 12.9288 213.696 6.37785 232.816 17.4168C251.936 28.4557 258.487 52.9043 247.448 72.0242C236.409 91.1442 211.961 97.6952 192.841 86.6563L160.454 67.9581C159.221 67.2459 158.798 65.6686 159.51 64.435L178.209 32.0488Z" fill="white" fill-opacity="0.5"/>
<path d="M148.602 83.3294C150.149 80.6505 153.574 79.7326 156.253 81.2793L174.039 91.5479C186.54 98.7657 190.824 114.752 183.606 127.253C176.388 139.755 160.402 144.038 147.9 136.82C135.399 129.603 131.115 113.617 138.333 101.115L148.602 83.3294Z" fill="white" fill-opacity="0.5"/>
</g>
</svg>
