<svg width="200" height="140" viewBox="0 0 200 140" fill="none" xmlns="http://www.w3.org/2000/svg">
<mask id="mask0" mask-type="alpha" maskUnits="userSpaceOnUse" x="0" y="0" width="200" height="140">
<path d="M0 12C0 5.37258 5.37258 0 12 0L188 0C194.627 0 200 5.37258 200 12V128C200 134.627 194.627 140 188 140L12 140C5.37258 140 0 134.627 0 128L0 12Z" fill="url(#paint0_linear)"/>
</mask>
<g mask="url(#mask0)">
<path opacity="0.5" d="M4.5 101.943C-26.3 76.1899 -76 80.1245 -97 85.3109V127.5C-97 134.127 -91.6274 139.5 -85 139.5H109C102.667 126.981 86.5 104.733 72.5 115.893C55 129.842 43 134.135 4.5 101.943Z" fill="url(#paint1_linear)"/>
<path opacity="0.5" d="M97.5005 50.5C61.1005 44.9 31.6668 14.5 40.0002 0H188C194.628 0 200 5.37258 200 12V60C197.334 70.3333 161.4 145.5 145 111.5C124.5 69 143.001 57.5 97.5005 50.5Z" fill="url(#paint2_linear)"/>
</g>
<defs>
<linearGradient id="paint0_linear" x1="200" y1="7.53573e-06" x2="23" y2="119.5" gradientUnits="userSpaceOnUse">
<stop stop-color="white"/>
<stop offset="1" stop-color="white" stop-opacity="0"/>
</linearGradient>
<linearGradient id="paint1_linear" x1="33.5" y1="90" x2="-17" y2="157" gradientUnits="userSpaceOnUse">
<stop stop-color="#D9EDFF"/>
<stop offset="1" stop-color="#D9EDFF" stop-opacity="0"/>
</linearGradient>
<linearGradient id="paint2_linear" x1="119.288" y1="0" x2="119.288" y2="120.265" gradientUnits="userSpaceOnUse">
<stop stop-color="#D9EDFF"/>
<stop offset="1" stop-color="#D9EDFF" stop-opacity="0"/>
</linearGradient>
</defs>
</svg>
