<svg width="200" height="140" viewBox="0 0 200 140" fill="none" xmlns="http://www.w3.org/2000/svg">
<mask id="mask0" mask-type="alpha" maskUnits="userSpaceOnUse" x="0" y="0" width="200" height="140">
<path d="M0 12C0 5.37258 5.37258 0 12 0L188 0C194.627 0 200 5.37258 200 12V128C200 134.627 194.627 140 188 140L12 140C5.37258 140 0 134.627 0 128L0 12Z" fill="url(#paint0_linear)" fill-opacity="0.8"/>
</mask>
<g mask="url(#mask0)">
<rect width="24.3636" height="218.03" rx="12.1818" transform="matrix(0.853453 0.52117 -0.479124 0.877747 273.463 -77)" fill="white"/>
<rect width="24.3636" height="67.1262" rx="12.1818" transform="matrix(0.853453 0.52117 -0.479124 0.877747 141.927 -40)" fill="white"/>
<rect width="24.3636" height="67.1262" rx="12.1818" transform="matrix(0.853453 0.52117 -0.479124 0.877747 71.3604 -27.2363)" fill="white"/>
<rect width="24.3636" height="33.8098" rx="12.1818" transform="matrix(0.853453 0.52117 -0.479124 0.877747 26.2898 51.9455)" fill="white"/>
<rect width="24.3636" height="33.8098" rx="12.1818" transform="matrix(0.853453 0.52117 -0.479124 0.877747 54.1992 111.055)" fill="white"/>
<rect width="24.3636" height="69.9924" rx="12.1818" transform="matrix(0.853453 0.52117 -0.479124 0.877747 98.3359 36.6956)" fill="white"/>
<rect width="24.3636" height="96.7553" rx="12.1818" transform="matrix(0.853453 0.52117 -0.479124 0.877747 132.496 76.3092)" fill="white"/>
<rect width="24.3636" height="96.7553" rx="12.1818" transform="matrix(0.853453 0.52117 -0.479124 0.877747 194.623 -28.4545)" fill="white"/>
</g>
<defs>
<linearGradient id="paint0_linear" x1="100" y1="0" x2="100" y2="140" gradientUnits="userSpaceOnUse">
<stop stop-color="white" stop-opacity="0.3"/>
<stop offset="1" stop-color="white" stop-opacity="0.1"/>
</linearGradient>
</defs>
</svg>
