<svg width="200" height="140" viewBox="0 0 200 140" fill="none" xmlns="http://www.w3.org/2000/svg">
<g>
<rect width="24.3636" height="218.03" rx="12.1818" transform="matrix(0.853453 0.52117 -0.479124 0.877747 273.463 -77)" fill="white" fill-opacity="0.5"/>
<rect width="24.3636" height="67.1262" rx="12.1818" transform="matrix(0.853453 0.52117 -0.479124 0.877747 141.927 -40)" fill="white" fill-opacity="0.5"/>
<rect width="24.3636" height="67.1262" rx="12.1818" transform="matrix(0.853453 0.52117 -0.479124 0.877747 71.3604 -27.2363)" fill="white" fill-opacity="0.5"/>
<rect width="24.3636" height="33.8098" rx="12.1818" transform="matrix(0.853453 0.52117 -0.479124 0.877747 26.2898 51.9455)" fill="white" fill-opacity="0.5"/>
<rect width="24.3636" height="33.8098" rx="12.1818" transform="matrix(0.853453 0.52117 -0.479124 0.877747 54.1992 111.055)" fill="white" fill-opacity="0.5"/>
<rect width="24.3636" height="69.9924" rx="12.1818" transform="matrix(0.853453 0.52117 -0.479124 0.877747 98.3359 36.6956)" fill="white" fill-opacity="0.5"/>
<rect width="24.3636" height="96.7553" rx="12.1818" transform="matrix(0.853453 0.52117 -0.479124 0.877747 132.496 76.3092)" fill="white" fill-opacity="0.5"/>
<rect width="24.3636" height="96.7553" rx="12.1818" transform="matrix(0.853453 0.52117 -0.479124 0.877747 194.623 -28.4545)" fill="white" fill-opacity="0.5"/>
</g>
</svg>
