<svg width="200" height="140" viewBox="0 0 200 140" fill="none" xmlns="http://www.w3.org/2000/svg">
<g>
<path d="M197.913 26.4705C200.327 23.6769 204.972 23.9473 206.644 26.9786L230.375 70.0232C231.122 71.3774 231.08 73.0135 230.262 74.4095L201.366 123.73C199.873 126.279 196.352 127.202 193.804 125.711L144.219 96.7073C141.715 95.2424 141.228 92.0717 143.164 89.8316L197.913 26.4705Z" fill="white" fill-opacity="0.5"/>
<path d="M70.7523 -31.6689C71.4989 -32.8128 72.9729 -33.3925 74.3381 -33.0793L113.661 -24.0566C114.725 -23.8126 115.537 -23.0654 115.796 -22.0931L139.103 65.488C139.717 67.7937 137.084 69.8606 134.705 68.941L52.1523 37.0362C40.9531 32.7079 36.8516 20.2739 43.3425 10.3286L70.7523 -31.6689Z" fill="white" fill-opacity="0.5"/>
<path d="M110.678 82.1617C114.059 80.4602 118.154 81.7778 119.4 84.9674L161.508 192.813C165.425 202.844 156.71 213.839 144.84 213.839L124.8 213.839C119.886 213.839 115.336 211.862 112.363 208.435L47.7664 133.987C41.4395 126.695 44.2483 115.596 53.6133 110.883L110.678 82.1617Z" fill="white" fill-opacity="0.5"/>
</g>
</svg>
