<svg width="200" height="140" viewBox="0 0 200 140" fill="none" xmlns="http://www.w3.org/2000/svg">
<mask id="mask0" mask-type="alpha" maskUnits="userSpaceOnUse" x="0" y="0" width="200" height="140">
<path d="M0 140L200 140L200 3.58289e-05L1.04033e-05 1.52588e-05L0 140Z" fill="url(#paint0_linear)"/>
</mask>
<g mask="url(#mask0)">
<g opacity="0.2">
<path fill-rule="evenodd" clip-rule="evenodd" d="M153 17.1832V-10L161 -10V17.1832C161 19.3924 162.791 21.1832 165 21.1832L173.61 21.1832C180.237 21.1832 185.61 26.5558 185.61 33.1832V46.5026C185.61 48.7117 187.401 50.5026 189.61 50.5026H200.662C207.29 50.5026 212.662 55.8752 212.662 62.5026V76.9214C212.662 79.1306 214.453 80.9214 216.662 80.9214H231.272V88.9214H216.662C210.035 88.9214 204.662 83.5488 204.662 76.9214V62.5026C204.662 60.2934 202.871 58.5026 200.662 58.5026H189.61C182.983 58.5026 177.61 53.13 177.61 46.5026V33.1832C177.61 30.9741 175.819 29.1832 173.61 29.1832H165C158.373 29.1832 153 23.8106 153 17.1832Z" fill="white"/>
<path fill-rule="evenodd" clip-rule="evenodd" d="M98.5645 17.1372V-10.0461L106.564 -10.0461V17.1372C106.564 19.3463 108.355 21.1371 110.564 21.1371L119.174 21.1371C125.802 21.1371 131.174 26.5097 131.174 33.1371V46.4565C131.174 48.6656 132.965 50.4565 135.174 50.4565H142.227C148.854 50.4565 154.227 55.8291 154.227 62.4565V76.8753C154.227 79.0845 156.018 80.8754 158.227 80.8754H166.837C173.464 80.8754 178.837 86.2479 178.837 92.8754V102.53C178.837 104.739 180.628 106.53 182.837 106.53H203.5C210.127 106.53 215.5 111.902 215.5 118.53V132C215.5 136.418 211.918 140 207.5 140V118.53C207.5 116.321 205.709 114.53 203.5 114.53H182.837C176.209 114.53 170.837 109.157 170.837 102.53V92.8754C170.837 90.6662 169.046 88.8754 166.837 88.8754H158.227C151.599 88.8754 146.227 83.5028 146.227 76.8753V62.4565C146.227 60.2474 144.436 58.4565 142.227 58.4565H135.174C128.547 58.4565 123.174 53.0839 123.174 46.4565V33.1371C123.174 30.928 121.384 29.1371 119.174 29.1371H110.564C103.937 29.1371 98.5645 23.7646 98.5645 17.1372Z" fill="white"/>
<path fill-rule="evenodd" clip-rule="evenodd" d="M38.7529 16.1371V-11.0461L46.7529 -11.0461V16.1371C46.7529 18.3463 48.5438 20.1371 50.7529 20.1371L59.3629 20.1371C65.9903 20.1371 71.3629 25.5097 71.3629 32.1371V45.4565C71.3629 47.6656 73.1537 49.4565 75.3629 49.4565H82.4152C89.0426 49.4565 94.4152 54.8291 94.4152 61.4565V75.8753C94.4152 78.0845 96.2061 79.8753 98.4152 79.8753H107.025C113.653 79.8753 119.025 85.2479 119.025 91.8753V103.729C119.025 105.938 120.816 107.729 123.025 107.729H132.57C139.197 107.729 144.57 113.101 144.57 119.729V146.559H136.57V119.729C136.57 117.52 134.779 115.729 132.57 115.729H123.025C116.398 115.729 111.025 110.356 111.025 103.729V91.8753C111.025 89.6662 109.234 87.8753 107.025 87.8753H98.4152C91.7878 87.8753 86.4152 82.5028 86.4152 75.8753V61.4565C86.4152 59.2474 84.6244 57.4565 82.4152 57.4565H75.3629C68.7354 57.4565 63.3629 52.0839 63.3629 45.4565L63.3629 32.1371C63.3629 29.928 61.572 28.1371 59.3629 28.1371H50.7529C44.1255 28.1371 38.7529 22.7646 38.7529 16.1371Z" fill="white"/>
<path fill-rule="evenodd" clip-rule="evenodd" d="M-16.0742 19.1371L-16.0742 -8.04608L-8.07422 -8.04608L-8.07422 19.1371C-8.07422 21.3463 -6.28336 23.1371 -4.07422 23.1371L4.53572 23.1371C11.1631 23.1371 16.5357 28.5097 16.5357 35.1371V48.4565C16.5357 50.6656 18.3266 52.4565 20.5357 52.4565H27.5881C34.2155 52.4565 39.5881 57.8291 39.5881 64.4565V78.8753C39.5881 81.0845 41.3789 82.8753 43.5881 82.8753H52.198C58.8254 82.8753 64.198 88.2479 64.198 94.8753V106.729C64.198 108.938 65.9889 110.729 68.198 110.729H77.7425C84.3699 110.729 89.7425 116.101 89.7425 122.729V140.017H81.7425V122.729C81.7425 120.52 79.9516 118.729 77.7425 118.729H68.198C61.5706 118.729 56.198 113.356 56.198 106.729V94.8753C56.198 92.6662 54.4071 90.8753 52.198 90.8753H43.5881C36.9606 90.8753 31.5881 85.5028 31.5881 78.8753V64.4565C31.5881 62.2474 29.7972 60.4565 27.5881 60.4565H20.5357C13.9083 60.4565 8.53572 55.0839 8.53572 48.4565L8.53572 35.1371C8.53572 32.928 6.74486 31.1371 4.53572 31.1371H-4.07422C-10.7016 31.1371 -16.0742 25.7646 -16.0742 19.1371Z" fill="white"/>
<path fill-rule="evenodd" clip-rule="evenodd" d="M-40 60.1371V32.9539H-32V60.1371C-32 62.3463 -30.2091 64.1371 -28 64.1371H-19.3901C-12.7627 64.1371 -7.39006 69.5097 -7.39006 76.1371V89.4565C-7.39006 91.6656 -5.5992 93.4565 -3.39006 93.4565H3.66229C10.2897 93.4565 15.6623 98.8291 15.6623 105.457V119.875C15.6623 122.084 17.4532 123.875 19.6623 123.875H28.2722C34.8996 123.875 40.2722 129.248 40.2722 135.875V147.729C40.2722 149.938 42.0631 151.729 44.2722 151.729H53.8167C60.4441 151.729 65.8167 157.101 65.8167 163.729V181.017H57.8167V163.729C57.8167 161.52 56.0259 159.729 53.8167 159.729H44.2722C37.6448 159.729 32.2722 154.356 32.2722 147.729V135.875C32.2722 133.666 30.4814 131.875 28.2722 131.875H19.6623C13.0349 131.875 7.66229 126.503 7.66229 119.875V105.457C7.66229 103.247 5.87143 101.457 3.66229 101.457H-3.39006C-10.0175 101.457 -15.3901 96.0839 -15.3901 89.4565L-15.3901 76.1371C-15.3901 73.928 -17.1809 72.1371 -19.3901 72.1371H-28C-34.6274 72.1371 -40 66.7646 -40 60.1371Z" fill="white"/>
</g>
</g>
<defs>
<linearGradient id="paint0_linear" x1="200" y1="87.5001" x2="5.40012e-07" y2="87.5001" gradientUnits="userSpaceOnUse">
<stop stop-color="white"/>
<stop offset="1" stop-color="white" stop-opacity="0"/>
</linearGradient>
</defs>
</svg>
