<svg width="112" height="41" viewBox="0 0 112 41" fill="none" xmlns="http://www.w3.org/2000/svg">
<path d="M21.9665 9.99998H9.82252V9.77998C9.82252 6.78798 11.5385 6.03998 14.4865 6.03998C16.0705 6.03998 17.7865 6.17198 19.6345 6.39198V1.19998C17.8305 0.803982 16.1585 0.583984 14.4865 0.583984C7.49052 0.583984 4.14652 3.70798 4.14652 9.77998V9.99998H0.978516V15.456H4.14652V32H9.82252V15.456H16.2905V32H21.9665V9.99998Z" fill="#25395F"/>
<path d="M32.8187 13.784V9.99998H27.1427V32H32.8187V21.484C32.8187 16.864 36.5587 15.544 39.5067 15.896V9.55998C36.7347 9.55998 33.9627 10.792 32.8187 13.784Z" fill="#25395F"/>
<path d="M46.8059 23.332H63.3939C63.5259 22.584 63.6139 21.836 63.6139 21C63.6139 14.532 58.9939 9.38398 52.4819 9.38398C45.5739 9.38398 40.8659 14.444 40.8659 21C40.8659 27.556 45.5299 32.616 52.9219 32.616C57.1459 32.616 60.4459 30.9 62.5139 27.908L57.9379 25.268C56.9699 26.544 55.2099 27.468 53.0099 27.468C50.0179 27.468 47.5979 26.236 46.8059 23.332ZM46.7179 18.932C47.3779 16.116 49.4459 14.488 52.4819 14.488C54.8579 14.488 57.2339 15.764 57.9379 18.932H46.7179Z" fill="#25395F"/>
<path d="M78.7678 0.583984C71.7718 0.583984 68.4278 3.70798 68.4278 9.77998V9.99998H65.2598V15.456H68.4278V32H74.1038V15.456H77.7558V9.99998H74.1038V9.77998C74.1038 6.78798 75.8198 5.55598 78.7678 5.55598C79.3398 5.55598 79.9558 5.55598 80.5718 5.59998V32H86.2478V1.50798C83.8278 1.02398 81.5398 0.583984 78.7678 0.583984Z" fill="#25395F"/>
<path d="M105.768 9.99998L100.884 24.784L95.164 9.99998H88.96L97.9799 31.296C96.924 34.244 95.34 35.564 92.216 35.52V40.8C97.804 41.108 101.544 38.336 103.832 32L111.84 9.99998H105.768Z" fill="#25395F"/>
</svg>
