<svg width="134" height="134" viewBox="0 0 134 134" fill="none" xmlns="http://www.w3.org/2000/svg">
<rect width="134" height="134" rx="67" fill="#D8E3F5"/>
<mask id="mask0_986_7618" style="mask-type:alpha" maskUnits="userSpaceOnUse" x="0" y="0" width="134" height="134">
<rect width="134" height="134" rx="67" fill="#25395F"/>
</mask>
<g mask="url(#mask0_986_7618)">
<path d="M49.757 102.581C50.3812 95.5061 51.5909 93.4672 53.35 90.2657C55.1092 87.0641 55.9693 83.7444 58.133 75.803C60.7237 66.2941 70.2955 78.3927 66.617 89.8101C64.638 95.9524 61.6172 96.2025 60.993 102.929C60.3688 109.655 58.9123 119.435 58.133 128.798C66.2217 121.776 70.6713 114.444 74.8803 102.929C79.0894 91.4133 94.9346 98.9711 90.1234 114.649C85.3122 130.327 71.6452 139.739 63.0738 147.317C54.5023 154.894 44.7632 148.981 43.0986 143.571C41.434 138.161 49.1328 109.655 49.757 102.581Z" fill="url(#paint0_linear_986_7618)"/>
<path d="M115.151 66.798C114.197 79.9872 123.624 84.0576 127.758 87.1836C131.893 90.3096 133.168 91.3451 133.168 91.3451V122.589C133.168 144.312 115.81 162.054 94.0916 162.529L66.6111 163.131C66.6111 163.131 69.9007 115.565 73.4776 106.743C76.5987 99.0439 70.1484 89.6805 64.7384 86.1432C50.8533 77.0645 50.5217 56.6055 55.167 46.8172C62.3008 30.8074 82.1929 25.5608 97.6219 31.2844C113.051 37.008 116.105 53.6088 115.151 66.798Z" fill="url(#paint1_linear_986_7618)"/>
<path d="M115.151 66.798C114.197 79.9872 123.624 84.0576 127.758 87.1836C131.893 90.3096 133.168 91.3451 133.168 91.3451V122.589C133.168 144.312 115.81 162.054 94.0916 162.529L66.6111 163.131C66.6111 163.131 69.9007 115.565 73.4776 106.743C76.5987 99.0439 70.1484 89.6805 64.7384 86.1432C50.8533 77.0645 50.5217 56.6055 55.167 46.8172C62.3008 30.8074 82.1929 25.5608 97.6219 31.2844C113.051 37.008 116.105 53.6088 115.151 66.798Z" fill="url(#paint2_linear_986_7618)"/>
<path d="M56.4737 63.4776C58.0746 75.2824 67.258 82.7584 77.9311 80.3374C88.6043 77.9163 96.2482 68.4886 94.6472 56.6838C93.0463 44.879 82.8011 37.1945 71.3825 39.6021C59.9639 42.0097 54.8727 51.6728 56.4737 63.4776Z" fill="url(#paint3_linear_986_7618)"/>
<ellipse cx="82.6859" cy="55.4433" rx="2.24293" ry="2.23982" transform="rotate(-8.25754 82.6859 55.4433)" fill="white"/>
<ellipse cx="81.6195" cy="54.5825" rx="0.441534" ry="0.273088" transform="rotate(-46.3914 81.6195 54.5825)" fill="#FFFDFB"/>
<ellipse rx="1.8048" ry="2.20112" transform="matrix(0.975726 -0.218993 0.0812808 0.996691 62.5981 54.4578)" fill="white"/>
<ellipse cx="61.9124" cy="53.3599" rx="0.441534" ry="0.273088" transform="rotate(-46.3914 61.9124 53.3599)" fill="#FFFDFB"/>
<path d="M63.2234 77.107C63.58 75.0138 64.2654 70.3758 64.1541 68.5699C64.0164 66.3357 63.4491 65.3591 62.3069 65.6609C62.0456 65.905 61.8638 66.2829 61.831 66.7823L61.8326 66.7833L61.0944 74.5074C61.2933 66.7719 61.1747 66.7075 60.468 66.8787C59.991 67.1138 59.5645 67.5993 59.5033 68.5109C58.9286 77.0597 54.9161 87.7553 53.1634 91.2092C48.954 98.5902 60.5033 100.087 64.4119 94.0466C65.546 92.2939 67.8082 87.5263 68.6916 81.9819C70.1756 72.6683 68.6916 71.0781 68.2754 70.954C68.2757 70.9566 67.772 71.0755 67.7723 71.0781L67.7715 71.0783C67.644 71.1147 67.4477 71.1708 67.2441 71.8978C67.0943 72.433 66.8029 74.5373 66.5438 76.4091C66.3619 77.7227 66.1959 78.9217 66.1058 79.3836C66.0111 78.4208 66.2102 76.9485 66.4276 75.3415C66.6912 73.3918 66.9817 71.2437 66.807 69.5663C66.6538 68.0953 66.3539 67.5938 65.541 67.6172C65.375 67.6489 65.1989 67.7061 65.0123 67.7901C65.0132 67.7995 65.0142 67.8088 65.0151 67.8182C64.5977 69.2874 64.3112 71.1124 64.0379 72.8529C63.7858 74.4581 63.545 75.9914 63.2234 77.107Z" fill="white"/>
<path d="M65.7683 67.5893C65.7009 67.5928 65.6318 67.6008 65.5607 67.6136C65.6307 67.604 65.6994 67.5949 65.7683 67.5893Z" fill="white"/>
<ellipse cx="34.0424" cy="26.0852" rx="4.35755" ry="8.40384" transform="rotate(7.25648 34.0424 26.0852)" fill="#FFFEFE"/>
<ellipse rx="2.65331" ry="5.11709" transform="matrix(0.386607 0.922245 0.922245 -0.386607 29.3114 35.5859)" fill="#FFFEFE"/>
<ellipse cx="42.1257" cy="32.2326" rx="4.35755" ry="8.40384" transform="rotate(67.2565 42.1257 32.2326)" fill="#FFFEFE"/>
<ellipse rx="2.65331" ry="5.11709" transform="matrix(0.991991 0.126311 0.126311 -0.991991 34.2335 39.3293)" fill="#FFFEFE"/>
</g>
<defs>
<linearGradient id="paint0_linear_986_7618" x1="63.0738" y1="151.062" x2="63.0738" y2="90.0961" gradientUnits="userSpaceOnUse">
<stop stop-color="#FFF7ED"/>
<stop offset="0.0001" stop-color="#E5ECF7"/>
<stop offset="0.598958" stop-color="#F1F6FF"/>
<stop offset="1" stop-color="white"/>
</linearGradient>
<linearGradient id="paint1_linear_986_7618" x1="99.894" y1="29.1374" x2="99.894" y2="163.937" gradientUnits="userSpaceOnUse">
<stop stop-color="white"/>
<stop offset="0.47828" stop-color="#FFF7ED"/>
<stop offset="1" stop-color="#FFF3E4"/>
</linearGradient>
<linearGradient id="paint2_linear_986_7618" x1="86.3436" y1="163.378" x2="86.3436" y2="59.2963" gradientUnits="userSpaceOnUse">
<stop stop-color="#FFF7ED"/>
<stop offset="0.0001" stop-color="#E5ECF7"/>
<stop offset="0.598958" stop-color="#F1F6FF"/>
<stop offset="1" stop-color="white"/>
</linearGradient>
<linearGradient id="paint3_linear_986_7618" x1="72.741" y1="39.2911" x2="81.8503" y2="79.4483" gradientUnits="userSpaceOnUse">
<stop stop-color="#CADBF5"/>
<stop offset="1" stop-color="#A9BFE3"/>
</linearGradient>
</defs>
</svg>
