<svg width="116" height="116" viewBox="0 0 116 116" fill="none" xmlns="http://www.w3.org/2000/svg">
<circle cx="58" cy="58" r="58" fill="url(#paint0_linear_986_9083)"/>
<mask id="mask0_986_9083" style="mask-type:alpha" maskUnits="userSpaceOnUse" x="0" y="0" width="116" height="116">
<circle cx="58" cy="58" r="58" fill="url(#paint1_linear_986_9083)"/>
</mask>
<g mask="url(#mask0_986_9083)">
<path d="M85.7009 52.8887C81.9448 68.8522 85.5453 83.1254 90.8039 97.2108C96.0624 111.296 100.614 122.397 98.2342 150.354H31.5342C31.412 144.647 33.3353 130.453 29.8885 108.806C26.4417 87.1599 25.5766 57.1732 28.7957 43.6863C32.0148 30.1993 40.6273 13.6373 61.4738 16.6422C82.3203 19.647 89.457 36.9252 85.7009 52.8887Z" fill="url(#paint2_linear_986_9083)"/>
<path fill-rule="evenodd" clip-rule="evenodd" d="M59.1965 23.8027C51.142 22.3459 44.378 26.8552 40.9615 32.5963C40.0615 34.1086 38.106 34.605 36.5938 33.705C35.0815 32.8051 34.5851 30.8496 35.485 29.3373C39.9117 21.8987 49.0464 15.4906 60.3307 17.5317C62.0624 17.8449 63.2123 19.5026 62.8991 21.2343C62.5859 22.966 60.9282 24.1159 59.1965 23.8027Z" fill="white"/>
<path fill-rule="evenodd" clip-rule="evenodd" d="M63.5391 97.5852C86.4515 121.624 101.58 123.807 109.388 116.223C116.596 109.22 109.833 92.0561 89.98 79.8559C88.3306 78.8423 84.8493 76.515 84.4031 72.4997C77.8858 71.636 81.7563 87.6314 89.0806 92.7022C98.8466 98.8998 101.56 106.865 97.3416 106.631C93.1231 106.396 84.5932 102.179 74.0412 91.006C68.7018 86.1377 61.207 94.9104 63.5391 97.5852Z" fill="url(#paint3_linear_986_9083)"/>
<path d="M58.6082 68.6671C69.6603 68.6671 78.6199 59.3913 78.6199 47.949C78.6199 36.5067 69.6603 27.2309 58.6082 27.2309C47.5561 27.2309 38.5966 36.5067 38.5966 47.949C38.5966 59.3913 47.5561 68.6671 58.6082 68.6671Z" fill="#C2F4FF"/>
<path d="M58.6082 68.6675C69.6603 68.6675 78.6199 59.6215 78.6199 48.4627C78.6199 37.3039 69.6603 28.2579 58.6082 28.2579C47.5561 28.2579 38.5966 37.3039 38.5966 48.4627C38.5966 59.6215 47.5561 68.6675 58.6082 68.6675Z" fill="#108CFF"/>
<path d="M58.6082 68.6675C69.6603 68.6675 78.6199 59.6215 78.6199 48.4627C78.6199 37.3039 69.6603 28.2579 58.6082 28.2579C47.5561 28.2579 38.5966 37.3039 38.5966 48.4627C38.5966 59.6215 47.5561 68.6675 58.6082 68.6675Z" fill="url(#paint4_linear_986_9083)"/>
<path d="M44.0689 50.3658C44.0279 51.415 44.8571 52.3424 45.9063 52.3835C46.9554 52.4245 47.8829 51.5952 47.9239 50.5461C47.9649 49.4969 47.1356 48.5695 46.0865 48.5285C45.0455 48.4468 44.1181 49.276 44.0689 50.3658Z" fill="#2968E5"/>
<path d="M44.0816 50.139C44.0568 51.1069 44.7804 51.9285 45.7807 52.0021C46.7485 52.0268 47.5702 51.3032 47.6438 50.3029C47.6685 49.3351 46.9449 48.5134 45.9446 48.4399C44.9768 48.4151 44.1469 49.1794 44.0816 50.139Z" fill="#2B3760"/>
<path d="M45.8229 49.05C45.6032 49.3021 45.7251 49.7494 46.1235 50.083C46.4812 50.4085 46.9773 50.4656 47.197 50.2135C47.4167 49.9615 47.2948 49.5141 46.8964 49.1805C46.498 48.8469 46.0426 48.798 45.8229 49.05Z" fill="#364D98"/>
<path d="M46.3756 49.2457C46.3186 49.3188 46.3674 49.4978 46.5056 49.6523C46.6519 49.7663 46.8146 49.7988 46.9122 49.7338C46.9773 49.62 46.9204 49.4817 46.7822 49.3271C46.6359 49.2132 46.4325 49.1725 46.3756 49.2457Z" fill="#C3D8F8"/>
<path d="M46.6027 50.6439C46.8385 50.7334 47.0418 50.9856 46.8709 51.2051C46.6024 51.4897 46.2282 51.6685 45.8135 51.6277C45.0571 51.603 44.4311 50.9278 44.4964 50.1796C44.5209 49.8461 44.6186 49.5696 44.8301 49.3582C45.001 49.1387 45.3344 49.3747 45.4481 49.6512C45.5294 49.879 45.7326 50.1312 45.9522 50.3021C46.131 50.4648 46.3587 50.595 46.6027 50.6439Z" fill="#1B244A"/>
<path d="M67.5352 55.5749C67.4942 56.624 68.3234 57.5515 69.3726 57.5925C70.4217 57.6335 71.3492 56.8043 71.3902 55.7551C71.4312 54.706 70.6019 53.7785 69.5528 53.7375C68.5118 53.6558 67.5844 54.4851 67.5352 55.5749Z" fill="#2968E5"/>
<path d="M67.4753 55.3567C67.4506 56.3245 68.1742 57.1462 69.1745 57.2197C70.1424 57.2445 70.964 56.5209 71.0376 55.5206C71.0623 54.5527 70.3387 53.731 69.3384 53.6575C68.3706 53.6328 67.5407 54.397 67.4753 55.3567Z" fill="#2B3760"/>
<path d="M69.2157 54.2673C68.9961 54.5193 69.1179 54.9667 69.5163 55.3003C69.8741 55.6257 70.3702 55.6828 70.5898 55.4307C70.8095 55.1787 70.6877 54.7313 70.2893 54.3978C69.8909 54.0642 69.4354 54.0152 69.2157 54.2673Z" fill="#364D98"/>
<path d="M69.7686 54.4625C69.7117 54.5357 69.7604 54.7147 69.8986 54.8692C70.045 54.9831 70.2076 55.0157 70.3053 54.9507C70.3704 54.8369 70.3135 54.6986 70.1753 54.544C70.0289 54.4301 69.8256 54.3894 69.7686 54.4625Z" fill="#C3D8F8"/>
<path d="M69.996 55.8608C70.2318 55.9503 70.4351 56.2025 70.2642 56.422C69.9957 56.7066 69.6216 56.8854 69.2068 56.8446C68.4504 56.8199 67.8244 56.1447 67.8897 55.3965C67.9142 55.063 68.0119 54.7865 68.2235 54.5751C68.3943 54.3556 68.7277 54.5916 68.8415 54.8681C68.9227 55.0959 69.126 55.3481 69.3455 55.5189C69.5244 55.6817 69.752 55.8119 69.996 55.8608Z" fill="#1B244A"/>
<path d="M42.0241 74.6946C42.0218 73.1872 43.2419 71.9633 44.7493 71.961L76.8236 71.9119C78.331 71.9096 79.5549 73.1297 79.5572 74.6371L79.5897 95.8169C79.592 97.3243 78.3718 98.5482 76.8644 98.5505L44.7901 98.5996C43.2827 98.6019 42.0588 97.3818 42.0565 95.8743L42.0241 74.6946Z" fill="#C4D1E8"/>
<path d="M47.9878 88.5839C46.9949 90.308 47.3491 93.3352 47.5794 95.2128C47.6469 95.6803 47.7598 96.4128 47.837 96.872C48.3432 100.263 49.3886 101.66 48.4878 105.069C47.587 108.478 56.6366 112.774 57.8568 108.639C60.5337 105.069 60.1312 101.003 59.6865 98.3593C59.5976 97.8305 59.4995 97.3745 59.4779 96.9281C59.3149 95.1329 60.5783 91.9941 61.0156 91.139C61.4529 90.284 60.1242 89.6373 59.6428 90.2068C59.1613 90.7763 57.8306 93.4918 57.6296 95.0935C57.5839 95.4575 56.8391 95.2145 56.8298 94.9331C56.8654 92.7931 57.8952 90.5074 58.3522 89.5749C58.8092 88.6423 57.1326 87.502 56.2152 88.7567C55.2977 90.0114 54.6553 91.7041 54.3172 94.3977C54.2715 94.7617 53.45 94.8404 53.4376 94.3212C53.204 91.8517 53.7026 89.6603 54.2416 88.2289C54.7806 86.7974 53.0159 86.4211 52.2708 87.1217C51.0382 88.6568 50.5292 91.8678 50.7229 94.0366C50.8119 94.5654 50.0729 94.6645 49.9075 94.1261C49.5551 92.6029 49.6652 90.4342 49.8874 89.1422C50.0775 88.1787 48.586 87.725 47.9878 88.5839Z" fill="#108CFF"/>
<path d="M20.8262 130.054C38.1094 134.649 55.4551 115.079 57.7184 110.758C59.9818 106.438 50.4954 102.392 48.4877 104.846C21.7401 134.955 13.8738 109.774 29.3248 98.3446C33.2409 95.4478 30.6515 75.4775 27.0723 78.077C27.0723 81.8692 25.6849 85.2657 22.5544 88.3384C7.95659 102.667 5.11852 125.878 20.8262 130.054Z" fill="url(#paint5_linear_986_9083)"/>
</g>
<defs>
<linearGradient id="paint0_linear_986_9083" x1="58.0061" y1="0.00377259" x2="58.0061" y2="116.018" gradientUnits="userSpaceOnUse">
<stop stop-color="#95F2FF"/>
<stop offset="1" stop-color="#82E1FE"/>
</linearGradient>
<linearGradient id="paint1_linear_986_9083" x1="58.0061" y1="0.00377259" x2="58.0061" y2="116.018" gradientUnits="userSpaceOnUse">
<stop stop-color="#95F2FF"/>
<stop offset="1" stop-color="#82E1FE"/>
</linearGradient>
<linearGradient id="paint2_linear_986_9083" x1="62.8359" y1="16.2851" x2="62.8359" y2="150.354" gradientUnits="userSpaceOnUse">
<stop stop-color="white"/>
<stop offset="1" stop-color="#AFE7FF"/>
</linearGradient>
<linearGradient id="paint3_linear_986_9083" x1="81.9934" y1="76.7704" x2="76.7387" y2="114.145" gradientUnits="userSpaceOnUse">
<stop stop-color="#D4F2FF"/>
<stop offset="0.348958" stop-color="#D4F2FF"/>
<stop offset="1" stop-color="#E5F7FF"/>
</linearGradient>
<linearGradient id="paint4_linear_986_9083" x1="69.2736" y1="31.0909" x2="49.8592" y2="66.9006" gradientUnits="userSpaceOnUse">
<stop stop-color="#38A0FF"/>
<stop offset="1" stop-color="#0071D8"/>
</linearGradient>
<linearGradient id="paint5_linear_986_9083" x1="28.1877" y1="83.8769" x2="57.8569" y2="113.546" gradientUnits="userSpaceOnUse">
<stop stop-color="#D4F2FF"/>
<stop offset="0.348958" stop-color="#D4F2FF"/>
<stop offset="1" stop-color="#E5F7FF"/>
</linearGradient>
</defs>
</svg>
