<svg width="358" height="260" viewBox="0 0 358 260" fill="white" xmlns="http://www.w3.org/2000/svg">
<g clip-path="url(#clip0_330:14184)">
<path d="M81.6697 107.798C79.6123 104.298 74.5434 104.298 72.486 107.798L63.9165 122.379C61.8337 125.923 64.3931 130.385 68.5084 130.385L85.6473 130.385C89.7626 130.385 92.322 125.923 90.2392 122.379L81.6697 107.798Z" />
<path d="M81.6697 39.1967C79.6123 35.6961 74.5434 35.6961 72.486 39.1967L63.9165 53.7775C61.8337 57.3212 64.3931 61.7837 68.5084 61.7837L85.6473 61.7837C89.7626 61.7837 92.322 57.3212 90.2392 53.7775L81.6697 39.1967Z" />
<path d="M40.9578 176.395C38.9004 172.894 33.8315 172.894 31.7741 176.395L23.2046 190.976C21.1218 194.519 23.6812 198.982 27.7964 198.982L44.9354 198.982C49.0507 198.982 51.6101 194.519 49.5273 190.976L40.9578 176.395Z" />
<path d="M0.316191 176.395C-1.74119 172.894 -6.81014 172.894 -8.86753 176.395L-17.437 190.976C-19.5198 194.519 -16.9604 198.982 -12.8452 198.982L4.29382 198.982C8.40905 198.982 10.9684 194.519 8.88569 190.976L0.316191 176.395Z" />
<path d="M40.9578 107.798C38.9004 104.298 33.8315 104.298 31.7741 107.798L23.2046 122.379C21.1218 125.923 23.6812 130.385 27.7964 130.385L44.9354 130.385C49.0507 130.385 51.6101 125.923 49.5273 122.379L40.9578 107.798Z" />
<path d="M40.9578 39.1967C38.9004 35.6961 33.8315 35.6961 31.7741 39.1967L23.2046 53.7775C21.1218 57.3212 23.6812 61.7837 27.7964 61.7837L44.9354 61.7837C49.0507 61.7837 51.6101 57.3212 49.5273 53.7775L40.9578 39.1967Z" />
<path d="M0.316191 107.798C-1.74119 104.298 -6.81014 104.298 -8.86753 107.798L-17.437 122.379C-19.5198 125.923 -16.9604 130.385 -12.8452 130.385L4.29382 130.385C8.40905 130.385 10.9684 125.923 8.88569 122.379L0.316191 107.798Z" />
<path d="M122.464 39.1967C120.406 35.6961 115.337 35.6961 113.28 39.1967L104.71 53.7775C102.628 57.3212 105.187 61.7837 109.302 61.7837L126.441 61.7837C130.557 61.7837 133.116 57.3212 131.033 53.7775L122.464 39.1967Z" />
<path d="M0.316191 39.1967C-1.74119 35.6961 -6.81014 35.6961 -8.86753 39.1967L-17.437 53.7775C-19.5198 57.3212 -16.9604 61.7837 -12.8452 61.7837L4.29382 61.7837C8.40905 61.7837 10.9684 57.3212 8.88569 53.7775L0.316191 39.1967Z" />
<path d="M122.553 17.9117C120.496 21.4123 115.427 21.4123 113.37 17.9117L104.8 3.33091C102.718 -0.21284 105.277 -4.67531 109.392 -4.67531L126.531 -4.67531C130.646 -4.67531 133.206 -0.212837 131.123 3.33092L122.553 17.9117Z" />
<path d="M81.6697 155.335C79.6123 158.836 74.5434 158.836 72.486 155.336L63.9165 140.755C61.8337 137.211 64.3931 132.749 68.5084 132.749L85.6473 132.749C89.7626 132.749 92.322 137.211 90.2392 140.755L81.6697 155.335Z" />
<path d="M81.6697 86.733C79.6123 90.2335 74.5434 90.2335 72.486 86.733L63.9165 72.1522C61.8337 68.6085 64.3931 64.146 68.5084 64.146L85.6473 64.146C89.7626 64.146 92.322 68.6085 90.2392 72.1522L81.6697 86.733Z" />
<path d="M81.8406 17.9107C79.7832 21.4113 74.7143 21.4113 72.6569 17.9107L64.0874 3.32994C62.0046 -0.213817 64.564 -4.67629 68.6793 -4.67629L85.8182 -4.67629C89.9335 -4.67628 92.4929 -0.213814 90.4101 3.32994L81.8406 17.9107Z" />
<path d="M40.9578 155.335C38.9004 158.836 33.8315 158.836 31.7741 155.336L23.2046 140.755C21.1218 137.211 23.6812 132.749 27.7964 132.749L44.9354 132.749C49.0507 132.749 51.6101 137.211 49.5273 140.755L40.9578 155.335Z" />
<path d="M40.9578 86.733C38.9004 90.2335 33.8315 90.2335 31.7741 86.733L23.2046 72.1522C21.1218 68.6085 23.6812 64.146 27.7964 64.146L44.9354 64.146C49.0507 64.146 51.6101 68.6085 49.5273 72.1522L40.9578 86.733Z" />
<path d="M41.198 17.9107C39.1406 21.4113 34.0717 21.4113 32.0143 17.9107L23.4448 3.32994C21.3621 -0.213817 23.9214 -4.67629 28.0367 -4.67629L45.1757 -4.67629C49.2909 -4.67628 51.8503 -0.213814 49.7675 3.32994L41.198 17.9107Z" />
<path d="M122.464 86.733C120.406 90.2335 115.337 90.2335 113.28 86.733L104.71 72.1522C102.628 68.6085 105.187 64.146 109.302 64.146L126.441 64.146C130.557 64.146 133.116 68.6085 131.033 72.1522L122.464 86.733Z" />
<path d="M0.316191 155.335C-1.74119 158.836 -6.81014 158.836 -8.86753 155.336L-17.437 140.755C-19.5198 137.211 -16.9604 132.749 -12.8452 132.749L4.29382 132.749C8.40905 132.749 10.9684 137.211 8.88569 140.755L0.316191 155.335Z" />
<path d="M0.316191 86.733C-1.74119 90.2335 -6.81014 90.2335 -8.86753 86.733L-17.437 72.1522C-19.5198 68.6085 -16.9604 64.146 -12.8452 64.146L4.29382 64.146C8.40905 64.146 10.9684 68.6085 8.88569 72.1522L0.316191 86.733Z" />
<path d="M52.1682 189.63C54.2256 193.131 59.2945 193.131 61.3519 189.63L69.9214 175.05C72.0042 171.506 69.4448 167.043 65.3295 167.043L48.1906 167.043C44.0753 167.043 41.5159 171.506 43.5987 175.05L52.1682 189.63Z" />
<path d="M52.1682 121.035C54.2256 124.535 59.2945 124.535 61.3519 121.035L69.9214 106.454C72.0042 102.91 69.4448 98.4477 65.3295 98.4477L48.1906 98.4477C44.0753 98.4477 41.5159 102.91 43.5987 106.454L52.1682 121.035Z" />
<path d="M52.1682 52.4332C54.2256 55.9337 59.2945 55.9337 61.3519 52.4332L69.9214 37.8524C72.0042 34.3086 69.4448 29.8462 65.3295 29.8462L48.1906 29.8462C44.0753 29.8462 41.5159 34.3086 43.5987 37.8524L52.1682 52.4332Z" />
<path d="M133.763 4.67524C135.82 1.17466 140.889 1.17466 142.947 4.67524L151.516 19.256C153.599 22.7997 151.039 27.2622 146.924 27.2622L129.785 27.2622C125.67 27.2622 123.111 22.7997 125.193 19.256L133.763 4.67524Z" />
<path d="M93.05 4.67524C95.1074 1.17466 100.176 1.17466 102.234 4.67524L110.803 19.256C112.886 22.7997 110.327 27.2622 106.211 27.2622L89.0724 27.2622C84.9572 27.2622 82.3978 22.7997 84.4805 19.256L93.05 4.67524Z" />
<path d="M52.1682 142.099C54.2256 138.598 59.2945 138.598 61.3519 142.099L69.9214 156.68C72.0042 160.224 69.4448 164.686 65.3295 164.686L48.1906 164.686C44.0753 164.686 41.5159 160.224 43.5987 156.68L52.1682 142.099Z" />
<path d="M52.1682 73.4975C54.2256 69.9969 59.2945 69.9969 61.3519 73.4975L69.9214 88.0783C72.0042 91.622 69.4448 96.0845 65.3295 96.0845L48.1906 96.0845C44.0753 96.0845 41.5159 91.622 43.5987 88.0783L52.1682 73.4975Z" />
<path d="M11.5256 189.63C13.583 193.131 18.6519 193.131 20.7093 189.63L29.2788 175.05C31.3616 171.506 28.8022 167.043 24.687 167.043L7.54797 167.043C3.43275 167.043 0.87335 171.506 2.95611 175.05L11.5256 189.63Z" />
<path d="M11.5256 121.035C13.583 124.535 18.6519 124.535 20.7093 121.035L29.2788 106.454C31.3616 102.91 28.8022 98.4477 24.687 98.4477L7.54797 98.4477C3.43275 98.4477 0.87335 102.91 2.95611 106.454L11.5256 121.035Z" />
<path d="M133.674 52.4332C135.731 55.9337 140.8 55.9337 142.858 52.4332L151.427 37.8524C153.51 34.3086 150.951 29.8462 146.835 29.8462L129.696 29.8462C125.581 29.8462 123.022 34.3086 125.105 37.8524L133.674 52.4332Z" />
<path d="M11.5256 52.4332C13.583 55.9337 18.6519 55.9337 20.7093 52.4332L29.2788 37.8524C31.3616 34.3086 28.8022 29.8462 24.687 29.8462L7.54797 29.8462C3.43275 29.8462 0.87335 34.3086 2.95611 37.8524L11.5256 52.4332Z" />
<path d="M93.0324 121.035C95.0898 124.535 100.159 124.535 102.216 121.035L110.786 106.454C112.868 102.91 110.309 98.4477 106.194 98.4477L89.0548 98.4477C84.9396 98.4477 82.3802 102.91 84.4629 106.454L93.0324 121.035Z" />
<path d="M93.0324 52.4332C95.0898 55.9337 100.159 55.9337 102.216 52.4332L110.786 37.8524C112.868 34.3086 110.309 29.8462 106.194 29.8462L89.0548 29.8462C84.9396 29.8462 82.3802 34.3086 84.4629 37.8524L93.0324 52.4332Z" />
<path d="M52.4084 4.67524C54.4658 1.17466 59.5348 1.17466 61.5921 4.67524L70.1616 19.256C72.2444 22.7997 69.685 27.2622 65.5698 27.2622L48.4308 27.2622C44.3156 27.2622 41.7562 22.7997 43.8389 19.256L52.4084 4.67524Z" />
<path d="M11.5256 142.099C13.583 138.598 18.6519 138.598 20.7093 142.099L29.2788 156.68C31.3616 160.224 28.8022 164.686 24.687 164.686L7.54797 164.686C3.43275 164.686 0.87335 160.224 2.95611 156.68L11.5256 142.099Z" />
<path d="M11.5256 73.4975C13.583 69.9969 18.6519 69.9969 20.7093 73.4975L29.2788 88.0783C31.3616 91.622 28.8022 96.0845 24.687 96.0845L7.54797 96.0845C3.43275 96.0845 0.87335 91.622 2.95611 88.0783L11.5256 73.4975Z" />
<path d="M11.7649 4.67524C13.8223 1.17466 18.8912 1.17466 20.9486 4.67524L29.5181 19.256C31.6008 22.7997 29.0415 27.2622 24.9262 27.2622L7.78723 27.2622C3.672 27.2622 1.11261 22.7997 3.19537 19.256L11.7649 4.67524Z" />
<path d="M93.0324 73.4975C95.0898 69.9969 100.159 69.9969 102.216 73.4975L110.786 88.0783C112.868 91.622 110.309 96.0845 106.194 96.0845L89.0548 96.0845C84.9396 96.0845 82.3802 91.622 84.4629 88.0783L93.0324 73.4975Z" />
<path d="M154.28 18.3482C156.338 21.8488 161.407 21.8488 163.464 18.3482L172.034 3.76744C174.116 0.223688 171.557 -4.23879 167.442 -4.23879L150.303 -4.23878C146.188 -4.23878 143.628 0.223688 145.711 3.76744L154.28 18.3482Z" />
<path d="M-8.86893 18.3482C-6.81154 21.8488 -1.74259 21.8488 0.31479 18.3482L8.88428 3.76744C10.967 0.223688 8.40765 -4.23879 4.29243 -4.23879L-12.8466 -4.23878C-16.9618 -4.23878 -19.5212 0.223688 -17.4384 3.76744L-8.86893 18.3482Z" />
</g>
<defs>
<clipPath id="clip0_330:14184">
<rect width="358" height="260" rx="16" fill="white"/>
</clipPath>
</defs>
</svg>
