<svg width="314" height="182" viewBox="0 0 314 182" fill="none" xmlns="http://www.w3.org/2000/svg">
<ellipse cx="156.5" cy="159" rx="55.5" ry="12" fill="#3ADBFF"/>
<path d="M105.502 131.952C93.7679 134.784 90.2756 152.929 99.578 155.768C119.224 160.771 131.362 158.986 150.829 152.784C162.464 148.816 154.945 137.487 145.034 133.497C131.595 128.804 117.236 129.12 105.502 131.952Z" fill="#D6F8FF"/>
<path d="M208.715 125.668C217.618 126.234 220.753 141.915 211.491 144.741L167.041 153.01C161.955 153.961 168.216 136.132 173.176 132.958C186.556 128.287 195.477 125.678 208.715 125.668Z" fill="#D6F8FF"/>
<path d="M138.133 64.5093C132.067 60.4887 126.057 55.0907 126.057 46.7108C126.254 43.0926 127.303 35.8139 131.463 30.1974C140.044 18.6104 157.143 15.3359 170.001 24.5399C174.905 28.0501 177.482 32.6131 179.125 37.1761C181.426 43.5641 182.621 57.5171 172.134 62.9202C169.19 64.6499 166.415 67.9664 168.957 70.2309C171.499 72.4954 176.02 72.9174 177.287 78.0167C177.89 80.4484 179.748 84.3005 181.949 88.8625C188.444 102.327 195.539 133.232 184.528 140.789C172.536 150.642 149.255 152.534 131.463 142.544C115.979 133.851 123.255 101.068 130.31 87.4291C132.37 83.4478 134.082 80.1385 134.682 78.0167C135.488 75.1644 136.49 74.1208 140.44 72.5533C140.508 72.5026 140.586 72.4511 140.675 72.3986C140.675 72.3986 140.833 72.3849 141.31 72.0808C145.195 69.6069 140.675 66.1943 138.133 64.5093Z" fill="url(#paint0_linear_905_7692)"/>
<path d="M173.334 45.3719C171.447 54.1162 163.859 59.5615 151.265 58.2896C136.539 56.5408 134.078 46.0078 135.186 39.4893C136.252 33.2491 143.267 25.4189 153.275 25.4189C163.284 25.4189 176.124 32.6131 173.334 45.3719Z" fill="url(#paint1_linear_905_7692)"/>
<path d="M147.93 37.0158C146.459 39.2376 145.068 38.9772 143.055 37.9517C142.752 37.7998 142.457 38.1891 142.638 38.5119C144.289 41.5597 148.225 40.7947 148.528 37.2627C148.557 36.8829 148.139 36.712 147.93 37.0158Z" fill="#FCFEFF"/>
<path d="M200.943 127.824C191.653 130.889 168.788 147.392 147.828 153.879C145.855 154.552 144.808 154.86 140.591 162.429C135.918 171.281 135.175 176.463 138.139 179.798C141.102 183.134 145.027 179.638 148.905 175.49C153.328 170.756 154.767 170.507 158.117 169.161C166.282 165.658 198.553 161.805 211.231 150.176C223.909 138.547 213.952 123.534 200.943 127.824Z" fill="#D6F8FF"/>
<path d="M166.485 34.8487C165.73 37.5504 164.155 37.1006 162.675 36.0251C162.452 35.8661 162.295 36.3418 162.453 36.7093C163.957 39.6574 167.652 38.1006 166.918 35.1003C166.895 34.6527 166.586 34.4793 166.485 34.8487Z" fill="#FCFEFF"/>
<path d="M138.45 73.4106C123.896 77.3047 113.55 98.5479 107.308 110.279C102.58 103.413 99.4615 100.484 96.2289 97.7672C95.1665 95.3263 92.8571 93.1389 91.7777 92.6161C91.1545 92.3143 90.3273 92.0933 89.4538 91.8599C87.8834 91.4403 86.1635 90.9807 85.2116 89.94C83.1681 87.7262 81.856 89.8476 82.552 91.2038C83.0694 92.2467 84.2188 92.7717 85.151 93.1975C85.791 93.4898 86.3286 93.7354 86.4891 94.0697C86.8832 94.891 86.4045 95.7074 84.7944 95.6249C83.3238 95.5547 81.2456 94.3297 80.1806 93.5819C81.0121 93.1114 82.253 92.0482 82.2165 90.3635C82.203 89.1889 80.6921 88.4339 79.7974 89.8786C79.0397 91.1022 78.2699 91.7285 77.2317 92.5732C77.0441 92.7259 76.8476 92.8857 76.6408 93.0575C75.8926 93.8158 76.3449 94.7046 77.0557 95.4458C74.4877 95.0958 71.4098 94.8187 70.0069 95.2354C68.021 95.8254 67.6529 97.6243 69.6935 97.6659C72.237 97.7389 77.0341 98.2063 78.9189 98.4989C78.9151 98.5421 78.9115 98.5859 78.9079 98.6304C76.1558 98.2998 72.0346 97.9371 70.3722 98.5058C68.4114 99.1766 67.8232 100.951 69.8676 100.931C72.3075 100.909 76.887 101.199 78.9071 101.412C78.9149 101.486 78.9234 101.559 78.9328 101.631C76.8294 101.381 74.2714 101.183 73.2218 101.515C71.7133 101.994 71.2395 103.689 72.7769 103.711C74.8753 103.737 79.5898 104.159 80.6775 104.354C80.6913 104.356 80.705 104.358 80.7187 104.36C80.7302 104.361 80.7417 104.363 80.7533 104.364C81.9391 104.535 83.0256 104.729 84.023 104.907C85.9054 105.243 88.1256 105.332 90.1792 105.08C92.1498 112.159 97.5559 129.64 103.97 134.032C106.566 135.52 111.315 132.896 113.337 128.641C121.557 117.267 125.444 106.324 127.01 103.711C132.265 92.9513 138.45 73.4106 138.45 73.4106Z" fill="#FCFEFF"/>
<path d="M170.655 72.1396C189.722 76.5887 194.11 95.4075 201.009 108.649L201.01 108.649C201.745 110.06 202.445 111.404 203.11 112.653C207.838 105.787 211.868 100.484 215.101 97.767C216.163 95.326 218.472 93.1387 219.552 92.6159C220.175 92.3141 221.002 92.0931 221.876 91.8597C223.446 91.4401 225.166 90.9805 226.118 89.9398C228.161 87.726 229.473 89.8473 228.778 91.2035C228.26 92.2465 227.111 92.7715 226.179 93.1972C225.539 93.4896 225.001 93.7351 224.84 94.0695C224.446 94.8908 224.925 95.7072 226.535 95.6246C228.006 95.5544 230.084 94.3295 231.149 93.5816C230.317 93.1111 229.076 92.048 229.113 90.3632C229.126 89.1886 230.637 88.4336 231.532 89.8784C232.29 91.102 233.06 91.7282 234.098 92.573C234.285 92.7256 234.482 92.8855 234.689 93.0573C235.437 93.8155 234.985 94.7044 234.274 95.4456C236.842 95.0955 239.92 94.8184 241.323 95.2352C243.308 95.8251 243.677 97.624 241.636 97.6656C239.093 97.7387 234.295 98.206 232.411 98.4986C232.414 98.5419 232.418 98.5857 232.422 98.6301C235.174 98.2995 239.295 97.9368 240.957 98.5055C242.918 99.1764 243.506 100.951 241.462 100.931C239.022 100.909 234.443 101.199 232.422 101.412C232.415 101.485 232.406 101.559 232.397 101.631C234.5 101.381 237.058 101.182 238.108 101.515C239.616 101.993 240.09 103.689 238.553 103.71C236.454 103.736 231.74 104.159 230.652 104.353C230.638 104.356 230.624 104.358 230.611 104.359C230.599 104.361 230.588 104.363 230.576 104.364C229.39 104.535 228.304 104.729 227.306 104.907C225.424 105.243 223.204 105.332 221.15 105.08C219.18 112.159 213.774 129.64 207.36 134.032C204.764 135.52 200.014 132.896 197.993 128.641C189.772 117.267 171.437 86.8656 169.87 84.252C164.615 73.4927 164.715 68.7144 170.655 72.1396Z" fill="#FCFEFF"/>
<path d="M106.542 134.16C115.986 135.61 140.895 143.327 161.792 149.824C167.605 151.628 170.088 152.539 171.906 156.651C173.724 160.762 175.656 171.684 174.747 176.181C173.838 180.678 169.864 183.163 165.997 179.008C162.133 174.125 161.224 166.801 156.11 165.773C150.996 164.745 109.532 166.201 97.0537 155.304C88.5595 147.881 93.5891 132.996 106.542 134.16Z" fill="url(#paint2_linear_905_7692)"/>
<path d="M237.497 63.2613L239.206 64.8666C241.226 66.887 246.37 65.2571 251.005 61.3982C256.358 56.9617 259.347 50.8953 257.792 47.6816C257.594 47.2696 257.291 46.9691 256.946 46.6245L255.412 45.1603C255.723 45.4713 255.837 45.6529 256.08 46.091C257.635 49.3046 254.5 55.5049 249.147 59.9414C244.512 63.8003 239.73 65.0577 237.497 63.2613Z" fill="#EDAC31"/>
<path d="M243.61 48.3598C238.257 52.7964 235.144 58.987 236.699 62.2006C238.253 65.4143 243.835 64.4167 249.195 59.9378C254.548 55.5013 257.661 49.3107 256.106 46.097C254.552 42.8834 248.963 43.9233 243.61 48.3598Z" fill="#FCCC34"/>
<path d="M244.547 50.463C241.196 53.261 238.639 57.9029 239.643 59.9009C240.605 61.9008 244.688 60.5408 248.039 57.7428C251.39 54.9448 253.977 50.259 253.016 48.2592C252.061 46.2182 247.899 47.6649 244.547 50.463Z" fill="#FFE592"/>
<path d="M66.824 64.6634L65.228 66.1622C63.342 68.0486 58.5397 66.5268 54.2116 62.9239C49.2137 58.7816 46.4234 53.1175 47.8747 50.117C48.0597 49.7323 48.3429 49.4518 48.6646 49.1301L50.0974 47.7629C49.8071 48.0533 49.7001 48.2228 49.4731 48.6319C48.0219 51.6324 50.9484 57.4214 55.9462 61.5637C60.2744 65.1666 64.7389 66.3407 66.824 64.6634Z" fill="#EDAC31"/>
<path d="M61.1142 50.7505C66.1121 54.8928 69.0183 60.6728 67.5671 63.6733C66.1158 66.6738 60.9038 65.7424 55.8994 61.5606C50.9015 57.4183 47.9953 51.6383 49.4465 48.6378C50.8978 45.6373 56.1164 46.6083 61.1142 50.7505Z" fill="#FCCC34"/>
<path d="M60.2394 52.7173C63.3685 55.3297 65.7565 59.6638 64.8181 61.5292C63.9203 63.3964 60.1085 62.1267 56.9795 59.5142C53.8505 56.9018 51.4349 52.5269 52.3327 50.6597C53.2241 48.7541 57.1104 50.1048 60.2394 52.7173Z" fill="#FFE592"/>
<path d="M301.824 27.9416L300.847 29.517C299.717 31.4727 295.453 31.2821 291.121 29.2863C286.124 26.9966 282.599 22.9786 283.129 20.2075C283.196 19.8525 283.367 19.561 283.559 19.2275L284.432 17.7956C284.259 18.0966 284.208 18.2587 284.112 18.6428C283.582 21.414 287.245 25.5042 292.243 27.7939C296.575 29.7897 300.486 29.7701 301.824 27.9416Z" fill="#EDAC31"/>
<path d="M294.103 17.8204C299.101 20.1102 302.746 24.1975 302.215 26.9686C301.685 29.7397 297.216 30.1217 292.204 27.801C287.206 25.5113 283.561 21.424 284.091 18.6529C284.621 15.8817 289.105 15.5307 294.103 17.8204Z" fill="#FCCC34"/>
<path d="M293.818 19.6215C296.951 21.0707 299.855 24.0897 299.496 25.8204C299.17 27.5437 295.773 27.342 292.64 25.8928C289.506 24.4437 286.571 21.3973 286.896 19.674C287.208 17.9207 290.685 18.1724 293.818 19.6215Z" fill="#FFE592"/>
<path d="M26.3787 81.8806L25.4659 83.3515C24.4107 85.1775 20.4299 84.9996 16.3856 83.1362C11.7193 80.9983 8.42844 77.2468 8.92351 74.6595C8.98615 74.328 9.14522 74.0559 9.3252 73.7445L10.1403 72.4075C9.97786 72.6886 9.93081 72.84 9.84106 73.1986C9.34599 75.7859 12.7665 79.6049 17.4328 81.7428C21.4771 83.6062 25.1287 83.5878 26.3787 81.8806Z" fill="#EDAC31"/>
<path d="M19.1695 72.4307C23.8358 74.5686 27.239 78.3848 26.7439 80.9721C26.2488 83.5594 22.0757 83.916 17.3963 81.7493C12.7299 79.6115 9.32679 75.7952 9.82187 73.2079C10.3169 70.6206 14.5031 70.2928 19.1695 72.4307Z" fill="#FCCC34"/>
<path d="M18.9037 74.1123C21.8291 75.4654 24.5405 78.2841 24.2051 79.9001C23.9011 81.5091 20.7287 81.3207 17.8033 79.9677C14.878 78.6146 12.1371 75.7703 12.4412 74.1613C12.7325 72.5243 15.9784 72.7593 18.9037 74.1123Z" fill="#FFE592"/>
<path d="M286.541 66.9858L290.375 66.3306C295.029 65.4148 300.102 70.8601 302.284 78.5114C304.823 87.3244 302.649 96.3655 297.408 98.9749C296.738 99.3102 296.042 99.4443 295.248 99.6005L291.783 100.215C292.5 100.074 292.831 99.9454 293.586 99.6114C298.827 97.0021 300.944 87.7058 298.405 78.8929C296.223 71.2416 291.249 66.4752 286.541 66.9858Z" fill="#EDAC31"/>
<path d="M280.657 88.0744C278.118 79.2614 280.254 69.9914 285.495 67.382C290.736 64.7727 297.014 69.7969 299.519 78.6634C302.058 87.4764 299.922 96.7464 294.681 99.3558C289.44 101.965 283.196 96.8873 280.657 88.0744Z" fill="#FCCC34"/>
<path d="M283.987 86.3057C282.418 80.7647 283.728 73.6583 287.037 72.0629C290.291 70.4351 294.251 74.8333 295.82 80.3743C297.389 85.9153 296.074 93.0925 292.82 94.7203C289.534 96.3999 285.556 91.8467 283.987 86.3057Z" fill="#FFE592"/>
<path d="M29.5766 8.9873L26.7967 8.20603C23.4417 7.14819 18.7447 11.8511 15.8683 18.699C12.5356 26.5853 12.7127 34.9074 16.2361 37.5327C16.6866 37.87 17.1889 38.0256 17.7611 38.2061L20.2697 38.9327C19.7533 38.7698 19.525 38.6367 19.0105 38.2965C15.4871 35.6711 15.3935 27.1199 18.7261 19.2336C21.6026 12.3858 26.1156 8.2951 29.5766 8.9873Z" fill="#EDAC31"/>
<path d="M31.353 28.7344C34.6857 20.8481 34.5738 12.3199 31.0503 9.69447C27.5269 7.06909 21.9912 11.3309 18.675 19.2675C15.3423 27.1538 15.4542 35.6821 18.9776 38.3075C22.501 40.9329 28.0203 36.6208 31.353 28.7344Z" fill="#FCCC34"/>
<path d="M29.135 26.9678C31.2099 22.0081 31.3705 15.4862 29.1377 13.8759C26.9513 12.2389 23.2606 16.044 21.1858 21.0037C19.1109 25.9635 18.9429 32.55 21.1293 34.187C23.3316 35.8728 27.0602 31.9275 29.135 26.9678Z" fill="#FFE592"/>
<ellipse cx="34.5" cy="165" rx="17.5" ry="4" fill="#3ADBFF"/>
<path fill-rule="evenodd" clip-rule="evenodd" d="M16 112C16 109.239 18.2386 107 21 107H47C49.7614 107 52 109.239 52 112V116C52 124.061 46.7009 130.885 39.396 133.177C38.589 133.43 38 134.154 38 135C38 135.846 38.589 136.57 39.396 136.823C46.7009 139.115 52 145.939 52 154V159.49C52 161.596 50.6855 163.499 48.6611 164.082C39.0826 166.84 28.9174 166.84 19.3389 164.082C17.3145 163.499 16 161.596 16 159.49V154C16 145.939 21.2991 139.115 28.604 136.823C29.411 136.57 30 135.846 30 135C30 134.154 29.411 133.43 28.604 133.177C21.2991 130.885 16 124.061 16 116V112Z" fill="#FCFEFF"/>
<path d="M19 118H49C48.4357 125.336 42.3188 131 34.9616 131H33.0384C25.6812 131 19.5643 125.336 19 118Z" fill="#FCCC34"/>
<path d="M49 159L20 159C20 156.239 22.2386 154 25 154L44 154C46.7614 154 49 156.239 49 159Z" fill="#FCCC34"/>
<rect x="32" y="125" width="4" height="15" rx="2" fill="#FCCC34"/>
<rect x="32" y="145" width="4" height="5" rx="2" fill="#FCCC34"/>
<defs>
<linearGradient id="paint0_linear_905_7692" x1="156.274" y1="19.2173" x2="156.274" y2="149.17" gradientUnits="userSpaceOnUse">
<stop stop-color="#FCFEFF"/>
<stop offset="0.511699" stop-color="#FCFEFF"/>
<stop offset="1" stop-color="#D4F8FF"/>
</linearGradient>
<linearGradient id="paint1_linear_905_7692" x1="164.669" y1="27.7363" x2="150.323" y2="59.07" gradientUnits="userSpaceOnUse">
<stop stop-color="#38A0FF"/>
<stop offset="1" stop-color="#0071D8"/>
</linearGradient>
<linearGradient id="paint2_linear_905_7692" x1="133.919" y1="134.095" x2="133.919" y2="181.129" gradientUnits="userSpaceOnUse">
<stop stop-color="#D6F8FF"/>
<stop offset="1" stop-color="white"/>
</linearGradient>
</defs>
</svg>
