<svg width="314" height="163" viewBox="0 0 314 163" fill="none" xmlns="http://www.w3.org/2000/svg">
<ellipse cx="289.5" cy="139.5" rx="21.5" ry="4.5" fill="#3ADBFF"/>
<path d="M264 108C264 106.895 264.895 106 266 106H312C313.105 106 314 106.895 314 108V136.015C314 137.672 312.657 139.015 311 139.015H267C265.343 139.015 264 137.672 264 136.015V108Z" fill="#DDF9FF"/>
<ellipse cx="289" cy="107" rx="25" ry="5" fill="#DDF9FF"/>
<ellipse cx="289" cy="137" rx="25" ry="5" fill="#DDF9FF"/>
<ellipse cx="289" cy="108.5" rx="22" ry="3.5" fill="#8FE6FA"/>
<ellipse cx="158.5" cy="140" rx="55.5" ry="12" fill="#3ADBFF"/>
<path d="M107.502 112.951C95.7679 115.783 92.2756 133.929 101.578 136.767C121.224 141.771 133.362 139.986 152.829 133.784C164.464 129.815 156.945 118.487 147.034 114.496C133.595 109.803 119.236 110.119 107.502 112.951Z" fill="#D6F8FF"/>
<path d="M210.715 106.668C219.618 107.233 222.753 122.915 213.491 125.74L169.041 134.009C163.955 134.961 170.216 117.132 175.176 113.958C188.556 109.286 197.477 106.677 210.715 106.668Z" fill="#D6F8FF"/>
<path d="M140.133 45.5088C134.067 41.4882 128.057 36.0902 128.057 27.7103C128.254 24.0922 129.303 16.8134 133.463 11.1969C142.044 -0.390109 159.143 -3.66457 172.001 5.53942C176.905 9.04957 179.482 13.6126 181.125 18.1756C183.426 24.5636 184.621 38.5166 174.134 43.9197C171.19 45.6494 168.415 48.966 170.957 51.2304C173.499 53.4949 178.02 53.9169 179.287 59.0162C179.89 61.4479 181.748 65.3001 183.949 69.862C190.444 83.3262 197.539 114.232 186.528 121.789C174.536 131.641 151.255 133.533 133.463 123.544C117.979 114.85 125.255 82.067 132.31 68.4287C134.37 64.4473 136.082 61.138 136.682 59.0162C137.488 56.1639 138.49 55.1204 142.44 53.5528C142.508 53.5022 142.586 53.4506 142.675 53.3981C142.675 53.3981 142.833 53.3844 143.31 53.0803C147.195 50.6064 142.675 47.1938 140.133 45.5088Z" fill="url(#paint0_linear_917_9186)"/>
<path d="M175.334 30.9525C173.447 39.6968 165.859 45.1421 153.265 43.8702C138.539 42.1213 136.078 31.5884 137.186 25.0699C138.252 18.8296 145.267 10.9995 155.275 10.9995C165.284 10.9995 178.124 18.1937 175.334 30.9525Z" fill="url(#paint1_linear_917_9186)"/>
<path d="M202.943 108.824C193.653 111.888 170.788 128.391 149.828 134.878C147.855 135.552 146.808 135.859 142.591 143.428C137.918 152.28 137.175 157.462 140.139 160.798C143.102 164.133 147.027 160.638 150.905 156.489C155.328 151.756 156.767 151.507 160.117 150.161C168.282 146.658 200.553 142.804 213.231 131.175C225.909 119.547 215.952 104.534 202.943 108.824Z" fill="#D6F8FF"/>
<path d="M108.542 115.159C117.986 116.61 142.895 124.326 163.792 130.824C169.605 132.627 172.088 133.538 173.906 137.65C175.724 141.762 177.656 152.683 176.747 157.18C175.838 161.677 171.864 164.162 167.997 160.007C164.133 155.124 163.224 147.801 158.11 146.773C152.996 145.745 111.532 147.201 99.0537 136.303C90.5595 128.881 95.5891 113.996 108.542 115.159Z" fill="url(#paint2_linear_917_9186)"/>
<path d="M167.472 28.8282C167.648 29.922 168.665 30.7067 169.761 30.5296C170.857 30.3526 171.645 29.3366 171.469 28.2429C171.293 27.1491 170.276 26.3644 169.18 26.5414C168.072 26.6798 167.296 27.7344 167.472 28.8282Z" fill="#354781"/>
<path d="M170.068 27.2749C169.997 27.4033 170.124 27.6274 170.338 27.7711C170.603 27.8987 170.873 27.866 170.944 27.7376C171.016 27.6092 170.889 27.3851 170.675 27.2414C170.461 27.0976 170.191 27.1303 170.068 27.2749Z" fill="#9CB0CD"/>
<path d="M170.514 28.6026C170.703 28.6133 170.9 28.7633 170.815 28.9667C170.603 29.3521 170.238 29.6091 169.779 29.684C169.039 29.8123 168.318 29.2983 168.24 28.5809C168.206 28.2383 168.283 27.8957 168.492 27.6173C168.62 27.4353 168.884 27.5638 169.013 27.7351C169.162 27.9707 169.378 28.1849 169.696 28.367C169.97 28.5276 170.247 28.5812 170.514 28.6026Z" fill="#1A2A63"/>
<path d="M145.555 29.0411C145.698 30.1487 146.667 30.9092 147.756 30.735C148.844 30.5609 149.65 29.4943 149.507 28.3867C149.364 27.2791 148.395 26.5186 147.307 26.6928C146.218 26.8669 145.412 27.9335 145.555 29.0411Z" fill="#354781"/>
<path d="M147.974 29.2877C148.097 29.2831 148.23 29.412 148.176 29.5321C148.048 29.8123 147.796 29.9947 147.523 30.0127C146.987 30.0797 146.443 29.5332 146.31 28.8219C146.248 28.4307 146.319 28.0661 146.456 27.817C146.511 27.6969 146.673 27.8169 146.712 27.9413C146.753 28.168 146.832 28.417 147.005 28.6703C147.312 29.0525 147.664 29.2834 147.974 29.2877Z" fill="#1A2A63"/>
<path opacity="0.54" d="M147.756 27.383C147.588 27.4821 147.594 27.7103 147.721 27.9003C147.908 28.0712 148.189 28.1203 148.356 28.0211C148.524 27.922 148.518 27.6938 148.392 27.5038C148.205 27.3329 147.924 27.2838 147.756 27.383Z" fill="white"/>
<path d="M114.5 76.3603C121.574 67.3121 134.5 57.9997 138.5 55.4997L152.443 62.1548L153.296 76.3595C147.182 72.1329 141.953 71.0737 129.5 82.5001C112.282 98.3574 132.012 118.992 125 118.999C118.568 118.999 101.853 116.223 110 113.5C101.115 104.963 106.329 86.8117 114.5 76.3603Z" fill="#FCFEFF"/>
<path d="M194.928 68.499C186.907 61.1363 181.5 55.9995 176 54.4995L168 55.5C174.405 66.2867 176.077 73.5655 182.393 79.8709C198.928 96.4389 215.292 97.1507 222.297 97.4531L222.447 97.4704C228.873 97.7413 235.926 87.2763 227.901 84.2129C219.026 80.7814 208.756 81.2303 194.928 68.499Z" fill="#FCFEFF"/>
<path d="M252.355 101.689C251.299 99.5747 247.021 95.3305 243.61 92.7469C240.199 90.1632 234.819 86.8162 229.152 85.6416C224.748 84.7257 220.427 93.9227 225.758 96.3304C228.776 97.6942 230.95 99.1318 233.425 101.332C233.786 101.648 233.955 102.065 233.855 102.531C235.698 105.759 240.582 106.148 240.587 104.432C240.592 102.967 240.526 101.626 240.465 101.283C240.337 100.569 241.452 100.262 241.904 101.221C242.395 102.159 243.613 105.429 244.21 107.323C244.825 109.345 247.188 108.892 247.126 107.27C247.045 105.612 245.807 102.398 244.94 100.645C244.073 98.8925 244.594 98.5745 245.396 98.9826C246.198 99.3907 248.804 101.936 249.925 103.142C251.065 104.292 253.09 103.096 252.355 101.689Z" fill="#108CFF"/>
<path d="M271.804 104.8C272.377 104.938 272.713 105.533 272.537 106.095C272.382 106.59 271.88 106.89 271.37 106.791L235.594 99.859C234.719 99.6895 234.086 98.9251 234.082 98.0339C234.077 96.8221 235.211 95.9271 236.388 96.2126L271.804 104.8Z" fill="#25395F"/>
<path d="M236.865 96.6674C233.328 93.3469 230.261 94.9493 227.635 92.4686C225.009 89.9879 225.175 86.2831 227.958 85.5336C231.016 84.7348 240.411 91.3844 240.339 91.657C235.482 87.9455 236.785 92.9029 238.896 94.4785C239.753 95.2989 240.794 95.9768 241.488 97.3056C242.703 99.6309 241.22 100.406 240.146 99.7454C239.057 99.1396 238.397 98.1221 236.865 96.6674Z" fill="url(#paint3_linear_917_9186)"/>
<ellipse cx="24.5" cy="139.5" rx="22.5" ry="4.5" fill="#3ADBFF"/>
<path d="M0 108C0 106.895 0.895431 106 2 106H48C49.1046 106 50 106.895 50 108V136.015C50 137.672 48.6569 139.015 47 139.015H3C1.34315 139.015 0 137.672 0 136.015V108Z" fill="#DDF9FF"/>
<ellipse cx="25" cy="107" rx="25" ry="5" fill="#DDF9FF"/>
<ellipse cx="25" cy="137" rx="25" ry="5" fill="#DDF9FF"/>
<ellipse cx="25" cy="108.5" rx="22" ry="3.5" fill="#8FE6FA"/>
<path d="M35.1674 111.5C35.1674 109.839 35.0724 105.985 39.065 102.886C43.0577 99.7875 48.1594 95.6347 46.7651 89.0222C45.3709 82.4097 34.6287 77.9375 24.3302 87.5208C14.0317 97.1042 14 111.5 14 111.5L24.5837 112L35.1674 111.5Z" fill="url(#paint4_linear_917_9186)"/>
<path d="M33.2725 86.0126C32.4676 86.1526 31.9077 86.8876 32.0126 87.7275C32.1526 88.5324 32.8876 89.0923 33.7275 88.9874C34.5324 88.8474 35.0923 88.1124 34.9874 87.2725C34.8474 86.4676 34.0774 85.9077 33.2725 86.0126Z" fill="#2B3760"/>
<path d="M40.2725 92.0126C39.4676 92.1526 38.9077 92.8876 39.0126 93.7275C39.1526 94.5324 39.8876 95.0923 40.7275 94.9874C41.5324 94.8474 42.0923 94.1124 41.9874 93.2725C41.8474 92.4676 41.0774 91.9077 40.2725 92.0126Z" fill="#2B3760"/>
<path d="M34.2164 94.5232C33.8251 95.0392 33.0425 95.1539 32.5007 94.7812C31.9588 94.4086 31.8384 93.6633 32.2297 93.1473C32.6211 92.6314 34.2465 91.7141 34.7883 92.0867C35.3602 92.4594 34.6378 94.0073 34.2164 94.5232Z" fill="#DDF9FF"/>
<path opacity="0.35" d="M34.4248 87.006C34.1563 87.0489 33.963 87.3067 34.006 87.5752C34.0489 87.8437 34.3067 88.037 34.5752 87.994C34.8437 87.9511 35.037 87.6933 34.994 87.4248C34.9618 87.1563 34.7041 86.963 34.4248 87.006Z" fill="#BCC2D7"/>
<path opacity="0.35" d="M41.4248 93.006C41.1563 93.0489 40.963 93.3067 41.006 93.5752C41.0489 93.8437 41.3067 94.037 41.5752 93.994C41.8437 93.9511 42.037 93.6933 41.994 93.4248C41.9618 93.1563 41.7041 92.963 41.4248 93.006Z" fill="#BCC2D7"/>
<defs>
<linearGradient id="paint0_linear_917_9186" x1="158.274" y1="0.216797" x2="158.274" y2="130.17" gradientUnits="userSpaceOnUse">
<stop stop-color="#FCFEFF"/>
<stop offset="0.511699" stop-color="#FCFEFF"/>
<stop offset="1" stop-color="#D4F8FF"/>
</linearGradient>
<linearGradient id="paint1_linear_917_9186" x1="166.669" y1="13.3168" x2="152.323" y2="44.6506" gradientUnits="userSpaceOnUse">
<stop stop-color="#38A0FF"/>
<stop offset="1" stop-color="#0071D8"/>
</linearGradient>
<linearGradient id="paint2_linear_917_9186" x1="135.919" y1="115.095" x2="135.919" y2="162.129" gradientUnits="userSpaceOnUse">
<stop stop-color="#D6F8FF"/>
<stop offset="1" stop-color="white"/>
</linearGradient>
<linearGradient id="paint3_linear_917_9186" x1="238.598" y1="101.331" x2="229.797" y2="84.4879" gradientUnits="userSpaceOnUse">
<stop stop-color="#6DB9FF"/>
<stop offset="1" stop-color="#4AA8FF" stop-opacity="0"/>
</linearGradient>
<linearGradient id="paint4_linear_917_9186" x1="44.6865" y1="104.994" x2="16.6344" y2="88.4249" gradientUnits="userSpaceOnUse">
<stop stop-color="#38A0FF"/>
<stop offset="1" stop-color="#0071D8"/>
</linearGradient>
</defs>
</svg>
