<svg width="284" height="164" viewBox="0 0 284 164" fill="none" xmlns="http://www.w3.org/2000/svg">
<ellipse cx="259.5" cy="145" rx="14.5" ry="5" fill="#3ADBFF"/>
<path d="M243.031 137.464L243.123 140.35C243.125 143.867 249.024 146.93 256.42 147.612C264.944 148.415 272.826 145.741 274.269 141.59C274.455 141.059 274.452 140.533 274.452 139.933L274.389 137.322C274.389 137.864 274.331 138.122 274.162 138.715C272.719 142.865 264.593 145.529 256.069 144.725C248.673 144.044 243.413 140.972 243.031 137.464Z" fill="#EDAC31"/>
<path d="M261.327 129.824C252.804 129.021 244.705 131.695 243.262 135.845C241.819 139.996 247.55 143.991 256.117 144.764C264.641 145.568 272.74 142.893 274.182 138.743C275.625 134.593 269.851 130.628 261.327 129.824Z" fill="#FCCC34"/>
<path d="M260.31 132.471C254.956 131.986 248.688 133.797 247.825 136.411C246.922 138.988 251.662 141.362 257.016 141.847C262.371 142.333 268.702 140.51 269.605 137.932C270.549 135.324 265.664 132.957 260.31 132.471Z" fill="#FFE592"/>
<path d="M243.031 129.464L243.123 132.35C243.125 135.867 249.024 138.93 256.42 139.612C264.944 140.415 272.826 137.741 274.269 133.59C274.455 133.059 274.452 132.533 274.452 131.933L274.389 129.322C274.389 129.864 274.331 130.122 274.162 130.715C272.719 134.865 264.593 137.529 256.069 136.725C248.673 136.044 243.413 132.972 243.031 129.464Z" fill="#EDAC31"/>
<path d="M261.327 121.824C252.804 121.021 244.705 123.695 243.262 127.845C241.819 131.996 247.55 135.991 256.117 136.764C264.641 137.568 272.74 134.893 274.182 130.743C275.625 126.593 269.851 122.628 261.327 121.824Z" fill="#FCCC34"/>
<path d="M260.31 124.471C254.956 123.986 248.688 125.797 247.825 128.411C246.922 130.988 251.662 133.362 257.016 133.847C262.371 134.333 268.702 132.51 269.605 129.932C270.549 127.324 265.664 124.957 260.31 124.471Z" fill="#FFE592"/>
<path d="M243.031 120.464L243.123 123.35C243.125 126.867 249.024 129.93 256.42 130.612C264.944 131.415 272.826 128.741 274.269 124.59C274.455 124.059 274.452 123.533 274.452 122.933L274.389 120.322C274.389 120.864 274.331 121.122 274.162 121.715C272.719 125.865 264.593 128.529 256.069 127.725C248.673 127.044 243.413 123.972 243.031 120.464Z" fill="#EDAC31"/>
<path d="M261.327 112.824C252.804 112.021 244.705 114.695 243.262 118.845C241.819 122.996 247.55 126.991 256.117 127.764C264.641 128.568 272.74 125.893 274.182 121.743C275.625 117.593 269.851 113.628 261.327 112.824Z" fill="#FCCC34"/>
<path d="M260.31 115.471C254.956 114.986 248.688 116.797 247.825 119.411C246.922 121.988 251.662 124.362 257.016 124.847C262.371 125.333 268.702 123.51 269.605 120.932C270.549 118.324 265.664 115.957 260.31 115.471Z" fill="#FFE592"/>
<path d="M243.031 112.464L243.123 115.35C243.125 118.867 249.024 121.93 256.42 122.612C264.944 123.415 272.826 120.741 274.269 116.59C274.455 116.059 274.452 115.533 274.452 114.933L274.389 112.322C274.389 112.864 274.331 113.122 274.162 113.715C272.719 117.865 264.593 120.529 256.069 119.725C248.673 119.044 243.413 115.972 243.031 112.464Z" fill="#EDAC31"/>
<path d="M261.327 104.824C252.804 104.021 244.705 106.695 243.262 110.845C241.819 114.996 247.55 118.991 256.117 119.764C264.641 120.568 272.74 117.893 274.182 113.743C275.625 109.593 269.851 105.628 261.327 104.824Z" fill="#FCCC34"/>
<path d="M260.31 107.471C254.956 106.986 248.688 108.797 247.825 111.411C246.922 113.988 251.662 116.362 257.016 116.847C262.371 117.333 268.702 115.51 269.605 112.932C270.549 110.324 265.664 107.957 260.31 107.471Z" fill="#FFE592"/>
<ellipse cx="140.5" cy="140" rx="55.5" ry="12" fill="#3ADBFF"/>
<path d="M89.5019 112.952C77.7678 115.784 74.2755 133.929 83.5779 136.768C103.224 141.771 115.362 139.986 134.829 133.784C146.464 129.816 138.945 118.487 129.033 114.497C115.595 109.804 101.236 110.12 89.5019 112.952Z" fill="#D6F8FF"/>
<path d="M192.715 106.668C201.618 107.234 204.753 122.915 195.491 125.741L151.041 134.01C145.955 134.961 152.216 117.132 157.176 113.958C170.556 109.287 179.477 106.678 192.715 106.668Z" fill="#D6F8FF"/>
<path d="M122.133 45.5093C116.067 41.4887 110.057 36.0907 110.057 27.7108C110.254 24.0926 111.303 16.8139 115.463 11.1974C124.044 -0.389621 141.143 -3.66408 154.001 5.53991C158.905 9.05006 161.482 13.6131 163.125 18.1761C165.426 24.5641 166.621 38.5171 156.134 43.9202C153.19 45.6499 150.415 48.9664 152.957 51.2309C155.499 53.4954 160.02 53.9174 161.287 59.0167C161.89 61.4484 163.748 65.3005 165.949 69.8625C172.444 83.3267 179.539 114.232 168.528 121.789C156.536 131.642 133.255 133.534 115.463 123.544C99.9792 114.851 107.255 82.0675 114.31 68.4291C116.37 64.4478 118.082 61.1385 118.682 59.0167C119.488 56.1644 120.49 55.1208 124.44 53.5533C124.508 53.5026 124.586 53.4511 124.675 53.3986C124.675 53.3986 124.833 53.3849 125.31 53.0808C129.195 50.6069 124.675 47.1943 122.133 45.5093Z" fill="url(#paint0_linear_917_9107)"/>
<path d="M157.334 26.3719C155.447 35.1162 147.858 40.5615 135.265 39.2896C120.539 37.5408 118.078 27.0078 119.185 20.4893C120.252 14.2491 127.266 6.41895 137.275 6.41895C147.284 6.41895 160.123 13.6131 157.334 26.3719Z" fill="url(#paint1_linear_917_9107)"/>
<path d="M131.93 18.0158C130.459 20.2376 129.068 19.9772 127.055 18.9517C126.752 18.7998 126.457 19.1891 126.638 19.5119C128.289 22.5597 132.225 21.7947 132.528 18.2627C132.557 17.8829 132.139 17.712 131.93 18.0158Z" fill="#FCFEFF"/>
<path d="M184.943 108.824C175.653 111.889 152.788 128.392 131.828 134.879C129.855 135.552 128.808 135.86 124.591 143.429C119.918 152.281 119.175 157.463 122.139 160.798C125.102 164.134 129.027 160.638 132.905 156.49C137.328 151.756 138.767 151.507 142.117 150.161C150.282 146.658 182.553 142.805 195.231 131.176C207.909 119.547 197.952 104.534 184.943 108.824Z" fill="#D6F8FF"/>
<path d="M150.485 15.8487C149.73 18.5504 148.155 18.1006 146.675 17.0251C146.452 16.8661 146.295 17.3418 146.453 17.7093C147.957 20.6574 151.652 19.1006 150.918 16.1003C150.895 15.6527 150.586 15.4793 150.485 15.8487Z" fill="#FCFEFF"/>
<path d="M122.45 54.4106C107.896 58.3047 97.5496 79.5479 91.3079 91.2791C86.5796 84.413 83.4615 81.4843 80.2289 78.7672C79.1665 76.3263 76.8571 74.1389 75.7777 73.6161C75.1545 73.3143 74.3273 73.0933 73.4538 72.8599C71.8834 72.4403 70.1635 71.9807 69.2116 70.94C67.1681 68.7262 65.856 70.8476 66.552 72.2038C67.0694 73.2467 68.2188 73.7717 69.151 74.1975C69.791 74.4898 70.3286 74.7354 70.4891 75.0697C70.8832 75.891 70.4045 76.7074 68.7944 76.6249C67.3238 76.5547 65.2456 75.3297 64.1806 74.5819C65.0121 74.1114 66.253 73.0482 66.2165 71.3635C66.203 70.1889 64.6921 69.4339 63.7974 70.8786C63.0397 72.1022 62.2699 72.7285 61.2317 73.5732C61.0441 73.7259 60.8476 73.8857 60.6408 74.0575C59.8926 74.8158 60.3449 75.7046 61.0557 76.4458C58.4877 76.0958 55.4098 75.8187 54.0069 76.2354C52.021 76.8254 51.6529 78.6243 53.6935 78.6659C56.237 78.7389 61.0341 79.2063 62.9189 79.4989C62.9151 79.5421 62.9115 79.5859 62.9079 79.6304C60.1558 79.2998 56.0346 78.9371 54.3722 79.5058C52.4114 80.1766 51.8232 81.9515 53.8676 81.9314C56.3075 81.9089 60.887 82.1988 62.9071 82.4121C62.9149 82.4857 62.9234 82.5588 62.9328 82.6314C60.8294 82.3809 58.2714 82.1825 57.2218 82.5154C55.7133 82.9937 55.2395 84.6894 56.7769 84.7105C58.8753 84.7366 63.5898 85.1592 64.6775 85.3536C64.6913 85.356 64.705 85.3581 64.7187 85.3597C64.7302 85.3613 64.7417 85.3628 64.7533 85.3642C65.9391 85.5352 67.0256 85.729 68.023 85.907C69.9054 86.2428 72.1256 86.3318 74.1792 86.0805C76.1498 93.1592 81.5559 110.64 87.9699 115.032C90.5657 116.52 95.3151 113.896 97.3365 109.641C105.557 98.2674 109.444 87.3242 111.01 84.7105C116.265 73.9513 122.45 54.4106 122.45 54.4106Z" fill="#FCFEFF"/>
<path d="M154.655 53.1396C173.722 57.5887 178.11 76.4075 185.01 89.6486L185.01 89.6494C185.745 91.0604 186.445 92.4036 187.11 93.6535C191.838 86.7873 195.868 81.484 199.101 78.767C200.163 76.326 202.472 74.1387 203.552 73.6159C204.175 73.3141 205.002 73.0931 205.876 72.8597C207.446 72.4401 209.166 71.9805 210.118 70.9398C212.162 68.726 213.474 70.8473 212.778 72.2035C212.26 73.2465 211.111 73.7715 210.179 74.1972C209.539 74.4896 209.001 74.7351 208.841 75.0695C208.446 75.8908 208.925 76.7072 210.535 76.6246C212.006 76.5544 214.084 75.3295 215.149 74.5816C214.318 74.1111 213.077 73.048 213.113 71.3632C213.127 70.1886 214.637 69.4336 215.532 70.8784C216.29 72.102 217.06 72.7282 218.098 73.573C218.286 73.7256 218.482 73.8855 218.689 74.0573C219.437 74.8155 218.985 75.7044 218.274 76.4456C220.842 76.0955 223.92 75.8184 225.323 76.2352C227.309 76.8251 227.677 78.624 225.636 78.6656C223.093 78.7387 218.296 79.206 216.411 79.4986C216.414 79.5419 216.418 79.5857 216.422 79.6301C219.174 79.2995 223.295 78.9368 224.957 79.5055C226.918 80.1764 227.506 81.9512 225.462 81.9311C223.022 81.9086 218.443 82.1986 216.422 82.4119C216.415 82.4854 216.406 82.5585 216.397 82.6312C218.5 82.3806 221.058 82.1823 222.108 82.5151C223.616 82.9935 224.09 84.6892 222.553 84.7103C220.454 84.7364 215.74 85.1589 214.652 85.3533C214.638 85.3558 214.625 85.3578 214.611 85.3595C214.599 85.3611 214.588 85.3626 214.576 85.364C213.391 85.5349 212.304 85.7288 211.307 85.9067C209.424 86.2425 207.204 86.3316 205.15 86.0802C203.18 93.1589 197.774 110.64 191.36 115.032C188.764 116.52 184.014 113.896 181.993 109.641C173.773 98.2672 155.437 67.8656 153.871 65.252C148.615 54.4927 148.715 49.7144 154.655 53.1396Z" fill="#FCFEFF"/>
<path d="M90.5417 115.16C99.9862 116.61 124.895 124.327 145.792 130.824C151.605 132.628 154.088 133.539 155.906 137.651C157.724 141.762 159.656 152.684 158.747 157.181C157.838 161.678 153.864 164.163 149.997 160.008C146.133 155.125 145.224 147.801 140.11 146.773C134.996 145.745 93.5318 147.201 81.0537 136.304C72.5595 128.881 77.5891 113.996 90.5417 115.16Z" fill="url(#paint2_linear_917_9107)"/>
<ellipse cx="18.5" cy="146" rx="17.5" ry="4" fill="#3ADBFF"/>
<path fill-rule="evenodd" clip-rule="evenodd" d="M0 93C0 90.2386 2.23858 88 5 88H31C33.7614 88 36 90.2386 36 93V97C36 105.061 30.7009 111.885 23.396 114.177C22.589 114.43 22 115.154 22 116C22 116.846 22.589 117.57 23.396 117.823C30.7009 120.115 36 126.939 36 135V140.49C36 142.596 34.6855 144.499 32.6611 145.082C23.0826 147.84 12.9174 147.84 3.33891 145.082C1.31452 144.499 0 142.596 0 140.49V135C1.80354e-06 126.939 5.29915 120.115 12.604 117.823C13.411 117.57 14 116.846 14 116C14 115.154 13.411 114.43 12.604 114.177C5.29915 111.885 0 105.061 0 97V93Z" fill="#FCFEFF"/>
<path d="M3 99H33C32.4357 106.336 26.3188 112 18.9616 112H17.0384C9.68116 112 3.56427 106.336 3 99Z" fill="#FCCC34"/>
<path d="M33 140L4 140C4 137.239 6.23858 135 9 135L28 135C30.7614 135 33 137.239 33 140Z" fill="#FCCC34"/>
<rect x="16" y="106" width="4" height="15" rx="2" fill="#FCCC34"/>
<rect x="16" y="126" width="4" height="5" rx="2" fill="#FCCC34"/>
<defs>
<linearGradient id="paint0_linear_917_9107" x1="140.274" y1="0.217285" x2="140.274" y2="130.17" gradientUnits="userSpaceOnUse">
<stop stop-color="#FCFEFF"/>
<stop offset="0.511699" stop-color="#FCFEFF"/>
<stop offset="1" stop-color="#D4F8FF"/>
</linearGradient>
<linearGradient id="paint1_linear_917_9107" x1="148.669" y1="8.73628" x2="134.323" y2="40.07" gradientUnits="userSpaceOnUse">
<stop stop-color="#38A0FF"/>
<stop offset="1" stop-color="#0071D8"/>
</linearGradient>
<linearGradient id="paint2_linear_917_9107" x1="117.919" y1="115.095" x2="117.919" y2="162.129" gradientUnits="userSpaceOnUse">
<stop stop-color="#D6F8FF"/>
<stop offset="1" stop-color="white"/>
</linearGradient>
</defs>
</svg>
