<svg width="334" height="163" viewBox="0 0 334 163" fill="none" xmlns="http://www.w3.org/2000/svg">
<ellipse cx="315" cy="141" rx="11" ry="4" fill="#3ADBFF"/>
<ellipse cx="288.5" cy="141" rx="11.5" ry="4" fill="#3ADBFF"/>
<ellipse cx="259" cy="141" rx="11" ry="4" fill="#3ADBFF"/>
<path d="M302.087 135.522L302.157 137.736C302.158 140.434 306.682 142.783 312.355 143.305C318.892 143.922 324.937 141.87 326.044 138.687C326.186 138.28 326.184 137.877 326.184 137.417L326.136 135.414C326.136 135.829 326.092 136.027 325.962 136.482C324.855 139.665 318.623 141.708 312.086 141.092C306.413 140.569 302.38 138.213 302.087 135.522Z" fill="#EDAC31"/>
<path d="M316.118 129.664C309.581 129.047 303.37 131.099 302.263 134.282C301.157 137.465 305.552 140.529 312.122 141.122C318.66 141.738 324.871 139.687 325.977 136.504C327.084 133.321 322.656 130.28 316.118 129.664Z" fill="#FCCC34"/>
<path d="M315.338 131.694C311.232 131.322 306.425 132.71 305.763 134.715C305.071 136.692 308.706 138.512 312.812 138.885C316.919 139.257 321.774 137.859 322.467 135.882C323.191 133.882 319.445 132.066 315.338 131.694Z" fill="#FFE592"/>
<path d="M276.055 135.522L276.126 137.736C276.127 140.434 280.651 142.783 286.323 143.305C292.86 143.922 298.906 141.87 300.012 138.687C300.155 138.28 300.153 137.877 300.152 137.417L300.105 135.414C300.105 135.829 300.06 136.027 299.93 136.482C298.824 139.665 292.591 141.708 286.054 141.092C280.382 140.569 276.348 138.213 276.055 135.522Z" fill="#EDAC31"/>
<path d="M290.087 129.664C283.55 129.047 277.338 131.099 276.232 134.282C275.125 137.465 279.521 140.529 286.091 141.122C292.628 141.738 298.839 139.687 299.946 136.504C301.052 133.321 296.624 130.28 290.087 129.664Z" fill="#FCCC34"/>
<path d="M289.307 131.694C285.2 131.322 280.394 132.71 279.731 134.715C279.039 136.692 282.674 138.512 286.781 138.885C290.887 139.257 295.743 137.859 296.435 135.882C297.16 133.882 293.413 132.066 289.307 131.694Z" fill="#FFE592"/>
<path d="M302.087 129.388L302.157 131.601C302.158 134.299 306.682 136.648 312.355 137.171C318.892 137.787 324.937 135.736 326.044 132.552C326.186 132.145 326.184 131.742 326.184 131.282L326.136 129.279C326.136 129.695 326.092 129.892 325.962 130.347C324.855 133.53 318.623 135.573 312.086 134.957C306.413 134.435 302.38 132.079 302.087 129.388Z" fill="#EDAC31"/>
<path d="M316.118 123.529C309.581 122.913 303.37 124.964 302.263 128.147C301.157 131.33 305.552 134.394 312.122 134.987C318.66 135.603 324.871 133.552 325.977 130.369C327.084 127.186 322.656 124.145 316.118 123.529Z" fill="#FCCC34"/>
<path d="M315.338 125.559C311.232 125.187 306.425 126.575 305.763 128.58C305.071 130.557 308.706 132.378 312.812 132.75C316.919 133.122 321.774 131.724 322.467 129.747C323.191 127.747 319.445 125.931 315.338 125.559Z" fill="#FFE592"/>
<path d="M246.344 135.522L246.414 137.736C246.416 140.434 250.94 142.783 256.612 143.305C263.149 143.922 269.195 141.87 270.301 138.687C270.444 138.28 270.442 137.877 270.441 137.417L270.394 135.414C270.394 135.829 270.349 136.027 270.219 136.482C269.113 139.665 262.88 141.708 256.343 141.092C250.671 140.569 246.637 138.213 246.344 135.522Z" fill="#EDAC31"/>
<path d="M260.376 129.664C253.839 129.047 247.627 131.099 246.521 134.282C245.414 137.465 249.81 140.529 256.38 141.122C262.917 141.738 269.128 139.687 270.235 136.504C271.341 133.321 266.913 130.28 260.376 129.664Z" fill="#FCCC34"/>
<path d="M259.596 131.694C255.489 131.322 250.682 132.71 250.02 134.715C249.328 136.692 252.963 138.512 257.07 138.885C261.176 139.257 266.032 137.859 266.724 135.882C267.449 133.882 263.702 132.066 259.596 131.694Z" fill="#FFE592"/>
<path d="M302.087 122.485L302.157 124.698C302.158 127.396 306.682 129.745 312.355 130.268C318.892 130.884 324.937 128.833 326.044 125.65C326.186 125.242 326.184 124.839 326.184 124.379L326.136 122.376C326.136 122.792 326.092 122.989 325.962 123.444C324.855 126.627 318.623 128.67 312.086 128.054C306.413 127.532 302.38 125.176 302.087 122.485Z" fill="#EDAC31"/>
<path d="M316.118 116.626C309.581 116.01 303.37 118.061 302.263 121.244C301.157 124.427 305.552 127.492 312.122 128.084C318.66 128.7 324.871 126.649 325.977 123.466C327.084 120.283 322.656 117.242 316.118 116.626Z" fill="#FCCC34"/>
<path d="M315.338 118.656C311.232 118.284 306.425 119.672 305.763 121.677C305.071 123.654 308.706 125.475 312.812 125.847C316.919 126.219 321.774 124.821 322.467 122.844C323.191 120.844 319.445 119.028 315.338 118.656Z" fill="#FFE592"/>
<path d="M276.055 129.387L276.126 131.601C276.127 134.299 280.651 136.648 286.323 137.17C292.86 137.786 298.906 135.735 300.012 132.552C300.155 132.145 300.153 131.741 300.153 131.281L300.105 129.279C300.105 129.694 300.06 129.892 299.93 130.347C298.824 133.53 292.591 135.573 286.054 134.957C280.382 134.434 276.348 132.078 276.055 129.387Z" fill="#EDAC31"/>
<path d="M290.087 123.528C283.55 122.912 277.338 124.963 276.232 128.146C275.125 131.33 279.521 134.394 286.091 134.987C292.628 135.603 298.839 133.552 299.946 130.369C301.052 127.185 296.624 124.145 290.087 123.528Z" fill="#FCCC34"/>
<path d="M289.307 125.558C285.2 125.186 280.394 126.575 279.732 128.58C279.039 130.557 282.674 132.377 286.781 132.749C290.887 133.121 295.743 131.723 296.435 129.746C297.16 127.746 293.413 125.931 289.307 125.558Z" fill="#FFE592"/>
<path d="M246.344 129.388L246.414 131.601C246.416 134.299 250.94 136.648 256.612 137.171C263.149 137.787 269.195 135.736 270.301 132.552C270.444 132.145 270.442 131.742 270.441 131.282L270.394 129.279C270.394 129.695 270.349 129.892 270.219 130.347C269.113 133.53 262.88 135.573 256.343 134.957C250.671 134.435 246.637 132.079 246.344 129.388Z" fill="#EDAC31"/>
<path d="M260.376 123.529C253.839 122.913 247.627 124.964 246.521 128.147C245.414 131.33 249.81 134.394 256.38 134.987C262.917 135.603 269.128 133.552 270.235 130.369C271.341 127.186 266.913 124.145 260.376 123.529Z" fill="#FCCC34"/>
<path d="M259.596 125.559C255.489 125.187 250.682 126.575 250.02 128.58C249.328 130.557 252.963 132.378 257.07 132.75C261.176 133.122 266.032 131.724 266.724 129.747C267.449 127.747 263.702 125.931 259.596 125.559Z" fill="#FFE592"/>
<path d="M302.087 116.35L302.157 118.563C302.158 121.261 306.682 123.61 312.355 124.133C318.892 124.749 324.937 122.698 326.044 119.514C326.186 119.107 326.184 118.704 326.184 118.244L326.136 116.241C326.136 116.656 326.092 116.854 325.962 117.309C324.855 120.492 318.623 122.535 312.086 121.919C306.413 121.397 302.38 119.041 302.087 116.35Z" fill="#EDAC31"/>
<path d="M316.118 110.491C309.581 109.875 303.37 111.926 302.263 115.109C301.157 118.292 305.552 121.356 312.122 121.949C318.66 122.565 324.871 120.514 325.977 117.331C327.084 114.148 322.656 111.107 316.118 110.491Z" fill="#FCCC34"/>
<path d="M315.338 112.521C311.232 112.149 306.425 113.537 305.763 115.542C305.071 117.519 308.706 119.34 312.812 119.712C316.919 120.084 321.774 118.686 322.467 116.709C323.191 114.709 319.445 112.893 315.338 112.521Z" fill="#FFE592"/>
<path d="M276.055 122.485L276.126 124.698C276.127 127.396 280.651 129.745 286.323 130.268C292.86 130.884 298.906 128.833 300.012 125.65C300.155 125.242 300.153 124.839 300.152 124.379L300.105 122.376C300.105 122.792 300.06 122.989 299.93 123.444C298.824 126.627 292.591 128.67 286.054 128.054C280.382 127.532 276.348 125.176 276.055 122.485Z" fill="#EDAC31"/>
<path d="M290.087 116.626C283.55 116.01 277.338 118.061 276.232 121.244C275.125 124.427 279.521 127.492 286.091 128.084C292.628 128.7 298.839 126.649 299.946 123.466C301.052 120.283 296.624 117.242 290.087 116.626Z" fill="#FCCC34"/>
<path d="M289.307 118.656C285.2 118.284 280.394 119.672 279.731 121.677C279.039 123.654 282.674 125.475 286.781 125.847C290.887 126.219 295.743 124.821 296.435 122.844C297.16 120.844 293.413 119.028 289.307 118.656Z" fill="#FFE592"/>
<path d="M246.344 122.485L246.414 124.698C246.416 127.396 250.94 129.745 256.612 130.268C263.149 130.884 269.195 128.833 270.301 125.65C270.444 125.242 270.442 124.839 270.441 124.379L270.394 122.376C270.394 122.792 270.349 122.989 270.219 123.444C269.113 126.627 262.88 128.67 256.343 128.054C250.671 127.532 246.637 125.176 246.344 122.485Z" fill="#EDAC31"/>
<path d="M260.376 116.626C253.839 116.01 247.627 118.061 246.521 121.244C245.414 124.427 249.81 127.492 256.38 128.084C262.917 128.7 269.128 126.649 270.235 123.466C271.341 120.283 266.913 117.242 260.376 116.626Z" fill="#FCCC34"/>
<path d="M259.596 118.656C255.489 118.284 250.682 119.672 250.02 121.677C249.328 123.654 252.963 125.475 257.07 125.847C261.176 126.219 266.032 124.821 266.724 122.844C267.449 120.844 263.702 119.028 259.596 118.656Z" fill="#FFE592"/>
<path d="M276.055 116.35L276.126 118.563C276.127 121.261 280.651 123.61 286.323 124.133C292.86 124.749 298.906 122.698 300.012 119.514C300.155 119.107 300.153 118.704 300.152 118.244L300.105 116.241C300.105 116.656 300.06 116.854 299.93 117.309C298.824 120.492 292.591 122.535 286.054 121.919C280.382 121.397 276.348 119.041 276.055 116.35Z" fill="#EDAC31"/>
<path d="M290.087 110.491C283.55 109.875 277.338 111.926 276.232 115.109C275.125 118.292 279.521 121.356 286.091 121.949C292.628 122.565 298.839 120.514 299.946 117.331C301.052 114.148 296.624 111.107 290.087 110.491Z" fill="#FCCC34"/>
<path d="M289.307 112.521C285.2 112.149 280.394 113.537 279.731 115.542C279.039 117.519 282.674 119.34 286.781 119.712C290.887 120.084 295.743 118.686 296.435 116.709C297.16 114.709 293.413 112.893 289.307 112.521Z" fill="#FFE592"/>
<path d="M246.344 116.35L246.414 118.563C246.416 121.261 250.94 123.61 256.612 124.133C263.149 124.749 269.195 122.698 270.301 119.514C270.444 119.107 270.442 118.704 270.441 118.244L270.394 116.241C270.394 116.656 270.349 116.854 270.219 117.309C269.113 120.492 262.88 122.535 256.343 121.919C250.671 121.397 246.637 119.041 246.344 116.35Z" fill="#EDAC31"/>
<path d="M260.376 110.491C253.839 109.875 247.627 111.926 246.521 115.109C245.414 118.292 249.81 121.356 256.38 121.949C262.917 122.565 269.128 120.514 270.235 117.331C271.341 114.148 266.913 111.107 260.376 110.491Z" fill="#FCCC34"/>
<path d="M259.596 112.521C255.489 112.149 250.682 113.537 250.02 115.542C249.328 117.519 252.963 119.34 257.07 119.712C261.176 120.084 266.032 118.686 266.724 116.709C267.449 114.709 263.702 112.893 259.596 112.521Z" fill="#FFE592"/>
<path d="M246.344 109.446L246.414 111.66C246.416 114.358 250.94 116.707 256.612 117.229C263.149 117.845 269.195 115.794 270.301 112.611C270.444 112.204 270.442 111.801 270.441 111.34L270.394 109.338C270.394 109.753 270.349 109.951 270.219 110.406C269.113 113.589 262.88 115.632 256.343 115.016C250.671 114.493 246.637 112.137 246.344 109.446Z" fill="#EDAC31"/>
<path d="M260.376 103.588C253.839 102.971 247.627 105.022 246.521 108.206C245.414 111.389 249.81 114.453 256.38 115.046C262.917 115.662 269.128 113.611 270.235 110.428C271.341 107.245 266.913 104.204 260.376 103.588Z" fill="#FCCC34"/>
<path d="M259.596 105.617C255.489 105.245 250.682 106.634 250.02 108.639C249.328 110.616 252.963 112.436 257.07 112.808C261.176 113.181 266.032 111.782 266.724 109.805C267.449 107.806 263.702 105.99 259.596 105.617Z" fill="#FFE592"/>
<path d="M246.344 102.541L246.414 104.755C246.416 107.453 250.94 109.802 256.612 110.324C263.149 110.941 269.195 108.889 270.301 105.706C270.444 105.299 270.442 104.896 270.441 104.436L270.394 102.433C270.394 102.848 270.349 103.046 270.219 103.501C269.113 106.684 262.88 108.727 256.343 108.111C250.671 107.588 246.637 105.232 246.344 102.541Z" fill="#EDAC31"/>
<path d="M260.376 96.6827C253.839 96.0665 247.627 98.1176 246.521 101.301C245.414 104.484 249.81 107.548 256.38 108.141C262.917 108.757 269.128 106.706 270.235 103.523C271.341 100.34 266.913 97.299 260.376 96.6827Z" fill="#FCCC34"/>
<path d="M259.596 98.7122C255.489 98.3401 250.682 99.7286 250.02 101.733C249.328 103.71 252.963 105.531 257.07 105.903C261.176 106.275 266.032 104.877 266.724 102.9C267.449 100.9 263.702 99.0844 259.596 98.7122Z" fill="#FFE592"/>
<path d="M276.055 110.214L276.126 112.427C276.127 115.125 280.651 117.474 286.323 117.997C292.86 118.613 298.906 116.562 300.012 113.379C300.155 112.971 300.153 112.568 300.153 112.108L300.105 110.105C300.105 110.521 300.06 110.718 299.93 111.173C298.824 114.356 292.591 116.399 286.054 115.783C280.382 115.261 276.348 112.905 276.055 110.214Z" fill="#EDAC31"/>
<path d="M290.087 104.355C283.55 103.739 277.338 105.79 276.232 108.973C275.125 112.156 279.521 115.221 286.091 115.813C292.628 116.429 298.839 114.378 299.946 111.195C301.052 108.012 296.624 104.971 290.087 104.355Z" fill="#FCCC34"/>
<path d="M289.307 106.385C285.2 106.012 280.394 107.401 279.732 109.406C279.039 111.383 282.674 113.203 286.781 113.575C290.887 113.948 295.743 112.55 296.435 110.573C297.16 108.573 293.413 106.757 289.307 106.385Z" fill="#FFE592"/>
<path d="M276.055 104.079L276.126 106.292C276.127 108.99 280.651 111.339 286.323 111.862C292.86 112.478 298.906 110.427 300.012 107.243C300.155 106.836 300.153 106.433 300.153 105.973L300.105 103.97C300.105 104.385 300.06 104.583 299.93 105.038C298.824 108.221 292.591 110.264 286.054 109.648C280.382 109.126 276.348 106.77 276.055 104.079Z" fill="#EDAC31"/>
<path d="M290.087 98.2198C283.55 97.6036 277.338 99.6548 276.232 102.838C275.125 106.021 279.521 109.085 286.091 109.678C292.628 110.294 298.839 108.243 299.946 105.06C301.052 101.877 296.624 98.8361 290.087 98.2198Z" fill="#FCCC34"/>
<path d="M289.307 100.25C285.2 99.8777 280.394 101.266 279.732 103.271C279.039 105.248 282.674 107.069 286.781 107.441C290.887 107.813 295.743 106.415 296.435 104.438C297.16 102.438 293.413 100.622 289.307 100.25Z" fill="#FFE592"/>
<path d="M276.055 97.9428L276.126 100.156C276.127 102.854 280.651 105.203 286.323 105.726C292.86 106.342 298.906 104.291 300.012 101.108C300.155 100.7 300.153 100.297 300.153 99.8369L300.105 97.8344C300.105 98.2497 300.06 98.4475 299.93 98.9023C298.824 102.085 292.591 104.128 286.054 103.512C280.382 102.99 276.348 100.634 276.055 97.9428Z" fill="#EDAC31"/>
<path d="M290.087 92.0841C283.55 91.4679 277.338 93.519 276.232 96.7021C275.125 99.8852 279.521 102.95 286.091 103.542C292.628 104.158 298.839 102.107 299.946 98.9242C301.052 95.7411 296.624 92.7004 290.087 92.0841Z" fill="#FCCC34"/>
<path d="M289.307 94.1141C285.2 93.7419 280.394 95.1305 279.732 97.1353C279.039 99.1123 282.674 100.933 286.781 101.305C290.887 101.677 295.743 100.279 296.435 98.302C297.16 96.3021 293.413 94.4862 289.307 94.1141Z" fill="#FFE592"/>
<path d="M276.055 91.8076L276.125 94.021C276.127 96.7189 280.651 99.0681 286.323 99.5905C292.86 100.207 298.906 98.1555 300.012 94.9724C300.155 94.5651 300.153 94.1618 300.152 93.7017L300.105 91.6992C300.105 92.1145 300.06 92.3122 299.93 92.767C298.824 95.9501 292.591 97.9932 286.054 97.3769C280.382 96.8545 276.348 94.4986 276.055 91.8076Z" fill="#EDAC31"/>
<path d="M290.087 85.9489C283.55 85.3326 277.338 87.3838 276.232 90.5669C275.125 93.75 279.521 96.8143 286.091 97.407C292.628 98.0232 298.839 95.9721 299.946 92.789C301.052 89.6059 296.624 86.5651 290.087 85.9489Z" fill="#FCCC34"/>
<path d="M289.307 87.9788C285.2 87.6067 280.393 88.9952 279.731 91C279.039 92.9771 282.674 94.7975 286.781 95.1697C290.887 95.5419 295.743 94.1438 296.435 92.1668C297.16 90.1669 293.413 88.351 289.307 87.9788Z" fill="#FFE592"/>
<path d="M276.055 85.6718L276.126 87.8853C276.127 90.5832 280.651 92.9324 286.323 93.4548C292.86 94.071 298.906 92.0198 300.012 88.8367C300.155 88.4293 300.153 88.0261 300.152 87.5659L300.105 85.5634C300.105 85.9788 300.06 86.1765 299.93 86.6313C298.824 89.8144 292.591 91.8575 286.054 91.2412C280.382 90.7188 276.348 88.3628 276.055 85.6718Z" fill="#EDAC31"/>
<path d="M290.087 79.8131C283.55 79.1969 277.338 81.248 276.232 84.4311C275.125 87.6142 279.521 90.6786 286.091 91.2712C292.628 91.8875 298.839 89.8363 299.946 86.6532C301.052 83.4701 296.624 80.4294 290.087 79.8131Z" fill="#FCCC34"/>
<path d="M289.307 81.8431C285.2 81.4709 280.394 82.8595 279.731 84.8643C279.039 86.8413 282.674 88.6618 286.781 89.034C290.887 89.4061 295.743 88.0081 296.435 86.031C297.16 84.0311 293.413 82.2152 289.307 81.8431Z" fill="#FFE592"/>
<path d="M276.055 79.5366L276.126 81.75C276.127 84.4479 280.651 86.7971 286.323 87.3195C292.86 87.9358 298.906 85.8845 300.012 82.7014C300.155 82.2941 300.153 81.8908 300.152 81.4307L300.105 79.4282C300.105 79.8435 300.06 80.0412 299.93 80.496C298.824 83.6791 292.591 85.7222 286.054 85.106C280.382 84.5835 276.348 82.2276 276.055 79.5366Z" fill="#EDAC31"/>
<path d="M290.087 73.6779C283.55 73.0616 277.338 75.1128 276.232 78.2959C275.125 81.479 279.521 84.5433 286.091 85.136C292.628 85.7522 298.839 83.7011 299.946 80.518C301.052 77.3349 296.624 74.2941 290.087 73.6779Z" fill="#FCCC34"/>
<path d="M289.307 75.7078C285.2 75.3357 280.394 76.7242 279.731 78.729C279.039 80.7061 282.674 82.5265 286.781 82.8987C290.887 83.2709 295.743 81.8728 296.435 79.8958C297.16 77.8959 293.413 76.08 289.307 75.7078Z" fill="#FFE592"/>
<path d="M276.055 73.4013L276.126 75.6148C276.127 78.3127 280.651 80.6619 286.323 81.1843C292.86 81.8005 298.906 79.7493 300.012 76.5662C300.155 76.1588 300.153 75.7556 300.152 75.2954L300.105 73.2929C300.105 73.7082 300.06 73.906 299.93 74.3608C298.824 77.5439 292.591 79.5869 286.054 78.9707C280.382 78.4483 276.348 76.0923 276.055 73.4013Z" fill="#EDAC31"/>
<path d="M290.087 67.5426C283.55 66.9263 277.338 68.9775 276.232 72.1606C275.125 75.3437 279.521 78.4081 286.091 79.0007C292.628 79.617 298.839 77.5658 299.946 74.3827C301.052 71.1996 296.624 68.1589 290.087 67.5426Z" fill="#FCCC34"/>
<path d="M289.307 69.5726C285.2 69.2004 280.394 70.589 279.731 72.5938C279.039 74.5708 282.674 76.3913 286.781 76.7634C290.887 77.1356 295.743 75.7376 296.435 73.7605C297.16 71.7606 293.413 69.9447 289.307 69.5726Z" fill="#FFE592"/>
<path d="M276.055 67.2656L276.126 69.479C276.127 72.1769 280.651 74.5261 286.323 75.0485C292.86 75.6648 298.906 73.6135 300.012 70.4304C300.155 70.0231 300.153 69.6199 300.153 69.1597L300.105 67.1572C300.105 67.5725 300.06 67.7702 299.93 68.225C298.824 71.4081 292.591 73.4512 286.054 72.835C280.382 72.3125 276.348 69.9566 276.055 67.2656Z" fill="#EDAC31"/>
<path d="M290.087 61.4069C283.55 60.7906 277.338 62.8418 276.232 66.0249C275.125 69.208 279.521 72.2723 286.091 72.865C292.628 73.4813 298.839 71.4301 299.946 68.247C301.052 65.0639 296.624 62.0231 290.087 61.4069Z" fill="#FCCC34"/>
<path d="M289.307 63.4368C285.2 63.0647 280.394 64.4532 279.732 66.458C279.039 68.4351 282.674 70.2555 286.781 70.6277C290.887 70.9999 295.743 69.6018 296.435 67.6248C297.16 65.6249 293.413 63.809 289.307 63.4368Z" fill="#FFE592"/>
<path d="M276.055 61.1293L276.125 63.3428C276.127 66.0407 280.651 68.3899 286.323 68.9123C292.86 69.5285 298.906 67.4773 300.012 64.2942C300.155 63.8868 300.153 63.4836 300.152 63.0235L300.105 61.021C300.105 61.4363 300.06 61.634 299.93 62.0888C298.824 65.2719 292.591 67.315 286.054 66.6987C280.382 66.1763 276.348 63.8203 276.055 61.1293Z" fill="#EDAC31"/>
<path d="M290.087 55.2701C283.55 54.6539 277.338 56.705 276.232 59.8881C275.125 63.0712 279.521 66.1356 286.091 66.7283C292.628 67.3445 298.839 65.2934 299.946 62.1103C301.052 58.9272 296.624 55.8864 290.087 55.2701Z" fill="#FCCC34"/>
<path d="M289.307 57.3001C285.2 56.928 280.393 58.3165 279.731 60.3213C279.039 62.2984 282.674 64.1188 286.781 64.491C290.887 64.8631 295.743 63.4651 296.435 61.4881C297.16 59.4881 293.413 57.6723 289.307 57.3001Z" fill="#FFE592"/>
<path d="M276.055 54.9946L276.126 57.208C276.127 59.9059 280.651 62.2551 286.323 62.7775C292.86 63.3938 298.906 61.3425 300.012 58.1594C300.155 57.7521 300.153 57.3489 300.153 56.8887L300.105 54.8862C300.105 55.3015 300.06 55.4992 299.93 55.954C298.824 59.1371 292.591 61.1802 286.054 60.564C280.382 60.0415 276.348 57.6856 276.055 54.9946Z" fill="#EDAC31"/>
<path d="M290.087 49.1359C283.55 48.5196 277.338 50.5708 276.232 53.7539C275.125 56.937 279.521 60.0013 286.091 60.594C292.628 61.2103 298.839 59.1591 299.946 55.976C301.052 52.7929 296.624 49.7521 290.087 49.1359Z" fill="#FCCC34"/>
<path d="M289.307 51.1653C285.2 50.7932 280.394 52.1818 279.732 54.1866C279.039 56.1636 282.674 57.9841 286.781 58.3562C290.887 58.7284 295.743 57.3303 296.435 55.3533C297.16 53.3534 293.413 51.5375 289.307 51.1653Z" fill="#FFE592"/>
<ellipse cx="74.2373" cy="141.129" rx="10.7423" ry="4.02838" fill="#3ADBFF"/>
<ellipse cx="48.7242" cy="141.129" rx="11.1899" ry="4.02838" fill="#3ADBFF"/>
<ellipse cx="19.6304" cy="141.129" rx="10.7423" ry="4.02838" fill="#3ADBFF"/>
<path d="M61.7641 135.516L61.8332 137.684C61.8342 140.327 66.2661 142.628 71.823 143.14C78.227 143.744 84.1492 141.734 85.2332 138.616C85.3729 138.217 85.3708 137.822 85.3706 137.371L85.3237 135.41C85.3238 135.816 85.2801 136.01 85.1527 136.456C84.0688 139.574 77.9636 141.575 71.5595 140.972C66.0027 140.46 62.0511 138.152 61.7641 135.516Z" fill="#EDAC31"/>
<path d="M75.51 129.776C69.106 129.172 63.0212 131.182 61.9373 134.3C60.8534 137.418 65.159 140.42 71.5953 141.001C77.9994 141.604 84.0841 139.595 85.168 136.477C86.2519 133.358 81.914 130.38 75.51 129.776Z" fill="#FCCC34"/>
<path d="M74.7459 131.765C70.7231 131.4 66.0142 132.761 65.3656 134.724C64.6874 136.661 68.2484 138.445 72.2712 138.809C76.2939 139.174 81.0508 137.804 81.7291 135.867C82.4386 133.908 78.7686 132.129 74.7459 131.765Z" fill="#FFE592"/>
<path d="M36.2629 135.516L36.332 137.684C36.3331 140.327 40.765 142.628 46.3218 143.14C52.7258 143.744 58.6481 141.734 59.732 138.616C59.8717 138.217 59.8696 137.822 59.8694 137.371L59.8225 135.41C59.8227 135.816 59.7789 136.01 59.6516 136.456C58.5677 139.574 52.4624 141.575 46.0584 140.972C40.5015 140.46 36.5499 138.152 36.2629 135.516Z" fill="#EDAC31"/>
<path d="M50.0088 129.776C43.6048 129.172 37.5201 131.182 36.4361 134.3C35.3522 137.418 39.6579 140.42 46.0942 141.001C52.4982 141.604 58.583 139.595 59.6669 136.477C60.7508 133.358 56.4128 130.38 50.0088 129.776Z" fill="#FCCC34"/>
<path d="M49.2447 131.765C45.222 131.4 40.5131 132.761 39.8645 134.724C39.1862 136.661 42.7473 138.445 46.77 138.809C50.7928 139.174 55.5497 137.804 56.2279 135.867C56.9375 133.908 53.2675 132.129 49.2447 131.765Z" fill="#FFE592"/>
<path d="M61.7641 129.506L61.8332 131.674C61.8342 134.317 66.2661 136.618 71.823 137.13C78.227 137.734 84.1492 135.724 85.2332 132.606C85.3729 132.207 85.3708 131.812 85.3706 131.361L85.3237 129.399C85.3238 129.806 85.2801 130 85.1527 130.445C84.0688 133.564 77.9636 135.565 71.5595 134.961C66.0027 134.45 62.0511 132.142 61.7641 129.506Z" fill="#EDAC31"/>
<path d="M75.51 123.766C69.106 123.162 63.0212 125.171 61.9373 128.29C60.8534 131.408 65.159 134.41 71.5953 134.99C77.9994 135.594 84.0841 133.585 85.168 130.466C86.2519 127.348 81.914 124.369 75.51 123.766Z" fill="#FCCC34"/>
<path d="M74.7459 125.755C70.7231 125.39 66.0142 126.75 65.3656 128.714C64.6874 130.651 68.2484 132.434 72.2712 132.799C76.2939 133.163 81.0508 131.794 81.7291 129.857C82.4386 127.898 78.7686 126.119 74.7459 125.755Z" fill="#FFE592"/>
<path d="M7.15715 135.516L7.22624 137.684C7.2273 140.327 11.6592 142.628 17.216 143.14C23.62 143.744 29.5423 141.734 30.6262 138.616C30.766 138.217 30.7638 137.822 30.7637 137.371L30.7167 135.41C30.7169 135.816 30.6731 136.01 30.5458 136.456C29.4619 139.574 23.3566 141.575 16.9526 140.972C11.3958 140.46 7.44412 138.152 7.15715 135.516Z" fill="#EDAC31"/>
<path d="M20.903 129.776C14.499 129.172 8.41428 131.182 7.33037 134.3C6.24647 137.418 10.5521 140.42 16.9884 141.001C23.3924 141.604 29.4772 139.595 30.5611 136.477C31.645 133.358 27.3071 130.38 20.903 129.776Z" fill="#FCCC34"/>
<path d="M20.1389 131.765C16.1162 131.4 11.4073 132.761 10.7587 134.724C10.0805 136.661 13.6415 138.445 17.6643 138.809C21.687 139.174 26.4439 137.804 27.1221 135.867C27.8317 133.908 24.1617 132.129 20.1389 131.765Z" fill="#FFE592"/>
<path d="M61.7641 122.743L61.8332 124.911C61.8343 127.554 66.2662 129.855 71.823 130.367C78.227 130.971 84.1493 128.961 85.2332 125.843C85.373 125.444 85.3708 125.049 85.3707 124.598L85.3237 122.637C85.3239 123.044 85.2801 123.237 85.1528 123.683C84.0689 126.801 77.9636 128.802 71.5596 128.199C66.0028 127.687 62.0511 125.379 61.7641 122.743Z" fill="#EDAC31"/>
<path d="M75.51 117.003C69.106 116.4 63.0213 118.409 61.9374 121.527C60.8535 124.646 65.1591 127.647 71.5954 128.228C77.9994 128.832 84.0842 126.822 85.1681 123.704C86.252 120.586 81.9141 117.607 75.51 117.003Z" fill="#FCCC34"/>
<path d="M74.7459 118.992C70.7232 118.627 66.0143 119.988 65.3657 121.952C64.6875 123.888 68.2485 125.672 72.2712 126.036C76.294 126.401 81.0509 125.031 81.7291 123.094C82.4387 121.135 78.7687 119.356 74.7459 118.992Z" fill="#FFE592"/>
<path d="M36.2629 129.506L36.332 131.674C36.3331 134.317 40.765 136.618 46.3218 137.13C52.7258 137.734 58.6481 135.724 59.732 132.606C59.8717 132.207 59.8696 131.812 59.8694 131.361L59.8225 129.399C59.8227 129.806 59.7789 130 59.6516 130.445C58.5677 133.564 52.4624 135.565 46.0584 134.961C40.5015 134.45 36.5499 132.142 36.2629 129.506Z" fill="#EDAC31"/>
<path d="M50.0088 123.766C43.6048 123.162 37.5201 125.171 36.4361 128.29C35.3522 131.408 39.6579 134.41 46.0942 134.99C52.4982 135.594 58.583 133.585 59.6669 130.466C60.7508 127.348 56.4128 124.369 50.0088 123.766Z" fill="#FCCC34"/>
<path d="M49.2447 125.755C45.222 125.39 40.5131 126.75 39.8645 128.714C39.1862 130.651 42.7473 132.434 46.77 132.799C50.7928 133.163 55.5497 131.794 56.2279 129.857C56.9375 127.898 53.2675 126.119 49.2447 125.755Z" fill="#FFE592"/>
<path d="M7.15715 129.506L7.22624 131.674C7.2273 134.317 11.6592 136.618 17.216 137.13C23.62 137.734 29.5423 135.724 30.6262 132.606C30.766 132.207 30.7638 131.812 30.7637 131.361L30.7167 129.399C30.7169 129.806 30.6731 130 30.5458 130.445C29.4619 133.564 23.3566 135.565 16.9526 134.961C11.3958 134.45 7.44412 132.142 7.15715 129.506Z" fill="#EDAC31"/>
<path d="M20.903 123.766C14.499 123.162 8.41428 125.171 7.33037 128.29C6.24647 131.408 10.5521 134.41 16.9884 134.99C23.3924 135.594 29.4772 133.585 30.5611 130.466C31.645 127.348 27.3071 124.369 20.903 123.766Z" fill="#FCCC34"/>
<path d="M20.1389 125.755C16.1162 125.39 11.4073 126.75 10.7587 128.714C10.0805 130.651 13.6415 132.434 17.6643 132.799C21.687 133.163 26.4439 131.794 27.1221 129.857C27.8317 127.898 24.1617 126.119 20.1389 125.755Z" fill="#FFE592"/>
<path d="M61.7641 116.733L61.8332 118.901C61.8342 121.544 66.2661 123.845 71.823 124.357C78.227 124.961 84.1492 122.951 85.2332 119.833C85.3729 119.434 85.3708 119.039 85.3706 118.588L85.3237 116.626C85.3238 117.033 85.2801 117.227 85.1527 117.673C84.0688 120.791 77.9636 122.792 71.5595 122.189C66.0027 121.677 62.0511 119.369 61.7641 116.733Z" fill="#EDAC31"/>
<path d="M75.51 110.993C69.106 110.389 63.0212 112.399 61.9373 115.517C60.8534 118.635 65.159 121.637 71.5953 122.218C77.9994 122.822 84.0841 120.812 85.168 117.694C86.2519 114.576 81.914 111.597 75.51 110.993Z" fill="#FCCC34"/>
<path d="M74.7459 112.982C70.7231 112.617 66.0142 113.977 65.3656 115.941C64.6874 117.878 68.2484 119.661 72.2712 120.026C76.2939 120.391 81.0508 119.021 81.7291 117.084C82.4386 115.125 78.7686 113.346 74.7459 112.982Z" fill="#FFE592"/>
<path d="M36.263 122.743L36.3321 124.911C36.3331 127.554 40.765 129.855 46.3219 130.367C52.7259 130.971 58.6481 128.961 59.7321 125.843C59.8718 125.444 59.8697 125.049 59.8695 124.598L59.8226 122.637C59.8227 123.044 59.779 123.237 59.6516 123.683C58.5677 126.801 52.4625 128.802 46.0584 128.199C40.5016 127.687 36.55 125.379 36.263 122.743Z" fill="#EDAC31"/>
<path d="M50.0089 117.003C43.6049 116.4 37.5201 118.409 36.4362 121.527C35.3523 124.646 39.6579 127.647 46.0942 128.228C52.4983 128.832 58.583 126.822 59.6669 123.704C60.7508 120.586 56.4129 117.607 50.0089 117.003Z" fill="#FCCC34"/>
<path d="M49.2448 118.992C45.222 118.627 40.5131 119.988 39.8645 121.952C39.1863 123.888 42.7473 125.672 46.7701 126.036C50.7928 126.401 55.5497 125.031 56.228 123.094C56.9375 121.135 53.2675 119.356 49.2448 118.992Z" fill="#FFE592"/>
<path d="M7.15721 122.743L7.2263 124.911C7.22736 127.554 11.6592 129.855 17.2161 130.367C23.6201 130.971 29.5424 128.961 30.6263 125.843C30.766 125.444 30.7639 125.049 30.7637 124.598L30.7168 122.637C30.717 123.044 30.6732 123.237 30.5459 123.683C29.462 126.801 23.3567 128.802 16.9527 128.199C11.3958 127.687 7.44419 125.379 7.15721 122.743Z" fill="#EDAC31"/>
<path d="M20.9031 117.003C14.4991 116.4 8.41434 118.409 7.33043 121.527C6.24653 124.646 10.5522 127.647 16.9885 128.228C23.3925 128.832 29.4772 126.822 30.5611 123.704C31.6451 120.586 27.3071 117.607 20.9031 117.003Z" fill="#FCCC34"/>
<path d="M20.1391 118.992C16.1163 118.627 11.4074 119.988 10.7588 121.952C10.0806 123.888 13.6416 125.672 17.6644 126.036C21.6871 126.401 26.444 125.031 27.1223 123.094C27.8318 121.135 24.1618 119.356 20.1391 118.992Z" fill="#FFE592"/>
<path d="M36.2629 116.733L36.332 118.901C36.3331 121.544 40.765 123.845 46.3218 124.357C52.7258 124.961 58.6481 122.951 59.732 119.833C59.8717 119.434 59.8696 119.039 59.8694 118.588L59.8225 116.626C59.8227 117.033 59.7789 117.227 59.6516 117.673C58.5677 120.791 52.4624 122.792 46.0584 122.189C40.5015 121.677 36.5499 119.369 36.2629 116.733Z" fill="#EDAC31"/>
<path d="M50.0088 110.993C43.6048 110.389 37.5201 112.399 36.4361 115.517C35.3522 118.635 39.6579 121.637 46.0942 122.218C52.4982 122.822 58.583 120.812 59.6669 117.694C60.7508 114.576 56.4128 111.597 50.0088 110.993Z" fill="#FCCC34"/>
<path d="M49.2447 112.982C45.222 112.617 40.5131 113.977 39.8645 115.941C39.1862 117.878 42.7473 119.661 46.77 120.026C50.7928 120.391 55.5497 119.021 56.2279 117.084C56.9375 115.125 53.2675 113.346 49.2447 112.982Z" fill="#FFE592"/>
<path d="M7.15715 116.733L7.22624 118.901C7.2273 121.544 11.6592 123.845 17.216 124.357C23.62 124.961 29.5423 122.951 30.6262 119.833C30.766 119.434 30.7638 119.039 30.7637 118.588L30.7167 116.626C30.7169 117.033 30.6731 117.227 30.5458 117.673C29.4619 120.791 23.3566 122.792 16.9526 122.189C11.3958 121.677 7.44412 119.369 7.15715 116.733Z" fill="#EDAC31"/>
<path d="M20.903 110.993C14.499 110.389 8.41428 112.399 7.33037 115.517C6.24647 118.635 10.5521 121.637 16.9884 122.218C23.3924 122.822 29.4772 120.812 30.5611 117.694C31.645 114.576 27.3071 111.597 20.903 110.993Z" fill="#FCCC34"/>
<path d="M20.139 112.982C16.1163 112.617 11.4074 113.977 10.7588 115.941C10.0805 117.878 13.6416 119.661 17.6643 120.026C21.6871 120.391 26.444 119.021 27.1222 117.084C27.8318 115.125 24.1617 113.346 20.139 112.982Z" fill="#FFE592"/>
<path d="M7.15715 109.97L7.22624 112.138C7.2273 114.781 11.6592 117.083 17.216 117.594C23.62 118.198 29.5423 116.189 30.6262 113.07C30.766 112.671 30.7638 112.276 30.7637 111.825L30.7167 109.864C30.7169 110.271 30.6731 110.464 30.5458 110.91C29.4619 114.028 23.3566 116.03 16.9526 115.426C11.3958 114.914 7.44412 112.606 7.15715 109.97Z" fill="#EDAC31"/>
<path d="M20.903 104.23C14.499 103.626 8.41428 105.636 7.33037 108.754C6.24647 111.872 10.5521 114.874 16.9884 115.455C23.3924 116.058 29.4772 114.049 30.5611 110.931C31.645 107.813 27.3071 104.834 20.903 104.23Z" fill="#FCCC34"/>
<path d="M20.1389 106.219C16.1162 105.854 11.4073 107.215 10.7587 109.179C10.0805 111.115 13.6415 112.899 17.6643 113.263C21.687 113.628 26.4439 112.258 27.1221 110.322C27.8317 108.362 24.1617 106.583 20.1389 106.219Z" fill="#FFE592"/>
<path d="M7.15715 103.207L7.22624 105.375C7.2273 108.018 11.6592 110.319 17.216 110.831C23.62 111.435 29.5423 109.425 30.6262 106.307C30.766 105.908 30.7638 105.513 30.7637 105.062L30.7167 103.101C30.7169 103.507 30.6731 103.701 30.5458 104.147C29.4619 107.265 23.3566 109.266 16.9526 108.663C11.3958 108.151 7.44412 105.843 7.15715 103.207Z" fill="#EDAC31"/>
<path d="M20.903 97.4668C14.499 96.8631 8.41428 98.8725 7.33037 101.991C6.24647 105.109 10.5521 108.111 16.9884 108.691C23.3924 109.295 29.4772 107.286 30.5611 104.168C31.645 101.049 27.3071 98.0705 20.903 97.4668Z" fill="#FCCC34"/>
<path d="M20.139 99.4557C16.1163 99.0911 11.4074 100.451 10.7588 102.415C10.0805 104.352 13.6416 106.136 17.6643 106.5C21.6871 106.865 26.444 105.495 27.1222 103.558C27.8318 101.599 24.1617 99.8203 20.139 99.4557Z" fill="#FFE592"/>
<path d="M7.15715 96.5422L7.22624 98.7105C7.2273 101.353 11.6592 103.655 17.216 104.167C23.62 104.77 29.5423 102.761 30.6262 99.6425C30.766 99.2435 30.7638 98.8485 30.7637 98.3977L30.7167 96.436C30.7169 96.8428 30.6731 97.0366 30.5458 97.4821C29.4619 100.6 23.3566 102.602 16.9526 101.998C11.3958 101.486 7.44412 99.1783 7.15715 96.5422Z" fill="#EDAC31"/>
<path d="M20.903 90.8022C14.499 90.1985 8.41428 92.2079 7.33037 95.3262C6.24647 98.4444 10.5521 101.446 16.9884 102.027C23.3924 102.631 29.4772 100.621 30.5611 97.503C31.645 94.3848 27.3071 91.4059 20.903 90.8022Z" fill="#FCCC34"/>
<path d="M20.139 92.7912C16.1163 92.4266 11.4074 93.7869 10.7588 95.7508C10.0805 97.6876 13.6416 99.471 17.6643 99.8355C21.6871 100.2 26.444 98.8306 27.1222 96.8938C27.8318 94.9346 24.1617 93.1557 20.139 92.7912Z" fill="#FFE592"/>
<path d="M7.15715 89.8776L7.22624 92.046C7.2273 94.6889 11.6592 96.9902 17.216 97.502C23.62 98.1057 29.5423 96.0962 30.6262 92.978C30.766 92.5789 30.7638 92.1839 30.7637 91.7332L30.7167 89.7715C30.7169 90.1783 30.6731 90.372 30.5458 90.8175C29.4619 93.9358 23.3566 95.9372 16.9526 95.3335C11.3958 94.8218 7.44412 92.5138 7.15715 89.8776Z" fill="#EDAC31"/>
<path d="M20.903 84.1377C14.499 83.534 8.41428 85.5434 7.33037 88.6616C6.24647 91.7798 10.5521 94.7818 16.9884 95.3624C23.3924 95.9661 29.4772 93.9567 30.5611 90.8385C31.645 87.7202 27.3071 84.7414 20.903 84.1377Z" fill="#FCCC34"/>
<path d="M20.1389 86.1266C16.1162 85.762 11.4073 87.1223 10.7587 89.0863C10.0805 91.023 13.6415 92.8064 17.6643 93.171C21.687 93.5356 26.4439 92.166 27.1221 90.2292C27.8317 88.2701 24.1617 86.4912 20.1389 86.1266Z" fill="#FFE592"/>
<path d="M7.15715 83.2131L7.22624 85.3814C7.2273 88.0244 11.6592 90.3257 17.216 90.8375C23.62 91.4411 29.5423 89.4317 30.6262 86.3134C30.766 85.9144 30.7638 85.5194 30.7637 85.0686L30.7167 83.1069C30.7169 83.5137 30.6731 83.7075 30.5458 84.153C29.4619 87.2712 23.3566 89.2727 16.9526 88.669C11.3958 88.1572 7.44412 85.8492 7.15715 83.2131Z" fill="#EDAC31"/>
<path d="M20.903 77.4731C14.499 76.8694 8.41428 78.8788 7.33037 81.9971C6.24647 85.1153 10.5521 88.1172 16.9884 88.6978C23.3924 89.3015 29.4772 87.2921 30.5611 84.1739C31.645 81.0557 27.3071 78.0768 20.903 77.4731Z" fill="#FCCC34"/>
<path d="M20.139 79.4621C16.1163 79.0975 11.4074 80.4578 10.7588 82.4217C10.0805 84.3585 13.6416 86.1419 17.6643 86.5064C21.6871 86.871 26.444 85.5015 27.1222 83.5647C27.8318 81.6055 24.1617 79.8266 20.139 79.4621Z" fill="#FFE592"/>
<path d="M36.2629 110.723L36.332 112.891C36.3331 115.534 40.765 117.835 46.3218 118.347C52.7258 118.951 58.6481 116.941 59.732 113.823C59.8717 113.424 59.8696 113.029 59.8694 112.578L59.8225 110.617C59.8227 111.024 59.7789 111.217 59.6516 111.663C58.5677 114.781 52.4624 116.782 46.0584 116.179C40.5015 115.667 36.5499 113.359 36.2629 110.723Z" fill="#EDAC31"/>
<path d="M50.0088 104.983C43.6048 104.379 37.5201 106.389 36.4361 109.507C35.3522 112.625 39.6579 115.627 46.0942 116.208C52.4982 116.811 58.583 114.802 59.6669 111.684C60.7508 108.565 56.4128 105.587 50.0088 104.983Z" fill="#FCCC34"/>
<path d="M49.2447 106.972C45.222 106.607 40.5131 107.968 39.8645 109.931C39.1862 111.868 42.7473 113.652 46.77 114.016C50.7928 114.381 55.5497 113.011 56.2279 111.074C56.9375 109.115 53.2675 107.336 49.2447 106.972Z" fill="#FFE592"/>
<path d="M36.2629 104.713L36.332 106.881C36.3331 109.524 40.765 111.825 46.3218 112.337C52.7258 112.941 58.6481 110.931 59.732 107.813C59.8717 107.414 59.8696 107.019 59.8694 106.568L59.8225 104.606C59.8227 105.013 59.7789 105.207 59.6516 105.652C58.5677 108.771 52.4624 110.772 46.0584 110.168C40.5015 109.657 36.5499 107.349 36.2629 104.713Z" fill="#EDAC31"/>
<path d="M50.0088 98.9726C43.6048 98.3689 37.5201 100.378 36.4361 103.497C35.3522 106.615 39.6579 109.617 46.0942 110.197C52.4982 110.801 58.583 108.792 59.6669 105.673C60.7508 102.555 56.4128 99.5763 50.0088 98.9726Z" fill="#FCCC34"/>
<path d="M49.2447 100.962C45.222 100.597 40.5131 101.957 39.8645 103.921C39.1862 105.858 42.7473 107.641 46.77 108.006C50.7928 108.371 55.5497 107.001 56.2279 105.064C56.9375 103.105 53.2675 101.326 49.2447 100.962Z" fill="#FFE592"/>
<path d="M36.263 98.7018L36.3321 100.87C36.3331 103.513 40.765 105.814 46.3219 106.326C52.7259 106.93 58.6481 104.92 59.7321 101.802C59.8718 101.403 59.8697 101.008 59.8695 100.557L59.8226 98.5957C59.8227 99.0025 59.779 99.1962 59.6516 99.6417C58.5677 102.76 52.4625 104.761 46.0584 104.158C40.5016 103.646 36.55 101.338 36.263 98.7018Z" fill="#EDAC31"/>
<path d="M50.0089 92.9624C43.6049 92.3587 37.5201 94.3681 36.4362 97.4863C35.3523 100.605 39.6579 103.606 46.0942 104.187C52.4983 104.791 58.583 102.781 59.6669 99.6632C60.7508 96.5449 56.4129 93.5661 50.0089 92.9624Z" fill="#FCCC34"/>
<path d="M49.2448 94.9508C45.222 94.5863 40.5131 95.9465 39.8645 97.9105C39.1863 99.8473 42.7473 101.631 46.7701 101.995C50.7928 102.36 55.5497 100.99 56.228 99.0535C56.9375 97.0943 53.2675 95.3154 49.2448 94.9508Z" fill="#FFE592"/>
<path d="M36.2629 92.6911L36.332 94.8594C36.3331 97.5024 40.765 99.8037 46.3218 100.315C52.7258 100.919 58.6481 98.9097 59.732 95.7915C59.8717 95.3924 59.8696 94.9974 59.8694 94.5466L59.8225 92.5849C59.8227 92.9918 59.7789 93.1855 59.6516 93.631C58.5677 96.7492 52.4624 98.7507 46.0584 98.147C40.5015 97.6352 36.5499 95.3273 36.2629 92.6911Z" fill="#EDAC31"/>
<path d="M50.0088 86.9512C43.6048 86.3475 37.5201 88.3568 36.4361 91.4751C35.3522 94.5933 39.6579 97.5953 46.0942 98.1759C52.4982 98.7796 58.583 96.7702 59.6669 93.6519C60.7508 90.5337 56.4128 87.5549 50.0088 86.9512Z" fill="#FCCC34"/>
<path d="M49.2447 88.9401C45.222 88.5755 40.5131 89.9358 39.8645 91.8998C39.1862 93.8365 42.7473 95.6199 46.77 95.9845C50.7928 96.349 55.5497 94.9795 56.2279 93.0427C56.9375 91.0835 53.2675 89.3047 49.2447 88.9401Z" fill="#FFE592"/>
<path d="M36.2629 86.6808L36.332 88.8492C36.3331 91.4921 40.765 93.7935 46.3218 94.3052C52.7258 94.9089 58.6481 92.8995 59.732 89.7812C59.8717 89.3822 59.8696 88.9872 59.8694 88.5364L59.8225 86.5747C59.8227 86.9815 59.7789 87.1752 59.6516 87.6207C58.5677 90.739 52.4624 92.7405 46.0584 92.1368C40.5015 91.625 36.5499 89.317 36.2629 86.6808Z" fill="#EDAC31"/>
<path d="M50.0088 80.9409C43.6048 80.3372 37.5201 82.3466 36.4361 85.4648C35.3522 88.5831 39.6579 91.585 46.0942 92.1656C52.4982 92.7693 58.583 90.7599 59.6669 87.6417C60.7508 84.5234 56.4128 81.5446 50.0088 80.9409Z" fill="#FCCC34"/>
<path d="M49.2447 82.9298C45.222 82.5653 40.5131 83.9255 39.8645 85.8895C39.1862 87.8263 42.7473 89.6096 46.77 89.9742C50.7928 90.3388 55.5497 88.9692 56.2279 87.0325C56.9375 85.0733 53.2675 83.2944 49.2447 82.9298Z" fill="#FFE592"/>
<path d="M36.2629 80.6706L36.332 82.8389C36.3331 85.4819 40.765 87.7832 46.3218 88.295C52.7258 88.8987 58.6481 86.8892 59.732 83.771C59.8717 83.3719 59.8696 82.9769 59.8694 82.5261L59.8225 80.5644C59.8227 80.9713 59.7789 81.165 59.6516 81.6105C58.5677 84.7287 52.4624 86.7302 46.0584 86.1265C40.5015 85.6147 36.5499 83.3068 36.2629 80.6706Z" fill="#EDAC31"/>
<path d="M50.0088 74.9307C43.6048 74.327 37.5201 76.3363 36.4361 79.4546C35.3522 82.5728 39.6579 85.5747 46.0942 86.1553C52.4982 86.759 58.583 84.7497 59.6669 81.6314C60.7508 78.5132 56.4128 75.5344 50.0088 74.9307Z" fill="#FCCC34"/>
<path d="M49.2447 76.9196C45.222 76.555 40.5131 77.9153 39.8645 79.8792C39.1862 81.816 42.7473 83.5994 46.77 83.964C50.7928 84.3285 55.5497 82.959 56.2279 81.0222C56.9375 79.063 53.2675 77.2842 49.2447 76.9196Z" fill="#FFE592"/>
<path d="M36.2629 74.6598L36.332 76.8282C36.3331 79.4712 40.765 81.7725 46.3218 82.2842C52.7258 82.8879 58.6481 80.8785 59.732 77.7602C59.8717 77.3612 59.8696 76.9662 59.8694 76.5154L59.8225 74.5537C59.8227 74.9605 59.7789 75.1542 59.6516 75.5997C58.5677 78.718 52.4624 80.7195 46.0584 80.1158C40.5015 79.604 36.5499 77.296 36.2629 74.6598Z" fill="#EDAC31"/>
<path d="M50.0088 68.9199C43.6048 68.3162 37.5201 70.3256 36.4361 73.4438C35.3522 76.5621 39.6579 79.564 46.0942 80.1446C52.4982 80.7483 58.583 78.7389 59.6669 75.6207C60.7508 72.5024 56.4128 69.5236 50.0088 68.9199Z" fill="#FCCC34"/>
<path d="M49.2447 70.9088C45.222 70.5443 40.5131 71.9046 39.8645 73.8685C39.1862 75.8053 42.7473 77.5886 46.77 77.9532C50.7928 78.3178 55.5497 76.9482 56.2279 75.0115C56.9375 73.0523 53.2675 71.2734 49.2447 70.9088Z" fill="#FFE592"/>
<path d="M36.2629 68.6486L36.332 70.817C36.3331 73.4599 40.765 75.7612 46.3218 76.273C52.7258 76.8767 58.6481 74.8672 59.732 71.749C59.8717 71.3499 59.8696 70.9549 59.8694 70.5041L59.8225 68.5425C59.8227 68.9493 59.7789 69.143 59.6516 69.5885C58.5677 72.7068 52.4624 74.7082 46.0584 74.1045C40.5015 73.5928 36.5499 71.2848 36.2629 68.6486Z" fill="#EDAC31"/>
<path d="M50.0088 62.9092C43.6048 62.3055 37.5201 64.3148 36.4361 67.4331C35.3522 70.5513 39.6579 73.5533 46.0942 74.1339C52.4982 74.7376 58.583 72.7282 59.6669 69.6099C60.7508 66.4917 56.4128 63.5129 50.0088 62.9092Z" fill="#FCCC34"/>
<path d="M49.2447 64.8976C45.222 64.533 40.5131 65.8933 39.8645 67.8573C39.1862 69.794 42.7473 71.5774 46.77 71.942C50.7928 72.3066 55.5497 70.937 56.2279 69.0002C56.9375 67.0411 53.2675 65.2622 49.2447 64.8976Z" fill="#FFE592"/>
<path d="M36.2629 62.6388L36.332 64.8072C36.3331 67.4502 40.765 69.7515 46.3218 70.2632C52.7258 70.8669 58.6481 68.8575 59.732 65.7392C59.8717 65.3402 59.8696 64.9452 59.8694 64.4944L59.8225 62.5327C59.8227 62.9395 59.7789 63.1332 59.6516 63.5788C58.5677 66.697 52.4624 68.6985 46.0584 68.0948C40.5015 67.583 36.5499 65.275 36.2629 62.6388Z" fill="#EDAC31"/>
<path d="M50.0088 56.8989C43.6048 56.2952 37.5201 58.3046 36.4361 61.4228C35.3522 64.5411 39.6579 67.543 46.0942 68.1236C52.4982 68.7273 58.583 66.7179 59.6669 63.5997C60.7508 60.4814 56.4128 57.5026 50.0088 56.8989Z" fill="#FCCC34"/>
<path d="M49.2447 58.8879C45.222 58.5233 40.5131 59.8836 39.8645 61.8475C39.1862 63.7843 42.7473 65.5676 46.77 65.9322C50.7928 66.2968 55.5497 64.9272 56.2279 62.9905C56.9375 61.0313 53.2675 59.2524 49.2447 58.8879Z" fill="#FFE592"/>
<path d="M36.2629 56.6286L36.332 58.7969C36.3331 61.4399 40.765 63.7412 46.3218 64.253C52.7258 64.8567 58.6481 62.8472 59.732 59.729C59.8717 59.3299 59.8696 58.9349 59.8694 58.4841L59.8225 56.5224C59.8227 56.9293 59.7789 57.123 59.6516 57.5685C58.5677 60.6867 52.4624 62.6882 46.0584 62.0845C40.5015 61.5727 36.5499 59.2648 36.2629 56.6286Z" fill="#EDAC31"/>
<path d="M50.0088 50.8887C43.6048 50.285 37.5201 52.2943 36.4361 55.4126C35.3522 58.5308 39.6579 61.5328 46.0942 62.1134C52.4982 62.7171 58.583 60.7077 59.6669 57.5894C60.7508 54.4712 56.4128 51.4924 50.0088 50.8887Z" fill="#FCCC34"/>
<path d="M49.2447 52.8776C45.222 52.513 40.5131 53.8733 39.8645 55.8373C39.1862 57.774 42.7473 59.5574 46.77 59.922C50.7928 60.2865 55.5497 58.917 56.2279 56.9802C56.9375 55.021 53.2675 53.2422 49.2447 52.8776Z" fill="#FFE592"/>
<ellipse cx="168.5" cy="140" rx="55.5" ry="12" fill="#3ADBFF"/>
<path d="M117.502 112.952C105.768 115.784 102.276 133.929 111.578 136.768C131.224 141.771 143.362 139.986 162.829 133.784C174.464 129.816 166.945 118.487 157.034 114.497C143.595 109.804 129.236 110.12 117.502 112.952Z" fill="#D6F8FF"/>
<path d="M220.715 106.668C229.618 107.234 232.753 122.915 223.491 125.741L179.041 134.01C173.955 134.961 180.216 117.132 185.176 113.958C198.557 109.287 207.477 106.678 220.715 106.668Z" fill="#D6F8FF"/>
<path d="M150.133 45.5093C144.067 41.4887 138.057 36.0907 138.057 27.7108C138.254 24.0926 139.303 16.8139 143.463 11.1974C152.044 -0.389621 169.143 -3.66408 182.001 5.53991C186.905 9.05006 189.482 13.6131 191.126 18.1761C193.426 24.5641 194.621 38.5171 184.135 43.9202C181.19 45.6499 178.415 48.9664 180.957 51.2309C183.499 53.4954 188.02 53.9174 189.287 59.0167C189.89 61.4484 191.748 65.3005 193.949 69.8625C200.445 83.3267 207.539 114.232 196.528 121.789C184.536 131.642 161.255 133.534 143.463 123.544C127.979 114.851 135.255 82.0675 142.31 68.4291C144.37 64.4478 146.082 61.1385 146.683 59.0167C147.488 56.1644 148.49 55.1208 152.44 53.5533C152.508 53.5026 152.587 53.4511 152.675 53.3986C152.675 53.3986 152.833 53.3849 153.311 53.0808C157.195 50.6069 152.675 47.1943 150.133 45.5093Z" fill="url(#paint0_linear_917_9187)"/>
<path d="M185.334 26.3719C183.447 35.1162 175.859 40.5615 163.265 39.2896C148.539 37.5408 146.078 27.0078 147.186 20.4893C148.252 14.2491 155.267 6.41895 165.275 6.41895C175.284 6.41895 188.124 13.6131 185.334 26.3719Z" fill="url(#paint1_linear_917_9187)"/>
<path d="M159.93 18.0158C158.459 20.2376 157.068 19.9772 155.055 18.9517C154.752 18.7998 154.457 19.1891 154.638 19.5119C156.29 22.5597 160.225 21.7947 160.529 18.2627C160.557 17.8829 160.139 17.712 159.93 18.0158Z" fill="#FCFEFF"/>
<path d="M212.943 108.824C203.653 111.889 180.788 128.392 159.829 134.879C157.855 135.552 156.808 135.86 152.591 143.429C147.918 152.281 147.175 157.463 150.139 160.798C153.102 164.134 157.027 160.638 160.905 156.49C165.328 151.756 166.767 151.507 170.117 150.161C178.282 146.658 210.553 142.805 223.231 131.176C235.909 119.547 225.953 104.534 212.943 108.824Z" fill="#D6F8FF"/>
<path d="M178.485 15.8487C177.73 18.5504 176.155 18.1006 174.676 17.0251C174.452 16.8661 174.295 17.3418 174.453 17.7093C175.957 20.6574 179.652 19.1006 178.918 16.1003C178.895 15.6527 178.587 15.4793 178.485 15.8487Z" fill="#FCFEFF"/>
<path d="M150.45 54.4106C135.896 58.3047 125.55 79.5479 119.308 91.2791C114.58 84.413 111.462 81.4843 108.229 78.7672C107.167 76.3263 104.857 74.1389 103.778 73.6161C103.155 73.3143 102.327 73.0933 101.454 72.8599C99.8835 72.4403 98.1636 71.9807 97.2117 70.94C95.1682 68.7262 93.8561 70.8476 94.552 72.2038C95.0695 73.2467 96.2189 73.7717 97.151 74.1975C97.7911 74.4898 98.3287 74.7354 98.4892 75.0697C98.8832 75.891 98.4046 76.7074 96.7945 76.6249C95.3239 76.5547 93.2457 75.3297 92.1807 74.5819C93.0122 74.1114 94.2531 73.0482 94.2166 71.3635C94.2031 70.1889 92.6922 69.4339 91.7975 70.8786C91.0398 72.1022 90.27 72.7285 89.2318 73.5732C89.0441 73.7259 88.8476 73.8857 88.6409 74.0575C87.8927 74.8158 88.345 75.7046 89.0558 76.4458C86.4878 76.0958 83.4099 75.8187 82.007 76.2354C80.0211 76.8254 79.653 78.6243 81.6936 78.6659C84.2371 78.7389 89.0342 79.2063 90.919 79.4989C90.9152 79.5421 90.9116 79.5859 90.908 79.6304C88.1559 79.2998 84.0347 78.9371 82.3723 79.5058C80.4115 80.1766 79.8233 81.9515 81.8677 81.9314C84.3076 81.9089 88.887 82.1988 90.9072 82.4121C90.9149 82.4857 90.9235 82.5588 90.9329 82.6314C88.8295 82.3809 86.2715 82.1825 85.2219 82.5154C83.7134 82.9937 83.2396 84.6894 84.777 84.7105C86.8753 84.7366 91.5899 85.1592 92.6776 85.3536C92.6914 85.356 92.7051 85.3581 92.7188 85.3597C92.7303 85.3613 92.7418 85.3628 92.7534 85.3642C93.9392 85.5352 95.0256 85.729 96.0231 85.907C97.9055 86.2428 100.126 86.3318 102.179 86.0805C104.15 93.1592 109.556 110.64 115.97 115.032C118.566 116.52 123.315 113.896 125.337 109.641C133.557 98.2674 137.444 87.3242 139.01 84.7105C144.265 73.9513 150.45 54.4106 150.45 54.4106Z" fill="#FCFEFF"/>
<path d="M182.655 53.1396C201.722 57.5887 206.11 76.4075 213.009 89.6486L213.01 89.6494C213.745 91.0604 214.445 92.4036 215.11 93.6535C219.838 86.7873 223.868 81.484 227.101 78.767C228.163 76.326 230.472 74.1387 231.552 73.6159C232.175 73.3141 233.002 73.0931 233.876 72.8597C235.446 72.4401 237.166 71.9805 238.118 70.9398C240.161 68.726 241.474 70.8473 240.778 72.2035C240.26 73.2465 239.111 73.7715 238.179 74.1972C237.539 74.4896 237.001 74.7351 236.84 75.0695C236.446 75.8908 236.925 76.7072 238.535 76.6246C240.006 76.5544 242.084 75.3295 243.149 74.5816C242.317 74.1111 241.077 73.048 241.113 71.3632C241.127 70.1886 242.637 69.4336 243.532 70.8784C244.29 72.102 245.06 72.7282 246.098 73.573C246.286 73.7256 246.482 73.8855 246.689 74.0573C247.437 74.8155 246.985 75.7044 246.274 76.4456C248.842 76.0955 251.92 75.8184 253.323 76.2352C255.309 76.8251 255.677 78.624 253.636 78.6656C251.093 78.7387 246.295 79.206 244.411 79.4986C244.414 79.5419 244.418 79.5857 244.422 79.6301C247.174 79.2995 251.295 78.9368 252.957 79.5055C254.918 80.1764 255.506 81.9512 253.462 81.9311C251.022 81.9086 246.443 82.1986 244.422 82.4119C244.415 82.4854 244.406 82.5585 244.397 82.6312C246.5 82.3806 249.058 82.1823 250.108 82.5151C251.616 82.9935 252.09 84.6892 250.553 84.7103C248.454 84.7364 243.74 85.1589 242.652 85.3533C242.638 85.3558 242.625 85.3578 242.611 85.3595C242.599 85.3611 242.588 85.3626 242.576 85.364C241.39 85.5349 240.304 85.7288 239.307 85.9067C237.424 86.2425 235.204 86.3316 233.15 86.0802C231.18 93.1589 225.774 110.64 219.36 115.032C216.764 116.52 212.014 113.896 209.993 109.641C201.773 98.2672 183.437 67.8656 181.871 65.252C176.615 54.4927 176.715 49.7144 182.655 53.1396Z" fill="#FCFEFF"/>
<path d="M118.542 115.16C127.986 116.61 152.895 124.327 173.792 130.824C179.605 132.628 182.088 133.539 183.906 137.651C185.724 141.762 187.656 152.684 186.747 157.181C185.839 161.678 181.864 164.163 177.997 160.008C174.133 155.125 173.224 147.801 168.11 146.773C162.996 145.745 121.532 147.201 109.054 136.304C100.56 128.881 105.589 113.996 118.542 115.16Z" fill="url(#paint2_linear_917_9187)"/>
<defs>
<linearGradient id="paint0_linear_917_9187" x1="168.274" y1="0.217285" x2="168.274" y2="130.17" gradientUnits="userSpaceOnUse">
<stop stop-color="#FCFEFF"/>
<stop offset="0.511699" stop-color="#FCFEFF"/>
<stop offset="1" stop-color="#D4F8FF"/>
</linearGradient>
<linearGradient id="paint1_linear_917_9187" x1="176.669" y1="8.73628" x2="162.323" y2="40.07" gradientUnits="userSpaceOnUse">
<stop stop-color="#38A0FF"/>
<stop offset="1" stop-color="#0071D8"/>
</linearGradient>
<linearGradient id="paint2_linear_917_9187" x1="145.919" y1="115.095" x2="145.919" y2="162.129" gradientUnits="userSpaceOnUse">
<stop stop-color="#D6F8FF"/>
<stop offset="1" stop-color="white"/>
</linearGradient>
</defs>
</svg>
