<svg width="314" height="208" viewBox="0 0 314 208" fill="none" xmlns="http://www.w3.org/2000/svg">
<path d="M214 185C214 191.627 189.152 197 158.5 197C127.848 197 103 191.627 103 185C103 178.373 127.848 173 158.5 173C189.152 173 214 178.373 214 185Z" fill="#3ADBFF"/>
<path d="M107.502 157.952C95.7678 160.784 92.2755 178.929 101.578 181.768C121.224 186.771 133.362 184.986 152.829 178.784C164.464 174.816 156.945 163.487 147.033 159.497C133.595 154.804 119.236 155.12 107.502 157.952Z" fill="#D6F8FF"/>
<path d="M210.715 151.668C219.618 152.234 222.753 167.915 213.491 170.741L169.041 179.01C163.955 179.961 170.216 162.132 175.176 158.958C188.556 154.287 197.477 151.678 210.715 151.668Z" fill="#D6F8FF"/>
<path d="M140.133 90.5093C134.067 86.4887 128.057 81.0907 128.057 72.7108C128.254 69.0926 129.303 61.8139 133.463 56.1974C142.044 44.6104 159.143 41.3359 172.001 50.5399C176.905 54.0501 179.482 58.6131 181.125 63.1761C183.426 69.5641 184.621 83.5171 174.134 88.9202C171.19 90.6499 168.415 93.9664 170.957 96.2309C173.499 98.4954 178.02 98.9174 179.287 104.017C179.89 106.448 181.748 110.301 183.949 114.862C190.444 128.327 197.539 159.232 186.528 166.789C174.536 176.642 151.255 178.534 133.463 168.544C117.979 159.851 125.255 127.068 132.31 113.429C134.37 109.448 136.082 106.139 136.682 104.017C137.488 101.164 138.49 100.121 142.44 98.5533C142.508 98.5026 142.586 98.4511 142.675 98.3986C142.675 98.3986 142.833 98.3849 143.31 98.0808C147.195 95.6069 142.675 92.1943 140.133 90.5093Z" fill="url(#paint0_linear_917_9178)"/>
<path d="M175.334 71.3719C173.447 80.1162 165.859 85.5615 153.265 84.2896C138.539 82.5408 136.078 72.0078 137.186 65.4893C138.252 59.2491 145.266 51.4189 155.275 51.4189C165.284 51.4189 178.124 58.6131 175.334 71.3719Z" fill="url(#paint1_linear_917_9178)"/>
<path d="M202.943 153.824C193.653 156.889 170.788 173.392 149.828 179.879C147.855 180.552 146.808 180.86 142.591 188.429C137.918 197.281 137.175 202.463 140.139 205.798C143.102 209.134 147.027 205.638 150.905 201.49C155.328 196.756 156.767 196.507 160.117 195.161C168.282 191.658 200.553 187.805 213.231 176.176C225.909 164.547 215.952 149.534 202.943 153.824Z" fill="#D6F8FF"/>
<path d="M108.542 160.16C117.986 161.61 142.895 169.327 163.792 175.824C169.605 177.628 172.088 178.539 173.906 182.651C175.724 186.762 177.656 197.684 176.747 202.181C175.838 206.678 171.864 209.163 167.997 205.008C164.133 200.125 163.224 192.801 158.11 191.773C152.996 190.745 111.532 192.201 99.0537 181.304C90.5595 173.881 95.5891 158.996 108.542 160.16Z" fill="url(#paint2_linear_917_9178)"/>
<path d="M164.472 64.8282C164.648 65.922 165.665 66.7067 166.761 66.5296C167.857 66.3526 168.645 65.3366 168.469 64.2429C168.293 63.1491 167.276 62.3644 166.18 62.5414C165.072 62.6798 164.296 63.7344 164.472 64.8282Z" fill="#354781"/>
<path d="M167.325 63.0435C167.254 63.1719 167.381 63.396 167.595 63.5397C167.859 63.6673 168.129 63.6346 168.201 63.5062C168.272 63.3778 168.145 63.1537 167.932 63.0099C167.718 62.8662 167.448 62.8989 167.325 63.0435Z" fill="#9CB0CD"/>
<path d="M167.514 64.6026C167.703 64.6133 167.9 64.7633 167.815 64.9667C167.603 65.3521 167.238 65.6091 166.779 65.684C166.039 65.8123 165.318 65.2983 165.24 64.5809C165.206 64.2383 165.283 63.8957 165.492 63.6173C165.62 63.4353 165.884 63.5638 166.013 63.7351C166.162 63.9707 166.378 64.1849 166.696 64.367C166.97 64.5276 167.247 64.5812 167.514 64.6026Z" fill="#1A2A63"/>
<path d="M142.555 65.0411C142.698 66.1487 143.667 66.9092 144.756 66.735C145.844 66.5609 146.65 65.4943 146.507 64.3867C146.364 63.2791 145.395 62.5186 144.307 62.6928C143.218 62.8669 142.412 63.9335 142.555 65.0411Z" fill="#354781"/>
<path d="M145.151 65.8438C145.276 65.8489 145.425 66.0258 145.379 66.1746C145.273 66.5221 145.03 66.7333 144.751 66.7321C144.206 66.7703 143.598 66.0221 143.398 65.0996C143.3 64.5931 143.34 64.1325 143.459 63.8258C143.505 63.6769 143.682 63.8448 143.733 64.0077C143.795 64.3017 143.899 64.6274 144.099 64.9672C144.449 65.4838 144.831 65.8108 145.151 65.8438Z" fill="#1A2A63"/>
<path opacity="0.54" d="M144.756 63.383C144.588 63.4821 144.594 63.7103 144.721 63.9003C144.908 64.0712 145.189 64.1203 145.356 64.0211C145.524 63.922 145.518 63.6938 145.392 63.5038C145.205 63.3329 144.924 63.2838 144.756 63.383Z" fill="white"/>
<path d="M118.794 95.6693C127.727 101.893 136.5 101.5 139.5 100L140.5 123L127 127.5C129.5 120.5 124.687 119.453 110.427 110.382C90.6534 97.8543 86.3925 82.0389 84.5708 75.2681L84.5213 75.1257C82.8565 68.9134 91.5328 59.7488 96.2716 66.9139C101.555 74.8272 103.355 84.9487 118.794 95.6693Z" fill="#FCFEFF"/>
<path d="M73.8869 46.8563C76.18 47.4257 81.2546 50.6764 84.5194 53.4421C87.7842 56.2079 92.2233 60.7289 94.6048 66.0043C96.4583 70.1027 88.4241 76.324 84.9125 71.6463C82.9236 68.9973 81.0468 67.1888 78.3607 65.2535C77.973 64.9695 77.5289 64.8955 77.0961 65.0947C75.8593 65.6187 74.7124 66.4369 73.7735 66.9508C72.7222 67.5695 71.829 66.0245 72.5038 65.0798C73.128 64.1665 75.7703 62.8035 76.4449 62.489C76.8103 62.2268 76.9287 61.313 76.1361 61.2807C74.7816 61.1429 72.6566 61.8341 70.8521 62.4312C69.2669 62.9969 68.2502 60.9686 69.8524 60.1823C71.1679 59.3642 76.1483 58.4026 76.8734 58.3718C77.5985 58.341 77.6551 57.1856 76.6209 56.9535C75.598 56.6794 72.1414 56.2034 70.1629 56.0334C68.0551 55.8739 67.9828 53.4683 69.5792 53.1757C71.215 52.8937 74.6211 53.4011 76.5208 53.8651C78.4205 54.3292 78.6174 53.7516 78.0443 53.0578C77.4712 52.364 74.4197 50.3757 72.9979 49.5446C71.6267 48.6819 72.3525 46.4452 73.8869 46.8563Z" fill="#108CFF"/>
<path d="M82.1626 60.8798C86.1741 63.6081 85.2785 66.9504 88.2719 68.9728C91.2653 70.9952 94.8448 70.0254 94.9697 67.1458C95.083 63.9876 86.5458 56.2676 86.2954 56.3973C90.9762 60.3284 85.8539 60.1368 83.8563 58.4206C82.8686 57.7623 81.9802 56.8944 80.5321 56.5064C77.9979 55.8274 77.5649 57.4434 78.4435 58.348C79.272 59.2786 80.409 59.7014 82.1626 60.8798Z" fill="url(#paint3_linear_917_9178)"/>
<path d="M196.251 94.6693C187.317 100.893 178.491 103.43 177.985 99.9079L157.64 123.217L180.241 128.436C180.864 120.953 190.358 118.453 204.618 109.382C224.391 96.8543 228.652 81.0389 230.474 74.2681L230.523 74.1257C232.188 67.9134 223.512 58.7488 218.773 65.9139C213.49 73.8272 211.69 83.9487 196.251 94.6693Z" fill="#FCFEFF"/>
<path d="M241.158 45.8563C238.864 46.4257 233.79 49.6764 230.525 52.4421C227.26 55.2079 222.821 59.7289 220.44 65.0043C218.586 69.1027 226.62 75.324 230.132 70.6463C232.121 67.9973 233.998 66.1888 236.684 64.2535C237.071 63.9695 237.516 63.8955 237.948 64.0947C241.5 63 242.944 58.3176 241.271 57.9385C239.842 57.6148 238.518 57.3865 238.171 57.3718C237.446 57.341 237.389 56.1856 238.423 55.9535C239.446 55.6794 242.903 55.2034 244.882 55.0334C246.989 54.8739 247.062 52.4683 245.465 52.1757C243.829 51.8937 240.423 52.4011 238.524 52.8651C236.624 53.3292 236.427 52.7516 237 52.0578C237.573 51.364 240.625 49.3757 242.047 48.5446C243.418 47.6819 242.692 45.4452 241.158 45.8563Z" fill="#108CFF"/>
<path d="M248.432 27.5517C248.693 27.0228 249.346 26.8244 249.857 27.1192V27.1192C250.306 27.3786 250.489 27.934 250.282 28.4095L235.719 61.8155C235.363 62.6324 234.479 63.0836 233.609 62.8929V62.8929C232.425 62.6335 231.798 61.3323 232.334 60.2451L248.432 27.5517Z" fill="#25395F"/>
<path d="M232.882 59.8798C228.87 62.6081 229.766 65.9504 226.773 67.9728C223.779 69.9952 220.2 69.0254 220.075 66.1458C219.961 62.9876 228.499 55.2676 228.749 55.3973C224.068 59.3284 229.191 59.1368 231.188 57.4206C232.176 56.7623 233.064 55.8944 234.512 55.5064C237.046 54.8274 237.48 56.4434 236.601 57.348C235.772 58.2786 234.635 58.7014 232.882 59.8798Z" fill="url(#paint4_linear_917_9178)"/>
<path d="M311 184.5C311 186.985 301.374 189 289.5 189C277.626 189 268 186.985 268 184.5C268 182.015 277.626 180 289.5 180C301.374 180 311 182.015 311 184.5Z" fill="#3ADBFF"/>
<path d="M264 153C264 151.895 264.895 151 266 151H312C313.105 151 314 151.895 314 153V181.015C314 182.672 312.657 184.015 311 184.015H267C265.343 184.015 264 182.672 264 181.015V153Z" fill="#DDF9FF"/>
<path d="M314 152C314 154.761 302.807 157 289 157C275.193 157 264 154.761 264 152C264 149.239 275.193 147 289 147C302.807 147 314 149.239 314 152Z" fill="#DDF9FF"/>
<path d="M314 182C314 184.761 302.807 187 289 187C275.193 187 264 184.761 264 182C264 179.239 275.193 177 289 177C302.807 177 314 179.239 314 182Z" fill="#DDF9FF"/>
<path d="M311 153.5C311 155.433 301.15 157 289 157C276.85 157 267 155.433 267 153.5C267 151.567 276.85 150 289 150C301.15 150 311 151.567 311 153.5Z" fill="#8FE6FA"/>
<path d="M300.454 146.994L300.135 144.917C299.826 142.375 295.296 140.679 289.893 140.834C283.664 141 278.202 143.622 277.523 146.747C277.435 147.147 277.484 147.527 277.536 147.96L277.81 149.841C277.762 149.45 277.782 149.259 277.852 148.815C278.531 145.69 284.17 143.054 290.399 142.889C295.802 142.733 299.871 144.492 300.454 146.994Z" fill="#EDAC31"/>
<path d="M287.904 154.115C294.133 153.95 299.75 151.308 300.429 148.183C301.108 145.058 296.618 142.673 290.361 142.865C284.132 143.03 278.514 145.672 277.835 148.797C277.156 151.922 281.675 154.281 287.904 154.115Z" fill="#FCCC34"/>
<path d="M288.407 152.114C292.318 151.996 296.688 150.139 297.083 148.174C297.51 146.233 293.877 144.933 289.966 145.051C286.055 145.169 281.64 147.04 281.213 148.982C280.759 150.949 284.496 152.232 288.407 152.114Z" fill="#FFE592"/>
<path d="M298.215 121.112L299.267 119.293C300.619 117.119 298.151 112.958 293.842 109.694C288.883 105.92 282.984 104.543 280.496 106.553C280.177 106.81 279.977 107.136 279.746 107.507L278.781 109.144C278.989 108.81 279.124 108.673 279.457 108.371C281.944 106.361 287.99 107.839 292.949 111.612C297.258 114.876 299.327 118.797 298.215 121.112Z" fill="#EDAC31"/>
<path d="M283.971 118.8C288.93 122.573 294.963 124.034 297.45 122.023C299.937 120.013 297.932 115.341 292.935 111.57C287.976 107.797 281.943 106.336 279.455 108.346C276.968 110.356 279.012 115.026 283.971 118.8Z" fill="#FCCC34"/>
<path d="M285.617 117.554C288.74 119.913 293.309 121.203 294.847 119.92C296.396 118.674 294.38 115.385 291.257 113.026C288.135 110.668 283.521 109.361 281.972 110.607C280.386 111.855 282.495 115.196 285.617 117.554Z" fill="#FFE592"/>
<path d="M282.86 92.7614L284.75 93.6806C287.016 94.8722 290.988 92.1116 293.934 87.5792C297.342 82.362 298.291 76.3787 296.108 74.0425C295.828 73.7427 295.489 73.5663 295.102 73.363L293.4 72.5181C293.749 72.7015 293.895 72.8264 294.219 73.1366C296.403 75.4728 295.364 81.6094 291.957 86.8265C289.011 91.3589 285.249 93.7049 282.86 92.7614Z" fill="#EDAC31"/>
<path d="M284.143 78.3882C280.735 83.6054 279.712 89.728 281.896 92.0641C284.08 94.4003 288.596 92.064 291.998 86.8088C295.405 81.5916 296.428 75.4691 294.244 73.1329C292.061 70.7967 287.55 73.1711 284.143 78.3882Z" fill="#FCCC34"/>
<path d="M285.503 79.9406C283.375 83.2244 282.416 87.8747 283.807 89.3169C285.161 90.7722 288.297 88.5244 290.424 85.2406C292.552 81.9568 293.525 77.2611 292.17 75.8058C290.811 74.3135 287.63 76.6568 285.503 79.9406Z" fill="#FFE592"/>
<path d="M278.642 56.4938L279.75 58.2795C281.031 60.4962 285.864 60.2802 290.773 58.0181C296.438 55.4227 300.433 50.8684 299.832 47.7274C299.756 47.325 299.563 46.9946 299.345 46.6165L298.355 44.9935C298.552 45.3347 298.61 45.5185 298.718 45.9539C299.319 49.0949 295.167 53.7311 289.502 56.3265C284.592 58.5886 280.159 58.5664 278.642 56.4938Z" fill="#EDAC31"/>
<path d="M287.394 45.0204C281.729 47.6158 277.597 52.2487 278.198 55.3897C278.799 58.5307 283.865 58.9636 289.546 56.3332C295.211 53.7379 299.343 49.1049 298.742 45.9639C298.141 42.823 293.059 42.425 287.394 45.0204Z" fill="#FCCC34"/>
<path d="M287.716 47.059C284.164 48.7016 280.873 52.1236 281.28 54.0853C281.649 56.0386 285.5 55.8099 289.052 54.1674C292.603 52.5248 295.931 49.0718 295.561 47.1184C295.208 45.1311 291.267 45.4164 287.716 47.059Z" fill="#FFE592"/>
<path d="M277.573 17.0764L277.64 19.177C277.641 21.7372 281.935 23.9665 287.318 24.4623C293.521 25.0471 299.258 23.1005 300.308 20.0798C300.444 19.6933 300.442 19.3106 300.441 18.8739L300.396 16.9736C300.396 17.3677 300.354 17.5554 300.23 17.9869C299.18 21.0076 293.266 22.9465 287.062 22.3617C281.679 21.8659 277.851 19.6301 277.573 17.0764Z" fill="#EDAC31"/>
<path d="M290.889 11.5164C284.686 10.9316 278.791 12.8781 277.741 15.8988C276.691 18.9195 280.862 21.8275 287.097 22.3899C293.301 22.9747 299.195 21.0282 300.245 18.0075C301.295 14.9868 297.093 12.1012 290.889 11.5164Z" fill="#FCCC34"/>
<path d="M290.149 13.4433C286.252 13.0901 281.691 14.4078 281.062 16.3103C280.405 18.1865 283.855 19.9141 287.752 20.2673C291.649 20.6204 296.257 19.2937 296.914 17.4176C297.601 15.5197 294.046 13.7965 290.149 13.4433Z" fill="#FFE592"/>
<path d="M47 184.5C47 186.985 36.9264 189 24.5 189C12.0736 189 2 186.985 2 184.5C2 182.015 12.0736 180 24.5 180C36.9264 180 47 182.015 47 184.5Z" fill="#3ADBFF"/>
<path d="M0 153C0 151.895 0.895431 151 2 151H48C49.1046 151 50 151.895 50 153V181.015C50 182.672 48.6569 184.015 47 184.015H3C1.34315 184.015 0 182.672 0 181.015V153Z" fill="#DDF9FF"/>
<path d="M50 152C50 154.761 38.8071 157 25 157C11.1929 157 0 154.761 0 152C0 149.239 11.1929 147 25 147C38.8071 147 50 149.239 50 152Z" fill="#DDF9FF"/>
<path d="M50 182C50 184.761 38.8071 187 25 187C11.1929 187 0 184.761 0 182C0 179.239 11.1929 177 25 177C38.8071 177 50 179.239 50 182Z" fill="#DDF9FF"/>
<path d="M47 153.5C47 155.433 37.1503 157 25 157C12.8497 157 3 155.433 3 153.5C3 151.567 12.8497 150 25 150C37.1503 150 47 151.567 47 153.5Z" fill="#8FE6FA"/>
<defs>
<linearGradient id="paint0_linear_917_9178" x1="158.274" y1="45.2173" x2="158.274" y2="175.17" gradientUnits="userSpaceOnUse">
<stop stop-color="#FCFEFF"/>
<stop offset="0.511699" stop-color="#FCFEFF"/>
<stop offset="1" stop-color="#D4F8FF"/>
</linearGradient>
<linearGradient id="paint1_linear_917_9178" x1="166.669" y1="53.7363" x2="152.323" y2="85.07" gradientUnits="userSpaceOnUse">
<stop stop-color="#38A0FF"/>
<stop offset="1" stop-color="#0071D8"/>
</linearGradient>
<linearGradient id="paint2_linear_917_9178" x1="135.919" y1="160.095" x2="135.919" y2="207.129" gradientUnits="userSpaceOnUse">
<stop stop-color="#D6F8FF"/>
<stop offset="1" stop-color="white"/>
</linearGradient>
<linearGradient id="paint3_linear_917_9178" x1="77.2338" y1="60.2046" x2="95.5895" y2="65.123" gradientUnits="userSpaceOnUse">
<stop stop-color="#6DB9FF"/>
<stop offset="1" stop-color="#4AA8FF" stop-opacity="0"/>
</linearGradient>
<linearGradient id="paint4_linear_917_9178" x1="237.811" y1="59.2046" x2="219.455" y2="64.123" gradientUnits="userSpaceOnUse">
<stop stop-color="#6DB9FF"/>
<stop offset="1" stop-color="#4AA8FF" stop-opacity="0"/>
</linearGradient>
</defs>
</svg>
