<svg width="432" height="284" viewBox="0 0 432 284" fill="none" xmlns="http://www.w3.org/2000/svg">
<g clip-path="url(#clip0_330_17383)">
<g clip-path="url(#clip1_330_17383)">
<rect x="-16" y="-15" width="464" height="310" rx="12" fill="#F0F5FE"/>
<path d="M323.771 217.577C322.598 218.849 322.671 220.845 324.047 221.894C327.553 224.566 331.561 226.524 335.845 227.644C341.141 229.029 346.696 229.09 352.021 227.823C357.346 226.555 362.277 223.997 366.381 220.374C369.701 217.444 372.397 213.889 374.322 209.924C375.078 208.367 374.244 206.553 372.624 205.945C371.002 205.337 369.211 206.17 368.42 207.711C366.877 210.719 364.782 213.421 362.234 215.671C358.9 218.614 354.894 220.691 350.568 221.721C346.243 222.751 341.731 222.701 337.428 221.576C334.14 220.717 331.052 219.249 328.32 217.259C326.92 216.239 324.945 216.303 323.771 217.577Z" fill="#FF8576"/>
<path d="M358.421 304.605C352.013 307.757 344.456 303.487 343.897 296.373C341.668 267.998 341.687 247.238 343.923 218.242C344.473 211.112 352.044 206.818 358.463 209.983C384.537 222.837 402.556 233.155 426.116 248.945C432.067 252.934 432.079 261.64 426.137 265.642C403.126 281.141 385.107 291.482 358.421 304.605Z" fill="#108CFF"/>
<path d="M281 -31L281 42C281 81.7645 313.236 114 353 114C392.765 114 425 81.7645 425 42L425 -31L281 -31Z" fill="#61E897"/>
<path d="M75.8641 215C36.1764 215 4 247.173 4 286.861C4 326.549 36.1764 358.722 75.8641 358.722C115.552 358.722 147.728 326.549 147.728 286.861C147.728 247.173 115.552 215 75.8641 215Z" fill="#666AF6"/>
<path d="M127 -24L-64 -24L-64 85L85 85C108.196 85 127 66.196 127 43L127 -24Z" fill="#FFE179"/>
<g opacity="0.1">
<mask id="mask0_330_17383" style="mask-type:alpha" maskUnits="userSpaceOnUse" x="-57" y="-24" width="184" height="108">
<path d="M127 54C127 70.5685 113.569 84 97 84L-27 84C-43.5685 84 -57 70.5686 -57 54L-57 -24L97 -24C113.569 -24 127 -10.5686 127 5.99998L127 54Z" fill="white"/>
</mask>
<g mask="url(#mask0_330_17383)">
<path d="M19.7183 -129.286L19.7183 -71.734C19.7183 -70.6294 18.8228 -69.734 17.7183 -69.734L-27.3271 -69.734C-28.4317 -69.734 -29.3271 -68.8386 -29.3271 -67.734L-29.3271 -22.1072C-29.3271 -21.0026 -30.2225 -20.1072 -31.3271 -20.1072L-73.2683 -20.1072C-74.3729 -20.1072 -75.2683 -19.2118 -75.2683 -18.1072L-75.2683 29.3806C-75.2683 30.4852 -76.1638 31.3806 -77.2683 31.3806L-122.314 31.3806C-123.418 31.3806 -124.314 32.276 -124.314 33.3806L-124.314 72.804C-124.314 73.9086 -125.209 74.804 -126.314 74.804L-159.563 74.804C-160.668 74.804 -161.563 75.6995 -161.563 76.804L-161.563 127.533" stroke="#D1A300" stroke-width="20"/>
<path d="M138.917 -129.286L138.917 -71.734C138.917 -70.6294 138.021 -69.734 136.917 -69.734L91.8712 -69.734C90.7666 -69.734 89.8712 -68.8386 89.8712 -67.734L89.8712 -22.1072C89.8712 -21.0026 88.9757 -20.1072 87.8712 -20.1072L45.93 -20.1072C44.8254 -20.1072 43.93 -19.2118 43.93 -18.1072L43.93 29.3806C43.93 30.4852 43.0346 31.3806 41.93 31.3806L-3.11534 31.3806C-4.2199 31.3806 -5.11534 32.276 -5.11534 33.3806L-5.11534 76.526C-5.11534 77.6306 -6.01077 78.526 -7.11534 78.526L-54.0231 78.526C-55.1277 78.526 -56.0231 79.4215 -56.0231 80.526L-56.0231 121.329" stroke="#D1A300" stroke-width="20"/>
<path d="M248.182 -119.36L248.182 -61.8082C248.182 -60.7037 247.286 -59.8082 246.182 -59.8082L201.136 -59.8082C200.032 -59.8082 199.136 -58.9128 199.136 -57.8082L199.136 -12.1814C199.136 -11.0769 198.241 -10.1814 197.136 -10.1814L155.195 -10.1814C154.091 -10.1814 153.195 -9.28602 153.195 -8.18145L153.195 39.3063C153.195 40.4109 152.3 41.3063 151.195 41.3063L106.15 41.3063C105.045 41.3063 104.15 42.2018 104.15 43.3063L104.15 86.4518C104.15 87.5563 103.254 88.4518 102.15 88.4518L55.2419 88.4518C54.1373 88.4518 53.2419 89.3472 53.2419 90.4518L53.2419 131.255" stroke="#D1A300" stroke-width="20"/>
</g>
</g>
<path d="M53.4839 219.23C65.9807 231.727 65.9807 251.988 53.4839 264.485C40.9871 276.982 20.7259 276.982 8.22908 264.485L1.62705 257.883C-10.8697 245.386 -10.8697 225.125 1.62704 212.628C14.1238 200.131 34.3851 200.131 46.8819 212.628L53.4839 219.23Z" fill="#FF8576"/>
<path d="M146 5C146 10.5228 141.523 15 136 15L117 15C111.477 15 107 10.5228 107 5C107 -0.522847 111.477 -5 117 -5L136 -5C141.523 -5 146 -0.52285 146 5Z" fill="#666AF6"/>
<path d="M171 8C171 11.866 167.866 15 164 15C160.134 15 157 11.866 157 8L157 2C157 -1.86599 160.134 -5 164 -5C167.866 -5 171 -1.866 171 2L171 8Z" fill="#FF8576"/>
<path d="M364.285 72.4095L364.285 77.4505C364.285 79.0748 363.194 80.6711 361.041 81.9033C356.706 84.3678 349.659 84.3678 345.297 81.9033C343.116 80.6711 341.997 79.0188 342.025 77.3945L342.025 72.3535C342.025 73.9778 343.116 75.6301 345.297 76.8624C349.659 79.3268 356.706 79.3268 361.041 76.8624C363.194 75.6301 364.285 74.0338 364.285 72.4095Z" fill="#31D097"/>
<path d="M362.779 78.3592L362.777 78.3602C360.158 79.8608 356.691 80.6254 353.193 80.6254C349.695 80.6254 346.22 79.8609 343.587 78.3599C341.469 77.148 340.273 75.6884 339.877 74.2333C340.613 75.2521 341.694 76.1885 343.09 76.9875L343.091 76.9879C345.911 78.5953 349.567 79.385 353.193 79.385C356.818 79.385 360.467 78.5955 363.274 76.9879C364.649 76.2068 365.712 75.2901 366.437 74.2919C366.052 75.7277 364.877 77.1679 362.779 78.3592Z" fill="url(#paint0_linear_330_17383)" stroke="#1DC588"/>
<path d="M339.256 71.3729C339.256 73.4173 340.627 75.4617 343.367 77.03C348.82 80.1385 357.629 80.1385 363.054 77.03C365.739 75.4897 367.081 73.5013 367.109 71.4849L367.109 71.0088C367.109 73.0252 365.767 75.0416 363.054 76.5819C357.629 79.6904 348.82 79.6904 343.367 76.5819C340.627 75.0136 339.256 72.9692 339.256 70.9248L339.256 71.3729Z" fill="#6CDBAC"/>
<path d="M362.972 65.3519C368.426 68.4605 368.454 73.4735 363.028 76.5541C357.603 79.6626 348.794 79.6626 343.341 76.5541C337.888 73.4455 337.86 68.4325 343.285 65.3519C348.71 62.2434 357.519 62.2434 362.972 65.3519Z" fill="#31D097"/>
<path d="M344.311 75.1384C342.452 74.0954 341.373 72.8288 340.959 71.5659C341.638 72.445 342.598 73.2516 343.82 73.9374C346.43 75.4181 349.813 76.1444 353.168 76.1444C356.525 76.1444 359.908 75.4179 362.518 73.9368L362.518 73.9369L362.521 73.9348C363.722 73.24 364.665 72.4432 365.333 71.5808C364.931 72.8383 363.859 74.0864 362.022 75.1405C359.613 76.5151 356.419 77.2168 353.189 77.2168C349.96 77.2168 346.75 76.515 344.312 75.1389L344.311 75.1384Z" fill="url(#paint1_linear_330_17383)" stroke="#1DC588"/>
<path d="M367.081 65.6299L367.081 67.8703C367.081 69.8867 365.738 71.9031 363.026 73.4433C357.601 76.5519 348.792 76.5519 343.339 73.4433C340.598 71.8751 339.228 69.8307 339.228 67.7863L339.228 65.5459C339.228 67.5903 340.598 69.6346 343.339 71.2029C348.792 74.3115 357.601 74.3115 363.026 71.2029C365.738 69.6627 367.081 67.6463 367.081 65.6299Z" fill="#31D097"/>
<path d="M339.256 66.0233C339.256 68.0677 340.627 70.112 343.367 71.6803C348.82 74.7889 357.629 74.7889 363.054 71.6803C365.739 70.1401 367.081 68.1517 367.109 66.1353L367.109 65.6592C367.109 67.6756 365.767 69.692 363.054 71.2323C357.629 74.3408 348.82 74.3408 343.367 71.2323C340.627 69.664 339.256 67.6196 339.256 65.5752L339.256 66.0233Z" fill="#6CDBAC"/>
<path d="M362.972 60.0023C368.426 63.1109 368.454 68.1239 363.028 71.2044C357.603 74.313 348.794 74.313 343.341 71.2044C337.888 68.0959 337.86 63.0829 343.285 60.0023C348.71 56.8938 357.519 56.8938 362.972 60.0023Z" fill="#31D097"/>
<path d="M344.311 69.7878C342.452 68.7448 341.373 67.4782 340.959 66.2153C341.638 67.0944 342.598 67.901 343.82 68.5868C346.43 70.0675 349.813 70.7938 353.168 70.7938C356.525 70.7938 359.908 70.0673 362.518 68.5863L362.518 68.5863L362.521 68.5842C363.722 67.8894 364.665 67.0926 365.333 66.2302C364.931 67.4877 363.859 68.7358 362.022 69.7899C359.613 71.1645 356.419 71.8662 353.189 71.8662C349.96 71.8662 346.75 71.1645 344.312 69.7884L344.311 69.7878Z" fill="url(#paint2_linear_330_17383)" stroke="#1DC588"/>
<path d="M367.08 60.2832L367.08 62.5237C367.08 64.5401 365.738 66.5565 363.025 68.0968C357.6 71.2054 348.791 71.2054 343.338 68.0968C340.598 66.5285 339.228 64.4841 339.228 62.4397L339.228 60.1992C339.228 62.2436 340.598 64.288 343.338 65.8563C348.791 68.9649 357.6 68.9649 363.025 65.8563C365.738 64.316 367.08 62.2996 367.08 60.2832Z" fill="#31D097"/>
<path d="M339.256 60.6756C339.256 62.72 340.626 64.7644 343.367 66.3327C348.82 69.4413 357.629 69.4413 363.054 66.3327C365.738 64.7924 367.081 62.804 367.109 60.7876L367.109 60.3116C367.109 62.3279 365.766 64.3443 363.054 65.8846C357.629 68.9932 348.82 68.9932 343.367 65.8846C340.626 64.3163 339.256 62.2719 339.256 60.2275L339.256 60.6756Z" fill="#6CDBAC"/>
<path d="M362.972 54.6537C368.425 57.7623 368.453 62.7753 363.028 65.8559C357.603 68.9645 348.794 68.9645 343.341 65.8559C337.888 62.7473 337.86 57.7343 343.285 54.6537C348.71 51.5451 357.519 51.5451 362.972 54.6537Z" fill="#55E2AF"/>
<path d="M352.707 -6.67727C335.9 -6.45322 322.197 7.07332 322.002 23.5964C321.89 34.4905 327.93 45.3845 338.137 50.7616C339.591 51.5177 340.318 54.3182 340.318 55.9425L340.29 58.9951C340.29 63.2799 346.051 66.6406 353.154 66.6406C360.257 66.6406 366.018 63.1679 366.018 58.8551C366.018 58.7711 366.018 58.6871 366.018 58.603L365.99 55.9425C365.99 54.3182 366.745 51.5457 368.171 50.7616C378.462 45.2445 384.307 34.6865 384.307 23.9325C384.307 6.87729 370.129 -6.92931 352.707 -6.67727Z" fill="url(#paint3_linear_330_17383)"/>
<path d="M353.155 66.612C359.888 66.612 365.347 63.6906 365.347 60.0868C365.347 56.483 359.888 53.5615 353.155 53.5615C346.421 53.5615 340.962 56.483 340.962 60.0868C340.962 63.6906 346.421 66.612 353.155 66.612Z" fill="url(#paint4_linear_330_17383)"/>
<path opacity="0.75" d="M375.504 5.15376C375.808 4.59647 376.61 4.5686 376.942 5.09803C379.183 8.66467 382.088 14.8227 381.286 21.9281C379.902 34.4113 372.931 40.1793 367.758 42.9657C367.149 43.3001 366.43 42.7706 366.541 42.1019C366.873 39.9842 367.122 37.8944 367.149 36.1389C367.149 35.8881 367.26 35.6652 367.454 35.498C370.331 32.9902 373.374 29.8694 374.563 24.4638C375.836 18.7516 373.872 13.8753 373.042 10.8102C372.461 8.74826 373.982 7.91233 375.504 5.15376Z" fill="url(#paint5_linear_330_17383)"/>
<path opacity="0.75" d="M328.091 18.4931C327.476 18.3064 327.095 17.7197 327.182 17.1331C329.175 5.39987 337.292 -5.90668 356.955 -7C341.512 -6.36001 332.018 5.10654 329.878 17.5064C329.761 18.2797 328.911 18.7597 328.091 18.4931Z" fill="url(#paint6_linear_330_17383)"/>
</g>
<g style="mix-blend-mode:overlay">
<path d="M111.52 268.205C111.443 268.126 111.367 268.047 111.212 267.967C107.408 267.523 79.0423 261.056 75.2219 261.696C71.4793 262.338 47.2295 266.55 43.3326 267.112C39.4356 267.675 38.1483 270.523 38.0899 274.398C38.0899 274.398 37.5594 309.579 37.5209 312.136C37.4823 314.693 37.3555 317.947 43.4804 319.2C49.8373 320.535 72.6134 326.377 75.2663 325.797C75.8884 325.806 76.667 325.74 77.5258 325.52C83.6127 324.138 106.08 319.512 108.733 318.931C111.386 318.351 113.051 316.205 113.117 311.866L113.7 273.198C113.73 271.183 113.377 268.852 111.52 268.205ZM110.511 268.035C110.434 268.033 110.434 268.033 110.356 268.032C110.434 268.033 110.513 267.957 110.511 268.035ZM109.344 268.095C109.578 268.021 109.812 268.024 109.967 268.026C109.734 268.023 109.578 268.021 109.344 268.095Z" fill="url(#paint7_linear_330_17383)"/>
<path d="M114.018 257.392C109.73 258.104 82.1271 262.886 77.7625 263.519C73.3201 264.15 71.8715 267.384 71.8049 271.801C71.8049 271.801 71.1693 313.956 71.1248 316.901C71.0804 319.846 70.9349 324.339 77.8794 322.815C84.8238 321.29 110.335 315.934 113.378 315.282C116.421 314.63 118.324 312.178 118.399 307.218L119.063 263.203C119.031 260.18 118.383 256.682 114.018 257.392Z" fill="url(#paint8_linear_330_17383)"/>
<path fill-rule="evenodd" clip-rule="evenodd" d="M71.8049 271.801L71.1234 316.998C71.0781 319.943 71.0108 324.322 77.8794 322.815C82.7716 321.741 96.8782 318.765 105.853 316.872C109.617 316.078 112.479 315.475 113.378 315.282C116.421 314.63 118.324 312.178 118.399 307.218L119.063 263.203C119.031 260.18 118.383 256.682 114.018 257.392C112.683 257.614 109.089 258.23 104.64 258.992C94.7971 260.679 80.7685 263.083 77.7625 263.519C73.3201 264.15 71.8715 267.384 71.8049 271.801ZM114.165 258.279C112.841 258.499 109.268 259.111 104.838 259.87C94.9906 261.558 80.9107 263.971 77.8931 264.408L77.8907 264.408C75.8966 264.692 74.6718 265.532 73.9052 266.724C73.11 267.961 72.7418 269.679 72.7096 271.814L71.8049 271.801C72.7096 271.814 72.7096 271.814 72.7096 271.814L72.0283 316.994C72.0172 317.719 72.0059 318.465 72.0844 319.185C72.166 319.931 72.3376 320.568 72.6465 321.054C72.9377 321.513 73.3785 321.884 74.1195 322.079C74.8914 322.282 76.0266 322.301 77.6842 321.937C82.5801 320.862 96.7099 317.882 105.684 315.989C109.44 315.197 112.293 314.595 113.187 314.403C114.499 314.122 115.522 313.471 116.244 312.373C116.984 311.25 117.459 309.584 117.494 307.205L118.158 263.201C118.141 261.706 117.964 260.3 117.392 259.364C117.122 258.922 116.771 258.599 116.3 258.407C115.819 258.211 115.138 258.121 114.165 258.279Z" fill="url(#paint9_linear_330_17383)"/>
<path d="M80.397 269.292L110.571 264.16C111.584 264.02 112.429 264.73 112.414 265.738L111.793 306.886C111.772 308.281 110.822 309.429 109.495 309.719C103.722 310.951 88.5865 314.136 80.8622 315.804C79.0681 316.165 77.3786 314.745 77.4066 312.885L78.0212 272.124C78.0423 270.73 79.0706 269.582 80.397 269.292Z" fill="#6683BD"/>
<path d="M71.1304 316.904C71.1745 313.959 71.8059 271.804 71.8059 271.804C71.8721 267.387 73.3981 264.154 77.7627 263.522C82.1951 262.984 109.778 258.133 114.061 257.412C115.074 257.272 115.819 257.294 116.515 257.537C116.44 257.381 116.274 257.278 116.197 257.277C112.277 256.45 79.6067 249.443 75.3187 250.154C71.0308 250.865 43.4288 255.644 39.0643 256.277C34.622 256.908 33.0959 260.14 33.0298 264.557C33.0298 264.557 32.4308 304.543 32.3867 307.487C32.3426 310.432 32.2103 314.073 39.1093 315.572C46.3194 317.075 72.2722 323.742 75.2373 323.089C70.9597 323.102 71.0921 319.461 71.1304 316.904Z" fill="url(#paint10_linear_330_17383)"/>
<path opacity="0.51" d="M71.1304 316.905C71.1745 313.96 71.806 271.805 71.806 271.805C71.8721 267.388 73.3982 264.155 77.7627 263.523C82.205 262.892 109.752 258.06 114.039 257.427C115.052 257.287 115.827 257.298 116.523 257.541C116.448 257.385 116.211 257.294 116.133 257.292C111.786 256.762 79.6068 249.444 75.3188 250.155C71.0308 250.866 43.4289 255.646 39.0643 256.278C34.622 256.909 33.096 260.141 33.0298 264.558C33.0298 264.558 32.4309 304.544 32.3867 307.489C32.3426 310.433 32.2103 314.074 39.1094 315.573C46.3194 317.076 72.2723 323.743 75.2373 323.09C70.9598 323.103 71.0921 319.462 71.1304 316.905Z" fill="url(#paint11_linear_330_17383)"/>
<path d="M85.5929 270.223L115.767 265.091C116.78 264.951 117.625 265.661 117.61 266.669L116.983 308.204C116.962 309.599 116.012 310.747 114.685 311.038C108.912 312.269 93.7766 315.455 86.0523 317.122C84.2582 317.483 82.4897 316.139 82.5189 314.202L83.1394 273.054C83.2382 271.66 84.1887 270.512 85.5929 270.223Z" fill="url(#paint12_linear_330_17383)"/>
<path opacity="0.61" fill-rule="evenodd" clip-rule="evenodd" d="M85.7624 271.106C84.7907 271.312 84.1236 272.097 84.0436 273.094L83.4236 314.215C83.4034 315.554 84.6173 316.49 85.8669 316.243C90.8647 315.164 98.9622 313.45 105.619 312.041C109.252 311.272 112.456 310.594 114.493 310.159C115.403 309.959 116.064 309.173 116.079 308.191L116.705 266.655C116.712 266.23 116.389 265.918 115.904 265.98L85.7624 271.106ZM83.1394 273.054C83.2382 271.66 84.1887 270.512 85.5929 270.223L115.767 265.091C116.78 264.951 117.625 265.661 117.61 266.669L116.983 308.204C116.962 309.599 116.012 310.747 114.685 311.038C112.646 311.473 109.438 312.152 105.802 312.921C99.1435 314.33 91.048 316.044 86.0523 317.122C84.2582 317.483 82.4897 316.139 82.5189 314.202L83.1394 273.054Z" fill="url(#paint13_linear_330_17383)"/>
<path d="M110.26 264.156C108.233 264.514 82.7352 268.94 80.709 269.22C78.6828 269.5 77.9799 270.762 77.9495 272.777C77.9495 272.777 77.4345 311.026 77.4134 312.421C77.3924 313.816 77.2913 315.364 80.4697 316.032C81.4004 316.2 82.9496 316.611 84.7321 317.025C83.4927 316.697 82.5761 315.598 82.5971 314.203L83.2176 273.055C83.2386 271.66 84.2681 270.435 85.6711 270.224L115.845 265.092C116.235 265.02 116.623 265.104 117.008 265.342C115.849 264.86 114.92 264.536 113.45 264.049C112.6 263.726 110.883 264.088 110.26 264.156Z" fill="url(#paint14_linear_330_17383)"/>
<path d="M110.534 292.552C112.258 285.569 109.498 278.889 104.369 277.631C99.2395 276.373 93.6834 281.014 91.9589 287.997C90.2344 294.979 92.9945 301.659 98.1238 302.917C103.253 304.175 108.809 299.534 110.534 292.552Z" fill="url(#paint15_linear_330_17383)"/>
<path d="M109.391 291.897C110.582 287.075 108.674 282.462 105.129 281.593C101.584 280.724 97.7457 283.928 96.5549 288.749C95.3642 293.57 97.2724 298.183 100.817 299.052C104.362 299.922 108.2 296.718 109.391 291.897Z" fill="url(#paint16_linear_330_17383)"/>
<path fill-rule="evenodd" clip-rule="evenodd" d="M108.199 285.604C107.508 283.933 106.337 282.815 104.913 282.466C103.49 282.117 101.932 282.565 100.541 283.726C99.1515 284.886 97.9878 286.719 97.4333 288.964C96.8788 291.21 97.0558 293.371 97.7467 295.042C98.4379 296.713 99.6088 297.83 101.033 298.18C102.456 298.529 104.014 298.08 105.405 296.92C106.795 295.76 107.958 293.927 108.513 291.681C109.067 289.436 108.89 287.274 108.199 285.604ZM105.129 281.593C108.674 282.462 110.582 287.075 109.391 291.897C108.2 296.718 104.362 299.922 100.817 299.052C97.2724 298.183 95.3642 293.57 96.5549 288.749C97.7457 283.928 101.584 280.724 105.129 281.593Z" fill="url(#paint17_linear_330_17383)"/>
<path d="M77.7639 283.825L75.2467 285.725L79.834 285.794L77.7639 283.825Z" fill="#878BC4"/>
</g>
<path d="M296.379 235.436C294.727 236.868 294.55 239.382 296.091 240.941C301.558 246.476 307.956 251.035 315.006 254.407C323.255 258.352 332.224 260.59 341.369 260.984C350.515 261.379 359.645 259.921 368.205 256.701C376.765 253.48 384.577 248.564 391.166 242.25C397.756 235.936 402.985 228.357 406.536 219.972C410.087 211.587 411.886 202.572 411.824 193.474C411.762 184.376 409.84 175.385 406.175 167.048C403.037 159.909 398.677 153.377 393.298 147.737C391.797 146.163 389.299 146.247 387.809 147.824C386.308 149.414 386.401 151.915 387.9 153.513C392.489 158.408 396.219 164.047 398.922 170.196C402.157 177.557 403.854 185.494 403.909 193.526C403.964 201.557 402.376 209.516 399.241 216.918C396.106 224.321 391.489 231.012 385.672 236.586C379.855 242.16 372.959 246.5 365.402 249.343C357.844 252.186 349.784 253.473 341.711 253.125C333.637 252.777 325.719 250.801 318.436 247.318C312.342 244.403 306.799 240.483 302.04 235.734C300.499 234.196 298.021 234.013 296.379 235.436Z" fill="#FFCA62"/>
</g>
<defs>
<linearGradient id="paint0_linear_330_17383" x1="339.236" y1="76.0203" x2="367.087" y2="76.0203" gradientUnits="userSpaceOnUse">
<stop offset="0.00169477" stop-color="#67748D"/>
<stop offset="0.9976" stop-color="#8695AF"/>
</linearGradient>
<linearGradient id="paint1_linear_330_17383" x1="340.294" y1="72.9845" x2="366.03" y2="72.9845" gradientUnits="userSpaceOnUse">
<stop stop-color="#8A98B1"/>
<stop offset="1" stop-color="#546076"/>
</linearGradient>
<linearGradient id="paint2_linear_330_17383" x1="340.294" y1="67.6347" x2="366.03" y2="67.6347" gradientUnits="userSpaceOnUse">
<stop stop-color="#8A98B1"/>
<stop offset="1" stop-color="#546076"/>
</linearGradient>
<linearGradient id="paint3_linear_330_17383" x1="353.153" y1="-6.68066" x2="353.153" y2="66.6406" gradientUnits="userSpaceOnUse">
<stop stop-color="#EEFFFD"/>
<stop offset="1" stop-color="#E7FAFF" stop-opacity="0"/>
</linearGradient>
<linearGradient id="paint4_linear_330_17383" x1="353.221" y1="43.2503" x2="353.221" y2="66.7024" gradientUnits="userSpaceOnUse">
<stop stop-color="#61E8C8" stop-opacity="0"/>
<stop offset="1" stop-color="#8EF5B1"/>
</linearGradient>
<linearGradient id="paint5_linear_330_17383" x1="378.399" y1="40.0306" x2="364.83" y2="5.73977" gradientUnits="userSpaceOnUse">
<stop offset="0.016059" stop-color="white"/>
<stop offset="1" stop-color="white" stop-opacity="0"/>
</linearGradient>
<linearGradient id="paint6_linear_330_17383" x1="350.331" y1="-6.88838" x2="329.617" y2="17.0252" gradientUnits="userSpaceOnUse">
<stop stop-color="white" stop-opacity="0"/>
<stop offset="0.9839" stop-color="white"/>
</linearGradient>
<linearGradient id="paint7_linear_330_17383" x1="102.982" y1="325.03" x2="47.9752" y2="317.725" gradientUnits="userSpaceOnUse">
<stop stop-color="#8379BD"/>
<stop offset="1" stop-color="#485776"/>
</linearGradient>
<linearGradient id="paint8_linear_330_17383" x1="74.9512" y1="267.556" x2="116.209" y2="314.307" gradientUnits="userSpaceOnUse">
<stop stop-color="#C8D1E4"/>
<stop offset="1" stop-color="#8198C7"/>
</linearGradient>
<linearGradient id="paint9_linear_330_17383" x1="75.0804" y1="266.94" x2="91.0834" y2="282.673" gradientUnits="userSpaceOnUse">
<stop stop-color="white"/>
<stop offset="1" stop-color="#BCC7DF" stop-opacity="0"/>
</linearGradient>
<linearGradient id="paint10_linear_330_17383" x1="74.9309" y1="250.087" x2="73.8369" y2="323.122" gradientUnits="userSpaceOnUse">
<stop stop-color="#A9B8D5"/>
<stop offset="1" stop-color="#6683BD"/>
</linearGradient>
<linearGradient id="paint11_linear_330_17383" x1="74.9309" y1="250.088" x2="73.837" y2="323.123" gradientUnits="userSpaceOnUse">
<stop stop-color="#E3C6C6" stop-opacity="0"/>
<stop offset="1" stop-color="#B97EDE"/>
</linearGradient>
<linearGradient id="paint12_linear_330_17383" x1="85.8559" y1="272.34" x2="113.482" y2="310.898" gradientUnits="userSpaceOnUse">
<stop stop-color="#E6ECF9"/>
<stop offset="1" stop-color="#ADBEE0"/>
</linearGradient>
<linearGradient id="paint13_linear_330_17383" x1="114.965" y1="264.899" x2="84.0642" y2="315.995" gradientUnits="userSpaceOnUse">
<stop stop-color="white"/>
<stop offset="1" stop-color="white" stop-opacity="0"/>
</linearGradient>
<linearGradient id="paint14_linear_330_17383" x1="97.5904" y1="263.694" x2="96.7942" y2="317.205" gradientUnits="userSpaceOnUse">
<stop stop-color="#A1B2D4"/>
<stop offset="1" stop-color="#7D7CBE"/>
</linearGradient>
<linearGradient id="paint15_linear_330_17383" x1="91.9589" y1="287.997" x2="110.526" y2="292.582" gradientUnits="userSpaceOnUse">
<stop stop-color="#939DCB"/>
<stop offset="1" stop-color="#A1B1D4"/>
</linearGradient>
<linearGradient id="paint16_linear_330_17383" x1="97.9502" y1="283.418" x2="109.244" y2="298.768" gradientUnits="userSpaceOnUse">
<stop stop-color="#D5DFF1"/>
<stop offset="1" stop-color="#F3F7FF"/>
</linearGradient>
<linearGradient id="paint17_linear_330_17383" x1="98.2804" y1="284.089" x2="103.642" y2="291.013" gradientUnits="userSpaceOnUse">
<stop stop-color="white"/>
<stop offset="1" stop-color="white" stop-opacity="0"/>
</linearGradient>
<clipPath id="clip0_330_17383">
<rect width="432" height="284" rx="12" fill="white"/>
</clipPath>
<clipPath id="clip1_330_17383">
<rect width="464" height="311" fill="white" transform="translate(448 295) rotate(-180)"/>
</clipPath>
</defs>
</svg>
