<svg width="428" height="192" viewBox="0 0 428 192" fill="none" xmlns="http://www.w3.org/2000/svg">
    <path d="M0 12C0 5.37258 5.37258 0 12 0H416C422.627 0 428 5.37258 428 12V180C428 186.627 422.627 192 416 192H12C5.37258 192 0 186.627 0 180V12Z" fill="#F0F5FE"/>
    <path d="M339.771 138.45C338.598 139.723 338.671 141.718 340.047 142.768C343.553 145.44 347.561 147.398 351.844 148.518C357.14 149.903 362.695 149.964 368.02 148.696C373.345 147.429 378.277 144.871 382.381 141.248C385.7 138.317 388.396 134.763 390.322 130.798C391.078 129.241 390.244 127.427 388.623 126.819V126.819C387.002 126.211 385.21 127.044 384.42 128.585C382.877 131.593 380.781 134.295 378.233 136.544C374.899 139.487 370.893 141.565 366.568 142.595C362.242 143.625 357.73 143.575 353.428 142.45C350.14 141.59 347.052 140.123 344.319 138.132C342.919 137.113 340.944 137.176 339.771 138.45V138.45Z" fill="#FF8576"/>
    <path d="M374.42 225.479C368.012 228.631 360.455 224.361 359.897 217.247C357.668 188.872 357.686 168.112 359.923 139.116C360.473 131.986 368.044 127.692 374.463 130.857C400.537 143.712 418.555 154.029 442.116 169.819C448.067 173.808 448.078 182.514 442.137 186.516C419.126 202.015 401.107 212.356 374.42 225.479Z" fill="#108CFF"/>
    <path d="M55.8642 112C16.1764 112 -15.9999 144.173 -15.9999 183.861V183.861C-15.9999 223.549 16.1764 255.722 55.8642 255.722V255.722C95.552 255.722 127.728 223.549 127.728 183.861V183.861C127.728 144.173 95.552 112 55.8642 112V112Z" fill="#666AF6"/>
    <path d="M30.1829 112.929C42.584 125.33 42.4109 145.609 30.0097 158.01V158.01C17.6086 170.411 -2.67079 170.585 -15.0719 158.183V158.183C-27.4731 145.782 -27.2999 125.503 -14.8988 113.102V113.102C-2.49762 100.701 17.7818 100.527 30.1829 112.929V112.929Z" fill="#FF8576"/>
    <path d="M312.379 156.31C310.726 157.742 310.55 160.256 312.09 161.816C317.558 167.35 323.955 171.909 331.005 175.281C339.254 179.226 348.224 181.464 357.369 181.858C366.514 182.253 375.644 180.795 384.205 177.575C392.765 174.354 400.577 169.438 407.166 163.124C413.755 156.81 418.984 149.231 422.535 140.846C426.086 132.461 427.886 123.446 427.823 114.348C427.761 105.25 425.839 96.2595 422.174 87.9217C419.036 80.7832 414.676 74.2509 409.298 68.6112C407.797 67.037 405.298 67.1206 403.808 68.6984V68.6984C402.307 70.2881 402.4 72.7888 403.899 74.3875C408.489 79.2824 412.219 84.9215 414.921 91.0701C418.157 98.4308 419.854 106.368 419.909 114.4C419.963 122.432 418.375 130.39 415.24 137.792C412.105 145.195 407.489 151.886 401.672 157.46C395.855 163.034 388.958 167.374 381.401 170.217C373.844 173.06 365.784 174.347 357.71 173.999C349.637 173.651 341.718 171.675 334.436 168.192C328.342 165.277 322.799 161.357 318.039 156.608C316.498 155.07 314.02 154.887 312.379 156.31V156.31Z" fill="#FFCA62"/>
</svg>
