<svg width="432" height="265" viewBox="0 0 432 265" fill="none" xmlns="http://www.w3.org/2000/svg">
<rect width="432" height="265" rx="12" fill="url(#paint0_linear_330_16666)"/>
<path d="M310.316 76.5433C310.316 42.5821 284.878 15 253.489 15H186.827C155.439 15 130 42.5821 130 76.5433V198.172C130 232.194 155.439 259.715 186.827 259.715H253.489C284.878 259.715 310.316 232.133 310.316 198.172V76.5433Z" fill="url(#paint1_linear_330_16666)"/>
<path d="M172.897 189.641C161.688 192.347 158.352 209.68 167.238 212.392C186.005 217.172 197.601 215.466 216.197 209.542C227.312 205.751 220.129 194.929 210.661 191.117C197.823 186.634 184.107 186.936 172.897 189.641Z" fill="#FFF2DB"/>
<path d="M271.496 183.639C280.001 184.179 282.995 199.159 274.148 201.858L231.685 209.757C226.827 210.666 232.808 193.635 237.546 190.602C250.328 186.14 258.849 183.648 271.496 183.639Z" fill="#FFF2DB"/>
<path d="M204.069 125.214C198.275 121.373 192.534 116.216 192.534 108.211C192.722 104.755 193.724 97.8017 197.698 92.4363C205.895 81.3675 222.229 78.2395 234.513 87.0319C239.197 90.385 241.659 94.744 243.229 99.103C245.426 105.205 246.568 118.534 236.551 123.696C233.738 125.348 231.087 128.516 233.515 130.68C235.944 132.843 240.263 133.246 241.472 138.117C242.048 140.44 243.824 144.12 245.926 148.478C252.131 161.34 258.909 190.863 248.39 198.083C236.935 207.495 214.694 209.302 197.698 199.759C182.907 191.454 189.857 160.137 196.597 147.109C198.564 143.305 200.2 140.144 200.774 138.117C201.543 135.392 202.5 134.396 206.273 132.898C206.339 132.85 206.413 132.8 206.498 132.75C206.498 132.75 206.649 132.737 207.105 132.447C210.816 130.083 206.498 126.823 204.069 125.214Z" fill="url(#paint2_linear_330_16666)"/>
<path d="M237.698 106.932C235.895 115.285 228.646 120.487 216.616 119.272C202.548 117.601 200.197 107.539 201.255 101.312C202.274 95.3511 208.974 87.8711 218.536 87.8711C228.097 87.8711 240.362 94.7436 237.698 106.932Z" fill="url(#paint3_linear_330_16666)"/>
<path d="M213.429 98.9508C212.024 101.073 210.695 100.824 208.772 99.8448C208.482 99.6997 208.201 100.072 208.373 100.38C209.951 103.291 213.71 102.561 214.001 99.1866C214.028 98.8238 213.629 98.6605 213.429 98.9508Z" fill="#FEDFA4"/>
<path d="M264.071 185.697C255.197 188.624 233.354 204.389 213.332 210.586C211.447 211.229 210.447 211.523 206.418 218.753C201.954 227.209 201.245 232.16 204.076 235.346C206.907 238.533 210.656 235.193 214.361 231.23C218.586 226.709 219.961 226.471 223.16 225.185C230.961 221.838 261.788 218.157 273.899 207.049C286.01 195.94 276.499 181.598 264.071 185.697Z" fill="#FFF2DB"/>
<path d="M231.153 96.8796C230.432 99.4606 228.928 99.0309 227.514 98.0034C227.301 97.8516 227.151 98.306 227.302 98.657C228.738 101.473 232.268 99.9862 231.567 97.1201C231.545 96.6924 231.25 96.5268 231.153 96.8796Z" fill="#FEDFA4"/>
<path d="M204.373 133.717C190.47 137.437 180.586 157.73 174.624 168.937C170.107 162.377 167.128 159.58 164.04 156.984C163.025 154.652 160.819 152.563 159.788 152.063C159.193 151.775 158.403 151.564 157.568 151.341C156.068 150.94 154.425 150.501 153.516 149.507C151.564 147.392 150.31 149.419 150.975 150.714C151.469 151.711 152.567 152.212 153.458 152.619C154.069 152.898 154.583 153.133 154.736 153.452C155.113 154.237 154.655 155.016 153.117 154.938C151.712 154.871 149.727 153.7 148.71 152.986C149.504 152.537 150.689 151.521 150.655 149.911C150.642 148.789 149.198 148.068 148.344 149.448C147.62 150.617 146.885 151.215 145.893 152.022C145.713 152.168 145.526 152.321 145.328 152.485C144.613 153.209 145.046 154.059 145.725 154.767C143.271 154.432 140.331 154.167 138.991 154.566C137.094 155.129 136.742 156.848 138.692 156.887C141.121 156.957 145.704 157.404 147.504 157.683C147.501 157.724 147.497 157.766 147.494 157.809C144.865 157.493 140.928 157.146 139.34 157.69C137.467 158.331 136.905 160.026 138.858 160.007C141.189 159.985 145.563 160.262 147.493 160.466C147.501 160.536 147.509 160.606 147.518 160.676C145.508 160.436 143.065 160.247 142.062 160.565C140.621 161.022 140.168 162.642 141.637 162.662C143.642 162.687 148.145 163.09 149.184 163.276C149.198 163.278 149.211 163.28 149.224 163.282C149.235 163.283 149.246 163.285 149.257 163.286C150.39 163.449 151.427 163.635 152.38 163.805C154.179 164.125 156.299 164.21 158.261 163.97C160.144 170.733 165.308 187.432 171.435 191.627C173.915 193.048 178.452 190.542 180.383 186.477C188.236 175.612 191.949 165.158 193.445 162.662C198.465 152.384 204.373 133.717 204.373 133.717Z" fill="#FFFBF5"/>
<path d="M235.138 132.503C253.352 136.753 257.544 154.73 264.135 167.379L264.135 167.38C264.838 168.728 265.506 170.011 266.141 171.205C270.658 164.646 274.508 159.58 277.596 156.984C278.611 154.652 280.817 152.563 281.848 152.063C282.443 151.775 283.233 151.564 284.068 151.341C285.568 150.94 287.211 150.501 288.12 149.507C290.072 147.392 291.326 149.419 290.661 150.714C290.167 151.711 289.069 152.212 288.178 152.619C287.567 152.898 287.053 153.133 286.9 153.452C286.524 154.237 286.981 155.016 288.519 154.938C289.924 154.871 291.909 153.7 292.926 152.986C292.132 152.536 290.947 151.521 290.982 149.911C290.994 148.789 292.438 148.068 293.292 149.448C294.016 150.617 294.752 151.215 295.743 152.022C295.923 152.168 296.11 152.321 296.308 152.485C297.023 153.209 296.591 154.059 295.912 154.767C298.365 154.432 301.305 154.167 302.645 154.566C304.542 155.129 304.894 156.848 302.945 156.887C300.515 156.957 295.932 157.404 294.132 157.683C294.135 157.724 294.139 157.766 294.142 157.809C296.771 157.493 300.708 157.146 302.296 157.69C304.169 158.33 304.731 160.026 302.778 160.007C300.447 159.985 296.073 160.262 294.143 160.466C294.136 160.536 294.127 160.606 294.118 160.676C296.128 160.436 298.571 160.247 299.574 160.565C301.015 161.022 301.468 162.641 299.999 162.662C297.994 162.687 293.491 163.09 292.452 163.276C292.439 163.278 292.425 163.28 292.412 163.282C292.401 163.283 292.39 163.285 292.379 163.286C291.247 163.449 290.209 163.635 289.256 163.805C287.458 164.125 285.337 164.21 283.375 163.97C281.492 170.732 276.328 187.432 270.201 191.627C267.721 193.048 263.184 190.542 261.253 186.477C253.4 175.612 235.885 146.57 234.388 144.074C229.368 133.795 229.463 129.231 235.138 132.503Z" fill="#FFFBF3"/>
<path d="M173.892 191.749C182.914 193.135 206.708 200.506 226.671 206.713C232.224 208.436 234.596 209.306 236.333 213.234C238.07 217.162 239.915 227.595 239.047 231.891C238.179 236.187 234.382 238.561 230.688 234.591C226.997 229.927 226.128 222.931 221.243 221.949C216.358 220.967 176.748 222.358 164.828 211.947C156.713 204.857 161.518 190.638 173.892 191.749Z" fill="url(#paint4_linear_330_16666)"/>
<path d="M277.687 108.07C282.991 109.075 288.032 105.702 288.931 100.476C289.83 95.2504 286.264 90.2245 280.933 89.2578C275.629 88.2525 270.588 91.6253 269.69 96.8513C268.791 102.077 272.383 107.064 277.687 108.07Z" fill="#FCCC34"/>
<path d="M278.231 105.124C281.554 105.789 285.446 103.289 285.982 99.6877C286.543 96.1359 283.601 92.8698 280.278 92.2055C276.954 91.5413 273.023 94.0575 272.462 97.6093C271.875 101.202 274.907 104.46 278.231 105.124Z" fill="#FFE592"/>
<path d="M163.787 108.133C158.483 109.139 153.442 105.766 152.544 100.54C151.645 95.3139 155.21 90.288 160.541 89.3213C165.845 88.3159 170.886 91.6887 171.785 96.9148C172.684 102.141 169.092 107.128 163.787 108.133Z" fill="#FCCC34"/>
<path d="M163.243 105.187C159.919 105.851 156.028 103.352 155.492 99.7502C154.93 96.1984 157.872 92.9323 161.196 92.268C164.52 91.6038 168.451 94.12 169.012 97.6718C169.599 101.265 166.567 104.523 163.243 105.187Z" fill="#FFE592"/>
<path d="M217.908 58.401L220.692 58.3423C221.739 58.3423 222.65 54.5271 222.852 49.7428C223.089 44.2291 222.292 39.1293 221.056 38.1949C220.898 38.0745 220.741 38.0762 220.562 38.0762L217.86 38.1159C218.022 38.1159 218.098 38.1536 218.275 38.2634C219.511 39.1977 220.305 44.4551 220.068 49.9688C219.866 54.7532 218.952 58.1548 217.908 58.401Z" fill="#EDAC31"/>
<path d="M215.764 46.5489C215.512 52.0725 216.359 57.3216 217.671 58.2576C218.983 59.1936 220.245 55.4808 220.488 49.9294C220.741 44.4058 219.894 39.1567 218.581 38.2207C217.269 37.2847 216.017 41.0254 215.764 46.5489Z" fill="#FCCC34"/>
<path d="M216.985 47.3095C216.877 50.736 217.284 54.7475 217.871 55.3006C218.449 55.879 218.981 52.8463 219.089 49.4199C219.198 45.9934 218.788 41.941 218.209 41.3627C217.624 40.7576 217.093 43.8831 216.985 47.3095Z" fill="#FFE592"/>
<path d="M254.497 70.2448L255.925 71.5858C257.612 73.2735 261.909 71.912 265.781 68.6885C270.252 64.9825 272.749 59.9149 271.45 57.2304C271.285 56.8862 271.031 56.6352 270.744 56.3474L269.462 55.1242C269.722 55.384 269.817 55.5357 270.02 55.9016C271.319 58.5861 268.7 63.7655 264.229 67.4716C260.357 70.695 256.362 71.7455 254.497 70.2448Z" fill="#EDAC31"/>
<path d="M259.603 57.7963C255.132 61.5024 252.532 66.6737 253.83 69.3582C255.129 72.0427 259.792 71.2094 264.269 67.4679C268.741 63.7619 271.341 58.5906 270.042 55.9061C268.744 53.2216 264.075 54.0903 259.603 57.7963Z" fill="#FCCC34"/>
<path d="M260.386 59.553C257.586 61.8904 255.45 65.768 256.289 67.437C257.092 69.1075 260.503 67.9715 263.302 65.6342C266.102 63.2969 268.263 59.3827 267.46 57.7121C266.662 56.0072 263.185 57.2157 260.386 59.553Z" fill="#FFE592"/>
<path d="M186.977 70.2448L185.549 71.5858C183.862 73.2735 179.565 71.912 175.693 68.6885C171.221 64.9825 168.725 59.9149 170.023 57.2304C170.189 56.8862 170.442 56.6352 170.73 56.3474L172.012 55.1242C171.752 55.384 171.656 55.5357 171.453 55.9016C170.155 58.5861 172.773 63.7655 177.245 67.4716C181.117 70.695 185.111 71.7455 186.977 70.2448Z" fill="#EDAC31"/>
<path d="M181.868 57.7973C186.34 61.5033 188.94 66.6747 187.641 69.3592C186.343 72.0437 181.68 71.2103 177.203 67.4689C172.731 63.7629 170.131 58.5916 171.429 55.9071C172.728 53.2226 177.397 54.0913 181.868 57.7973Z" fill="#FCCC34"/>
<path d="M181.085 59.5569C183.885 61.8943 186.021 65.7719 185.182 67.4409C184.378 69.1115 180.968 67.9754 178.168 65.6381C175.369 63.3008 173.208 59.3866 174.011 57.716C174.809 56.0111 178.286 57.2196 181.085 59.5569Z" fill="#FFE592"/>
<defs>
<linearGradient id="paint0_linear_330_16666" x1="216" y1="0" x2="216" y2="264.934" gradientUnits="userSpaceOnUse">
<stop stop-color="#FFF7B1"/>
<stop offset="1" stop-color="#FFE485"/>
</linearGradient>
<linearGradient id="paint1_linear_330_16666" x1="220.158" y1="15" x2="220.158" y2="259.654" gradientUnits="userSpaceOnUse">
<stop stop-color="#FFF7B1"/>
<stop offset="1" stop-color="#FFE485"/>
</linearGradient>
<linearGradient id="paint2_linear_330_16666" x1="221.395" y1="82.4552" x2="221.395" y2="205.04" gradientUnits="userSpaceOnUse">
<stop stop-color="white"/>
<stop offset="1" stop-color="#FFF2DA"/>
</linearGradient>
<linearGradient id="paint3_linear_330_16666" x1="231.985" y1="92.0592" x2="207.852" y2="116.966" gradientUnits="userSpaceOnUse">
<stop stop-color="#FF971E"/>
<stop offset="1" stop-color="#E36219"/>
</linearGradient>
<linearGradient id="paint4_linear_330_16666" x1="172.803" y1="191.707" x2="233.519" y2="219.328" gradientUnits="userSpaceOnUse">
<stop stop-color="#FFF2DB"/>
<stop offset="1" stop-color="white"/>
</linearGradient>
</defs>
</svg>
