<svg width="357" height="120" viewBox="0 0 357 120" fill="none" xmlns="http://www.w3.org/2000/svg">
<g clip-path="url(#clip0_330:12225)">
<path d="M72.5186 -7.03184C62.4909 -8.9347 52.9616 -2.55116 51.2624 7.33989C49.5632 17.2309 56.3035 26.7433 66.3817 28.5728C76.4093 30.4757 85.9386 24.0921 87.6378 14.2011C89.3371 4.31004 82.5462 -5.12898 72.5186 -7.03184Z" fill="#FCCC34"/>
<path d="M71.4893 -1.45546C65.2058 -2.71261 57.8495 2.01735 56.8352 8.83408C55.7745 15.5565 61.3359 21.7382 67.6193 22.9953C73.9027 24.2525 81.334 19.4903 82.3947 12.7678C83.5043 5.96753 77.7727 -0.198309 71.4893 -1.45546Z" fill="#FFE592"/>
<path d="M285.214 -6.66465C295.241 -8.56751 304.771 -2.18397 306.47 7.70708C308.169 17.5981 301.429 27.1105 291.351 28.94C281.323 30.8429 271.794 24.4593 270.095 14.5683C268.395 4.67723 275.186 -4.7618 285.214 -6.66465Z" fill="#FCCC34"/>
<path d="M286.243 -1.08925C292.527 -2.3464 299.883 2.38356 300.897 9.2003C301.958 15.9227 296.397 22.1044 290.113 23.3615C283.83 24.6187 276.398 19.8565 275.338 13.134C274.228 6.33374 279.96 0.167903 286.243 -1.08925Z" fill="#FFE592"/>
<path d="M162.03 97.2031L162.151 102.472C162.151 104.454 169.98 106.178 179.798 106.56C191.113 107.01 201.579 105.5 203.497 103.161C203.744 102.862 203.74 102.565 203.74 102.227L203.659 97.1133C203.659 97.4184 203.581 97.5637 203.356 97.8979C201.439 100.237 190.65 101.741 179.334 101.291C169.516 100.909 162.535 99.1801 162.03 97.2031Z" fill="#EDAC31"/>
<path d="M186.354 93.1477C175.018 92.6699 164.246 94.2728 162.325 96.7566C160.405 99.2404 168.024 101.629 179.416 102.088C190.752 102.566 201.524 100.963 203.445 98.4795C205.366 95.9958 197.689 93.6255 186.354 93.1477Z" fill="#FCCC34"/>
<path d="M184.791 95.4588C177.76 95.254 169.527 96.0245 168.392 97.1348C167.205 98.2298 173.429 99.2367 180.461 99.4414C187.492 99.6462 195.808 98.8705 196.995 97.7755C198.237 96.6679 191.823 95.6636 184.791 95.4588Z" fill="#FFE592"/>
<path d="M327.515 55.4813L330.051 58.1836C333.241 61.3769 330.668 69.5091 324.575 76.8385C317.57 85.3022 307.99 90.0279 302.915 87.5709C302.264 87.2578 301.789 86.7781 301.245 86.2335L298.933 83.8075C299.424 84.2991 299.711 84.4802 300.402 84.8645C305.478 87.3215 315.269 82.365 322.274 73.9014C328.367 66.5719 330.353 59.0118 327.515 55.4813Z" fill="#EDAC31"/>
<path d="M303.983 65.1521C310.989 56.6884 320.764 51.7663 325.84 54.2233C330.915 56.6803 329.34 65.5061 322.268 73.9809C315.263 82.4446 305.487 87.3667 300.412 84.9097C295.336 82.4527 296.978 73.6158 303.983 65.1521Z" fill="#FCCC34"/>
<path d="M307.312 66.6339C311.73 61.3351 319.06 57.2907 322.216 58.8793C325.374 60.3993 323.227 66.8541 318.809 72.153C314.39 77.4518 306.991 81.543 303.833 80.023C300.61 78.5137 302.894 71.9328 307.312 66.6339Z" fill="#FFE592"/>
<path d="M31.3245 55.4832L28.7891 58.1856C25.5983 61.3789 28.1716 69.511 34.2648 76.8405C41.2703 85.3041 50.8499 90.0299 55.9251 87.5729C56.5759 87.2597 57.0504 86.7801 57.5946 86.2354L59.9072 83.8095C59.416 84.301 59.1292 84.4822 58.4374 84.8664C53.3621 87.3234 43.5711 82.367 36.5657 73.9033C30.4724 66.5739 28.4873 59.0137 31.3245 55.4832Z" fill="#EDAC31"/>
<path d="M54.8585 65.1521C47.8531 56.6884 38.0773 51.7663 33.0021 54.2233C27.9269 56.6803 29.5015 65.5061 36.5738 73.9809C43.5792 82.4446 53.355 87.3667 58.4302 84.9097C63.5054 82.4527 61.864 73.6158 54.8585 65.1521Z" fill="#FCCC34"/>
<path d="M51.5339 66.632C47.1157 61.3331 39.7855 57.2887 36.6301 58.8774C33.4718 60.3974 35.6189 66.8522 40.0371 72.151C44.4553 77.4499 51.8546 81.541 55.0129 80.021C58.2361 78.5118 55.9521 71.9308 51.5339 66.632Z" fill="#FFE592"/>
</g>
<defs>
<clipPath id="clip0_330:12225">
<rect width="357" height="120" fill="white"/>
</clipPath>
</defs>
</svg>
