<svg width="760" height="600" viewBox="0 0 760 600" fill="none" xmlns="http://www.w3.org/2000/svg">
<path d="M546.095 388.798C539.589 377.565 523.278 377.565 516.772 388.705L494.615 426.338C488.298 437.01 495.37 450.584 507.815 451.614L554.203 455.639C567.875 456.856 577.209 442.252 570.42 430.457L546.095 388.798Z" fill="#FF9176"/>
<path d="M576.252 406.722C578.238 405.632 578.933 403.054 577.742 401.071L567.514 383.424C566.422 381.441 563.841 380.747 561.855 381.937C559.869 383.027 559.174 385.605 560.365 387.588L570.592 405.235C571.685 407.218 574.266 407.813 576.252 406.722Z" fill="url(#paint0_linear_1_66)"/>
<path d="M543 175.432C543 119.912 501.396 75 450.062 75H341.038C289.703 75 248 119.912 248 175.432V373.917C248 429.437 289.604 474.349 340.938 474.349H449.962C501.297 474.349 542.901 429.338 542.901 373.917V175.432H543Z" fill="#628AF1"/>
<path d="M248.496 223.715C266.867 223.715 281.759 208.845 281.759 190.502C281.759 172.159 266.867 157.289 248.496 157.289C230.125 157.289 215.233 172.159 215.233 190.502C215.233 208.845 230.125 223.715 248.496 223.715Z" fill="#37E5D7"/>
<path d="M248.497 211.818C260.287 211.818 269.845 202.275 269.845 190.502C269.845 178.73 260.287 169.186 248.497 169.186C236.707 169.186 227.149 178.73 227.149 190.502C227.149 202.275 236.707 211.818 248.497 211.818Z" fill="#1DD5C6"/>
<path d="M438.917 294.113C437.215 292.279 438.354 289.144 440.848 288.945C448.644 288.321 456.35 287.463 463.96 286.363C472.465 285.163 479.021 278.466 479.945 270.306C483.944 235.901 484.376 201.25 481.408 166.542C480.764 157.738 473.553 150.625 464.649 149.831C423.531 145.915 379.646 145.741 333.779 148.291C324.599 148.907 317.126 155.899 316.152 164.77C312.714 198.856 312.306 233.152 314.942 267.479C315.611 275.927 322.299 282.825 330.809 284.129C340.117 285.521 349.347 286.688 358.493 287.615C360.987 287.868 362.042 291.039 360.283 292.825C354.142 299.062 348.126 306.886 342.326 316.375C305.754 376.866 309.561 407.626 309.561 468.103C325.448 474.828 344.429 475.411 373.17 474.828C379.922 474.691 387.001 474.548 394.455 474.548C400.925 474.548 407.306 474.637 413.544 474.725C443.201 475.143 469.656 475.515 487.295 465.977C487.295 418.036 483.129 364.994 455.024 316.375C449.999 307.682 444.597 300.234 438.917 294.113Z" fill="url(#paint1_linear_1_66)"/>
<path d="M403.097 276.233C438.578 273.453 464.957 247.875 461.985 219.147C459.013 190.418 427.99 169.474 392.509 172.44C357.027 175.22 330.649 200.798 333.621 229.526C336.593 258.254 367.616 279.198 403.097 276.233Z" fill="#CAD9FF"/>
<path d="M461.341 216.35C458.183 188.178 426.974 167.975 391.678 171.497C356.383 175.018 330.376 200.596 333.534 228.954C336.692 257.126 367.9 277.329 403.196 273.807C438.491 270.285 464.499 244.523 461.341 216.35Z" fill="url(#paint2_linear_1_66)"/>
<path d="M432.797 230.788C429.258 229.763 427.203 226.118 428.23 222.587C429.258 219.055 432.911 217.005 436.45 218.03C439.989 219.055 442.044 222.701 441.017 226.232C439.875 229.763 436.222 231.813 432.797 230.788Z" fill="#9198BF"/>
<path d="M428.229 223.383C428.571 220.079 431.54 217.687 434.965 218.029C438.276 218.371 440.673 221.332 440.331 224.75C439.988 228.053 437.02 230.445 433.595 230.103C430.284 229.648 427.886 226.686 428.229 223.383Z" fill="#3B4965"/>
<path d="M429.941 223.155C429.37 222.244 430.055 220.649 431.425 219.852C432.795 218.941 434.508 219.054 435.079 219.966C435.65 220.877 434.965 222.472 433.595 223.269C432.11 224.18 430.512 224.066 429.941 223.155Z" fill="#40578C"/>
<path d="M431.084 221.675C430.856 221.333 431.084 220.764 431.655 220.422C432.226 220.08 432.797 220.08 433.025 220.422C433.253 220.764 433.025 221.333 432.454 221.675C431.997 222.017 431.312 222.017 431.084 221.675Z" fill="#9FB1D5"/>
<path d="M434.051 224.181C435.193 223.497 436.22 222.358 436.563 221.333C436.791 220.763 437.476 220.422 437.933 220.763C438.732 221.789 439.303 223.042 439.075 224.522C438.732 227.142 436.449 228.965 433.823 228.737C431.996 228.509 430.626 227.484 429.941 226.003C429.713 225.434 430.17 225.092 430.74 224.978C431.768 225.092 432.91 224.75 434.051 224.181Z" fill="#2B3956"/>
<path d="M360.066 230.788C356.527 229.763 354.472 226.118 355.5 222.587C356.527 219.055 360.18 217.005 363.72 218.03C367.259 219.055 369.314 222.701 368.286 226.232C367.145 229.763 363.491 231.813 360.066 230.788Z" fill="#9198BF"/>
<path d="M355.499 223.383C355.842 220.079 358.81 217.687 362.235 218.029C365.546 218.371 367.943 221.332 367.601 224.75C367.258 228.053 364.29 230.445 360.865 230.103C357.554 229.648 355.157 226.686 355.499 223.383Z" fill="#3B4965"/>
<path d="M357.211 223.155C356.641 222.244 357.326 220.649 358.696 219.852C360.066 218.941 361.778 219.054 362.349 219.966C362.92 220.877 362.235 222.472 360.865 223.269C359.381 224.18 357.782 224.066 357.211 223.155Z" fill="#40578C"/>
<path d="M358.354 221.675C358.126 221.333 358.354 220.764 358.925 220.422C359.496 220.08 360.067 220.08 360.295 220.422C360.523 220.764 360.295 221.333 359.724 221.675C359.268 222.017 358.583 222.017 358.354 221.675Z" fill="#9FB1D5"/>
<path d="M361.323 224.181C362.464 223.497 363.492 222.358 363.834 221.333C364.063 220.763 364.748 220.422 365.204 220.763C366.003 221.789 366.574 223.042 366.346 224.522C366.003 227.142 363.72 228.965 361.094 228.737C359.268 228.509 357.898 227.484 357.213 226.003C356.984 225.434 357.441 225.092 358.012 224.978C359.039 225.092 360.181 224.75 361.323 224.181Z" fill="#2B3956"/>
<path d="M455.791 304.61C450.556 304.141 446.594 303.787 443.11 298.568C445.214 302.769 447.965 307.648 450.964 312.966C459.998 328.984 471.281 348.99 473.89 366.482C473.308 365.979 472.379 365.134 471.159 364.024C462.457 356.107 438.914 334.688 420.382 327.437C418.167 323.647 414.863 322.108 412.211 320.872C410.023 319.853 408.278 319.04 407.955 317.34C407.048 312.574 399.23 318.124 403.8 323.793C404.304 324.419 404.83 325.004 405.362 325.549C404.676 325.75 404.019 326.009 403.392 326.329C384.031 330.294 380.556 349.131 403.391 343.183C410.527 346.393 420.941 357.778 432.261 370.153C444.047 383.037 456.813 396.992 467.88 403.912C491.266 418.532 509.255 408.617 506.656 379.37C505.795 369.675 499.425 331.602 483.82 317.406C471.279 305.996 462.492 305.209 455.791 304.61Z" fill="url(#paint3_linear_1_66)"/>
<path d="M353.747 300.056C348.782 305.508 332.895 301.543 316.016 315.918C299.136 330.294 292.8 369.675 291.939 379.37C289.34 408.617 307.329 418.532 330.715 403.912C352.413 390.346 383.369 382.947 397.933 376.396C410.344 370.813 410.344 366.482 397.932 359.541C379.309 350.05 330.913 361.117 324.706 366.482C328.181 343.183 345.307 316.91 353.747 300.056Z" fill="url(#paint4_linear_1_66)"/>
<path d="M385.56 377.653C383.319 374.61 376.679 378.487 370.131 373.815L375.251 367.641C376.206 367.687 381.375 367.799 386.492 370.246C392.889 373.306 388.362 381.457 385.56 377.653Z" fill="url(#paint5_linear_1_66)"/>
<path d="M398.919 340.603L395.393 341.136C391.565 341.679 388.417 346.643 388.079 353.322C387.668 361.019 391.089 368.099 395.77 369.109C396.369 369.239 397.01 369.255 397.617 369.16L401.143 368.627C400.536 368.723 399.934 368.667 399.296 368.576C394.615 367.566 391.194 360.486 391.605 352.789C391.943 346.111 395.052 341.185 398.919 340.603Z" fill="#628AF1"/>
<path d="M408.42 356.48C408.83 348.782 405.41 341.703 400.728 340.693C396.047 339.683 391.941 345.094 391.567 352.828C391.157 360.526 394.577 367.605 399.259 368.615C403.94 369.625 408.009 364.178 408.42 356.48Z" fill="#B7C5FF"/>
<path d="M405.395 355.784C405.632 350.95 403.272 345.453 400.326 344.858C397.418 344.224 395.054 348.636 394.818 353.47C394.582 358.304 396.959 363.857 399.867 364.49C402.81 365.159 405.159 360.618 405.395 355.784Z" fill="#AABBFF"/>
<defs>
<linearGradient id="paint0_linear_1_66" x1="573.309" y1="390.979" x2="566.513" y2="396.349" gradientUnits="userSpaceOnUse">
<stop stop-color="#FFF384"/>
<stop offset="1" stop-color="#FFE485"/>
</linearGradient>
<linearGradient id="paint1_linear_1_66" x1="396.007" y1="146.523" x2="396.007" y2="475.023" gradientUnits="userSpaceOnUse">
<stop stop-color="white"/>
<stop offset="0.494792" stop-color="#E8EAF8"/>
<stop offset="0.671875" stop-color="#E3E5F7"/>
<stop offset="1" stop-color="#B1B7E9"/>
</linearGradient>
<linearGradient id="paint2_linear_1_66" x1="398.107" y1="171.169" x2="398.107" y2="274.278" gradientUnits="userSpaceOnUse">
<stop stop-color="#EAECFF"/>
<stop offset="1" stop-color="#BCC2F4"/>
</linearGradient>
<linearGradient id="paint3_linear_1_66" x1="491.762" y1="320.876" x2="388.001" y2="320.876" gradientUnits="userSpaceOnUse">
<stop stop-color="#E0E2F6"/>
<stop offset="1" stop-color="white"/>
</linearGradient>
<linearGradient id="paint4_linear_1_66" x1="306.833" y1="320.876" x2="410.594" y2="320.876" gradientUnits="userSpaceOnUse">
<stop stop-color="#E0E2F6"/>
<stop offset="0.26131" stop-color="#E6E8F8"/>
<stop offset="1" stop-color="white"/>
</linearGradient>
<linearGradient id="paint5_linear_1_66" x1="387.418" y1="379.421" x2="374.421" y2="368.642" gradientUnits="userSpaceOnUse">
<stop stop-color="white"/>
<stop offset="0.713542" stop-color="white"/>
<stop offset="1" stop-color="white" stop-opacity="0"/>
</linearGradient>
</defs>
</svg>
