<svg width="760" height="600" viewBox="0 0 760 600" fill="none" xmlns="http://www.w3.org/2000/svg">
<g clip-path="url(#clip0_3_124)">
<path d="M218.233 96.7529C199.351 128.835 227.267 168.067 264.523 161.611C295.384 156.347 311.22 122.279 294.978 96.0576C277.517 67.5517 235.186 67.949 218.233 96.7529Z" fill="url(#paint0_linear_3_124)"/>
<path d="M232.47 175.627C232.47 120.005 276.832 74.9121 331.65 74.9121H434.789C489.608 74.9121 533.97 120.005 533.97 175.627V374.572C533.97 430.194 489.608 475.287 434.789 475.287H331.65C276.832 475.287 232.47 430.194 232.47 374.572V175.627Z" fill="url(#paint1_linear_3_124)"/>
<path d="M438.545 475.187C491.287 475.187 533.97 433.302 533.97 381.584V327.786C533.97 327.786 530.306 326.368 528.474 325.895C514.011 322.397 508.322 320.884 502.826 317.669C497.427 314.455 491.834 307.08 491.834 299.61C491.834 299.61 491.642 286.279 491.352 278.526L393.583 282.592C393.583 282.592 394.065 303.298 393.101 309.633C392.137 315.967 388.473 323.815 376.71 325.8C364.946 327.786 344.795 331.284 341.034 358.514C338.238 378.842 337.852 462.329 337.852 475.187L438.545 475.187Z" fill="url(#paint2_linear_3_124)"/>
<path d="M493.28 262.188C493.28 249.091 494.933 212.363 478.898 193.761C461.795 173.736 441.096 169.18 419.425 172.028C393.964 175.444 364.325 196.608 360.924 223.751C357.911 247.762 367.24 271.394 392.507 285.25C392.701 293.127 393.09 300.625 392.507 307.838C390.66 324.826 411.748 327.768 421.66 323.402C431.572 318.942 435.751 311.065 440.513 306.414C445.275 301.764 453.923 301.005 456.936 306.414C459.948 311.824 465.876 324.446 479.19 322.738C487.936 321.789 493.183 315.62 493.183 304.991C493.28 294.361 493.475 278.132 493.28 262.188Z" fill="url(#paint3_linear_3_124)"/>
<path d="M443.224 282.654C435.742 287.506 417.996 296.354 392.864 285.032L393.247 313.289C393.247 313.289 423.847 309.103 444.471 283.891C445.047 283.225 443.992 282.083 443.224 282.654Z" fill="url(#paint4_linear_3_124)"/>
<path d="M465.013 240.453C460.456 261.225 441.934 274.138 411.292 271.144C375.413 267.027 369.401 241.95 372.116 226.511C374.734 211.728 391.898 193.107 416.14 193.107C440.48 193.107 471.801 210.137 465.013 240.453Z" fill="#F1852D"/>
<path d="M464.026 240.473C459.579 261.23 441.695 274.157 412.017 271.137C377.313 266.986 371.513 241.982 374.123 226.508C376.636 211.695 393.167 193.107 416.754 193.107C440.342 193.107 470.599 210.185 464.026 240.473Z" fill="url(#paint5_linear_3_124)"/>
<path opacity="0.5" d="M447.095 232.901C442.109 236.692 432.725 235.039 421.091 226.486C407.503 216.377 409.067 208.893 412.488 205.88C415.812 203.061 425.49 202.964 435.071 209.185C444.749 215.405 454.525 227.458 447.095 232.901Z" fill="#FD9724"/>
<path d="M425.722 229.731C426.591 232.471 425.046 235.305 422.246 236.155C419.446 237.006 416.452 235.494 415.583 232.849C414.714 230.203 416.259 227.274 419.059 226.424C421.86 225.574 424.853 226.991 425.722 229.731Z" fill="#F36B1C"/>
<path d="M416.287 230.045C415.801 232.704 417.743 235.269 420.462 235.744C423.279 236.219 425.804 234.319 426.289 231.659C426.775 229 424.832 226.435 422.113 225.96C419.394 225.485 416.772 227.29 416.287 230.045Z" fill="#FFE7AD"/>
<path d="M423.419 227.985C423.245 228.212 423.303 228.896 423.536 229.351C423.768 229.807 424.058 230.034 424.232 229.693C424.406 229.465 424.348 228.782 424.116 228.326C423.884 227.871 423.536 227.757 423.419 227.985Z" fill="white"/>
<path d="M423.98 232.437C424.259 232.437 424.444 232.74 424.259 233.042C423.422 234.351 422.027 235.056 420.446 234.754C418.4 234.351 416.913 232.236 417.284 230.02C417.47 228.61 418.307 227.502 419.423 226.897C419.702 226.797 419.888 227.099 419.888 227.401C419.795 228.408 420.26 229.718 421.19 230.826C422.12 231.732 423.143 232.337 423.98 232.437Z" fill="#FC9A4A" fill-opacity="0.15"/>
<path d="M384.78 230.771C385.456 233.511 384.49 236.251 382.655 237.007C380.724 237.762 378.599 236.156 377.924 233.416C377.248 230.677 378.213 227.937 380.048 227.181C381.883 226.425 384.007 228.031 384.78 230.771Z" fill="#F36B1C"/>
<path d="M378.669 230.796C378.473 233.463 379.946 236.129 381.812 236.7C383.776 237.271 385.544 235.557 385.74 232.891C385.936 230.225 384.463 227.559 382.597 226.987C380.633 226.416 378.866 228.13 378.669 230.796Z" fill="#FFE7AD"/>
<path d="M382.8 229.018C382.632 229.236 382.716 229.891 382.968 230.328C383.22 230.765 383.556 230.983 383.64 230.765C383.808 230.546 383.724 229.891 383.472 229.455C383.304 228.909 382.968 228.69 382.8 229.018Z" fill="white"/>
<path d="M384.331 233.556C384.621 233.658 384.814 233.965 384.717 234.169C384.137 235.395 383.17 236.11 382.107 235.701C380.56 235.191 379.496 233.045 379.689 230.798C379.786 229.469 380.269 228.448 380.946 227.937C381.14 227.733 381.43 228.039 381.43 228.346C381.43 229.367 381.817 230.695 382.493 231.819C383.074 232.636 383.75 233.249 384.331 233.556Z" fill="#FC9A4A" fill-opacity="0.15"/>
<path d="M311.651 306.337C302.14 306.337 294.394 298.758 294.394 289.452C294.394 280.146 302.14 272.567 311.651 272.567C321.163 272.567 328.909 280.146 328.909 289.452C328.909 298.758 321.163 306.337 311.651 306.337Z" fill="url(#paint6_radial_3_124)"/>
<path d="M318.963 167.392C318.114 166.63 317.077 166.154 315.945 166.059C311.607 165.868 300.574 165.392 297.744 165.297C297.273 165.297 296.707 165.678 296.424 166.249L309.721 179.202C309.91 178.631 310.475 178.25 311.041 178.25L330.562 178.916C330.751 178.916 330.845 179.012 330.939 179.107L318.963 167.392Z" fill="#FFD481"/>
<path d="M330.239 178.954L310.226 178.209C309.742 178.209 309.162 178.581 308.872 179.14L300.557 200.371C300.364 200.929 300.557 201.395 301.137 201.395L321.151 202.047C321.634 202.047 322.214 201.674 322.504 201.115L330.916 179.978C331.012 179.419 330.819 178.954 330.239 178.954Z" fill="url(#paint7_linear_3_124)"/>
<path d="M308.875 176.179L297.679 165.626C297.1 165.06 296.135 165.249 295.749 166.002L287.351 187.391C287.255 187.768 287.255 188.051 287.448 188.239L301.057 201.053C300.864 200.865 300.768 200.582 300.961 200.205L309.358 178.817C309.841 177.969 309.648 176.838 308.875 176.179Z" fill="#FFAE4E"/>
<path d="M281 219.679C280.612 219.118 280.223 219.025 279.834 218.932L272.061 258.517C272.935 258.703 274.393 258.797 275.559 258.237L298.102 248.527C299.462 247.967 299.851 246.38 299.074 245.259L281 219.679Z" fill="url(#paint8_linear_3_124)"/>
<path d="M280.182 218.95C279.495 218.856 279.201 219.137 278.612 219.605L256.636 237.962C255.655 238.712 255.557 240.117 256.341 241.053L269.88 257.444C270.371 258.006 271.45 258.474 272.333 258.661L280.182 218.95Z" fill="#FFAE4E"/>
<path d="M263.533 346.013C266.408 348.191 269.092 349.8 275.226 352.641C275.609 352.83 275.993 352.546 276.088 352.167C276.088 351.883 275.993 351.694 275.705 351.599C271.296 349.611 264.779 346.297 261.711 342.604C257.303 337.302 261.136 333.136 264.299 336.923C267.175 340.237 270.433 343.078 277.143 345.918C277.43 346.013 277.718 345.918 277.814 345.634C278.005 345.35 277.814 345.066 277.526 344.971C273.021 342.983 267.75 339.858 265.258 335.598C262.67 331.053 266.791 327.644 270.05 332.094C272.446 335.314 274.747 337.681 281.072 340.237C281.36 340.332 281.552 340.332 281.743 340.048C282.127 339.764 282.031 339.196 281.552 339.006C278.58 337.681 275.609 335.976 273.692 333.799C268.612 328.023 273.021 324.993 276.855 329.065C281.168 333.704 289.411 336.355 295.929 337.586C297.27 337.87 298.229 337.491 297.175 336.45C295.449 334.746 293.82 332.757 293.341 330.39C292.861 328.307 294.203 326.887 296.12 328.023C300.242 330.58 308.868 335.598 315.481 340.048C323.916 345.729 322.765 357.659 322.765 357.659C322.765 357.659 322.765 471.184 322.765 475.161C316.535 475.54 298.325 471.752 288.74 466.545C288.74 462.758 289.315 375.743 289.507 371.199C289.699 367.411 284.81 364.571 280.018 361.92C280.018 361.92 266.695 356.333 261.424 351.126C256.44 346.392 259.603 342.983 263.533 346.013Z" fill="#FFF2DA"/>
<path d="M263.533 346.013C266.408 348.191 269.092 349.8 275.226 352.641C275.609 352.83 275.993 352.546 276.088 352.167C276.088 351.883 275.993 351.694 275.705 351.599C271.296 349.611 264.779 346.297 261.711 342.604C257.303 337.302 261.136 333.136 264.299 336.923C267.175 340.237 270.433 343.078 277.143 345.918C277.43 346.013 277.718 345.918 277.814 345.634C278.005 345.35 277.814 345.066 277.526 344.971C273.021 342.983 267.75 339.858 265.258 335.598C262.67 331.053 266.791 327.644 270.05 332.094C272.446 335.314 274.747 337.681 281.072 340.237C281.36 340.332 281.552 340.332 281.743 340.048C282.127 339.764 282.031 339.196 281.552 339.006C278.58 337.681 275.609 335.976 273.692 333.799C268.612 328.023 273.021 324.993 276.855 329.065C281.168 333.704 289.411 336.355 295.929 337.586C297.27 337.87 298.229 337.491 297.175 336.45C295.449 334.746 293.82 332.757 293.341 330.39C292.861 328.307 294.203 326.887 296.12 328.023C300.242 330.58 308.868 335.598 315.481 340.048C323.916 345.729 322.765 357.659 322.765 357.659C322.765 357.659 322.765 471.184 322.765 475.161C316.535 475.54 298.325 471.752 288.74 466.545C288.74 462.758 289.315 375.743 289.507 371.199C289.699 367.411 284.81 364.571 280.018 361.92C280.018 361.92 266.695 356.333 261.424 351.126C256.44 346.392 259.603 342.983 263.533 346.013Z" fill="url(#paint9_linear_3_124)"/>
<path d="M460.879 478.068C460.879 486.014 470.015 490.781 476.715 486.312L508.997 464.957C514.58 461.282 514.986 453.336 509.809 449.065L477.527 422.844C470.929 417.48 460.879 422.049 460.879 430.491V478.068V478.068Z" fill="#638BF2"/>
<path d="M510.926 480.65C512.245 482.537 514.885 483.034 516.814 481.743L534.173 470.42C536.102 469.128 536.609 466.645 535.289 464.659C533.97 462.772 531.432 462.275 529.402 463.566L512.042 474.889C510.114 476.18 509.606 478.763 510.926 480.65Z" fill="#FF7A59"/>
</g>
<defs>
<linearGradient id="paint0_linear_3_124" x1="212.142" y1="118.604" x2="301.475" y2="118.604" gradientUnits="userSpaceOnUse">
<stop stop-color="#AEF7C2"/>
<stop offset="1" stop-color="#61E897"/>
</linearGradient>
<linearGradient id="paint1_linear_3_124" x1="376.621" y1="74.9121" x2="376.621" y2="475.187" gradientUnits="userSpaceOnUse">
<stop stop-color="#FFF7B1"/>
<stop offset="1" stop-color="#FFE485"/>
</linearGradient>
<linearGradient id="paint2_linear_3_124" x1="436.023" y1="278.607" x2="436.023" y2="475.187" gradientUnits="userSpaceOnUse">
<stop stop-color="white"/>
<stop offset="1" stop-color="#FFF2DA"/>
</linearGradient>
<linearGradient id="paint3_linear_3_124" x1="473.378" y1="185.734" x2="397.243" y2="320.762" gradientUnits="userSpaceOnUse">
<stop stop-color="#FFA740"/>
<stop offset="1" stop-color="#FF9634"/>
</linearGradient>
<linearGradient id="paint4_linear_3_124" x1="406.589" y1="277.1" x2="421.437" y2="303.03" gradientUnits="userSpaceOnUse">
<stop stop-color="#F0742E"/>
<stop offset="0.8481" stop-color="#F0742E" stop-opacity="0"/>
<stop offset="1" stop-color="#F0742E" stop-opacity="0"/>
</linearGradient>
<linearGradient id="paint5_linear_3_124" x1="449.934" y1="203.515" x2="389.951" y2="264.971" gradientUnits="userSpaceOnUse">
<stop stop-color="#FF971E"/>
<stop offset="1" stop-color="#E36219"/>
</linearGradient>
<radialGradient id="paint6_radial_3_124" cx="0" cy="0" r="1" gradientUnits="userSpaceOnUse" gradientTransform="translate(319.907 282.19) rotate(126.115) scale(27.2865 27.5117)">
<stop stop-color="#FFCB8E"/>
<stop offset="0.1854" stop-color="#FFAE4E"/>
<stop offset="1" stop-color="#F48135"/>
</radialGradient>
<linearGradient id="paint7_linear_3_124" x1="324.854" y1="198.977" x2="307.216" y2="180.664" gradientUnits="userSpaceOnUse">
<stop stop-color="#FFAE4E"/>
<stop offset="1" stop-color="#F48135"/>
</linearGradient>
<linearGradient id="paint8_linear_3_124" x1="292.349" y1="254.291" x2="268.676" y2="229.653" gradientUnits="userSpaceOnUse">
<stop stop-color="#FFAE4E"/>
<stop offset="1" stop-color="#F48135"/>
</linearGradient>
<linearGradient id="paint9_linear_3_124" x1="290.894" y1="327.077" x2="290.894" y2="475.106" gradientUnits="userSpaceOnUse">
<stop stop-color="white"/>
<stop offset="1" stop-color="#FFF2DA"/>
</linearGradient>
<clipPath id="clip0_3_124">
<rect width="335" height="426" fill="white" transform="translate(201 62)"/>
</clipPath>
</defs>
</svg>
