<svg width="760" height="600" fill="none" version="1.1" viewBox="0 0 760 600" xmlns="http://www.w3.org/2000/svg">
 <path d="m530.1 413.8c-6.506-11.233-22.817-11.233-29.323-0.093l-22.157 37.633c-6.317 10.672 0.755 24.246 13.2 25.276l46.388 4.025c13.672 1.217 23.006-13.387 16.217-25.182l-24.325-41.659z" fill="#FF9176"/>
 <path d="m560.25 431.72c1.986-1.09 2.681-3.668 1.49-5.651l-10.228-17.647c-1.092-1.983-3.673-2.677-5.659-1.487-1.986 1.09-2.681 3.668-1.49 5.651l10.227 17.647c1.093 1.983 3.674 2.578 5.66 1.487z" fill="url(#paint0_linear_1_66)"/>
 <path d="m527 200.43c0-55.52-41.604-100.43-92.938-100.43h-109.02c-51.335 0-93.038 44.912-93.038 100.43v198.48c0 55.52 41.604 100.43 92.938 100.43h109.02c51.335 0 92.939-45.011 92.939-100.43v-198.48h0.099z" fill="#628AF1"/>
 <path d="m232.5 248.72c18.371 0 33.263-14.87 33.263-33.213s-14.892-33.213-33.263-33.213-33.263 14.87-33.263 33.213 14.892 33.213 33.263 33.213z" fill="#37E5D7"/>
 <path d="m232.5 236.82c11.79 0 21.348-9.543 21.348-21.316 0-11.772-9.558-21.316-21.348-21.316s-21.348 9.544-21.348 21.316c0 11.773 9.558 21.316 21.348 21.316z" fill="#1DD5C6"/>
 <path d="m422.92 319.11c-1.702-1.834-0.563-4.969 1.931-5.168 7.796-0.624 15.502-1.482 23.112-2.582 8.505-1.2 15.061-7.897 15.985-16.057 3.999-34.405 4.431-69.056 1.463-103.76-0.644-8.804-7.855-15.917-16.759-16.711-41.118-3.916-85.003-4.09-130.87-1.54-9.18 0.616-16.653 7.608-17.627 16.479-3.438 34.086-3.846 68.382-1.21 102.71 0.669 8.448 7.357 15.346 15.867 16.65 9.308 1.392 18.538 2.559 27.684 3.486 2.494 0.253 3.549 3.424 1.79 5.21-6.141 6.237-12.157 14.061-17.957 23.55-36.572 60.491-32.765 91.251-32.765 151.73 15.887 6.725 34.868 7.308 63.609 6.725 6.752-0.137 13.831-0.28 21.285-0.28 6.47 0 12.851 0.089 19.089 0.177 29.657 0.418 56.113 0.79 73.751-8.748 0-47.941-4.166-100.98-32.271-149.6-5.025-8.693-10.427-16.141-16.107-22.262z" fill="url(#paint1_linear_1_66)"/>
 <path d="m387.1 301.23c35.481-2.78 61.86-28.358 58.888-57.086-2.972-28.729-33.995-49.673-69.476-46.707-35.482 2.78-61.86 28.358-58.888 57.086s33.995 49.672 69.476 46.707z" fill="#CAD9FF"/>
 <path d="m445.34 241.35c-3.158-28.172-34.367-48.375-69.662-44.853-35.296 3.521-61.303 29.099-58.145 57.457 3.158 28.172 34.367 48.375 69.662 44.853s61.303-29.284 58.145-57.457z" fill="url(#paint2_linear_1_66)"/>
 <path d="m416.8 255.79c-3.539-1.025-5.594-4.67-4.567-8.201 1.028-3.532 4.681-5.582 8.22-4.557s5.594 4.671 4.567 8.202c-1.142 3.531-4.795 5.581-8.22 4.556z" fill="#9198BF"/>
 <path d="m412.23 248.38c0.342-3.304 3.311-5.696 6.736-5.354 3.311 0.342 5.708 3.303 5.366 6.721-0.343 3.303-3.311 5.695-6.736 5.353-3.311-0.455-5.709-3.417-5.366-6.72z" fill="#3B4965"/>
 <path d="m413.94 248.16c-0.571-0.911 0.114-2.506 1.484-3.303 1.37-0.911 3.083-0.798 3.654 0.114 0.571 0.911-0.114 2.506-1.484 3.303-1.485 0.911-3.083 0.797-3.654-0.114z" fill="#40578C"/>
 <path d="m415.08 246.68c-0.228-0.342 0-0.911 0.571-1.253s1.142-0.342 1.37 0 0 0.911-0.571 1.253c-0.457 0.342-1.142 0.342-1.37 0z" fill="#9FB1D5"/>
 <path d="m418.05 249.18c1.142-0.684 2.17-1.823 2.512-2.848 0.228-0.57 0.913-0.911 1.37-0.57 0.799 1.026 1.37 2.279 1.142 3.759-0.343 2.62-2.626 4.443-5.252 4.215-1.827-0.228-3.197-1.253-3.882-2.734-0.228-0.569 0.229-0.911 0.799-1.025 1.028 0.114 2.17-0.228 3.311-0.797z" fill="#2B3956"/>
 <path d="m344.07 255.79c-3.539-1.025-5.594-4.67-4.566-8.201 1.027-3.532 4.68-5.582 8.22-4.557 3.539 1.025 5.594 4.671 4.566 8.202-1.141 3.531-4.795 5.581-8.22 4.556z" fill="#9198BF"/>
 <path d="m339.5 248.38c0.343-3.304 3.311-5.696 6.736-5.354 3.311 0.342 5.708 3.303 5.366 6.721-0.343 3.303-3.311 5.695-6.736 5.353-3.311-0.455-5.708-3.417-5.366-6.72z" fill="#3B4965"/>
 <path d="m341.21 248.16c-0.571-0.911 0.114-2.506 1.484-3.303 1.37-0.911 3.082-0.798 3.653 0.114 0.571 0.911-0.114 2.506-1.484 3.303-1.484 0.911-3.083 0.797-3.653-0.114z" fill="#40578C"/>
 <path d="m342.35 246.68c-0.228-0.342 0-0.911 0.571-1.253s1.142-0.342 1.37 0 0 0.911-0.571 1.253c-0.456 0.342-1.141 0.342-1.37 0z" fill="#9FB1D5"/>
 <path d="m345.32 249.18c1.141-0.684 2.169-1.823 2.511-2.848 0.229-0.57 0.914-0.911 1.37-0.57 0.8 1.026 1.37 2.279 1.142 3.759-0.342 2.62-2.626 4.443-5.252 4.215-1.826-0.228-3.196-1.253-3.881-2.734-0.229-0.569 0.228-0.911 0.799-1.025 1.027 0.114 2.169-0.228 3.311-0.797z" fill="#2B3956"/>
 <path d="m439.79 329.61c-5.235-0.469-9.197-0.823-12.681-6.042 2.104 4.201 4.855 9.08 7.855 14.398 9.033 16.018 20.316 36.024 22.925 53.516-0.582-0.503-1.511-1.348-2.731-2.458-8.702-7.917-32.245-29.336-50.777-36.587-2.215-3.79-5.519-5.329-8.171-6.565-2.188-1.019-3.933-1.832-4.256-3.532-0.907-4.766-8.725 0.784-4.155 6.453 0.504 0.626 1.03 1.211 1.562 1.756-0.686 0.201-1.343 0.46-1.97 0.78-19.361 3.965-22.836 22.802-1e-3 16.854 7.136 3.21 17.55 14.595 28.87 26.97 11.786 12.884 24.552 26.839 35.619 33.759 23.386 14.62 41.375 4.705 38.776-24.542-0.861-9.695-7.231-47.768-22.835-61.964-12.542-11.41-21.329-12.197-28.03-12.796z" fill="url(#paint3_linear_1_66)"/>
 <path d="m337.75 325.06c-4.965 5.452-20.852 1.487-37.731 15.862-16.88 14.376-23.216 53.757-24.077 63.452-2.599 29.247 15.39 39.162 38.776 24.542 21.698-13.566 52.654-20.965 67.218-27.516 12.411-5.583 12.411-9.914-1e-3 -16.855-18.623-9.491-67.018 1.576-73.226 6.941 3.475-23.299 20.601-49.572 29.041-66.426z" fill="url(#paint4_linear_1_66)"/>
 <path d="m369.56 402.65c-2.241-3.043-8.881 0.834-15.429-3.838l5.12-6.174c0.955 0.046 6.124 0.158 11.241 2.605 6.397 3.06 1.87 11.211-0.932 7.407z" fill="url(#paint5_linear_1_66)"/>
 <path d="m382.92 365.6-3.526 0.533c-3.828 0.543-6.976 5.507-7.314 12.186-0.411 7.697 3.01 14.777 7.691 15.787 0.599 0.13 1.24 0.146 1.847 0.051l3.526-0.533c-0.607 0.096-1.209 0.04-1.847-0.051-4.681-1.01-8.102-8.09-7.691-15.787 0.338-6.678 3.447-11.604 7.314-12.186z" fill="#628AF1"/>
 <path d="m392.42 381.48c0.41-7.698-3.01-14.777-7.692-15.787-4.681-1.01-8.787 4.401-9.161 12.135-0.41 7.698 3.01 14.777 7.692 15.787 4.681 1.01 8.75-4.437 9.161-12.135z" fill="#B7C5FF"/>
 <path d="m389.4 380.78c0.237-4.834-2.123-10.331-5.069-10.926-2.908-0.634-5.272 3.778-5.508 8.612s2.141 10.387 5.049 11.02c2.943 0.669 5.292-3.872 5.528-8.706z" fill="#abf"/>
 <defs>
  <linearGradient id="paint0_linear_1_66" x1="557.31" x2="550.51" y1="415.98" y2="421.35" gradientUnits="userSpaceOnUse">
   <stop stop-color="#FFF384" offset="0"/>
   <stop stop-color="#FFE485" offset="1"/>
  </linearGradient>
  <linearGradient id="paint1_linear_1_66" x1="380.01" x2="380.01" y1="171.52" y2="500.02" gradientUnits="userSpaceOnUse">
   <stop stop-color="#fff" offset="0"/>
   <stop stop-color="#E8EAF8" offset=".49479"/>
   <stop stop-color="#E3E5F7" offset=".67188"/>
   <stop stop-color="#B1B7E9" offset="1"/>
  </linearGradient>
  <linearGradient id="paint2_linear_1_66" x1="382.11" x2="382.11" y1="196.17" y2="299.28" gradientUnits="userSpaceOnUse">
   <stop stop-color="#EAECFF" offset="0"/>
   <stop stop-color="#BCC2F4" offset="1"/>
  </linearGradient>
  <linearGradient id="paint3_linear_1_66" x1="475.76" x2="372" y1="345.88" y2="345.88" gradientUnits="userSpaceOnUse">
   <stop stop-color="#E0E2F6" offset="0"/>
   <stop stop-color="#fff" offset="1"/>
  </linearGradient>
  <linearGradient id="paint4_linear_1_66" x1="290.83" x2="394.59" y1="345.88" y2="345.88" gradientUnits="userSpaceOnUse">
   <stop stop-color="#E0E2F6" offset="0"/>
   <stop stop-color="#E6E8F8" offset=".26131"/>
   <stop stop-color="#fff" offset="1"/>
  </linearGradient>
  <linearGradient id="paint5_linear_1_66" x1="371.42" x2="358.42" y1="404.42" y2="393.64" gradientUnits="userSpaceOnUse">
   <stop stop-color="#fff" offset="0"/>
   <stop stop-color="#fff" offset=".71354"/>
   <stop stop-color="#fff" stop-opacity="0" offset="1"/>
  </linearGradient>
 </defs>
</svg>
