<svg width="72" height="72" viewBox="0 0 72 72" fill="none" xmlns="http://www.w3.org/2000/svg">
<circle cx="36" cy="36" r="36" fill="#D1D2FC"/>
<path d="M45.7607 44.6582C45.1257 44.0492 45.5113 42.958 46.3878 42.8794C47.856 42.7476 49.3098 42.5787 50.7483 42.3711C52.6623 42.1019 54.1379 40.5986 54.3459 38.7672C55.2457 31.0451 55.343 23.2676 54.675 15.4775C54.5301 13.5014 52.9072 11.9049 50.9034 11.7266C41.6496 10.8478 31.7728 10.8087 21.4503 11.3809C19.3842 11.5193 17.7024 13.0886 17.4833 15.0797C16.7094 22.7303 16.6177 30.4279 17.211 38.1326C17.3614 40.0289 18.8667 41.5772 20.7819 41.8697C22.5907 42.1396 24.3865 42.3717 26.1682 42.5641C27.0449 42.6587 27.3998 43.7619 26.7446 44.3519C20.3542 50.1053 16.2112 55.2381 16.0077 63.7863C15.9981 64.1882 16.2395 64.5564 16.6164 64.6962C20.0679 65.9753 24.2146 66.0847 30.3154 65.9613C31.835 65.9306 33.4283 65.8984 35.1059 65.8984C36.5619 65.8984 37.9978 65.9185 39.4019 65.9383C45.7843 66.0279 51.5079 66.1083 55.4675 64.2432C55.8001 64.0865 56.0017 63.7438 55.9917 63.3763C55.7794 55.5734 51.4184 50.0842 45.7607 44.6582Z" fill="url(#paint0_linear_1_53)"/>
<path d="M49.9412 26.0943C49.2275 19.8099 42.1748 15.3034 34.1985 16.0889C26.2221 16.8745 20.3449 22.58 21.0585 28.9057C21.7722 35.1901 28.8249 39.6966 36.8012 38.9111C44.7775 38.1255 50.6548 32.3786 49.9412 26.0943Z" fill="url(#paint1_linear_1_53)"/>
<path d="M42.0079 27.3311C42.0923 26.5147 42.8242 25.9236 43.6687 26.008C44.4851 26.0925 45.0763 26.8244 44.9918 27.6689C44.9074 28.4853 44.1755 29.0764 43.3309 28.992C42.5146 28.8794 41.9234 28.1475 42.0079 27.3311Z" fill="#3B4965"/>
<path d="M26.0079 27.3311C26.0923 26.5147 26.8242 25.9236 27.6687 26.008C28.4851 26.0925 29.0763 26.8244 28.9918 27.6689C28.9074 28.4853 28.1755 29.0764 27.3309 28.992C26.5146 28.8794 25.9234 28.1475 26.0079 27.3311Z" fill="#3B4965"/>
<defs>
<linearGradient id="paint0_linear_1_53" x1="35.4548" y1="10.9842" x2="35.4548" y2="66" gradientUnits="userSpaceOnUse">
<stop offset="0.442316" stop-color="white"/>
<stop offset="0.772097" stop-color="#E8EAF8"/>
<stop offset="0.835805" stop-color="#E3E5F7"/>
<stop offset="1" stop-color="#D1D2FC"/>
</linearGradient>
<linearGradient id="paint1_linear_1_53" x1="35.6511" y1="16.0158" x2="35.6511" y2="39.016" gradientUnits="userSpaceOnUse">
<stop stop-color="#EAECFF"/>
<stop offset="1" stop-color="#BCC2F4"/>
</linearGradient>
</defs>
</svg>
