<?xml version="1.0" encoding="UTF-8"?>
<svg width="1024px" height="1024px" viewBox="0 0 1024 1024" version="1.1" xmlns="http://www.w3.org/2000/svg" xmlns:xlink="http://www.w3.org/1999/xlink">
    <title>Icon-App-iTunes</title>
    <g id="Template---App-Icons" stroke="none" stroke-width="1" fill="none" fill-rule="evenodd">
        <g id="Group">
            <rect id="App-Icon-1024x1024" fill="#FFFFFF" x="0" y="0" width="1024" height="1024"></rect>
            <g id="beta" transform="translate(157.000000, 219.000000)">
                <ellipse id="Oval" fill="#25395F" fill-rule="nonzero" transform="translate(600.093622, 100.443181) scale(-1, 1) rotate(89.999997) translate(-600.093622, -100.443181) " cx="600.093622" cy="100.443181" rx="99.9532354" ry="99.953246"></ellipse>
                <path d="M299.654417,220.097397 C229.996447,199.054985 154.83562,219.73822 104.384184,273.833899 L54.7776465,327.023898 C-29.0354268,416.8907 13.5751916,567.262175 130.928678,595.760162 C183.918073,608.62783 239.531959,591.753829 277.490332,551.289782 L506.637304,307.019923 C514.72057,298.402927 511.049549,283.956833 499.922201,280.595553 L299.654417,220.097397 Z" id="Path" fill="#6E82A4" fill-rule="nonzero"></path>
                <path d="M297.201541,369.148475 C226.672381,390.876355 149.872747,371.909283 97.6742969,319.872151 L46.3499422,268.705736 C-40.3649244,182.257349 0.566423957,34.5631498 119.500573,4.75378352 C173.203187,-8.70555988 230.054503,6.86277882 269.323519,45.7836256 L506.381382,280.738118 C514.743646,289.026257 511.24155,303.209291 499.975427,306.679904 L297.201541,369.148475 Z" id="Path" fill="#25395F" fill-rule="nonzero"></path>
                <path d="M97.9598486,320.138739 C150.134715,371.937216 226.900851,390.817301 297.400063,369.189071 L500.084688,307.006994 C506.442979,305.056461 510.326971,299.707334 511,293.934602 C510.317997,287.935027 506.395663,282.396456 500.036556,280.477633 L299.899654,220.083477 C230.287208,199.077238 155.174685,219.724917 104.756221,273.727602 L79,301.315568 L97.9598486,320.138739 Z" id="Path" fill="#1B2D4B"></path>
            </g>
        </g>
    </g>
</svg>