<svg width="607" height="547" viewBox="0 0 607 547" fill="none" xmlns="http://www.w3.org/2000/svg">
<circle cx="443.882" cy="339.731" r="162.404" fill="url(#paint0_linear)"/>
<circle cx="517.696" cy="124.322" r="13.4417" fill="url(#paint1_linear)"/>
<path d="M15.2185 303.41C8.64385 296.293 11.3615 284.819 20.4505 281.462C43.3018 273.025 61.6886 267.698 85.9815 262.447C95.4728 260.396 103.949 268.643 102.199 278.194C97.7279 302.597 93.2221 321.177 86.028 344.327C83.1431 353.61 71.7778 356.934 64.3549 350.657C46.2118 335.316 32.4282 322.038 15.2185 303.41Z" fill="url(#paint2_linear)"/>
<rect x="72.5215" y="0.60791" width="120.949" height="120.949" rx="25" transform="rotate(10.2921 72.5215 0.60791)" fill="url(#paint3_linear)"/>
<g style="mix-blend-mode:multiply" filter="url(#filter0_f)">
<path d="M173.117 471.588C173.117 471.588 229.333 492.409 275.022 494.838C305.097 496.457 338.756 492.872 366.98 477.256C391.618 463.607 448.527 430.41 464.027 421.272C473.512 415.72 479.642 410.052 479.642 402.649C479.642 397.907 479.642 395.709 479.642 388.075C479.642 361.124 354.719 296.927 323.951 289.062C293.183 281.196 272.94 284.203 255.474 294.267C238.008 304.33 131.014 368.874 131.014 389.232C131.014 395.362 131.014 399.758 131.014 405.541C131.014 409.936 131.939 414.448 133.79 419.074C144.778 445.794 173.117 471.588 173.117 471.588Z" fill="#395590" fill-opacity="0.4"/>
</g>
<path d="M173.117 454.703C173.117 454.703 229.333 475.523 275.022 477.953C305.097 479.572 338.756 475.986 366.98 460.371C391.618 446.722 448.527 413.525 464.027 404.387C473.512 398.834 479.642 393.167 479.642 385.764C479.642 381.021 479.642 378.824 479.642 371.189C479.642 344.238 354.719 280.042 323.951 272.176C293.183 264.311 272.94 267.318 255.474 277.381C238.008 287.445 131.014 351.988 131.014 372.346C131.014 378.477 131.014 382.872 131.014 388.656C131.014 393.051 131.939 397.562 133.79 402.189C144.778 428.909 173.117 454.703 173.117 454.703Z" fill="#C3D0E4"/>
<path d="M275.076 462.958L275.076 462.958C252.34 461.749 226.946 455.959 207.205 450.457C197.341 447.708 188.903 445.035 182.931 443.049C179.945 442.056 177.576 441.235 175.955 440.663C175.145 440.377 174.521 440.153 174.1 440.001C173.904 439.93 173.752 439.875 173.646 439.836C173.6 439.793 173.542 439.74 173.473 439.677C173.265 439.485 172.957 439.198 172.56 438.824C171.767 438.075 170.619 436.973 169.207 435.567C166.383 432.753 162.504 428.723 158.287 423.858C149.839 414.113 140.091 401.083 134.717 387.817C129.433 374.776 132.386 362.711 138.856 352.509C145.342 342.283 155.331 333.994 163.925 328.665C176.471 320.97 211.168 300.929 236.018 286.575C245.514 281.09 253.573 276.436 258.407 273.618C267.073 268.568 274.685 265.371 283.892 264.379C293.12 263.386 304.033 264.599 319.307 268.518C334.504 272.418 364.891 285.927 395.255 302.678C425.629 319.433 455.77 339.317 470.568 355.893L470.569 355.894C477.951 364.134 479.713 370.274 478.124 375.328C476.499 380.5 471.266 384.962 463.519 389.529C448.019 398.667 391.12 431.858 366.495 445.5C338.5 460.989 305.053 464.572 275.076 462.958Z" fill="url(#paint4_linear)" stroke="url(#paint5_radial)" stroke-width="2"/>
<path d="M184.222 434.229L183.55 434.97L183.693 435.1L183.875 435.167L184.222 434.229ZM184.222 434.229C183.55 434.97 183.55 434.97 183.55 434.97L183.548 434.969L183.544 434.965L183.529 434.951L183.472 434.899C183.421 434.852 183.346 434.784 183.249 434.693C183.054 434.513 182.768 434.246 182.401 433.898C181.667 433.203 180.609 432.184 179.309 430.884C176.71 428.287 173.139 424.568 169.253 420.078C161.493 411.114 152.416 399.016 147.323 386.606C142.133 373.958 145.204 362.388 151.52 352.811C157.817 343.262 167.375 335.623 175.366 330.665L175.371 330.662C185.536 324.429 210.459 310.246 231.264 298.406C242.909 291.779 253.264 285.886 259.019 282.532C267.111 277.816 274.5 274.478 283.446 273.253C292.382 272.029 302.787 272.924 316.911 276.528C331.096 280.147 358.777 292.549 386.277 307.839C413.768 323.125 441.285 341.411 455.056 356.874C461.946 364.581 464.033 370.667 462.12 376.036C461.182 378.669 459.318 381.001 456.841 383.178C454.364 385.356 451.22 387.425 447.644 389.518C433.42 397.845 381.242 428.272 358.673 440.772L358.673 440.772C332.539 455.239 305.147 458.136 277.513 456.627L277.512 456.627C256.525 455.464 233.107 450.091 214.967 445.024C205.889 442.489 198.12 440.026 192.619 438.196C189.869 437.282 187.685 436.525 186.187 435.997C185.439 435.733 184.861 435.526 184.471 435.384C184.276 435.314 184.127 435.26 184.027 435.223L183.914 435.182L183.885 435.171L183.877 435.168L183.875 435.167C183.875 435.167 183.875 435.167 184.222 434.229Z" fill="url(#paint6_linear)" stroke="url(#paint7_radial)" stroke-width="2"/>
<path d="M184.222 434.229L392.196 312.314C362.7 295.31 331.701 281.314 316.548 277.381C288.44 270.21 275.485 273.911 259.407 283.28C243.329 292.65 191.625 321.683 175.778 331.399C159.931 341.231 138.07 361.589 148.133 386.111C158.196 410.633 184.222 434.229 184.222 434.229Z" fill="#0C7ADF" fill-opacity="0.3"/>
<path d="M386.799 296.963C381.676 302.202 375.474 308.403 369.752 314.126C362.945 320.933 356.816 327.062 353.988 330.085C353.399 332.024 353.779 333.405 355.83 334.188C375.302 341.578 390.733 334.569 395.982 331.759C397.34 330.978 397.77 329.751 397.283 328.275C397.545 324.691 397.983 319.128 398.453 313.159C398.698 310.05 398.951 306.83 399.193 303.722C395.061 301.409 390.917 299.151 386.799 296.963Z" fill="#2D3963" fill-opacity="0.3"/>
<path d="M375.858 264.768C376.105 265.556 393.409 316.773 397.284 328.275C397.77 329.751 397.34 330.978 395.982 331.759C390.733 334.569 375.302 341.578 355.83 334.188C353.78 333.405 353.399 332.024 353.988 330.085C357.847 317.132 372.419 267.674 373.261 264.919C374.28 261.752 375.606 263.881 375.858 264.768Z" fill="url(#paint8_linear)"/>
<path d="M223.518 204.037C229.305 211.554 235.392 215.292 240.873 217.124C245.487 218.666 249.613 218.834 252.586 218.849V293.072C252.388 293.063 252.171 293.053 251.936 293.04C250.52 292.965 248.449 292.816 245.852 292.521C240.656 291.93 233.362 290.754 224.994 288.415C208.249 283.735 187.275 274.42 170.171 255.891C153.085 237.381 148.664 218.639 151.272 204.036C153.892 189.371 163.56 178.874 174.818 176.482C186.29 174.043 195.612 177.261 203.504 182.914C211.454 188.608 217.896 196.734 223.518 204.037Z" fill="url(#paint9_linear)" stroke="url(#paint10_linear)" stroke-width="3" stroke-miterlimit="10"/>
<path fill-rule="evenodd" clip-rule="evenodd" d="M198.011 256.656C215.712 251.243 224.683 229.267 218.048 207.569C214.054 194.507 205.315 184.525 195.129 179.828C197.768 180.971 200.261 182.436 202.63 184.133C210.376 189.681 216.695 197.633 222.329 204.952C228.293 212.699 234.626 216.617 240.397 218.546C244.485 219.913 248.208 220.247 251.086 220.326V291.488C249.773 291.403 248.063 291.263 246.021 291.031C240.889 290.447 233.676 289.284 225.398 286.971C208.825 282.339 188.131 273.136 171.273 254.874C167.328 250.599 164.075 246.321 161.441 242.095C170.63 254.44 184.879 260.671 198.011 256.656Z" fill="url(#paint11_linear)"/>
<path d="M223.518 204.037C229.305 211.554 235.392 215.292 240.873 217.124C245.487 218.666 249.613 218.834 252.586 218.849V293.072C252.388 293.063 252.171 293.053 251.936 293.04C250.52 292.965 248.449 292.816 245.852 292.521C240.656 291.93 233.362 290.754 224.994 288.415C208.249 283.735 187.275 274.42 170.171 255.891C153.085 237.381 148.664 218.639 151.272 204.036C153.892 189.371 163.56 178.874 174.818 176.482C186.29 174.043 195.612 177.261 203.504 182.914C211.454 188.608 217.896 196.734 223.518 204.037Z" stroke="url(#paint12_radial)" stroke-width="3" stroke-miterlimit="10"/>
<path opacity="0.35" d="M191.509 219.663C193.129 221.745 193.013 225.099 191.394 227.297C189.774 229.495 187.114 229.61 185.61 227.644C183.991 225.562 181.909 218.044 183.528 215.846C185.032 213.648 189.89 217.697 191.509 219.663Z" fill="#2B3760"/>
<path d="M162.818 227.097C163.232 229.684 165.716 231.547 168.303 231.133C170.89 230.719 172.753 228.235 172.339 225.648C171.925 223.06 169.441 221.198 166.854 221.612C164.267 221.922 162.404 224.406 162.818 227.097Z" fill="#2397AA"/>
<path d="M163.429 226.038C163.882 228.641 166.259 230.452 168.975 230.113C171.578 229.66 173.389 227.283 173.049 224.567C172.597 221.964 170.22 220.153 167.504 220.492C164.9 220.945 163.09 223.435 163.429 226.038Z" fill="#2B3760"/>
<path d="M167.503 222.19C167.051 222.982 167.617 224.114 168.862 224.793C169.993 225.472 171.352 225.359 171.804 224.566C172.257 223.774 171.691 222.642 170.446 221.963C169.201 221.284 167.956 221.397 167.503 222.19Z" fill="#364D98"/>
<path d="M169.087 222.416C168.974 222.642 169.201 223.095 169.653 223.434C170.106 223.661 170.559 223.661 170.785 223.434C170.898 223.095 170.672 222.755 170.219 222.416C169.767 222.189 169.201 222.189 169.087 222.416Z" fill="#C3D8F8"/>
<path d="M170.445 226.038C171.124 226.151 171.803 226.717 171.464 227.396C170.898 228.302 169.992 228.981 168.861 229.094C166.823 229.433 164.786 227.962 164.56 225.925C164.447 225.019 164.56 224.227 165.013 223.548C165.352 222.869 166.371 223.322 166.823 224.001C167.163 224.567 167.842 225.133 168.521 225.472C169.087 225.812 169.766 226.038 170.445 226.038Z" fill="#1B244A"/>
<path d="M185.073 201.531C185.489 204.126 187.98 205.994 190.575 205.579C193.171 205.164 195.039 202.673 194.624 200.077C194.209 197.482 191.717 195.614 189.122 196.029C186.527 196.34 184.658 198.832 185.073 201.531Z" fill="#2397AA"/>
<path d="M185.762 200.648C186.214 203.251 188.591 205.062 191.307 204.722C193.911 204.269 195.721 201.893 195.382 199.176C194.929 196.573 192.552 194.762 189.836 195.102C187.233 195.555 185.422 198.045 185.762 200.648Z" fill="#2B3760"/>
<path d="M189.836 196.799C189.384 197.592 189.95 198.723 191.195 199.402C192.326 200.081 193.685 199.968 194.137 199.176C194.59 198.384 194.024 197.252 192.779 196.573C191.534 195.894 190.289 196.007 189.836 196.799Z" fill="#364D98"/>
<path d="M191.42 197.025C191.307 197.252 191.534 197.704 191.986 198.044C192.439 198.27 192.892 198.27 193.118 198.044C193.231 197.704 193.005 197.365 192.552 197.025C192.1 196.799 191.534 196.799 191.42 197.025Z" fill="#C3D8F8"/>
<path d="M192.778 200.648C193.457 200.761 194.136 201.327 193.796 202.006C193.23 202.911 192.325 203.59 191.193 203.704C189.156 204.043 187.119 202.572 186.892 200.535C186.779 199.629 186.892 198.837 187.345 198.158C187.685 197.479 188.703 197.931 189.156 198.611C189.496 199.176 190.175 199.742 190.854 200.082C191.42 200.421 192.099 200.648 192.778 200.648Z" fill="#1B244A"/>
<path d="M193.244 218.159C195.326 219.663 195.789 222.67 194.285 224.752C192.782 226.834 189.774 227.297 187.692 225.793C185.61 224.289 181.909 218.043 183.413 215.961C184.916 213.763 191.162 216.539 193.244 218.159Z" fill="#FFE37A"/>
<path d="M367.79 206.129L367.327 364.596L293.414 407.51L293.877 249.158L367.79 206.129Z" fill="url(#paint13_linear)"/>
<path d="M366.286 365.522L338.41 381.485L325.339 373.966L353.215 358.004L366.286 365.522Z" fill="#EBEFF8"/>
<path d="M293.876 249.158L293.414 407.51L219.038 364.596L219.501 206.129L293.876 249.158Z" fill="url(#paint14_linear)"/>
<path d="M321.753 312.626C321.753 353.689 321.753 365.834 321.753 365.834L349.629 349.525C349.629 349.525 349.629 324.772 349.629 301.869C349.629 278.966 321.753 282.327 321.753 312.626Z" fill="url(#paint15_linear)"/>
<path fill-rule="evenodd" clip-rule="evenodd" d="M347.8 350.595L349.629 349.525V301.869C349.629 287.054 337.965 283.229 329.727 290.576C337.757 285.252 347.8 289.537 347.8 303.284V350.595Z" fill="#131F37"/>
<path d="M248.994 335.618C249.142 336.354 259.882 384.342 262.284 395.118C262.583 396.5 262.1 397.577 260.844 398.167C256.005 400.262 241.889 405.285 225.473 396.888C223.746 395.999 223.531 394.712 224.214 393.004C228.71 381.582 245.732 337.957 246.707 335.529C247.872 332.744 248.85 334.79 248.994 335.618Z" fill="#2D3963" fill-opacity="0.3"/>
<path d="M242.233 336.628C242.464 337.437 257.039 384.746 259.931 395.388C260.278 396.776 259.815 397.933 258.542 398.395C244.431 403.716 233.326 402.791 223.263 396.66C221.181 395.388 220.487 394.694 221.181 392.727C225.461 380.698 238.879 338.941 239.804 336.512C240.961 333.852 242.002 335.818 242.233 336.628Z" fill="url(#paint16_linear)"/>
<path d="M271.425 323.275C271.643 324.36 287.476 395.107 291.017 410.994C291.458 413.03 290.747 414.618 288.895 415.489C281.761 418.578 260.95 425.983 236.749 413.603C234.202 412.292 233.886 410.395 234.893 407.877C241.521 391.038 266.615 326.723 268.053 323.144C269.771 319.038 271.213 322.055 271.425 323.275Z" fill="#2D3963" fill-opacity="0.3"/>
<path d="M261.985 325.534C262.316 326.593 285.577 395.442 290.786 410.904C291.44 412.888 290.862 414.538 289.036 415.587C281.979 419.365 261.237 428.787 235.061 418.853C232.305 417.8 231.793 415.943 232.585 413.337C237.773 395.925 257.361 329.44 258.493 325.737C259.863 321.48 261.646 324.341 261.985 325.534Z" fill="url(#paint17_linear)"/>
<path d="M362.7 357.077L334.824 373.04L321.753 365.405L321.765 333.452L362.7 357.077Z" fill="url(#paint18_linear)"/>
<path d="M370.566 374.429L342.689 390.391L329.503 382.757L357.379 366.794L370.566 374.429Z" fill="#EBEFF8"/>
<path d="M362.7 357.078V363.44L334.708 379.402L334.824 373.041L362.7 357.078Z" fill="#A6B0C9"/>
<path d="M366.287 365.522V371.884L338.41 387.846V381.485L366.287 365.522Z" fill="#A6B0C9"/>
<path d="M374.152 382.873L346.276 398.835L333.205 391.201L360.966 375.354L374.152 382.873Z" fill="#EBEFF8"/>
<path d="M370.566 374.429V380.79L342.574 396.753L342.69 390.391L370.566 374.429Z" fill="#A6B0C9"/>
<path d="M374.152 382.872V389.234L346.16 405.197L346.276 398.835L374.152 382.872Z" fill="#A6B0C9"/>
<path d="M376.423 147.235L293.164 99.1365L210.362 147.235L293.621 195.333L376.423 147.235Z" fill="#CBD1E2"/>
<path d="M271.495 95.1252V111.819L293.357 124.427V107.733L271.495 95.1252Z" fill="#516B97"/>
<path d="M333.441 129.638L333.441 146.353L355.303 158.961L355.303 142.246L333.441 129.638Z" fill="#516B97"/>
<path d="M254.083 129.968V146.752L232.385 159.36V142.547L254.083 129.968Z" fill="#B7C2D9"/>
<path d="M314.983 95.1269L315.054 111.866L293.355 124.422V107.706L314.983 95.1269Z" fill="#B7C2D9"/>
<path d="M254.086 129.966L232.34 117.474L210.71 129.966L232.456 142.574L254.086 129.966Z" fill="#E1E8F5"/>
<path d="M314.987 95.1251L293.186 82.6328L271.502 95.1251L293.302 107.733L314.987 95.1251Z" fill="#E1E8F5"/>
<path d="M376.933 129.638L355.133 117.146L333.448 129.638L355.249 142.246L376.933 129.638Z" fill="#E1E8F5"/>
<path d="M315.559 165.602L293.929 178.094L272.183 165.602L293.813 152.994L315.559 165.602Z" fill="#E1E8F5"/>
<path fill-rule="evenodd" clip-rule="evenodd" d="M210.71 129.966L210.595 210.472L219.56 215.67V215.683L226.408 219.641L232.341 223.08V223.069L272.067 246.026L272.066 246.107L293.812 258.599L293.812 258.592L293.82 258.597L293.936 194.863L293.904 194.845L293.928 178.093L272.182 165.601L272.158 182.298L232.426 159.373L232.456 142.574L210.71 129.966Z" fill="url(#paint19_linear)"/>
<path fill-rule="evenodd" clip-rule="evenodd" d="M376.969 129.617L377.085 210.123L368.12 215.321V215.334L361.271 219.292L355.339 222.731V222.72L315.613 245.677L315.613 245.758L293.867 258.25L293.867 258.243L293.86 258.248L293.744 194.513L293.776 194.495L293.752 177.744L315.498 165.252L315.522 181.948L355.254 159.023L355.223 142.225L376.969 129.617Z" fill="#B7C2D9"/>
<path d="M333.855 196.786C333.855 216.464 333.855 222.284 333.855 222.284L347.214 214.468C347.214 214.468 347.214 202.606 347.214 191.631C347.214 180.655 333.855 182.266 333.855 196.786Z" fill="url(#paint20_linear)"/>
<path fill-rule="evenodd" clip-rule="evenodd" d="M346.338 214.981L347.215 214.469V191.631C347.215 184.531 341.625 182.698 337.677 186.219C341.525 183.667 346.338 185.721 346.338 192.309V214.981Z" fill="#131F37"/>
<path d="M252.786 196.786C252.786 216.464 252.786 222.284 252.786 222.284L239.427 214.468C239.427 214.468 239.427 202.606 239.427 191.631C239.427 180.655 252.786 182.266 252.786 196.786Z" fill="url(#paint21_linear)"/>
<path fill-rule="evenodd" clip-rule="evenodd" d="M240.304 214.981L239.427 214.469V191.631C239.427 184.531 245.017 182.698 248.965 186.219C245.117 183.667 240.304 185.721 240.304 192.309V214.981Z" fill="#131F37"/>
<path d="M346.275 398.835L342.573 396.753L342.689 390.391L338.409 387.846V381.485L334.824 379.402V373.041L321.753 365.406V390.969L334.708 398.604L346.159 405.197L346.275 398.835Z" fill="url(#paint22_linear)"/>
<g opacity="0.16" filter="url(#filter1_f)">
<path d="M434.963 367.371C444.945 344.629 419.948 335.041 400.962 372.58C396.805 384.5 399.926 397.318 419.718 389.49C439.51 381.661 437.541 373.254 435.001 372.139C432.461 371.025 434.099 369.387 434.963 367.371Z" fill="url(#paint23_linear)"/>
</g>
<g opacity="0.76" filter="url(#filter2_f)">
<path d="M423.634 388.374C414.657 392.2 405.473 395.664 397.275 393.615C389.077 391.566 401.853 385.283 408.476 382.34C415.098 379.397 431.614 374.819 435.809 377.1C440.003 379.382 432.611 384.547 423.634 388.374Z" fill="#003F7E"/>
</g>
<path d="M422.959 372.428C425.295 373.574 428.162 373.697 430.477 373.587C432.352 373.512 433.851 373.985 434.7 374.717C435.113 375.073 435.369 375.484 435.475 375.937C435.581 376.392 435.554 376.964 435.276 377.669C434.708 379.113 433.123 381.011 429.876 383.192C426.652 385.358 421.888 387.737 415.133 390.187C406.46 393.282 400.086 393.256 395.48 391.419C390.892 389.588 387.879 385.887 386.067 381.237C384.249 376.574 383.665 371.011 383.931 365.623C384.196 360.243 385.305 355.113 386.809 351.335C389.163 345.817 393.651 342.735 398.427 341.587C403.241 340.43 408.262 341.258 411.575 343.467C414.856 345.655 416.629 349.23 417.585 353.248C418.54 357.268 418.646 361.59 418.7 365.122L418.7 365.122C418.729 367.005 419.166 368.54 419.936 369.765C420.706 370.992 421.771 371.846 422.959 372.428Z" fill="url(#paint24_radial)" stroke="url(#paint25_linear)" stroke-width="2" stroke-miterlimit="10"/>
<path d="M389.326 359.446C389.616 359.321 389.677 358.813 389.461 358.311C389.246 357.809 388.835 357.503 388.545 357.628C388.254 357.752 388.193 358.261 388.409 358.763C388.625 359.265 389.035 359.57 389.326 359.446Z" fill="#EEF8FA"/>
<path d="M401.65 363.361C401.861 364.684 403.132 365.637 404.455 365.425C405.779 365.214 406.731 363.943 406.52 362.62C406.308 361.296 405.037 360.344 403.714 360.555C402.391 360.714 401.438 361.985 401.65 363.361Z" fill="#C4A547" fill-opacity="0.74"/>
<path d="M401.609 363.074C401.821 364.291 402.932 365.138 404.203 364.979C405.42 364.768 406.267 363.656 406.108 362.386C405.897 361.168 404.785 360.321 403.515 360.48C402.297 360.692 401.45 361.856 401.609 363.074Z" fill="#2B3760"/>
<path d="M403.515 361.274C403.303 361.644 403.568 362.174 404.15 362.491C404.679 362.809 405.315 362.756 405.526 362.386C405.738 362.015 405.473 361.486 404.891 361.168C404.309 360.85 403.727 360.903 403.515 361.274Z" fill="#364D98"/>
<path d="M404.256 361.38C404.203 361.486 404.309 361.697 404.52 361.856C404.732 361.962 404.944 361.962 405.05 361.856C405.103 361.697 404.997 361.538 404.785 361.38C404.573 361.274 404.309 361.274 404.256 361.38Z" fill="#C3D8F8"/>
<path d="M404.891 363.074C405.208 363.127 405.526 363.391 405.367 363.709C405.103 364.132 404.679 364.45 404.15 364.503C403.197 364.662 402.244 363.974 402.138 363.021C402.085 362.597 402.138 362.227 402.35 361.909C402.509 361.592 402.985 361.803 403.197 362.121C403.356 362.386 403.673 362.65 403.991 362.809C404.256 362.968 404.573 363.074 404.891 363.074Z" fill="#1B244A"/>
<path d="M385.861 359.866C386.072 361.189 387.343 362.142 388.666 361.93C389.989 361.718 390.942 360.448 390.731 359.125C390.519 357.801 389.248 356.848 387.925 357.06C386.602 357.219 385.649 358.489 385.861 359.866Z" fill="#C4A547" fill-opacity="0.74"/>
<path d="M385.82 359.579C386.032 360.796 387.143 361.643 388.414 361.484C389.631 361.273 390.478 360.161 390.319 358.891C390.108 357.673 388.996 356.826 387.726 356.985C386.508 357.197 385.661 358.361 385.82 359.579Z" fill="#2B3760"/>
<path d="M387.726 357.779C387.514 358.149 387.779 358.679 388.361 358.996C388.89 359.314 389.526 359.261 389.737 358.89C389.949 358.52 389.684 357.991 389.102 357.673C388.52 357.355 387.937 357.408 387.726 357.779Z" fill="#364D98"/>
<path d="M388.467 357.885C388.414 357.99 388.52 358.202 388.731 358.361C388.943 358.467 389.155 358.467 389.261 358.361C389.314 358.202 389.208 358.043 388.996 357.885C388.784 357.779 388.52 357.779 388.467 357.885Z" fill="#C3D8F8"/>
<path d="M389.102 359.579C389.419 359.632 389.737 359.896 389.578 360.214C389.313 360.637 388.89 360.955 388.361 361.008C387.408 361.167 386.455 360.479 386.349 359.526C386.296 359.102 386.349 358.732 386.561 358.414C386.72 358.097 387.196 358.308 387.408 358.626C387.567 358.891 387.884 359.155 388.202 359.314C388.467 359.473 388.784 359.579 389.102 359.579Z" fill="#1B244A"/>
<defs>
<filter id="filter0_f" x="80.0137" y="233.594" width="450.629" height="312.6" filterUnits="userSpaceOnUse" color-interpolation-filters="sRGB">
<feFlood flood-opacity="0" result="BackgroundImageFix"/>
<feBlend mode="normal" in="SourceGraphic" in2="BackgroundImageFix" result="shape"/>
<feGaussianBlur stdDeviation="25.5" result="effect1_foregroundBlur"/>
</filter>
<filter id="filter1_f" x="398.355" y="346.341" width="39.8814" height="46.5496" filterUnits="userSpaceOnUse" color-interpolation-filters="sRGB">
<feFlood flood-opacity="0" result="BackgroundImageFix"/>
<feBlend mode="normal" in="SourceGraphic" in2="BackgroundImageFix" result="shape"/>
<feGaussianBlur stdDeviation="0.5" result="effect1_foregroundBlur"/>
</filter>
<filter id="filter2_f" x="388.617" y="370.485" width="54.3979" height="29.7398" filterUnits="userSpaceOnUse" color-interpolation-filters="sRGB">
<feFlood flood-opacity="0" result="BackgroundImageFix"/>
<feBlend mode="normal" in="SourceGraphic" in2="BackgroundImageFix" result="shape"/>
<feGaussianBlur stdDeviation="3" result="effect1_foregroundBlur"/>
</filter>
<linearGradient id="paint0_linear" x1="559.077" y1="207.002" x2="384.897" y2="487.626" gradientUnits="userSpaceOnUse">
<stop stop-color="#17E1D5"/>
<stop offset="1" stop-color="#17E1D5"/>
</linearGradient>
<linearGradient id="paint1_linear" x1="527.23" y1="113.336" x2="527.23" y2="150.358" gradientUnits="userSpaceOnUse">
<stop stop-color="#4D51D5"/>
<stop offset="1" stop-color="#0C7ADF"/>
</linearGradient>
<linearGradient id="paint2_linear" x1="146.529" y1="364.353" x2="144.057" y2="247.003" gradientUnits="userSpaceOnUse">
<stop stop-color="#FF8B5C"/>
<stop offset="1" stop-color="#FF6755"/>
</linearGradient>
<linearGradient id="paint3_linear" x1="132.996" y1="0.60791" x2="132.996" y2="121.557" gradientUnits="userSpaceOnUse">
<stop stop-color="#FFE27A"/>
<stop offset="1" stop-color="#FFCA62"/>
</linearGradient>
<linearGradient id="paint4_linear" x1="305.328" y1="263.049" x2="305.328" y2="464.312" gradientUnits="userSpaceOnUse">
<stop offset="0.181167" stop-color="#D9E1EF"/>
<stop offset="1" stop-color="#EEF2FA"/>
</linearGradient>
<radialGradient id="paint5_radial" cx="0" cy="0" r="1" gradientUnits="userSpaceOnUse" gradientTransform="translate(293.981 461.954) rotate(-90) scale(111.078 258.592)">
<stop stop-color="#EFFCFB"/>
<stop offset="1" stop-color="#EFFCFB" stop-opacity="0"/>
</radialGradient>
<linearGradient id="paint6_linear" x1="303.744" y1="273.736" x2="303.744" y2="455.984" gradientUnits="userSpaceOnUse">
<stop offset="0.427454" stop-color="#108CFF"/>
<stop offset="1" stop-color="#8FE6FA"/>
</linearGradient>
<radialGradient id="paint7_radial" cx="0" cy="0" r="1" gradientUnits="userSpaceOnUse" gradientTransform="translate(382.98 305.164) rotate(88.1817) scale(72.8615 126.374)">
<stop stop-color="white"/>
<stop offset="1" stop-color="white" stop-opacity="0"/>
</radialGradient>
<linearGradient id="paint8_linear" x1="383.365" y1="270.871" x2="358.705" y2="332.907" gradientUnits="userSpaceOnUse">
<stop stop-color="#96A5CB"/>
<stop offset="1" stop-color="#5A6A92"/>
</linearGradient>
<linearGradient id="paint9_linear" x1="201.583" y1="174.157" x2="201.583" y2="294.617" gradientUnits="userSpaceOnUse">
<stop stop-color="#17E1D5"/>
<stop offset="1" stop-color="#29AFCC"/>
</linearGradient>
<linearGradient id="paint10_linear" x1="171.311" y1="174.278" x2="194.93" y2="265.802" gradientUnits="userSpaceOnUse">
<stop stop-color="#BAFFFA"/>
<stop offset="1" stop-color="#BAFFFA" stop-opacity="0"/>
</linearGradient>
<linearGradient id="paint11_linear" x1="180.18" y1="209.76" x2="226.113" y2="282.204" gradientUnits="userSpaceOnUse">
<stop stop-color="#21A1B9" stop-opacity="0"/>
<stop offset="1" stop-color="#21A1B9"/>
</linearGradient>
<radialGradient id="paint12_radial" cx="0" cy="0" r="1" gradientUnits="userSpaceOnUse" gradientTransform="translate(160.759 184.482) rotate(39.1817) scale(63.4319 55.2952)">
<stop stop-color="#20E7DE"/>
<stop offset="1" stop-color="#20E7DE" stop-opacity="0"/>
</radialGradient>
<linearGradient id="paint13_linear" x1="330.602" y1="243.001" x2="330.602" y2="385.318" gradientUnits="userSpaceOnUse">
<stop stop-color="#A5B3D2"/>
<stop offset="1" stop-color="#C3D0E4"/>
</linearGradient>
<linearGradient id="paint14_linear" x1="256.457" y1="239.075" x2="256.457" y2="407.51" gradientUnits="userSpaceOnUse">
<stop stop-color="#48618F"/>
<stop offset="1" stop-color="#526D99"/>
</linearGradient>
<linearGradient id="paint15_linear" x1="335.691" y1="278.513" x2="335.691" y2="357.424" gradientUnits="userSpaceOnUse">
<stop stop-color="#162144"/>
<stop offset="1" stop-color="#3D4769"/>
</linearGradient>
<linearGradient id="paint16_linear" x1="241.962" y1="337.325" x2="241.962" y2="401.513" gradientUnits="userSpaceOnUse">
<stop stop-color="#EEF2FA"/>
<stop offset="1" stop-color="#C3D0E4"/>
</linearGradient>
<linearGradient id="paint17_linear" x1="271.366" y1="324.893" x2="248.836" y2="412.992" gradientUnits="userSpaceOnUse">
<stop stop-color="#9FADD2"/>
<stop offset="1" stop-color="#5A6A93"/>
</linearGradient>
<linearGradient id="paint18_linear" x1="313.327" y1="335.452" x2="345.077" y2="366.202" gradientUnits="userSpaceOnUse">
<stop stop-color="#8692B2"/>
<stop offset="1" stop-color="#EBEFF8"/>
</linearGradient>
<linearGradient id="paint19_linear" x1="220.553" y1="140.676" x2="289.376" y2="255.017" gradientUnits="userSpaceOnUse">
<stop stop-color="#516B97"/>
<stop offset="1" stop-color="#5C78A8"/>
</linearGradient>
<linearGradient id="paint20_linear" x1="340.535" y1="180.438" x2="340.535" y2="218.254" gradientUnits="userSpaceOnUse">
<stop stop-color="#162144"/>
<stop offset="1" stop-color="#3D4769"/>
</linearGradient>
<linearGradient id="paint21_linear" x1="246.107" y1="180.438" x2="246.107" y2="218.254" gradientUnits="userSpaceOnUse">
<stop stop-color="#162144"/>
<stop offset="1" stop-color="#3D4769"/>
</linearGradient>
<linearGradient id="paint22_linear" x1="334.014" y1="365.406" x2="334.014" y2="405.197" gradientUnits="userSpaceOnUse">
<stop stop-color="#95A0BC"/>
<stop offset="1" stop-color="#556085"/>
</linearGradient>
<linearGradient id="paint23_linear" x1="431.259" y1="374.747" x2="406.466" y2="371.627" gradientUnits="userSpaceOnUse">
<stop stop-color="#2D3963"/>
<stop offset="1" stop-color="#2D3963" stop-opacity="0.57"/>
</linearGradient>
<radialGradient id="paint24_radial" cx="0" cy="0" r="1" gradientUnits="userSpaceOnUse" gradientTransform="translate(391.774 357.65) rotate(31.7872) scale(51.7911 47.0011)">
<stop stop-color="#FFEA7A"/>
<stop offset="0.49279" stop-color="#FFCF7A"/>
<stop offset="1" stop-color="#E48E3F"/>
</radialGradient>
<linearGradient id="paint25_linear" x1="417.367" y1="341.32" x2="416.392" y2="376.662" gradientUnits="userSpaceOnUse">
<stop stop-color="#FFE47A"/>
<stop offset="1" stop-color="#FFE47A" stop-opacity="0"/>
</linearGradient>
</defs>
</svg>
