<svg width="709" height="665" viewBox="0 0 709 665" fill="none" xmlns="http://www.w3.org/2000/svg">
<rect x="470.343" y="0.988037" width="275.056" height="275.056" rx="42" transform="rotate(30 470.343 0.988037)" fill="url(#paint0_linear)"/>
<rect x="89.3267" y="144.347" width="32.4152" height="32.4152" rx="8" transform="rotate(-30 89.3267 144.347)" fill="#FF6755"/>
<path d="M70.7688 376.547C109.367 376.547 140.656 345.257 140.656 306.659C140.656 268.062 109.367 236.772 70.7688 236.772C32.171 236.772 0.881348 268.062 0.881348 306.659C0.881348 345.257 32.171 376.547 70.7688 376.547Z" fill="#FFCA62"/>
<path d="M442.17 554.98C449.238 554.98 454.967 549.25 454.967 542.182C454.967 535.114 449.238 529.385 442.17 529.385C435.102 529.385 429.372 535.114 429.372 542.182C429.372 549.25 435.102 554.98 442.17 554.98Z" fill="#17E1D5"/>
<path d="M560.239 527.036C552.22 531.867 541.893 527.054 540.493 517.798C536.973 494.525 535.524 476.085 535.301 452.071C535.214 442.689 544.674 436.279 553.371 439.801C575.59 448.799 592.291 456.693 612.792 468.023C621.013 472.567 621.939 483.971 614.549 489.769C596.487 503.941 581.23 514.39 560.239 527.036Z" fill="url(#paint1_linear)"/>
<g style="mix-blend-mode:multiply">
<g opacity="0.48" filter="url(#filter0_f)">
<ellipse cx="266.411" cy="612.056" rx="133.836" ry="15.7258" fill="url(#paint2_linear)"/>
</g>
<g opacity="0.24" filter="url(#filter1_f)">
<ellipse cx="267.952" cy="611.037" rx="118.999" ry="11.8323" fill="#395590"/>
</g>
</g>
<path d="M506.664 366.497C506.664 366.497 508.822 381.46 488.356 384.078C467.89 386.696 456.802 374.396 456.802 374.396L506.664 366.497Z" fill="#0F7FE6"/>
<g style="mix-blend-mode:multiply" filter="url(#filter2_f)">
<path d="M135.33 607.234C127.555 561.595 116.185 508.29 144.852 421.327C165.945 357.195 176.489 336.504 171.657 230.729C170.858 213.234 161.961 174.862 159.393 167.217C156.824 159.572 158.868 155.735 166.718 159.756C177.235 165.196 184.303 170.352 191.251 176.28C191.916 176.908 192.973 176.695 192.63 175.013C189.725 165.174 180.845 125.035 179.873 108.424C179.593 102.3 185.499 103.614 189.19 104.382C205.522 107.517 224.452 114.441 247.487 130.264C248.429 130.89 249.793 130.766 249.175 128.653C245.884 116.625 232.768 77.2902 230.059 66.5735C228.791 61.6796 233.631 58.3015 238.337 60.826C259.888 72.224 285.121 87.1413 311.308 134.526C337.483 186.367 355.631 256.855 355.687 343.843C355.744 430.832 348.817 507.835 348.742 540.493C348.543 573.291 359.468 599.459 365.553 611.29C321.605 621.094 180.969 618.729 135.33 607.234Z" fill="#395590" fill-opacity="0.3"/>
</g>
<path d="M459.701 396.317C459.701 396.317 466.296 436.228 449.597 466.495C432.898 496.761 403.794 506.41 371.109 480.051C338.424 453.692 366.189 417.844 379.192 435.065C392.196 452.286 398.533 458.056 409.228 457.665C432.703 456.883 431.921 399.573 431.921 399.573L459.701 396.317Z" fill="#0F7FE6"/>
<path d="M430.969 417.349L451.528 423.495C452.283 423.721 453.095 423.64 453.791 423.272L460.922 419.497C460.983 417.263 461.001 415.664 460.963 413.211C454.31 408.945 431.785 412.515 431.399 412.515C431.318 413.549 431.204 414.892 430.969 417.349Z" fill="#055DC7"/>
<path opacity="0.67" d="M385.57 489.647C387.413 491.234 394.912 493.422 398.432 494.318C398.56 488.303 404.574 467.251 409.181 457.653C400.159 458.165 394.048 452.598 389.248 447.415C387.286 460.682 383.727 488.06 385.57 489.647Z" fill="#004CB9"/>
<path d="M158.579 612.466C153.972 611.91 150.324 608.352 149.739 603.749C141.416 538.233 162.786 468.054 186.207 408.175C216.361 330.924 236.457 243.728 212.328 161.513C210.111 153.959 212.328 150.316 219.986 154.578C230.244 160.34 237.07 165.673 243.74 171.75C244.375 172.391 245.441 172.231 245.175 170.578C242.722 160.873 235.683 121.415 235.47 105.205C235.47 99.2326 241.31 100.774 244.961 101.685C261.134 105.463 279.728 113.043 302.017 129.466C302.93 130.118 304.298 130.057 303.776 127.973C301.037 116.121 289.73 77.2561 287.513 66.7058C286.47 61.8866 291.459 58.8141 296.045 61.4802C317.054 73.5312 341.58 89.1709 365.577 136.452C389.359 188.068 404.271 257.476 400.359 342.138C396.446 426.801 386.012 501.434 384.447 533.215C382.936 561.652 382.358 578.07 387.695 602.323C388.793 607.314 385.59 612.292 380.521 612.944C323.106 620.326 221.151 620.017 158.579 612.466Z" fill="url(#paint3_linear)"/>
<path fill-rule="evenodd" clip-rule="evenodd" d="M189.792 409.574L189.791 409.577C166.398 469.385 145.366 538.779 153.557 603.264C153.915 606.082 156.149 608.296 159.04 608.645C221.329 616.162 322.963 616.464 380.03 609.126C382.663 608.788 384.592 606.13 383.936 603.15C378.479 578.353 379.091 561.486 380.604 533.019C381.194 521.043 383.03 503.05 385.29 480.904C386.053 473.428 386.865 465.478 387.693 457.127C390.983 423.938 394.562 384.192 396.514 341.96C400.4 257.873 385.588 189.113 362.112 138.129C350.292 114.856 338.417 99.5062 327.02 88.5266C315.609 77.5344 304.556 70.7994 294.129 64.8188L294.11 64.8075C292.923 64.1175 292.052 64.3388 291.681 64.5663C291.485 64.6868 291.368 64.8335 291.303 64.9865C291.243 65.1289 291.17 65.4094 291.275 65.8914L291.279 65.9143C292.357 71.0406 295.693 83.2384 299.16 95.8295C299.397 96.6914 299.635 97.555 299.873 98.4178C303.064 110.005 306.219 121.456 307.52 127.078C307.726 127.919 307.856 128.976 307.593 130.075C307.294 131.322 306.494 132.524 305.146 133.193C303.935 133.795 302.743 133.736 301.942 133.564C301.113 133.386 300.379 133.026 299.782 132.6C299.765 132.588 299.749 132.577 299.734 132.565C277.844 116.436 259.725 109.086 244.086 105.433C244.072 105.43 244.059 105.427 244.045 105.424L244.029 105.42L243.923 105.393C243.011 105.165 242.149 104.95 241.296 104.806C240.402 104.655 239.763 104.628 239.351 104.679C239.334 104.797 239.32 104.961 239.319 105.182C239.425 112.976 241.19 126.618 243.283 139.724C245.373 152.808 247.724 164.958 248.906 169.635C248.934 169.744 248.957 169.854 248.975 169.965C249.186 171.277 249.178 174.051 246.605 175.421C244.302 176.648 242.146 175.536 241.114 174.564C234.635 168.664 228.051 163.523 218.107 157.937C216.862 157.244 215.961 156.895 215.361 156.734C215.358 157.552 215.536 158.778 216.021 160.429C240.514 243.882 220.045 332.072 189.792 409.574ZM219.986 154.578C228.797 159.527 235.075 164.159 240.898 169.219C241.159 169.445 241.418 169.672 241.677 169.9C242.072 170.249 242.465 170.599 242.858 170.952C242.919 171.007 242.98 171.062 243.042 171.117C243.275 171.327 243.508 171.539 243.74 171.75C244.375 172.391 245.441 172.231 245.175 170.578C245.158 170.513 245.142 170.446 245.125 170.379C245.115 170.34 245.106 170.302 245.096 170.262C244.952 169.679 244.794 169.002 244.623 168.241C244.546 167.896 244.466 167.534 244.384 167.156C241.476 153.76 235.664 119.913 235.47 105.205C235.47 99.3128 241.154 100.734 244.813 101.648L244.961 101.685C260.593 105.336 278.487 112.54 299.792 127.848C299.913 127.935 300.034 128.021 300.155 128.109C300.399 128.285 300.644 128.462 300.889 128.641C300.908 128.654 300.927 128.668 300.946 128.682C301.302 128.941 301.659 129.203 302.017 129.466C302.93 130.118 304.298 130.057 303.776 127.973C303.726 127.756 303.673 127.53 303.617 127.294C303.613 127.277 303.609 127.259 303.604 127.241C303.511 126.85 303.411 126.435 303.303 125.998C303.267 125.854 303.231 125.707 303.194 125.558C301.689 119.506 298.945 109.543 296.145 99.3801C292.468 86.0307 288.696 72.3362 287.513 66.7058C286.47 61.8866 291.459 58.8141 296.045 61.4802C317.054 73.5312 341.58 89.1709 365.577 136.452C389.359 188.068 404.271 257.476 400.359 342.138C397.907 395.19 392.895 444.305 389.108 481.404C386.852 503.509 385.032 521.349 384.447 533.215C382.936 561.651 382.358 578.07 387.695 602.323C388.793 607.314 385.59 612.292 380.521 612.944C323.106 620.326 221.151 620.017 158.579 612.466C153.972 611.91 150.324 608.352 149.739 603.749C141.416 538.233 162.786 468.054 186.207 408.175C216.361 330.924 236.457 243.728 212.328 161.513C210.111 153.959 212.328 150.316 219.986 154.578ZM300.056 128.969C300.055 128.969 300.053 128.961 300.051 128.946C300.055 128.962 300.056 128.97 300.056 128.969ZM239.412 104.426C239.413 104.426 239.41 104.432 239.404 104.444C239.409 104.431 239.412 104.425 239.412 104.426ZM239.113 104.726C239.107 104.728 239.105 104.729 239.104 104.729C239.104 104.729 239.107 104.728 239.113 104.726Z" fill="url(#paint4_radial)"/>
<path fill-rule="evenodd" clip-rule="evenodd" d="M189.792 409.574L189.791 409.577C166.398 469.385 145.366 538.779 153.557 603.264C153.915 606.082 156.149 608.296 159.04 608.645C221.329 616.162 322.963 616.464 380.03 609.126C382.663 608.788 384.592 606.13 383.936 603.15C378.479 578.353 379.091 561.486 380.604 533.019C381.194 521.043 383.03 503.05 385.29 480.904C386.053 473.428 386.865 465.478 387.693 457.127C390.983 423.938 394.562 384.192 396.514 341.96C400.4 257.873 385.588 189.113 362.112 138.129C350.292 114.856 338.417 99.5062 327.02 88.5266C315.609 77.5344 304.556 70.7994 294.129 64.8188L294.11 64.8075C292.923 64.1175 292.052 64.3388 291.681 64.5663C291.485 64.6868 291.368 64.8335 291.303 64.9865C291.243 65.1289 291.17 65.4094 291.275 65.8914L291.279 65.9143C292.357 71.0406 295.693 83.2384 299.16 95.8295C299.397 96.6914 299.635 97.555 299.873 98.4178C303.064 110.005 306.219 121.456 307.52 127.078C307.726 127.919 307.856 128.976 307.593 130.075C307.294 131.322 306.494 132.524 305.146 133.193C303.935 133.795 302.743 133.736 301.942 133.564C301.113 133.386 300.379 133.026 299.782 132.6C299.765 132.588 299.749 132.577 299.734 132.565C277.844 116.436 259.725 109.086 244.086 105.433C244.072 105.43 244.059 105.427 244.045 105.424L244.029 105.42L243.923 105.393C243.011 105.165 242.149 104.95 241.296 104.806C240.402 104.655 239.763 104.628 239.351 104.679C239.334 104.797 239.32 104.961 239.319 105.182C239.425 112.976 241.19 126.618 243.283 139.724C245.373 152.808 247.724 164.958 248.906 169.635C248.934 169.744 248.957 169.854 248.975 169.965C249.186 171.277 249.178 174.051 246.605 175.421C244.302 176.648 242.146 175.536 241.114 174.564C234.635 168.664 228.051 163.523 218.107 157.937C216.862 157.244 215.961 156.895 215.361 156.734C215.358 157.552 215.536 158.778 216.021 160.429C240.514 243.882 220.045 332.072 189.792 409.574ZM219.986 154.578C228.797 159.527 235.075 164.159 240.898 169.219C241.159 169.445 241.418 169.672 241.677 169.9C242.072 170.249 242.465 170.599 242.858 170.952C242.919 171.007 242.98 171.062 243.042 171.117C243.275 171.327 243.508 171.539 243.74 171.75C244.375 172.391 245.441 172.231 245.175 170.578C245.158 170.513 245.142 170.446 245.125 170.379C245.115 170.34 245.106 170.302 245.096 170.262C244.952 169.679 244.794 169.002 244.623 168.241C244.546 167.896 244.466 167.534 244.384 167.156C241.476 153.76 235.664 119.913 235.47 105.205C235.47 99.3128 241.154 100.734 244.813 101.648L244.961 101.685C260.593 105.336 278.487 112.54 299.792 127.848C299.913 127.935 300.034 128.021 300.155 128.109C300.399 128.285 300.644 128.462 300.889 128.641C300.908 128.654 300.927 128.668 300.946 128.682C301.302 128.941 301.659 129.203 302.017 129.466C302.93 130.118 304.298 130.057 303.776 127.973C303.726 127.756 303.673 127.53 303.617 127.294C303.613 127.277 303.609 127.259 303.604 127.241C303.511 126.85 303.411 126.435 303.303 125.998C303.267 125.854 303.231 125.707 303.194 125.558C301.689 119.506 298.945 109.543 296.145 99.3801C292.468 86.0307 288.696 72.3362 287.513 66.7058C286.47 61.8866 291.459 58.8141 296.045 61.4802C317.054 73.5312 341.58 89.1709 365.577 136.452C389.359 188.068 404.271 257.476 400.359 342.138C397.907 395.19 392.895 444.305 389.108 481.404C386.852 503.509 385.032 521.349 384.447 533.215C382.936 561.651 382.358 578.07 387.695 602.323C388.793 607.314 385.59 612.292 380.521 612.944C323.106 620.326 221.151 620.017 158.579 612.466C153.972 611.91 150.324 608.352 149.739 603.749C141.416 538.233 162.786 468.054 186.207 408.175C216.361 330.924 236.457 243.728 212.328 161.513C210.111 153.959 212.328 150.316 219.986 154.578ZM300.056 128.969C300.055 128.969 300.053 128.961 300.051 128.946C300.055 128.962 300.056 128.97 300.056 128.969ZM239.412 104.426C239.413 104.426 239.41 104.432 239.404 104.444C239.409 104.431 239.412 104.425 239.412 104.426ZM239.113 104.726C239.107 104.728 239.105 104.729 239.104 104.729C239.104 104.729 239.107 104.728 239.113 104.726Z" fill="url(#paint5_radial)"/>
<path d="M380.236 202.327C398.358 282.799 394.918 426.419 356.957 429.561C318.996 432.703 246.518 284.327 246.93 215.646C247.422 133.903 365.865 138.51 380.236 202.327Z" fill="url(#paint6_linear)" fill-opacity="0.18"/>
<path fill-rule="evenodd" clip-rule="evenodd" d="M398.58 264.823C400.919 288.939 401.625 314.74 400.359 342.138C399.315 364.728 397.806 386.604 396.126 407.142L364.258 397.796C363.512 397.577 362.992 396.9 362.975 396.122L361.099 314.307C361.099 314.307 359.479 274.044 388.103 267.792L388.683 267.628C390.923 266.992 394.322 266.028 398.58 264.823Z" fill="#055DC7"/>
<g style="mix-blend-mode:multiply" opacity="0.65">
<path d="M154.879 564.484C154.447 580.759 155.51 593.631 156.22 600.104C156.517 602.81 158.705 604.887 161.412 605.171C243.651 613.781 294.483 615.612 376.23 606.548C379.754 606.157 382.165 602.797 381.517 599.312C375.881 568.985 377.584 543.427 379.026 516.525C279.203 599.026 235.681 341.942 226.733 237.349C223.093 335.787 216.279 348.197 194.421 403.679C164.723 478.91 155.829 527.339 154.879 564.484Z" fill="url(#paint7_linear)" fill-opacity="0.3"/>
</g>
<path d="M364.203 311.516L473.853 273.458L558.678 290.388L452.664 332.644L364.203 311.516Z" fill="url(#paint8_linear)"/>
<path d="M389.098 310.257L474.342 280.664L534.133 292.627L452.105 325.298L389.098 310.257Z" fill="url(#paint9_linear)"/>
<path d="M452.659 332.641L452.863 421.394L367.116 396.245C366.661 396.112 366.345 395.7 366.334 395.226L364.417 311.549L452.659 332.641Z" fill="url(#paint10_linear)"/>
<path fill-rule="evenodd" clip-rule="evenodd" d="M450.32 334.492L366.829 314.535L368.656 394.255L450.512 418.262L450.32 334.492ZM452.659 332.641L364.417 311.549L366.334 395.226C366.345 395.7 366.661 396.112 367.116 396.245L452.863 421.394L452.659 332.641Z" fill="url(#paint11_linear)"/>
<path d="M377.025 388.186C376.798 388.119 376.641 387.913 376.635 387.676L375.218 324.897L441.849 340.795C442.093 340.854 442.266 341.072 442.267 341.324L442.367 406.705C442.367 407.069 442.018 407.331 441.669 407.228L377.025 388.186Z" fill="#3B566B"/>
<path d="M379.981 386.045C379.753 385.979 379.596 385.773 379.59 385.536L378.173 325.61L441.849 340.795C442.094 340.854 442.266 341.072 442.267 341.324L442.368 404.377L379.981 386.045Z" fill="#7C4E3D"/>
<path d="M379.981 386.045C379.753 385.979 379.596 385.773 379.59 385.536L378.173 325.61L441.849 340.795C442.094 340.854 442.266 341.072 442.267 341.324L442.368 404.377L379.981 386.045Z" fill="#6F4435"/>
<path fill-rule="evenodd" clip-rule="evenodd" d="M442.366 402.943L442.34 387.204L379.255 371.372L379.575 384.916L442.366 402.943ZM442.336 384.787L379.198 368.941L378.882 355.581L442.315 371.501L442.336 384.787ZM442.311 369.084L442.29 355.798L378.508 339.79L378.824 353.151L442.311 369.084ZM442.286 353.381L378.451 337.36L378.173 325.61L441.849 340.795C442.094 340.854 442.266 341.072 442.267 341.324L442.286 353.381Z" fill="url(#paint12_linear)"/>
<g style="mix-blend-mode:multiply" opacity="0.12">
<path d="M428.555 358.774C418.493 342.598 400.767 330.998 400.767 330.998L441.849 340.796C442.094 340.854 442.266 341.072 442.267 341.324L442.368 404.377C442.368 404.377 438.617 374.95 428.555 358.774Z" fill="#6C4334"/>
</g>
<path d="M452.659 332.641L452.863 421.394L556.397 371.1C556.58 371.011 556.699 370.826 556.703 370.622L558.428 290.456L452.659 332.641Z" fill="url(#paint13_linear)"/>
<path fill-rule="evenodd" clip-rule="evenodd" d="M452.863 421.394L556.397 371.1C556.58 371.011 556.699 370.826 556.703 370.622L558.428 290.456L452.659 332.641L452.863 421.394ZM556.009 293.944L455.006 334.228L455.198 417.654L554.384 369.473L556.009 293.944Z" fill="url(#paint14_linear)"/>
<path d="M463.499 339.536C463.291 339.618 463.155 339.819 463.156 340.043L463.356 403.817C463.357 404.218 463.777 404.48 464.137 404.304L502.079 385.879C502.266 385.788 502.385 385.598 502.385 385.389V324.884C502.385 324.5 501.997 324.236 501.64 324.378L463.499 339.536Z" fill="#456E81"/>
<path d="M463.499 339.535C463.291 339.618 463.155 339.819 463.156 340.042L463.358 401.218L499.226 383.739C499.413 383.647 499.532 383.458 499.532 383.249V325.203L463.499 339.535Z" fill="#6E4435"/>
<path d="M512.065 380.172C512.065 380.574 512.486 380.837 512.847 380.662L546.105 364.477C546.289 364.387 546.407 364.203 546.411 363.999L547.61 306.867C547.618 306.477 547.226 306.206 546.865 306.35L512.408 320.073C512.201 320.156 512.065 320.356 512.065 320.579V380.172Z" fill="#456E81"/>
<path d="M512.065 377.068L543.149 362.031C543.333 361.942 543.452 361.757 543.456 361.552L544.57 307.269L512.408 320.073C512.201 320.156 512.065 320.356 512.065 320.579V377.068Z" fill="#6E4435"/>
<path fill-rule="evenodd" clip-rule="evenodd" d="M543.149 362.031L512.065 377.068V364.078L543.701 349.592L543.456 361.552C543.452 361.757 543.333 361.942 543.149 362.031ZM543.742 347.64L512.065 362.145V348.226L544.008 334.679L543.742 347.64ZM512.065 331.189V346.317L544.047 332.754L544.339 318.536L512.065 331.189ZM512.065 329.301V320.579C512.065 320.356 512.201 320.156 512.408 320.073L544.57 307.269L544.378 316.633L512.065 329.301Z" fill="url(#paint15_linear)"/>
<path fill-rule="evenodd" clip-rule="evenodd" d="M499.532 334.215V325.203L463.499 339.535C463.291 339.618 463.155 339.819 463.156 340.042L463.184 348.465L499.532 334.215ZM463.19 350.351L463.245 367.022L499.532 351.632V336.102L463.19 350.351ZM463.251 368.928L499.532 353.541V367.884L463.303 384.473L463.251 368.928ZM463.309 386.403L463.358 401.218L499.226 383.739C499.413 383.647 499.532 383.458 499.532 383.249V369.817L463.309 386.403Z" fill="url(#paint16_linear)"/>
<g style="mix-blend-mode:multiply" opacity="0.12">
<path d="M463.155 339.672L463.338 395.434C463.338 395.434 466.332 375.91 476.109 359.738C485.885 343.567 499.533 337.895 499.533 337.895L499.532 325.203L463.155 339.672Z" fill="#6C4334"/>
</g>
<g style="mix-blend-mode:multiply" opacity="0.12">
<path d="M512.062 334.51C512.062 334.51 521.809 333.577 530.263 337.348C538.717 341.119 543.765 346.167 543.765 346.167L544.57 307.269L512.408 320.074C512.201 320.156 512.065 320.356 512.065 320.579L512.062 334.51Z" fill="#6C4334"/>
</g>
<path d="M459.724 319.967L545.656 285.756C544.129 269.67 533.744 254.397 519.795 245.132C510.53 238.921 496.683 237.699 494.341 238.31C471.433 244.521 438.037 253.888 415.332 260.302C438.342 265.088 454.735 293.087 459.724 319.967Z" fill="url(#paint17_linear)"/>
<path fill-rule="evenodd" clip-rule="evenodd" d="M545.903 269.689L453.392 305.601L452.572 303.489L545.083 267.578L545.903 269.689Z" fill="#663E30"/>
<path fill-rule="evenodd" clip-rule="evenodd" d="M536.034 255.154L442.743 290.187L441.947 288.066L535.238 253.033L536.034 255.154Z" fill="#663E30"/>
<path fill-rule="evenodd" clip-rule="evenodd" d="M527.258 241.012L432.678 271.283L431.988 269.126L526.567 238.856L527.258 241.012Z" fill="#663E30"/>
<path d="M547.723 283.836C547.723 283.836 547.693 266.615 529.57 248.797C514.704 234.237 497.294 235.357 495.563 235.459C493.832 235.561 491.169 237.249 490.762 239.286C492.059 238.928 494.507 238.28 494.507 238.28C497.317 237.951 512.057 238.616 524.071 248.288C536.086 257.961 542.913 271.302 544.847 284.945C545.724 284.606 547.723 283.836 547.723 283.836Z" fill="url(#paint18_linear)"/>
<path d="M504.523 233.118C501.774 233.831 498.164 234.614 495.008 235.531C501.461 235.185 511.955 236.172 521.424 242.485C535.375 251.819 545.764 267.089 547.618 283.126C547.665 283.538 547.427 283.928 547.042 284.081L461.488 318.123C460.944 318.34 460.338 318.007 460.225 317.432C455.107 291.306 439.457 264.494 417.47 258.47C416.147 258.063 414.619 258.165 413.296 258.47C399.245 262.441 389.573 265.19 389.573 265.19C422.459 260.303 442.52 282.86 452.8 332.796L558.485 290.746C558.485 249.51 523.562 226.703 504.523 233.118Z" fill="url(#paint19_linear)"/>
<path fill-rule="evenodd" clip-rule="evenodd" d="M505.122 235.065L505.07 235.079C491.925 238.749 478.776 242.395 465.629 246.04C445.376 251.656 425.128 257.27 404.905 262.968C415.054 264.393 423.796 269.081 431.16 277.053C441.601 288.356 449.135 306.11 454.294 330.01L556.435 289.37C556.058 270.023 547.737 255.038 537.277 245.573C526.459 235.783 513.72 232.168 505.173 235.048L505.122 235.065ZM558.485 290.746L452.8 332.796C452.661 332.116 452.519 331.442 452.375 330.773C443.054 287.297 426.06 265.208 399.291 264.552C396.184 264.476 392.946 264.689 389.573 265.19C392.724 264.294 395.876 263.401 399.028 262.51C421.027 256.294 443.061 250.185 465.094 244.075C478.239 240.43 491.384 236.786 504.523 233.118C523.562 226.703 558.485 249.51 558.485 290.746Z" fill="url(#paint20_linear)"/>
<path d="M451.653 331.567L365.541 310.983C365.538 310.652 365.537 310.209 365.546 309.669C365.565 308.374 365.635 306.52 365.834 304.293C366.232 299.835 367.147 293.909 369.208 287.997C371.269 282.082 374.459 276.232 379.376 271.866C384.273 267.517 390.937 264.591 400.059 264.591C420.697 264.591 433.654 281.388 441.506 298.614C445.414 307.189 448.01 315.773 449.629 322.22C450.438 325.441 451.002 328.125 451.363 330.001C451.481 330.611 451.577 331.137 451.653 331.567Z" fill="#5A8A9F" stroke="url(#paint21_linear)" stroke-width="1.85714" stroke-miterlimit="10"/>
<path d="M375.42 303.575C376.235 296.142 378.679 286.164 384.584 280.055C388.453 276.084 393.442 274.15 400.06 274.15C416.242 274.114 424.088 283.619 432.743 302.251C435.126 307.383 436.931 312.516 438.382 317.202C438.593 317.886 437.979 318.537 437.283 318.37L375.42 303.575Z" fill="url(#paint22_linear)"/>
<path d="M378.698 304.474C379.512 297.042 381.956 287.064 387.861 280.955C391.73 276.984 396.719 275.05 403.337 275.05C416.37 275.05 424.088 283.619 432.743 302.251C435.126 307.384 436.932 312.518 438.383 317.205C438.594 317.889 437.981 318.538 437.285 318.373L378.698 304.474Z" fill="#865442"/>
<path fill-rule="evenodd" clip-rule="evenodd" d="M417.797 313.769C421.78 308.125 423.392 300.306 421.573 292.342C420.039 285.629 416.354 280.067 411.617 276.476C419.961 279.609 426.043 287.977 432.674 302.254C435.058 307.387 436.863 312.521 438.314 317.208C438.526 317.891 437.913 318.541 437.217 318.376L417.797 313.769ZM380.346 304.884L378.629 304.477C378.77 303.19 378.96 301.827 379.209 300.421C379.297 300.929 379.4 301.439 379.516 301.949C379.746 302.954 380.024 303.934 380.346 304.884Z" fill="#6C4334"/>
<path opacity="0.45" d="M450.017 400.297C441.962 401.433 430.746 410.787 429.338 412.815L400.248 404.298C402.814 397.281 409.418 379.674 415.191 367.069C422.408 351.313 438.127 345.599 438.403 350.716C438.646 355.223 430.83 360.724 429.762 365.701C429.095 368.805 432.27 368.753 447.305 366.829C462.339 364.904 476.785 344.101 480.874 347.468C484.963 350.836 464.624 371.038 468.834 369.234C473.044 367.43 485.369 346.315 489.699 351.728C494.029 357.14 467.27 378.375 472.322 376.09C477.373 373.804 492.095 355.885 494.02 361.779C495.559 366.493 481.703 379.337 475.81 384.268C478.777 382.384 487.884 376.043 490.097 373.637C492.864 370.631 500.282 370.101 491.967 380.134C482.621 391.41 466.191 398.014 450.017 400.297Z" fill="#2E416E"/>
<path d="M322.196 253.498C283.99 256.033 255.091 241.488 254.875 225.4C254.658 209.312 280.526 186.171 316.784 183.086C353.042 180.001 373.716 198.721 374.148 215.703C374.579 232.684 360.402 250.964 322.196 253.498Z" fill="#1E2F58"/>
<path d="M322.958 253.508C285.312 255.961 256.838 241.884 256.625 226.314C256.412 210.743 281.9 188.348 317.626 185.362C353.352 182.376 373.723 200.494 374.148 216.929C374.573 233.364 360.604 251.055 322.958 253.508Z" fill="#283D6B"/>
<path d="M341.86 233.805C352.35 233.122 360.929 231.208 367.815 228.451C368.648 228.117 369.479 228.933 369.076 229.735C363.457 240.931 349.152 250.493 322.672 252.218C286.45 254.579 259.053 241.034 258.848 226.052C258.816 223.704 259.391 221.194 260.517 218.621C263.776 211.17 281.126 218.609 288.053 222.871C303.257 232.226 331.29 234.494 341.86 233.805Z" fill="#1E2F58"/>
<path d="M332.568 212.678C313.812 209.784 300.807 201.8 301.856 196.116C302.905 190.431 317.141 184.849 334.989 187.356C352.837 189.863 361.545 198.501 360.536 204.522C359.527 210.542 351.323 215.572 332.568 212.678Z" fill="#31477A"/>
<path fill-rule="evenodd" clip-rule="evenodd" d="M395.631 413.097C393.491 438.462 391.125 461.639 389.108 481.405C388.726 485.149 388.356 488.772 388.003 492.264C370.536 522.196 350.748 545.75 310.107 545.75C258.488 545.869 224.037 469.341 212.634 444.009C211.533 441.563 210.646 439.594 209.98 438.218C195.895 409.824 229.495 394.702 240.189 417.365C240.549 418.127 240.931 418.941 241.336 419.802C252.975 444.564 283.089 508.629 316.237 508.629C344.189 508.629 362.782 472.99 376.541 446.616C379.666 440.626 382.542 435.113 385.222 430.605C388.809 424.635 392.34 418.664 395.631 413.097Z" fill="url(#paint23_linear)" fill-opacity="0.62"/>
<path d="M206.944 433.313C214.508 448.943 253.504 533.476 310.107 533.345C380.013 533.345 385.23 461.838 426.052 409.868C430.877 403.746 431.008 395.02 426.182 388.768C418.748 379.129 403.88 379.911 397.62 390.461C393.055 398.146 387.708 407.263 382.23 416.381C367.753 440.738 350.538 496.224 316.237 496.224C281.936 496.224 250.244 434.486 239.549 411.822C213.088 363.782 192.858 404.919 206.944 433.313Z" fill="url(#paint24_linear)"/>
<path d="M394.49 395.671C405.315 375.092 417.314 356.205 426.835 350.735C432.573 347.348 436.486 347.609 437.79 349.172C439.225 350.865 438.312 353.21 435.442 355.424C431.921 358.42 427.487 361.546 426.965 362.457C426.313 363.369 427.226 363.499 427.747 363.499C458.396 365.974 468.83 353.21 475.351 347.088C478.09 344.222 482.785 346.306 481.09 350.214C477.96 355.945 468.048 364.281 464.005 367.016C463.744 367.277 463.613 367.667 463.874 367.928C464.005 368.188 464.396 368.319 464.657 368.188C470.004 365.453 480.162 355.761 483.683 351.463C487.205 347.165 491.9 351.203 489.552 355.501C487.074 359.929 474.699 370.403 467.787 374.571C467.396 374.831 467.265 375.222 467.526 375.613C467.787 375.873 468.178 376.003 468.439 375.873C476.525 372.356 484.049 364.454 488.353 360.156C491.613 357.03 496.178 360.807 493.178 365.366C489.266 371.357 478.09 379.65 471.96 381.995C471.439 382.125 471.308 382.776 471.569 383.167C471.83 383.428 472.091 383.558 472.482 383.428C477.308 381.604 487.153 374.804 490.406 371.764C493.658 368.725 497.633 372.001 494.579 375.802C491.525 379.603 485.002 387.465 470.395 393.327C450.31 401.532 437.268 395.28 423.183 413.385C410.793 429.406 388.621 406.742 394.49 395.671Z" fill="#2496FF"/>
<path d="M453.891 362.71C445.599 365.94 430.591 365.101 424.123 364.277C429.807 366.165 443.587 368.64 454.433 365.603C467.991 361.806 477.429 353.108 479.441 349.755C480.797 347.495 478.175 345.597 476.066 347.646C474.629 349.041 473.837 349.875 471.728 351.803L471.684 351.843C469.545 353.799 464.185 358.7 453.891 362.71Z" fill="url(#paint25_linear)"/>
<path d="M480.922 356.009C479.022 358.144 473.234 363.915 464.858 369.098C474.74 365.241 483.297 360.119 488.384 353.18C489.942 351.054 486.699 349.174 484.811 351.428C483.525 352.964 482.822 353.875 480.922 356.009Z" fill="url(#paint26_linear)"/>
<path d="M491.583 362.349C493.141 360.223 490.796 358.574 488.909 360.828C483.488 367.302 476.91 372.442 469.196 376.811C479.26 372.201 486.495 369.288 491.583 362.349Z" fill="url(#paint27_linear)"/>
<path d="M493.27 372.156C494.102 371.093 492.273 370.571 491.206 371.614C486.039 376.66 481.309 379.673 473.445 383.801C481.308 381.571 489.082 377.504 493.27 372.156Z" fill="url(#paint28_linear)"/>
<path opacity="0.59" d="M424.527 363.258C425.747 363.337 426.715 363.438 427.612 363.509C425.82 362.784 431.817 358.402 434.345 356.38C436.872 354.357 439.719 351.907 437.918 349.314C438.462 351.531 433.212 354.914 430.295 356.781C427.379 358.648 422.099 363.1 424.527 363.258Z" fill="#0476DF"/>
<path d="M293.781 227.822C290.662 227.976 288.017 225.744 287.873 222.837C287.73 219.93 290.142 217.448 293.261 217.294C296.38 217.14 299.025 219.372 299.169 222.279C299.312 225.186 296.9 227.668 293.781 227.822Z" fill="#141D42"/>
<path d="M294.365 227.811C291.567 227.949 289.187 225.79 289.048 222.988C288.91 220.186 291.066 217.803 293.864 217.664C296.662 217.526 299.043 219.686 299.181 222.488C299.32 225.29 297.164 227.673 294.365 227.811Z" fill="#40C7CF"/>
<path d="M297.553 222.846C296.844 223.462 295.521 223.1 294.599 222.038C293.676 220.976 293.504 219.615 294.214 218.999C294.923 218.383 296.246 218.745 297.168 219.807C298.091 220.869 298.263 222.23 297.553 222.846Z" fill="#45E4DA"/>
<path d="M296.941 221.272C296.683 221.496 296.18 221.34 295.818 220.923C295.456 220.505 295.372 219.986 295.63 219.762C295.888 219.538 296.39 219.694 296.752 220.111C297.114 220.529 297.199 221.048 296.941 221.272Z" fill="#B4FFFA"/>
<path opacity="0.61" d="M292.831 220.303C292.697 219.731 292.078 219.252 291.62 219.62C290.657 220.394 290.065 221.605 290.131 222.935C290.239 225.138 292.111 226.836 294.312 226.728C295.38 226.675 296.329 226.206 297.011 225.486C297.444 225.028 296.902 224.305 296.302 224.114C295.524 223.868 294.706 223.325 294.023 222.538C293.408 221.829 293.004 221.041 292.831 220.303Z" fill="#398596"/>
<path d="M364.036 220.129C361.315 220.619 358.786 218.686 358.386 215.811C357.987 212.936 359.868 210.208 362.588 209.718C365.308 209.229 367.838 211.162 368.237 214.037C368.637 216.912 366.756 219.64 364.036 220.129Z" fill="#141D42"/>
<path d="M364.547 220.055C362.106 220.495 359.816 218.605 359.43 215.834C359.045 213.064 360.711 210.461 363.152 210.022C365.592 209.583 367.883 211.472 368.268 214.243C368.653 217.014 366.987 219.616 364.547 220.055Z" fill="#40C7CF"/>
<path d="M366.874 214.776C366.31 215.465 365.116 215.248 364.207 214.291C363.298 213.334 363.019 212 363.583 211.311C364.148 210.622 365.342 210.839 366.25 211.796C367.159 212.752 367.438 214.086 366.874 214.776Z" fill="#45E4DA"/>
<path d="M366.189 213.277C365.984 213.527 365.528 213.426 365.171 213.05C364.815 212.675 364.692 212.167 364.897 211.917C365.102 211.666 365.557 211.768 365.914 212.143C366.271 212.519 366.394 213.026 366.189 213.277Z" fill="#B4FFFA"/>
<path opacity="0.61" d="M362.494 212.757C362.323 212.202 361.735 211.793 361.368 212.208C360.596 213.082 360.191 214.349 360.374 215.664C360.677 217.843 362.479 219.33 364.398 218.984C365.329 218.816 366.117 218.248 366.647 217.458C366.984 216.956 366.441 216.296 365.897 216.171C365.191 216.01 364.423 215.559 363.75 214.85C363.144 214.212 362.715 213.472 362.494 212.757Z" fill="#398596"/>
<defs>
<filter id="filter0_f" x="112.575" y="576.33" width="307.673" height="71.4517" filterUnits="userSpaceOnUse" color-interpolation-filters="sRGB">
<feFlood flood-opacity="0" result="BackgroundImageFix"/>
<feBlend mode="normal" in="SourceGraphic" in2="BackgroundImageFix" result="shape"/>
<feGaussianBlur stdDeviation="10" result="effect1_foregroundBlur"/>
</filter>
<filter id="filter1_f" x="143.953" y="594.205" width="247.998" height="33.6647" filterUnits="userSpaceOnUse" color-interpolation-filters="sRGB">
<feFlood flood-opacity="0" result="BackgroundImageFix"/>
<feBlend mode="normal" in="SourceGraphic" in2="BackgroundImageFix" result="shape"/>
<feGaussianBlur stdDeviation="2.5" result="effect1_foregroundBlur"/>
</filter>
<filter id="filter2_f" x="65.0239" y="15.0264" width="343.629" height="649.923" filterUnits="userSpaceOnUse" color-interpolation-filters="sRGB">
<feFlood flood-opacity="0" result="BackgroundImageFix"/>
<feBlend mode="normal" in="SourceGraphic" in2="BackgroundImageFix" result="shape"/>
<feGaussianBlur stdDeviation="20" result="effect1_foregroundBlur"/>
</filter>
<linearGradient id="paint0_linear" x1="554.354" y1="-21.4304" x2="727.034" y2="277.661" gradientUnits="userSpaceOnUse">
<stop stop-color="#49A9E0"/>
<stop offset="1" stop-color="#55EAE9"/>
</linearGradient>
<linearGradient id="paint1_linear" x1="547.911" y1="527.713" x2="583.511" y2="452.935" gradientUnits="userSpaceOnUse">
<stop stop-color="#FF6755"/>
<stop offset="1" stop-color="#F59D6F"/>
</linearGradient>
<linearGradient id="paint2_linear" x1="266.411" y1="596.33" x2="266.411" y2="627.782" gradientUnits="userSpaceOnUse">
<stop stop-color="#395590"/>
<stop offset="1" stop-color="#395590" stop-opacity="0"/>
</linearGradient>
<linearGradient id="paint3_linear" x1="383.161" y1="150.063" x2="167.389" y2="636.345" gradientUnits="userSpaceOnUse">
<stop stop-color="#108CFF"/>
<stop offset="0.567215" stop-color="#108CFF"/>
<stop offset="1" stop-color="#005CC8"/>
</linearGradient>
<radialGradient id="paint4_radial" cx="0" cy="0" r="1" gradientUnits="userSpaceOnUse" gradientTransform="translate(403.486 292.373) rotate(117.789) scale(254.145 108.749)">
<stop stop-color="#8BF1EB"/>
<stop offset="1" stop-color="#8BF1EB" stop-opacity="0"/>
</radialGradient>
<radialGradient id="paint5_radial" cx="0" cy="0" r="1" gradientUnits="userSpaceOnUse" gradientTransform="translate(372.964 143.894) rotate(107.077) scale(149.757 63.9967)">
<stop stop-color="#3EA2FF"/>
<stop offset="1" stop-color="white" stop-opacity="0"/>
</radialGradient>
<linearGradient id="paint6_linear" x1="296.81" y1="342.171" x2="259.438" y2="172.878" gradientUnits="userSpaceOnUse">
<stop stop-color="#58AFFF"/>
<stop offset="1" stop-color="#58AFFF" stop-opacity="0"/>
</linearGradient>
<linearGradient id="paint7_linear" x1="189.444" y1="656.171" x2="310.862" y2="435.705" gradientUnits="userSpaceOnUse">
<stop stop-color="#1769C1"/>
<stop offset="0.800566" stop-color="#1769C1" stop-opacity="0"/>
</linearGradient>
<linearGradient id="paint8_linear" x1="461.44" y1="283.833" x2="461.44" y2="332.644" gradientUnits="userSpaceOnUse">
<stop stop-color="#A1C7D6"/>
<stop offset="1" stop-color="#C6D7DE"/>
</linearGradient>
<linearGradient id="paint9_linear" x1="461.615" y1="280.664" x2="461.615" y2="311.291" gradientUnits="userSpaceOnUse">
<stop stop-color="#8BB4C4"/>
<stop offset="1" stop-color="#456E81"/>
</linearGradient>
<linearGradient id="paint10_linear" x1="449.637" y1="334.355" x2="370.368" y2="397.796" gradientUnits="userSpaceOnUse">
<stop stop-color="#83AFC3"/>
<stop offset="1" stop-color="#518298"/>
</linearGradient>
<linearGradient id="paint11_linear" x1="453.182" y1="333.379" x2="435.057" y2="343.736" gradientUnits="userSpaceOnUse">
<stop stop-color="#FEFFFF"/>
<stop offset="1" stop-color="#FEFFFF" stop-opacity="0"/>
</linearGradient>
<linearGradient id="paint12_linear" x1="383.317" y1="327.946" x2="437.602" y2="404.598" gradientUnits="userSpaceOnUse">
<stop stop-color="#8F5B48"/>
<stop offset="1" stop-color="#7C4E3D"/>
</linearGradient>
<linearGradient id="paint13_linear" x1="555.329" y1="295.898" x2="453.561" y2="420.165" gradientUnits="userSpaceOnUse">
<stop stop-color="#80ACC0"/>
<stop offset="1" stop-color="#CBD9E0"/>
</linearGradient>
<linearGradient id="paint14_linear" x1="451.564" y1="334.997" x2="490.404" y2="356.035" gradientUnits="userSpaceOnUse">
<stop stop-color="white" stop-opacity="0.77"/>
<stop offset="1" stop-color="white" stop-opacity="0"/>
</linearGradient>
<linearGradient id="paint15_linear" x1="528.317" y1="307.269" x2="528.317" y2="377.068" gradientUnits="userSpaceOnUse">
<stop stop-color="#B57550"/>
<stop offset="1" stop-color="#845543"/>
</linearGradient>
<linearGradient id="paint16_linear" x1="481.344" y1="325.203" x2="481.344" y2="401.218" gradientUnits="userSpaceOnUse">
<stop stop-color="#B57550"/>
<stop offset="1" stop-color="#845543"/>
</linearGradient>
<linearGradient id="paint17_linear" x1="501.188" y1="242.006" x2="463.995" y2="315.744" gradientUnits="userSpaceOnUse">
<stop stop-color="#875743"/>
<stop offset="1" stop-color="#A66B4C"/>
</linearGradient>
<linearGradient id="paint18_linear" x1="519.242" y1="235.401" x2="492.507" y2="261.07" gradientUnits="userSpaceOnUse">
<stop stop-color="#456E81"/>
<stop offset="1" stop-color="#2F3950"/>
</linearGradient>
<linearGradient id="paint19_linear" x1="503.433" y1="232.664" x2="480.754" y2="322.941" gradientUnits="userSpaceOnUse">
<stop stop-color="#80ACC0"/>
<stop offset="1" stop-color="#C6D6DE"/>
</linearGradient>
<linearGradient id="paint20_linear" x1="453.743" y1="332.86" x2="458.102" y2="285.222" gradientUnits="userSpaceOnUse">
<stop stop-color="#FBFCFD"/>
<stop offset="1" stop-color="#FBFCFD" stop-opacity="0"/>
</linearGradient>
<linearGradient id="paint21_linear" x1="451.02" y1="330.822" x2="420.99" y2="320.895" gradientUnits="userSpaceOnUse">
<stop stop-color="white"/>
<stop offset="1" stop-color="#CED7EB" stop-opacity="0"/>
</linearGradient>
<linearGradient id="paint22_linear" x1="407.136" y1="274.15" x2="383.404" y2="302.34" gradientUnits="userSpaceOnUse">
<stop stop-color="#456E81"/>
<stop offset="1" stop-color="#2F3950"/>
</linearGradient>
<linearGradient id="paint23_linear" x1="291.154" y1="484.848" x2="347.708" y2="555.476" gradientUnits="userSpaceOnUse">
<stop stop-color="#004CB9"/>
<stop offset="1" stop-color="#004CB9" stop-opacity="0"/>
</linearGradient>
<linearGradient id="paint24_linear" x1="306.607" y1="519.257" x2="215.032" y2="414.664" gradientUnits="userSpaceOnUse">
<stop stop-color="#2496FF"/>
<stop offset="1" stop-color="#0F8CFF"/>
</linearGradient>
<linearGradient id="paint25_linear" x1="476.488" y1="348.067" x2="468.172" y2="362.469" gradientUnits="userSpaceOnUse">
<stop stop-color="#5FB2FF"/>
<stop offset="1" stop-color="#5FB2FF" stop-opacity="0"/>
</linearGradient>
<linearGradient id="paint26_linear" x1="486.973" y1="351.623" x2="478.115" y2="363.012" gradientUnits="userSpaceOnUse">
<stop stop-color="#5FB2FF"/>
<stop offset="1" stop-color="#5FB2FF" stop-opacity="0"/>
</linearGradient>
<linearGradient id="paint27_linear" x1="490.89" y1="361.264" x2="480.766" y2="372.291" gradientUnits="userSpaceOnUse">
<stop stop-color="#5FB2FF"/>
<stop offset="1" stop-color="#5FB2FF" stop-opacity="0"/>
</linearGradient>
<linearGradient id="paint28_linear" x1="492.937" y1="372.515" x2="484.683" y2="380.005" gradientUnits="userSpaceOnUse">
<stop stop-color="#5FB2FF"/>
<stop offset="1" stop-color="#5FB2FF" stop-opacity="0"/>
</linearGradient>
</defs>
</svg>
