<svg width="48" height="48" viewBox="0 0 48 48" fill="none" xmlns="http://www.w3.org/2000/svg">
<path d="M32.3203 10.3169C33.5154 10.3169 34.4843 9.35052 34.4843 8.15845C34.4843 6.96637 33.5154 6 32.3203 6C31.1251 6 30.1562 6.96637 30.1562 8.15845C30.1562 9.35052 31.1251 10.3169 32.3203 10.3169Z" fill="#F6F8FC"/>
<path d="M34.7548 40.8052C35.95 40.8052 36.9189 39.8388 36.9189 38.6467C36.9189 37.4546 35.95 36.4883 34.7548 36.4883C33.5597 36.4883 32.5908 37.4546 32.5908 38.6467C32.5908 39.8388 33.5597 40.8052 34.7548 40.8052Z" fill="#F6F8FC"/>
<path d="M32.9393 15.7129C33.9424 15.7129 34.7555 14.9019 34.7555 13.9014C34.7555 12.9009 33.9424 12.0898 32.9393 12.0898C31.9362 12.0898 31.123 12.9009 31.123 13.9014C31.123 14.9019 31.9362 15.7129 32.9393 15.7129Z" fill="#F6F8FC"/>
<path d="M37.7694 16.4068C38.7724 16.4068 39.5856 15.5957 39.5856 14.5952C39.5856 13.5948 38.7724 12.7837 37.7694 12.7837C36.7663 12.7837 35.9531 13.5948 35.9531 14.5952C35.9531 15.5957 36.7663 16.4068 37.7694 16.4068Z" fill="#F6F8FC"/>
<path d="M32.3211 20.2998C33.1748 20.2998 33.8669 19.6095 33.8669 18.7581C33.8669 17.9066 33.1748 17.2163 32.3211 17.2163C31.4674 17.2163 30.7754 17.9066 30.7754 18.7581C30.7754 19.6095 31.4674 20.2998 32.3211 20.2998Z" fill="#F6F8FC"/>
<path d="M37.1512 20.9551C38.0049 20.9551 38.6969 20.2648 38.6969 19.4133C38.6969 18.5618 38.0049 17.8716 37.1512 17.8716C36.2975 17.8716 35.6055 18.5618 35.6055 19.4133C35.6055 20.2648 36.2975 20.9551 37.1512 20.9551Z" fill="#F6F8FC"/>
<path d="M41.0155 22.4585C41.8691 22.4585 42.5612 21.7682 42.5612 20.9167C42.5612 20.0653 41.8691 19.375 41.0155 19.375C40.1618 19.375 39.4697 20.0653 39.4697 20.9167C39.4697 21.7682 40.1618 22.4585 41.0155 22.4585Z" fill="#F6F8FC"/>
<path d="M35.7217 24.6551C36.4686 24.6551 37.0742 24.0511 37.0742 23.3061C37.0742 22.561 36.4686 21.957 35.7217 21.957C34.9747 21.957 34.3691 22.561 34.3691 23.3061C34.3691 24.0511 34.9747 24.6551 35.7217 24.6551Z" fill="#F6F8FC"/>
<path d="M30.8906 23.9998C31.6376 23.9998 32.2431 23.3958 32.2431 22.6508C32.2431 21.9057 31.6376 21.3018 30.8906 21.3018C30.1436 21.3018 29.5381 21.9057 29.5381 22.6508C29.5381 23.3958 30.1436 23.9998 30.8906 23.9998Z" fill="#F6F8FC"/>
<path d="M39.624 26.1585C40.371 26.1585 40.9765 25.5545 40.9765 24.8095C40.9765 24.0644 40.371 23.4604 39.624 23.4604C38.877 23.4604 38.2715 24.0644 38.2715 24.8095C38.2715 25.5545 38.877 26.1585 39.624 26.1585Z" fill="#F6F8FC"/>
<path d="M33.7892 27.4689C34.4294 27.4689 34.9485 26.9512 34.9485 26.3126C34.9485 25.6739 34.4294 25.1562 33.7892 25.1562C33.1489 25.1562 32.6299 25.6739 32.6299 26.3126C32.6299 26.9512 33.1489 27.4689 33.7892 27.4689Z" fill="#F6F8FC"/>
<path d="M37.6925 28.9337C38.3328 28.9337 38.8518 28.416 38.8518 27.7774C38.8518 27.1388 38.3328 26.6211 37.6925 26.6211C37.0522 26.6211 36.5332 27.1388 36.5332 27.7774C36.5332 28.416 37.0522 28.9337 37.6925 28.9337Z" fill="#F6F8FC"/>
<path d="M28.9972 26.7745C29.6375 26.7745 30.1565 26.2568 30.1565 25.6182C30.1565 24.9796 29.6375 24.4619 28.9972 24.4619C28.3569 24.4619 27.8379 24.9796 27.8379 25.6182C27.8379 26.2568 28.3569 26.7745 28.9972 26.7745Z" fill="#F6F8FC"/>
<path d="M31.6634 29.3579C32.1969 29.3579 32.6294 28.9264 32.6294 28.3943C32.6294 27.8621 32.1969 27.4307 31.6634 27.4307C31.1298 27.4307 30.6973 27.8621 30.6973 28.3943C30.6973 28.9264 31.1298 29.3579 31.6634 29.3579Z" fill="#F6F8FC"/>
<path d="M33.3257 32.0172C33.7953 32.0172 34.1759 31.6376 34.1759 31.1693C34.1759 30.7009 33.7953 30.3213 33.3257 30.3213C32.8562 30.3213 32.4756 30.7009 32.4756 31.1693C32.4756 31.6376 32.8562 32.0172 33.3257 32.0172Z" fill="#F6F8FC"/>
<path d="M31.2776 32.557C31.6618 32.557 31.9732 32.2464 31.9732 31.8632C31.9732 31.4801 31.6618 31.1694 31.2776 31.1694C30.8935 31.1694 30.582 31.4801 30.582 31.8632C30.582 32.2464 30.8935 32.557 31.2776 32.557Z" fill="#F6F8FC"/>
<path d="M29.4605 30.5524C29.93 30.5524 30.3107 30.1727 30.3107 29.7044C30.3107 29.2361 29.93 28.8564 29.4605 28.8564C28.991 28.8564 28.6104 29.2361 28.6104 29.7044C28.6104 30.1727 28.991 30.5524 29.4605 30.5524Z" fill="#F6F8FC"/>
<path d="M26.8333 28.7026C27.3668 28.7026 27.7993 28.2712 27.7993 27.739C27.7993 27.2068 27.3668 26.7754 26.8333 26.7754C26.2997 26.7754 25.8672 27.2068 25.8672 27.739C25.8672 28.2712 26.2997 28.7026 26.8333 28.7026Z" fill="#F6F8FC"/>
<path d="M26.7942 21.4555C27.3278 21.4555 27.7603 21.0241 27.7603 20.4919C27.7603 19.9597 27.3278 19.5283 26.7942 19.5283C26.2607 19.5283 25.8281 19.9597 25.8281 20.4919C25.8281 21.0241 26.2607 21.4555 26.7942 21.4555Z" fill="#F6F8FC"/>
<path d="M27.2193 18.0641C27.6888 18.0641 28.0694 17.6844 28.0694 17.2161C28.0694 16.7478 27.6888 16.3682 27.2193 16.3682C26.7498 16.3682 26.3691 16.7478 26.3691 17.2161C26.3691 17.6844 26.7498 18.0641 27.2193 18.0641Z" fill="#F6F8FC"/>
<path d="M28.1477 15.2889C28.5319 15.2889 28.8433 14.9783 28.8433 14.5952C28.8433 14.212 28.5319 13.9014 28.1477 13.9014C27.7636 13.9014 27.4521 14.212 27.4521 14.5952C27.4521 14.9783 27.7636 15.2889 28.1477 15.2889Z" fill="#F6F8FC"/>
<path d="M26.524 13.9786C26.9935 13.9786 27.3741 13.599 27.3741 13.1307C27.3741 12.6624 26.9935 12.2827 26.524 12.2827C26.0545 12.2827 25.6738 12.6624 25.6738 13.1307C25.6738 13.599 26.0545 13.9786 26.524 13.9786Z" fill="#F6F8FC"/>
<path d="M35.5276 30.8217C36.0612 30.8217 36.4937 30.3903 36.4937 29.8581C36.4937 29.3259 36.0612 28.8945 35.5276 28.8945C34.9941 28.8945 34.5615 29.3259 34.5615 29.8581C34.5615 30.3903 34.9941 30.8217 35.5276 30.8217Z" fill="#F6F8FC"/>
<path d="M24.3216 12.8608C24.8551 12.8608 25.2876 12.4294 25.2876 11.8972C25.2876 11.365 24.8551 10.9336 24.3216 10.9336C23.788 10.9336 23.3555 11.365 23.3555 11.8972C23.3555 12.4294 23.788 12.8608 24.3216 12.8608Z" fill="#F6F8FC"/>
<path d="M24.9788 16.9467C25.5123 16.9467 25.9449 16.5153 25.9449 15.9831C25.9449 15.4509 25.5123 15.0195 24.9788 15.0195C24.4452 15.0195 24.0127 15.4509 24.0127 15.9831C24.0127 16.5153 24.4452 16.9467 24.9788 16.9467Z" fill="#F6F8FC"/>
<path d="M23.8966 20.8395C24.5369 20.8395 25.0559 20.3218 25.0559 19.6832C25.0559 19.0446 24.5369 18.5269 23.8966 18.5269C23.2563 18.5269 22.7373 19.0446 22.7373 19.6832C22.7373 20.3218 23.2563 20.8395 23.8966 20.8395Z" fill="#F6F8FC"/>
<path d="M20.3799 20.8392C21.1268 20.8392 21.7324 20.2352 21.7324 19.4901C21.7324 18.7451 21.1268 18.1411 20.3799 18.1411C19.6329 18.1411 19.0273 18.7451 19.0273 19.4901C19.0273 20.2352 19.6329 20.8392 20.3799 20.8392Z" fill="#F6F8FC"/>
<path d="M16.284 21.7646C17.1377 21.7646 17.8297 21.0744 17.8297 20.2229C17.8297 19.3714 17.1377 18.6812 16.284 18.6812C15.4303 18.6812 14.7383 19.3714 14.7383 20.2229C14.7383 21.0744 15.4303 21.7646 16.284 21.7646Z" fill="#F6F8FC"/>
<path d="M11.8016 23.9615C12.8047 23.9615 13.6178 23.1504 13.6178 22.1499C13.6178 21.1494 12.8047 20.3384 11.8016 20.3384C10.7985 20.3384 9.98535 21.1494 9.98535 22.1499C9.98535 23.1504 10.7985 23.9615 11.8016 23.9615Z" fill="#F6F8FC"/>
<path d="M7.16403 27.6616C8.35918 27.6616 9.32805 26.6953 9.32805 25.5032C9.32805 24.3111 8.35918 23.3447 7.16403 23.3447C5.96887 23.3447 5 24.3111 5 25.5032C5 26.6953 5.96887 27.6616 7.16403 27.6616Z" fill="#F6F8FC"/>
<path d="M9.98518 19.4517C10.9883 19.4517 11.8014 18.6407 11.8014 17.6402C11.8014 16.6397 10.9883 15.8286 9.98518 15.8286C8.9821 15.8286 8.16895 16.6397 8.16895 17.6402C8.16895 18.6407 8.9821 19.4517 9.98518 19.4517Z" fill="#F6F8FC"/>
<path d="M14.4676 17.2549C15.3213 17.2549 16.0133 16.5646 16.0133 15.7131C16.0133 14.8617 15.3213 14.1714 14.4676 14.1714C13.6139 14.1714 12.9219 14.8617 12.9219 15.7131C12.9219 16.5646 13.6139 17.2549 14.4676 17.2549Z" fill="#F6F8FC"/>
<path d="M13.8104 13.1689C14.6641 13.1689 15.3561 12.4787 15.3561 11.6272C15.3561 10.7757 14.6641 10.0854 13.8104 10.0854C12.9567 10.0854 12.2646 10.7757 12.2646 11.6272C12.2646 12.4787 12.9567 13.1689 13.8104 13.1689Z" fill="#F6F8FC"/>
<path d="M17.9072 12.244C18.6542 12.244 19.2597 11.64 19.2597 10.8949C19.2597 10.1499 18.6542 9.5459 17.9072 9.5459C17.1602 9.5459 16.5547 10.1499 16.5547 10.8949C16.5547 11.64 17.1602 12.244 17.9072 12.244Z" fill="#F6F8FC"/>
<path d="M21.423 12.2443C22.0632 12.2443 22.5823 11.7266 22.5823 11.088C22.5823 10.4493 22.0632 9.93164 21.423 9.93164C20.7827 9.93164 20.2637 10.4493 20.2637 11.088C20.2637 11.7266 20.7827 12.2443 21.423 12.2443Z" fill="#F6F8FC"/>
<path d="M22.0802 16.3292C22.7205 16.3292 23.2395 15.8115 23.2395 15.1729C23.2395 14.5343 22.7205 14.0166 22.0802 14.0166C21.4399 14.0166 20.9209 14.5343 20.9209 15.1729C20.9209 15.8115 21.4399 16.3292 22.0802 16.3292Z" fill="#F6F8FC"/>
<path d="M18.5635 16.3685C19.3104 16.3685 19.916 15.7645 19.916 15.0194C19.916 14.2744 19.3104 13.6704 18.5635 13.6704C17.8165 13.6704 17.2109 14.2744 17.2109 15.0194C17.2109 15.7645 17.8165 16.3685 18.5635 16.3685Z" fill="#F6F8FC"/>
<path d="M14.7376 26.621C15.1217 26.621 15.4331 26.3104 15.4331 25.9272C15.4331 25.544 15.1217 25.2334 14.7376 25.2334C14.3534 25.2334 14.042 25.544 14.042 25.9272C14.042 26.3104 14.3534 26.621 14.7376 26.621Z" fill="#F6F8FC"/>
<path d="M17.5201 26.274C17.9896 26.274 18.3702 25.8944 18.3702 25.4261C18.3702 24.9578 17.9896 24.5781 17.5201 24.5781C17.0505 24.5781 16.6699 24.9578 16.6699 25.4261C16.6699 25.8944 17.0505 26.274 17.5201 26.274Z" fill="#F6F8FC"/>
<path d="M20.5725 25.1181C21.1061 25.1181 21.5386 24.6867 21.5386 24.1545C21.5386 23.6223 21.1061 23.1909 20.5725 23.1909C20.039 23.1909 19.6064 23.6223 19.6064 24.1545C19.6064 24.6867 20.039 25.1181 20.5725 25.1181Z" fill="#F6F8FC"/>
<path d="M21.3077 28.2013C21.948 28.2013 22.467 27.6836 22.467 27.045C22.467 26.4064 21.948 25.8887 21.3077 25.8887C20.6675 25.8887 20.1484 26.4064 20.1484 27.045C20.1484 27.6836 20.6675 28.2013 21.3077 28.2013Z" fill="#F6F8FC"/>
<path d="M17.5979 28.933C18.1315 28.933 18.564 28.5016 18.564 27.9695C18.564 27.4373 18.1315 27.0059 17.5979 27.0059C17.0644 27.0059 16.6318 27.4373 16.6318 27.9695C16.6318 28.5016 17.0644 28.933 17.5979 28.933Z" fill="#F6F8FC"/>
<path d="M14.313 28.8947C14.7826 28.8947 15.1632 28.515 15.1632 28.0467C15.1632 27.5784 14.7826 27.1987 14.313 27.1987C13.8435 27.1987 13.4629 27.5784 13.4629 28.0467C13.4629 28.515 13.8435 28.8947 14.313 28.8947Z" fill="#F6F8FC"/>
<path d="M14.3508 31.5546C14.8844 31.5546 15.3169 31.1232 15.3169 30.591C15.3169 30.0589 14.8844 29.6274 14.3508 29.6274C13.8173 29.6274 13.3848 30.0589 13.3848 30.591C13.3848 31.1232 13.8173 31.5546 14.3508 31.5546Z" fill="#F6F8FC"/>
<path d="M18.2931 32.0553C18.9334 32.0553 19.4524 31.5376 19.4524 30.899C19.4524 30.2604 18.9334 29.7427 18.2931 29.7427C17.6528 29.7427 17.1338 30.2604 17.1338 30.899C17.1338 31.5376 17.6528 32.0553 18.2931 32.0553Z" fill="#F6F8FC"/>
<path d="M22.8926 31.5545C23.6395 31.5545 24.2451 30.9505 24.2451 30.2055C24.2451 29.4604 23.6395 28.8564 22.8926 28.8564C22.1456 28.8564 21.54 29.4604 21.54 30.2055C21.54 30.9505 22.1456 31.5545 22.8926 31.5545Z" fill="#F6F8FC"/>
<path d="M25.5965 34.9077C26.4502 34.9077 27.1422 34.2175 27.1422 33.366C27.1422 32.5145 26.4502 31.8242 25.5965 31.8242C24.7428 31.8242 24.0508 32.5145 24.0508 33.366C24.0508 34.2175 24.7428 34.9077 25.5965 34.9077Z" fill="#F6F8FC"/>
<path d="M19.916 35.3704C20.663 35.3704 21.2685 34.7664 21.2685 34.0214C21.2685 33.2763 20.663 32.6724 19.916 32.6724C19.169 32.6724 18.5635 33.2763 18.5635 34.0214C18.5635 34.7664 19.169 35.3704 19.916 35.3704Z" fill="#F6F8FC"/>
<path d="M16.709 37.991C17.4559 37.991 18.0615 37.387 18.0615 36.642C18.0615 35.8969 17.4559 35.293 16.709 35.293C15.962 35.293 15.3564 35.8969 15.3564 36.642C15.3564 37.387 15.962 37.991 16.709 37.991Z" fill="#F6F8FC"/>
<path d="M19.3748 41.3833C20.2285 41.3833 20.9206 40.693 20.9206 39.8416C20.9206 38.9901 20.2285 38.2998 19.3748 38.2998C18.5211 38.2998 17.8291 38.9901 17.8291 39.8416C17.8291 40.693 18.5211 41.3833 19.3748 41.3833Z" fill="#F6F8FC"/>
<path d="M26.4852 42.0001C27.4883 42.0001 28.3014 41.189 28.3014 40.1885C28.3014 39.188 27.4883 38.377 26.4852 38.377C25.4821 38.377 24.6689 39.188 24.6689 40.1885C24.6689 41.189 25.4821 42.0001 26.4852 42.0001Z" fill="#F6F8FC"/>
<path d="M22.5828 38.7617C23.4365 38.7617 24.1286 38.0714 24.1286 37.22C24.1286 36.3685 23.4365 35.6782 22.5828 35.6782C21.7292 35.6782 21.0371 36.3685 21.0371 37.22C21.0371 38.0714 21.7292 38.7617 22.5828 38.7617Z" fill="#F6F8FC"/>
<path d="M29.4617 38.1456C30.4648 38.1456 31.278 37.3345 31.278 36.334C31.278 35.3335 30.4648 34.5225 29.4617 34.5225C28.4587 34.5225 27.6455 35.3335 27.6455 36.334C27.6455 37.3345 28.4587 38.1456 29.4617 38.1456Z" fill="#F6F8FC"/>
<path d="M15.0861 34.6769C15.7263 34.6769 16.2454 34.1592 16.2454 33.5206C16.2454 32.882 15.7263 32.3643 15.0861 32.3643C14.4458 32.3643 13.9268 32.882 13.9268 33.5206C13.9268 34.1592 14.4458 34.6769 15.0861 34.6769Z" fill="#F6F8FC"/>
</svg>
