<svg width="802" height="642" viewBox="0 0 802 642" fill="none" xmlns="http://www.w3.org/2000/svg">
<rect x="117.622" y="301.494" width="174.198" height="174.198" rx="39" transform="rotate(-21.9675 117.622 301.494)" fill="url(#paint0_linear)"/>
<path d="M437.5 441.685C446.15 434.579 459.204 438.484 462.465 449.194C470.663 476.12 475.572 497.688 479.997 526.063C481.726 537.149 471.644 546.372 460.743 543.712C432.894 536.915 411.765 530.47 385.545 520.616C375.03 516.665 371.959 503.332 379.698 495.191C398.613 475.293 414.855 460.285 437.5 441.685Z" fill="url(#paint1_linear)"/>
<circle cx="595.776" cy="172.341" r="130.975" fill="url(#paint2_linear)"/>
<circle cx="321.211" cy="216.737" r="12.0594" fill="#FFCA62"/>
<g style="mix-blend-mode:multiply" filter="url(#filter0_f)">
<path d="M637.755 444.564C631.369 444.294 626.443 441.915 624.331 437.617C614.725 417.225 643.602 398.781 640.881 372.997C638.161 347.212 618.088 327.054 564.196 271.416L565.987 269.604C619.832 324.039 642.704 344.241 647.02 372.877C651.335 401.513 625.43 417.176 632.538 432.691C633.367 434.329 634.03 435.054 642.122 435.413L637.755 444.564Z" fill="#395590" fill-opacity="0.25"/>
<path d="M666.561 478.035C653.47 470.749 668.171 457.486 666.838 451.421C665.847 446.673 650.688 445.401 637.406 444.713C620.522 443.966 621.654 429.318 622.779 424.465C622.779 424.465 622.001 435.423 641.123 435.368C653.637 435.322 670.763 437.381 673.626 447.318C676.143 456.038 662.957 464.463 668.621 469.918C674.672 475.692 697.475 471.596 706.655 470.001L707.405 477.942C703.551 479.072 675.843 483.151 666.561 478.035Z" fill="#395590" fill-opacity="0.25"/>
<path d="M763.39 479.519C720.287 469.603 690.189 453.056 664.818 386.268C639.174 318.868 570.797 274.895 562.918 269.741C562.722 269.632 564.746 267.118 564.746 267.118C572.921 272.385 644.426 317.8 670.519 384.118C696.689 450.941 722.674 460.9 764.883 470.677L763.39 479.519Z" fill="#395590" fill-opacity="0.25"/>
<path d="M533.383 51.0489C532.583 49.8489 531.383 49.0489 529.983 48.8489L392.983 28.2489C391.683 28.0489 390.483 28.3489 389.483 29.0489L442.283 101.549C464.083 88.1489 524.383 55.9489 533.383 51.0489Z" fill="#395590" fill-opacity="0.25"/>
<path d="M568.184 265.249C567.684 257.149 538.684 80.6489 534.184 53.0489C534.084 52.3489 533.784 51.6489 533.384 51.1489C524.284 55.9489 463.984 88.2489 442.284 101.549L566.384 271.849C567.984 270.749 568.384 268.249 568.184 265.249Z" fill="#395590" fill-opacity="0.25"/>
<path d="M442.284 101.549C420.984 114.649 365.084 161.349 354.784 169.949C355.284 170.749 355.984 171.349 356.784 171.749L558.784 271.049C562.484 272.849 564.884 272.949 566.384 271.849L442.284 101.549Z" fill="#395590" fill-opacity="0.25"/>
<path d="M442.284 101.549L389.584 29.0489C388.584 29.7489 387.784 30.7489 387.484 32.0489L354.184 166.049C353.884 167.449 354.084 168.849 354.784 169.949C365.084 161.349 420.984 114.649 442.284 101.549Z" fill="#395590" fill-opacity="0.25"/>
<path d="M531.105 52.2621C504.333 131.815 402.142 194.484 357.493 168.229" stroke="#395590" stroke-opacity="0.25" stroke-width="3" stroke-miterlimit="10" stroke-linecap="round"/>
<path d="M423.704 164.678C423.704 164.678 351.51 486.315 29.71 671.315" stroke="#395590" stroke-opacity="0.25" stroke-width="3" stroke-miterlimit="10"/>
<path d="M418.938 162.939L427.656 167.165" stroke="#395590" stroke-opacity="0.25" stroke-width="3" stroke-miterlimit="10" stroke-linecap="round"/>
<path d="M425.058 160.447L420.899 169.353" stroke="#395590" stroke-opacity="0.25" stroke-width="3" stroke-miterlimit="10" stroke-linecap="round"/>
</g>
<path d="M626.755 419.564C620.369 419.294 615.443 416.915 613.331 412.617C603.725 392.225 632.602 373.781 629.881 347.997C627.161 322.212 607.088 302.054 553.196 246.416L554.987 244.604C608.832 299.039 631.704 319.241 636.02 347.877C640.335 376.513 614.43 392.176 621.538 407.691C622.367 409.329 623.03 410.054 631.122 410.413L626.755 419.564Z" fill="url(#paint3_linear)"/>
<path d="M655.561 453.035C642.47 445.749 657.171 432.486 655.838 426.421C654.847 421.673 639.688 420.401 626.406 419.713C609.522 418.966 610.654 404.318 611.779 399.465C611.779 399.465 611.001 410.423 630.123 410.368C642.637 410.322 659.763 412.381 662.626 422.318C665.143 431.038 651.957 439.463 657.621 444.918C663.672 450.692 686.475 446.596 695.655 445.001L696.405 452.942C692.551 454.072 664.843 458.151 655.561 453.035Z" fill="url(#paint4_linear)"/>
<path d="M752.39 454.519C709.287 444.603 679.189 428.056 653.818 361.268C628.174 293.868 559.797 249.895 551.918 244.741C551.722 244.632 553.746 242.118 553.746 242.118C561.921 247.385 633.426 292.8 659.519 359.118C685.689 425.941 711.674 435.9 753.883 445.677L752.39 454.519Z" fill="url(#paint5_linear)"/>
<path d="M518.842 24.8388C519.581 24.9443 520.256 25.2628 520.819 25.7598C519.399 26.5284 517.34 27.6377 514.779 29.0176C496.083 39.0911 450.623 63.5846 431.548 75.2142L379.973 4.39492C380.542 4.19468 381.165 4.13481 381.831 4.23725L381.835 4.23776L518.835 24.8378L518.842 24.8388Z" fill="url(#paint6_linear)" stroke="url(#paint7_radial)" stroke-width="2"/>
<path d="M557.184 240.249C556.684 232.149 527.684 55.6489 523.184 28.0489C523.084 27.3489 522.784 26.6489 522.384 26.1489C513.284 30.9489 452.984 63.2489 431.284 76.5489L555.384 246.849C556.984 245.749 557.384 243.249 557.184 240.249Z" fill="url(#paint8_linear)"/>
<path d="M556.186 240.31L556.186 240.315C556.283 241.766 556.229 243.027 555.987 244.026C555.863 244.541 555.695 244.961 555.49 245.296L432.732 76.8372C454.525 63.6025 510.683 33.4789 522.004 27.4813C522.093 27.706 522.16 27.9477 522.194 28.1903L522.196 28.2L522.197 28.2098C522.756 31.635 523.691 37.3525 524.903 44.7562C528.573 67.1861 534.776 105.092 540.697 141.621C544.635 165.915 548.447 189.597 551.306 207.713C552.735 216.77 553.926 224.434 554.775 230.086C555.629 235.77 556.127 239.354 556.186 240.31Z" stroke="url(#paint9_radial)" stroke-opacity="0.46" stroke-width="2"/>
<path d="M431.284 76.5489C409.984 89.6489 354.084 136.349 343.784 144.949C344.284 145.749 344.984 146.349 345.784 146.749L547.784 246.049C551.484 247.849 553.884 247.949 555.384 246.849L431.284 76.5489Z" fill="url(#paint10_linear)"/>
<path d="M431.284 76.5489L378.584 4.04889C377.584 4.74889 376.784 5.74889 376.484 7.04889L343.184 141.049C342.884 142.449 343.084 143.849 343.784 144.949C354.084 136.349 409.984 89.6489 431.284 76.5489Z" fill="url(#paint11_linear)"/>
<path d="M378.411 5.51155L429.843 76.268C418.968 83.1223 400.196 97.6801 382.783 111.657C365.906 125.203 350.248 138.25 344.169 143.324C344.015 142.697 344.006 141.997 344.158 141.274L377.454 7.29006L377.456 7.28192L377.458 7.27375C377.616 6.59033 377.952 6.00218 378.411 5.51155Z" stroke="url(#paint12_radial)" stroke-opacity="0.56" stroke-width="2"/>
<mask id="mask0" mask-type="alpha" maskUnits="userSpaceOnUse" x="343" y="3" width="215" height="245">
<path d="M518.983 23.8489C520.383 24.0489 521.583 24.8489 522.383 26.0489C522.384 26.1489 522.383 26.0489 522.384 26.1489C522.784 26.6489 523.084 27.3489 523.184 28.0489C523.742 31.4733 524.678 37.19 525.889 44.5929C534.442 96.8547 556.746 233.154 557.184 240.249C557.384 243.249 556.984 245.749 555.384 246.849C553.884 247.949 551.484 247.849 547.784 246.049L345.784 146.749C344.984 146.349 344.284 145.749 343.784 144.949C343.084 143.849 342.884 142.449 343.184 141.049L376.484 7.04889C376.777 5.77771 377.549 4.79337 378.518 4.09588L378.483 4.04887C379.483 3.34887 380.683 3.04887 381.983 3.24887L518.983 23.8489Z" fill="url(#paint13_linear)"/>
</mask>
<g mask="url(#mask0)">
<g filter="url(#filter1_f)">
<path d="M432.164 77.4215C432.164 77.4215 351.937 466.715 35.3716 660.536" stroke="#8493AD" stroke-opacity="0.62" stroke-width="3" stroke-miterlimit="10" stroke-linecap="round"/>
</g>
</g>
<path d="M430.796 76.7745C430.796 76.7745 340.51 461.315 18.71 646.315" stroke="#EEF2FA" stroke-width="3" stroke-miterlimit="10" stroke-linecap="round" stroke-linejoin="round"/>
<mask id="mask1" mask-type="alpha" maskUnits="userSpaceOnUse" x="412" y="436" width="182" height="72">
<path d="M417.122 507.842H588.808C592.411 507.842 595.056 504.71 592.685 501.998C587.259 495.79 574.836 491.032 566.805 494.928C574.999 478.628 555.85 466.248 544.36 476.045C547.21 453.333 530.376 436.188 509.045 436.188C488.292 436.188 472.928 456.094 475.467 474.019C471.614 474.153 466.371 477.459 465.858 483.471C463.32 480.666 457.208 479.697 452.933 483.304C443.447 465.046 416.504 475.778 423.273 496.041C417.06 496.386 413.87 499.291 412.426 502.346C411.044 505.267 413.891 507.842 417.122 507.842Z" fill="#E1E7F3"/>
</mask>
<g mask="url(#mask1)">
<path d="M417.122 507.842H588.808C592.411 507.842 595.056 504.71 592.685 501.998C587.259 495.79 574.836 491.032 566.805 494.928C574.999 478.628 555.85 466.248 544.36 476.045C547.21 453.333 530.376 436.188 509.045 436.188C488.292 436.188 472.928 456.094 475.467 474.019C471.614 474.153 466.371 477.459 465.858 483.471C463.32 480.666 457.208 479.697 452.933 483.304C443.447 465.046 416.504 475.778 423.273 496.041C417.06 496.386 413.87 499.291 412.426 502.346C411.044 505.267 413.891 507.842 417.122 507.842Z" fill="#E1E7F3"/>
<g filter="url(#filter2_f)">
<path fill-rule="evenodd" clip-rule="evenodd" d="M545.223 483.171C545.223 490.894 551.483 497.154 559.206 497.154C561.956 497.154 564.521 496.361 566.683 494.989C567.988 492.777 568.736 490.198 568.736 487.444C568.736 479.228 562.076 472.567 553.86 472.567C552.281 472.567 550.76 472.813 549.333 473.268C546.794 475.8 545.223 479.302 545.223 483.171Z" fill="url(#paint14_linear)"/>
</g>
<g filter="url(#filter3_f)">
<path fill-rule="evenodd" clip-rule="evenodd" d="M429.647 484.995C429.647 492.643 435.847 498.843 443.495 498.843C447.562 498.843 451.219 497.09 453.752 494.299C454.119 492.951 454.314 491.533 454.314 490.069C454.314 481.19 447.116 473.992 438.237 473.992C436.972 473.992 435.741 474.138 434.56 474.415C431.555 476.955 429.647 480.752 429.647 484.995Z" fill="url(#paint15_linear)"/>
</g>
<g filter="url(#filter4_f)">
<path fill-rule="evenodd" clip-rule="evenodd" d="M455.559 484.135C455.559 488.866 459.394 492.701 464.125 492.701C466.33 492.701 468.341 491.868 469.859 490.499C469.413 485.131 464.915 480.913 459.432 480.913C458.22 480.913 457.055 481.119 455.973 481.498C455.704 482.329 455.559 483.215 455.559 484.135Z" fill="url(#paint16_linear)"/>
</g>
<g filter="url(#filter5_f)">
<path fill-rule="evenodd" clip-rule="evenodd" d="M469.547 480.183C469.547 485.371 473.752 489.576 478.94 489.576C482.153 489.576 484.989 487.962 486.683 485.502C486.717 485.158 486.734 484.809 486.734 484.456C486.734 478.677 482.05 473.992 476.27 473.992C474.25 473.992 472.363 474.565 470.764 475.557C469.989 476.922 469.547 478.501 469.547 480.183Z" fill="url(#paint17_linear)"/>
</g>
<g filter="url(#filter6_f)">
<path fill-rule="evenodd" clip-rule="evenodd" d="M544.337 476.091C540.344 487.526 529.462 495.729 516.665 495.729C500.482 495.729 487.362 482.61 487.362 466.426C487.362 450.243 500.482 437.123 516.665 437.123C517.205 437.123 517.742 437.138 518.275 437.167C533.456 440.903 544.716 454.607 544.716 470.941C544.716 472.691 544.587 474.411 544.337 476.091Z" fill="url(#paint18_linear)"/>
</g>
<g filter="url(#filter7_f)">
<path d="M588.136 505.143C591.743 505.143 594.14 503.974 592.278 501.555C588.582 496.754 569.764 487.922 568.141 498.469C567.784 500.784 569.655 505.143 574.375 505.143H588.136Z" fill="url(#paint19_linear)"/>
</g>
<g opacity="0.6" filter="url(#filter8_i)">
<path d="M417.122 507.842H588.808C592.411 507.842 595.056 504.71 592.685 501.998C587.259 495.79 574.836 491.032 566.805 494.928C574.999 478.628 555.85 466.248 544.36 476.045C547.21 453.333 530.376 436.188 509.045 436.188C488.292 436.188 472.928 456.094 475.467 474.019C471.614 474.153 466.371 477.459 465.858 483.471C463.32 480.666 457.208 479.697 452.933 483.304C443.447 465.046 416.504 475.778 423.273 496.041C417.06 496.386 413.87 499.291 412.426 502.346C411.044 505.267 413.891 507.842 417.122 507.842Z" fill="url(#paint20_linear)"/>
</g>
</g>
<mask id="mask2" mask-type="alpha" maskUnits="userSpaceOnUse" x="74" y="59" width="209" height="86">
<path d="M82.6382 130.373C73.8368 132.17 70.6598 144.343 80.7932 144.343H266.578C278.165 144.343 284.078 133.635 281.694 124.431C279.624 116.441 271.048 110.787 262.083 113.492C260.426 113.992 258.396 112.587 258.346 110.856C257.904 95.6676 241.542 79.3792 221.502 88.527C220.244 89.101 218.72 88.3793 218.364 87.0436C214.874 73.9508 201.976 59.0559 181.666 59.0559C161.159 59.0559 148.801 73.1919 144.796 86.2939C144.41 87.5571 142.968 88.213 141.744 87.7179C129.082 82.599 112.747 88.1857 107.577 103.536C107.178 104.719 105.851 105.36 104.645 105.035C93.4145 102.004 80.0767 112.42 85.0792 126.451C85.6493 128.05 84.3015 130.034 82.6382 130.373Z" fill="#E1E7F3"/>
</mask>
<g mask="url(#mask2)">
<path d="M82.6382 130.373C73.8368 132.17 70.6598 144.343 80.7932 144.343H266.578C278.165 144.343 284.078 133.635 281.694 124.431C279.624 116.441 271.048 110.787 262.083 113.492C260.426 113.992 258.396 112.587 258.346 110.856C257.904 95.6676 241.542 79.3792 221.502 88.527C220.244 89.101 218.72 88.3793 218.364 87.0436C214.874 73.9508 201.976 59.0559 181.666 59.0559C161.159 59.0559 148.801 73.1919 144.796 86.2939C144.41 87.5571 142.968 88.213 141.744 87.7179C129.082 82.599 112.747 88.1857 107.577 103.536C107.178 104.719 105.851 105.36 104.645 105.035C93.4145 102.004 80.0767 112.42 85.0792 126.451C85.6493 128.05 84.3015 130.034 82.6382 130.373Z" fill="#E1E7F3"/>
<g filter="url(#filter9_f)">
<path d="M118.076 99.7641C118.076 113.996 129.613 125.533 143.845 125.533C147.808 125.533 151.563 124.638 154.917 123.039C156.751 119.496 157.787 115.474 157.787 111.209C157.787 96.977 146.25 85.44 132.019 85.44C128.055 85.44 124.301 86.3348 120.946 87.9334C119.112 91.4763 118.076 95.4992 118.076 99.7641Z" fill="#F2F5FB"/>
</g>
<g filter="url(#filter10_f)">
<path d="M94.2998 111.76C94.2998 120.841 101.662 128.203 110.744 128.203C112.33 128.203 113.864 127.979 115.315 127.559C116.323 125.429 116.887 123.047 116.887 120.534C116.887 111.452 109.525 104.09 100.444 104.09C98.8572 104.09 97.3233 104.315 95.872 104.734C94.8637 106.864 94.2998 109.246 94.2998 111.76Z" fill="#F2F5FB"/>
</g>
<g filter="url(#filter11_f)">
<path d="M254.18 122.123C254.18 120.974 252.723 120.055 251.699 120.575C249.18 121.853 246.328 122.574 243.307 122.574C233.089 122.574 224.805 114.326 224.805 104.152C224.805 95.6453 230.596 88.4851 238.468 86.3669C249.805 89.0599 258.234 99.2119 258.234 111.324C258.234 112.768 259.928 113.863 261.297 113.386C262.927 112.818 264.681 112.509 266.506 112.509C275.211 112.509 282.267 119.534 282.267 128.2C282.267 129.748 282.042 131.244 281.622 132.656C278.739 135.825 274.573 137.815 269.94 137.815C261.236 137.815 254.18 130.79 254.18 122.123Z" fill="#F2F5FB"/>
</g>
<g filter="url(#filter12_f)">
<path d="M159.166 88.6984C159.166 107.845 174.687 123.366 193.834 123.366C201.233 123.366 208.091 121.048 213.721 117.098C217.429 111.214 219.574 104.247 219.574 96.7779C219.574 75.6986 202.486 58.6105 181.406 58.6105C179.551 58.6105 177.726 58.7429 175.941 58.9988C165.888 65.0684 159.166 76.0984 159.166 88.6984Z" fill="#F2F5FB"/>
</g>
<g opacity="0.61" filter="url(#filter13_i)">
<path d="M82.6382 130.373C73.8368 132.17 70.6598 144.343 80.7932 144.343H266.578C278.165 144.343 284.078 133.635 281.694 124.431C279.624 116.441 271.048 110.787 262.083 113.492C260.426 113.992 258.396 112.587 258.346 110.856C257.904 95.6676 241.542 79.3792 221.502 88.527C220.244 89.101 218.72 88.3793 218.364 87.0436C214.874 73.9508 201.976 59.0559 181.666 59.0559C161.159 59.0559 148.801 73.1919 144.796 86.2939C144.41 87.5571 142.968 88.213 141.744 87.7179C129.082 82.599 112.747 88.1857 107.577 103.536C107.178 104.719 105.851 105.36 104.645 105.035C93.4145 102.004 80.0767 112.42 85.0792 126.451C85.6493 128.05 84.3015 130.034 82.6382 130.373Z" fill="url(#paint21_linear)"/>
</g>
</g>
<defs>
<filter id="filter0_f" x="0.961914" y="0.188049" width="800.523" height="700.427" filterUnits="userSpaceOnUse" color-interpolation-filters="sRGB">
<feFlood flood-opacity="0" result="BackgroundImageFix"/>
<feBlend mode="normal" in="SourceGraphic" in2="BackgroundImageFix" result="shape"/>
<feGaussianBlur stdDeviation="14" result="effect1_foregroundBlur"/>
</filter>
<filter id="filter1_f" x="15.0264" y="72.8802" width="437.484" height="592.197" filterUnits="userSpaceOnUse" color-interpolation-filters="sRGB">
<feFlood flood-opacity="0" result="BackgroundImageFix"/>
<feBlend mode="normal" in="SourceGraphic" in2="BackgroundImageFix" result="shape"/>
<feGaussianBlur stdDeviation="1.5" result="effect1_foregroundBlur"/>
</filter>
<filter id="filter2_f" x="541.223" y="468.567" width="31.5137" height="32.5872" filterUnits="userSpaceOnUse" color-interpolation-filters="sRGB">
<feFlood flood-opacity="0" result="BackgroundImageFix"/>
<feBlend mode="normal" in="SourceGraphic" in2="BackgroundImageFix" result="shape"/>
<feGaussianBlur stdDeviation="2" result="effect1_foregroundBlur"/>
</filter>
<filter id="filter3_f" x="425.646" y="469.992" width="32.6677" height="32.8511" filterUnits="userSpaceOnUse" color-interpolation-filters="sRGB">
<feFlood flood-opacity="0" result="BackgroundImageFix"/>
<feBlend mode="normal" in="SourceGraphic" in2="BackgroundImageFix" result="shape"/>
<feGaussianBlur stdDeviation="2" result="effect1_foregroundBlur"/>
</filter>
<filter id="filter4_f" x="451.56" y="476.913" width="22.3002" height="19.7879" filterUnits="userSpaceOnUse" color-interpolation-filters="sRGB">
<feFlood flood-opacity="0" result="BackgroundImageFix"/>
<feBlend mode="normal" in="SourceGraphic" in2="BackgroundImageFix" result="shape"/>
<feGaussianBlur stdDeviation="2" result="effect1_foregroundBlur"/>
</filter>
<filter id="filter5_f" x="465.547" y="469.992" width="25.1873" height="23.5838" filterUnits="userSpaceOnUse" color-interpolation-filters="sRGB">
<feFlood flood-opacity="0" result="BackgroundImageFix"/>
<feBlend mode="normal" in="SourceGraphic" in2="BackgroundImageFix" result="shape"/>
<feGaussianBlur stdDeviation="2" result="effect1_foregroundBlur"/>
</filter>
<filter id="filter6_f" x="483.362" y="433.123" width="65.3535" height="66.6061" filterUnits="userSpaceOnUse" color-interpolation-filters="sRGB">
<feFlood flood-opacity="0" result="BackgroundImageFix"/>
<feBlend mode="normal" in="SourceGraphic" in2="BackgroundImageFix" result="shape"/>
<feGaussianBlur stdDeviation="2" result="effect1_foregroundBlur"/>
</filter>
<filter id="filter7_f" x="564.099" y="489.511" width="32.8266" height="19.6321" filterUnits="userSpaceOnUse" color-interpolation-filters="sRGB">
<feFlood flood-opacity="0" result="BackgroundImageFix"/>
<feBlend mode="normal" in="SourceGraphic" in2="BackgroundImageFix" result="shape"/>
<feGaussianBlur stdDeviation="2" result="effect1_foregroundBlur"/>
</filter>
<filter id="filter8_i" x="412.068" y="431.047" width="184.52" height="76.7957" filterUnits="userSpaceOnUse" color-interpolation-filters="sRGB">
<feFlood flood-opacity="0" result="BackgroundImageFix"/>
<feBlend mode="normal" in="SourceGraphic" in2="BackgroundImageFix" result="shape"/>
<feColorMatrix in="SourceAlpha" type="matrix" values="0 0 0 0 0 0 0 0 0 0 0 0 0 0 0 0 0 0 127 0" result="hardAlpha"/>
<feOffset dx="3" dy="-5.14126"/>
<feGaussianBlur stdDeviation="4.5"/>
<feComposite in2="hardAlpha" operator="arithmetic" k2="-1" k3="1"/>
<feColorMatrix type="matrix" values="0 0 0 0 0.513726 0 0 0 0 0.584314 0 0 0 0 0.72549 0 0 0 0.82 0"/>
<feBlend mode="normal" in2="shape" result="effect1_innerShadow"/>
</filter>
<filter id="filter9_f" x="114.076" y="81.44" width="47.7112" height="48.0927" filterUnits="userSpaceOnUse" color-interpolation-filters="sRGB">
<feFlood flood-opacity="0" result="BackgroundImageFix"/>
<feBlend mode="normal" in="SourceGraphic" in2="BackgroundImageFix" result="shape"/>
<feGaussianBlur stdDeviation="2" result="effect1_foregroundBlur"/>
</filter>
<filter id="filter10_f" x="90.2998" y="100.09" width="30.5875" height="32.1133" filterUnits="userSpaceOnUse" color-interpolation-filters="sRGB">
<feFlood flood-opacity="0" result="BackgroundImageFix"/>
<feBlend mode="normal" in="SourceGraphic" in2="BackgroundImageFix" result="shape"/>
<feGaussianBlur stdDeviation="2" result="effect1_foregroundBlur"/>
</filter>
<filter id="filter11_f" x="220.805" y="82.3669" width="65.4615" height="59.4481" filterUnits="userSpaceOnUse" color-interpolation-filters="sRGB">
<feFlood flood-opacity="0" result="BackgroundImageFix"/>
<feBlend mode="normal" in="SourceGraphic" in2="BackgroundImageFix" result="shape"/>
<feGaussianBlur stdDeviation="2" result="effect1_foregroundBlur"/>
</filter>
<filter id="filter12_f" x="155.166" y="54.6105" width="68.4077" height="72.7555" filterUnits="userSpaceOnUse" color-interpolation-filters="sRGB">
<feFlood flood-opacity="0" result="BackgroundImageFix"/>
<feBlend mode="normal" in="SourceGraphic" in2="BackgroundImageFix" result="shape"/>
<feGaussianBlur stdDeviation="2" result="effect1_foregroundBlur"/>
</filter>
<filter id="filter13_i" x="74.4922" y="55.0559" width="209.723" height="89.2867" filterUnits="userSpaceOnUse" color-interpolation-filters="sRGB">
<feFlood flood-opacity="0" result="BackgroundImageFix"/>
<feBlend mode="normal" in="SourceGraphic" in2="BackgroundImageFix" result="shape"/>
<feColorMatrix in="SourceAlpha" type="matrix" values="0 0 0 0 0 0 0 0 0 0 0 0 0 0 0 0 0 0 127 0" result="hardAlpha"/>
<feOffset dx="2" dy="-4"/>
<feGaussianBlur stdDeviation="9"/>
<feComposite in2="hardAlpha" operator="arithmetic" k2="-1" k3="1"/>
<feColorMatrix type="matrix" values="0 0 0 0 0.513726 0 0 0 0 0.584314 0 0 0 0 0.72549 0 0 0 0.82 0"/>
<feBlend mode="normal" in2="shape" result="effect1_innerShadow"/>
</filter>
<linearGradient id="paint0_linear" x1="204.721" y1="301.494" x2="204.721" y2="475.692" gradientUnits="userSpaceOnUse">
<stop stop-color="#EF7F6C"/>
<stop offset="1" stop-color="#F7AA70"/>
</linearGradient>
<linearGradient id="paint1_linear" x1="451.969" y1="438.747" x2="422.805" y2="533.395" gradientUnits="userSpaceOnUse">
<stop stop-color="#50B2FC"/>
<stop offset="1" stop-color="#108CFF"/>
</linearGradient>
<linearGradient id="paint2_linear" x1="595.776" y1="123.189" x2="595.776" y2="571.286" gradientUnits="userSpaceOnUse">
<stop stop-color="#55E9EB"/>
<stop offset="1" stop-color="#108CFF"/>
</linearGradient>
<linearGradient id="paint3_linear" x1="554.709" y1="249.477" x2="626.665" y2="416.056" gradientUnits="userSpaceOnUse">
<stop stop-color="#C01C08"/>
<stop offset="0.173193" stop-color="#F1896D"/>
<stop offset="0.739802" stop-color="#F18A6D"/>
<stop offset="1" stop-color="#C01C08"/>
</linearGradient>
<linearGradient id="paint4_linear" x1="617.311" y1="412.458" x2="687.468" y2="453.113" gradientUnits="userSpaceOnUse">
<stop stop-color="#F7AA70"/>
<stop offset="1" stop-color="#DC4B4B"/>
</linearGradient>
<linearGradient id="paint5_linear" x1="657.515" y1="243.717" x2="648.387" y2="449.915" gradientUnits="userSpaceOnUse">
<stop stop-color="#ECA251"/>
<stop offset="1" stop-color="#FFE37A"/>
</linearGradient>
<linearGradient id="paint6_linear" x1="442.078" y1="10.6689" x2="432.329" y2="74.183" gradientUnits="userSpaceOnUse">
<stop stop-color="#C3D0E4"/>
<stop offset="0.331673" stop-color="#D8E1EE"/>
</linearGradient>
<radialGradient id="paint7_radial" cx="0" cy="0" r="1" gradientUnits="userSpaceOnUse" gradientTransform="translate(446.837 13.8413) rotate(8.49589) scale(64.4193 25.976)">
<stop stop-color="#EDF4FF"/>
<stop offset="1" stop-color="#D8E1EE" stop-opacity="0"/>
</radialGradient>
<linearGradient id="paint8_linear" x1="446.925" y1="93.389" x2="555.247" y2="82.6336" gradientUnits="userSpaceOnUse">
<stop stop-color="#6ACAF9"/>
<stop offset="1" stop-color="#0C7ADF"/>
</linearGradient>
<radialGradient id="paint9_radial" cx="0" cy="0" r="1" gradientUnits="userSpaceOnUse" gradientTransform="translate(541.216 153.163) rotate(79.5258) scale(63.9855 36.5148)">
<stop stop-color="#D8E1EE"/>
<stop offset="1" stop-color="#D8E1EE" stop-opacity="0"/>
</radialGradient>
<linearGradient id="paint10_linear" x1="441.55" y1="92.0938" x2="406.653" y2="182.507" gradientUnits="userSpaceOnUse">
<stop offset="0.478082" stop-color="#D8E1EE"/>
<stop offset="1" stop-color="#B7C7DF"/>
</linearGradient>
<linearGradient id="paint11_linear" x1="426.951" y1="74.9512" x2="318.333" y2="51.238" gradientUnits="userSpaceOnUse">
<stop stop-color="#70D0FB"/>
<stop offset="1" stop-color="#0C7ADF"/>
</linearGradient>
<radialGradient id="paint12_radial" cx="0" cy="0" r="1" gradientUnits="userSpaceOnUse" gradientTransform="translate(356.952 53.2319) rotate(37.3931) scale(57.8987 36.2576)">
<stop stop-color="#D8E1EE"/>
<stop offset="1" stop-color="#D8E1EE" stop-opacity="0"/>
</radialGradient>
<linearGradient id="paint13_linear" x1="426.951" y1="74.9512" x2="318.333" y2="51.238" gradientUnits="userSpaceOnUse">
<stop stop-color="#70D0FB"/>
<stop offset="1" stop-color="#0C7ADF"/>
</linearGradient>
<linearGradient id="paint14_linear" x1="556.979" y1="472.567" x2="556.979" y2="497.154" gradientUnits="userSpaceOnUse">
<stop stop-color="#F2F5FB"/>
<stop offset="1" stop-color="#F2F5FB"/>
</linearGradient>
<linearGradient id="paint15_linear" x1="441.981" y1="473.992" x2="441.981" y2="498.843" gradientUnits="userSpaceOnUse">
<stop stop-color="#F2F5FB"/>
<stop offset="1" stop-color="#F2F5FB"/>
</linearGradient>
<linearGradient id="paint16_linear" x1="462.709" y1="480.913" x2="462.709" y2="492.701" gradientUnits="userSpaceOnUse">
<stop stop-color="#F2F5FB"/>
<stop offset="1" stop-color="#F2F5FB"/>
</linearGradient>
<linearGradient id="paint17_linear" x1="478.141" y1="473.992" x2="478.141" y2="489.576" gradientUnits="userSpaceOnUse">
<stop stop-color="#F2F5FB"/>
<stop offset="1" stop-color="#F2F5FB"/>
</linearGradient>
<linearGradient id="paint18_linear" x1="516.039" y1="437.123" x2="516.039" y2="495.729" gradientUnits="userSpaceOnUse">
<stop stop-color="#F2F5FB"/>
<stop offset="1" stop-color="#F2F5FB"/>
</linearGradient>
<linearGradient id="paint19_linear" x1="580.512" y1="493.511" x2="580.512" y2="505.143" gradientUnits="userSpaceOnUse">
<stop stop-color="#F2F5FB"/>
<stop offset="1" stop-color="#F2F5FB"/>
</linearGradient>
<linearGradient id="paint20_linear" x1="503.391" y1="436.188" x2="503.391" y2="507.842" gradientUnits="userSpaceOnUse">
<stop stop-color="#E1E7F3" stop-opacity="0"/>
<stop offset="1" stop-color="#E1E7F3"/>
</linearGradient>
<linearGradient id="paint21_linear" x1="178.354" y1="59.0559" x2="178.354" y2="144.343" gradientUnits="userSpaceOnUse">
<stop stop-color="#E1E7F3" stop-opacity="0"/>
<stop offset="1" stop-color="#E1E7F3"/>
</linearGradient>
</defs>
</svg>
