<svg width="671" height="720" viewBox="0 0 671 720" fill="none" xmlns="http://www.w3.org/2000/svg">
<path d="M406.361 177C428.452 177 446.361 194.909 446.361 217L446.361 482C446.361 504.091 428.452 522 406.361 522L280.361 522C258.269 522 240.361 504.091 240.361 482L240.361 217C240.361 194.909 258.269 177 280.361 177L406.361 177Z" fill="url(#paint0_linear)"/>
<mask id="mask0" mask-type="alpha" maskUnits="userSpaceOnUse" x="240" y="177" width="206" height="345">
<path d="M405.361 177C427.452 177 445.361 194.909 445.361 217L445.361 482C445.361 504.091 427.452 522 405.361 522L280.361 522C258.269 522 240.361 504.091 240.361 482L240.361 217C240.361 194.909 258.269 177 280.361 177L405.361 177Z" fill="white"/>
</mask>
<g mask="url(#mask0)">
<rect width="110.424" height="120.332" rx="14" transform="matrix(-0.521642 0.853164 -0.877997 -0.478665 451.613 325.579)" fill="white" fill-opacity="0.1"/>
<rect width="100.59" height="103.513" rx="16" transform="matrix(-0.521642 0.853164 -0.877997 -0.478665 498.35 207.46)" fill="white" fill-opacity="0.1"/>
<rect width="126.486" height="130.162" rx="16" transform="matrix(-0.521642 0.853164 -0.877997 -0.478665 326.877 250.895)" fill="white" fill-opacity="0.1"/>
<rect width="72.3379" height="74.44" rx="16" transform="matrix(-0.521642 0.853164 -0.877997 -0.478665 375.475 164.169)" fill="white" fill-opacity="0.1"/>
<g filter="url(#filter0_f)">
<path d="M199.176 358.716L192.541 363.966C188.683 361.426 184.459 360.007 180.6 359.918C173.299 357.226 165.912 357.331 160.592 360.857C157.327 363.02 155.264 366.192 154.381 369.912C153.864 370.224 153.357 370.589 152.867 371.015C143.663 379.095 88.4645 426.364 38.1536 459.998C39.4481 459.432 40.8025 459.04 42.1857 458.797L42.1012 458.853C40.8581 459.102 39.6711 459.485 38.5594 460.007C35.063 460.111 31.8183 461.019 29.1094 462.814C20.7852 468.33 20.2738 480.395 27.2103 491.403L22.1549 495.131C20.8351 496.029 20.5067 497.592 20.8298 499.234C21.0318 500.498 21.6535 501.851 22.6889 503.089C25.1677 506.053 29.0787 507.238 31.4244 505.736C31.7826 505.506 32.0836 505.228 32.3276 504.909L36.5059 501.649C46.4712 509.463 58.9315 511.77 66.8325 506.534C70.017 504.424 72.0582 501.355 72.9762 497.754C73.8032 496.942 74.6874 496.096 75.6246 495.218C77.3189 496.268 79.0184 497.326 80.7238 498.387L80.7349 498.394L80.7358 498.395L80.7777 498.421L80.7812 498.423C98.1496 509.234 116.117 520.417 135.253 527.786C137.256 526.933 138.648 526.35 140.154 525.72L140.157 525.719L140.17 525.713C141.136 525.309 142.151 524.884 143.404 524.356C143.781 524.182 144.115 524.243 144.072 524.478C142.659 526.164 142.139 528.256 142.296 530.411C160.375 535.999 178.219 539.887 196.902 542.421C196.084 547.892 197.637 554.349 201.499 560.478L196.444 564.206C195.124 565.104 194.796 566.667 195.119 568.308C195.321 569.573 195.942 570.926 196.978 572.164C199.457 575.128 203.368 576.313 205.713 574.811C206.072 574.581 206.372 574.303 206.617 573.984L210.795 570.724C220.76 578.538 233.22 580.845 241.121 575.609C244.306 573.499 246.347 570.43 247.265 566.829C270.521 543.997 338.965 494.083 362.561 477.722C363.112 477.341 363.625 476.902 364.098 476.411C367.234 476.183 370.14 475.284 372.604 473.651C378.615 469.668 380.552 462.271 378.553 454.323C379.059 450.833 378.202 446.781 376.015 442.847L382.481 437.71C385.187 435.216 383.062 431.43 381.552 429.858C380.106 428.195 375.894 425.908 373.465 427.791L366.829 433.041C362.972 430.501 358.748 429.082 354.889 428.993C347.588 426.301 340.201 426.406 334.881 429.932C331.616 432.095 329.553 435.267 328.67 438.987C328.153 439.299 327.646 439.664 327.156 440.09C326.858 440.351 326.513 440.653 326.122 440.994C317.027 439.674 307.87 438.688 298.714 437.702C282.528 435.959 266.342 434.216 250.493 430.631C246.299 432.051 244.102 432.743 239.651 434.055C239.362 434.124 239.039 434.004 239.205 433.852C240.022 433.012 240.673 432.354 241.291 431.728C242.153 430.856 242.951 430.049 244.045 428.905C243.07 428.626 242.252 428.396 241.481 428.179L241.479 428.178C239.915 427.738 238.541 427.352 236.437 426.723C233.594 427.175 232.038 427.376 229.072 427.745C228.649 427.789 228.193 427.645 228.236 427.409L228.795 424.352C215.321 419.978 202.561 415.237 190.014 409.488L189.695 409.311L188.25 408.662L188.272 408.647C188.823 408.266 189.336 407.827 189.809 407.336C192.945 407.108 195.852 406.209 198.315 404.576C204.326 400.593 206.263 393.196 204.264 385.248C204.77 381.758 203.913 377.706 201.726 373.772L208.192 368.635C210.898 366.141 208.773 362.355 207.263 360.783C205.817 359.12 201.605 356.833 199.176 358.716Z" fill="#395590" fill-opacity="0.34"/>
</g>
</g>
<path d="M154.164 485.739C154.164 485.739 195.269 500.963 228.678 502.739C250.669 503.923 275.281 501.302 295.918 489.883C313.934 479.903 355.547 455.629 366.88 448.947C373.816 444.887 378.299 440.743 378.299 435.33C378.299 431.862 378.299 430.255 378.299 424.673C378.299 404.966 286.953 358.024 264.455 352.273C241.957 346.521 227.155 348.721 214.384 356.079C201.613 363.437 123.377 410.633 123.377 425.518C123.377 430.001 123.377 433.215 123.377 437.444C123.377 440.658 124.053 443.957 125.407 447.34C133.442 466.878 154.164 485.739 154.164 485.739Z" fill="#C3D0E4"/>
<path d="M228.732 491.507L228.731 491.507C212.136 490.625 193.589 486.397 179.161 482.376C171.954 480.367 165.788 478.414 161.424 476.963C159.243 476.237 157.512 475.638 156.328 475.22C155.736 475.011 155.281 474.847 154.974 474.736C154.859 474.695 154.765 474.661 154.693 474.634C154.667 474.611 154.638 474.584 154.606 474.554C154.455 474.415 154.23 474.206 153.941 473.933C153.362 473.387 152.525 472.583 151.494 471.556C149.433 469.503 146.601 466.56 143.522 463.009C137.352 455.891 130.247 446.39 126.334 436.731C122.511 427.296 124.641 418.565 129.339 411.158C134.053 403.725 141.321 397.69 147.584 393.807C156.756 388.182 182.116 373.533 200.285 363.039C207.232 359.027 213.127 355.622 216.664 353.56C222.982 349.878 228.511 347.559 235.192 346.839C241.894 346.118 249.839 346.997 260.993 349.859C272.07 352.701 294.265 362.566 316.464 374.812C338.673 387.063 360.676 401.584 371.463 413.667L371.464 413.668C376.841 419.67 378.051 424.061 376.933 427.619C375.778 431.294 372.037 434.512 366.373 437.852C355.039 444.534 313.436 468.802 295.434 478.775C275.025 490.067 250.625 492.686 228.732 491.507Z" fill="url(#paint1_linear)" stroke="url(#paint2_radial)" stroke-width="2"/>
<path d="M162.283 470.768L161.612 471.509L161.755 471.639L161.936 471.706L162.283 470.768ZM162.283 470.768C161.612 471.509 161.611 471.509 161.611 471.508L161.61 471.508L161.607 471.505L161.596 471.495L161.553 471.456C161.516 471.421 161.461 471.371 161.389 471.304C161.246 471.172 161.036 470.976 160.767 470.721C160.229 470.211 159.453 469.464 158.501 468.512C156.597 466.609 153.981 463.885 151.134 460.596C145.454 454.034 138.794 445.162 135.054 436.047C131.216 426.695 133.494 418.141 138.147 411.086C142.781 404.059 149.805 398.448 155.666 394.812L155.671 394.809C163.107 390.25 181.343 379.872 196.559 371.212C205.071 366.368 212.638 362.062 216.841 359.613C222.772 356.156 228.21 353.696 234.801 352.793C241.382 351.892 249.027 352.554 259.374 355.194C269.781 357.849 290.047 366.932 310.159 378.115C330.263 389.293 350.419 402.682 360.521 414.025C365.577 419.681 367.19 424.236 365.74 428.306C365.033 430.291 363.634 432.032 361.804 433.641C359.973 435.25 357.657 436.773 355.037 438.307C344.637 444.394 306.48 466.645 289.975 475.787L289.975 475.787C270.805 486.399 250.719 488.519 230.484 487.414L230.483 487.414C215.109 486.562 197.963 482.627 184.692 478.92C178.05 477.065 172.364 475.263 168.339 473.924C166.326 473.254 164.727 472.701 163.631 472.314C163.083 472.121 162.66 471.969 162.374 471.865C162.282 471.832 162.203 471.804 162.14 471.78C162.105 471.768 162.075 471.757 162.049 471.747L161.965 471.716L161.944 471.709L161.938 471.707L161.937 471.706C161.936 471.706 161.936 471.706 162.283 470.768Z" fill="url(#paint3_linear)" stroke="url(#paint4_radial)" stroke-width="2"/>
<path d="M162.283 470.768L314.357 381.622C292.789 369.189 270.122 358.955 259.042 356.079C238.489 350.835 229.017 353.542 217.26 360.393C205.504 367.243 167.697 388.473 156.109 395.578C144.522 402.767 128.536 417.653 135.895 435.584C143.253 453.514 162.283 470.768 162.283 470.768Z" fill="#0C7ADF" fill-opacity="0.3"/>
<path d="M310.41 370.397C306.665 374.228 302.13 378.763 297.945 382.947C292.968 387.925 288.487 392.406 286.418 394.617C285.988 396.034 286.266 397.044 287.765 397.617C302.004 403.021 313.287 397.896 317.125 395.841C318.118 395.27 318.433 394.372 318.077 393.293C318.268 390.672 318.589 386.605 318.932 382.24C319.111 379.967 319.296 377.612 319.473 375.34C316.452 373.648 313.422 371.997 310.41 370.397Z" fill="#2D3963" fill-opacity="0.3"/>
<path d="M302.411 346.857C302.591 347.433 315.244 384.884 318.077 393.294C318.433 394.373 318.118 395.271 317.125 395.841C313.287 397.896 302.004 403.022 287.765 397.618C286.266 397.045 285.988 396.035 286.419 394.618C289.241 385.146 299.895 348.982 300.511 346.967C301.257 344.652 302.226 346.208 302.411 346.857Z" fill="url(#paint5_linear)"/>
<path d="M190.698 302.695C194.977 308.254 199.494 311.035 203.58 312.401C206.808 313.48 209.715 313.654 211.869 313.68V367.13C211.853 367.129 211.836 367.128 211.818 367.127C210.79 367.073 209.284 366.964 207.394 366.749C203.612 366.319 198.3 365.463 192.205 363.759C180.007 360.35 164.746 353.569 152.306 340.092C139.883 326.634 136.706 313.053 138.587 302.52C140.48 291.924 147.451 284.404 155.491 282.695C163.745 280.94 170.448 283.249 176.148 287.331C181.906 291.456 186.583 297.351 190.698 302.695Z" fill="url(#paint6_linear)" stroke="url(#paint7_linear)" stroke-width="3" stroke-miterlimit="10"/>
<path fill-rule="evenodd" clip-rule="evenodd" d="M172.366 340.925C185.309 336.967 191.869 320.897 187.017 305.032C184.094 295.473 177.696 288.169 170.24 284.739C172.177 285.576 174.005 286.65 175.744 287.895C181.407 291.952 186.028 297.766 190.148 303.118C194.509 308.783 199.139 311.647 203.359 313.058C206.348 314.057 209.071 314.302 211.175 314.36V366.394C210.215 366.332 208.965 366.229 207.472 366.06C203.719 365.633 198.444 364.783 192.392 363.091C180.273 359.704 165.141 352.975 152.815 339.621C149.931 336.496 147.554 333.37 145.628 330.281C152.347 339.306 162.764 343.861 172.366 340.925Z" fill="url(#paint8_linear)"/>
<path d="M190.698 302.695C194.977 308.254 199.494 311.035 203.58 312.401C206.808 313.48 209.715 313.654 211.869 313.68V367.13C211.853 367.129 211.836 367.128 211.818 367.127C210.79 367.073 209.284 366.964 207.394 366.749C203.612 366.319 198.3 365.463 192.205 363.759C180.007 360.35 164.746 353.569 152.306 340.092C139.883 326.634 136.706 313.053 138.587 302.52C140.48 291.924 147.451 284.404 155.491 282.695C163.745 280.94 170.448 283.249 176.148 287.331C181.906 291.456 186.583 297.351 190.698 302.695Z" stroke="url(#paint9_radial)" stroke-width="3" stroke-miterlimit="10"/>
<path opacity="0.35" d="M167.612 313.875C168.796 315.397 168.712 317.85 167.527 319.457C166.343 321.064 164.398 321.149 163.298 319.711C162.114 318.188 160.592 312.691 161.776 311.084C162.876 309.477 166.428 312.437 167.612 313.875Z" fill="#2B3760"/>
<path d="M146.633 319.31C146.935 321.202 148.751 322.564 150.643 322.262C152.535 321.959 153.897 320.143 153.595 318.251C153.292 316.359 151.476 314.997 149.584 315.299C147.692 315.527 146.33 317.343 146.633 319.31Z" fill="#2397AA"/>
<path d="M147.079 318.537C147.411 320.44 149.148 321.764 151.135 321.516C153.038 321.185 154.362 319.447 154.114 317.461C153.783 315.557 152.045 314.233 150.059 314.482C148.155 314.813 146.831 316.633 147.079 318.537Z" fill="#2B3760"/>
<path d="M150.059 315.723C149.728 316.302 150.141 317.13 151.052 317.626C151.879 318.123 152.872 318.04 153.203 317.461C153.535 316.882 153.121 316.054 152.21 315.557C151.3 315.061 150.39 315.144 150.059 315.723Z" fill="#364D98"/>
<path d="M151.217 315.887C151.134 316.053 151.3 316.384 151.631 316.632C151.962 316.798 152.293 316.798 152.458 316.632C152.541 316.384 152.376 316.136 152.045 315.887C151.714 315.722 151.3 315.722 151.217 315.887Z" fill="#C3D8F8"/>
<path d="M152.21 318.537C152.706 318.62 153.203 319.034 152.955 319.53C152.541 320.192 151.879 320.689 151.051 320.771C149.562 321.02 148.072 319.944 147.906 318.454C147.824 317.792 147.906 317.213 148.237 316.716C148.486 316.22 149.231 316.551 149.562 317.047C149.81 317.461 150.306 317.875 150.803 318.123C151.217 318.372 151.713 318.537 152.21 318.537Z" fill="#1B244A"/>
<path d="M162.906 300.617C163.21 302.514 165.032 303.881 166.929 303.577C168.827 303.273 170.193 301.452 169.89 299.554C169.586 297.656 167.764 296.29 165.867 296.594C163.969 296.821 162.603 298.643 162.906 300.617Z" fill="#2397AA"/>
<path d="M163.41 299.971C163.741 301.874 165.479 303.198 167.465 302.95C169.368 302.619 170.692 300.881 170.444 298.895C170.113 296.992 168.375 295.667 166.389 295.916C164.485 296.247 163.161 298.067 163.41 299.971Z" fill="#2B3760"/>
<path d="M166.389 297.157C166.058 297.736 166.472 298.564 167.382 299.061C168.21 299.557 169.203 299.474 169.534 298.895C169.865 298.316 169.451 297.488 168.541 296.992C167.63 296.495 166.72 296.578 166.389 297.157Z" fill="#364D98"/>
<path d="M167.547 297.321C167.464 297.487 167.63 297.818 167.961 298.066C168.292 298.232 168.623 298.232 168.788 298.066C168.871 297.818 168.706 297.57 168.375 297.321C168.044 297.156 167.63 297.156 167.547 297.321Z" fill="#C3D8F8"/>
<path d="M168.54 299.971C169.036 300.054 169.533 300.468 169.285 300.964C168.871 301.626 168.209 302.123 167.381 302.206C165.892 302.454 164.402 301.378 164.236 299.888C164.154 299.226 164.236 298.647 164.567 298.15C164.816 297.654 165.561 297.985 165.892 298.481C166.14 298.895 166.636 299.309 167.133 299.557C167.547 299.806 168.043 299.971 168.54 299.971Z" fill="#1B244A"/>
<path d="M168.881 312.776C170.403 313.875 170.741 316.074 169.642 317.597C168.542 319.119 166.343 319.457 164.821 318.358C163.298 317.258 160.592 312.691 161.691 311.169C162.791 309.562 167.358 311.591 168.881 312.776Z" fill="#FFE37A"/>
<path d="M296.511 303.979L296.173 419.852L242.127 451.231L242.465 335.442L296.511 303.979Z" fill="url(#paint10_linear)"/>
<path d="M295.412 420.529L275.028 432.201L265.471 426.703L285.854 415.031L295.412 420.529Z" fill="#EBEFF8"/>
<path d="M242.465 335.442L242.126 451.231L187.742 419.852L188.08 303.979L242.465 335.442Z" fill="url(#paint11_linear)"/>
<path d="M262.848 381.851C262.848 411.877 262.848 420.758 262.848 420.758L283.232 408.832C283.232 408.832 283.232 390.732 283.232 373.985C283.232 357.239 262.848 359.696 262.848 381.851Z" fill="url(#paint12_linear)"/>
<path fill-rule="evenodd" clip-rule="evenodd" d="M281.894 409.614L283.232 408.831V373.984C283.232 363.151 274.702 360.354 268.678 365.727C274.549 361.834 281.894 364.966 281.894 375.019V409.614Z" fill="#131F37"/>
<path d="M209.646 398.662C209.754 399.201 217.608 434.29 219.364 442.17C219.582 443.18 219.23 443.968 218.311 444.399C214.773 445.932 204.451 449.604 192.448 443.464C191.184 442.814 191.027 441.873 191.527 440.624C194.814 432.272 207.261 400.373 207.974 398.598C208.826 396.561 209.541 398.057 209.646 398.662Z" fill="#2D3963" fill-opacity="0.3"/>
<path d="M204.702 399.401C204.872 399.993 215.529 434.586 217.643 442.368C217.897 443.383 217.558 444.228 216.628 444.567C206.309 448.457 198.19 447.781 190.831 443.298C189.309 442.368 188.801 441.86 189.309 440.422C192.438 431.626 202.25 401.093 202.926 399.317C203.772 397.371 204.533 398.809 204.702 399.401Z" fill="url(#paint13_linear)"/>
<path d="M226.048 389.637C226.207 390.43 237.785 442.162 240.374 453.778C240.696 455.267 240.176 456.428 238.822 457.065C233.605 459.323 218.388 464.738 200.693 455.686C198.83 454.728 198.599 453.341 199.335 451.499C204.181 439.186 222.531 392.158 223.582 389.541C224.838 386.538 225.893 388.745 226.048 389.637Z" fill="#2D3963" fill-opacity="0.3"/>
<path d="M219.145 391.29C219.387 392.064 236.396 442.407 240.204 453.714C240.682 455.164 240.26 456.37 238.925 457.137C233.765 459.9 218.598 466.79 199.457 459.525C197.442 458.756 197.068 457.398 197.647 455.493C201.441 442.76 215.763 394.146 216.592 391.438C217.593 388.325 218.897 390.417 219.145 391.29Z" fill="url(#paint14_linear)"/>
<path d="M292.789 414.354L272.406 426.026L262.848 420.444L262.857 397.079L292.789 414.354Z" fill="url(#paint15_linear)"/>
<path d="M298.541 427.042L278.157 438.714L268.515 433.132L288.898 421.46L298.541 427.042Z" fill="#EBEFF8"/>
<path d="M292.789 414.355V419.007L272.321 430.679L272.406 426.027L292.789 414.355Z" fill="#A6B0C9"/>
<path d="M295.412 420.529V425.181L275.028 436.853V432.201L295.412 420.529Z" fill="#A6B0C9"/>
<path d="M301.163 433.217L280.779 444.889L271.222 439.307L291.521 427.719L301.163 433.217Z" fill="#EBEFF8"/>
<path d="M298.54 427.042V431.694L278.072 443.366L278.157 438.714L298.54 427.042Z" fill="#A6B0C9"/>
<path d="M301.163 433.216V437.868L280.695 449.54L280.779 444.888L301.163 433.216Z" fill="#A6B0C9"/>
<path d="M302.823 260.914L241.944 225.744L181.398 260.914L242.278 296.084L302.823 260.914Z" fill="#CBD1E2"/>
<path d="M226.099 222.812V235.019L242.084 244.238V232.031L226.099 222.812Z" fill="#516B97"/>
<path d="M271.395 248.047L271.395 260.27L287.38 269.489L287.38 257.267L271.395 248.047Z" fill="#516B97"/>
<path d="M213.367 248.289V260.561L197.501 269.78V257.486L213.367 248.289Z" fill="#B7C2D9"/>
<path d="M257.898 222.812L257.949 235.052L242.083 244.234V232.01L257.898 222.812Z" fill="#B7C2D9"/>
<path d="M213.37 248.287L197.469 239.152L181.652 248.287L197.553 257.506L213.37 248.287Z" fill="#E1E8F5"/>
<path d="M257.9 222.811L241.96 213.677L226.104 222.811L242.045 232.03L257.9 222.811Z" fill="#E1E8F5"/>
<path d="M303.196 248.048L287.256 238.913L271.4 248.048L287.34 257.267L303.196 248.048Z" fill="#E1E8F5"/>
<path d="M258.319 274.346L242.502 283.48L226.602 274.346L242.418 265.126L258.319 274.346Z" fill="#E1E8F5"/>
<path fill-rule="evenodd" clip-rule="evenodd" d="M181.652 248.289L181.568 307.156L188.123 310.957V310.965L192.405 313.439L197.469 316.375V316.365L226.517 333.152L226.517 333.212L242.417 342.346L242.417 342.34L242.423 342.344L242.508 295.741L242.484 295.727L242.502 283.479L226.601 274.344L226.584 286.553L197.531 269.79L197.553 257.508L181.652 248.289Z" fill="url(#paint16_linear)"/>
<path fill-rule="evenodd" clip-rule="evenodd" d="M303.223 248.032L303.308 306.899L296.752 310.7V310.71L291.468 313.763L287.407 316.118V316.11L258.359 332.897L258.359 332.956L242.458 342.09L242.458 342.085L242.452 342.089L242.368 295.486L242.391 295.472L242.373 283.223L258.274 274.089L258.292 286.298L287.344 269.535L287.322 257.251L303.223 248.032Z" fill="#B7C2D9"/>
<path d="M271.698 297.146C271.698 311.535 271.698 315.791 271.698 315.791L281.466 310.076C281.466 310.076 281.466 301.402 281.466 293.377C281.466 285.351 271.698 286.529 271.698 297.146Z" fill="url(#paint17_linear)"/>
<path fill-rule="evenodd" clip-rule="evenodd" d="M280.827 310.451L281.467 310.076V293.376C281.467 288.184 277.379 286.844 274.492 289.42C277.306 287.553 280.827 289.054 280.827 293.872V310.451Z" fill="#131F37"/>
<path d="M212.419 297.146C212.419 311.535 212.419 315.791 212.419 315.791L202.651 310.076C202.651 310.076 202.651 301.402 202.651 293.377C202.651 285.351 212.419 286.529 212.419 297.146Z" fill="url(#paint18_linear)"/>
<path fill-rule="evenodd" clip-rule="evenodd" d="M203.291 310.451L202.65 310.076V293.376C202.65 288.184 206.739 286.844 209.626 289.42C206.812 287.553 203.291 289.054 203.291 293.872V310.451Z" fill="#131F37"/>
<path d="M280.779 444.888L278.073 443.366L278.157 438.714L275.028 436.853V432.201L272.406 430.679V426.027L262.848 420.445V439.137L272.321 444.719L280.694 449.54L280.779 444.888Z" fill="url(#paint19_linear)"/>
<g opacity="0.16" filter="url(#filter1_f)">
<path d="M345.629 421.882C352.928 405.253 334.65 398.242 320.767 425.691C317.727 434.407 320.01 443.78 334.482 438.055C348.954 432.331 347.514 426.183 345.657 425.368C343.799 424.554 344.997 423.356 345.629 421.882Z" fill="url(#paint20_linear)"/>
</g>
<g opacity="0.76" filter="url(#filter2_f)">
<path d="M337.345 437.24C330.781 440.038 324.066 442.571 318.071 441.072C312.077 439.574 321.419 434.98 326.261 432.828C331.104 430.676 343.181 427.329 346.248 428.997C349.315 430.665 343.909 434.442 337.345 437.24Z" fill="#003F7E"/>
</g>
<path d="M336.733 425.821C338.504 426.69 340.658 426.776 342.36 426.695C343.689 426.643 344.709 426.981 345.261 427.457C345.526 427.685 345.678 427.937 345.741 428.207C345.804 428.477 345.794 428.84 345.608 429.314C345.222 430.295 344.115 431.645 341.759 433.228C339.426 434.795 335.965 436.526 331.038 438.312C324.732 440.562 320.144 440.527 316.858 439.216C313.59 437.912 311.432 435.274 310.126 431.924C308.814 428.56 308.389 424.532 308.582 420.617C308.775 416.71 309.58 412.99 310.666 410.259C312.35 406.314 315.556 404.112 318.976 403.289C322.434 402.458 326.026 403.059 328.378 404.627C330.698 406.173 331.969 408.712 332.66 411.617C333.351 414.525 333.428 417.657 333.468 420.241L333.468 420.242C333.49 421.659 333.819 422.831 334.413 423.776C335.007 424.721 335.827 425.377 336.733 425.821Z" fill="url(#paint21_radial)" stroke="url(#paint22_linear)" stroke-width="2" stroke-miterlimit="10"/>
<path d="M312.259 416.086C312.471 415.995 312.516 415.624 312.358 415.256C312.2 414.889 311.9 414.666 311.688 414.757C311.475 414.848 311.431 415.22 311.589 415.587C311.746 415.954 312.046 416.178 312.259 416.086Z" fill="#EEF8FA"/>
<path d="M321.27 418.949C321.425 419.917 322.354 420.614 323.322 420.459C324.289 420.304 324.986 419.375 324.831 418.408C324.676 417.44 323.747 416.743 322.78 416.898C321.812 417.014 321.115 417.943 321.27 418.949Z" fill="#C4A547" fill-opacity="0.74"/>
<path d="M321.24 418.74C321.395 419.63 322.208 420.249 323.137 420.133C324.027 419.978 324.646 419.165 324.53 418.237C324.375 417.346 323.562 416.727 322.633 416.843C321.743 416.998 321.124 417.849 321.24 418.74Z" fill="#2B3760"/>
<path d="M322.634 417.423C322.479 417.694 322.672 418.081 323.098 418.314C323.485 418.546 323.95 418.507 324.104 418.236C324.259 417.965 324.066 417.578 323.64 417.346C323.214 417.114 322.788 417.152 322.634 417.423Z" fill="#364D98"/>
<path d="M323.175 417.5C323.136 417.578 323.214 417.733 323.368 417.849C323.523 417.926 323.678 417.926 323.755 417.849C323.794 417.733 323.717 417.617 323.562 417.5C323.407 417.423 323.214 417.423 323.175 417.5Z" fill="#C3D8F8"/>
<path d="M323.639 418.74C323.871 418.779 324.104 418.973 323.988 419.205C323.794 419.514 323.484 419.747 323.097 419.785C322.401 419.902 321.704 419.398 321.627 418.702C321.588 418.392 321.627 418.121 321.781 417.889C321.897 417.657 322.246 417.811 322.401 418.044C322.517 418.237 322.749 418.431 322.981 418.547C323.175 418.663 323.407 418.74 323.639 418.74Z" fill="#1B244A"/>
<path d="M309.725 416.394C309.88 417.362 310.809 418.059 311.776 417.904C312.744 417.749 313.441 416.82 313.286 415.852C313.131 414.885 312.202 414.188 311.234 414.343C310.267 414.459 309.57 415.388 309.725 416.394Z" fill="#C4A547" fill-opacity="0.74"/>
<path d="M309.695 416.184C309.85 417.074 310.662 417.693 311.591 417.577C312.482 417.422 313.101 416.609 312.985 415.68C312.83 414.79 312.017 414.171 311.088 414.287C310.198 414.442 309.579 415.293 309.695 416.184Z" fill="#2B3760"/>
<path d="M311.088 414.868C310.934 415.139 311.127 415.526 311.553 415.758C311.94 415.99 312.405 415.951 312.559 415.68C312.714 415.409 312.521 415.022 312.095 414.79C311.669 414.558 311.243 414.597 311.088 414.868Z" fill="#364D98"/>
<path d="M311.63 414.945C311.591 415.022 311.668 415.177 311.823 415.293C311.978 415.371 312.133 415.371 312.21 415.293C312.249 415.177 312.172 415.061 312.017 414.945C311.862 414.867 311.668 414.867 311.63 414.945Z" fill="#C3D8F8"/>
<path d="M312.094 416.184C312.326 416.222 312.559 416.416 312.443 416.648C312.249 416.958 311.939 417.19 311.552 417.229C310.856 417.345 310.159 416.842 310.081 416.145C310.043 415.835 310.081 415.564 310.236 415.332C310.352 415.1 310.701 415.255 310.856 415.487C310.972 415.681 311.204 415.874 311.436 415.99C311.63 416.106 311.862 416.184 312.094 416.184Z" fill="#1B244A"/>
<defs>
<filter id="filter0_f" x="-29.6392" y="290" width="461.618" height="353.043" filterUnits="userSpaceOnUse" color-interpolation-filters="sRGB">
<feFlood flood-opacity="0" result="BackgroundImageFix"/>
<feBlend mode="normal" in="SourceGraphic" in2="BackgroundImageFix" result="shape"/>
<feGaussianBlur stdDeviation="20" result="effect1_foregroundBlur"/>
</filter>
<filter id="filter1_f" x="315.924" y="401.739" width="37.7786" height="44.4551" filterUnits="userSpaceOnUse" color-interpolation-filters="sRGB">
<feFlood flood-opacity="0" result="BackgroundImageFix"/>
<feBlend mode="normal" in="SourceGraphic" in2="BackgroundImageFix" result="shape"/>
<feGaussianBlur stdDeviation="0.5" result="effect1_foregroundBlur"/>
</filter>
<filter id="filter2_f" x="310.128" y="422.546" width="43.0019" height="24.9716" filterUnits="userSpaceOnUse" color-interpolation-filters="sRGB">
<feFlood flood-opacity="0" result="BackgroundImageFix"/>
<feBlend mode="normal" in="SourceGraphic" in2="BackgroundImageFix" result="shape"/>
<feGaussianBlur stdDeviation="3" result="effect1_foregroundBlur"/>
</filter>
<linearGradient id="paint0_linear" x1="416.658" y1="350.333" x2="264.297" y2="178.644" gradientUnits="userSpaceOnUse">
<stop stop-color="#4BE0D7"/>
<stop offset="1" stop-color="#BAF7C8"/>
</linearGradient>
<linearGradient id="paint1_linear" x1="250.838" y1="345.6" x2="250.838" y2="492.766" gradientUnits="userSpaceOnUse">
<stop offset="0.181167" stop-color="#D9E1EF"/>
<stop offset="1" stop-color="#EEF2FA"/>
</linearGradient>
<radialGradient id="paint2_radial" cx="0" cy="0" r="1" gradientUnits="userSpaceOnUse" gradientTransform="translate(242.541 491.041) rotate(-90) scale(81.2219 189.086)">
<stop stop-color="#EFFCFB"/>
<stop offset="1" stop-color="#EFFCFB" stop-opacity="0"/>
</radialGradient>
<linearGradient id="paint3_linear" x1="249.68" y1="353.413" x2="249.68" y2="486.676" gradientUnits="userSpaceOnUse">
<stop offset="0.427454" stop-color="#108CFF"/>
<stop offset="1" stop-color="#8FE6FA"/>
</linearGradient>
<radialGradient id="paint4_radial" cx="0" cy="0" r="1" gradientUnits="userSpaceOnUse" gradientTransform="translate(307.618 376.394) rotate(88.1817) scale(53.2773 92.4063)">
<stop stop-color="white"/>
<stop offset="1" stop-color="white" stop-opacity="0"/>
</radialGradient>
<linearGradient id="paint5_linear" x1="307.9" y1="351.32" x2="289.868" y2="396.681" gradientUnits="userSpaceOnUse">
<stop stop-color="#96A5CB"/>
<stop offset="1" stop-color="#5A6A92"/>
</linearGradient>
<linearGradient id="paint6_linear" x1="174.978" y1="280.601" x2="174.978" y2="368.682" gradientUnits="userSpaceOnUse">
<stop stop-color="#17E1D5"/>
<stop offset="1" stop-color="#29AFCC"/>
</linearGradient>
<linearGradient id="paint7_linear" x1="152.843" y1="280.689" x2="170.113" y2="347.612" gradientUnits="userSpaceOnUse">
<stop stop-color="#BAFFFA"/>
<stop offset="1" stop-color="#BAFFFA" stop-opacity="0"/>
</linearGradient>
<linearGradient id="paint8_linear" x1="159.33" y1="306.628" x2="192.921" y2="359.601" gradientUnits="userSpaceOnUse">
<stop stop-color="#21A1B9" stop-opacity="0"/>
<stop offset="1" stop-color="#21A1B9"/>
</linearGradient>
<radialGradient id="paint9_radial" cx="0" cy="0" r="1" gradientUnits="userSpaceOnUse" gradientTransform="translate(145.127 288.15) rotate(39.1817) scale(46.3823 40.4326)">
<stop stop-color="#20E7DE"/>
<stop offset="1" stop-color="#20E7DE" stop-opacity="0"/>
</radialGradient>
<linearGradient id="paint10_linear" x1="269.319" y1="330.94" x2="269.319" y2="435.004" gradientUnits="userSpaceOnUse">
<stop stop-color="#A5B3D2"/>
<stop offset="1" stop-color="#C3D0E4"/>
</linearGradient>
<linearGradient id="paint11_linear" x1="215.103" y1="328.069" x2="215.103" y2="451.231" gradientUnits="userSpaceOnUse">
<stop stop-color="#48618F"/>
<stop offset="1" stop-color="#526D99"/>
</linearGradient>
<linearGradient id="paint12_linear" x1="273.04" y1="356.907" x2="273.04" y2="414.608" gradientUnits="userSpaceOnUse">
<stop stop-color="#162144"/>
<stop offset="1" stop-color="#3D4769"/>
</linearGradient>
<linearGradient id="paint13_linear" x1="204.504" y1="399.911" x2="204.504" y2="446.847" gradientUnits="userSpaceOnUse">
<stop stop-color="#EEF2FA"/>
<stop offset="1" stop-color="#C3D0E4"/>
</linearGradient>
<linearGradient id="paint14_linear" x1="226.004" y1="390.821" x2="209.53" y2="455.24" gradientUnits="userSpaceOnUse">
<stop stop-color="#9FADD2"/>
<stop offset="1" stop-color="#5A6A93"/>
</linearGradient>
<linearGradient id="paint15_linear" x1="256.687" y1="398.542" x2="279.903" y2="421.026" gradientUnits="userSpaceOnUse">
<stop stop-color="#8692B2"/>
<stop offset="1" stop-color="#EBEFF8"/>
</linearGradient>
<linearGradient id="paint16_linear" x1="188.849" y1="256.119" x2="239.173" y2="339.727" gradientUnits="userSpaceOnUse">
<stop stop-color="#516B97"/>
<stop offset="1" stop-color="#5C78A8"/>
</linearGradient>
<linearGradient id="paint17_linear" x1="276.582" y1="285.192" x2="276.582" y2="312.844" gradientUnits="userSpaceOnUse">
<stop stop-color="#162144"/>
<stop offset="1" stop-color="#3D4769"/>
</linearGradient>
<linearGradient id="paint18_linear" x1="207.535" y1="285.192" x2="207.535" y2="312.844" gradientUnits="userSpaceOnUse">
<stop stop-color="#162144"/>
<stop offset="1" stop-color="#3D4769"/>
</linearGradient>
<linearGradient id="paint19_linear" x1="271.814" y1="420.445" x2="271.814" y2="449.54" gradientUnits="userSpaceOnUse">
<stop stop-color="#95A0BC"/>
<stop offset="1" stop-color="#556085"/>
</linearGradient>
<linearGradient id="paint20_linear" x1="342.921" y1="427.275" x2="324.791" y2="424.994" gradientUnits="userSpaceOnUse">
<stop stop-color="#2D3963"/>
<stop offset="1" stop-color="#2D3963" stop-opacity="0.57"/>
</linearGradient>
<radialGradient id="paint21_radial" cx="0" cy="0" r="1" gradientUnits="userSpaceOnUse" gradientTransform="translate(314.048 414.774) rotate(31.7872) scale(37.8703 34.3679)">
<stop stop-color="#FFEA7A"/>
<stop offset="0.49279" stop-color="#FFCF7A"/>
<stop offset="1" stop-color="#E48E3F"/>
</radialGradient>
<linearGradient id="paint22_linear" x1="332.762" y1="402.833" x2="332.049" y2="428.676" gradientUnits="userSpaceOnUse">
<stop stop-color="#FFE47A"/>
<stop offset="1" stop-color="#FFE47A" stop-opacity="0"/>
</linearGradient>
</defs>
</svg>
