<svg width="331" height="305" viewBox="0 0 331 305" fill="none"
    xmlns="http://www.w3.org/2000/svg">
    <path fill-rule="evenodd" clip-rule="evenodd" d="M18.709 0C-14.9804 0 -42.291 27.3107 -42.291 61V125.456C-42.291 159.145 -14.9804 186.456 18.7089 186.456H269.357C303.046 186.456 330.357 159.145 330.357 125.456V61C330.357 27.3106 303.046 0 269.357 0H18.709ZM59.3801 233.879V186.456H8.57203L54.1746 235.913C56.0263 237.921 59.3801 236.611 59.3801 233.879Z" fill="url(#paint0_linear)"/>
    <g opacity="0.34" filter="url(#filter0_f)">
        <path d="M153.677 287.037C172.207 287.037 161.163 296.4 215.784 296.4C257.406 296.4 289.714 289.295 284.317 282.478C279.87 276.86 256.95 274.743 212.021 274.743C167.093 274.743 140.078 282.03 129.131 282.03C118.184 282.03 121.947 279.872 104.615 279.872C95.6062 279.872 91.4202 281.493 93.4286 284.432C95.6719 287.714 120.608 289.805 131.099 289.805C141.59 289.805 146.322 287.037 153.677 287.037Z" fill="url(#paint1_linear)"/>
    </g>
    <path fill-rule="evenodd" clip-rule="evenodd" d="M113.757 130.038C108.445 123.693 100.55 120.443 90.4193 122.151C86.9965 122.729 83.7538 120.422 83.1764 116.999C82.5991 113.576 84.9058 110.334 88.3287 109.756C102.646 107.341 115.081 112.039 123.395 121.967C131.535 131.688 135.211 145.765 133.931 161.53C129.872 211.538 143.009 235.228 157.652 243.821C172.293 252.412 191.725 247.832 205.044 234.112C207.462 231.622 211.441 231.563 213.932 233.981C216.422 236.399 216.481 240.378 214.063 242.868C197.927 259.488 172.292 266.985 151.291 254.662C130.292 242.341 117.213 212.127 121.402 160.513C122.49 147.107 119.244 136.589 113.757 130.038Z" fill="url(#paint2_linear)"/>
    <path d="M114.141 129.717C108.709 123.23 100.634 119.921 90.3362 121.658C87.1857 122.19 84.2009 120.067 83.6695 116.916C83.1381 113.766 85.2613 110.781 88.4118 110.249C102.563 107.862 114.818 112.503 123.012 122.288C131.046 131.883 134.705 145.819 133.433 161.489C129.369 211.563 142.504 235.512 157.399 244.252C172.291 252.99 191.97 248.297 205.403 234.46C207.629 232.168 211.291 232.114 213.584 234.339C215.876 236.565 215.93 240.228 213.705 242.52C197.68 259.026 172.29 266.405 151.544 254.231C130.799 242.059 117.717 212.104 121.9 160.553C122.996 147.054 119.733 136.394 114.141 129.717Z" stroke="url(#paint3_linear)" stroke-linecap="round"/>
    <path d="M158.297 273.644C152.332 255.172 175.904 236.69 172.075 206.056C168.246 175.422 153.19 154.486 157.566 107.806C161.833 62.3006 231.239 61.4138 229.38 127.241C228.08 173.253 251.949 173.232 266.353 203.083C282.706 236.975 291.374 270.81 279.033 280.466C258.887 296.227 166.356 298.6 158.297 273.644Z" fill="url(#paint4_linear)"/>
    <path d="M159.011 273.414C157.58 268.981 157.908 264.521 159.196 259.796C160.358 255.532 162.285 251.111 164.366 246.335C164.6 245.798 164.836 245.256 165.073 244.709C169.746 233.942 174.761 221.498 172.819 205.963C171.497 195.384 168.833 185.919 166.104 176.222C164.867 171.826 163.617 167.383 162.472 162.768C158.791 147.931 156.135 131.113 158.313 107.876C160.404 85.5705 178.417 74.251 195.673 76.5173C204.3 77.6505 212.753 82.1841 218.942 90.4825C225.133 98.7825 229.091 110.894 228.63 127.219C228.303 138.787 229.557 147.503 231.87 154.539C234.186 161.581 237.55 166.903 241.393 171.692C243.311 174.082 245.349 176.341 247.429 178.607C247.785 178.995 248.142 179.383 248.5 179.772C250.239 181.66 251.997 183.571 253.749 185.6C257.965 190.483 262.114 196.024 265.677 203.409C273.839 220.323 280.065 237.19 282.717 251.004C284.043 257.914 284.467 264.02 283.814 268.969C283.161 273.921 281.444 277.627 278.57 279.875C273.691 283.692 264.293 286.773 252.672 288.82C241.091 290.859 227.434 291.851 214.148 291.574C200.857 291.297 187.979 289.75 177.945 286.736C172.927 285.229 168.652 283.364 165.397 281.131C162.142 278.897 159.951 276.326 159.011 273.414Z" stroke="url(#paint5_linear)" stroke-width="1.5"/>
    <path d="M173.115 255.968C161.165 261.445 152.578 251.289 164.276 234.392C175.974 217.494 166.876 193.578 191.571 179.021C214.07 165.759 248.019 168.491 262.205 189.929C283.299 221.807 290.066 242.095 275.951 245.982C267.775 248.233 260.427 243.493 252.014 253.566C238.149 270.165 216.225 243.848 210.063 257.121C203.82 270.569 193.27 262.974 190.866 254.395C188.145 244.688 179.354 253.108 173.115 255.968Z" fill="url(#paint6_linear)"/>
    <g style="mix-blend-mode:multiply" opacity="0.35">
        <path fill-rule="evenodd" clip-rule="evenodd" d="M251.189 181.594C256.464 187.388 261.867 193.787 266.353 203.082C273.816 218.549 279.678 234.004 282.674 247.155C281.015 247.961 279.05 248.339 276.83 248.273C264.638 247.905 263.251 248.532 255.426 257.525C249.029 264.877 241.201 261.878 233.472 258.918C225.224 255.758 217.089 252.642 210.927 262.197C203.788 273.268 195.965 266.262 191.468 257.613C188.561 252.022 183.877 254.55 178.898 257.237C177.707 257.88 176.5 258.531 175.295 259.083C168.777 262.071 161.85 261.939 158.799 258.459C159.992 254.492 161.781 250.387 163.676 246.04C167.977 236.171 172.822 225.053 172.481 211.464C175.776 200.083 180.682 188.978 193.097 181.659C207.994 172.878 232.329 173.767 251.189 181.594Z" fill="url(#paint7_linear)"/>
    </g>
    <path d="M172.802 255.286C167.015 257.938 162.396 256.689 160.485 253.209C158.517 249.625 159.096 243.192 164.893 234.818C167.891 230.488 169.544 225.725 170.732 220.836C171.326 218.392 171.807 215.906 172.279 213.425C172.311 213.257 172.343 213.088 172.375 212.92C172.815 210.602 173.254 208.291 173.781 205.997C176.03 196.194 179.85 186.801 191.952 179.667C203.049 173.126 216.991 170.521 229.908 172.206C242.825 173.891 254.636 179.85 261.579 190.343C272.121 206.274 279.026 219.23 281.557 228.647C282.823 233.359 282.965 237.082 282.016 239.821C281.087 242.501 279.078 244.343 275.752 245.258C273.8 245.796 271.882 245.921 269.933 245.95C269.399 245.958 268.858 245.959 268.312 245.959C266.893 245.961 265.442 245.963 264.003 246.094C261.983 246.277 259.923 246.717 257.816 247.778C255.711 248.839 253.596 250.502 251.438 253.085C248.121 257.056 244.362 258.437 240.463 258.508C236.511 258.579 232.394 257.307 228.402 255.884C227.755 255.654 227.109 255.418 226.467 255.184C223.216 253.999 220.066 252.85 217.349 252.555C215.699 252.375 214.129 252.497 212.742 253.162C211.341 253.834 210.213 255.018 209.383 256.805C207.863 260.078 206.126 261.974 204.407 262.917C202.708 263.849 200.952 263.893 199.271 263.309C195.844 262.121 192.743 258.314 191.588 254.193C190.875 251.65 189.709 250.102 188.105 249.449C186.535 248.81 184.762 249.121 183.045 249.767C181.315 250.418 179.493 251.47 177.754 252.506C177.526 252.642 177.299 252.778 177.075 252.913C175.559 253.82 174.12 254.682 172.802 255.286Z" stroke="url(#paint8_linear)" stroke-width="1.5"/>
    <path opacity="0.3" d="M193.922 232.749C193.85 237.831 188.192 240.681 181.216 245.02C174.24 249.358 163.998 252.295 165.314 245.528C166.631 238.761 170.435 231.489 178.602 226.214C188.388 219.893 194.019 225.941 193.922 232.749Z" fill="#85EFCB"/>
    <ellipse cx="175.311" cy="233.054" rx="1.76902" ry="1.09414" transform="rotate(-38.7626 175.311 233.054)" fill="#72F4E5"/>
    <ellipse cx="173.572" cy="235.863" rx="0.888051" ry="0.549259" transform="rotate(-38.7626 173.572 235.863)" fill="#72F4E5"/>
    <g style="mix-blend-mode:multiply" opacity="0.3">
        <path fill-rule="evenodd" clip-rule="evenodd" d="M271.188 204.295C271.037 204.577 270.87 204.856 270.685 205.13C267.045 210.527 259.282 207.689 250.503 204.48C247.843 203.507 245.09 202.501 242.329 201.679C237 200.092 232.178 204.251 230.373 211.376C230.208 212.028 230.048 212.682 229.889 213.334C228.303 219.817 226.746 226.186 220.403 229.29C213.344 232.744 207.843 229.34 202.284 225.901C196.379 222.247 190.409 218.553 182.438 222.996C178.822 225.012 171.47 227.801 168.042 227.124C169.781 222.551 170.705 217.687 171.638 212.777C173.966 200.526 176.347 187.995 191.572 179.021C214.07 165.759 248.019 168.491 262.205 189.929C265.573 195.02 268.577 199.815 271.188 204.295Z" fill="url(#paint9_linear)"/>
    </g>
    <path d="M167.972 221.173C167.358 220.437 167.034 219.862 166.875 219.373C166.72 218.897 166.708 218.458 166.791 217.964C166.878 217.444 167.066 216.887 167.316 216.15C167.56 215.429 167.849 214.577 168.093 213.539C169.082 209.345 169.297 202.363 163.942 187.863C154.218 160.506 149.331 133.053 149.734 110.258C150.138 87.4101 155.849 69.4557 167.073 60.8153C176.006 53.939 184.541 50.9361 192.297 50.7584C200.05 50.5808 207.091 53.2256 213.043 57.7604C224.969 66.8478 232.489 83.5084 232.415 99.9908C232.284 128.759 235.471 145.001 240.377 155.932C244.232 164.522 249.154 169.813 254.207 175.247C255.58 176.723 256.963 178.209 258.336 179.775C262.267 184.256 264.667 188.32 265.613 191.942C266.551 195.534 266.065 198.7 264.19 201.479C263.114 203.074 261.763 203.919 260.155 204.268C258.515 204.625 256.566 204.473 254.315 203.976C252.068 203.48 249.588 202.657 246.9 201.725C246.462 201.573 246.018 201.418 245.57 201.262C243.28 200.463 240.86 199.619 238.361 198.875C235.416 197.998 232.391 198.883 230.096 200.681C227.802 202.478 226.158 205.244 226.002 208.266C225.631 215.435 223.556 223.219 216.978 226.439C210.29 229.711 204.769 226.458 198.743 222.907C198.59 222.817 198.437 222.727 198.284 222.637C195.235 220.843 192.052 219.028 188.633 218.233C185.172 217.429 181.487 217.673 177.446 219.926C175.336 221.101 173.338 221.936 171.656 222.194C169.986 222.451 168.767 222.127 167.972 221.173Z" fill="url(#paint10_linear)" stroke="url(#paint11_linear)" stroke-width="1.5"/>
    <g filter="url(#filter1_f)">
        <path d="M126.838 206.962C131.289 219.214 128.872 231.336 121.439 234.036C114.006 236.736 104.373 228.992 99.9216 216.74C95.4706 204.487 97.8876 192.366 105.32 189.666C112.753 186.966 122.386 194.709 126.838 206.962Z" fill="#00E0CA"/>
    </g>
    <path d="M98.8316 239.624C97.6063 240.039 96.1502 239.538 95.5816 238.471L71.5338 192.901C70.9651 191.834 71.2477 190.732 72.473 190.317L108.259 184.485C109.485 184.07 110.941 184.571 111.509 185.638L135.368 230.822C135.937 231.889 135.563 233.573 134.342 233.794L98.8316 239.624Z" fill="url(#paint12_linear)"/>
    <path d="M98.7825 239.256L98.7511 239.261L98.721 239.271C97.6533 239.632 96.3938 239.183 95.9163 238.288C95.9161 238.288 95.916 238.288 95.9158 238.288L71.8688 192.719L71.8681 192.718C71.6171 192.247 71.5756 191.809 71.6881 191.47C71.7944 191.149 72.0581 190.856 72.5545 190.68L108.308 184.853L108.34 184.848L108.37 184.838C109.438 184.477 110.697 184.926 111.175 185.821C111.175 185.821 111.175 185.821 111.175 185.822L135.033 231.003L135.034 231.005C135.27 231.448 135.314 232.036 135.166 232.53C135.018 233.019 134.71 233.349 134.289 233.426C134.288 233.427 134.287 233.427 134.286 233.427L98.7825 239.256Z" stroke="url(#paint13_linear)" stroke-width="0.75"/>
    <path d="M76.6371 192.982C76.8859 193.536 76.7295 194.119 76.0418 194.277C75.3542 194.435 74.8046 194.106 74.5558 193.551C74.3071 192.996 74.4904 192.411 75.141 192.268C75.7916 192.126 76.3884 192.427 76.6371 192.982Z" fill="#ADBDDC"/>
    <path d="M76.6134 193.014C76.8334 193.505 76.6951 194.02 76.0868 194.16C75.4785 194.299 74.9924 194.008 74.7724 193.518C74.5524 193.027 74.7145 192.509 75.29 192.383C75.8655 192.257 76.3933 192.523 76.6134 193.014Z" fill="#212B52"/>
    <path d="M76.3045 192.814C76.4161 193.063 76.17 193.338 75.6752 193.493C75.1804 193.647 74.9378 193.598 74.8262 193.349C74.7146 193.1 74.8007 192.673 75.268 192.53C75.7354 192.388 76.1928 192.565 76.3045 192.814Z" fill="#354781"/>
    <path opacity="0.3" d="M75.0504 193.763C74.6467 193.305 74.6973 192.869 75.1377 192.596C75.5781 192.322 76.1741 192.503 76.4359 192.934C76.6978 193.365 76.6718 193.702 76.255 193.957C75.8382 194.212 75.2208 193.976 75.0504 193.763Z" fill="#354781"/>
    <path d="M72.7505 190.288L108.259 184.484C109.586 184.205 110.94 184.57 111.509 185.637L135.389 230.897C135.712 231.473 135.877 232.901 134.403 233.767C136.581 233.312 136.817 231.672 135.92 229.878L112.149 184.309C111.554 183.14 110.057 182.792 108.663 183.079L72.8334 188.994C70.8934 189.403 70.6509 191.241 71.4883 192.777C70.8116 191.486 71.6933 190.46 72.7505 190.288Z" fill="url(#paint14_linear)"/>
    <path fill-rule="evenodd" clip-rule="evenodd" d="M168.154 218.957C168.242 219.228 168.457 219.654 169.005 220.312C169.383 220.765 170.037 221.082 171.452 220.865C172.9 220.642 174.733 219.897 176.791 218.75C181.142 216.325 185.171 216.048 188.938 216.923C192.586 217.771 195.936 219.695 198.966 221.478L199.188 221.608C205.441 225.289 210.355 228.182 216.386 225.23C222.243 222.365 224.291 215.306 224.659 208.197C224.838 204.734 226.709 201.625 229.266 199.622C231.828 197.615 235.296 196.559 238.745 197.586C241.276 198.339 243.73 199.195 246.02 199.994C246.467 200.15 246.907 200.304 247.341 200.454C250.033 201.387 252.444 202.185 254.605 202.662C256.778 203.142 258.506 203.25 259.87 202.954C261.143 202.677 262.195 202.032 263.075 200.726C264.712 198.299 265.162 195.538 264.311 192.281C263.439 188.941 261.184 185.061 257.325 180.662C255.995 179.146 254.641 177.69 253.284 176.233C248.208 170.778 243.104 165.294 239.149 156.482C234.129 145.295 230.939 128.83 231.07 99.9845C230.802 81.4981 225.113 79.128 224.165 100.933C223.217 122.737 216.107 148.334 195.725 167.058C175.342 185.781 155.527 160.171 165.206 187.405C170.608 202.034 170.475 209.301 169.402 213.848C169.143 214.95 168.836 215.854 168.592 216.573L168.589 216.582C168.33 217.347 168.183 217.795 168.117 218.187C168.063 218.509 168.078 218.724 168.154 218.957Z" fill="url(#paint15_linear)"/>
    <path opacity="0.4" fill-rule="evenodd" clip-rule="evenodd" d="M248.78 290.212C257.296 281.439 263.92 271.299 268.339 261.268C269.739 258.091 268.298 254.382 265.121 252.982C261.945 251.583 258.235 253.024 256.836 256.2C250.93 269.607 240.522 283.137 226.902 292.208C234.475 291.918 241.918 291.239 248.78 290.212Z" fill="#000E45"/>
    <g style="mix-blend-mode:multiply" opacity="0.46">
        <path fill-rule="evenodd" clip-rule="evenodd" d="M106.904 238.298C102.349 231.599 97.0575 227.259 89.4027 225.766C89.1969 225.726 88.9954 225.676 88.7986 225.617L84.6162 217.691C85.5677 214.687 88.6428 212.81 91.8097 213.428C105.871 216.171 114.216 225.413 120.344 236.092L106.904 238.298Z" fill="#ABBCDC"/>
    </g>
    <path fill-rule="evenodd" clip-rule="evenodd" d="M82.8184 214.652C83.1217 211.194 86.1708 208.637 89.6287 208.94C110.065 210.733 120.244 227.008 128.823 241.907C129.553 243.174 130.275 244.439 130.994 245.699C139.25 260.158 147.154 274 161.189 282.243C181.644 294.257 201.193 294.089 217.854 287.711C234.739 281.248 248.831 268.307 257.497 254.689C259.361 251.761 263.246 250.897 266.174 252.761C269.103 254.625 269.966 258.509 268.102 261.438C258.211 276.981 242.115 291.883 222.347 299.451C202.354 307.104 178.785 307.155 154.823 293.083C137.733 283.046 128.194 266.241 120.23 252.213C119.45 250.839 118.685 249.492 117.93 248.18C108.947 232.58 101.673 222.615 88.5302 221.463C85.0723 221.159 82.515 218.11 82.8184 214.652Z" fill="url(#paint16_linear)"/>
    <path d="M83.3165 214.696C83.5956 211.513 86.4022 209.159 89.585 209.439C109.732 211.206 119.795 227.231 128.39 242.157C129.119 243.422 129.841 244.687 130.56 245.947L130.594 246.006C138.825 260.422 146.785 274.364 160.936 282.674C181.53 294.77 201.239 294.606 218.032 288.178C235.032 281.671 249.204 268.652 257.919 254.958C259.634 252.262 263.21 251.467 265.906 253.183C268.601 254.898 269.396 258.474 267.68 261.169C257.838 276.636 241.822 291.46 222.169 298.984C202.308 306.586 178.899 306.642 155.076 292.651C138.119 282.693 128.637 266.01 120.665 251.967L120.662 251.961C119.883 250.589 119.119 249.242 118.363 247.931C109.397 232.36 102.007 222.143 88.5739 220.964C85.3911 220.685 83.0373 217.879 83.3165 214.696Z" stroke="url(#paint17_linear)" stroke-linecap="round"/>
    <ellipse rx="2.66092" ry="3.8069" transform="matrix(0.996202 -0.0870753 0.0213866 0.999771 154.976 110.237)" fill="#B1CDE1"/>
    <ellipse rx="2.3536" ry="3.48666" transform="matrix(0.996202 -0.0870753 0.0213866 0.999771 154.685 109.939)" fill="#354781"/>
    <path d="M153.731 111.412C153.472 111.5 153.176 111.839 153.335 112.062C153.699 112.572 154.199 112.865 154.746 112.818C155.815 112.724 156.654 111.359 156.62 109.77C156.603 108.96 156.363 108.248 155.989 107.756C155.817 107.529 155.516 107.752 155.532 108.036C155.56 108.552 155.46 109.15 155.221 109.732C154.864 110.605 154.288 111.222 153.731 111.412Z" fill="#000E45"/>
    <ellipse opacity="0.54" rx="1.78201" ry="0.95676" transform="matrix(0.378763 -0.925494 0.878851 0.477096 153.923 109.027)" fill="#1C5AA1"/>
    <ellipse opacity="0.54" rx="0.682932" ry="0.366667" transform="matrix(0.378763 -0.925494 0.878851 0.477096 153.551 108.76)" fill="white"/>
    <ellipse opacity="0.49" cx="189.12" cy="113.29" rx="3.82643" ry="3.82112" transform="rotate(-2.84171 189.12 113.29)" fill="#8EBED5"/>
    <ellipse cx="188.785" cy="112.987" rx="3.50685" ry="3.50199" transform="rotate(-2.84171 188.785 112.987)" fill="#354781"/>
    <ellipse cx="187.53" cy="111.766" rx="1.75829" ry="1.17452" transform="rotate(-40.9756 187.53 111.766)" fill="#1C5AA2"/>
    <ellipse cx="187.25" cy="111.489" rx="0.690344" ry="0.426977" transform="rotate(-40.9756 187.25 111.489)" fill="#9CB0CD"/>
    <path d="M187.071 113.88C186.689 113.965 186.37 114.375 186.612 114.683C187.145 115.363 187.99 115.783 188.92 115.737C190.441 115.661 191.613 114.369 191.538 112.85C191.5 112.099 191.165 111.433 190.652 110.961C190.343 110.677 189.865 111.039 189.745 111.44C189.58 111.988 189.201 112.568 188.646 113.05C188.146 113.484 187.59 113.765 187.071 113.88Z" fill="#000E45"/>
    <path opacity="0.26" d="M251.447 191.852C262.189 187.312 252.458 178.932 243.636 174.48C234.815 170.028 234.087 189.582 225.174 191.153C216.262 192.724 206.124 191.509 205.439 199.271C203.989 215.709 193.132 210.773 185.613 205.993C181.92 203.645 176.151 204.744 173.75 208.317C172.081 210.8 171.616 213.575 171.379 215.694C171.276 216.607 172.377 217.214 173.038 216.575C177.344 212.418 182.889 205.945 198.891 213.762C209.479 218.934 214.691 216.429 217.171 199.446C218.712 188.896 240.705 196.393 251.447 191.852Z" fill="#BED3E7"/>
    <path opacity="0.41" d="M178.831 209.659C180.227 208 180.292 206.844 179.201 206.08C178.11 205.316 175.645 206.734 174.597 208.219C173.549 209.703 172.436 211.863 173.331 212.54C174.226 213.216 177.434 211.318 178.831 209.659Z" fill="#96C1D9"/>
    <path d="M242.34 181.349C243.945 179.443 244.019 178.114 242.766 177.237C241.512 176.359 238.679 177.989 237.476 179.694C236.272 181.399 234.993 183.881 236.022 184.659C237.05 185.436 240.735 183.254 242.34 181.349Z" fill="#98C2D9"/>
    <ellipse cx="176.659" cy="207.99" rx="1.23744" ry="0.765355" transform="rotate(-40.9756 176.659 207.99)" fill="#BED3E7"/>
    <ellipse cx="221.332" cy="198.379" rx="1.75644" ry="1.32784" transform="rotate(-62.9904 221.332 198.379)" fill="#BED3E7"/>
    <ellipse cx="219.627" cy="201.531" rx="0.797587" ry="0.602963" transform="rotate(-62.9904 219.627 201.531)" fill="#BED3E7"/>
    <path d="M205.106 207.041C206.502 204.466 206.459 199.14 207.986 196.827C209.514 194.514 212.689 195.074 213.18 197.438C213.879 200.799 212.046 204.509 209.296 206.866C206.373 209.371 204.107 208.883 205.106 207.041Z" fill="#96C1D9"/>
    <path d="M252.681 183.908C254.819 187.748 247.967 190.804 241.9 191.284C234.829 191.546 230.857 190.804 234.174 190.193C237.492 189.582 240.765 186.308 243.864 183.864C246.963 181.42 250.542 180.067 252.681 183.908Z" fill="#98C2D9"/>
    <path opacity="0.34" d="M211.182 242.693C205.311 242.22 202.14 246.336 200.21 250.385C196.121 258.616 187.138 241.148 198.564 236.35C210.777 231.222 222.113 241.95 221.168 243.637C220.223 245.324 217.052 243.165 211.182 242.693Z" fill="#3AE0D5"/>
    <path fill-rule="evenodd" clip-rule="evenodd" d="M196.784 58.1265C196.978 61.5922 194.326 64.5594 190.861 64.7539C185.727 65.042 180.439 67.4285 175.985 71.2917C171.525 75.1588 168.295 80.1699 166.995 85.0987C166.11 88.4551 162.671 90.4584 159.315 89.5732C155.958 88.688 153.955 85.2495 154.84 81.8931C156.867 74.2093 161.64 67.093 167.749 61.7951C173.862 56.4935 181.708 52.6776 190.156 52.2034C193.622 52.0089 196.589 54.6607 196.784 58.1265Z" fill="#F0F1FA"/>
    <defs>
        <filter id="filter0_f" x="87.9346" y="269.743" width="201.973" height="31.6568" filterUnits="userSpaceOnUse" color-interpolation-filters="sRGB">
            <feFlood flood-opacity="0" result="BackgroundImageFix"/>
            <feBlend mode="normal" in="SourceGraphic" in2="BackgroundImageFix" result="shape"/>
            <feGaussianBlur stdDeviation="2.5" result="effect1_foregroundBlur"/>
        </filter>
        <filter id="filter1_f" x="85.8623" y="178.776" width="55.0346" height="66.1481" filterUnits="userSpaceOnUse" color-interpolation-filters="sRGB">
            <feFlood flood-opacity="0" result="BackgroundImageFix"/>
            <feBlend mode="normal" in="SourceGraphic" in2="BackgroundImageFix" result="shape"/>
            <feGaussianBlur stdDeviation="3" result="effect1_foregroundBlur"/>
        </filter>
        <linearGradient id="paint0_linear" x1="15.1187" y1="0.849227" x2="286.531" y2="244.32" gradientUnits="userSpaceOnUse">
            <stop stop-color="#FFDC62"/>
            <stop offset="0.510062" stop-color="#FFCA64"/>
            <stop offset="0.97538" stop-color="#F18F6D"/>
        </linearGradient>
        <linearGradient id="paint1_linear" x1="188.921" y1="274.743" x2="81.9103" y2="277.764" gradientUnits="userSpaceOnUse">
            <stop stop-color="#395591"/>
            <stop offset="1" stop-color="#395591" stop-opacity="0"/>
        </linearGradient>
        <linearGradient id="paint2_linear" x1="102.042" y1="117.506" x2="168.463" y2="250.867" gradientUnits="userSpaceOnUse">
            <stop stop-color="#212B52"/>
            <stop offset="1" stop-color="#000E45"/>
        </linearGradient>
        <linearGradient id="paint3_linear" x1="90.1068" y1="108.107" x2="143.763" y2="224.061" gradientUnits="userSpaceOnUse">
            <stop stop-color="#3D4978"/>
            <stop offset="1" stop-color="#3D4978" stop-opacity="0"/>
        </linearGradient>
        <linearGradient id="paint4_linear" x1="204.156" y1="96.1659" x2="278.53" y2="275.292" gradientUnits="userSpaceOnUse">
            <stop stop-color="#1BDAD5"/>
            <stop offset="1" stop-color="#354781"/>
        </linearGradient>
        <linearGradient id="paint5_linear" x1="165.114" y1="269.623" x2="218.441" y2="291.82" gradientUnits="userSpaceOnUse">
            <stop stop-color="#3986B0"/>
            <stop offset="1" stop-color="#2E60E0" stop-opacity="0"/>
        </linearGradient>
        <linearGradient id="paint6_linear" x1="184.486" y1="222.374" x2="302.253" y2="271.894" gradientUnits="userSpaceOnUse">
            <stop stop-color="#1AD9D9"/>
            <stop offset="1" stop-color="#3C9AD2"/>
        </linearGradient>
        <linearGradient id="paint7_linear" x1="210.683" y1="228.08" x2="213.898" y2="242.549" gradientUnits="userSpaceOnUse">
            <stop stop-color="#9DC5DC" stop-opacity="0"/>
            <stop offset="1" stop-color="#9DC5DC"/>
        </linearGradient>
        <linearGradient id="paint8_linear" x1="163.852" y1="242.373" x2="275.272" y2="242.373" gradientUnits="userSpaceOnUse">
            <stop stop-color="#85EFCB"/>
            <stop offset="1" stop-color="#1AD9D9"/>
        </linearGradient>
        <linearGradient id="paint9_linear" x1="170.456" y1="85.1369" x2="265.013" y2="201.858" gradientUnits="userSpaceOnUse">
            <stop stop-color="#E0E2F2"/>
            <stop offset="1" stop-color="#9DC5DC"/>
        </linearGradient>
        <linearGradient id="paint10_linear" x1="169.18" y1="89.3195" x2="253.791" y2="200.95" gradientUnits="userSpaceOnUse">
            <stop stop-color="#E0E2F2"/>
            <stop offset="1" stop-color="#9DC5DC"/>
        </linearGradient>
        <linearGradient id="paint11_linear" x1="154.485" y1="85.5274" x2="261.613" y2="206.875" gradientUnits="userSpaceOnUse">
            <stop stop-color="#F0F1FB"/>
            <stop offset="1" stop-color="#E0E2F2" stop-opacity="0"/>
        </linearGradient>
        <linearGradient id="paint12_linear" x1="106.519" y1="235.773" x2="86.0064" y2="189.686" gradientUnits="userSpaceOnUse">
            <stop stop-color="#B1BBCB"/>
            <stop offset="1" stop-color="#EEF2FA"/>
        </linearGradient>
        <linearGradient id="paint13_linear" x1="99.5109" y1="239.95" x2="105.364" y2="183.928" gradientUnits="userSpaceOnUse">
            <stop stop-color="#B2BCCB" stop-opacity="0"/>
            <stop offset="1" stop-color="white"/>
        </linearGradient>
        <linearGradient id="paint14_linear" x1="134.751" y1="231.259" x2="77.4911" y2="185.798" gradientUnits="userSpaceOnUse">
            <stop stop-color="#BCC5D3"/>
            <stop offset="0.586972" stop-color="#EEF2FA"/>
            <stop offset="1" stop-color="#AABADB"/>
        </linearGradient>
        <linearGradient id="paint15_linear" x1="200.21" y1="128.61" x2="237.355" y2="216.204" gradientUnits="userSpaceOnUse">
            <stop stop-color="#8CBDD5" stop-opacity="0"/>
            <stop offset="1" stop-color="#8CBDD5"/>
        </linearGradient>
        <linearGradient id="paint16_linear" x1="99.9424" y1="219.959" x2="257.677" y2="268.731" gradientUnits="userSpaceOnUse">
            <stop stop-color="#212B53"/>
            <stop offset="1" stop-color="#000E45"/>
        </linearGradient>
        <linearGradient id="paint17_linear" x1="92.3174" y1="208.062" x2="250.273" y2="286.839" gradientUnits="userSpaceOnUse">
            <stop stop-color="#3D4977"/>
            <stop offset="0.278521" stop-color="#3D4977" stop-opacity="0"/>
            <stop offset="0.548038" stop-color="#3D4977" stop-opacity="0.0459379"/>
            <stop offset="0.768843" stop-color="#3D4977"/>
            <stop offset="1" stop-color="#3D4977" stop-opacity="0.0459379"/>
        </linearGradient>
    </defs>
</svg>
