<svg width="671" height="720" viewBox="0 0 671 720" fill="none" xmlns="http://www.w3.org/2000/svg">
<path d="M375.104 187.02C397.196 187.02 415.104 204.928 415.104 227.02L415.105 492.02C415.105 514.111 397.196 532.02 375.105 532.02L249.104 532.02C227.013 532.02 209.104 514.111 209.104 492.02L209.104 193.5C209.104 171.409 227.013 153.5 249.104 153.5L279.138 153.5C288.933 153.5 297.896 159.004 302.326 167.74L304.883 172.78C309.313 181.515 318.276 187.02 328.071 187.02L375.104 187.02Z" fill="#FFCA62"/>
<mask id="mask0" mask-type="alpha" maskUnits="userSpaceOnUse" x="209" y="187" width="206" height="346">
<path d="M384.104 187.02C400.673 187.02 414.104 200.451 414.104 217.02L414.104 502.02C414.104 518.589 400.673 532.02 384.104 532.02L239.104 532.02C222.536 532.02 209.104 518.589 209.104 502.02L209.105 187.02L384.104 187.02Z" fill="white"/>
</mask>
<g mask="url(#mask0)">
<rect width="110.424" height="120.332" rx="14" transform="matrix(-0.521642 0.853164 -0.877997 -0.478665 420.357 335.599)" fill="white" fill-opacity="0.1"/>
<rect width="100.59" height="103.513" rx="16" transform="matrix(-0.521642 0.853164 -0.877997 -0.478665 467.093 217.48)" fill="white" fill-opacity="0.1"/>
<rect width="126.486" height="130.162" rx="16" transform="matrix(-0.521642 0.853164 -0.877997 -0.478665 295.621 260.914)" fill="white" fill-opacity="0.1"/>
</g>
<mask id="mask1" mask-type="alpha" maskUnits="userSpaceOnUse" x="144" y="187" width="272" height="345">
<path d="M375.104 187C397.196 187 415.104 204.909 415.104 227L415.105 492C415.105 514.091 397.196 532 375.105 532L184.105 532C162.013 532 144.105 514.091 144.105 492L144.104 227C144.104 204.909 162.013 187 184.104 187L375.104 187Z" fill="white"/>
</mask>
<g mask="url(#mask1)">
<g style="mix-blend-mode:multiply" opacity="0.3" filter="url(#filter0_f)">
<path d="M424.682 347.711C414.228 343.791 403.611 343.465 396.18 347.63C392.505 349.753 390.055 352.693 388.748 356.286C388.013 356.613 387.278 356.94 386.543 357.348C373.639 365.433 296.382 412.555 226.23 444.977C228.108 444.487 230.231 444.161 232.273 443.997C230.395 444.079 228.435 444.406 226.801 444.977C221.411 444.651 216.348 445.631 212.265 447.836C201.893 453.634 201.484 466.456 209.896 478.788L202.791 482.381C201.484 483.034 200.913 483.933 200.749 485.158C200.423 486.954 201.239 489.323 203.281 491.446C203.363 491.528 203.526 491.691 203.526 491.691L203.608 491.773C203.689 491.854 203.934 492.018 204.016 492.181C204.098 492.263 204.098 492.263 204.261 492.426C204.343 492.508 204.506 492.508 204.588 492.671C208.018 495.448 212.673 496.509 215.368 495.039C215.613 494.958 215.776 494.713 216.021 494.631L222.146 491.201C236.111 501.41 253.915 504.84 264.613 498.96C268.207 496.918 270.657 493.978 271.963 490.466L272.045 490.384C272.045 490.466 271.963 490.466 271.963 490.629C304.63 467.518 400.263 418.762 433.257 402.837C433.992 402.51 434.727 402.02 435.38 401.53C440.362 401.612 444.935 400.714 448.528 398.59C455.879 394.425 458.165 386.912 456.042 378.582C450.162 366.005 432.685 351.468 424.682 347.711Z" fill="#395590"/>
</g>
<g style="mix-blend-mode:multiply" opacity="0.3" filter="url(#filter1_f)">
<path d="M494.516 368.767C484.062 364.847 473.445 364.52 466.014 368.685C462.339 370.809 459.889 373.749 458.582 377.342C457.847 377.669 457.112 377.995 456.377 378.404C443.473 386.489 366.216 433.611 296.064 466.033C297.942 465.543 300.065 465.216 302.107 465.053C300.229 465.135 298.269 465.461 296.635 466.033C291.245 465.706 286.182 466.686 282.099 468.891C271.727 474.69 271.318 487.512 279.73 499.843L272.625 503.437C271.318 504.09 270.747 504.988 270.583 506.213C270.257 508.01 271.073 510.378 273.115 512.502C273.197 512.583 273.36 512.747 273.36 512.747L273.442 512.828C273.523 512.91 273.768 513.073 273.85 513.237C273.932 513.318 273.932 513.318 274.095 513.482C274.177 513.563 274.34 513.563 274.422 513.727C277.852 516.503 282.507 517.565 285.202 516.095C285.447 516.013 285.61 515.768 285.855 515.687L291.98 512.257C305.945 522.465 323.749 525.895 334.447 520.015C338.041 517.973 340.491 515.033 341.797 511.522L341.879 511.44C341.879 511.522 341.797 511.522 341.797 511.685C374.464 488.573 470.097 439.818 503.091 423.893C503.826 423.566 504.561 423.076 505.214 422.586C510.196 422.668 514.769 421.769 518.362 419.646C525.713 415.481 527.999 407.967 525.876 399.637C519.996 387.061 502.519 372.524 494.516 368.767Z" fill="#395590"/>
</g>
<path d="M236.422 469.87C249.108 467.075 256.26 450.597 252.397 433.066C248.534 415.535 235.118 403.589 222.433 406.384C209.747 409.18 202.594 425.658 206.457 443.189C210.321 460.72 223.736 472.666 236.422 469.87Z" fill="black"/>
<path d="M232.682 470.54C229.415 470.54 226.067 469.641 222.882 467.844C215.368 463.761 209.325 455.268 206.63 445.141C201.975 427.664 208.345 410.269 221.003 406.349C225.903 404.797 231.13 405.451 236.112 408.227C243.625 412.311 249.669 420.804 252.364 430.931C257.019 448.408 250.649 465.803 237.99 469.723C236.194 470.213 234.397 470.54 232.682 470.54ZM226.148 406.267C224.433 406.267 222.718 406.512 221.085 407.002C208.835 410.841 202.628 427.827 207.202 444.896C209.897 454.778 215.777 463.108 223.127 467.109C227.945 469.723 233.008 470.376 237.664 468.906C249.914 465.068 256.12 448.081 251.547 431.012C248.852 421.131 242.972 412.801 235.622 408.799C232.518 407.166 229.333 406.267 226.148 406.267Z" fill="black"/>
<path d="M408.185 384.789C402.959 365.352 410.064 346.078 424.029 341.75C437.994 337.421 453.511 349.59 458.738 369.027C463.964 388.464 456.859 407.737 442.894 412.065C428.929 416.394 413.412 404.225 408.185 384.789Z" fill="url(#paint0_radial)"/>
<path d="M419.374 351.305L233.907 406.348C219.044 410.84 218.799 430.849 221.004 440.077C223.372 449.714 234.724 467.354 249.016 462.617L433.339 407.9C448.774 402.102 448.202 382.583 445.997 373.436C443.629 363.718 432.441 347.385 419.374 351.305Z" fill="#4D798B"/>
<path d="M240.44 468.416C279.558 451.674 392.014 421.375 427.866 412.637C435.216 410.84 440.606 402.183 441.995 396.14C442.076 395.732 441.913 395.405 441.586 395.16C439.3 393.69 434.971 392.547 434.971 392.547C437.748 391.893 440.361 390.995 442.485 389.852C443.057 389.525 443.383 388.953 443.465 388.3C443.873 384.38 442.811 374.253 440.28 369.271C439.381 369.353 437.095 369.19 435.053 368.945C436.523 367.965 437.666 366.658 438.32 364.943C436.605 361.84 434.4 358.981 431.868 356.368C431.541 356.041 431.133 355.96 430.725 356.041C429.336 356.286 427.295 356.286 425.008 356.123C425.008 356.123 427.785 355.633 429.01 354.571C429.173 354.408 429.255 354.081 429.01 353.918C426.886 352.039 419.536 346.894 410.88 349.916C395.853 355.225 299.893 388.79 224.351 405.695C234.233 404.633 244.033 413.698 248.035 421.212C248.361 421.865 249.015 422.273 249.668 422.355C253.343 422.845 255.303 423.09 258.733 422.6C254.486 423.499 253.67 423.662 250.485 424.805C250.158 424.969 249.913 425.295 250.076 425.704C252.118 432.155 253.588 441.71 252.935 447.019C252.853 447.59 253.261 448.08 253.833 448.162C255.058 448.325 256.446 448.325 258.08 448.162C256.038 449.142 254.16 450.367 252.526 451.755C252.118 452.082 251.873 452.49 251.71 452.98C249.913 459.269 245.911 464.169 240.44 468.416Z" fill="url(#paint1_linear)"/>
<path opacity="0.5" d="M359.934 381.661C343.394 379.131 303.594 385.826 303.594 385.826L368.846 365.246C397.675 363.531 410.497 326.535 420.868 334.865C431.485 343.441 433.579 369.819 427.128 381.661C420.268 393.666 416.173 399.372 403.351 397.738C392.081 396.268 374.923 385.826 359.934 381.661Z" fill="#414A59" fill-opacity="0.3"/>
<path d="M195.442 448.325C190.215 428.888 197.32 409.614 211.285 405.286C225.251 400.958 240.767 413.126 245.994 432.563C251.221 452 244.116 471.273 230.151 475.602C216.186 479.93 200.669 467.762 195.442 448.325Z" fill="url(#paint2_radial)"/>
<path d="M217.084 404.388V406.022C228.762 406.022 240.277 417.373 244.442 432.972C249.424 451.51 242.809 469.967 229.66 474.05C227.945 474.622 226.149 474.867 224.352 474.867C212.674 474.867 201.158 463.515 196.993 447.917C192.012 429.378 198.627 410.922 211.775 406.838C213.49 406.267 215.287 406.022 217.084 406.022V404.388ZM217.084 404.388C215.124 404.388 213.164 404.715 211.285 405.287C197.32 409.615 190.215 428.97 195.442 448.325C199.933 465.067 212.102 476.501 224.352 476.501C226.312 476.501 228.272 476.174 230.15 475.602C244.116 471.274 251.221 451.919 245.994 432.563C241.502 415.74 229.252 404.388 217.084 404.388Z" fill="url(#paint3_linear)"/>
<path d="M198.953 447.182C195.278 433.462 200.26 419.823 210.141 416.72C220.023 413.617 230.967 422.273 234.642 435.993C238.317 449.714 233.335 463.352 223.453 466.455C213.571 469.559 202.628 460.902 198.953 447.182Z" fill="url(#paint4_radial)"/>
<path d="M214.225 416.067V417.7C222.228 417.7 230.15 425.54 233.09 436.402C236.52 449.306 232.028 462.046 222.963 464.822C221.82 465.149 220.595 465.394 219.37 465.394C211.367 465.394 203.445 457.554 200.505 446.692C197.075 433.789 201.567 421.049 210.632 418.272C211.775 417.945 213 417.7 214.225 417.7V416.067ZM214.225 416.067C212.837 416.067 211.448 416.23 210.142 416.72C200.26 419.824 195.278 433.462 198.953 447.182C202.138 459.024 210.713 467.109 219.37 467.109C220.758 467.109 222.147 466.946 223.453 466.456C233.335 463.352 238.317 449.714 234.642 435.994C231.457 424.152 222.882 416.067 214.225 416.067Z" fill="url(#paint5_linear)"/>
<path d="M212.183 433.789L181.313 443.344C176.985 444.651 176.903 450.449 177.556 453.144C178.21 455.921 181.558 461.066 185.723 459.677L216.267 450.204C220.758 448.489 220.595 442.854 219.942 440.159C219.288 437.382 216.022 432.564 212.183 433.789Z" fill="url(#paint6_linear)"/>
<path d="M185.358 459.895C188.661 459.167 190.521 454.863 189.511 450.282C188.502 445.701 185.006 442.577 181.702 443.305C178.398 444.033 176.539 448.337 177.548 452.918C178.557 457.499 182.054 460.623 185.358 459.895Z" fill="#B2CFDB"/>
<path d="M321.08 502.035C332.909 496.666 336.483 479.062 329.064 462.716C321.644 446.37 306.041 437.47 294.212 442.839C282.384 448.208 278.809 465.811 286.229 482.158C293.648 498.504 309.251 507.404 321.08 502.035Z" fill="black"/>
<path d="M313.697 503.859C311.655 503.859 309.532 503.533 307.408 502.879C299.242 500.429 291.565 493.406 286.747 484.096C278.498 468.007 281.193 449.632 292.708 443.18C297.2 440.649 302.427 440.24 307.898 441.874C316.065 444.324 323.742 451.347 328.56 460.657C336.809 476.746 334.114 495.121 322.599 501.573C319.904 503.124 316.882 503.859 313.697 503.859ZM287.4 483.769C292.055 492.916 299.568 499.776 307.572 502.226C312.88 503.859 317.862 503.369 322.19 501.001C333.379 494.713 335.91 476.827 327.907 460.984C323.252 451.837 315.739 444.977 307.735 442.527C302.427 440.894 297.445 441.384 293.117 443.752C281.928 450.041 279.397 468.007 287.4 483.769Z" fill="black"/>
<path d="M468.946 351.713L305.448 440.485C291.809 447.998 295.729 467.599 299.894 476.174C304.223 485.157 319.005 500.021 331.908 492.426L494.345 404.225C508.31 395.323 503.655 376.376 499.571 367.883C495.325 358.818 480.951 345.097 468.946 351.713Z" fill="#4D798B"/>
<path d="M324.395 500.429C359.185 475.929 456.696 425.867 489.935 409.942C496.795 406.675 501.695 396.63 500.715 385.442C500.633 384.952 500.307 384.462 499.817 384.38C495.897 383.237 491.731 383.237 491.731 383.237C495.243 381.603 497.857 379.317 499.163 377.438C497.53 374.335 496.142 367.965 492.058 363.31C491.731 362.983 491.323 362.82 490.833 362.901C488.791 363.228 487.158 363.391 484.708 363.391C486.015 362.085 486.913 360.86 487.975 359.635C488.22 359.308 488.22 358.818 487.975 358.573C485.933 356.368 482.176 352.775 477.685 351.713C477.44 351.631 477.195 351.713 476.95 351.795C476.133 352.285 475.153 352.856 473.928 353.02C473.928 353.02 474.99 352.04 475.48 350.978C473.683 351.141 466.986 347.956 460.453 352.04C446.978 360.451 366.454 409.534 296.138 441.711C305.611 439.342 315.493 444.406 320.883 450.204C321.21 450.531 321.618 450.694 322.108 450.694C325.538 450.449 328.805 450.122 332.48 449.469C329.785 451.429 328.152 453.226 326.518 455.267C326.028 455.839 325.947 456.737 326.273 457.391C329.54 463.434 331.99 472.336 332.725 479.359C332.725 479.686 333.052 480.013 333.378 480.013C334.685 480.176 336.645 479.931 337.707 479.686C335.828 480.421 334.195 481.646 333.133 482.544C332.807 482.789 332.643 483.198 332.562 483.606C331.663 489.486 328.642 494.631 324.395 500.429Z" fill="url(#paint7_linear)"/>
<path d="M276.538 489.486C267.392 471.6 270.332 451.265 283.072 444.079C295.812 436.892 313.534 445.63 322.68 463.515C331.827 481.401 328.887 501.736 316.147 508.922C303.407 516.109 285.685 507.452 276.538 489.486Z" fill="url(#paint8_radial)"/>
<path d="M292.871 441.628V443.262C303.406 443.262 314.84 451.755 321.292 464.332C330.03 481.482 327.335 500.837 315.412 507.616C312.717 509.167 309.695 509.902 306.428 509.902C295.73 509.902 284.541 501.654 278.008 488.832C269.27 471.682 271.965 452.327 283.888 445.548C286.583 443.997 289.605 443.262 292.871 443.262V441.628ZM292.871 441.628C289.441 441.628 286.175 442.445 283.153 444.16C270.413 451.347 267.473 471.682 276.62 489.567C283.561 503.206 295.566 511.536 306.51 511.536C309.94 511.536 313.207 510.719 316.228 509.004C328.968 501.817 331.908 481.482 322.762 463.597C315.738 449.877 303.815 441.628 292.871 441.628Z" fill="url(#paint9_linear)"/>
<path d="M279.723 487.689C273.271 475.03 275.313 460.657 284.378 455.594C293.361 450.53 305.938 456.655 312.39 469.314C318.842 481.972 316.8 496.346 307.735 501.409C298.751 506.472 286.175 500.347 279.723 487.689Z" fill="url(#paint10_radial)"/>
<path d="M291.238 455.431C298.507 455.431 306.429 461.311 310.92 470.049C316.964 481.891 315.167 495.366 306.919 499.939C305.04 501.001 302.999 501.491 300.794 501.491C293.525 501.491 285.603 495.611 281.112 486.873C275.068 475.031 276.865 461.556 285.113 456.982C286.992 455.921 289.033 455.431 291.238 455.431ZM291.238 453.797C288.87 453.797 286.502 454.369 284.378 455.594C275.395 460.657 273.272 475.031 279.723 487.689C284.623 497.326 293.117 503.206 300.875 503.206C303.244 503.206 305.612 502.635 307.735 501.41C316.719 496.346 318.842 481.973 312.39 469.314C307.49 459.677 298.997 453.797 291.238 453.797Z" fill="url(#paint11_linear)"/>
<g opacity="0.7">
<path opacity="0.7" fill-rule="evenodd" clip-rule="evenodd" d="M281.928 497.979L298.017 486.382C300.63 483.687 299.078 478.624 296.138 475.602C293.443 472.744 292.3 471.601 288.298 472.989L273.516 483.279C274.17 485.076 274.986 486.872 275.885 488.669C277.6 492.099 279.641 495.203 281.928 497.979Z" fill="#3C5E68"/>
</g>
<path d="M289.93 471.763L265.839 484.177C262.49 485.729 262.245 491.037 263.879 494.875C265.43 498.469 269.84 502.225 273.597 500.102L297.036 487.199C301.119 484.667 299.894 479.114 298.751 476.664C297.607 473.968 293.442 469.885 289.93 471.763Z" fill="url(#paint12_linear)"/>
<path d="M264.042 495.202C261.919 490.792 262.654 485.811 265.839 484.177C268.943 482.462 273.271 484.667 275.476 489.077C277.681 493.487 276.864 498.469 273.679 500.102C270.494 501.818 266.247 499.612 264.042 495.202Z" fill="url(#paint13_linear)"/>
<path d="M445.154 368.599C459.513 367.638 470.077 350.772 468.749 330.928C467.421 311.084 454.704 295.776 440.344 296.737C425.985 297.698 415.421 314.564 416.749 334.408C418.077 354.252 430.794 369.56 445.154 368.599Z" fill="black"/>
<path d="M443.819 368.938C439.205 368.938 434.681 367.309 430.519 364.143C423.009 358.352 417.762 348.128 416.495 336.638C414.233 316.733 424.185 298.728 438.662 296.466C444.271 295.561 449.881 297.189 454.948 300.99C462.457 306.78 467.705 317.004 468.972 328.495C471.234 348.4 461.281 366.405 446.805 368.667C445.81 368.848 444.814 368.938 443.819 368.938ZM441.648 297.009C440.652 297.009 439.748 297.099 438.752 297.189C424.728 299.361 415.047 316.914 417.309 336.457C418.576 347.766 423.733 357.809 431.062 363.419C435.948 367.129 441.286 368.667 446.714 367.852C460.738 365.681 470.419 348.128 468.157 328.585C466.891 317.275 461.734 307.232 454.405 301.623C450.424 298.637 445.99 297.009 441.648 297.009Z" fill="black"/>
<path d="M174.469 380.247L209.845 374.909C214.822 374.185 215.817 367.852 215.545 364.776C215.274 361.609 212.469 355.456 207.674 356.271L172.659 361.609C167.411 362.695 166.688 368.938 166.959 372.014C167.321 375.181 170.126 380.881 174.469 380.247Z" fill="url(#paint14_linear)"/>
<path d="M173.835 381.243C172.569 381.243 171.302 380.791 170.216 379.886C167.864 377.986 166.416 374.457 166.145 372.014C165.873 368.395 166.868 361.881 172.569 360.705L207.583 355.366C209.212 355.095 210.84 355.547 212.198 356.633C214.912 358.714 216.179 362.605 216.45 364.776C216.812 368.667 215.364 375.091 209.936 375.905L174.559 381.243C174.378 381.243 174.107 381.243 173.835 381.243ZM208.579 357.086C208.307 357.086 208.126 357.086 207.855 357.176L172.84 362.514C167.321 363.69 167.864 371.562 167.864 371.924C168.045 374.005 169.311 376.991 171.211 378.529C172.207 379.253 173.202 379.614 174.288 379.433L209.664 374.095C214.007 373.462 214.912 367.671 214.64 364.957C214.46 363.148 213.283 359.709 211.112 358.081C210.388 357.447 209.483 357.086 208.579 357.086Z" fill="url(#paint15_radial)"/>
<path d="M225.226 363.238C226.945 378.891 219.254 393.005 207.945 394.724C196.635 396.443 186.049 385.224 184.239 369.572C182.52 353.919 190.211 339.805 201.521 338.086C212.83 336.366 223.507 347.586 225.226 363.238Z" fill="url(#paint16_linear)"/>
<path d="M246.218 360.07C248.751 382.237 237.713 402.142 221.699 404.585C205.684 407.028 190.665 391.104 188.222 368.937C185.688 346.77 196.727 326.865 212.741 324.422C228.756 321.979 243.775 337.903 246.218 360.07Z" fill="url(#paint17_linear)"/>
<path d="M215.998 324.239V326.049C230.022 326.049 242.236 340.797 244.408 360.34C246.76 381.511 236.446 400.602 221.426 402.864C220.431 403.045 219.436 403.136 218.441 403.136C204.417 403.136 192.202 388.388 190.031 368.845C187.678 347.673 197.993 328.582 213.012 326.32C214.007 326.139 215.003 326.049 215.998 326.049V324.239ZM215.998 324.239C214.912 324.239 213.826 324.33 212.741 324.511C196.726 326.954 185.778 346.949 188.221 369.026C190.574 389.654 203.693 404.855 218.441 404.855C219.526 404.855 220.612 404.764 221.698 404.583C237.712 402.14 248.66 382.145 246.217 360.068C243.865 339.439 230.746 324.239 215.998 324.239Z" fill="url(#paint18_linear)"/>
<path d="M228.484 394.906L432.51 366.496C449.611 364.053 453.139 342.157 452.234 331.662C451.239 320.714 441.739 299.542 425.363 302.347L222.603 330.576C204.688 334.376 202.155 355.819 202.969 366.224C203.874 377.262 213.464 397.077 228.484 394.906Z" fill="#4D798B"/>
<path d="M435.678 297.461C390.077 309.313 270.014 322.704 229.299 326.323C220.703 327.047 213.103 336.276 210.841 342.609C212.832 344.781 218.17 347.043 218.17 347.043C214.551 347.404 211.203 347.947 208.489 349.124C207.222 351.928 206.227 365.138 208.398 371.562C209.394 371.562 211.927 372.195 214.008 372.829C212.289 373.643 210.751 374.91 209.756 376.719C211.203 380.61 213.375 384.319 215.818 387.757C217.356 387.576 219.889 387.938 222.784 388.572C222.784 388.572 218.984 388.662 217.718 389.929C219.256 391.829 226.675 399.7 237.261 397.71C254.542 394.453 357.143 374.729 442.644 368.667C431.154 368.214 421.654 355.547 418.939 346.59C414.054 345.143 412.063 344.509 407.72 344.509C412.877 344.238 413.511 344.238 417.854 343.242C416.497 335.371 416.497 323.247 418.397 317.728C417.039 317.004 414.958 316.733 412.696 316.642C415.32 315.828 417.854 314.652 420.116 313.204C423.373 306.237 428.711 301.351 435.678 297.461Z" fill="url(#paint19_linear)"/>
</g>
<defs>
<filter id="filter0_f" x="184.68" y="328.637" width="288.12" height="189.193" filterUnits="userSpaceOnUse" color-interpolation-filters="sRGB">
<feFlood flood-opacity="0" result="BackgroundImageFix"/>
<feBlend mode="normal" in="SourceGraphic" in2="BackgroundImageFix" result="shape"/>
<feGaussianBlur stdDeviation="8" result="effect1_foregroundBlur"/>
</filter>
<filter id="filter1_f" x="254.514" y="349.692" width="288.12" height="189.193" filterUnits="userSpaceOnUse" color-interpolation-filters="sRGB">
<feFlood flood-opacity="0" result="BackgroundImageFix"/>
<feBlend mode="normal" in="SourceGraphic" in2="BackgroundImageFix" result="shape"/>
<feGaussianBlur stdDeviation="8" result="effect1_foregroundBlur"/>
</filter>
<radialGradient id="paint0_radial" cx="0" cy="0" r="1" gradientUnits="userSpaceOnUse" gradientTransform="translate(433.475 376.942) scale(31.835)">
<stop stop-color="#A4C9DB"/>
<stop offset="1" stop-color="#477486"/>
</radialGradient>
<linearGradient id="paint1_linear" x1="182.133" y1="462.835" x2="397.375" y2="382.726" gradientUnits="userSpaceOnUse">
<stop stop-color="#F8EFC8"/>
<stop offset="0.6112" stop-color="#E0C99D"/>
<stop offset="1" stop-color="#B2A094"/>
</linearGradient>
<radialGradient id="paint2_radial" cx="0" cy="0" r="1" gradientUnits="userSpaceOnUse" gradientTransform="translate(206.228 426.054) scale(44.2385)">
<stop stop-color="#A4C9DB"/>
<stop offset="1" stop-color="#477486"/>
</radialGradient>
<linearGradient id="paint3_linear" x1="193.738" y1="440.478" x2="247.725" y2="440.478" gradientUnits="userSpaceOnUse">
<stop stop-color="#88A9B9" stop-opacity="0"/>
<stop offset="1" stop-color="#88A9B9"/>
</linearGradient>
<radialGradient id="paint4_radial" cx="0" cy="0" r="1" gradientUnits="userSpaceOnUse" gradientTransform="translate(216.811 441.622) scale(22.5075)">
<stop stop-color="#A3C8DA"/>
<stop offset="1" stop-color="#7FACC0"/>
</radialGradient>
<linearGradient id="paint5_linear" x1="197.758" y1="441.622" x2="235.91" y2="441.622" gradientUnits="userSpaceOnUse">
<stop stop-color="#C5DAE5"/>
<stop offset="1" stop-color="#C5DAE5" stop-opacity="0"/>
</linearGradient>
<linearGradient id="paint6_linear" x1="182.729" y1="450.83" x2="217.254" y2="442.198" gradientUnits="userSpaceOnUse">
<stop stop-color="#97BCCE"/>
<stop offset="1" stop-color="#5F899B"/>
</linearGradient>
<linearGradient id="paint7_linear" x1="389.829" y1="394.309" x2="416.69" y2="448.031" gradientUnits="userSpaceOnUse">
<stop stop-color="#ECDCB2"/>
<stop offset="1" stop-color="#B2A094"/>
</linearGradient>
<radialGradient id="paint8_radial" cx="0" cy="0" r="1" gradientUnits="userSpaceOnUse" gradientTransform="translate(278.783 458.501) scale(48.1596)">
<stop stop-color="#A4C9DB"/>
<stop offset="1" stop-color="#477486"/>
</radialGradient>
<linearGradient id="paint9_linear" x1="271.311" y1="476.616" x2="328.098" y2="476.616" gradientUnits="userSpaceOnUse">
<stop stop-color="#88A9B9" stop-opacity="0"/>
<stop offset="1" stop-color="#88A9B9"/>
</linearGradient>
<radialGradient id="paint10_radial" cx="0" cy="0" r="1" gradientUnits="userSpaceOnUse" gradientTransform="translate(296.07 478.535) scale(22.5065)">
<stop stop-color="#A3C8DA"/>
<stop offset="1" stop-color="#7FACC0"/>
</radialGradient>
<linearGradient id="paint11_linear" x1="276" y1="478.536" x2="316.141" y2="478.536" gradientUnits="userSpaceOnUse">
<stop stop-color="#C5DAE5"/>
<stop offset="1" stop-color="#C5DAE5" stop-opacity="0"/>
</linearGradient>
<linearGradient id="paint12_linear" x1="262.911" y1="486.036" x2="299.871" y2="486.036" gradientUnits="userSpaceOnUse">
<stop stop-color="#97BCCE"/>
<stop offset="1" stop-color="#5F899B"/>
</linearGradient>
<linearGradient id="paint13_linear" x1="265.287" y1="496.176" x2="274.291" y2="488.146" gradientUnits="userSpaceOnUse">
<stop stop-color="#9DC2D4"/>
<stop offset="1" stop-color="#C3D9E4"/>
</linearGradient>
<linearGradient id="paint14_linear" x1="188.795" y1="354.292" x2="194.771" y2="388.358" gradientUnits="userSpaceOnUse">
<stop stop-color="#638D9F"/>
<stop offset="1" stop-color="#9DC2D4"/>
</linearGradient>
<radialGradient id="paint15_radial" cx="0" cy="0" r="1" gradientUnits="userSpaceOnUse" gradientTransform="translate(191.319 368.304) scale(20.0422)">
<stop stop-color="#C6DAE5"/>
<stop offset="1" stop-color="#C6DAE5" stop-opacity="0"/>
</radialGradient>
<linearGradient id="paint16_linear" x1="184.014" y1="366.443" x2="225.481" y2="366.443" gradientUnits="userSpaceOnUse">
<stop stop-color="#9EC3D5"/>
<stop offset="1" stop-color="#588395"/>
</linearGradient>
<linearGradient id="paint17_linear" x1="209.729" y1="325.447" x2="224.073" y2="400.154" gradientUnits="userSpaceOnUse">
<stop stop-color="#729BAD"/>
<stop offset="0.3444" stop-color="#A4C9DB"/>
<stop offset="1" stop-color="#477486"/>
</linearGradient>
<linearGradient id="paint18_linear" x1="187.896" y1="364.585" x2="246.573" y2="364.585" gradientUnits="userSpaceOnUse">
<stop stop-color="#C7DBE6"/>
<stop offset="1" stop-color="#C7DBE6" stop-opacity="0"/>
</linearGradient>
<linearGradient id="paint19_linear" x1="322.364" y1="304.651" x2="325.949" y2="390.712" gradientUnits="userSpaceOnUse">
<stop stop-color="#F8EFC8"/>
<stop offset="0.6112" stop-color="#E0C99D"/>
<stop offset="1" stop-color="#B2A094"/>
</linearGradient>
</defs>
</svg>
