<svg width="335" height="321" viewBox="0 0 335 321" fill="none"
    xmlns="http://www.w3.org/2000/svg">
    <rect x="315" y="37" width="333" height="183.129" rx="61" fill="#FFCA62"/>
    <path d="M-8.40442 300.431H216.748C250.375 300.431 267.189 259.826 243.378 236.132L18.3299 11.086C-5.37592 -12.6085 -45.9995 4.19689 -45.9995 37.7032V262.749C-46.1039 283.625 -29.1862 300.431 -8.40442 300.431Z" fill="#CF87F0"/>
    <path d="M-8.40442 300.431H216.748C250.375 300.431 267.189 259.826 243.378 236.132L18.3299 11.086C-5.37592 -12.6085 -45.9995 4.19689 -45.9995 37.7032V262.749C-46.1039 283.625 -29.1862 300.431 -8.40442 300.431Z" fill="url(#paint0_linear)"/>
    <mask id="mask0" mask-type="alpha" maskUnits="userSpaceOnUse" x="-46" y="0" width="301" height="301">
        <path d="M-8.40442 300.431H216.748C250.375 300.431 267.189 259.826 243.378 236.132L18.3299 11.086C-5.37592 -12.6085 -45.9995 4.19689 -45.9995 37.7032V262.749C-46.1039 283.625 -29.1862 300.431 -8.40442 300.431Z" fill="url(#paint1_linear)"/>
    </mask>
    <g mask="url(#mask0)">
        <g opacity="0.58" filter="url(#filter0_f)">
            <path d="M288.116 184.516C249.112 161.561 207.449 178.838 182.64 215.387C162.024 245.759 125.451 298.924 81.0234 292.013C72.7544 290.727 63.021 294.419 59.4736 305.896C57.7469 311.483 57.0846 315.36 62.5054 315.36C88.6688 315.36 315.041 315.559 328.855 315.153C342.669 314.746 345.502 309.586 345.106 299.307C343.278 251.771 329.004 208.581 288.116 184.516Z" fill="#3B2964"/>
        </g>
    </g>
    <g style="mix-blend-mode:multiply" opacity="0.51" filter="url(#filter1_f)">
        <path d="M86.2384 246.375C87.3098 245.987 87.8286 245.962 88.287 246.046L152.875 263.345C153.334 263.429 152.838 263.789 151.766 264.177L84.2854 288.082C83.214 288.471 81.6997 288.727 81.0821 288.441L32.7845 264.921C32.3347 264.762 32.8277 264.453 33.8991 264.065L86.2384 246.375Z" fill="url(#paint2_linear)"/>
    </g>
    <g style="mix-blend-mode:multiply" opacity="0.51" filter="url(#filter2_f)">
        <path d="M126.574 257.64C127.645 257.252 128.164 257.227 128.622 257.311L152.876 263.344C153.334 263.428 152.838 263.788 151.767 264.177L84.2858 288.082C83.2144 288.471 81.7001 288.726 81.0825 288.441L64.2189 280.141C63.769 279.982 64.2621 279.673 65.3335 279.284L126.574 257.64Z" fill="#6D7585"/>
    </g>
    <path d="M61.9629 276.738L48.1047 237.641C47.694 236.5 48.2501 235.283 49.3215 234.895L48.8667 235.063C47.7953 235.452 47.2392 236.669 47.6499 237.81L61.5081 276.907C61.9188 278.048 63.0969 278.641 64.1756 278.276L64.6304 278.107C63.5517 278.472 62.3663 277.856 61.9629 276.738Z" fill="url(#paint3_linear)"/>
    <path d="M110.208 213.298C111.28 212.909 112.465 213.526 112.876 214.667L127.303 254.484C127.714 255.625 127.311 255.912 126.939 256.028L64.6182 278.085C63.5468 278.473 62.3614 277.857 61.9507 276.716L48.0925 237.619C47.6818 236.478 48.2379 235.261 49.3093 234.873L110.208 213.298Z" fill="#A5AECA"/>
    <g filter="url(#filter3_i)">
        <path d="M111.038 217.94C110.671 216.938 109.637 216.4 108.705 216.745L52.0362 236.833C51.0962 237.155 50.6265 238.243 50.9703 239.252L63.1129 273.555C63.4799 274.557 64.5133 275.095 65.4461 274.75L122.114 254.662C123.054 254.341 123.524 253.252 123.188 252.266L111.038 217.94Z" fill="white"/>
    </g>
    <g filter="url(#filter4_f)">
        <path d="M111.038 217.94C110.671 216.938 109.637 216.4 108.705 216.745L52.0362 236.833C51.0962 237.155 50.6265 238.243 50.9703 239.252L63.1129 273.555C63.4799 274.557 64.5133 275.095 65.4461 274.75L122.114 254.662C123.054 254.341 123.524 253.252 123.188 252.266L111.038 217.94Z" fill="white"/>
    </g>
    <path d="M64.1484 279.605L63.8555 278.582C63.8994 278.636 63.9386 278.667 64.0171 278.708C64.0956 278.748 79.9613 286.546 80.8073 286.933C81.6534 287.321 83.0395 287.029 84.0721 286.654L151.576 262.741C152.64 262.358 152.775 262.158 152.846 262.011L152.846 263.163C152.846 263.352 152.616 263.482 151.795 263.767L151.791 263.768L84.3697 287.677C82.7285 288.232 81.4838 288.381 80.8615 287.975L64.2007 279.675L64.1998 279.672C64.171 279.653 64.1563 279.63 64.1484 279.605Z" fill="#6683BD"/>
    <path d="M126.381 256.214C127.453 255.825 127.971 255.8 128.43 255.884L152.683 261.918C153.142 262.002 152.646 262.361 151.574 262.75L84.0934 286.655C83.022 287.044 81.5077 287.3 80.8902 287.014L64.0265 278.714C63.5766 278.555 64.0697 278.246 65.1411 277.857L126.381 256.214Z" fill="url(#paint4_linear)"/>
    <path opacity="0.6" fill-rule="evenodd" clip-rule="evenodd" d="M81.4619 287.132C82.2 287.171 83.2757 286.952 84.0934 286.655L151.574 262.75C152.646 262.362 153.142 262.002 152.683 261.918L128.43 255.885C128.144 255.832 127.835 255.822 127.383 255.916C127.427 255.922 127.47 255.928 127.512 255.936L151.766 261.969C152.225 262.053 151.728 262.413 150.657 262.802L83.1761 286.707C82.6578 286.895 82.0358 287.052 81.4619 287.132Z" fill="url(#paint5_linear)"/>
    <g style="mix-blend-mode:screen" opacity="0.46" filter="url(#filter5_f)">
        <path d="M133.89 234.337C138.478 253.81 120.847 274.625 94.5107 280.83C68.1745 287.034 43.1059 276.278 38.5184 256.805C33.9308 237.332 51.5616 216.516 77.8978 210.312C104.234 204.107 129.303 214.864 133.89 234.337Z" fill="white"/>
    </g>
    <path d="M98.8802 281.484C98.1364 278.77 96.5486 274.161 94.2468 272.263C92.1671 270.549 89.9822 272.489 91.4064 274.128C92.2869 275.142 93.6372 278.014 94.4185 280.71C94.4681 280.881 94.4005 281.058 94.2464 281.148C94.0255 281.276 93.7344 281.168 93.6536 280.926C92.634 277.874 90.0954 274.371 87.1782 273.08C85.0762 272.151 83.6031 273.955 85.0745 275.552C85.1367 275.62 85.2013 275.69 85.2679 275.762C86.5645 277.162 88.6521 279.418 90.1257 283.251C90.1915 283.423 90.1192 283.618 89.961 283.711C89.7754 283.82 89.54 283.751 89.4366 283.562C87.5116 280.05 85.7675 278.11 83.222 276.976C80.5785 275.798 79.6736 278.29 80.8341 279.377C81.0864 279.613 81.3772 279.856 81.6945 280.12C82.9942 281.205 84.6144 282.863 85.9594 285.774C86.0237 285.913 85.9687 286.081 85.8396 286.164C85.69 286.26 85.4956 286.209 85.4041 286.057C84.1828 284.026 81.9218 281.313 79.7216 280.828C77.9512 280.437 77.4122 282.332 78.6778 283.315C80.8413 284.996 82.3839 287.382 83.2103 289.976C84.4641 293.912 85.1429 300.665 91.6307 303.5C98.1185 306.334 104.022 303.237 106.535 297.976C102.356 297.129 100.461 287.504 98.9334 281.721C98.9204 281.645 98.9028 281.566 98.8802 281.484Z" fill="url(#paint6_linear)"/>
    <path d="M94.2471 272.264C96.549 274.162 98.1367 278.77 98.8805 281.484C98.9031 281.566 98.9208 281.645 98.9338 281.721C99.1135 282.402 99.2984 283.136 99.4914 283.902C100.733 288.833 102.316 295.114 105.069 297.27C105.472 297.717 105.905 298.069 106.373 298.303C103.808 303.299 98.1311 306.2 91.8749 303.604C86.634 301.055 85.4316 295.952 84.5117 292.048C84.3326 291.288 84.1643 290.573 83.9789 289.932C83.223 287.316 81.7454 284.889 79.6282 283.151C78.7348 282.417 78.7928 281.235 79.5548 280.797C79.6092 280.805 79.6649 280.815 79.7219 280.828C81.9221 281.313 84.1832 284.026 85.4044 286.057C85.666 286.566 86.569 286.342 86.4251 285.935C85.1653 282.982 84.0006 281.158 82.7301 280.039C82.4201 279.765 82.136 279.515 81.8902 279.272C81.117 278.507 81.327 277.112 82.3721 276.706C82.6317 276.752 82.9153 276.839 83.2224 276.976C85.7678 278.11 87.5119 280.05 89.4369 283.562C89.6937 284.003 90.6841 283.841 90.5083 283.138C89.4376 279.542 87.6766 277.211 86.4201 275.778C86.3555 275.704 86.2928 275.633 86.2324 275.563C85.2319 274.417 85.6797 273.207 86.7519 272.926C86.8906 272.965 87.033 273.016 87.1785 273.081C90.0957 274.371 92.6344 277.874 93.6539 280.926C93.8529 281.678 94.9671 281.492 94.8712 280.629C94.545 278.331 93.4779 275.668 92.6005 274.311C91.7231 272.955 92.3799 271.965 93.5601 271.824C93.787 271.93 94.0177 272.074 94.2471 272.264Z" fill="#A4B5D5"/>
    <g style="mix-blend-mode:multiply">
        <path d="M94.2491 272.223C96.5509 274.121 98.1387 278.729 98.8825 281.443C98.9051 281.525 98.9227 281.604 98.9357 281.68C99.1155 282.361 99.3003 283.095 99.4934 283.861C100.735 288.792 102.318 295.073 105.071 297.229C105.474 297.676 105.907 298.028 106.375 298.262C103.81 303.258 98.1331 306.159 91.8769 303.563C86.6359 301.014 85.4335 295.911 84.5136 292.007C84.3346 291.247 84.1662 290.532 83.9808 289.891C83.225 287.275 81.7474 284.848 79.6302 283.11C78.7367 282.376 78.7948 281.194 79.5567 280.756C79.6111 280.764 79.6669 280.774 79.7239 280.787C81.9241 281.272 84.1851 283.985 85.4064 286.016C85.668 286.525 86.5709 286.301 86.4271 285.894C85.1672 282.941 84.0025 281.117 82.7321 279.998C82.4221 279.724 82.1379 279.474 81.8922 279.231C81.1189 278.466 81.329 277.071 82.374 276.665C82.6337 276.711 82.9173 276.798 83.2243 276.935C85.7698 278.069 87.5139 280.009 89.4389 283.521C89.6956 283.962 90.6861 283.8 90.5103 283.097C89.4396 279.501 87.6786 277.17 86.4221 275.737C86.3574 275.663 86.2948 275.592 86.2344 275.522C85.2338 274.376 85.6817 273.166 86.7538 272.885C86.8925 272.924 87.035 272.975 87.1805 273.04C90.0977 274.33 92.6363 277.833 93.6559 280.885C93.8548 281.637 94.9691 281.451 94.8732 280.588C94.547 278.29 93.4799 275.627 92.6025 274.27C91.7251 272.914 92.3819 271.924 93.562 271.783C93.789 271.889 94.0197 272.033 94.2491 272.223Z" fill="url(#paint7_linear)"/>
    </g>
    <path d="M214.969 219.864C211.822 206.57 206.151 180.218 190.726 166.607C175.3 152.995 199.689 145.78 202.993 160.57C206.616 176.784 242.505 196.084 259.269 201.754C270.721 205.628 218.678 235.532 214.969 219.864Z" fill="#BAC7DE"/>
    <path d="M214.969 219.864C211.822 206.57 206.151 180.218 190.726 166.607C175.3 152.995 199.689 145.78 202.993 160.57C206.616 176.784 242.505 196.084 259.269 201.754C270.721 205.628 218.678 235.532 214.969 219.864Z" fill="#BAC7DE"/>
    <path fill-rule="evenodd" clip-rule="evenodd" d="M221.291 164.349C221.963 163.657 223.037 163.49 223.877 163.963C241.754 171.184 247.199 162.353 249.07 156.593C249.455 155.407 250.861 154.822 252.036 155.24C258.65 157.591 267.18 153.982 270.038 146.931C270.327 146.217 270.983 145.699 271.75 145.635C282.006 144.776 288.479 138.755 289.33 128.084C290.188 119.246 286.989 113.897 280.522 113.455C274.033 113.011 268.788 120.471 266.588 128.351C266.228 129.642 264.618 130.291 263.354 129.845C258.412 128.222 254.426 128.893 250.562 131.82C249.329 132.753 247.207 132.338 246.714 130.871C245.957 128.618 245.113 126.657 244.278 125.167C233.258 106.847 215.943 107.987 208.697 117.71C208.141 118.457 207.14 118.761 206.287 118.386C204.556 117.626 202.743 116.964 200.857 116.414C182.922 111.179 169.578 122.355 176.314 139.841C183.05 157.327 193.727 168.123 205.455 168.746C212.376 169.113 217.565 168.185 221.291 164.349Z" fill="#108CFF"/>
    <path fill-rule="evenodd" clip-rule="evenodd" d="M221.291 164.349C221.963 163.657 223.037 163.49 223.877 163.963C241.754 171.184 247.199 162.353 249.07 156.593C249.455 155.407 250.861 154.822 252.036 155.24C258.65 157.591 267.18 153.982 270.038 146.931C270.327 146.217 270.983 145.699 271.75 145.635C282.006 144.776 288.479 138.755 289.33 128.084C290.188 119.246 286.989 113.897 280.522 113.455C274.033 113.011 268.788 120.471 266.588 128.351C266.228 129.642 264.618 130.291 263.354 129.845C258.412 128.222 254.426 128.893 250.562 131.82C249.329 132.753 247.207 132.338 246.714 130.871C245.957 128.618 245.113 126.657 244.278 125.167C233.258 106.847 215.943 107.987 208.697 117.71C208.141 118.457 207.14 118.761 206.287 118.386C204.556 117.626 202.743 116.964 200.857 116.414C182.922 111.179 169.578 122.355 176.314 139.841C183.05 157.327 193.727 168.123 205.455 168.746C212.376 169.113 217.565 168.185 221.291 164.349Z" fill="url(#paint8_linear)"/>
    <path fill-rule="evenodd" clip-rule="evenodd" d="M286.641 127.846L286.643 127.823C287.042 123.718 286.45 120.826 285.359 119.011C284.35 117.333 282.767 116.314 280.338 116.148C278.27 116.007 276.093 117.095 273.996 119.539C271.914 121.965 270.21 125.419 269.188 129.077C268.749 130.651 267.588 131.693 266.402 132.218C265.235 132.734 263.818 132.861 262.49 132.403C260.342 131.701 258.556 131.544 256.974 131.793C255.393 132.042 253.837 132.726 252.191 133.972C250.843 134.992 249.159 135.197 247.759 134.877C246.348 134.555 244.775 133.576 244.155 131.731C243.442 129.608 242.668 127.825 241.943 126.522C236.779 117.959 230.375 114.274 224.752 113.603C219.073 112.925 213.891 115.257 210.862 119.323C209.614 120.998 207.295 121.777 205.201 120.858C203.578 120.145 201.875 119.523 200.1 119.005C191.743 116.566 184.994 118.093 181.154 121.6C177.432 125 175.762 130.899 178.833 138.87C185.455 156.059 195.517 165.515 205.598 166.049C212.303 166.405 216.468 165.439 219.355 162.468C220.811 160.969 223.114 160.547 225.015 161.511C233.47 164.9 238.367 164.264 241.213 162.759C244.135 161.214 245.656 158.362 246.502 155.759C247.42 152.932 250.534 151.841 252.94 152.696C258.192 154.563 265.22 151.629 267.535 145.917C268.176 144.335 269.664 143.1 271.524 142.944C276.177 142.555 279.717 141.021 282.177 138.61C284.629 136.208 286.254 132.693 286.639 127.869L286.641 127.846Z" fill="url(#paint9_linear)"/>
    <path d="M220.398 144.993C219.406 138.048 218.008 134.304 214.535 127.359C211.062 120.413 218.864 118.248 224.276 123.525C227.884 127.043 231.944 133.537 232.214 142.738C232.485 151.939 221.39 151.939 220.398 144.993Z" fill="#108CFF"/>
    <path d="M250.039 147.398C250.021 144.059 250.069 141.905 248.786 139.029C247.502 136.153 251.39 135.107 253.558 138.275C255.726 141.442 255.795 145.007 255.135 147.348C254.11 150.987 250.054 150.172 250.039 147.398Z" fill="#1B91FF"/>
    <path fill-rule="evenodd" clip-rule="evenodd" d="M200.405 167.837C209.652 165.269 216.827 156.324 215.444 143.902C213.222 123.93 193.653 120.076 181.907 128.22C179.037 130.21 176.718 132.811 175.071 135.752C175.361 137.071 175.773 138.436 176.314 139.841C182.069 154.78 190.7 164.836 200.405 167.837Z" fill="url(#paint10_linear)"/>
    <path d="M275.222 129.427C281.147 130.456 285.015 117.822 279.237 117.431C273.459 117.039 269.542 128.742 275.222 129.427Z" fill="#1B91FF"/>
    <path d="M214.969 219.864C211.822 206.57 206.151 180.218 190.726 166.607C175.3 152.995 199.689 145.78 202.993 160.57C206.616 176.784 242.505 196.084 259.269 201.754C270.721 205.628 218.678 235.532 214.969 219.864Z" fill="#BAC7DE"/>
    <path fill-rule="evenodd" clip-rule="evenodd" d="M216.319 217.746C216.457 218.336 216.591 218.904 216.72 219.45C217.035 220.78 217.802 221.583 219.052 222.063C220.409 222.585 222.361 222.717 224.84 222.404C229.773 221.779 236.06 219.487 242.001 216.527C247.936 213.569 253.318 210.048 256.472 207.106C258.107 205.58 258.887 204.441 259.076 203.789C259.093 203.729 259.102 203.684 259.107 203.652C259.046 203.609 258.922 203.538 258.692 203.46C250.151 200.571 236.851 194.258 225.215 186.621C219.393 182.801 213.933 178.613 209.678 174.315C205.457 170.051 202.252 165.509 201.236 160.963C199.866 154.83 194.216 153.268 190.447 154.631C188.603 155.298 187.568 156.529 187.465 157.97C187.355 159.506 188.232 162.007 191.916 165.258C199.953 172.35 205.356 182.662 209.136 192.722C212.612 201.971 214.776 211.18 216.319 217.746ZM259.112 203.598C259.11 203.591 259.111 203.586 259.111 203.586C259.111 203.586 259.112 203.59 259.112 203.598Z" fill="url(#paint11_linear)"/>
    <g opacity="0.58" filter="url(#filter6_f)">
        <path d="M193.092 256.541C193.466 258.743 184.824 260.376 174.809 260.17C164.794 259.963 156.152 257.44 156.639 255.219C157.125 252.999 164.967 251.571 174.982 251.777C184.997 251.984 192.719 254.339 193.092 256.541Z" fill="#395590"/>
    </g>
    <path d="M187.056 255.387C187.342 258.245 180.188 259.563 171.917 259.393C163.646 259.222 156.532 256.916 156.956 254.026C157.379 251.136 163.871 245.365 172.142 245.535C180.413 245.706 186.769 252.529 187.056 255.387Z" fill="#5675B4"/>
    <path d="M178.141 254.935C178.339 256.817 173.441 257.68 167.777 257.563C162.113 257.447 157.24 255.925 157.528 254.022C157.817 252.12 162.259 248.325 167.923 248.441C173.587 248.558 177.943 253.054 178.141 254.935Z" fill="#6683BD"/>
    <path d="M166.45 257.671C171.952 259.745 179.487 259.695 188.362 258.717C197.238 257.739 191.155 251.975 189.289 250.388C188.964 250.112 192.791 248.817 186.315 246.568C176.636 243.206 168.63 242.759 163.656 244.626C158.681 246.493 157.821 247.267 158.351 249.646C156.225 252.069 158.529 252.903 160.389 252.307C161.908 251.82 164.145 251.579 166.643 251.423C169.142 251.268 172.132 252.199 171.707 253.728C171.179 255.627 166.817 253.621 165.075 255.13C163.879 256.167 165.321 257.245 166.45 257.671Z" fill="#435A8A"/>
    <path d="M165.579 257.292C171.081 259.329 179.37 258.811 188.246 257.851C197.121 256.89 190.782 251.494 188.915 249.935C188.591 249.664 192.418 248.392 185.942 246.183C176.263 242.881 168.257 242.442 163.282 244.276C158.308 246.109 157.448 246.87 157.978 249.206C155.852 251.586 158.137 252.963 159.998 252.378C161.517 251.899 163.772 251.105 166.27 250.952C168.768 250.799 172.223 251.665 171.798 253.167C171.27 255.032 166.443 253.11 164.702 254.593C163.506 255.611 164.45 256.874 165.579 257.292Z" fill="#95A7CC"/>
    <g style="mix-blend-mode:multiply">
        <path d="M165.579 257.292C171.081 259.329 179.37 258.811 188.246 257.851C197.121 256.89 190.782 251.494 188.915 249.935C188.591 249.664 192.418 248.392 185.942 246.183C176.263 242.881 168.257 242.442 163.282 244.276C158.308 246.109 157.448 246.87 157.978 249.206C155.852 251.586 158.137 252.963 159.998 252.378C161.517 251.899 163.772 251.105 166.27 250.952C168.768 250.799 172.223 251.665 171.798 253.167C171.27 255.032 166.443 253.11 164.702 254.593C163.506 255.611 164.45 256.874 165.579 257.292Z" fill="url(#paint12_linear)"/>
    </g>
    <g opacity="0.66">
        <path d="M170.746 247.023C169.645 246.764 166.907 246.355 164.758 246.798C162.609 247.241 159.337 248.596 157.97 249.218C157.632 248.402 157.662 246.909 159.139 246.121C158.701 247.319 159.687 247.138 163.69 246.405C163.901 246.367 164.12 246.327 164.348 246.285C166.174 245.952 168.941 246.306 170.746 247.023Z" fill="url(#paint13_linear)"/>
        <path d="M171.825 253.034L171.829 253.001C171.828 253.012 171.827 253.023 171.825 253.034Z" fill="url(#paint14_linear)"/>
        <path d="M171.829 253.001C172.349 248.323 162.075 250.101 160.451 250.612C158.901 251.1 157.375 251.094 157.582 249.708C156.18 251.775 158.271 252.921 159.997 252.378C160.151 252.329 160.312 252.277 160.48 252.224C161.975 251.745 164.024 251.089 166.269 250.952C168.674 250.805 171.966 251.601 171.829 253.001Z" fill="url(#paint15_linear)"/>
        <path d="M165.901 256.692C171.402 258.729 179.692 258.211 188.568 257.251C191.725 256.909 193.738 255.674 194.765 254.026C193.873 255.97 191.775 257.469 188.245 257.851C179.369 258.811 171.08 259.329 165.578 257.292C164.522 256.901 163.627 255.77 164.496 254.792C164.315 255.594 165.056 256.38 165.901 256.692Z" fill="url(#paint16_linear)"/>
    </g>
    <path opacity="0.57" fill-rule="evenodd" clip-rule="evenodd" d="M193.486 169.281C192.602 168.345 191.683 167.451 190.726 166.607C175.3 152.995 199.689 145.78 202.993 160.57C203.37 162.254 204.094 163.972 205.109 165.704C201.723 168.021 197.674 169.292 193.486 169.281Z" fill="#7D8DAA"/>
    <path d="M212.923 143.143C214.968 162.323 195.687 172.982 181.183 163.394C166.679 153.807 169.208 136.133 180.599 128.247C191.991 120.36 210.879 123.963 212.923 143.143Z" fill="#BAC7DE"/>
    <path d="M197.568 134.445C196.757 141.852 186.226 147.906 179.976 145.484C173.725 143.062 176.652 135.818 183.025 131.611C189.397 127.404 198.38 127.038 197.568 134.445Z" fill="#C8D3E6"/>
    <path d="M210.028 143.516C211.782 159.971 195.24 169.116 182.796 160.89C170.352 152.665 182.65 153.671 192.426 150.532C202.203 147.393 208.274 127.06 210.028 143.516Z" fill="#AEBED9"/>
    <path opacity="0.19" d="M212.923 143.143C214.968 162.323 195.687 172.982 181.183 163.394C166.679 153.807 169.208 136.133 180.599 128.247C191.991 120.36 210.879 123.963 212.923 143.143Z" fill="url(#paint17_linear)"/>
    <path d="M285.333 205.428C252.29 185.981 216.994 200.618 195.976 231.582C178.51 257.312 147.526 302.353 109.888 296.498C102.883 295.408 94.6369 298.536 91.6316 308.259C90.1688 312.992 89.6077 316.276 94.2001 316.276C116.365 316.276 308.144 316.445 319.847 316.101C331.549 315.757 333.95 311.385 333.615 302.677C332.066 262.405 319.973 225.815 285.333 205.428Z" fill="#613C8F"/>
    <path opacity="0.29" fill-rule="evenodd" clip-rule="evenodd" d="M237.124 202.595C222.323 207.438 208.775 218.335 198.582 233.351C189.871 246.185 177.578 264.163 162.653 278.181C147.778 292.152 129.673 302.764 109.404 299.611C103.681 298.721 97.1102 301.2 94.6406 309.19C94.2818 310.351 94.0155 311.307 93.8632 312.102C93.7771 312.551 93.7422 312.878 93.7324 313.107C93.8537 313.119 94.0077 313.128 94.1999 313.128C97.6798 313.128 105.313 313.132 115.759 313.137C172.034 313.168 309.935 313.242 319.754 312.954C325.39 312.788 327.79 311.645 328.913 310.408C330.041 309.167 330.63 307.028 330.467 302.799C328.936 262.993 317.028 227.737 283.735 208.143C268.002 198.883 251.856 197.774 237.124 202.595Z" fill="#291E4E"/>
    <path d="M185.903 281.769C199.537 293.948 226.425 286.094 245.96 264.225C257.849 250.915 274.032 219.227 258.048 203.695C256.734 202.419 254.829 199.23 259.315 200.016C267.398 200.76 275.621 203.368 283.735 208.143C317.028 227.737 328.936 262.993 330.467 302.799C330.63 307.028 330.041 309.167 328.913 310.408C327.79 311.645 325.39 312.788 319.754 312.953C309.935 313.242 172.034 313.168 115.759 313.137C105.313 313.132 97.6798 313.127 94.1999 313.127C94.0077 313.127 93.8537 313.119 93.7324 313.107C93.7422 312.878 93.7771 312.551 93.8632 312.102C94.0155 311.307 94.2818 310.351 94.6406 309.19C97.1102 301.2 103.681 298.72 109.404 299.611C129.673 302.764 147.778 292.152 162.653 278.181C166.93 274.164 170.991 269.821 174.814 265.368C177.115 262.715 178.198 264.873 178.416 266.566C179.203 272.701 181.662 277.981 185.903 281.769Z" fill="url(#paint18_linear)"/>
    <path fill-rule="evenodd" clip-rule="evenodd" d="M239.003 208.666C240.703 212.26 239.167 216.552 235.573 218.252C223.209 224.1 210.352 239.051 201.406 254.966C199.458 258.432 195.068 259.662 191.602 257.713C188.136 255.765 186.906 251.376 188.855 247.91C198.348 231.021 213.053 212.975 229.417 205.236C233.011 203.536 237.303 205.072 239.003 208.666Z" fill="url(#paint19_linear)"/>
    <path opacity="0.49" d="M203.561 144.685C203.347 146.121 202.008 147.112 200.57 146.898C199.132 146.684 198.139 145.346 198.352 143.91C198.566 142.474 199.905 141.483 201.343 141.697C202.781 141.911 203.774 143.249 203.561 144.685Z" fill="#889CC0"/>
    <path d="M203.158 144.403C202.962 145.719 201.735 146.627 200.417 146.431C199.099 146.235 198.189 145.009 198.385 143.693C198.581 142.377 199.808 141.469 201.126 141.665C202.444 141.861 203.354 143.087 203.158 144.403Z" fill="#354781"/>
    <path d="M201.141 142.456C201.362 142.844 201.071 143.427 200.49 143.758C199.91 144.089 199.26 144.042 199.039 143.654C198.818 143.267 199.109 142.684 199.69 142.353C200.271 142.022 200.92 142.069 201.141 142.456Z" fill="#1C5AA2"/>
    <path d="M200.351 142.594C200.431 142.735 200.312 142.955 200.084 143.085C199.856 143.215 199.606 143.206 199.525 143.065C199.445 142.924 199.565 142.704 199.793 142.574C200.021 142.444 200.271 142.453 200.351 142.594Z" fill="#9CB0CD"/>
    <path d="M199.685 144.406C199.335 144.447 198.981 144.767 199.171 145.064C199.456 145.511 199.926 145.837 200.493 145.921C201.529 146.076 202.494 145.362 202.648 144.326C202.713 143.893 202.625 143.472 202.425 143.118C202.239 142.789 201.729 143.011 201.513 143.321C201.319 143.601 201.03 143.866 200.67 144.072C200.341 144.259 200 144.37 199.685 144.406Z" fill="#000E45"/>
    <path opacity="0.49" d="M183.315 134.424C183.102 135.86 181.763 136.851 180.325 136.637C178.886 136.423 177.894 135.085 178.107 133.649C178.321 132.213 179.66 131.222 181.098 131.436C182.536 131.65 183.529 132.988 183.315 134.424Z" fill="#889CC0"/>
    <path d="M182.913 134.142C182.717 135.458 181.49 136.366 180.172 136.17C178.854 135.974 177.944 134.748 178.14 133.432C178.335 132.116 179.563 131.208 180.881 131.404C182.199 131.6 183.109 132.826 182.913 134.142Z" fill="#354781"/>
    <path d="M180.896 132.196C181.117 132.584 180.826 133.166 180.245 133.497C179.665 133.828 179.015 133.782 178.794 133.394C178.573 133.006 178.864 132.423 179.445 132.092C180.025 131.762 180.675 131.808 180.896 132.196Z" fill="#1C5AA2"/>
    <path d="M180.106 132.334C180.186 132.475 180.066 132.694 179.838 132.824C179.61 132.954 179.361 132.945 179.28 132.804C179.2 132.663 179.32 132.444 179.548 132.314C179.776 132.184 180.025 132.193 180.106 132.334Z" fill="#9CB0CD"/>
    <path d="M179.44 134.146C179.09 134.186 178.736 134.506 178.926 134.804C179.211 135.251 179.681 135.577 180.248 135.661C181.284 135.815 182.249 135.101 182.403 134.066C182.468 133.632 182.38 133.211 182.179 132.857C181.994 132.528 181.484 132.75 181.268 133.06C181.074 133.34 180.785 133.606 180.425 133.811C180.096 133.998 179.755 134.109 179.44 134.146Z" fill="#000E45"/>
    <path d="M55.1535 159.796C55.0853 159.71 55.0171 159.624 54.8721 159.53C51.1496 158.719 23.6985 149.532 19.8542 149.801C16.0868 150.079 -8.32876 151.933 -12.2412 152.116C-16.1536 152.3 -17.7051 155.014 -18.14 158.869C-18.14 158.869 -22.0886 193.877 -22.3756 196.422C-22.6626 198.966 -23.1047 202.196 -17.1635 204.038C-11.0004 205.982 10.9779 214.006 13.6606 213.684C14.2755 213.753 15.0528 213.763 15.9243 213.627C22.0843 212.838 44.7757 210.399 47.4584 210.077C50.1411 209.755 51.9986 207.778 52.4857 203.46L56.8257 164.982C57.0518 162.977 56.9284 160.621 55.1535 159.796ZM54.1717 159.529C54.0949 159.52 54.0949 159.52 54.018 159.512C54.0949 159.52 54.1804 159.452 54.1717 159.529ZM53.0102 159.476C53.2494 159.425 53.48 159.451 53.6337 159.468C53.4032 159.442 53.2494 159.425 53.0102 159.476Z" fill="url(#paint20_linear)"/>
    <path d="M58.6759 149.261C54.3618 149.555 26.5718 151.653 22.1896 151.861C17.7305 152.061 15.9818 155.144 15.486 159.539C15.486 159.539 10.7546 201.487 10.4241 204.417C10.0936 207.347 9.51234 211.811 16.5352 210.963C23.5581 210.115 49.3339 207.244 52.4096 206.888C55.4853 206.532 57.6081 204.272 58.1648 199.337L63.1049 155.539C63.3672 152.523 63.0669 148.975 58.6759 149.261Z" fill="url(#paint21_linear)"/>
    <path fill-rule="evenodd" clip-rule="evenodd" d="M15.486 159.539L10.4132 204.513C10.0818 207.444 9.58909 211.801 16.5352 210.963C21.4827 210.366 35.7369 208.764 44.8051 207.745C48.6092 207.318 51.5006 206.993 52.4096 206.888C55.4853 206.532 57.6081 204.272 58.1648 199.337L63.1049 155.539C63.3672 152.523 63.0669 148.975 58.6759 149.261C57.333 149.352 53.7155 149.619 49.2373 149.949C39.329 150.678 25.2077 151.718 22.1896 151.861C17.7305 152.061 15.9818 155.144 15.486 159.539ZM58.7358 150.159C57.4036 150.25 53.8066 150.514 49.3473 150.843C39.4351 151.573 25.2621 152.616 22.2323 152.76L22.2299 152.76C20.2283 152.85 18.9341 153.569 18.0592 154.683C17.1516 155.838 16.6199 157.515 16.3802 159.64L15.486 159.539C16.3802 159.64 16.3803 159.64 16.3802 159.64L11.3094 204.597C11.2279 205.319 11.1441 206.061 11.1518 206.785C11.1599 207.537 11.2678 208.188 11.5263 208.703C11.77 209.188 12.1702 209.601 12.8847 209.866C13.6292 210.143 14.7511 210.272 16.4274 210.069C21.3786 209.472 35.6562 207.868 44.724 206.849C48.5195 206.422 51.4022 206.098 52.3061 205.994C53.6322 205.84 54.7077 205.29 55.5301 204.266C56.3715 203.219 57.0034 201.604 57.2705 199.237L62.2093 155.45C62.3383 153.958 62.2998 152.54 61.8245 151.552C61.5998 151.085 61.2841 150.73 60.8363 150.493C60.3795 150.251 59.7143 150.095 58.7358 150.159Z" fill="url(#paint22_linear)"/>
    <path d="M24.2366 157.871L54.6064 155.673C55.6229 155.632 56.3901 156.421 56.277 157.424L51.6587 198.369C51.5022 199.757 50.4494 200.81 49.1081 200.971C43.2728 201.64 27.9799 203.351 20.1711 204.266C18.3599 204.453 16.8256 202.874 17.0343 201.023L21.6091 160.464C21.7657 159.076 22.8953 158.032 24.2366 157.871Z" fill="#6683BD"/>
    <path d="M10.4251 204.415C10.7556 201.485 15.4869 159.538 15.4869 159.538C15.9827 155.142 17.8083 152.068 22.1905 151.86C26.6309 151.751 54.4087 149.581 58.7186 149.276C59.7351 149.235 60.4706 149.328 61.1362 149.638C61.0767 149.475 60.9231 149.357 60.8462 149.348C57.0472 148.145 25.3874 138.008 21.0733 138.302C16.7592 138.597 -11.0308 140.694 -15.413 140.903C-19.8721 141.103 -21.6977 144.176 -22.1934 148.572C-22.1934 148.572 -26.6813 188.36 -27.0118 191.29C-27.3423 194.221 -27.8279 197.836 -21.1442 199.996C-14.1531 202.19 10.8894 211.34 13.8883 210.975C9.65244 210.575 10.1381 206.96 10.4251 204.415Z" fill="url(#paint23_linear)"/>
    <path opacity="0.51" d="M10.4254 204.416C10.7559 201.485 15.4872 159.538 15.4872 159.538C15.983 155.143 17.8086 152.069 22.1908 151.86C26.6499 151.66 54.3906 149.505 58.696 149.288C59.7126 149.246 60.4785 149.332 61.1441 149.642C61.0847 149.479 60.8593 149.365 60.7824 149.356C56.5307 148.408 25.3877 138.008 21.0736 138.302C16.7595 138.597 -11.0305 140.694 -15.4127 140.903C-19.8718 141.103 -21.6974 144.177 -22.1931 148.572C-22.1931 148.572 -26.681 188.36 -27.0115 191.291C-27.342 194.221 -27.8276 197.836 -21.1439 199.996C-14.1528 202.19 10.8897 211.34 13.8886 210.975C9.65274 210.576 10.1384 206.96 10.4254 204.416Z" fill="url(#paint24_linear)"/>
    <path d="M29.2901 159.299L59.6598 157.102C60.6764 157.061 61.4435 157.85 61.3304 158.852L56.6687 200.183C56.5121 201.571 55.4594 202.624 54.118 202.785C48.2828 203.454 32.9899 205.165 25.181 206.081C23.3698 206.267 21.75 204.756 21.9674 202.829L26.5857 161.883C26.8191 160.504 27.8718 159.452 29.2901 159.299Z" fill="url(#paint25_linear)"/>
    <path opacity="0.61" fill-rule="evenodd" clip-rule="evenodd" d="M29.3719 160.195C28.3899 160.307 27.6532 161.024 27.4769 162.011L22.8616 202.93C22.7114 204.261 23.8219 205.312 25.0831 205.186C30.1356 204.594 38.3183 203.669 45.0451 202.908C48.7167 202.493 51.9545 202.127 54.0128 201.891C54.9336 201.779 55.6641 201.06 55.7744 200.082L60.4362 158.751C60.4839 158.329 60.1949 157.987 59.7085 158.001L29.3719 160.195ZM26.5857 161.883C26.8191 160.504 27.8718 159.452 29.2901 159.299L59.6598 157.102C60.6764 157.061 61.4435 157.85 61.3304 158.852L56.6687 200.183C56.5121 201.571 55.4594 202.624 54.118 202.785C52.0567 203.021 48.8152 203.388 45.1403 203.803C38.4121 204.564 30.2314 205.489 25.181 206.081C23.3698 206.267 21.75 204.756 21.9674 202.829L26.5857 161.883Z" fill="url(#paint26_linear)"/>
    <path d="M54.2985 155.638C52.2567 155.799 26.5853 157.745 24.5523 157.828C22.5192 157.911 21.7006 159.101 21.4744 161.106C21.4744 161.106 17.2426 199.172 17.086 200.56C16.9295 201.948 16.6787 203.482 19.7602 204.454C20.6651 204.712 22.1587 205.271 23.883 205.856C22.688 205.409 21.8875 204.225 22.0441 202.837L26.6624 161.892C26.8189 160.504 27.9572 159.383 29.3667 159.308L59.7365 157.111C60.1295 157.077 60.5051 157.198 60.8633 157.472C59.7626 156.88 58.8751 156.467 57.467 155.84C56.6564 155.436 54.922 155.631 54.2985 155.638Z" fill="url(#paint27_linear)"/>
    <path d="M51.8049 183.961C54.1915 177.17 52.1092 170.246 47.154 168.497C42.1987 166.747 36.247 170.835 33.8604 177.627C31.4738 184.418 33.5561 191.342 38.5113 193.091C43.4666 194.841 49.4183 190.753 51.8049 183.961Z" fill="url(#paint28_linear)"/>
    <path d="M50.739 183.198C52.3868 178.509 50.9467 173.727 47.5224 172.518C44.098 171.31 39.9862 174.131 38.3383 178.821C36.6904 183.51 38.1305 188.292 41.5548 189.5C44.9792 190.709 49.0911 187.888 50.739 183.198Z" fill="url(#paint29_linear)"/>
    <path fill-rule="evenodd" clip-rule="evenodd" d="M50.1716 176.812C49.6499 175.08 48.5995 173.853 47.224 173.367C45.8485 172.882 44.2628 173.178 42.7733 174.2C41.2846 175.222 39.9543 176.936 39.1869 179.12C38.4194 181.304 38.3843 183.476 38.9057 185.207C39.4273 186.939 40.4777 188.166 41.8532 188.651C43.2287 189.137 44.8144 188.84 46.3039 187.818C47.7926 186.797 49.1229 185.083 49.8904 182.899C50.6578 180.715 50.693 178.543 50.1716 176.812ZM47.5224 172.518C50.9467 173.727 52.3868 178.509 50.739 183.198C49.0911 187.888 44.9792 190.709 41.5548 189.5C38.1305 188.292 36.6904 183.51 38.3383 178.821C39.9862 174.131 44.098 171.31 47.5224 172.518Z" fill="url(#paint30_linear)"/>
    <path d="M22.0765 174.26L17.542 173.748L15.2807 193.797L19.8152 194.308L22.0765 174.26Z" fill="url(#paint31_linear)"/>
    <path d="M20.2192 172.098L17.5423 173.748L22.0769 174.26L20.2192 172.098Z" fill="#878BC4"/>
    <path d="M65.207 214.481L63.9393 216.567C62.6127 218.75 65.2849 222.796 69.9064 225.605C74.5288 228.414 79.3504 228.921 80.6763 226.74L81.9441 224.654L65.207 214.481Z" fill="url(#paint32_linear)"/>
    <mask id="mask1" mask-type="alpha" maskUnits="userSpaceOnUse" x="61" y="214" width="21" height="17">
        <path d="M65.207 214.481L63.9393 216.567C62.6127 218.75 65.2849 222.796 69.9064 225.605C74.5288 228.414 79.3504 228.921 80.6763 226.74L81.9441 224.654L65.207 214.481Z" fill="url(#paint33_linear)"/>
    </mask>
    <g mask="url(#mask1)">
        <g opacity="0.36">
            <path fill-rule="evenodd" clip-rule="evenodd" d="M66.676 213.177L61.7154 221.339L61.2279 221.043L66.1885 212.881L66.676 213.177Z" fill="#5A5A8F"/>
            <path fill-rule="evenodd" clip-rule="evenodd" d="M67.6926 213.794L62.732 221.956L62.2445 221.66L67.2051 213.498L67.6926 213.794Z" fill="#5A5A8F"/>
            <path fill-rule="evenodd" clip-rule="evenodd" d="M68.7082 214.412L63.7476 222.573L63.2601 222.277L68.2207 214.115L68.7082 214.412Z" fill="#5A5A8F"/>
            <path fill-rule="evenodd" clip-rule="evenodd" d="M69.7239 215.029L64.7633 223.191L64.2757 222.894L69.2363 214.732L69.7239 215.029Z" fill="#5A5A8F"/>
            <path fill-rule="evenodd" clip-rule="evenodd" d="M70.7395 215.646L65.7789 223.808L65.2913 223.511L70.252 215.35L70.7395 215.646Z" fill="#5A5A8F"/>
            <path fill-rule="evenodd" clip-rule="evenodd" d="M71.7551 216.264L66.7945 224.426L66.307 224.13L71.2676 215.968L71.7551 216.264Z" fill="#5A5A8F"/>
            <path fill-rule="evenodd" clip-rule="evenodd" d="M72.7717 216.88L67.8111 225.042L67.3236 224.746L72.2842 216.584L72.7717 216.88Z" fill="#5A5A8F"/>
            <path fill-rule="evenodd" clip-rule="evenodd" d="M73.7873 217.498L68.8267 225.66L68.3392 225.364L73.2998 217.202L73.7873 217.498Z" fill="#5A5A8F"/>
            <path fill-rule="evenodd" clip-rule="evenodd" d="M74.803 218.116L69.8424 226.278L69.3548 225.981L74.3154 217.819L74.803 218.116Z" fill="#5A5A8F"/>
            <path fill-rule="evenodd" clip-rule="evenodd" d="M75.8186 218.733L70.858 226.895L70.3704 226.598L75.3311 218.437L75.8186 218.733Z" fill="#5A5A8F"/>
            <path fill-rule="evenodd" clip-rule="evenodd" d="M76.8342 219.35L71.8736 227.512L71.3861 227.216L76.3467 219.054L76.8342 219.35Z" fill="#5A5A8F"/>
            <path fill-rule="evenodd" clip-rule="evenodd" d="M77.8498 219.967L72.8892 228.129L72.4017 227.833L77.3623 219.671L77.8498 219.967Z" fill="#5A5A8F"/>
            <path fill-rule="evenodd" clip-rule="evenodd" d="M78.8655 220.585L73.9049 228.747L73.4173 228.451L78.3779 220.289L78.8655 220.585Z" fill="#5A5A8F"/>
            <path fill-rule="evenodd" clip-rule="evenodd" d="M79.8821 221.202L74.9215 229.363L74.4339 229.067L79.3945 220.905L79.8821 221.202Z" fill="#5A5A8F"/>
            <path fill-rule="evenodd" clip-rule="evenodd" d="M80.8967 221.82L75.9361 229.982L75.4486 229.685L80.4092 221.523L80.8967 221.82Z" fill="#5A5A8F"/>
            <path fill-rule="evenodd" clip-rule="evenodd" d="M81.9123 222.437L76.9517 230.599L76.4642 230.302L81.4248 222.141L81.9123 222.437Z" fill="#5A5A8F"/>
            <path fill-rule="evenodd" clip-rule="evenodd" d="M82.929 223.054L77.9683 231.216L77.4808 230.92L82.4414 222.758L82.929 223.054Z" fill="#5A5A8F"/>
        </g>
    </g>
    <path d="M75.9769 215.617C71.3545 212.807 66.5329 212.3 65.207 214.481C63.881 216.663 66.5526 220.71 71.1741 223.519C75.7956 226.328 80.6181 226.835 81.944 224.654C83.27 222.472 80.5994 218.426 75.9769 215.617Z" fill="url(#paint34_linear)"/>
    <path fill-rule="evenodd" clip-rule="evenodd" d="M69.296 213.745C67.3995 213.545 66.1758 213.986 65.6945 214.778C65.2133 215.57 65.3856 216.859 66.4364 218.451C67.4603 220.001 69.2152 221.661 71.4704 223.031C73.7256 224.402 76.0066 225.196 77.8547 225.39C79.7514 225.59 80.9752 225.149 81.4565 224.358C81.9378 223.566 81.7656 222.276 80.715 220.685C79.6912 219.134 77.9363 217.475 75.6806 216.104C73.4249 214.733 71.1439 213.939 69.296 213.745ZM65.207 214.481C66.5329 212.3 71.3545 212.807 75.9769 215.617C80.5994 218.426 83.27 222.472 81.944 224.654C80.6181 226.835 75.7956 226.328 71.1741 223.519C66.5526 220.71 63.881 216.663 65.207 214.481Z" fill="url(#paint35_linear)"/>
    <path d="M75.165 216.953C71.6883 214.84 68.1958 214.235 67.3646 215.602C66.5335 216.97 68.6783 219.791 72.156 221.904C75.6338 224.018 79.1257 224.622 79.9564 223.255C80.7871 221.889 78.6428 219.067 75.165 216.953Z" fill="url(#paint36_linear)"/>
    <path d="M99.7695 184.331V187.368C99.7695 190.547 105.226 193.122 111.955 193.122C118.686 193.122 124.141 190.545 124.141 187.368V184.331H99.7695Z" fill="url(#paint37_linear)"/>
    <mask id="mask2" mask-type="alpha" maskUnits="userSpaceOnUse" x="99" y="184" width="26" height="10">
        <path d="M99.7695 184.331V187.368C99.7695 190.547 105.226 193.122 111.955 193.122C118.686 193.122 124.141 190.545 124.141 187.368V184.331H99.7695Z" fill="url(#paint38_linear)"/>
    </mask>
    <g mask="url(#mask2)">
        <g opacity="0.36">
            <path fill-rule="evenodd" clip-rule="evenodd" d="M100.489 181.994V193.879H99.7793V181.994H100.489Z" fill="#5A5A8F"/>
            <path fill-rule="evenodd" clip-rule="evenodd" d="M101.969 181.993V193.878H101.259V181.993H101.969Z" fill="#5A5A8F"/>
            <path fill-rule="evenodd" clip-rule="evenodd" d="M103.447 181.993V193.878H102.737V181.993H103.447Z" fill="#5A5A8F"/>
            <path fill-rule="evenodd" clip-rule="evenodd" d="M104.927 181.993V193.878H104.217V181.993H104.927Z" fill="#5A5A8F"/>
            <path fill-rule="evenodd" clip-rule="evenodd" d="M106.405 181.993V193.878H105.695V181.993H106.405Z" fill="#5A5A8F"/>
            <path fill-rule="evenodd" clip-rule="evenodd" d="M107.885 181.993V193.878H107.175V181.993H107.885Z" fill="#5A5A8F"/>
            <path fill-rule="evenodd" clip-rule="evenodd" d="M109.364 181.993V193.878H108.654V181.993H109.364Z" fill="#5A5A8F"/>
            <path fill-rule="evenodd" clip-rule="evenodd" d="M110.843 181.993V193.878H110.133V181.993H110.843Z" fill="#5A5A8F"/>
            <path fill-rule="evenodd" clip-rule="evenodd" d="M112.322 181.993V193.878H111.612V181.993H112.322Z" fill="#5A5A8F"/>
            <path fill-rule="evenodd" clip-rule="evenodd" d="M113.801 181.993V193.878H113.091V181.993H113.801Z" fill="#5A5A8F"/>
            <path fill-rule="evenodd" clip-rule="evenodd" d="M115.28 181.993V193.878H114.57V181.993H115.28Z" fill="#5A5A8F"/>
            <path fill-rule="evenodd" clip-rule="evenodd" d="M116.759 181.993V193.878H116.049V181.993H116.759Z" fill="#5A5A8F"/>
            <path fill-rule="evenodd" clip-rule="evenodd" d="M118.238 181.993V193.878H117.528V181.993H118.238Z" fill="#5A5A8F"/>
            <path fill-rule="evenodd" clip-rule="evenodd" d="M119.717 181.993V193.878H119.007V181.993H119.717Z" fill="#5A5A8F"/>
            <path fill-rule="evenodd" clip-rule="evenodd" d="M121.196 181.993V193.878H120.486V181.993H121.196Z" fill="#5A5A8F"/>
            <path fill-rule="evenodd" clip-rule="evenodd" d="M122.676 181.993V193.878H121.966V181.993H122.676Z" fill="#5A5A8F"/>
            <path fill-rule="evenodd" clip-rule="evenodd" d="M124.155 181.993V193.878H123.445V181.993H124.155Z" fill="#5A5A8F"/>
        </g>
    </g>
    <path d="M111.955 178.578C105.224 178.578 99.7695 181.155 99.7695 184.331C99.7695 187.508 105.226 190.085 111.955 190.085C118.685 190.085 124.141 187.508 124.141 184.331C124.141 181.155 118.686 178.578 111.955 178.578Z" fill="url(#paint39_linear)"/>
    <path fill-rule="evenodd" clip-rule="evenodd" d="M103.641 180.906C101.496 181.919 100.479 183.178 100.479 184.331C100.479 185.485 101.496 186.744 103.642 187.757C105.733 188.745 108.671 189.375 111.955 189.375C115.239 189.375 118.178 188.745 120.269 187.757C122.415 186.744 123.431 185.485 123.431 184.331C123.431 183.178 122.415 181.919 120.269 180.906C118.178 179.918 115.24 179.288 111.955 179.288C108.671 179.288 105.732 179.918 103.641 180.906ZM99.7695 184.331C99.7695 181.155 105.224 178.578 111.955 178.578C118.686 178.578 124.141 181.155 124.141 184.331C124.141 187.508 118.685 190.085 111.955 190.085C105.226 190.085 99.7695 187.508 99.7695 184.331Z" fill="url(#paint40_linear)"/>
    <path d="M111.955 180.524C106.892 180.524 102.787 182.138 102.787 184.129C102.787 186.12 106.891 187.733 111.955 187.733C117.019 187.733 121.122 186.119 121.122 184.129C121.122 182.139 117.019 180.524 111.955 180.524Z" fill="url(#paint41_linear)"/>
    <path d="M77.4473 152.042L78.1606 153.383C78.907 154.786 81.9204 154.641 84.891 153.061C87.8623 151.48 89.6651 149.061 88.919 147.659L88.2056 146.318L77.4473 152.042Z" fill="url(#paint42_linear)"/>
    <mask id="mask3" mask-type="alpha" maskUnits="userSpaceOnUse" x="77" y="146" width="14" height="10">
        <path d="M77.4473 152.042L78.1606 153.383C78.907 154.786 81.9204 154.641 84.891 153.061C87.8623 151.48 89.6651 149.061 88.919 147.659L88.2056 146.318L77.4473 152.042Z" fill="url(#paint43_linear)"/>
    </mask>
    <g mask="url(#mask3)">
        <g opacity="0.36">
            <path fill-rule="evenodd" clip-rule="evenodd" d="M77.2167 150.842L80.0079 156.088L79.6946 156.255L76.9033 151.009L77.2167 150.842Z" fill="#5A5A8F"/>
            <path fill-rule="evenodd" clip-rule="evenodd" d="M77.8691 150.493L80.6603 155.74L80.3469 155.906L77.5557 150.66L77.8691 150.493Z" fill="#5A5A8F"/>
            <path fill-rule="evenodd" clip-rule="evenodd" d="M78.5214 150.146L81.3126 155.392L80.9992 155.559L78.208 150.312L78.5214 150.146Z" fill="#5A5A8F"/>
            <path fill-rule="evenodd" clip-rule="evenodd" d="M79.1747 149.798L81.966 155.044L81.6526 155.211L78.8613 149.965L79.1747 149.798Z" fill="#5A5A8F"/>
            <path fill-rule="evenodd" clip-rule="evenodd" d="M79.828 149.451L82.6193 154.698L82.3059 154.865L79.5146 149.618L79.828 149.451Z" fill="#5A5A8F"/>
            <path fill-rule="evenodd" clip-rule="evenodd" d="M80.4804 149.104L83.2716 154.35L82.9582 154.517L80.167 149.271L80.4804 149.104Z" fill="#5A5A8F"/>
            <path fill-rule="evenodd" clip-rule="evenodd" d="M81.1337 148.756L83.9249 154.002L83.6116 154.169L80.8203 148.923L81.1337 148.756Z" fill="#5A5A8F"/>
            <path fill-rule="evenodd" clip-rule="evenodd" d="M81.787 148.408L84.5783 153.655L84.2649 153.822L81.4736 148.575L81.787 148.408Z" fill="#5A5A8F"/>
            <path fill-rule="evenodd" clip-rule="evenodd" d="M82.4394 148.062L85.2306 153.308L84.9172 153.475L82.126 148.229L82.4394 148.062Z" fill="#5A5A8F"/>
            <path fill-rule="evenodd" clip-rule="evenodd" d="M83.0927 147.714L85.8839 152.96L85.5705 153.127L82.7793 147.881L83.0927 147.714Z" fill="#5A5A8F"/>
            <path fill-rule="evenodd" clip-rule="evenodd" d="M83.745 147.366L86.5363 152.613L86.2229 152.78L83.4316 147.533L83.745 147.366Z" fill="#5A5A8F"/>
            <path fill-rule="evenodd" clip-rule="evenodd" d="M84.3974 147.02L87.1886 152.266L86.8752 152.433L84.084 147.187L84.3974 147.02Z" fill="#5A5A8F"/>
            <path fill-rule="evenodd" clip-rule="evenodd" d="M85.0507 146.672L87.8419 151.918L87.5285 152.085L84.7373 146.839L85.0507 146.672Z" fill="#5A5A8F"/>
            <path fill-rule="evenodd" clip-rule="evenodd" d="M85.703 146.324L88.4943 151.571L88.1809 151.738L85.3896 146.491L85.703 146.324Z" fill="#5A5A8F"/>
            <path fill-rule="evenodd" clip-rule="evenodd" d="M86.3564 145.977L89.1476 151.223L88.8342 151.39L86.043 146.144L86.3564 145.977Z" fill="#5A5A8F"/>
            <path fill-rule="evenodd" clip-rule="evenodd" d="M87.0097 145.63L89.8009 150.876L89.4875 151.043L86.6963 145.797L87.0097 145.63Z" fill="#5A5A8F"/>
            <path fill-rule="evenodd" clip-rule="evenodd" d="M87.662 145.282L90.4533 150.529L90.1399 150.696L87.3486 145.449L87.662 145.282Z" fill="#5A5A8F"/>
        </g>
    </g>
    <path d="M81.4749 146.64C78.5036 148.221 76.7009 150.639 77.4469 152.042C78.193 153.444 81.2067 153.3 84.1774 151.719C87.148 150.139 88.9514 147.72 88.2053 146.318C87.4592 144.916 84.4462 145.059 81.4749 146.64Z" fill="url(#paint44_linear)"/>
    <path fill-rule="evenodd" clip-rule="evenodd" d="M78.3515 149.62C77.6423 150.571 77.4895 151.366 77.7603 151.875C78.0311 152.384 78.7757 152.701 79.961 152.645C81.1159 152.589 82.561 152.177 84.0106 151.406C85.4602 150.635 86.6094 149.667 87.3005 148.74C88.0098 147.788 88.1627 146.994 87.8919 146.485C87.6211 145.976 86.8767 145.658 85.6915 145.715C84.5367 145.77 83.0915 146.182 81.6416 146.953C80.1917 147.725 79.0426 148.693 78.3515 149.62ZM77.4469 152.042C76.7009 150.639 78.5036 148.221 81.4749 146.64C84.4462 145.059 87.4592 144.916 88.2053 146.318C88.9514 147.72 87.148 150.139 84.1774 151.719C81.2067 153.3 78.193 153.444 77.4469 152.042Z" fill="url(#paint45_linear)"/>
    <path d="M81.9317 147.499C79.6969 148.688 78.2636 150.364 78.7313 151.244C79.199 152.123 81.3894 151.871 83.6248 150.682C85.8603 149.492 87.2926 147.816 86.8252 146.937C86.3578 146.059 84.1671 146.31 81.9317 147.499Z" fill="url(#paint46_linear)"/>
    <defs>
        <filter id="filter0_f" x="39.2324" y="155.143" width="324.909" height="179.266" filterUnits="userSpaceOnUse" color-interpolation-filters="sRGB">
            <feFlood flood-opacity="0" result="BackgroundImageFix"/>
            <feBlend mode="normal" in="SourceGraphic" in2="BackgroundImageFix" result="shape"/>
            <feGaussianBlur stdDeviation="9.5" result="effect1_foregroundBlur"/>
        </filter>
        <filter id="filter1_f" x="28.1855" y="224.743" width="129.707" height="80.0619" filterUnits="userSpaceOnUse" color-interpolation-filters="sRGB">
            <feFlood flood-opacity="0" result="BackgroundImageFix"/>
            <feBlend mode="normal" in="SourceGraphic" in2="BackgroundImageFix" result="shape"/>
            <feGaussianBlur stdDeviation="2" result="effect1_foregroundBlur"/>
        </filter>
        <filter id="filter2_f" x="59.291" y="246.561" width="98.6022" height="50.602" filterUnits="userSpaceOnUse" color-interpolation-filters="sRGB">
            <feFlood flood-opacity="0" result="BackgroundImageFix"/>
            <feBlend mode="normal" in="SourceGraphic" in2="BackgroundImageFix" result="shape"/>
            <feGaussianBlur stdDeviation="2" result="effect1_foregroundBlur"/>
        </filter>
        <filter id="filter3_i" x="47.7373" y="215.803" width="76.676" height="63.8894" filterUnits="userSpaceOnUse" color-interpolation-filters="sRGB">
            <feFlood flood-opacity="0" result="BackgroundImageFix"/>
            <feBlend mode="normal" in="SourceGraphic" in2="BackgroundImageFix" result="shape"/>
            <feColorMatrix in="SourceAlpha" type="matrix" values="0 0 0 0 0 0 0 0 0 0 0 0 0 0 0 0 0 0 127 0" result="hardAlpha"/>
            <feOffset dx="-2" dy="4"/>
            <feGaussianBlur stdDeviation="4"/>
            <feComposite in2="hardAlpha" operator="arithmetic" k2="-1" k3="1"/>
            <feColorMatrix type="matrix" values="0 0 0 0 0.0588235 0 0 0 0 0.756863 0 0 0 0 0.717647 0 0 0 0.29 0"/>
            <feBlend mode="normal" in2="shape" result="effect1_innerShadow"/>
        </filter>
        <filter id="filter4_f" x="40.7373" y="206.803" width="92.676" height="77.8894" filterUnits="userSpaceOnUse" color-interpolation-filters="sRGB">
            <feFlood flood-opacity="0" result="BackgroundImageFix"/>
            <feBlend mode="normal" in="SourceGraphic" in2="BackgroundImageFix" result="shape"/>
            <feGaussianBlur stdDeviation="4.5" result="effect1_foregroundBlur"/>
        </filter>
        <filter id="filter5_f" x="2.21191" y="171.078" width="167.985" height="148.986" filterUnits="userSpaceOnUse" color-interpolation-filters="sRGB">
            <feFlood flood-opacity="0" result="BackgroundImageFix"/>
            <feBlend mode="normal" in="SourceGraphic" in2="BackgroundImageFix" result="shape"/>
            <feGaussianBlur stdDeviation="14" result="effect1_foregroundBlur"/>
        </filter>
        <filter id="filter6_f" x="152.528" y="247.4" width="44.6694" height="17.1449" filterUnits="userSpaceOnUse" color-interpolation-filters="sRGB">
            <feFlood flood-opacity="0" result="BackgroundImageFix"/>
            <feBlend mode="normal" in="SourceGraphic" in2="BackgroundImageFix" result="shape"/>
            <feGaussianBlur stdDeviation="2" result="effect1_foregroundBlur"/>
        </filter>
        <linearGradient id="paint0_linear" x1="-17.897" y1="19.9504" x2="224.184" y2="284.339" gradientUnits="userSpaceOnUse">
            <stop stop-color="#FB8AE2"/>
            <stop offset="0.514672" stop-color="#CF87F0" stop-opacity="0.485328"/>
            <stop offset="1" stop-color="#8E67E1"/>
        </linearGradient>
        <linearGradient id="paint1_linear" x1="-17.897" y1="19.9504" x2="224.184" y2="284.339" gradientUnits="userSpaceOnUse">
            <stop stop-color="#FB8AE2"/>
            <stop offset="0.514672" stop-color="#CF87F0" stop-opacity="0.485328"/>
            <stop offset="1" stop-color="#8E67E1"/>
        </linearGradient>
        <linearGradient id="paint2_linear" x1="65.4402" y1="255.443" x2="73.5503" y2="274.519" gradientUnits="userSpaceOnUse">
            <stop stop-color="#6D7585" stop-opacity="0"/>
            <stop offset="1" stop-color="#6D7585"/>
        </linearGradient>
        <linearGradient id="paint3_linear" x1="48.9047" y1="235.026" x2="62.696" y2="278.743" gradientUnits="userSpaceOnUse">
            <stop stop-color="#869FD0"/>
            <stop offset="1" stop-color="#6280BB"/>
        </linearGradient>
        <linearGradient id="paint4_linear" x1="103.243" y1="279.571" x2="95.254" y2="252.93" gradientUnits="userSpaceOnUse">
            <stop stop-color="#A6B4D3"/>
            <stop offset="1" stop-color="#FBFCFD"/>
        </linearGradient>
        <linearGradient id="paint5_linear" x1="152.405" y1="262.347" x2="131.298" y2="258.078" gradientUnits="userSpaceOnUse">
            <stop stop-color="white"/>
            <stop offset="1" stop-color="white" stop-opacity="0"/>
        </linearGradient>
        <linearGradient id="paint6_linear" x1="88.9202" y1="272.248" x2="95.0695" y2="305.035" gradientUnits="userSpaceOnUse">
            <stop stop-color="#FAFAFA"/>
            <stop offset="1" stop-color="#9EAFD0"/>
        </linearGradient>
        <linearGradient id="paint7_linear" x1="90.1835" y1="272.517" x2="99.7224" y2="299.294" gradientUnits="userSpaceOnUse">
            <stop stop-color="#A4B5D5" stop-opacity="0"/>
            <stop offset="1" stop-color="#899DC1"/>
        </linearGradient>
        <linearGradient id="paint8_linear" x1="192.055" y1="188.711" x2="210.925" y2="127.811" gradientUnits="userSpaceOnUse">
            <stop stop-color="#DB87EC"/>
            <stop offset="1" stop-color="#DB87EC" stop-opacity="0"/>
        </linearGradient>
        <linearGradient id="paint9_linear" x1="205.779" y1="118.947" x2="235.8" y2="170.413" gradientUnits="userSpaceOnUse">
            <stop stop-color="#0B7BF1"/>
            <stop offset="1" stop-color="#1381F6" stop-opacity="0"/>
        </linearGradient>
        <linearGradient id="paint10_linear" x1="197.543" y1="127.062" x2="173.934" y2="136.273" gradientUnits="userSpaceOnUse">
            <stop stop-color="#2765E3"/>
            <stop offset="1" stop-color="#2765E3" stop-opacity="0"/>
        </linearGradient>
        <linearGradient id="paint11_linear" x1="223.307" y1="154.174" x2="223.307" y2="222.572" gradientUnits="userSpaceOnUse">
            <stop stop-color="#9FB2D3"/>
            <stop offset="1" stop-color="#9FB2D3" stop-opacity="0"/>
        </linearGradient>
        <linearGradient id="paint12_linear" x1="179.681" y1="254.456" x2="168.981" y2="246.138" gradientUnits="userSpaceOnUse">
            <stop stop-color="#899CBF"/>
            <stop offset="1" stop-color="#BAC7DE" stop-opacity="0"/>
        </linearGradient>
        <linearGradient id="paint13_linear" x1="154.98" y1="257.663" x2="183.733" y2="248.806" gradientUnits="userSpaceOnUse">
            <stop stop-color="#F7F7F8"/>
            <stop offset="1" stop-color="#F7F7F8" stop-opacity="0"/>
        </linearGradient>
        <linearGradient id="paint14_linear" x1="154.98" y1="257.663" x2="183.733" y2="248.806" gradientUnits="userSpaceOnUse">
            <stop stop-color="#F7F7F8"/>
            <stop offset="1" stop-color="#F7F7F8" stop-opacity="0"/>
        </linearGradient>
        <linearGradient id="paint15_linear" x1="154.98" y1="257.663" x2="183.733" y2="248.806" gradientUnits="userSpaceOnUse">
            <stop stop-color="#F7F7F8"/>
            <stop offset="1" stop-color="#F7F7F8" stop-opacity="0"/>
        </linearGradient>
        <linearGradient id="paint16_linear" x1="154.98" y1="257.663" x2="183.733" y2="248.806" gradientUnits="userSpaceOnUse">
            <stop stop-color="#F7F7F8"/>
            <stop offset="1" stop-color="#F7F7F8" stop-opacity="0"/>
        </linearGradient>
        <linearGradient id="paint17_linear" x1="189.641" y1="143.526" x2="177.413" y2="163.791" gradientUnits="userSpaceOnUse">
            <stop stop-color="#BAC7DE" stop-opacity="0"/>
            <stop offset="1" stop-color="#FA8AE2"/>
        </linearGradient>
        <linearGradient id="paint18_linear" x1="212.113" y1="199.893" x2="277.115" y2="318.503" gradientUnits="userSpaceOnUse">
            <stop stop-color="#291E4E"/>
            <stop offset="1" stop-color="#291E4E" stop-opacity="0"/>
        </linearGradient>
        <linearGradient id="paint19_linear" x1="213.813" y1="204.543" x2="213.813" y2="258.638" gradientUnits="userSpaceOnUse">
            <stop stop-color="#4A55AC"/>
            <stop offset="1" stop-color="#4A55AC" stop-opacity="0"/>
        </linearGradient>
        <linearGradient id="paint20_linear" x1="41.1721" y1="215.599" x2="-12.592" y2="203.095" gradientUnits="userSpaceOnUse">
            <stop stop-color="#8379BD"/>
            <stop offset="1" stop-color="#485776"/>
        </linearGradient>
        <linearGradient id="paint21_linear" x1="19.0137" y1="155.612" x2="55.639" y2="205.949" gradientUnits="userSpaceOnUse">
            <stop stop-color="#C8D1E4"/>
            <stop offset="1" stop-color="#8198C7"/>
        </linearGradient>
        <linearGradient id="paint22_linear" x1="19.2016" y1="155.011" x2="33.6263" y2="172.141" gradientUnits="userSpaceOnUse">
            <stop stop-color="white"/>
            <stop offset="1" stop-color="#BCC7DF" stop-opacity="0"/>
        </linearGradient>
        <linearGradient id="paint23_linear" x1="20.6959" y1="138.198" x2="12.4987" y2="210.873" gradientUnits="userSpaceOnUse">
            <stop stop-color="#A9B8D5"/>
            <stop offset="1" stop-color="#6683BD"/>
        </linearGradient>
        <linearGradient id="paint24_linear" x1="20.6962" y1="138.198" x2="12.4991" y2="210.873" gradientUnits="userSpaceOnUse">
            <stop stop-color="#E3C6C6" stop-opacity="0"/>
            <stop offset="1" stop-color="#B97EDE"/>
        </linearGradient>
        <linearGradient id="paint25_linear" x1="29.3443" y1="161.434" x2="53.1977" y2="202.379" gradientUnits="userSpaceOnUse">
            <stop stop-color="#E6ECF9"/>
            <stop offset="1" stop-color="#ADBEE0"/>
        </linearGradient>
        <linearGradient id="paint26_linear" x1="58.8846" y1="156.833" x2="23.0418" y2="204.554" gradientUnits="userSpaceOnUse">
            <stop stop-color="white"/>
            <stop offset="1" stop-color="white" stop-opacity="0"/>
        </linearGradient>
        <linearGradient id="paint27_linear" x1="41.8015" y1="153.953" x2="35.7957" y2="207.2" gradientUnits="userSpaceOnUse">
            <stop stop-color="#A1B2D4"/>
            <stop offset="1" stop-color="#7D7CBE"/>
        </linearGradient>
        <linearGradient id="paint28_linear" x1="33.8604" y1="177.627" x2="51.814" y2="183.936" gradientUnits="userSpaceOnUse">
            <stop stop-color="#939DCB"/>
            <stop offset="1" stop-color="#A1B1D4"/>
        </linearGradient>
        <linearGradient id="paint29_linear" x1="40.2383" y1="173.643" x2="50.0285" y2="189.969" gradientUnits="userSpaceOnUse">
            <stop stop-color="#D5DFF1"/>
            <stop offset="1" stop-color="#F3F7FF"/>
        </linearGradient>
        <linearGradient id="paint30_linear" x1="40.4998" y1="174.344" x2="45.181" y2="181.732" gradientUnits="userSpaceOnUse">
            <stop stop-color="white"/>
            <stop offset="1" stop-color="white" stop-opacity="0"/>
        </linearGradient>
        <linearGradient id="paint31_linear" x1="19.8093" y1="174.004" x2="17.5479" y2="194.052" gradientUnits="userSpaceOnUse">
            <stop stop-color="#E0E7F6"/>
            <stop offset="1" stop-color="#C4D1EA"/>
        </linearGradient>
        <linearGradient id="paint32_linear" x1="73.9944" y1="221.391" x2="68.8652" y2="229.831" gradientUnits="userSpaceOnUse">
            <stop offset="0.0469744" stop-color="#626695"/>
            <stop offset="1" stop-color="#9BADD2"/>
        </linearGradient>
        <linearGradient id="paint33_linear" x1="63.5669" y1="217.18" x2="80.3049" y2="227.353" gradientUnits="userSpaceOnUse">
            <stop offset="0.0469744" stop-color="#41D4FC"/>
            <stop offset="1" stop-color="#7F84CB"/>
        </linearGradient>
        <linearGradient id="paint34_linear" x1="71.0465" y1="223.481" x2="76.4598" y2="215.452" gradientUnits="userSpaceOnUse">
            <stop stop-color="#95A8CF"/>
            <stop offset="1" stop-color="#E6ECF8"/>
        </linearGradient>
        <linearGradient id="paint35_linear" x1="75.9769" y1="215.617" x2="70.1621" y2="225.184" gradientUnits="userSpaceOnUse">
            <stop offset="0.467247" stop-color="#F8FAFD" stop-opacity="0"/>
            <stop offset="1" stop-color="#F8FAFD"/>
        </linearGradient>
        <linearGradient id="paint36_linear" x1="75.165" y1="216.953" x2="72.156" y2="221.904" gradientUnits="userSpaceOnUse">
            <stop stop-color="white"/>
            <stop offset="1" stop-color="#E6ECF9"/>
        </linearGradient>
        <linearGradient id="paint37_linear" x1="113.579" y1="186" x2="113.579" y2="198.288" gradientUnits="userSpaceOnUse">
            <stop offset="0.0469744" stop-color="#626695"/>
            <stop offset="1" stop-color="#9BADD2"/>
        </linearGradient>
        <linearGradient id="paint38_linear" x1="99.7695" y1="188.26" x2="124.142" y2="188.26" gradientUnits="userSpaceOnUse">
            <stop offset="0.0469744" stop-color="#41D4FC"/>
            <stop offset="1" stop-color="#7F84CB"/>
        </linearGradient>
        <linearGradient id="paint39_linear" x1="111.795" y1="190.127" x2="112.363" y2="178.091" gradientUnits="userSpaceOnUse">
            <stop stop-color="#95A8CF"/>
            <stop offset="1" stop-color="#E6ECF8"/>
        </linearGradient>
        <linearGradient id="paint40_linear" x1="111.955" y1="178.578" x2="111.955" y2="192.509" gradientUnits="userSpaceOnUse">
            <stop offset="0.467247" stop-color="#F8FAFD" stop-opacity="0"/>
            <stop offset="1" stop-color="#F8FAFD"/>
        </linearGradient>
        <linearGradient id="paint41_linear" x1="111.955" y1="180.524" x2="111.955" y2="187.733" gradientUnits="userSpaceOnUse">
            <stop stop-color="white"/>
            <stop offset="1" stop-color="#E6ECF9"/>
        </linearGradient>
        <linearGradient id="paint42_linear" x1="83.9353" y1="149.535" x2="86.8214" y2="154.96" gradientUnits="userSpaceOnUse">
            <stop offset="0.0469744" stop-color="#626695"/>
            <stop offset="1" stop-color="#9BADD2"/>
        </linearGradient>
        <linearGradient id="paint43_linear" x1="78.3701" y1="153.777" x2="89.1291" y2="148.052" gradientUnits="userSpaceOnUse">
            <stop offset="0.0469744" stop-color="#41D4FC"/>
            <stop offset="1" stop-color="#7F84CB"/>
        </linearGradient>
        <linearGradient id="paint44_linear" x1="84.1164" y1="151.776" x2="81.5404" y2="146.33" gradientUnits="userSpaceOnUse">
            <stop stop-color="#95A8CF"/>
            <stop offset="1" stop-color="#E6ECF8"/>
        </linearGradient>
        <linearGradient id="paint45_linear" x1="81.4749" y1="146.64" x2="84.7468" y2="152.79" gradientUnits="userSpaceOnUse">
            <stop offset="0.467247" stop-color="#F8FAFD" stop-opacity="0"/>
            <stop offset="1" stop-color="#F8FAFD"/>
        </linearGradient>
        <linearGradient id="paint46_linear" x1="81.9317" y1="147.499" x2="83.6248" y2="150.682" gradientUnits="userSpaceOnUse">
            <stop stop-color="white"/>
            <stop offset="1" stop-color="#E6ECF9"/>
        </linearGradient>
    </defs>
</svg>
