<svg width="670" height="720" viewBox="0 0 670 720" fill="none" xmlns="http://www.w3.org/2000/svg">
<path d="M87 514C87 530.569 100.431 544 117 544L670 544L670 301L117 301C100.431 301 87 314.431 87 331L87 514Z" fill="url(#paint0_linear)"/>
<mask id="mask0" mask-type="alpha" maskUnits="userSpaceOnUse" x="87" y="301" width="583" height="244">
<path d="M87 515C87 531.569 100.431 545 117 545L640 545C656.569 545 670 531.569 670 515L670 331C670 314.431 656.569 301 640 301L117 301C100.431 301 87 314.431 87 331L87 515Z" fill="#4BE0D7"/>
</mask>
<g mask="url(#mask0)">
<g style="mix-blend-mode:multiply" opacity="0.3" filter="url(#filter0_f)">
<path d="M581.367 458.645C610.98 459.625 623.238 504.228 647.31 570.531C648.437 573.635 646.226 576.957 643.016 576.968L405.781 577.767C404.047 577.773 402.459 576.775 401.675 575.177C389.359 550.088 367.931 505.247 364.124 495.15C359.195 482.079 369.641 459.458 389.767 455.663C409.892 451.868 416.575 441.304 414.244 428.741C411.913 416.177 400.257 380.28 383.356 332.417C369.915 294.352 386.27 271.392 421.82 267.205C457.047 263.055 488.258 286.948 498.165 319.255C508.189 351.943 523.95 402.946 530.11 418.125C536.271 433.304 543.17 457.38 581.367 458.645Z" fill="#1849A2" fill-opacity="0.5"/>
</g>
<g style="mix-blend-mode:multiply" opacity="0.3" filter="url(#filter1_f)">
<path d="M213.529 490.509C201.416 486.825 201.337 466.881 198.805 436.588C198.686 435.169 199.97 434.029 201.296 434.38L299.304 460.284C300.021 460.474 300.565 461.065 300.71 461.818C302.992 473.636 306.829 494.693 307.273 499.322C307.848 505.314 301.01 513.586 292.28 512.942C283.549 512.298 279.611 515.961 279.17 521.455C278.729 526.949 279.532 543.198 281.163 565.014C282.46 582.364 273.146 590.124 258.005 587.937C243.001 585.771 232.787 572.361 232.305 557.802C231.818 543.07 231.008 520.072 230.161 513.064C229.313 506.057 229.154 495.261 213.529 490.509Z" fill="#1849A2" fill-opacity="0.5"/>
</g>
<g opacity="0.2">
<path d="M410.447 295.493V354.858C410.447 355.963 411.343 356.858 412.447 356.858H458.946C460.051 356.858 460.946 357.754 460.946 358.858V405.996C460.946 407.101 461.841 407.996 462.946 407.996H506.249C507.353 407.996 508.249 408.892 508.249 409.996V459.052C508.249 460.157 509.144 461.052 510.249 461.052H558.747" stroke="#4ADAD1" stroke-width="20"/>
<path d="M466.699 227.734V287.1C466.699 288.205 467.595 289.1 468.699 289.1H515.198C516.303 289.1 517.198 289.995 517.198 291.1V338.238C517.198 339.343 518.093 340.238 519.198 340.238H562.501C563.605 340.238 564.501 341.133 564.501 342.238V391.294C564.501 392.398 565.396 393.294 566.501 393.294H614.999" stroke="#4ADAD1" stroke-width="20"/>
<path d="M290.273 295.493V354.858C290.273 355.963 291.168 356.858 292.273 356.858H338.772C339.876 356.858 340.772 357.754 340.772 358.858V405.996C340.772 407.101 341.667 407.996 342.772 407.996H386.074C387.179 407.996 388.074 408.892 388.074 409.996V459.052C388.074 460.157 388.97 461.052 390.074 461.052H436.573C437.678 461.052 438.573 461.947 438.573 463.052V503.798C438.573 504.902 439.469 505.798 440.573 505.798H474.927C476.031 505.798 476.927 506.693 476.927 507.798V560.132" stroke="#4ADAD1" stroke-width="20"/>
<path d="M167.542 295.493V354.858C167.542 355.963 168.437 356.858 169.542 356.858H216.041C217.145 356.858 218.041 357.754 218.041 358.858V405.996C218.041 407.101 218.936 407.996 220.041 407.996H263.343C264.448 407.996 265.343 408.892 265.343 409.996V459.052C265.343 460.157 266.239 461.052 267.343 461.052H313.842C314.947 461.052 315.842 461.947 315.842 463.052V507.633C315.842 508.738 316.738 509.633 317.842 509.633H366.259C367.363 509.633 368.259 510.529 368.259 511.633V553.74" stroke="#4ADAD1" stroke-width="20"/>
<path d="M55.0386 305.72V365.085C55.0386 366.19 55.934 367.085 57.0386 367.085H103.537C104.642 367.085 105.537 367.981 105.537 369.085V416.223C105.537 417.328 106.433 418.223 107.537 418.223H150.84C151.945 418.223 152.84 419.119 152.84 420.223V469.279C152.84 470.384 153.735 471.279 154.84 471.279H201.339C202.443 471.279 203.339 472.174 203.339 473.279V517.86C203.339 518.965 204.234 519.86 205.339 519.86H253.755C254.86 519.86 255.755 520.756 255.755 521.86V563.967" stroke="#4ADAD1" stroke-width="20"/>
</g>
</g>
<path d="M100.701 232.874H299.865C307.4 232.874 313.565 226.717 313.565 219.192V133.682C313.565 126.157 307.4 120 299.865 120H100.701C93.1655 120 87.0005 126.157 87.0005 133.682V219.107C87.0005 226.717 93.1655 232.874 100.701 232.874Z" fill="url(#paint1_linear)"/>
<path fill-rule="evenodd" clip-rule="evenodd" d="M299.865 230.528H100.701C94.4677 230.528 89.3464 225.428 89.3464 219.107V133.682C89.3464 127.455 94.4582 122.346 100.701 122.346H299.865C306.108 122.346 311.219 127.455 311.219 133.682V219.192C311.219 225.419 306.108 230.528 299.865 230.528ZM299.865 232.874H100.701C93.1655 232.874 87.0005 226.717 87.0005 219.107V133.682C87.0005 126.157 93.1655 120 100.701 120H299.865C307.4 120 313.565 126.157 313.565 133.682V219.192C313.565 226.717 307.4 232.874 299.865 232.874Z" fill="url(#paint2_linear)"/>
<g filter="url(#filter2_d)">
<path d="M126.388 192.684H155.757C157.127 192.684 158.155 191.572 158.155 190.289V160.874C158.155 159.506 157.042 158.479 155.757 158.479H126.388C125.018 158.479 123.99 159.591 123.99 160.874V190.204C123.99 191.572 125.018 192.684 126.388 192.684Z" fill="#4CB9E2"/>
</g>
<g filter="url(#filter3_d)">
<path d="M243.09 195.249H275.863C278.068 195.249 279.572 192.841 278.569 190.835L262.133 158.026C261.03 155.819 257.823 155.819 256.72 158.026L240.284 190.835C239.382 192.841 240.785 195.249 243.09 195.249Z" fill="#FF7A59"/>
</g>
<g filter="url(#filter4_d)">
<path d="M200.501 196.504C189.765 196.504 181.062 187.52 181.062 176.437C181.062 165.355 189.765 156.371 200.501 156.371C211.238 156.371 219.941 165.355 219.941 176.437C219.941 187.52 211.238 196.504 200.501 196.504Z" fill="#59E2D4"/>
</g>
<mask id="mask1" mask-type="alpha" maskUnits="userSpaceOnUse" x="87" y="244" width="511" height="300">
<path d="M87 514C87 530.569 100.431 544 117 544L598 544L598 274C598 257.431 584.569 244 568 244L117 244C100.431 244 87 257.431 87 274L87 514Z" fill="white"/>
</mask>
<g mask="url(#mask1)">
<path d="M592.768 547.068C596.314 546.271 598.478 543.051 598.444 539.417C598.283 522.245 597.567 481.989 596.023 466.836C594.246 449.394 575.353 431.561 558.689 427.48C542.024 423.399 535.392 421.529 529.1 417.788C522.808 414.047 516.437 405.252 516.437 396.532C516.437 396.532 516.183 380.866 515.837 371.705L402.848 376.542C402.848 376.542 403.431 400.941 402.277 408.432C401.123 415.922 396.913 425.176 383.355 427.48C369.797 429.785 346.431 433.933 342.104 466.083C338.896 489.991 338.664 524.088 338.663 539.227C338.663 542.801 340.84 545.934 344.351 546.605C382.103 553.826 549.381 556.807 592.768 547.068Z" fill="url(#paint3_linear)"/>
<path fill-rule="evenodd" clip-rule="evenodd" d="M592.092 467.236C593.613 482.167 594.331 522.213 594.492 539.454C594.512 541.543 593.339 542.889 591.902 543.212C581.436 545.561 563.165 547.194 540.785 548.172C518.499 549.145 492.413 549.46 466.479 549.245C414.451 548.814 363.557 546.255 345.093 542.724C343.761 542.469 342.615 541.246 342.615 539.228C342.615 524.051 342.853 490.216 346.021 466.61C348.042 451.589 354.385 443.559 361.449 438.885C368.743 434.059 377.183 432.538 384.018 431.376C391.663 430.076 396.985 426.735 400.528 422.401C404.007 418.144 405.539 413.215 406.183 409.033C406.816 404.925 406.948 396.615 406.947 389.677C406.946 386.134 406.909 382.829 406.873 380.411C406.872 380.383 406.872 380.354 406.871 380.325L512.021 375.823C512.137 379.642 512.238 383.939 512.316 387.637C512.369 390.163 512.412 392.403 512.441 394.012C512.456 394.817 512.467 395.463 512.474 395.908L512.485 396.565C512.494 401.849 514.41 406.94 517.071 411.141C519.736 415.349 523.33 418.954 527.081 421.184C533.975 425.284 541.223 427.272 557.749 431.319C565.221 433.149 573.489 438.173 580.121 444.918C586.773 451.684 591.325 459.712 592.092 467.236ZM515.969 375.654C515.927 374.257 515.883 372.923 515.837 371.705L402.848 376.542C402.848 376.542 403.431 400.941 402.277 408.432C401.123 415.922 396.913 425.176 383.355 427.48C369.797 429.785 346.431 433.933 342.104 466.083C338.896 489.991 338.664 524.088 338.663 539.227C338.663 542.801 340.84 545.934 344.351 546.605C382.103 553.826 549.381 556.807 592.768 547.068C596.314 546.271 598.478 543.051 598.444 539.417C598.283 522.245 597.567 481.989 596.023 466.836C594.246 449.394 575.353 431.561 558.689 427.48C542.024 423.399 535.392 421.529 529.1 417.788C522.808 414.047 516.437 405.252 516.437 396.532C516.437 396.532 516.246 384.757 515.969 375.654Z" fill="url(#paint4_linear)"/>
<path opacity="0.5" d="M591.412 543.359C593.259 543.023 594.504 541.431 594.487 539.554C594.374 527.618 593.883 485.685 592.428 472.589C590.725 457.261 559.088 456.31 512.557 501.802C466.025 547.294 462.905 534.556 469.404 512.98C475.903 491.404 481.362 470.867 464.985 479.705C448.608 488.544 434.051 497.642 410.135 511.68C386.219 525.718 382.32 513.5 390.378 497.382C398.437 481.265 381.02 481.525 363.863 504.141C346.706 526.757 342.772 541.311 342.772 541.311C391.104 552.085 543.6 552.064 591.412 543.359Z" fill="url(#paint5_linear)"/>
<path fill-rule="evenodd" clip-rule="evenodd" d="M397.866 419.396C403.889 430.333 422.003 432.621 431.666 428.531C440.642 424.733 446.078 418.651 450.645 413.542C452.29 411.7 453.823 409.986 455.368 408.549C461.2 403.128 470.248 402.916 474.712 410.781C479.176 418.647 484.399 427.537 500.646 425.555C511.318 424.493 516.589 415.245 516.589 402.916C516.589 401.76 516.611 400.57 516.651 399.346C516.511 398.411 516.437 397.471 516.437 396.532C516.437 396.532 516.183 380.866 515.837 371.705L402.848 376.542C402.848 376.542 403.431 400.941 402.277 408.432C401.727 412 400.484 415.969 397.866 419.396Z" fill="#CBCDE9"/>
<path d="M517.027 352.149C516.854 331.407 519.98 292.01 503.999 272.824C484.383 249.259 457.756 242.902 432.947 246.244C403.754 250.219 370.243 278.03 367.935 313.753C365.974 344.52 375.741 364.743 402.107 379.147C402.33 388.352 402.795 397.184 402.107 405.642C400.006 425.536 424.172 429.07 435.588 423.873C447.004 418.677 451.775 409.39 457.227 403.938C462.679 398.486 472.647 397.634 476.055 403.938C479.463 410.242 486.363 425.1 501.552 423.107C511.53 422.039 517.63 414.711 517.63 402.313C517.63 389.915 517.2 370.874 517.027 352.149Z" fill="url(#paint6_linear)"/>
<path fill-rule="evenodd" clip-rule="evenodd" d="M513.866 352.175L513.866 352.178C513.941 360.34 514.065 368.526 514.18 376.19C514.331 386.188 514.468 395.298 514.469 402.313C514.469 408.015 513.067 412.191 510.85 415.001C508.67 417.766 505.47 419.508 501.216 419.963C501.191 419.966 501.166 419.969 501.141 419.972C494.828 420.801 490.25 418.208 486.675 414.454C483.412 411.027 481.189 406.85 479.48 403.639C479.257 403.22 479.043 402.817 478.836 402.435C476.4 397.928 471.719 396.239 467.314 396.369C462.929 396.499 458.302 398.392 454.992 401.703C453.496 403.199 452.079 404.924 450.695 406.632C450.553 406.807 450.411 406.982 450.27 407.158C448.998 408.729 447.72 410.309 446.299 411.882C443.173 415.34 439.463 418.636 434.278 420.996C429.377 423.227 421.357 423.649 414.895 421.209C411.726 420.013 409.128 418.201 407.43 415.793C405.766 413.432 404.798 410.262 405.25 405.974C405.252 405.959 405.254 405.944 405.255 405.928C405.256 405.918 405.257 405.908 405.258 405.898C405.837 398.78 405.62 391.389 405.402 383.953C405.355 382.327 405.307 380.698 405.267 379.07C405.24 377.942 404.613 376.913 403.623 376.372C390.856 369.398 382.349 361.155 377.211 351.142C372.059 341.104 370.133 328.975 371.09 313.956C372.183 297.044 380.676 281.86 392.557 270.365C404.456 258.853 419.53 251.262 433.372 249.376C457.33 246.15 482.786 252.282 501.569 274.847L501.57 274.848C508.897 283.644 512.062 297.433 513.291 312.166C514.168 322.691 514.038 333.216 513.926 342.247C513.882 345.821 513.841 349.162 513.866 352.175ZM432.947 246.244C403.754 250.219 370.243 278.03 367.935 313.753C365.974 344.52 375.741 364.743 402.107 379.147C402.147 380.814 402.196 382.468 402.244 384.11C402.461 391.538 402.67 398.715 402.107 405.642C400.006 425.536 424.172 429.07 435.588 423.873C443.86 420.108 448.643 414.195 452.725 409.149C454.276 407.232 455.726 405.439 457.227 403.938C462.679 398.486 472.647 397.634 476.055 403.938C476.251 404.3 476.458 404.69 476.677 405.103C480.282 411.892 487.234 424.985 501.552 423.107C511.53 422.039 517.63 414.711 517.63 402.313C517.63 395.286 517.492 386.126 517.341 376.098C517.225 368.433 517.102 360.261 517.027 352.149C517.003 349.246 517.043 345.977 517.087 342.45C517.355 320.775 517.744 289.325 503.999 272.824C484.383 249.259 457.756 242.902 432.947 246.244Z" fill="url(#paint7_linear)"/>
<path fill-rule="evenodd" clip-rule="evenodd" d="M464.099 257.061C463.016 261.064 465.384 265.186 469.387 266.269C473.521 267.387 478.54 270.573 483.472 275.021C488.306 279.382 492.373 284.336 494.699 288.058C496.897 291.574 501.529 292.643 505.046 290.446C508.562 288.248 509.631 283.616 507.433 280.099C504.296 275.08 499.295 269.071 493.53 263.871C487.864 258.759 480.755 253.787 473.307 251.773C469.304 250.69 465.182 253.058 464.099 257.061Z" fill="#3FA3FF"/>
<path d="M460.61 376.398C451.898 382.102 433.633 389.342 402.074 379.144L402.542 401.725C402.542 401.725 438.052 407.396 461.995 377.896C462.745 377.032 461.591 375.764 460.61 376.398Z" fill="#0472E7"/>
<path d="M483.875 326.181C478.798 350.726 458.126 365.984 423.971 362.412C383.936 357.504 377.234 327.93 380.294 309.719C383.178 292.261 402.292 270.238 429.389 270.238C456.487 270.238 491.451 290.343 483.875 326.181Z" fill="url(#paint8_radial)"/>
<path fill-rule="evenodd" clip-rule="evenodd" d="M423.971 362.411C458.126 365.984 478.799 350.726 483.876 326.181C491.451 290.343 456.487 270.238 429.39 270.238C402.292 270.238 383.179 292.261 380.294 309.719C377.235 327.929 383.936 357.503 423.971 362.411ZM377.176 309.2C378.753 299.659 384.674 289.173 393.645 281.084C402.664 272.952 414.948 267.077 429.39 267.077C443.62 267.077 459.88 272.327 471.683 282.362C483.613 292.504 491.029 307.615 486.97 326.828C484.276 339.842 477.392 350.563 466.53 357.504C455.705 364.421 441.233 367.395 423.643 365.556L423.615 365.553L423.587 365.549C402.75 362.995 390.145 353.921 383.276 342.704C376.492 331.626 375.552 318.868 377.176 309.2Z" fill="url(#paint9_linear)"/>
<path opacity="0.35" d="M477.781 327.473C478.989 326.8 480.441 327.848 480.062 329.178C474.077 350.228 454.973 362.988 424.446 359.795C393.53 356.005 377.954 330.519 383.445 309.003C385.105 302.5 393.297 303.508 396.717 309.283C415.646 341.244 449.192 343.394 477.781 327.473Z" fill="url(#paint10_linear)"/>
<path opacity="0.35" d="M476.951 314.553C469.936 319.873 456.895 317.56 440.622 305.591C421.679 291.358 423.778 280.835 428.631 276.661C433.261 272.643 446.77 272.54 460.199 281.234C473.629 289.927 487.274 306.837 476.951 314.553Z" fill="#3873D8"/>
<path d="M410.088 322.515C410.585 322.064 411.554 322.005 411.831 322.65C412.967 324.843 416.009 331.911 415.252 333.176C414.495 334.441 412.175 336.012 409.813 336.256C407.45 336.499 405.445 335.154 405.302 332.598C405.159 330.042 409.153 323.517 410.088 322.515Z" fill="#183C83"/>
<path d="M410.22 321.917C410.698 321.189 411.618 321.19 412.014 321.724C413.56 323.503 416.489 329.601 416.274 330.928C416.06 332.254 415.4 333.663 412.968 334.502C410.536 335.342 407.555 334.279 406.811 331.456C406.067 328.632 409.442 323.011 410.22 321.917Z" fill="url(#paint11_linear)"/>
<path d="M440.642 313.828C441.637 317.018 439.82 320.421 436.584 321.43C433.349 322.438 429.92 320.671 428.926 317.482C427.931 314.292 429.748 310.889 432.983 309.88C436.219 308.871 439.648 310.639 440.642 313.828Z" fill="#183C83"/>
<path d="M429.438 314.304C428.912 317.476 431.06 320.475 434.237 321.001C437.413 321.528 440.415 319.384 440.941 316.212C441.467 313.039 439.318 310.041 436.142 309.514C432.965 308.987 429.964 311.132 429.438 314.304Z" fill="#DFE1FF"/>
<path d="M435.518 311.322C434.722 312.05 434.961 313.606 436.051 314.798C437.141 315.989 438.669 316.365 439.465 315.637C440.261 314.909 440.023 313.353 438.933 312.161C437.843 310.97 436.314 310.594 435.518 311.322Z" fill="#C7CAFF"/>
<path d="M437.232 312.228C436.942 312.493 437.055 313.087 437.483 313.555C437.911 314.023 438.492 314.187 438.782 313.923C439.071 313.658 438.959 313.064 438.531 312.596C438.103 312.128 437.521 311.963 437.232 312.228Z" fill="white"/>
<path d="M438.605 317.246C438.912 317.288 439.13 317.62 438.953 317.874C437.974 319.278 436.242 320.074 434.439 319.775C431.941 319.36 430.251 317.002 430.665 314.508C430.923 312.953 431.937 311.712 433.269 311.098C433.57 310.959 433.874 311.286 433.846 311.616C433.751 312.75 434.301 314.183 435.404 315.389C436.375 316.451 437.559 317.101 438.605 317.246Z" fill="#D2D5F9"/>
<path d="M393.347 315.024C394.173 318.237 393.064 321.542 390.87 322.405C388.676 323.268 386.228 321.363 385.402 318.15C384.575 314.936 385.684 311.632 387.879 310.769C390.073 309.906 392.521 311.811 393.347 315.024Z" fill="#183C83"/>
<path d="M385.624 315.007C385.4 318.137 387.018 321.213 389.239 321.876C391.46 322.54 393.442 320.541 393.666 317.411C393.891 314.281 392.272 311.206 390.052 310.542C387.831 309.878 385.848 311.878 385.624 315.007Z" fill="#DFE1FF"/>
<path d="M389.699 312.316C389.18 313.004 389.413 314.561 390.219 315.793C391.025 317.025 392.099 317.465 392.618 316.776C393.137 316.087 392.905 314.53 392.098 313.299C391.292 312.067 390.218 311.627 389.699 312.316Z" fill="#C7CAFF"/>
<path d="M390.923 313.291C390.735 313.541 390.838 314.136 391.155 314.62C391.472 315.104 391.881 315.293 392.07 315.042C392.259 314.792 392.155 314.197 391.838 313.713C391.522 313.229 391.112 313.04 390.923 313.291Z" fill="white"/>
<path d="M391.942 318.292C392.229 318.391 392.482 318.71 392.365 318.967C391.75 320.326 390.584 321.045 389.32 320.669C387.573 320.148 386.301 317.731 386.478 315.269C386.582 313.827 387.16 312.69 387.973 312.101C388.224 311.918 388.558 312.211 388.553 312.537C388.537 313.66 388.981 315.106 389.796 316.352C390.466 317.375 391.248 318.051 391.942 318.292Z" fill="#D2D5F9"/>
<path d="M293.531 412.519C282.697 412.519 273.915 403.748 273.915 392.929C273.915 382.11 282.697 373.339 293.531 373.339C304.364 373.339 313.146 382.11 313.146 392.929C313.146 403.748 304.364 412.519 293.531 412.519Z" fill="url(#paint12_radial)"/>
<g opacity="0.53" filter="url(#filter5_f)">
<path d="M306.24 389.889C303.916 391.649 300.279 390.762 298.116 387.908C295.953 385.053 296.083 381.312 298.407 379.551C300.73 377.79 304.367 378.677 306.53 381.532C308.694 384.386 308.563 388.128 306.24 389.889Z" fill="white"/>
</g>
<path d="M285.235 281.74C284.265 280.803 282.995 280.253 281.647 280.193C276.524 279.967 263.481 279.395 260.143 279.278C259.558 279.258 258.874 279.762 258.632 280.406L274.383 295.614C274.625 294.969 275.31 294.466 275.894 294.486L298.997 295.292C299.199 295.292 299.38 295.372 299.481 295.493L285.235 281.74Z" fill="#D7DFF2"/>
<path d="M298.997 295.291L275.893 294.485C275.309 294.465 274.624 294.969 274.383 295.613L264.735 320.953C264.493 321.597 264.775 322.141 265.359 322.161L288.462 322.967C289.046 322.987 289.731 322.483 289.973 321.839L299.621 296.5C299.863 295.855 299.581 295.311 298.997 295.291Z" fill="url(#paint13_linear)"/>
<path fill-rule="evenodd" clip-rule="evenodd" d="M298.917 296.079L275.866 295.275C275.866 295.275 275.866 295.275 275.866 295.275C275.801 295.273 275.655 295.305 275.481 295.435C275.313 295.56 275.184 295.728 275.123 295.891L275.121 295.895L275.121 295.895L265.475 321.23C265.474 321.231 265.474 321.231 265.474 321.232C265.451 321.294 265.442 321.34 265.439 321.373L288.49 322.177C288.49 322.177 288.49 322.177 288.49 322.177L288.462 322.967M265.359 322.161C264.775 322.141 264.493 321.597 264.735 320.953L274.383 295.613C274.624 294.969 275.309 294.465 275.893 294.485L298.997 295.291C299.581 295.311 299.863 295.855 299.621 296.5L289.973 321.839M298.881 296.222L289.234 321.558L289.233 321.561C289.172 321.724 289.043 321.893 288.875 322.018C288.701 322.147 288.555 322.179 288.49 322.177M298.917 296.079C298.914 296.112 298.905 296.159 298.882 296.221L298.917 296.079ZM298.882 296.221C298.882 296.221 298.881 296.222 298.881 296.222L298.882 296.221Z" fill="url(#paint14_linear)"/>
<path d="M273.758 292.431L260.847 279.943C260.162 279.278 259.014 279.5 258.651 280.386V280.406L249.003 305.746C248.842 306.169 248.902 306.531 249.124 306.753L264.875 321.96C264.654 321.739 264.593 321.376 264.755 320.953L274.403 295.614V295.594C274.826 294.506 274.604 293.257 273.758 292.431Z" fill="url(#paint15_linear)"/>
<path fill-rule="evenodd" clip-rule="evenodd" d="M260.847 279.943C260.162 279.278 259.014 279.5 258.651 280.386V280.406L249.003 305.746C248.842 306.169 248.902 306.531 249.124 306.753L264.875 321.96C264.654 321.739 264.593 321.376 264.755 320.953L274.403 295.614V295.594C274.826 294.506 274.604 293.257 273.758 292.431L260.847 279.943ZM273.207 292.998C273.207 292.998 273.207 292.997 273.206 292.997L260.296 280.51C260.02 280.242 259.591 280.321 259.417 280.616L249.742 306.027C249.704 306.127 249.701 306.188 249.703 306.213L264.194 320.204L273.612 295.469V295.446L273.666 295.307C273.983 294.492 273.808 293.586 273.207 292.998Z" fill="url(#paint16_linear)"/>
<path d="M229.402 335.749C228.955 335.09 228.501 334.926 228.014 334.869L219.056 382.127C220.107 382.362 221.707 382.418 223.023 381.827L248.991 370.201C250.508 369.519 251.043 367.632 250.108 366.255L229.402 335.749Z" fill="url(#paint17_linear)"/>
<path d="M228.017 334.864C227.236 334.8 226.88 335.109 226.242 335.668L201.307 357.527C200.237 358.466 200.088 360.077 200.968 361.196L216.319 380.707C216.863 381.36 218.079 381.942 219.057 382.13L228.017 334.864Z" fill="url(#paint18_linear)"/>
<path fill-rule="evenodd" clip-rule="evenodd" d="M225.999 335.356C225.994 335.361 225.988 335.366 225.982 335.371L201.047 357.23C199.819 358.307 199.648 360.156 200.658 361.44L216.009 380.951L216.016 380.96C216.336 381.344 216.829 381.683 217.347 381.946C217.87 382.211 218.454 382.417 218.983 382.518C219.086 382.538 219.193 382.516 219.28 382.457C219.366 382.398 219.426 382.307 219.446 382.204L228.406 334.937C228.427 334.827 228.4 334.713 228.332 334.624C228.264 334.535 228.161 334.479 228.049 334.47C227.592 334.433 227.233 334.505 226.893 334.682C226.582 334.845 226.301 335.091 225.999 335.356ZM227.536 335.28L218.746 381.65C218.402 381.552 218.041 381.411 217.704 381.241C217.237 381.003 216.851 380.726 216.626 380.458L201.279 360.951C200.529 359.998 200.656 358.624 201.568 357.825L226.503 335.965C226.832 335.677 227.043 335.496 227.259 335.383C227.345 335.338 227.435 335.303 227.536 335.28Z" fill="url(#paint19_radial)"/>
<path d="M229.49 450.968C232.779 453.561 235.952 455.462 243.106 458.746C243.51 458.919 244.029 458.689 244.087 458.17C244.087 457.882 243.972 457.594 243.683 457.479C238.606 455.174 230.933 451.199 227.413 446.935C222.279 440.713 226.721 435.815 230.471 440.194C233.76 444.054 237.568 447.396 245.356 450.738C245.645 450.853 246.049 450.738 246.164 450.392C246.337 450.104 246.164 449.701 245.875 449.585C240.683 447.281 234.51 443.593 231.625 438.523C228.567 433.222 233.414 429.189 237.221 434.432C239.991 438.235 242.702 441.058 250.029 443.997C250.318 444.112 250.606 444.054 250.837 443.824C251.241 443.478 251.126 442.787 250.606 442.556C247.145 441.001 243.683 438.984 241.491 436.449C235.606 429.65 240.741 426.078 245.125 430.86C250.145 436.334 259.78 439.387 267.28 440.943C268.895 441.289 269.991 440.828 268.722 439.56C266.703 437.544 264.857 435.181 264.222 432.416C263.645 429.996 265.261 428.267 267.453 429.65C272.241 432.704 282.28 438.523 289.953 443.766C299.761 450.507 298.434 464.508 298.434 464.508C298.434 464.508 298.434 539.416 298.434 544.182C298.434 548.947 258.741 548.636 258.741 544.182C258.741 539.727 259.433 485.941 259.664 480.641C259.837 476.204 254.183 472.862 248.645 469.751C248.645 469.751 233.125 463.125 227.01 457.018C221.24 451.429 224.933 447.338 229.49 450.968Z" fill="url(#paint20_linear)"/>
<path d="M279.154 444.373C284.551 441.731 292.672 447.589 292.323 454.442C291.974 461.295 280.724 469.503 267.033 470.18C258.238 470.615 246.801 467.218 244.708 463.157C242.781 459.419 252.818 464.003 265.986 459.942C275.367 457.048 269.997 448.858 279.154 444.373Z" fill="url(#paint21_linear)"/>
<path d="M231.706 453.682C229.64 452.093 228.049 450.71 226.982 450.558C225.915 450.405 225.083 451.688 226.258 452.768C228.62 454.939 232.735 457.187 236.012 458.559C239.288 459.931 243.749 459.877 241.422 458.902C238.602 457.721 234.183 455.587 231.706 453.682Z" fill="url(#paint22_linear)"/>
<path d="M232.349 443.291C230.722 441.598 229.065 439.617 228.125 439.318C227.185 439.019 226.326 439.871 227.134 441.052C229.154 444.005 231.84 445.681 234.85 447.377C237.666 448.963 242.348 449.991 240.298 448.958C237.708 447.653 234.299 445.32 232.349 443.291Z" fill="url(#paint23_linear)"/>
<path d="M238.945 437.642C237.894 436.647 236.945 435.317 235.878 433.869C234.811 432.422 231.973 432.25 233.242 434.274C234.618 436.47 238.031 438.766 239.536 439.451C240.792 440.024 242.529 440.703 240.774 439.223C240.165 438.708 239.65 438.308 238.945 437.642Z" fill="url(#paint24_linear)"/>
<path d="M281.912 439.452C276.906 436.291 270.52 432.034 268.081 430.549C265.643 429.063 265.183 430.692 266.431 432.366C267.34 433.586 270.814 435.099 272.417 437.108C273.146 438.022 272.502 441.156 274.265 440.499C278.229 439.021 282.732 439.97 281.912 439.452Z" fill="url(#paint25_linear)"/>
<path d="M268.996 440.097C269.289 440.683 268.817 440.999 268.301 441.064C273.23 441.774 278.095 442.731 275.554 441.599C272.701 440.328 270.971 439.07 269.655 437.898C267.31 435.81 264.819 433.172 264.16 431.011C264.086 431.89 264.215 433.479 265.222 435.279C266.431 437.441 268.629 439.364 268.996 440.097Z" fill="#D6D9EF"/>
<path d="M251.977 443.657C251.275 444.359 250.764 444.303 250.08 444.032C250.918 444.174 251.628 443.064 250.338 442.406C248.384 441.409 245.653 440.496 242.285 437.283C244.66 439.154 248.583 440.677 250.415 441.477C252.216 442.263 252.854 442.78 251.977 443.657Z" fill="#D6D9EF"/>
<path d="M247.099 450.407C246.789 450.8 246.066 451.026 245.383 450.755C246.221 450.897 246.563 449.871 245.776 449.536C243.931 448.749 240.824 447.401 236.555 444.048C239.555 446.283 243.782 447.891 245.615 448.691C247.416 449.477 247.409 450.013 247.099 450.407Z" fill="#D6D9EF"/>
<path d="M244.814 458.427C244.504 458.82 243.841 458.986 243.267 458.794C244.106 458.936 244.369 457.744 243.582 457.408C241.736 456.621 238.508 455.103 234.904 452.888C238.367 454.639 241.668 455.904 243.5 456.705C245.302 457.491 245.124 458.033 244.814 458.427Z" fill="#D6D9EF"/>
<path d="M245.48 432.06C244.375 430.912 243.594 430.04 242.298 429.602C241.003 429.164 240.214 429.597 240.698 430.364C241.156 431.088 242.976 432.103 244.794 432.536C245.594 432.727 245.975 432.574 245.48 432.06Z" fill="#F3F7FF"/>
</g>
<defs>
<filter id="filter0_f" x="336.915" y="240.736" width="336.694" height="363.031" filterUnits="userSpaceOnUse" color-interpolation-filters="sRGB">
<feFlood flood-opacity="0" result="BackgroundImageFix"/>
<feBlend mode="normal" in="SourceGraphic" in2="BackgroundImageFix" result="shape"/>
<feGaussianBlur stdDeviation="13" result="effect1_foregroundBlur"/>
</filter>
<filter id="filter1_f" x="138.758" y="407.539" width="204.24" height="213.108" filterUnits="userSpaceOnUse" color-interpolation-filters="sRGB">
<feFlood flood-opacity="0" result="BackgroundImageFix"/>
<feBlend mode="normal" in="SourceGraphic" in2="BackgroundImageFix" result="shape"/>
<feGaussianBlur stdDeviation="13" result="effect1_foregroundBlur"/>
</filter>
<filter id="filter2_d" x="115.99" y="154.479" width="50.1645" height="50.2043" filterUnits="userSpaceOnUse" color-interpolation-filters="sRGB">
<feFlood flood-opacity="0" result="BackgroundImageFix"/>
<feColorMatrix in="SourceAlpha" type="matrix" values="0 0 0 0 0 0 0 0 0 0 0 0 0 0 0 0 0 0 127 0"/>
<feOffset dy="4"/>
<feGaussianBlur stdDeviation="4"/>
<feColorMatrix type="matrix" values="0 0 0 0 0.253453 0 0 0 0 0.447661 0 0 0 0 0.970833 0 0 0 0.08 0"/>
<feBlend mode="normal" in2="BackgroundImageFix" result="effect1_dropShadow"/>
<feBlend mode="normal" in="SourceGraphic" in2="effect1_dropShadow" result="shape"/>
</filter>
<filter id="filter3_d" x="232.007" y="152.371" width="54.8789" height="54.8789" filterUnits="userSpaceOnUse" color-interpolation-filters="sRGB">
<feFlood flood-opacity="0" result="BackgroundImageFix"/>
<feColorMatrix in="SourceAlpha" type="matrix" values="0 0 0 0 0 0 0 0 0 0 0 0 0 0 0 0 0 0 127 0"/>
<feOffset dy="4"/>
<feGaussianBlur stdDeviation="4"/>
<feColorMatrix type="matrix" values="0 0 0 0 0.253453 0 0 0 0 0.447661 0 0 0 0 0.970833 0 0 0 0.08 0"/>
<feBlend mode="normal" in2="BackgroundImageFix" result="effect1_dropShadow"/>
<feBlend mode="normal" in="SourceGraphic" in2="effect1_dropShadow" result="shape"/>
</filter>
<filter id="filter4_d" x="173.062" y="152.371" width="54.8789" height="56.133" filterUnits="userSpaceOnUse" color-interpolation-filters="sRGB">
<feFlood flood-opacity="0" result="BackgroundImageFix"/>
<feColorMatrix in="SourceAlpha" type="matrix" values="0 0 0 0 0 0 0 0 0 0 0 0 0 0 0 0 0 0 127 0"/>
<feOffset dy="4"/>
<feGaussianBlur stdDeviation="4"/>
<feColorMatrix type="matrix" values="0 0 0 0 0.253453 0 0 0 0 0.447661 0 0 0 0 0.970833 0 0 0 0.08 0"/>
<feBlend mode="normal" in2="BackgroundImageFix" result="effect1_dropShadow"/>
<feBlend mode="normal" in="SourceGraphic" in2="effect1_dropShadow" result="shape"/>
</filter>
<filter id="filter5_f" x="285.199" y="367.363" width="34.2479" height="34.7138" filterUnits="userSpaceOnUse" color-interpolation-filters="sRGB">
<feFlood flood-opacity="0" result="BackgroundImageFix"/>
<feBlend mode="normal" in="SourceGraphic" in2="BackgroundImageFix" result="shape"/>
<feGaussianBlur stdDeviation="4.5" result="effect1_foregroundBlur"/>
</filter>
<linearGradient id="paint0_linear" x1="563.117" y1="544" x2="122.105" y2="270.861" gradientUnits="userSpaceOnUse">
<stop stop-color="#4BE0D7"/>
<stop offset="1" stop-color="#BAF7C8"/>
</linearGradient>
<linearGradient id="paint1_linear" x1="282.022" y1="224.095" x2="87.0003" y2="120" gradientUnits="userSpaceOnUse">
<stop stop-color="#ECEEFA"/>
<stop offset="1" stop-color="#F7F8FF"/>
</linearGradient>
<linearGradient id="paint2_linear" x1="200.283" y1="120" x2="200.283" y2="232.874" gradientUnits="userSpaceOnUse">
<stop stop-color="#F4F4FF"/>
<stop offset="1" stop-color="#E7EAF8" stop-opacity="0"/>
</linearGradient>
<linearGradient id="paint3_linear" x1="468.572" y1="400.259" x2="468.572" y2="545.45" gradientUnits="userSpaceOnUse">
<stop stop-color="#F6F9FF"/>
<stop offset="1" stop-color="#D7D9F0"/>
</linearGradient>
<linearGradient id="paint4_linear" x1="563.78" y1="430.869" x2="468.572" y2="545.45" gradientUnits="userSpaceOnUse">
<stop stop-color="#F0F1FA"/>
<stop offset="1" stop-color="#F0F1FA" stop-opacity="0"/>
</linearGradient>
<linearGradient id="paint5_linear" x1="562.593" y1="450.861" x2="450.46" y2="578.46" gradientUnits="userSpaceOnUse">
<stop offset="0.0128154" stop-color="#CBCDE9"/>
<stop offset="1" stop-color="#CBCDE9" stop-opacity="0"/>
</linearGradient>
<linearGradient id="paint6_linear" x1="442.661" y1="245.415" x2="442.661" y2="426.024" gradientUnits="userSpaceOnUse">
<stop stop-color="#108CFF"/>
<stop offset="1" stop-color="#0D80EA"/>
</linearGradient>
<linearGradient id="paint7_linear" x1="494.085" y1="269.084" x2="434.811" y2="334.246" gradientUnits="userSpaceOnUse">
<stop stop-color="#3FA3FF"/>
<stop offset="1" stop-color="#3FA3FF" stop-opacity="0"/>
</linearGradient>
<radialGradient id="paint8_radial" cx="0" cy="0" r="1" gradientUnits="userSpaceOnUse" gradientTransform="translate(449.769 294.025) rotate(-137.366) scale(56.9303 51.5906)">
<stop stop-color="#2A65C9"/>
<stop offset="1" stop-color="#174BA5"/>
</radialGradient>
<linearGradient id="paint9_linear" x1="394.196" y1="353.493" x2="454.62" y2="277.963" gradientUnits="userSpaceOnUse">
<stop stop-color="#3FA3FF"/>
<stop offset="1" stop-color="#3FA3FF" stop-opacity="0"/>
</linearGradient>
<linearGradient id="paint10_linear" x1="434.811" y1="320.285" x2="431.644" y2="360.283" gradientUnits="userSpaceOnUse">
<stop stop-color="#183C83"/>
<stop offset="1" stop-color="#183C83" stop-opacity="0"/>
</linearGradient>
<linearGradient id="paint11_linear" x1="409.48" y1="333.722" x2="411.082" y2="322.052" gradientUnits="userSpaceOnUse">
<stop stop-color="#5CFFF5"/>
<stop offset="1" stop-color="#3CBEDB"/>
</linearGradient>
<radialGradient id="paint12_radial" cx="0" cy="0" r="1" gradientUnits="userSpaceOnUse" gradientTransform="translate(301.191 384.154) rotate(122.593) scale(30.781 30.8224)">
<stop stop-color="#C3CDE2"/>
<stop offset="1" stop-color="#9AA0CB"/>
</radialGradient>
<linearGradient id="paint13_linear" x1="274.974" y1="293.401" x2="287.628" y2="323.509" gradientUnits="userSpaceOnUse">
<stop stop-color="#9AA0CB"/>
<stop offset="1" stop-color="#5C7AA7"/>
</linearGradient>
<linearGradient id="paint14_linear" x1="274.247" y1="295.292" x2="283.992" y2="308.964" gradientUnits="userSpaceOnUse">
<stop stop-color="white" stop-opacity="0.35"/>
<stop offset="1" stop-color="#647EAB" stop-opacity="0"/>
</linearGradient>
<linearGradient id="paint15_linear" x1="273.215" y1="294.377" x2="248.783" y2="305.493" gradientUnits="userSpaceOnUse">
<stop stop-color="#A7B6D3"/>
<stop offset="1" stop-color="#9AA0CB"/>
</linearGradient>
<linearGradient id="paint16_linear" x1="274.316" y1="294.707" x2="260.779" y2="298.889" gradientUnits="userSpaceOnUse">
<stop stop-color="white"/>
<stop offset="1" stop-color="#9BA1CB" stop-opacity="0"/>
</linearGradient>
<linearGradient id="paint17_linear" x1="230.842" y1="336.427" x2="234.814" y2="382.294" gradientUnits="userSpaceOnUse">
<stop stop-color="#9AA0CB"/>
<stop offset="1" stop-color="#5F7BA8"/>
</linearGradient>
<linearGradient id="paint18_linear" x1="214.206" y1="334.855" x2="214.206" y2="382.13" gradientUnits="userSpaceOnUse">
<stop stop-color="#A7B6D3"/>
<stop offset="1" stop-color="#9EA6CD"/>
</linearGradient>
<radialGradient id="paint19_radial" cx="0" cy="0" r="1" gradientUnits="userSpaceOnUse" gradientTransform="translate(224.006 354.462) rotate(174.904) scale(22.9259 24.5454)">
<stop stop-color="#E6EBF5"/>
<stop offset="1" stop-color="#D0D7E7" stop-opacity="0"/>
</radialGradient>
<linearGradient id="paint20_linear" x1="261.275" y1="455.953" x2="261.275" y2="544.182" gradientUnits="userSpaceOnUse">
<stop stop-color="white"/>
<stop offset="1" stop-color="#D7D9F0"/>
</linearGradient>
<linearGradient id="paint21_linear" x1="262.3" y1="456.528" x2="270.527" y2="477.384" gradientUnits="userSpaceOnUse">
<stop stop-color="#F3F7FF"/>
<stop offset="1" stop-color="#F3F7FF" stop-opacity="0"/>
</linearGradient>
<linearGradient id="paint22_linear" x1="226.806" y1="451.458" x2="240.296" y2="459.781" gradientUnits="userSpaceOnUse">
<stop stop-color="#F3F7FF"/>
<stop offset="1" stop-color="#F3F7FF" stop-opacity="0"/>
</linearGradient>
<linearGradient id="paint23_linear" x1="228.433" y1="440.361" x2="241.157" y2="451.076" gradientUnits="userSpaceOnUse">
<stop stop-color="#F3F7FF"/>
<stop offset="1" stop-color="#F3F7FF" stop-opacity="0"/>
</linearGradient>
<linearGradient id="paint24_linear" x1="234.173" y1="433.759" x2="242.018" y2="440.648" gradientUnits="userSpaceOnUse">
<stop stop-color="#F3F7FF"/>
<stop offset="1" stop-color="#F3F7FF" stop-opacity="0"/>
</linearGradient>
<linearGradient id="paint25_linear" x1="267.944" y1="433.377" x2="274.168" y2="440.701" gradientUnits="userSpaceOnUse">
<stop stop-color="#F3F7FF"/>
<stop offset="1" stop-color="#F3F7FF" stop-opacity="0"/>
</linearGradient>
</defs>
</svg>
