<svg width="671" height="720" viewBox="0 0 671 720" fill="none" xmlns="http://www.w3.org/2000/svg">
<mask id="path-1-inside-1" fill="white">
<path d="M199.727 512.807C196.697 516.325 197.083 521.647 200.719 524.534C239.84 555.6 288.841 571.772 338.947 569.972C389.053 568.171 436.767 548.523 473.557 514.729C476.976 511.588 476.978 506.252 473.704 502.961C470.429 499.67 465.118 499.672 461.688 502.801C427.909 533.613 384.216 551.522 338.343 553.171C292.47 554.819 247.604 540.093 211.7 511.785C208.054 508.911 202.757 509.29 199.727 512.807Z"/>
</mask>
<path d="M199.727 512.807C196.697 516.325 197.083 521.647 200.719 524.534C239.84 555.6 288.841 571.772 338.947 569.972C389.053 568.171 436.767 548.523 473.557 514.729C476.976 511.588 476.978 506.252 473.704 502.961C470.429 499.67 465.118 499.672 461.688 502.801C427.909 533.613 384.216 551.522 338.343 553.171C292.47 554.819 247.604 540.093 211.7 511.785C208.054 508.911 202.757 509.29 199.727 512.807Z" stroke="#EDF2FD" stroke-width="36" mask="url(#path-1-inside-1)"/>
<mask id="path-2-inside-2" fill="white">
<path d="M513.542 273.215C517.734 271.219 519.528 266.194 517.366 262.086C499.311 227.778 472.086 199.081 438.654 179.239C405.221 159.397 366.989 149.246 328.225 149.832C323.583 149.902 320.032 153.885 320.288 158.52C320.543 163.156 324.51 166.687 329.152 166.633C364.584 166.221 399.509 175.557 430.073 193.697C460.638 211.837 485.563 238.021 502.175 269.321C504.351 273.421 509.351 275.211 513.542 273.215Z"/>
</mask>
<path d="M513.542 273.215C517.734 271.219 519.528 266.194 517.366 262.086C499.311 227.778 472.086 199.081 438.654 179.239C405.221 159.397 366.989 149.246 328.225 149.832C323.583 149.902 320.032 153.885 320.288 158.52C320.543 163.156 324.51 166.687 329.152 166.633C364.584 166.221 399.509 175.557 430.073 193.697C460.638 211.837 485.563 238.021 502.175 269.321C504.351 273.421 509.351 275.211 513.542 273.215Z" stroke="#EDF2FD" stroke-width="36" mask="url(#path-2-inside-2)"/>
<mask id="path-3-inside-3" fill="white">
<path d="M531.954 338.089C536.569 337.586 539.92 333.433 539.232 328.842C537.8 319.274 535.708 309.817 532.973 300.537C531.66 296.084 526.871 293.731 522.474 295.221C518.077 296.711 515.739 301.479 517.036 305.936C519.397 314.051 521.224 322.312 522.505 330.666C523.208 335.255 527.339 338.592 531.954 338.089Z"/>
</mask>
<path d="M531.954 338.089C536.569 337.586 539.92 333.433 539.232 328.842C537.8 319.274 535.708 309.817 532.973 300.537C531.66 296.084 526.871 293.731 522.474 295.221C518.077 296.711 515.739 301.479 517.036 305.936C519.397 314.051 521.224 322.312 522.505 330.666C523.208 335.255 527.339 338.592 531.954 338.089Z" stroke="#4BE0D7" stroke-width="36" mask="url(#path-3-inside-3)"/>
<mask id="path-4-inside-4" fill="white">
<path d="M291.987 162.968C291.075 158.439 286.66 155.49 282.171 156.582C261.53 161.603 241.774 169.741 223.585 180.714C219.63 183.1 218.572 188.303 221.115 192.16C223.657 196.017 228.836 197.066 232.8 194.693C249.184 184.887 266.938 177.575 285.475 172.996C289.96 171.889 292.898 167.497 291.987 162.968Z"/>
</mask>
<path d="M291.987 162.968C291.075 158.439 286.66 155.49 282.171 156.582C261.53 161.603 241.774 169.741 223.585 180.714C219.63 183.1 218.572 188.303 221.115 192.16C223.657 196.017 228.836 197.066 232.8 194.693C249.184 184.887 266.938 177.575 285.475 172.996C289.96 171.889 292.898 167.497 291.987 162.968Z" fill="#FFE485" stroke="#FFE485" stroke-width="36" mask="url(#path-4-inside-4)"/>
<mask id="path-5-inside-5" fill="white">
<path d="M139.014 333.591C134.586 332.985 130.489 336.081 130.059 340.529C126.689 375.451 132.462 410.653 146.808 442.67C148.635 446.747 153.507 448.373 157.509 446.384C161.51 444.395 163.125 439.545 161.312 435.461C148.394 406.361 143.157 374.429 146.106 342.728C146.519 338.279 143.441 334.198 139.014 333.591Z"/>
</mask>
<path d="M139.014 333.591C134.586 332.985 130.489 336.081 130.059 340.529C126.689 375.451 132.462 410.653 146.808 442.67C148.635 446.747 153.507 448.373 157.509 446.384C161.51 444.395 163.125 439.545 161.312 435.461C148.394 406.361 143.157 374.429 146.106 342.728C146.519 338.279 143.441 334.198 139.014 333.591Z" stroke="#666AF6" stroke-width="36" mask="url(#path-5-inside-5)"/>
<path d="M231.26 462.998C288.687 520.425 381.834 520.425 439.261 462.998C496.787 405.571 496.787 312.424 439.31 254.948C381.834 197.471 288.737 197.52 231.309 254.948C173.833 312.424 173.833 405.571 231.26 462.998Z" fill="url(#paint0_linear)"/>
<g style="mix-blend-mode:multiply" opacity="0.83" filter="url(#filter0_f)">
<path d="M383.383 358.671C423.932 369.662 446.902 420.259 448.153 453.415C399.831 511.63 310.622 524.371 245.941 475.605C248.607 466.5 256.487 442.181 273.01 406.984C289.533 371.787 307.814 382.241 322.783 350.758C335.294 324.444 272.728 251.215 342.053 254.98C388.384 257.496 401.631 318.361 364.941 343.224C352.579 351.601 363.99 353.414 383.383 358.671Z" fill="url(#paint1_linear)"/>
</g>
<path d="M247.57 490.657C240.423 485.318 269.541 439.517 279.767 427.946C289.993 416.375 272.223 388.497 255.921 401.781C239.551 415.056 203.178 507.18 232.922 515.41C262.665 523.64 261.458 496.252 247.57 490.657Z" fill="#131F37"/>
<path d="M411.185 481.494C414.875 461.505 397.664 439.885 389.446 426.733C381.227 413.581 403.167 386.204 417.079 402.027C430.991 417.85 447.417 449.433 441.357 483.817C436.354 505.177 406.984 500.57 411.185 481.494Z" fill="#131F37"/>
<path d="M245.231 416.981C243.454 419.348 242.233 421.928 240.598 425.369C246.705 431.348 257.451 443.198 266.004 447.135C267.57 445.584 270.253 442.286 270.253 442.286L245.231 416.981Z" fill="#081223"/>
<path d="M390.068 428.376C391.773 429.802 393.157 433.082 394.824 434.783C402.746 429.74 419.426 418.15 422.509 408.868C420.159 405.457 418.024 403.06 418.024 403.06L390.068 428.376Z" fill="#081223"/>
<mask id="mask0" mask-type="alpha" maskUnits="userSpaceOnUse" x="169" y="193" width="332" height="332">
<path d="M315.559 504.758C396.04 515.647 470.141 459.209 481.031 378.729C491.999 298.188 435.561 224.087 355.011 213.187C274.461 202.288 200.429 258.735 189.539 339.216C178.64 419.766 235.078 493.868 315.559 504.758Z" fill="url(#paint2_linear)"/>
</mask>
<g mask="url(#mask0)">
<path d="M258.745 492.708C258.495 488.511 261.067 435.765 261.067 435.765L261.054 435.341L260.746 435.018C251.246 428.733 244.156 421.296 241.671 416.243C241.2 415.351 241.703 414.59 242.206 413.851C263.409 378.911 297.501 366.838 324.903 364.138C346.739 361.46 372.411 366.342 388.554 375.567C400.901 382.659 410.669 390.599 416.695 395.498C418.601 397.023 420.12 398.285 421.271 399.145C421.46 399.311 421.68 399.764 421.402 400.782C421.267 401.257 421.142 401.662 420.938 402.127C420.919 402.266 420.841 402.325 420.822 402.464C420.715 402.731 420.618 402.929 420.59 403.136C417.479 409.475 406.65 418.219 401.838 422.566C399.427 424.775 397.219 426.518 395.571 427.773C392.538 430.083 393.528 431.38 393.423 434.805C393.317 438.23 389.742 512.701 389.777 513.481C389.711 515.371 388.416 517.237 386.698 517.5C350.269 520.488 279.237 507.116 263.598 500.546C259.493 498.704 258.994 496.905 258.745 492.708Z" fill="url(#paint3_linear)"/>
<path fill-rule="evenodd" clip-rule="evenodd" d="M263.162 435.784L263.158 435.867L261.067 435.765L261.054 435.341L260.746 435.018C251.246 428.733 244.156 421.296 241.671 416.243C241.2 415.351 241.703 414.59 242.206 413.851C263.409 378.911 297.501 366.838 324.903 364.138C346.739 361.46 372.411 366.342 388.554 375.567C400.901 382.659 410.669 390.599 416.695 395.498C417.306 395.987 417.877 396.449 418.41 396.879C419.537 397.791 420.489 398.561 421.271 399.145C421.46 399.311 421.68 399.764 421.402 400.782C421.267 401.257 421.142 401.662 420.938 402.127C420.928 402.197 420.904 402.246 420.88 402.296C420.856 402.345 420.831 402.395 420.822 402.464C420.8 402.519 420.778 402.572 420.757 402.623C420.678 402.814 420.612 402.972 420.59 403.136C417.994 408.425 410.024 415.389 404.66 420.076C403.596 421.006 402.634 421.846 401.838 422.566C399.427 424.775 397.219 426.518 395.571 427.773C393.228 429.558 393.286 430.737 393.385 432.761C393.414 433.357 393.447 434.026 393.423 434.805C393.373 436.411 392.561 453.639 391.715 471.565C390.758 491.868 389.758 513.067 389.777 513.481C389.711 515.371 388.416 517.237 386.698 517.5C350.269 520.488 279.237 507.116 263.598 500.546C259.493 498.704 258.994 496.905 258.745 492.708C258.495 488.511 261.067 435.765 261.067 435.765C263.158 435.867 263.158 435.867 263.158 435.867L263.129 436.46C263.11 436.847 263.083 437.415 263.048 438.14C262.978 439.59 262.879 441.667 262.76 444.171C262.523 449.181 262.209 455.903 261.903 462.756C261.598 469.61 261.3 476.591 261.094 482.118C260.885 487.725 260.779 491.665 260.834 492.584C260.961 494.716 261.147 495.758 261.555 496.494C261.906 497.126 262.579 497.792 264.432 498.626C272.007 501.8 293.418 506.75 317.675 510.539C341.868 514.318 368.476 516.877 386.429 515.422C386.62 515.378 386.9 515.226 387.177 514.852C387.475 514.452 387.665 513.924 387.685 513.416C387.688 513.197 387.702 512.842 387.717 512.472L387.72 512.42C387.744 511.827 387.781 510.983 387.828 509.923C387.923 507.804 388.06 504.816 388.226 501.243C388.558 494.098 389.005 484.608 389.456 475.036L389.621 471.552C390.468 453.58 391.282 436.328 391.33 434.741C391.352 434.049 391.323 433.458 391.294 432.858C391.291 432.801 391.288 432.743 391.285 432.686C391.256 432.068 391.223 431.324 391.326 430.582C391.571 428.823 392.506 427.476 394.303 426.108C395.924 424.874 398.077 423.173 400.424 421.023L400.429 421.018L400.435 421.013C401.277 420.252 402.264 419.39 403.344 418.447C405.474 416.586 407.963 414.411 410.409 412.082C414.031 408.632 417.189 405.174 418.612 402.412C418.686 402.15 418.779 401.919 418.833 401.791C418.85 401.735 418.869 401.682 418.887 401.632C418.89 401.625 418.893 401.618 418.896 401.611L418.903 401.556L419.021 401.288C419.155 400.981 419.246 400.705 419.357 400.317C418.681 399.791 417.906 399.164 417.051 398.473C416.525 398.048 415.969 397.598 415.387 397.133L415.381 397.127L415.375 397.122C409.353 392.227 399.699 384.383 387.512 377.383C371.806 368.408 346.599 363.586 325.157 366.216L325.133 366.219L325.108 366.221C298.111 368.881 264.745 380.745 243.996 414.937L243.967 414.984L243.936 415.03C243.807 415.219 243.72 415.349 243.651 415.467C243.646 415.476 243.641 415.484 243.636 415.493C245.969 420.075 252.659 427.158 261.901 433.272L262.098 433.402L263.122 434.476L263.162 435.784Z" fill="url(#paint4_linear)"/>
<path d="M419.266 398.873C410.252 391.599 403.623 386.477 391.922 378.769C409.482 418.109 309.013 414.442 343.807 461.183C378.669 507.933 262.825 455.216 261.07 454.133C261.07 454.133 259.837 483.527 259.906 486.141C259.975 488.755 260.678 495.796 269.498 499.365C322.473 516.727 381.29 515.778 385.199 515.416C389.108 515.054 388.833 509.772 389.002 502.669C389.172 495.566 391.676 429.499 391.676 429.499C391.676 429.499 412.399 413.716 419.841 401.908C420.179 400.968 420.863 400.075 419.266 398.873Z" fill="url(#paint5_linear)"/>
</g>
<path d="M250.354 288.561C259.241 301.396 277.468 297.115 282.417 285.518C287.364 274.077 278.584 260.339 265.306 259.296C252.121 258.286 241.559 275.758 250.354 288.561Z" fill="#212E4D"/>
<path d="M313.887 331.597C310.999 320.153 336.189 314.549 338.392 326.887C340.493 343.427 344.656 365.83 362.224 372.426C367.992 374.545 374.214 377.992 373.251 382.508C371.772 389.279 358.2 398.003 330.963 398.965C302.061 400.264 284.499 392.678 282.024 387.555C279.691 382.944 286.705 377.416 299.565 372.397C316.152 365.812 316.895 346.592 313.887 331.597Z" fill="#131F37"/>
<path d="M252.105 288.337C260.992 301.172 279.219 296.891 284.168 285.294C289.116 273.854 280.335 260.115 267.057 259.072C253.902 258.125 243.373 275.504 252.105 288.337Z" fill="#131F37"/>
<path d="M340.688 340.742C340.688 340.742 329.788 347.409 314.964 350.332C314.964 350.332 315.441 345.387 315.219 342.68L340.351 339.186L340.688 340.742Z" fill="#081223"/>
<path fill-rule="evenodd" clip-rule="evenodd" d="M263.283 283.73C263.332 286.727 261.003 290.093 258.754 288.156C250.25 280.944 254.238 266.867 263.533 265.104C267.571 264.322 271.456 265.317 274.483 267.422C277.016 269.146 274.191 272.286 271.155 272.896C266.335 273.822 263.203 278.736 263.283 283.73Z" fill="#081223"/>
<path fill-rule="evenodd" clip-rule="evenodd" d="M267.877 295.942C268.182 293.167 268.764 290.429 269.613 287.798C271.89 280.854 276.107 274.666 281.654 269.573C284.148 274.557 284.227 281.256 279.7 288.177C276.412 293.224 272.069 295.664 267.877 295.942Z" fill="#081223"/>
<path d="M371.304 286.068C380.884 327.144 336.907 355.553 299.483 338.66C280.771 330.214 271.826 316.189 270.812 301.83C269.807 287.401 276.664 272.628 289.456 262.39C302.297 252.299 320.292 247.834 336.391 251.139C352.411 254.503 366.494 265.421 371.304 286.068Z" fill="#131F37"/>
<path d="M398.475 277.982C393.987 292.935 375.329 294.494 367.039 284.993C358.8 275.641 362.906 259.862 375.213 254.768C387.441 249.734 402.884 263.089 398.475 277.982Z" fill="#212E4D"/>
<path d="M396.74 278.31C392.253 293.263 373.595 294.822 365.305 285.322C357.066 275.969 361.172 260.19 373.479 255.096C385.697 250.131 401.08 263.408 396.74 278.31Z" fill="#131F37"/>
<path fill-rule="evenodd" clip-rule="evenodd" d="M384.686 277.383C385.565 280.248 388.82 282.731 390.36 280.193C396.221 270.707 388.079 258.551 378.694 259.745C374.612 260.249 371.224 262.396 368.996 265.333C367.119 267.755 370.776 269.869 373.852 269.51C378.722 268.902 383.219 272.609 384.686 277.383Z" fill="#081223"/>
<path opacity="0.3" d="M360.589 286.167C352.637 297.061 328.696 288.752 319.725 273.879C315.24 266.442 315.91 260.971 319.567 257.875C323.225 254.779 329.861 254.128 337.336 256.125C344.801 258.191 352.602 262.979 357.617 268.586C362.484 274.243 364.564 280.721 360.589 286.167Z" fill="#444F7E"/>
<path opacity="0.72" d="M283.773 279.927C283.361 278.815 281.839 278.61 281.206 279.65C277.398 286.458 275.608 293.96 276.156 301.357C277.021 314.218 285.047 326.71 301.829 334.331C320.007 342.564 339.872 338.845 352.905 327.865C358.936 322.837 351.518 315.215 343.698 315.776C325.363 317.027 304.584 309.287 291.866 293.485C288.053 288.885 285.434 284.306 283.773 279.927Z" fill="#040C1C"/>
<path d="M346.598 313.072C344.522 313.847 342.195 312.828 341.42 310.752C340.645 308.675 341.664 306.349 343.74 305.574C345.817 304.799 348.143 305.818 348.918 307.894C349.693 309.97 348.674 312.297 346.598 313.072Z" fill="#141D42"/>
<path d="M346.691 312.38C344.762 313.105 342.643 312.114 341.909 310.255C341.184 308.326 342.175 306.207 344.034 305.473C345.963 304.748 348.082 305.739 348.816 307.598C349.541 309.527 348.55 311.646 346.691 312.38Z" fill="#586EB7"/>
<path d="M347.746 308.228C347.385 308.813 346.389 308.89 345.547 308.353C344.704 307.817 344.263 306.912 344.624 306.327C344.985 305.743 345.981 305.666 346.823 306.203C347.666 306.739 348.107 307.644 347.746 308.228Z" fill="#3B5AC3"/>
<path d="M346.959 307.277C346.862 307.475 346.438 307.488 346.111 307.303C345.784 307.118 345.623 306.744 345.721 306.546C345.818 306.348 346.242 306.335 346.569 306.52C346.965 306.714 347.135 307.019 346.959 307.277Z" fill="#9CB0CD"/>
<path d="M343.971 307.506C343.742 307.123 343.198 306.979 343.013 307.306C342.486 308.08 342.355 309.048 342.726 309.943C343.3 311.429 344.953 312.216 346.439 311.642C347.177 311.39 347.746 310.833 348.047 310.17C348.241 309.774 347.735 309.353 347.241 309.357C346.679 309.351 345.928 309.179 345.343 308.819C344.689 308.448 344.192 307.959 343.971 307.506Z" fill="#44589D"/>
<path d="M273.632 468.624C266.224 481.613 253.572 494.196 247.487 490.515C221.979 482.521 214.615 513.933 237.563 517.089C260.51 520.245 284.738 501.844 290.201 473.125C291.113 464.984 278.103 461.218 273.632 468.624Z" fill="#131F37"/>
<path d="M297.297 315.272C295.221 316.047 292.894 315.028 292.119 312.952C291.344 310.876 292.363 308.549 294.439 307.774C296.516 306.999 298.842 308.018 299.617 310.094C300.461 312.18 299.373 314.497 297.297 315.272Z" fill="#141D42"/>
<path d="M297.4 314.512C295.471 315.237 293.352 314.246 292.618 312.386C291.893 310.458 292.884 308.339 294.744 307.605C296.672 306.88 298.791 307.871 299.525 309.73C300.241 311.728 299.319 313.856 297.4 314.512Z" fill="#586EB7"/>
<path d="M298.515 310.438C298.154 311.023 297.158 311.1 296.315 310.563C295.472 310.027 295.031 309.122 295.392 308.537C295.753 307.952 296.749 307.876 297.592 308.413C298.434 308.949 298.806 309.844 298.515 310.438Z" fill="#3B5AC3"/>
<path d="M297.728 309.487C297.631 309.685 297.207 309.698 296.88 309.513C296.553 309.328 296.392 308.954 296.489 308.756C296.586 308.558 297.011 308.545 297.338 308.73C297.665 308.915 297.835 309.22 297.728 309.487Z" fill="#9CB0CD"/>
<path d="M294.671 309.707C294.441 309.324 293.897 309.18 293.712 309.507C293.185 310.28 293.054 311.248 293.426 312.143C293.999 313.629 295.653 314.416 297.138 313.843C297.877 313.59 298.445 313.034 298.746 312.37C298.94 311.974 298.434 311.554 297.941 311.557C297.378 311.552 296.627 311.38 296.042 311.019C295.388 310.649 294.96 310.168 294.671 309.707Z" fill="#44589D"/>
<path d="M303.991 422.422L276.32 432.83C275.139 433.234 274.399 434.542 274.498 435.893L277.147 472.511C277.246 473.862 278.074 475.03 279.212 475.466L295.398 481.247C296.95 481.739 298.647 481.687 300.35 481.072L327.532 470.105C329.018 469.532 330.013 467.906 329.891 466.2L327.55 429.905C327.461 428.485 326.574 427.238 325.348 426.932L308.459 422.182C307.035 421.778 305.476 421.849 303.991 422.422Z" fill="url(#paint6_linear)"/>
<path d="M327.569 429.767L329.863 466.408C329.915 468.104 328.99 469.739 327.504 470.313L299.888 481.362C298.924 481.724 297.962 481.031 297.894 479.965L295.521 445.99C295.288 442.508 297.296 439.119 300.327 438.05L325.585 428.302C326.609 428.018 327.502 428.702 327.569 429.767Z" fill="url(#paint7_linear)"/>
<path d="M295.724 481.361L279.277 475.335C278.054 474.959 277.212 473.86 277.2 472.38L274.517 436.267C274.407 434.985 275.548 433.873 276.632 434.231L291.145 438.869C293.59 439.622 295.333 441.899 295.585 444.748L297.978 479.344C297.94 480.676 296.808 481.719 295.724 481.361Z" fill="url(#paint8_linear)"/>
<path d="M293.306 439.468L276.888 434.363C276.077 434.113 276.166 432.93 276.983 432.618L303.991 422.421C305.477 421.849 306.957 421.838 308.39 422.173L324.786 426.923C325.537 427.095 325.576 428.365 324.76 428.677L296.986 439.333C295.795 439.804 294.523 439.843 293.306 439.468Z" fill="url(#paint9_linear)"/>
<path fill-rule="evenodd" clip-rule="evenodd" d="M281.957 465.395C283.164 465.04 284.242 464.865 285.028 464.453C287.629 463.145 287.748 460.185 284.952 460.482C281.405 460.837 280.482 460.988 276.598 461.018C276.598 461.018 272.332 460.637 272.505 467.343C273.361 472.045 277.118 472.285 276.988 470.507C276.956 469.048 275.909 467.452 281.957 465.395Z" fill="#131F37"/>
<path fill-rule="evenodd" clip-rule="evenodd" d="M276.673 460.311C281.48 460.13 284.481 460.116 286.62 458.883C289.196 457.421 288.886 453.963 286.048 454.393C282.68 454.877 278.252 455.249 275.451 455.326C275.451 455.326 272.033 453.163 271.19 458.674C271.012 459.714 270.23 464.021 273.32 469.962C277.568 470.305 276.673 460.311 276.673 460.311Z" fill="#131F37"/>
<path d="M339.696 442.088C339.197 441.598 334.524 437.514 334.524 437.514C333.398 436.446 331.536 435.067 329.951 434.782L301.941 429.372C301.118 429.19 298.799 430.144 298.363 431.283L285.932 463.133C285.338 464.391 285.655 465.702 286.583 466.673L291.807 472.945C292.615 473.758 294.574 474.939 295.536 475.14L324.453 480.109C326.039 480.394 327.497 479.535 328.128 478L341.082 445.939C341.663 444.257 340.195 442.579 339.696 442.088Z" fill="url(#paint10_linear)"/>
<path d="M341.032 445.79L328.076 477.983C327.454 479.454 325.92 480.378 324.406 480.103L295.544 475.136C294.585 474.936 293.955 473.861 294.363 472.926L306.888 441.312C308.082 438.22 308.641 437.73 311.788 438.439L339.98 443.668C340.879 443.789 341.371 444.846 341.032 445.79Z" fill="url(#paint11_linear)"/>
<path d="M291.803 472.945L286.596 466.678C285.671 465.708 285.425 464.407 285.948 463.14L298.353 431.305C298.789 430.167 300.177 429.791 301.042 430.683L306.748 436.384C308.607 438.255 307.531 439.447 306.553 441.99L294.631 472.342C294.048 473.53 292.668 473.836 291.803 472.945Z" fill="url(#paint12_linear)"/>
<path d="M306.706 436.327L301 430.626C300.452 429.989 301.058 429.156 301.878 429.337L329.804 434.735C331.385 435.02 333.24 436.397 334.363 437.464L339.518 442.034C340.153 442.543 339.648 443.671 338.828 443.49L309.985 438.109C308.75 437.871 307.631 437.297 306.706 436.327Z" fill="url(#paint13_linear)"/>
<path fill-rule="evenodd" clip-rule="evenodd" d="M276.87 454.526C281.677 454.345 284.678 454.331 286.817 453.098C289.393 451.636 289.083 448.177 286.245 448.607C282.878 449.092 278.449 449.464 275.648 449.54C275.648 449.54 270.745 449.326 271.19 458.674C271.408 463.128 276.87 454.526 276.87 454.526Z" fill="#131F37"/>
<path fill-rule="evenodd" clip-rule="evenodd" d="M277.179 448.847C281.987 448.666 284.713 448.128 286.852 446.895C289.427 445.433 289.118 441.974 286.279 442.404C282.912 442.889 279.916 443.123 278.484 443.261C277.052 443.399 272.794 442.29 273.239 451.638C273.503 456.179 277.179 448.847 277.179 448.847Z" fill="#131F37"/>
<path fill-rule="evenodd" clip-rule="evenodd" d="M441.454 483.619C436.095 515.422 410.587 520.771 389.408 512.343C371.565 505.282 343.425 486.9 332.033 464.94C328.938 458.678 343.821 447.033 353.278 458.31C357.576 462.975 370.533 476.487 388.279 483.746C410.259 492.493 415.14 486.606 409.622 462.343C406.085 445.812 449.718 435.029 441.454 483.619Z" fill="#131F37"/>
<path d="M323.567 451.544C322.523 447.812 320.671 444.323 318.114 441.372C316.531 439.538 314.764 438.032 312.226 436.491C309.569 434.794 311.483 432.096 314.938 433.62C316.592 434.407 320.377 436.609 323.84 439.119C324.016 438.861 324.182 438.672 324.358 438.415C321.964 436.33 317.046 433.13 314.908 432.278C312.67 431.13 313.717 428.596 316.325 429.09C318.755 429.348 324.129 432.821 327.384 435.304C327.541 435.184 327.698 435.064 327.864 434.876C327.804 434.797 327.735 434.788 327.675 434.709C326.313 433.328 323.04 430.984 319.009 429.031C315.978 427.494 318.294 424.428 322.117 426.353C324.365 427.432 329.192 430.268 331.525 432.273C331.899 432.113 332.213 431.873 332.587 431.713C330.064 429.541 326.832 427.414 324.851 426.442C322.207 425.169 323.826 422.571 326.903 423.762C338.984 428.143 342.704 433.434 345.54 444.731C346.771 449.685 349.856 454.468 352.055 456.948C352.91 457.908 352.576 459.342 351.514 459.902C351.514 459.902 337.005 471.387 329.571 462.847C327.183 460.201 325.279 457.62 323.567 451.544Z" fill="#131F37"/>
<path d="M182.042 234.193C177.567 235.336 173.533 231.206 174.781 226.759L181.615 202.403C182.862 197.956 188.456 196.527 191.684 199.831L209.359 217.928C212.587 221.232 211.027 226.791 206.552 227.934L182.042 234.193Z" fill="#4BE0D7"/>
<path d="M176.831 497C185.116 497 191.831 490.284 191.831 482L191.831 481C191.831 472.716 185.116 466 176.831 466C168.547 466 161.831 472.716 161.831 481L161.831 482C161.831 490.284 168.547 497 176.831 497Z" fill="#8FE6FA"/>
<path d="M533.831 391C541.011 391 546.831 385.18 546.831 378C546.831 370.82 541.011 365 533.831 365C526.652 365 520.831 370.82 520.831 378C520.831 385.18 526.652 391 533.831 391Z" fill="#666AF7"/>
<defs>
<filter id="filter0_f" x="171.456" y="229.358" width="297.776" height="322.405" filterUnits="userSpaceOnUse" color-interpolation-filters="sRGB">
<feFlood flood-opacity="0" result="BackgroundImageFix"/>
<feBlend mode="normal" in="SourceGraphic" in2="BackgroundImageFix" result="shape"/>
<feGaussianBlur stdDeviation="4.5" result="effect1_foregroundBlur"/>
</filter>
<linearGradient id="paint0_linear" x1="231.293" y1="254.964" x2="439.327" y2="462.998" gradientUnits="userSpaceOnUse">
<stop stop-color="#CEF9C6"/>
<stop offset="1" stop-color="#42BAEB"/>
</linearGradient>
<linearGradient id="paint1_linear" x1="266.3" y1="283.333" x2="366.17" y2="477.583" gradientUnits="userSpaceOnUse">
<stop stop-color="#41B4BB"/>
<stop offset="1" stop-color="#B7C1D7" stop-opacity="0.24"/>
</linearGradient>
<linearGradient id="paint2_linear" x1="189.536" y1="339.239" x2="481.083" y2="378.689" gradientUnits="userSpaceOnUse">
<stop stop-color="#CEF9C6"/>
<stop offset="1" stop-color="#42BAEB"/>
</linearGradient>
<linearGradient id="paint3_linear" x1="313.295" y1="356.212" x2="364.7" y2="514.269" gradientUnits="userSpaceOnUse">
<stop stop-color="#E787E6"/>
<stop offset="0.6" stop-color="#E486E6"/>
</linearGradient>
<linearGradient id="paint4_linear" x1="286.469" y1="361.629" x2="316.958" y2="406.671" gradientUnits="userSpaceOnUse">
<stop stop-color="#FCA7EC"/>
<stop offset="1" stop-color="white" stop-opacity="0"/>
</linearGradient>
<linearGradient id="paint5_linear" x1="311.261" y1="410.214" x2="392.182" y2="496.389" gradientUnits="userSpaceOnUse">
<stop stop-color="#B365F0"/>
<stop offset="1" stop-color="#B76AEF" stop-opacity="0.14"/>
</linearGradient>
<linearGradient id="paint6_linear" x1="300.622" y1="438.574" x2="311.087" y2="478.276" gradientUnits="userSpaceOnUse">
<stop stop-color="#D9E1EF"/>
<stop offset="1" stop-color="#7387B4"/>
</linearGradient>
<linearGradient id="paint7_linear" x1="294.523" y1="452.385" x2="331.211" y2="457.349" gradientUnits="userSpaceOnUse">
<stop stop-color="#7085B2"/>
<stop offset="1" stop-color="#8E98C4"/>
</linearGradient>
<linearGradient id="paint8_linear" x1="282.625" y1="432.419" x2="295.57" y2="481.644" gradientUnits="userSpaceOnUse">
<stop stop-color="#7085B2"/>
<stop offset="1" stop-color="#8E98C4"/>
</linearGradient>
<linearGradient id="paint9_linear" x1="299.863" y1="423.471" x2="303.602" y2="437.609" gradientUnits="userSpaceOnUse">
<stop stop-color="#D7DFF2"/>
<stop offset="1" stop-color="#FDFDFE"/>
</linearGradient>
<linearGradient id="paint10_linear" x1="310.2" y1="478.14" x2="316.527" y2="431.379" gradientUnits="userSpaceOnUse">
<stop stop-color="#D9E1EF"/>
<stop offset="1" stop-color="#7387B4"/>
</linearGradient>
<linearGradient id="paint11_linear" x1="324.017" y1="438.885" x2="311.827" y2="479.958" gradientUnits="userSpaceOnUse">
<stop stop-color="#C3CBE2"/>
<stop offset="1" stop-color="#A0ABCF"/>
</linearGradient>
<linearGradient id="paint12_linear" x1="303.125" y1="431.113" x2="290.756" y2="472.867" gradientUnits="userSpaceOnUse">
<stop stop-color="#7085B2"/>
<stop offset="1" stop-color="#ACB4D7"/>
</linearGradient>
<linearGradient id="paint13_linear" x1="321.612" y1="432.213" x2="319.065" y2="440.812" gradientUnits="userSpaceOnUse">
<stop stop-color="#D7DFF2"/>
<stop offset="1" stop-color="#FDFDFE"/>
</linearGradient>
</defs>
</svg>
