<svg width="671" height="720" viewBox="0 0 671 720" fill="none" xmlns="http://www.w3.org/2000/svg">
<path d="M670 0L670 503L327 503C310.431 503 297 489.569 297 473L297 4.89131e-05L670 0Z" fill="url(#paint0_linear)"/>
<mask id="mask0" mask-type="alpha" maskUnits="userSpaceOnUse" x="297" y="0" width="372" height="480">
<path d="M639 0.00048697C655.569 0.000487694 669 13.4319 669 30.0005L669 449.001C669 465.569 655.569 479.001 639 479.001L327 479.001C310.431 479.001 297 465.569 297 449.001L297 0.000472021L639 0.00048697Z" fill="#666AF7"/>
</mask>
<g mask="url(#mask0)">
<rect width="200.391" height="218.37" rx="14" transform="matrix(-0.521642 0.853164 -0.877997 -0.478665 693.718 326.705)" fill="white" fill-opacity="0.1"/>
<rect width="182.545" height="187.849" rx="16" transform="matrix(-0.521642 0.853164 -0.877997 -0.478665 765.182 55.3135)" fill="white" fill-opacity="0.1"/>
<rect width="229.539" height="236.209" rx="16" transform="matrix(-0.521642 0.853164 -0.877997 -0.478665 454.004 134.135)" fill="white" fill-opacity="0.1"/>
<rect width="131.274" height="135.089" rx="16" transform="matrix(-0.521642 0.853164 -0.877997 -0.478665 542.198 -23.2476)" fill="white" fill-opacity="0.1"/>
</g>
<path d="M670.361 719L670.361 578.976L352.488 578.976C322.113 578.976 297.488 603.6 297.488 633.976L297.488 719L670.361 719Z" fill="url(#paint1_linear)"/>
<path d="M222 720L222 305C222 284.013 204.987 267 184 267L68 267C47.0132 267 30 284.013 30 305L30.0001 720L222 720Z" fill="#FF7A59"/>
<mask id="mask1" mask-type="alpha" maskUnits="userSpaceOnUse" x="297" y="0" width="374" height="503">
<path d="M670 0L670 473C670 489.569 656.569 503 640 503L327 503C310.431 503 297 489.569 297 473L297 30C297 13.4315 310.431 4.71517e-05 327 4.4979e-05L670 0Z" fill="white"/>
</mask>
<g mask="url(#mask1)">
<g style="mix-blend-mode:multiply" opacity="0.5" filter="url(#filter0_f)">
<path d="M312.838 465.035C311.535 536.896 371.736 556.514 392.828 567.818C526.834 616.303 558.466 563.956 561.932 548.363C565.398 532.77 567.848 414.65 564.554 360.477C561.261 306.305 528.448 278.344 505.855 270.133C481.858 261.412 476.984 239.063 473.615 221.731C463.163 167.972 389.796 148.684 400.326 222.046C404.9 253.913 386.779 265.003 366.667 272.587C323.697 288.79 315.686 307.92 312.838 465.035Z" fill="url(#paint2_linear)"/>
</g>
<g style="mix-blend-mode:multiply">
<g opacity="0.85" filter="url(#filter1_f)">
<path d="M445.158 545.102C455.559 560.72 432.3 605.265 432.3 605.265L251.735 590.019L337.712 591.735L362.861 469.208C386.219 490.387 435.379 535.216 445.158 545.102Z" fill="#395590" fill-opacity="0.62"/>
</g>
<g filter="url(#filter2_f)">
<path d="M345.838 537.48C399.047 557.992 471.519 582.613 542.465 609.963C613.411 637.312 539.939 634.336 477.861 610.405C462.647 605.014 460.487 618.282 443.782 611.842C427.077 605.402 322.127 567.314 299.858 558.729C219.631 527.802 292.628 516.968 345.838 537.48Z" fill="#395590" fill-opacity="0.35"/>
</g>
</g>
<path d="M356.87 401.415C338.062 533.145 379.145 570.618 476.202 600.573C550.511 623.463 632.954 699.266 632.954 447.201C632.954 279.981 563.454 250.769 507.558 248.405C467.404 246.675 410.318 272.168 394.238 300.608C375.213 334.2 362.167 364.449 356.87 401.415Z" fill="url(#paint3_linear)"/>
<path fill-rule="evenodd" clip-rule="evenodd" d="M507.557 248.406C563.454 250.769 632.954 275.262 632.954 447.201C610.038 610.601 550.511 623.464 476.202 600.574C379.145 570.619 338.062 533.146 356.869 401.416C362.167 364.45 375.213 334.201 394.238 300.609C410.318 272.169 467.404 246.676 507.557 248.406ZM360.936 401.999C366.133 365.73 378.924 335.985 397.813 302.633L397.814 302.63C405.219 289.534 422.563 276.511 443.574 266.931C464.472 257.403 488.129 251.681 507.381 252.51L507.384 252.51C534.501 253.657 563.439 260.332 589.336 289.421C615.146 318.412 628.882 364.94 628.882 446.658C617.448 528.165 597.01 570.764 571.347 590.489C545.976 609.99 514.266 608.001 477.412 596.648C428.998 581.706 395.69 565.183 376.487 536.856C357.31 508.568 351.577 467.555 360.936 401.999Z" fill="url(#paint4_radial)"/>
<g style="mix-blend-mode:multiply" filter="url(#filter3_f)">
<path d="M500.932 438.718C500.223 404.339 488.431 363.875 449.655 352.765C410.88 341.654 386.146 380.933 373.966 446.26C364.315 498.388 353.578 557.166 349.834 578.211C381.362 562.841 417.712 550.805 422.659 546.741C422.566 546.705 502.739 531.073 500.932 438.718Z" fill="#B5BBD6"/>
</g>
<path d="M423.749 343.096C385.343 328.666 360.328 366.945 347.922 432.273C338.093 484.401 327.577 541.597 323.765 562.643C313.577 619.004 382.92 628.731 400.006 585.212C417.093 541.693 504.849 373.473 423.749 343.096Z" fill="url(#paint5_linear)"/>
<path fill-rule="evenodd" clip-rule="evenodd" d="M422.627 345.973L422.63 345.975C441.542 353.058 450.745 368.094 453.547 388.043C456.372 408.154 452.599 432.914 445.666 458.432C435.362 496.351 418.383 535.001 406.756 561.467C402.716 570.665 399.322 578.391 397.079 584.104C389.142 604.32 369.157 612.106 352.349 608.377C343.972 606.519 336.464 601.812 331.617 594.402C326.781 587.007 324.42 576.648 326.855 563.181C330.666 542.142 341.18 484.955 351.007 432.836C357.182 400.32 366.425 375.008 378.563 359.665C384.6 352.036 391.237 347.018 398.429 344.68C405.58 342.357 413.594 342.579 422.627 345.973ZM347.922 432.273C338.093 484.401 327.577 541.597 323.765 562.643C313.577 619.004 382.92 628.731 400.006 585.212C402.192 579.645 405.534 572.037 409.532 562.938C436.782 500.91 494.474 369.587 423.749 343.096C385.343 328.666 360.328 366.945 347.922 432.273Z" fill="url(#paint6_linear)"/>
<g opacity="0.58" filter="url(#filter4_f)">
<path fill-rule="evenodd" clip-rule="evenodd" d="M446.319 359.882C446.012 359.986 445.695 360.089 445.368 360.189C405.641 372.375 388.096 456.726 375.681 520.271C367.308 563.127 338.698 574.997 324.082 560.895C323.972 561.502 323.866 562.085 323.765 562.642C313.577 619.004 382.92 628.731 400.006 585.212C402.192 579.645 405.534 572.037 409.532 562.938C432.971 509.583 478.935 404.958 446.319 359.882Z" fill="#9DA3CC"/>
</g>
<g style="mix-blend-mode:multiply" opacity="0.62" filter="url(#filter5_f)">
<path d="M554.161 451.939C553.452 417.561 541.659 377.097 502.884 365.986C464.109 354.876 439.375 394.154 427.194 459.482C417.544 511.61 406.806 570.387 403.063 591.433C434.59 576.062 470.94 564.027 475.887 559.962C475.795 559.926 555.968 544.295 554.161 451.939Z" fill="#B5BBD6"/>
</g>
<g filter="url(#filter6_i)">
<path d="M531.197 445.156C530.475 410.777 518.464 370.314 478.973 359.203C439.481 348.092 414.29 387.371 401.884 452.698C392.056 504.826 381.54 562.023 377.728 583.068C376.793 587.937 372.645 591.589 367.57 591.8L312.026 594.757C308.68 594.983 305.697 597.051 304.495 600.113C302.783 604.474 305.026 609.267 309.373 610.912L430.529 656.77C439.696 660.239 449.549 660.026 454.074 638.824C458.066 620.084 491.508 603.716 496.511 565.536C496.417 565.5 533.037 537.511 531.197 445.156Z" fill="url(#paint7_linear)"/>
</g>
<path fill-rule="evenodd" clip-rule="evenodd" d="M377.728 583.068C381.54 562.023 392.056 504.826 401.884 452.698C414.29 387.371 439.481 348.092 478.972 359.203C518.464 370.314 530.474 410.777 531.196 445.156C532.785 524.879 483.916 549.765 470.578 555.105C470.184 555.263 469.821 555.403 469.491 555.528C468.388 555.944 467.657 556.18 467.381 556.269C467.302 556.295 467.26 556.308 467.257 556.311C467.256 556.311 467.256 556.311 467.256 556.311C462.253 594.491 458.066 620.084 454.074 638.824C449.549 660.026 439.695 660.239 430.528 656.77L309.373 610.912C305.026 609.267 302.783 604.474 304.495 600.113C305.697 597.051 308.68 594.983 312.025 594.757L367.569 591.8C372.645 591.589 376.793 587.937 377.728 583.068ZM451.002 638.193C448.8 648.514 445.481 652.744 442.522 654.353C439.609 655.937 436.009 655.542 431.657 653.895L310.502 608.037C307.749 606.995 306.343 603.972 307.423 601.221C308.163 599.337 310.039 597.986 312.221 597.832L367.702 594.878C367.708 594.878 367.715 594.877 367.721 594.877C374.295 594.596 379.617 589.861 380.811 583.639L380.814 583.623L380.817 583.608C384.628 562.57 395.142 505.382 404.969 453.262C411.142 420.758 420.429 395.17 432.774 379.145C438.918 371.168 445.725 365.684 453.163 362.803C460.561 359.938 468.826 359.553 478.108 362.165C515.441 372.668 527.342 411.08 528.059 445.217C528.963 490.58 513.268 517.556 497.641 533.196C489.792 541.051 481.898 546.108 475.991 549.196C473.039 550.74 470.588 551.789 468.895 552.449C468.049 552.779 467.391 553.011 466.953 553.16C466.735 553.234 466.569 553.288 466.456 553.325L466.378 553.35C466.351 553.358 466.325 553.367 466.306 553.373C466.291 553.378 466.244 553.394 466.193 553.412L466.191 553.412C466.175 553.418 466.087 553.449 465.983 553.495C465.906 553.53 465.655 553.661 465.486 553.767C465.177 554.04 464.894 554.953 464.905 556.014L464.144 555.918C459.145 594.068 454.97 619.569 451.002 638.193Z" fill="url(#paint8_linear)"/>
<path d="M461.497 595.994C466.575 578.415 480.852 473.073 488.815 403.944C488.601 451.994 485.015 539.32 496.994 570.747C506.989 596.968 558.38 610.55 586.122 582.101C550.722 621.967 506.93 611.81 461.497 595.994Z" fill="url(#paint9_linear)"/>
<g opacity="0.81" filter="url(#filter7_f)">
<path d="M554.042 282.291C557.424 274.016 571.239 277.348 574.452 269.907C577.486 260.607 530.037 256.602 501.871 258.597C467.454 261.035 431.411 266.978 429.088 275.864C427.192 283.115 440.192 285.298 444.06 283.84C447.929 282.381 456.112 296.889 462.886 296.47C469.661 296.051 472.513 295.084 476.649 293.647C480.784 292.211 493.44 303.702 500.212 303.282C506.983 302.861 509.255 293.405 513.87 292.153C518.485 290.902 534.166 302.044 541.717 298.893C549.269 295.743 550.417 291.157 554.042 282.291Z" fill="#9AA0CA"/>
</g>
<g filter="url(#filter8_i)">
<path d="M537.482 211.304C538.392 224.977 538.603 238.807 547.15 247.325C556.482 256.571 581.319 259.324 574.328 270.271C570.397 276.323 555.614 271.264 554.458 279.238C553.338 287.12 549.584 295.478 540.13 295.67C530.77 295.899 522.186 288.859 516.238 288.805C510.07 288.771 510.565 303.244 499.294 299.859C491.842 297.625 483.267 288.351 481.552 290.035C477.572 293.723 470.214 298.987 462.593 293.597C455.307 288.444 449.86 278.244 442.297 280.444C432.909 283.396 425.731 277.832 429.558 271.29C433.385 264.748 443.266 264.268 449.891 246.922C453.928 234.516 452.56 212.352 453.172 196.388C453.944 175.583 452.156 152.299 490.648 151.15C524.32 150.062 535.511 183.792 537.482 211.304Z" fill="url(#paint10_radial)"/>
</g>
<path d="M515.437 170.605C519.074 174.321 525.412 177.486 528.652 175.413C520.913 159.253 509.877 154.915 490.921 154.772C471.966 154.628 455.18 161.543 453.839 181C466.614 186.321 472.479 171.948 473.445 176.591C474.41 181.234 480.873 182.887 484.624 180.461C487.53 178.581 490.74 168.476 493.505 171.917C498.2 177.761 504.441 181.897 510.33 180.999C516.607 180.043 510.891 165.959 515.437 170.605Z" fill="#9AA0CA"/>
<path opacity="0.32" d="M482.475 179.229C479.915 193.126 487.357 209.066 503.32 221.562C519.282 234.057 530.848 232.044 532.566 215.493C534.284 198.942 527.579 177.98 515.806 167.747C504.033 157.514 485.634 162.081 482.475 179.229Z" fill="white"/>
<path d="M475.002 172.938C475.031 172.309 474.103 171.952 473.739 172.344C468.33 178.359 458.6 184.52 452.758 178.111C445.51 170.095 456.736 147.884 490.551 147.81C516.147 147.766 533.026 166.742 529.965 173.023C527.534 177.947 519.041 172.329 516.553 168.279C515.911 167.179 515.667 168.364 515.974 169.228C517.413 173.513 518.129 179.118 511.374 180.884C502.961 183.076 496.694 172.24 494.591 168.019C494.306 167.376 493.27 167.297 493.02 167.947C490.544 175.199 485.884 182.035 481.158 180.746C476.675 179.658 475.101 174.894 475.002 172.938Z" fill="url(#paint11_linear)"/>
<path opacity="0.49" d="M501.504 202.976C502.41 205.459 501.186 208.187 498.771 209.067C496.356 209.948 493.664 208.649 492.759 206.165C491.853 203.682 493.076 200.954 495.491 200.074C497.906 199.193 500.598 200.492 501.504 202.976Z" fill="#9AA0CA"/>
<path d="M501.542 202.681C502.353 204.904 501.206 207.364 498.98 208.175C496.755 208.987 494.293 207.843 493.483 205.621C492.672 203.398 493.819 200.939 496.045 200.127C498.27 199.315 500.732 200.459 501.542 202.681Z" fill="#385C7D"/>
<path d="M496.739 201.351C497.413 201.769 497.452 202.926 496.825 203.936C496.199 204.945 495.145 205.424 494.471 205.005C493.796 204.587 493.758 203.429 494.384 202.42C495.011 201.411 496.065 200.932 496.739 201.351Z" fill="#1C82A2"/>
<path d="M495.623 202.237C495.868 202.389 495.868 202.834 495.622 203.23C495.376 203.626 494.978 203.824 494.733 203.672C494.488 203.52 494.488 203.075 494.734 202.679C494.98 202.283 495.378 202.085 495.623 202.237Z" fill="#9CB0CD"/>
<path d="M495.678 205.896C495.319 206.076 495.126 206.568 495.444 206.813C496.329 207.497 497.535 207.725 498.665 207.313C500.414 206.675 501.316 204.741 500.679 202.993C500.339 202.061 499.629 201.369 498.774 201.025C498.375 200.864 498.032 201.362 498.065 201.791C498.124 202.533 497.894 203.433 497.372 204.273C496.907 205.023 496.295 205.586 495.678 205.896Z" fill="#163149"/>
<path opacity="0.49" d="M463.34 204.114C464.075 206.606 463.145 209.319 461.261 210.175C459.378 211.03 457.255 209.704 456.52 207.212C455.785 204.721 456.715 202.007 458.598 201.152C460.482 200.296 462.605 201.623 463.34 204.114Z" fill="#9AA0CA"/>
<path d="M463.367 203.819C464.025 206.049 463.151 208.495 461.416 209.284C459.68 210.072 457.74 208.904 457.082 206.674C456.424 204.444 457.297 201.998 459.033 201.209C460.768 200.421 462.709 201.589 463.367 203.819Z" fill="#385C7D"/>
<path d="M459.591 202.438C460.123 202.864 460.166 204.021 459.685 205.023C459.205 206.025 458.383 206.493 457.851 206.068C457.318 205.643 457.276 204.485 457.757 203.483C458.237 202.481 459.058 202.013 459.591 202.438Z" fill="#1C82A2"/>
<path d="M458.724 203.314C458.918 203.468 458.922 203.913 458.733 204.306C458.544 204.7 458.235 204.893 458.041 204.739C457.847 204.584 457.843 204.14 458.032 203.747C458.221 203.353 458.53 203.159 458.724 203.314Z" fill="#9CB0CD"/>
<path d="M458.917 206.897C458.593 207.129 458.364 207.622 458.631 207.886C459.332 208.579 460.28 208.82 461.161 208.42C462.525 207.8 463.212 205.876 462.695 204.123C462.437 203.251 461.931 202.586 461.318 202.213C460.967 201.999 460.601 202.455 460.633 202.883C460.689 203.627 460.519 204.53 460.117 205.368C459.787 206.055 459.359 206.582 458.917 206.897Z" fill="#163149"/>
</g>
<mask id="mask2" mask-type="alpha" maskUnits="userSpaceOnUse" x="298" y="346" width="372" height="375">
<path d="M670 720L670 384C670 363.013 652.987 346 632 346L336 346C315.013 346 298 363.013 298 384L298 720L670 720Z" fill="white"/>
</mask>
<g mask="url(#mask2)">
<path d="M487.438 656.934L380.339 619.761L297.488 636.297L401.035 677.57L487.438 656.934Z" fill="url(#paint12_linear)"/>
<path d="M463.122 655.704L379.86 626.8L321.461 638.484L401.581 670.395L463.122 655.704Z" fill="url(#paint13_linear)"/>
<path d="M401.04 677.57L400.841 764.257L484.593 739.693C485.037 739.563 485.345 739.161 485.356 738.698L487.229 656.968L401.04 677.57Z" fill="url(#paint14_linear)"/>
<path fill-rule="evenodd" clip-rule="evenodd" d="M403.324 679.377L484.873 659.884L483.088 737.749L403.136 761.198L403.324 679.377ZM401.04 677.57L487.229 656.968L485.356 738.698C485.345 739.161 485.037 739.563 484.593 739.693L400.841 764.257L401.04 677.57Z" fill="url(#paint15_linear)"/>
<path d="M474.914 731.822C475.136 731.756 475.29 731.555 475.295 731.324L476.68 670.006L411.599 685.534C411.36 685.591 411.191 685.805 411.191 686.05L411.093 749.91C411.093 750.265 411.434 750.521 411.775 750.421L474.914 731.822Z" fill="#3B566B"/>
<path d="M472.027 729.73C472.249 729.665 472.403 729.464 472.408 729.233L473.792 670.702L411.598 685.533C411.359 685.59 411.19 685.804 411.19 686.049L411.091 747.635L472.027 729.73Z" fill="#7C4E3D"/>
<path d="M472.027 729.73C472.249 729.665 472.403 729.464 472.408 729.233L473.792 670.702L411.598 685.533C411.359 685.59 411.19 685.804 411.19 686.049L411.091 747.635L472.027 729.73Z" fill="#6F4435"/>
<path fill-rule="evenodd" clip-rule="evenodd" d="M411.093 746.235L411.118 730.862L472.735 715.398L472.423 728.628L411.093 746.235ZM411.122 728.501L472.792 713.024L473.1 699.975L411.143 715.524L411.122 728.501ZM411.147 713.163L411.167 700.186L473.465 684.552L473.156 697.601L411.147 713.163ZM411.171 697.826L473.521 682.178L473.792 670.702L411.598 685.533C411.359 685.59 411.19 685.804 411.19 686.049L411.171 697.826Z" fill="url(#paint16_linear)"/>
<g style="mix-blend-mode:multiply" opacity="0.12">
<path d="M424.583 703.095C434.411 687.295 451.725 675.964 451.725 675.964L411.598 685.534C411.359 685.591 411.191 685.805 411.19 686.05L411.091 747.636C411.091 747.636 414.755 718.894 424.583 703.095Z" fill="#6C4334"/>
</g>
<path d="M401.04 677.569L400.84 764.256L298.031 718.966C297.851 718.879 297.736 718.699 297.732 718.5L297.732 636.366L401.04 677.569Z" fill="url(#paint17_linear)"/>
<path fill-rule="evenodd" clip-rule="evenodd" d="M400.84 764.256L298.031 719.466C297.851 719.379 297.736 719.199 297.732 719L297.732 636.366L401.04 677.569L400.84 764.256ZM300.094 639.772L398.747 679.119L398.56 760.604L301.682 713.544L300.094 639.772Z" fill="url(#paint18_linear)"/>
<path d="M390.452 684.303C390.655 684.384 390.788 684.58 390.787 684.799L390.592 747.089C390.591 747.48 390.181 747.736 389.828 747.565L352.77 729.568C352.587 729.479 352.471 729.293 352.471 729.09L352.471 669.992C352.471 669.617 352.85 669.36 353.198 669.499L390.452 684.303Z" fill="#456E81"/>
<path d="M390.452 684.303C390.655 684.383 390.788 684.58 390.787 684.798L390.589 744.55L355.556 727.477C355.374 727.388 355.258 727.203 355.258 727L355.258 670.304L390.452 684.303Z" fill="#6E4435"/>
<path d="M343.016 723.995C343.016 724.387 342.605 724.644 342.252 724.473L309.768 708.664C309.589 708.577 309.473 708.397 309.469 708.197L308.298 652.395C308.29 652.014 308.673 651.749 309.026 651.89L342.681 665.294C342.883 665.375 343.016 665.57 343.016 665.788L343.016 723.995Z" fill="#456E81"/>
<path d="M343.016 720.963L312.655 706.276C312.475 706.189 312.36 706.008 312.355 705.808L311.267 652.788L342.681 665.295C342.883 665.375 343.016 665.571 343.016 665.788L343.016 720.963Z" fill="#6E4435"/>
<path fill-rule="evenodd" clip-rule="evenodd" d="M312.656 706.276L343.017 720.963L343.017 708.275L312.116 694.126L312.356 705.808C312.36 706.008 312.476 706.189 312.656 706.276ZM312.077 692.22L343.017 706.387L343.017 692.792L311.817 679.561L312.077 692.22ZM343.017 676.151L343.017 690.928L311.779 677.68L311.494 663.793L343.017 676.151ZM343.017 674.308L343.017 665.788C343.017 665.571 342.884 665.375 342.682 665.295L311.268 652.788L311.456 661.934L343.017 674.308Z" fill="url(#paint19_linear)"/>
<path fill-rule="evenodd" clip-rule="evenodd" d="M355.258 679.106L355.258 670.304L390.452 684.303C390.655 684.383 390.788 684.58 390.787 684.798L390.76 693.025L355.258 679.106ZM390.754 694.867L390.7 711.15L355.258 696.118L355.258 680.95L390.754 694.867ZM390.694 713.012L355.258 697.983L355.258 711.992L390.643 728.195L390.694 713.012ZM390.637 730.08L390.589 744.55L355.556 727.477C355.374 727.388 355.258 727.203 355.258 727L355.258 713.88L390.637 730.08Z" fill="url(#paint20_linear)"/>
<g style="mix-blend-mode:multiply" opacity="0.12">
<path d="M390.789 684.436L390.61 738.9C390.61 738.9 387.685 719.831 378.136 704.036C368.587 688.241 355.257 682.701 355.257 682.701L355.258 670.304L390.789 684.436Z" fill="#6C4334"/>
</g>
<g style="mix-blend-mode:multiply" opacity="0.12">
<path d="M343.019 679.395C343.019 679.395 333.499 678.484 325.242 682.167C316.984 685.85 312.054 690.781 312.054 690.781L311.267 652.788L342.681 665.295C342.883 665.375 343.016 665.571 343.016 665.788L343.019 679.395Z" fill="#6C4334"/>
</g>
<path d="M394.139 665.187L310.206 631.773C311.698 616.06 321.841 601.143 335.465 592.094C344.515 586.027 358.04 584.834 360.327 585.431C382.702 591.497 415.321 600.646 437.498 606.911C415.023 611.585 399.012 638.933 394.139 665.187Z" fill="url(#paint21_linear)"/>
<path fill-rule="evenodd" clip-rule="evenodd" d="M309.966 616.08L400.325 651.155L401.125 649.093L310.767 614.018L309.966 616.08Z" fill="#663E30"/>
<path fill-rule="evenodd" clip-rule="evenodd" d="M319.604 601.883L410.725 636.101L411.502 634.03L320.382 599.813L319.604 601.883Z" fill="#663E30"/>
<path fill-rule="evenodd" clip-rule="evenodd" d="M328.177 588.07L420.556 617.637L421.23 615.53L328.851 585.964L328.177 588.07Z" fill="#663E30"/>
<path d="M308.187 629.897C308.187 629.897 308.217 613.076 325.918 595.673C340.438 581.452 357.443 582.546 359.134 582.646C360.824 582.745 363.425 584.394 363.823 586.383C362.556 586.034 360.165 585.401 360.165 585.401C357.42 585.079 343.023 585.729 331.289 595.176C319.554 604.623 312.886 617.654 310.996 630.98C310.14 630.648 308.187 629.897 308.187 629.897Z" fill="url(#paint22_linear)"/>
<path d="M350.382 580.359C353.068 581.055 356.593 581.821 359.676 582.716C353.373 582.378 343.123 583.343 333.874 589.508C320.274 598.608 310.14 613.483 308.301 629.114C308.247 629.569 308.511 630.001 308.936 630.17L392.28 663.332C392.882 663.572 393.552 663.203 393.677 662.568C398.705 637.095 413.975 610.994 435.409 605.122C436.702 604.724 438.194 604.823 439.487 605.122C453.21 609 462.658 611.685 462.658 611.685C430.536 606.912 410.943 628.944 400.901 677.718L297.676 636.646C297.676 596.37 331.786 574.094 350.382 580.359Z" fill="url(#paint23_linear)"/>
<path fill-rule="evenodd" clip-rule="evenodd" d="M349.797 582.261L349.848 582.275C362.688 585.859 375.531 589.42 388.371 592.981C408.153 598.466 427.93 603.949 447.683 609.515C437.769 610.906 429.231 615.486 422.039 623.272C411.84 634.312 404.481 651.653 399.442 674.996L299.678 635.302C300.047 616.405 308.174 601.77 318.39 592.525C328.957 582.962 341.399 579.432 349.747 582.244L349.797 582.261ZM297.676 636.646L400.901 677.718C401.038 677.054 401.176 676.396 401.316 675.742C410.421 633.278 427.02 611.703 453.166 611.062C456.2 610.988 459.363 611.195 462.658 611.685C459.58 610.81 456.501 609.938 453.422 609.068C431.935 602.996 410.415 597.029 388.894 591.062C376.055 587.502 363.215 583.942 350.382 580.359C331.786 574.094 297.676 596.37 297.676 636.646Z" fill="url(#paint24_linear)"/>
<path d="M487.023 657.132L400.902 677.717C400.902 677.717 410.946 610.193 452.415 610.193C488.912 610.193 487.023 657.132 487.023 657.132Z" fill="#5A8A9F"/>
<path fill-rule="evenodd" clip-rule="evenodd" d="M487.023 657.132L400.902 677.717C400.902 677.717 401.02 676.926 401.282 675.514C403.445 663.889 415.436 610.193 452.415 610.193C488.912 610.193 487.023 657.132 487.023 657.132ZM403.473 674.991C403.824 673.189 404.358 670.669 405.112 667.667C406.682 661.412 409.197 653.099 412.977 644.807C420.614 628.053 432.987 612.247 452.415 612.247C461.055 612.247 467.29 615.008 471.856 619.063C476.464 623.155 479.492 628.675 481.466 634.338C483.437 639.995 484.318 645.683 484.702 649.98C484.894 652.123 484.96 653.905 484.979 655.146C484.981 655.272 484.982 655.393 484.984 655.507L403.473 674.991Z" fill="url(#paint25_linear)"/>
<path d="M476.481 649.176C475.685 641.917 473.299 632.171 467.531 626.204C463.752 622.326 458.879 620.436 452.415 620.436C436.609 620.401 428.945 629.685 420.493 647.883C418.199 652.824 416.453 657.764 415.047 662.288C414.812 663.044 415.491 663.763 416.261 663.579L476.481 649.176Z" fill="url(#paint26_linear)"/>
<path d="M473.28 650.055C472.484 642.795 470.097 633.05 464.33 627.083C460.551 623.204 455.678 621.315 449.214 621.315C436.485 621.315 428.945 629.684 420.493 647.883C418.198 652.825 416.452 657.766 415.045 662.291C414.811 663.046 415.488 663.765 416.258 663.583L473.28 650.055Z" fill="#865442"/>
<path fill-rule="evenodd" clip-rule="evenodd" d="M435.09 659.134C431.201 653.621 429.625 645.984 431.402 638.205C432.9 631.648 436.5 626.216 441.127 622.708C432.977 625.768 427.036 633.942 420.559 647.886C418.265 652.828 416.519 657.769 415.112 662.294C414.878 663.049 415.555 663.768 416.325 663.585L435.09 659.134ZM471.67 650.456L473.347 650.058C473.209 648.801 473.023 647.469 472.781 646.096C472.694 646.593 472.594 647.09 472.48 647.589C472.256 648.571 471.985 649.527 471.67 650.456Z" fill="#6C4334"/>
<g filter="url(#filter9_i)">
<path fill-rule="evenodd" clip-rule="evenodd" d="M570.404 376.023C570.441 375 570.477 374.01 570.512 373.055C572.062 333.283 616.923 342.427 614.942 396.419C609.119 555.142 532.396 651.55 494.127 660.583C483.043 663.331 470.074 664.69 463.858 664.345C457.643 664 448.375 663.975 439.684 658.992C431.577 654.375 434.511 648.681 440.644 651.349C445.203 653.243 447.014 653.976 454.764 655.092C455.275 655.142 455.734 654.672 455.682 654.151C455.61 653.834 455.324 653.6 455.027 653.467C448.631 652.424 441.655 651.036 436.45 647.324C428.832 641.931 432.296 635.051 437.798 638.894C437.913 638.975 438.027 639.054 438.14 639.133C442.747 642.348 445.349 644.164 454.894 645.407C455.302 645.448 455.639 645.171 455.679 644.763C455.72 644.354 455.443 644.017 455.045 643.875C448.546 642.821 440.513 640.585 435.716 635.882C430.642 630.842 434.945 624.87 440.774 629.572C444.977 632.978 448.975 635.332 458.048 636.433C458.355 636.464 458.681 636.29 458.916 636.003C459.283 635.42 458.935 634.767 458.322 634.707C453.948 634.069 449.523 632.91 446.343 630.637C439.676 626.059 443.09 619.69 448.724 623.237C470.215 636.499 485.501 623.769 473.52 617.636C461.529 611.604 470.134 606.985 477.043 609.111C477.389 609.216 477.825 609.335 478.334 609.473C482.271 610.54 490.588 612.794 495.73 619.551C495.761 619.543 495.793 619.534 495.824 619.526C559.789 540.533 568.564 427.196 570.404 376.023Z" fill="url(#paint27_linear)"/>
</g>
</g>
<path d="M222 162C222 178.569 208.569 192 192 192L60 192C43.4314 192 30 178.569 30 162L30 -1.67852e-05L222 0L222 162Z" fill="#95F2FF"/>
<path d="M337.963 227.638C343.292 231.162 343.361 238.862 338.076 242.449C316.994 256.756 300.829 265.958 277.259 277.111C271.463 279.853 264.723 275.944 264.304 269.608C262.603 243.873 262.544 225.453 264.256 200.346C264.689 194.004 271.46 190.13 277.241 192.918C299.633 203.714 315.77 212.965 337.963 227.638Z" fill="#FFE179"/>
<path d="M170.648 487.208C166.805 490.255 163.096 492.489 154.735 496.349C154.263 496.552 153.656 496.281 153.589 495.672C153.589 495.333 153.724 494.995 154.061 494.859C159.994 492.151 168.963 487.479 173.076 482.468C179.077 475.155 173.885 469.4 169.502 474.546C165.658 479.083 161.208 483.01 152.105 486.937C151.768 487.073 151.296 486.937 151.161 486.531C150.959 486.192 151.161 485.718 151.498 485.583C157.567 482.874 164.782 478.541 168.153 472.582C171.727 466.353 166.063 461.613 161.613 467.775C158.376 472.244 155.207 475.562 146.643 479.015C146.306 479.15 145.969 479.083 145.699 478.812C145.227 478.406 145.362 477.593 145.969 477.322C150.015 475.494 154.061 473.124 156.623 470.145C163.501 462.155 157.5 457.957 152.375 463.577C146.509 470.009 135.248 473.598 126.482 475.426C124.594 475.833 123.313 475.291 124.796 473.801C127.156 471.431 129.314 468.655 130.056 465.405C130.73 462.561 128.842 460.53 126.28 462.155C120.683 465.744 108.951 472.582 99.9824 478.744C88.5195 486.666 90.0703 503.12 90.0703 503.12L90.0703 720H136.462C136.462 720 135.652 528.309 135.383 522.079C135.18 516.866 141.789 512.938 148.262 509.282C148.262 509.282 166.4 501.495 173.548 494.318C180.291 487.75 175.975 482.942 170.648 487.208Z" fill="url(#paint28_linear)"/>
<path d="M112.643 479.367C106.325 476.273 96.8163 483.132 97.2252 491.155C97.634 499.179 110.805 508.788 126.834 509.581C137.131 510.09 150.521 506.113 152.972 501.358C155.228 496.982 143.477 502.349 128.06 497.594C117.077 494.207 123.364 484.617 112.643 479.367Z" fill="url(#paint29_linear)"/>
<path d="M168.193 490.265C170.612 488.404 172.475 486.786 173.724 486.607C174.973 486.428 175.947 487.93 174.572 489.194C171.806 491.736 166.989 494.368 163.152 495.974C159.316 497.58 154.094 497.517 156.818 496.376C160.119 494.993 165.293 492.495 168.193 490.265Z" fill="url(#paint30_linear)"/>
<path d="M167.442 478.099C169.346 476.117 171.286 473.798 172.386 473.448C173.487 473.098 174.492 474.095 173.546 475.478C171.182 478.935 168.038 480.897 164.514 482.882C161.216 484.74 155.734 485.943 158.135 484.734C161.167 483.205 165.158 480.475 167.442 478.099Z" fill="url(#paint31_linear)"/>
<path d="M159.718 471.486C160.949 470.322 162.06 468.765 163.309 467.07C164.558 465.375 167.881 465.174 166.396 467.543C164.784 470.115 160.788 472.802 159.026 473.605C157.556 474.275 155.523 475.07 157.577 473.337C158.29 472.735 158.893 472.267 159.718 471.486Z" fill="url(#paint32_linear)"/>
<path d="M109.414 473.605C115.275 469.903 122.752 464.92 125.607 463.181C128.461 461.441 129 463.348 127.539 465.309C126.475 466.737 122.407 468.508 120.531 470.86C119.677 471.931 120.43 475.6 118.367 474.831C113.726 473.101 108.453 474.211 109.414 473.605Z" fill="url(#paint33_linear)"/>
<path d="M124.536 474.359C124.193 475.046 124.746 475.416 125.35 475.492C119.579 476.323 113.883 477.443 116.858 476.118C120.198 474.631 122.224 473.157 123.764 471.786C126.509 469.341 129.426 466.252 130.198 463.722C130.284 464.751 130.133 466.611 128.954 468.719C127.539 471.249 124.965 473.501 124.536 474.359Z" fill="#D6D9EF"/>
<path d="M144.462 478.529C145.284 479.351 145.882 479.285 146.683 478.967C145.701 479.134 144.87 477.834 146.38 477.064C148.668 475.897 151.865 474.828 155.808 471.066C153.028 473.257 148.435 475.039 146.29 475.976C144.181 476.897 143.434 477.502 144.462 478.529Z" fill="#D6D9EF"/>
<path d="M150.172 486.43C150.535 486.89 151.381 487.155 152.182 486.838C151.2 487.004 150.8 485.803 151.721 485.41C153.882 484.489 157.519 482.91 162.517 478.985C159.004 481.602 154.055 483.484 151.91 484.42C149.801 485.341 149.81 485.969 150.172 486.43Z" fill="#D6D9EF"/>
<path d="M152.847 495.82C153.21 496.281 153.986 496.474 154.658 496.25C153.676 496.416 153.368 495.02 154.29 494.627C156.45 493.706 160.23 491.928 164.45 489.335C160.395 491.386 156.53 492.867 154.385 493.804C152.276 494.724 152.485 495.359 152.847 495.82Z" fill="#D6D9EF"/>
<path d="M152.067 464.95C153.361 463.606 154.276 462.586 155.793 462.073C157.309 461.56 158.233 462.067 157.666 462.965C157.13 463.813 154.998 465.001 152.871 465.508C151.934 465.731 151.488 465.552 152.067 464.95Z" fill="#F3F7FF"/>
<path d="M129.118 390.179L129.118 336.687M132.265 346.126H147.998M132.265 361.859H143.278M147.998 408.272C147.998 418.265 139.897 426.365 129.905 426.365C119.913 426.365 111.812 418.265 111.812 408.272C111.812 398.28 119.913 390.179 129.905 390.179C139.897 390.179 147.998 398.28 147.998 408.272Z" stroke="white" stroke-width="8" stroke-linecap="round"/>
<path d="M153.345 86.5322C159.962 86.5322 165.304 90.7851 165.304 96.0569V132.073C165.304 137.345 159.962 141.598 153.345 141.598H96.9767C90.3596 141.598 85.0659 137.345 85.0659 132.073V96.0569C85.0659 90.7851 90.4086 86.5322 96.9767 86.5322H153.345Z" fill="white"/>
<path d="M153.345 67.6523H96.9767C90.3596 67.6523 85.0659 71.7715 85.0659 76.8776V95.9718C85.0659 90.8657 90.4086 86.7465 96.9767 86.7465H153.345C159.962 86.7465 165.304 90.8657 165.304 95.9718V76.8776C165.304 71.8144 159.962 67.6523 153.345 67.6523Z" fill="#57E1F4"/>
<path d="M125.401 37.7598C110.726 37.7598 100.799 48.5509 100.799 61.9848V75.5631V77.6773C101.662 78.2499 103.13 78.6022 104.856 78.6022C106.539 78.6022 108.05 78.2499 108.87 77.6773V75.475V62.7335C108.87 55.5541 114.222 46.701 124.667 46.745C135.112 46.7891 141.543 55.5982 141.543 62.7335V75.5191V77.7213C142.406 78.2499 143.874 78.6463 145.557 78.6463C147.241 78.6463 148.708 78.2939 149.571 77.7213V75.5191V61.9848C149.528 48.5509 140.076 37.7598 125.401 37.7598Z" fill="white"/>
<path d="M133.839 107.117C133.839 102.634 130.34 99.1187 125.979 99.1187C122.653 99.1187 119.76 101.14 118.594 104.304C117.169 108.304 118.982 112.61 122.481 114.324L119.501 128.431C119.285 129.53 120.105 130.585 121.185 130.585H130.686C131.809 130.585 132.629 129.53 132.37 128.431L129.39 114.324C132.068 112.962 133.752 110.149 133.839 107.117Z" fill="#57E1F4"/>
<defs>
<filter id="filter0_f" x="223.656" y="131.422" width="472.283" height="515.73" filterUnits="userSpaceOnUse" color-interpolation-filters="sRGB">
<feFlood flood-opacity="0" result="BackgroundImageFix"/>
<feBlend mode="normal" in="SourceGraphic" in2="BackgroundImageFix" result="shape"/>
<feGaussianBlur stdDeviation="12.5" result="effect1_foregroundBlur"/>
</filter>
<filter id="filter1_f" x="246.163" y="441.971" width="229.348" height="216.564" filterUnits="userSpaceOnUse" color-interpolation-filters="sRGB">
<feFlood flood-opacity="0" result="BackgroundImageFix"/>
<feBlend mode="normal" in="SourceGraphic" in2="BackgroundImageFix" result="shape"/>
<feGaussianBlur stdDeviation="2.78571" result="effect1_foregroundBlur"/>
</filter>
<filter id="filter2_f" x="240.826" y="486.864" width="352.57" height="191.842" filterUnits="userSpaceOnUse" color-interpolation-filters="sRGB">
<feFlood flood-opacity="0" result="BackgroundImageFix"/>
<feBlend mode="normal" in="SourceGraphic" in2="BackgroundImageFix" result="shape"/>
<feGaussianBlur stdDeviation="10" result="effect1_foregroundBlur"/>
</filter>
<filter id="filter3_f" x="303.306" y="318.836" width="247.688" height="314.15" filterUnits="userSpaceOnUse" color-interpolation-filters="sRGB">
<feFlood flood-opacity="0" result="BackgroundImageFix"/>
<feBlend mode="normal" in="SourceGraphic" in2="BackgroundImageFix" result="shape"/>
<feGaussianBlur stdDeviation="9.28571" result="effect1_foregroundBlur"/>
</filter>
<filter id="filter4_f" x="315.32" y="352.453" width="149.737" height="267.333" filterUnits="userSpaceOnUse" color-interpolation-filters="sRGB">
<feFlood flood-opacity="0" result="BackgroundImageFix"/>
<feBlend mode="normal" in="SourceGraphic" in2="BackgroundImageFix" result="shape"/>
<feGaussianBlur stdDeviation="3.71429" result="effect1_foregroundBlur"/>
</filter>
<filter id="filter5_f" x="356.534" y="332.058" width="247.688" height="314.15" filterUnits="userSpaceOnUse" color-interpolation-filters="sRGB">
<feFlood flood-opacity="0" result="BackgroundImageFix"/>
<feBlend mode="normal" in="SourceGraphic" in2="BackgroundImageFix" result="shape"/>
<feGaussianBlur stdDeviation="9.28571" result="effect1_foregroundBlur"/>
</filter>
<filter id="filter6_i" x="303.919" y="353.617" width="231.059" height="304.821" filterUnits="userSpaceOnUse" color-interpolation-filters="sRGB">
<feFlood flood-opacity="0" result="BackgroundImageFix"/>
<feBlend mode="normal" in="SourceGraphic" in2="BackgroundImageFix" result="shape"/>
<feColorMatrix in="SourceAlpha" type="matrix" values="0 0 0 0 0 0 0 0 0 0 0 0 0 0 0 0 0 0 127 0" result="hardAlpha"/>
<feOffset dx="3.71429" dy="-3.71429"/>
<feGaussianBlur stdDeviation="3.25"/>
<feComposite in2="hardAlpha" operator="arithmetic" k2="-1" k3="1"/>
<feColorMatrix type="matrix" values="0 0 0 0 0.537622 0 0 0 0 0.561519 0 0 0 0 0.720833 0 0 0 0.45 0"/>
<feBlend mode="normal" in2="shape" result="effect1_innerShadow"/>
</filter>
<filter id="filter7_f" x="422.633" y="215.013" width="156.749" height="119.63" filterUnits="userSpaceOnUse" color-interpolation-filters="sRGB">
<feFlood flood-opacity="0" result="BackgroundImageFix"/>
<feBlend mode="normal" in="SourceGraphic" in2="BackgroundImageFix" result="shape"/>
<feGaussianBlur stdDeviation="1.85714" result="effect1_foregroundBlur"/>
</filter>
<filter id="filter8_i" x="415.386" y="136.999" width="190.424" height="191.543" filterUnits="userSpaceOnUse" color-interpolation-filters="sRGB">
<feFlood flood-opacity="0" result="BackgroundImageFix"/>
<feBlend mode="normal" in="SourceGraphic" in2="BackgroundImageFix" result="shape"/>
<feColorMatrix in="SourceAlpha" type="matrix" values="0 0 0 0 0 0 0 0 0 0 0 0 0 0 0 0 0 0 127 0" result="hardAlpha"/>
<feOffset dx="0.928571" dy="-1.85714"/>
<feGaussianBlur stdDeviation="5.57143"/>
<feComposite in2="hardAlpha" operator="arithmetic" k2="-1" k3="1"/>
<feColorMatrix type="matrix" values="0 0 0 0 0.611765 0 0 0 0 0.635294 0 0 0 0 0.8 0 0 0 1 0"/>
<feBlend mode="normal" in2="shape" result="effect1_innerShadow"/>
</filter>
<filter id="filter9_i" x="430" y="328.571" width="193.118" height="348.31" filterUnits="userSpaceOnUse" color-interpolation-filters="sRGB">
<feFlood flood-opacity="0" result="BackgroundImageFix"/>
<feBlend mode="normal" in="SourceGraphic" in2="BackgroundImageFix" result="shape"/>
<feColorMatrix in="SourceAlpha" type="matrix" values="0 0 0 0 0 0 0 0 0 0 0 0 0 0 0 0 0 0 127 0" result="hardAlpha"/>
<feOffset dx="2.78571" dy="-8.35714"/>
<feGaussianBlur stdDeviation="3.71429"/>
<feComposite in2="hardAlpha" operator="arithmetic" k2="-1" k3="1"/>
<feColorMatrix type="matrix" values="0 0 0 0 0.654902 0 0 0 0 0.67451 0 0 0 0 0.819608 0 0 0 0.44 0"/>
<feBlend mode="normal" in2="shape" result="effect1_innerShadow"/>
</filter>
<linearGradient id="paint0_linear" x1="599.11" y1="395.759" x2="493.688" y2="-26.151" gradientUnits="userSpaceOnUse">
<stop stop-color="#1891FE"/>
<stop offset="1" stop-color="#5DC1FC"/>
</linearGradient>
<linearGradient id="paint1_linear" x1="670.361" y1="648.988" x2="297.488" y2="648.988" gradientUnits="userSpaceOnUse">
<stop stop-color="#84ECD0"/>
<stop offset="1" stop-color="#4BE0D7"/>
</linearGradient>
<linearGradient id="paint2_linear" x1="380.373" y1="172.483" x2="417.483" y2="505.134" gradientUnits="userSpaceOnUse">
<stop stop-color="#2B85DC" stop-opacity="0.87"/>
<stop offset="1" stop-color="#395590"/>
</linearGradient>
<linearGradient id="paint3_linear" x1="563.252" y1="256.19" x2="435.968" y2="586.371" gradientUnits="userSpaceOnUse">
<stop stop-color="#C9CBE9"/>
<stop offset="1" stop-color="#D9DBF0"/>
</linearGradient>
<radialGradient id="paint4_radial" cx="0" cy="0" r="1" gradientUnits="userSpaceOnUse" gradientTransform="translate(623.978 340.654) rotate(130.568) scale(181.151 152.296)">
<stop stop-color="#EAEDF9"/>
<stop offset="1" stop-color="#EAEDF9" stop-opacity="0"/>
</radialGradient>
<linearGradient id="paint5_linear" x1="385.236" y1="280.681" x2="379.464" y2="449.517" gradientUnits="userSpaceOnUse">
<stop stop-color="#EDEFFF"/>
<stop offset="1" stop-color="#C6C9E4"/>
</linearGradient>
<linearGradient id="paint6_linear" x1="362.922" y1="371.869" x2="411.544" y2="411.547" gradientUnits="userSpaceOnUse">
<stop stop-color="#F4F7FE"/>
<stop offset="1" stop-color="#F4F7FE" stop-opacity="0"/>
</linearGradient>
<linearGradient id="paint7_linear" x1="487.326" y1="362.082" x2="382.646" y2="638.646" gradientUnits="userSpaceOnUse">
<stop stop-color="#D9DBF0"/>
<stop offset="1" stop-color="#BEC0DE"/>
</linearGradient>
<linearGradient id="paint8_linear" x1="440.255" y1="359.156" x2="437.923" y2="525.751" gradientUnits="userSpaceOnUse">
<stop stop-color="#F4F6FF"/>
<stop offset="1" stop-color="#F4F7FE" stop-opacity="0"/>
</linearGradient>
<linearGradient id="paint9_linear" x1="458.738" y1="595.072" x2="497.09" y2="594.001" gradientUnits="userSpaceOnUse">
<stop stop-color="#A4AACF"/>
<stop offset="1" stop-color="#C6CAE4" stop-opacity="0.34"/>
</linearGradient>
<radialGradient id="paint10_radial" cx="0" cy="0" r="1" gradientUnits="userSpaceOnUse" gradientTransform="translate(435.587 272.582) rotate(-38.6812) scale(111.292 111.041)">
<stop stop-color="#EDEFF9"/>
<stop offset="1" stop-color="#F1F2F8"/>
</radialGradient>
<linearGradient id="paint11_linear" x1="505.714" y1="156.067" x2="460.819" y2="175.681" gradientUnits="userSpaceOnUse">
<stop stop-color="#4BE0D7"/>
<stop offset="1" stop-color="#4BBCE0"/>
</linearGradient>
<linearGradient id="paint12_linear" x1="392.463" y1="629.895" x2="392.463" y2="677.57" gradientUnits="userSpaceOnUse">
<stop stop-color="#A1C7D6"/>
<stop offset="1" stop-color="#C6D7DE"/>
</linearGradient>
<linearGradient id="paint13_linear" x1="392.292" y1="626.8" x2="392.292" y2="656.714" gradientUnits="userSpaceOnUse">
<stop stop-color="#8BB4C4"/>
<stop offset="1" stop-color="#456E81"/>
</linearGradient>
<linearGradient id="paint14_linear" x1="403.992" y1="679.243" x2="481.416" y2="741.208" gradientUnits="userSpaceOnUse">
<stop stop-color="#83AFC3"/>
<stop offset="1" stop-color="#518298"/>
</linearGradient>
<linearGradient id="paint15_linear" x1="400.529" y1="678.29" x2="418.233" y2="688.406" gradientUnits="userSpaceOnUse">
<stop stop-color="#FEFFFF"/>
<stop offset="1" stop-color="#FEFFFF" stop-opacity="0"/>
</linearGradient>
<linearGradient id="paint16_linear" x1="468.768" y1="672.983" x2="415.746" y2="747.852" gradientUnits="userSpaceOnUse">
<stop stop-color="#8F5B48"/>
<stop offset="1" stop-color="#7C4E3D"/>
</linearGradient>
<linearGradient id="paint17_linear" x1="300.759" y1="641.681" x2="400.159" y2="763.056" gradientUnits="userSpaceOnUse">
<stop stop-color="#80ACC0"/>
<stop offset="1" stop-color="#CBD9E0"/>
</linearGradient>
<linearGradient id="paint18_linear" x1="402.109" y1="679.87" x2="364.173" y2="700.419" gradientUnits="userSpaceOnUse">
<stop stop-color="white" stop-opacity="0.77"/>
<stop offset="1" stop-color="white" stop-opacity="0"/>
</linearGradient>
<linearGradient id="paint19_linear" x1="327.142" y1="652.788" x2="327.142" y2="720.963" gradientUnits="userSpaceOnUse">
<stop stop-color="#B57550"/>
<stop offset="1" stop-color="#845543"/>
</linearGradient>
<linearGradient id="paint20_linear" x1="373.022" y1="670.304" x2="373.022" y2="744.55" gradientUnits="userSpaceOnUse">
<stop stop-color="#B57550"/>
<stop offset="1" stop-color="#845543"/>
</linearGradient>
<linearGradient id="paint21_linear" x1="353.639" y1="589.04" x2="389.967" y2="661.063" gradientUnits="userSpaceOnUse">
<stop stop-color="#875743"/>
<stop offset="1" stop-color="#A66B4C"/>
</linearGradient>
<linearGradient id="paint22_linear" x1="336.005" y1="582.588" x2="362.119" y2="607.66" gradientUnits="userSpaceOnUse">
<stop stop-color="#456E81"/>
<stop offset="1" stop-color="#2F3950"/>
</linearGradient>
<linearGradient id="paint23_linear" x1="351.447" y1="579.916" x2="373.599" y2="668.093" gradientUnits="userSpaceOnUse">
<stop stop-color="#80ACC0"/>
<stop offset="1" stop-color="#C6D6DE"/>
</linearGradient>
<linearGradient id="paint24_linear" x1="399.98" y1="677.78" x2="395.723" y2="631.251" gradientUnits="userSpaceOnUse">
<stop stop-color="#FBFCFD"/>
<stop offset="1" stop-color="#FBFCFD" stop-opacity="0"/>
</linearGradient>
<linearGradient id="paint25_linear" x1="402.641" y1="675.79" x2="431.972" y2="666.093" gradientUnits="userSpaceOnUse">
<stop stop-color="white"/>
<stop offset="1" stop-color="#CED7EB" stop-opacity="0"/>
</linearGradient>
<linearGradient id="paint26_linear" x1="445.503" y1="620.436" x2="468.684" y2="647.97" gradientUnits="userSpaceOnUse">
<stop stop-color="#456E81"/>
<stop offset="1" stop-color="#2F3950"/>
</linearGradient>
<linearGradient id="paint27_linear" x1="675.671" y1="387.151" x2="455.124" y2="645.63" gradientUnits="userSpaceOnUse">
<stop stop-color="#CCCFEA"/>
<stop offset="1" stop-color="#D9DBF0"/>
</linearGradient>
<linearGradient id="paint28_linear" x1="133.5" y1="493.066" x2="133.5" y2="596.753" gradientUnits="userSpaceOnUse">
<stop stop-color="#EAF1FF"/>
<stop offset="1" stop-color="#D7D9F0"/>
</linearGradient>
<linearGradient id="paint29_linear" x1="132.376" y1="493.598" x2="122.743" y2="518.016" gradientUnits="userSpaceOnUse">
<stop stop-color="#F3F7FF"/>
<stop offset="1" stop-color="#F3F7FF" stop-opacity="0"/>
</linearGradient>
<linearGradient id="paint30_linear" x1="173.93" y1="487.661" x2="158.137" y2="497.406" gradientUnits="userSpaceOnUse">
<stop stop-color="#F3F7FF"/>
<stop offset="1" stop-color="#F3F7FF" stop-opacity="0"/>
</linearGradient>
<linearGradient id="paint31_linear" x1="172.026" y1="474.668" x2="157.129" y2="487.213" gradientUnits="userSpaceOnUse">
<stop stop-color="#F3F7FF"/>
<stop offset="1" stop-color="#F3F7FF" stop-opacity="0"/>
</linearGradient>
<linearGradient id="paint32_linear" x1="165.305" y1="466.941" x2="156.121" y2="475.005" gradientUnits="userSpaceOnUse">
<stop stop-color="#F3F7FF"/>
<stop offset="1" stop-color="#F3F7FF" stop-opacity="0"/>
</linearGradient>
<linearGradient id="paint33_linear" x1="125.767" y1="466.492" x2="118.48" y2="475.067" gradientUnits="userSpaceOnUse">
<stop stop-color="#F3F7FF"/>
<stop offset="1" stop-color="#F3F7FF" stop-opacity="0"/>
</linearGradient>
</defs>
</svg>
