<svg width="670" height="720" viewBox="0 0 670 720" fill="none" xmlns="http://www.w3.org/2000/svg">
<path d="M622.998 440.272C622.998 408.641 597.332 383 565.671 383L148.295 383C116.634 383 90.9682 408.641 90.9682 440.272L90.9682 553.45C90.9682 585.08 116.634 610.721 148.295 610.721L565.671 610.721C597.332 610.721 622.998 585.08 622.998 553.45L622.998 440.272Z" fill="url(#paint0_linear)"/>
<mask id="mask0" mask-type="alpha" maskUnits="userSpaceOnUse" x="90" y="383" width="533" height="228">
<path d="M622.998 440.272C622.998 408.641 597.332 383 565.671 383L148.295 383C116.634 383 90.9682 408.641 90.9682 440.272L90.9682 553.45C90.9682 585.08 116.634 610.721 148.295 610.721L565.671 610.721C597.332 610.721 622.998 585.08 622.998 553.45L622.998 440.272Z" fill="url(#paint1_linear)"/>
</mask>
<g mask="url(#mask0)">
<g filter="url(#filter0_f)">
<path fill-rule="evenodd" clip-rule="evenodd" d="M148.148 636.026C148.413 620.031 154.109 596.976 165.497 578.966C166.146 577.939 166.797 576.914 167.448 575.89C181.072 554.447 194.549 533.234 185.039 503.317C175.075 471.971 182.579 442.632 210.764 432.658C238.949 422.684 275.373 441.041 282.552 483.357C285.803 502.52 286.078 519.082 284.567 533.935C301.752 537.713 320.848 538.419 339.706 531.499C360.046 524.035 368.973 514.029 376.734 505.329C379.396 502.345 381.921 499.515 384.723 496.993C394.655 488.054 403.969 505.469 398.983 514.245L398.879 514.428C393.465 523.958 380.809 546.237 346.277 557.238C323.826 564.391 305.349 563.157 279.877 560.226C276.735 572.695 272.651 584.12 268.661 595.28C263.831 608.789 259.14 621.911 256.429 636.026C252.396 658.845 147.883 652.02 148.148 636.026Z" fill="#13DED2"/>
</g>
</g>
<path d="M527.268 482.59L516.403 459.516C516.194 459.062 516.223 458.604 516.3 458.332L589.826 447.626C589.983 447.913 590.073 448.493 589.559 448.833L527.268 482.59Z" fill="url(#paint2_linear)"/>
<path d="M525.411 448.732L516.794 457.495C516.483 457.809 516.382 458.081 516.303 458.332L589.826 447.634C589.603 447.303 589.362 447.223 589.021 447.221L530.193 446.875C527.958 446.861 526.631 447.5 525.411 448.732Z" fill="white"/>
<path d="M519.946 484.502L511.264 464.324L589.892 447.8C589.957 448.007 590.066 448.552 589.517 448.863L524.327 485.778C522.904 486.583 520.947 486.751 519.946 484.502Z" fill="url(#paint3_linear)"/>
<path d="M589.896 447.796C589.919 447.828 589.954 448.028 589.954 448.133L493.002 482.258C491.136 482.923 491.353 482.087 492.779 480.71L510.215 463.812C510.598 463.44 511.082 463.188 511.606 463.085L589.896 447.796Z" fill="white"/>
<path d="M367.495 522.033C345.811 529.991 323.811 527.864 304.765 522.579L298.419 549.673L299.127 549.757C329.181 553.325 349.183 555.7 374.066 547.773C408.598 536.772 421.254 514.492 426.668 504.962L426.772 504.779C431.758 496.004 422.444 478.588 412.512 487.527C401.543 497.4 394.812 512.009 367.495 522.033Z" fill="url(#paint4_linear)"/>
<path fill-rule="evenodd" clip-rule="evenodd" d="M301.98 547.301C330.693 550.701 349.682 552.634 373.213 545.138C406.671 534.478 418.868 513.008 424.168 503.677L424.184 503.649L424.288 503.466C425.149 501.95 425.481 499.879 425.205 497.577C424.93 495.29 424.079 493.011 422.875 491.24C421.652 489.441 420.254 488.427 418.997 488.133C417.895 487.875 416.386 488.046 414.461 489.779C411.925 492.061 409.547 494.728 406.981 497.607C399.161 506.379 389.595 517.11 368.509 524.848C347.166 532.68 325.632 531.038 306.914 526.239L301.98 547.301Z" fill="url(#paint5_linear)"/>
<g style="mix-blend-mode:multiply" opacity="0.55">
<path fill-rule="evenodd" clip-rule="evenodd" d="M326.753 552.616C316.372 545.962 316.234 533.598 316.418 525.297C312.434 524.551 308.541 523.627 304.765 522.579L298.419 549.673L299.127 549.757C309.293 550.964 318.309 552.034 326.753 552.616Z" fill="#99A0C2"/>
</g>
<path d="M193.477 569.449C182.087 587.444 176.391 610.48 176.126 626.462C175.86 642.444 280.388 649.263 284.421 626.462C293.197 580.817 322.715 545.569 310.548 473.917C303.368 431.636 266.938 413.293 238.75 423.259C210.561 433.225 203.056 462.54 213.022 493.861C222.988 525.182 207.714 546.955 193.477 569.449Z" fill="url(#paint6_linear)"/>
<path d="M197.289 567.106C186.481 584.184 180.521 608.003 179.917 625.784C179.14 640.544 279.87 645.205 282.2 625.266C287.379 592.897 319.938 544.444 308.391 476.446C301.577 436.32 266.299 416.393 239.547 425.851C212.796 435.308 206.38 465.649 215.838 495.373C225.295 525.096 210.8 545.759 197.289 567.106Z" fill="url(#paint7_radial)"/>
<path d="M299.398 467.811C302.699 488.073 289.914 507.018 270.841 510.125C251.768 513.232 233.631 499.324 230.33 479.062C227.029 458.8 239.815 439.855 258.888 436.748C277.96 433.641 296.098 447.548 299.398 467.811Z" fill="url(#paint8_linear)"/>
<path d="M297.387 467.856C300.573 487.409 288.481 505.65 270.38 508.599C252.279 511.548 235.023 498.087 231.838 478.534C228.652 458.982 240.744 440.74 258.845 437.792C276.946 434.843 294.202 448.303 297.387 467.856Z" fill="#108CFF"/>
<path opacity="0.24" d="M292.764 457.808C298.356 465.468 298.531 489.383 284.798 500.092C271.064 510.802 254.616 508.212 246.362 499.718C238.107 491.223 273.69 491.436 278.731 463.814C283.771 436.191 287.172 450.148 292.764 457.808Z" fill="#1D5CD8"/>
<path opacity="0.5" d="M261.053 445.092C270.015 452.446 252.473 473.128 242.591 466.924C232.71 460.719 252.09 437.738 261.053 445.092Z" fill="#42A3FF"/>
<path fill-rule="evenodd" clip-rule="evenodd" d="M292.468 454.332C285.125 444.162 273.056 438.406 260.587 440.438C242.486 443.386 230.394 461.627 233.579 481.18C234.386 486.136 236.097 490.7 238.497 494.704C235.18 490.111 232.827 484.618 231.836 478.535C228.651 458.982 240.743 440.741 258.844 437.792C272.357 435.591 285.4 442.535 292.468 454.332Z" fill="url(#paint9_linear)"/>
<path opacity="0.49" d="M258.336 477.455C258.65 479.384 257.339 481.204 255.407 481.518C253.475 481.833 251.654 480.524 251.34 478.595C251.025 476.666 252.337 474.846 254.269 474.532C256.201 474.217 258.022 475.526 258.336 477.455Z" fill="#1D5ED9"/>
<path d="M257.704 477.259C257.992 479.027 256.79 480.694 255.02 480.982C253.249 481.271 251.58 480.071 251.292 478.303C251.004 476.535 252.206 474.868 253.976 474.579C255.747 474.291 257.416 475.49 257.704 477.259Z" fill="#354781"/>
<path d="M254.32 475.588C254.762 475.995 254.627 476.861 254.018 477.523C253.409 478.185 252.557 478.392 252.114 477.985C251.672 477.578 251.807 476.712 252.416 476.05C253.025 475.388 253.878 475.181 254.32 475.588Z" fill="#1C5AA2"/>
<path d="M253.363 476.09C253.524 476.238 253.46 476.569 253.221 476.829C252.982 477.089 252.658 477.179 252.497 477.031C252.336 476.884 252.4 476.553 252.639 476.293C252.878 476.033 253.202 475.942 253.363 476.09Z" fill="#9CB0CD"/>
<path d="M253.043 478.77C252.689 478.897 252.429 479.324 252.696 479.589C253.257 480.146 254.068 480.435 254.909 480.298C256.301 480.071 257.246 478.76 257.02 477.37C256.91 476.695 256.544 476.125 256.037 475.744C255.716 475.501 255.295 475.897 255.217 476.292C255.116 476.804 254.829 477.363 254.378 477.853C253.972 478.295 253.5 478.608 253.043 478.77Z" fill="#000E45"/>
<path d="M290.965 467.754C291.279 469.684 290.204 471.466 288.564 471.733C286.924 472 285.339 470.652 285.025 468.721C284.71 466.791 285.785 465.009 287.425 464.742C289.065 464.475 290.65 465.823 290.965 467.754Z" fill="#2273EC"/>
<path d="M290.254 467.565C290.542 469.333 289.599 470.958 288.149 471.194C286.698 471.431 285.288 470.189 285 468.421C284.712 466.653 285.655 465.028 287.106 464.791C288.556 464.555 289.966 465.797 290.254 467.565Z" fill="#354781"/>
<path d="M286.636 469.479C286.382 469.558 286.168 469.904 286.365 470.084C286.841 470.517 287.445 470.737 288.058 470.637C289.256 470.442 290.035 469.099 289.797 467.639C289.673 466.876 289.296 466.232 288.793 465.818C288.578 465.641 288.309 465.934 288.358 466.208C288.441 466.669 288.398 467.208 288.209 467.748C287.898 468.632 287.278 469.28 286.636 469.479Z" fill="#000E45"/>
<path opacity="0.54" d="M287.207 465.644C287.764 465.829 287.966 466.689 287.658 467.566C287.351 468.443 286.65 469.004 286.093 468.819C285.536 468.634 285.333 467.774 285.641 466.897C285.948 466.02 286.649 465.459 287.207 465.644Z" fill="#1C5AA1"/>
<path opacity="0.54" d="M286.409 466.415C286.623 466.486 286.7 466.815 286.582 467.151C286.464 467.487 286.196 467.702 285.982 467.632C285.769 467.561 285.691 467.231 285.809 466.895C285.927 466.559 286.196 466.344 286.409 466.415Z" fill="white"/>
<path fill-rule="evenodd" clip-rule="evenodd" d="M222.046 443.88C224.37 445.158 225.218 448.078 223.941 450.401C220.895 455.942 220.226 464.072 221.017 472.658C221.793 481.087 223.893 489.13 225.559 493.861C226.439 496.363 225.125 499.104 222.623 499.985C220.122 500.865 217.38 499.551 216.5 497.05C214.608 491.676 212.311 482.856 211.453 473.538C210.61 464.377 211.072 453.876 215.525 445.775C216.802 443.451 219.722 442.603 222.046 443.88Z" fill="white"/>
<path fill-rule="evenodd" clip-rule="evenodd" d="M246.633 427.397C247.266 429.972 245.692 432.573 243.117 433.207C238.258 434.401 234.512 437.533 232.758 439.888C231.174 442.015 228.166 442.455 226.039 440.871C223.912 439.287 223.471 436.279 225.055 434.152C227.955 430.258 233.516 425.678 240.823 423.881C243.399 423.247 246 424.822 246.633 427.397Z" fill="white"/>
<path d="M397.367 519.064C389.158 524.396 385.201 516.525 389.447 513.276C393.692 510.026 398.632 505.366 403.53 499.783C407.878 494.826 413.397 498.95 410.601 504.54C407.704 510.333 403.301 515.21 397.367 519.064Z" fill="#ECEDF6"/>
<path d="M447.982 474.997C445.113 474.832 438.318 476.693 433.536 478.576C428.755 480.459 421.72 483.892 417.057 488.791C413.431 492.6 420.575 502.122 426.324 498.227C429.59 496.014 432.418 494.705 436.218 493.503C436.749 493.335 437.331 493.407 437.77 493.748C439.031 494.73 440.089 496.026 440.956 496.904C441.981 497.942 443.526 496.535 443.112 495.321C442.698 494.108 440.133 491.735 439.457 491.17C439.112 490.77 439.333 489.721 440.255 489.937C441.871 490.246 444.107 491.702 445.996 493.005C447.659 494.152 449.54 492.287 447.955 490.886C446.737 489.551 441.25 486.811 440.409 486.549C439.567 486.287 439.9 485.011 441.196 485.066C442.493 485.121 446.692 485.756 449.058 486.252C451.579 486.788 452.52 484.211 450.74 483.347C448.959 482.483 444.794 481.886 442.41 481.728C440.026 481.569 440.01 480.887 440.934 480.349C441.858 479.811 446.118 478.674 448.037 478.211C449.957 477.748 449.899 475.066 447.982 474.997Z" fill="#108CFF"/>
<path d="M447.982 474.997C445.113 474.832 438.318 476.693 433.536 478.576C428.755 480.459 421.72 483.892 417.057 488.791C413.431 492.6 420.575 502.122 426.324 498.227C429.59 496.014 432.418 494.705 436.218 493.503C436.749 493.335 437.331 493.407 437.77 493.748C439.031 494.73 440.089 496.026 440.956 496.904C441.981 497.942 443.526 496.535 443.112 495.321C442.698 494.108 440.133 491.735 439.457 491.17C439.112 490.77 439.333 489.721 440.255 489.937C441.871 490.246 444.107 491.702 445.996 493.005C447.659 494.152 449.54 492.287 447.955 490.886C446.737 489.551 441.25 486.811 440.409 486.549C439.567 486.287 439.9 485.011 441.196 485.066C442.493 485.121 446.692 485.756 449.058 486.252C451.579 486.788 452.52 484.211 450.74 483.347C448.959 482.483 444.794 481.886 442.41 481.728C440.026 481.569 440.01 480.887 440.934 480.349C441.858 479.811 446.118 478.674 448.037 478.211C449.957 477.748 449.899 475.066 447.982 474.997Z" fill="#108CFF"/>
<path fill-rule="evenodd" clip-rule="evenodd" d="M447.938 475.955L447.927 475.955C446.657 475.881 444.371 476.267 441.715 476.947C439.097 477.618 436.241 478.542 433.888 479.468C429.143 481.337 422.268 484.708 417.753 489.451C417.12 490.117 416.899 491.081 417.112 492.246C417.326 493.417 417.968 494.69 418.901 495.768C419.834 496.846 421.002 497.664 422.204 498.006C423.377 498.34 424.604 498.231 425.785 497.431C429.137 495.16 432.05 493.813 435.929 492.586C436.718 492.336 437.639 492.428 438.36 492.989C439.33 493.745 440.224 494.711 440.937 495.482C441.196 495.763 441.432 496.018 441.639 496.227C441.717 496.306 441.757 496.304 441.766 496.304L441.767 496.304C441.796 496.303 441.872 496.288 441.97 496.209C442.068 496.13 442.148 496.018 442.19 495.901C442.23 495.79 442.227 495.7 442.203 495.63C442.153 495.483 441.997 495.21 441.7 494.824C441.419 494.459 441.064 494.058 440.688 493.664C439.935 492.874 439.151 492.164 438.841 491.905L438.781 491.855L438.73 491.796C438.26 491.251 438.262 490.472 438.504 489.93C438.641 489.624 438.883 489.317 439.256 489.126C439.629 488.935 440.046 488.905 440.453 488.996C441.416 489.184 442.485 489.687 443.497 490.261C444.533 490.849 445.593 491.559 446.541 492.213C446.997 492.528 447.358 492.383 447.502 492.233C447.577 492.156 447.596 492.082 447.593 492.024C447.59 491.973 447.562 491.819 447.319 491.605L447.28 491.571L447.245 491.532C447.034 491.3 446.559 490.937 445.861 490.489C445.189 490.057 444.385 489.594 443.582 489.158C442.781 488.723 441.992 488.321 441.354 488.013C440.688 487.692 440.253 487.505 440.123 487.465C439.67 487.323 439.3 487.013 439.112 486.577C438.931 486.156 438.957 485.705 439.111 485.326C439.43 484.54 440.259 484.064 441.237 484.105C442.614 484.164 446.874 484.812 449.255 485.311L449.258 485.311C450.164 485.504 450.543 485.124 450.646 484.909C450.708 484.779 450.71 484.655 450.675 484.554C450.643 484.462 450.558 484.325 450.321 484.21C449.561 483.841 448.191 483.494 446.633 483.217C445.106 482.947 443.503 482.762 442.346 482.685C441.714 482.643 441.189 482.564 440.773 482.441C440.396 482.331 439.939 482.137 439.654 481.742C439.493 481.52 439.397 481.246 439.407 480.947C439.416 480.661 439.519 480.424 439.632 480.249C439.843 479.919 440.168 479.682 440.451 479.518C440.777 479.328 441.305 479.129 441.856 478.942C442.435 478.746 443.13 478.534 443.847 478.328C445.282 477.914 446.84 477.51 447.812 477.276C448.3 477.158 448.495 476.795 448.489 476.473C448.485 476.309 448.43 476.185 448.361 476.11C448.302 476.046 448.189 475.964 447.948 475.956L447.938 475.955Z" fill="url(#paint10_radial)"/>
<path d="M436.965 480.53C434.235 478.785 429.111 480.652 431.089 482.749C433.067 484.845 433.797 488.403 434.278 490.42C434.774 492.495 437.097 493.228 438.133 490.493C439.212 487.642 439.762 482.318 436.965 480.53Z" fill="url(#paint11_linear)"/>
<path d="M430.657 490.787C428.446 491.033 426.944 491.24 423.741 488.426C423.072 487.541 427.128 484.085 427.381 484.551C427.866 485.443 429.492 487.082 431.102 487.166C432.791 487.254 434.475 487.316 435.585 487.822C438.306 489.064 437.741 491.955 435.87 491.413L435.863 491.41C433.997 490.869 432.866 490.541 430.657 490.787Z" fill="#1B65E1"/>
<path d="M430.076 491.175C427.883 491.12 424.849 490.729 422.103 487.509C421.569 486.541 427.101 483.639 427.285 484.135C427.637 485.085 429.439 487.347 430.999 487.647C432.637 487.962 434.26 488.098 435.283 488.737C437.26 489.974 436.682 492.412 434.929 491.621C433.177 490.831 432.268 491.23 430.076 491.175Z" fill="url(#paint12_radial)"/>
<path d="M429.337 487.418C430.413 488.066 430.032 490.104 428.59 490.255C427.147 490.406 425.322 489.37 424.077 488.259C421.577 486.027 427.703 480.413 427.352 484.032C427.206 485.547 428.112 486.68 429.337 487.418Z" fill="url(#paint13_linear)"/>
<path opacity="0.5" d="M447.387 475.607C448.751 475.588 448.618 476.08 447.918 476.232C447.217 476.383 442.104 477.785 440.476 478.58C438.431 479.578 437.541 478.088 439.491 477.273C441.441 476.459 446.024 475.626 447.387 475.607Z" fill="url(#paint14_linear)"/>
<path opacity="0.5" d="M449.854 483.513C451.099 483.966 451.311 484.965 450.023 484.623C448.735 484.281 443.537 483.413 441.771 483.517C440.67 483.581 439.843 482.195 440.788 482.137C443.541 481.854 448.608 483.06 449.854 483.513Z" fill="url(#paint15_linear)"/>
<path opacity="0.5" d="M447.691 491.166C448.495 492.035 447.814 492.602 447.288 492.214C446.762 491.826 443.278 489.004 440.538 487.961C439.507 487.568 439.588 486.553 440.438 486.972C443.169 488.097 446.887 490.298 447.691 491.166Z" fill="url(#paint16_linear)"/>
<path d="M441.995 496.106C441.441 495.746 439.991 493.314 439.504 492.915C439.018 492.516 438.545 491.225 439.397 491.699C440.273 492.185 442.122 494.121 442.637 495.298C442.994 496.113 442.596 496.496 441.995 496.106Z" fill="url(#paint17_linear)"/>
<path d="M193.286 569.5C181.898 587.51 176.202 610.565 175.937 626.56C175.672 642.554 280.185 649.379 284.218 626.56C292.992 580.877 322.507 545.601 310.341 473.891C303.162 431.575 266.738 413.218 238.553 423.192C210.368 433.166 202.864 462.505 212.828 493.851C222.793 525.197 207.521 546.988 193.286 569.5Z" fill="url(#paint18_linear)"/>
<path d="M376 145C376 121.804 394.804 103 418 103H670V351H418C394.804 351 376 332.196 376 309V145Z" fill="#666AF7"/>
<mask id="mask1" mask-type="alpha" maskUnits="userSpaceOnUse" x="376" y="103" width="270" height="248">
<rect x="376.147" y="103" width="269" height="248" rx="42" fill="white"/>
</mask>
<g mask="url(#mask1)">
<path d="M586.859 317.534C587.564 314.962 589.069 310.593 591.251 308.794C593.222 307.169 595.293 309.008 593.943 310.562C593.108 311.522 591.828 314.245 591.088 316.8C591.041 316.963 591.105 317.131 591.251 317.215C591.46 317.337 591.736 317.235 591.813 317.005C592.779 314.112 595.186 310.792 597.951 309.568C599.943 308.687 601.34 310.398 599.945 311.911C599.886 311.975 599.825 312.042 599.762 312.11C598.533 313.438 596.554 315.576 595.157 319.209C595.095 319.372 595.163 319.557 595.313 319.645C595.489 319.749 595.712 319.683 595.81 319.504C597.635 316.175 599.288 314.336 601.701 313.261C604.207 312.145 605.064 314.506 603.964 315.537C603.725 315.761 603.45 315.991 603.149 316.241C601.917 317.27 600.381 318.842 599.106 321.601C599.045 321.733 599.097 321.892 599.22 321.97C599.362 322.061 599.546 322.013 599.633 321.869C600.79 319.943 602.933 317.372 605.019 316.912C606.697 316.542 607.208 318.338 606.008 319.27C603.958 320.863 602.495 323.125 601.712 325.584C600.524 329.315 599.88 335.716 593.73 338.403C587.581 341.09 581.985 338.153 579.603 333.167C583.564 332.364 585.361 323.241 586.808 317.759C586.821 317.687 586.837 317.612 586.859 317.534Z" fill="url(#paint19_linear)"/>
<path d="M591.25 308.793C589.068 310.592 587.563 314.96 586.858 317.533C586.837 317.611 586.82 317.686 586.808 317.758C586.637 318.403 586.462 319.099 586.279 319.825C585.102 324.499 583.602 330.453 580.992 332.496C580.61 332.92 580.2 333.253 579.756 333.476C582.187 338.211 587.568 340.961 593.499 338.5C598.467 336.084 599.606 331.247 600.478 327.546C600.648 326.826 600.808 326.148 600.983 325.54C601.7 323.061 603.1 320.761 605.107 319.113C605.954 318.417 605.899 317.297 605.177 316.882C605.125 316.89 605.072 316.899 605.018 316.911C602.933 317.371 600.79 319.942 599.632 321.868C599.384 322.35 598.528 322.138 598.664 321.752C599.859 318.953 600.963 317.224 602.167 316.163C602.461 315.904 602.73 315.666 602.963 315.436C603.696 314.711 603.497 313.389 602.506 313.004C602.26 313.047 601.991 313.13 601.7 313.26C599.288 314.335 597.634 316.174 595.81 319.503C595.566 319.92 594.627 319.767 594.794 319.101C595.809 315.692 597.478 313.483 598.669 312.124C598.73 312.054 598.79 311.987 598.847 311.921C599.796 310.834 599.371 309.688 598.355 309.421C598.223 309.458 598.088 309.506 597.95 309.567C595.185 310.79 592.779 314.111 591.812 317.004C591.624 317.717 590.568 317.54 590.658 316.722C590.968 314.544 591.979 312.02 592.811 310.734C593.643 309.448 593.02 308.51 591.901 308.376C591.686 308.476 591.467 308.614 591.25 308.793Z" fill="#A4B5D5"/>
<g style="mix-blend-mode:multiply">
<path d="M591.248 308.754C589.066 310.553 587.561 314.922 586.856 317.494C586.835 317.572 586.818 317.647 586.806 317.719C586.635 318.364 586.46 319.06 586.277 319.787C585.1 324.46 583.6 330.414 580.99 332.458C580.608 332.881 580.198 333.215 579.754 333.437C582.185 338.173 587.566 340.923 593.497 338.461C598.465 336.045 599.604 331.208 600.476 327.508C600.646 326.787 600.806 326.11 600.981 325.502C601.698 323.022 603.098 320.722 605.105 319.074C605.952 318.379 605.897 317.258 605.175 316.843C605.123 316.851 605.07 316.861 605.016 316.873C602.931 317.332 600.788 319.904 599.63 321.829C599.382 322.311 598.526 322.099 598.662 321.713C599.857 318.915 600.961 317.186 602.165 316.124C602.459 315.865 602.728 315.628 602.961 315.397C603.694 314.673 603.495 313.351 602.504 312.965C602.258 313.009 601.989 313.092 601.698 313.221C599.286 314.296 597.632 316.135 595.808 319.464C595.564 319.882 594.625 319.729 594.792 319.062C595.807 315.654 597.476 313.444 598.667 312.086C598.729 312.016 598.788 311.948 598.845 311.882C599.794 310.795 599.369 309.649 598.353 309.382C598.221 309.419 598.086 309.468 597.948 309.529C595.183 310.752 592.777 314.072 591.81 316.966C591.622 317.678 590.566 317.502 590.656 316.684C590.966 314.505 591.977 311.982 592.809 310.696C593.641 309.409 593.018 308.471 591.899 308.338C591.684 308.438 591.466 308.575 591.248 308.754Z" fill="url(#paint20_linear)"/>
</g>
<path d="M476.82 259.123C479.803 246.523 485.178 221.544 499.8 208.641C514.422 195.739 491.304 188.9 488.172 202.919C484.738 218.288 450.719 236.583 434.829 241.958C423.973 245.629 473.305 273.975 476.82 259.123Z" fill="#BAC7DE"/>
<path d="M476.82 259.123C479.803 246.523 485.178 221.544 499.8 208.641C514.422 195.739 491.304 188.9 488.172 202.919C484.738 218.288 450.719 236.583 434.829 241.958C423.973 245.629 473.305 273.975 476.82 259.123Z" fill="#BAC7DE"/>
<path fill-rule="evenodd" clip-rule="evenodd" d="M470.825 206.502C470.189 205.846 469.171 205.687 468.375 206.136C451.429 212.98 446.267 204.609 444.494 199.15C444.129 198.025 442.797 197.471 441.682 197.868C435.413 200.096 427.328 196.675 424.619 189.991C424.345 189.315 423.723 188.823 422.996 188.763C413.274 187.948 407.139 182.241 406.332 172.127C405.518 163.748 408.551 158.678 414.681 158.259C420.832 157.839 425.803 164.91 427.889 172.379C428.23 173.603 429.756 174.218 430.955 173.796C435.639 172.257 439.417 172.893 443.08 175.667C444.249 176.552 446.26 176.158 446.727 174.768C447.445 172.632 448.245 170.774 449.036 169.361C459.483 151.996 475.895 153.076 482.764 162.293C483.291 163.001 484.24 163.289 485.048 162.934C486.689 162.213 488.407 161.586 490.195 161.064C507.196 156.102 519.844 166.695 513.459 183.271C507.074 199.846 496.954 210.079 485.836 210.669C479.276 211.017 474.358 210.138 470.825 206.502Z" fill="#FAC465"/>
<path fill-rule="evenodd" clip-rule="evenodd" d="M470.825 206.502C470.189 205.846 469.171 205.687 468.375 206.136C451.429 212.98 446.267 204.609 444.494 199.15C444.129 198.025 442.797 197.471 441.682 197.868C435.413 200.096 427.328 196.675 424.619 189.991C424.345 189.315 423.723 188.823 422.996 188.763C413.274 187.948 407.139 182.241 406.332 172.127C405.518 163.748 408.551 158.678 414.681 158.259C420.832 157.839 425.803 164.91 427.889 172.379C428.23 173.603 429.756 174.218 430.955 173.796C435.639 172.257 439.417 172.893 443.08 175.667C444.249 176.552 446.26 176.158 446.727 174.768C447.445 172.632 448.245 170.774 449.036 169.361C459.483 151.996 475.895 153.076 482.764 162.293C483.291 163.001 484.24 163.289 485.048 162.934C486.689 162.213 488.407 161.586 490.195 161.064C507.196 156.102 519.844 166.695 513.459 183.271C507.074 199.846 496.954 210.079 485.836 210.669C479.276 211.017 474.358 210.138 470.825 206.502Z" fill="url(#paint21_linear)"/>
<path fill-rule="evenodd" clip-rule="evenodd" d="M408.881 171.9L408.878 171.878C408.501 167.987 409.062 165.246 410.096 163.526C411.052 161.934 412.553 160.969 414.855 160.811C416.815 160.677 418.879 161.709 420.867 164.026C422.84 166.326 424.456 169.599 425.424 173.066C425.84 174.559 426.94 175.547 428.065 176.044C429.171 176.533 430.514 176.653 431.773 176.219C433.809 175.554 435.502 175.405 437.002 175.641C438.5 175.877 439.976 176.525 441.535 177.706C442.813 178.674 444.41 178.868 445.737 178.565C447.074 178.259 448.565 177.331 449.153 175.582C449.829 173.57 450.562 171.88 451.25 170.645C456.144 162.528 462.215 159.035 467.545 158.399C472.928 157.756 477.839 159.967 480.711 163.821C481.894 165.408 484.092 166.147 486.077 165.276C487.616 164.6 489.23 164.011 490.912 163.52C498.834 161.208 505.231 162.655 508.871 165.98C512.399 169.202 513.982 174.793 511.071 182.35C504.794 198.643 495.256 207.606 485.7 208.113C479.345 208.45 475.397 207.534 472.661 204.718C471.28 203.297 469.097 202.897 467.295 203.811C459.28 207.023 454.639 206.42 451.941 204.994C449.171 203.529 447.729 200.826 446.928 198.359C446.058 195.678 443.106 194.644 440.825 195.455C435.847 197.225 429.185 194.444 426.991 189.029C426.383 187.53 424.973 186.359 423.209 186.212C418.799 185.842 415.443 184.389 413.112 182.103C410.788 179.826 409.247 176.494 408.882 171.922L408.881 171.9Z" fill="url(#paint22_linear)"/>
<path d="M471.672 188.155C472.613 181.571 473.938 178.023 477.23 171.439C480.522 164.855 473.126 162.803 467.996 167.805C464.576 171.139 460.728 177.296 460.471 186.017C460.215 194.739 470.732 194.739 471.672 188.155Z" fill="#FFB151"/>
<path d="M443.575 190.434C443.592 187.269 443.546 185.227 444.763 182.501C445.98 179.774 442.294 178.783 440.239 181.786C438.185 184.788 438.119 188.167 438.744 190.386C439.716 193.836 443.561 193.063 443.575 190.434Z" fill="#FFB151"/>
<path fill-rule="evenodd" clip-rule="evenodd" d="M490.623 209.808C481.858 207.374 475.057 198.894 476.367 187.119C478.474 168.189 497.023 164.536 508.157 172.255C510.878 174.141 513.076 176.607 514.637 179.395C514.362 180.645 513.972 181.939 513.458 183.271C508.004 197.431 499.823 206.963 490.623 209.808Z" fill="url(#paint23_linear)"/>
<path d="M419.705 173.399C414.089 174.374 410.422 162.399 415.899 162.028C421.376 161.656 425.089 172.75 419.705 173.399Z" fill="#FFB151"/>
<path d="M476.82 259.123C479.803 246.523 485.178 221.544 499.8 208.641C514.422 195.739 491.304 188.9 488.172 202.919C484.738 218.288 450.719 236.583 434.829 241.958C423.973 245.629 473.305 273.975 476.82 259.123Z" fill="#D0E1FE"/>
<path fill-rule="evenodd" clip-rule="evenodd" d="M475.539 257.117C475.407 257.676 475.281 258.215 475.158 258.732C474.86 259.993 474.133 260.754 472.948 261.209C471.661 261.704 469.811 261.829 467.462 261.532C462.785 260.94 456.826 258.768 451.195 255.961C445.569 253.158 440.467 249.82 437.478 247.031C435.928 245.586 435.188 244.506 435.01 243.887C434.993 243.83 434.984 243.788 434.98 243.758C435.038 243.717 435.155 243.649 435.374 243.575C443.469 240.837 456.076 234.853 467.106 227.614C472.624 223.993 477.8 220.023 481.834 215.949C485.835 211.907 488.872 207.602 489.835 203.293C491.134 197.48 496.49 195.999 500.062 197.291C501.81 197.923 502.791 199.09 502.889 200.456C502.993 201.912 502.162 204.282 498.67 207.364C491.052 214.086 485.93 223.862 482.347 233.397C479.053 242.164 477.001 250.893 475.539 257.117ZM434.976 243.706C434.977 243.7 434.977 243.695 434.977 243.695C434.977 243.695 434.976 243.698 434.976 243.706Z" fill="url(#paint24_linear)"/>
<path d="M522.809 294.961C517.594 296.927 510.452 296.88 502.039 295.953C493.626 295.026 499.392 289.562 501.16 288.058C501.468 287.796 497.841 286.568 503.979 284.437C513.154 281.25 520.743 280.827 525.458 282.596C530.174 284.366 530.988 285.099 530.486 287.354C532.501 289.651 530.318 290.442 528.554 289.877C527.114 289.415 524.994 289.186 522.626 289.039C520.258 288.891 517.423 289.774 517.826 291.224C518.327 293.024 522.462 291.122 524.112 292.553C525.246 293.536 523.879 294.558 522.809 294.961Z" fill="#435A8A"/>
<path d="M523.633 294.601C518.418 296.532 510.56 296.041 502.147 295.13C493.734 294.22 499.744 289.105 501.513 287.628C501.82 287.371 498.193 286.164 504.331 284.07C513.506 280.941 521.095 280.525 525.81 282.263C530.526 284.001 531.34 284.722 530.838 286.936C532.854 289.192 530.687 290.498 528.924 289.943C527.483 289.489 525.346 288.736 522.978 288.591C520.61 288.446 517.335 289.267 517.738 290.691C518.238 292.459 522.814 290.637 524.464 292.042C525.598 293.008 524.703 294.205 523.633 294.601Z" fill="#95A7CC"/>
<g style="mix-blend-mode:multiply">
<path d="M523.633 294.601C518.418 296.532 510.56 296.041 502.147 295.13C493.734 294.22 499.744 289.105 501.513 287.628C501.82 287.371 498.193 286.164 504.331 284.07C513.506 280.941 521.095 280.525 525.81 282.263C530.526 284.001 531.34 284.722 530.838 286.936C532.854 289.192 530.687 290.498 528.924 289.943C527.483 289.489 525.346 288.736 522.978 288.591C520.61 288.446 517.335 289.267 517.738 290.691C518.238 292.459 522.814 290.637 524.464 292.042C525.598 293.008 524.703 294.205 523.633 294.601Z" fill="url(#paint25_linear)"/>
</g>
<g opacity="0.66">
<path d="M518.736 284.867C519.779 284.621 522.374 284.233 524.412 284.653C526.449 285.073 529.55 286.357 530.846 286.947C531.166 286.174 531.137 284.758 529.738 284.012C530.153 285.147 529.218 284.976 525.423 284.281C525.224 284.244 525.016 284.206 524.8 284.167C523.07 283.851 520.446 284.187 518.736 284.867Z" fill="url(#paint26_linear)"/>
<path d="M517.712 290.564L517.709 290.533C517.71 290.544 517.711 290.554 517.712 290.564Z" fill="url(#paint27_linear)"/>
<path d="M517.709 290.533C517.216 286.099 526.955 287.784 528.494 288.269C529.963 288.731 531.409 288.725 531.213 287.411C532.542 289.371 530.56 290.457 528.924 289.942C528.779 289.896 528.626 289.847 528.466 289.796C527.049 289.343 525.107 288.721 522.979 288.591C520.699 288.451 517.579 289.206 517.709 290.533Z" fill="url(#paint28_linear)"/>
<path d="M523.328 294.032C518.113 295.963 510.255 295.472 501.842 294.562C498.849 294.238 496.942 293.067 495.968 291.504C496.813 293.347 498.802 294.768 502.148 295.13C510.561 296.04 518.419 296.531 523.634 294.6C524.635 294.23 525.483 293.158 524.66 292.231C524.831 292.991 524.129 293.736 523.328 294.032Z" fill="url(#paint29_linear)"/>
</g>
<path opacity="0.57" fill-rule="evenodd" clip-rule="evenodd" d="M497.184 211.177C498.021 210.289 498.893 209.442 499.8 208.641C514.422 195.739 491.304 188.9 488.172 202.919C487.815 204.516 487.128 206.144 486.166 207.786C489.376 209.982 493.214 211.187 497.184 211.177Z" fill="#6A9EFD"/>
<path d="M478.757 186.4C476.819 204.581 495.094 214.684 508.843 205.596C522.591 196.508 520.194 179.755 509.397 172.28C498.599 164.804 480.695 168.219 478.757 186.4Z" fill="#BAC7DE"/>
<path d="M493.313 178.155C494.082 185.176 504.064 190.915 509.989 188.619C515.913 186.323 513.139 179.456 507.099 175.468C501.058 171.481 492.543 171.134 493.313 178.155Z" fill="#C8D3E6"/>
<path d="M481.502 186.752C479.84 202.351 495.52 211.019 507.315 203.222C519.111 195.425 507.454 196.379 498.187 193.403C488.92 190.428 483.165 171.154 481.502 186.752Z" fill="#AEBED9"/>
<path opacity="0.4" d="M478.757 186.4C476.819 204.581 495.094 214.684 508.843 205.596C522.591 196.508 520.194 179.755 509.397 172.28C498.599 164.804 480.695 168.219 478.757 186.4Z" fill="white"/>
<path d="M410.121 245.44C441.443 227.006 474.9 240.881 494.822 270.231C511.378 294.621 540.747 337.315 576.425 331.765C583.065 330.732 590.881 333.697 593.73 342.914C595.116 347.4 595.648 350.513 591.295 350.513C570.285 350.513 388.499 350.673 377.406 350.347C366.313 350.02 364.038 345.877 364.355 337.622C365.824 299.449 377.286 264.765 410.121 245.44Z" fill="#613C8F"/>
<path opacity="0.29" fill-rule="evenodd" clip-rule="evenodd" d="M455.817 242.755C469.847 247.346 482.689 257.675 492.351 271.909C500.608 284.073 512.261 301.115 526.408 314.402C540.508 327.646 557.669 337.704 576.882 334.716C582.307 333.872 588.535 336.222 590.876 343.796C591.217 344.897 591.469 345.803 591.613 346.556C591.695 346.982 591.728 347.292 591.737 347.509C591.622 347.52 591.476 347.528 591.294 347.528C587.996 347.528 580.76 347.532 570.858 347.538C517.515 347.566 386.8 347.637 377.493 347.363C372.15 347.206 369.876 346.123 368.81 344.951C367.742 343.774 367.183 341.746 367.338 337.738C368.789 300.006 380.077 266.587 411.634 248.014C426.549 239.237 441.853 238.185 455.817 242.755Z" fill="#5E00BB"/>
<path d="M504.37 317.805C491.446 329.349 465.959 321.904 447.442 301.175C436.172 288.558 420.832 258.521 435.984 243.799C437.229 242.589 439.035 239.566 434.782 240.311C427.121 241.017 419.326 243.488 411.634 248.015C380.077 266.588 368.789 300.007 367.338 337.739C367.183 341.747 367.742 343.775 368.81 344.952C369.876 346.124 372.15 347.207 377.493 347.364C386.8 347.638 517.515 347.567 570.858 347.538C580.76 347.533 587.996 347.529 591.294 347.529C591.476 347.529 591.622 347.521 591.737 347.51C591.728 347.293 591.695 346.983 591.613 346.557C591.469 345.804 591.217 344.897 590.876 343.797C588.535 336.223 582.307 333.873 576.882 334.717C557.669 337.705 540.508 327.646 526.408 314.403C522.354 310.595 518.504 306.479 514.881 302.258C512.699 299.744 511.673 301.789 511.467 303.394C510.72 309.209 508.389 314.214 504.37 317.805Z" fill="url(#paint30_linear)"/>
<path fill-rule="evenodd" clip-rule="evenodd" d="M454.037 248.51C452.426 251.917 453.881 255.985 457.288 257.596C469.008 263.139 481.195 277.312 489.675 292.397C491.522 295.682 495.682 296.848 498.968 295.002C502.253 293.155 503.419 288.994 501.573 285.709C492.573 269.7 478.635 252.595 463.124 245.258C459.717 243.647 455.649 245.103 454.037 248.51Z" fill="url(#paint31_linear)"/>
<path opacity="0.49" d="M487.633 187.86C487.836 189.222 489.105 190.161 490.468 189.958C491.831 189.755 492.772 188.487 492.57 187.126C492.367 185.765 491.098 184.826 489.735 185.028C488.372 185.231 487.431 186.499 487.633 187.86Z" fill="#889CC0"/>
<path d="M488.015 187.593C488.2 188.841 489.364 189.702 490.613 189.516C491.862 189.33 492.725 188.168 492.539 186.92C492.354 185.673 491.19 184.812 489.941 184.998C488.692 185.183 487.829 186.346 488.015 187.593Z" fill="#354781"/>
<path d="M489.928 185.75C489.719 186.117 489.995 186.67 490.546 186.983C491.096 187.297 491.712 187.253 491.921 186.885C492.131 186.518 491.855 185.966 491.304 185.652C490.754 185.338 490.138 185.382 489.928 185.75Z" fill="#1C5AA2"/>
<path d="M490.676 185.881C490.6 186.015 490.714 186.223 490.93 186.346C491.146 186.469 491.383 186.461 491.459 186.327C491.535 186.193 491.422 185.985 491.205 185.862C490.989 185.739 490.752 185.747 490.676 185.881Z" fill="#9CB0CD"/>
<path d="M491.307 187.597C491.639 187.636 491.974 187.94 491.794 188.221C491.524 188.645 491.078 188.954 490.541 189.034C489.559 189.18 488.644 188.503 488.498 187.522C488.437 187.111 488.52 186.712 488.71 186.376C488.886 186.064 489.37 186.275 489.574 186.569C489.758 186.834 490.032 187.086 490.374 187.28C490.685 187.457 491.008 187.563 491.307 187.597Z" fill="#000E45"/>
<path opacity="0.49" d="M506.822 178.134C507.025 179.495 508.294 180.434 509.658 180.232C511.021 180.029 511.962 178.761 511.759 177.4C511.557 176.038 510.287 175.099 508.924 175.302C507.561 175.505 506.62 176.772 506.822 178.134Z" fill="#889CC0"/>
<path d="M507.204 177.867C507.39 179.114 508.553 179.975 509.802 179.789C511.052 179.603 511.914 178.441 511.729 177.194C511.543 175.946 510.38 175.085 509.13 175.271C507.881 175.457 507.019 176.619 507.204 177.867Z" fill="#354781"/>
<path d="M509.119 176.023C508.909 176.391 509.186 176.943 509.736 177.257C510.286 177.57 510.902 177.526 511.112 177.159C511.321 176.791 511.045 176.239 510.495 175.925C509.944 175.612 509.328 175.656 509.119 176.023Z" fill="#1C5AA2"/>
<path d="M509.867 176.154C509.791 176.287 509.904 176.495 510.12 176.618C510.336 176.742 510.573 176.733 510.649 176.599C510.725 176.466 510.612 176.258 510.396 176.134C510.18 176.011 509.943 176.02 509.867 176.154Z" fill="#9CB0CD"/>
<path d="M510.498 177.871C510.829 177.909 511.165 178.213 510.985 178.495C510.714 178.918 510.269 179.227 509.732 179.307C508.749 179.453 507.835 178.776 507.689 177.795C507.627 177.384 507.711 176.985 507.901 176.649C508.077 176.338 508.56 176.548 508.764 176.842C508.949 177.108 509.223 177.359 509.564 177.554C509.875 177.731 510.199 177.836 510.498 177.871Z" fill="#000E45"/>
<g style="mix-blend-mode:overlay">
<g opacity="0.2" filter="url(#filter1_f)">
<path d="M631.204 280.116L599.004 287.658C595.576 288.461 592.013 288.5 588.568 287.772L503.351 269.76C502.292 269.536 502.293 268.024 503.353 267.803L539.301 260.282C543.499 259.404 547.837 259.436 552.021 260.376L631.195 278.167C632.231 278.4 632.238 279.874 631.204 280.116Z" fill="url(#paint32_linear)"/>
</g>
<path d="M551.141 222.072C551.228 221.982 551.315 221.892 551.491 221.8C555.827 221.29 588.162 213.869 592.516 214.604C596.783 215.341 624.425 220.174 628.867 220.819C633.309 221.464 634.776 224.733 634.843 229.179C634.843 229.179 635.448 269.549 635.492 272.483C635.536 275.418 635.68 279.151 628.698 280.59C621.452 282.121 595.49 288.825 592.466 288.159C591.757 288.169 590.869 288.094 589.89 287.841C582.952 286.256 557.341 280.947 554.317 280.281C551.293 279.615 549.395 277.153 549.32 272.173L548.656 227.802C548.621 225.49 549.024 222.815 551.141 222.072ZM552.29 221.877C552.379 221.876 552.379 221.876 552.467 221.874C552.379 221.876 552.289 221.788 552.29 221.877ZM553.621 221.946C553.354 221.861 553.088 221.865 552.911 221.868C553.176 221.864 553.354 221.861 553.621 221.946Z" fill="url(#paint33_linear)"/>
<path d="M548.296 209.664C553.183 210.48 584.647 215.968 589.623 216.694C594.686 217.418 596.338 221.129 596.414 226.198C596.414 226.198 597.138 274.57 597.189 277.949C597.239 281.328 597.405 286.484 589.489 284.735C581.573 282.986 552.493 276.84 549.025 276.092C545.556 275.343 543.386 272.529 543.301 266.839L542.545 216.332C542.581 212.862 543.319 208.849 548.296 209.664Z" fill="url(#paint34_linear)"/>
<path fill-rule="evenodd" clip-rule="evenodd" d="M596.414 226.198L597.19 278.061C597.242 281.44 597.319 286.465 589.489 284.735C583.913 283.503 567.833 280.089 557.603 277.917C553.311 277.005 550.05 276.313 549.025 276.092C545.556 275.343 543.386 272.529 543.301 266.839L542.545 216.332C542.581 212.862 543.319 208.849 548.296 209.664C549.817 209.918 553.914 210.625 558.985 211.499C570.205 213.435 586.196 216.194 589.623 216.694C594.686 217.418 596.338 221.129 596.414 226.198ZM548.127 210.681C549.637 210.933 553.71 211.636 558.76 212.507C569.984 214.444 586.034 217.212 589.474 217.714L589.476 217.715C591.749 218.04 593.146 219.004 594.019 220.372C594.926 221.791 595.346 223.763 595.382 226.213L596.414 226.198C595.382 226.213 595.382 226.213 595.382 226.213L596.159 278.056C596.172 278.889 596.184 279.744 596.095 280.57C596.002 281.427 595.806 282.157 595.454 282.715C595.122 283.241 594.62 283.668 593.775 283.891C592.895 284.124 591.601 284.146 589.712 283.728C584.131 282.495 568.024 279.075 557.795 276.903C553.513 275.994 550.261 275.303 549.242 275.083C547.747 274.761 546.581 274.014 545.757 272.754C544.914 271.465 544.373 269.554 544.332 266.823L543.576 216.329C543.595 214.614 543.797 213 544.449 211.927C544.757 211.419 545.157 211.049 545.694 210.828C546.242 210.603 547.018 210.5 548.127 210.681Z" fill="url(#paint35_linear)"/>
<path d="M586.619 223.32L552.224 217.431C551.069 217.271 550.106 218.086 550.123 219.242L550.831 266.459C550.855 268.059 551.938 269.377 553.45 269.71C560.031 271.124 577.284 274.778 586.089 276.692C588.134 277.106 590.06 275.477 590.028 273.342L589.327 226.57C589.303 224.97 588.131 223.653 586.619 223.32Z" fill="#6683BD"/>
<path d="M597.188 277.949C597.138 274.57 596.413 226.197 596.413 226.197C596.337 221.129 594.597 217.419 589.622 216.694C584.569 216.075 553.128 210.505 548.246 209.678C547.091 209.517 546.241 209.543 545.448 209.821C545.534 209.642 545.722 209.524 545.811 209.523C550.278 208.574 587.518 200.538 592.406 201.354C597.294 202.17 628.758 207.658 633.733 208.384C638.797 209.108 640.537 212.818 640.613 217.886C640.613 217.886 641.3 263.769 641.351 267.148C641.401 270.527 641.553 274.705 633.689 276.424C625.47 278.148 595.887 285.795 592.507 285.046C597.383 285.062 597.232 280.884 597.188 277.949Z" fill="url(#paint36_linear)"/>
<path opacity="0.51" d="M597.188 277.95C597.138 274.571 596.413 226.198 596.413 226.198C596.337 221.129 594.597 217.42 589.622 216.694C584.558 215.969 553.157 210.421 548.27 209.694C547.115 209.533 546.232 209.546 545.439 209.825C545.524 209.646 545.794 209.541 545.883 209.54C550.838 208.932 587.518 200.538 592.406 201.354C597.294 202.171 628.758 207.658 633.733 208.384C638.797 209.109 640.537 212.818 640.613 217.887C640.613 217.887 641.3 263.77 641.351 267.149C641.401 270.528 641.553 274.706 633.689 276.424C625.47 278.148 595.887 285.796 592.507 285.046C597.383 285.062 597.232 280.884 597.188 277.95Z" fill="url(#paint37_linear)"/>
<path d="M580.696 224.387L546.301 218.499C545.146 218.338 544.183 219.153 544.201 220.309L544.915 267.97C544.939 269.571 546.022 270.889 547.534 271.222C554.115 272.635 571.368 276.29 580.173 278.204C582.218 278.618 584.234 277.076 584.2 274.853L583.493 227.636C583.381 226.037 582.297 224.719 580.696 224.387Z" fill="url(#paint38_linear)"/>
<path opacity="0.61" fill-rule="evenodd" clip-rule="evenodd" d="M580.503 225.4C581.611 225.637 582.371 226.537 582.462 227.682L583.169 274.868C583.192 276.404 581.809 277.479 580.384 277.195C574.687 275.956 565.457 273.99 557.869 272.373C553.727 271.491 550.075 270.713 547.754 270.214C546.716 269.984 545.963 269.082 545.946 267.955L545.232 220.293C545.225 219.806 545.592 219.448 546.146 219.518L580.503 225.4ZM583.493 227.636C583.381 226.037 582.297 224.719 580.696 224.387L546.301 218.499C545.146 218.338 544.183 219.153 544.201 220.309L544.915 267.97C544.939 269.571 546.022 270.889 547.534 271.222C549.859 271.721 553.515 272.5 557.661 273.383C565.25 275 574.478 276.966 580.173 278.204C582.218 278.618 584.234 277.076 584.2 274.853L583.493 227.636Z" fill="url(#paint39_linear)"/>
<path d="M552.579 217.427C554.89 217.837 583.954 222.916 586.264 223.237C588.573 223.558 589.375 225.006 589.409 227.318C589.409 227.318 589.996 271.209 590.02 272.809C590.044 274.41 590.159 276.187 586.536 276.953C585.475 277.147 583.71 277.618 581.678 278.093C583.09 277.716 584.135 276.455 584.111 274.855L583.404 227.638C583.38 226.037 582.207 224.632 580.607 224.389L546.212 218.5C545.768 218.418 545.326 218.514 544.887 218.787C546.208 218.234 547.266 217.862 548.942 217.303C549.912 216.933 551.868 217.348 552.579 217.427Z" fill="url(#paint40_linear)"/>
<path d="M552.267 250.01C550.302 241.998 553.448 234.332 559.295 232.889C565.142 231.446 571.475 236.771 573.441 244.783C575.406 252.796 572.26 260.461 566.413 261.904C560.567 263.348 554.233 258.023 552.267 250.01Z" fill="url(#paint41_linear)"/>
<path d="M553.57 249.258C552.212 243.726 554.388 238.432 558.428 237.435C562.468 236.437 566.844 240.114 568.202 245.646C569.559 251.178 567.384 256.472 563.343 257.469C559.303 258.467 554.927 254.79 553.57 249.258Z" fill="url(#paint42_linear)"/>
<path fill-rule="evenodd" clip-rule="evenodd" d="M554.928 242.037C555.716 240.12 557.051 238.837 558.674 238.436C560.297 238.036 562.072 238.55 563.657 239.882C565.242 241.213 566.568 243.317 567.2 245.893C567.832 248.469 567.631 250.95 566.843 252.867C566.055 254.784 564.72 256.067 563.097 256.468C561.474 256.868 559.699 256.353 558.114 255.022C556.529 253.691 555.203 251.587 554.571 249.011C553.939 246.434 554.141 243.954 554.928 242.037ZM558.428 237.435C554.388 238.432 552.212 243.726 553.57 249.258C554.927 254.79 559.303 258.467 563.343 257.469C567.384 256.472 569.559 251.178 568.202 245.646C566.844 240.114 562.468 236.437 558.428 237.435Z" fill="url(#paint43_linear)"/>
<path d="M587.258 242.255L592.487 242.176L592.834 265.296L587.605 265.374L587.258 242.255Z" fill="url(#paint44_linear)"/>
<path d="M589.619 239.997L592.488 242.177L587.259 242.255L589.619 239.997Z" fill="#878BC4"/>
</g>
</g>
<path d="M214.261 352.224C143.141 352.224 85.4707 294.581 85.4707 223.494C85.4707 152.407 143.141 94.7646 214.261 94.7646C285.382 94.7646 343.052 152.407 343.052 223.494C343.052 294.581 285.382 352.224 214.261 352.224Z" fill="#95F2FF"/>
<mask id="mask2" mask-type="alpha" maskUnits="userSpaceOnUse" x="85" y="94" width="259" height="259">
<path d="M214.582 352.223C143.461 352.223 85.791 294.581 85.791 223.494C85.791 152.407 143.461 94.7642 214.582 94.7642C285.702 94.7642 343.372 152.407 343.372 223.494C343.372 294.581 285.702 352.223 214.582 352.223Z" fill="white"/>
</mask>
<g mask="url(#mask2)">
<g filter="url(#filter2_f)">
<path d="M294.735 395.265C260.577 396.24 221.859 396.55 192.568 388.981C163.278 381.413 175.839 367.88 190.669 362.233C182.592 349.951 179.564 332.143 202.422 296.48C216.623 274.324 211.663 260.051 211.437 226.377C211.263 200.374 226.091 170.916 258.335 170.411C284.785 169.997 284.095 201.78 282.299 217.881C279.948 238.959 291.806 240.04 308.069 245.652C326.306 251.946 327.46 268.494 312.81 288.447C325.754 288.304 343.333 299.387 342.949 317.796C342.369 345.662 322.24 351.466 334.556 355.401C346.631 359.258 367.813 368.189 365.628 379.154C363.442 390.119 336.041 394.086 294.735 395.265Z" fill="#6EEBFC"/>
<path d="M148.81 259.92C148.86 258.279 146.162 257.517 144.811 257.12C143.394 256.759 143.265 254.31 146.255 253.917C149.203 253.529 152.295 254.882 155.379 257.942C158.006 260.549 184.026 286.871 188.237 290.497C192.448 294.122 197.944 293.988 202.958 291.935C207.972 289.883 239.999 272.469 251.105 266.442C262.21 260.415 268.562 273.778 258.136 280.6C247.709 287.422 210.822 306.96 199.285 310.779C192.307 313.089 186.438 311.109 183.421 309.145C176.386 304.567 153.779 280.274 147.896 273.678C145.912 271.453 143.537 271.587 142.347 271.8C139.176 272.364 135.965 272.146 132.623 270.692C129.512 269.34 126.838 266.685 126.331 263.241C125.874 260.14 127.545 258.907 128.969 259.607C128.93 258.242 130.989 257.292 132.462 258.407C133.76 259.389 135.267 261.847 140.11 262.546C144.953 263.246 148.764 261.412 148.81 259.92Z" fill="#6EEBFC"/>
</g>
<path d="M240.465 190.871C234.635 196.35 225.211 207.409 223.157 210.103C221.103 212.797 222.777 214.132 224.616 214.673C228.244 215.789 231.755 217.073 231.93 216.021C233.389 207.265 236.68 196.881 240.465 190.871Z" fill="url(#paint45_linear)"/>
<path d="M238.202 195.214C233.674 199.47 226.355 208.059 224.76 210.151C223.164 212.243 224.464 213.28 225.893 213.7C228.71 214.567 231.438 215.564 231.574 214.747C232.707 207.947 235.262 199.882 238.202 195.214Z" fill="url(#paint46_linear)"/>
<g style="mix-blend-mode:multiply" opacity="0.52">
<path d="M240.465 190.871C234.635 196.35 225.211 207.409 223.157 210.103C221.103 212.797 222.777 214.132 224.616 214.673C228.244 215.789 231.755 217.073 231.93 216.021C233.389 207.265 236.68 196.881 240.465 190.871Z" fill="url(#paint47_radial)"/>
</g>
<path d="M314.014 391.084C279.857 392.059 241.138 392.368 211.848 384.8C182.557 377.232 195.118 363.699 209.949 358.052C201.871 345.77 198.843 327.962 221.701 292.299C235.902 270.143 230.942 255.87 230.717 222.196C230.542 196.193 245.37 166.734 277.614 166.23C304.065 165.816 303.375 197.599 301.579 213.7C299.227 234.778 311.086 235.859 327.348 241.471C345.585 247.765 346.739 264.313 332.09 284.265C345.033 284.123 362.612 295.206 362.229 313.615C361.649 341.48 341.519 347.285 353.835 351.22C365.91 355.077 387.093 364.007 384.907 374.973C382.721 385.938 355.32 389.905 314.014 391.084Z" fill="#108CFF"/>
<g style="mix-blend-mode:overlay">
<path fill-rule="evenodd" clip-rule="evenodd" d="M325.615 287.588L329.467 282.341C336.595 272.632 339.434 264.317 338.814 258.067C338.23 252.197 334.499 247.379 326.285 244.544C324.619 243.969 322.877 243.404 321.167 242.849C318.991 242.144 316.867 241.455 315.019 240.784C311.564 239.53 308.255 238.075 305.502 235.965C302.674 233.796 300.49 230.98 299.235 227.156C298.005 223.409 297.727 218.882 298.345 213.339C299.235 205.363 299.784 193.938 297.067 184.687C295.721 180.103 293.639 176.29 290.627 173.655C287.677 171.074 283.571 169.388 277.663 169.48C262.662 169.715 251.815 176.627 244.641 186.555C237.398 196.579 233.882 209.738 233.965 222.174C234.054 235.462 235.818 248.758 235.414 262.043C235.072 273.281 235.607 276.033 224.311 294.234C213.015 312.435 199.847 341.165 214.743 359.703L211.103 361.089C207.631 362.412 204.364 364.171 201.863 366.116C199.287 368.118 197.893 370.027 197.493 371.537C197.19 372.684 197.32 374.053 199.272 375.797C201.41 377.707 205.524 379.809 212.659 381.652C241.43 389.086 279.686 388.811 313.919 387.834C327.31 387.452 380.042 383.608 381.317 374.337C382.593 365.066 363.118 357.491 357.209 355.674C355.587 355.175 354.113 354.722 352.843 354.316C351.167 353.781 349.571 353.08 348.406 351.985C347.036 350.696 346.444 349.033 346.634 347.256C346.793 345.776 347.48 344.405 348.106 343.318C348.644 342.382 349.334 341.337 350.036 340.274C350.183 340.052 350.33 339.829 350.476 339.606C353.91 334.381 358.704 326.581 358.976 313.547C359.143 305.49 355.409 299.002 350.052 294.464C344.631 289.87 337.745 287.454 332.123 287.516L325.615 287.588Z" fill="url(#paint48_linear)"/>
</g>
<g style="mix-blend-mode:overlay" opacity="0.35">
<path d="M279.803 173.91C269.896 164.036 252.341 175.679 244.641 186.555C237.398 196.579 233.882 209.739 233.965 222.174C234.054 235.463 235.817 248.759 235.414 262.044C235.072 273.282 235.607 276.033 224.311 294.234C204.881 325.542 247.926 311 264.905 288.985C281.884 266.97 287.078 236.014 283.408 217.708C279.739 199.401 289.711 183.783 279.803 173.91Z" fill="white" fill-opacity="0.3"/>
</g>
<path opacity="0.4" fill-rule="evenodd" clip-rule="evenodd" d="M274.381 174.335C274.907 177.25 272.97 180.039 270.055 180.565C266.334 181.236 262.126 183.148 258.64 186.29C256.44 188.273 253.048 188.097 251.065 185.896C249.082 183.696 249.258 180.304 251.458 178.321C256.442 173.829 262.483 171.03 268.151 170.008C271.066 169.482 273.856 171.419 274.381 174.335Z" fill="white" fill-opacity="0.5"/>
<path d="M339.904 349.965C319.619 365.963 287.529 365.173 262.137 364.806C249.025 364.362 226.357 359.004 241.144 360.766C255.932 362.527 282.799 356.145 298.799 348.886C324.799 337.091 334.857 321.338 338.594 313.636C348.037 294.177 357.119 299.675 358.494 308.096C359.868 316.518 360.188 333.966 339.904 349.965Z" fill="url(#paint49_linear)"/>
<path d="M275.52 315.426C252.404 335.233 225.652 333.603 218.942 328C212.232 322.397 204.852 350.698 231.25 353.22C265.352 356.477 303.908 291.102 275.52 315.426Z" fill="#CAF5FD" fill-opacity="0.2"/>
<g filter="url(#filter3_f)">
<path fill-rule="evenodd" clip-rule="evenodd" d="M210.634 298.33C215.386 295.689 226.2 295.185 235.316 289.609C243.958 284.322 251.831 280.061 256.578 277.383C267.583 271.175 273.227 278.331 262.914 285.322C252.6 292.314 215.681 315.166 204.208 319.174C202.188 319.88 200.255 320.22 198.456 320.301C201.187 314.143 204.915 307.276 209.849 299.578C210.118 299.159 210.379 298.743 210.634 298.33Z" fill="url(#paint50_linear)" fill-opacity="0.2"/>
</g>
<path d="M168.089 255.738C168.14 254.097 165.442 253.336 164.091 252.939C162.674 252.577 162.544 250.128 165.535 249.735C168.482 249.347 171.575 250.7 174.659 253.761C177.285 256.367 203.305 282.69 207.516 286.315C211.728 289.941 217.224 289.807 222.237 287.754C227.251 285.701 259.279 268.287 270.384 262.26C281.489 256.233 287.842 269.597 277.415 276.419C266.989 283.241 230.101 302.778 218.565 306.597C211.586 308.908 205.717 306.927 202.7 304.964C195.666 300.385 173.058 276.092 167.176 269.497C165.191 267.272 162.817 267.406 161.626 267.618C158.456 268.183 155.244 267.964 151.902 266.511C148.791 265.158 146.117 262.503 145.61 259.059C145.154 255.958 146.824 254.726 148.248 255.425C148.209 254.06 150.268 253.11 151.741 254.225C153.039 255.207 154.546 257.666 159.389 258.365C164.232 259.064 168.044 257.231 168.089 255.738Z" fill="#1799FF"/>
<g style="mix-blend-mode:screen">
<path fill-rule="evenodd" clip-rule="evenodd" d="M164.468 251.652L164.47 251.652C164.502 251.662 164.535 251.671 164.569 251.681C165.227 251.874 166.314 252.192 167.247 252.688C168.135 253.161 169.482 254.115 169.431 255.78C169.403 256.71 168.819 257.429 168.258 257.902C167.662 258.404 166.876 258.821 165.99 259.137C164.209 259.771 161.825 260.071 159.199 259.692C156.557 259.311 154.767 258.436 153.454 257.489C152.808 257.024 152.295 256.554 151.881 256.16C151.794 256.078 151.714 256.002 151.641 255.931C151.336 255.64 151.132 255.444 150.934 255.295C149.39 254.126 148.06 256.08 148.908 257.73C148.342 256.323 147.653 256.228 147.23 256.706C147.049 256.91 146.743 257.535 146.938 258.864C147.358 261.713 149.608 264.051 152.439 265.281C155.514 266.618 158.454 266.821 161.392 266.298C162.783 266.05 165.742 265.873 168.178 268.604C171.106 271.887 178.215 279.595 185.469 287.052C189.095 290.78 192.75 294.437 195.932 297.444C199.139 300.475 201.79 302.77 203.433 303.84C206.171 305.622 211.619 307.485 218.145 305.325C223.793 303.455 235.802 297.67 247.79 291.444C259.755 285.231 271.531 278.668 276.683 275.297C281.431 272.19 282.098 267.84 280.77 265.108C280.097 263.725 278.897 262.679 277.302 262.269C275.704 261.859 273.572 262.057 271.025 263.439C270.586 263.677 270.114 263.933 269.613 264.206C263.772 267.376 253.894 272.739 244.661 277.68C234.683 283.02 225.337 287.935 222.747 288.995C217.469 291.156 211.378 291.408 206.643 287.332C203.204 284.371 185.525 266.586 177.492 258.505C175.577 256.579 174.211 255.204 173.716 254.713C170.789 251.808 168.087 250.752 165.711 251.065C165.139 251.14 164.819 251.3 164.656 251.422C164.502 251.538 164.473 251.629 164.468 251.652Z" fill="url(#paint51_linear)"/>
</g>
<path d="M152.316 261.743C150.437 260.424 148.804 258.023 148.269 255.463C148.25 257.645 149.154 259.862 151.501 261.905C154.295 264.337 159.042 265.095 161.261 264.894C159.726 264.81 155.822 264.205 152.316 261.743Z" fill="#108CFF"/>
<path d="M245.255 200.809C244.362 203.539 244.612 204.885 243.13 204.726C241.648 204.567 240.43 202.626 241.397 199.704C242.364 196.782 244.454 195.893 245.755 196.577C246.622 197.038 246.148 198.079 245.255 200.809Z" fill="#E8AB4F"/>
<path d="M245.333 200.847C244.45 203.589 244.747 204.954 243.171 204.766C241.595 204.578 240.256 202.596 241.213 199.661C242.17 196.727 244.366 195.866 245.763 196.58C246.693 197.062 246.215 198.105 245.333 200.847Z" fill="#354781"/>
<path d="M244.307 200.828C243.608 202.943 243.763 204.061 242.661 203.952C241.629 203.85 241.045 202.559 241.456 200.491C241.48 200.371 241.623 200.301 241.88 200.412C242.743 200.791 244.792 198.667 244.809 197.656C244.811 197.578 244.919 197.519 244.966 197.585C245.286 198.038 244.911 199.002 244.307 200.828Z" fill="#000E45"/>
<path d="M243.597 198.909C243.013 199.506 242.287 199.8 241.974 199.565C241.662 199.33 241.882 198.656 242.465 198.058C243.048 197.46 243.775 197.167 244.087 197.401C244.4 197.636 244.18 198.311 243.597 198.909Z" fill="#1C5AA1"/>
<path d="M243.185 198.662C242.998 198.907 242.715 199.031 242.554 198.938C242.393 198.845 242.414 198.57 242.601 198.325C242.789 198.079 243.071 197.956 243.233 198.049C243.394 198.142 243.373 198.416 243.185 198.662Z" fill="#9CB0CD"/>
</g>
<path d="M177.373 166.347C177.35 166.356 177.35 166.356 177.373 166.347L145.42 165.721C144.894 165.701 144.504 165.919 144.342 166.262L133.731 189.77C133.731 189.77 133.731 189.77 133.754 189.762C133.666 189.95 133.64 190.167 133.722 190.397L142 216.33C142.207 216.982 143.032 217.544 143.844 217.564L175.774 218.199C176.323 218.21 176.712 217.993 176.843 217.634C176.843 217.634 176.843 217.634 176.829 217.666L187.439 194.158C187.528 193.97 187.531 193.761 187.448 193.531L179.377 168.174C179.377 168.174 179.02 166.38 177.373 166.347ZM134.293 189.309L134.27 189.318L134.293 189.309ZM133.822 189.66C133.799 189.668 133.799 189.668 133.822 189.66C133.799 189.668 133.799 189.668 133.822 189.66ZM134.132 189.367C134.109 189.375 134.109 189.375 134.109 189.375C134.117 189.398 134.132 189.367 134.132 189.367ZM134.034 189.454C134.011 189.463 134.011 189.463 133.996 189.494C134.011 189.463 134.011 189.463 134.034 189.454ZM133.904 189.527C133.904 189.527 133.881 189.535 133.889 189.558C133.889 189.558 133.912 189.55 133.904 189.527ZM134.408 189.268C134.431 189.26 134.431 189.26 134.454 189.252C134.463 189.275 134.44 189.283 134.408 189.268ZM134.586 189.257C134.609 189.248 134.609 189.248 134.632 189.24C134.609 189.248 134.609 189.248 134.586 189.257ZM176.888 217.541C176.888 217.541 176.88 217.518 176.903 217.509L176.888 217.541ZM176.907 217.378L176.899 217.355C176.922 217.347 176.93 217.37 176.907 217.378ZM176.904 217.223C176.896 217.2 176.896 217.2 176.887 217.177C176.896 217.2 176.904 217.223 176.904 217.223Z" fill="#C3D0E4"/>
<path d="M179.117 192.309L157.556 192.062C156.412 192.056 155.39 191.306 155.057 190.231L150.568 176.105C150.027 174.377 151.363 172.6 153.22 172.636L173.087 172.867C174.231 172.872 175.253 173.623 175.586 174.698L180.582 190.382C180.874 191.342 180.138 192.333 179.117 192.309Z" fill="white"/>
<path d="M145.099 208.311L140.097 192.681C139.765 191.684 139.85 190.615 140.262 189.662L146.444 175.971C146.592 175.659 147.04 175.68 147.156 176.002L152.491 192.707C152.658 193.245 152.64 193.848 152.389 194.379L146.059 208.383C145.898 208.804 145.264 208.772 145.099 208.311Z" fill="white"/>
<path d="M149.339 209.57L154.924 197.184C155.234 196.527 155.89 196.111 156.617 196.11L178.584 196.549C179.451 196.576 180.027 197.46 179.666 198.265L173.919 210.995C173.712 211.432 173.27 211.72 172.798 211.708C169.325 211.654 155.464 211.374 150.421 211.285C149.555 211.258 148.97 210.351 149.339 209.57Z" fill="white"/>
<path d="M187.336 194.886C187.623 194.2 187.659 193.447 187.448 192.734L179.758 166.844C179.542 166.168 178.687 165.592 177.851 165.58L166.924 189.798C167.759 189.81 168.615 190.387 168.831 191.062L177.366 217.786C177.448 218.016 177.43 218.256 177.333 218.42C179.238 214.199 185.602 199.026 187.336 194.886ZM177.481 209.047L172.296 192.833C171.979 191.804 172.024 190.697 172.473 189.705L178.892 175.515C179.031 175.179 179.511 175.215 179.635 175.56L185.162 192.872C185.336 193.432 185.296 194.044 185.053 194.598L178.495 209.125C178.288 209.562 177.631 209.538 177.481 209.047Z" fill="#D9E1EF"/>
<path d="M177.363 217.785L168.828 191.062C168.612 190.386 167.757 189.81 166.921 189.798L134.025 189.145C133.189 189.133 132.684 189.678 132.9 190.353L141.434 217.077C141.65 217.752 142.506 218.329 143.341 218.341L176.238 218.993C177.073 219.006 177.579 218.461 177.363 217.785ZM170.646 215.414L146.536 214.938C145.252 214.904 144.12 214.064 143.729 212.828L138.577 196.706C137.945 194.725 139.439 192.736 141.504 192.775L163.727 193.201C165.011 193.234 166.143 194.075 166.534 195.311L172.251 213.229C172.616 214.319 171.79 215.42 170.646 215.414Z" fill="url(#paint52_linear)"/>
<g style="mix-blend-mode:multiply">
<path d="M139.365 183.83L145.753 169.624C146.099 168.851 146.861 168.37 147.682 168.414L172.867 168.92C173.865 168.952 174.514 169.966 174.117 170.887L167.537 185.499C167.301 185.999 166.798 186.335 166.249 186.324C162.273 186.243 146.37 185.916 140.592 185.805C139.594 185.773 138.937 184.736 139.365 183.83Z" fill="#95F2FF"/>
</g>
<g style="mix-blend-mode:multiply">
<path d="M170.672 215.482L146.554 214.983C145.27 214.95 144.138 214.109 143.747 212.873L138.579 196.705C137.947 194.724 139.441 192.735 141.506 192.774L163.737 193.223C165.021 193.256 166.153 194.097 166.544 195.333L172.278 213.297C172.643 214.387 171.817 215.488 170.672 215.482Z" fill="#95F2FF"/>
</g>
<g style="mix-blend-mode:multiply">
<path d="M177.481 209.046L172.296 192.832C171.979 191.803 172.024 190.696 172.474 189.705L178.892 175.514C179.031 175.178 179.512 175.214 179.635 175.559L185.162 192.871C185.337 193.431 185.296 194.043 185.053 194.597L178.495 209.124C178.289 209.561 177.631 209.537 177.481 209.046Z" fill="#95F2FF"/>
</g>
<path d="M170.303 187.78L179.286 167.919C179.765 166.865 179.042 165.644 177.881 165.592L177.858 165.601L145.815 164.964C144.465 164.906 143.54 165.619 143.193 166.545L132.934 189.717C133.096 189.373 133.486 189.156 134.035 189.167L166.931 189.819L166.954 189.811C168.37 189.849 169.706 189.085 170.303 187.78ZM139.375 183.853L145.77 169.67C146.125 168.92 146.879 168.416 147.7 168.46L172.876 168.943C173.866 168.952 174.523 169.989 174.118 170.887L167.531 185.476C167.294 185.976 166.791 186.312 166.242 186.301C162.266 186.219 146.371 185.916 140.594 185.805C139.604 185.796 138.978 184.774 139.375 183.853Z" fill="url(#paint53_linear)"/>
<path d="M179.947 167.448C179.873 167.241 179.579 167.217 179.498 167.427L169.956 188.553C169.234 190.162 169.135 191.989 169.66 193.671L177.355 217.761C177.438 217.991 177.42 218.231 177.323 218.396C187.663 195.517 187.826 192.061 179.947 167.448ZM177.478 209.045L172.293 192.831C171.977 191.802 172.021 190.695 172.471 189.704L178.89 175.513C179.029 175.177 179.509 175.213 179.633 175.558L185.159 192.87C185.334 193.43 185.294 194.042 185.051 194.596L178.493 209.123C178.286 209.56 177.628 209.536 177.478 209.045Z" fill="#D9E1EF"/>
<g filter="url(#filter4_f)">
<path d="M158.088 201.423C158.088 202.519 157.2 203.408 156.104 203.408C155.008 203.408 154.119 202.519 154.119 201.423C154.119 200.327 155.008 199.438 156.104 199.438C157.2 199.438 158.088 200.327 158.088 201.423Z" fill="white" fill-opacity="0.7"/>
</g>
<path d="M157.295 201.422C157.295 202.08 156.762 202.613 156.104 202.613C155.446 202.613 154.913 202.08 154.913 201.422C154.913 200.765 155.446 200.231 156.104 200.231C156.762 200.231 157.295 200.765 157.295 201.422Z" fill="white"/>
<g opacity="0.59">
<g filter="url(#filter5_f)">
<path d="M164.864 180.948C164.864 182.721 163.427 184.159 161.653 184.159C159.88 184.159 158.442 182.721 158.442 180.948C158.442 179.174 159.88 177.737 161.653 177.737C163.427 177.737 164.864 179.174 164.864 180.948Z" fill="white" fill-opacity="0.7"/>
</g>
<path d="M163.58 180.949C163.58 182.013 162.717 182.875 161.653 182.875C160.589 182.875 159.727 182.013 159.727 180.949C159.727 179.885 160.589 179.022 161.653 179.022C162.717 179.022 163.58 179.885 163.58 180.949Z" fill="white"/>
</g>
<g opacity="0.69">
<g filter="url(#filter6_f)">
<path d="M192.283 177.929C192.283 178.929 191.473 179.739 190.473 179.739C189.473 179.739 188.662 178.929 188.662 177.929C188.662 176.929 189.473 176.118 190.473 176.118C191.473 176.118 192.283 176.929 192.283 177.929Z" fill="white" fill-opacity="0.7"/>
</g>
<path d="M191.559 177.93C191.559 178.53 191.072 179.016 190.472 179.016C189.872 179.016 189.386 178.53 189.386 177.93C189.386 177.33 189.872 176.843 190.472 176.843C191.072 176.843 191.559 177.33 191.559 177.93Z" fill="white"/>
</g>
<g opacity="0.75">
<g filter="url(#filter7_f)">
<path d="M162.398 139.513C162.398 140.869 161.298 141.968 159.942 141.968C158.587 141.968 157.487 140.869 157.487 139.513C157.487 138.157 158.587 137.058 159.942 137.058C161.298 137.058 162.398 138.157 162.398 139.513Z" fill="white" fill-opacity="0.7"/>
</g>
<path d="M161.416 139.513C161.416 140.327 160.756 140.986 159.943 140.986C159.129 140.986 158.47 140.327 158.47 139.513C158.47 138.7 159.129 138.04 159.943 138.04C160.756 138.04 161.416 138.7 161.416 139.513Z" fill="white"/>
</g>
<g filter="url(#filter8_f)">
<path d="M172.904 158.087C172.904 159.427 171.819 160.512 170.479 160.512C169.14 160.512 168.055 159.427 168.055 158.087C168.055 156.748 169.14 155.663 170.479 155.663C171.819 155.663 172.904 156.748 172.904 158.087Z" fill="white" fill-opacity="0.7"/>
</g>
<path d="M171.934 158.087C171.934 158.89 171.283 159.542 170.479 159.542C169.676 159.542 169.024 158.89 169.024 158.087C169.024 157.283 169.676 156.632 170.479 156.632C171.283 156.632 171.934 157.283 171.934 158.087Z" fill="white"/>
<g opacity="0.5">
<g filter="url(#filter9_f)">
<path d="M151.529 154.37C151.529 155.297 150.777 156.049 149.85 156.049C148.923 156.049 148.171 155.297 148.171 154.37C148.171 153.442 148.923 152.69 149.85 152.69C150.777 152.69 151.529 153.442 151.529 154.37Z" fill="white" fill-opacity="0.7"/>
</g>
<path d="M150.857 154.37C150.857 154.926 150.406 155.377 149.849 155.377C149.293 155.377 148.842 154.926 148.842 154.37C148.842 153.813 149.293 153.362 149.849 153.362C150.406 153.362 150.857 153.813 150.857 154.37Z" fill="white"/>
</g>
<g filter="url(#filter10_f)">
<path d="M171.217 225.531C171.217 226.03 170.813 226.435 170.313 226.435C169.814 226.435 169.409 226.03 169.409 225.531C169.409 225.032 169.814 224.627 170.313 224.627C170.813 224.627 171.217 225.032 171.217 225.531Z" fill="white" fill-opacity="0.7"/>
</g>
<path d="M170.856 225.532C170.856 225.831 170.614 226.074 170.314 226.074C170.014 226.074 169.771 225.831 169.771 225.532C169.771 225.232 170.014 224.989 170.314 224.989C170.614 224.989 170.856 225.232 170.856 225.532Z" fill="white"/>
<g opacity="0.8">
<g filter="url(#filter11_f)">
<path d="M156.774 229.702C156.774 230.568 156.073 231.269 155.208 231.269C154.343 231.269 153.642 230.568 153.642 229.702C153.642 228.837 154.343 228.136 155.208 228.136C156.073 228.136 156.774 228.837 156.774 229.702Z" fill="white" fill-opacity="0.7"/>
</g>
<path d="M156.148 229.701C156.148 230.22 155.727 230.641 155.208 230.641C154.689 230.641 154.269 230.22 154.269 229.701C154.269 229.182 154.689 228.762 155.208 228.762C155.727 228.762 156.148 229.182 156.148 229.701Z" fill="white"/>
</g>
<g filter="url(#filter12_f)">
<path d="M179.43 197.738C179.43 199.314 178.153 200.591 176.577 200.591C175.001 200.591 173.724 199.314 173.724 197.738C173.724 196.162 175.001 194.885 176.577 194.885C178.153 194.885 179.43 196.162 179.43 197.738Z" fill="white" fill-opacity="0.7"/>
</g>
<path d="M178.288 197.739C178.288 198.684 177.522 199.451 176.576 199.451C175.631 199.451 174.864 198.684 174.864 197.739C174.864 196.793 175.631 196.027 176.576 196.027C177.522 196.027 178.288 196.793 178.288 197.739Z" fill="white"/>
<g opacity="0.51">
<g filter="url(#filter13_f)">
<path d="M167.2 208.157C167.2 209.732 165.922 211.01 164.347 211.01C162.771 211.01 161.493 209.732 161.493 208.157C161.493 206.581 162.771 205.303 164.347 205.303C165.922 205.303 167.2 206.581 167.2 208.157Z" fill="white" fill-opacity="0.7"/>
</g>
<path d="M166.058 208.155C166.058 209.1 165.291 209.867 164.346 209.867C163.4 209.867 162.634 209.1 162.634 208.155C162.634 207.209 163.4 206.443 164.346 206.443C165.291 206.443 166.058 207.209 166.058 208.155Z" fill="white"/>
</g>
<path d="M72.1212 549.421C67.6197 551.636 62.3112 548.634 61.9187 543.632C60.353 523.682 60.3661 509.084 61.937 488.697C62.3233 483.684 67.6418 480.665 72.1511 482.89C90.4673 491.928 103.125 499.182 119.675 510.285C123.856 513.089 123.864 519.211 119.69 522.025C103.525 532.922 90.8678 540.193 72.1212 549.421Z" fill="#FFE179"/>
<path d="M310.953 79.0315C308.604 74.9637 309.998 69.7621 314.066 67.4135L330.351 58.0111C334.419 55.6625 339.621 57.0563 341.969 61.1241L351.372 77.4097C353.72 81.4775 352.326 86.679 348.259 89.0276L331.973 98.4301C327.905 100.779 322.704 99.3849 320.355 95.3171L310.953 79.0315Z" fill="#ADF5CA"/>
<path d="M473 0H670V71H515C491.804 71 473 52.196 473 29V0Z" fill="#FFE179"/>
<path d="M506 693C506 669.804 524.804 651 548 651H670V720H506V693Z" fill="#FF8374"/>
<path d="M461.147 693C461.147 669.804 442.343 651 419.147 651H87.1475C63.9515 651 45.1475 669.804 45.1475 693V720H461.147V693Z" fill="#95F2FF"/>
<g opacity="0.1">
<mask id="mask3" mask-type="alpha" maskUnits="userSpaceOnUse" x="473" y="0" width="197" height="71">
<path d="M473 41C473 57.5685 486.431 71 503 71L640 71C656.569 71 670 57.5686 670 41L670 1.9635e-06L503 -1.26361e-05C486.431 -1.40846e-05 473 13.4314 473 30L473 41Z" fill="white"/>
</mask>
<g mask="url(#mask3)">
<path d="M646.46 -141.965V-91.5994C646.46 -90.4949 647.355 -89.5994 648.46 -89.5994H687.552C688.657 -89.5994 689.552 -88.704 689.552 -87.5994V-47.9616C689.552 -46.857 690.448 -45.9616 691.552 -45.9616H727.917C729.022 -45.9616 729.917 -45.0661 729.917 -43.9616V-2.68731C729.917 -1.58274 730.813 -0.687311 731.917 -0.687311L771.01 -0.687311C772.114 -0.687311 773.01 0.208119 773.01 1.31269V35.4958C773.01 36.6004 773.905 37.4958 775.01 37.4958H803.738C804.843 37.4958 805.738 38.3912 805.738 39.4958V83.861" stroke="#D1A300" stroke-width="20"/>
<path d="M541.729 -141.965V-91.5994C541.729 -90.4949 542.625 -89.5994 543.729 -89.5994H582.822C583.926 -89.5994 584.822 -88.704 584.822 -87.5994V-47.9616C584.822 -46.857 585.717 -45.9616 586.822 -45.9616H623.187C624.291 -45.9616 625.187 -45.0662 625.187 -43.9616V-2.68733C625.187 -1.58276 626.082 -0.687327 627.187 -0.687327L666.279 -0.687327C667.384 -0.687327 668.279 0.208104 668.279 1.31267V38.7686C668.279 39.8732 669.175 40.7686 670.279 40.7686H711.008C712.113 40.7686 713.008 41.6641 713.008 42.7686V78.4063" stroke="#D1A300" stroke-width="20"/>
<path d="M445.727 -133.237V-82.8714C445.727 -81.7668 446.622 -80.8714 447.727 -80.8714H486.819C487.924 -80.8714 488.819 -79.976 488.819 -78.8714V-39.2336C488.819 -38.129 489.714 -37.2336 490.819 -37.2336H527.184C528.289 -37.2336 529.184 -36.3381 529.184 -35.2336V6.0407C529.184 7.14527 530.079 8.0407 531.184 8.0407L570.276 8.0407C571.381 8.0407 572.276 8.93613 572.276 10.0407V47.4967C572.276 48.6012 573.172 49.4967 574.276 49.4967H615.005C616.11 49.4967 617.005 50.3921 617.005 51.4967V87.1343" stroke="#D1A300" stroke-width="20"/>
</g>
</g>
<mask id="mask4" mask-type="alpha" maskUnits="userSpaceOnUse" x="45" y="651" width="381" height="69">
<path d="M85.1475 651C63.0561 651 45.1475 668.909 45.1475 691L45.1475 720L425.147 720L425.147 691C425.147 668.909 407.239 651 385.147 651L85.1475 651Z" fill="white"/>
</mask>
<g mask="url(#mask4)">
<rect width="123.492" height="127.349" rx="16" transform="matrix(0.523248 0.85218 0.878846 -0.477106 -19.9922 688.606)" fill="#7BEFFF"/>
<rect width="155.284" height="160.133" rx="16" transform="matrix(0.523248 0.85218 0.878846 -0.477106 166.615 747.831)" fill="#7BEFFF"/>
<rect width="88.8073" height="91.5808" rx="16" transform="matrix(0.523248 0.85218 0.878846 -0.477106 131.321 635.521)" fill="#7BEFFF"/>
</g>
<defs>
<filter id="filter0_f" x="132.147" y="414" width="284.223" height="252.692" filterUnits="userSpaceOnUse" color-interpolation-filters="sRGB">
<feFlood flood-opacity="0" result="BackgroundImageFix"/>
<feBlend mode="normal" in="SourceGraphic" in2="BackgroundImageFix" result="shape"/>
<feGaussianBlur stdDeviation="8" result="effect1_foregroundBlur"/>
</filter>
<filter id="filter1_f" x="501.558" y="258.646" width="131.419" height="30.6444" filterUnits="userSpaceOnUse" color-interpolation-filters="sRGB">
<feFlood flood-opacity="0" result="BackgroundImageFix"/>
<feBlend mode="normal" in="SourceGraphic" in2="BackgroundImageFix" result="shape"/>
<feGaussianBlur stdDeviation="0.5" result="effect1_foregroundBlur"/>
</filter>
<filter id="filter2_f" x="118.254" y="162.407" width="255.53" height="241.363" filterUnits="userSpaceOnUse" color-interpolation-filters="sRGB">
<feFlood flood-opacity="0" result="BackgroundImageFix"/>
<feBlend mode="normal" in="SourceGraphic" in2="BackgroundImageFix" result="shape"/>
<feGaussianBlur stdDeviation="4" result="effect1_foregroundBlur"/>
</filter>
<filter id="filter3_f" x="194.456" y="271.011" width="77.8888" height="53.2904" filterUnits="userSpaceOnUse" color-interpolation-filters="sRGB">
<feFlood flood-opacity="0" result="BackgroundImageFix"/>
<feBlend mode="normal" in="SourceGraphic" in2="BackgroundImageFix" result="shape"/>
<feGaussianBlur stdDeviation="2" result="effect1_foregroundBlur"/>
</filter>
<filter id="filter4_f" x="150.119" y="195.438" width="11.9693" height="11.9693" filterUnits="userSpaceOnUse" color-interpolation-filters="sRGB">
<feFlood flood-opacity="0" result="BackgroundImageFix"/>
<feBlend mode="normal" in="SourceGraphic" in2="BackgroundImageFix" result="shape"/>
<feGaussianBlur stdDeviation="2" result="effect1_foregroundBlur"/>
</filter>
<filter id="filter5_f" x="154.442" y="173.737" width="14.4221" height="14.4221" filterUnits="userSpaceOnUse" color-interpolation-filters="sRGB">
<feFlood flood-opacity="0" result="BackgroundImageFix"/>
<feBlend mode="normal" in="SourceGraphic" in2="BackgroundImageFix" result="shape"/>
<feGaussianBlur stdDeviation="2" result="effect1_foregroundBlur"/>
</filter>
<filter id="filter6_f" x="184.662" y="172.118" width="11.6213" height="11.6213" filterUnits="userSpaceOnUse" color-interpolation-filters="sRGB">
<feFlood flood-opacity="0" result="BackgroundImageFix"/>
<feBlend mode="normal" in="SourceGraphic" in2="BackgroundImageFix" result="shape"/>
<feGaussianBlur stdDeviation="2" result="effect1_foregroundBlur"/>
</filter>
<filter id="filter7_f" x="153.487" y="133.058" width="12.9102" height="12.9102" filterUnits="userSpaceOnUse" color-interpolation-filters="sRGB">
<feFlood flood-opacity="0" result="BackgroundImageFix"/>
<feBlend mode="normal" in="SourceGraphic" in2="BackgroundImageFix" result="shape"/>
<feGaussianBlur stdDeviation="2" result="effect1_foregroundBlur"/>
</filter>
<filter id="filter8_f" x="164.055" y="151.663" width="12.8495" height="12.8495" filterUnits="userSpaceOnUse" color-interpolation-filters="sRGB">
<feFlood flood-opacity="0" result="BackgroundImageFix"/>
<feBlend mode="normal" in="SourceGraphic" in2="BackgroundImageFix" result="shape"/>
<feGaussianBlur stdDeviation="2" result="effect1_foregroundBlur"/>
</filter>
<filter id="filter9_f" x="144.171" y="148.69" width="11.3584" height="11.3584" filterUnits="userSpaceOnUse" color-interpolation-filters="sRGB">
<feFlood flood-opacity="0" result="BackgroundImageFix"/>
<feBlend mode="normal" in="SourceGraphic" in2="BackgroundImageFix" result="shape"/>
<feGaussianBlur stdDeviation="2" result="effect1_foregroundBlur"/>
</filter>
<filter id="filter10_f" x="165.409" y="220.627" width="9.80817" height="9.80817" filterUnits="userSpaceOnUse" color-interpolation-filters="sRGB">
<feFlood flood-opacity="0" result="BackgroundImageFix"/>
<feBlend mode="normal" in="SourceGraphic" in2="BackgroundImageFix" result="shape"/>
<feGaussianBlur stdDeviation="2" result="effect1_foregroundBlur"/>
</filter>
<filter id="filter11_f" x="149.642" y="224.136" width="11.1325" height="11.1325" filterUnits="userSpaceOnUse" color-interpolation-filters="sRGB">
<feFlood flood-opacity="0" result="BackgroundImageFix"/>
<feBlend mode="normal" in="SourceGraphic" in2="BackgroundImageFix" result="shape"/>
<feGaussianBlur stdDeviation="2" result="effect1_foregroundBlur"/>
</filter>
<filter id="filter12_f" x="169.724" y="190.885" width="13.7067" height="13.7067" filterUnits="userSpaceOnUse" color-interpolation-filters="sRGB">
<feFlood flood-opacity="0" result="BackgroundImageFix"/>
<feBlend mode="normal" in="SourceGraphic" in2="BackgroundImageFix" result="shape"/>
<feGaussianBlur stdDeviation="2" result="effect1_foregroundBlur"/>
</filter>
<filter id="filter13_f" x="157.493" y="201.303" width="13.7067" height="13.7067" filterUnits="userSpaceOnUse" color-interpolation-filters="sRGB">
<feFlood flood-opacity="0" result="BackgroundImageFix"/>
<feBlend mode="normal" in="SourceGraphic" in2="BackgroundImageFix" result="shape"/>
<feGaussianBlur stdDeviation="2" result="effect1_foregroundBlur"/>
</filter>
<linearGradient id="paint0_linear" x1="513.164" y1="392.085" x2="99.1489" y2="700.516" gradientUnits="userSpaceOnUse">
<stop stop-color="#BAF7C8"/>
<stop offset="1" stop-color="#17E1DB"/>
</linearGradient>
<linearGradient id="paint1_linear" x1="513.164" y1="392.085" x2="99.1489" y2="700.516" gradientUnits="userSpaceOnUse">
<stop stop-color="#BAF7C8"/>
<stop offset="1" stop-color="#17E1DB"/>
</linearGradient>
<linearGradient id="paint2_linear" x1="520.097" y1="460.534" x2="559.074" y2="477.58" gradientUnits="userSpaceOnUse">
<stop stop-color="#DAE0F5"/>
<stop offset="1" stop-color="#BAC8FB"/>
</linearGradient>
<linearGradient id="paint3_linear" x1="551.497" y1="455.273" x2="556.47" y2="480.669" gradientUnits="userSpaceOnUse">
<stop stop-color="#D2DBFB"/>
<stop offset="1" stop-color="#F1F6FF"/>
</linearGradient>
<linearGradient id="paint4_linear" x1="305.17" y1="544.504" x2="413.821" y2="508.274" gradientUnits="userSpaceOnUse">
<stop stop-color="#BAC4E1"/>
<stop offset="0.758458" stop-color="#ECEDF6"/>
</linearGradient>
<linearGradient id="paint5_linear" x1="312.476" y1="543.273" x2="420.022" y2="496.113" gradientUnits="userSpaceOnUse">
<stop stop-color="#A8B0CC"/>
<stop offset="1" stop-color="#EBECF8" stop-opacity="0.52"/>
</linearGradient>
<linearGradient id="paint6_linear" x1="228.061" y1="443.5" x2="244.786" y2="626.462" gradientUnits="userSpaceOnUse">
<stop stop-color="white"/>
<stop offset="1" stop-color="#E1E3F8"/>
</linearGradient>
<radialGradient id="paint7_radial" cx="0" cy="0" r="1" gradientUnits="userSpaceOnUse" gradientTransform="translate(224.521 483.029) rotate(65.546) scale(139.676 182.101)">
<stop stop-color="#DEDFF0" stop-opacity="0"/>
<stop offset="1" stop-color="#C9CAE3"/>
</radialGradient>
<linearGradient id="paint8_linear" x1="258.101" y1="459.315" x2="288.687" y2="497.755" gradientUnits="userSpaceOnUse">
<stop stop-color="white" stop-opacity="0"/>
<stop offset="1" stop-color="white"/>
</linearGradient>
<linearGradient id="paint9_linear" x1="237.144" y1="437.339" x2="267.505" y2="467.424" gradientUnits="userSpaceOnUse">
<stop stop-color="#0B44DC"/>
<stop offset="1" stop-color="#9893D5" stop-opacity="0"/>
</linearGradient>
<radialGradient id="paint10_radial" cx="0" cy="0" r="1" gradientUnits="userSpaceOnUse" gradientTransform="translate(424.596 498.776) rotate(-90.4092) scale(10.1629 15.3851)">
<stop stop-color="#1D5EDB"/>
<stop offset="1" stop-color="#1284F9" stop-opacity="0"/>
</radialGradient>
<linearGradient id="paint11_linear" x1="433.183" y1="480.975" x2="435.98" y2="491.567" gradientUnits="userSpaceOnUse">
<stop stop-color="#2997FF"/>
<stop offset="1" stop-color="#2997FF" stop-opacity="0"/>
</linearGradient>
<radialGradient id="paint12_radial" cx="0" cy="0" r="1" gradientUnits="userSpaceOnUse" gradientTransform="translate(435.576 491.03) rotate(-157.457) scale(9.42335 19.6119)">
<stop stop-color="#2997FF"/>
<stop offset="1" stop-color="#108CFF"/>
</radialGradient>
<linearGradient id="paint13_linear" x1="424.707" y1="487.939" x2="429.627" y2="487.507" gradientUnits="userSpaceOnUse">
<stop stop-color="#2997FF"/>
<stop offset="1" stop-color="#2997FF" stop-opacity="0"/>
</linearGradient>
<linearGradient id="paint14_linear" x1="446.82" y1="475.753" x2="439.553" y2="478.592" gradientUnits="userSpaceOnUse">
<stop stop-color="#62B3FF"/>
<stop offset="1" stop-color="#62B3FF" stop-opacity="0"/>
</linearGradient>
<linearGradient id="paint15_linear" x1="450.53" y1="484.194" x2="440.5" y2="482.264" gradientUnits="userSpaceOnUse">
<stop stop-color="#62B3FF"/>
<stop offset="1" stop-color="#62B3FF" stop-opacity="0"/>
</linearGradient>
<linearGradient id="paint16_linear" x1="447.94" y1="492.093" x2="440.187" y2="485.445" gradientUnits="userSpaceOnUse">
<stop stop-color="#62B3FF"/>
<stop offset="1" stop-color="#62B3FF" stop-opacity="0"/>
</linearGradient>
<linearGradient id="paint17_linear" x1="442.141" y1="495.746" x2="438.716" y2="492.088" gradientUnits="userSpaceOnUse">
<stop stop-color="#329CFF"/>
<stop offset="1" stop-color="#329CFF" stop-opacity="0"/>
</linearGradient>
<linearGradient id="paint18_linear" x1="238.463" y1="618.365" x2="263.38" y2="496.901" gradientUnits="userSpaceOnUse">
<stop stop-color="white"/>
<stop offset="0.921875" stop-color="#E1E3F8" stop-opacity="0"/>
</linearGradient>
<linearGradient id="paint19_linear" x1="596.3" y1="308.78" x2="590.471" y2="339.858" gradientUnits="userSpaceOnUse">
<stop stop-color="#FAFAFA"/>
<stop offset="1" stop-color="#9EAFD0"/>
</linearGradient>
<linearGradient id="paint20_linear" x1="595.102" y1="309.033" x2="586.06" y2="334.415" gradientUnits="userSpaceOnUse">
<stop stop-color="#A4B5D5" stop-opacity="0"/>
<stop offset="1" stop-color="#899DC1"/>
</linearGradient>
<linearGradient id="paint21_linear" x1="498.539" y1="229.595" x2="480.651" y2="171.867" gradientUnits="userSpaceOnUse">
<stop stop-color="#DB87EC"/>
<stop offset="1" stop-color="#DB87EC" stop-opacity="0"/>
</linearGradient>
<linearGradient id="paint22_linear" x1="485.529" y1="163.465" x2="457.072" y2="212.248" gradientUnits="userSpaceOnUse">
<stop stop-color="#FFE68C"/>
<stop offset="1" stop-color="#FF9900" stop-opacity="0"/>
</linearGradient>
<linearGradient id="paint23_linear" x1="493.336" y1="171.157" x2="515.715" y2="179.888" gradientUnits="userSpaceOnUse">
<stop stop-color="#D79393"/>
<stop offset="1" stop-color="#2765E3" stop-opacity="0"/>
</linearGradient>
<linearGradient id="paint24_linear" x1="468.915" y1="196.857" x2="468.915" y2="261.691" gradientUnits="userSpaceOnUse">
<stop stop-color="#9FB2D3" stop-opacity="0.37"/>
<stop offset="1" stop-color="#9FB2D3" stop-opacity="0"/>
</linearGradient>
<linearGradient id="paint25_linear" x1="510.266" y1="291.912" x2="520.408" y2="284.028" gradientUnits="userSpaceOnUse">
<stop stop-color="#899CBF"/>
<stop offset="1" stop-color="#BAC7DE" stop-opacity="0"/>
</linearGradient>
<linearGradient id="paint26_linear" x1="533.68" y1="294.952" x2="506.425" y2="286.556" gradientUnits="userSpaceOnUse">
<stop stop-color="#F7F7F8"/>
<stop offset="1" stop-color="#F7F7F8" stop-opacity="0"/>
</linearGradient>
<linearGradient id="paint27_linear" x1="533.68" y1="294.952" x2="506.425" y2="286.556" gradientUnits="userSpaceOnUse">
<stop stop-color="#F7F7F8"/>
<stop offset="1" stop-color="#F7F7F8" stop-opacity="0"/>
</linearGradient>
<linearGradient id="paint28_linear" x1="533.68" y1="294.952" x2="506.425" y2="286.556" gradientUnits="userSpaceOnUse">
<stop stop-color="#F7F7F8"/>
<stop offset="1" stop-color="#F7F7F8" stop-opacity="0"/>
</linearGradient>
<linearGradient id="paint29_linear" x1="533.68" y1="294.952" x2="506.425" y2="286.556" gradientUnits="userSpaceOnUse">
<stop stop-color="#F7F7F8"/>
<stop offset="1" stop-color="#F7F7F8" stop-opacity="0"/>
</linearGradient>
<linearGradient id="paint30_linear" x1="479.525" y1="240.194" x2="417.91" y2="352.624" gradientUnits="userSpaceOnUse">
<stop stop-color="#4C1691"/>
<stop offset="1" stop-color="#291E4E" stop-opacity="0"/>
</linearGradient>
<linearGradient id="paint31_linear" x1="477.915" y1="244.602" x2="477.915" y2="295.878" gradientUnits="userSpaceOnUse">
<stop stop-color="#7D42BF"/>
<stop offset="1" stop-color="#4A55AC" stop-opacity="0"/>
</linearGradient>
<linearGradient id="paint32_linear" x1="539.439" y1="281.849" x2="537.6" y2="260.302" gradientUnits="userSpaceOnUse">
<stop stop-color="#395590"/>
<stop offset="1" stop-color="#395590" stop-opacity="0"/>
</linearGradient>
<linearGradient id="paint33_linear" x1="560.873" y1="287.279" x2="623.589" y2="279.005" gradientUnits="userSpaceOnUse">
<stop stop-color="#8379BD"/>
<stop offset="1" stop-color="#485776"/>
</linearGradient>
<linearGradient id="paint34_linear" x1="592.827" y1="221.326" x2="545.446" y2="274.661" gradientUnits="userSpaceOnUse">
<stop stop-color="#C8D1E4"/>
<stop offset="1" stop-color="#8198C7"/>
</linearGradient>
<linearGradient id="paint35_linear" x1="592.68" y1="220.619" x2="574.319" y2="238.551" gradientUnits="userSpaceOnUse">
<stop stop-color="white"/>
<stop offset="1" stop-color="#BCC7DF" stop-opacity="0"/>
</linearGradient>
<linearGradient id="paint36_linear" x1="592.848" y1="201.277" x2="594.104" y2="285.084" gradientUnits="userSpaceOnUse">
<stop stop-color="#A9B8D5"/>
<stop offset="1" stop-color="#6683BD"/>
</linearGradient>
<linearGradient id="paint37_linear" x1="592.848" y1="201.277" x2="594.104" y2="285.084" gradientUnits="userSpaceOnUse">
<stop stop-color="#E3C6C6" stop-opacity="0"/>
<stop offset="1" stop-color="#B97EDE"/>
</linearGradient>
<linearGradient id="paint38_linear" x1="580.397" y1="226.816" x2="548.629" y2="270.862" gradientUnits="userSpaceOnUse">
<stop stop-color="#E6ECF9"/>
<stop offset="1" stop-color="#ADBEE0"/>
</linearGradient>
<linearGradient id="paint39_linear" x1="547.215" y1="218.278" x2="582.783" y2="276.701" gradientUnits="userSpaceOnUse">
<stop stop-color="white"/>
<stop offset="1" stop-color="white" stop-opacity="0"/>
</linearGradient>
<linearGradient id="paint40_linear" x1="567.021" y1="216.896" x2="567.94" y2="278.299" gradientUnits="userSpaceOnUse">
<stop stop-color="#A1B2D4"/>
<stop offset="1" stop-color="#7D7CBE"/>
</linearGradient>
<linearGradient id="paint41_linear" x1="573.441" y1="244.783" x2="552.26" y2="249.98" gradientUnits="userSpaceOnUse">
<stop stop-color="#939DCB"/>
<stop offset="1" stop-color="#A1B1D4"/>
</linearGradient>
<linearGradient id="paint42_linear" x1="566.611" y1="239.528" x2="553.626" y2="257.06" gradientUnits="userSpaceOnUse">
<stop stop-color="#D5DFF1"/>
<stop offset="1" stop-color="#F3F7FF"/>
</linearGradient>
<linearGradient id="paint43_linear" x1="566.235" y1="240.299" x2="560.072" y2="248.205" gradientUnits="userSpaceOnUse">
<stop stop-color="white"/>
<stop offset="1" stop-color="white" stop-opacity="0"/>
</linearGradient>
<linearGradient id="paint44_linear" x1="589.873" y1="242.215" x2="590.219" y2="265.335" gradientUnits="userSpaceOnUse">
<stop stop-color="#E0E7F6"/>
<stop offset="1" stop-color="#C4D1EA"/>
</linearGradient>
<linearGradient id="paint45_linear" x1="237.448" y1="202.283" x2="220.4" y2="215.21" gradientUnits="userSpaceOnUse">
<stop stop-color="#108CFF"/>
<stop offset="1" stop-color="#40E6D3"/>
</linearGradient>
<linearGradient id="paint46_linear" x1="235.311" y1="206.333" x2="223.843" y2="210.806" gradientUnits="userSpaceOnUse">
<stop stop-color="#2395FF"/>
<stop offset="1" stop-color="#2395FF" stop-opacity="0"/>
</linearGradient>
<radialGradient id="paint47_radial" cx="0" cy="0" r="1" gradientUnits="userSpaceOnUse" gradientTransform="translate(232.594 209.268) rotate(-74.1598) scale(12.681 6.92507)">
<stop stop-color="#2164C8"/>
<stop offset="1" stop-color="#108CFF" stop-opacity="0"/>
</radialGradient>
<linearGradient id="paint48_linear" x1="353.528" y1="390.864" x2="251.895" y2="236.128" gradientUnits="userSpaceOnUse">
<stop stop-color="#F29B67"/>
<stop offset="1" stop-color="#F29B67" stop-opacity="0.35"/>
</linearGradient>
<linearGradient id="paint49_linear" x1="329.201" y1="369.067" x2="304.216" y2="332.242" gradientUnits="userSpaceOnUse">
<stop stop-color="#F28F6D"/>
<stop offset="1" stop-color="#F28F6D" stop-opacity="0"/>
</linearGradient>
<linearGradient id="paint50_linear" x1="239.724" y1="297.213" x2="237.772" y2="331.576" gradientUnits="userSpaceOnUse">
<stop stop-color="#143CCD"/>
<stop offset="1" stop-color="#F1906C" stop-opacity="0"/>
</linearGradient>
<linearGradient id="paint51_linear" x1="156.676" y1="283.884" x2="182.891" y2="256.916" gradientUnits="userSpaceOnUse">
<stop stop-color="#F6A865"/>
<stop offset="0.0001" stop-color="#3CACFF"/>
<stop offset="1" stop-color="#65C2F6" stop-opacity="0"/>
</linearGradient>
<linearGradient id="paint52_linear" x1="172.484" y1="217.957" x2="135.642" y2="189.872" gradientUnits="userSpaceOnUse">
<stop stop-color="#A3C5DC"/>
<stop offset="1" stop-color="#D3D3E7"/>
</linearGradient>
<linearGradient id="paint53_linear" x1="151.347" y1="166.92" x2="168.258" y2="190.173" gradientUnits="userSpaceOnUse">
<stop stop-color="#E5E6F3"/>
<stop offset="1" stop-color="white"/>
</linearGradient>
</defs>
</svg>
