<?xml version="1.0" encoding="UTF-8"?>
<svg width="64px" height="64px" viewBox="0 0 64 64" version="1.1" xmlns="http://www.w3.org/2000/svg" xmlns:xlink="http://www.w3.org/1999/xlink">
    <title>z</title>
    <g id="z" stroke="none" stroke-width="1" fill="none" fill-rule="evenodd">
        <ellipse id="Oval" fill="#108CFF" fill-rule="nonzero" transform="translate(49.708703, 17.340239) scale(-1, 1) rotate(89.999997) translate(-49.708703, -17.340239) " cx="49.7087029" cy="17.3402388" rx="7.32994532" ry="7.29129674"></ellipse>
        <path d="M27.8286859,26.0856059 C22.7587878,24.5394578 17.2883766,26.0592742 13.6163827,30.0340404 L10.0058827,33.9423192 C3.90573728,40.5455251 7.007055,51.594535 15.5483637,53.6884417 C19.4050773,54.6339882 23.4528085,53.3940655 26.215523,50.4209203 L42.8934684,32.472533 C43.4817907,31.8393759 43.2146037,30.7778504 42.4047247,30.5308713 L27.8286859,26.0856059 Z" id="Path" fill="#FFCA62" fill-rule="nonzero"></path>
        <path d="M27.6422031,37.1175594 C22.5062728,38.7136842 16.9137268,37.3203676 13.112638,33.4977323 L9.37520074,29.7390596 C3.06062799,23.3885816 6.04124697,12.5390008 14.7020265,10.3492118 C18.6126484,9.36049164 22.7525587,10.5041381 25.6121267,13.3632543 L42.8746698,30.6229555 C43.4836095,31.2318002 43.228587,32.2736826 42.4081885,32.5286329 L27.6422031,37.1175594 Z" id="Path" fill="#108CFF" fill-rule="nonzero"></path>
        <path d="M13.6163827,30.0340404 C17.2883766,26.0592742 22.7587878,24.5394578 27.8286859,26.0856059 L27.8286859,26.0856059 L42.4047247,30.5308713 C42.8759905,30.6745876 43.1634988,31.0941122 43.2056146,31.5445509 C43.1625442,31.9783596 42.8781185,32.3825956 42.4081885,32.5286329 L27.6422031,37.1175594 C22.5062728,38.7136842 16.9137268,37.3203676 13.112638,33.4977323 L11.715,32.0916367 Z" id="Combined-Shape" fill="#0066FF" fill-rule="nonzero"></path>
    </g>
</svg>