<svg width="1044" height="348" viewBox="0 0 1044 348" fill="none" xmlns="http://www.w3.org/2000/svg">
<path d="M279.107 130.855C293.744 145.491 317.475 145.491 332.112 130.855C346.749 116.218 346.749 92.4865 332.112 77.8495C317.475 63.2126 293.744 63.2126 279.107 77.8495C264.47 92.4865 264.47 116.218 279.107 130.855Z" fill="#108CFF"/>
<path d="M196.992 145.477C171.15 137.953 143.267 145.348 124.55 164.69L106.147 183.708C75.0544 215.839 90.8621 269.603 134.398 279.792C154.056 284.393 174.687 278.36 188.769 263.892L273.778 176.555C276.776 173.474 275.415 168.309 271.287 167.107L196.992 145.477Z" fill="#FFCA62"/>
<path d="M198.04 199.546C172.325 207.492 144.324 200.556 125.293 181.524L106.581 162.811C74.9648 131.194 89.8882 77.1773 133.251 66.2751C152.831 61.3524 173.558 67.0464 187.876 81.2809L274.306 167.211C277.355 170.243 276.078 175.43 271.97 176.699L198.04 199.546Z" fill="#108CFF"/>
<path fill-rule="evenodd" clip-rule="evenodd" d="M125.291 181.523C144.322 200.555 172.323 207.491 198.038 199.545L271.968 176.698C273.394 176.257 274.48 175.344 275.161 174.212C276.013 171.34 274.475 168.041 271.284 167.112L196.989 145.481C171.147 137.957 143.264 145.353 124.547 164.694L116.637 172.869L125.291 181.523Z" fill="#0066FF"/>
<path d="M541.023 124.988V99.3852H461.1V235.157H487.486V182.788H539.494V157.185H487.486V124.988H541.023Z" fill="white"/>
<path d="M571.34 126.54C579.753 126.54 586.636 119.557 586.636 111.217C586.636 102.876 579.753 95.7 571.34 95.7C563.118 95.7 556.235 102.876 556.235 111.217C556.235 119.557 563.118 126.54 571.34 126.54ZM559.103 235.157H583.768V138.177H559.103V235.157Z" fill="white"/>
<path d="M631.009 154.858V138.177H606.344V235.157H631.009V188.8C631.009 168.435 647.261 162.616 660.072 164.168V136.237C648.026 136.237 635.98 141.668 631.009 154.858Z" fill="white"/>
<path d="M691.791 196.947H763.875C764.449 193.649 764.831 190.352 764.831 186.667C764.831 158.155 744.755 135.462 716.456 135.462C686.437 135.462 665.978 157.767 665.978 186.667C665.978 215.567 686.246 237.872 718.368 237.872C736.724 237.872 751.064 230.308 760.051 217.118L740.166 205.481C735.959 211.106 728.311 215.179 718.751 215.179C705.749 215.179 695.233 209.748 691.791 196.947ZM691.409 177.551C694.277 165.137 703.263 157.961 716.456 157.961C726.781 157.961 737.106 163.586 740.166 177.551H691.409Z" fill="white"/>
<path d="M830.683 96.6698C800.282 96.6698 785.75 110.441 785.75 137.207V138.177H771.983V162.228H785.75V235.157H810.415V162.228H826.285V138.177H810.415V137.207C810.415 124.018 817.872 118.587 830.683 118.587C833.169 118.587 835.846 118.587 838.522 118.781V235.157H863.188V100.743C852.672 98.6094 842.729 96.6698 830.683 96.6698Z" fill="white"/>
<path d="M948.014 138.177L926.79 203.347L901.934 138.177H874.974L914.171 232.053C909.582 245.049 902.698 250.867 889.123 250.673V273.948C913.406 275.306 929.658 263.087 939.601 235.157L974.4 138.177H948.014Z" fill="white"/>
</svg>